<svg width="40" height="40" viewBox="0 0 40 40" fill="none" xmlns="http://www.w3.org/2000/svg">
<g id="Police Beebo Note Seal">
<g id="Police Beebo Seal">
<g id="Wings">
<path id="Vector" d="M15.1823 20.298L15.4673 20.0031C15.8939 19.3574 16.0495 18.5698 15.9005 17.8104C15.7516 17.0509 15.31 16.3805 14.6712 15.9437L10.8182 13.3488C10.1736 12.9213 9.38687 12.7642 8.62753 12.9112C7.86819 13.0583 7.19705 13.4979 6.75874 14.1352L6.49335 14.489C6.06584 15.1336 5.90869 15.9203 6.05578 16.6796C6.20286 17.439 6.64241 18.1101 7.27968 18.5484L11.1327 21.2023C11.7907 21.6155 12.5852 21.7523 13.3435 21.5829C14.1018 21.4136 14.7626 20.9519 15.1823 20.298Z" fill="white" stroke="#1F1A54" stroke-width="0.8" stroke-miterlimit="10" stroke-linecap="round"/>
<path id="Vector (Stroke)" fill-rule="evenodd" clip-rule="evenodd" d="M8.55108 12.5182C9.41342 12.3511 10.3069 12.5296 11.0389 13.0151C11.223 13.1372 11.2732 13.3854 11.1511 13.5695C11.029 13.7536 10.7808 13.8039 10.5967 13.6818C10.0396 13.3123 9.35954 13.1764 8.70321 13.3036C8.04688 13.4307 7.46677 13.8106 7.08792 14.3614L7.08327 14.3682L6.82016 14.719C6.45528 15.2744 6.32166 15.9505 6.44809 16.6032C6.57522 17.2595 6.95514 17.8396 7.50597 18.2185L11.3592 20.8725C11.5411 20.9978 11.587 21.2469 11.4617 21.4288C11.3364 21.6107 11.0873 21.6566 10.9054 21.5313L7.05262 18.8776C6.3289 18.3798 5.82973 17.6177 5.66269 16.7553C5.49565 15.893 5.67411 14.9995 6.15962 14.2675L6.16602 14.2579L6.43358 13.9011C6.93144 13.1812 7.6915 12.6847 8.55108 12.5182Z" fill="#1F1A54"/>
<path id="Vector_2" d="M15.27 20.9261L15.6435 20.8769C16.0248 20.7872 16.3844 20.6224 16.7013 20.3921C17.0182 20.1619 17.286 19.8708 17.4891 19.5359C17.6923 19.201 17.8267 18.8289 17.8844 18.4415C17.9422 18.0541 17.9222 17.6591 17.8256 17.2795L16.7739 12.7482C16.6831 12.3678 16.5175 12.0093 16.2867 11.6935C16.056 11.3777 15.7648 11.111 15.43 10.9089C15.0952 10.7067 14.7235 10.5732 14.3367 10.516C13.9498 10.4589 13.5554 10.4793 13.1764 10.576L12.8029 10.6251C12.4225 10.716 12.064 10.8816 11.7482 11.1123C11.4324 11.343 11.1657 11.6342 10.9635 11.969C10.7614 12.3038 10.6279 12.6755 10.5707 13.0624C10.5136 13.4493 10.534 13.8437 10.6307 14.2226L11.8102 18.744C11.8851 19.1192 12.0356 19.4753 12.2524 19.7905C12.4693 20.1058 12.7481 20.3736 13.0717 20.5777C13.3953 20.7818 13.7571 20.918 14.1351 20.9779C14.513 21.0378 14.8991 21.0201 15.27 20.9261Z" fill="white" stroke="#1F1A54" stroke-width="0.8" stroke-miterlimit="10" stroke-linecap="round"/>
<path id="Vector (Stroke)_2" fill-rule="evenodd" clip-rule="evenodd" d="M15.6021 10.4834C16.3485 10.9464 16.8831 11.6842 17.0908 12.5377L17.0914 12.5404L18.1581 17.0645C18.3539 17.9213 18.2049 18.8207 17.7433 19.5687C17.2818 20.3167 16.5447 20.8532 15.6911 21.0625L15.6551 21.0713L15.247 21.0941C14.4045 21.3015 13.5137 21.1739 12.7628 20.7371C12.0001 20.2935 11.4433 19.5667 11.2135 18.7148L11.2113 18.7066L10.1834 14.1339C9.99022 13.2771 10.1414 12.3786 10.6044 11.6322C11.0674 10.8857 11.8052 10.3511 12.6587 10.1435L12.6699 10.1408L13.1086 10.0606C13.9629 9.87021 14.858 10.0219 15.6021 10.4834ZM16.3131 12.7254C16.1549 12.0764 15.7481 11.5154 15.1804 11.1633C14.6123 10.8109 13.9284 10.6958 13.2763 10.8429L13.2683 10.8447L12.8369 10.9235C12.1919 11.0834 11.6347 11.4889 11.2842 12.0539C10.9319 12.622 10.8168 13.3058 10.9638 13.958L11.988 18.5143C12.1642 19.1593 12.5869 19.7093 13.1651 20.0456C13.7456 20.3833 14.4359 20.4782 15.086 20.3097L15.1244 20.2997L15.5352 20.2768C16.1701 20.1116 16.7175 19.7077 17.0625 19.1486C17.4135 18.5797 17.527 17.8957 17.3785 17.244C17.3784 17.2435 17.3783 17.2431 17.3782 17.2426L16.3134 12.7268C16.3133 12.7263 16.3132 12.7259 16.3131 12.7254Z" fill="#1F1A54"/>
</g>
<g id="Bee">
<path id="Vector_3" d="M12.3213 18.6056L20.6564 15.4505C22.5315 14.7924 24.5903 14.8982 26.3881 15.7451C28.1859 16.5921 29.5784 18.1121 30.265 19.977C30.9516 21.8419 30.8772 23.9021 30.0577 25.7126C29.2383 27.523 27.7397 28.9386 25.8855 29.6535L17.5504 32.7989C16.1985 33.2969 14.7443 33.3946 13.3574 33.0987C12.8133 32.9826 12.2796 32.8059 11.7665 32.5691C10.4998 31 9.19342 29.8821 8.5 28C8.16481 27.0902 7.35014 26.4508 7.37558 25.5C7.40277 24.4838 7.63474 23.4738 8.06897 22.5329C8.90953 20.7117 10.4391 19.299 12.3213 18.6056Z" fill="#FFD400"/>
<path id="Intersect" fill-rule="evenodd" clip-rule="evenodd" d="M13.3615 33.1001C13.2404 33.0744 13.1198 33.0456 12.9998 33.0139C12.7474 32.9471 12.5822 32.8422 12.4041 32.7291C12.2851 32.6535 12.1603 32.5742 11.9998 32.5001C10.6952 31.5216 10.2416 30.7558 9.66749 29.7863C9.36158 29.2697 9.02141 28.6954 8.5 28.0001C8.37057 27.6488 8.16937 27.3379 7.97258 27.0337C7.65972 26.5501 7.35801 26.0838 7.37363 25.5001C7.40082 24.484 7.63278 23.4739 8.06702 22.5331C8.36078 21.8966 8.7387 21.31 9.18642 20.7866C8.70545 23.28 8.31062 28.9675 13.3615 33.1001ZM23.8152 30.4342L18.5688 32.4139C17.4923 31.5807 11.3637 26.4235 13.1737 18.2823L18.3724 16.3145C17.8356 18.5743 16.7599 25.8894 23.8152 30.4342Z" fill="#1F1A54"/>
</g>
<g id="face">
<path id="Vector_4" d="M26.9379 22.5586C26.4409 23.0589 25.7658 23.3417 25.0605 23.3449" stroke="#1F1A54" stroke-width="0.8" stroke-miterlimit="10" stroke-linecap="round"/>
<path id="Vector_5" d="M21.9449 22.0666C22.0413 22.2751 22.2127 22.4396 22.4249 22.5275C22.6371 22.6154 22.8746 22.6202 23.0902 22.5409C23.3058 22.4616 23.4836 22.3041 23.5883 22.0996C23.693 21.8951 23.7169 21.6588 23.6552 21.4375C23.6158 21.3238 23.5539 21.2193 23.4731 21.1301C23.3924 21.0409 23.2945 20.9689 23.1853 20.9185C23.0761 20.868 22.9579 20.8401 22.8376 20.8364C22.7174 20.8327 22.5976 20.8532 22.4855 20.8969C22.371 20.9351 22.2656 20.9963 22.1756 21.0768C22.0856 21.1573 22.0131 21.2553 21.9625 21.3649C21.9118 21.4745 21.8842 21.5932 21.8811 21.7139C21.8781 21.8346 21.8998 21.9546 21.9449 22.0666Z" fill="#1F1A54"/>
<path id="Vector_6" d="M22.358 21.8217C22.3632 21.8673 22.3815 21.9103 22.4107 21.9456C22.44 21.9809 22.4789 22.007 22.5227 22.0205C22.5665 22.0341 22.6133 22.0346 22.6573 22.022C22.7014 22.0093 22.7409 21.9842 22.7708 21.9495C22.8167 21.9469 22.8606 21.9305 22.8969 21.9024C22.9331 21.8743 22.96 21.8358 22.9738 21.7921C22.9877 21.7484 22.9879 21.7014 22.9745 21.6576C22.9611 21.6137 22.9346 21.575 22.8986 21.5465C22.8935 21.5022 22.8759 21.4603 22.8479 21.4257C22.8199 21.391 22.7827 21.3649 22.7405 21.3505C22.6984 21.3361 22.653 21.334 22.6097 21.3443C22.5663 21.3546 22.5268 21.377 22.4956 21.4089C22.4367 21.4187 22.3384 21.6251 22.358 21.8217Z" fill="white"/>
<path id="Vector_7" d="M26.396 20.4552C26.4932 20.6711 26.665 20.8446 26.8799 20.9439C27.0948 21.0432 27.3383 21.0617 27.5657 20.9958C27.7977 20.9124 27.9871 20.7402 28.0921 20.5172C28.1972 20.2941 28.2094 20.0385 28.1259 19.8065C28.0425 19.5745 27.8703 19.3851 27.6473 19.28C27.4243 19.175 27.1686 19.1628 26.9366 19.2462C26.819 19.2863 26.7109 19.3503 26.6191 19.434C26.5273 19.5178 26.4537 19.6195 26.403 19.733C26.3523 19.8464 26.3255 19.9691 26.3243 20.0934C26.3231 20.2176 26.3475 20.3408 26.396 20.4552Z" fill="#1F1A54"/>
<path id="Vector_8" d="M26.8101 20.229C26.8256 20.2685 26.8493 20.3043 26.8795 20.3342C26.9097 20.364 26.9459 20.3872 26.9856 20.4022C27.0253 20.4173 27.0677 20.4239 27.1101 20.4216C27.1525 20.4193 27.1939 20.4081 27.2318 20.3888C27.2696 20.3696 27.303 20.3426 27.3298 20.3097C27.3567 20.2768 27.3763 20.2386 27.3875 20.1976C27.3987 20.1567 27.4012 20.1138 27.3948 20.0718C27.3885 20.0298 27.3735 19.9896 27.3507 19.9538C27.3481 19.908 27.3317 19.864 27.3036 19.8278C27.2755 19.7915 27.237 19.7647 27.1933 19.7508C27.1495 19.7369 27.1026 19.7367 27.0588 19.7501C27.0149 19.7636 26.9761 19.79 26.9477 19.826C26.8789 19.8064 26.7806 20.0128 26.8101 20.229Z" fill="white"/>
</g>
<path id="Vector_9" d="M17.6879 15.4426L18.376 16.3174L26.082 15.3148L26.4457 13.1721C26.4885 12.8991 26.4381 12.6197 26.3025 12.3789C26.167 12.1382 25.9542 11.9501 25.6987 11.8452L23.32 10.8622C23.1419 10.7899 22.9492 10.7611 22.7577 10.7782C22.5662 10.7953 22.3816 10.8578 22.2192 10.9605L17.9926 13.6341C17.8435 13.724 17.7156 13.8452 17.6176 13.9892C17.5196 14.1332 17.4539 14.2966 17.425 14.4684C17.3961 14.6401 17.4046 14.8161 17.45 14.9842C17.4953 15.1524 17.5765 15.3087 17.6879 15.4426Z" fill="#3057BA"/>
<path id="Vector_10" d="M27.0658 14.4386C27.1739 14.9104 27.3901 15.854 23.0456 16.827C18.7012 17.8001 18.2982 16.7288 18.3473 16.3159C18.426 15.7164 20.3131 15.9523 22.7213 15.4117C25.1294 14.871 26.9969 13.9668 27.0658 14.4386Z" fill="#1F1A54"/>
<path id="Vector_11" d="M24.0567 14.1054C23.9293 14.2819 23.7691 14.432 23.5849 14.5477H23.5259C23.3134 14.5215 23.1072 14.4583 22.9165 14.361C22.6508 14.2191 22.423 14.0157 22.252 13.7677C22.081 13.5198 21.9718 13.2345 21.9336 12.9358C21.9336 12.9063 21.9336 12.9063 21.9336 12.8768H21.9336C22.1456 12.857 22.3488 12.7825 22.5233 12.6606C22.6615 12.567 22.776 12.4425 22.8575 12.2969H22.9067C23.0439 12.3858 23.1977 12.446 23.3588 12.4738C23.5693 12.5116 23.7859 12.4946 23.9879 12.4247H24.0763C24.2039 12.6871 24.2685 12.9756 24.2651 13.2674C24.2617 13.5591 24.1903 13.8461 24.0567 14.1054Z" fill="#FFD400"/>
<path id="Vector_12" d="M20.2223 37.179C20.2153 37.1819 20.2083 37.1849 20.2015 37.1881C20.1356 37.2186 20.064 37.2343 19.9915 37.2343C19.9189 37.2343 19.8473 37.2186 19.7815 37.1881C19.7746 37.1849 19.7677 37.1819 19.7608 37.1791C17.0709 36.0788 14.596 34.5131 12.4497 32.5536C4.15689 24.8856 4.28186 13.7385 4.60923 9.70956C4.62821 9.54474 4.71049 9.39364 4.83881 9.28824L4.83886 9.28829L4.84526 9.28286C4.90028 9.23609 4.96378 9.20045 5.03223 9.17784C5.10454 9.1655 5.17858 9.16674 5.25054 9.18157C5.26275 9.18409 5.27505 9.18615 5.28742 9.18775C8.25305 9.57072 11.267 9.13557 14.0031 7.92939L14.0053 7.92843C16.1512 6.97037 18.0473 5.53056 19.5465 3.72083L19.5465 3.72086L19.5505 3.71597C19.6307 3.61656 19.7426 3.54759 19.8675 3.5205C19.8739 3.5191 19.8803 3.51758 19.8867 3.51593C20.0059 3.48509 20.1323 3.49934 20.2417 3.55593C20.2556 3.56317 20.27 3.56974 20.2846 3.57562C20.3514 3.60258 20.4098 3.64711 20.4535 3.70451C20.4577 3.71007 20.462 3.71553 20.4665 3.7209C21.9638 5.52782 23.8558 6.96712 25.9967 7.92804L25.9999 7.92944C28.7337 9.13369 31.7463 9.56202 34.7075 9.16748C34.7184 9.16603 34.7293 9.16421 34.7401 9.16203C34.8189 9.14616 34.9 9.14529 34.9791 9.15942C35.0458 9.17857 35.1079 9.21143 35.1613 9.25596L35.1612 9.25608L35.171 9.26377C35.2303 9.31075 35.2781 9.37059 35.311 9.43877C35.3145 9.44624 35.3183 9.45362 35.3223 9.46091C35.3575 9.52564 35.378 9.59735 35.3823 9.67091L35.3821 9.67092L35.3833 9.6847C35.7308 13.7255 35.8607 24.8811 27.5434 32.5434C25.3955 34.5083 22.917 36.0777 20.2223 37.179Z" stroke="#1F1A54" stroke-linecap="round" stroke-linejoin="round"/>
</g>
</g>
</svg>
