<svg width="35" height="36" viewBox="0 0 35 36" fill="none" xmlns="http://www.w3.org/2000/svg">
<mask id="mask0" mask-type="alpha" maskUnits="userSpaceOnUse" x="0" y="0" width="33" height="36">
<path d="M24.3752 30.4092C22.1857 32.4147 19.6588 34.0173 16.9113 35.143C16.7776 35.1972 16.6349 35.2258 16.4907 35.2271C16.3464 35.2265 16.2035 35.1979 16.0701 35.143C13.3252 34.0199 10.8009 32.4199 8.61379 30.4168C0.125104 22.5782 0.278053 11.2064 0.614542 7.1609C0.624536 7.01352 0.666276 6.87003 0.736901 6.74029C0.805255 6.60648 0.901788 6.48908 1.01986 6.39615C1.13589 6.30367 1.26816 6.23364 1.40988 6.18967C1.55618 6.15937 1.70713 6.15937 1.85343 6.18967C4.72915 6.56273 7.65209 6.13949 10.3039 4.96608C12.3774 4.03961 14.2093 2.64737 15.6571 0.897623C15.8125 0.709321 16.0264 0.578415 16.2647 0.525751C16.5031 0.473088 16.7522 0.501696 16.9725 0.607019C17.1174 0.674881 17.2454 0.774149 17.3472 0.897623C18.7974 2.64679 20.6285 4.04104 22.7004 4.97372C25.3528 6.13534 28.2728 6.54795 31.1432 6.16673C31.2895 6.13599 31.4405 6.13599 31.5868 6.16673C31.731 6.20446 31.8645 6.27514 31.9768 6.37321C32.0971 6.46382 32.1941 6.58179 32.2598 6.71735C32.3304 6.84709 32.3721 6.99057 32.3821 7.13796C32.7263 11.2064 32.8792 22.5782 24.3752 30.4092Z" fill="white"/>
</mask>
<g mask="url(#mask0)">
<path d="M8.4302 15.9871L16.683 12.8706C20.6007 11.4065 24.8424 13.455 26.2974 17.3104C27.7615 21.228 25.713 25.4697 21.8575 26.9247L13.6047 30.0411C9.68698 31.5052 5.44529 29.4568 3.99031 25.6013C2.48222 21.8173 4.51249 17.4512 8.4302 15.9871Z" fill="#FFD400"/>
<path d="M12.8856 18.1918L13.1603 17.8972C14.0451 16.5597 13.7183 14.764 12.3808 13.8793L8.56406 11.2599C7.22653 10.3752 5.43079 10.7019 4.54604 12.0394L4.28045 12.3962C3.39571 13.7337 3.72241 15.5294 5.05994 16.4142L8.87671 19.0335C10.2142 19.9182 12.0009 19.5293 12.8856 18.1918Z" fill="white" stroke="#1F1A54" stroke-width="0.8" stroke-miterlimit="10" stroke-linecap="round"/>
<path d="M12.9768 18.8168L13.3503 18.7621C14.8788 18.3474 15.9229 16.7958 15.4991 15.205L14.4599 10.7165C14.0452 9.18801 12.4936 8.14393 10.9028 8.56775L10.5294 8.62247C9.00086 9.03718 7.95676 10.5888 8.38058 12.1795L9.54421 16.6498C9.84356 18.2588 11.5105 19.2224 12.9768 18.8168Z" fill="white" stroke="#1F1A54" stroke-width="0.8" stroke-miterlimit="10" stroke-linecap="round"/>
<path d="M8.4305 15.9868L16.6833 12.8703C20.601 11.4062 24.8427 13.4547 26.2977 17.3101C27.7618 21.2278 25.7133 25.4694 21.8578 26.9244L13.605 30.0409C9.68729 31.505 5.44559 29.4565 3.99062 25.6011C2.48253 21.817 4.5128 17.4509 8.4305 15.9868Z" fill="#FFD400"/>
<path d="M8.4302 15.9871L16.683 12.8706C20.6007 11.4065 24.8424 13.455 26.2974 17.3104C27.7615 21.228 25.713 25.4697 21.8575 26.9247L13.6047 30.0411C9.68698 31.5052 5.44529 29.4568 3.99031 25.6013C2.48222 21.8173 4.51249 17.4512 8.4302 15.9871Z" fill="#FFD400"/>
<mask id="mask1" mask-type="alpha" maskUnits="userSpaceOnUse" x="3" y="12" width="24" height="19">
<path d="M8.4305 15.9868L16.6833 12.8703C20.601 11.4062 24.8427 13.4547 26.2977 17.3101C27.7618 21.2278 25.7133 25.4694 21.8578 26.9244L13.605 30.0409C9.68729 31.505 5.44559 29.4565 3.99062 25.6011C2.48253 21.817 4.5128 17.4509 8.4305 15.9868Z" fill="#FFD400"/>
</mask>
<g mask="url(#mask1)">
<path d="M14.6108 13.0462C14.6108 13.0462 11.4157 22.478 20.0192 27.8288L14.7779 29.8047C14.7779 29.8047 7.04569 24.3263 9.39689 15.2088C9.50313 15.0661 14.62 13.1084 14.6108 13.0462Z" fill="#1F1A54"/>
<path d="M5.64051 16.9048C5.64051 16.9048 2.48023 26.1409 11.0124 31.4385L5.77112 33.4144C5.77112 33.4144 -1.95201 27.9982 0.426554 19.0674C0.470551 18.9338 5.7301 17.0824 5.64051 16.9048Z" fill="#1F1A54"/>
</g>
<path d="M22.694 19.6138C22.694 19.6138 22.1553 20.7099 20.8376 20.3944" stroke="#1F1A54" stroke-width="0.8" stroke-miterlimit="10" stroke-linecap="round"/>
<path d="M17.9602 19.4184C18.1576 19.898 18.6297 20.0831 19.1185 19.9479C19.5982 19.7505 19.7833 19.2784 19.6481 18.7896C19.5129 18.3008 18.9785 18.1249 18.4897 18.2601C18.001 18.3952 17.7719 19.001 17.9602 19.4184Z" fill="#1F1A54"/>
<path d="M18.3694 19.1685C18.3967 19.3552 18.6017 19.4523 18.7701 19.3004C18.9569 19.2731 19.054 19.0681 18.9021 18.8997C18.8748 18.713 18.6698 18.6159 18.5014 18.7677C18.4391 18.7768 18.342 18.9817 18.3694 19.1685Z" fill="white"/>
<path d="M22.367 17.8215C22.5645 18.3011 23.0366 18.4862 23.5254 18.351C24.005 18.1536 24.1901 17.6815 24.0549 17.1927C23.8575 16.713 23.3854 16.5279 22.8966 16.6631C22.4701 16.7892 22.1696 17.3418 22.367 17.8215Z" fill="#1F1A54"/>
<path d="M22.7754 17.5679C22.8027 17.7546 23.0077 17.8517 23.1762 17.6999C23.3629 17.6725 23.46 17.4676 23.3081 17.2991C23.2808 17.1124 23.0758 17.0153 22.9074 17.1671C22.8451 17.1762 22.748 17.3812 22.7754 17.5679Z" fill="white"/>
<path d="M20.6606 13.1159C20.6606 13.1159 19.998 9.46219 22.8459 9.80775" stroke="#1F1A54" stroke-width="0.8" stroke-miterlimit="10" stroke-linecap="round"/>
<path d="M18.057 14.0035C18.057 14.0035 15.8037 10.7737 17.9788 9.56494" stroke="#1F1A54" stroke-width="0.8" stroke-miterlimit="10" stroke-linecap="round"/>
</g>
<path d="M24.3752 30.4092C22.1857 32.4147 19.6588 34.0173 16.9113 35.143C16.7776 35.1972 16.6349 35.2258 16.4907 35.2271C16.3464 35.2265 16.2035 35.1979 16.0701 35.143C13.3252 34.0199 10.8009 32.4199 8.61379 30.4168C0.125104 22.5782 0.278053 11.2064 0.614542 7.1609C0.624536 7.01352 0.666276 6.87003 0.736901 6.74029C0.805255 6.60648 0.901788 6.48908 1.01986 6.39615C1.13589 6.30367 1.26816 6.23364 1.40988 6.18967C1.55618 6.15937 1.70713 6.15937 1.85343 6.18967C4.72915 6.56273 7.65209 6.13949 10.3039 4.96608C12.3774 4.03961 14.2093 2.64737 15.6571 0.897623C15.8125 0.709321 16.0264 0.578415 16.2647 0.525751C16.5031 0.473088 16.7522 0.501696 16.9725 0.607019C17.1174 0.674881 17.2454 0.774149 17.3472 0.897623C18.7974 2.64679 20.6285 4.04104 22.7004 4.97372C25.3528 6.13534 28.2728 6.54795 31.1432 6.16673C31.2895 6.13599 31.4405 6.13599 31.5868 6.16673C31.731 6.20446 31.8645 6.27514 31.9768 6.37321C32.0971 6.46382 32.1941 6.58179 32.2598 6.71735C32.3304 6.84709 32.3721 6.99057 32.3821 7.13796C32.7263 11.2064 32.8792 22.5782 24.3752 30.4092Z" stroke="#1F1A54" stroke-linecap="round" stroke-linejoin="round"/>
<path d="M3.09353 0.829425L2.52905 2.79004L6.74229 4.00306L7.30677 2.04244L3.09353 0.829425Z" fill="#FED401"/>
<path d="M23.8905 28.7357L22.0322 29.5779L23.842 33.5713L25.7004 32.7291L23.8905 28.7357Z" fill="#FED401"/>
<path d="M34.4403 12.9713L33.1599 11.3828L29.7464 14.1343L31.0267 15.7227L34.4403 12.9713Z" fill="#FED401"/>
<path d="M5.37693 30.2367L3.74701 29.0095L1.10986 32.5121L2.73979 33.7393L5.37693 30.2367Z" fill="#00BB94"/>
<path d="M26.3488 9.50007L25.1871 11.1772L28.7912 13.6738L29.953 11.9966L26.3488 9.50007Z" fill="#6E98EB"/>
</svg>
