<svg width="64" height="64" viewBox="0 0 64 64" fill="none" xmlns="http://www.w3.org/2000/svg">
<path d="M10.0003 16.9354C8.76254 17.6498 8 18.9705 8 20.3997V43.9603C8 45.3895 8.76254 46.7102 10.0003 47.4246L30.4099 59.2055C31.6476 59.9199 33.1723 59.9198 34.4099 59.2052L54.8103 47.4248C56.0477 46.7102 56.81 45.3898 56.81 43.9608V20.3992C56.81 18.9702 56.0477 17.6498 54.8103 16.9352L34.4099 5.15484C33.1723 4.44022 31.6476 4.44009 30.4099 5.15449L10.0003 16.9354Z" fill="url(#paint0_linear)"/>
<path opacity="0.25" fill-rule="evenodd" clip-rule="evenodd" d="M56.6875 37.2475C56.585 37.336 56.5524 37.4862 56.6173 37.6119C56.6354 37.647 56.6594 37.677 56.6875 37.7013V37.2475ZM45.9455 52.4031C45.4744 52.3868 45.0178 52.3696 44.5738 52.3521C44.4083 52.3456 44.2688 52.4745 44.2623 52.6401C44.2558 52.8056 44.3847 52.9451 44.5503 52.9516C44.6881 52.9571 44.8272 52.9625 44.9676 52.9678L45.9455 52.4031ZM23.5829 55.0835C23.7862 55.0171 23.9898 54.952 24.1939 54.8882C24.352 54.8387 24.4401 54.6705 24.3907 54.5123C24.3413 54.3542 24.173 54.2661 24.0148 54.3155C23.638 54.4333 23.2624 54.5556 22.8883 54.6824L23.5829 55.0835ZM8.29553 44.7638C8.57573 44.8501 8.86451 44.9318 9.16114 45.0091C9.32147 45.0509 9.48531 44.9548 9.52709 44.7944C9.56886 44.6341 9.47275 44.4703 9.31242 44.4285C8.92763 44.3282 8.55798 44.2207 8.20497 44.1058C8.21695 44.3291 8.24751 44.5491 8.29553 44.7638ZM8.19922 34.698C8.43233 34.6124 8.67349 34.5322 8.92244 34.4577C9.08117 34.4102 9.17133 34.243 9.12382 34.0843C9.07631 33.9256 8.90912 33.8354 8.75039 33.8829C8.56283 33.9391 8.37906 33.9984 8.19922 34.0609V34.698ZM14.9873 33.438C14.9914 33.2724 15.129 33.1415 15.2947 33.1456C16.1975 33.1681 17.136 33.2316 18.105 33.3365C18.2697 33.3543 18.3888 33.5023 18.3709 33.667C18.3531 33.8317 18.2051 33.9508 18.0404 33.933C17.0868 33.8298 16.1649 33.7675 15.2797 33.7454C15.1141 33.7413 14.9832 33.6037 14.9873 33.438ZM13.7248 33.4471C13.7318 33.6126 13.6033 33.7525 13.4377 33.7595C12.4666 33.8005 11.5516 33.8958 10.7004 34.0439C10.5372 34.0723 10.3819 33.963 10.3535 33.7997C10.3251 33.6365 10.4344 33.4812 10.5976 33.4528C11.4772 33.2997 12.4183 33.202 13.4124 33.16C13.578 33.153 13.7178 33.2815 13.7248 33.4471ZM19.622 33.8331C19.6475 33.6694 19.801 33.5574 19.9647 33.583C20.4213 33.6543 20.8835 33.7342 21.351 33.8228C21.5138 33.8537 21.6208 34.0106 21.5899 34.1734C21.5591 34.3362 21.4021 34.4432 21.2393 34.4123C20.7781 34.3249 20.3222 34.2461 19.8721 34.1758C19.7084 34.1503 19.5964 33.9968 19.622 33.8331ZM55.259 38.2886C55.3307 38.4379 55.2679 38.6171 55.1185 38.6889C54.1599 39.1497 53.1921 39.5897 52.2158 40.0088C52.0636 40.0742 51.8871 40.0038 51.8218 39.8515C51.7564 39.6993 51.8269 39.5229 51.9791 39.4575C52.9476 39.0417 53.9076 38.6052 54.8586 38.1481C55.008 38.0764 55.1872 38.1392 55.259 38.2886ZM50.4191 40.4304C50.4801 40.5844 50.4047 40.7588 50.2506 40.8198C49.2622 41.2114 48.2657 41.5819 47.2618 41.931C47.1053 41.9855 46.9343 41.9027 46.8799 41.7462C46.8255 41.5897 46.9082 41.4188 47.0647 41.3643C48.0605 41.018 49.0491 40.6504 50.0296 40.262C50.1837 40.2009 50.358 40.2763 50.4191 40.4304ZM45.4397 42.2244C45.4897 42.3823 45.4021 42.5509 45.2442 42.6009C44.2308 42.9215 43.2106 43.2205 42.1842 43.4979C42.0243 43.5411 41.8596 43.4465 41.8163 43.2865C41.7731 43.1266 41.8677 42.9619 42.0277 42.9187C43.0459 42.6435 44.058 42.3469 45.0632 42.0288C45.2212 41.9789 45.3897 42.0664 45.4397 42.2244ZM40.3459 43.6616C40.3846 43.8227 40.2854 43.9847 40.1243 44.0233C39.0912 44.2713 38.0523 44.4975 37.0085 44.7016C36.8459 44.7334 36.6883 44.6273 36.6565 44.4647C36.6247 44.3021 36.7307 44.1445 36.8933 44.1127C37.9289 43.9103 38.9594 43.6859 39.9842 43.4399C40.1453 43.4012 40.3073 43.5005 40.3459 43.6616ZM35.1632 44.7348C35.1904 44.8983 35.0799 45.0528 34.9165 45.08C34.3924 45.1671 33.8672 45.2487 33.3409 45.3248L33.3394 45.325C32.8432 45.3941 32.3303 45.4604 31.8032 45.5232C31.6387 45.5428 31.4894 45.4253 31.4698 45.2608C31.4502 45.0962 31.5677 44.947 31.7322 44.9274C32.2553 44.8651 32.764 44.7994 33.2559 44.7309C33.7777 44.6554 34.2984 44.5745 34.8181 44.4881C34.9815 44.4609 35.136 44.5714 35.1632 44.7348ZM10.953 45.103C10.9823 44.94 11.1383 44.8316 11.3014 44.8609C12.2588 45.0332 13.2764 45.1713 14.3367 45.2783C14.5016 45.295 14.6217 45.4421 14.6051 45.6069C14.5884 45.7718 14.4413 45.8919 14.2764 45.8753C13.2034 45.7669 12.1701 45.6269 11.1951 45.4514C11.032 45.4221 10.9236 45.2661 10.953 45.103ZM30.021 45.4159C30.0367 45.5808 29.9158 45.7273 29.7509 45.743C28.7521 45.8385 27.718 45.921 26.6632 45.9877C26.4978 45.9981 26.3553 45.8726 26.3448 45.7072C26.3344 45.5419 26.46 45.3993 26.6253 45.3889C27.6738 45.3226 28.7014 45.2406 29.6938 45.1458C29.8587 45.13 30.0052 45.2509 30.021 45.4159ZM16.0587 45.7246C16.0691 45.5592 16.2116 45.4336 16.3769 45.444C17.3802 45.5071 18.4085 45.5464 19.4485 45.5646C19.6141 45.5675 19.7461 45.7041 19.7432 45.8698C19.7403 46.0355 19.6036 46.1674 19.438 46.1645C18.3899 46.1461 17.3525 46.1065 16.3393 46.0428C16.1739 46.0324 16.0483 45.8899 16.0587 45.7246ZM24.8881 45.7838C24.8951 45.9493 24.7665 46.0892 24.6009 46.0961C23.575 46.139 22.5385 46.1658 21.5041 46.174C21.3384 46.1753 21.203 46.042 21.2017 45.8763C21.2004 45.7107 21.3337 45.5753 21.4993 45.574C22.5266 45.5659 23.5563 45.5393 24.5759 45.4966C24.7414 45.4897 24.8812 45.6183 24.8881 45.7838ZM37.4594 52.7515C37.6251 52.75 37.7582 52.6145 37.7567 52.4488C37.7552 52.2831 37.6197 52.15 37.454 52.1515C36.4423 52.1607 35.4351 52.1982 34.3905 52.278C34.2253 52.2906 34.1016 52.4348 34.1142 52.6C34.1269 52.7652 34.271 52.8889 34.4362 52.8762C35.4655 52.7976 36.4591 52.7605 37.4594 52.7515ZM39.4943 52.1669C39.3287 52.1633 39.1915 52.2947 39.1879 52.4603C39.1843 52.626 39.3157 52.7632 39.4813 52.7667C40.4514 52.7878 41.4521 52.8257 42.5203 52.8691C42.6858 52.8758 42.8255 52.747 42.8322 52.5815C42.8389 52.4159 42.7102 52.2763 42.5446 52.2696C41.476 52.2262 40.4705 52.1881 39.4943 52.1669ZM32.4293 53.0789C32.5937 53.0583 32.7103 52.9083 32.6897 52.7439C32.6691 52.5795 32.5191 52.4629 32.3547 52.4835C31.8622 52.5452 31.3573 52.617 30.8363 52.7L30.8351 52.7002C30.4278 52.7668 30.0214 52.8385 29.616 52.9152C29.4533 52.946 29.3462 53.1029 29.3771 53.2657C29.4079 53.4285 29.5648 53.5355 29.7276 53.5047C30.1279 53.429 30.5291 53.3582 30.9313 53.2924C31.4457 53.2105 31.9438 53.1397 32.4293 53.0789ZM28.1307 53.8344C28.2924 53.7982 28.3941 53.6378 28.3579 53.4761C28.3218 53.3144 28.1614 53.2127 27.9997 53.2488C27.1943 53.4291 26.3935 53.6293 25.5981 53.8493C25.4384 53.8934 25.3447 54.0587 25.3889 54.2184C25.4331 54.3781 25.5983 54.4717 25.758 54.4275C26.5439 54.2102 27.335 54.0124 28.1307 53.8344Z" fill="white"/>
<path d="M24.416 32.9647L30.2684 38.817L41.6353 27.4402" stroke="white" stroke-width="4" stroke-linecap="round" stroke-linejoin="round"/>
<path d="M47.964 47.1332L49.2458 49.7067C49.2645 49.7483 49.2957 49.7831 49.3352 49.806L51.6801 51.217C51.7151 51.2382 51.744 51.2682 51.764 51.3038C51.7841 51.3395 51.7946 51.3797 51.7946 51.4207C51.7946 51.4616 51.7841 51.5018 51.764 51.5375C51.744 51.5732 51.7151 51.6031 51.6801 51.6243L49.3352 53.0353C49.2957 53.0582 49.2645 53.093 49.2458 53.1346L47.964 55.7081C47.9471 55.7439 47.9204 55.7742 47.887 55.7954C47.8536 55.8166 47.8148 55.8279 47.7752 55.8279C47.7356 55.8279 47.6969 55.8166 47.6634 55.7954C47.63 55.7742 47.6033 55.7439 47.5864 55.7081L46.3047 53.1346C46.286 53.093 46.2547 53.0582 46.2152 53.0353L43.8703 51.6243C43.8354 51.6031 43.8065 51.5732 43.7864 51.5375C43.7664 51.5018 43.7559 51.4616 43.7559 51.4207C43.7559 51.3797 43.7664 51.3395 43.7864 51.3038C43.8065 51.2682 43.8354 51.2382 43.8703 51.217L46.1755 49.806C46.215 49.7831 46.2462 49.7483 46.2649 49.7067L47.5467 47.1332C47.5467 47.0779 47.5687 47.0248 47.6078 46.9857C47.6469 46.9465 47.7 46.9246 47.7553 46.9246C47.8107 46.9246 47.8638 46.9465 47.9029 46.9857C47.942 47.0248 47.964 47.0779 47.964 47.1332Z" fill="url(#paint1_linear)"/>
<path d="M50.6071 21.7472L51.3225 23.1879V23.2475L52.644 24.0325C52.6625 24.0463 52.6775 24.0643 52.6879 24.085C52.6982 24.1057 52.7036 24.1286 52.7036 24.1517C52.7036 24.1748 52.6982 24.1977 52.6879 24.2183C52.6775 24.239 52.6625 24.257 52.644 24.2709L51.3722 25.0658C51.3722 25.0658 51.3722 25.0658 51.3722 25.1254L50.6568 26.5662C50.6465 26.5848 50.6313 26.6003 50.613 26.6112C50.5947 26.622 50.5737 26.6277 50.5524 26.6277C50.5311 26.6277 50.5102 26.622 50.4919 26.6112C50.4735 26.6003 50.4584 26.5848 50.4481 26.5662L49.7228 25.1254C49.7289 25.106 49.7289 25.0852 49.7228 25.0658L48.4112 24.2809C48.3906 24.2685 48.3736 24.251 48.3618 24.2301C48.35 24.2092 48.3438 24.1856 48.3438 24.1616C48.3438 24.1376 48.35 24.114 48.3618 24.0931C48.3736 24.0722 48.3906 24.0548 48.4112 24.0424L49.7228 23.2574C49.7228 23.2574 49.7228 23.2574 49.7228 23.1978L50.4481 21.7571C50.4576 21.7456 50.4694 21.7362 50.4827 21.7294C50.496 21.7226 50.5106 21.7187 50.5255 21.7177C50.5403 21.7168 50.5553 21.7189 50.5693 21.724C50.5834 21.7291 50.5962 21.7369 50.6071 21.7472Z" fill="url(#paint2_linear)"/>
<path d="M14.8075 39.5823L15.3838 40.7249L16.3774 41.3509C16.3939 41.3605 16.4076 41.3743 16.4171 41.3908C16.4266 41.4074 16.4316 41.4262 16.4316 41.4453C16.4316 41.4644 16.4266 41.4831 16.4171 41.4997C16.4076 41.5163 16.3939 41.53 16.3774 41.5397L15.3838 42.1656L14.8075 43.3083C14.8014 43.3258 14.79 43.341 14.7749 43.3518C14.7597 43.3626 14.7416 43.3683 14.723 43.3683C14.7045 43.3683 14.6864 43.3626 14.6712 43.3518C14.6561 43.341 14.6447 43.3258 14.6386 43.3083L14.0722 42.1656L13.0786 41.5397C13.0642 41.5285 13.0525 41.5142 13.0445 41.4979C13.0364 41.4815 13.0322 41.4635 13.0322 41.4453C13.0322 41.427 13.0364 41.4091 13.0445 41.3927C13.0525 41.3763 13.0642 41.362 13.0786 41.3509L14.0722 40.7249L14.6386 39.5823C14.6447 39.5647 14.6561 39.5495 14.6712 39.5388C14.6864 39.528 14.7045 39.5222 14.723 39.5222C14.7416 39.5222 14.7597 39.528 14.7749 39.5388C14.79 39.5495 14.8014 39.5647 14.8075 39.5823Z" fill="url(#paint3_linear)"/>
<path opacity="0.5" d="M22.4981 19.3718L22.9453 20.2859L23.77 20.7827C23.7852 20.7884 23.7983 20.7986 23.8076 20.8119C23.8168 20.8252 23.8218 20.841 23.8218 20.8573C23.8218 20.8735 23.8168 20.8893 23.8076 20.9027C23.7983 20.916 23.7852 20.9261 23.77 20.9318L22.9453 21.4286L22.4981 22.3427C22.4913 22.3551 22.4812 22.3655 22.469 22.3727C22.4567 22.3799 22.4428 22.3837 22.4286 22.3837C22.4144 22.3837 22.4004 22.3799 22.3882 22.3727C22.376 22.3655 22.3659 22.3551 22.359 22.3427L21.902 21.4286L21.0673 20.9318C21.055 20.9236 21.045 20.9126 21.038 20.8996C21.031 20.8866 21.0273 20.872 21.0273 20.8573C21.0273 20.8425 21.031 20.828 21.038 20.815C21.045 20.802 21.055 20.7909 21.0673 20.7827L21.902 20.2859L22.359 19.3718C22.3659 19.3594 22.376 19.349 22.3882 19.3418C22.4004 19.3346 22.4144 19.3308 22.4286 19.3308C22.4428 19.3308 22.4567 19.3346 22.469 19.3418C22.4812 19.349 22.4913 19.3594 22.4981 19.3718Z" fill="url(#paint4_linear)"/>
<defs>
<linearGradient id="paint0_linear" x1="32.405" y1="60.14" x2="32.405" y2="11.33" gradientUnits="userSpaceOnUse">
<stop stop-color="#61D3F7"/>
<stop offset="1" stop-color="#318BFF"/>
</linearGradient>
<linearGradient id="paint1_linear" x1="43.7113" y1="51.4157" x2="51.7497" y2="51.4157" gradientUnits="userSpaceOnUse">
<stop stop-color="#FFB500"/>
<stop offset="0.96" stop-color="#FFD271"/>
</linearGradient>
<linearGradient id="paint2_linear" x1="48.2423" y1="24.1517" x2="52.7533" y2="24.1517" gradientUnits="userSpaceOnUse">
<stop stop-color="white"/>
<stop offset="1" stop-color="#E7EFF7"/>
</linearGradient>
<linearGradient id="paint3_linear" x1="32.5787" y1="183.828" x2="44.7824" y2="183.828" gradientUnits="userSpaceOnUse">
<stop stop-color="white"/>
<stop offset="1" stop-color="#E7EFF7"/>
</linearGradient>
<linearGradient id="paint4_linear" x1="59.7584" y1="70.6198" x2="67.7785" y2="70.6198" gradientUnits="userSpaceOnUse">
<stop stop-color="white"/>
<stop offset="1" stop-color="#E7EFF7"/>
</linearGradient>
</defs>
</svg>
