<svg width="121" height="82" viewBox="0 0 121 82" fill="none" xmlns="http://www.w3.org/2000/svg">
<path d="M100.251 35.879L111.558 35.7739C114.03 35.849 116.375 36.8835 118.097 38.6583C119.818 40.433 120.781 42.8085 120.781 45.2812C120.781 47.7539 119.818 50.1294 118.097 51.9041C116.375 53.6789 114.03 54.7134 111.558 54.7885L100.251 54.876C98.9775 54.9215 97.708 54.7069 96.52 54.2454C95.3298 53.7882 94.2438 53.0961 93.3266 52.2104C92.4094 51.3247 91.6798 50.2635 91.1813 49.09C90.6828 47.9164 90.4255 46.6546 90.4249 45.3796C90.4242 44.1045 90.6801 42.8424 91.1774 41.6683C91.673 40.4912 92.4031 39.4274 93.3232 38.5416C94.2433 37.6458 95.3332 36.9431 96.5288 36.4746C97.7175 36.0302 98.9831 35.8277 100.251 35.879Z" fill="#FDD407"/>
<path d="M104.648 40.372L105.112 40.1531C105.51 39.8728 105.846 39.5153 106.102 39.1021C106.619 38.2747 106.786 37.2761 106.566 36.3256C106.45 35.8559 106.245 35.4129 105.962 35.0206L102.572 30.2561C101.983 29.4777 101.114 28.9599 100.149 28.8127C99.1838 28.6655 98.1994 28.9005 97.405 29.4678L96.9321 29.7656C96.5379 30.0457 96.2018 30.3997 95.9424 30.8078C95.6851 31.2161 95.5124 31.6717 95.4344 32.1479C95.3381 32.6189 95.3381 33.1045 95.4344 33.5755C95.5472 34.0447 95.7495 34.4878 96.0299 34.8805L99.4195 39.6626C99.7151 40.0576 100.086 40.39 100.511 40.6407C100.936 40.8913 101.407 41.0552 101.895 41.1228C102.384 41.1904 102.881 41.1604 103.358 41.0345C103.835 40.9087 104.283 40.6895 104.675 40.3896L104.648 40.372Z" fill="white" stroke="#221F54" stroke-miterlimit="10" stroke-linecap="round"/>
<path d="M104.412 41.1867L104.893 41.283C105.883 41.3873 106.874 41.1002 107.655 40.4831C108.436 39.8661 108.944 38.9681 109.071 37.9811L109.824 32.183C109.877 31.6956 109.832 31.2025 109.694 30.7322C109.556 30.2618 109.326 29.8232 109.019 29.4417C108.394 28.6708 107.491 28.1768 106.505 28.0666L106.032 27.979C105.04 27.8677 104.044 28.1519 103.26 28.77C102.477 29.3882 101.968 30.2904 101.845 31.2809L101.25 37.114C101.177 37.5918 101.201 38.0795 101.322 38.5476C101.442 39.0157 101.656 39.4546 101.95 39.8379C102.247 40.2196 102.62 40.5357 103.045 40.7663C103.466 41.0015 103.932 41.1448 104.412 41.1867Z" fill="white" stroke="#221F54" stroke-miterlimit="10" stroke-linecap="round"/>
<path d="M100.242 35.9227L111.541 35.8088C114.049 35.8088 116.455 36.8054 118.229 38.5793C120.003 40.3533 121 42.7592 121 45.2679C121 47.7766 120.003 50.1826 118.229 51.9565C116.455 53.7305 114.049 54.727 111.541 54.727L100.242 54.8409C99.0001 54.8409 97.7701 54.5962 96.6225 54.1209C95.4749 53.6455 94.4321 52.9487 93.5537 52.0704C92.6754 51.192 91.9786 50.1493 91.5033 49.0016C91.0279 47.854 90.7832 46.624 90.7832 45.3818C90.7832 44.1396 91.0279 42.9096 91.5033 41.762C91.9786 40.6143 92.6754 39.5716 93.5537 38.6932C94.4321 37.8148 95.4749 37.1181 96.6225 36.6427C97.7701 36.1674 99.0001 35.9227 100.242 35.9227Z" fill="#FDD407"/>
<mask id="mask0" mask-type="alpha" maskUnits="userSpaceOnUse" x="90" y="35" width="31" height="20">
<path d="M100.242 35.9227L111.541 35.8088C114.049 35.8088 116.455 36.8054 118.229 38.5793C120.003 40.3533 121 42.7592 121 45.2679C121 47.7766 120.003 50.1826 118.229 51.9565C116.455 53.7305 114.049 54.727 111.541 54.727L100.242 54.8409C99.0001 54.8409 97.7701 54.5962 96.6225 54.1209C95.4749 53.6455 94.4321 52.9487 93.5537 52.0704C92.6754 51.192 91.9786 50.1493 91.5033 49.0016C91.0279 47.854 90.7832 46.624 90.7832 45.3818C90.7832 44.1396 91.0279 42.9096 91.5033 41.762C91.9786 40.6143 92.6754 39.5716 93.5537 38.6932C94.4321 37.8148 95.4749 37.1181 96.6225 36.6427C97.7701 36.1674 99.0001 35.9227 100.242 35.9227Z" fill="#FDD407"/>
</mask>
<g mask="url(#mask0)">
<path d="M109.045 35.1082C109.045 35.1082 100.908 44.9263 108.949 54.981L101.679 55.0686C101.679 55.0686 94.7774 45.2329 101.732 35.441C101.924 35.3096 109.027 35.187 109.045 35.1082Z" fill="#221F54"/>
<path d="M96.6167 35.7651C96.6167 35.7651 88.6027 45.3994 96.6167 55.3139L89.3559 55.419C89.3559 55.419 82.428 45.6797 89.3559 36.0892C89.4172 35.9578 96.6342 36.0104 96.6167 35.7651Z" fill="#221F54"/>
</g>
<path d="M115.727 46.468C115.368 46.7655 114.923 46.9404 114.458 46.9672C113.992 46.987 113.533 46.8515 113.153 46.5819" stroke="#221F54" stroke-miterlimit="10" stroke-linecap="round"/>
<path d="M110.131 44.138C110.13 44.2902 110.159 44.4411 110.216 44.5818C110.274 44.7226 110.359 44.8506 110.467 44.9581C110.574 45.0657 110.702 45.1508 110.843 45.2085C110.984 45.2662 111.135 45.2953 111.287 45.2942C111.594 45.2926 111.888 45.1735 112.11 44.9613C112.329 44.743 112.451 44.4469 112.452 44.138C112.452 43.9863 112.422 43.836 112.364 43.696C112.305 43.5561 112.219 43.4294 112.11 43.3235C111.892 43.105 111.596 42.9821 111.287 42.9819C111.135 42.9822 110.985 43.0126 110.845 43.0712C110.706 43.1298 110.579 43.2156 110.472 43.3235C110.364 43.4294 110.277 43.5561 110.219 43.696C110.16 43.836 110.13 43.9863 110.131 44.138Z" fill="#221F54"/>
<path d="M110.744 44.0155C110.751 44.0912 110.779 44.1636 110.823 44.2257C110.876 44.2814 110.942 44.3235 111.015 44.3483C111.087 44.3658 111.162 44.3658 111.234 44.3483C111.308 44.3254 111.373 44.2794 111.418 44.2169C111.468 44.1609 111.499 44.0903 111.506 44.0155C111.528 43.9442 111.528 43.8678 111.506 43.7965C111.47 43.7299 111.415 43.6751 111.348 43.6389C111.274 43.6174 111.195 43.6174 111.121 43.6389C110.998 43.5863 110.788 43.7878 110.744 44.0155Z" fill="white"/>
<path d="M116.113 44.1733C116.112 44.3969 116.176 44.6159 116.297 44.8039C116.425 44.9849 116.601 45.1272 116.805 45.2155C117.012 45.3038 117.24 45.3282 117.462 45.2856C117.681 45.2397 117.882 45.13 118.04 44.9703C118.197 44.8121 118.303 44.611 118.346 44.3923C118.391 44.1735 118.369 43.9462 118.283 43.74C118.198 43.5338 118.052 43.3582 117.864 43.2361C117.681 43.1123 117.464 43.0453 117.243 43.0435C116.941 43.045 116.652 43.1644 116.437 43.3763C116.228 43.5888 116.111 43.8753 116.113 44.1733Z" fill="#221F54"/>
<path d="M116.717 44.0505C116.7 44.1053 116.7 44.1641 116.717 44.219C116.734 44.2738 116.768 44.322 116.814 44.3571C116.858 44.3938 116.913 44.4152 116.971 44.4184C117.025 44.4352 117.083 44.4352 117.138 44.4184C117.188 44.4174 117.236 44.4022 117.278 44.3746C117.321 44.3534 117.36 44.3236 117.392 44.287C117.418 44.2451 117.442 44.2012 117.462 44.1556C117.47 44.1064 117.47 44.056 117.462 44.0067C117.469 43.9603 117.469 43.913 117.462 43.8666C117.437 43.8229 117.404 43.7842 117.365 43.7527C117.329 43.7238 117.287 43.7029 117.243 43.6914C117.194 43.6784 117.143 43.6784 117.094 43.6914C116.98 43.6038 116.761 43.814 116.717 44.0505Z" fill="white"/>
<path d="M116.139 37.7795C116.139 37.7795 117.015 33.1463 120.247 34.7929" stroke="#221F54" stroke-miterlimit="10" stroke-linecap="round"/>
<path d="M112.636 37.7096C112.636 37.7096 111.348 32.8574 114.536 32.3757" stroke="#221F54" stroke-miterlimit="10" stroke-linecap="round"/>
<path d="M104.823 81.0024C110.078 81.0024 114.335 80.3193 114.335 79.4697C114.335 78.6201 110.078 77.9282 104.823 77.9282C99.5681 77.9282 95.3027 78.6201 95.3027 79.4697C95.3027 80.3193 99.5593 81.0024 104.823 81.0024Z" fill="#A1AED9"/>
<path d="M45.2748 55.2001L56.2404 55.1038C58.6887 55.1038 61.0367 56.0763 62.768 57.8076C64.4992 59.5388 65.4718 61.8868 65.4718 64.3351C65.4718 66.7834 64.4992 69.1315 62.768 70.8627C61.0367 72.5939 58.6887 73.5665 56.2404 73.5665L45.2661 73.6541C44.0241 73.6944 42.7868 73.4823 41.6292 73.0307C40.4715 72.579 39.4175 71.8973 38.5309 71.0266C37.6387 70.1663 36.9291 69.135 36.4444 67.9944C35.9598 66.8537 35.71 65.6271 35.71 64.3877C35.71 63.1483 35.9598 61.9217 36.4444 60.781C36.9291 59.6404 37.6387 58.6091 38.5309 57.7488C39.4193 56.8806 40.4736 56.2004 41.6308 55.749C42.7881 55.2975 44.0245 55.084 45.2661 55.1213L45.2748 55.2001Z" fill="#FDD407"/>
<path d="M49.5402 59.5705L49.9956 59.3516C50.3861 59.092 50.7223 58.7588 50.9853 58.3706C51.2376 57.9736 51.4074 57.5297 51.4845 57.0656C51.5637 56.6028 51.5458 56.1286 51.432 55.673C51.3233 55.2163 51.127 54.785 50.8539 54.4031L47.5608 49.7786C46.9908 49.0128 46.1437 48.5006 45.2008 48.3516C44.2579 48.2027 43.2942 48.4288 42.5159 48.9816L42.0605 49.2794C41.6774 49.5498 41.3502 49.8919 41.097 50.2866C40.8458 50.681 40.676 51.1218 40.5978 51.5828C40.5058 52.0425 40.5058 52.5158 40.5978 52.9754C40.7103 53.4309 40.9063 53.8615 41.1759 54.2454L44.469 58.8874C45.0513 59.6486 45.9106 60.1492 46.8601 60.28C47.3284 60.3477 47.8055 60.3222 48.2639 60.205C48.7224 60.0878 49.1531 59.8811 49.5314 59.5968L49.5402 59.5705Z" fill="white" stroke="#221F54" stroke-miterlimit="10" stroke-linecap="round"/>
<path d="M49.3212 60.3588L49.7854 60.4464C50.7457 60.5529 51.7094 60.2772 52.4681 59.6791C53.2269 59.0809 53.7199 58.2082 53.8405 57.2496L54.5762 51.6179C54.6745 50.6616 54.3909 49.7053 53.7872 48.9572C53.1835 48.2091 52.3086 47.7299 51.3531 47.6241L50.8889 47.5365C49.9277 47.4253 48.9616 47.6991 48.2018 48.2982C47.4419 48.8972 46.9501 49.7727 46.8338 50.7333L46.247 56.4C46.1738 56.864 46.1977 57.3382 46.317 57.7926C46.4312 58.2485 46.6401 58.6752 46.9301 59.045C47.2152 59.4185 47.5751 59.7283 47.9869 59.9545C48.3986 60.1808 48.8531 60.3185 49.3212 60.3588Z" fill="white" stroke="#221F54" stroke-miterlimit="10" stroke-linecap="round"/>
<path d="M45.257 55.2525L56.24 55.1387C58.6791 55.1387 61.0182 56.1076 62.7428 57.8322C64.4675 59.5569 65.4364 61.896 65.4364 64.335C65.4364 66.774 64.4675 69.1132 62.7428 70.8378C61.0182 72.5625 58.6791 73.5314 56.24 73.5314L45.257 73.6365C42.818 73.6365 40.4788 72.6676 38.7542 70.9429C37.0295 69.2183 36.0606 66.8791 36.0606 64.4401C36.0606 62.0011 37.0295 59.662 38.7542 57.9373C40.4788 56.2127 42.818 55.2438 45.257 55.2438V55.2525Z" fill="white" stroke="#221F52" stroke-miterlimit="10"/>
<mask id="mask1" mask-type="alpha" maskUnits="userSpaceOnUse" x="35" y="54" width="31" height="21">
<path d="M45.2574 55.2525L56.2405 55.1387C58.6795 55.1387 61.0186 56.1076 62.7433 57.8322C64.4679 59.5569 65.4368 61.896 65.4368 64.335C65.4368 66.774 64.4679 69.1132 62.7433 70.8378C61.0186 72.5625 58.6795 73.5314 56.2405 73.5314L45.2574 73.6365C42.8184 73.6365 40.4793 72.6676 38.7546 70.9429C37.03 69.2183 36.0611 66.8791 36.0611 64.4401C36.0611 62.0011 37.03 59.662 38.7546 57.9373C40.4793 56.2127 42.8184 55.2438 45.2574 55.2438V55.2525Z" fill="white" stroke="#221F52" stroke-miterlimit="10"/>
</mask>
<g mask="url(#mask1)">
<path d="M53.8146 54.4556C53.8146 54.4556 45.932 63.9935 53.7095 73.7241L46.7027 73.8117C46.7027 73.8117 39.985 64.2738 46.7553 54.7534C46.8954 54.657 53.7883 54.5344 53.8146 54.4556Z" stroke="#221F52" stroke-miterlimit="10"/>
<path d="M41.7366 55.095C41.7366 55.095 33.9591 64.4227 41.7366 74.0832L34.7298 74.1796C34.7298 74.1796 27.9946 64.7205 34.7298 55.4103C34.7473 55.2789 41.7628 55.3402 41.7366 55.095Z" stroke="#221F52" stroke-miterlimit="10"/>
</g>
<path d="M60.707 57.048C60.707 57.048 61.504 52.5462 64.692 54.149" stroke="#221F54" stroke-miterlimit="10" stroke-linecap="round"/>
<path d="M57.3002 56.978C57.3002 56.978 56.0477 52.2397 59.1482 51.8018" stroke="#221F54" stroke-miterlimit="10" stroke-linecap="round"/>
<path d="M66.3998 7.89593L76.2355 7.80835C78.3829 7.87823 80.4189 8.78039 81.9133 10.3241C83.4076 11.8679 84.243 13.9322 84.243 16.0807C84.243 18.2292 83.4076 20.2935 81.9133 21.8372C80.4189 23.381 78.3829 24.2831 76.2355 24.353L66.3998 24.4318C65.2893 24.4732 64.1819 24.2889 63.1446 23.8899C62.1074 23.491 61.1619 22.8858 60.3653 22.1109C59.1636 20.9483 58.3422 19.4492 58.0092 17.8107C57.6762 16.1723 57.8472 14.4714 58.4997 12.932C59.1545 11.397 60.2571 10.0952 61.6634 9.19677C63.0697 8.2983 64.7143 7.84494 66.3823 7.89593H66.3998Z" fill="#FDD407"/>
<path d="M70.2536 11.8108L70.6653 11.6181C71.0089 11.3829 71.3059 11.0859 71.5411 10.7422C71.7662 10.3866 71.9178 9.98948 71.987 9.57432C72.0562 9.15915 72.0416 8.73433 71.944 8.32491C71.8453 7.91456 71.6667 7.52766 71.4185 7.18631L68.4143 3.00855C67.9013 2.32494 67.1408 1.86963 66.2959 1.74028C65.451 1.61093 64.5891 1.81784 63.895 2.31663L63.4834 2.58814C63.1359 2.81877 62.8381 3.11655 62.6075 3.46399C62.3799 3.81732 62.2278 4.21392 62.1608 4.62886C62.0778 5.03926 62.0778 5.46214 62.1608 5.87255C62.2584 6.27904 62.4339 6.66274 62.6776 7.00239L65.6292 11.1626C66.1489 11.8452 66.9168 12.2952 67.7662 12.4151C68.1855 12.4765 68.6128 12.4539 69.0233 12.3486C69.4338 12.2434 69.8193 12.0576 70.1573 11.802L70.2536 11.8108Z" fill="white" stroke="#221F54" stroke-miterlimit="10" stroke-linecap="round"/>
<path d="M70.026 12.5203L70.4377 12.5991C70.8676 12.6588 71.3051 12.6323 71.7247 12.521C72.1443 12.4097 72.5374 12.2159 72.8813 11.951C73.5621 11.4133 74.0054 10.6305 74.1162 9.77013L74.7731 4.72528C74.8216 4.29469 74.7843 3.85875 74.6631 3.4427C74.542 3.02666 74.3396 2.63878 74.0675 2.30153C73.7954 1.96428 73.4591 1.68436 73.0781 1.478C72.6971 1.27163 72.2789 1.14291 71.8478 1.09929L71.4361 1.02047C70.5731 0.923949 69.7067 1.17133 69.0248 1.70904C68.3428 2.24674 67.9001 3.03146 67.7926 3.89323L67.2759 8.97311C67.2081 9.38106 67.226 9.79865 67.3284 10.1993C67.4349 10.609 67.6225 10.9933 67.8802 11.3291C68.1369 11.6631 68.4625 11.938 68.8349 12.1349C69.2005 12.3456 69.6063 12.4769 70.026 12.5203Z" fill="white" stroke="#221F54" stroke-miterlimit="10" stroke-linecap="round"/>
<path d="M66.391 7.93959L76.218 7.84325C77.3212 7.80725 78.4203 7.99345 79.4501 8.39077C80.4798 8.78809 81.4192 9.38842 82.2123 10.1561C83.0054 10.9237 83.6361 11.843 84.0668 12.8593C84.4974 13.8755 84.7194 14.968 84.7194 16.0718C84.7194 17.1755 84.4974 18.268 84.0668 19.2843C83.6361 20.3006 83.0054 21.2199 82.2123 21.9875C81.4192 22.7551 80.4798 23.3555 79.4501 23.7528C78.4203 24.1501 77.3212 24.3363 76.218 24.3003L66.391 24.4054C64.2075 24.4054 62.1135 23.538 60.5695 21.9941C59.0255 20.4501 58.1581 18.356 58.1581 16.1725C58.1581 13.989 59.0255 11.8949 60.5695 10.351C62.1135 8.80698 64.2075 7.93959 66.391 7.93959Z" fill="white" stroke="#221F53" stroke-miterlimit="10"/>
<mask id="mask2" mask-type="alpha" maskUnits="userSpaceOnUse" x="57" y="7" width="29" height="18">
<path d="M66.391 7.93959L76.218 7.84325C77.3212 7.80725 78.4203 7.99345 79.4501 8.39077C80.4798 8.78809 81.4192 9.38842 82.2123 10.1561C83.0054 10.9237 83.6361 11.843 84.0668 12.8593C84.4974 13.8755 84.7194 14.968 84.7194 16.0718C84.7194 17.1755 84.4974 18.268 84.0668 19.2843C83.6361 20.3006 83.0054 21.2199 82.2123 21.9875C81.4192 22.7551 80.4798 23.3555 79.4501 23.7528C78.4203 24.1501 77.3212 24.3363 76.218 24.3003L66.391 24.4054C64.2075 24.4054 62.1135 23.538 60.5695 21.9941C59.0255 20.4501 58.1581 18.356 58.1581 16.1725C58.1581 13.989 59.0255 11.8949 60.5695 10.351C62.1135 8.80698 64.2075 7.93959 66.391 7.93959Z" fill="white" stroke="#221F53" stroke-miterlimit="10"/>
</mask>
<g mask="url(#mask2)">
<path d="M74.0456 7.23022C74.0456 7.23022 66.9688 15.7784 73.958 24.5194L67.6257 24.5982C67.6257 24.5982 61.6086 16.05 67.6782 7.51049C67.8534 7.40539 74.0281 7.30029 74.0456 7.23022Z" stroke="#221F52" stroke-miterlimit="10"/>
<path d="M63.2467 7.79956C63.2467 7.79956 56.2399 16.1639 63.2467 24.8172L56.9318 24.9048C56.9318 24.9048 50.906 16.4266 56.9318 8.08859C56.9669 7.96597 63.2467 8.01852 63.2467 7.79956Z" stroke="#221F52" stroke-miterlimit="10"/>
</g>
<path d="M80.2295 9.55124C80.2295 9.55124 80.9389 5.52237 83.7942 6.92372" stroke="#221F54" stroke-miterlimit="10" stroke-linecap="round"/>
<path d="M77.1727 9.48986C77.1727 9.48986 76.0516 5.2683 78.8281 4.8479" stroke="#221F54" stroke-miterlimit="10" stroke-linecap="round"/>
<path d="M8.06889 22.5137L16.1704 22.4612C17.0676 22.4612 17.9559 22.6379 18.7848 22.9812C19.6136 23.3245 20.3667 23.8277 21.0011 24.4621C21.6355 25.0965 22.1387 25.8496 22.482 26.6784C22.8253 27.5073 23.002 28.3956 23.002 29.2928C23.002 30.1899 22.8253 31.0782 22.482 31.9071C22.1387 32.7359 21.6355 33.489 21.0011 34.1234C20.3667 34.7578 19.6136 35.261 18.7848 35.6043C17.9559 35.9476 17.0676 36.1243 16.1704 36.1243L8.06889 36.1769C7.15246 36.2042 6.23976 36.0487 5.3841 35.7193C4.52844 35.39 3.74698 34.8935 3.08535 34.2588C2.42837 33.6206 1.90444 32.8586 1.54387 32.0166C1.00357 30.7448 0.861654 29.339 1.13686 27.9849C1.41207 26.6307 2.09146 25.3919 3.08535 24.4318C3.74813 23.7936 4.53111 23.2935 5.38882 22.9604C6.24319 22.6333 7.15462 22.4814 8.06889 22.5137Z" fill="#FDD407"/>
<path d="M11.2042 25.7455L11.537 25.5878C11.8255 25.3886 12.07 25.1323 12.2552 24.8346C12.4391 24.5403 12.564 24.2131 12.6231 23.8712C12.6886 23.5298 12.6886 23.1791 12.6231 22.8377C12.5389 22.5 12.3902 22.1817 12.1852 21.9005L9.75031 18.476C9.33038 17.9074 8.70343 17.527 8.00515 17.4172C7.30687 17.3074 6.59342 17.4769 6.01922 17.8892L5.64261 18.0819C5.35625 18.28 5.11212 18.533 4.92442 18.8263C4.73288 19.121 4.60241 19.4511 4.54072 19.7972C4.47904 20.1432 4.48741 20.498 4.56533 20.8408C4.6451 21.1784 4.79096 21.4969 4.99449 21.7779L7.43809 25.22C7.86589 25.7834 8.49914 26.1549 9.19973 26.2534C9.90032 26.3518 10.6114 26.1692 11.1779 25.7455H11.2042Z" fill="white" stroke="#221F54" stroke-miterlimit="10" stroke-linecap="round"/>
<path d="M11.0468 26.3322L11.3884 26.3935C12.1007 26.4727 12.8155 26.2679 13.3778 25.8236C13.9402 25.3793 14.3048 24.7313 14.3925 24.02L14.9356 19.8335C14.9732 19.4832 14.9414 19.129 14.8421 18.791C14.7427 18.453 14.5776 18.1379 14.3564 17.8638C14.1351 17.5896 13.862 17.3618 13.5526 17.1933C13.2432 17.0249 12.9036 16.919 12.5533 16.8819L12.2117 16.8118C11.498 16.7302 10.781 16.9339 10.2167 17.3784C9.65238 17.8229 9.28655 18.4724 9.1988 19.1854L8.76964 23.3806C8.70412 23.722 8.70412 24.0728 8.76964 24.4141C8.86016 24.7501 9.01482 25.0653 9.22508 25.3425C9.44126 25.6143 9.70918 25.8406 10.0133 26.0082C10.3295 26.1916 10.6825 26.3023 11.0468 26.3322Z" fill="white" stroke="#221F54" stroke-miterlimit="10" stroke-linecap="round"/>
<path d="M8.06906 22.5488L16.1969 22.4612C18.0018 22.4612 19.7327 23.1782 21.0089 24.4544C22.2852 25.7306 23.0022 27.4616 23.0022 29.2665C23.0022 31.0714 22.2852 32.8023 21.0089 34.0785C19.7327 35.3548 18.0018 36.0718 16.1969 36.0718L8.06906 36.1506C7.15542 36.1834 6.24453 36.0318 5.39079 35.7047C4.53704 35.3777 3.75793 34.8821 3.09998 34.2473C2.44203 33.6125 1.91872 32.8517 1.5613 32.0102C1.20388 31.1688 1.01967 30.2639 1.01967 29.3497C1.01967 28.4355 1.20388 27.5306 1.5613 26.6891C1.91872 25.8477 2.44203 25.0868 3.09998 24.4521C3.75793 23.8173 4.53704 23.3216 5.39079 22.9946C6.24453 22.6676 7.15542 22.516 8.06906 22.5488Z" fill="white" stroke="#221F52" stroke-miterlimit="10"/>
<mask id="mask3" mask-type="alpha" maskUnits="userSpaceOnUse" x="0" y="21" width="24" height="16">
<path d="M8.06906 22.5488L16.1969 22.4612C18.0018 22.4612 19.7327 23.1782 21.0089 24.4544C22.2852 25.7306 23.0022 27.4616 23.0022 29.2665C23.0022 31.0714 22.2852 32.8023 21.0089 34.0785C19.7327 35.3548 18.0018 36.0718 16.1969 36.0718L8.06906 36.1506C7.15542 36.1834 6.24453 36.0318 5.39079 35.7047C4.53704 35.3777 3.75793 34.8821 3.09998 34.2473C2.44203 33.6125 1.91872 32.8517 1.5613 32.0102C1.20388 31.1688 1.01967 30.2639 1.01967 29.3497C1.01967 28.4355 1.20388 27.5306 1.5613 26.6891C1.91872 25.8477 2.44203 25.0868 3.09998 24.4521C3.75793 23.8173 4.53704 23.3216 5.39079 22.9946C6.24453 22.6676 7.15542 22.516 8.06906 22.5488Z" fill="white" stroke="#221F52" stroke-miterlimit="10"/>
</mask>
<g mask="url(#mask3)">
<path d="M14.3662 21.9619C14.3662 21.9619 8.51561 29.0212 14.2962 36.2469L9.04112 36.317C9.04112 36.317 4.06633 29.2489 9.04112 22.1984C9.25132 22.102 14.3575 22.0145 14.3662 21.9619Z" stroke="#221F52" stroke-miterlimit="10"/>
<path d="M5.44156 22.4612C5.44156 22.4612 -0.330236 29.3365 5.44156 36.4747L0.186511 36.5622C0.186511 36.5622 -4.79703 29.5555 0.186511 22.6626C0.24782 22.5663 5.44156 22.6101 5.44156 22.4612Z" stroke="#221F52" stroke-miterlimit="10"/>
</g>
<path d="M19.4547 23.88C19.4547 23.88 20.0503 20.5431 22.4063 21.7342" stroke="#221F54" stroke-miterlimit="10" stroke-linecap="round"/>
<path d="M16.9501 23.8274C16.9501 23.8274 16.0305 20.324 18.3164 19.9912" stroke="#221F54" stroke-miterlimit="10" stroke-linecap="round"/>
</svg>
