<svg width="121" height="82" viewBox="0 0 121 82" fill="none" xmlns="http://www.w3.org/2000/svg">
<path d="M99.1507 35.3944L110.504 35.2888C112.987 35.3642 115.344 36.4038 117.074 38.1871C118.804 39.9705 119.772 42.3575 119.772 44.8422C119.772 47.3269 118.804 49.7139 117.074 51.4973C115.344 53.2806 112.987 54.3202 110.504 54.3956L99.1507 54.4836C97.8679 54.53 96.5893 54.3143 95.3927 53.8499C93.8947 53.2734 92.5664 52.3282 91.5308 51.1019C90.4951 49.8756 89.7856 48.4078 89.468 46.8345C89.1503 45.2611 89.2348 43.6331 89.7135 42.101C90.1922 40.569 91.0498 39.1825 92.2067 38.0699C93.1311 37.1803 94.223 36.4832 95.4191 36.0193C96.6091 35.5653 97.8776 35.3529 99.1507 35.3944Z" fill="#FDD407"/>
<path d="M103.569 39.9094L104.035 39.6893C104.432 39.4104 104.77 39.055 105.029 38.644C105.287 38.2329 105.461 37.7745 105.54 37.2955C105.618 36.8155 105.6 36.3247 105.487 35.8517C105.374 35.3788 105.167 34.9331 104.88 34.5408L101.474 29.7443C100.884 28.9545 100.008 28.4273 99.0341 28.2759C98.0601 28.1245 97.0655 28.361 96.2638 28.9346L95.7885 29.2339C95.3903 29.5129 95.0521 29.8691 94.794 30.2812C94.5309 30.6867 94.3542 31.1421 94.2748 31.6189C94.1969 32.0984 94.2118 32.5884 94.3188 33.0623C94.4316 33.5355 94.6381 33.9814 94.926 34.3736L98.3672 39.1701C98.6629 39.5686 99.0349 39.9044 99.4616 40.1577C99.8883 40.4111 100.361 40.577 100.853 40.6458C101.344 40.7146 101.844 40.6849 102.324 40.5585C102.804 40.4321 103.254 40.2114 103.648 39.9094H103.569Z" fill="white" stroke="#221F54" stroke-miterlimit="10" stroke-linecap="round"/>
<path d="M103.34 40.7277L103.815 40.8245C104.813 40.9441 105.818 40.6643 106.611 40.0461C107.404 39.428 107.921 38.5215 108.048 37.5242L108.814 31.698C108.915 30.7081 108.622 29.7182 107.997 28.9437C107.372 28.1691 106.467 27.6724 105.478 27.5616L104.994 27.4735C103.999 27.359 102.999 27.6439 102.213 28.2656C101.429 28.8902 100.921 29.7968 100.796 30.7915L100.127 36.6441C100.046 37.1242 100.067 37.616 100.189 38.0874C100.311 38.562 100.53 39.006 100.833 39.3909C101.136 39.7758 101.516 40.0933 101.949 40.3229C102.379 40.5542 102.853 40.6921 103.34 40.7277Z" fill="white" stroke="#221F54" stroke-miterlimit="10" stroke-linecap="round"/>
<path d="M99.133 35.4384L110.495 35.324C113.016 35.324 115.433 36.3254 117.216 38.1079C118.999 39.8904 120 42.3081 120 44.8289C120 47.3498 118.999 49.7675 117.216 51.55C115.433 53.3325 113.016 54.3339 110.495 54.3339L99.133 54.4483C96.6122 54.4483 94.1945 53.4469 92.412 51.6644C90.6295 49.8819 89.6281 47.4642 89.6281 44.9434C89.6281 42.4225 90.6295 40.0049 92.412 38.2223C94.1945 36.4398 96.6122 35.4384 99.133 35.4384Z" fill="white" stroke="#221F51" stroke-miterlimit="10"/>
<mask id="mask0" mask-type="alpha" maskUnits="userSpaceOnUse" x="89" y="34" width="32" height="21">
<path d="M99.133 35.4384L110.495 35.324C113.016 35.324 115.433 36.3254 117.216 38.1079C118.999 39.8904 120 42.3081 120 44.8289C120 47.3498 118.999 49.7675 117.216 51.55C115.433 53.3325 113.016 54.3339 110.495 54.3339L99.133 54.4483C96.6122 54.4483 94.1945 53.4469 92.412 51.6644C90.6295 49.8819 89.6281 47.4642 89.6281 44.9434C89.6281 42.4225 90.6295 40.0049 92.412 38.2223C94.1945 36.4398 96.6122 35.4384 99.133 35.4384Z" fill="white" stroke="#221F51" stroke-miterlimit="10"/>
</mask>
<g mask="url(#mask0)">
<path d="M107.987 34.6199C107.987 34.6199 99.8106 44.4857 107.881 54.5891L100.576 54.6771C100.576 54.6771 93.6324 44.8113 100.638 34.9455C100.832 34.8223 107.96 34.6991 107.987 34.6199Z" stroke="#221F51" stroke-miterlimit="10"/>
<path d="M95.4894 35.28C95.4894 35.28 87.4366 44.961 95.4894 54.9236L88.2023 55.0293C88.2023 55.0293 81.2408 45.2426 88.2023 35.6057C88.2551 35.4736 95.5158 35.5265 95.4894 35.28Z" stroke="#221F51" stroke-miterlimit="10"/>
</g>
<path d="M115.089 37.3043C115.089 37.3043 115.916 32.6486 119.208 34.3031" stroke="#221F54" stroke-miterlimit="10" stroke-linecap="round"/>
<path d="M111.569 37.2338C111.569 37.2338 110.275 32.3581 113.478 31.874" stroke="#221F54" stroke-miterlimit="10" stroke-linecap="round"/>
<path d="M103.736 80.7366C109.016 80.7366 113.294 80.0501 113.294 79.1964C113.294 78.3427 109.016 77.6475 103.736 77.6475C98.4552 77.6475 94.1692 78.3427 94.1692 79.1964C94.1692 80.0501 98.4552 80.7366 103.736 80.7366Z" fill="white" stroke="#221F51" stroke-miterlimit="10"/>
<path d="M44.224 55.214L54.7147 55.126C57.0558 55.126 59.3011 56.056 60.9565 57.7114C62.612 59.3669 63.542 61.6121 63.542 63.9533C63.542 66.2944 62.612 68.5397 60.9565 70.1951C59.3011 71.8506 57.0558 72.7806 54.7147 72.7806L44.224 72.8598C43.0377 72.9058 41.8546 72.7081 40.7477 72.2789C39.6418 71.8542 38.633 71.2107 37.7818 70.3867C36.9225 69.5551 36.2453 68.5541 35.7928 67.4472C35.328 66.3564 35.0884 65.183 35.0884 63.9973C35.0884 62.8116 35.328 61.6381 35.7928 60.5473C36.2505 59.4562 36.9275 58.4707 37.7818 57.6518C38.6336 56.8269 39.6433 56.1826 40.7504 55.7576C41.8575 55.3326 43.039 55.1357 44.224 55.1788V55.214Z" fill="#FDD407"/>
<path d="M48.3079 59.3858L48.7303 59.1833C49.0827 58.9197 49.3815 58.5911 49.6104 58.2152C49.852 57.8352 50.0137 57.41 50.0856 56.9655C50.17 56.5265 50.17 56.0755 50.0856 55.6366C49.9801 55.1985 49.7886 54.7856 49.5224 54.422L46.3717 50.0216C45.8287 49.2895 45.0199 48.8 44.1194 48.6584C43.219 48.5168 42.299 48.7346 41.5576 49.2647L41.1175 49.5463C40.7474 49.8035 40.4331 50.1328 40.1934 50.5144C39.9577 50.8942 39.7964 51.3153 39.7182 51.7554C39.6302 52.194 39.6302 52.6457 39.7182 53.0843C39.8306 53.5038 40.0217 53.898 40.2814 54.246L43.4322 58.6465C43.986 59.3757 44.8059 59.8562 45.7127 59.9832C46.6196 60.1101 47.5398 59.8732 48.2727 59.3241L48.3079 59.3858Z" fill="white" stroke="#221F54" stroke-miterlimit="10" stroke-linecap="round"/>
<path d="M48.0966 60.1427L48.5367 60.2307C49.4563 60.3327 50.3791 60.0685 51.1054 59.4953C51.8317 58.9222 52.3032 58.0861 52.4179 57.168L53.1219 51.7818C53.2181 50.8658 52.9467 49.9491 52.3676 49.233C51.7884 48.5168 50.9487 48.0598 50.0328 47.9622L49.5928 47.8742C48.6732 47.7723 47.7504 48.0364 47.024 48.6096C46.2977 49.1828 45.8262 50.0188 45.7116 50.937L45.1571 56.3583C45.085 56.8007 45.1059 57.2534 45.2187 57.6872C45.3252 58.1229 45.5232 58.5309 45.7996 58.8842C46.0752 59.2408 46.4215 59.5366 46.8168 59.7531C47.212 59.9697 47.6477 60.1023 48.0966 60.1427Z" fill="white" stroke="#221F54" stroke-miterlimit="10" stroke-linecap="round"/>
<path d="M44.2065 55.2492L54.706 55.126C57.0402 55.126 59.2787 56.0532 60.9292 57.7037C62.5797 59.3542 63.5069 61.5927 63.5069 63.9269C63.5069 66.261 62.5797 68.4996 60.9292 70.1501C59.2787 71.8005 57.0402 72.7278 54.706 72.7278L44.2065 72.8334C41.8724 72.8334 39.6339 71.9062 37.9834 70.2557C36.3329 68.6052 35.4056 66.3666 35.4056 64.0325C35.4056 61.6983 36.3329 59.4598 37.9834 57.8093C39.6339 56.1588 41.8724 55.2316 44.2065 55.2316V55.2492Z" fill="#FDD407"/>
<mask id="mask1" mask-type="alpha" maskUnits="userSpaceOnUse" x="35" y="55" width="29" height="18">
<path d="M44.2065 55.2492L54.706 55.126C57.0402 55.126 59.2787 56.0532 60.9292 57.7037C62.5797 59.3542 63.5069 61.5927 63.5069 63.9269C63.5069 66.261 62.5797 68.4996 60.9292 70.1501C59.2787 71.8005 57.0402 72.7278 54.706 72.7278L44.2065 72.8334C41.8724 72.8334 39.6339 71.9062 37.9834 70.2557C36.3329 68.6052 35.4056 66.3666 35.4056 64.0325C35.4056 61.6983 36.3329 59.4598 37.9834 57.8093C39.6339 56.1588 41.8724 55.2316 44.2065 55.2316V55.2492Z" fill="#FDD407"/>
</mask>
<g mask="url(#mask1)">
<path d="M52.3828 54.501C52.3828 54.501 44.8317 63.6187 52.2948 72.9829L45.5445 73.0709C45.5445 73.0709 39.1199 63.9267 45.5621 54.8002C45.7734 54.6858 52.3652 54.5714 52.3828 54.501Z" fill="#221F54"/>
<path d="M40.8448 55.1257C40.8448 55.1257 33.3992 64.041 40.8448 73.282L34.1209 73.3612C34.1209 73.3612 27.6875 64.3139 34.1209 55.4074C34.1209 55.2841 40.8624 55.337 40.8448 55.1257Z" fill="#221F54"/>
</g>
<path d="M58.5872 65.0447C58.2583 65.3293 57.8425 65.4938 57.4079 65.5111C56.9742 65.5291 56.5469 65.4021 56.1934 65.1503" stroke="#221F54" stroke-miterlimit="10" stroke-linecap="round"/>
<path d="M53.3948 62.8884C53.3949 63.1388 53.4818 63.3815 53.6408 63.575C53.7997 63.7685 54.0209 63.901 54.2665 63.9497C54.5122 63.9985 54.7671 63.9606 54.9879 63.8424C55.2088 63.7243 55.3818 63.5332 55.4776 63.3018C55.5733 63.0704 55.5859 62.813 55.5131 62.5733C55.4403 62.3337 55.2867 62.1267 55.0784 61.9877C54.8701 61.8486 54.6201 61.786 54.3709 61.8107C54.1216 61.8353 53.8887 61.9456 53.7116 62.1227C53.6107 62.223 53.5307 62.3423 53.4764 62.4737C53.422 62.6052 53.3942 62.7461 53.3948 62.8884Z" fill="#221F54"/>
<path d="M53.958 62.7652C53.9657 62.8359 53.9931 62.903 54.0372 62.9588C54.0825 63.0144 54.1441 63.0544 54.2132 63.0732C54.2811 63.0997 54.3565 63.0997 54.4245 63.0732C54.49 63.0518 54.548 63.0121 54.5917 62.9588C54.6357 62.903 54.6632 62.8359 54.6709 62.7652C54.6924 62.6994 54.6924 62.6285 54.6709 62.5627C54.6398 62.4991 54.5866 62.4491 54.5213 62.4219C54.4604 62.3856 54.3893 62.3702 54.3188 62.3779C54.2044 62.3691 54.002 62.5628 53.958 62.7652Z" fill="white"/>
<path d="M58.948 62.915C58.947 63.1219 59.0083 63.3243 59.124 63.4959C59.2379 63.6681 59.4002 63.8028 59.5905 63.8831C59.7825 63.9645 59.9945 63.9867 60.1993 63.9468C60.404 63.9069 60.5922 63.8069 60.7397 63.6594C60.8872 63.5119 60.9873 63.3237 61.0271 63.1189C61.067 62.9142 61.0448 62.7022 60.9634 62.5102C60.8831 62.3199 60.7484 62.1576 60.5762 62.0437C60.4046 61.928 60.2022 61.8667 59.9953 61.8677C59.7183 61.87 59.4532 61.9811 59.2573 62.177C59.0614 62.3729 58.9503 62.6379 58.948 62.915Z" fill="#221F54"/>
<path d="M59.5114 62.8005C59.4939 62.8518 59.4939 62.9075 59.5114 62.9589C59.527 63.0106 59.5576 63.0566 59.5994 63.0909C59.6417 63.1251 59.6945 63.1438 59.749 63.1437C59.798 63.1568 59.8496 63.1568 59.8986 63.1437C59.9424 63.15 59.9868 63.15 60.0306 63.1437C60.0713 63.1216 60.1072 63.0917 60.1362 63.0557C60.1653 63.0195 60.1863 62.9775 60.1978 62.9325C60.2064 62.8889 60.2064 62.8441 60.1978 62.8005C60.1872 62.7552 60.1724 62.7111 60.1538 62.6685L60.0658 62.5628C60.0276 62.5371 59.9862 62.5164 59.9426 62.5012C59.899 62.4925 59.8542 62.4925 59.8106 62.5012C59.7578 62.3868 59.5554 62.5805 59.5114 62.8005Z" fill="white"/>
<path d="M58.9744 56.9743C58.9744 56.9743 59.74 52.6707 62.7852 54.202" stroke="#221F54" stroke-miterlimit="10" stroke-linecap="round"/>
<path d="M55.727 56.8863C55.727 56.8863 54.5301 52.3802 57.4872 51.9314" stroke="#221F54" stroke-miterlimit="10" stroke-linecap="round"/>
<path d="M65.3991 7.60118L74.8513 7.52197C76.9578 7.52197 78.9781 8.3588 80.4677 9.84837C81.9573 11.3379 82.7941 13.3582 82.7941 15.4648C82.7941 17.5714 81.9573 19.5916 80.4677 21.0812C78.9781 22.5708 76.9578 23.4076 74.8513 23.4076L65.3991 23.478C64.3408 23.5132 63.2861 23.3359 62.2975 22.9565C61.3088 22.577 60.4063 22.0032 59.6433 21.269C58.8677 20.5261 58.2504 19.634 57.8284 18.6464C57.4064 17.6588 57.1885 16.596 57.1879 15.522C57.2004 14.4603 57.424 13.4116 57.8455 12.4371C58.2671 11.4626 58.8782 10.5816 59.6433 9.84541C60.4063 9.10888 61.3081 8.53123 62.2961 8.14597C63.2842 7.76072 64.3389 7.57554 65.3991 7.60118Z" fill="#FDD407"/>
<path d="M69.0779 11.3767L69.4651 11.1919C69.7997 10.9599 70.0816 10.6601 70.2924 10.3118C70.7218 9.62157 70.861 8.78957 70.6796 7.99715C70.5957 7.60801 70.434 7.23981 70.2044 6.91464L67.3353 2.92783C66.8497 2.26546 66.1216 1.82233 65.3101 1.69533C64.4987 1.56834 63.67 1.76783 63.0052 2.25017L62.6092 2.50539C62.2739 2.73652 61.9919 3.03657 61.7819 3.38548C61.5676 3.72325 61.4237 4.10076 61.3587 4.49544C61.2936 4.89012 61.3089 5.29386 61.4035 5.68252C61.4907 6.07641 61.6585 6.44798 61.8963 6.77383L64.7302 10.7694C64.9786 11.0991 65.2897 11.3765 65.6457 11.5855C66.0016 11.7946 66.3953 11.9313 66.8042 11.9877C67.2131 12.0441 67.6292 12.0192 68.0284 11.9144C68.4277 11.8095 68.8023 11.6268 69.1307 11.3767H69.0779Z" fill="white" stroke="#221F54" stroke-miterlimit="10" stroke-linecap="round"/>
<path d="M68.8842 12.0632L69.289 12.1336C70.1146 12.2262 70.9433 11.989 71.5948 11.4736C72.2522 10.9523 72.6788 10.1939 72.783 9.36137L73.4078 4.51207C73.4892 3.69237 73.2436 2.87371 72.7244 2.23421C72.2052 1.5947 71.4545 1.1861 70.6355 1.09732L70.2043 1.01811C69.3764 0.929845 68.5465 1.1665 67.8897 1.67818C67.2354 2.19709 66.8117 2.95272 66.7103 3.78159L66.2439 8.64849C66.178 9.04795 66.1956 9.45673 66.2956 9.84904C66.3956 10.2414 66.5757 10.6087 66.8248 10.9279C67.0637 11.2444 67.3627 11.5106 67.7048 11.7112C68.0704 11.9065 68.4714 12.0262 68.8842 12.0632Z" fill="white" stroke="#221F54" stroke-miterlimit="10" stroke-linecap="round"/>
<path d="M65.3903 7.66268L74.8337 7.60107C76.9344 7.60107 78.9491 8.43559 80.4345 9.92103C81.92 11.4065 82.7545 13.4212 82.7545 15.5219C82.7545 17.6226 81.92 19.6373 80.4345 21.1227C78.9491 22.6082 76.9344 23.4427 74.8337 23.4427H65.3903C63.2896 23.4427 61.2749 22.6082 59.7894 21.1227C58.304 19.6373 57.4695 17.6226 57.4695 15.5219C57.4695 13.4212 58.304 11.4065 59.7894 9.92103C61.2749 8.43559 63.2896 7.60107 65.3903 7.60107V7.66268Z" fill="#FDD407"/>
<mask id="mask2" mask-type="alpha" maskUnits="userSpaceOnUse" x="57" y="7" width="26" height="17">
<path d="M65.3903 7.66292L74.8337 7.60132C76.9344 7.60132 78.9491 8.43583 80.4345 9.92127C81.92 11.4067 82.7545 13.4214 82.7545 15.5221C82.7545 17.6229 81.92 19.6375 80.4345 21.123C78.9491 22.6084 76.9344 23.4429 74.8337 23.4429H65.3903C63.2896 23.4429 61.2749 22.6084 59.7894 21.123C58.304 19.6375 57.4695 17.6229 57.4695 15.5221C57.4695 13.4214 58.304 11.4067 59.7894 9.92127C61.2749 8.43583 63.2896 7.60132 65.3903 7.60132V7.66292Z" fill="#FDD407"/>
</mask>
<g mask="url(#mask2)">
<path d="M72.7478 6.97632C72.7478 6.97632 65.9535 15.1876 72.6686 23.5836L66.596 23.654C66.596 23.654 60.8138 15.4516 66.684 7.24915C66.7984 7.15234 72.7302 7.04673 72.7478 6.97632Z" fill="#221F54"/>
<path d="M62.3627 7.53076C62.3627 7.53076 55.6652 15.5572 62.3627 23.8652L56.2989 23.9532C56.2989 23.9532 50.5079 15.8124 56.2989 7.80359C56.3429 7.68918 62.3803 7.73318 62.3627 7.53076Z" fill="#221F54"/>
</g>
<path d="M78.3276 16.4724C78.0308 16.723 77.6595 16.8685 77.2715 16.8861C76.8827 16.904 76.4989 16.7926 76.1802 16.5692" stroke="#221F54" stroke-miterlimit="10" stroke-linecap="round"/>
<path d="M73.6544 14.5275C73.6497 14.7851 73.7469 15.0341 73.925 15.2204C74.103 15.4067 74.3474 15.515 74.6049 15.522C74.8613 15.5193 75.107 15.4185 75.2914 15.2403C75.4371 15.1067 75.5384 14.9316 75.5817 14.7386C75.6249 14.5456 75.608 14.344 75.5332 14.1609C75.4585 13.9778 75.3294 13.8221 75.1635 13.7145C74.9975 13.607 74.8026 13.5528 74.6049 13.5594C74.4788 13.5581 74.3537 13.5823 74.2372 13.6307C74.1208 13.6792 74.0153 13.7507 73.9273 13.841C73.7435 14.0224 73.6391 14.2693 73.6368 14.5275H73.6544Z" fill="#221F54"/>
<path d="M74.1648 14.4219C74.1752 14.485 74.1992 14.545 74.2352 14.5979C74.2789 14.6431 74.3334 14.6764 74.3936 14.6947C74.4532 14.717 74.5188 14.717 74.5784 14.6947C74.6408 14.6766 74.6961 14.6397 74.7369 14.5891C74.7776 14.5423 74.8023 14.4837 74.8073 14.4219C74.8246 14.3615 74.8246 14.2974 74.8073 14.237C74.7739 14.1805 74.725 14.1347 74.6664 14.105C74.6091 14.0874 74.5478 14.0874 74.4904 14.105C74.3848 14.061 74.2088 14.2282 74.1648 14.4219Z" fill="white"/>
<path d="M78.6533 14.554C78.6528 14.7418 78.7079 14.9256 78.8118 15.0821C78.9183 15.2332 79.0644 15.352 79.2342 15.4253C79.4072 15.4951 79.5967 15.5135 79.7799 15.4781C79.9633 15.4439 80.132 15.3549 80.2639 15.2229C80.3954 15.0894 80.4869 14.9217 80.5279 14.7389C80.5606 14.5556 80.5399 14.3669 80.4681 14.1952C80.3963 14.0235 80.2765 13.8761 80.1231 13.7708C79.967 13.666 79.783 13.6107 79.595 13.6123C79.3452 13.6136 79.1056 13.7113 78.9262 13.8852C78.8389 13.9732 78.7699 14.0776 78.7231 14.1924C78.6763 14.3072 78.6526 14.4301 78.6533 14.554Z" fill="#221F54"/>
<path d="M79.1638 14.4483C79.1461 14.4936 79.1461 14.5439 79.1638 14.5892C79.176 14.6378 79.2038 14.6811 79.243 14.7124C79.2811 14.7409 79.3274 14.7564 79.375 14.7564C79.4205 14.7725 79.4702 14.7725 79.5158 14.7564C79.5536 14.764 79.5925 14.764 79.6302 14.7564C79.6682 14.7378 79.7013 14.7107 79.727 14.6772C79.7532 14.647 79.7714 14.6106 79.7798 14.5716C79.7886 14.531 79.7886 14.4889 79.7798 14.4483C79.7888 14.4107 79.7888 14.3715 79.7798 14.3339C79.7613 14.296 79.7342 14.2628 79.7006 14.2371C79.6704 14.2109 79.6341 14.1927 79.595 14.1843C79.5544 14.1758 79.5124 14.1758 79.4718 14.1843C79.3838 14.0787 79.199 14.2547 79.1638 14.4483Z" fill="white"/>
<path d="M78.6798 9.21172C78.6798 9.21172 79.3751 5.33932 82.1122 6.71226" stroke="#221F54" stroke-miterlimit="10" stroke-linecap="round"/>
<path d="M75.7578 9.15003C75.7578 9.15003 74.6752 5.10162 77.3419 4.69678" stroke="#221F54" stroke-miterlimit="10" stroke-linecap="round"/>
<path d="M6.74112 22.3251L14.4859 22.2546C15.3619 22.2224 16.2354 22.3672 17.0542 22.6802C17.873 22.9932 18.6202 23.4681 19.2513 24.0764C19.8825 24.6848 20.3845 25.4141 20.7273 26.2208C21.0702 27.0276 21.2469 27.8951 21.2469 28.7717C21.2469 29.6483 21.0702 30.5159 20.7273 31.3226C20.3845 32.1293 19.8825 32.8587 19.2513 33.467C18.6202 34.0754 17.873 34.5502 17.0542 34.8632C16.2354 35.1762 15.3619 35.321 14.4859 35.2888L6.74112 35.3504C5.42192 35.3902 4.1214 35.0309 3.00968 34.3196C1.89796 33.6083 1.02678 32.578 0.510086 31.3636C0.173369 30.5563 0 29.6904 0 28.8157C0 27.9411 0.173369 27.0751 0.510086 26.2679C1.02481 25.0539 1.89636 24.0251 3.00917 23.3178C4.12198 22.6105 5.42348 22.2581 6.74112 22.3074V22.3251Z" fill="#FDD407"/>
<path d="M9.75113 25.4055L10.068 25.2471C10.3409 25.0592 10.5717 24.8164 10.7456 24.5342C10.9234 24.2688 11.0433 23.9689 11.0977 23.6542C11.1636 23.3289 11.1636 22.9937 11.0977 22.6685C11.0263 22.3482 10.8851 22.0477 10.684 21.7884L8.36059 18.5144C8.16391 18.2324 7.91189 17.9933 7.61988 17.8117C7.32787 17.6302 7.00197 17.5099 6.66202 17.4583C5.99572 17.3578 5.31653 17.522 4.76982 17.916L4.44419 18.1624C4.02995 18.4495 3.71292 18.8558 3.53527 19.3275C3.35762 19.7991 3.32777 20.3136 3.44969 20.8027C3.52324 21.1205 3.66101 21.42 3.85453 21.6827L6.17797 24.9655C6.58843 25.5006 7.19157 25.8542 7.85894 25.9512C8.5289 26.0471 9.20953 25.873 9.75113 25.4671V25.4055Z" fill="white" stroke="#221F54" stroke-miterlimit="10" stroke-linecap="round"/>
<path d="M9.60136 25.9599L9.92699 26.0215C10.6058 26.0985 11.2874 25.9038 11.8233 25.4801C12.3591 25.0564 12.7057 24.4379 12.7873 23.7597L13.3065 19.7905C13.3781 19.1137 13.1783 18.4363 12.7509 17.9067C12.3236 17.377 11.7037 17.0385 11.0271 16.9654L10.7015 16.9038C10.0253 16.8406 9.35082 17.0404 8.81814 17.4616C8.28546 17.8828 7.93557 18.4931 7.84118 19.1656L7.42754 23.17C7.37607 23.4953 7.39104 23.8276 7.47154 24.1469C7.55238 24.4707 7.69977 24.7741 7.90433 25.0377C8.10889 25.3014 8.36613 25.5195 8.65966 25.6783C8.95009 25.8378 9.27107 25.9337 9.60136 25.9599Z" fill="white" stroke="#221F54" stroke-miterlimit="10" stroke-linecap="round"/>
<path d="M6.73224 22.3514L14.477 22.2722C16.1973 22.2722 17.8471 22.9556 19.0635 24.172C20.2799 25.3884 20.9633 27.0382 20.9633 28.7585C20.9633 30.4787 20.2799 32.1286 19.0635 33.345C17.8471 34.5614 16.1973 35.2447 14.477 35.2447L6.73224 35.324C5.01197 35.324 3.36216 34.6406 2.14575 33.4242C0.929344 32.2078 0.245972 30.558 0.245972 28.8377C0.245972 27.1174 0.929344 25.4676 2.14575 24.2512C3.36216 23.0348 5.01197 22.3514 6.73224 22.3514Z" fill="#FDD407"/>
<mask id="mask3" mask-type="alpha" maskUnits="userSpaceOnUse" x="0" y="22" width="21" height="14">
<path d="M6.73224 22.3514L14.477 22.2722C16.1973 22.2722 17.8471 22.9556 19.0635 24.172C20.2799 25.3884 20.9633 27.0382 20.9633 28.7585C20.9633 30.4787 20.2799 32.1286 19.0635 33.345C17.8471 34.5614 16.1973 35.2447 14.477 35.2447L6.73224 35.324C5.01197 35.324 3.36216 34.6406 2.14575 33.4242C0.929344 32.2078 0.245972 30.558 0.245972 28.8377C0.245972 27.1174 0.929344 25.4676 2.14575 24.2512C3.36216 23.0348 5.01197 22.3514 6.73224 22.3514Z" fill="#FDD407"/>
</mask>
<g mask="url(#mask3)">
<path d="M12.7695 21.7971C12.7695 21.7971 7.18975 28.5298 12.6991 35.4209L7.7178 35.4825C7.7178 35.4825 2.97412 28.7234 7.7178 22.0171C7.88502 21.9379 12.7519 21.8499 12.7695 21.7971Z" fill="#221F54"/>
<path d="M4.24134 22.2461C4.24134 22.2461 -1.25042 28.8292 4.24134 35.6499L-0.731167 35.7643C-0.731167 35.7643 -5.48365 29.0844 -0.731167 22.5101C-0.695964 22.3781 4.25894 22.4133 4.24134 22.2461Z" fill="#221F54"/>
</g>
<path d="M17.3461 29.6035C17.1003 29.8052 16.7955 29.9211 16.4778 29.9339C16.1602 29.9466 15.847 29.8553 15.5859 29.6739" stroke="#221F54" stroke-miterlimit="10" stroke-linecap="round"/>
<path d="M13.5089 27.9841C13.5065 28.1171 13.5373 28.2486 13.5984 28.3667C13.6595 28.4848 13.7491 28.5859 13.8591 28.6607C13.9691 28.7356 14.0959 28.7818 14.2283 28.7953C14.3606 28.8089 14.4942 28.7892 14.617 28.7382C14.7399 28.6871 14.848 28.6063 14.9318 28.503C15.0156 28.3996 15.0723 28.2771 15.0968 28.1463C15.1213 28.0156 15.1129 27.8808 15.0723 27.7542C15.0317 27.6275 14.9602 27.5129 14.8643 27.4208C14.7147 27.2751 14.5142 27.1936 14.3054 27.1936C14.0966 27.1936 13.8961 27.2751 13.7465 27.4208C13.596 27.5698 13.5105 27.7723 13.5089 27.9841Z" fill="#221F54"/>
<path d="M13.9315 27.9048C13.9372 27.9554 13.9554 28.0038 13.9843 28.0456C14.0191 28.085 14.0652 28.1127 14.1163 28.1248C14.1647 28.1423 14.2176 28.1423 14.266 28.1248C14.3171 28.1127 14.3632 28.085 14.398 28.0456C14.4234 27.9999 14.4367 27.9484 14.4367 27.896C14.4367 27.8437 14.4234 27.7922 14.398 27.7464C14.3713 27.7005 14.3314 27.6637 14.2836 27.6408C14.2352 27.6233 14.1823 27.6233 14.1339 27.6408C14.1075 27.6056 13.9579 27.7464 13.9315 27.9048Z" fill="white"/>
<path d="M17.6102 28.0104C17.6105 28.164 17.6564 28.3142 17.7422 28.4416C17.8263 28.5673 17.9458 28.6653 18.0855 28.7233C18.2312 28.7716 18.3886 28.7716 18.5343 28.7233C18.6847 28.6945 18.8227 28.6209 18.9304 28.512C19.0421 28.4066 19.1163 28.2675 19.1416 28.116C19.1712 27.9666 19.1561 27.8117 19.0982 27.6708C19.0403 27.53 18.9421 27.4093 18.816 27.3239C18.6885 27.2381 18.5384 27.1921 18.3847 27.1919C18.18 27.1942 17.9843 27.2765 17.8396 27.4213C17.6948 27.566 17.6125 27.7617 17.6102 27.9664V28.0104Z" fill="#221F54"/>
<path d="M18.0327 27.9224C18.02 27.9595 18.02 27.9998 18.0327 28.0368C18.0435 28.0767 18.0685 28.1112 18.1032 28.1336C18.1316 28.161 18.1693 28.1767 18.2088 28.1777C18.2464 28.1866 18.2856 28.1866 18.3232 28.1777H18.42C18.4503 28.1628 18.4773 28.1418 18.4992 28.116C18.5191 28.0896 18.534 28.0598 18.5432 28.028C18.5472 27.9959 18.5472 27.9634 18.5432 27.9312C18.5522 27.8996 18.5522 27.8661 18.5432 27.8344C18.5268 27.8025 18.5026 27.7752 18.4728 27.7552C18.4437 27.7504 18.4139 27.7504 18.3848 27.7552C18.3532 27.7462 18.3196 27.7462 18.288 27.7552C18.2088 27.6232 18.0592 27.764 18.0327 27.9224Z" fill="white"/>
<path d="M17.6366 23.6277C17.6366 23.6277 18.1999 20.4506 20.4441 21.5771" stroke="#221F54" stroke-miterlimit="10" stroke-linecap="round"/>
<path d="M15.2341 23.5747C15.2341 23.5747 14.3452 20.2568 16.519 19.9224" stroke="#221F54" stroke-miterlimit="10" stroke-linecap="round"/>
</svg>
