<svg width="140" height="140" viewBox="0 0 140 140" fill="none" xmlns="http://www.w3.org/2000/svg">
<path d="M110.53 61.6785L126.24 61.4985C129.744 61.4985 133.104 62.8903 135.581 65.3677C138.058 67.845 139.45 71.205 139.45 74.7085C139.45 78.212 138.058 81.5721 135.581 84.0494C133.104 86.5268 129.744 87.9185 126.24 87.9185L110.53 88.0485C107.861 88.1382 105.227 87.4174 102.976 85.981C100.724 84.5445 98.9605 82.4599 97.917 80.0015C96.8735 77.5432 96.599 74.8264 97.1297 72.209C97.6604 69.5916 98.9714 67.1963 100.89 65.3385C102.168 64.1109 103.677 63.149 105.33 62.5085C106.99 61.8857 108.759 61.6034 110.53 61.6785Z" fill="#FDD407"/>
<path d="M116.64 67.9285L117.28 67.6185C117.83 67.2301 118.299 66.7374 118.66 66.1685C119.021 65.6012 119.263 64.9669 119.373 64.3037C119.483 63.6405 119.458 62.9619 119.3 62.3085C119.142 61.6556 118.857 61.0404 118.46 60.4985L113.75 53.8685C112.936 52.7734 111.724 52.0415 110.376 51.8302C109.028 51.6189 107.65 51.945 106.54 52.7385L105.88 53.1585C105.332 53.5459 104.864 54.0347 104.5 54.5985C104.141 55.1646 103.9 55.7972 103.79 56.4585C103.676 57.1192 103.696 57.7961 103.849 58.4489C104.002 59.1017 104.284 59.7171 104.68 60.2585L109.4 66.9085C110.231 67.9963 111.458 68.7117 112.814 68.899C114.17 69.0863 115.545 68.7303 116.64 67.9085V67.9285Z" fill="white" stroke="#221F54" stroke-miterlimit="10" stroke-linecap="round"/>
<path d="M116.32 69.0586L116.98 69.1886C118.358 69.336 119.738 68.9381 120.826 68.0802C121.914 67.2223 122.622 65.9725 122.8 64.5986L123.8 56.5386C123.94 55.1685 123.533 53.7985 122.668 52.7271C121.803 51.6557 120.549 50.9697 119.18 50.8186L118.52 50.6986C117.142 50.5434 115.759 50.9386 114.671 51.7982C113.583 52.6577 112.878 53.9122 112.71 55.2886L111.88 63.3886C111.77 64.0542 111.8 64.7356 111.97 65.3886C112.132 66.0415 112.432 66.6519 112.85 67.1786C113.264 67.7099 113.781 68.1521 114.37 68.4786C114.972 68.8079 115.636 69.0056 116.32 69.0586Z" fill="white" stroke="#221F54" stroke-miterlimit="10" stroke-linecap="round"/>
<path d="M110.51 61.7384L126.22 61.5784C127.947 61.5784 129.657 61.9185 131.252 62.5793C132.848 63.2402 134.297 64.2088 135.518 65.4299C136.74 66.651 137.708 68.1006 138.369 69.6961C139.03 71.2915 139.37 73.0015 139.37 74.7284C139.37 76.4552 139.03 78.1652 138.369 79.7607C137.708 81.3561 136.74 82.8057 135.518 84.0268C134.297 85.2479 132.848 86.2165 131.252 86.8774C129.657 87.5382 127.947 87.8784 126.22 87.8784L110.51 88.0384C108.783 88.0384 107.073 87.6982 105.478 87.0374C103.882 86.3765 102.433 85.4079 101.212 84.1868C99.9905 82.9657 99.0218 81.5161 98.361 79.9207C97.7001 78.3252 97.36 76.6152 97.36 74.8884C97.36 73.1615 97.7001 71.4515 98.361 69.8561C99.0218 68.2606 99.9905 66.811 101.212 65.5899C102.433 64.3688 103.882 63.4002 105.478 62.7394C107.073 62.0785 108.783 61.7384 110.51 61.7384Z" fill="white" stroke="#221F51" stroke-miterlimit="10"/>
<mask id="mask0" mask-type="alpha" maskUnits="userSpaceOnUse" x="96" y="61" width="44" height="28">
<path d="M110.51 61.7386L126.22 61.5786C127.947 61.5786 129.657 61.9187 131.252 62.5796C132.848 63.2404 134.297 64.2091 135.519 65.4302C136.74 66.6512 137.708 68.1009 138.369 69.6963C139.03 71.2918 139.37 73.0017 139.37 74.7286C139.37 76.4555 139.03 78.1655 138.369 79.7609C137.708 81.3563 136.74 82.806 135.519 84.0271C134.297 85.2482 132.848 86.2168 131.252 86.8776C129.657 87.5385 127.947 87.8786 126.22 87.8786L110.51 88.0386C108.783 88.0386 107.073 87.6985 105.478 87.0376C103.882 86.3768 102.433 85.4082 101.212 84.1871C99.9906 82.966 99.0219 81.5163 98.3611 79.9209C97.7002 78.3255 97.3601 76.6155 97.3601 74.8886C97.3601 73.1617 97.7002 71.4518 98.3611 69.8563C99.0219 68.2609 99.9906 66.8112 101.212 65.5902C102.433 64.3691 103.882 63.4004 105.478 62.7396C107.073 62.0787 108.783 61.7386 110.51 61.7386Z" fill="white" stroke="#221F51" stroke-miterlimit="10"/>
</mask>
<g mask="url(#mask0)">
<path d="M122.75 60.6086C122.75 60.6086 111.44 74.2586 122.61 88.2286L112.51 88.3486C112.51 88.3486 102.89 74.6986 112.59 61.0686C112.85 60.8886 122.72 60.7186 122.75 60.6086Z" stroke="#221F51" stroke-miterlimit="10"/>
<path d="M105.47 61.4985C105.47 61.4985 94.3301 74.8485 105.47 88.6785L95.38 88.8185C95.38 88.8185 85.76 75.2785 95.38 61.9585C95.46 61.7885 105.5 61.8685 105.47 61.4985Z" stroke="#221F51" stroke-miterlimit="10"/>
</g>
<path d="M132.61 64.3185C132.61 64.3185 133.76 57.8785 138.32 60.1685" stroke="#221F54" stroke-miterlimit="10" stroke-linecap="round"/>
<path d="M127.74 64.2186C127.74 64.2186 126 57.4986 130.38 56.8086" stroke="#221F54" stroke-miterlimit="10" stroke-linecap="round"/>
<path d="M116.87 124.398C124.18 124.398 130.1 123.398 130.1 122.268C130.1 121.138 124.18 120.128 116.87 120.128C109.56 120.128 103.65 121.128 103.65 122.268C103.65 123.408 109.57 124.398 116.87 124.398Z" fill="#9DAFED"/>
<path d="M45.86 83.9086L60.37 83.7786C63.6083 83.7786 66.714 85.065 69.0038 87.3548C71.2936 89.6446 72.58 92.7503 72.58 95.9886C72.58 99.2269 71.2936 102.333 69.0038 104.622C66.714 106.912 63.6083 108.199 60.37 108.199L45.86 108.319C44.2302 108.365 42.6074 108.086 41.0863 107.499C39.5652 106.912 38.1761 106.028 37 104.899C35.8262 103.759 34.8883 102.4 34.24 100.899C33.5997 99.3898 33.2697 97.7676 33.2697 96.1286C33.2697 94.4896 33.5997 92.8673 34.24 91.3586C35.2085 89.0865 36.8411 87.1603 38.9236 85.8326C41.0062 84.5049 43.4415 83.8377 45.91 83.9186L45.86 83.9086Z" fill="#FDD407"/>
<path d="M51.5 89.6886L52.1 89.3986C52.6085 89.0452 53.0405 88.5928 53.37 88.0685C53.6911 87.5386 53.9051 86.9508 54 86.3385C54.125 85.7316 54.125 85.1055 54 84.4985C53.8556 83.8936 53.594 83.3229 53.23 82.8185L48.83 76.6985C48.0807 75.6833 46.9618 75.0039 45.7154 74.8074C44.469 74.6109 43.1953 74.913 42.17 75.6485L41.56 76.0385C41.0537 76.3945 40.6222 76.8464 40.29 77.3685C39.9543 77.8905 39.7296 78.476 39.63 79.0885C39.5298 79.6999 39.5502 80.325 39.69 80.9285C39.8289 81.5336 40.0873 82.1048 40.45 82.6085L44.81 88.7485C45.589 89.7603 46.7349 90.4249 48 90.5985C49.2538 90.7728 50.5257 90.4459 51.54 89.6886H51.5Z" fill="white" stroke="#221F54" stroke-miterlimit="10" stroke-linecap="round"/>
<path d="M51.21 90.7385L51.82 90.8485C53.0928 90.9898 54.37 90.624 55.375 89.8305C56.3801 89.0369 57.0322 87.8794 57.19 86.6085L58.19 79.1685C58.3191 77.902 57.9429 76.6357 57.1433 75.6451C56.3437 74.6545 55.1853 74.0196 53.92 73.8785L53.31 73.7585C52.0385 73.6163 50.7615 73.975 49.75 74.7585C48.7447 75.5504 48.0939 76.7081 47.94 77.9785L47.15 85.4985C47.0515 86.111 47.0787 86.737 47.23 87.3385C47.3829 87.9425 47.6591 88.5084 48.0411 89.0005C48.4232 89.4927 48.9028 89.9006 49.45 90.1985C49.9933 90.4976 50.5924 90.6815 51.21 90.7385Z" fill="white" stroke="#221F54" stroke-miterlimit="10" stroke-linecap="round"/>
<path d="M45.84 83.9684L60.36 83.8284C63.5824 83.8284 66.6728 85.1084 68.9513 87.387C71.2299 89.6656 72.51 92.756 72.51 95.9784C72.51 99.2008 71.2299 102.291 68.9513 104.57C66.6728 106.848 63.5824 108.128 60.36 108.128L45.84 108.278C42.6766 108.188 39.6733 106.867 37.4679 104.598C35.2624 102.328 34.0287 99.288 34.0287 96.1234C34.0287 92.9587 35.2624 89.9187 37.4679 87.6491C39.6733 85.3795 42.6766 84.0591 45.84 83.9684Z" fill="#FDD407"/>
<mask id="mask1" mask-type="alpha" maskUnits="userSpaceOnUse" x="33" y="84" width="40" height="24">
<path d="M45.2775 84.1374L60.3705 84C63.72 84 66.9324 85.2565 69.3009 87.4932C71.6694 89.7298 73 92.7633 73 95.9264C73 99.0895 71.6694 102.123 69.3009 104.36C66.9324 106.596 63.72 107.853 60.3705 107.853L45.2775 108C41.9893 107.911 38.8674 106.615 36.5749 104.387C34.2824 102.159 33 99.1751 33 96.0687C33 92.9623 34.2824 89.9783 36.5749 87.7504C38.8674 85.5226 41.9893 84.2265 45.2775 84.1374Z" fill="#FDD407"/>
</mask>
<g mask="url(#mask1)">
<path d="M57.1499 82.9285C57.1499 82.9285 46.6999 95.4985 56.9999 108.498L47.6699 108.618C47.6699 108.618 38.7799 95.9985 47.7399 83.3985C47.9999 83.1885 57.1199 83.0285 57.1499 82.9285Z" fill="#221F54"/>
<path d="M41.1799 83.7686C41.1799 83.7686 30.8899 96.1086 41.1799 108.889L31.8599 109.019C31.8599 109.019 22.9999 96.4986 31.8599 84.1886C31.9299 84.0086 41.2099 84.0886 41.1799 83.7686Z" fill="#221F54"/>
</g>
<path d="M65.73 97.4985C65.273 97.8879 64.6989 98.1132 64.0991 98.1385C63.4993 98.1639 62.9082 97.9879 62.42 97.6385" stroke="#221F54" stroke-miterlimit="10" stroke-linecap="round"/>
<path d="M58.54 94.4985C58.5534 94.7879 58.6504 95.0671 58.8191 95.3026C58.9878 95.538 59.2211 95.7196 59.4908 95.8254C59.7604 95.9311 60.0549 95.9565 60.3387 95.8985C60.6225 95.8405 60.8834 95.7016 61.09 95.4985C61.2557 95.2098 61.3198 94.8738 61.2723 94.5443C61.2248 94.2148 61.0683 93.9107 60.8277 93.6806C60.5872 93.4504 60.2765 93.3074 59.9453 93.2744C59.614 93.2414 59.2812 93.3203 59 93.4985C58.7255 93.7615 58.5611 94.1189 58.54 94.4985Z" fill="#221F54"/>
<path d="M59.33 94.3685C59.3409 94.464 59.3791 94.5542 59.44 94.6285C59.5003 94.7067 59.5846 94.763 59.68 94.7885C59.7744 94.8184 59.8756 94.8184 59.97 94.7885C60.0624 94.7578 60.1438 94.7007 60.2042 94.6243C60.2646 94.5479 60.3014 94.4555 60.31 94.3585C60.319 94.2613 60.298 94.1636 60.25 94.0785C60.2019 93.9956 60.133 93.9266 60.05 93.8785C59.9549 93.854 59.8551 93.854 59.76 93.8785C59.66 93.8185 59.39 94.0785 59.33 94.3685Z" fill="white"/>
<path d="M66.23 94.5685C66.2268 94.8554 66.31 95.1365 66.4687 95.3755C66.6274 95.6145 66.8544 95.8002 67.12 95.9085C67.3856 96.0191 67.6783 96.0469 67.96 95.9885C68.2421 95.9339 68.5013 95.7961 68.7045 95.593C68.9076 95.3898 69.0454 95.1306 69.1 94.8485C69.1584 94.5668 69.1305 94.2741 69.02 94.0085C68.907 93.744 68.7193 93.5181 68.48 93.3585C68.2006 93.1742 67.8663 93.0914 67.5331 93.1242C67.1999 93.157 66.8882 93.3032 66.65 93.5385C66.3805 93.8136 66.2297 94.1834 66.23 94.5685Z" fill="#221F54"/>
<path d="M67 94.4086C66.98 94.4805 66.98 94.5566 67 94.6286C67.0206 94.6994 67.0625 94.7623 67.12 94.8086C67.1778 94.8535 67.2471 94.8812 67.32 94.8886C67.3974 94.8887 67.4734 94.868 67.54 94.8286C67.5997 94.8375 67.6603 94.8375 67.72 94.8286C67.7711 94.794 67.8181 94.7538 67.86 94.7086C67.922 94.6501 67.9699 94.5783 68 94.4986C68.0397 94.3784 68.0397 94.2487 68 94.1286C67.9685 94.0752 67.9279 94.0279 67.88 93.9886C67.8289 93.949 67.7714 93.9185 67.71 93.8986C67.6471 93.8881 67.5829 93.8881 67.52 93.8986C67.34 93.8386 67.07 94.1086 67 94.4086Z" fill="white"/>
<path d="M66.27 86.3484C66.27 86.3484 67.33 80.3984 71.54 82.4984" stroke="#221F54" stroke-miterlimit="10" stroke-linecap="round"/>
<path d="M61.77 86.2684C61.77 86.2684 60.11 80.0384 64.21 79.4084" stroke="#221F54" stroke-miterlimit="10" stroke-linecap="round"/>
<path d="M74.79 23.8886L87.48 23.7786C90.3099 23.7786 93.0238 24.9027 95.0248 26.9037C97.0258 28.9047 98.15 31.6187 98.15 34.4486C98.15 37.2784 97.0258 39.9924 95.0248 41.9934C93.0238 43.9944 90.3099 45.1186 87.48 45.1186L74.79 45.2186C73.362 45.2623 71.9397 45.0188 70.6076 44.5025C69.2754 43.9862 68.0605 43.2077 67.0349 42.213C66.0093 41.2183 65.194 40.0278 64.6371 38.7121C64.0803 37.3964 63.7934 35.9823 63.7934 34.5536C63.7934 33.1249 64.0803 31.7107 64.6371 30.395C65.194 29.0793 66.0093 27.8888 67.0349 26.8941C68.0605 25.8995 69.2754 25.1209 70.6076 24.6046C71.9397 24.0883 73.362 23.8448 74.79 23.8886Z" fill="#FDD407"/>
<path d="M79.73 28.9384L80.25 28.6884C80.6953 28.3693 81.0726 27.9647 81.36 27.4984C81.6514 27.043 81.8455 26.5323 81.93 25.9984C82.0186 25.4636 82.0017 24.9166 81.88 24.3884C81.7509 23.8589 81.5199 23.3596 81.2 22.9184L77.39 17.5884C76.7348 16.7014 75.7564 16.1084 74.6669 15.938C73.5774 15.7677 72.4647 16.0337 71.57 16.6784L71 17.0184C70.5554 17.3261 70.1778 17.7207 69.89 18.1784C69.5998 18.6353 69.4027 19.1451 69.31 19.6784C69.2214 20.2132 69.2383 20.7601 69.36 21.2884C69.488 21.8134 69.7155 22.309 70.03 22.7484L73.84 28.1184C74.5107 28.9978 75.5012 29.5771 76.5965 29.7306C77.6917 29.8841 78.8034 29.5995 79.69 28.9384H79.73Z" fill="white" stroke="#221F54" stroke-miterlimit="10" stroke-linecap="round"/>
<path d="M79.48 29.8585L80.01 29.9585C81.1223 30.0799 82.2378 29.7589 83.1154 29.0647C83.9929 28.3705 84.5621 27.3589 84.7 26.2485L85.55 19.7485C85.6649 18.6418 85.3371 17.5346 84.6382 16.6689C83.9393 15.8032 82.926 15.2494 81.82 15.1285L81.29 15.0285C80.1777 14.8988 79.0594 15.2155 78.1802 15.9091C77.301 16.6026 76.7328 17.6165 76.6 18.7285L75.92 25.2785C75.8371 25.815 75.8643 26.3628 76 26.8885C76.1295 27.4173 76.3717 27.9119 76.71 28.3385C77.0449 28.7508 77.4599 29.091 77.93 29.3385C78.4033 29.6211 78.932 29.7984 79.48 29.8585Z" fill="white" stroke="#221F54" stroke-miterlimit="10" stroke-linecap="round"/>
<path d="M74.78 23.9484L87.47 23.8184C90.2866 23.8184 92.9878 24.9372 94.9795 26.9289C96.9711 28.9205 98.09 31.6218 98.09 34.4384C98.09 37.255 96.9711 39.9562 94.9795 41.9478C92.9878 43.9395 90.2866 45.0584 87.47 45.0584L74.78 45.1784C73.3586 45.222 71.9429 44.9797 70.6169 44.4659C69.2909 43.9521 68.0816 43.1772 67.0608 42.1872C66.0399 41.1972 65.2283 40.0122 64.674 38.7026C64.1198 37.393 63.8342 35.9854 63.8342 34.5634C63.8342 33.1413 64.1198 31.7337 64.674 30.4241C65.2283 29.1145 66.0399 27.9296 67.0608 26.9396C68.0816 25.9495 69.2909 25.1747 70.6169 24.6608C71.9429 24.147 73.3586 23.9047 74.78 23.9484Z" fill="#FDD407"/>
<mask id="mask2" mask-type="alpha" maskUnits="userSpaceOnUse" x="63" y="23" width="36" height="23">
<path d="M74.7801 23.9484L87.4701 23.8184C90.2867 23.8184 92.9879 24.9372 94.9796 26.9289C96.9712 28.9205 98.0901 31.6218 98.0901 34.4384C98.0901 37.255 96.9712 39.9562 94.9796 41.9478C92.9879 43.9395 90.2867 45.0584 87.4701 45.0584L74.7801 45.1784C73.3587 45.222 71.943 44.9797 70.617 44.4659C69.291 43.9521 68.0817 43.1772 67.0609 42.1872C66.04 41.1972 65.2284 40.0122 64.6741 38.7026C64.1198 37.393 63.8342 35.9854 63.8342 34.5634C63.8342 33.1413 64.1198 31.7337 64.6741 30.4241C65.2284 29.1145 66.04 27.9296 67.0609 26.9396C68.0817 25.9495 69.291 25.1747 70.617 24.6608C71.943 24.147 73.3587 23.9047 74.7801 23.9484Z" fill="#FDD407"/>
</mask>
<g mask="url(#mask2)">
<path d="M84.66 23.0283C84.66 23.0283 75.53 34.0283 84.55 45.3383L76.39 45.4383C76.39 45.4383 68.63 34.4383 76.46 23.4383C76.67 23.2583 84.64 23.1183 84.66 23.0283Z" fill="#221F54"/>
<path d="M70.71 23.7683C70.71 23.7683 61.71 34.5483 70.71 45.7683L62.56 45.8783C62.56 45.8783 54.79 34.9383 62.56 24.1883C62.63 23.9783 70.73 24.0483 70.71 23.7683Z" fill="#221F54"/>
</g>
<path d="M92.16 35.7786C91.7626 36.1187 91.2626 36.3159 90.74 36.3386C90.2162 36.3596 89.6999 36.2086 89.27 35.9086" stroke="#221F54" stroke-miterlimit="10" stroke-linecap="round"/>
<path d="M85.88 33.1684C85.88 33.5132 86.017 33.8439 86.2608 34.0876C86.5046 34.3314 86.8352 34.4684 87.18 34.4684C87.5248 34.4684 87.8554 34.3314 88.0992 34.0876C88.343 33.8439 88.48 33.5132 88.48 33.1684C88.4825 32.9973 88.45 32.8275 88.3847 32.6693C88.3194 32.5111 88.2225 32.3679 88.1 32.2484C87.9791 32.1277 87.8357 32.0321 87.6778 31.9669C87.52 31.9017 87.3508 31.8682 87.18 31.8684C86.8359 31.8723 86.5065 32.0083 86.26 32.2484C86.1393 32.3693 86.0437 32.5127 85.9785 32.6706C85.9133 32.8285 85.8798 32.9976 85.88 33.1684Z" fill="#221F54"/>
<path d="M86.57 33.0285C86.5785 33.1119 86.6096 33.1914 86.66 33.2585C86.7135 33.326 86.787 33.375 86.87 33.3985C86.9507 33.4283 87.0393 33.4283 87.12 33.3985C87.2054 33.3805 87.2806 33.3303 87.33 33.2585C87.3854 33.1934 87.4203 33.1134 87.43 33.0285C87.4339 32.9423 87.4168 32.8565 87.38 32.7785C87.3329 32.7095 87.2715 32.6515 87.2 32.6085C87.1232 32.568 87.0364 32.5507 86.95 32.5585C86.86 32.5485 86.62 32.7785 86.57 33.0285Z" fill="white"/>
<path d="M92.59 33.2085C92.5937 33.4592 92.6704 33.7034 92.8107 33.9112C92.951 34.119 93.1489 34.2814 93.38 34.3785C93.6102 34.4768 93.8653 34.5013 94.11 34.4485C94.3567 34.3994 94.5831 34.2775 94.76 34.0985C94.8997 33.9649 95.0073 33.8014 95.0748 33.6202C95.1422 33.439 95.1678 33.245 95.1495 33.0525C95.1312 32.8601 95.0696 32.6742 94.9692 32.509C94.8688 32.3438 94.7324 32.2035 94.57 32.0985C94.3236 31.9376 94.0296 31.8657 93.7368 31.8948C93.444 31.9239 93.1699 32.0522 92.96 32.2585C92.838 32.3841 92.7423 32.5329 92.6788 32.6961C92.6152 32.8592 92.585 33.0335 92.59 33.2085Z" fill="#221F54"/>
<path d="M93.28 33.0684C93.2601 33.1302 93.2601 33.1967 93.28 33.2584C93.2976 33.3201 93.3322 33.3756 93.38 33.4184C93.4326 33.4562 93.4953 33.4771 93.56 33.4784C93.6218 33.4983 93.6882 33.4983 93.75 33.4784L93.9 33.4284C93.9497 33.4 93.9937 33.3627 94.03 33.3184C94.0661 33.2779 94.0934 33.2302 94.11 33.1784C94.1199 33.1222 94.1199 33.0647 94.11 33.0084C94.1087 32.9546 94.0913 32.9023 94.06 32.8584C94.0385 32.8072 94.0041 32.7624 93.96 32.7284C93.9171 32.6902 93.8657 32.6628 93.81 32.6484C93.7571 32.6384 93.7029 32.6384 93.65 32.6484C93.57 32.5684 93.33 32.7984 93.28 33.0684Z" fill="white"/>
<path d="M92.63 26.0284C92.63 26.0284 93.56 20.8184 97.24 22.6784" stroke="#221F54" stroke-miterlimit="10" stroke-linecap="round"/>
<path d="M88.7 25.9485C88.7 25.9485 87.25 20.5085 90.83 19.9485" stroke="#221F54" stroke-miterlimit="10" stroke-linecap="round"/>
<path d="M9.25 45.1586L20 45.0586C22.3869 45.0586 24.6761 46.0068 26.364 47.6946C28.0518 49.3825 29 51.6716 29 54.0586C29 56.4455 28.0518 58.7347 26.364 60.4226C24.6761 62.1104 22.3869 63.0586 20 63.0586L9.28 63.1486C8.07186 63.1857 6.86844 62.9817 5.74 62.5486C4.62124 62.1119 3.60121 61.4556 2.74 60.6186C1.88137 59.7608 1.20157 58.7411 0.74 57.6186C0.278447 56.5094 0.0408325 55.3199 0.0408325 54.1186C0.0408325 52.9172 0.278447 51.7277 0.74 50.6186C1.20157 49.4961 1.88137 48.4764 2.74 47.6186C3.60971 46.7788 4.63971 46.1229 5.76851 45.6899C6.89731 45.2569 8.10177 45.0558 9.31 45.0986L9.25 45.1586Z" fill="#FDD407"/>
<path d="M13.42 49.4184L13.86 49.2084C14.2401 48.9448 14.5604 48.6041 14.8 48.2084C15.0458 47.8217 15.2124 47.39 15.29 46.9384C15.3585 46.4859 15.3415 46.0246 15.24 45.5784C15.133 45.1317 14.9393 44.7104 14.67 44.3384L11.45 39.8184C10.8982 39.0658 10.0709 38.5623 9.14892 38.418C8.22693 38.2737 7.28532 38.5003 6.53 39.0484L6.08 39.3384C5.70158 39.6039 5.38165 39.9443 5.14 40.3384C4.89722 40.7256 4.73404 41.1574 4.66 41.6084C4.56498 42.0567 4.56498 42.52 4.66 42.9684C4.76472 43.4128 4.95864 43.8312 5.23 44.1984L8.44 48.7384C9.00727 49.4799 9.84379 49.968 10.7684 50.0972C11.693 50.2263 12.6313 49.986 13.38 49.4284L13.42 49.4184Z" fill="white" stroke="#221F54" stroke-miterlimit="10" stroke-linecap="round"/>
<path d="M13.21 50.1884L13.66 50.2784C14.6016 50.3697 15.5417 50.0898 16.28 49.4984C17.0228 48.9126 17.5044 48.0573 17.62 47.1184L18.34 41.6184C18.4381 40.6837 18.1616 39.7484 17.5711 39.0173C16.9806 38.2862 16.1243 37.8191 15.19 37.7184L14.74 37.6284C13.7994 37.5291 12.8568 37.7979 12.11 38.3784C11.3693 38.9645 10.891 39.8203 10.78 40.7584L10.21 46.2884C10.1352 46.7422 10.1552 47.2067 10.2687 47.6525C10.3823 48.0983 10.5871 48.5157 10.87 48.8784C11.1396 49.237 11.48 49.5365 11.87 49.7584C12.2782 50.0016 12.7365 50.1486 13.21 50.1884Z" fill="white" stroke="#221F54" stroke-miterlimit="10" stroke-linecap="round"/>
<path d="M8.52388 45.1094L19.6738 45C22.1473 45 24.5194 45.943 26.2684 47.6215C28.0174 49.3 29 51.5765 29 53.9503C29 56.324 28.0174 58.6006 26.2684 60.2791C24.5194 61.9576 22.1473 62.9006 19.6738 62.9006L8.56533 63C6.23139 62.8167 4.05473 61.7974 2.46785 60.1447C0.880963 58.492 0 56.3269 0 54.0796C0 51.8322 0.880963 49.6671 2.46785 48.0144C4.05473 46.3617 6.23139 45.3425 8.56533 45.1591L8.52388 45.1094Z" fill="#FDD407"/>
<mask id="mask3" mask-type="alpha" maskUnits="userSpaceOnUse" x="0" y="45" width="29" height="18">
<path d="M8.52388 45.1094L19.6738 45C22.1473 45 24.5194 45.943 26.2684 47.6215C28.0174 49.3 29 51.5765 29 53.9503C29 56.324 28.0174 58.6006 26.2684 60.2791C24.5194 61.9576 22.1473 62.9006 19.6738 62.9006L8.56533 63C6.23139 62.8167 4.05473 61.7974 2.46785 60.1447C0.880963 58.492 0 56.3269 0 54.0796C0 51.8322 0.880963 49.6671 2.46785 48.0144C4.05473 46.3617 6.23139 45.3425 8.56533 45.1591L8.52388 45.1094Z" fill="#FDD407"/>
</mask>
<g mask="url(#mask3)">
<path d="M17.59 44.4285C17.59 44.4285 9.88 53.7385 17.5 63.2685L10.6 63.3585C10.6 63.3585 4 54.0385 10.66 44.7385C10.84 44.6185 17.57 44.4985 17.59 44.4285Z" fill="#221F54"/>
<path d="M5.8 45.0486C5.8 45.0486 -1.8 54.1586 5.8 63.5886L-1.08 63.6886C-1.08 63.6886 -7.65 54.4486 -1.08 45.3586C-1 45.2286 5.82 45.2786 5.8 45.0486Z" fill="#221F54"/>
</g>
<path d="M23.93 55.1985C23.5901 55.4853 23.1644 55.6507 22.72 55.6685C22.2782 55.6889 21.8422 55.5623 21.48 55.3085" stroke="#221F54" stroke-miterlimit="10" stroke-linecap="round"/>
<path d="M18.62 52.9884C18.62 53.2802 18.7359 53.56 18.9422 53.7662C19.1485 53.9725 19.4283 54.0884 19.72 54.0884C20.0117 54.0884 20.2915 53.9725 20.4978 53.7662C20.7041 53.56 20.82 53.2802 20.82 52.9884C20.82 52.6967 20.7041 52.4169 20.4978 52.2106C20.2915 52.0043 20.0117 51.8884 19.72 51.8884C19.4283 51.8884 19.1485 52.0043 18.9422 52.2106C18.7359 52.4169 18.62 52.6967 18.62 52.9884Z" fill="#221F54"/>
<path d="M19.2 52.8686C19.2097 52.9408 19.2372 53.0096 19.28 53.0686C19.3263 53.1261 19.3891 53.168 19.46 53.1886C19.5285 53.2088 19.6015 53.2088 19.67 53.1886C19.7409 53.168 19.8037 53.1261 19.85 53.0686C19.8909 53.0085 19.9182 52.9403 19.93 52.8686C19.9324 52.7954 19.9151 52.7228 19.88 52.6586C19.8487 52.5952 19.7954 52.5454 19.73 52.5186C19.6621 52.4941 19.5879 52.4941 19.52 52.5186C19.45 52.4986 19.24 52.6586 19.2 52.8686Z" fill="white"/>
<path d="M24.29 53.0185C24.2882 53.2321 24.3509 53.4412 24.47 53.6185C24.5881 53.7929 24.7551 53.9286 24.95 54.0085C25.1439 54.0973 25.3612 54.1219 25.57 54.0785C25.7783 54.0334 25.9693 53.9292 26.12 53.7785C26.2708 53.6278 26.3749 53.4368 26.42 53.2285C26.4634 53.0196 26.4389 52.8024 26.35 52.6085C26.2701 52.4136 26.1344 52.2466 25.96 52.1285C25.7807 52.0136 25.5729 51.9513 25.36 51.9485C25.0778 51.9536 24.8086 52.068 24.6091 52.2676C24.4095 52.4671 24.2951 52.7363 24.29 53.0185Z" fill="#221F54"/>
<path d="M24.87 52.9086C24.8499 52.96 24.8499 53.0171 24.87 53.0686C24.8878 53.1192 24.9189 53.1641 24.96 53.1986C25.0053 53.2288 25.0564 53.2493 25.11 53.2586C25.1623 53.2736 25.2177 53.2736 25.27 53.2586H25.4L25.51 53.1686C25.5399 53.1305 25.5604 53.086 25.57 53.0386C25.5798 52.9958 25.5798 52.9514 25.57 52.9086C25.58 52.8624 25.58 52.8147 25.57 52.7686C25.5486 52.7284 25.5177 52.6941 25.48 52.6686C25.4451 52.6375 25.4043 52.6137 25.36 52.5986C25.3139 52.5882 25.2661 52.5882 25.22 52.5986C25.12 52.4986 24.91 52.6786 24.87 52.9086Z" fill="white"/>
<path d="M24.32 46.9586C24.32 46.9586 25.11 42.5586 28.22 44.1286" stroke="#221F54" stroke-miterlimit="10" stroke-linecap="round"/>
<path d="M21 46.8884C21 46.8884 19.78 42.2884 22.8 41.8284" stroke="#221F54" stroke-miterlimit="10" stroke-linecap="round"/>
</svg>
