<svg width="64" height="64" viewBox="0 0 64 64" fill="none" xmlns="http://www.w3.org/2000/svg">
<path d="M10.0003 16.9354C8.76254 17.6498 8 18.9705 8 20.3997V43.9603C8 45.3895 8.76254 46.7102 10.0003 47.4246L30.4099 59.2055C31.6476 59.9199 33.1723 59.9198 34.4099 59.2052L54.8103 47.4248C56.0477 46.7102 56.81 45.3898 56.81 43.9608V20.3992C56.81 18.9702 56.0477 17.6498 54.8103 16.9352L34.4099 5.15484C33.1723 4.44022 31.6476 4.44009 30.4099 5.15449L10.0003 16.9354Z" fill="url(#paint0_linear)"/>
<path opacity="0.1" fill-rule="evenodd" clip-rule="evenodd" d="M8.01089 20.1045C8.10797 18.7905 8.84832 17.6006 10.0003 16.9356L15.6981 13.6467C15.757 13.9998 15.7408 14.3622 15.6495 14.7101C16.1915 14.6065 16.7525 14.6801 17.2495 14.9201C17.5149 15.0174 17.7551 15.1731 17.9524 15.3756C18.1497 15.5781 18.2991 15.8222 18.3895 16.0901C18.441 16.3696 18.4282 16.6571 18.352 16.9309C18.2757 17.2047 18.1381 17.4575 17.9495 17.6701C18.131 17.6243 18.3204 17.6193 18.5041 17.6553C18.6878 17.6913 18.8612 17.7674 19.0121 17.8783C19.1629 17.9891 19.2873 18.132 19.3765 18.2966C19.4657 18.4611 19.5174 18.6434 19.5279 18.8303C19.5384 19.0172 19.5075 19.2041 19.4373 19.3776C19.3671 19.5512 19.2595 19.707 19.122 19.8341C18.9846 19.9612 18.8207 20.0563 18.6422 20.1127C18.4637 20.169 18.275 20.1852 18.0895 20.1601H18.0995L8.01089 20.1045ZM16.0379 50.9099L10.0003 47.4249C8.76254 46.7104 8 45.3898 8 43.9606V40.6944C8.70696 40.339 9.48572 40.1489 10.2774 40.1387C11.088 40.1283 11.8899 40.3068 12.6195 40.6601C12.5224 39.7861 12.6356 38.9015 12.9495 38.0801C13.4058 37.1077 14.1777 36.3183 15.1395 35.8401C16.8209 35.0509 18.6768 34.7066 20.5295 34.8401C23.8495 35.1701 26.4295 36.8401 27.0195 39.1901C27.2166 39.9339 27.2166 40.7163 27.0195 41.4601C27.9674 41.2816 28.9475 41.4076 29.8195 41.8201C30.2843 41.9944 30.7048 42.2695 31.0506 42.6257C31.3964 42.9819 31.659 43.4103 31.8195 43.8801C31.9193 44.3647 31.9082 44.8656 31.7869 45.3453C31.6657 45.825 31.4375 46.2711 31.1195 46.6501C31.4407 46.5609 31.7779 46.5449 32.1061 46.6032C32.4344 46.6615 32.7454 46.7926 33.0162 46.987C33.2871 47.1813 33.5109 47.434 33.6713 47.7263C33.8316 48.0185 33.9244 48.3431 33.9427 48.6759C33.9611 49.0088 33.9046 49.3416 33.7774 49.6497C33.6502 49.9579 33.4555 50.2336 33.2076 50.4566C32.9598 50.6796 32.6651 50.8441 32.3453 50.9382C32.0254 51.0323 31.6886 51.0534 31.3595 51.0001L16.0379 50.9099ZM56.81 21.8126V32.254L49.3895 32.2101C49.059 32.0908 48.7789 31.8628 48.5951 31.5634C48.4112 31.2641 48.3345 30.9111 48.3775 30.5625C48.4205 30.2138 48.5807 29.8901 48.8317 29.6444C49.0828 29.3986 49.41 29.2455 49.7595 29.2101C49.4079 28.6064 49.2938 27.8934 49.4395 27.2101C49.5285 26.8451 49.6915 26.5022 49.9186 26.2029C50.1457 25.9036 50.4319 25.6541 50.7595 25.4701C51.2402 25.2275 51.7711 25.1011 52.3095 25.1011C52.8479 25.1011 53.3788 25.2275 53.8595 25.4701C53.7992 24.8891 53.8816 24.3021 54.0995 23.7601C54.4001 23.1102 54.9158 22.5839 55.5595 22.2701C55.9629 22.0786 56.3815 21.9258 56.81 21.8126Z" fill="url(#paint1_linear)"/>
<path d="M44.6093 13.5189L44.6909 13.5766C45.2347 13.9599 45.6976 14.4467 46.0531 15.0091C46.4085 15.5715 46.6496 16.1985 46.7625 16.8542C46.8753 17.5099 46.8578 18.1814 46.7108 18.8303C46.5638 19.4792 46.2903 20.0928 45.906 20.6358L41.862 26.3495C41.0713 27.4665 39.8694 28.2237 38.5205 28.4546C37.1716 28.6854 35.7862 28.3709 34.6692 27.5803C34.1146 27.1894 33.6426 26.693 33.2801 26.1195C32.9177 25.5459 32.6718 24.9066 32.5568 24.2379C32.4417 23.5693 32.4596 22.8845 32.6095 22.2228C32.7594 21.5611 33.0383 20.9355 33.4302 20.3817L37.4107 14.7578C37.8016 14.2033 38.298 13.7312 38.8715 13.3688C39.445 13.0063 40.0844 12.7605 40.753 12.6454C41.4217 12.5303 42.1064 12.5483 42.7681 12.6981C43.4298 12.848 44.0555 13.1269 44.6093 13.5189Z" fill="#E8EFF7"/>
<path d="M32.8152 11.7575L32.8053 11.7587C29.9745 12.0872 27.946 14.6483 28.2746 17.4791L29.0677 24.3132C29.3962 27.144 31.9574 29.1725 34.7882 28.844L34.7981 28.8428C37.6289 28.5143 39.6574 25.9531 39.3288 23.1224L38.5357 16.2882C38.2071 13.4574 35.646 11.429 32.8152 11.7575Z" fill="white"/>
<path d="M40.6999 21.8901H26.2599C19.4447 21.8901 13.9199 27.4127 13.9199 34.2251C13.9199 41.0376 19.4447 46.5601 26.2599 46.5601H40.6999C47.5151 46.5601 53.0399 41.0376 53.0399 34.2251C53.0399 27.4127 47.5151 21.8901 40.6999 21.8901Z" fill="url(#paint2_linear)"/>
<path fill-rule="evenodd" clip-rule="evenodd" d="M30.2891 46.5599C39.1199 34.8446 31.4881 23.6825 30.1436 21.8899H39.1008C46.8424 32.9662 40.7819 44.2241 39.3598 46.5599H30.2891ZM46.6682 23.4256C50.4679 25.5282 53.0405 29.5762 53.0405 34.2249C53.0405 38.7444 50.6089 42.6963 46.982 44.8444C52.74 35.6198 48.8683 27.0297 46.6682 23.4256Z" fill="#000A64"/>
<path d="M28.5697 37.3301C29.7295 37.3301 30.6697 36.7212 30.6697 35.9701C30.6697 35.219 29.7295 34.6101 28.5697 34.6101C27.4099 34.6101 26.4697 35.219 26.4697 35.9701C26.4697 36.7212 27.4099 37.3301 28.5697 37.3301Z" fill="url(#paint3_linear)"/>
<path d="M16.5304 37.3599C17.4306 37.3599 18.1604 36.76 18.1604 36.0199C18.1604 35.2799 17.4306 34.6799 16.5304 34.6799C15.6302 34.6799 14.9004 35.2799 14.9004 36.0199C14.9004 36.76 15.6302 37.3599 16.5304 37.3599Z" fill="url(#paint4_linear)"/>
<path fill-rule="evenodd" clip-rule="evenodd" d="M20.6325 24.2967C20.6326 24.2969 20.6326 24.2971 20.1801 24.38L20.6326 24.2971C20.6784 24.547 20.513 24.7867 20.2631 24.8325C20.0133 24.8783 19.7736 24.713 19.7277 24.4633L19.7277 24.4632L19.7277 24.463L19.7273 24.4613L19.7254 24.4511C19.7235 24.4417 19.7206 24.4268 19.7165 24.4071C19.7082 24.3675 19.6953 24.3083 19.6774 24.2329C19.6414 24.0818 19.5854 23.8666 19.5058 23.6142C19.3454 23.1056 19.095 22.4636 18.732 21.8932C18.3667 21.3191 17.9138 20.8584 17.3642 20.6449C16.8343 20.4391 16.1398 20.434 15.213 20.9178C14.9878 21.0354 14.7099 20.9481 14.5924 20.7229C14.4748 20.4977 14.562 20.2198 14.7873 20.1023C15.9005 19.5211 16.8734 19.4673 17.6973 19.7874C18.5015 20.0998 19.0885 20.7397 19.5082 21.3994C19.9303 22.0627 20.2098 22.7876 20.3832 23.3375C20.4705 23.6143 20.5323 23.8512 20.5724 24.0199C20.5925 24.1044 20.6072 24.172 20.6171 24.2193C20.622 24.243 20.6258 24.2616 20.6283 24.2747L20.6313 24.2902L20.6322 24.2947L20.6324 24.2962L20.6325 24.2967Z" fill="#000A64"/>
<path fill-rule="evenodd" clip-rule="evenodd" d="M21.8557 17.2658C21.8967 17.0151 22.1331 16.845 22.3838 16.886C23.5319 17.0735 24.3002 17.6709 24.7805 18.4606C25.2491 19.231 25.4306 20.1605 25.479 21.0217C25.5276 21.8883 25.4434 22.7256 25.3491 23.3412C25.3017 23.6504 25.2512 23.9067 25.2123 24.0867C25.1929 24.1768 25.1763 24.248 25.1644 24.2974C25.1584 24.322 25.1537 24.3413 25.1503 24.3547L25.1462 24.3704L25.1451 24.375L25.1447 24.3764L25.1446 24.3768C25.1445 24.377 25.1445 24.3772 24.6997 24.26L25.1445 24.3772C25.0797 24.6229 24.8281 24.7695 24.5824 24.7048C24.3369 24.64 24.1902 24.3885 24.2548 24.143L24.2548 24.1429C24.2548 24.1428 24.2549 24.1428 24.2549 24.1427L24.2549 24.1427L24.2555 24.1404L24.2583 24.1293C24.2609 24.119 24.2649 24.103 24.27 24.0816C24.2803 24.0389 24.2953 23.975 24.313 23.8926C24.3486 23.7278 24.3955 23.4899 24.4397 23.2018C24.5284 22.6231 24.6042 21.8541 24.5604 21.0732C24.5163 20.2869 24.3527 19.5277 23.9945 18.9387C23.6479 18.369 23.1075 17.9364 22.2355 17.7939C21.9848 17.753 21.8147 17.5165 21.8557 17.2658Z" fill="#000A64"/>
<path d="M31.3799 29.6599H13.2499C13.2107 29.6629 13.1731 29.6764 13.1409 29.6989C13.1087 29.7214 13.0831 29.7521 13.0668 29.7878C13.0505 29.8235 13.044 29.8629 13.0481 29.902C13.0521 29.9411 13.0666 29.9783 13.0899 30.0099L15.3999 33.6499C15.4168 33.6772 15.4403 33.6998 15.4683 33.7155C15.4963 33.7313 15.5278 33.7396 15.5599 33.7399H19.0299C19.0611 33.7407 19.092 33.7339 19.1199 33.7199C19.1478 33.706 19.1718 33.6854 19.1899 33.6599L21.2599 30.8299C21.2769 30.8058 21.2994 30.7861 21.3254 30.7722C21.3515 30.7583 21.3804 30.7507 21.4099 30.7499H23.1899C23.2208 30.7506 23.2512 30.7582 23.2788 30.772C23.3065 30.7859 23.3307 30.8056 23.3499 30.8299L25.3499 33.6799C25.369 33.7042 25.3933 33.724 25.4209 33.7378C25.4486 33.7516 25.479 33.7592 25.5099 33.7599H28.9799C29.012 33.7596 29.0435 33.7513 29.0715 33.7355C29.0994 33.7198 29.123 33.6972 29.1399 33.6699L31.5399 29.9999C31.5607 29.9684 31.573 29.9321 31.5757 29.8945C31.5785 29.8568 31.5714 29.8191 31.5554 29.785C31.5393 29.7508 31.5147 29.7214 31.484 29.6995C31.4533 29.6776 31.4174 29.664 31.3799 29.6599Z" fill="#221E53"/>
<path opacity="0.5" fill-rule="evenodd" clip-rule="evenodd" d="M14.7673 30.8184C14.8842 30.7449 15.0386 30.7801 15.1121 30.897L16.3321 32.837C16.4056 32.9539 16.3704 33.1082 16.2535 33.1817C16.1366 33.2552 15.9823 33.22 15.9088 33.1031L14.6888 31.1631C14.6153 31.0463 14.6505 30.8919 14.7673 30.8184Z" fill="white"/>
<path opacity="0.5" fill-rule="evenodd" clip-rule="evenodd" d="M16.2268 30.8087C16.3435 30.735 16.4979 30.7698 16.5717 30.8865L17.7917 32.8165C17.8655 32.9332 17.8307 33.0876 17.714 33.1614C17.5973 33.2351 17.4428 33.2003 17.3691 33.0836L16.1491 31.1536C16.0753 31.0369 16.1101 30.8825 16.2268 30.8087Z" fill="white"/>
<path opacity="0.5" fill-rule="evenodd" clip-rule="evenodd" d="M24.6506 30.8726C24.7652 30.7956 24.9206 30.8261 24.9976 30.9407L26.2676 32.8307C26.3446 32.9453 26.3141 33.1006 26.1995 33.1776C26.0849 33.2546 25.9296 33.2241 25.8526 33.1095L24.5826 31.2195C24.5056 31.1049 24.536 30.9496 24.6506 30.8726Z" fill="white"/>
<path opacity="0.5" fill-rule="evenodd" clip-rule="evenodd" d="M26.1604 30.8526C26.275 30.7756 26.4303 30.806 26.5073 30.9207L27.7773 32.8107C27.8543 32.9253 27.8239 33.0806 27.7093 33.1576C27.5947 33.2346 27.4393 33.2041 27.3623 33.0895L26.0923 31.1995C26.0153 31.0849 26.0458 30.9296 26.1604 30.8526Z" fill="white"/>
<path d="M27.95 45.54V47.59C27.9503 47.6945 27.9245 47.7975 27.875 47.8897C27.8256 47.9818 27.754 48.0602 27.6667 48.1177C27.5794 48.1753 27.4791 48.2102 27.3749 48.2193C27.2708 48.2284 27.1659 48.2115 27.07 48.17L24.65 47.17C24.5367 47.1197 24.4405 47.0377 24.373 46.9339C24.3055 46.83 24.2695 46.7088 24.2695 46.585C24.2695 46.4611 24.3055 46.3399 24.373 46.2361C24.4405 46.1322 24.5367 46.0502 24.65 46L27.07 45C27.1629 44.9596 27.2642 44.9422 27.3653 44.9493C27.4664 44.9564 27.5642 44.9878 27.6506 45.0408C27.737 45.0938 27.8093 45.1668 27.8614 45.2537C27.9135 45.3406 27.9439 45.4388 27.95 45.54Z" fill="#221E53"/>
<path d="M24.06 47.51H24.49C24.7938 47.51 25.04 47.2638 25.04 46.96V46.18C25.04 45.8763 24.7938 45.63 24.49 45.63H24.06C23.7563 45.63 23.51 45.8763 23.51 46.18V46.96C23.51 47.2638 23.7563 47.51 24.06 47.51Z" fill="#221E53"/>
<path d="M20.5996 45.54V47.59C20.5993 47.6945 20.6251 47.7975 20.6745 47.8897C20.724 47.9818 20.7956 48.0602 20.8829 48.1177C20.9702 48.1753 21.0705 48.2102 21.1747 48.2193C21.2788 48.2284 21.3836 48.2115 21.4796 48.17L23.8896 47.17C24.0066 47.1232 24.1068 47.0425 24.1774 46.9382C24.248 46.834 24.2858 46.7109 24.2858 46.585C24.2858 46.459 24.248 46.336 24.1774 46.2317C24.1068 46.1274 24.0066 46.0467 23.8896 46L21.4796 45C21.3867 44.9596 21.2854 44.9422 21.1843 44.9493C21.0832 44.9564 20.9853 44.9878 20.899 45.0408C20.8126 45.0938 20.7403 45.1668 20.6882 45.2537C20.6361 45.3406 20.6057 45.4388 20.5996 45.54Z" fill="#221E53"/>
<path opacity="0.5" d="M23.8297 6.59006L23.2997 7.66006L22.2997 8.24006C22.2852 8.25021 22.2735 8.26368 22.2653 8.27935C22.2572 8.29501 22.2529 8.3124 22.2529 8.33006C22.2529 8.34771 22.2572 8.3651 22.2653 8.38077C22.2735 8.39643 22.2852 8.40991 22.2997 8.42006L23.2997 9.00006L23.8297 10.0701C23.8373 10.0847 23.8487 10.0971 23.8628 10.1057C23.8769 10.1143 23.8932 10.1188 23.9097 10.1188C23.9262 10.1188 23.9424 10.1143 23.9565 10.1057C23.9706 10.0971 23.9821 10.0847 23.9897 10.0701L24.5197 9.00006L25.5197 8.42006C25.5341 8.40991 25.5459 8.39643 25.5541 8.38077C25.5622 8.3651 25.5664 8.34771 25.5664 8.33006C25.5664 8.3124 25.5622 8.29501 25.5541 8.27935C25.5459 8.26368 25.5341 8.25021 25.5197 8.24006L24.5197 7.66006L23.9497 6.59006C23.9332 6.5753 23.9118 6.56714 23.8897 6.56714C23.8675 6.56714 23.8462 6.5753 23.8297 6.59006Z" fill="white"/>
<path d="M52.8904 18.19L52.4404 19.09L51.6204 19.59C51.6079 19.5969 51.5974 19.6071 51.5902 19.6194C51.5829 19.6317 51.5791 19.6457 51.5791 19.66C51.5791 19.6743 51.5829 19.6883 51.5902 19.7006C51.5974 19.713 51.6079 19.7231 51.6204 19.73L52.4404 20.22L52.8904 21.12C52.8956 21.133 52.9045 21.1441 52.9161 21.152C52.9277 21.1598 52.9414 21.164 52.9554 21.164C52.9694 21.164 52.983 21.1598 52.9946 21.152C53.0062 21.1441 53.0152 21.133 53.0204 21.12L53.4704 20.22L54.2904 19.73C54.3029 19.7231 54.3133 19.713 54.3206 19.7006C54.3278 19.6883 54.3316 19.6743 54.3316 19.66C54.3316 19.6457 54.3278 19.6317 54.3206 19.6194C54.3133 19.6071 54.3029 19.5969 54.2904 19.59L53.4704 19.09L53.0204 18.19C53.0152 18.177 53.0062 18.1659 52.9946 18.158C52.983 18.1502 52.9694 18.146 52.9554 18.146C52.9414 18.146 52.9277 18.1502 52.9161 18.158C52.9045 18.1659 52.8956 18.177 52.8904 18.19Z" fill="#FED401"/>
<path d="M11.12 45L10.4 46.45C10.3961 46.4629 10.3897 46.4748 10.3811 46.4851C10.3725 46.4954 10.3619 46.5039 10.35 46.51L9.01996 47.3C9.00133 47.314 8.98621 47.3321 8.9758 47.3529C8.96538 47.3738 8.95996 47.3967 8.95996 47.42C8.95996 47.4433 8.96538 47.4663 8.9758 47.4871C8.98621 47.5079 9.00133 47.526 9.01996 47.54L10.35 48.34C10.3713 48.3513 10.3887 48.3687 10.4 48.39L11.12 49.85C11.1293 49.8714 11.1447 49.8896 11.1642 49.9024C11.1838 49.9152 11.2066 49.9221 11.23 49.9221C11.2533 49.9221 11.2762 49.9152 11.2957 49.9024C11.3152 49.8896 11.3306 49.8714 11.34 49.85L12.06 48.39C12.0565 48.3735 12.0565 48.3565 12.06 48.34L13.39 47.54C13.4086 47.526 13.4237 47.5079 13.4341 47.4871C13.4445 47.4663 13.45 47.4433 13.45 47.42C13.45 47.3967 13.4445 47.3738 13.4341 47.3529C13.4237 47.3321 13.4086 47.314 13.39 47.3L12.06 46.51C12.0538 46.4905 12.0538 46.4695 12.06 46.45L11.34 45C11.3306 44.9786 11.3152 44.9604 11.2957 44.9476C11.2762 44.9348 11.2533 44.928 11.23 44.928C11.2066 44.928 11.1838 44.9348 11.1642 44.9476C11.1447 44.9604 11.1293 44.9786 11.12 45Z" fill="#FED401"/>
<path d="M44.3403 47.79L43.8003 48.86L42.8003 49.44C42.7858 49.4489 42.7738 49.4614 42.7656 49.4763C42.7573 49.4912 42.7529 49.5079 42.7529 49.525C42.7529 49.542 42.7573 49.5587 42.7656 49.5736C42.7738 49.5885 42.7858 49.601 42.8003 49.61L43.8003 50.2L44.3403 51.27C44.3459 51.2853 44.3562 51.2985 44.3696 51.3078C44.383 51.3171 44.3989 51.3221 44.4153 51.3221C44.4316 51.3221 44.4475 51.3171 44.4609 51.3078C44.4743 51.2985 44.4846 51.2853 44.4903 51.27L45.0303 50.2L46.0303 49.61C46.0447 49.601 46.0567 49.5885 46.0649 49.5736C46.0732 49.5587 46.0776 49.542 46.0776 49.525C46.0776 49.5079 46.0732 49.4912 46.0649 49.4763C46.0567 49.4614 46.0447 49.4489 46.0303 49.44L45.0303 48.86L44.4903 47.79C44.4846 47.7746 44.4743 47.7614 44.4609 47.7521C44.4475 47.7428 44.4316 47.7378 44.4153 47.7378C44.3989 47.7378 44.383 47.7428 44.3696 47.7521C44.3562 47.7614 44.3459 47.7746 44.3403 47.79Z" fill="white"/>
<path opacity="0.5" d="M22.5 51.8201L22.23 52.3501L21.74 52.6401C21.7337 52.6457 21.7285 52.6526 21.725 52.6604C21.7215 52.6681 21.7197 52.6766 21.7197 52.6851C21.7197 52.6936 21.7215 52.702 21.725 52.7098C21.7285 52.7175 21.7337 52.7244 21.74 52.7301L22.23 53.0201L22.5 53.5501H22.58L22.85 53.0201L23.34 52.7301C23.3464 52.7244 23.3515 52.7175 23.355 52.7098C23.3585 52.702 23.3604 52.6936 23.3604 52.6851C23.3604 52.6766 23.3585 52.6681 23.355 52.6604C23.3515 52.6526 23.3464 52.6457 23.34 52.6401L22.85 52.3501L22.58 51.8201H22.5Z" fill="white"/>
<path d="M14.2797 17L13.5897 18.4L12.3297 19.15C12.3111 19.1629 12.296 19.18 12.2855 19.2001C12.275 19.2201 12.2695 19.2424 12.2695 19.265C12.2695 19.2876 12.275 19.3098 12.2855 19.3299C12.296 19.3499 12.3111 19.3671 12.3297 19.38L13.5897 20.13C13.5939 20.1464 13.5939 20.1636 13.5897 20.18L14.2797 21.56C14.2885 21.5791 14.3026 21.5953 14.3203 21.6067C14.338 21.6181 14.3586 21.6241 14.3797 21.6241C14.4008 21.6241 14.4214 21.6181 14.4391 21.6067C14.4568 21.5953 14.4709 21.5791 14.4797 21.56L15.1697 20.18V20.13L16.4297 19.38C16.4483 19.3671 16.4634 19.3499 16.4739 19.3299C16.4844 19.3098 16.4898 19.2876 16.4898 19.265C16.4898 19.2424 16.4844 19.2201 16.4739 19.2001C16.4634 19.18 16.4483 19.1629 16.4297 19.15L15.1697 18.4L14.4797 17C14.4709 16.9808 14.4568 16.9646 14.4391 16.9532C14.4214 16.9418 14.4008 16.9358 14.3797 16.9358C14.3586 16.9358 14.338 16.9418 14.3203 16.9532C14.3026 16.9646 14.2885 16.9808 14.2797 17Z" fill="white"/>
<path d="M20.2502 35.7H24.3602V35.85C24.3602 36.2637 24.1959 36.6605 23.9033 36.953C23.6108 37.2456 23.214 37.41 22.8002 37.41H21.8002C21.3865 37.41 20.9897 37.2456 20.6971 36.953C20.4046 36.6605 20.2402 36.2637 20.2402 35.85V35.7H20.2502Z" fill="white"/>
<path opacity="0.25" d="M32.3501 51.51C36.5033 51.51 39.8701 50.9549 39.8701 50.27C39.8701 49.5852 36.5033 49.03 32.3501 49.03C28.1969 49.03 24.8301 49.5852 24.8301 50.27C24.8301 50.9549 28.1969 51.51 32.3501 51.51Z" fill="black"/>
<defs>
<linearGradient id="paint0_linear" x1="32.4" y1="60.14" x2="32.4" y2="11.33" gradientUnits="userSpaceOnUse">
<stop stop-color="#4D6279"/>
<stop offset="1" stop-color="#221E53"/>
</linearGradient>
<linearGradient id="paint1_linear" x1="-2814.11" y1="268.68" x2="-2427.49" y2="268.68" gradientUnits="userSpaceOnUse">
<stop stop-color="white"/>
<stop offset="1" stop-color="#E7EFF7"/>
</linearGradient>
<linearGradient id="paint2_linear" x1="33.4799" y1="46.5601" x2="33.4799" y2="21.8901" gradientUnits="userSpaceOnUse">
<stop stop-color="#FFB500"/>
<stop offset="0.96" stop-color="#FFD271"/>
</linearGradient>
<linearGradient id="paint3_linear" x1="28.7897" y1="39.5701" x2="28.4197" y2="33.4201" gradientUnits="userSpaceOnUse">
<stop stop-color="#FF952D"/>
<stop offset="1" stop-color="#FF782D"/>
</linearGradient>
<linearGradient id="paint4_linear" x1="-48.8326" y1="131.964" x2="-49.6487" y2="115.436" gradientUnits="userSpaceOnUse">
<stop stop-color="#FF952D"/>
<stop offset="1" stop-color="#FF782D"/>
</linearGradient>
</defs>
</svg>
