<svg width="58" height="56" viewBox="0 0 58 56" fill="none" xmlns="http://www.w3.org/2000/svg">
<g opacity="0.5">
<path d="M8.9 34.1997L4.7 22.1997C4.3 21.1997 4.9 19.9997 5.9 19.6997L8.8 18.6997" stroke="#1F1A54" stroke-width="1.4" stroke-linecap="round" stroke-linejoin="round"/>
<path d="M29.2 43.3999L15.8 48.0999C14.8 48.4999 13.6 47.8999 13.3 46.8999L12.1 43.3999" stroke="#1F1A54" stroke-width="1.4" stroke-linecap="round" stroke-linejoin="round"/>
<path d="M25 12.9998L36.4 8.9998C37.4 8.5998 38.6 9.1998 38.9 10.1998L39.8 12.8998" stroke="#1F1A54" stroke-width="1.4" stroke-linecap="round" stroke-linejoin="round"/>
<path d="M43.3 43.3998H11C9.9 43.3998 9 42.4998 9 41.3998V15.2998C9 14.1998 9.9 13.2998 11 13.2998H43.3C44.4 13.2998 45.3 14.1998 45.3 15.2998V41.3998C45.3 42.4998 44.5 43.3998 43.4 43.3998C43.4 43.3998 43.4 43.3998 43.3 43.3998Z" stroke="#1F1A54" stroke-width="1.4" stroke-linecap="round" stroke-linejoin="round"/>
<path d="M21.7 43.3998L34.9 19.2998L44.3 35.6998" stroke="#1F1A54" stroke-width="1.4" stroke-linecap="round" stroke-linejoin="round"/>
<path d="M9.10001 38.6996L15.9 29.0996L23.8 38.9996" stroke="#1F1A54" stroke-width="1.4" stroke-linecap="round" stroke-linejoin="round"/>
<path d="M22 25C23.933 25 25.5 23.433 25.5 21.5C25.5 19.567 23.933 18 22 18C20.067 18 18.5 19.567 18.5 21.5C18.5 23.433 20.067 25 22 25Z" stroke="#1F1A54" stroke-width="1.4" stroke-miterlimit="10" stroke-linecap="round"/>
<g filter="url(#filter0_d)">
<path d="M36.4 38.7C35.1 38.6 34.1 37.5 34.2 36.2C34.2 36.2 34.2 36.2 34.2 36.1V26.9C34.1 25.6 35 24.5 36.3 24.3C36.3 24.3 36.3 24.3 36.4 24.3H39L40.2 21.5H48.2L49.3 24.3H51.8C53.1 24.3 54.1 25.4 54.1 26.7V26.8V36C54.2 37.3 53.3 38.4 52 38.6C52 38.6 52 38.6 51.9 38.6H36.4V38.7Z" fill="url(#paint0_linear)"/>
</g>
<path d="M47.7 22.1L48.9 25.1H52.1C52.9 25.2 53.5 25.9 53.4 26.7V36.4C53.4 37.3 52.9 38 52.2 38H36C35.4 38 34.8 37.2 34.8 36.4V26.7C34.8 25.8 35.3 25.1 36 25.1H39.3L40.6 22.1H47.7ZM49.2 20H39.3L38.8 21.3L38 23H36.1C34.2 23.1 32.7 24.8 32.8 26.7C32.8 26.7 32.8 26.7 32.8 26.8V36.5C32.7 38.4 34.1 40.1 36.1 40.3C36.1 40.3 36.1 40.3 36.2 40.3H52.4C54.3 40.2 55.8 38.5 55.7 36.6C55.7 36.6 55.7 36.6 55.7 36.5V26.8C55.8 24.8 54.3 23.2 52.4 23H52.3H50.5L49.9 21.4L49.2 20Z" fill="white"/>
<path d="M44.1 34.9999C46.1987 34.9999 47.9 33.2986 47.9 31.1999C47.9 29.1012 46.1987 27.3999 44.1 27.3999C42.0013 27.3999 40.3 29.1012 40.3 31.1999C40.3 33.2986 42.0013 34.9999 44.1 34.9999Z" stroke="white" stroke-width="1.4" stroke-linecap="round" stroke-linejoin="round"/>
</g>
<defs>
<filter id="filter0_d" x="31.1924" y="21.5" width="25.9151" height="23.2" filterUnits="userSpaceOnUse" color-interpolation-filters="sRGB">
<feFlood flood-opacity="0" result="BackgroundImageFix"/>
<feColorMatrix in="SourceAlpha" type="matrix" values="0 0 0 0 0 0 0 0 0 0 0 0 0 0 0 0 0 0 127 0"/>
<feOffset dy="3"/>
<feGaussianBlur stdDeviation="1.5"/>
<feColorMatrix type="matrix" values="0 0 0 0 0.636094 0 0 0 0 0.666281 0 0 0 0 0.8625 0 0 0 0.2 0"/>
<feBlend mode="normal" in2="BackgroundImageFix" result="effect1_dropShadow"/>
<feBlend mode="normal" in="SourceGraphic" in2="effect1_dropShadow" result="shape"/>
</filter>
<linearGradient id="paint0_linear" x1="44.15" y1="21.5" x2="44.15" y2="38.7" gradientUnits="userSpaceOnUse">
<stop stop-color="#FBE100"/>
<stop offset="1" stop-color="#FFD600"/>
</linearGradient>
</defs>
</svg>
