<svg width="58" height="56" viewBox="0 0 58 56" fill="none" xmlns="http://www.w3.org/2000/svg">
<g id="Glyph / 56px / Images">
<path id="Vector (Stroke)" fill-rule="evenodd" clip-rule="evenodd" d="M9.46195 18.4717C9.58798 18.8372 9.39386 19.2356 9.02838 19.3616L6.12838 20.3616C6.11943 20.3647 6.11041 20.3676 6.10133 20.3704C5.49071 20.5536 5.10455 21.326 5.35012 21.9399C5.35392 21.9494 5.35751 21.959 5.36089 21.9686L9.56089 33.9686C9.6886 34.3335 9.49633 34.7329 9.13144 34.8606C8.76654 34.9883 8.3672 34.796 8.23949 34.4311L4.04413 22.4444C3.50381 21.0666 4.30906 19.4562 5.68427 19.0339L8.572 18.0381C8.93748 17.9121 9.33592 18.1062 9.46195 18.4717Z" fill="#8D8BA7"/>
<path id="Vector (Stroke)_2" fill-rule="evenodd" clip-rule="evenodd" d="M29.8606 43.1684C29.9886 43.5332 29.7966 43.9327 29.4318 44.0606L16.0448 48.756C14.6668 49.2966 13.0559 48.491 12.6339 47.1154L11.4379 43.6271C11.3125 43.2614 11.5074 42.8633 11.8731 42.7379C12.2388 42.6125 12.6369 42.8074 12.7623 43.1731L13.9623 46.6731C13.9652 46.6816 13.968 46.6903 13.9706 46.6989C14.1538 47.3096 14.9262 47.6957 15.5401 47.4501C15.5495 47.4464 15.5589 47.4429 15.5684 47.4395L28.9684 42.7395C29.3332 42.6116 29.7327 42.8036 29.8606 43.1684Z" fill="#8D8BA7"/>
<path id="Vector (Stroke)_3" fill-rule="evenodd" clip-rule="evenodd" d="M38.2295 10.4011C38.0463 9.7905 37.2739 9.40435 36.66 9.64992C36.6506 9.65365 36.6412 9.65718 36.6318 9.66051L25.2318 13.6605C24.867 13.7885 24.4675 13.5965 24.3395 13.2317C24.2115 12.867 24.4034 12.4675 24.7682 12.3395L36.1552 8.34404C37.5343 7.80301 39.1466 8.61023 39.5671 9.98782L40.4641 12.6786C40.5863 13.0454 40.3881 13.4418 40.0214 13.5641C39.6546 13.6863 39.2582 13.4881 39.1359 13.1213L38.2359 10.4213C38.2337 10.4146 38.2315 10.4079 38.2295 10.4011Z" fill="#8D8BA7"/>
<g id="Layer 2 1">
<g id="Layer 1 2 2">
<g id="Layer 18 2">
<path id="Vector (Stroke)_4" fill-rule="evenodd" clip-rule="evenodd" d="M10.9998 14C10.2864 14 9.6998 14.5866 9.6998 15.3V41.4C9.6998 42.1134 10.2864 42.7 10.9998 42.7H43.3992C44.0664 42.7 44.5998 42.1613 44.5998 41.4V15.3C44.5998 14.5866 44.0132 14 43.2998 14H10.9998ZM8.2998 15.3C8.2998 13.8134 9.51321 12.6 10.9998 12.6H43.2998C44.7864 12.6 45.9998 13.8134 45.9998 15.3V41.4C45.9998 42.8386 44.9327 44.1 43.3998 44.1H10.9998C9.51321 44.1 8.2998 42.8866 8.2998 41.4V15.3Z" fill="#8D8BA7"/>
<path id="Vector (Stroke)_5" fill-rule="evenodd" clip-rule="evenodd" d="M34.8929 18.6C35.1461 18.5976 35.381 18.7321 35.507 18.9519L44.907 35.3519C45.0992 35.6873 44.9831 36.1151 44.6477 36.3073C44.3123 36.4996 43.8846 36.3835 43.6923 36.0481L34.9135 20.7318L22.3136 43.7363C22.1279 44.0753 21.7024 44.1997 21.3634 44.0139C21.0243 43.8282 20.9 43.4028 21.0857 43.0637L34.2857 18.9637C34.4074 18.7416 34.6396 18.6025 34.8929 18.6Z" fill="#8D8BA7"/>
<path id="Vector (Stroke)_6" fill-rule="evenodd" clip-rule="evenodd" d="M15.8799 28.4003C16.0998 28.394 16.3099 28.4914 16.4471 28.6634L24.3471 38.5634C24.5882 38.8656 24.5388 39.306 24.2366 39.5471C23.9344 39.7883 23.4939 39.7388 23.2528 39.4366L15.9333 30.264L9.67118 39.1046C9.44772 39.4201 9.01082 39.4947 8.69535 39.2712C8.37987 39.0478 8.30528 38.6109 8.52874 38.2954L15.3287 28.6954C15.4559 28.5159 15.66 28.4066 15.8799 28.4003Z" fill="#8D8BA7"/>
<path id="Vector (Stroke)_7" fill-rule="evenodd" clip-rule="evenodd" d="M21.9998 18.7C20.4534 18.7 19.1998 19.9536 19.1998 21.5C19.1998 23.0464 20.4534 24.3 21.9998 24.3C23.5462 24.3 24.7998 23.0464 24.7998 21.5C24.7998 19.9536 23.5462 18.7 21.9998 18.7ZM17.7998 21.5C17.7998 19.1804 19.6802 17.3 21.9998 17.3C24.3194 17.3 26.1998 19.1804 26.1998 21.5C26.1998 23.8196 24.3194 25.7 21.9998 25.7C19.6802 25.7 17.7998 23.8196 17.7998 21.5Z" fill="#8D8BA7"/>
</g>
</g>
</g>
<g id="Vector" filter="url(#filter0_d)">
<path d="M36.4 38.7002C35.1 38.6002 34.1 37.5002 34.2 36.2002C34.2 36.2002 34.2 36.2002 34.2 36.1002V26.9002C34.1 25.6002 35 24.5002 36.3 24.3002C36.3 24.3002 36.3 24.3002 36.4 24.3002H39L40.2 21.5002H48.2L49.3 24.3002H51.8C53.1 24.3002 54.1 25.4002 54.1 26.7002V26.8002V36.0002C54.2 37.3002 53.3 38.4002 52 38.6002C52 38.6002 52 38.6002 51.9 38.6002H36.4V38.7002Z" fill="url(#paint0_linear)"/>
</g>
<g id="Group">
<path id="Vector_2" d="M47.7 22.1002L48.9 25.1002H52.1C52.9 25.2002 53.5 25.9002 53.4 26.7002V36.4002C53.4 37.3002 52.9 38.0002 52.2 38.0002H36C35.4 38.0002 34.8 37.2002 34.8 36.4002V26.7002C34.8 25.8002 35.3 25.1002 36 25.1002H39.3L40.6 22.1002H47.7ZM49.2 20.0002H39.3L38.8 21.3002L38 23.0002H36.1C34.2 23.1002 32.7 24.8002 32.8 26.7002C32.8 26.7002 32.8 26.7002 32.8 26.8002V36.5002C32.7 38.4002 34.1 40.1002 36.1 40.3002C36.1 40.3002 36.1 40.3002 36.2 40.3002H52.4C54.3 40.2002 55.8 38.5002 55.7 36.6002C55.7 36.6002 55.7 36.6002 55.7 36.5002V26.8002C55.8 24.8002 54.3 23.2002 52.4 23.0002H52.3H50.5L49.9 21.4002L49.2 20.0002Z" fill="white"/>
<path id="Vector (Stroke)_8" fill-rule="evenodd" clip-rule="evenodd" d="M44.1001 28.1002C42.388 28.1002 41.0001 29.4881 41.0001 31.2002C41.0001 32.9123 42.388 34.3002 44.1001 34.3002C45.8122 34.3002 47.2001 32.9123 47.2001 31.2002C47.2001 29.4881 45.8122 28.1002 44.1001 28.1002ZM39.6001 31.2002C39.6001 28.7149 41.6148 26.7002 44.1001 26.7002C46.5854 26.7002 48.6001 28.7149 48.6001 31.2002C48.6001 33.6855 46.5854 35.7002 44.1001 35.7002C41.6148 35.7002 39.6001 33.6855 39.6001 31.2002Z" fill="white"/>
</g>
</g>
<defs>
<filter id="filter0_d" x="31.1924" y="21.5002" width="25.9151" height="23.2" filterUnits="userSpaceOnUse" color-interpolation-filters="sRGB">
<feFlood flood-opacity="0" result="BackgroundImageFix"/>
<feColorMatrix in="SourceAlpha" type="matrix" values="0 0 0 0 0 0 0 0 0 0 0 0 0 0 0 0 0 0 127 0"/>
<feOffset dy="3"/>
<feGaussianBlur stdDeviation="1.5"/>
<feColorMatrix type="matrix" values="0 0 0 0 0.636094 0 0 0 0 0.666281 0 0 0 0 0.8625 0 0 0 0.2 0"/>
<feBlend mode="normal" in2="BackgroundImageFix" result="effect1_dropShadow"/>
<feBlend mode="normal" in="SourceGraphic" in2="effect1_dropShadow" result="shape"/>
</filter>
<linearGradient id="paint0_linear" x1="44.15" y1="21.5002" x2="44.15" y2="38.7002" gradientUnits="userSpaceOnUse">
<stop stop-color="#FBED7E"/>
<stop offset="1" stop-color="#FCEA7E"/>
</linearGradient>
</defs>
</svg>
