<svg width="80" height="80" viewBox="0 0 80 80" fill="none" xmlns="http://www.w3.org/2000/svg">
<path fill-rule="evenodd" clip-rule="evenodd" d="M40 80C17.944 80 0 62.056 0 40C0 17.944 17.944 0 40 0C62.056 0 80 17.944 80 40C80 62.056 62.056 80 40 80Z" fill="url(#paint0_linear)"/>
<path d="M45.954 25.8794L48.0435 31.1032H53.6156C55.0087 31.2774 56.0535 32.4963 55.8793 33.8893V50.7798C55.8793 52.347 55.0087 53.5659 53.7898 53.5659H25.5809C24.5361 53.5659 23.4913 52.1728 23.4913 50.7798V33.8893C23.4913 32.3221 24.362 31.1032 25.5809 31.1032H31.3271L33.5908 25.8794H45.954ZM48.5659 22.2227H31.3271L30.4565 24.4863L29.0635 27.4465H25.755C22.4466 27.6207 19.8346 30.5808 20.0088 33.8893C20.0088 33.8893 20.0088 33.8893 20.0088 34.0634V50.9539C19.8346 54.2624 22.2724 57.2226 25.755 57.5708C25.755 57.5708 25.755 57.5708 25.9292 57.5708H54.138C57.4465 57.3967 60.0584 54.4365 59.8843 51.1281C59.8843 51.1281 59.8843 51.1281 59.8843 50.9539V34.0634C60.0584 30.5808 57.4465 27.7948 54.138 27.4465H53.9639H50.8296L49.7848 24.6605L48.5659 22.2227Z" fill="white"/>
<path fill-rule="evenodd" clip-rule="evenodd" d="M39.6848 36.3265C36.7035 36.3265 34.2868 38.7432 34.2868 41.7245C34.2868 44.7057 36.7035 47.1225 39.6848 47.1225C42.666 47.1225 45.0828 44.7057 45.0828 41.7245C45.0828 38.7432 42.666 36.3265 39.6848 36.3265ZM31.849 41.7245C31.849 37.3969 35.3572 33.8887 39.6848 33.8887C44.0124 33.8887 47.5206 37.3969 47.5206 41.7245C47.5206 46.0521 44.0124 49.5603 39.6848 49.5603C35.3572 49.5603 31.849 46.0521 31.849 41.7245Z" fill="white" stroke="white" stroke-width="1.4" stroke-linecap="round" stroke-linejoin="round"/>
<defs>
<linearGradient id="paint0_linear" x1="40" y1="0" x2="40" y2="80" gradientUnits="userSpaceOnUse">
<stop stop-color="#FBE100"/>
<stop offset="1" stop-color="#FFD600"/>
</linearGradient>
</defs>
</svg>
