<svg width="81" height="80" viewBox="0 0 81 80" fill="none" xmlns="http://www.w3.org/2000/svg">
<path d="M38.9 11.1001H50C50.7956 11.1001 51.5587 11.4162 52.1213 11.9788C52.6839 12.5414 53 13.3044 53 14.1001V57.5001C53 58.2957 52.6839 59.0588 52.1213 59.6214C51.5587 60.184 50.7956 60.5001 50 60.5001H13.5C12.7044 60.5001 11.9413 60.184 11.3787 59.6214C10.8161 59.0588 10.5 58.2957 10.5 57.5001V14.1001C10.5 13.3044 10.8161 12.5414 11.3787 11.9788C11.9413 11.4162 12.7044 11.1001 13.5 11.1001H24.6" stroke="#1F1A54" stroke-width="2" stroke-linecap="round" stroke-linejoin="round"/>
<path d="M36.9001 16.5H26.6001C26.0697 16.5 25.561 16.2893 25.1859 15.9142C24.8108 15.5391 24.6001 15.0304 24.6001 14.5V11C24.6001 10.4696 24.8108 9.96086 25.1859 9.58579C25.561 9.21071 26.0697 9 26.6001 9H36.9001C37.4305 9 37.9392 9.21071 38.3143 9.58579C38.6894 9.96086 38.9001 10.4696 38.9001 11V14.5C38.9001 15.0304 38.6894 15.5391 38.3143 15.9142C37.9392 16.2893 37.4305 16.5 36.9001 16.5Z" stroke="#1F1A54" stroke-width="2" stroke-linecap="round" stroke-linejoin="round"/>
<path d="M22.7002 22.7998H45.9002" stroke="#1F1A54" stroke-width="2" stroke-linecap="round" stroke-linejoin="round"/>
<path d="M17.1 22.7998H17" stroke="#1F1A54" stroke-width="2" stroke-linecap="round" stroke-linejoin="round"/>
<path d="M22.7002 31.7002H46.0002" stroke="#1F1A54" stroke-width="2" stroke-linecap="round" stroke-linejoin="round"/>
<path d="M17.1 31.7002H17" stroke="#1F1A54" stroke-width="2" stroke-linecap="round" stroke-linejoin="round"/>
<path d="M22.7998 40.5H45.9998" stroke="#1F1A54" stroke-width="2" stroke-linecap="round" stroke-linejoin="round"/>
<path d="M22.7002 49.1001H46.0002" stroke="#1F1A54" stroke-width="2" stroke-linecap="round" stroke-linejoin="round"/>
<path d="M17.1 49.1001H17" stroke="#1F1A54" stroke-width="2" stroke-linecap="round" stroke-linejoin="round"/>
<path d="M17.1 40.5H17" stroke="#1F1A54" stroke-width="2" stroke-linecap="round" stroke-linejoin="round"/>
<g filter="url(#filter0_d)">
<path d="M51.7 70.4C55.1018 70.4 58.4273 69.3912 61.2558 67.5013C64.0843 65.6113 66.2889 62.9251 67.5907 59.7822C68.8926 56.6393 69.2332 53.1809 68.5695 49.8445C67.9058 46.508 66.2677 43.4432 63.8622 41.0378C61.4568 38.6323 58.392 36.9942 55.0556 36.3305C51.7191 35.6668 48.2607 36.0075 45.1178 37.3093C41.975 38.6111 39.2887 40.8157 37.3987 43.6442C35.5088 46.4727 34.5 49.7982 34.5 53.2C34.5 57.7617 36.3121 62.1366 39.5378 65.3622C42.7634 68.5879 47.1383 70.4 51.7 70.4Z" fill="url(#paint0_linear)"/>
</g>
<path d="M51.5 61.3303V53.3203" stroke="white" stroke-width="3" stroke-linecap="round" stroke-linejoin="round"/>
<circle cx="51.5" cy="47" r="2" fill="white"/>
<path d="M51.8002 37.6001C54.8938 37.5849 57.9222 38.4899 60.5002 40.2001C63.0294 41.9678 65.0334 44.3865 66.3002 47.2001C67.4947 50.0774 67.808 53.2446 67.2002 56.3001C66.5665 59.325 65.0734 62.1027 62.9002 64.3001C60.71 66.5013 57.9139 68.0003 54.8683 68.6059C51.8227 69.2114 48.6658 68.8961 45.8002 67.7001C42.9328 66.5212 40.4915 64.4984 38.8002 61.9001C36.8056 58.8732 35.9154 55.2512 36.2797 51.6445C36.644 48.0378 38.2405 44.667 40.8002 42.1001C42.2449 40.6597 43.961 39.5202 45.8492 38.7478C47.7374 37.9753 49.7601 37.5852 51.8002 37.6001ZM51.8002 34.6001C48.1075 34.6113 44.4964 35.6876 41.4002 37.7001C38.3521 39.7654 35.9855 42.6888 34.6002 46.1001C33.2356 49.5276 32.8546 53.2679 33.5002 56.9001C34.2046 60.5371 35.9808 63.8803 38.6004 66.4999C41.22 69.1195 44.5632 70.8956 48.2002 71.6001C51.8283 72.3406 55.5959 71.9569 59.0002 70.5001C62.9732 68.8298 66.2464 65.837 68.265 62.0291C70.2836 58.2212 70.9233 53.8325 70.0758 49.6068C69.2283 45.3811 66.9457 41.5785 63.6149 38.8434C60.2841 36.1084 56.11 34.6092 51.8002 34.6001Z" fill="white"/>
<defs>
<filter id="filter0_d" x="31.5" y="36" width="40.4" height="40.4" filterUnits="userSpaceOnUse" color-interpolation-filters="sRGB">
<feFlood flood-opacity="0" result="BackgroundImageFix"/>
<feColorMatrix in="SourceAlpha" type="matrix" values="0 0 0 0 0 0 0 0 0 0 0 0 0 0 0 0 0 0 127 0"/>
<feOffset dy="3"/>
<feGaussianBlur stdDeviation="1.5"/>
<feColorMatrix type="matrix" values="0 0 0 0 0.636094 0 0 0 0 0.666281 0 0 0 0 0.8625 0 0 0 0.2 0"/>
<feBlend mode="normal" in2="BackgroundImageFix" result="effect1_dropShadow"/>
<feBlend mode="normal" in="SourceGraphic" in2="effect1_dropShadow" result="shape"/>
</filter>
<linearGradient id="paint0_linear" x1="51.7" y1="36" x2="51.7" y2="70.4" gradientUnits="userSpaceOnUse">
<stop stop-color="#FBE100"/>
<stop offset="1" stop-color="#FFD600"/>
</linearGradient>
</defs>
</svg>
