<svg width="140" height="140" viewBox="0 0 140 140" fill="none" xmlns="http://www.w3.org/2000/svg">
<path d="M139.84 69.7979C139.81 52.836 133.616 36.4631 122.41 23.7295C111.205 10.9958 95.7526 2.7696 78.9321 0.583377C62.1115 -1.60285 45.0698 2.39995 30.9815 11.8461C16.8932 21.2923 6.71909 35.5376 2.35444 51.9284C-2.01021 68.3193 -0.267745 85.7378 7.25723 100.939C14.7822 116.141 27.5766 128.088 43.2568 134.557C58.9371 141.025 76.4341 141.573 92.4882 136.098C108.542 130.623 122.059 119.499 130.52 104.798C136.647 94.1526 139.862 82.0808 139.84 69.7979Z" fill="#F3F4F5"/>
<path d="M68.4399 113.338C79.9799 113.338 89.3299 111.818 89.3299 109.938C89.3299 108.058 79.9799 106.538 68.4399 106.538C56.8999 106.538 47.5599 108.058 47.5599 109.938C47.5599 111.818 56.9099 113.338 68.4399 113.338Z" fill="#9DAFED"/>
<rect x="68.9999" y="72" width="5" height="38" fill="#1F1A54"/>
<rect x="64.3999" y="72.4" width="5.2" height="37.2" fill="white" stroke="#1F1A54" stroke-width="0.8"/>
<path d="M89.4299 33.8679H52.7599C48.9637 33.8653 45.3218 35.3701 42.6347 38.0515C39.9476 40.733 38.4352 44.3718 38.4299 48.1679V72.0379L103.76 70.3779V48.1679C103.752 44.3726 102.239 40.7354 99.5521 38.0545C96.8656 35.3736 93.2252 33.8679 89.4299 33.8679C85.6337 33.8653 81.9918 35.3701 79.3047 38.0515C76.6176 40.733 75.1052 44.3718 75.0999 48.1679V70.3779" fill="white"/>
<path d="M89.4299 33.8679H52.7599C48.9637 33.8653 45.3218 35.3701 42.6347 38.0515C39.9476 40.733 38.4352 44.3718 38.4299 48.1679V72.0379L103.76 70.3779V48.1679C103.752 44.3726 102.239 40.7354 99.5521 38.0545C96.8656 35.3736 93.2252 33.8679 89.4299 33.8679V33.8679ZM89.4299 33.8679C85.6337 33.8653 81.9918 35.3701 79.3047 38.0515C76.6176 40.733 75.1052 44.3718 75.0999 48.1679V70.3779" stroke="#221F51" stroke-width="0.8" stroke-linecap="round" stroke-linejoin="round"/>
<path d="M46.7499 52.1079H68.4399" stroke="#221F51" stroke-width="0.8" stroke-linecap="round" stroke-linejoin="round"/>
<path d="M54.9999 40H46.9999V52H54.9999V40Z" fill="#FED401" stroke="#221E54" stroke-width="0.8" stroke-linecap="round" stroke-linejoin="round"/>
<path d="M103.76 48.158V70.378H75.0999V48.158C75.0999 44.3575 76.6096 40.7126 79.297 38.0252C81.9844 35.3378 85.6293 33.828 89.4299 33.828C93.2304 33.828 96.8753 35.3378 99.5627 38.0252C102.25 40.7126 103.76 44.3575 103.76 48.158Z" fill="#221F50" stroke="#221F51" stroke-width="0.8" stroke-linecap="round" stroke-linejoin="round"/>
<path d="M106.692 70H38.3074C37.5853 70 36.9999 70.7521 36.9999 71.6798V72.3202C36.9999 73.2479 37.5853 74 38.3074 74H106.692C107.415 74 108 73.2479 108 72.3202V71.6798C108 70.7521 107.415 70 106.692 70Z" fill="white" stroke="#221F51" stroke-width="0.8" stroke-linecap="round" stroke-linejoin="round"/>
<path d="M66.8899 54.278C68.0883 54.278 69.0599 53.3064 69.0599 52.108C69.0599 50.9095 68.0883 49.938 66.8899 49.938C65.6914 49.938 64.7199 50.9095 64.7199 52.108C64.7199 53.3064 65.6914 54.278 66.8899 54.278Z" fill="white" stroke="#221F51" stroke-width="0.8" stroke-linecap="round" stroke-linejoin="round"/>
</svg>
