<svg width="221" height="189" viewBox="0 0 221 189" fill="none" xmlns="http://www.w3.org/2000/svg">
<path d="M1 82.0552C6.83544 81.6795 12.6174 81.6258 18.4527 82.0015C64.9222 84.9536 138.695 126.336 150.687 115.387C151.972 114.206 153.311 112.381 152.293 109.912C151.651 108.301 148.492 106.477 145.655 107.979C142.818 109.482 140.729 112.971 143.245 118.124C145.762 123.33 152.026 125.37 157.754 126.175C166.962 127.463 176.331 122.096 185.646 114.904C193.462 108.892 207.596 97.6208 220.124 89.6766" stroke="#FFD400" stroke-width="0.8" stroke-miterlimit="10" stroke-linecap="round" stroke-dasharray="4 4"/>
<path d="M89.675 49.1433C90.3586 44.7909 87.71 19.7753 92.4104 14.8787C98.2216 8.89411 109.075 6.26449 112.75 12.8838C112.75 12.8838 115.655 13.6999 116.595 16.8736C118.476 23.4023 117.963 38.3029 120.612 49.6375L89.675 49.1433Z" fill="#1F1A54" stroke="#1F1A54" stroke-width="0.8" stroke-miterlimit="10" stroke-linecap="round" stroke-linejoin="round"/>
<path d="M90.3311 22.5324C90.7375 18.8585 91.2873 15.6798 92.8012 14.1659C98.2196 8.90694 108.419 6.59619 111.765 12.4129C111.765 12.4129 114.475 13.13 115.351 15.9189C115.909 17.5922 116.228 19.8233 116.467 22.2137C117.377 31.3108 117.824 36.8885 109.059 37.2869C109.059 37.2869 94.716 38.4821 92.8012 36.49C90.3136 34.2555 89.5367 29.7171 90.3311 22.5324Z" fill="#1F1A54" stroke="#1F1A54" stroke-width="0.8" stroke-miterlimit="10" stroke-linecap="round" stroke-linejoin="round"/>
<path d="M108.738 23.7284C109.057 23.091 109.774 21.8957 111.208 21.2583C113.2 20.3818 115.511 22.6926 114.873 25.8798C114.395 28.5093 112.244 29.9435 109.455 30.342V38.5491L111.208 39.2663C111.208 39.2663 110.889 41.338 110.411 42.2941C108.021 47.5531 102.682 48.4296 100.77 47.8718C97.1841 46.9953 95.9889 43.6487 96.6264 41.0989C96.7061 40.8599 96.7857 40.4615 96.8654 40.1427C96.9451 39.824 97.0248 39.5053 97.0248 39.5053L98.8575 38.9475V35.6009C98.2997 35.3619 97.7419 35.0431 97.1841 34.6447C95.5108 33.3698 94.3156 31.0591 93.9969 27.7125C93.7579 24.9236 93.9172 21.4177 94.0766 18.7882C95.9093 18.2304 98.6981 14.8838 98.6981 14.8838C98.6981 14.8838 100.292 17.9914 103.32 19.7443C106.905 21.6567 108.738 23.7284 108.738 23.7284Z" fill="white"/>
<path d="M112.244 23.9668C112.244 23.9668 110.57 24.2058 110.331 26.8353" stroke="#1F1A54" stroke-width="0.8" stroke-miterlimit="10" stroke-linecap="round"/>
<path d="M98.8577 35.6008V38.9474L97.025 39.5051C97.025 39.5051 96.9453 39.7442 96.8656 40.1426C96.786 40.4613 96.7063 40.8597 96.6266 41.0988C95.9892 43.6486 97.1844 46.9155 100.77 47.8717C102.682 48.3498 108.021 47.4733 110.411 42.294C110.81 41.3378 111.208 39.2661 111.208 39.2661L109.455 38.549V30.3418" stroke="#1F1A54" stroke-width="0.8" stroke-miterlimit="10" stroke-linecap="round" stroke-linejoin="round"/>
<path d="M108.579 24.2058C108.579 24.2058 108.658 24.0464 108.818 23.7277C109.136 23.0903 109.854 21.895 111.288 21.2576C113.28 20.3811 115.591 22.6919 114.953 25.8791C114.475 28.5086 112.324 29.9429 109.535 30.3413" stroke="#1F1A54" stroke-width="0.8" stroke-miterlimit="10" stroke-linecap="round" stroke-linejoin="round"/>
<path d="M108.738 23.728C108.738 23.728 106.905 21.6563 103.24 19.6643C100.212 17.9113 98.6182 14.8037 98.6182 14.8037C98.6182 14.8037 95.8294 18.1503 93.9967 18.7081" stroke="#1F1A54" stroke-width="0.8" stroke-miterlimit="10" stroke-linecap="round" stroke-linejoin="round"/>
<path d="M94.0766 18.708C93.9172 21.4172 93.7579 24.9231 93.9969 27.712C94.3156 31.0586 95.5108 33.3694 97.1841 34.6443C97.8216 35.1224 98.3794 35.4411 98.8575 35.6004C100.212 36.1582 101.248 35.9988 101.885 35.8395C101.959 35.8212 101.9 35.8395 102.124 35.7598C103.273 35.3519 104.515 34.8833 105.391 34.0865" stroke="#1F1A54" stroke-width="0.8" stroke-miterlimit="10" stroke-linecap="round" stroke-linejoin="round"/>
<path d="M102.23 22.8516C102.038 22.8736 101.863 22.9689 101.739 23.1173C101.617 23.2657 101.555 23.4559 101.569 23.6484C101.556 23.8449 101.617 24.0391 101.739 24.1936C101.861 24.3481 102.036 24.452 102.23 24.485C102.421 24.4485 102.593 24.3432 102.712 24.1891C102.83 24.0349 102.888 23.8426 102.876 23.6484C102.889 23.4584 102.83 23.2702 102.711 23.1222C102.59 22.9742 102.419 22.8774 102.23 22.8516Z" fill="#1F1A54"/>
<path d="M96.6186 22.8516C96.4274 22.8736 96.2513 22.9689 96.1286 23.1173C96.0051 23.2657 95.9437 23.4559 95.9573 23.6484C95.9445 23.8449 96.0059 24.0391 96.1278 24.1936C96.2497 24.3481 96.425 24.452 96.6186 24.485C96.8099 24.4485 96.9812 24.3432 97.0999 24.1891C97.2194 24.0349 97.2776 23.8426 97.2641 23.6484C97.2784 23.4584 97.2194 23.2702 97.0991 23.1222C96.9796 22.9742 96.8075 22.8774 96.6186 22.8516Z" fill="#1F1A54"/>
<path d="M104.438 28.5889C104.251 29.2738 103.877 29.8937 103.36 30.3802C102.843 30.8667 102.2 31.2008 101.505 31.3458" stroke="#1F1A54" stroke-width="0.8" stroke-linecap="round" stroke-linejoin="round"/>
<path d="M100.159 27.4648C99.89 27.6045 99.592 27.6774 99.29 27.6774C98.9872 27.6774 98.6892 27.6045 98.4215 27.4648" stroke="#1F1A54" stroke-width="0.8" stroke-linecap="round" stroke-linejoin="round"/>
<path d="M103.657 21.3773C103.269 21.1372 102.822 21.0128 102.366 21.0188C101.877 21.0136 101.399 21.1582 100.995 21.4331" stroke="#1F1A54" stroke-width="0.8" stroke-linecap="round" stroke-linejoin="round"/>
<path d="M97.975 21.3773C97.5877 21.1372 97.1399 21.0128 96.6841 21.0188C96.1957 21.0136 95.7176 21.1582 95.3136 21.4331" stroke="#1F1A54" stroke-width="0.8" stroke-linecap="round" stroke-linejoin="round"/>
<path d="M99.5824 188.952C86.1163 188.952 75.2 187.989 75.2 186.801C75.2 185.613 86.1163 184.649 99.5824 184.649C113.049 184.649 123.965 185.613 123.965 186.801C123.965 187.989 113.049 188.952 99.5824 188.952Z" fill="#FFEB86"/>
<path d="M79.0245 182.419C79.0245 182.419 78.7854 182.737 79.0245 183.773C79.3432 185.287 80.6978 186.403 85.0802 186.403C87.9488 186.403 101.734 185.845 103.088 185.686C104.443 185.526 103.327 183.455 102.769 181.781C102.769 181.781 84.6818 184.809 81.3352 184.092C79.8213 183.773 78.9448 183.136 79.0245 182.419Z" fill="white"/>
<path d="M89.5429 178.115C88.9852 178.434 88.3477 178.673 87.79 178.912C87.3916 179.072 86.9931 179.231 86.6744 179.311C86.4354 179.39 86.1963 179.47 85.8776 179.55C84.6824 179.948 83.4075 180.267 82.531 180.506C81.3358 180.825 80.0609 181.064 79.5031 181.621C79.1844 181.94 79.025 182.179 79.025 182.418C78.9453 183.135 79.8218 183.693 81.3358 184.092C84.7621 184.888 102.77 181.781 102.77 181.781C102.77 181.781 102.451 180.506 102.053 178.195C102.053 178.195 101.814 178.275 101.415 178.354C100.698 178.514 99.3437 178.673 97.8298 178.115C96.5549 177.717 95.2003 177 94.2441 176.362C93.527 175.884 93.0489 175.486 93.1286 175.406C92.8099 175.805 92.2521 176.283 91.6147 176.761C90.9772 177.319 90.3398 177.717 89.5429 178.115Z" fill="white"/>
<path d="M94.1641 171.821L94.2437 176.283L94.1641 176.443C95.1202 177.08 96.5545 177.797 97.7497 178.196C99.3433 178.674 100.618 178.594 101.335 178.435L101.256 178.196V171.821H94.1641Z" fill="#FFD400"/>
<path d="M79.025 182.418C78.9453 183.136 79.8218 183.693 81.3358 184.092C84.7621 184.889 102.77 181.781 102.77 181.781C102.77 181.781 102.451 180.506 102.053 178.195" stroke="#1F1A54" stroke-width="0.8" stroke-miterlimit="10" stroke-linecap="round" stroke-linejoin="round"/>
<path d="M102.053 178.195C102.053 178.195 101.814 178.275 101.415 178.354C100.698 178.514 99.3436 178.673 97.8296 178.115C96.5547 177.717 95.2001 177 94.244 176.362C93.5268 175.884 93.0487 175.486 93.1284 175.406C92.8097 175.805 92.2519 176.283 91.6145 176.761C91.0567 177.159 90.4193 177.558 89.7021 177.956C89.1444 178.275 88.5069 178.514 87.9491 178.753C87.5507 178.912 87.1523 179.072 86.8336 179.151C86.5946 179.231 86.3555 179.311 86.0368 179.39C84.8416 179.789 83.5667 180.107 82.6902 180.346C81.495 180.665 80.2201 180.904 79.6623 181.462C79.3436 181.781 79.1842 182.02 79.1842 182.259" stroke="#1F1A54" stroke-width="0.8" stroke-miterlimit="10" stroke-linecap="round" stroke-linejoin="round"/>
<path d="M79.0245 182.418C79.0245 182.418 78.7854 182.737 79.0245 183.852C79.3432 185.366 80.6978 186.482 85.0802 186.482C87.9488 186.482 101.734 185.924 103.088 185.765C104.443 185.605 103.327 183.534 102.769 181.86" stroke="#1F1A54" stroke-width="0.8" stroke-miterlimit="10" stroke-linecap="round" stroke-linejoin="round"/>
<path d="M92.3313 177.797L91.5345 176.92L90.7377 176.044" stroke="#1F1A54" stroke-width="0.8" stroke-miterlimit="10" stroke-linecap="round" stroke-linejoin="round"/>
<path d="M90.3391 179.152L89.5423 178.116L88.9845 177.239" stroke="#1F1A54" stroke-width="0.8" stroke-miterlimit="10" stroke-linecap="round" stroke-linejoin="round"/>
<path d="M88.5066 180.028L87.7895 178.912L87.2317 177.956" stroke="#1F1A54" stroke-width="0.8" stroke-miterlimit="10" stroke-linecap="round" stroke-linejoin="round"/>
<path d="M86.5944 180.745L85.8772 179.549L85.3195 178.673" stroke="#1F1A54" stroke-width="0.8" stroke-miterlimit="10" stroke-linecap="round" stroke-linejoin="round"/>
<path d="M101.335 178.196V171.821H94.1641L94.2437 176.283" stroke="#1F1A54" stroke-width="0.8" stroke-miterlimit="10" stroke-linecap="round" stroke-linejoin="round"/>
<path d="M95.997 183.773C95.997 183.773 95.7579 184.092 95.997 185.128C96.3157 186.642 97.6703 187.757 102.053 187.757C104.921 187.757 118.706 187.199 120.061 187.04C121.415 186.881 120.3 184.809 119.742 183.136C119.742 183.136 101.654 186.164 98.3077 185.446C96.7141 185.128 95.9173 184.49 95.997 183.773Z" fill="white"/>
<path d="M106.515 179.47C105.957 179.789 105.32 180.028 104.762 180.267C104.364 180.426 103.965 180.585 103.646 180.665C103.407 180.745 103.168 180.824 102.85 180.904C101.654 181.303 100.38 181.621 99.503 181.86C98.3078 182.179 97.0329 182.418 96.4751 182.976C96.1564 183.295 95.9971 183.534 95.9971 183.773C95.9174 184.49 96.7939 185.048 98.3078 185.446C101.734 186.243 119.742 183.135 119.742 183.135C119.742 183.135 119.423 181.86 119.025 179.55C119.025 179.55 118.786 179.629 118.387 179.709C117.67 179.868 116.316 180.028 114.802 179.47C113.527 179.071 112.172 178.354 111.216 177.717C110.499 177.239 110.021 176.84 110.101 176.761C109.782 177.159 109.224 177.637 108.587 178.115C107.949 178.673 107.232 179.071 106.515 179.47Z" fill="white"/>
<path d="M111.137 173.255L111.216 177.717L111.137 177.876C112.093 178.514 113.527 179.231 114.722 179.629C116.316 180.107 117.591 180.028 118.308 179.868L118.228 179.629V173.255H111.137Z" fill="#FFD400"/>
<path d="M95.9971 183.773C95.9174 184.49 96.7939 185.048 98.3078 185.446C101.734 186.243 119.742 183.135 119.742 183.135C119.742 183.135 119.423 181.861 119.025 179.55" stroke="#1F1A54" stroke-width="0.8" stroke-miterlimit="10" stroke-linecap="round" stroke-linejoin="round"/>
<path d="M119.025 179.55C119.025 179.55 118.786 179.629 118.387 179.709C117.67 179.868 116.316 180.028 114.802 179.47C113.527 179.071 112.172 178.354 111.216 177.717C110.499 177.239 110.021 176.84 110.1 176.761C109.782 177.159 109.224 177.637 108.587 178.115C108.029 178.514 107.391 178.912 106.674 179.311C106.116 179.629 105.479 179.868 104.921 180.107C104.523 180.267 104.124 180.426 103.806 180.506C103.567 180.585 103.328 180.665 103.009 180.745C101.814 181.143 100.539 181.462 99.6622 181.701C98.467 182.02 97.1921 182.259 96.6343 182.817C96.3156 183.135 96.1562 183.374 96.1562 183.613" stroke="#1F1A54" stroke-width="0.8" stroke-miterlimit="10" stroke-linecap="round" stroke-linejoin="round"/>
<path d="M95.997 183.773C95.997 183.773 95.7579 184.091 95.997 185.207C96.3157 186.721 97.6703 187.836 102.053 187.836C104.921 187.836 118.706 187.279 120.061 187.119C121.415 186.96 120.3 184.888 119.742 183.215" stroke="#1F1A54" stroke-width="0.8" stroke-miterlimit="10" stroke-linecap="round" stroke-linejoin="round"/>
<path d="M109.224 179.151L108.507 178.275L107.71 177.398" stroke="#1F1A54" stroke-width="0.8" stroke-miterlimit="10" stroke-linecap="round" stroke-linejoin="round"/>
<path d="M107.312 180.506L106.515 179.47L105.877 178.594" stroke="#1F1A54" stroke-width="0.8" stroke-miterlimit="10" stroke-linecap="round" stroke-linejoin="round"/>
<path d="M105.479 181.382L104.762 180.267L104.125 179.311" stroke="#1F1A54" stroke-width="0.8" stroke-miterlimit="10" stroke-linecap="round" stroke-linejoin="round"/>
<path d="M103.567 182.099L102.849 180.984L102.212 180.027" stroke="#1F1A54" stroke-width="0.8" stroke-miterlimit="10" stroke-linecap="round" stroke-linejoin="round"/>
<path d="M118.308 179.55V173.255H111.137L111.216 177.717" stroke="#1F1A54" stroke-width="0.8" stroke-miterlimit="10" stroke-linecap="round" stroke-linejoin="round"/>
<path d="M104.044 123.295L102.77 137.638L104.124 171.9H92.8891C92.0126 156.681 91.2954 146.801 90.8174 138.753C89.7815 122.418 88.5066 116.761 87.8691 105.446C87.2317 94.769 91.6142 77.0797 91.6142 77.0797C91.6142 77.0797 94.3233 77.8765 100.06 78.1155C104.363 78.2749 108.586 78.1155 114.323 77C114.323 77 119.742 91.024 120.22 95.8845C121.415 106.881 117.829 138.116 117.829 138.116L119.742 173.255H109.303L105.558 137.717L104.044 123.295Z" fill="#1F1A54"/>
<path d="M104.045 123.215L102.849 111.422L101.256 106.801" stroke="#1F1A54" stroke-width="0.8" stroke-miterlimit="10" stroke-linecap="round" stroke-linejoin="round"/>
<path d="M104.044 123.295L102.77 137.638L104.124 171.9H92.8891C92.0126 156.681 91.2954 146.801 90.8174 138.753C89.7815 122.418 88.5066 116.761 87.8691 105.446C87.2317 94.769 91.6142 77.0797 91.6142 77.0797C91.6142 77.0797 94.3233 77.8765 100.06 78.1155C104.363 78.2749 108.586 78.1155 114.323 77C114.323 77 119.742 91.024 120.22 95.8845C121.415 106.881 117.829 138.116 117.829 138.116L119.742 173.255H109.303L105.558 137.717L104.044 123.295Z" stroke="#1F1A54" stroke-width="0.8" stroke-miterlimit="10" stroke-linecap="round" stroke-linejoin="round"/>
<path d="M104.045 123.295V123.215" stroke="#1F1A54" stroke-width="0.8" stroke-miterlimit="10" stroke-linecap="round" stroke-linejoin="round"/>
<path d="M104.204 129.43L102.451 111.662L100.778 107.04" stroke="#FFD400" stroke-width="0.5" stroke-linecap="round" stroke-linejoin="round"/>
<path d="M61.6476 58.0041C61.6476 58.0041 61.6476 58.0041 63.1615 59.1993C63.3209 59.3587 63.4803 59.4384 63.6396 59.5181C64.7552 60.2352 65.8707 60.5539 66.8269 60.9523C70.3328 62.3866 83.3208 62.9444 85.8706 64.1396C85.9503 64.538 86.03 56.0121 86.03 56.0121L95.273 55.6934" stroke="#1F1A54" stroke-width="0.703" stroke-miterlimit="10" stroke-linecap="round" stroke-linejoin="round"/>
<path d="M53.1216 65.1753C53.1216 65.1753 52.9622 65.255 53.1216 65.8127C53.52 68.2828 59.3367 67.0876 59.3367 67.0876C61.6475 66.7689 63.7192 66.7689 63.7192 66.7689C65.7112 66.9283 71.3685 67.9641 77.0259 70.2749C81.7271 72.1872 86.508 73.7809 89.1374 73.1434C93.998 72.0279 95.2729 55.7729 95.2729 55.7729L85.9502 56.0119C85.9502 56.0119 85.8705 64.6175 85.8705 64.1394C83.3207 62.9442 70.3327 62.3864 66.8268 60.9522C65.7909 60.5538 64.4363 60.1554 63.1614 59.1992C62.0459 58.3227 60.9304 57.6055 60.2929 56.49C59.6555 55.3745 59.5758 53.7012 59.2571 53.2231C59.018 52.9044 58.6196 53.0637 58.3806 53.2231C56.7869 54.498 59.018 59.1195 56.9463 58.8805C56.2292 58.8008 54.3965 58.8008 53.4403 59.0398C52.4045 59.3585 52.0061 59.996 52.0857 60.4741C52.1654 60.8725 52.4045 61.1115 52.7232 61.2709C52.7232 61.2709 52.0857 61.749 52.0857 62.3067C52.0857 62.7848 52.3248 63.0239 52.5638 63.1832C52.5638 63.1832 52.4045 63.5816 52.4841 64.1394C52.5638 64.6972 52.8029 65.0159 53.1216 65.1753Z" fill="white"/>
<path d="M54.3169 63.4219C54.3169 63.4219 52.9624 63.4219 52.4843 63.1829C52.2452 63.0235 52.0859 62.7845 52.0062 62.3064C51.9265 61.7486 52.6436 61.2705 52.6436 61.2705" stroke="#1F1A54" stroke-width="0.703" stroke-miterlimit="10" stroke-linecap="round" stroke-linejoin="round"/>
<path d="M53.1216 65.1753C53.1216 65.1753 52.9622 65.255 53.1216 65.8127C53.52 68.2828 59.3367 67.0876 59.3367 67.0876C61.6475 66.7689 63.7192 66.7689 63.7192 66.7689C65.7112 66.9283 86.508 73.7809 89.1374 73.1434C93.998 72.0279 95.2729 55.7729 95.2729 55.7729L85.9502 56.0119C85.9502 56.0119 85.8705 64.6175 85.8705 64.1394C83.3207 62.9442 70.3327 62.3864 66.8268 60.9522C65.7909 60.5538 64.4363 60.1554 63.1614 59.1992C62.0459 58.3227 60.9304 57.6055 60.2929 56.49C59.6555 55.3745 59.5758 53.7012 59.2571 53.2231C59.018 52.9044 58.6196 53.0637 58.3806 53.2231C56.7869 54.498 59.0977 58.7211 57.5041 58.8008C56.7869 58.8805 54.3965 58.8008 53.4403 59.1195C52.4045 59.4382 52.0061 60.0757 52.0857 60.5538C52.1654 60.9522 52.4045 61.1912 52.7232 61.3506C53.1216 61.5099 53.8387 61.5896 53.8387 61.5896" stroke="#1F1A54" stroke-width="0.703" stroke-miterlimit="10" stroke-linecap="round" stroke-linejoin="round"/>
<path d="M54.7156 65.335C54.7156 65.335 53.4407 65.335 53.2017 65.1756C52.883 65.0163 52.5642 64.6975 52.4049 64.1398C52.3252 63.582 52.4846 63.1836 52.4846 63.1836" stroke="#1F1A54" stroke-width="0.703" stroke-miterlimit="10" stroke-linecap="round" stroke-linejoin="round"/>
<path d="M59.0183 60.3145C59.0183 60.3145 59.1777 62.3862 62.5243 62.8643" stroke="#1F1A54" stroke-width="0.703" stroke-miterlimit="10" stroke-linecap="round" stroke-linejoin="round"/>
<path d="M53.6796 61.5901H56.7871C57.4246 61.5901 57.9027 61.1917 57.9027 60.6339C57.9027 60.0761 57.4246 59.6777 56.7075 59.6777H54.317" stroke="#1F1A54" stroke-width="0.703" stroke-miterlimit="10" stroke-linecap="round" stroke-linejoin="round"/>
<path d="M54.0779 63.5026H57.1855C57.8229 63.5026 58.301 63.1042 58.301 62.5464C58.301 61.9887 57.7432 61.6699 57.1058 61.6699H54.7153" stroke="#1F1A54" stroke-width="0.7098" stroke-miterlimit="10" stroke-linecap="round" stroke-linejoin="round"/>
<path d="M53.3605 65.3346H56.7868C57.5039 65.3346 57.982 64.9362 57.982 64.3784C57.982 63.8207 57.4242 63.502 56.7071 63.502H54.0776" stroke="#1F1A54" stroke-width="0.7398" stroke-miterlimit="10" stroke-linecap="round" stroke-linejoin="round"/>
<path d="M54.7951 67.1676H56.4684C57.1059 67.1676 57.5839 66.7692 57.5839 66.2115C57.5839 65.6537 57.1059 65.335 56.3887 65.335H53.9983" stroke="#1F1A54" stroke-width="0.6871" stroke-miterlimit="10" stroke-linecap="round" stroke-linejoin="round"/>
<path d="M113.6 55.4542L115.911 63.1036L126.19 60.3944C126.19 60.3944 123.879 47.486 122.126 44.6175C120.214 41.4303 111.369 38.8008 111.369 38.8008C111.369 38.8008 111.05 40.8725 110.572 41.8287C108.182 47.0876 102.843 47.9641 100.851 47.4064C97.2655 46.5299 96.0703 43.1833 96.7077 40.6335C96.8671 40.1554 97.1061 39.0398 97.1061 39.0398C97.1061 39.0398 94.2376 39.5179 92.4846 39.8366C84.5962 41.3506 82.0464 55.1354 82.0464 55.1354L81.7277 57.0478C81.7277 57.0478 84.6759 54.737 86.0305 56.0916C87.3054 57.4462 90.1739 67.008 90.8113 70.3546C91.6878 74.6574 91.6878 76.9681 91.6878 76.9681C91.6878 76.9681 93.8392 77.7649 99.2575 78.004C103.321 78.3227 109.138 78.1633 114.477 77.1275L117.425 63.502" fill="#FFD400"/>
<path d="M113.6 55.4542L115.911 63.1036L126.19 60.3944C126.19 60.3944 123.879 47.486 122.126 44.6175C120.214 41.4303 111.369 38.8008 111.369 38.8008C111.369 38.8008 111.05 40.8725 110.572 41.8287C108.182 47.0876 102.843 47.9641 100.851 47.4064C97.2655 46.5299 96.0703 43.1833 96.7077 40.6335C96.8671 40.1554 97.1061 39.0398 97.1061 39.0398C97.1061 39.0398 94.2376 39.5179 92.4846 39.8366C84.5962 41.3506 82.0464 55.1354 82.0464 55.1354L81.7277 57.0478C81.7277 57.0478 84.6759 54.737 86.0305 56.0916C87.3054 57.4462 90.1739 67.008 90.8113 70.3546C91.6878 74.6574 91.6878 76.9681 91.6878 76.9681C91.6878 76.9681 93.8392 77.7649 99.2575 78.004C103.321 78.3227 109.138 78.1633 114.477 77.1275L117.425 63.502" stroke="#1F1A54" stroke-width="0.8" stroke-miterlimit="10" stroke-linecap="round" stroke-linejoin="round"/>
<mask id="mask0" mask-type="alpha" maskUnits="userSpaceOnUse" x="81" y="38" width="46" height="41">
<path d="M113.6 55.4542L115.911 63.1036L126.19 60.3944C126.19 60.3944 123.879 47.486 122.126 44.6175C120.214 41.4303 111.369 38.8008 111.369 38.8008C111.369 38.8008 111.05 40.8725 110.572 41.8287C108.182 47.0876 102.843 47.9641 100.851 47.4064C97.2655 46.5299 96.0703 43.1833 96.7077 40.6335C96.8671 40.1554 97.1061 39.0398 97.1061 39.0398C97.1061 39.0398 94.2376 39.5179 92.4846 39.8366C84.5962 41.3506 82.0464 55.1354 82.0464 55.1354L81.7277 57.0478C81.7277 57.0478 84.6759 54.737 86.0305 56.0916C87.3054 57.4462 90.1739 67.008 90.8113 70.3546C91.6878 74.6574 91.6878 76.9681 91.6878 76.9681C91.6878 76.9681 93.8392 77.7649 99.2575 78.004C103.321 78.3227 109.138 78.1633 114.477 77.1275L117.425 63.502" fill="#FFD400"/>
<path d="M113.6 55.4542L115.911 63.1036L126.19 60.3944C126.19 60.3944 123.879 47.486 122.126 44.6175C120.214 41.4303 111.369 38.8008 111.369 38.8008C111.369 38.8008 111.05 40.8725 110.572 41.8287C108.182 47.0876 102.843 47.9641 100.851 47.4064C97.2655 46.5299 96.0703 43.1833 96.7077 40.6335C96.8671 40.1554 97.1061 39.0398 97.1061 39.0398C97.1061 39.0398 94.2376 39.5179 92.4846 39.8366C84.5962 41.3506 82.0464 55.1354 82.0464 55.1354L81.7277 57.0478C81.7277 57.0478 84.6759 54.737 86.0305 56.0916C87.3054 57.4462 90.1739 67.008 90.8113 70.3546C91.6878 74.6574 91.6878 76.9681 91.6878 76.9681C91.6878 76.9681 93.8392 77.7649 99.2575 78.004C103.321 78.3227 109.138 78.1633 114.477 77.1275L117.425 63.502" stroke="#1F1A54" stroke-width="0.8" stroke-miterlimit="10" stroke-linecap="round" stroke-linejoin="round"/>
</mask>
<g mask="url(#mask0)">
<path d="M65.3931 22.1472H142.764V18.96H65.3931V22.1472ZM65.3931 26.0516H142.764V29.2388H65.3931V26.0516ZM65.3931 33.0635H142.764V36.2508H65.3931V33.0635ZM65.3931 40.1552H142.764V43.3424H65.3931V40.1552ZM65.3931 47.1671H142.764V50.3544H65.3931V47.1671ZM65.3931 54.2588H142.764V57.446H65.3931V54.2588ZM65.3931 61.2707H142.764V64.458H65.3931V61.2707ZM65.3931 68.3623H142.764V71.5496H65.3931V68.3623ZM65.3931 75.3743H142.764V78.5616H65.3931V75.3743ZM65.3931 82.4659H142.764V85.6532H65.3931V82.4659ZM65.3931 89.4779H142.764V92.6651H65.3931V89.4779Z" fill="#1F1A54"/>
</g>
<path d="M96.8672 78.0029C97.5843 78.0826 98.3015 78.0826 99.178 78.1623C101.489 78.242 104.437 78.242 107.624 78.0029H96.8672Z" fill="#1F1A54"/>
<path d="M84.2776 56.8086L84.7557 57.1273C84.7557 57.1273 84.7557 56.968 84.7557 56.8086H84.2776Z" fill="#1F1A54"/>
<path d="M111.21 38.8801H111.369C111.289 38.8004 111.289 38.8004 111.21 38.8801C111.289 38.8004 111.289 38.8004 111.21 38.8801Z" fill="#1F1A54"/>
<path d="M95.9903 71.3907L96.8668 75.3748L82.2055 74.2592L77.1855 54.7373H92.1656L95.1138 66.2114" fill="white"/>
<path d="M95.9903 71.3907L96.8668 75.3748L82.2055 74.2592L77.1855 54.7373H92.1656L95.1138 66.2114" stroke="#1F1A54" stroke-width="0.8" stroke-miterlimit="10" stroke-linecap="round" stroke-linejoin="round"/>
<path d="M96.0702 63.1035C97.6639 63.1832 99.1778 63.5816 100.612 64.2987C102.206 65.0955 105.791 66.4501 107.783 66.7689C112.883 67.5657 115.512 67.6453 118.779 68.2031L117.345 62.7848L125.712 60.5537C125.712 60.5537 130.333 77.1274 121.728 76.1712C115.512 75.5338 107.305 72.5059 103.162 71.6294C102.923 71.5497 102.763 71.5497 102.524 71.5497C100.612 71.3904 99.0981 71.231 97.9029 71.3904C97.2655 71.47 96.628 71.47 96.0702 71.3904C94.3969 71.0716 91.0503 70.5139 90.2535 69.9561C89.0583 69.239 86.7475 65.8924 86.7475 65.8924C86.7475 65.8924 86.6678 63.9003 88.9786 65.1752C91.2894 66.4501 94.3172 66.6892 95.2734 66.1314C95.8312 65.8127 96.1499 65.494 95.1141 65.1752L94.4766 63.0238C94.3172 63.1035 95.5921 63.1035 96.0702 63.1035Z" fill="white" stroke="#1F1A54" stroke-width="0.8" stroke-miterlimit="10" stroke-linecap="round" stroke-linejoin="round"/>
<path d="M92.7234 68.5221C91.8469 68.2033 89.2174 67.5659 88.4206 67.0081L86.6676 65.8926" fill="white"/>
<path d="M92.7234 68.5221C91.8469 68.2033 89.2174 67.5659 88.4206 67.0081L86.6676 65.8926" stroke="#1F1A54" stroke-width="0.8" stroke-miterlimit="10" stroke-linecap="round" stroke-linejoin="round"/>
<path d="M93.122 69.7171C93.122 69.7171 90.3331 69.239 88.4208 68.2031L93.122 69.7171Z" fill="white"/>
<path d="M93.122 69.7171C93.122 69.7171 90.3331 69.239 88.4208 68.2031" stroke="#1F1A54" stroke-width="0.8" stroke-miterlimit="10" stroke-linecap="round" stroke-linejoin="round"/>
<rect x="44.51" y="13.751" width="17.6322" height="8.81609" fill="white"/>
<path d="M42.7799 23.7356V13.7055H49.4476" fill="white"/>
<path d="M49.4476 13.7055H68.3081V23.7274" fill="white"/>
<path d="M72.0169 20.006V36.1488C72.0179 36.4196 71.9656 36.6879 71.863 36.9383C71.7603 37.1888 71.6092 37.4165 71.4185 37.6083C71.2278 37.8002 71.0011 37.9524 70.7515 38.0563C70.502 38.1601 70.2344 38.2136 69.9641 38.2136H41.0704C40.5238 38.2136 39.9996 37.996 39.6131 37.6088C39.2266 37.2216 39.0095 36.6964 39.0095 36.1488V20.006" fill="white"/>
<path d="M68.3081 17.1573L70.7565 18.3978C71.1509 18.5682 71.484 18.8548 71.7115 19.2193C71.9389 19.5838 72.0499 20.009 72.0296 20.4381C72.045 20.8559 71.9361 21.2689 71.7167 21.6248C71.4974 21.9807 71.1774 22.2636 70.7973 22.4376L59.3472 28.2973" fill="white"/>
<path d="M49.4476 13.7055L54.2546 11.257C54.5963 11.0848 54.9737 10.9951 55.3563 10.9951C55.739 10.9951 56.1164 11.0848 56.4581 11.257L61.3548 13.7054" fill="white"/>
<path d="M51.7409 28.1507L40.2745 22.5032C39.8637 22.3206 39.5206 22.0136 39.2937 21.6256C39.0667 21.2375 38.9673 20.788 39.0095 20.3405C39.0128 19.936 39.1312 19.5408 39.3509 19.2012C39.5706 18.8616 39.8824 18.5915 40.25 18.4226L42.7799 17.1331" fill="white"/>
<path d="M40.2663 34.0023L54.2709 26.8612C54.6116 26.6904 54.9874 26.6014 55.3686 26.6014C55.7497 26.6014 56.1256 26.6904 56.4662 26.8612L70.8054 34.0023C71.2588 34.2294 71.6207 34.6048 71.831 35.0662C72.0413 35.5275 72.0874 36.047 71.9615 36.5381C71.8356 37.0293 71.5454 37.4626 71.139 37.7659C70.7327 38.0692 70.2348 38.2242 69.7282 38.2053H41.3762C40.8665 38.2326 40.363 38.0835 39.9504 37.7829C39.5378 37.4824 39.2414 37.0489 39.111 36.5554C38.9807 36.0619 39.0244 35.5385 39.2349 35.0735C39.4453 34.6085 39.8096 34.2301 40.2663 34.0023Z" fill="white"/>
<path d="M42.7799 23.7356V13.7055H49.4476M49.4476 13.7055H68.3081V23.7274M49.4476 13.7055L54.2546 11.257C54.5963 11.0848 54.9737 10.9951 55.3563 10.9951C55.739 10.9951 56.1164 11.0848 56.4581 11.257L61.3548 13.7054M72.0169 20.006V36.1488C72.0179 36.4196 71.9656 36.6879 71.863 36.9383C71.7603 37.1888 71.6092 37.4165 71.4185 37.6083C71.2278 37.8002 71.0011 37.9524 70.7515 38.0563C70.502 38.1601 70.2344 38.2136 69.9641 38.2136H41.0704C40.5238 38.2136 39.9996 37.996 39.6131 37.6088C39.2266 37.2216 39.0095 36.6964 39.0095 36.1488V20.006M68.3081 17.1573L70.7565 18.3978C71.1509 18.5682 71.484 18.8548 71.7115 19.2193C71.939 19.5838 72.0499 20.009 72.0296 20.4381C72.045 20.8559 71.9361 21.2689 71.7167 21.6248C71.4974 21.9807 71.1774 22.2636 70.7973 22.4376L59.3472 28.2973M51.7409 28.1507L40.2745 22.5032C39.8637 22.3206 39.5206 22.0136 39.2937 21.6256C39.0667 21.2375 38.9673 20.788 39.0095 20.3405C39.0128 19.936 39.1312 19.5408 39.3509 19.2012C39.5706 18.8616 39.8824 18.5915 40.25 18.4226L42.7799 17.1331M40.2663 34.0023L54.2709 26.8612C54.6116 26.6904 54.9874 26.6014 55.3686 26.6014C55.7497 26.6014 56.1256 26.6904 56.4662 26.8612L70.8054 34.0023C71.2588 34.2294 71.6207 34.6048 71.831 35.0662C72.0413 35.5275 72.0874 36.047 71.9615 36.5381C71.8356 37.0293 71.5454 37.4626 71.139 37.7659C70.7327 38.0692 70.2348 38.2242 69.7282 38.2053H41.3762C40.8665 38.2326 40.363 38.0835 39.9504 37.7829C39.5378 37.4824 39.2414 37.0489 39.111 36.5554C38.9807 36.0619 39.0244 35.5385 39.2349 35.0735C39.4453 34.6085 39.8096 34.2301 40.2663 34.0023Z" stroke="#1F1A54" stroke-width="0.8" stroke-linecap="round" stroke-linejoin="round"/>
<path d="M71.3047 40.7504C75.5303 40.7504 78.9558 37.3249 78.9558 33.0993C78.9558 28.8738 75.5303 25.4482 71.3047 25.4482C67.0791 25.4482 63.6536 28.8738 63.6536 33.0993C63.6536 37.3249 67.0791 40.7504 71.3047 40.7504Z" fill="white"/>
<path d="M71.3046 39.8998C75.0607 39.8998 78.1056 36.8549 78.1056 33.0988C78.1056 29.3428 75.0607 26.2979 71.3046 26.2979C67.5486 26.2979 64.5037 29.3428 64.5037 33.0988C64.5037 36.8549 67.5486 39.8998 71.3046 39.8998Z" fill="#FFD400"/>
<path d="M68.7543 33.1622L70.6232 35.0475L74.2794 31.3994" stroke="#1F1A54" stroke-width="1.2" stroke-linecap="round" stroke-linejoin="round"/>
<path d="M55.2526 1V5.94676" stroke="#1F1A54" stroke-width="0.8" stroke-linecap="round"/>
<path d="M43.0979 4.49805L46.5958 7.99593" stroke="#1F1A54" stroke-width="0.8" stroke-linecap="round"/>
<path d="M67.1952 4.49805L63.6973 7.99592" stroke="#1F1A54" stroke-width="0.8" stroke-linecap="round"/>
</svg>
