<svg width="246" height="190" viewBox="0 0 246 190" fill="none" xmlns="http://www.w3.org/2000/svg">
<rect width="245" height="190" transform="translate(0.5)" fill="white"/>
<path d="M13.5 73.0542C19.3354 72.6785 25.1174 72.6248 30.9527 73.0006C77.4222 75.9526 151.195 117.335 163.187 106.386C164.472 105.205 165.811 103.38 164.793 100.911C164.151 99.3003 160.992 97.4756 158.155 98.9784C155.318 100.481 153.229 103.97 155.745 109.123C158.262 114.329 164.526 116.369 170.254 117.174C179.462 118.462 188.831 113.095 198.146 105.903C205.962 99.8908 220.096 88.6198 232.624 80.6756" stroke="#FFD400" stroke-width="0.8" stroke-miterlimit="10" stroke-linecap="round" stroke-dasharray="4 4"/>
<path d="M117.001 46.1433C117.684 41.7909 115.036 16.7753 119.736 11.8787C125.547 5.89411 136.401 3.26449 140.076 9.88383C140.076 9.88383 142.981 10.6999 143.921 13.8736C145.801 20.4023 145.288 35.3029 147.938 46.6375L117.001 46.1433Z" fill="#1F1A54" stroke="#1F1A54" stroke-width="0.8" stroke-miterlimit="10" stroke-linecap="round" stroke-linejoin="round"/>
<path d="M117.657 19.5324C118.063 15.8585 118.613 12.6798 120.127 11.1659C125.545 5.90694 135.744 3.59619 139.091 9.41291C139.091 9.41291 141.8 10.13 142.677 12.9189C143.235 14.5922 143.553 16.8233 143.792 19.2137C144.702 28.3108 145.149 33.8885 136.384 34.2869C136.384 34.2869 122.042 35.4821 120.127 33.49C117.639 31.2555 116.862 26.7171 117.657 19.5324Z" fill="#1F1A54" stroke="#1F1A54" stroke-width="0.8" stroke-miterlimit="10" stroke-linecap="round" stroke-linejoin="round"/>
<path d="M136.064 20.7274C136.382 20.09 137.099 18.8948 138.534 18.2573C140.526 17.3808 142.837 19.6916 142.199 22.8788C141.721 25.5083 139.57 26.9426 136.781 27.341V35.5481L138.534 36.2653C138.534 36.2653 138.215 38.337 137.737 39.2932C135.346 44.5521 130.008 45.4286 128.095 44.8709C124.51 43.9944 123.315 40.6477 123.952 38.0979C124.032 37.8589 124.111 37.4605 124.191 37.1418C124.271 36.823 124.35 36.5043 124.35 36.5043L126.183 35.9466V32.5999C125.625 32.3609 125.068 32.0422 124.51 31.6438C122.837 30.3689 121.641 28.0581 121.323 24.7115C121.084 21.9227 121.243 18.4167 121.402 15.7872C123.235 15.2294 126.024 11.8828 126.024 11.8828C126.024 11.8828 127.617 14.9904 130.645 16.7434C134.231 18.6557 136.064 20.7274 136.064 20.7274Z" fill="white"/>
<path d="M139.569 20.9668C139.569 20.9668 137.896 21.2058 137.657 23.8353" stroke="#1F1A54" stroke-width="0.8" stroke-miterlimit="10" stroke-linecap="round"/>
<path d="M126.183 32.5988V35.9454L124.351 36.5032C124.351 36.5032 124.271 36.7422 124.191 37.1406C124.112 37.4594 124.032 37.8578 123.952 38.0968C123.315 40.6466 124.51 43.9135 128.096 44.8697C130.008 45.3478 135.347 44.4713 137.737 39.292C138.136 38.3359 138.534 36.2641 138.534 36.2641L136.781 35.547V27.3398" stroke="#1F1A54" stroke-width="0.8" stroke-miterlimit="10" stroke-linecap="round" stroke-linejoin="round"/>
<path d="M135.904 21.2058C135.904 21.2058 135.984 21.0464 136.143 20.7277C136.462 20.0903 137.179 18.895 138.613 18.2576C140.605 17.3811 142.916 19.6919 142.279 22.8791C141.801 25.5086 139.649 26.9429 136.86 27.3413" stroke="#1F1A54" stroke-width="0.8" stroke-miterlimit="10" stroke-linecap="round" stroke-linejoin="round"/>
<path d="M136.063 20.727C136.063 20.727 134.231 18.6553 130.565 16.6633C127.538 14.9103 125.944 11.8027 125.944 11.8027C125.944 11.8027 123.155 15.1493 121.322 15.7071" stroke="#1F1A54" stroke-width="0.8" stroke-miterlimit="10" stroke-linecap="round" stroke-linejoin="round"/>
<path d="M121.402 15.707C121.243 18.4162 121.084 21.9222 121.323 24.711C121.641 28.0576 122.837 30.3684 124.51 31.6433C125.147 32.1214 125.705 32.4401 126.183 32.5995C127.538 33.1572 128.574 32.9979 129.211 32.8385C129.284 32.8203 129.226 32.8385 129.45 32.7588C130.599 32.3509 131.841 31.8823 132.717 31.0855" stroke="#1F1A54" stroke-width="0.8" stroke-miterlimit="10" stroke-linecap="round" stroke-linejoin="round"/>
<path d="M129.556 19.8496C129.364 19.8717 129.189 19.9669 129.065 20.1153C128.942 20.2638 128.881 20.454 128.895 20.6464C128.882 20.843 128.942 21.0372 129.064 21.1917C129.187 21.3462 129.361 21.45 129.556 21.4831C129.747 21.4466 129.918 21.3412 130.037 21.1871C130.156 21.033 130.214 20.8407 130.201 20.6464C130.215 20.4565 130.156 20.2683 130.036 20.1203C129.916 19.9722 129.745 19.8754 129.556 19.8496Z" fill="#1F1A54"/>
<path d="M123.944 19.8496C123.753 19.8717 123.577 19.9669 123.454 20.1153C123.331 20.2638 123.269 20.454 123.283 20.6464C123.27 20.843 123.332 21.0372 123.453 21.1917C123.575 21.3462 123.751 21.45 123.944 21.4831C124.136 21.4466 124.307 21.3412 124.426 21.1871C124.545 21.033 124.603 20.8407 124.59 20.6464C124.604 20.4565 124.545 20.2683 124.425 20.1203C124.305 19.9722 124.133 19.8754 123.944 19.8496Z" fill="#1F1A54"/>
<path d="M131.763 25.5879C131.576 26.2728 131.203 26.8928 130.685 27.3792C130.168 27.8657 129.526 28.1998 128.831 28.3449" stroke="#1F1A54" stroke-width="0.8" stroke-linecap="round" stroke-linejoin="round"/>
<path d="M127.484 24.4648C127.216 24.6045 126.918 24.6774 126.616 24.6774C126.313 24.6774 126.015 24.6045 125.747 24.4648" stroke="#1F1A54" stroke-width="0.8" stroke-linecap="round" stroke-linejoin="round"/>
<path d="M130.982 18.3764C130.595 18.1363 130.147 18.0118 129.691 18.0178C129.203 18.0126 128.725 18.1572 128.321 18.4321" stroke="#1F1A54" stroke-width="0.8" stroke-linecap="round" stroke-linejoin="round"/>
<path d="M125.301 18.3763C124.913 18.1363 124.466 18.0118 124.01 18.0178C123.521 18.0126 123.043 18.1572 122.639 18.4321" stroke="#1F1A54" stroke-width="0.8" stroke-linecap="round" stroke-linejoin="round"/>
<path d="M126.345 185.998C112.879 185.998 101.962 185.035 101.962 183.847C101.962 182.659 112.879 181.695 126.345 181.695C139.811 181.695 150.727 182.659 150.727 183.847C150.727 185.035 139.811 185.998 126.345 185.998Z" fill="#FFEB86"/>
<path d="M105.787 179.466C105.787 179.466 105.548 179.784 105.787 180.82C106.105 182.334 107.46 183.45 111.842 183.45C114.711 183.45 128.496 182.892 129.85 182.733C131.205 182.573 130.089 180.501 129.532 178.828C129.532 178.828 111.444 181.856 108.097 181.139C106.583 180.82 105.707 180.183 105.787 179.466Z" fill="white"/>
<path d="M116.305 175.162C115.747 175.481 115.11 175.72 114.552 175.959C114.154 176.118 113.755 176.278 113.437 176.358C113.198 176.437 112.959 176.517 112.64 176.597C111.445 176.995 110.17 177.314 109.293 177.553C108.098 177.871 106.823 178.11 106.265 178.668C105.947 178.987 105.787 179.226 105.787 179.465C105.708 180.182 106.584 180.74 108.098 181.138C111.524 181.935 129.532 178.828 129.532 178.828C129.532 178.828 129.214 177.553 128.815 175.242C128.815 175.242 128.576 175.322 128.178 175.401C127.461 175.561 126.106 175.72 124.592 175.162C123.317 174.764 121.963 174.047 121.006 173.409C120.289 172.931 119.811 172.533 119.891 172.453C119.572 172.852 119.014 173.33 118.377 173.808C117.739 174.365 117.102 174.764 116.305 175.162Z" fill="white"/>
<path d="M120.926 168.867L121.006 173.329L120.926 173.489C121.882 174.126 123.317 174.843 124.512 175.242C126.106 175.72 127.38 175.64 128.098 175.481L128.018 175.242V168.867H120.926Z" fill="#FFD400"/>
<path d="M105.787 179.465C105.708 180.182 106.584 180.74 108.098 181.139C111.524 181.935 129.532 178.828 129.532 178.828C129.532 178.828 129.214 177.553 128.815 175.242" stroke="#1F1A54" stroke-width="0.8" stroke-miterlimit="10" stroke-linecap="round" stroke-linejoin="round"/>
<path d="M128.815 175.242C128.815 175.242 128.576 175.322 128.177 175.401C127.46 175.561 126.106 175.72 124.592 175.162C123.317 174.764 121.962 174.047 121.006 173.409C120.289 172.931 119.811 172.533 119.891 172.453C119.572 172.852 119.014 173.33 118.377 173.808C117.819 174.206 117.181 174.605 116.464 175.003C115.907 175.322 115.269 175.561 114.711 175.8C114.313 175.959 113.915 176.118 113.596 176.198C113.357 176.278 113.118 176.358 112.799 176.437C111.604 176.836 110.329 177.154 109.452 177.393C108.257 177.712 106.982 177.951 106.424 178.509C106.106 178.828 105.946 179.067 105.946 179.306" stroke="#1F1A54" stroke-width="0.8" stroke-miterlimit="10" stroke-linecap="round" stroke-linejoin="round"/>
<path d="M105.787 179.466C105.787 179.466 105.548 179.785 105.787 180.9C106.105 182.414 107.46 183.53 111.842 183.53C114.711 183.53 128.496 182.972 129.85 182.813C131.205 182.653 130.089 180.582 129.532 178.908" stroke="#1F1A54" stroke-width="0.8" stroke-miterlimit="10" stroke-linecap="round" stroke-linejoin="round"/>
<path d="M119.093 174.843L118.297 173.966L117.5 173.09" stroke="#1F1A54" stroke-width="0.8" stroke-miterlimit="10" stroke-linecap="round" stroke-linejoin="round"/>
<path d="M117.101 176.197L116.304 175.162L115.747 174.285" stroke="#1F1A54" stroke-width="0.8" stroke-miterlimit="10" stroke-linecap="round" stroke-linejoin="round"/>
<path d="M115.269 177.076L114.552 175.96L113.994 175.004" stroke="#1F1A54" stroke-width="0.8" stroke-miterlimit="10" stroke-linecap="round" stroke-linejoin="round"/>
<path d="M113.357 177.792L112.639 176.597L112.082 175.721" stroke="#1F1A54" stroke-width="0.8" stroke-miterlimit="10" stroke-linecap="round" stroke-linejoin="round"/>
<path d="M128.098 175.242V168.867H120.926L121.006 173.329" stroke="#1F1A54" stroke-width="0.8" stroke-miterlimit="10" stroke-linecap="round" stroke-linejoin="round"/>
<path d="M122.759 180.821C122.759 180.821 122.52 181.14 122.759 182.176C123.078 183.69 124.432 184.805 128.815 184.805C131.683 184.805 145.468 184.247 146.823 184.088C148.178 183.929 147.062 181.857 146.504 180.184C146.504 180.184 128.417 183.211 125.07 182.494C123.476 182.176 122.68 181.538 122.759 180.821Z" fill="white"/>
<path d="M133.277 176.518C132.72 176.836 132.082 177.076 131.524 177.315C131.126 177.474 130.728 177.633 130.409 177.713C130.17 177.793 129.931 177.872 129.612 177.952C128.417 178.35 127.142 178.669 126.265 178.908C125.07 179.227 123.795 179.466 123.237 180.024C122.919 180.342 122.759 180.581 122.759 180.821C122.68 181.538 123.556 182.095 125.07 182.494C128.496 183.291 146.504 180.183 146.504 180.183C146.504 180.183 146.186 178.908 145.787 176.597C145.787 176.597 145.548 176.677 145.15 176.757C144.433 176.916 143.078 177.076 141.564 176.518C140.289 176.119 138.935 175.402 137.979 174.765C137.261 174.287 136.783 173.888 136.863 173.809C136.544 174.207 135.986 174.685 135.349 175.163C134.712 175.721 133.994 176.119 133.277 176.518Z" fill="white"/>
<path d="M137.899 170.303L137.978 174.765L137.899 174.924C138.855 175.562 140.289 176.279 141.484 176.677C143.078 177.155 144.353 177.076 145.07 176.916L144.99 176.677V170.303H137.899Z" fill="#FFD400"/>
<path d="M122.759 180.821C122.68 181.538 123.556 182.096 125.07 182.494C128.496 183.291 146.504 180.183 146.504 180.183C146.504 180.183 146.186 178.908 145.787 176.598" stroke="#1F1A54" stroke-width="0.8" stroke-miterlimit="10" stroke-linecap="round" stroke-linejoin="round"/>
<path d="M145.787 176.597C145.787 176.597 145.548 176.677 145.15 176.757C144.433 176.916 143.078 177.076 141.564 176.518C140.289 176.119 138.935 175.402 137.978 174.765C137.261 174.287 136.783 173.888 136.863 173.809C136.544 174.207 135.986 174.685 135.349 175.163C134.791 175.562 134.154 175.96 133.437 176.358C132.879 176.677 132.241 176.916 131.684 177.155C131.285 177.315 130.887 177.474 130.568 177.554C130.329 177.633 130.09 177.713 129.771 177.793C128.576 178.191 127.301 178.51 126.425 178.749C125.229 179.068 123.954 179.307 123.397 179.864C123.078 180.183 122.919 180.422 122.919 180.661" stroke="#1F1A54" stroke-width="0.8" stroke-miterlimit="10" stroke-linecap="round" stroke-linejoin="round"/>
<path d="M122.759 180.821C122.759 180.821 122.52 181.14 122.759 182.256C123.078 183.77 124.432 184.885 128.815 184.885C131.683 184.885 145.468 184.327 146.823 184.168C148.178 184.009 147.062 181.937 146.504 180.264" stroke="#1F1A54" stroke-width="0.8" stroke-miterlimit="10" stroke-linecap="round" stroke-linejoin="round"/>
<path d="M135.986 176.198L135.269 175.322L134.472 174.445" stroke="#1F1A54" stroke-width="0.8" stroke-miterlimit="10" stroke-linecap="round" stroke-linejoin="round"/>
<path d="M134.074 177.553L133.277 176.517L132.64 175.641" stroke="#1F1A54" stroke-width="0.8" stroke-miterlimit="10" stroke-linecap="round" stroke-linejoin="round"/>
<path d="M132.242 178.431L131.524 177.316L130.887 176.359" stroke="#1F1A54" stroke-width="0.8" stroke-miterlimit="10" stroke-linecap="round" stroke-linejoin="round"/>
<path d="M130.329 179.148L129.612 178.032L128.974 177.076" stroke="#1F1A54" stroke-width="0.8" stroke-miterlimit="10" stroke-linecap="round" stroke-linejoin="round"/>
<path d="M145.07 176.598V170.303H137.899L137.978 174.765" stroke="#1F1A54" stroke-width="0.8" stroke-miterlimit="10" stroke-linecap="round" stroke-linejoin="round"/>
<path d="M130.807 120.342L129.532 134.684L130.886 168.947H119.651C118.775 153.728 118.058 143.848 117.58 135.8C116.544 119.465 115.269 113.808 114.631 102.493C113.994 91.8159 118.376 74.1266 118.376 74.1266C118.376 74.1266 121.086 74.9234 126.823 75.1624C131.125 75.3218 135.348 75.1624 141.086 74.0469C141.086 74.0469 146.504 88.0709 146.982 92.9314C148.177 103.927 144.592 135.162 144.592 135.162L146.504 170.302H136.066L132.321 134.764L130.807 120.342Z" fill="#1F1A54"/>
<path d="M130.807 120.262L129.612 108.469L128.018 103.848" stroke="#1F1A54" stroke-width="0.8" stroke-miterlimit="10" stroke-linecap="round" stroke-linejoin="round"/>
<path d="M130.807 120.342L129.532 134.684L130.886 168.947H119.651C118.775 153.728 118.058 143.848 117.58 135.8C116.544 119.465 115.269 113.808 114.631 102.493C113.994 91.8159 118.376 74.1266 118.376 74.1266C118.376 74.1266 121.086 74.9234 126.823 75.1624C131.125 75.3218 135.348 75.1624 141.086 74.0469C141.086 74.0469 146.504 88.0709 146.982 92.9314C148.177 103.927 144.592 135.162 144.592 135.162L146.504 170.302H136.066L132.321 134.764L130.807 120.342Z" stroke="#1F1A54" stroke-width="0.8" stroke-miterlimit="10" stroke-linecap="round" stroke-linejoin="round"/>
<path d="M130.807 120.341V120.262" stroke="#1F1A54" stroke-width="0.8" stroke-miterlimit="10" stroke-linecap="round" stroke-linejoin="round"/>
<path d="M130.966 126.476L129.213 108.707L127.54 104.086" stroke="#FFD400" stroke-width="0.5" stroke-linecap="round" stroke-linejoin="round"/>
<path d="M88.9733 55.0041C88.9733 55.0041 88.9733 55.0041 90.4872 56.1993C90.6466 56.3587 90.8059 56.4384 90.9653 56.5181C92.0808 57.2352 93.1964 57.5539 94.1525 57.9523C97.6584 59.3866 110.646 59.9444 113.196 61.1396C113.276 61.538 113.356 53.0121 113.356 53.0121L122.599 52.6934" stroke="#1F1A54" stroke-width="0.703" stroke-miterlimit="10" stroke-linecap="round" stroke-linejoin="round"/>
<path d="M80.4473 62.1753C80.4473 62.1753 80.288 62.255 80.4473 62.8127C80.8457 65.2828 86.6625 64.0876 86.6625 64.0876C88.9732 63.7689 91.0449 63.7689 91.0449 63.7689C93.037 63.9283 98.6943 64.9641 104.352 67.2749C109.053 69.1872 113.834 70.7809 116.463 70.1434C121.324 69.0279 122.599 52.7729 122.599 52.7729L113.276 53.0119C113.276 53.0119 113.196 61.6175 113.196 61.1394C110.646 59.9442 97.6584 59.3864 94.1525 57.9522C93.1167 57.5538 91.7621 57.1554 90.4872 56.1992C89.3716 55.3227 88.2561 54.6055 87.6186 53.49C86.9812 52.3745 86.9015 50.7012 86.5828 50.2231C86.3438 49.9044 85.9453 50.0637 85.7063 50.2231C84.1127 51.498 86.3438 56.1195 84.272 55.8805C83.5549 55.8008 81.7222 55.8008 80.7661 56.0398C79.7302 56.3585 79.3318 56.996 79.4115 57.4741C79.4912 57.8725 79.7302 58.1115 80.0489 58.2709C80.0489 58.2709 79.4115 58.749 79.4115 59.3067C79.4115 59.7848 79.6505 60.0239 79.8896 60.1832C79.8896 60.1832 79.7302 60.5816 79.8099 61.1394C79.8896 61.6972 80.1286 62.0159 80.4473 62.1753Z" fill="white"/>
<path d="M81.6426 60.4229C81.6426 60.4229 80.288 60.4229 79.81 60.1838C79.5709 60.0245 79.4115 59.7854 79.3319 59.3073C79.2522 58.7496 79.9693 58.2715 79.9693 58.2715" stroke="#1F1A54" stroke-width="0.703" stroke-miterlimit="10" stroke-linecap="round" stroke-linejoin="round"/>
<path d="M80.4473 62.1753C80.4473 62.1753 80.288 62.255 80.4473 62.8127C80.8457 65.2828 86.6625 64.0876 86.6625 64.0876C88.9732 63.7689 91.0449 63.7689 91.0449 63.7689C93.037 63.9283 113.834 70.7809 116.463 70.1434C121.324 69.0279 122.599 52.7729 122.599 52.7729L113.276 53.0119C113.276 53.0119 113.196 61.6175 113.196 61.1394C110.646 59.9442 97.6584 59.3864 94.1525 57.9522C93.1167 57.5538 91.7621 57.1554 90.4872 56.1992C89.3716 55.3227 88.2561 54.6055 87.6186 53.49C86.9812 52.3745 86.9015 50.7012 86.5828 50.2231C86.3438 49.9044 85.9453 50.0637 85.7063 50.2231C84.1127 51.498 86.4234 55.7211 84.8298 55.8008C84.1127 55.8805 81.7222 55.8008 80.7661 56.1195C79.7302 56.4382 79.3318 57.0757 79.4115 57.5538C79.4912 57.9522 79.7302 58.1912 80.0489 58.3506C80.4473 58.5099 81.1645 58.5896 81.1645 58.5896" stroke="#1F1A54" stroke-width="0.703" stroke-miterlimit="10" stroke-linecap="round" stroke-linejoin="round"/>
<path d="M82.0413 62.335C82.0413 62.335 80.7664 62.335 80.5274 62.1756C80.2086 62.0163 79.8899 61.6975 79.7306 61.1398C79.6509 60.582 79.8102 60.1836 79.8102 60.1836" stroke="#1F1A54" stroke-width="0.703" stroke-miterlimit="10" stroke-linecap="round" stroke-linejoin="round"/>
<path d="M86.344 57.3145C86.344 57.3145 86.5034 59.3862 89.85 59.8643" stroke="#1F1A54" stroke-width="0.703" stroke-miterlimit="10" stroke-linecap="round" stroke-linejoin="round"/>
<path d="M81.0052 58.5901H84.1128C84.7503 58.5901 85.2284 58.1917 85.2284 57.6339C85.2284 57.0761 84.7503 56.6777 84.0331 56.6777H81.6427" stroke="#1F1A54" stroke-width="0.703" stroke-miterlimit="10" stroke-linecap="round" stroke-linejoin="round"/>
<path d="M81.4036 60.5026H84.5111C85.1486 60.5026 85.6267 60.1042 85.6267 59.5464C85.6267 58.9887 85.0689 58.6699 84.4315 58.6699H82.041" stroke="#1F1A54" stroke-width="0.7098" stroke-miterlimit="10" stroke-linecap="round" stroke-linejoin="round"/>
<path d="M80.6862 62.3346H84.1125C84.8296 62.3346 85.3077 61.9362 85.3077 61.3784C85.3077 60.8207 84.7499 60.502 84.0328 60.502H81.4033" stroke="#1F1A54" stroke-width="0.7398" stroke-miterlimit="10" stroke-linecap="round" stroke-linejoin="round"/>
<path d="M82.1208 64.1666H83.7941C84.4315 64.1666 84.9096 63.7682 84.9096 63.2105C84.9096 62.6527 84.4315 62.334 83.7144 62.334H81.324" stroke="#1F1A54" stroke-width="0.6871" stroke-miterlimit="10" stroke-linecap="round" stroke-linejoin="round"/>
<path d="M140.926 52.4542L143.237 60.1036L153.515 57.3944C153.515 57.3944 151.205 44.486 149.452 41.6175C147.539 38.4303 138.695 35.8008 138.695 35.8008C138.695 35.8008 138.376 37.8725 137.898 38.8287C135.508 44.0876 130.169 44.9641 128.177 44.4064C124.591 43.5299 123.396 40.1833 124.033 37.6335C124.193 37.1554 124.432 36.0398 124.432 36.0398C124.432 36.0398 121.563 36.5179 119.81 36.8366C111.922 38.3506 109.372 52.1354 109.372 52.1354L109.053 54.0478C109.053 54.0478 112.002 51.737 113.356 53.0916C114.631 54.4462 117.5 64.008 118.137 67.3546C119.014 71.6574 119.013 73.9681 119.013 73.9681C119.013 73.9681 121.165 74.7649 126.583 75.004C130.647 75.3227 136.464 75.1633 141.802 74.1275L144.751 60.502" fill="#FFD400"/>
<path d="M140.926 52.4542L143.237 60.1036L153.515 57.3944C153.515 57.3944 151.205 44.486 149.452 41.6175C147.539 38.4303 138.695 35.8008 138.695 35.8008C138.695 35.8008 138.376 37.8725 137.898 38.8287C135.508 44.0876 130.169 44.9641 128.177 44.4064C124.591 43.5299 123.396 40.1833 124.033 37.6335C124.193 37.1554 124.432 36.0398 124.432 36.0398C124.432 36.0398 121.563 36.5179 119.81 36.8366C111.922 38.3506 109.372 52.1354 109.372 52.1354L109.053 54.0478C109.053 54.0478 112.002 51.737 113.356 53.0916C114.631 54.4462 117.5 64.008 118.137 67.3546C119.014 71.6574 119.013 73.9681 119.013 73.9681C119.013 73.9681 121.165 74.7649 126.583 75.004C130.647 75.3227 136.464 75.1633 141.802 74.1275L144.751 60.502" stroke="#1F1A54" stroke-width="0.8" stroke-miterlimit="10" stroke-linecap="round" stroke-linejoin="round"/>
<mask id="mask0" mask-type="alpha" maskUnits="userSpaceOnUse" x="108" y="35" width="46" height="41">
<path d="M140.926 52.4542L143.237 60.1036L153.515 57.3944C153.515 57.3944 151.205 44.486 149.452 41.6175C147.539 38.4303 138.695 35.8008 138.695 35.8008C138.695 35.8008 138.376 37.8725 137.898 38.8287C135.508 44.0876 130.169 44.9641 128.177 44.4064C124.591 43.5299 123.396 40.1833 124.033 37.6335C124.193 37.1554 124.432 36.0398 124.432 36.0398C124.432 36.0398 121.563 36.5179 119.81 36.8366C111.922 38.3506 109.372 52.1354 109.372 52.1354L109.053 54.0478C109.053 54.0478 112.002 51.737 113.356 53.0916C114.631 54.4462 117.5 64.008 118.137 67.3546C119.014 71.6574 119.013 73.9681 119.013 73.9681C119.013 73.9681 121.165 74.7649 126.583 75.004C130.647 75.3227 136.464 75.1633 141.802 74.1275L144.751 60.502" fill="#FFD400"/>
<path d="M140.926 52.4542L143.237 60.1036L153.515 57.3944C153.515 57.3944 151.205 44.486 149.452 41.6175C147.539 38.4303 138.695 35.8008 138.695 35.8008C138.695 35.8008 138.376 37.8725 137.898 38.8287C135.508 44.0876 130.169 44.9641 128.177 44.4064C124.591 43.5299 123.396 40.1833 124.033 37.6335C124.193 37.1554 124.432 36.0398 124.432 36.0398C124.432 36.0398 121.563 36.5179 119.81 36.8366C111.922 38.3506 109.372 52.1354 109.372 52.1354L109.053 54.0478C109.053 54.0478 112.002 51.737 113.356 53.0916C114.631 54.4462 117.5 64.008 118.137 67.3546C119.014 71.6574 119.013 73.9681 119.013 73.9681C119.013 73.9681 121.165 74.7649 126.583 75.004C130.647 75.3227 136.464 75.1633 141.802 74.1275L144.751 60.502" stroke="#1F1A54" stroke-width="0.8" stroke-miterlimit="10" stroke-linecap="round" stroke-linejoin="round"/>
</mask>
<g mask="url(#mask0)">
<path d="M92.7188 19.1482H170.089V15.9609H92.7188V19.1482ZM92.7188 23.0526H170.089V26.2398H92.7188V23.0526ZM92.7188 30.0645H170.089V33.2518H92.7188V30.0645ZM92.7188 37.1562H170.089V40.3434H92.7188V37.1562ZM92.7188 44.1681H170.089V47.3554H92.7188V44.1681ZM92.7188 51.2597H170.089V54.447H92.7188V51.2597ZM92.7188 58.2717H170.089V61.4589H92.7188V58.2717ZM92.7188 65.3633H170.089V68.5506H92.7188V65.3633ZM92.7188 72.3753H170.089V75.5625H92.7188V72.3753ZM92.7188 79.4669H170.089V82.6542H92.7188V79.4669ZM92.7188 86.4789H170.089V89.6661H92.7188V86.4789Z" fill="#1F1A54"/>
</g>
<path d="M124.193 75.0039C124.91 75.0836 125.627 75.0836 126.504 75.1633C128.815 75.2429 131.763 75.2429 134.95 75.0039H124.193Z" fill="#1F1A54"/>
<path d="M111.603 53.8086L112.081 54.1273C112.081 54.1273 112.081 53.968 112.081 53.8086H111.603Z" fill="#1F1A54"/>
<path d="M138.535 35.8801H138.695C138.615 35.8004 138.615 35.8004 138.535 35.8801C138.615 35.8004 138.615 35.8004 138.535 35.8801Z" fill="#1F1A54"/>
<path d="M123.316 68.3897L124.193 72.3738L109.531 71.2582L104.511 51.7363H119.491L122.44 63.2104" fill="white"/>
<path d="M123.316 68.3897L124.193 72.3738L109.531 71.2582L104.511 51.7363H119.491L122.44 63.2104" stroke="#1F1A54" stroke-width="0.8" stroke-miterlimit="10" stroke-linecap="round" stroke-linejoin="round"/>
<path d="M123.396 60.1025C124.99 60.1822 126.503 60.5806 127.938 61.2978C129.531 62.0946 133.117 63.4492 135.109 63.7679C140.209 64.5647 142.838 64.6444 146.105 65.2021L144.671 59.7838L153.037 57.5527C153.037 57.5527 157.659 74.1264 149.053 73.1703C142.838 72.5328 134.631 69.5049 130.488 68.6284C130.249 68.5487 130.089 68.5488 129.85 68.5488C127.938 68.3894 126.424 68.23 125.229 68.3894C124.591 68.4691 123.954 68.4691 123.396 68.3894C121.723 68.0707 118.376 67.5129 117.579 66.9551C116.384 66.238 114.073 62.8914 114.073 62.8914C114.073 62.8914 113.994 60.8993 116.304 62.1743C118.615 63.4492 121.643 63.6882 122.599 63.1304C123.157 62.8117 123.476 62.493 122.44 62.1743L121.802 60.0229C121.643 60.1025 122.918 60.1025 123.396 60.1025Z" fill="white" stroke="#1F1A54" stroke-width="0.8" stroke-miterlimit="10" stroke-linecap="round" stroke-linejoin="round"/>
<path d="M120.049 65.5201C119.173 65.2014 116.543 64.5639 115.746 64.0062L113.993 62.8906" fill="white"/>
<path d="M120.049 65.5201C119.173 65.2014 116.543 64.5639 115.746 64.0062L113.993 62.8906" stroke="#1F1A54" stroke-width="0.8" stroke-miterlimit="10" stroke-linecap="round" stroke-linejoin="round"/>
<path d="M120.448 66.7171C120.448 66.7171 117.659 66.239 115.746 65.2031L120.448 66.7171Z" fill="white"/>
<path d="M120.448 66.7171C120.448 66.7171 117.659 66.239 115.746 65.2031" stroke="#1F1A54" stroke-width="0.8" stroke-miterlimit="10" stroke-linecap="round" stroke-linejoin="round"/>
<rect x="71.01" y="16.752" width="17.6322" height="8.81609" fill="white"/>
<path d="M69.2799 26.7365V16.7065H75.9476" fill="white"/>
<path d="M75.9476 16.7065H94.8081V26.7284" fill="white"/>
<path d="M98.5169 23.007V39.1498C98.5179 39.4205 98.4656 39.6889 98.363 39.9393C98.2603 40.1898 98.1092 40.4175 97.9185 40.6093C97.7278 40.8011 97.5011 40.9534 97.2515 41.0572C97.002 41.1611 96.7344 41.2146 96.4641 41.2146H67.5704C67.0238 41.2146 66.4996 40.997 66.1131 40.6098C65.7266 40.2226 65.5095 39.6974 65.5095 39.1498V23.007" fill="white"/>
<path d="M94.8081 20.1583L97.2565 21.3988C97.6509 21.5692 97.984 21.8557 98.2115 22.2203C98.4389 22.5848 98.5499 23.0099 98.5296 23.4391C98.545 23.8569 98.4361 24.2699 98.2167 24.6258C97.9974 24.9817 97.6774 25.2645 97.2973 25.4386L85.8472 31.2983" fill="white"/>
<path d="M75.9476 16.7065L80.7546 14.258C81.0963 14.0858 81.4737 13.9961 81.8563 13.9961C82.239 13.9961 82.6164 14.0858 82.9581 14.258L87.8548 16.7064" fill="white"/>
<path d="M78.2409 31.1517L66.7745 25.5042C66.3637 25.3215 66.0206 25.0146 65.7937 24.6265C65.5667 24.2385 65.4673 23.789 65.5095 23.3414C65.5128 22.937 65.6312 22.5418 65.8509 22.2022C66.0706 21.8625 66.3824 21.5925 66.75 21.4236L69.2799 20.1341" fill="white"/>
<path d="M66.7663 37.0032L80.7709 29.8622C81.1116 29.6913 81.4874 29.6024 81.8686 29.6024C82.2497 29.6024 82.6256 29.6913 82.9662 29.8622L97.3054 37.0032C97.7588 37.2303 98.1207 37.6058 98.331 38.0671C98.5413 38.5285 98.5874 39.048 98.4615 39.5391C98.3356 40.0303 98.0454 40.4635 97.639 40.7668C97.2327 41.0701 96.7348 41.2252 96.2282 41.2062H67.8762C67.3665 41.2336 66.863 41.0844 66.4504 40.7839C66.0378 40.4834 65.7414 40.0499 65.611 39.5564C65.4807 39.0629 65.5244 38.5395 65.7349 38.0745C65.9453 37.6094 66.3096 37.2311 66.7663 37.0032Z" fill="white"/>
<path d="M69.2799 26.7365V16.7065H75.9476M75.9476 16.7065H94.8081V26.7284M75.9476 16.7065L80.7546 14.258C81.0963 14.0858 81.4737 13.9961 81.8563 13.9961C82.239 13.9961 82.6164 14.0858 82.9581 14.258L87.8548 16.7064M98.5169 23.007V39.1498C98.5179 39.4205 98.4656 39.6889 98.363 39.9393C98.2603 40.1898 98.1092 40.4175 97.9185 40.6093C97.7278 40.8011 97.5011 40.9534 97.2515 41.0572C97.002 41.1611 96.7344 41.2146 96.4641 41.2146H67.5704C67.0238 41.2146 66.4996 40.997 66.1131 40.6098C65.7266 40.2226 65.5095 39.6974 65.5095 39.1498V23.007M94.8081 20.1583L97.2565 21.3988C97.6509 21.5692 97.984 21.8557 98.2115 22.2203C98.439 22.5848 98.5499 23.0099 98.5296 23.4391C98.545 23.8569 98.4361 24.2699 98.2167 24.6258C97.9974 24.9817 97.6774 25.2645 97.2973 25.4386L85.8472 31.2983M78.2409 31.1517L66.7745 25.5042C66.3637 25.3215 66.0206 25.0146 65.7937 24.6265C65.5667 24.2385 65.4673 23.789 65.5095 23.3414C65.5128 22.937 65.6312 22.5418 65.8509 22.2022C66.0706 21.8625 66.3824 21.5925 66.75 21.4236L69.2799 20.1341M66.7663 37.0032L80.7709 29.8622C81.1116 29.6913 81.4874 29.6024 81.8686 29.6024C82.2497 29.6024 82.6256 29.6913 82.9662 29.8622L97.3054 37.0032C97.7588 37.2303 98.1207 37.6058 98.331 38.0671C98.5413 38.5285 98.5874 39.048 98.4615 39.5391C98.3356 40.0303 98.0454 40.4635 97.639 40.7668C97.2327 41.0701 96.7348 41.2252 96.2282 41.2062H67.8762C67.3665 41.2336 66.863 41.0844 66.4504 40.7839C66.0378 40.4834 65.7414 40.0499 65.611 39.5564C65.4807 39.0629 65.5244 38.5395 65.7349 38.0745C65.9453 37.6094 66.3096 37.2311 66.7663 37.0032Z" stroke="#1F1A54" stroke-width="0.8" stroke-linecap="round" stroke-linejoin="round"/>
<path d="M97.8047 43.7514C102.03 43.7514 105.456 40.3259 105.456 36.1003C105.456 31.8747 102.03 28.4492 97.8047 28.4492C93.5791 28.4492 90.1536 31.8747 90.1536 36.1003C90.1536 40.3259 93.5791 43.7514 97.8047 43.7514Z" fill="white"/>
<path d="M97.8048 42.9008C101.561 42.9008 104.606 39.8559 104.606 36.0998C104.606 32.3437 101.561 29.2988 97.8048 29.2988C94.0487 29.2988 91.0038 32.3437 91.0038 36.0998C91.0038 39.8559 94.0487 42.9008 97.8048 42.9008Z" fill="#FFD400"/>
<path d="M95.2543 36.1632L97.1232 38.0484L100.779 34.4004" stroke="#1F1A54" stroke-width="1.2" stroke-linecap="round" stroke-linejoin="round"/>
<path d="M81.7527 4V8.94676" stroke="#1F1A54" stroke-width="0.8" stroke-linecap="round"/>
<path d="M69.5979 7.49805L73.0958 10.9959" stroke="#1F1A54" stroke-width="0.8" stroke-linecap="round"/>
<path d="M93.6952 7.49805L90.1973 10.9959" stroke="#1F1A54" stroke-width="0.8" stroke-linecap="round"/>
</svg>
