<svg width="375" height="280" viewBox="0 0 375 280" fill="none" xmlns="http://www.w3.org/2000/svg">
<path d="M78 118.055C83.8354 117.679 89.6174 117.626 95.4527 118.001C141.922 120.953 215.695 162.336 227.687 151.386C228.972 150.206 230.311 148.381 229.293 145.912C228.651 144.301 225.492 142.476 222.655 143.979C219.818 145.482 217.729 148.971 220.245 154.123C222.762 159.33 229.026 161.37 234.754 162.175C243.962 163.463 253.331 158.096 262.646 150.904C270.462 144.892 284.596 133.621 297.124 125.676" stroke="#FFD400" stroke-width="0.8" stroke-miterlimit="10" stroke-linecap="round" stroke-dasharray="4 4"/>
<path d="M166.675 85.1433C167.359 80.7909 164.71 55.7753 169.41 50.8787C175.222 44.8941 186.075 42.2645 189.75 48.8838C189.75 48.8838 192.655 49.6999 193.595 52.8736C195.476 59.4023 194.963 74.3029 197.612 85.6375L166.675 85.1433Z" fill="#1F1A54" stroke="#1F1A54" stroke-width="0.8" stroke-miterlimit="10" stroke-linecap="round" stroke-linejoin="round"/>
<path d="M167.331 58.5324C167.737 54.8585 168.287 51.6798 169.801 50.1659C175.22 44.9069 185.419 42.5962 188.765 48.4129C188.765 48.4129 191.475 49.13 192.351 51.9189C192.909 53.5922 193.228 55.8233 193.467 58.2137C194.377 67.3108 194.824 72.8885 186.059 73.2869C186.059 73.2869 171.716 74.4821 169.801 72.49C167.314 70.2555 166.537 65.7171 167.331 58.5324Z" fill="#1F1A54" stroke="#1F1A54" stroke-width="0.8" stroke-miterlimit="10" stroke-linecap="round" stroke-linejoin="round"/>
<path d="M185.738 59.7279C186.057 59.0904 186.774 57.8952 188.208 57.2578C190.2 56.3813 192.511 58.692 191.873 61.8793C191.395 64.5088 189.244 65.943 186.455 66.3414V74.5486L188.208 75.2657C188.208 75.2657 187.889 77.3374 187.411 78.2936C185.021 83.5526 179.682 84.4291 177.77 83.8713C174.184 82.9948 172.989 79.6482 173.626 77.0984C173.706 76.8593 173.786 76.4609 173.865 76.1422C173.945 75.8235 174.025 75.5048 174.025 75.5048L175.857 74.947V71.6004C175.3 71.3613 174.742 71.0426 174.184 70.6442C172.511 69.3693 171.316 67.0586 170.997 63.7119C170.758 60.9231 170.917 57.4171 171.077 54.7876C172.909 54.2299 175.698 50.8833 175.698 50.8833C175.698 50.8833 177.292 53.9908 180.32 55.7438C183.905 57.6562 185.738 59.7279 185.738 59.7279Z" fill="white"/>
<path d="M189.244 59.9668C189.244 59.9668 187.57 60.2058 187.331 62.8353" stroke="#1F1A54" stroke-width="0.8" stroke-miterlimit="10" stroke-linecap="round"/>
<path d="M175.858 71.6003V74.9469L174.025 75.5047C174.025 75.5047 173.945 75.7437 173.866 76.1421C173.786 76.4608 173.706 76.8592 173.627 77.0983C172.989 79.6481 174.184 82.915 177.77 83.8712C179.682 84.3493 185.021 83.4728 187.411 78.2935C187.81 77.3373 188.208 75.2656 188.208 75.2656L186.455 74.5485V66.3413" stroke="#1F1A54" stroke-width="0.8" stroke-miterlimit="10" stroke-linecap="round" stroke-linejoin="round"/>
<path d="M185.579 60.2058C185.579 60.2058 185.658 60.0464 185.818 59.7277C186.136 59.0902 186.854 57.895 188.288 57.2576C190.28 56.3811 192.591 58.6918 191.953 61.8791C191.475 64.5085 189.324 65.9428 186.535 66.3412" stroke="#1F1A54" stroke-width="0.8" stroke-miterlimit="10" stroke-linecap="round" stroke-linejoin="round"/>
<path d="M185.738 59.7275C185.738 59.7275 183.905 57.6558 180.24 55.6638C177.212 53.9108 175.618 50.8032 175.618 50.8032C175.618 50.8032 172.829 54.1499 170.997 54.7076" stroke="#1F1A54" stroke-width="0.8" stroke-miterlimit="10" stroke-linecap="round" stroke-linejoin="round"/>
<path d="M171.077 54.7075C170.917 57.4167 170.758 60.9227 170.997 63.7115C171.316 67.0581 172.511 69.3689 174.184 70.6438C174.822 71.1219 175.379 71.4406 175.857 71.6C177.212 72.1577 178.248 71.9984 178.885 71.839C178.959 71.8208 178.9 71.839 179.124 71.7593C180.273 71.3514 181.515 70.8828 182.391 70.086" stroke="#1F1A54" stroke-width="0.8" stroke-miterlimit="10" stroke-linecap="round" stroke-linejoin="round"/>
<path d="M179.23 58.8511C179.038 58.8731 178.863 58.9684 178.739 59.1168C178.617 59.2653 178.555 59.4555 178.569 59.6479C178.556 59.8445 178.617 60.0386 178.739 60.1931C178.861 60.3477 179.036 60.4515 179.23 60.4845C179.421 60.448 179.593 60.3427 179.712 60.1886C179.83 60.0344 179.888 59.8422 179.876 59.6479C179.889 59.4579 179.83 59.2697 179.711 59.1218C179.59 58.9737 179.419 58.8769 179.23 58.8511Z" fill="#1F1A54"/>
<path d="M173.619 58.8511C173.427 58.8731 173.251 58.9684 173.129 59.1168C173.005 59.2653 172.944 59.4555 172.957 59.6479C172.945 59.8445 173.006 60.0386 173.128 60.1931C173.25 60.3477 173.425 60.4515 173.619 60.4845C173.81 60.448 173.981 60.3427 174.1 60.1886C174.219 60.0344 174.278 59.8422 174.264 59.6479C174.278 59.4579 174.219 59.2697 174.099 59.1218C173.98 58.9737 173.807 58.8769 173.619 58.8511Z" fill="#1F1A54"/>
<path d="M181.438 64.5884C181.251 65.2734 180.877 65.8933 180.36 66.3797C179.843 66.8663 179.2 67.2004 178.505 67.3454" stroke="#1F1A54" stroke-width="0.8" stroke-linecap="round" stroke-linejoin="round"/>
<path d="M177.159 63.4648C176.89 63.6045 176.592 63.6774 176.29 63.6774C175.987 63.6774 175.689 63.6045 175.422 63.4648" stroke="#1F1A54" stroke-width="0.8" stroke-linecap="round" stroke-linejoin="round"/>
<path d="M180.657 57.3774C180.269 57.1373 179.822 57.0129 179.366 57.0188C178.877 57.0137 178.399 57.1583 177.995 57.4332" stroke="#1F1A54" stroke-width="0.8" stroke-linecap="round" stroke-linejoin="round"/>
<path d="M174.975 57.3774C174.588 57.1373 174.14 57.0129 173.684 57.0188C173.196 57.0137 172.718 57.1583 172.314 57.4332" stroke="#1F1A54" stroke-width="0.8" stroke-linecap="round" stroke-linejoin="round"/>
<path d="M176.582 224.952C163.116 224.952 152.2 223.989 152.2 222.801C152.2 221.613 163.116 220.649 176.582 220.649C190.049 220.649 200.965 221.613 200.965 222.801C200.965 223.989 190.049 224.952 176.582 224.952Z" fill="#FFEB86"/>
<path d="M156.024 218.418C156.024 218.418 155.785 218.737 156.024 219.773C156.343 221.287 157.698 222.403 162.08 222.403C164.949 222.403 178.734 221.845 180.088 221.685C181.443 221.526 180.327 219.454 179.769 217.781C179.769 217.781 161.682 220.809 158.335 220.092C156.821 219.773 155.945 219.136 156.024 218.418Z" fill="white"/>
<path d="M166.543 214.116C165.985 214.434 165.348 214.673 164.79 214.912C164.392 215.072 163.993 215.231 163.674 215.311C163.435 215.39 163.196 215.47 162.878 215.55C161.682 215.948 160.407 216.267 159.531 216.506C158.336 216.825 157.061 217.064 156.503 217.622C156.184 217.94 156.025 218.179 156.025 218.418C155.945 219.135 156.822 219.693 158.336 220.092C161.762 220.888 179.77 217.781 179.77 217.781C179.77 217.781 179.451 216.506 179.053 214.195C179.053 214.195 178.814 214.275 178.415 214.355C177.698 214.514 176.344 214.673 174.83 214.116C173.555 213.717 172.2 213 171.244 212.363C170.527 211.884 170.049 211.486 170.129 211.406C169.81 211.805 169.252 212.283 168.615 212.761C167.977 213.319 167.34 213.717 166.543 214.116Z" fill="white"/>
<path d="M171.164 207.821L171.244 212.283L171.164 212.442C172.12 213.08 173.555 213.797 174.75 214.195C176.343 214.673 177.618 214.594 178.335 214.434L178.256 214.195V207.821H171.164Z" fill="#FFD400"/>
<path d="M156.025 218.418C155.945 219.136 156.822 219.693 158.336 220.092C161.762 220.889 179.77 217.781 179.77 217.781C179.77 217.781 179.451 216.506 179.053 214.195" stroke="#1F1A54" stroke-width="0.8" stroke-miterlimit="10" stroke-linecap="round" stroke-linejoin="round"/>
<path d="M179.053 214.195C179.053 214.195 178.814 214.275 178.415 214.355C177.698 214.514 176.344 214.673 174.83 214.116C173.555 213.717 172.2 213 171.244 212.363C170.527 211.884 170.049 211.486 170.128 211.406C169.81 211.805 169.252 212.283 168.614 212.761C168.057 213.159 167.419 213.558 166.702 213.956C166.144 214.275 165.507 214.514 164.949 214.753C164.551 214.912 164.152 215.072 163.834 215.151C163.595 215.231 163.356 215.311 163.037 215.39C161.842 215.789 160.567 216.108 159.69 216.347C158.495 216.665 157.22 216.904 156.662 217.462C156.344 217.781 156.184 218.02 156.184 218.259" stroke="#1F1A54" stroke-width="0.8" stroke-miterlimit="10" stroke-linecap="round" stroke-linejoin="round"/>
<path d="M156.024 218.419C156.024 218.419 155.785 218.737 156.024 219.853C156.343 221.367 157.698 222.482 162.08 222.482C164.949 222.482 178.734 221.925 180.088 221.765C181.443 221.606 180.327 219.534 179.769 217.861" stroke="#1F1A54" stroke-width="0.8" stroke-miterlimit="10" stroke-linecap="round" stroke-linejoin="round"/>
<path d="M169.331 213.797L168.534 212.92L167.738 212.044" stroke="#1F1A54" stroke-width="0.8" stroke-miterlimit="10" stroke-linecap="round" stroke-linejoin="round"/>
<path d="M167.339 215.151L166.542 214.116L165.984 213.239" stroke="#1F1A54" stroke-width="0.8" stroke-miterlimit="10" stroke-linecap="round" stroke-linejoin="round"/>
<path d="M165.507 216.028L164.789 214.912L164.232 213.956" stroke="#1F1A54" stroke-width="0.8" stroke-miterlimit="10" stroke-linecap="round" stroke-linejoin="round"/>
<path d="M163.594 216.745L162.877 215.55L162.319 214.673" stroke="#1F1A54" stroke-width="0.8" stroke-miterlimit="10" stroke-linecap="round" stroke-linejoin="round"/>
<path d="M178.335 214.195V207.821H171.164L171.244 212.283" stroke="#1F1A54" stroke-width="0.8" stroke-miterlimit="10" stroke-linecap="round" stroke-linejoin="round"/>
<path d="M172.997 219.773C172.997 219.773 172.758 220.092 172.997 221.128C173.316 222.641 174.67 223.757 179.053 223.757C181.921 223.757 195.706 223.199 197.061 223.04C198.415 222.881 197.3 220.809 196.742 219.135C196.742 219.135 178.654 222.163 175.308 221.446C173.714 221.128 172.917 220.49 172.997 219.773Z" fill="white"/>
<path d="M183.515 215.47C182.957 215.789 182.32 216.028 181.762 216.267C181.364 216.426 180.965 216.586 180.646 216.665C180.407 216.745 180.168 216.825 179.85 216.904C178.654 217.303 177.38 217.622 176.503 217.861C175.308 218.179 174.033 218.418 173.475 218.976C173.156 219.295 172.997 219.534 172.997 219.773C172.917 220.49 173.794 221.048 175.308 221.446C178.734 222.243 196.742 219.135 196.742 219.135C196.742 219.135 196.423 217.861 196.025 215.55C196.025 215.55 195.786 215.63 195.387 215.709C194.67 215.869 193.316 216.028 191.802 215.47C190.527 215.072 189.172 214.355 188.216 213.717C187.499 213.239 187.021 212.841 187.101 212.761C186.782 213.159 186.224 213.637 185.587 214.116C184.949 214.673 184.232 215.072 183.515 215.47Z" fill="white"/>
<path d="M188.137 209.255L188.216 213.717L188.137 213.877C189.093 214.514 190.527 215.231 191.722 215.63C193.316 216.108 194.591 216.028 195.308 215.869L195.228 215.63V209.255H188.137Z" fill="#FFD400"/>
<path d="M172.997 219.773C172.917 220.49 173.794 221.048 175.308 221.446C178.734 222.243 196.742 219.136 196.742 219.136C196.742 219.136 196.423 217.861 196.025 215.55" stroke="#1F1A54" stroke-width="0.8" stroke-miterlimit="10" stroke-linecap="round" stroke-linejoin="round"/>
<path d="M196.025 215.55C196.025 215.55 195.786 215.63 195.387 215.709C194.67 215.869 193.316 216.028 191.802 215.47C190.527 215.072 189.172 214.355 188.216 213.717C187.499 213.239 187.021 212.841 187.1 212.761C186.782 213.159 186.224 213.637 185.587 214.116C185.029 214.514 184.391 214.912 183.674 215.311C183.116 215.63 182.479 215.869 181.921 216.108C181.523 216.267 181.124 216.426 180.806 216.506C180.567 216.586 180.328 216.665 180.009 216.745C178.814 217.143 177.539 217.462 176.662 217.701C175.467 218.02 174.192 218.259 173.634 218.817C173.316 219.135 173.156 219.375 173.156 219.614" stroke="#1F1A54" stroke-width="0.8" stroke-miterlimit="10" stroke-linecap="round" stroke-linejoin="round"/>
<path d="M172.997 219.773C172.997 219.773 172.758 220.092 172.997 221.207C173.316 222.721 174.67 223.837 179.053 223.837C181.921 223.837 195.706 223.279 197.061 223.119C198.415 222.96 197.3 220.888 196.742 219.215" stroke="#1F1A54" stroke-width="0.8" stroke-miterlimit="10" stroke-linecap="round" stroke-linejoin="round"/>
<path d="M186.224 215.151L185.507 214.275L184.71 213.398" stroke="#1F1A54" stroke-width="0.8" stroke-miterlimit="10" stroke-linecap="round" stroke-linejoin="round"/>
<path d="M184.312 216.506L183.515 215.47L182.877 214.594" stroke="#1F1A54" stroke-width="0.8" stroke-miterlimit="10" stroke-linecap="round" stroke-linejoin="round"/>
<path d="M182.479 217.382L181.762 216.267L181.125 215.311" stroke="#1F1A54" stroke-width="0.8" stroke-miterlimit="10" stroke-linecap="round" stroke-linejoin="round"/>
<path d="M180.567 218.1L179.849 216.984L179.212 216.028" stroke="#1F1A54" stroke-width="0.8" stroke-miterlimit="10" stroke-linecap="round" stroke-linejoin="round"/>
<path d="M195.308 215.55V209.255H188.137L188.216 213.717" stroke="#1F1A54" stroke-width="0.8" stroke-miterlimit="10" stroke-linecap="round" stroke-linejoin="round"/>
<path d="M181.044 159.295L179.77 173.638L181.124 207.9H169.889C169.013 192.681 168.295 182.801 167.817 174.753C166.781 158.418 165.507 152.761 164.869 141.446C164.232 130.769 168.614 113.08 168.614 113.08C168.614 113.08 171.323 113.876 177.06 114.116C181.363 114.275 185.586 114.116 191.323 113C191.323 113 196.742 127.024 197.22 131.885C198.415 142.881 194.829 174.116 194.829 174.116L196.742 209.255H186.303L182.558 173.717L181.044 159.295Z" fill="#1F1A54"/>
<path d="M181.045 159.215L179.849 147.422L178.256 142.801" stroke="#1F1A54" stroke-width="0.8" stroke-miterlimit="10" stroke-linecap="round" stroke-linejoin="round"/>
<path d="M181.044 159.295L179.77 173.638L181.124 207.9H169.889C169.013 192.681 168.295 182.801 167.817 174.753C166.781 158.418 165.507 152.761 164.869 141.446C164.232 130.769 168.614 113.08 168.614 113.08C168.614 113.08 171.323 113.876 177.06 114.116C181.363 114.275 185.586 114.116 191.323 113C191.323 113 196.742 127.024 197.22 131.885C198.415 142.881 194.829 174.116 194.829 174.116L196.742 209.255H186.303L182.558 173.717L181.044 159.295Z" stroke="#1F1A54" stroke-width="0.8" stroke-miterlimit="10" stroke-linecap="round" stroke-linejoin="round"/>
<path d="M181.045 159.295V159.215" stroke="#1F1A54" stroke-width="0.8" stroke-miterlimit="10" stroke-linecap="round" stroke-linejoin="round"/>
<path d="M181.204 165.43L179.451 147.661L177.778 143.04" stroke="#FFD400" stroke-width="0.5" stroke-linecap="round" stroke-linejoin="round"/>
<path d="M138.648 94.0041C138.648 94.0041 138.648 94.0041 140.162 95.1994C140.321 95.3587 140.48 95.4384 140.64 95.5181C141.755 96.2352 142.871 96.5539 143.827 96.9523C147.333 98.3866 160.321 98.9444 162.871 100.14C162.95 100.538 163.03 92.0121 163.03 92.0121L172.273 91.6934" stroke="#1F1A54" stroke-width="0.703" stroke-miterlimit="10" stroke-linecap="round" stroke-linejoin="round"/>
<path d="M130.122 101.175C130.122 101.175 129.962 101.255 130.122 101.813C130.52 104.283 136.337 103.088 136.337 103.088C138.648 102.769 140.719 102.769 140.719 102.769C142.711 102.928 148.369 103.964 154.026 106.275C158.727 108.187 163.508 109.781 166.138 109.144C170.998 108.028 172.273 91.7729 172.273 91.7729L162.95 92.0119C162.95 92.0119 162.871 100.618 162.871 100.14C160.321 98.9442 147.333 98.3864 143.827 96.9522C142.791 96.5538 141.436 96.1554 140.161 95.1992C139.046 94.3227 137.93 93.6056 137.293 92.49C136.656 91.3745 136.576 89.7012 136.257 89.2231C136.018 88.9044 135.62 89.0637 135.381 89.2231C133.787 90.498 136.018 95.1195 133.946 94.8805C133.229 94.8008 131.397 94.8008 130.44 95.0398C129.405 95.3586 129.006 95.996 129.086 96.4741C129.165 96.8725 129.405 97.1115 129.723 97.2709C129.723 97.2709 129.086 97.749 129.086 98.3068C129.086 98.7849 129.325 99.0239 129.564 99.1833C129.564 99.1833 129.405 99.5817 129.484 100.14C129.564 100.697 129.803 101.016 130.122 101.175Z" fill="white"/>
<path d="M131.317 99.4224C131.317 99.4224 129.962 99.4224 129.484 99.1833C129.245 99.024 129.086 98.7849 129.006 98.3069C128.926 97.7491 129.644 97.271 129.644 97.271" stroke="#1F1A54" stroke-width="0.703" stroke-miterlimit="10" stroke-linecap="round" stroke-linejoin="round"/>
<path d="M130.122 101.175C130.122 101.175 129.962 101.255 130.122 101.813C130.52 104.283 136.337 103.088 136.337 103.088C138.648 102.769 140.719 102.769 140.719 102.769C142.711 102.928 163.508 109.781 166.138 109.144C170.998 108.028 172.273 91.7729 172.273 91.7729L162.95 92.0119C162.95 92.0119 162.871 100.618 162.871 100.14C160.321 98.9442 147.333 98.3864 143.827 96.9522C142.791 96.5538 141.436 96.1554 140.161 95.1992C139.046 94.3227 137.93 93.6056 137.293 92.49C136.656 91.3745 136.576 89.7012 136.257 89.2231C136.018 88.9044 135.62 89.0637 135.381 89.2231C133.787 90.498 136.098 94.7211 134.504 94.8008C133.787 94.8805 131.397 94.8008 130.44 95.1195C129.405 95.4382 129.006 96.0757 129.086 96.5538C129.165 96.9522 129.405 97.1912 129.723 97.3506C130.122 97.51 130.839 97.5896 130.839 97.5896" stroke="#1F1A54" stroke-width="0.703" stroke-miterlimit="10" stroke-linecap="round" stroke-linejoin="round"/>
<path d="M131.716 101.335C131.716 101.335 130.441 101.335 130.202 101.175C129.883 101.016 129.564 100.697 129.405 100.14C129.325 99.5816 129.485 99.1831 129.485 99.1831" stroke="#1F1A54" stroke-width="0.703" stroke-miterlimit="10" stroke-linecap="round" stroke-linejoin="round"/>
<path d="M136.018 96.3145C136.018 96.3145 136.178 98.3862 139.524 98.8643" stroke="#1F1A54" stroke-width="0.703" stroke-miterlimit="10" stroke-linecap="round" stroke-linejoin="round"/>
<path d="M130.68 97.59H133.787C134.425 97.59 134.903 97.1916 134.903 96.6339C134.903 96.0761 134.425 95.6777 133.707 95.6777H131.317" stroke="#1F1A54" stroke-width="0.703" stroke-miterlimit="10" stroke-linecap="round" stroke-linejoin="round"/>
<path d="M131.078 99.502H134.185C134.823 99.502 135.301 99.1036 135.301 98.5459C135.301 97.9881 134.743 97.6694 134.106 97.6694H131.715" stroke="#1F1A54" stroke-width="0.7098" stroke-miterlimit="10" stroke-linecap="round" stroke-linejoin="round"/>
<path d="M130.36 101.335H133.787C134.504 101.335 134.982 100.936 134.982 100.378C134.982 99.8207 134.424 99.502 133.707 99.502H131.078" stroke="#1F1A54" stroke-width="0.7398" stroke-miterlimit="10" stroke-linecap="round" stroke-linejoin="round"/>
<path d="M131.795 103.168H133.468C134.106 103.168 134.584 102.769 134.584 102.211C134.584 101.654 134.106 101.335 133.389 101.335H130.998" stroke="#1F1A54" stroke-width="0.6871" stroke-miterlimit="10" stroke-linecap="round" stroke-linejoin="round"/>
<path d="M190.6 91.4542L192.911 99.1036L203.19 96.3944C203.19 96.3944 200.879 83.4861 199.126 80.6175C197.214 77.4303 188.369 74.8008 188.369 74.8008C188.369 74.8008 188.05 76.8725 187.572 77.8287C185.182 83.0877 179.843 83.9642 177.851 83.4064C174.266 82.5299 173.07 79.1833 173.708 76.6335C173.867 76.1554 174.106 75.0398 174.106 75.0398C174.106 75.0398 171.238 75.5179 169.485 75.8367C161.596 77.3506 159.046 91.1355 159.046 91.1355L158.728 93.0478C158.728 93.0478 161.676 90.7371 163.03 92.0916C164.305 93.4462 167.174 103.008 167.811 106.355C168.688 110.657 168.688 112.968 168.688 112.968C168.688 112.968 170.839 113.765 176.258 114.004C180.321 114.323 186.138 114.163 191.477 113.128L194.425 99.502" fill="#FFD400"/>
<path d="M190.6 91.4542L192.911 99.1036L203.19 96.3944C203.19 96.3944 200.879 83.4861 199.126 80.6175C197.214 77.4303 188.369 74.8008 188.369 74.8008C188.369 74.8008 188.05 76.8725 187.572 77.8287C185.182 83.0877 179.843 83.9642 177.851 83.4064C174.266 82.5299 173.07 79.1833 173.708 76.6335C173.867 76.1554 174.106 75.0398 174.106 75.0398C174.106 75.0398 171.238 75.5179 169.485 75.8367C161.596 77.3506 159.046 91.1355 159.046 91.1355L158.728 93.0478C158.728 93.0478 161.676 90.7371 163.03 92.0916C164.305 93.4462 167.174 103.008 167.811 106.355C168.688 110.657 168.688 112.968 168.688 112.968C168.688 112.968 170.839 113.765 176.258 114.004C180.321 114.323 186.138 114.163 191.477 113.128L194.425 99.502" stroke="#1F1A54" stroke-width="0.8" stroke-miterlimit="10" stroke-linecap="round" stroke-linejoin="round"/>
<path d="M160.388 86.3548C160.749 85.3429 161.19 84.2519 161.722 83.1675H177.081C177.324 83.2602 177.581 83.3402 177.851 83.4063C178.667 83.6347 180.044 83.6226 181.549 83.1675H200.161C200.462 84.1132 200.764 85.208 201.054 86.3548H160.388Z" fill="#1F1A54"/>
<path d="M163.811 93.4466C163.516 92.8009 163.25 92.3248 163.03 92.0917C161.676 90.7371 158.728 93.0479 158.728 93.0479L159.046 91.1355C159.046 91.1355 159.106 90.8123 159.236 90.2593H201.964C202.215 91.413 202.44 92.5088 202.627 93.4466H163.811Z" fill="#1F1A54"/>
<path d="M166.274 100.459C165.954 99.3878 165.61 98.2981 165.264 97.2715H199.863L194.088 98.7936L194.425 99.5023L194.218 100.459H166.274Z" fill="#1F1A54"/>
<path d="M168.042 107.55C167.973 107.171 167.896 106.772 167.811 106.355C167.711 105.827 167.554 105.144 167.358 104.363H193.373L192.683 107.55H168.042Z" fill="#1F1A54"/>
<path d="M191.856 111.375L191.477 113.128C186.138 114.163 180.321 114.323 176.257 114.004C170.839 113.765 168.688 112.968 168.688 112.968C168.688 112.968 168.688 112.425 168.588 111.375H191.856Z" fill="#1F1A54"/>
<path d="M192.172 76.1558C194.17 76.9643 196.504 78.0786 197.989 79.343H186.729C187.038 78.8843 187.321 78.3806 187.572 77.8288C187.787 77.3997 187.969 76.7461 188.105 76.1558H192.172Z" fill="#1F1A54"/>
<path d="M168.332 76.1558H173.844C173.797 76.3379 173.75 76.5078 173.708 76.6336C173.494 77.4882 173.486 78.4324 173.705 79.343H164.117C165.279 77.9228 166.674 76.7609 168.332 76.1558Z" fill="#1F1A54"/>
<path d="M173.867 114.004C174.584 114.083 175.301 114.083 176.178 114.163C178.489 114.243 181.437 114.243 184.624 114.004H173.867Z" fill="#1F1A54"/>
<path d="M161.278 92.8091L161.756 93.1278C161.756 93.1278 161.756 92.9684 161.756 92.8091H161.278Z" fill="#1F1A54"/>
<path d="M188.21 74.8806H188.369C188.289 74.8009 188.289 74.8009 188.21 74.8806C188.289 74.8009 188.289 74.8009 188.21 74.8806Z" fill="#1F1A54"/>
<path d="M172.99 107.391L173.867 111.375L159.205 110.259L154.186 90.7373H169.166L172.114 102.211" fill="white"/>
<path d="M172.99 107.391L173.867 111.375L159.205 110.259L154.186 90.7373H169.166L172.114 102.211" stroke="#1F1A54" stroke-width="0.8" stroke-miterlimit="10" stroke-linecap="round" stroke-linejoin="round"/>
<path d="M173.07 99.1035C174.664 99.1832 176.178 99.5816 177.612 100.299C179.206 101.095 182.791 102.45 184.783 102.769C189.883 103.566 192.512 103.645 195.779 104.203L194.345 98.7848L202.712 96.5537C202.712 96.5537 207.333 113.127 198.728 112.171C192.512 111.534 184.305 108.506 180.162 107.629C179.923 107.55 179.763 107.55 179.524 107.55C177.612 107.39 176.098 107.231 174.903 107.39C174.265 107.47 173.628 107.47 173.07 107.39C171.397 107.072 168.05 106.514 167.254 105.956C166.058 105.239 163.748 101.892 163.748 101.892C163.748 101.892 163.668 99.9003 165.979 101.175C168.289 102.45 171.317 102.689 172.273 102.131C172.831 101.813 173.15 101.494 172.114 101.175L171.477 99.0238C171.317 99.1035 172.592 99.1035 173.07 99.1035Z" fill="white" stroke="#1F1A54" stroke-width="0.8" stroke-miterlimit="10" stroke-linecap="round" stroke-linejoin="round"/>
<path d="M169.723 104.522C168.847 104.203 166.217 103.566 165.421 103.008L163.668 101.892" fill="white"/>
<path d="M169.723 104.522C168.847 104.203 166.217 103.566 165.421 103.008L163.668 101.892" stroke="#1F1A54" stroke-width="0.8" stroke-miterlimit="10" stroke-linecap="round" stroke-linejoin="round"/>
<path d="M170.122 105.717C170.122 105.717 167.333 105.239 165.421 104.203L170.122 105.717Z" fill="white"/>
<path d="M170.122 105.717C170.122 105.717 167.333 105.239 165.421 104.203" stroke="#1F1A54" stroke-width="0.8" stroke-miterlimit="10" stroke-linecap="round" stroke-linejoin="round"/>
<path d="M119.78 59.736V49.7059H126.448M126.448 49.7059H145.308V59.7279M126.448 49.7059L131.255 47.2575C131.596 47.0853 131.974 46.9956 132.356 46.9956C132.739 46.9956 133.116 47.0853 133.458 47.2575L138.355 49.7058L126.448 49.7059ZM149.017 56.0065V72.1493C149.018 72.42 148.966 72.6884 148.863 72.9388C148.76 73.1893 148.609 73.417 148.419 73.6088C148.228 73.8006 148.001 73.9529 147.752 74.0567C147.502 74.1606 147.234 74.2141 146.964 74.2141H118.07C117.524 74.2141 117 73.9965 116.613 73.6093C116.227 73.2221 116.009 72.6969 116.009 72.1493V56.0065M145.308 53.1578L147.756 54.3983C148.151 54.5687 148.484 54.8552 148.711 55.2197C148.939 55.5843 149.05 56.0094 149.03 56.4386C149.045 56.8564 148.936 57.2694 148.717 57.6253C148.497 57.9812 148.177 58.264 147.797 58.4381L136.347 64.2978M128.741 64.1512L117.274 58.5036C116.864 58.321 116.521 58.0141 116.294 57.626C116.067 57.238 115.967 56.7885 116.009 56.3409C116.013 55.9365 116.131 55.5413 116.351 55.2017C116.571 54.862 116.882 54.592 117.25 54.4231L119.78 53.1336M117.266 70.0027L131.271 62.8617C131.612 62.6908 131.987 62.6018 132.369 62.6018C132.75 62.6018 133.126 62.6908 133.466 62.8617L147.805 70.0027C148.259 70.2298 148.621 70.6053 148.831 71.0666C149.041 71.528 149.087 72.0474 148.961 72.5386C148.836 73.0298 148.545 73.463 148.139 73.7663C147.733 74.0696 147.235 74.2247 146.728 74.2057H118.376C117.867 74.2331 117.363 74.0839 116.95 73.7834C116.538 73.4829 116.241 73.0494 116.111 72.5559C115.981 72.0623 116.024 71.539 116.235 71.074C116.445 70.6089 116.81 70.2306 117.266 70.0027Z" stroke="#1F1A54" stroke-width="0.8" stroke-linecap="round" stroke-linejoin="round"/>
<path d="M148.305 76.7504C152.53 76.7504 155.956 73.3249 155.956 69.0993C155.956 64.8738 152.53 61.4482 148.305 61.4482C144.079 61.4482 140.654 64.8738 140.654 69.0993C140.654 73.3249 144.079 76.7504 148.305 76.7504Z" fill="white"/>
<path d="M148.305 75.8998C152.061 75.8998 155.106 72.8549 155.106 69.0988C155.106 65.3428 152.061 62.2979 148.305 62.2979C144.549 62.2979 141.504 65.3428 141.504 69.0988C141.504 72.8549 144.549 75.8998 148.305 75.8998Z" fill="#FFD400"/>
<path d="M145.754 69.1622L147.623 71.0475L151.279 67.3994" stroke="#1F1A54" stroke-width="1.2" stroke-linecap="round" stroke-linejoin="round"/>
<path d="M132.253 37V41.9468" stroke="#1F1A54" stroke-width="0.8" stroke-linecap="round"/>
<path d="M120.098 40.4976L123.596 43.9954" stroke="#1F1A54" stroke-width="0.8" stroke-linecap="round"/>
<path d="M144.195 40.4976L140.697 43.9954" stroke="#1F1A54" stroke-width="0.8" stroke-linecap="round"/>
</svg>
