<svg width="190" height="190" viewBox="0 0 190 190" fill="none" xmlns="http://www.w3.org/2000/svg">
<path d="M21.6119 139.572C20.817 139.118 20.1356 138.437 19.6814 137.642C19.2271 136.847 19 135.939 19 135.03V55.1971C19 54.2886 19.2271 53.3801 19.6814 52.5852C20.1356 51.7903 20.817 51.1089 21.6119 50.6546L90.5431 10.6814C91.338 10.2271 92.2465 10 93.155 10C94.0635 10 94.9719 10.2271 95.7669 10.6814L164.925 50.6546C165.72 51.1089 166.401 51.7903 166.969 52.5852C167.537 53.3801 167.651 54.2886 167.651 55.1971V135.03C167.651 135.939 167.424 136.847 166.969 137.642C166.515 138.437 165.834 139.118 165.039 139.572L95.994 179.319C95.1991 179.773 94.2906 180 93.3821 180C92.4736 180 91.5651 179.773 90.7702 179.319L21.6119 139.572Z" stroke="#FFD400" stroke-miterlimit="10" stroke-linecap="round" stroke-dasharray="7 7"/>
<path d="M105.874 54.6282L90.316 51.2214C82.9346 49.6315 75.8939 54.4011 74.304 61.6689C72.7142 69.0504 77.4837 76.0911 84.7516 77.681L100.309 81.0878C107.691 82.6776 114.732 77.9081 116.321 70.6402C118.025 63.4859 113.255 56.218 105.874 54.6282Z" fill="#FFD400"/>
<path d="M82.0261 76.5449C82.0261 76.5449 80.0956 79.0433 79.8684 82.6772" stroke="#1F1A54" stroke-miterlimit="10" stroke-linecap="round"/>
<path d="M57.9513 82.5647L49.3207 117.655C48.7529 119.585 50.002 121.743 51.819 122.084L111.098 136.506C113.028 137.074 114.845 135.597 115.299 133.667L124.498 96.4191C125.066 94.2614 123.93 92.3309 121.999 91.8767L62.8344 77.4545C60.9038 76.8867 59.0869 78.363 58.6326 80.2935L57.9513 82.5647Z" fill="white" stroke="#1F1A54" stroke-linecap="round" stroke-linejoin="round"/>
<path d="M115.526 133.099C116.094 131.168 115.526 128.783 114.277 127.534L92.5872 108.343" stroke="#1F1A54" stroke-linecap="round" stroke-linejoin="round"/>
<path d="M53.6359 122.538L109.621 136.165" stroke="#1F1A54" stroke-linecap="round" stroke-linejoin="round"/>
<path d="M81.3448 105.617L53.2953 112.771C51.7055 113.112 50.6834 114.474 50.0021 115.61" stroke="#1F1A54" stroke-linecap="round" stroke-linejoin="round"/>
<path d="M120.864 91.5365L64.1971 77.6821" stroke="#1F1A54" stroke-linecap="round" stroke-linejoin="round"/>
<path d="M58.0648 82.1104C57.9513 83.8138 58.6326 85.4036 59.7683 86.4257L84.2973 108.116C85.5465 109.138 87.2499 109.706 88.8397 109.138L120.637 101.416C121.772 101.075 123.135 100.053 123.816 99.1444" stroke="#1F1A54" stroke-linecap="round" stroke-linejoin="round"/>
<path d="M93.8364 77.4541C93.8364 77.4541 91.9058 79.9524 91.6787 83.5864" stroke="#1F1A54" stroke-miterlimit="10" stroke-linecap="round"/>
<path d="M105.874 54.6282L90.3161 51.2214C82.9346 49.6315 75.8939 54.4011 74.304 61.6689C72.7142 69.0504 77.4837 76.0911 84.7516 77.681L100.309 81.0878C107.691 82.6776 114.732 77.9081 116.321 70.6402C118.025 63.4859 113.255 56.218 105.874 54.6282Z" fill="#FFD400"/>
<path d="M98.4924 59.7376L97.9246 59.2834C95.994 57.1257 96.1076 53.8325 98.2652 51.9019L104.397 46.2239C106.555 44.2934 109.848 44.4069 111.779 46.5646L112.347 47.1324C114.277 49.29 114.164 52.5833 112.006 54.5138L105.874 60.1918C103.716 62.1224 100.423 61.8952 98.4924 59.7376Z" fill="white" stroke="#1F1A54" stroke-miterlimit="10" stroke-linecap="round"/>
<path d="M98.4924 60.8737H97.811C94.972 60.533 92.7008 58.0347 93.0415 55.0821L93.7228 46.7922C94.0635 43.9532 96.5618 41.682 99.5144 42.0227H100.196C103.035 42.3634 105.306 44.8617 104.965 47.8143L104.057 56.1042C103.943 59.0568 101.218 61.2144 98.4924 60.8737Z" fill="white" stroke="#1F1A54" stroke-miterlimit="10" stroke-linecap="round"/>
<path d="M105.874 54.6282L90.3161 51.2214C82.9346 49.6315 75.8939 54.4011 74.304 61.6689C72.7142 69.0504 77.4837 76.0911 84.7516 77.681L100.309 81.0878C107.691 82.6776 114.732 77.9081 116.321 70.6402C118.025 63.4859 113.255 56.218 105.874 54.6282Z" fill="#FFD400"/>
<path d="M105.874 54.6282L90.3161 51.2214C82.9346 49.6315 75.8939 54.4011 74.304 61.6689C72.7142 69.0504 77.4837 76.0911 84.7516 77.681L100.309 81.0878C107.691 82.6776 114.732 77.9081 116.321 70.6402C118.025 63.4859 113.255 56.218 105.874 54.6282Z" fill="#FFD400"/>
<path d="M111.967 57.6537C113.466 61.9334 115.665 71.9392 107.739 80.5772C111.964 79.0196 115.29 75.3558 116.321 70.6403C117.487 65.7468 115.623 60.8002 111.967 57.6537Z" fill="#1F1A54"/>
<path d="M98.4417 80.6788C100.236 78.8016 109.571 68.1243 104.258 54.2744L94.5728 52.1536C96.1073 56.0021 99.9161 68.6573 88.6088 78.5257L98.4417 80.6788Z" fill="#1F1A54"/>
<path d="M81.3447 64.8481C81.3447 64.8481 82.5939 66.6651 84.8651 65.7566" stroke="#1F1A54" stroke-miterlimit="10" stroke-linecap="round"/>
<path d="M89.7482 63.2587C89.5211 64.1672 88.7262 64.6214 87.8177 64.5079C86.9092 64.2808 86.455 63.4858 86.5685 62.5773C86.6821 61.6689 87.5906 61.2146 88.499 61.3282C89.4075 61.4417 89.9753 62.4638 89.7482 63.2587Z" fill="#1F1A54"/>
<path d="M88.9533 62.9171C88.9533 63.2578 88.6126 63.4849 88.2719 63.2578C87.9312 63.2578 87.7041 62.9171 87.9312 62.5764C87.9312 62.2357 88.2719 62.0086 88.6126 62.2357C88.7262 62.2357 88.9533 62.5764 88.9533 62.9171Z" fill="white"/>
<path d="M81.4583 61.5549C81.2312 62.4633 80.4363 62.9176 79.5278 62.804C78.6193 62.5769 78.1651 61.782 78.2786 60.8735C78.5057 59.965 79.3007 59.5108 80.2092 59.6243C81.0041 59.7379 81.6854 60.6464 81.4583 61.5549Z" fill="#1F1A54"/>
<path d="M80.6634 61.2142C80.6634 61.5549 80.3227 61.782 79.982 61.5549C79.6413 61.5549 79.4142 61.2142 79.6414 60.8735C79.6414 60.5328 79.982 60.3057 80.3227 60.5328C80.4363 60.5328 80.6634 60.8735 80.6634 61.2142Z" fill="white"/>
<path d="M83.2753 52.6967C83.2753 52.6967 83.5024 45.9967 78.5057 47.3594" stroke="#1F1A54" stroke-miterlimit="10" stroke-linecap="round"/>
<path d="M88.1583 53.6057C88.1583 53.6057 91.338 47.2463 87.1363 45.6565" stroke="#1F1A54" stroke-miterlimit="10" stroke-linecap="round"/>
<path d="M86.7956 77.5681C86.7956 77.5681 89.0668 79.8393 88.1584 85.1767" stroke="#1F1A54" stroke-miterlimit="10" stroke-linecap="round"/>
<path d="M97.3568 79.9526C97.3568 79.9526 99.2873 82.451 98.3788 87.5612" stroke="#1F1A54" stroke-miterlimit="10" stroke-linecap="round"/>
<path d="M119.387 73.1391C131.993 77.3409 146.301 75.8646 149.027 66.7797C149.708 64.6221 151.298 62.1238 149.254 59.2847C148.005 58.1491 146.415 57.4678 144.825 57.4678C143.122 57.4678 141.532 58.0356 140.283 59.1712C137.216 62.0102 135.74 67.1204 140.623 72.7984C145.62 78.4765 154.137 78.9307 161.632 78.0222C166.629 77.2273 171.398 75.2968 175.486 72.3442" stroke="#1F1A54" stroke-width="0.8547" stroke-miterlimit="10" stroke-linecap="round" stroke-dasharray="2.56 2.56"/>
<path d="M50.5943 177.339C60.6291 177.339 68.7639 169.205 68.7639 159.17C68.7639 149.135 60.6291 141 50.5943 141C40.5594 141 32.4246 149.135 32.4246 159.17C32.4246 169.205 40.5594 177.339 50.5943 177.339Z" fill="#FFD400"/>
<path d="M48.2928 164.872V165.656C48.2928 165.964 48.3536 166.269 48.4719 166.554C48.5902 166.839 48.7635 167.098 48.9819 167.316C49.2004 167.534 49.4597 167.706 49.7449 167.824C50.0302 167.941 50.3358 168.001 50.6443 168C50.9524 168.001 51.2577 167.941 51.5426 167.823C51.8274 167.706 52.0862 167.533 52.3041 167.315C52.522 167.098 52.6947 166.839 52.8122 166.554C52.9297 166.269 52.9897 165.964 52.9887 165.656V164.872M58.8428 163.361V164.872H42.4246V163.361C42.4241 162.847 42.5249 162.338 42.7212 161.863C42.9175 161.388 43.2054 160.956 43.5686 160.592L45.1927 158.975C45.5559 158.612 45.8438 158.18 46.0401 157.705C46.2364 157.23 46.3372 156.721 46.3367 156.207V154.308C46.3367 153.165 46.7905 152.069 47.5984 151.262C48.4062 150.454 49.5018 150 50.6443 150C51.7867 150 52.8824 150.454 53.6902 151.262C54.498 152.069 54.9518 153.165 54.9518 154.308V156.207C54.9514 156.721 55.0521 157.23 55.2484 157.705C55.4447 158.18 55.7327 158.612 56.0958 158.975L57.7129 160.592C58.4405 161.33 58.8467 162.325 58.8428 163.361Z" stroke="white" stroke-width="1.4" stroke-linecap="round" stroke-linejoin="round"/>
<path d="M47.9206 50.8105C55.5549 49.7963 60.9217 42.7853 59.9075 35.1509C58.8933 27.5165 51.8823 22.1497 44.2479 23.1639C36.6135 24.1781 31.2468 31.1891 32.261 38.8235C33.2751 46.4579 40.2862 51.8246 47.9206 50.8105Z" fill="#FFD400"/>
<path d="M40.766 39.896L53.4218 40.0558L49.0186 28.4704L39.6637 36.9957M40.766 39.896L39.6637 36.9957M40.766 39.896L39.8985 40.2257C39.5136 40.3704 39.087 40.3566 38.7122 40.1875C38.3374 40.0183 38.0449 39.7075 37.8989 39.3231C37.7529 38.9392 37.7655 38.513 37.9338 38.1384C38.1021 37.7637 38.4123 37.4713 38.7962 37.3254L39.6637 36.9957M48.242 39.9911L48.242 41.1872C48.2383 41.5142 48.105 41.8265 47.8713 42.0554C47.6377 42.2844 47.3228 42.4113 46.9958 42.4084L43.8916 42.3921C43.7291 42.3916 43.5683 42.359 43.4184 42.2963C43.2685 42.2336 43.1324 42.1419 43.018 42.0265C42.9036 41.9111 42.8131 41.7742 42.7516 41.6238C42.6902 41.4733 42.659 41.3123 42.6599 41.1498L42.6668 39.9091" stroke="white" stroke-width="1.2" stroke-linecap="round" stroke-linejoin="round"/>
<path d="M165.493 145.137C171.765 145.137 176.849 140.053 176.849 133.781C176.849 127.509 171.765 122.425 165.493 122.425C159.221 122.425 154.137 127.509 154.137 133.781C154.137 140.053 159.221 145.137 165.493 145.137Z" fill="#FFD400"/>
<path d="M167.175 134.169V133.831C167.175 133.003 166.993 132.363 166.629 131.911C166.265 131.447 165.77 131.215 165.142 131.215C164.503 131.215 164.001 131.46 163.637 131.949C163.286 132.426 163.11 133.109 163.11 134C163.11 134.891 163.292 135.581 163.656 136.07C164.032 136.547 164.528 136.785 165.142 136.785C165.77 136.785 166.265 136.559 166.629 136.108C166.993 135.643 167.175 134.997 167.175 134.169ZM165.425 141C163.417 141 161.749 140.348 160.419 139.043C159.089 137.738 158.425 136.057 158.425 134C158.425 131.955 159.083 130.28 160.4 128.976C161.73 127.659 163.405 127 165.425 127C167.482 127 169.163 127.646 170.468 128.938C171.772 130.23 172.425 131.918 172.425 134C172.425 135.016 172.236 135.982 171.86 136.898C171.735 137.199 171.528 137.437 171.239 137.613C170.951 137.776 170.637 137.858 170.298 137.858H168.209C167.946 137.858 167.72 137.77 167.532 137.594C167.356 137.406 167.262 137.18 167.25 136.917L167.231 136.785L167.212 136.766C167.2 136.766 167.193 136.772 167.193 136.785C166.579 137.6 165.757 138.008 164.728 138.008C163.8 138.008 163.047 137.657 162.47 136.954C161.906 136.252 161.623 135.267 161.623 134C161.623 132.72 161.899 131.736 162.451 131.046C163.016 130.343 163.775 129.992 164.728 129.992C165.757 129.992 166.579 130.387 167.193 131.177C167.193 131.19 167.206 131.196 167.231 131.196H167.25V130.876C167.25 130.676 167.319 130.506 167.457 130.368C167.607 130.218 167.783 130.142 167.984 130.142C168.184 130.142 168.354 130.218 168.492 130.368C168.642 130.506 168.718 130.676 168.718 130.876V136.559C168.718 136.672 168.768 136.728 168.868 136.728H170.524C170.637 136.728 170.712 136.678 170.75 136.578C171.114 135.775 171.296 134.916 171.296 134C171.296 132.244 170.756 130.826 169.677 129.747C168.598 128.668 167.181 128.129 165.425 128.129C163.693 128.129 162.282 128.675 161.191 129.766C160.099 130.858 159.554 132.269 159.554 134C159.554 135.731 160.099 137.142 161.191 138.234C162.282 139.325 163.693 139.871 165.425 139.871C166.541 139.871 167.545 139.62 168.435 139.118C168.561 139.043 168.705 139.018 168.868 139.043C169.031 139.068 169.157 139.143 169.244 139.269C169.332 139.394 169.364 139.532 169.339 139.683C169.313 139.846 169.232 139.965 169.094 140.04C168.04 140.68 166.817 141 165.425 141Z" fill="white"/>
</svg>
