<svg width="191" height="190" viewBox="0 0 191 190" fill="none" xmlns="http://www.w3.org/2000/svg">
<path d="M22.1119 139.572C21.317 139.118 20.6356 138.437 20.1814 137.642C19.7271 136.847 19.5 135.939 19.5 135.03V55.1971C19.5 54.2886 19.7271 53.3801 20.1814 52.5852C20.6356 51.7903 21.317 51.1089 22.1119 50.6546L91.0431 10.6814C91.838 10.2271 92.7465 10 93.655 10C94.5635 10 95.4719 10.2271 96.2669 10.6814L165.425 50.6546C166.22 51.1089 166.901 51.7903 167.469 52.5852C168.037 53.3801 168.151 54.2886 168.151 55.1971V135.03C168.151 135.939 167.924 136.847 167.469 137.642C167.015 138.437 166.334 139.118 165.539 139.572L96.494 179.319C95.6991 179.773 94.7906 180 93.8821 180C92.9736 180 92.0651 179.773 91.2702 179.319L22.1119 139.572Z" stroke="#FFD400" stroke-miterlimit="10" stroke-linecap="round" stroke-dasharray="7 7"/>
<path d="M106.374 54.627L90.8161 51.2202C83.4346 49.6303 76.3939 54.3999 74.804 61.6677C73.2142 69.0492 77.9837 76.0899 85.2516 77.6797L100.809 81.0866C108.191 82.6764 115.232 77.9069 116.821 70.639C118.525 63.4847 113.755 56.2168 106.374 54.627Z" fill="#FFD400"/>
<path d="M82.5261 76.5449C82.5261 76.5449 80.5955 79.0433 80.3684 82.6772" stroke="#1F1A54" stroke-miterlimit="10" stroke-linecap="round"/>
<path d="M58.4512 82.5652L49.8206 117.655C49.2528 119.586 50.502 121.744 52.319 122.084L111.598 136.506C113.528 137.074 115.345 135.598 115.799 133.667L124.998 96.4196C125.565 94.2619 124.43 92.3314 122.499 91.8771L63.3343 77.455C61.4038 76.8872 59.5868 78.3635 59.1326 80.294L58.4512 82.5652Z" fill="white" stroke="#1F1A54" stroke-linecap="round" stroke-linejoin="round"/>
<path d="M116.026 133.1C116.594 131.169 116.026 128.785 114.777 127.535L93.0872 108.344" stroke="#1F1A54" stroke-linecap="round" stroke-linejoin="round"/>
<path d="M54.1359 122.539L110.121 136.166" stroke="#1F1A54" stroke-linecap="round" stroke-linejoin="round"/>
<path d="M81.8446 105.617L53.7952 112.772C52.2054 113.112 51.1833 114.475 50.502 115.611" stroke="#1F1A54" stroke-linecap="round" stroke-linejoin="round"/>
<path d="M121.364 91.536L64.697 77.6816" stroke="#1F1A54" stroke-linecap="round" stroke-linejoin="round"/>
<path d="M58.5648 82.1113C58.4512 83.8147 59.1326 85.4046 60.2682 86.4266L84.7972 108.117C86.0464 109.139 87.7498 109.707 89.3397 109.139L121.137 101.417C122.272 101.076 123.635 100.054 124.316 99.1454" stroke="#1F1A54" stroke-linecap="round" stroke-linejoin="round"/>
<path d="M94.3364 77.4531C94.3364 77.4531 92.4058 79.9515 92.1787 83.5854" stroke="#1F1A54" stroke-miterlimit="10" stroke-linecap="round"/>
<path d="M106.374 54.627L90.8161 51.2202C83.4346 49.6303 76.3939 54.3999 74.804 61.6677C73.2142 69.0492 77.9837 76.0899 85.2516 77.6797L100.809 81.0866C108.191 82.6764 115.232 77.9069 116.821 70.639C118.525 63.4847 113.755 56.2168 106.374 54.627Z" fill="#FFD400"/>
<path d="M98.9924 59.7366L98.4246 59.2824C96.4941 57.1247 96.6076 53.8315 98.7653 51.901L104.898 46.2229C107.055 44.2924 110.348 44.406 112.279 46.5636L112.847 47.1314C114.777 49.2891 114.664 52.5823 112.506 54.5128L106.374 60.1909C104.216 62.1214 100.923 61.8943 98.9924 59.7366Z" fill="white" stroke="#1F1A54" stroke-miterlimit="10" stroke-linecap="round"/>
<path d="M98.9924 60.8732H98.311C95.472 60.5326 93.2008 58.0342 93.5415 55.0817L94.2229 46.7917C94.5635 43.9527 97.0619 41.6815 100.014 42.0222H100.696C103.535 42.3629 105.806 44.8612 105.465 47.8138L104.557 56.1037C104.443 59.0563 101.718 61.2139 98.9924 60.8732Z" fill="white" stroke="#1F1A54" stroke-miterlimit="10" stroke-linecap="round"/>
<path d="M106.374 54.627L90.8161 51.2202C83.4346 49.6303 76.3939 54.3999 74.804 61.6677C73.2142 69.0492 77.9837 76.0899 85.2516 77.6797L100.809 81.0866C108.191 82.6764 115.232 77.9069 116.821 70.639C118.525 63.4847 113.755 56.2168 106.374 54.627Z" fill="#FFD400"/>
<path d="M106.374 54.627L90.8161 51.2202C83.4346 49.6303 76.3939 54.3999 74.804 61.6677C73.2142 69.0492 77.9837 76.0899 85.2516 77.6797L100.809 81.0866C108.191 82.6764 115.232 77.9069 116.821 70.639C118.525 63.4847 113.755 56.2168 106.374 54.627Z" fill="#FFD400"/>
<mask id="mask0" mask-type="alpha" maskUnits="userSpaceOnUse" x="74" y="50" width="44" height="32">
<path d="M106.374 54.627L90.8161 51.2202C83.4346 49.6303 76.3939 54.3999 74.804 61.6677C73.2142 69.0492 77.9837 76.0899 85.2516 77.6797L100.809 81.0866C108.191 82.6764 115.232 77.9069 116.821 70.639C118.525 63.4847 113.755 56.2168 106.374 54.627Z" fill="#FFD400"/>
</mask>
<g mask="url(#mask0)">
<path d="M94.5636 50.9922C94.5636 50.9922 102.74 67.0042 88.772 78.8145L98.6517 80.9721C98.6517 80.9721 111.03 69.1619 104.443 53.4905C104.216 53.2634 94.5636 51.1057 94.5636 50.9922Z" fill="#1F1A54"/>
<path d="M111.598 55.5352C111.598 55.5352 119.66 71.2065 105.806 82.9032L115.686 85.0609C115.686 85.0609 128.064 73.3641 121.477 58.0335C121.364 57.8064 111.484 55.8758 111.598 55.5352Z" fill="#1F1A54"/>
</g>
<path d="M81.8447 64.8477C81.8447 64.8477 83.0939 66.6646 85.3651 65.7561" stroke="#1F1A54" stroke-miterlimit="10" stroke-linecap="round"/>
<path d="M90.2482 63.2582C90.0211 64.1667 89.2262 64.6209 88.3177 64.5074C87.4092 64.2803 86.955 63.4853 87.0685 62.5769C87.1821 61.6684 88.0906 61.2141 88.9991 61.3277C89.9076 61.4413 90.4754 62.4633 90.2482 63.2582Z" fill="#1F1A54"/>
<path d="M89.4533 62.9173C89.4533 63.258 89.1126 63.4851 88.7719 63.258C88.4313 63.258 88.2041 62.9173 88.4313 62.5766C88.4313 62.236 88.7719 62.0088 89.1126 62.236C89.2262 62.236 89.4533 62.5766 89.4533 62.9173Z" fill="white"/>
<path d="M81.9583 61.5551C81.7312 62.4636 80.9363 62.9178 80.0278 62.8043C79.1193 62.5771 78.6651 61.7822 78.7786 60.8737C79.0057 59.9653 79.8007 59.511 80.7092 59.6246C81.5041 59.7381 82.1854 60.6466 81.9583 61.5551Z" fill="#1F1A54"/>
<path d="M81.1634 61.2142C81.1634 61.5549 80.8227 61.782 80.482 61.5549C80.1413 61.5549 79.9142 61.2142 80.1414 60.8735C80.1414 60.5328 80.482 60.3057 80.8227 60.5328C80.9363 60.5328 81.1634 60.8735 81.1634 61.2142Z" fill="white"/>
<path d="M83.7753 52.696C83.7753 52.696 84.0024 45.9959 79.0057 47.3587" stroke="#1F1A54" stroke-miterlimit="10" stroke-linecap="round"/>
<path d="M88.6583 53.6055C88.6583 53.6055 91.838 47.2461 87.6362 45.6562" stroke="#1F1A54" stroke-miterlimit="10" stroke-linecap="round"/>
<path d="M87.2957 77.5684C87.2957 77.5684 89.5669 79.8396 88.6584 85.1769" stroke="#1F1A54" stroke-miterlimit="10" stroke-linecap="round"/>
<path d="M97.8567 79.9512C97.8567 79.9512 99.7872 82.4495 98.8787 87.5597" stroke="#1F1A54" stroke-miterlimit="10" stroke-linecap="round"/>
<path d="M119.887 73.1381C132.493 77.3399 146.801 75.8636 149.527 66.7788C150.208 64.6211 151.798 62.1228 149.754 59.2838C148.505 58.1482 146.915 57.4668 145.325 57.4668C143.622 57.4668 142.032 58.0346 140.783 59.1702C137.716 62.0092 136.24 67.1194 141.123 72.7975C146.12 78.4755 154.637 78.9297 162.132 78.0212C167.129 77.2263 171.898 75.2958 175.986 72.3432" stroke="#1F1A54" stroke-width="0.8547" stroke-miterlimit="10" stroke-linecap="round" stroke-dasharray="2.56 2.56"/>
<path d="M51.0942 177.339C61.1291 177.339 69.2639 169.205 69.2639 159.17C69.2639 149.135 61.1291 141 51.0942 141C41.0594 141 32.9246 149.135 32.9246 159.17C32.9246 169.205 41.0594 177.339 51.0942 177.339Z" fill="#FFD400"/>
<path d="M48.7927 164.872V165.656C48.7927 165.964 48.8536 166.269 48.9719 166.554C49.0901 166.839 49.2635 167.098 49.4819 167.316C49.7004 167.534 49.9596 167.706 50.2449 167.824C50.5302 167.941 50.8358 168.001 51.1443 168C51.4524 168.001 51.7577 167.941 52.0425 167.823C52.3274 167.706 52.5862 167.533 52.8041 167.315C53.022 167.098 53.1946 166.839 53.3121 166.554C53.4296 166.269 53.4896 165.964 53.4887 165.656V164.872M59.3428 163.361V164.872H42.9246V163.361C42.9241 162.847 43.0249 162.338 43.2211 161.863C43.4174 161.388 43.7054 160.956 44.0685 160.592L45.6927 158.975C46.0559 158.612 46.3438 158.18 46.5401 157.705C46.7364 157.23 46.8372 156.721 46.8367 156.207V154.308C46.8367 153.165 47.2905 152.069 48.0983 151.262C48.9062 150.454 50.0018 150 51.1443 150C52.2867 150 53.3823 150.454 54.1902 151.262C54.998 152.069 55.4518 153.165 55.4518 154.308V156.207C55.4513 156.721 55.5521 157.23 55.7484 157.705C55.9447 158.18 56.2326 158.612 56.5958 158.975L58.2129 160.592C58.9405 161.33 59.3467 162.325 59.3428 163.361Z" stroke="white" stroke-width="1.4" stroke-linecap="round" stroke-linejoin="round"/>
<path d="M48.4206 50.8102C56.055 49.796 61.4217 42.785 60.4075 35.1506C59.3934 27.5162 52.3823 22.1495 44.748 23.1637C37.1136 24.1779 31.7468 31.1889 32.761 38.8233C33.7752 46.4577 40.7862 51.8244 48.4206 50.8102Z" fill="#FFD400"/>
<path d="M41.266 39.8962L53.9218 40.056L49.5186 28.4706L40.1637 36.9959M41.266 39.8962L40.1637 36.9959M41.266 39.8962L40.3985 40.2259C40.0136 40.3706 39.587 40.3569 39.2122 40.1877C38.8374 40.0185 38.5449 39.7077 38.3989 39.3233C38.2529 38.9394 38.2655 38.5133 38.4338 38.1386C38.6021 37.764 38.9123 37.4715 39.2962 37.3256L40.1637 36.9959M48.742 39.9913L48.742 41.1874C48.7383 41.5145 48.605 41.8267 48.3713 42.0557C48.1377 42.2846 47.8228 42.4115 47.4958 42.4087L44.3916 42.3923C44.2291 42.3918 44.0683 42.3593 43.9184 42.2965C43.7685 42.2338 43.6324 42.1421 43.518 42.0267C43.4036 41.9113 43.3131 41.7745 43.2516 41.624C43.1902 41.4736 43.159 41.3125 43.1599 41.15L43.1668 39.9094" stroke="white" stroke-width="1.2" stroke-linecap="round" stroke-linejoin="round"/>
<path d="M165.993 145.136C172.265 145.136 177.349 140.052 177.349 133.78C177.349 127.508 172.265 122.424 165.993 122.424C159.721 122.424 154.637 127.508 154.637 133.78C154.637 140.052 159.721 145.136 165.993 145.136Z" fill="#FFD400"/>
<path d="M167.675 134.169V133.831C167.675 133.003 167.493 132.363 167.129 131.911C166.765 131.447 166.27 131.215 165.642 131.215C165.003 131.215 164.501 131.46 164.137 131.949C163.786 132.426 163.61 133.109 163.61 134C163.61 134.891 163.792 135.581 164.156 136.07C164.532 136.547 165.028 136.785 165.642 136.785C166.27 136.785 166.765 136.559 167.129 136.108C167.493 135.643 167.675 134.997 167.675 134.169ZM165.925 141C163.917 141 162.249 140.348 160.919 139.043C159.589 137.738 158.925 136.057 158.925 134C158.925 131.955 159.583 130.28 160.9 128.976C162.23 127.659 163.905 127 165.925 127C167.982 127 169.663 127.646 170.968 128.938C172.272 130.23 172.925 131.918 172.925 134C172.925 135.016 172.736 135.982 172.36 136.898C172.235 137.199 172.028 137.437 171.739 137.613C171.451 137.776 171.137 137.858 170.798 137.858H168.71C168.446 137.858 168.22 137.77 168.032 137.594C167.856 137.406 167.762 137.18 167.75 136.917L167.731 136.785L167.712 136.766C167.7 136.766 167.693 136.772 167.693 136.785C167.079 137.6 166.257 138.008 165.228 138.008C164.3 138.008 163.547 137.657 162.97 136.954C162.406 136.252 162.123 135.267 162.123 134C162.123 132.72 162.399 131.736 162.951 131.046C163.516 130.343 164.275 129.992 165.228 129.992C166.257 129.992 167.079 130.387 167.693 131.177C167.693 131.19 167.706 131.196 167.731 131.196H167.75V130.876C167.75 130.676 167.819 130.506 167.957 130.368C168.107 130.218 168.283 130.142 168.484 130.142C168.684 130.142 168.854 130.218 168.992 130.368C169.142 130.506 169.218 130.676 169.218 130.876V136.559C169.218 136.672 169.268 136.728 169.368 136.728H171.024C171.137 136.728 171.212 136.678 171.25 136.578C171.614 135.775 171.796 134.916 171.796 134C171.796 132.244 171.256 130.826 170.177 129.747C169.098 128.668 167.681 128.129 165.925 128.129C164.193 128.129 162.782 128.675 161.691 129.766C160.599 130.858 160.054 132.269 160.054 134C160.054 135.731 160.599 137.142 161.691 138.234C162.782 139.325 164.193 139.871 165.925 139.871C167.041 139.871 168.045 139.62 168.935 139.118C169.061 139.043 169.205 139.018 169.368 139.043C169.531 139.068 169.657 139.143 169.744 139.269C169.832 139.394 169.864 139.532 169.839 139.683C169.813 139.846 169.732 139.965 169.594 140.04C168.54 140.68 167.317 141 165.925 141Z" fill="white"/>
</svg>
