<svg width="233" height="232" viewBox="0 0 233 232" fill="none" xmlns="http://www.w3.org/2000/svg">
<ellipse cx="115.566" cy="144.56" rx="15.1111" ry="4.4703" fill="#FFEB86"/>
<path d="M140.778 109.87C140.778 103.228 138.163 96.7134 133.507 92.0068C131.206 89.6776 128.47 87.8293 125.456 86.568C122.443 85.3068 119.212 84.6575 115.948 84.6575C112.685 84.6575 109.453 85.3068 106.44 86.568C103.426 87.8293 100.691 89.6776 98.3893 92.0068L98.2708 92.1499C93.6143 96.8565 91 103.228 91 109.87C91 116.512 93.6143 122.884 98.2708 127.59L115.83 145.454L133.507 127.59C138.163 122.884 140.778 116.512 140.778 109.87Z" fill="#1F1A54"/>
<path d="M129.497 110.509L121.002 101.858C119.36 100.186 117.138 99.4539 114.991 99.666C113.319 99.8276 111.693 100.56 110.418 101.858L101.922 110.509C99.0063 113.478 99.0063 118.312 101.922 121.281C103.381 122.766 105.295 123.508 107.209 123.508C109.124 123.508 111.043 122.766 112.501 121.281L115.71 118.014L118.924 121.286C120.337 122.725 122.212 123.518 124.21 123.518C126.209 123.518 128.084 122.725 129.497 121.286C132.413 118.312 132.413 113.478 129.497 110.509ZM112.506 103.979C113.389 103.08 114.549 102.631 115.71 102.631C116.87 102.631 118.031 103.08 118.914 103.979C120.679 105.777 120.679 108.711 118.914 110.509L115.71 113.771L112.506 110.509C110.74 108.711 110.735 105.777 112.506 103.979ZM110.418 119.16C108.652 120.958 105.771 120.963 104.005 119.16C102.24 117.357 102.24 114.428 104.005 112.63L108.31 108.246C108.519 109.852 109.218 111.403 110.428 112.635L113.632 115.898L110.418 119.16ZM127.419 119.16C125.708 120.902 122.717 120.902 121.006 119.16L117.793 115.887L120.997 112.625C122.207 111.393 122.906 109.842 123.109 108.241L127.414 112.63C129.185 114.433 129.185 117.362 127.419 119.16Z" fill="#FBE100"/>
<path d="M111.058 98.1862C111.345 98.4791 111.722 98.6256 112.099 98.6256C112.476 98.6256 112.853 98.4791 113.141 98.1862C113.716 97.6004 113.716 96.6509 113.141 96.0651L112.432 95.3429C111.856 94.7571 110.924 94.7571 110.349 95.3429C109.773 95.9287 109.773 96.8782 110.349 97.464L111.058 98.1862Z" fill="#FBE100"/>
<path d="M119.365 98.6206C119.742 98.6206 120.119 98.4741 120.406 98.1812L121.116 97.459C121.691 96.8732 121.691 95.9237 121.116 95.3379C120.54 94.7521 119.608 94.7521 119.033 95.3379L118.323 96.0601C117.748 96.6459 117.748 97.5954 118.323 98.1812C118.611 98.4741 118.988 98.6206 119.365 98.6206Z" fill="#FBE100"/>
<path d="M129.491 110.537L120.995 101.876C119.535 100.39 117.619 99.6466 115.703 99.6473V102.647C116.863 102.648 118.023 103.098 118.906 103.998C120.674 105.801 120.674 108.734 118.906 110.536L115.702 113.802V118.045L118.914 121.319C120.327 122.759 122.204 123.552 124.201 123.552C126.199 123.552 128.077 122.759 129.489 121.319C132.407 118.346 132.407 113.509 129.491 110.537ZM127.41 119.198C125.696 120.944 122.71 120.944 120.997 119.198L117.784 115.923L120.988 112.657C122.195 111.427 122.902 109.879 123.11 108.275L127.411 112.659C129.177 114.462 129.177 117.395 127.41 119.198Z" fill="url(#paint0_radial)"/>
<path d="M101.915 121.319C103.328 122.76 105.205 123.553 107.202 123.553C109.2 123.553 111.078 122.759 112.49 121.319L115.702 118.045V113.802L112.498 110.536C110.73 108.733 110.73 105.8 112.498 103.999C113.381 103.099 114.541 102.648 115.701 102.647V99.6476C113.785 99.6476 111.869 100.39 110.409 101.877L101.915 110.538C98.998 113.51 98.998 118.347 101.915 121.319ZM103.996 112.659L108.297 108.275C108.505 109.879 109.212 111.428 110.418 112.658L113.622 115.923L110.41 119.198C108.696 120.945 105.709 120.945 103.997 119.198C102.228 117.395 102.228 114.462 103.996 112.659Z" fill="url(#paint1_radial)"/>
<path d="M120.988 101.876C120.814 101.699 120.634 101.533 120.447 101.377V101.371C119.18 100.311 117.649 99.7409 116.097 99.6581C116.09 99.6574 116.082 99.6567 116.075 99.6567C115.979 99.652 115.883 99.6499 115.787 99.6486C115.77 99.6486 115.753 99.6472 115.735 99.6472C115.649 99.6466 115.562 99.6493 115.475 99.6513C115.448 99.652 115.422 99.652 115.395 99.6533C115.318 99.6567 115.24 99.6622 115.163 99.6676C115.127 99.6703 115.091 99.6717 115.055 99.6751C114.987 99.6812 114.919 99.6893 114.851 99.6975C114.806 99.7029 114.761 99.707 114.716 99.7131C114.657 99.7212 114.598 99.7307 114.54 99.7402C114.486 99.7491 114.432 99.7565 114.379 99.7667C114.329 99.7755 114.279 99.7864 114.23 99.7966C114.168 99.8095 114.105 99.8217 114.043 99.8359C114.002 99.8454 113.963 99.8563 113.923 99.8658C113.851 99.8835 113.781 99.9011 113.709 99.9208C113.678 99.9296 113.648 99.9391 113.617 99.9486C113.538 99.9717 113.458 99.9961 113.379 100.022C113.357 100.029 113.336 100.037 113.315 100.044C113.227 100.074 113.139 100.105 113.052 100.139C113.04 100.143 113.028 100.149 113.015 100.154C112.919 100.191 112.824 100.23 112.73 100.272C112.727 100.273 112.723 100.275 112.719 100.276C112.117 100.543 111.541 100.892 111.011 101.328V101.333C110.807 101.502 110.607 101.682 110.418 101.876C107.503 104.849 107.503 109.686 110.419 112.659L115.703 118.044L120.987 112.657C123.904 109.684 123.904 104.848 120.988 101.876ZM118.906 110.535L115.703 113.801L112.5 110.537C110.732 108.733 110.731 105.8 112.499 103.997C113.382 103.097 114.543 102.646 115.703 102.646C116.863 102.646 118.023 103.097 118.906 103.997C120.674 105.8 120.674 108.732 118.906 110.535Z" fill="#FAE100"/>
<circle cx="116.5" cy="115.5" r="90.1" stroke="#FFD400" stroke-width="0.8" stroke-dasharray="7 7"/>
<circle cx="116.5" cy="115.5" r="68.1" stroke="#FFD400" stroke-width="0.8" stroke-dasharray="7 7"/>
<circle cx="116" cy="116" r="115.6" stroke="#FFD400" stroke-width="0.8" stroke-dasharray="7 7"/>
<ellipse cx="217" cy="171.158" rx="11" ry="3.01746" fill="#FFEB86"/>
<path d="M232.06 149.184C232.06 145.168 230.481 141.23 227.669 138.385C226.28 136.977 224.628 135.86 222.808 135.097C220.988 134.335 219.037 133.943 217.066 133.943C215.095 133.943 213.144 134.335 211.324 135.097C209.504 135.86 207.852 136.977 206.462 138.385L206.391 138.472C203.579 141.317 202 145.168 202 149.184C202 153.199 203.579 157.05 206.391 159.895L215.572 169.245C216.354 170.042 217.637 170.044 218.421 169.25L227.669 159.895C230.481 157.05 232.06 153.199 232.06 149.184Z" fill="white" stroke="#1F1A54" stroke-linecap="round" stroke-linejoin="round"/>
<circle cx="217.134" cy="148.134" r="7.12176" fill="white" stroke="#1F1A54"/>
<ellipse cx="59" cy="47.4422" rx="11" ry="3.01745" fill="#FFEB86"/>
<path d="M74.0602 25.4679C74.0602 21.4528 72.4814 17.5147 69.6694 14.6696C68.2798 13.2616 66.6275 12.1443 64.8078 11.3818C62.9881 10.6194 61.0367 10.2269 59.0659 10.2269C57.095 10.2269 55.1437 10.6194 53.3239 11.3818C51.5042 12.1443 49.852 13.2616 48.4623 14.6696L48.3908 14.7561C45.5788 17.6012 44 21.4528 44 25.4679C44 29.4831 45.5788 33.3347 48.3908 36.1798L57.5721 45.5298C58.3541 46.3262 59.6367 46.3284 60.4214 45.5346L69.6694 36.1798C72.4814 33.3347 74.0602 29.4831 74.0602 25.4679Z" fill="white" stroke="#1F1A54" stroke-linecap="round" stroke-linejoin="round"/>
<circle cx="59.1337" cy="25.1337" r="7.12176" fill="white" stroke="#1F1A54"/>
<ellipse cx="52" cy="214.408" rx="11" ry="3.01746" fill="#FFEB86"/>
<path d="M67.0602 192.434C67.0602 188.419 65.4814 184.481 62.6694 181.635C61.2798 180.227 59.6275 179.11 57.8078 178.348C55.9881 177.585 54.0367 177.193 52.0659 177.193C50.095 177.193 48.1437 177.585 46.3239 178.348C44.5042 179.11 42.852 180.227 41.4623 181.635L41.3908 181.722C38.5788 184.567 37 188.419 37 192.434C37 196.449 38.5788 200.3 41.3908 203.146L50.5721 212.496C51.3541 213.292 52.6367 213.294 53.4214 212.5L62.6694 203.146C65.4814 200.3 67.0602 196.449 67.0602 192.434Z" fill="white" stroke="#1F1A54" stroke-linecap="round" stroke-linejoin="round"/>
<circle cx="52.1337" cy="191.134" r="7.12176" fill="white" stroke="#1F1A54"/>
<defs>
<radialGradient id="paint0_radial" cx="0" cy="0" r="1" gradientUnits="userSpaceOnUse" gradientTransform="translate(115.999 107.882) scale(18.7959 19.159)">
<stop stop-color="#EBBE00"/>
<stop offset="0.2129" stop-color="#EFC700"/>
<stop offset="0.559" stop-color="#F9DF00"/>
<stop offset="0.5816" stop-color="#FAE100"/>
</radialGradient>
<radialGradient id="paint1_radial" cx="0" cy="0" r="1" gradientUnits="userSpaceOnUse" gradientTransform="translate(115.407 107.882) rotate(180) scale(18.7959 19.159)">
<stop stop-color="#EBBE00"/>
<stop offset="0.2129" stop-color="#EFC700"/>
<stop offset="0.559" stop-color="#F9DF00"/>
<stop offset="0.5816" stop-color="#FAE100"/>
</radialGradient>
</defs>
</svg>
