<svg width="375" height="277" viewBox="0 0 375 277" fill="none" xmlns="http://www.w3.org/2000/svg">
<ellipse cx="187.566" cy="173.56" rx="15.1111" ry="4.4703" fill="#FFEB86"/>
<path d="M212.778 138.87C212.778 132.228 210.163 125.713 205.507 121.007C203.206 118.678 200.47 116.829 197.456 115.568C194.443 114.307 191.212 113.657 187.948 113.657C184.685 113.657 181.453 114.307 178.44 115.568C175.426 116.829 172.691 118.678 170.389 121.007L170.271 121.15C165.614 125.856 163 132.228 163 138.87C163 145.512 165.614 151.884 170.271 156.59L187.83 174.454L205.507 156.59C210.163 151.884 212.778 145.512 212.778 138.87Z" fill="#1F1A54"/>
<path d="M201.497 139.509L193.002 130.858C191.36 129.186 189.138 128.454 186.991 128.666C185.319 128.828 183.693 129.56 182.418 130.858L173.922 139.509C171.006 142.478 171.006 147.312 173.922 150.281C175.381 151.766 177.295 152.508 179.209 152.508C181.124 152.508 183.043 151.766 184.501 150.281L187.71 147.014L190.924 150.286C192.337 151.725 194.212 152.518 196.21 152.518C198.209 152.518 200.084 151.725 201.497 150.286C204.413 147.312 204.413 142.478 201.497 139.509ZM184.506 132.979C185.389 132.08 186.549 131.631 187.71 131.631C188.87 131.631 190.031 132.08 190.914 132.979C192.679 134.777 192.679 137.711 190.914 139.509L187.71 142.771L184.506 139.509C182.74 137.711 182.735 134.777 184.506 132.979ZM182.418 148.16C180.652 149.958 177.771 149.963 176.005 148.16C174.24 146.357 174.24 143.428 176.005 141.63L180.31 137.246C180.519 138.852 181.218 140.403 182.428 141.635L185.632 144.898L182.418 148.16ZM199.419 148.16C197.708 149.902 194.717 149.902 193.006 148.16L189.793 144.887L192.997 141.625C194.207 140.393 194.906 138.842 195.109 137.241L199.414 141.63C201.185 143.433 201.185 146.362 199.419 148.16Z" fill="#FBE100"/>
<path d="M183.058 127.186C183.345 127.479 183.722 127.626 184.099 127.626C184.476 127.626 184.853 127.479 185.141 127.186C185.716 126.6 185.716 125.651 185.141 125.065L184.431 124.343C183.856 123.757 182.924 123.757 182.349 124.343C181.773 124.929 181.773 125.878 182.349 126.464L183.058 127.186Z" fill="#FBE100"/>
<path d="M191.365 127.621C191.742 127.621 192.119 127.474 192.406 127.181L193.116 126.459C193.691 125.873 193.691 124.924 193.116 124.338C192.54 123.752 191.608 123.752 191.033 124.338L190.323 125.06C189.748 125.646 189.748 126.595 190.323 127.181C190.611 127.474 190.988 127.621 191.365 127.621Z" fill="#FBE100"/>
<path d="M201.491 139.537L192.995 130.876C191.535 129.39 189.619 128.647 187.703 128.647V131.647C188.863 131.648 190.023 132.098 190.906 132.998C192.674 134.801 192.674 137.734 190.906 139.536L187.702 142.802V147.045L190.914 150.319C192.327 151.759 194.204 152.552 196.201 152.552C198.199 152.552 200.077 151.759 201.489 150.319C204.407 147.346 204.407 142.509 201.491 139.537ZM199.41 148.198C197.696 149.944 194.71 149.944 192.997 148.198L189.784 144.923L192.988 141.657C194.195 140.427 194.902 138.879 195.11 137.275L199.411 141.659C201.177 143.462 201.177 146.395 199.41 148.198Z" fill="url(#paint0_radial)"/>
<path d="M173.915 150.319C175.328 151.76 177.205 152.553 179.202 152.553C181.2 152.553 183.078 151.759 184.49 150.319L187.702 147.045V142.802L184.498 139.536C182.73 137.733 182.73 134.8 184.498 132.999C185.381 132.099 186.541 131.648 187.701 131.647V128.648C185.785 128.648 183.869 129.39 182.409 130.877L173.915 139.538C170.998 142.51 170.998 147.347 173.915 150.319ZM175.996 141.659L180.297 137.275C180.505 138.879 181.212 140.428 182.418 141.658L185.622 144.923L182.41 148.198C180.696 149.945 177.709 149.945 175.997 148.198C174.228 146.395 174.228 143.462 175.996 141.659Z" fill="url(#paint1_radial)"/>
<path d="M192.988 130.876C192.814 130.699 192.634 130.533 192.447 130.377V130.371C191.18 129.311 189.649 128.741 188.097 128.658C188.09 128.657 188.082 128.657 188.075 128.657C187.979 128.652 187.883 128.65 187.787 128.649C187.77 128.649 187.753 128.647 187.735 128.647C187.649 128.647 187.562 128.649 187.475 128.651C187.448 128.652 187.422 128.652 187.395 128.653C187.318 128.657 187.24 128.662 187.163 128.668C187.127 128.67 187.091 128.672 187.055 128.675C186.987 128.681 186.919 128.689 186.851 128.697C186.806 128.703 186.761 128.707 186.716 128.713C186.657 128.721 186.598 128.731 186.54 128.74C186.486 128.749 186.432 128.757 186.379 128.767C186.329 128.776 186.279 128.786 186.23 128.797C186.168 128.809 186.105 128.822 186.043 128.836C186.002 128.845 185.962 128.856 185.923 128.866C185.851 128.883 185.781 128.901 185.709 128.921C185.678 128.93 185.647 128.939 185.617 128.949C185.538 128.972 185.458 128.996 185.379 129.022C185.357 129.029 185.336 129.037 185.315 129.044C185.227 129.074 185.139 129.105 185.052 129.139C185.039 129.143 185.028 129.149 185.015 129.154C184.919 129.191 184.824 129.23 184.73 129.272C184.726 129.273 184.722 129.275 184.719 129.276C184.116 129.543 183.541 129.892 183.011 130.328V130.333C182.807 130.502 182.607 130.682 182.418 130.876C179.503 133.849 179.503 138.686 182.419 141.659L187.703 147.044L192.987 141.657C195.904 138.684 195.904 133.848 192.988 130.876ZM190.906 139.535L187.703 142.801L184.5 139.537C182.732 137.733 182.731 134.8 184.499 132.997C185.382 132.097 186.543 131.646 187.703 131.646C188.863 131.646 190.023 132.097 190.906 132.997C192.674 134.8 192.674 137.732 190.906 139.535Z" fill="#FAE100"/>
<circle cx="188.5" cy="144.5" r="90.1" stroke="#FFD400" stroke-width="0.8" stroke-dasharray="7 7"/>
<circle cx="188.5" cy="144.5" r="68.1" stroke="#FFD400" stroke-width="0.8" stroke-dasharray="7 7"/>
<circle cx="188" cy="145" r="115.6" stroke="#FFD400" stroke-width="0.8" stroke-dasharray="7 7"/>
<ellipse cx="289" cy="200.158" rx="11" ry="3.01746" fill="#FFEB86"/>
<path d="M304.06 178.184C304.06 174.168 302.481 170.23 299.669 167.385C298.28 165.977 296.628 164.86 294.808 164.097C292.988 163.335 291.037 162.943 289.066 162.943C287.095 162.943 285.144 163.335 283.324 164.097C281.504 164.86 279.852 165.977 278.462 167.385L278.391 167.472C275.579 170.317 274 174.168 274 178.184C274 182.199 275.579 186.05 278.391 188.895L287.572 198.245C288.354 199.042 289.637 199.044 290.421 198.25L299.669 188.895C302.481 186.05 304.06 182.199 304.06 178.184Z" fill="white" stroke="#1F1A54" stroke-linecap="round" stroke-linejoin="round"/>
<circle cx="289.134" cy="177.134" r="7.12176" fill="white" stroke="#1F1A54"/>
<ellipse cx="131" cy="76.4422" rx="11" ry="3.01745" fill="#FFEB86"/>
<path d="M146.06 54.4679C146.06 50.4528 144.481 46.5147 141.669 43.6696C140.28 42.2616 138.628 41.1443 136.808 40.3818C134.988 39.6194 133.037 39.2269 131.066 39.2269C129.095 39.2269 127.144 39.6194 125.324 40.3818C123.504 41.1443 121.852 42.2616 120.462 43.6696L120.391 43.7561C117.579 46.6012 116 50.4528 116 54.4679C116 58.4831 117.579 62.3347 120.391 65.1798L129.572 74.5298C130.354 75.3262 131.637 75.3284 132.421 74.5346L141.669 65.1798C144.481 62.3347 146.06 58.4831 146.06 54.4679Z" fill="white" stroke="#1F1A54" stroke-linecap="round" stroke-linejoin="round"/>
<circle cx="131.134" cy="54.1337" r="7.12176" fill="white" stroke="#1F1A54"/>
<ellipse cx="124" cy="243.408" rx="11" ry="3.01746" fill="#FFEB86"/>
<path d="M139.06 221.434C139.06 217.419 137.481 213.481 134.669 210.635C133.28 209.227 131.628 208.11 129.808 207.348C127.988 206.585 126.037 206.193 124.066 206.193C122.095 206.193 120.144 206.585 118.324 207.348C116.504 208.11 114.852 209.227 113.462 210.635L113.391 210.722C110.579 213.567 109 217.419 109 221.434C109 225.449 110.579 229.3 113.391 232.146L122.572 241.496C123.354 242.292 124.637 242.294 125.421 241.5L134.669 232.146C137.481 229.3 139.06 225.449 139.06 221.434Z" fill="white" stroke="#1F1A54" stroke-linecap="round" stroke-linejoin="round"/>
<circle cx="124.134" cy="220.134" r="7.12176" fill="white" stroke="#1F1A54"/>
<defs>
<radialGradient id="paint0_radial" cx="0" cy="0" r="1" gradientUnits="userSpaceOnUse" gradientTransform="translate(187.999 136.882) scale(18.7959 19.159)">
<stop stop-color="#EBBE00"/>
<stop offset="0.2129" stop-color="#EFC700"/>
<stop offset="0.559" stop-color="#F9DF00"/>
<stop offset="0.5816" stop-color="#FAE100"/>
</radialGradient>
<radialGradient id="paint1_radial" cx="0" cy="0" r="1" gradientUnits="userSpaceOnUse" gradientTransform="translate(187.407 136.882) rotate(180) scale(18.7959 19.159)">
<stop stop-color="#EBBE00"/>
<stop offset="0.2129" stop-color="#EFC700"/>
<stop offset="0.559" stop-color="#F9DF00"/>
<stop offset="0.5816" stop-color="#FAE100"/>
</radialGradient>
</defs>
</svg>
