<svg width="123" height="126" viewBox="0 0 123 126" fill="none" xmlns="http://www.w3.org/2000/svg">
<path d="M0 0H122.01V126H0V0Z" fill="#F2F4F6"/>
<path d="M71.363 61.9639C71.5627 63.4418 71.4439 64.9452 71.0147 66.3734C70.5855 67.8016 69.8557 69.1214 68.8744 70.2443C67.893 71.3672 66.6828 72.2672 65.325 72.8838C63.9672 73.5004 62.4932 73.8194 61.0019 73.8194C59.5106 73.8194 58.0366 73.5004 56.6788 72.8838C55.3209 72.2672 54.1107 71.3672 53.1294 70.2443C52.148 69.1214 51.4183 67.8016 50.989 66.3734C50.5598 64.9452 50.4411 63.4418 50.6408 61.9639M61.0019 39C56.793 38.9968 52.6573 40.1006 49.0097 42.2005C45.3621 44.3004 42.3308 47.3226 40.2201 50.964C38.1093 54.6053 36.9933 58.7377 36.9839 62.9466C36.9745 67.1555 38.0722 71.2928 40.1667 74.9435L36.983 86.8305L48.757 83.6657C51.9339 85.5417 55.5006 86.6601 59.18 86.9338C62.8593 87.2076 66.5523 86.6294 69.9719 85.2441C73.3914 83.8588 76.4456 81.7038 78.8971 78.9464C81.3485 76.189 83.1312 72.9036 84.1067 69.3454C85.0822 65.7871 85.2241 62.0519 84.5216 58.4299C83.819 54.8079 82.2908 51.3966 80.0558 48.4611C77.8207 45.5256 74.9389 43.145 71.6344 41.5041C68.3298 39.8632 64.6914 39.0063 61.0019 39Z" stroke="#CACBCC" stroke-width="3" stroke-linecap="round" stroke-linejoin="round"/>
</svg>
