<svg width="123" height="126" viewBox="0 0 123 126" fill="none" xmlns="http://www.w3.org/2000/svg">
<path d="M0 8C0 3.58172 3.58172 0 8 0H114.01C118.428 0 122.01 3.58172 122.01 8V118C122.01 122.418 118.428 126 114.01 126H7.99999C3.58172 126 0 122.418 0 118V8Z" fill="#F2F4F6"/>
<path d="M75.8063 40.1449L81.6047 50.4371M85.8811 73.8482V84.1404C85.8811 85.2276 85.0113 86.0249 83.9966 86.0249H36.8845C35.7973 86.0249 35 85.1551 35 84.1404V43.479C35 41.5946 36.5221 40 38.479 40H83.9966C85.0838 40 85.8811 40.8698 85.8811 41.8845V46.9581M43.0453 71.2385H56.5991M43.0453 77.4704H63.6297M86.2435 73.6316C85.6636 73.9216 84.9388 73.7766 84.5764 73.1968L75.3715 56.0914L78.5606 44.9295L89.2877 47.9736L98.855 65.2239C99.145 65.8038 99 66.5286 98.4202 66.891L86.2435 73.6316ZM81.3148 52.6849C82.3296 52.9748 83.4168 52.3949 83.7067 51.3802C83.9966 50.3655 83.4168 49.2783 82.402 48.9884C81.3873 48.6985 80.3001 49.2783 80.0102 50.293C79.7203 51.3077 80.3001 52.3949 81.3148 52.6849Z" stroke="#3057BA" stroke-miterlimit="10" stroke-linecap="round" stroke-linejoin="round"/>
</svg>
