<svg width="123" height="126" viewBox="0 0 123 126" fill="none" xmlns="http://www.w3.org/2000/svg">
<path d="M0 8C0 3.58172 3.58172 0 8 0H114.01C118.428 0 122.01 3.58172 122.01 8V118C122.01 122.418 118.428 126 114.01 126H7.99999C3.58172 126 0 122.418 0 118V8Z" fill="#F2F4F6"/>
<path d="M75.5929 61.798V54.3447C75.5929 53.1128 74.9153 52.004 73.8066 51.5112C71.0963 50.3409 66.2916 47.569 62.3494 47.9386C59.3311 48.3081 53.1713 52.9896 52.0626 55.0223C51.8778 55.3919 52.9865 56.747 54.8961 56.5006C57.668 56.1927 62.0414 53.544 62.0414 53.544C62.2262 53.4208 62.4726 53.4824 62.6574 53.6055L73.745 65.9867C74.5457 66.7875 74.6073 68.081 73.8066 68.9434C73.0058 69.8673 71.6506 69.9289 70.7267 69.1898L65.0597 64.3235M57.1752 50.4014L48.1203 49.4158C47.1348 49.2926 46.2724 50.0934 46.2724 51.079V62.5361C46.2724 64.0761 46.8268 65.5544 47.874 66.6632C49.1059 67.9567 51.9394 69.9279 53.9721 71.3446C56.5592 73.1309 58.4072 74.0549 60.5631 72.7613L61.3639 72.0838M65.0597 64.321L68.9404 67.7705C69.7412 68.5097 69.8644 69.7416 69.1868 70.5424C68.4476 71.4048 67.1541 71.528 66.2917 70.7888L61.9183 66.9697M61.9183 66.974L64.567 69.3147C65.4293 70.0539 65.4909 71.3474 64.8134 72.2098C64.0742 73.0722 62.7806 73.1954 61.9183 72.5178L58.284 69.5611M60.5014 31C59.7007 31 58.8999 31.1848 58.2223 31.616L37.2791 43.6891C36.6015 44.1203 35.9856 44.6747 35.616 45.3523C35.1848 46.0298 35 46.8306 35 47.6314V71.7777C35 72.5784 35.1848 73.3792 35.616 74.0568C36.0472 74.7344 36.6015 75.3503 37.2791 75.7199L52.4937 84.4668L58.2223 87.7931L70.6035 94.8768C70.7883 95 70.973 95 71.1578 95C71.3426 95 71.5274 94.9384 71.7122 94.8768C71.897 94.7536 72.0202 94.6304 72.0818 94.5072C72.205 94.3224 72.205 94.1376 72.205 93.9528V82.4341L83.7238 75.7815C84.4013 75.3503 85.0173 74.796 85.3869 74.1184C85.8181 73.4408 86.0029 72.64 86.0029 71.8393V47.693C86.0029 46.8922 85.8181 46.0914 85.3869 45.4139C84.9557 44.7363 84.4013 44.1203 83.7238 43.7507L62.7806 31.6776C62.103 31.2464 61.3022 31 60.5014 31Z" stroke="#EA646C" stroke-miterlimit="10" stroke-linecap="round" stroke-linejoin="round"/>
</svg>
