<svg width="123" height="126" viewBox="0 0 123 126" fill="none" xmlns="http://www.w3.org/2000/svg">
<path d="M0 8C0 3.58172 3.58172 0 8 0H114.01C118.428 0 122.01 3.58172 122.01 8V118C122.01 122.418 118.428 126 114.01 126H7.99999C3.58172 126 0 122.418 0 118V8Z" fill="#F2F4F6"/>
<path d="M73.5687 72.1174L88.6153 90.0646C89.4613 91.0315 89.4009 92.6026 88.3132 93.509C87.2255 94.2342 85.6543 94.1737 84.8688 93.2069L69.8222 75.3201M80.8805 83.3577L86.6816 90.3069M77.134 78.9465L79.5511 81.847M53.6274 54.6534C54.2317 55.3181 54.2921 56.4058 53.8691 57.3727C53.567 58.1582 53.3253 59.1251 53.3253 60.2732C53.3253 61.1797 53.567 61.9652 53.9295 62.6299C54.4734 63.6572 53.7483 65.5305 52.6001 65.5909C51.6333 65.6513 50.183 65.1075 49.8204 61.1797C49.76 60.8171 49.76 60.4545 49.76 60.0315M49.76 58.4615C49.76 58.4615 49.5787 55.0776 51.6937 54.3524M62.5708 30V37.1305M83.1164 60.0941H90.2469M30 60.0941H37.1305M41.7835 84.3237L46.8594 79.3082M77.6778 44.2603L82.6934 39.1843M43.1129 43.5946L38.0974 38.5791M77.6778 60.3348C77.6778 70.0465 69.805 77.9193 60.0933 77.9193C50.3815 77.9193 42.5087 70.0465 42.5087 60.3348C42.5087 50.623 50.3815 42.7502 60.0933 42.7502C69.805 42.7502 77.6778 50.623 77.6778 60.3348ZM74.0521 60.3343C74.0521 68.0436 67.8025 74.2932 60.0932 74.2932C52.3839 74.2932 46.1343 68.0436 46.1343 60.3343C46.1343 52.625 52.3839 46.3754 60.0932 46.3754C67.8025 46.3754 74.0521 52.625 74.0521 60.3343Z" stroke="#36C9AA" stroke-miterlimit="10" stroke-linecap="round" stroke-linejoin="round"/>
</svg>
