<svg width="123" height="126" viewBox="0 0 123 126" fill="none" xmlns="http://www.w3.org/2000/svg">
<path d="M0 0H122.01V126H0V0Z" fill="#F2F4F6"/>
<path d="M45.3251 67.7666L84.983 83.4151V41.667L45.3251 57.3155M45.3251 67.7666V57.3155M45.3251 67.7666H42.1992C40.8141 67.7617 39.4873 67.2079 38.5097 66.2267C37.532 65.2455 36.983 63.9168 36.983 62.5316C36.983 61.1482 37.5326 59.8215 38.5108 58.8433C39.489 57.865 40.8158 57.3155 42.1992 57.3155H45.3251M68.7508 77.0126L67.3196 80.7788C66.9164 81.8042 66.123 82.6278 65.1134 83.069C64.1038 83.5103 62.9604 83.5332 61.934 83.1327L52.1796 79.3665C51.6685 79.1705 51.2011 78.8755 50.8042 78.4986C50.4073 78.1216 50.0886 77.6701 49.8665 77.1698C49.6443 76.6696 49.523 76.1304 49.5096 75.5831C49.4961 75.0359 49.5908 74.4914 49.7881 73.9808L51.2945 70.0828" stroke="#CACBCC" stroke-width="3" stroke-linecap="round" stroke-linejoin="round"/>
</svg>
