<svg width="123" height="126" viewBox="0 0 123 126" fill="none" xmlns="http://www.w3.org/2000/svg">
<path d="M0 0H122.01V126H0V0Z" fill="#F2F4F6"/>
<path d="M45.9204 53.2704V45.333C45.9204 44.7807 46.3681 44.333 46.9204 44.333H64.1184H86.6497C87.202 44.333 87.6497 44.7807 87.6497 45.333V68.3781C87.6497 68.9304 87.202 69.3781 86.6497 69.3781H78.7312M64.1184 65.7929C64.1184 69.2561 61.3109 72.0636 57.8477 72.0636C54.3845 72.0636 51.577 69.2561 51.577 65.7929C51.577 62.3297 54.3845 59.5222 57.8477 59.5222C61.3109 59.5222 64.1184 62.3297 64.1184 65.7929ZM37.983 78.3155H77.7312C78.2835 78.3155 78.7312 77.8678 78.7312 77.3155V54.2704C78.7312 53.7181 78.2835 53.2704 77.7312 53.2704H37.983C37.4307 53.2704 36.983 53.7181 36.983 54.2704V77.3155C36.983 77.8678 37.4307 78.3155 37.983 78.3155Z" stroke="#CACBCC" stroke-width="3" stroke-linecap="round" stroke-linejoin="round"/>
</svg>
