<svg width="100" height="71" viewBox="0 0 100 71" fill="none" xmlns="http://www.w3.org/2000/svg">
<path d="M0 57L100 57" stroke="#1F1A54" stroke-width="0.5"/>
<path d="M11.8181 53.8639C11.9093 54.1833 11.6694 54.5011 11.3373 54.5011H2.663C2.33077 54.5011 2.09093 54.1831 2.18227 53.8637L6.52297 38.6827C6.66122 38.1992 7.34646 38.1993 7.4845 38.6829L11.8181 53.8639Z" fill="#FFD400"/>
<path d="M7.0041 51.5061V57M6.52297 38.6827L2.18227 53.8637C2.09093 54.1831 2.33077 54.5011 2.663 54.5011H11.3373C11.6694 54.5011 11.9093 54.1833 11.8181 53.8639L7.4845 38.6829C7.34646 38.1993 6.66122 38.1992 6.52297 38.6827Z" stroke="#1F1A54" stroke-width="0.5" stroke-linecap="round" stroke-linejoin="round"/>
<path d="M95.497 54.0618L94.0959 52.7472C93.4318 52.1299 92.9047 51.3953 92.545 50.5858C92.1852 49.7763 92 48.9079 92 48.0309C92 47.1539 92.1852 46.2855 92.545 45.476C92.9047 44.6665 93.4318 43.9319 94.0959 43.3146L95.497 42L96.8982 43.3146C97.564 43.931 98.0926 44.6653 98.4534 45.4749C98.8142 46.2845 99 47.1534 99 48.0309C99 48.9084 98.8142 49.7772 98.4534 50.5869C98.0926 51.3965 97.564 52.1308 96.8982 52.7472L95.497 54.0618Z" fill="#FFD400"/>
<path d="M95.497 47.8961V57M95.497 56.1849L98.3134 53.5425M95.497 54.0618L94.0959 52.7472C93.4318 52.1299 92.9047 51.3953 92.545 50.5858C92.1852 49.7763 92 48.9079 92 48.0309C92 47.1539 92.1852 46.2855 92.545 45.476C92.9047 44.6665 93.4318 43.9319 94.0959 43.3146L95.497 42L96.8982 43.3146C97.564 43.931 98.0926 44.6653 98.4534 45.4749C98.8142 46.2845 99 47.1534 99 48.0309C99 48.9084 98.8142 49.7772 98.4534 50.5869C98.0926 51.3965 97.564 52.1308 96.8982 52.7472L95.497 54.0618Z" stroke="#1F1A54" stroke-width="0.5" stroke-linecap="round" stroke-linejoin="round"/>
<path fill-rule="evenodd" clip-rule="evenodd" d="M17.1793 38.0322L22.725 62.6137L21.0467 62.9923L15.501 38.4109L17.1793 38.0322Z" fill="#1F1A54"/>
<path fill-rule="evenodd" clip-rule="evenodd" d="M34.0387 62.4377L28.6206 38.4107L30.2989 38.0322L35.717 62.0592L34.0387 62.4377Z" fill="#1F1A54"/>
<path d="M53.3379 70.9998C70.9901 70.9998 85.3 70.266 85.3 69.3608C85.3 68.4555 70.9901 67.7217 53.3379 67.7217C35.6858 67.7217 21.3759 68.4555 21.3759 69.3608C21.3759 70.266 35.6858 70.9998 53.3379 70.9998Z" fill="#DEE5FF"/>
<path d="M65.9964 55.8076H48.8203V60.4424H65.9964V55.8076Z" fill="#9DAFED" stroke="#1F1A54" stroke-width="0.5" stroke-miterlimit="10" stroke-linecap="round" stroke-linejoin="round"/>
<path d="M63.8972 56.4043C63.8972 56.4043 63.9964 56.5038 63.9397 56.9019C63.8546 57.4279 63.4149 57.8829 61.8831 57.9966C60.8619 58.0677 56.5076 58.0393 56.0254 58.0251C55.5431 58.0108 55.3304 57.826 55.458 57.2289" fill="white"/>
<path d="M63.8972 56.4043C63.8972 56.4043 63.9964 56.5038 63.9397 56.9019C63.8546 57.4279 63.4149 57.8829 61.8831 57.9966C60.8619 58.0677 56.5076 58.0393 56.0254 58.0251C55.5431 58.0108 55.3304 57.826 55.458 57.2289" stroke="#1F1A54" stroke-width="0.5" stroke-miterlimit="10" stroke-linecap="round" stroke-linejoin="round"/>
<path d="M63.1322 57.0587C62.891 57.1298 62.4372 57.1866 61.8557 57.2151C59.5863 57.343 55.4448 57.2151 55.4448 57.2151C55.4448 57.2151 55.4731 56.9734 55.5157 56.6037C55.544 56.3763 55.5724 56.0919 55.6008 55.7649C55.6008 55.7649 55.7993 55.7649 56.1256 55.7223C56.395 55.6796 56.7496 55.5943 57.1326 55.4379C57.629 55.2247 58.1963 54.855 58.5084 54.5991C58.6644 54.4712 58.7637 54.3716 58.7353 54.3574C58.8488 54.4854 59.0615 54.6418 59.3168 54.7982C59.5296 54.9261 59.7707 55.0541 60.0402 55.1678C60.2529 55.2531 60.4657 55.3384 60.6926 55.4095C60.8345 55.4521 60.9763 55.4948 61.1181 55.5232C61.2174 55.5517 61.3025 55.5659 61.4018 55.5943C61.8273 55.6938 62.2812 55.7791 62.6074 55.836C63.0187 55.9071 63.5009 55.964 63.7137 56.1346C63.8272 56.2341 63.8839 56.3194 63.9122 56.4189C63.9548 56.6606 63.6569 56.8881 63.1322 57.0587Z" fill="white" stroke="#1F1A54" stroke-width="0.5" stroke-miterlimit="10" stroke-linecap="round" stroke-linejoin="round"/>
<path d="M61.8548 57.216C61.7555 56.1213 62.5924 55.8369 62.5924 55.8369L61.8548 57.216Z" fill="white"/>
<path d="M61.8548 57.216C61.7555 56.1213 62.5924 55.8369 62.5924 55.8369" stroke="#1F1A54" stroke-width="0.5" stroke-miterlimit="10" stroke-linecap="round" stroke-linejoin="round"/>
<path d="M59.0607 55.1252L59.5713 54.457" stroke="#1F1A54" stroke-width="0.5" stroke-miterlimit="10" stroke-linecap="round" stroke-linejoin="round"/>
<path d="M59.784 55.5659L60.2379 54.8408" stroke="#1F1A54" stroke-width="0.5" stroke-miterlimit="10" stroke-linecap="round" stroke-linejoin="round"/>
<path d="M60.4791 55.8214L60.8762 55.0537" stroke="#1F1A54" stroke-width="0.5" stroke-miterlimit="10" stroke-linecap="round" stroke-linejoin="round"/>
<path d="M61.174 56.0216L61.5711 55.2539" stroke="#1F1A54" stroke-width="0.5" stroke-miterlimit="10" stroke-linecap="round" stroke-linejoin="round"/>
<path d="M60.5077 57.4437C60.5077 57.4437 59.983 57.6143 59.7986 58.2398C59.7418 58.4104 59.7135 58.6237 59.7418 58.8796C57.3874 59.0218 53.104 58.8796 53.104 58.8796C53.104 58.8796 53.2033 58.2398 53.2742 57.3868C53.2742 57.3868 53.3593 57.3868 53.487 57.3726C53.7564 57.3584 54.267 57.2873 54.8486 57.0314C55.3592 56.8181 55.9407 56.42 56.2669 56.1641C56.4371 56.0362 56.5222 55.9366 56.508 55.9082C56.6357 56.0362 56.8484 56.2068 57.1179 56.3632C57.3307 56.4911 57.586 56.6191 57.8696 56.747C58.0824 56.8465 58.3093 56.9318 58.5504 57.0029C58.6923 57.0456 58.8341 57.0882 58.9759 57.1167C59.0752 57.1451 59.1745 57.1593 59.2738 57.1877C59.6993 57.3015 60.1673 57.3868 60.5077 57.4437Z" fill="white" stroke="#1F1A54" stroke-width="0.5" stroke-miterlimit="10" stroke-linecap="round" stroke-linejoin="round"/>
<path d="M61.8972 58.5519C61.8121 59.1063 61.3583 59.5755 59.7697 59.675C58.7201 59.7461 54.2098 59.7177 53.7134 59.7034C53.2028 59.6892 52.99 59.5044 53.1319 58.8788C53.1319 58.8788 57.4153 59.021 59.7697 58.8788C60.3654 58.8504 60.8477 58.7935 61.0888 58.7082C61.6277 58.5376 61.9256 58.2959 61.883 58.04C61.8547 58.04 61.954 58.1538 61.8972 58.5519Z" fill="white" stroke="#1F1A54" stroke-width="0.5" stroke-miterlimit="10" stroke-linecap="round" stroke-linejoin="round"/>
<path d="M59.7982 58.2391L61.8547 58.04C61.9115 58.2959 61.6136 58.5376 61.0605 58.7082C60.8194 58.7793 60.3371 58.8362 59.7414 58.8788C57.387 59.021 53.1036 58.8788 53.1036 58.8788" fill="white"/>
<path d="M59.7982 58.2391L61.8547 58.04C61.9115 58.2959 61.6136 58.5376 61.0605 58.7082C60.8194 58.7793 60.3371 58.8362 59.7414 58.8788C57.387 59.021 53.1036 58.8788 53.1036 58.8788" stroke="#1F1A54" stroke-width="0.5" stroke-miterlimit="10" stroke-linecap="round" stroke-linejoin="round"/>
<path d="M61.0604 58.7087C60.8193 58.7798 60.3371 58.8366 59.7414 58.8793C59.713 58.6234 59.7414 58.4101 59.7981 58.2395C59.9825 57.6282 60.5073 57.4434 60.5073 57.4434C60.9328 57.5287 61.4292 57.5713 61.6419 57.7561C61.7554 57.8557 61.8263 57.9552 61.8405 58.0405C61.8972 58.2964 61.5994 58.5381 61.0604 58.7087Z" fill="white" stroke="#1F1A54" stroke-width="0.5" stroke-miterlimit="10" stroke-linecap="round" stroke-linejoin="round"/>
<path d="M56.848 56.7205L57.3728 56.0381" stroke="#1F1A54" stroke-width="0.5" stroke-miterlimit="10" stroke-linecap="round" stroke-linejoin="round"/>
<path d="M57.5998 57.1729L58.0678 56.4336" stroke="#1F1A54" stroke-width="0.5" stroke-miterlimit="10" stroke-linecap="round" stroke-linejoin="round"/>
<path d="M58.309 57.4299L58.7203 56.6338" stroke="#1F1A54" stroke-width="0.5" stroke-miterlimit="10" stroke-linecap="round" stroke-linejoin="round"/>
<path d="M59.0322 57.6428L59.4435 56.8467" stroke="#1F1A54" stroke-width="0.5" stroke-miterlimit="10" stroke-linecap="round" stroke-linejoin="round"/>
<path d="M56.2807 56.178C55.9686 56.4339 55.3729 56.8178 54.8623 57.0452C54.2808 57.2869 53.7702 57.358 53.5007 57.3864V55.0548L56.0537 54.8984C56.0963 55.069 56.0679 55.9647 56.2807 56.178Z" fill="#FFD400" stroke="#1F1A54" stroke-width="0.5" stroke-miterlimit="10" stroke-linecap="round" stroke-linejoin="round"/>
<path d="M56.5076 52.751V54.6276" stroke="#1F1A54" stroke-width="0.5" stroke-miterlimit="10" stroke-linecap="round" stroke-linejoin="round"/>
<path d="M58.5075 54.6011C58.1955 54.857 57.6281 55.2267 57.1317 55.4399C56.7488 55.5963 56.3942 55.6816 56.1247 55.7243L56.2523 53.5064L58.2806 53.4922C58.3089 53.677 58.3089 54.4021 58.5075 54.6011Z" fill="#FFD400" stroke="#1F1A54" stroke-width="0.5" stroke-miterlimit="10" stroke-linecap="round" stroke-linejoin="round"/>
<path d="M57.6565 39.2301L56.8764 52.7506L56.763 54.6273L56.7204 55.3808H56.2524H56.1531L54.21 55.3523L53.2171 55.3381C53.2171 55.3381 52.7916 53.4899 52.7916 49.4238C52.7916 44.462 52.7916 40.993 52.7916 40.993C52.7916 40.993 43.6008 40.3817 40.2109 40.3817C36.8211 40.3817 37.0764 35.9033 37.0764 35.9033V33.3584H43.076L43.1043 34.9223C48.5366 34.9223 54.3943 35.7327 56.0112 36.1023C57.6565 36.4577 57.6565 39.2301 57.6565 39.2301Z" fill="#1F1A54"/>
<path d="M59.5997 37.8664L58.6777 54.0171L57.8835 54.0028L56.3233 53.9744H55.9545L55.1886 53.9602C55.1886 53.9602 54.7631 52.112 54.7631 48.0459C54.7631 43.0841 54.7631 39.6151 54.7631 39.6151C54.7631 39.6151 45.5723 39.0037 42.1824 39.0037C38.9912 39.0037 39.0337 35.0229 39.0479 34.568C39.0479 34.5396 39.0479 34.5253 39.0479 34.5253V31.9805H45.0475L45.0758 33.5444C50.5081 33.5444 56.3658 34.3547 57.9827 34.7244C59.5855 35.094 59.5997 37.8664 59.5997 37.8664Z" fill="#1F1A54"/>
<path d="M57.6565 39.2314L56.9523 54.1015" stroke="#FFD400" stroke-width="0.5" stroke-linecap="round" stroke-linejoin="round"/>
<path d="M56.0255 36.0889C57.6565 36.4585 57.6565 39.2308 57.6565 39.2308" stroke="#FFD400" stroke-width="0.5" stroke-linecap="round" stroke-linejoin="round"/>
<path d="M56.0255 36.089C55.1315 35.8886 52.9505 35.5476 50.2634 35.2861" stroke="#FFD400" stroke-width="0.5" stroke-linecap="round" stroke-linejoin="round"/>
<path d="M40.9059 8.59307C40.367 10.1854 40.7357 11.6355 41.1896 12.5312C41.2747 12.6023 42.6221 13.5975 43.6717 13.8961C43.7568 13.9245 43.8419 13.9387 43.927 13.9529C44.7071 14.0809 44.6929 13.8392 44.4092 12.8867C43.8844 11.1237 44.2958 9.77309 45.8417 9.14754C47.5863 8.43668 49.4727 8.50777 49.7422 8.57885C49.8415 8.60729 49.9266 8.63572 50.0117 8.66416V8.6215C49.9691 8.52198 49.0472 6.53158 46.8488 5.79229C44.622 5.03878 41.8137 5.94868 40.9059 8.59307Z" fill="#FFD400"/>
<path d="M41.2037 12.5312C41.303 12.7445 41.4165 12.9151 41.5158 13.0573C41.6576 13.2563 42.1115 13.626 42.4802 13.8677C42.7923 14.0667 43.2036 14.2942 43.6575 14.4363L43.6716 13.8961C42.6363 13.5975 41.2888 12.6023 41.2037 12.5312Z" fill="#1F1A54"/>
<path d="M43.6008 15.9005L43.5866 15.9431L45.7141 17.0094L45.6858 17.6634L46.2105 18.161L46.6786 17.6918L47.2176 17.5923L47.3168 16.4691L47.3594 15.4597C47.2885 15.4739 47.2176 15.4882 47.1466 15.4882C46.7211 15.5308 45.6574 15.3602 45.0759 14.7631L44.9199 14.4645C44.778 14.5356 44.5794 14.564 44.3241 14.5498C44.0972 14.5356 43.8703 14.4787 43.6575 14.4219L43.6008 15.9005Z" fill="white"/>
<path d="M43.6717 13.896L43.6575 14.4362C43.8703 14.5073 44.0972 14.5499 44.3242 14.5642C44.5795 14.5784 44.778 14.55 44.9199 14.4789C45.3879 14.2514 45.2886 13.569 44.9624 12.8297C44.6787 12.2041 44.6504 11.0383 45.2035 10.1853C45.2319 10.0573 46.2247 9.14743 48.0969 8.91996C48.6926 8.84887 49.6288 8.792 50.1535 8.94839C50.1535 8.94839 50.4514 8.97683 50.5223 9.43177C50.579 9.09056 50.4088 8.83465 50.0117 8.67827C49.9266 8.64983 49.8415 8.6214 49.7422 8.59296C49.4727 8.52188 47.5863 8.46501 45.8418 9.16165C44.2958 9.7872 43.8845 11.1236 44.4093 12.9008C44.6929 13.8533 44.7071 14.1092 43.927 13.967C43.8419 13.9386 43.7568 13.9244 43.6717 13.896Z" fill="#1F1A54"/>
<path d="M45.2035 10.1865C44.6503 11.0396 44.6787 12.2054 44.9624 12.8309C45.2886 13.5702 45.3879 14.2526 44.9198 14.4801L45.0759 14.7787C45.6574 15.3758 46.7069 15.5464 47.1466 15.5037C47.2175 15.5037 47.2885 15.4895 47.3594 15.4753C48.1253 15.3331 48.6075 14.8497 48.9054 14.1389C48.9196 14.1105 48.9337 14.0678 48.9479 14.0252C49.2174 13.3001 49.3025 11.6793 49.2883 10.3287C47.7991 10.3287 45.9836 10.3003 45.4021 10.2292C45.2602 10.215 45.2035 10.2007 45.2035 10.1865Z" fill="white"/>
<path d="M49.8557 10.3279C50.5933 10.3279 51.1606 10.3279 51.345 10.3137C51.7563 10.2995 51.1322 9.92984 50.6642 9.53176C50.6074 9.48911 50.5649 9.44646 50.5223 9.40381C50.3805 9.27585 50.3947 9.24742 50.3947 9.24742C50.338 9.09103 50.0543 8.97729 49.6571 8.96307C49.0473 8.94886 48.2955 8.96307 47.5013 9.1479C46.1255 9.47489 45.3879 10.1715 45.3879 10.1715V10.2142C45.9695 10.2853 47.7849 10.2995 49.2742 10.3137C49.4728 10.3279 49.6713 10.3279 49.8557 10.3279Z" fill="#1F1A54"/>
<path d="M48.9337 14.0236C48.9195 14.0663 48.9054 14.0947 48.8912 14.1373C49.7564 13.853 49.5436 12.9858 49.3592 12.4029C49.2032 11.9195 49.5578 11.2513 49.7989 10.5688C49.8273 10.512 49.8415 10.4267 49.8556 10.3271C49.6713 10.3271 49.4727 10.3271 49.2883 10.3271C49.2883 11.6778 49.2032 13.2985 48.9337 14.0236Z" fill="#1F1A54"/>
<path d="M49.2741 10.3281C49.2741 11.6788 49.189 13.2995 48.9337 14.0246C48.9195 14.0672 48.9053 14.0957 48.8912 14.1383C48.5933 14.8634 48.1253 15.3326 47.3452 15.4747C47.2743 15.489 47.2033 15.5032 47.1324 15.5032C46.7069 15.5458 45.6432 15.3752 45.0616 14.7781" stroke="#1F1A54" stroke-width="0.5" stroke-miterlimit="10" stroke-linecap="round" stroke-linejoin="round"/>
<path d="M43.6574 14.4355L43.6007 15.8999" stroke="#1F1A54" stroke-width="0.5" stroke-miterlimit="10" stroke-linecap="round" stroke-linejoin="round"/>
<path d="M47.3452 15.4746L47.2034 17.6072" stroke="#1F1A54" stroke-width="0.5" stroke-miterlimit="10" stroke-linecap="round" stroke-linejoin="round"/>
<path d="M41.1896 12.5175C40.7357 11.6219 40.367 10.1717 40.9059 8.5794C41.8137 5.93501 44.6078 5.02511 46.8488 5.77862C49.0472 6.51791 49.9691 8.50831 50.0117 8.60783" stroke="#1F1A54" stroke-width="0.5" stroke-miterlimit="10" stroke-linecap="round" stroke-linejoin="round"/>
<path d="M45.2035 10.1855C44.6503 11.0386 44.6787 12.2044 44.9623 12.8299C45.2886 13.5692 45.3878 14.2517 44.9198 14.4791C44.778 14.5502 44.5794 14.5786 44.3241 14.5644C44.0971 14.5502 43.8702 14.4933 43.6575 14.4365C43.2036 14.2943 42.7923 14.0668 42.4802 13.8678C42.1115 13.6261 41.6576 13.2565 41.5158 13.0574C41.4165 12.9152 41.303 12.7446 41.2037 12.5314" stroke="#1F1A54" stroke-width="0.5" stroke-miterlimit="10" stroke-linecap="round" stroke-linejoin="round"/>
<path d="M48.8912 14.1383C49.7564 13.854 49.5436 12.9867 49.3592 12.4038C49.2032 11.9204 49.5578 11.2522 49.7989 10.5698C49.8273 10.5129 49.8415 10.4276 49.8556 10.3281" stroke="#1F1A54" stroke-width="0.5" stroke-miterlimit="10" stroke-linecap="round" stroke-linejoin="round"/>
<path d="M50.1534 8.93359C50.1534 8.93359 50.4513 8.96203 50.5222 9.41698" stroke="#1F1A54" stroke-width="0.5" stroke-miterlimit="10" stroke-linecap="round" stroke-linejoin="round"/>
<path d="M50.1535 8.93412C49.6287 8.79195 48.6926 8.8346 48.0969 8.90569C46.2247 9.14738 45.2319 10.0431 45.2035 10.171C45.2035 10.1852 45.2744 10.1994 45.3879 10.2137C45.9694 10.2847 47.7849 10.299 49.2741 10.3132C49.4727 10.3132 49.6713 10.3132 49.8415 10.3132C50.579 10.3132 51.1463 10.3132 51.3307 10.299C51.742 10.2847 51.118 9.9151 50.6499 9.51702C50.5932 9.47437 50.5506 9.43172 50.5081 9.38907C50.3662 9.26111 50.3804 9.23268 50.3804 9.23268" stroke="#1F1A54" stroke-width="0.5" stroke-miterlimit="10" stroke-linecap="round" stroke-linejoin="round"/>
<path d="M41.1896 12.5177C41.1896 12.5319 41.1896 12.5319 41.1896 12.5177C41.2889 12.5888 42.6222 13.584 43.6717 13.8825C43.7568 13.911 43.8419 13.9252 43.927 13.9394C44.7071 14.0674 44.6929 13.8257 44.4093 12.8731C43.8845 11.1102 44.2958 9.75957 45.8418 9.13401C47.5864 8.42316 49.4727 8.49424 49.7422 8.56533C49.8415 8.59376 49.9266 8.6222 50.0117 8.65063C50.4089 8.80702 50.5791 9.06293 50.5223 9.40414" stroke="#1F1A54" stroke-width="0.5" stroke-miterlimit="10" stroke-linecap="round" stroke-linejoin="round"/>
<path d="M45.3879 10.2003C45.3879 10.2003 46.1255 9.50371 47.5013 9.17671C48.2814 8.99189 49.0331 8.96346 49.6571 8.99189C50.0543 9.00611 50.3379 9.11984 50.3947 9.27623" stroke="#1F1A54" stroke-width="0.5" stroke-miterlimit="10" stroke-linecap="round" stroke-linejoin="round"/>
<path d="M46.5505 11.3416C46.556 11.1926 46.4653 11.0682 46.3479 11.0638C46.2305 11.0594 46.1308 11.1767 46.1253 11.3258C46.1197 11.4748 46.2104 11.5993 46.3278 11.6036C46.4453 11.608 46.5449 11.4907 46.5505 11.3416Z" fill="#1F1A54"/>
<path d="M48.4913 11.451C48.4968 11.3019 48.4061 11.1775 48.2887 11.1731C48.1713 11.1688 48.0716 11.2861 48.0661 11.4351C48.0605 11.5842 48.1512 11.7086 48.2686 11.713C48.386 11.7174 48.4857 11.6001 48.4913 11.451Z" fill="#1F1A54"/>
<path d="M45.9977 10.5273C46.1112 10.4562 46.2672 10.4277 46.4232 10.4277C46.5934 10.4277 46.7495 10.4988 46.8629 10.5841" stroke="#1F1A54" stroke-width="0.5" stroke-miterlimit="10" stroke-linecap="round" stroke-linejoin="round"/>
<path d="M47.8416 10.5985C47.9551 10.5275 48.1111 10.499 48.2671 10.499C48.4373 10.499 48.5933 10.5701 48.7068 10.6554" stroke="#1F1A54" stroke-width="0.5" stroke-miterlimit="10" stroke-linecap="round" stroke-linejoin="round"/>
<path d="M45.5581 12.8877C45.5581 12.8877 45.6999 13.6128 46.4942 13.8118" stroke="#1F1A54" stroke-width="0.5" stroke-miterlimit="10" stroke-linecap="round" stroke-linejoin="round"/>
<path d="M46.9622 12.5742C46.9622 12.5742 47.2743 12.759 47.5296 12.6027" stroke="#1F1A54" stroke-width="0.5" stroke-miterlimit="10" stroke-linecap="round" stroke-linejoin="round"/>
<path d="M46.0688 15.3169C46.083 15.5444 46.7496 15.7861 47.1042 15.7719C47.5438 15.7577 47.9126 15.5017 47.9126 15.3454C47.8984 15.189 47.629 15.2601 47.2744 15.2743C46.9198 15.3027 46.0688 15.1605 46.0688 15.3169Z" fill="#1F1A54"/>
<path d="M41.7144 8.62167C41.8137 8.36576 41.9555 8.10986 42.1399 7.86816" stroke="white" stroke-width="0.5" stroke-linecap="round" stroke-linejoin="round"/>
<path d="M41.5159 11.4367C41.5159 11.4367 41.2606 10.4415 41.5017 9.31836" stroke="white" stroke-width="0.5" stroke-linecap="round" stroke-linejoin="round"/>
<path d="M68.521 28.0137C68.5636 28.3691 68.4927 28.5255 68.4927 28.5255C68.4643 28.6534 68.0814 28.7387 67.9253 28.7814C67.8828 28.7956 67.8402 28.8098 67.7835 28.824C67.67 28.8525 67.4147 28.9236 67.0034 28.9804H66.9892C66.4361 29.0515 66.0815 28.6534 66.0389 28.6108L66.6488 28.2411C66.8758 28.3833 67.046 28.426 67.1452 28.4544C67.1878 28.4686 67.2162 28.4686 67.2162 28.4686C67.8261 28.3407 68.2941 28.1558 68.4643 28.0705C68.4785 28.0421 68.5069 28.0279 68.521 28.0137Z" fill="white" stroke="#1F1A54" stroke-width="0.5" stroke-miterlimit="10" stroke-linecap="round" stroke-linejoin="round"/>
<path d="M66.6772 28.4409L66.0673 28.8106L65.9538 28.8817C65.4432 29.1944 64.5922 28.4552 64.5922 28.4552L51.7704 26.2088L50.6499 25.5122L51.0612 24.6592L51.9122 25.171L63.7412 27.4315L64.422 27.531C64.7908 27.9007 65.117 28.0855 65.3865 28.1566C65.5141 28.1992 65.6276 28.2135 65.7127 28.2277C65.7978 28.2419 65.8829 28.2277 65.968 28.1992C66.0389 28.1708 66.124 28.1282 66.1808 28.0713C66.1808 28.0713 66.1949 28.0571 66.2091 28.0571L66.2375 28.0997C66.4077 28.2561 66.5495 28.3556 66.6772 28.4409Z" fill="white" stroke="#1F1A54" stroke-width="0.5" stroke-miterlimit="10" stroke-linecap="round" stroke-linejoin="round"/>
<path d="M75.4567 52.3828C75.4425 52.3828 75.4283 52.3828 75.4141 52.397C75.1588 52.4397 74.9177 52.5108 74.6624 52.5818C71.2442 53.5344 68.7195 56.1219 67.67 60.4581H65.9963V29.3652C66.5353 30.2893 67.4289 30.9718 68.5068 31.1992C68.5068 31.1992 68.6628 33.5877 70.0528 35.9336C71.0882 37.6681 72.8186 38.7628 74.0525 40.3267C75.2581 41.8479 76.1375 43.6393 76.4779 45.5586C76.8892 47.8902 76.4495 50.2645 75.4567 52.3828Z" fill="#FFD400" stroke="#1F1A54" stroke-width="0.5" stroke-miterlimit="10" stroke-linecap="round" stroke-linejoin="round"/>
<path d="M48.8203 46.0264V62.8026H21.886C21.8719 62.76 21.8719 62.7031 21.8719 62.6462C21.7868 62.0349 21.7442 61.3951 21.7442 60.7696C21.7442 53.2771 27.8005 46.0264 35.2894 46.0264H48.8203Z" fill="#FFD400" stroke="#1F1A54" stroke-width="0.5" stroke-miterlimit="10" stroke-linecap="round" stroke-linejoin="round"/>
<path d="M35.2752 69.3569C39.5991 69.3569 43.1044 65.8433 43.1044 61.509C43.1044 57.1747 39.5991 53.6611 35.2752 53.6611C30.9512 53.6611 27.4459 57.1747 27.4459 61.509C27.4459 65.8433 30.9512 69.3569 35.2752 69.3569Z" fill="#1F1A54"/>
<path d="M35.275 66.3572C37.9462 66.3572 40.1116 64.1867 40.1116 61.5092C40.1116 58.8317 37.9462 56.6611 35.275 56.6611C32.6039 56.6611 30.4385 58.8317 30.4385 61.5092C30.4385 64.1867 32.6039 66.3572 35.275 66.3572Z" fill="#A8AAB7" stroke="#1F1A54" stroke-width="0.5" stroke-miterlimit="10"/>
<path d="M35.2751 63.4708C36.3561 63.4708 37.2324 62.5924 37.2324 61.5088C37.2324 60.4253 36.3561 59.5469 35.2751 59.5469C34.1941 59.5469 33.3178 60.4253 33.3178 61.5088C33.3178 62.5924 34.1941 63.4708 35.2751 63.4708Z" fill="#1F1A54"/>
<path d="M44.934 61.5095H25.6304C25.6304 56.1638 29.9421 51.8418 35.2751 51.8418C40.6081 51.8418 44.934 56.1638 44.934 61.5095Z" fill="#FFD400" stroke="#1F1A54" stroke-width="0.5" stroke-miterlimit="10" stroke-linecap="round" stroke-linejoin="round"/>
<path d="M47.3594 46.028H36.3389C35.5304 46.028 34.878 45.374 34.878 44.5636V41.8482C34.878 41.0378 35.5304 40.3838 36.3389 40.3838H47.3594C48.1678 40.3838 48.8203 41.0378 48.8203 41.8482V44.5636C48.8203 45.374 48.1678 46.028 47.3594 46.028Z" fill="#FFD400" stroke="#1F1A54" stroke-width="0.5" stroke-miterlimit="10" stroke-linecap="round" stroke-linejoin="round"/>
<path d="M69.7692 60.4434H48.8203V62.8034H69.7692V60.4434Z" fill="#FFD400" stroke="#1F1A54" stroke-width="0.5" stroke-miterlimit="10" stroke-linecap="round" stroke-linejoin="round"/>
<path d="M69.4146 31.2977C71.2442 31.2977 72.7335 29.8049 72.7335 27.9709C72.7335 26.1369 71.2584 24.6299 69.4146 24.6299" fill="#FFEB86"/>
<path d="M69.4146 31.2977C71.2442 31.2977 72.7335 29.8049 72.7335 27.9709C72.7335 26.1369 71.2584 24.6299 69.4146 24.6299" stroke="#1F1A54" stroke-width="0.5" stroke-miterlimit="10" stroke-linecap="round" stroke-linejoin="round"/>
<path d="M69.4146 23.5352V32.3924C69.0884 32.3924 68.7622 32.3498 68.4501 32.2929C67.2304 32.0228 66.195 31.2408 65.5851 30.1888C65.2021 29.5348 64.9894 28.7813 64.9894 27.9709C64.9894 27.1605 65.2021 26.407 65.5851 25.753C66.3652 24.4166 67.7835 23.5352 69.4146 23.5352Z" fill="#FFD400" stroke="#1F1A54" stroke-width="0.5" stroke-miterlimit="10" stroke-linecap="round" stroke-linejoin="round"/>
<path d="M51.0471 24.7025L50.6358 25.5698L50.5365 25.783L48.2955 24.6456L48.4374 23.4656L48.8771 23.3945L51.0471 24.7025Z" fill="#FFD400" stroke="#1F1A54" stroke-width="0.5" stroke-miterlimit="10" stroke-linecap="round" stroke-linejoin="round"/>
<path d="M50.3096 24.732L50.437 24.7178" stroke="#1F1A54" stroke-width="0.5" stroke-miterlimit="10" stroke-linecap="round" stroke-linejoin="round"/>
<path d="M43.2321 16.7836L43.2463 15.2197L46.7354 16.5704L46.8063 17.5656" fill="#FFD400"/>
<path d="M43.2321 16.7836L43.2463 15.2197L46.7354 16.5704L46.8063 17.5656" stroke="#1F1A54" stroke-width="0.5" stroke-miterlimit="10" stroke-linecap="round" stroke-linejoin="round"/>
<path d="M48.9622 18.7312C48.9622 18.7312 48.0544 27.3041 46.9623 35.0383C46.9623 35.0383 38.2679 34.5264 36.7361 34.9956L37.2609 32.3228C37.5162 30.9153 38.7643 25.0863 40.8351 18.3331C41.2748 16.8972 42.6648 16.0015 44.1115 16.1437C44.2817 16.1579 44.4519 16.1863 44.6221 16.2432C45.4447 16.4849 46.2673 16.9825 47.2034 17.5938C47.3878 17.7218 47.5864 17.8355 47.785 17.9777C48.1537 18.2336 48.5509 18.4895 48.9622 18.7312Z" fill="#FFD400" stroke="#1F1A54" stroke-width="0.5" stroke-miterlimit="10" stroke-linecap="round" stroke-linejoin="round"/>
<path d="M48.9621 18.7314L51.7279 20.4659L50.5365 24.4041L50.4372 24.7169L50.423 24.788L50.3095 24.7311L44.9056 21.6744" fill="#FFD400"/>
<path d="M48.9621 18.7314L51.7279 20.4659L50.5365 24.4041L50.4372 24.7169L50.423 24.788L50.3095 24.7311L44.9056 21.6744" stroke="#1F1A54" stroke-width="0.5" stroke-miterlimit="10" stroke-linecap="round" stroke-linejoin="round"/>
<path d="M68.1523 26.9476L68.1381 27.5732H68.6913L68.8331 27.2604V26.8623L68.1523 26.9476Z" fill="white"/>
<path d="M68.8473 27.0176C68.8331 27.1597 68.8047 27.3446 68.7905 27.501C68.7622 27.7284 68.748 27.9133 68.748 27.9133C68.748 27.9133 68.6771 28.1123 68.5494 28.226C68.5352 28.2403 68.5069 28.2545 68.4927 28.2687C68.3225 28.3398 67.8544 28.5246 67.2445 28.6668C67.2445 28.6668 67.2162 28.6668 67.1736 28.6526C67.0885 28.6383 66.9041 28.5815 66.6772 28.4393C66.5495 28.354 66.4077 28.2545 66.2517 28.1123L66.2233 28.0696C66.2517 28.0554 66.2801 28.027 66.3084 27.9986C66.3368 27.9701 66.3793 27.9417 66.4219 27.9133C66.5495 27.7995 66.6914 27.6858 66.819 27.5863C66.8758 27.6858 66.9467 27.7711 67.0318 27.828C67.1878 27.9417 67.3864 27.9986 67.5849 27.9701C67.7977 27.9417 67.9821 27.828 68.0955 27.6716" fill="white"/>
<path d="M68.8473 27.0176C68.8331 27.1597 68.8047 27.3446 68.7905 27.501C68.7622 27.7284 68.748 27.9133 68.748 27.9133C68.748 27.9133 68.6771 28.1123 68.5494 28.226C68.5352 28.2403 68.5069 28.2545 68.4927 28.2687C68.3225 28.3398 67.8544 28.5246 67.2445 28.6668C67.2445 28.6668 67.2162 28.6668 67.1736 28.6526C67.0885 28.6383 66.9041 28.5815 66.6772 28.4393C66.5495 28.354 66.4077 28.2545 66.2517 28.1123L66.2233 28.0696C66.2517 28.0554 66.2801 28.027 66.3084 27.9986C66.3368 27.9701 66.3793 27.9417 66.4219 27.9133C66.5495 27.7995 66.6914 27.6858 66.819 27.5863C66.8758 27.6858 66.9467 27.7711 67.0318 27.828C67.1878 27.9417 67.3864 27.9986 67.5849 27.9701C67.7977 27.9417 67.9821 27.828 68.0955 27.6716" stroke="#1F1A54" stroke-width="0.5" stroke-miterlimit="10" stroke-linecap="round" stroke-linejoin="round"/>
<path d="M68.0813 27.659C68.1948 27.5026 68.2515 27.3035 68.2231 27.1045L68.0813 27.659Z" fill="white"/>
<path d="M68.0813 27.659C68.1948 27.5026 68.2515 27.3035 68.2231 27.1045" stroke="#1F1A54" stroke-width="0.5" stroke-miterlimit="10" stroke-linecap="round" stroke-linejoin="round"/>
<path d="M68.2231 27.1038C68.1664 26.6773 67.7835 26.393 67.3579 26.4498C67.3154 26.4498 67.2587 26.464 67.2161 26.4783C66.8757 26.592 66.6488 26.9332 66.7055 27.3029C66.7197 27.4024 66.7481 27.4877 66.7906 27.573C66.663 27.6725 66.5211 27.8005 66.3935 27.9C66.3509 27.9284 66.3226 27.9569 66.28 27.9853C66.2516 28.0137 66.2233 28.0279 66.1949 28.0564C66.1807 28.0564 66.1807 28.0706 66.1665 28.0706C66.1098 28.1275 66.0247 28.1701 65.9538 28.1985C65.8687 28.227 65.7836 28.2412 65.6985 28.227C65.6134 28.227 65.4999 28.1985 65.3723 28.1559C65.1028 28.0706 64.7624 27.8858 64.4078 27.5303L63.727 27.4308L51.898 25.1703L51.047 24.6585L50.5364 24.3599L51.6995 20.4502L53.3589 21.5449L64.2943 25.5826L64.8759 25.739L67.4147 25.284C67.4147 25.284 67.9962 25.1987 68.2231 25.5542C68.4501 25.9096 68.7905 26.4498 68.7905 26.4498C68.7905 26.4498 68.8898 26.592 68.8614 26.72C68.8614 26.7484 68.8472 26.8621 68.8188 27.0043" fill="white"/>
<path d="M68.2231 27.1038C68.1664 26.6773 67.7835 26.393 67.3579 26.4498C67.3154 26.4498 67.2587 26.464 67.2161 26.4783C66.8757 26.592 66.6488 26.9332 66.7055 27.3029C66.7197 27.4024 66.7481 27.4877 66.7906 27.573C66.663 27.6725 66.5211 27.8005 66.3935 27.9C66.3509 27.9284 66.3226 27.9569 66.28 27.9853C66.2516 28.0137 66.2233 28.0279 66.1949 28.0564C66.1807 28.0564 66.1807 28.0706 66.1665 28.0706C66.1098 28.1275 66.0247 28.1701 65.9538 28.1985C65.8687 28.227 65.7836 28.2412 65.6985 28.227C65.6134 28.227 65.4999 28.1985 65.3723 28.1559C65.1028 28.0706 64.7624 27.8858 64.4078 27.5303L63.727 27.4308L51.898 25.1703L51.047 24.6585L50.5364 24.3599L51.6995 20.4502L53.3589 21.5449L64.2943 25.5826L64.8759 25.739L67.4147 25.284C67.4147 25.284 67.9962 25.1987 68.2231 25.5542C68.4501 25.9096 68.7905 26.4498 68.7905 26.4498C68.7905 26.4498 68.8898 26.592 68.8614 26.72C68.8614 26.7484 68.8472 26.8621 68.8188 27.0043" stroke="#1F1A54" stroke-width="0.5" stroke-miterlimit="10" stroke-linecap="round" stroke-linejoin="round"/>
<path d="M67.429 26.5069C67.429 26.5069 67.3155 27.1752 66.9893 27.4169C66.9326 27.4595 66.8617 27.5164 66.7908 27.5732C66.7482 27.4879 66.7198 27.4026 66.7057 27.3031C66.6631 26.9335 66.8759 26.5923 67.2162 26.4785L67.429 26.5069Z" fill="white" stroke="#1F1A54" stroke-width="0.5" stroke-miterlimit="10" stroke-linecap="round" stroke-linejoin="round"/>
<path d="M68.0814 27.6588C67.9679 27.8152 67.7836 27.9289 67.5708 27.9573C67.3722 27.9858 67.1737 27.9289 67.0177 27.8152C66.9326 27.7583 66.8616 27.673 66.8049 27.5735C66.7624 27.4882 66.734 27.4029 66.7198 27.3033C66.6773 26.9337 66.89 26.5925 67.2304 26.4787C67.273 26.4645 67.3155 26.4503 67.3722 26.4503C67.7977 26.3934 68.1807 26.692 68.2374 27.1043C68.2516 27.3033 68.1949 27.5024 68.0814 27.6588Z" fill="#1F1A54"/>
<path d="M47.4445 23.1094C47.4445 23.1094 47.3878 23.9624 47.3169 24.3178L47.4445 23.1094Z" fill="#FFD400"/>
<path d="M47.4445 23.1094C47.4445 23.1094 47.3878 23.9624 47.3169 24.3178" stroke="#1F1A54" stroke-width="0.5" stroke-miterlimit="10" stroke-linecap="round" stroke-linejoin="round"/>
<path d="M75.6552 69.3569C79.9792 69.3569 83.4845 65.8433 83.4845 61.509C83.4845 57.1747 79.9792 53.6611 75.6552 53.6611C71.3313 53.6611 67.826 57.1747 67.826 61.509C67.826 65.8433 71.3313 69.3569 75.6552 69.3569Z" fill="#1F1A54"/>
<path d="M75.6553 66.3572C78.3265 66.3572 80.4919 64.1867 80.4919 61.5092C80.4919 58.8317 78.3265 56.6611 75.6553 56.6611C72.9842 56.6611 70.8188 58.8317 70.8188 61.5092C70.8188 64.1867 72.9842 66.3572 75.6553 66.3572Z" fill="#A8AAB7" stroke="#1F1A54" stroke-width="0.5" stroke-miterlimit="10"/>
<path d="M75.6553 63.4708C76.7363 63.4708 77.6126 62.5924 77.6126 61.5088C77.6126 60.4253 76.7363 59.5469 75.6553 59.5469C74.5743 59.5469 73.698 60.4253 73.698 61.5088C73.698 62.5924 74.5743 63.4708 75.6553 63.4708Z" fill="#1F1A54"/>
<path d="M85.3001 61.5095H66.0106C66.0106 56.1638 70.3224 51.8418 75.6553 51.8418C80.9741 51.8418 85.3001 56.1638 85.3001 61.5095Z" fill="#FFD400" stroke="#1F1A54" stroke-width="0.5" stroke-miterlimit="10" stroke-linecap="round" stroke-linejoin="round"/>
<path d="M31.9988 35.4902V35.931C31.9988 37.0257 31.1052 37.9214 30.0131 37.9214H16.2694C15.1772 37.9214 14.2837 37.0257 14.2837 35.931V35.4902H31.9988Z" fill="#1F1A54" stroke="#1F1A54" stroke-width="0.5" stroke-miterlimit="10" stroke-linecap="round" stroke-linejoin="round"/>
<path d="M31.9988 21.5588V35.4916H14.2837V21.5588C14.2837 20.464 15.1772 19.5684 16.2694 19.5684H30.0131C31.1052 19.5684 31.9988 20.464 31.9988 21.5588Z" fill="#FFD400" stroke="#1F1A54" stroke-width="0.5" stroke-miterlimit="10" stroke-linecap="round" stroke-linejoin="round"/>
<path d="M31.9988 38.2217H14.2837" stroke="#1F1A54" stroke-width="0.5" stroke-miterlimit="10" stroke-linecap="round"/>
<path d="M30.2968 26.4779H15.9857C15.0496 26.4779 14.2837 25.7102 14.2837 24.7718V21.2744C14.2837 20.3361 15.0496 19.5684 15.9857 19.5684H30.2968C31.2329 19.5684 31.9988 20.3361 31.9988 21.2744V24.7718C31.9988 25.7102 31.2329 26.4779 30.2968 26.4779Z" fill="#FFD400" stroke="#1F1A54" stroke-width="0.5" stroke-miterlimit="10" stroke-linecap="round" stroke-linejoin="round"/>
<path d="M88.0913 5.497C87.9869 4.27049 87.405 3.12671 86.4615 2.29342C85.518 1.46014 84.2822 0.998485 83 1.00039C82.3417 0.992267 81.6883 1.11058 81.0783 1.34837C80.4683 1.58617 79.9141 1.93864 79.4481 2.38505C78.9821 2.83147 78.6139 3.36281 78.365 3.94782C78.1162 4.53284 77.9917 5.15971 77.999 5.79157V6.51068H77.2497C76.3972 6.53874 75.5874 6.87635 74.9842 7.45532C74.381 8.03428 74.0292 8.81142 74 9.62971V13H88.0913C89.1279 13 90.1221 12.6048 90.8552 11.9012C91.5882 11.1977 92 10.2435 92 9.2485C92 8.25354 91.5882 7.29933 90.8552 6.59578C90.1221 5.89224 89.1279 5.497 88.0913 5.497Z" stroke="#1F1A54" stroke-width="0.5" stroke-linecap="round" stroke-linejoin="round"/>
</svg>
