<svg width="81" height="80" viewBox="0 0 81 80" fill="none" xmlns="http://www.w3.org/2000/svg">
<path d="M46.0999 24.7019C46.1122 23.4162 45.8664 22.1411 45.377 20.9521C44.8876 19.7631 44.1646 18.6844 43.2507 17.7799C42.3369 16.8754 41.2509 16.1635 40.0569 15.6863C38.863 15.2092 37.5855 14.9764 36.2999 15.0019C30.8999 15.0019 26.1999 19.3019 26.4999 24.7019C26.5999 25.8019 27.5999 31.2019 27.5999 31.2019C28.3999 35.9019 31.4999 39.8019 36.2999 39.8019C41.0999 39.8019 44.0999 35.9019 44.9999 31.2019C44.9999 31.2019 45.9999 25.8019 46.0999 24.7019Z" stroke="#1F1A54" stroke-width="2" stroke-linecap="round" stroke-linejoin="round"/>
<path d="M41.88 44.6914L53.1 46.6914C55.9 47.2914 58.4 48.9914 58.8 51.7914L60 60.2914H12.5L13.6 51.7914C14.1 48.9914 16.6 47.2914 19.3 46.6914L30.5 44.6914L35.84 49.4314L41.84 44.6914" stroke="#1F1A54" stroke-width="2" stroke-linecap="round" stroke-linejoin="round"/>
<path d="M40.71 60.2815V55.6415C40.7663 54.4103 41.295 53.2482 42.1862 52.3968C43.0774 51.5454 44.2625 51.0703 45.495 51.0703C46.7275 51.0703 47.9125 51.5454 48.8037 52.3968C49.6949 53.2482 50.2237 54.4103 50.28 55.6415V60.2815" stroke="#1F1A54" stroke-width="2" stroke-linecap="round" stroke-linejoin="round"/>
<path d="M45.49 50.862V45.332" stroke="#1F1A54" stroke-width="2" stroke-linecap="round" stroke-linejoin="round"/>
<path d="M26.5 54.3926C27.6046 54.3926 28.5 53.4971 28.5 52.3926C28.5 51.288 27.6046 50.3926 26.5 50.3926C25.3954 50.3926 24.5 51.288 24.5 52.3926C24.5 53.4971 25.3954 54.3926 26.5 54.3926Z" stroke="#1F1A54" stroke-width="2" stroke-linecap="round" stroke-linejoin="round"/>
<path d="M26.5 45.4023V50.3923" stroke="#1F1A54" stroke-width="2" stroke-linecap="round" stroke-linejoin="round"/>
<path d="M26.5 23.8418H46.09" stroke="#1F1A54" stroke-width="2" stroke-linecap="round" stroke-linejoin="round"/>
<rect x="48" y="27" width="26" height="26" rx="1" fill="#F44747" stroke="white" stroke-width="2"/>
<path d="M68.08 39.64V40.48C68.0724 40.8118 67.9372 41.1278 67.7025 41.3625C67.4678 41.5972 67.1518 41.7324 66.82 41.74H63.12C63.0641 41.7371 63.0082 41.746 62.9559 41.7661C62.9037 41.7862 62.8562 41.817 62.8166 41.8566C62.777 41.8962 62.7462 41.9437 62.7261 41.9959C62.706 42.0482 62.6971 42.1041 62.7 42.16V45.86C62.6924 46.1918 62.5572 46.5078 62.3225 46.7425C62.0878 46.9772 61.7718 47.1124 61.44 47.12H60.6C60.2753 47.1024 59.9692 46.9629 59.7429 46.7292C59.5167 46.4956 59.3871 46.1851 59.38 45.86V42.16C59.3829 42.1041 59.374 42.0482 59.3539 41.9959C59.3338 41.9437 59.303 41.8962 59.2634 41.8566C59.2238 41.817 59.1763 41.7862 59.1241 41.7661C59.0718 41.746 59.0159 41.7371 58.96 41.74H55.26C54.9282 41.7324 54.6122 41.5972 54.3775 41.3625C54.1428 41.1278 54.0076 40.8118 54 40.48V39.64C54.0076 39.3082 54.1428 38.9922 54.3775 38.7575C54.6122 38.5228 54.9282 38.3876 55.26 38.38H58.96C59.0159 38.3829 59.0718 38.374 59.1241 38.3539C59.1763 38.3338 59.2238 38.303 59.2634 38.2634C59.303 38.2238 59.3338 38.1763 59.3539 38.1241C59.374 38.0718 59.3829 38.0159 59.38 37.96V34.26C59.3876 33.9282 59.5228 33.6122 59.7575 33.3775C59.9922 33.1428 60.3082 33.0076 60.64 33H61.48C61.8118 33.0076 62.1278 33.1428 62.3625 33.3775C62.5972 33.6122 62.7324 33.9282 62.74 34.26V37.96C62.7371 38.0159 62.746 38.0718 62.7661 38.1241C62.7862 38.1763 62.817 38.2238 62.8566 38.2634C62.8962 38.303 62.9437 38.3338 62.9959 38.3539C63.0482 38.374 63.1041 38.3829 63.16 38.38H66.86C67.1847 38.3976 67.4908 38.5371 67.7171 38.7708C67.9433 39.0044 68.0729 39.3149 68.08 39.64Z" fill="white"/>
</svg>
