<svg width="206" height="121" viewBox="0 0 206 121" fill="none" xmlns="http://www.w3.org/2000/svg">
<path d="M168.08 1H43.0802C36.4528 1 31.0802 6.37258 31.0802 13V92C31.0802 98.6274 36.4528 104 43.0802 104H168.08C174.708 104 180.08 98.6274 180.08 92V13C180.08 6.37258 174.708 1 168.08 1Z" stroke="#9DAFED" stroke-linecap="round" stroke-dasharray="5 5"/>
<path d="M89.7202 38.5003H84.1402V34.7703L105.56 27.3203L126.99 34.7703V38.5003H106.09" stroke="#9DAFED" stroke-linecap="round" stroke-dasharray="5 5"/>
<path d="M127.02 70.2004H84.1402V66.4304C84.1442 65.9385 84.2462 65.4523 84.4402 65.0004C84.6306 64.5496 84.9094 64.1415 85.2602 63.8004C85.615 63.4571 86.0326 63.1855 86.4902 63.0004C86.9463 62.8246 87.4315 62.7364 87.9202 62.7404H123.25C123.74 62.7389 124.225 62.8305 124.68 63.0104C125.136 63.1895 125.55 63.4581 125.9 63.8004C126.249 64.1434 126.527 64.551 126.72 65.0004C126.918 65.4512 127.02 65.9381 127.02 66.4304V70.2004Z" stroke="#9DAFED" stroke-linecap="round" stroke-dasharray="5 5"/>
<path d="M89.7202 38.5V62.74H95.3302V38.5" stroke="#9DAFED" stroke-linecap="round" stroke-dasharray="5 5"/>
<path d="M102.78 38.5V62.74H108.38V38.5" stroke="#9DAFED" stroke-linecap="round" stroke-dasharray="5 5"/>
<path d="M115.83 38.5V62.74H121.44V38.5" stroke="#9DAFED" stroke-linecap="round" stroke-dasharray="5 5"/>
<path d="M23.5602 88.2901C15.7602 90.1201 4.0602 86.2901 6.6102 73.0401C8.6102 62.6401 15.5302 64.43 18.5402 68.39C20.3202 70.72 19.4102 74.63 16.1302 76.59C8.9902 80.85 -3.0698 70.59 2.2602 55.67C4.4802 49.5 8.0702 46.61 11.6702 45.3" stroke="#FED401" stroke-width="0.8" stroke-linecap="round" stroke-dasharray="4 4"/>
<path d="M22.2902 24.93L37.7202 19.93C39.4409 19.3517 41.2596 19.1216 43.0701 19.2531C44.8807 19.3847 46.6469 19.8753 48.266 20.6964C49.885 21.5174 51.3244 22.6525 52.5004 24.0355C53.6763 25.4185 54.5652 27.0216 55.1154 28.7516C55.6655 30.4816 55.8658 32.3037 55.7046 34.1119C55.5434 35.9201 55.0239 37.678 54.1765 39.2834C53.329 40.8888 52.1705 42.3095 50.7685 43.4626C49.3665 44.6157 47.7489 45.4783 46.0102 46L30.5602 50.99C27.0885 52.0969 23.3194 51.7815 20.0799 50.113C16.8404 48.4446 14.395 45.5592 13.2802 42.09C10.8502 35.06 14.9602 27.27 22.2902 24.93Z" fill="#FED401"/>
<path d="M30.2802 29.33L30.8102 28.82C31.2314 28.2656 31.5379 27.6329 31.7117 26.9587C31.8856 26.2845 31.9233 25.5824 31.8228 24.8935C31.7222 24.2045 31.4854 23.5425 31.1261 22.9461C30.7668 22.3497 30.2923 21.831 29.7302 21.42L22.9502 16.33C21.8159 15.4892 20.3951 15.1309 18.9977 15.3332C17.6003 15.5355 16.3395 16.282 15.4902 17.41L14.9802 18.04C14.5593 18.5936 14.253 19.2256 14.0793 19.899C13.9055 20.5724 13.8679 21.2737 13.9684 21.9618C14.069 22.65 14.3058 23.3111 14.665 23.9066C15.0241 24.5022 15.4985 25.0201 16.0602 25.43L22.8402 30.5C23.9833 31.3277 25.4075 31.6693 26.8016 31.45C28.1957 31.2308 29.4464 30.4686 30.2802 29.33Z" fill="white" stroke="#221E54" stroke-width="0.8" stroke-miterlimit="10" stroke-linecap="round"/>
<path d="M30.4002 30.5L31.0902 30.43C32.4884 30.1518 33.7203 29.3328 34.518 28.1512C35.3157 26.9696 35.6148 25.5209 35.3502 24.12L33.8302 15.85C33.5384 14.4535 32.7087 13.2278 31.5204 12.4381C30.3321 11.6484 28.8808 11.3582 27.4802 11.63L26.7902 11.7C25.4024 11.983 24.1814 12.7998 23.3901 13.9745C22.5989 15.1492 22.3008 16.5877 22.5602 17.98L24.3102 26.23C24.413 26.9181 24.6548 27.5781 25.0207 28.1699C25.3866 28.7616 25.8691 29.2727 26.4387 29.6721C27.0084 30.0715 27.6534 30.3509 28.3344 30.4932C29.0154 30.6356 29.7183 30.6379 30.4002 30.5Z" fill="white" stroke="#221E54" stroke-width="0.8" stroke-miterlimit="10" stroke-linecap="round"/>
<path d="M22.2902 24.93L37.7202 19.93C39.4409 19.3517 41.2596 19.1216 43.0701 19.2531C44.8807 19.3847 46.6469 19.8753 48.266 20.6964C49.885 21.5174 51.3244 22.6525 52.5004 24.0355C53.6763 25.4185 54.5652 27.0216 55.1154 28.7516C55.6655 30.4816 55.8658 32.3037 55.7046 34.1119C55.5434 35.9201 55.0239 37.678 54.1765 39.2834C53.329 40.8888 52.1705 42.3095 50.7685 43.4626C49.3665 44.6157 47.7489 45.4783 46.0102 46L30.5602 50.99C27.0885 52.0969 23.3194 51.7815 20.0799 50.113C16.8404 48.4446 14.395 45.5592 13.2802 42.09C10.8502 35.06 14.9602 27.27 22.2902 24.93Z" fill="#FED401"/>
<mask id="mask0" mask-type="alpha" maskUnits="userSpaceOnUse" x="12" y="19" width="44" height="33">
<path d="M22.2902 24.9297L37.7202 19.9297C39.4409 19.3513 41.2595 19.1212 43.0701 19.2528C44.8806 19.3843 46.6469 19.875 48.2659 20.696C49.885 21.5171 51.3244 22.6522 52.5003 24.0351C53.6763 25.4181 54.5652 27.0213 55.1153 28.7512C55.6654 30.4812 55.8657 32.3034 55.7045 34.1115C55.5434 35.9197 55.0239 37.6777 54.1764 39.2831C53.329 40.8884 52.1705 42.3091 50.7685 43.4622C49.3664 44.6154 47.7489 45.4779 46.0102 45.9997L30.5602 50.9897C27.0884 52.0966 23.3194 51.7812 20.0799 50.1127C16.8404 48.4442 14.395 45.5589 13.2802 42.0897C10.8502 35.0597 14.9602 27.2697 22.2902 24.9297Z" fill="#FED401"/>
</mask>
<g mask="url(#mask0)">
<path d="M33.9002 20.0801C33.9002 20.0801 27.2102 37.0201 42.5602 47.5001L32.7602 50.6601C32.7602 50.6601 19.0202 40.0201 24.1302 23.5901C24.3402 23.3401 33.9102 20.2001 33.9002 20.0801Z" fill="#221E54"/>
<path d="M17.0802 26.3701C17.0802 26.3701 10.4702 42.9501 25.6902 53.3701L15.8902 56.5001C15.8902 56.5001 2.17021 45.9701 7.31021 29.8801C7.41021 29.6401 17.2302 26.7001 17.0802 26.3701Z" fill="#221E54"/>
</g>
<path d="M48.1802 32.74C48.1802 32.74 46.4102 31.67 44.7002 34.01" stroke="#221E54" stroke-width="0.8" stroke-miterlimit="10" stroke-linecap="round"/>
<path d="M39.5002 31.9901C39.6512 32.3859 39.9477 32.7091 40.3292 32.8933C40.7107 33.0776 41.1482 33.1091 41.5521 32.9812C41.956 32.8534 42.2958 32.576 42.5018 32.2058C42.7078 31.8356 42.7645 31.4007 42.6602 30.9901C42.5957 30.7799 42.4896 30.5848 42.3481 30.4164C42.2067 30.2481 42.0329 30.1099 41.837 30.01C41.641 29.9102 41.4271 29.8508 41.2077 29.8354C40.9884 29.8199 40.7682 29.8487 40.5602 29.9201C40.3512 29.981 40.1569 30.084 39.9891 30.2227C39.8213 30.3614 39.6835 30.5329 39.5843 30.7267C39.4851 30.9205 39.4264 31.1325 39.412 31.3497C39.3975 31.5669 39.4275 31.7848 39.5002 31.9901Z" fill="#221E54"/>
<path d="M40.2702 31.5599C40.2754 31.6421 40.3041 31.7211 40.3529 31.7874C40.4017 31.8538 40.4685 31.9047 40.5454 31.9342C40.6222 31.9637 40.706 31.9705 40.7866 31.9538C40.8672 31.9371 40.9414 31.8976 41.0002 31.8399C41.0825 31.8373 41.1621 31.8105 41.2293 31.7629C41.2964 31.7153 41.3481 31.6491 41.3779 31.5724C41.4078 31.4957 41.4144 31.4119 41.397 31.3315C41.3797 31.2511 41.339 31.1775 41.2802 31.1199C41.275 31.0378 41.2463 30.9588 41.1975 30.8925C41.1488 30.8261 41.082 30.7752 41.0051 30.7457C40.9282 30.7162 40.8444 30.7094 40.7638 30.7261C40.6832 30.7428 40.609 30.7823 40.5502 30.8399C40.4402 30.8599 40.2402 31.2199 40.2702 31.5599Z" fill="white"/>
<path d="M47.7402 29.44C47.8388 29.7513 48.0276 30.0263 48.2827 30.2302C48.5377 30.4341 48.8475 30.5578 49.1729 30.5855C49.4982 30.6133 49.8245 30.5439 50.1104 30.3861C50.3963 30.2283 50.6289 29.9892 50.7788 29.6992C50.9288 29.4091 50.9893 29.0811 50.9527 28.7566C50.9161 28.4321 50.784 28.1258 50.5733 27.8764C50.3625 27.627 50.0824 27.4458 49.7686 27.3556C49.4547 27.2655 49.1212 27.2705 48.8102 27.37C48.6027 27.4336 48.4099 27.538 48.2433 27.6771C48.0767 27.8162 47.9395 27.9872 47.8398 28.18C47.7402 28.3728 47.68 28.5836 47.6629 28.7999C47.6458 29.0163 47.6721 29.2339 47.7402 29.44Z" fill="#221E54"/>
<path d="M48.5602 29.02C48.5671 29.1013 48.5971 29.179 48.6465 29.244C48.696 29.3089 48.7629 29.3584 48.8395 29.3868C48.9161 29.4151 48.9991 29.421 49.0789 29.4039C49.1587 29.3867 49.232 29.3472 49.2902 29.29C49.3559 29.2604 49.4151 29.2183 49.4644 29.1658C49.5138 29.1134 49.5523 29.0518 49.5779 28.9844C49.6034 28.9171 49.6154 28.8454 49.6133 28.7735C49.6111 28.7015 49.5948 28.6307 49.5652 28.565C49.5357 28.4993 49.4935 28.4401 49.441 28.3908C49.3886 28.3414 49.327 28.3029 49.2597 28.2773C49.1923 28.2518 49.1206 28.2398 49.0487 28.2419C48.9767 28.2441 48.9059 28.2604 48.8402 28.29C48.6702 28.31 48.4802 28.67 48.5602 29.02Z" fill="white"/>
<path d="M45.0102 20.71C45.0102 20.71 44.1102 13.99 49.3102 14.86" stroke="#221E54" stroke-width="0.8" stroke-miterlimit="10" stroke-linecap="round"/>
<path d="M40.1502 22.12C40.1502 22.12 36.2902 16.04 40.3902 14.01" stroke="#221E54" stroke-width="0.8" stroke-miterlimit="10" stroke-linecap="round"/>
<path d="M166.56 120.22C187.82 120.22 205.06 117.54 205.06 114.22C205.06 110.9 187.82 108.22 166.56 108.22C145.3 108.22 128.06 110.91 128.06 114.22C128.06 117.53 145.32 120.22 166.56 120.22Z" fill="#A1AED9"/>
<path d="M198.74 102.83V111.5C198.74 114.44 190.74 116.89 180.9 116.89C171.06 116.89 163.24 114.52 163.24 111.58V110.58L163.07 103.72H163.15C164.49 106.25 171.82 108.21 180.65 108.21C189.48 108.21 198.56 105.77 198.56 102.83H198.74Z" fill="#221E54" stroke="#221E54" stroke-width="0.8" stroke-linecap="round" stroke-linejoin="round"/>
<path d="M180.36 70.4V79.03H180.2C180.2 82.03 172.02 84.44 162.36 84.44C158.609 84.5303 154.862 84.1166 151.22 83.21L151.05 83.38C149.236 81.8935 147.165 80.7513 144.94 80.01V79.85L144.7 70.73C145.27 73.52 152.95 75.73 162.28 75.73C171.61 75.73 180.2 73.35 180.2 70.39L180.36 70.4Z" fill="#221E54" stroke="#221E54" stroke-width="0.8" stroke-linecap="round" stroke-linejoin="round"/>
<path d="M180.36 70.5C180.36 73.5 172.19 75.86 162.45 75.86C152.71 75.86 145.36 73.63 144.78 70.86C144.78 70.77 144.7 70.61 144.7 70.53C144.7 67.53 152.62 65.08 162.45 65.08C172.28 65.08 180.36 67.39 180.36 70.5Z" fill="#FED401" stroke="#221E54" stroke-width="0.8" stroke-linecap="round" stroke-linejoin="round"/>
<path d="M163.32 103.68L163.24 101.87L163.07 94.43C163.65 97.24 171.36 99.43 180.74 99.43C190.12 99.43 198.4 97.03 198.65 94.14H198.74V102.74H198.56C198.56 105.74 190.56 108.19 180.73 108.19C170.9 108.19 164.65 106.25 163.32 103.68Z" fill="#FED401" stroke="#221E54" stroke-width="0.8" stroke-linecap="round" stroke-linejoin="round"/>
<path d="M151.18 109.04C153.413 107.078 155.092 104.564 156.05 101.75H156.46C158.28 101.9 160.1 101.98 162.08 101.98H162.9V103.73L163.07 110.38H162.16C158.552 110.451 154.948 110.078 151.43 109.27L151.18 109.04Z" fill="#FED401" stroke="#221E54" stroke-width="0.8" stroke-linecap="round" stroke-linejoin="round"/>
<path d="M162.92 93.16V93.6L163.07 101.75H162.31C160.527 101.756 158.744 101.666 156.97 101.48H156.56C157.086 99.6296 157.345 97.7136 157.33 95.79C157.317 94.5245 157.19 93.2627 156.95 92.02H157.33C158.991 92.1971 160.66 92.2839 162.33 92.28L163.01 92.72C162.952 92.8594 162.921 93.0089 162.92 93.16Z" fill="#221E54" stroke="#221E54" stroke-width="0.8" stroke-linecap="round" stroke-linejoin="round"/>
<path d="M151.35 83.1C154.981 83.9694 158.708 84.3694 162.44 84.29C172.06 84.29 180.2 81.99 180.2 79.05H180.36V88.42C171.36 88.42 164.09 90.48 163.18 93.1L162.44 92.7C160.63 92.7 158.91 92.62 157.26 92.46H156.85C156.11 88.7964 154.102 85.5108 151.18 83.18L151.35 83.1Z" fill="#FED401" stroke="#221E54" stroke-width="0.8" stroke-linecap="round" stroke-linejoin="round"/>
<path d="M198.74 93.8501V94.0201C198.49 96.8901 190.42 99.2601 180.74 99.2601C171.06 99.2601 163.61 97.0501 163.03 94.2601V93.8501C163.018 93.6827 163.046 93.515 163.11 93.3601C164.03 90.6601 171.43 88.5301 180.49 88.5301H180.74C190.56 88.5001 198.74 90.9001 198.74 93.8501Z" fill="#FED401" stroke="#221E54" stroke-width="0.8" stroke-linecap="round" stroke-linejoin="round"/>
<path d="M140.37 113.63C149.919 113.63 157.66 105.889 157.66 96.34C157.66 86.791 149.919 79.05 140.37 79.05C130.821 79.05 123.08 86.791 123.08 96.34C123.08 105.889 130.821 113.63 140.37 113.63Z" fill="#FED401" stroke="#221E54" stroke-width="0.8"/>
<path d="M140.37 109.02C147.373 109.02 153.05 103.343 153.05 96.34C153.05 89.3371 147.373 83.66 140.37 83.66C133.367 83.66 127.69 89.3371 127.69 96.34C127.69 103.343 133.367 109.02 140.37 109.02Z" stroke="white" stroke-width="0.8"/>
<path d="M193.93 66.38L196.32 71C196.36 71.0735 196.419 71.1355 196.49 71.18L200.87 73.71C200.932 73.7504 200.984 73.8053 201.02 73.87C201.059 73.9331 201.08 74.0058 201.08 74.08C201.08 74.1541 201.059 74.2268 201.02 74.29C200.984 74.3546 200.932 74.4095 200.87 74.45L196.49 76.98C196.419 77.0244 196.36 77.0864 196.32 77.16L193.93 81.78C193.901 81.8462 193.852 81.9019 193.79 81.94C193.727 81.9789 193.654 81.9995 193.58 81.9995C193.506 81.9995 193.433 81.9789 193.37 81.94C193.308 81.9019 193.26 81.8462 193.23 81.78L190.84 77.16C190.8 77.0864 190.741 77.0244 190.67 76.98L186.29 74.5C186.228 74.4595 186.177 74.4046 186.14 74.34C186.101 74.2768 186.081 74.2041 186.081 74.13C186.081 74.0558 186.101 73.9831 186.14 73.92C186.177 73.8553 186.228 73.8004 186.29 73.76L190.56 71.18C190.631 71.1378 190.687 71.075 190.72 71L193.11 66.38C193.114 66.2779 193.157 66.1814 193.23 66.11C193.303 66.0398 193.399 66.0004 193.5 66C193.552 65.9989 193.603 66.008 193.651 66.0269C193.699 66.0458 193.743 66.074 193.78 66.11C193.822 66.1424 193.857 66.1831 193.883 66.2295C193.909 66.2759 193.925 66.3271 193.93 66.38Z" fill="#FED401"/>
<path d="M180.89 48.3L182.96 52.06C182.993 52.1213 183.041 52.173 183.1 52.21L186.9 54.27C186.953 54.2989 186.997 54.3401 187.03 54.39C187.063 54.4425 187.08 54.5031 187.08 54.565C187.08 54.6269 187.063 54.6875 187.03 54.74C186.997 54.7899 186.953 54.8311 186.9 54.86L183.1 56.92C183.041 56.957 182.993 57.0087 182.96 57.07L180.89 60.83C180.86 60.8822 180.815 60.924 180.76 60.95C180.706 60.9826 180.644 60.9998 180.58 60.9998C180.517 60.9998 180.455 60.9826 180.4 60.95C180.349 60.9234 180.307 60.8815 180.28 60.83L178.2 57.07C178.167 57.0087 178.119 56.957 178.06 56.92L174.27 54.86C174.213 54.8341 174.165 54.7925 174.13 54.74C174.097 54.6875 174.08 54.6269 174.08 54.565C174.08 54.5031 174.097 54.4425 174.13 54.39C174.165 54.3375 174.213 54.2959 174.27 54.27L177.99 52.21C178.054 52.1762 178.106 52.1239 178.14 52.06L180.21 48.3C180.212 48.2601 180.222 48.221 180.239 48.1849C180.256 48.1489 180.28 48.1166 180.31 48.09C180.375 48.0298 180.462 47.9975 180.55 48C180.639 47.9995 180.724 48.0316 180.79 48.09C180.82 48.1166 180.844 48.1489 180.861 48.1849C180.879 48.221 180.888 48.2601 180.89 48.3Z" fill="#FED401"/>
<path d="M102.78 38.5H95.3302" stroke="#DFE4F3" stroke-linecap="round" stroke-dasharray="5 5"/>
<g clip-path="url(#clip0)">
<path d="M135.047 92.0559C135.016 92.1723 135.016 92.2951 135.047 92.4115C135.022 92.4673 135.009 92.5279 135.009 92.5892C135.009 92.6506 135.022 92.7112 135.047 92.767C135.102 92.7905 135.161 92.8026 135.221 92.8026C135.281 92.8026 135.34 92.7905 135.395 92.767H136.369V94.4737H135.395C135.333 94.4777 135.273 94.4958 135.219 94.5265C135.165 94.5573 135.118 94.6 135.082 94.6515C135.057 94.7073 135.044 94.7679 135.044 94.8292C135.044 94.8906 135.057 94.9512 135.082 95.007C135.044 95.0511 135.015 95.1036 135 95.1604C134.984 95.2172 134.981 95.2769 134.991 95.3351C135.001 95.3932 135.024 95.4483 135.058 95.4962C135.091 95.5441 135.135 95.5835 135.186 95.6115C135.3 95.6471 135.421 95.6471 135.534 95.6115H136.508L136.856 103.398C136.853 103.486 136.871 103.574 136.907 103.654C136.943 103.735 136.997 103.805 137.065 103.86C137.177 103.971 137.326 104.034 137.482 104.038C137.674 104.073 137.872 104.035 138.039 103.931C138.086 103.781 138.086 103.619 138.039 103.469L137.83 98.4204C138.606 98.4743 139.384 98.4743 140.16 98.4204C141.234 98.3985 142.285 98.1054 143.221 97.567C144.054 97.0764 144.685 96.293 144.995 95.3626H145.899C146.002 95.3932 146.11 95.3932 146.212 95.3626C146.245 95.2464 146.245 95.1232 146.212 95.007C146.191 94.8734 146.13 94.7495 146.039 94.6515C145.984 94.6259 145.925 94.6127 145.865 94.6127C145.805 94.6127 145.745 94.6259 145.691 94.6515H144.995C145.012 94.3436 145.012 94.0349 144.995 93.727V92.9092H145.656C145.71 92.9348 145.77 92.9481 145.83 92.9481C145.89 92.9481 145.949 92.9348 146.004 92.9092C146.039 92.7814 146.039 92.6459 146.004 92.5181C146.137 92.4616 146.244 92.353 146.299 92.2163C146.355 92.0796 146.355 91.926 146.299 91.7892C146.244 91.6525 146.138 91.5439 146.004 91.4872C145.87 91.4305 145.72 91.4304 145.586 91.487H144.717C144.566 91.0371 144.328 90.6227 144.017 90.2685C143.706 89.9143 143.329 89.6274 142.908 89.4248C141.914 88.976 140.827 88.7808 139.743 88.8559C138.938 88.9021 138.137 88.997 137.343 89.1404C137.022 89.2131 136.737 89.4027 136.543 89.6737C136.347 89.9527 136.249 90.2908 136.265 90.6337L136.334 92.0559H135.36C135.312 92.0309 135.258 92.0179 135.204 92.0179C135.149 92.0179 135.096 92.0309 135.047 92.0559ZM137.656 94.5092V92.8381L143.778 92.5181C143.778 92.5181 143.778 93.1226 143.778 93.3359C143.792 93.6083 143.792 93.8813 143.778 94.1537L137.691 94.6159L137.656 94.5092ZM137.656 91.7715V90.3137C138.329 90.1417 139.016 90.0346 139.708 89.9937C140.413 89.8615 141.141 89.9425 141.802 90.2267C142.463 90.5108 143.029 90.9859 143.43 91.5937L137.552 92.0559L137.656 91.7715ZM143.708 95.327C143.393 95.9767 142.89 96.5123 142.269 96.8618C141.647 97.2114 140.936 97.3582 140.23 97.2826C139.477 97.3356 138.722 97.3356 137.969 97.2826L137.691 95.6115L143.708 95.327Z" fill="#221E54" stroke="#221E54" stroke-width="0.2"/>
</g>
<defs>
<clipPath id="clip0">
<rect width="12" height="16" fill="white" transform="translate(134.56 88.5)"/>
</clipPath>
</defs>
</svg>
