<svg width="191" height="190" viewBox="0 0 191 190" fill="none" xmlns="http://www.w3.org/2000/svg">
<path d="M156.578 40H40.2251C34.0561 40 29.0552 45.0009 29.0552 51.1699V124.705C29.0552 130.874 34.0561 135.875 40.2251 135.875H156.578C162.747 135.875 167.748 130.874 167.748 124.705V51.1699C167.748 45.0009 162.747 40 156.578 40Z" stroke="#9DAFED" stroke-linecap="round" stroke-dasharray="5 5"/>
<path d="M83.6388 74.9061H78.4448V71.4341L98.3831 64.4995L118.331 71.4341V74.9061H98.8764" stroke="#9DAFED" stroke-linecap="round" stroke-dasharray="5 5"/>
<path d="M118.359 104.413H78.4448V100.904C78.4485 100.446 78.5434 99.9937 78.7241 99.573C78.9013 99.1534 79.1608 98.7736 79.4873 98.456C79.8176 98.1365 80.2063 97.8837 80.6323 97.7114C81.0568 97.5478 81.5084 97.4657 81.9633 97.4694H114.849C115.305 97.468 115.757 97.5533 116.18 97.7207C116.604 97.8874 116.99 98.1375 117.316 98.456C117.64 98.7753 117.9 99.1547 118.079 99.573C118.263 99.9926 118.358 100.446 118.359 100.904V104.413Z" stroke="#9DAFED" stroke-linecap="round" stroke-dasharray="5 5"/>
<path d="M83.6387 74.9058V97.4689H88.8606V74.9058" stroke="#9DAFED" stroke-linecap="round" stroke-dasharray="5 5"/>
<path d="M95.7954 74.9058V97.4689H101.008V74.9058" stroke="#9DAFED" stroke-linecap="round" stroke-dasharray="5 5"/>
<path d="M107.942 74.9058V97.4689H113.164V74.9058" stroke="#9DAFED" stroke-linecap="round" stroke-dasharray="5 5"/>
<path d="M22.0556 121.251C14.7952 122.955 3.90455 119.39 6.27815 107.056C8.1398 97.3758 14.5811 99.042 17.3829 102.728C19.0397 104.897 18.1927 108.536 15.1396 110.361C8.49351 114.326 -2.73222 104.776 2.22907 90.888C4.2955 85.1448 7.63715 82.4547 10.9881 81.2354" stroke="#FED401" stroke-width="0.8" stroke-linecap="round" stroke-dasharray="4 4"/>
<path d="M20.8734 62.2747L35.236 57.6206C36.8377 57.0822 38.5305 56.8681 40.2158 56.9905C41.9011 57.113 43.5452 57.5697 45.0522 58.3339C46.5593 59.0982 47.8991 60.1548 48.9937 61.442C50.0883 62.7293 50.9157 64.2216 51.4278 65.8319C51.9398 67.4422 52.1263 69.1383 51.9762 70.8214C51.8262 72.5045 51.3427 74.1408 50.5538 75.6352C49.765 77.1295 48.6867 78.4519 47.3816 79.5252C46.0766 80.5986 44.571 81.4015 42.9525 81.8871L28.5713 86.5319C25.3397 87.5623 21.8314 87.2687 18.816 85.7156C15.8006 84.1626 13.5244 81.4768 12.4866 78.2476C10.2247 71.7039 14.0504 64.4528 20.8734 62.2747Z" fill="#FED401"/>
<path d="M28.3107 66.3701L28.8041 65.8953C29.1961 65.3793 29.4814 64.7903 29.6432 64.1627C29.805 63.5352 29.8402 62.8817 29.7466 62.2404C29.653 61.5991 29.4326 60.9829 29.0981 60.4278C28.7637 59.8726 28.322 59.3897 27.7988 59.0072L21.4878 54.2694C20.4319 53.4867 19.1095 53.1531 17.8087 53.3414C16.508 53.5298 15.3344 54.2247 14.5439 55.2746L14.0691 55.8611C13.6773 56.3764 13.3922 56.9646 13.2305 57.5914C13.0688 58.2182 13.0337 58.871 13.1273 59.5115C13.221 60.1521 13.4414 60.7675 13.7757 61.3218C14.11 61.8761 14.5515 62.3582 15.0744 62.7398L21.3854 67.4591C22.4494 68.2295 23.7751 68.5474 25.0728 68.3434C26.3704 68.1393 27.5346 67.4299 28.3107 66.3701V66.3701Z" fill="white" stroke="#221E54" stroke-width="0.8" stroke-miterlimit="10" stroke-linecap="round"/>
<path d="M28.4222 67.459L29.0645 67.3939C30.366 67.1348 31.5126 66.3725 32.2552 65.2727C32.9977 64.1728 33.2761 62.8244 33.0298 61.5204L31.6149 53.8225C31.3433 52.5225 30.571 51.3816 29.4649 50.6466C28.3589 49.9115 27.0079 49.6413 25.7042 49.8944L25.0619 49.9596C23.7702 50.2229 22.6336 50.9832 21.8971 52.0766C21.1606 53.1701 20.8832 54.5091 21.1246 55.8051L22.7535 63.4844C22.8492 64.1249 23.0742 64.7392 23.4148 65.29C23.7555 65.8408 24.2045 66.3166 24.7348 66.6884C25.2651 67.0602 25.8654 67.3202 26.4993 67.4527C27.1332 67.5852 27.7874 67.5873 28.4222 67.459V67.459Z" fill="white" stroke="#221E54" stroke-width="0.8" stroke-miterlimit="10" stroke-linecap="round"/>
<path d="M20.8734 62.2747L35.236 57.6206C36.8377 57.0822 38.5305 56.8681 40.2158 56.9905C41.9011 57.113 43.5452 57.5697 45.0522 58.3339C46.5593 59.0982 47.8991 60.1548 48.9937 61.442C50.0883 62.7293 50.9157 64.2216 51.4278 65.8319C51.9398 67.4422 52.1263 69.1383 51.9762 70.8214C51.8262 72.5045 51.3427 74.1408 50.5538 75.6352C49.765 77.1295 48.6867 78.4519 47.3816 79.5252C46.0766 80.5986 44.571 81.4015 42.9525 81.8871L28.5713 86.5319C25.3397 87.5623 21.8314 87.2687 18.816 85.7156C15.8006 84.1626 13.5244 81.4768 12.4866 78.2476C10.2247 71.7039 14.0504 64.4528 20.8734 62.2747Z" fill="#FED401"/>
<path d="M21.4524 86.7235C20.5461 86.4875 19.6617 86.151 18.816 85.7154C15.8006 84.1624 13.5244 81.4766 12.4866 78.2474C10.9394 73.7712 12.2407 68.9641 15.4012 65.676C14.3873 69.8113 13.2424 79.3554 21.4524 86.7235Z" fill="#221E54"/>
<path d="M39.388 83.0382L30.31 85.9702C28.4217 84.361 18.6445 75.2409 22.3616 61.7922L31.3084 58.8931C30.219 62.6386 27.7995 74.8511 39.388 83.0382Z" fill="#221E54"/>
<path d="M44.9727 69.5442C44.9727 69.5442 43.3251 68.5482 41.7334 70.7263" stroke="#221E54" stroke-width="0.8" stroke-miterlimit="10" stroke-linecap="round"/>
<path d="M36.893 68.8463C37.0335 69.2148 37.3096 69.5156 37.6647 69.6871C38.0198 69.8587 38.427 69.8879 38.803 69.769C39.179 69.65 39.4952 69.3918 39.687 69.0472C39.8787 68.7026 39.9315 68.2977 39.8344 67.9155C39.7744 67.7199 39.6756 67.5383 39.5439 67.3816C39.4123 67.2249 39.2505 67.0962 39.0681 67.0033C38.8858 66.9104 38.6866 66.8551 38.4824 66.8407C38.2783 66.8263 38.0733 66.8531 37.8797 66.9195C37.6852 66.9763 37.5043 67.0722 37.3481 67.2013C37.1919 67.3304 37.0637 67.49 36.9713 67.6704C36.8789 67.8508 36.8244 68.0481 36.8109 68.2503C36.7974 68.4525 36.8254 68.6553 36.893 68.8463Z" fill="#221E54"/>
<path d="M37.6098 68.4461C37.6146 68.5226 37.6413 68.5961 37.6867 68.6578C37.7321 68.7196 37.7943 68.767 37.8659 68.7945C37.9374 68.8219 38.0154 68.8282 38.0904 68.8127C38.1655 68.7971 38.2345 68.7604 38.2893 68.7067C38.3658 68.7042 38.44 68.6793 38.5025 68.635C38.565 68.5907 38.6131 68.5291 38.6409 68.4577C38.6686 68.3863 38.6748 68.3083 38.6586 68.2335C38.6425 68.1586 38.6046 68.0901 38.5499 68.0365C38.545 67.96 38.5183 67.8866 38.4729 67.8248C38.4275 67.763 38.3653 67.7156 38.2938 67.6882C38.2222 67.6607 38.1443 67.6544 38.0692 67.6699C37.9942 67.6855 37.9251 67.7223 37.8704 67.7759C37.768 67.7945 37.5818 68.1296 37.6098 68.4461Z" fill="white"/>
<path d="M44.563 66.4725C44.6548 66.7623 44.8305 67.0183 45.0679 67.2081C45.3053 67.3979 45.5937 67.513 45.8966 67.5388C46.1994 67.5646 46.5031 67.5 46.7692 67.3532C47.0353 67.2063 47.2519 66.9838 47.3914 66.7138C47.531 66.4438 47.5873 66.1384 47.5533 65.8364C47.5192 65.5343 47.3963 65.2492 47.2001 65.0171C47.0039 64.7849 46.7432 64.6162 46.451 64.5323C46.1589 64.4484 45.8484 64.4531 45.559 64.5457C45.3658 64.6049 45.1864 64.7021 45.0313 64.8316C44.8762 64.9611 44.7485 65.1202 44.6557 65.2997C44.563 65.4791 44.507 65.6753 44.4911 65.8767C44.4751 66.0781 44.4996 66.2807 44.563 66.4725Z" fill="#221E54"/>
<path d="M45.3261 66.0819C45.3326 66.1576 45.3605 66.2299 45.4065 66.2904C45.4525 66.3508 45.5148 66.3969 45.5861 66.4233C45.6574 66.4496 45.7347 66.4552 45.809 66.4392C45.8833 66.4233 45.9515 66.3865 46.0056 66.3332C46.0668 66.3057 46.1219 66.2664 46.1678 66.2176C46.2137 66.1688 46.2496 66.1115 46.2734 66.0488C46.2972 65.9861 46.3084 65.9194 46.3063 65.8524C46.3043 65.7854 46.2891 65.7195 46.2616 65.6584C46.2341 65.5972 46.1948 65.5421 46.146 65.4962C46.0972 65.4502 46.0399 65.4144 45.9772 65.3906C45.9145 65.3668 45.8478 65.3556 45.7808 65.3577C45.7138 65.3597 45.6479 65.3749 45.5868 65.4024C45.4285 65.421 45.2517 65.7561 45.3261 66.0819Z" fill="white"/>
<path d="M42.0217 58.3468C42.0217 58.3468 41.184 52.0916 46.0242 52.9015" stroke="#221E54" stroke-width="0.8" stroke-miterlimit="10" stroke-linecap="round"/>
<path d="M37.498 59.6588C37.498 59.6588 33.905 53.9994 37.7214 52.1099" stroke="#221E54" stroke-width="0.8" stroke-miterlimit="10" stroke-linecap="round"/>
<path d="M155.163 150.973C174.953 150.973 191 148.478 191 145.388C191 142.297 174.953 139.803 155.163 139.803C135.374 139.803 119.327 142.307 119.327 145.388C119.327 148.469 135.393 150.973 155.163 150.973Z" fill="#9DAFED"/>
<path d="M185.117 134.786V142.856C185.117 145.592 177.67 147.873 168.511 147.873C159.352 147.873 152.073 145.667 152.073 142.93V142L151.915 135.614H151.989C153.236 137.969 160.059 139.793 168.278 139.793C176.498 139.793 184.949 137.522 184.949 134.786H185.117Z" fill="#221E54" stroke="#221E54" stroke-width="0.8" stroke-linecap="round" stroke-linejoin="round"/>
<path d="M168.009 104.599V112.632H167.86C167.86 115.425 160.246 117.668 151.254 117.668C147.762 117.752 144.274 117.367 140.884 116.523L140.726 116.681C139.038 115.298 137.11 114.234 135.039 113.544V113.395L134.815 104.906C135.346 107.503 142.495 109.56 151.179 109.56C159.864 109.56 167.86 107.345 167.86 104.59L168.009 104.599Z" fill="#221E54" stroke="#221E54" stroke-width="0.8" stroke-linecap="round" stroke-linejoin="round"/>
<path d="M168.009 104.692C168.009 107.485 160.404 109.681 151.338 109.681C142.271 109.681 135.43 107.606 134.89 105.027C134.89 104.943 134.815 104.794 134.815 104.72C134.815 101.927 142.188 99.647 151.338 99.647C160.488 99.647 168.009 101.797 168.009 104.692Z" fill="#FED401" stroke="#221E54" stroke-width="0.8" stroke-linecap="round" stroke-linejoin="round"/>
<path d="M152.147 135.577L152.073 133.892L151.915 126.967C152.454 129.582 159.631 131.621 168.362 131.621C177.093 131.621 184.801 129.387 185.033 126.697H185.117V134.702H184.949C184.949 137.494 177.503 139.775 168.353 139.775C159.203 139.775 153.385 137.969 152.147 135.577Z" fill="#FED401" stroke="#221E54" stroke-width="0.8" stroke-linecap="round" stroke-linejoin="round"/>
<path d="M140.847 140.566C142.925 138.739 144.489 136.4 145.38 133.78H145.762C147.456 133.92 149.15 133.994 150.993 133.994H151.756V135.623L151.915 141.813H151.068C147.709 141.879 144.354 141.532 141.08 140.78L140.847 140.566Z" fill="#FED401" stroke="#221E54" stroke-width="0.8" stroke-linecap="round" stroke-linejoin="round"/>
<path d="M151.775 125.785V126.194L151.915 133.781H151.207C149.547 133.786 147.888 133.702 146.237 133.529H145.855C146.344 131.807 146.586 130.023 146.572 128.233C146.56 127.055 146.441 125.88 146.218 124.724H146.572C148.118 124.888 149.671 124.969 151.226 124.966L151.859 125.375C151.804 125.505 151.776 125.644 151.775 125.785V125.785Z" fill="#221E54" stroke="#221E54" stroke-width="0.8" stroke-linecap="round" stroke-linejoin="round"/>
<path d="M141.005 116.421C144.385 117.23 147.854 117.602 151.328 117.528C160.283 117.528 167.86 115.387 167.86 112.651H168.009V121.373C159.631 121.373 152.864 123.29 152.017 125.729L151.328 125.357C149.643 125.357 148.042 125.282 146.507 125.133H146.125C145.436 121.723 143.567 118.665 140.847 116.495L141.005 116.421Z" fill="#FED401" stroke="#221E54" stroke-width="0.8" stroke-linecap="round" stroke-linejoin="round"/>
<path d="M185.117 126.427V126.585C184.884 129.257 177.373 131.463 168.362 131.463C159.352 131.463 152.417 129.405 151.877 126.808V126.427C151.867 126.271 151.892 126.115 151.952 125.971C152.808 123.458 159.696 121.475 168.13 121.475H168.362C177.503 121.447 185.117 123.681 185.117 126.427Z" fill="#FED401" stroke="#221E54" stroke-width="0.8" stroke-linecap="round" stroke-linejoin="round"/>
<path d="M130.785 144.839C139.673 144.839 146.879 137.633 146.879 128.745C146.879 119.856 139.673 112.651 130.785 112.651C121.896 112.651 114.691 119.856 114.691 128.745C114.691 137.633 121.896 144.839 130.785 144.839Z" fill="#FED401" stroke="#221E54" stroke-width="0.8"/>
<path d="M130.785 140.548C137.304 140.548 142.588 135.263 142.588 128.745C142.588 122.226 137.304 116.942 130.785 116.942C124.267 116.942 118.982 122.226 118.982 128.745C118.982 135.263 124.267 140.548 130.785 140.548Z" stroke="white" stroke-width="0.8"/>
<path d="M180.64 100.857L182.865 105.158C182.902 105.226 182.957 105.284 183.023 105.325L187.1 107.68C187.158 107.718 187.206 107.769 187.24 107.829C187.276 107.888 187.295 107.956 187.295 108.025C187.295 108.094 187.276 108.161 187.24 108.22C187.206 108.28 187.158 108.331 187.1 108.369L183.023 110.724C182.957 110.765 182.902 110.823 182.865 110.891L180.64 115.192C180.613 115.254 180.567 115.305 180.51 115.341C180.451 115.377 180.383 115.396 180.314 115.396C180.245 115.396 180.178 115.377 180.119 115.341C180.061 115.305 180.016 115.254 179.988 115.192L177.764 110.891C177.726 110.823 177.672 110.765 177.606 110.724L173.529 108.415C173.471 108.378 173.423 108.327 173.389 108.267C173.353 108.208 173.333 108.14 173.333 108.071C173.333 108.002 173.353 107.934 173.389 107.876C173.423 107.815 173.471 107.764 173.529 107.727L177.503 105.325C177.569 105.286 177.621 105.227 177.652 105.158L179.877 100.857C179.881 100.762 179.921 100.672 179.988 100.606C180.056 100.541 180.146 100.504 180.24 100.504C180.288 100.502 180.336 100.511 180.38 100.529C180.425 100.546 180.466 100.572 180.5 100.606C180.54 100.636 180.572 100.674 180.596 100.717C180.62 100.76 180.635 100.808 180.64 100.857V100.857Z" fill="#FED401"/>
<path d="M168.502 84.0279L170.429 87.5278C170.46 87.5849 170.504 87.633 170.559 87.6674L174.096 89.5849C174.145 89.6118 174.187 89.6501 174.217 89.6966C174.248 89.7455 174.264 89.8019 174.264 89.8595C174.264 89.9171 174.248 89.9736 174.217 90.0224C174.187 90.0689 174.145 90.1072 174.096 90.1341L170.559 92.0516C170.504 92.086 170.46 92.1341 170.429 92.1912L168.502 95.6911C168.474 95.7397 168.432 95.7786 168.381 95.8028C168.331 95.8332 168.273 95.8492 168.214 95.8492C168.155 95.8492 168.097 95.8332 168.046 95.8028C167.998 95.778 167.959 95.739 167.934 95.6911L165.998 92.1912C165.968 92.1341 165.923 92.086 165.868 92.0516L162.34 90.1341C162.287 90.11 162.242 90.0713 162.21 90.0224C162.179 89.9736 162.163 89.9171 162.163 89.8595C162.163 89.8019 162.179 89.7455 162.21 89.6966C162.242 89.6478 162.287 89.609 162.34 89.5849L165.803 87.6674C165.862 87.636 165.911 87.5873 165.942 87.5278L167.869 84.0279C167.871 83.9908 167.88 83.9543 167.896 83.9208C167.912 83.8872 167.935 83.8572 167.962 83.8324C168.023 83.7764 168.103 83.7464 168.186 83.7487C168.268 83.7482 168.347 83.778 168.409 83.8324C168.437 83.8572 168.459 83.8872 168.475 83.9208C168.491 83.9543 168.5 83.9908 168.502 84.0279V84.0279Z" fill="#FED401"/>
<path d="M95.7955 74.9058H88.8608" stroke="#9DAFED" stroke-linecap="round" stroke-dasharray="5 5"/>
<g clip-path="url(#clip0)">
<path d="M125.83 124.757C125.801 124.865 125.801 124.98 125.83 125.088C125.807 125.14 125.795 125.196 125.795 125.253C125.795 125.31 125.807 125.367 125.83 125.419C125.882 125.441 125.937 125.452 125.992 125.452C126.048 125.452 126.103 125.441 126.154 125.419H127.061V127.007H126.154C126.096 127.011 126.04 127.028 125.99 127.057C125.94 127.085 125.896 127.125 125.863 127.173C125.839 127.225 125.827 127.281 125.827 127.338C125.827 127.396 125.839 127.452 125.863 127.504C125.827 127.545 125.801 127.594 125.786 127.647C125.771 127.7 125.769 127.755 125.778 127.809C125.787 127.863 125.808 127.915 125.84 127.959C125.871 128.004 125.912 128.04 125.96 128.067V128.067C126.065 128.1 126.178 128.1 126.284 128.067H127.19L127.514 135.315C127.511 135.397 127.528 135.478 127.561 135.553C127.595 135.628 127.645 135.693 127.708 135.745C127.813 135.847 127.951 135.906 128.097 135.91C128.275 135.943 128.46 135.908 128.615 135.811C128.659 135.671 128.659 135.521 128.615 135.381L128.42 130.681C129.143 130.731 129.867 130.731 130.59 130.681C131.589 130.661 132.568 130.388 133.439 129.887C134.214 129.43 134.801 128.701 135.09 127.835H135.932C136.027 127.863 136.128 127.863 136.223 127.835C136.254 127.727 136.254 127.612 136.223 127.504C136.203 127.379 136.146 127.264 136.061 127.173C136.01 127.149 135.955 127.137 135.899 127.137C135.843 127.137 135.788 127.149 135.737 127.173H135.09C135.105 126.886 135.105 126.599 135.09 126.312V125.551H135.705C135.756 125.575 135.811 125.587 135.867 125.587C135.923 125.587 135.978 125.575 136.029 125.551C136.062 125.432 136.062 125.306 136.029 125.187C136.153 125.135 136.252 125.033 136.304 124.906C136.355 124.779 136.356 124.636 136.304 124.509C136.253 124.381 136.154 124.28 136.029 124.228C135.905 124.175 135.765 124.175 135.64 124.227H134.831C134.69 123.809 134.469 123.423 134.179 123.093C133.89 122.763 133.539 122.496 133.147 122.308C132.222 121.89 131.211 121.708 130.201 121.778C129.452 121.821 128.706 121.91 127.967 122.043V122.043C127.668 122.111 127.404 122.287 127.222 122.539V122.539C127.04 122.799 126.949 123.114 126.963 123.433L127.028 124.757H126.122C126.076 124.734 126.027 124.722 125.976 124.722C125.925 124.722 125.875 124.734 125.83 124.757V124.757ZM128.258 127.041V125.485L133.957 125.187C133.957 125.187 133.957 125.75 133.957 125.948C133.97 126.202 133.97 126.456 133.957 126.71L128.291 127.14L128.258 127.041ZM128.258 124.492V123.135C128.885 122.975 129.524 122.875 130.169 122.837C130.825 122.714 131.503 122.79 132.118 123.054C132.733 123.319 133.26 123.761 133.633 124.327L128.161 124.757L128.258 124.492ZM133.892 127.802C133.598 128.407 133.131 128.905 132.552 129.23C131.973 129.556 131.311 129.692 130.654 129.622C129.954 129.671 129.251 129.671 128.55 129.622L128.291 128.067L133.892 127.802Z" fill="#221E54" stroke="#221E54" stroke-width="0.2"/>
</g>
<defs>
<clipPath id="clip0">
<rect width="11.1699" height="14.8932" fill="white" transform="translate(125.377 121.447)"/>
</clipPath>
</defs>
</svg>
