<svg width="81" height="80" viewBox="0 0 81 80" fill="none" xmlns="http://www.w3.org/2000/svg">
<path d="M16.5 58.7062H55.9933M20.6186 8H51.8747C54.1493 8 55.9933 9.84396 55.9933 12.1186V67.8814C55.9933 70.156 54.1493 72 51.8747 72H20.6186C18.344 72 16.5 70.156 16.5 67.8814V12.1186C16.5 9.84396 18.344 8 20.6186 8ZM39.0121 65.3585C39.0121 66.8412 37.7764 68.0431 36.252 68.0431C34.7277 68.0431 33.4919 66.8412 33.4919 65.3585C33.4919 63.8758 34.7277 62.6739 36.252 62.6739C37.7764 62.6739 39.0121 63.8758 39.0121 65.3585Z" stroke="#1F1A54" stroke-width="1.5" stroke-linecap="round" stroke-linejoin="round"/>
<g filter="url(#filter0_d)">
<path d="M55.2932 17.2686C56.274 15.5771 58.726 15.5771 59.7068 17.2686L75.1548 43.9086C76.1356 45.6 74.9096 47.7143 72.9479 47.7143H42.052C40.0904 47.7143 38.8644 45.6 39.8452 43.9086L55.2932 17.2686Z" fill="url(#paint0_linear)"/>
<path d="M55.2932 17.2686C56.274 15.5771 58.726 15.5771 59.7068 17.2686L75.1548 43.9086C76.1356 45.6 74.9096 47.7143 72.9479 47.7143H42.052C40.0904 47.7143 38.8644 45.6 39.8452 43.9086L55.2932 17.2686Z" stroke="white" stroke-width="2"/>
</g>
<path d="M57.655 27.9998V35.0288" stroke="white" stroke-width="2" stroke-linecap="round" stroke-linejoin="round"/>
<ellipse rx="1.75506" ry="1.75506" transform="matrix(1 0 0 -1 57.6551 40.575)" fill="white"/>
<defs>
<filter id="filter0_d" x="35.4979" y="15" width="44.0041" height="39.7143" filterUnits="userSpaceOnUse" color-interpolation-filters="sRGB">
<feFlood flood-opacity="0" result="BackgroundImageFix"/>
<feColorMatrix in="SourceAlpha" type="matrix" values="0 0 0 0 0 0 0 0 0 0 0 0 0 0 0 0 0 0 127 0"/>
<feOffset dy="3"/>
<feGaussianBlur stdDeviation="1.5"/>
<feColorMatrix type="matrix" values="0 0 0 0 0.636094 0 0 0 0 0.666281 0 0 0 0 0.8625 0 0 0 0.2 0"/>
<feBlend mode="normal" in2="BackgroundImageFix" result="effect1_dropShadow"/>
<feBlend mode="normal" in="SourceGraphic" in2="effect1_dropShadow" result="shape"/>
</filter>
<linearGradient id="paint0_linear" x1="57.5" y1="16" x2="57.5" y2="47.7143" gradientUnits="userSpaceOnUse">
<stop stop-color="#FF6F77"/>
<stop offset="1" stop-color="#DB3B45"/>
</linearGradient>
</defs>
</svg>
