<svg width="140" height="140" viewBox="0 0 140 140" fill="none" xmlns="http://www.w3.org/2000/svg">
<g id="Empty States/No Followers">
<g id="Layer 2">
<g id="Layer 24">
<path id="Vector" d="M110.53 61.6785L126.24 61.4985C129.743 61.4985 133.103 62.8903 135.581 65.3677C138.058 67.845 139.45 71.205 139.45 74.7085C139.45 78.212 138.058 81.5721 135.581 84.0494C133.103 86.5268 129.743 87.9185 126.24 87.9185L110.53 88.0485C107.861 88.1382 105.227 87.4174 102.976 85.981C100.724 84.5445 98.9605 82.4599 97.9169 80.0015C96.8734 77.5432 96.5989 74.8264 97.1296 72.209C97.6603 69.5916 98.9713 67.1963 100.89 65.3385C102.168 64.1109 103.677 63.149 105.33 62.5085C106.99 61.8857 108.758 61.6034 110.53 61.6785Z" fill="#FDD407"/>
<path id="Vector_2" d="M116.64 67.9285L117.28 67.6185C117.831 67.2301 118.299 66.7374 118.66 66.1685C119.021 65.6012 119.263 64.9669 119.373 64.3037C119.483 63.6405 119.458 62.9619 119.3 62.3085C119.143 61.6556 118.857 61.0404 118.46 60.4985L113.75 53.8685C112.936 52.7734 111.724 52.0415 110.376 51.8302C109.028 51.6189 107.65 51.945 106.54 52.7385L105.88 53.1585C105.332 53.5459 104.864 54.0347 104.5 54.5985C104.141 55.1646 103.9 55.7972 103.79 56.4585C103.676 57.1192 103.696 57.7961 103.849 58.4489C104.002 59.1017 104.285 59.7171 104.68 60.2585L109.4 66.9085C110.231 67.9963 111.458 68.7117 112.814 68.899C114.17 69.0863 115.545 68.7303 116.64 67.9085V67.9285Z" fill="white" stroke="#221F54" stroke-miterlimit="10" stroke-linecap="round"/>
<path id="Vector_3" d="M116.32 69.0586L116.98 69.1886C118.358 69.336 119.738 68.9381 120.826 68.0802C121.914 67.2223 122.622 65.9725 122.8 64.5986L123.8 56.5386C123.94 55.1685 123.533 53.7985 122.668 52.7271C121.803 51.6557 120.549 50.9697 119.18 50.8186L118.52 50.6986C117.142 50.5434 115.759 50.9386 114.671 51.7982C113.583 52.6577 112.878 53.9122 112.71 55.2886L111.88 63.3886C111.77 64.0542 111.8 64.7356 111.97 65.3886C112.132 66.0415 112.432 66.6519 112.85 67.1786C113.264 67.7099 113.781 68.1521 114.37 68.4786C114.972 68.8079 115.636 69.0056 116.32 69.0586Z" fill="white" stroke="#221F54" stroke-miterlimit="10" stroke-linecap="round"/>
<path id="Vector_4" d="M110.51 61.7384L126.22 61.5784C127.947 61.5784 129.657 61.9185 131.252 62.5793C132.848 63.2402 134.297 64.2088 135.519 65.4299C136.74 66.651 137.708 68.1006 138.369 69.6961C139.03 71.2915 139.37 73.0015 139.37 74.7284C139.37 76.4552 139.03 78.1652 138.369 79.7607C137.708 81.3561 136.74 82.8057 135.519 84.0268C134.297 85.2479 132.848 86.2165 131.252 86.8774C129.657 87.5382 127.947 87.8784 126.22 87.8784L110.51 88.0384C108.783 88.0384 107.073 87.6982 105.478 87.0374C103.882 86.3765 102.433 85.4079 101.212 84.1868C99.9906 82.9657 99.0219 81.5161 98.3611 79.9207C97.7002 78.3252 97.3601 76.6152 97.3601 74.8884C97.3601 73.1615 97.7002 71.4515 98.3611 69.8561C99.0219 68.2606 99.9906 66.811 101.212 65.5899C102.433 64.3688 103.882 63.4002 105.478 62.7394C107.073 62.0785 108.783 61.7384 110.51 61.7384Z" fill="white" stroke="#221F51" stroke-miterlimit="10"/>
<g id="Mask Group">
<mask id="mask0" mask-type="alpha" maskUnits="userSpaceOnUse" x="96" y="61" width="44" height="28">
<path id="Vector_5" d="M110.51 61.7386L126.22 61.5786C127.947 61.5786 129.657 61.9187 131.252 62.5796C132.848 63.2404 134.297 64.2091 135.519 65.4302C136.74 66.6512 137.708 68.1009 138.369 69.6963C139.03 71.2918 139.37 73.0017 139.37 74.7286C139.37 76.4555 139.03 78.1655 138.369 79.7609C137.708 81.3563 136.74 82.806 135.519 84.0271C134.297 85.2482 132.848 86.2168 131.252 86.8776C129.657 87.5385 127.947 87.8786 126.22 87.8786L110.51 88.0386C108.783 88.0386 107.073 87.6985 105.478 87.0376C103.882 86.3768 102.433 85.4082 101.212 84.1871C99.9906 82.966 99.0219 81.5163 98.3611 79.9209C97.7002 78.3255 97.3601 76.6155 97.3601 74.8886C97.3601 73.1617 97.7002 71.4518 98.3611 69.8563C99.0219 68.2609 99.9906 66.8112 101.212 65.5902C102.433 64.3691 103.882 63.4004 105.478 62.7396C107.073 62.0787 108.783 61.7386 110.51 61.7386Z" fill="white" stroke="#221F51" stroke-miterlimit="10"/>
</mask>
<g mask="url(#mask0)">
<g id="Group">
<path id="Vector_6" d="M122.75 60.6086C122.75 60.6086 111.44 74.2586 122.61 88.2286L112.51 88.3486C112.51 88.3486 102.89 74.6986 112.59 61.0686C112.85 60.8886 122.72 60.7186 122.75 60.6086Z" stroke="#221F51" stroke-miterlimit="10"/>
<path id="Vector_7" d="M105.47 61.4985C105.47 61.4985 94.3301 74.8485 105.47 88.6785L95.38 88.8185C95.38 88.8185 85.76 75.2785 95.38 61.9585C95.46 61.7885 105.5 61.8685 105.47 61.4985Z" stroke="#221F51" stroke-miterlimit="10"/>
</g>
</g>
</g>
<path id="Vector_8" d="M132.61 64.3185C132.61 64.3185 133.76 57.8785 138.32 60.1685" stroke="#221F54" stroke-miterlimit="10" stroke-linecap="round"/>
<path id="Vector_9" d="M127.74 64.2186C127.74 64.2186 126 57.4986 130.38 56.8086" stroke="#221F54" stroke-miterlimit="10" stroke-linecap="round"/>
<path id="Vector_10" d="M116.87 124.398C124.18 124.398 130.1 123.398 130.1 122.268C130.1 121.138 124.18 120.128 116.87 120.128C109.56 120.128 103.65 121.128 103.65 122.268C103.65 123.408 109.57 124.398 116.87 124.398Z" fill="#9DAFED"/>
<path id="Vector_11" d="M59.3301 94.3685C59.341 94.464 59.3792 94.5542 59.4401 94.6285C59.5004 94.7067 59.5847 94.763 59.6801 94.7885C59.7744 94.8184 59.8757 94.8184 59.9701 94.7885C60.0625 94.7578 60.1439 94.7007 60.2043 94.6243C60.2647 94.5479 60.3014 94.4555 60.3101 94.3585C60.319 94.2613 60.2981 94.1636 60.2501 94.0785C60.202 93.9956 60.133 93.9266 60.0501 93.8785C59.955 93.854 59.8552 93.854 59.7601 93.8785C59.6601 93.8185 59.3901 94.0785 59.3301 94.3685Z" fill="white"/>
<g id="Bee">
<path id="Vector_12" d="M51.4999 89.6886L52.0999 89.3986C52.6084 89.0452 53.0404 88.5928 53.3699 88.0685C53.691 87.5386 53.905 86.9508 53.9999 86.3385C54.1249 85.7316 54.1249 85.1055 53.9999 84.4985C53.8555 83.8936 53.5939 83.3229 53.2299 82.8185L48.8299 76.6985C48.0806 75.6833 46.9617 75.0039 45.7153 74.8074C44.4689 74.6109 43.1952 74.913 42.1699 75.6485L41.5599 76.0385C41.0536 76.3945 40.6221 76.8464 40.2899 77.3685C39.9542 77.8905 39.7295 78.476 39.6299 79.0885C39.5297 79.6999 39.5501 80.325 39.6899 80.9285C39.8288 81.5336 40.0872 82.1048 40.4499 82.6085L44.8099 88.7485C45.5889 89.7603 46.7348 90.4249 47.9999 90.5985C49.2537 90.7728 50.5256 90.4459 51.5399 89.6886H51.4999Z" fill="white" stroke="#221F54" stroke-miterlimit="10" stroke-linecap="round"/>
<path id="Vector_13" d="M51.21 90.7385L51.82 90.8485C53.0928 90.9898 54.37 90.624 55.375 89.8305C56.3801 89.0369 57.0322 87.8794 57.19 86.6085L58.19 79.1685C58.3191 77.902 57.9429 76.6357 57.1433 75.6451C56.3437 74.6545 55.1853 74.0196 53.92 73.8785L53.31 73.7585C52.0385 73.6163 50.7615 73.975 49.75 74.7585C48.7447 75.5504 48.0939 76.7081 47.94 77.9785L47.15 85.4985C47.0515 86.111 47.0787 86.737 47.23 87.3385C47.3829 87.9425 47.6591 88.5084 48.0411 89.0005C48.4232 89.4927 48.9028 89.9006 49.45 90.1985C49.9933 90.4976 50.5924 90.6815 51.21 90.7385Z" fill="white" stroke="#221F54" stroke-miterlimit="10" stroke-linecap="round"/>
<path id="Vector_14" d="M45.8601 83.9086L60.3701 83.7786C63.6084 83.7786 66.714 85.065 69.0038 87.3548C71.2937 89.6446 72.5801 92.7503 72.5801 95.9886C72.5801 99.2269 71.2937 102.333 69.0038 104.622C66.714 106.912 63.6084 108.199 60.3701 108.199L45.8601 108.319C44.2302 108.365 42.6075 108.086 41.0864 107.499C39.5652 106.912 38.1762 106.028 37.0001 104.899C35.8262 103.759 34.8884 102.4 34.2401 100.899C33.5998 99.3898 33.2698 97.7676 33.2698 96.1286C33.2698 94.4896 33.5998 92.8673 34.2401 91.3586C35.2085 89.0865 36.8411 87.1603 38.9237 85.8326C41.0063 84.5049 43.4416 83.8377 45.9101 83.9186L45.8601 83.9086Z" fill="#FDD407"/>
<g id="Group 3563">
<path id="Intersect" fill-rule="evenodd" clip-rule="evenodd" d="M39.4623 106.731C38.5702 106.227 37.7427 105.612 37.0001 104.898C35.8262 103.759 34.8884 102.4 34.2401 100.898C33.5998 99.3897 33.2698 97.7675 33.2698 96.1285C33.2698 94.4895 33.5998 92.8672 34.2401 91.3585C35.2085 89.0865 36.8411 87.1602 38.9237 85.8325C39.2895 85.5994 39.6661 85.3866 40.0518 85.1946C37.8868 88.7073 33.8385 97.4025 39.4623 106.731ZM47.2787 108.307C45.6967 105.642 40.1862 94.8488 47.2578 83.896L56.3543 83.8145C54.1625 87.1523 48.7026 97.488 56.5643 108.23L47.2787 108.307Z" fill="#221F54"/>
</g>
<path id="Vector_15" d="M65.7299 97.4985C65.2729 97.8879 64.6988 98.1132 64.099 98.1385C63.4992 98.1639 62.9081 97.9879 62.4199 97.6385" stroke="#221F54" stroke-miterlimit="10" stroke-linecap="round"/>
<path id="Vector_16" d="M66.2301 94.5685C66.2269 94.8554 66.3101 95.1365 66.4688 95.3755C66.6275 95.6145 66.8544 95.8002 67.1201 95.9085C67.3856 96.0191 67.6784 96.0469 67.9601 95.9885C68.2421 95.9339 68.5014 95.7961 68.7046 95.593C68.9077 95.3898 69.0454 95.1306 69.1001 94.8485C69.1585 94.5668 69.1306 94.2741 69.0201 94.0085C68.9071 93.744 68.7194 93.5181 68.4801 93.3585C68.2006 93.1742 67.8663 93.0914 67.5332 93.1242C67.2 93.157 66.8882 93.3032 66.6501 93.5385C66.3806 93.8136 66.2298 94.1834 66.2301 94.5685Z" fill="#221F54"/>
<path id="Vector_17" d="M59.0001 94.4513C58.9969 94.7382 59.0801 95.0194 59.2388 95.2583C59.3975 95.4973 59.6244 95.683 59.8901 95.7913C60.1557 95.9019 60.4484 95.9297 60.7301 95.8713C61.0121 95.8167 61.2714 95.679 61.4746 95.4758C61.6777 95.2726 61.8155 95.0134 61.8701 94.7313C61.9285 94.4496 61.9006 94.1569 61.7901 93.8913C61.6771 93.6268 61.4894 93.4009 61.2501 93.2413C60.9707 93.057 60.6363 92.9742 60.3032 93.007C59.97 93.0398 59.6583 93.1861 59.4201 93.4213C59.1506 93.6964 58.9998 94.0662 59.0001 94.4513Z" fill="#221F54"/>
<path id="Vector_18" d="M66.9999 94.4086C66.9799 94.4805 66.9799 94.5566 66.9999 94.6286C67.0205 94.6994 67.0624 94.7623 67.1199 94.8086C67.1777 94.8535 67.247 94.8812 67.3199 94.8886C67.3973 94.8887 67.4733 94.868 67.5399 94.8286C67.5996 94.8375 67.6602 94.8375 67.7199 94.8286C67.771 94.794 67.8179 94.7538 67.8599 94.7086C67.9219 94.6501 67.9698 94.5783 67.9999 94.4986C68.0396 94.3784 68.0396 94.2487 67.9999 94.1286C67.9684 94.0752 67.9278 94.0279 67.8799 93.9886C67.8288 93.949 67.7713 93.9185 67.7099 93.8986C67.647 93.8881 67.5828 93.8881 67.5199 93.8986C67.3399 93.8386 67.0699 94.1086 66.9999 94.4086Z" fill="white"/>
<path id="Vector_19" d="M59.7699 94.2914C59.7499 94.3633 59.7499 94.4394 59.7699 94.5114C59.7905 94.5823 59.8324 94.6451 59.8899 94.6914C59.9478 94.7363 60.0171 94.764 60.0899 94.7714C60.1673 94.7715 60.2433 94.7508 60.3099 94.7114C60.3696 94.7203 60.4302 94.7203 60.4899 94.7114C60.541 94.6768 60.588 94.6366 60.6299 94.5914C60.692 94.5329 60.7398 94.4611 60.7699 94.3814C60.8096 94.2612 60.8096 94.1315 60.7699 94.0114C60.7384 93.958 60.6978 93.9107 60.6499 93.8714C60.5989 93.8318 60.5413 93.8013 60.4799 93.7814C60.417 93.7709 60.3528 93.7709 60.2899 93.7814C60.1099 93.7214 59.8399 93.9914 59.7699 94.2914Z" fill="white"/>
<path id="Vector_20" d="M66.27 86.3484C66.27 86.3484 67.33 80.3984 71.54 82.4984" stroke="#221F54" stroke-miterlimit="10" stroke-linecap="round"/>
<path id="Vector_21" d="M61.7701 86.2684C61.7701 86.2684 60.1101 80.0384 64.2101 79.4084" stroke="#221F54" stroke-miterlimit="10" stroke-linecap="round"/>
</g>
<g id="Bee_2">
<path id="Vector_22" d="M79.7674 28.3579L80.2863 28.1071C80.7262 27.8015 81.0998 27.4102 81.3848 26.9567C81.6624 26.4984 81.8476 25.99 81.9297 25.4604C82.0378 24.9355 82.0378 24.394 81.9297 23.869C81.8047 23.3458 81.5785 22.8521 81.2637 22.4159L77.4581 17.1227C76.81 16.2445 75.8422 15.6569 74.7642 15.4869C73.6861 15.317 72.5845 15.5784 71.6977 16.2145L71.1701 16.5518C70.7323 16.8597 70.3591 17.2505 70.0717 17.7022C69.7813 18.1536 69.587 18.66 69.5009 19.1898C69.4142 19.7186 69.4318 20.2592 69.5527 20.7812C69.6729 21.3045 69.8964 21.7986 70.2101 22.2343L73.9811 27.5449C74.6549 28.42 75.646 28.9948 76.7402 29.145C77.8246 29.2957 78.9247 29.0129 79.802 28.3579H79.7674Z" fill="white" stroke="#221F54" stroke-miterlimit="10" stroke-linecap="round"/>
<path id="Vector_23" d="M79.5168 29.2661L80.0444 29.3612C81.1452 29.4834 82.2499 29.167 83.1192 28.4807C83.9885 27.7943 84.5524 26.7932 84.6889 25.694L85.5539 19.259C85.6655 18.1636 85.3401 17.0684 84.6485 16.2116C83.9569 15.3548 82.955 14.8056 81.8607 14.6837L81.3331 14.5799C80.2333 14.4568 79.1288 14.7671 78.254 15.4448C77.3845 16.1297 76.8216 17.131 76.6885 18.2298L76.0052 24.7339C75.92 25.2636 75.9436 25.8051 76.0744 26.3254C76.2067 26.8478 76.4455 27.3372 76.776 27.7629C77.1064 28.1885 77.5213 28.5413 77.9945 28.799C78.4644 29.0577 78.9826 29.2167 79.5168 29.2661Z" fill="white" stroke="#221F54" stroke-miterlimit="10" stroke-linecap="round"/>
<path id="Vector_24" d="M74.8895 23.3588L87.4394 23.2463C90.2402 23.2463 92.9264 24.359 94.9069 26.3395C96.8874 28.32 98 31.0061 98 33.8069C98 36.6078 96.8874 39.2939 94.9069 41.2744C92.9264 43.2549 90.2402 44.3675 87.4394 44.3675L74.8895 44.4713C73.4798 44.5112 72.0763 44.2703 70.7607 43.7624C69.445 43.2546 68.2436 42.49 67.2264 41.5133C66.2111 40.5281 65.3999 39.3525 64.8392 38.0537C64.2854 36.7487 64 35.3456 64 33.928C64 32.5104 64.2854 31.1073 64.8392 29.8024C65.6768 27.8373 67.0889 26.1713 68.8902 25.0229C70.6914 23.8746 72.7977 23.2975 74.9328 23.3674L74.8895 23.3588Z" fill="#FDD407"/>
<g id="Group 3563_2">
<path id="Intersect_2" fill-rule="evenodd" clip-rule="evenodd" d="M69.3571 43.099C68.5851 42.6626 67.869 42.1302 67.2264 41.5132C66.2111 40.528 65.3999 39.3524 64.8392 38.0535C64.2854 36.7486 64 35.3455 64 33.9279C64 32.5103 64.2854 31.1072 64.8392 29.8023C65.6768 27.8372 67.0889 26.1712 68.8902 25.0228C69.2061 24.8214 69.5315 24.6375 69.8647 24.4716C67.9917 27.5113 64.4923 35.0313 69.3571 43.099ZM76.1173 44.461C74.75 42.1587 69.9814 32.8224 76.0976 23.3478L83.9652 23.2773C82.0689 26.1658 77.3486 35.1047 84.1486 44.3946L76.1173 44.461Z" fill="#221F54"/>
</g>
<path id="Vector_25" d="M92.075 35.113C91.6798 35.4498 91.1832 35.6447 90.6644 35.6666C90.1457 35.6885 89.6344 35.5363 89.2122 35.2341" stroke="#221F54" stroke-miterlimit="10" stroke-linecap="round"/>
<path id="Vector_26" d="M92.5076 32.5785C92.5049 32.8266 92.5768 33.0698 92.7141 33.2765C92.8514 33.4832 93.0477 33.6438 93.2774 33.7375C93.5071 33.8331 93.7603 33.8572 94.0039 33.8067C94.2479 33.7594 94.4722 33.6403 94.6479 33.4646C94.8236 33.2889 94.9427 33.0646 94.9899 32.8207C95.0405 32.5771 95.0164 32.3239 94.9207 32.0942C94.823 31.8653 94.6607 31.67 94.4537 31.532C94.212 31.3725 93.9229 31.301 93.6347 31.3293C93.3466 31.3577 93.0769 31.4842 92.8709 31.6876C92.6378 31.9255 92.5074 32.2454 92.5076 32.5785Z" fill="#221F54"/>
<path id="Vector_27" d="M86.2545 32.4772C86.2517 32.7253 86.3237 32.9685 86.4609 33.1752C86.5982 33.3819 86.7945 33.5425 87.0242 33.6362C87.2539 33.7318 87.5071 33.7559 87.7508 33.7054C87.9947 33.6581 88.219 33.539 88.3947 33.3633C88.5704 33.1876 88.6895 32.9633 88.7368 32.7194C88.7873 32.4757 88.7632 32.2225 88.6676 31.9928C88.5698 31.764 88.4075 31.5687 88.2005 31.4306C87.9588 31.2712 87.6697 31.1996 87.3815 31.228C87.0934 31.2563 86.8237 31.3828 86.6177 31.5863C86.3846 31.8242 86.2542 32.1441 86.2545 32.4772Z" fill="#221F54"/>
<path id="Vector_28" d="M93.1736 32.4403C93.1563 32.5026 93.1563 32.5684 93.1736 32.6306C93.1915 32.6919 93.2277 32.7463 93.2774 32.7863C93.3275 32.8251 93.3874 32.8491 93.4504 32.8555C93.5174 32.8556 93.5831 32.8377 93.6407 32.8036C93.6923 32.8113 93.7448 32.8113 93.7964 32.8036C93.8406 32.7737 93.8812 32.7389 93.9175 32.6998C93.9711 32.6493 94.0125 32.5871 94.0386 32.5182C94.0729 32.4143 94.0729 32.3021 94.0386 32.1982C94.0113 32.152 93.9762 32.1111 93.9348 32.0771C93.8906 32.0428 93.8409 32.0165 93.7877 31.9992C93.7333 31.9902 93.6778 31.9902 93.6234 31.9992C93.4677 31.9473 93.2342 32.1809 93.1736 32.4403Z" fill="white"/>
<path id="Vector_29" d="M86.9205 32.339C86.9031 32.4013 86.9031 32.4671 86.9205 32.5293C86.9383 32.5906 86.9745 32.645 87.0243 32.685C87.0743 32.7238 87.1342 32.7478 87.1972 32.7542C87.2642 32.7543 87.3299 32.7364 87.3875 32.7023C87.4391 32.71 87.4916 32.71 87.5432 32.7023C87.5874 32.6724 87.628 32.6376 87.6643 32.5985C87.718 32.5479 87.7594 32.4858 87.7854 32.4169C87.8197 32.3129 87.8197 32.2007 87.7854 32.0968C87.7581 32.0507 87.723 32.0097 87.6816 31.9757C87.6374 31.9415 87.5877 31.9152 87.5346 31.8979C87.4802 31.8889 87.4246 31.8889 87.3702 31.8979C87.2145 31.846 86.981 32.0795 86.9205 32.339Z" fill="white"/>
<path id="Vector_30" d="M92.5425 25.4691C92.5425 25.4691 93.4593 20.3229 97.1006 22.1392" stroke="#221F54" stroke-miterlimit="10" stroke-linecap="round"/>
<path id="Vector_31" d="M88.6502 25.3999C88.6502 25.3999 87.2145 20.0114 90.7606 19.4666" stroke="#221F54" stroke-miterlimit="10" stroke-linecap="round"/>
</g>
<g id="Bee_3">
<path id="Vector_32" d="M13.1326 49.4978L13.5649 49.2888C13.9312 49.0343 14.2424 48.7084 14.4798 48.3307C14.711 47.949 14.8652 47.5256 14.9336 47.0845C15.0237 46.6472 15.0237 46.1962 14.9336 45.759C14.8296 45.3232 14.6411 44.912 14.3789 44.5487L11.2092 40.1399C10.6694 39.4085 9.8634 38.9191 8.96549 38.7776C8.06758 38.636 7.15005 38.8537 6.41144 39.3835L5.97201 39.6645C5.6073 39.9209 5.29646 40.2464 5.05711 40.6226C4.81525 40.9986 4.6534 41.4204 4.58166 41.8617C4.50949 42.3021 4.52417 42.7524 4.62488 43.1872C4.72495 43.623 4.91109 44.0345 5.17238 44.3974L8.31326 48.8206C8.87444 49.5495 9.69994 50.0282 10.6113 50.1533C11.5145 50.2789 12.4308 50.0433 13.1615 49.4978H13.1326Z" fill="white" stroke="#221F54" stroke-miterlimit="10" stroke-linecap="round"/>
<path id="Vector_33" d="M12.9238 50.2541L13.3632 50.3334C14.2801 50.4351 15.2002 50.1716 15.9242 49.6C16.6483 49.0283 17.118 48.1944 17.2317 47.2789L17.9521 41.9193C18.0451 41.0069 17.7741 40.0947 17.1981 39.381C16.622 38.6674 15.7875 38.21 14.876 38.1084L14.4366 38.022C13.5206 37.9195 12.6007 38.1779 11.872 38.7424C11.1478 39.3128 10.679 40.1468 10.5681 41.062L9.99903 46.4793C9.92809 46.9205 9.9477 47.3715 10.0567 47.8048C10.1668 48.2399 10.3658 48.6475 10.641 49.0021C10.9162 49.3567 11.2617 49.6505 11.6559 49.8651C12.0473 50.0806 12.4789 50.213 12.9238 50.2541Z" fill="white" stroke="#221F54" stroke-miterlimit="10" stroke-linecap="round"/>
<path id="Vector_34" d="M9.06987 45.3339L19.5227 45.2402C21.8555 45.2402 24.0928 46.1669 25.7423 47.8165C27.3919 49.4661 28.3186 51.7033 28.3186 54.0362C28.3186 56.369 27.3919 58.6062 25.7423 60.2558C24.0928 61.9054 21.8555 62.8321 19.5227 62.8321L9.06987 62.9185C7.89575 62.9518 6.72675 62.7511 5.63096 62.3281C4.53517 61.9051 3.53451 61.2683 2.68725 60.4548C1.84164 59.6342 1.16602 58.655 0.698982 57.5733C0.237718 56.4864 0 55.3177 0 54.137C0 52.9563 0.237718 51.7877 0.698982 50.7008C1.39664 49.064 2.57275 47.6764 4.07302 46.7199C5.57328 45.7635 7.32762 45.2828 9.10589 45.3411L9.06987 45.3339Z" fill="#FDD407"/>
<g id="Group 3563_3">
<path id="Intersect_3" fill-rule="evenodd" clip-rule="evenodd" d="M4.4622 61.7757C3.81911 61.4122 3.22256 60.9687 2.68725 60.4547C1.84164 59.6342 1.16602 58.655 0.698982 57.5732C0.237718 56.4863 0 55.3177 0 54.137C0 52.9562 0.237718 51.7876 0.698982 50.7007C1.39664 49.064 2.57275 47.6764 4.07302 46.7199C4.33615 46.5521 4.60709 46.399 4.88462 46.2609C3.32453 48.7928 0.410089 55.0562 4.4622 61.7757ZM10.0926 62.91C8.95398 60.9927 4.98185 53.2164 10.076 45.3248L16.6289 45.2661C15.0494 47.6721 11.1182 55.1172 16.782 62.8547L10.0926 62.91Z" fill="#221F54"/>
</g>
<path id="Vector_35" d="M23.3838 55.124C23.0545 55.4045 22.641 55.5668 22.2089 55.5851C21.7768 55.6034 21.351 55.4766 20.9993 55.2249" stroke="#221F54" stroke-miterlimit="10" stroke-linecap="round"/>
<path id="Vector_36" d="M23.744 53.013C23.7417 53.2197 23.8016 53.4222 23.9159 53.5944C24.0303 53.7665 24.1937 53.9003 24.3851 53.9784C24.5764 54.058 24.7873 54.0781 24.9902 54.036C25.1934 53.9966 25.3802 53.8974 25.5265 53.7511C25.6729 53.6047 25.7721 53.4179 25.8115 53.2147C25.8536 53.0118 25.8335 52.8009 25.7538 52.6096C25.6724 52.419 25.5372 52.2563 25.3648 52.1414C25.1635 52.0086 24.9227 51.949 24.6827 51.9726C24.4427 51.9962 24.2181 52.1016 24.0465 52.271C23.8524 52.4692 23.7437 52.7356 23.744 53.013Z" fill="#221F54"/>
<path id="Vector_37" d="M18.5357 52.9286C18.5334 53.1352 18.5933 53.3378 18.7077 53.5099C18.822 53.6821 18.9855 53.8159 19.1769 53.8939C19.3682 53.9735 19.5791 53.9936 19.782 53.9515C19.9852 53.9122 20.1719 53.8129 20.3183 53.6666C20.4646 53.5202 20.5639 53.3335 20.6032 53.1303C20.6453 52.9274 20.6252 52.7165 20.5456 52.5251C20.4642 52.3346 20.329 52.1719 20.1566 52.0569C19.9553 51.9241 19.7144 51.8645 19.4744 51.8881C19.2344 51.9117 19.0098 52.0171 18.8383 52.1866C18.6441 52.3847 18.5355 52.6511 18.5357 52.9286Z" fill="#221F54"/>
<path id="Vector_38" d="M24.2987 52.8979C24.2842 52.9497 24.2842 53.0045 24.2987 53.0564C24.3135 53.1074 24.3437 53.1527 24.3851 53.186C24.4268 53.2184 24.4767 53.2384 24.5292 53.2437C24.5849 53.2438 24.6397 53.2288 24.6877 53.2004C24.7307 53.2069 24.7744 53.2069 24.8173 53.2004C24.8541 53.1756 24.888 53.1466 24.9182 53.114C24.9629 53.0719 24.9974 53.0202 25.0191 52.9627C25.0476 52.8762 25.0476 52.7827 25.0191 52.6962C24.9964 52.6578 24.9671 52.6236 24.9326 52.5953C24.8958 52.5668 24.8544 52.5449 24.8101 52.5305C24.7648 52.523 24.7186 52.523 24.6733 52.5305C24.5436 52.4873 24.3491 52.6818 24.2987 52.8979Z" fill="white"/>
<path id="Vector_39" d="M19.0904 52.8137C19.076 52.8655 19.076 52.9203 19.0904 52.9721C19.1053 53.0232 19.1354 53.0685 19.1769 53.1018C19.2185 53.1342 19.2685 53.1541 19.3209 53.1594C19.3767 53.1596 19.4315 53.1446 19.4794 53.1162C19.5224 53.1226 19.5661 53.1226 19.6091 53.1162C19.6459 53.0913 19.6797 53.0623 19.71 53.0298C19.7546 52.9877 19.7891 52.9359 19.8108 52.8785C19.8394 52.7919 19.8394 52.6985 19.8108 52.6119C19.7881 52.5735 19.7588 52.5394 19.7244 52.5111C19.6876 52.4826 19.6461 52.4606 19.6019 52.4463C19.5566 52.4387 19.5103 52.4387 19.465 52.4463C19.3353 52.403 19.1408 52.5975 19.0904 52.8137Z" fill="white"/>
<path id="Vector_40" d="M23.7729 47.0917C23.7729 47.0917 24.5366 42.8054 27.5694 44.3182" stroke="#221F54" stroke-miterlimit="10" stroke-linecap="round"/>
<path id="Vector_41" d="M20.5312 47.0339C20.5312 47.0339 19.3353 42.5459 22.2889 42.092" stroke="#221F54" stroke-miterlimit="10" stroke-linecap="round"/>
</g>
</g>
</g>
</g>
</svg>
