<svg width="140" height="140" viewBox="0 0 140 140" fill="none" xmlns="http://www.w3.org/2000/svg">
<g id="Empty States/No Following">
<g id="Layer 2">
<g id="Layer 24">
<g id="Bee">
<path id="Vector" d="M117.446 68.5167L118.077 68.2117C118.612 67.84 119.066 67.3642 119.413 66.8127C119.75 66.2552 119.976 65.637 120.075 64.9929C120.207 64.3544 120.207 63.6959 120.075 63.0574C119.923 62.4211 119.648 61.8207 119.265 61.2902L114.637 54.8527C113.849 53.7847 112.672 53.0701 111.361 52.8634C110.05 52.6567 108.71 52.9746 107.632 53.7482L106.99 54.1585C106.457 54.5329 106.004 55.0082 105.654 55.5575C105.301 56.1065 105.065 56.7224 104.96 57.3667C104.854 58.0098 104.876 58.6673 105.023 59.3022C105.169 59.9386 105.441 60.5394 105.822 61.0694L110.409 67.5279C111.228 68.5922 112.433 69.2913 113.764 69.4739C115.083 69.6573 116.421 69.3133 117.488 68.5167H117.446Z" fill="white" stroke="#221F54" stroke-miterlimit="10" stroke-linecap="round"/>
<path id="Vector_2" d="M117.141 69.6212L117.783 69.7369C119.121 69.8855 120.465 69.5007 121.522 68.666C122.579 67.8312 123.265 66.6136 123.431 65.2769L124.483 57.4508C124.619 56.1186 124.223 54.7866 123.382 53.7446C122.541 52.7025 121.322 52.0347 119.992 51.8864L119.35 51.7601C118.012 51.6105 116.669 51.9878 115.605 52.812C114.548 53.6449 113.863 54.8628 113.701 56.1991L112.87 64.1093C112.767 64.7535 112.795 65.412 112.954 66.0448C113.115 66.6801 113.406 67.2753 113.808 67.793C114.21 68.3107 114.714 68.7397 115.29 69.0532C115.861 69.3678 116.491 69.5611 117.141 69.6212Z" fill="white" stroke="#221F54" stroke-miterlimit="10" stroke-linecap="round"/>
<path id="Vector_3" d="M111.513 62.4368L126.776 62.3C130.183 62.3 133.449 63.6532 135.858 66.0618C138.267 68.4705 139.62 71.7373 139.62 75.1436C139.62 78.5499 138.267 81.8167 135.858 84.2254C133.449 86.634 130.183 87.9871 126.776 87.9871L111.513 88.1134C109.799 88.1619 108.092 87.8689 106.492 87.2512C104.892 86.6336 103.431 85.7038 102.194 84.5159C100.959 83.3177 99.9724 81.888 99.2904 80.3084C98.6169 78.7213 98.2698 77.0149 98.2698 75.2909C98.2698 73.5668 98.6169 71.8604 99.2904 70.2734C100.309 67.8835 102.026 65.8573 104.217 64.4607C106.408 63.0641 108.969 62.3623 111.566 62.4473L111.513 62.4368Z" fill="#FDD407"/>
<g id="Group 3563">
<path id="Intersect" fill-rule="evenodd" clip-rule="evenodd" d="M104.784 86.4438C103.845 85.9131 102.975 85.266 102.194 84.5159C100.959 83.3177 99.9724 81.888 99.2904 80.3084C98.6169 78.7213 98.2698 77.0149 98.2698 75.2909C98.2698 73.5668 98.6169 71.8604 99.2904 70.2734C100.309 67.8834 102.026 65.8573 104.217 64.4607C104.602 64.2154 104.998 63.9916 105.404 63.7896C103.126 67.4847 98.868 76.6309 104.784 86.4438ZM113.006 88.101C111.341 85.2982 105.545 73.9448 112.984 62.4236L122.552 62.3379C120.247 65.8489 114.503 76.7209 122.773 88.0202L113.006 88.101Z" fill="#221F54"/>
</g>
<path id="Vector_4" d="M132.414 76.7319C131.933 77.1415 131.33 77.3785 130.699 77.4052C130.068 77.4318 129.446 77.2467 128.932 76.8792" stroke="#221F54" stroke-miterlimit="10" stroke-linecap="round"/>
<path id="Vector_5" d="M132.94 73.6499C132.937 73.9517 133.024 74.2474 133.191 74.4988C133.358 74.7502 133.597 74.9455 133.876 75.0594C134.156 75.1757 134.464 75.205 134.76 75.1436C135.057 75.0861 135.329 74.9412 135.543 74.7276C135.757 74.5139 135.902 74.2411 135.959 73.9444C136.021 73.6481 135.991 73.3402 135.875 73.0609C135.756 72.7826 135.559 72.545 135.307 72.3771C135.013 72.1832 134.661 72.0962 134.311 72.1307C133.961 72.1651 133.633 72.319 133.382 72.5665C133.099 72.8558 132.94 73.2448 132.94 73.6499Z" fill="#221F54"/>
<path id="Vector_6" d="M125.335 73.5266C125.332 73.8284 125.419 74.1241 125.586 74.3755C125.753 74.6269 125.992 74.8222 126.271 74.9362C126.551 75.0524 126.859 75.0818 127.155 75.0203C127.452 74.9628 127.724 74.818 127.938 74.6043C128.152 74.3906 128.297 74.1178 128.354 73.8211C128.415 73.5249 128.386 73.2169 128.27 72.9376C128.151 72.6593 127.954 72.4217 127.702 72.2538C127.408 72.0599 127.056 71.9729 126.706 72.0074C126.355 72.0418 126.027 72.1957 125.777 72.4432C125.493 72.7325 125.335 73.1215 125.335 73.5266Z" fill="#221F54"/>
<path id="Vector_7" d="M133.75 73.4816C133.729 73.5573 133.729 73.6373 133.75 73.713C133.772 73.7876 133.816 73.8537 133.876 73.9024C133.937 73.9496 134.01 73.9788 134.087 73.9865C134.168 73.9867 134.248 73.9649 134.318 73.9234C134.381 73.9328 134.445 73.9328 134.508 73.9234C134.561 73.8871 134.611 73.8447 134.655 73.7972C134.72 73.7357 134.77 73.6601 134.802 73.5763C134.844 73.4499 134.844 73.3134 134.802 73.1871C134.769 73.131 134.726 73.0811 134.676 73.0398C134.622 72.9982 134.562 72.9661 134.497 72.9451C134.431 72.9342 134.363 72.9342 134.297 72.9451C134.108 72.882 133.824 73.166 133.75 73.4816Z" fill="white"/>
<path id="Vector_8" d="M126.145 73.3583C126.124 73.434 126.124 73.514 126.145 73.5897C126.167 73.6643 126.211 73.7304 126.271 73.7791C126.332 73.8263 126.405 73.8555 126.482 73.8632C126.563 73.8634 126.643 73.8416 126.713 73.8001C126.776 73.8095 126.84 73.8095 126.902 73.8001C126.956 73.7638 127.005 73.7214 127.05 73.6739C127.115 73.6124 127.165 73.5369 127.197 73.453C127.239 73.3266 127.239 73.1902 127.197 73.0638C127.164 73.0077 127.121 72.9578 127.071 72.9165C127.017 72.8749 126.956 72.8429 126.892 72.8218C126.826 72.8109 126.758 72.8109 126.692 72.8218C126.503 72.7587 126.219 73.0427 126.145 73.3583Z" fill="white"/>
<path id="Vector_9" d="M132.982 65.0034C132.982 65.0034 134.097 58.7446 138.526 60.9536" stroke="#221F54" stroke-miterlimit="10" stroke-linecap="round"/>
<path id="Vector_10" d="M128.249 64.9191C128.249 64.9191 126.503 58.3658 130.816 57.7031" stroke="#221F54" stroke-miterlimit="10" stroke-linecap="round"/>
</g>
<path id="Vector_11" d="M118.06 124.948C125.32 124.948 131.21 123.948 131.21 122.828C131.21 121.708 125.32 120.698 118.06 120.698C110.8 120.698 104.92 121.698 104.92 122.828C104.92 123.958 110.8 124.948 118.06 124.948Z" fill="#9DAFED"/>
</g>
</g>
<g id="Bee_2">
<path id="Vector_12" d="M79.6689 30.0296L80.189 29.7777C80.6363 29.462 81.0173 29.0617 81.3105 28.5993C81.6036 28.1382 81.8008 27.6228 81.8902 27.0838C81.9795 26.5448 81.9593 25.9933 81.8306 25.4623C81.7026 24.9316 81.4705 24.4317 81.148 23.9913L77.3202 18.6031C76.6583 17.7131 75.6738 17.1183 74.578 16.9466C73.4823 16.7749 72.363 17.0399 71.4606 17.6848L70.9242 18.0261C70.479 18.3409 70.0983 18.7382 69.8027 19.1964C69.511 19.6565 69.3147 20.1705 69.2257 20.708C69.133 21.245 69.1493 21.7951 69.2736 22.3256C69.3978 22.8562 69.6275 23.3563 69.949 23.7963L73.7849 29.2007C74.4603 30.0847 75.4575 30.6662 76.5596 30.8184C77.6616 30.9706 78.7791 30.6813 79.6689 30.0134V30.0296Z" fill="white" stroke="#221F54" stroke-miterlimit="10" stroke-linecap="round"/>
<path id="Vector_13" d="M79.4086 30.948L79.945 31.0537C81.0646 31.1734 82.1865 30.8501 83.0705 30.1529C83.9546 29.4556 84.5305 28.44 84.6749 27.3234L85.4876 20.773C85.6016 19.6596 85.2709 18.5462 84.5676 17.6755C83.8644 16.8047 82.8455 16.2472 81.733 16.1244L81.1966 16.0269C80.0768 15.9007 78.9524 16.2219 78.0682 16.9205C77.1839 17.6191 76.6113 18.6385 76.4748 19.7572L75.8003 26.34C75.7106 26.881 75.7355 27.4347 75.8734 27.9654C76.0047 28.496 76.2486 28.9921 76.5886 29.4201C76.925 29.8519 77.3452 30.2113 77.8239 30.4766C78.3128 30.7443 78.853 30.9049 79.4086 30.948V30.948Z" fill="white" stroke="#221F54" stroke-miterlimit="10" stroke-linecap="round"/>
<path id="Vector_14" d="M74.687 24.9989L87.4545 24.8689C88.8579 24.8689 90.2476 25.1453 91.5442 25.6824C92.8408 26.2195 94.0189 27.0067 95.0113 27.999C96.0037 28.9914 96.7909 30.1695 97.328 31.4661C97.865 32.7627 98.1414 34.1524 98.1414 35.5559C98.1414 36.9593 97.865 38.349 97.328 39.6456C96.7909 40.9422 96.0037 42.1203 95.0113 43.1127C94.0189 44.1051 92.8408 44.8923 91.5442 45.4294C90.2476 45.9664 88.8579 46.2429 87.4545 46.2429L74.687 46.3729C73.2835 46.3729 71.8939 46.0965 70.5973 45.5594C69.3006 45.0223 68.1225 44.2351 67.1301 43.2427C66.1378 42.2504 65.3506 41.0722 64.8135 39.7756C64.2764 38.479 64 37.0893 64 35.6859C64 34.2825 64.2764 32.8928 64.8135 31.5962C65.3506 30.2996 66.1378 29.1214 67.1301 28.1291C68.1225 27.1367 69.3006 26.3495 70.5973 25.8124C71.8939 25.2754 73.2835 24.9989 74.687 24.9989V24.9989Z" fill="white" stroke="#221F51" stroke-miterlimit="10"/>
<path id="Intersect_2" fill-rule="evenodd" clip-rule="evenodd" d="M70.0299 45.3046C66.5813 40.2842 66.6655 35.4497 67.678 31.766C68.2291 29.7609 69.0569 28.0948 69.7478 26.9296C69.9919 26.5181 70.2183 26.1699 70.4086 25.8924C69.7796 26.1672 69.1798 26.5014 68.617 26.8897C67.956 28.0722 67.2234 29.6465 66.7137 31.5009C65.7566 34.9833 65.5898 39.4482 68.1352 44.1287C68.7235 44.5853 69.3585 44.9795 70.0299 45.3046ZM75.5509 46.3638C75.3475 46.0293 75.0718 45.5489 74.7672 44.9428C74.1442 43.7035 73.3973 41.9331 72.9017 39.8069C71.9571 35.7543 71.9256 30.3979 75.4095 24.9913L76.62 24.9789C72.9464 30.2932 72.9437 35.582 73.8756 39.5799C74.3491 41.6116 75.064 43.3069 75.6606 44.4937C75.9587 45.0866 76.2265 45.5512 76.4185 45.8659C76.4801 45.9668 76.5339 46.0522 76.5784 46.1215L83.5189 46.039C79.4751 40.4848 79.5498 35.0277 80.6915 30.9126C81.2877 28.7635 82.1737 26.9813 82.9096 25.7367C83.0925 25.4274 83.2664 25.1508 83.4247 24.9096L84.6444 24.8972C84.4198 25.2116 84.1122 25.6676 83.7704 26.2457C83.0666 27.4359 82.222 29.1365 81.6551 31.18C80.5252 35.2523 80.4929 40.6892 84.9111 46.2149L84.9535 46.268L75.5509 46.3638Z" fill="#221F51"/>
<path id="Vector_15" d="M92.6475 27.0959C92.6475 27.0959 93.5821 21.8621 97.288 23.7232" stroke="#221F54" stroke-miterlimit="10" stroke-linecap="round"/>
<path id="Vector_16" d="M88.6896 27.0145C88.6896 27.0145 87.2755 21.5532 90.8351 20.9924" stroke="#221F54" stroke-miterlimit="10" stroke-linecap="round"/>
</g>
<g id="Bee_3">
<path id="Vector_17" d="M17.1529 48.5677L17.6559 48.324C18.0885 48.0188 18.457 47.6316 18.7405 47.1844C19.024 46.7385 19.2147 46.2401 19.3011 45.7188C19.3875 45.1975 19.3679 44.6642 19.2435 44.1507C19.1197 43.6375 18.8953 43.154 18.5833 42.7281L14.8815 37.5173C14.2415 36.6567 13.2893 36.0814 12.2297 35.9154C11.1701 35.7493 10.0876 36.0056 9.21491 36.6292L8.69618 36.9593C8.26565 37.2638 7.89748 37.648 7.61159 38.0911C7.32947 38.536 7.1397 39.0332 7.05357 39.5529C6.96396 40.0722 6.97971 40.6042 7.09988 41.1173C7.22005 41.6304 7.44218 42.114 7.75306 42.5395L11.4627 47.766C12.1158 48.621 13.0803 49.1832 14.146 49.3304C15.2117 49.4776 16.2925 49.1978 17.1529 48.552V48.5677Z" fill="white" stroke="#221F54" stroke-miterlimit="10" stroke-linecap="round"/>
<path id="Vector_18" d="M16.9014 49.4559L17.4201 49.558C18.5028 49.6739 19.5878 49.3612 20.4427 48.6869C21.2977 48.0126 21.8546 47.0304 21.9943 45.9506L22.7802 39.6159C22.8905 38.5391 22.5707 37.4624 21.8905 36.6203C21.2104 35.7782 20.2251 35.2391 19.1492 35.1203L18.6305 35.026C17.5475 34.904 16.4602 35.2146 15.605 35.8902C14.7499 36.5658 14.1961 37.5517 14.0641 38.6335L13.4118 44.9996C13.3251 45.5227 13.3492 46.0582 13.4826 46.5715C13.6096 47.0846 13.8454 47.5644 14.1742 47.9783C14.4995 48.3959 14.9059 48.7434 15.3688 49C15.8416 49.2588 16.364 49.4142 16.9014 49.4559V49.4559Z" fill="white" stroke="#221F54" stroke-miterlimit="10" stroke-linecap="round"/>
<path id="Vector_19" d="M12.3351 43.7027L24.6823 43.5769C26.0395 43.5769 27.3834 43.8442 28.6373 44.3636C29.8912 44.883 31.0306 45.6443 31.9903 46.604C32.95 47.5637 33.7113 48.703 34.2307 49.9569C34.75 51.2109 35.0174 52.5548 35.0174 53.912C35.0174 55.2693 34.75 56.6132 34.2307 57.8671C33.7113 59.121 32.95 60.2604 31.9903 61.2201C31.0306 62.1798 29.8912 62.941 28.6373 63.4604C27.3834 63.9798 26.0395 64.2471 24.6823 64.2471L12.3351 64.3729C10.9779 64.3729 9.63396 64.1056 8.38004 63.5862C7.12613 63.0668 5.98679 62.3055 5.02709 61.3458C4.06738 60.3861 3.3061 59.2468 2.78671 57.9929C2.26733 56.7389 2 55.395 2 54.0378C2 52.6805 2.26733 51.3366 2.78671 50.0827C3.3061 48.8288 4.06738 47.6894 5.02709 46.7297C5.98679 45.77 7.12613 45.0088 8.38004 44.4894C9.63396 43.97 10.9779 43.7027 12.3351 43.7027V43.7027Z" fill="white" stroke="#221F51" stroke-miterlimit="10"/>
<path id="Intersect_3" fill-rule="evenodd" clip-rule="evenodd" d="M7.86148 63.3543C4.51292 58.4954 4.59306 53.8158 5.57281 50.2513C6.1053 48.3139 6.90514 46.7041 7.5728 45.5782C7.81493 45.1699 8.03911 44.8261 8.22593 44.5546C7.59576 44.8276 6.99566 45.1623 6.43409 45.5529C5.79876 46.6939 5.09766 48.2068 4.60857 49.9862C3.68426 53.3491 3.52147 57.6587 5.9667 62.1775C6.55346 62.6366 7.18869 63.0313 7.86148 63.3543ZM13.1516 64.3645C12.9552 64.041 12.6904 63.5789 12.398 62.9973C11.7951 61.7979 11.0722 60.0846 10.5926 58.0268C9.67893 54.1068 9.64792 48.9257 13.0141 43.6956L14.2246 43.6833C10.6687 48.821 10.6656 53.9344 11.5665 57.7998C12.0241 59.7631 12.715 61.4013 13.2915 62.5482C13.5795 63.1211 13.8382 63.57 14.0238 63.874C14.081 63.9678 14.1313 64.0477 14.1732 64.1132L20.8443 64.0339C16.949 58.6666 17.0227 53.3943 18.1261 49.4172C18.7032 47.3372 19.5607 45.6122 20.2729 44.4077C20.4475 44.1124 20.6137 43.8479 20.7652 43.6167L21.985 43.6042C21.7675 43.9083 21.4675 44.3522 21.1337 44.9167C20.4536 46.0669 19.6375 47.7102 19.0897 49.6846C17.9981 53.6189 17.9667 58.871 22.2355 64.2098L22.2847 64.2714L13.1516 64.3645Z" fill="#221F51"/>
<path id="Vector_20" d="M29.7043 45.7305C29.7043 45.7305 30.6082 40.669 34.1921 42.4688" stroke="#221F54" stroke-miterlimit="10" stroke-linecap="round"/>
<path id="Vector_21" d="M25.8767 45.6519C25.8767 45.6519 24.5092 40.3704 27.9516 39.8281" stroke="#221F54" stroke-miterlimit="10" stroke-linecap="round"/>
</g>
<g id="Bee_4">
<path id="Vector_22" d="M51.9516 90.6466L52.5688 90.3477C53.0995 89.9731 53.5516 89.4981 53.8995 88.9494C54.2473 88.4024 54.4812 87.7908 54.5873 87.1512C54.6933 86.5117 54.6693 85.8573 54.5166 85.2273C54.3647 84.5976 54.0894 84.0044 53.7066 83.4819L49.1648 77.0886C48.3796 76.0326 47.2113 75.3269 45.9112 75.1231C44.6111 74.9193 43.2829 75.2338 42.2123 75.999L41.5758 76.404C41.0476 76.7776 40.5959 77.2489 40.2451 77.7926C39.899 78.3385 39.6661 78.9484 39.5605 79.5861C39.4505 80.2233 39.4698 80.876 39.6173 81.5055C39.7647 82.135 40.0372 82.7284 40.4187 83.2505L44.9701 89.663C45.7715 90.712 46.9548 91.4018 48.2624 91.5824C49.5699 91.7631 50.8959 91.4198 51.9516 90.6273V90.6466Z" fill="white" stroke="#221F54" stroke-miterlimit="10" stroke-linecap="round"/>
<path id="Vector_23" d="M51.6431 91.7363L52.2795 91.8617C53.6079 92.0038 54.939 91.6201 55.988 90.7928C57.037 89.9656 57.7203 88.7604 57.8917 87.4356L58.856 79.6634C58.9912 78.3422 58.5989 77.0211 57.7644 75.988C56.9299 74.9549 55.721 74.2933 54.401 74.1476L53.7645 74.0319C52.4358 73.8822 51.1017 74.2633 50.0525 75.0922C49.0034 75.9211 48.3239 77.1307 48.162 78.458L47.3616 86.2688C47.2552 86.9106 47.2848 87.5676 47.4484 88.1973C47.6042 88.8269 47.8936 89.4156 48.297 89.9234C48.6961 90.4357 49.1947 90.8621 49.7627 91.177C50.3428 91.4946 50.9837 91.6852 51.6431 91.7363V91.7363Z" fill="white" stroke="#221F54" stroke-miterlimit="10" stroke-linecap="round"/>
<path id="Vector_24" d="M46.0406 84.6775L61.1896 84.5232C62.8548 84.5232 64.5037 84.8512 66.0422 85.4884C67.5807 86.1257 68.9785 87.0597 70.156 88.2372C71.3335 89.4147 72.2676 90.8126 72.9048 92.351C73.5421 93.8895 73.87 95.5384 73.87 97.2036C73.87 98.8689 73.5421 100.518 72.9048 102.056C72.2676 103.595 71.3335 104.993 70.156 106.17C68.9785 107.348 67.5807 108.282 66.0422 108.919C64.5037 109.556 62.8548 109.884 61.1896 109.884L46.0406 110.038C44.3753 110.038 42.7264 109.71 41.188 109.073C39.6495 108.436 38.2516 107.502 37.0741 106.324C35.8966 105.147 34.9626 103.749 34.3253 102.211C33.6881 100.672 33.3601 99.0232 33.3601 97.3579C33.3601 95.6927 33.6881 94.0438 34.3253 92.5053C34.9626 90.9669 35.8966 89.569 37.0741 88.3915C38.2516 87.214 39.6495 86.28 41.188 85.6427C42.7264 85.0055 44.3753 84.6775 46.0406 84.6775V84.6775Z" fill="white" stroke="#221F51" stroke-miterlimit="10"/>
<path id="Intersect_4" fill-rule="evenodd" clip-rule="evenodd" d="M40.345 108.687C36.3295 102.753 36.4363 97.0408 37.6344 92.682C38.291 90.2929 39.2771 88.3084 40.1 86.9207C40.3552 86.4904 40.5943 86.1182 40.8023 85.8098C40.1786 86.0928 39.5798 86.4253 39.0116 86.8038C38.2069 88.2187 37.2962 90.1393 36.6701 92.417C35.5271 96.5755 35.3376 101.919 38.4501 107.515C39.0457 107.96 39.6797 108.353 40.345 108.687ZM47.1745 110.027C47.1704 110.02 47.1663 110.013 47.1621 110.006C46.9204 109.61 46.5878 109.033 46.2192 108.3C45.4825 106.834 44.5992 104.74 44.0132 102.226C42.8936 97.4231 42.8593 91.0738 47.0097 84.6674L48.2201 84.6551C43.8802 90.9691 43.8803 97.2507 44.9871 101.999C45.5511 104.419 46.4023 106.437 47.1126 107.851C47.4676 108.557 47.7866 109.11 48.0156 109.485C48.1026 109.628 48.1765 109.744 48.2345 109.834L56.7026 109.733C51.8162 103.12 51.8964 96.6164 53.2551 91.7192C53.9598 89.1791 55.0072 87.0719 55.8774 85.6003C56.1069 85.2121 56.3245 84.8676 56.5205 84.5705L57.7401 84.5581C57.4762 84.9304 57.1256 85.4541 56.7382 86.1093C55.9001 87.5266 54.8941 89.5521 54.2187 91.9865C52.8719 96.8409 52.8342 103.325 58.0991 109.909L58.104 109.915L47.1745 110.027Z" fill="#221F51"/>
<path id="Vector_25" d="M67.3513 87.1654C67.3513 87.1654 68.4603 80.9553 72.8574 83.1636" stroke="#221F54" stroke-miterlimit="10" stroke-linecap="round"/>
<path id="Vector_26" d="M62.6553 87.0692C62.6553 87.0692 60.9775 80.5892 65.2011 79.9238" stroke="#221F54" stroke-miterlimit="10" stroke-linecap="round"/>
</g>
</g>
</svg>
