<svg width="140" height="140" viewBox="0 0 140 140" fill="none" xmlns="http://www.w3.org/2000/svg">
<g id="Empty States/No Following" clip-path="url(#clip0)">
<g id="Layer 2">
<g id="Layer 24">
<g id="Bee">
<path id="Vector" d="M117.446 68.5167L118.077 68.2117C118.612 67.84 119.066 67.3642 119.413 66.8127C119.75 66.2552 119.976 65.637 120.075 64.9929C120.207 64.3544 120.207 63.6959 120.075 63.0574C119.923 62.4211 119.648 61.8207 119.265 61.2902L114.637 54.8527C113.849 53.7847 112.672 53.0701 111.361 52.8634C110.05 52.6567 108.71 52.9746 107.632 53.7482L106.99 54.1585C106.457 54.5329 106.004 55.0082 105.654 55.5575C105.301 56.1065 105.065 56.7224 104.96 57.3667C104.854 58.0098 104.876 58.6673 105.023 59.3022C105.169 59.9386 105.441 60.5394 105.822 61.0694L110.409 67.5279C111.228 68.5922 112.433 69.2913 113.764 69.4739C115.083 69.6573 116.421 69.3133 117.488 68.5167H117.446Z" fill="white" stroke="#221F54" stroke-miterlimit="10" stroke-linecap="round"/>
<path id="Vector_2" d="M117.141 69.6212L117.783 69.7369C119.121 69.8855 120.465 69.5007 121.522 68.666C122.579 67.8312 123.265 66.6136 123.431 65.2769L124.483 57.4508C124.619 56.1186 124.223 54.7866 123.382 53.7446C122.541 52.7025 121.322 52.0347 119.992 51.8864L119.35 51.7601C118.012 51.6105 116.669 51.9878 115.605 52.812C114.548 53.6449 113.863 54.8628 113.701 56.1991L112.87 64.1093C112.767 64.7535 112.795 65.412 112.954 66.0448C113.115 66.6801 113.406 67.2753 113.808 67.793C114.21 68.3107 114.714 68.7397 115.29 69.0532C115.861 69.3678 116.491 69.5611 117.141 69.6212Z" fill="white" stroke="#221F54" stroke-miterlimit="10" stroke-linecap="round"/>
<path id="Vector_3" d="M111.513 62.4368L126.776 62.3C130.183 62.3 133.449 63.6532 135.858 66.0618C138.267 68.4705 139.62 71.7373 139.62 75.1436C139.62 78.5499 138.267 81.8167 135.858 84.2254C133.449 86.634 130.183 87.9871 126.776 87.9871L111.513 88.1134C109.799 88.1619 108.092 87.8689 106.492 87.2512C104.892 86.6336 103.431 85.7038 102.194 84.5159C100.959 83.3177 99.9724 81.888 99.2904 80.3084C98.6169 78.7213 98.2698 77.0149 98.2698 75.2909C98.2698 73.5668 98.6169 71.8604 99.2904 70.2734C100.309 67.8835 102.026 65.8573 104.217 64.4607C106.408 63.0641 108.969 62.3623 111.566 62.4473L111.513 62.4368Z" fill="#FDD407"/>
<g id="Group 3563">
<path id="Intersect" fill-rule="evenodd" clip-rule="evenodd" d="M104.784 86.4438C103.845 85.9131 102.975 85.266 102.194 84.5159C100.959 83.3177 99.9724 81.888 99.2904 80.3084C98.6169 78.7213 98.2698 77.0149 98.2698 75.2909C98.2698 73.5668 98.6169 71.8604 99.2904 70.2734C100.309 67.8834 102.026 65.8573 104.217 64.4607C104.602 64.2154 104.998 63.9916 105.404 63.7896C103.126 67.4847 98.868 76.6309 104.784 86.4438ZM113.006 88.101C111.341 85.2982 105.545 73.9448 112.984 62.4236L122.552 62.3379C120.247 65.8489 114.503 76.7209 122.773 88.0202L113.006 88.101Z" fill="#221F54"/>
</g>
<path id="Vector_4" d="M132.414 76.7319C131.933 77.1415 131.33 77.3785 130.699 77.4052C130.068 77.4318 129.446 77.2467 128.932 76.8792" stroke="#221F54" stroke-miterlimit="10" stroke-linecap="round"/>
<path id="Vector_5" d="M132.94 73.6499C132.937 73.9517 133.024 74.2474 133.191 74.4988C133.358 74.7502 133.597 74.9455 133.876 75.0594C134.156 75.1757 134.464 75.205 134.76 75.1436C135.057 75.0861 135.329 74.9412 135.543 74.7276C135.757 74.5139 135.902 74.2411 135.959 73.9444C136.021 73.6481 135.991 73.3402 135.875 73.0609C135.756 72.7826 135.559 72.545 135.307 72.3771C135.013 72.1832 134.661 72.0962 134.311 72.1307C133.961 72.1651 133.633 72.319 133.382 72.5665C133.099 72.8558 132.94 73.2448 132.94 73.6499Z" fill="#221F54"/>
<path id="Vector_6" d="M125.335 73.5266C125.332 73.8284 125.419 74.1241 125.586 74.3755C125.753 74.6269 125.992 74.8222 126.271 74.9362C126.551 75.0524 126.859 75.0818 127.155 75.0203C127.452 74.9628 127.724 74.818 127.938 74.6043C128.152 74.3906 128.297 74.1178 128.354 73.8211C128.415 73.5249 128.386 73.2169 128.27 72.9376C128.151 72.6593 127.954 72.4217 127.702 72.2538C127.408 72.0599 127.056 71.9729 126.706 72.0074C126.355 72.0418 126.027 72.1957 125.777 72.4432C125.493 72.7325 125.335 73.1215 125.335 73.5266Z" fill="#221F54"/>
<path id="Vector_7" d="M133.75 73.4816C133.729 73.5573 133.729 73.6373 133.75 73.713C133.772 73.7876 133.816 73.8537 133.876 73.9024C133.937 73.9496 134.01 73.9788 134.087 73.9865C134.168 73.9867 134.248 73.9649 134.318 73.9234C134.381 73.9328 134.445 73.9328 134.508 73.9234C134.561 73.8871 134.611 73.8447 134.655 73.7972C134.72 73.7357 134.77 73.6601 134.802 73.5763C134.844 73.4499 134.844 73.3134 134.802 73.1871C134.769 73.131 134.726 73.0811 134.676 73.0398C134.622 72.9982 134.562 72.9661 134.497 72.9451C134.431 72.9342 134.363 72.9342 134.297 72.9451C134.108 72.882 133.824 73.166 133.75 73.4816Z" fill="white"/>
<path id="Vector_8" d="M126.145 73.3583C126.124 73.434 126.124 73.514 126.145 73.5897C126.167 73.6643 126.211 73.7304 126.271 73.7791C126.332 73.8263 126.405 73.8555 126.482 73.8632C126.563 73.8634 126.643 73.8416 126.713 73.8001C126.776 73.8095 126.84 73.8095 126.902 73.8001C126.956 73.7638 127.005 73.7214 127.05 73.6739C127.115 73.6124 127.165 73.5369 127.197 73.453C127.239 73.3266 127.239 73.1902 127.197 73.0638C127.164 73.0077 127.121 72.9578 127.071 72.9165C127.017 72.8749 126.956 72.8429 126.892 72.8218C126.826 72.8109 126.758 72.8109 126.692 72.8218C126.503 72.7587 126.219 73.0427 126.145 73.3583Z" fill="white"/>
<path id="Vector_9" d="M132.982 65.0034C132.982 65.0034 134.097 58.7446 138.526 60.9536" stroke="#221F54" stroke-miterlimit="10" stroke-linecap="round"/>
<path id="Vector_10" d="M128.249 64.9191C128.249 64.9191 126.503 58.3658 130.816 57.7031" stroke="#221F54" stroke-miterlimit="10" stroke-linecap="round"/>
</g>
<path id="Vector_11" d="M118.06 124.948C125.32 124.948 131.21 123.948 131.21 122.828C131.21 121.708 125.32 120.698 118.06 120.698C110.8 120.698 104.92 121.698 104.92 122.828C104.92 123.958 110.8 124.948 118.06 124.948Z" fill="#9DAFED"/>
<path id="Vector_12" d="M46.2298 84.8778L61.3898 84.7478C64.7713 84.7478 68.0143 86.0911 70.4054 88.4822C72.7965 90.8733 74.1398 94.1163 74.1398 97.4978C74.1398 100.879 72.7965 104.122 70.4054 106.513C68.0143 108.905 64.7713 110.248 61.3898 110.248L46.2298 110.368C43.2189 110.466 40.2706 109.494 37.9076 107.626C35.5446 105.757 33.9195 103.112 33.3204 100.16C32.7213 97.2078 33.1869 94.1387 34.6347 91.4969C36.0825 88.8551 38.4189 86.8113 41.2298 85.7278C42.8235 85.1151 44.5232 84.8261 46.2298 84.8778Z" fill="#FDD407"/>
<path id="Vector_13" d="M52.1198 90.9178L52.7498 90.6179C53.2793 90.2443 53.729 89.7689 54.0724 89.2194C54.4158 88.67 54.6461 88.0575 54.7498 87.4178C54.86 86.7804 54.8396 86.1272 54.6898 85.4978C54.5445 84.8645 54.2686 84.2685 53.8798 83.7478L49.3298 77.3478C48.5487 76.2901 47.3824 75.5827 46.0835 75.3787C44.7846 75.1747 43.4576 75.4905 42.3898 76.2578L41.7498 76.6678C41.2082 77.0357 40.7458 77.5083 40.3898 78.0578C40.041 78.6016 39.8062 79.2106 39.6998 79.8478C39.5988 80.4864 39.6226 81.1384 39.7698 81.7678C39.9221 82.3945 40.2012 82.9833 40.5898 83.4978L45.1298 89.9079C45.5238 90.4331 46.0174 90.8757 46.5824 91.2102C47.1474 91.5448 47.7727 91.7647 48.4227 91.8576C49.0727 91.9505 49.7347 91.9144 50.3707 91.7514C51.0068 91.5885 51.6045 91.3018 52.1298 90.9079L52.1198 90.9178Z" fill="white" stroke="#221F54" stroke-miterlimit="10" stroke-linecap="round"/>
<path id="Vector_14" d="M51.8199 92.0079L52.4599 92.1279C53.788 92.2784 55.1218 91.8974 56.1699 91.0679C57.2173 90.2387 57.8992 89.0329 58.0699 87.7079L59.0699 79.9279C59.142 79.2729 59.0839 78.6102 58.899 77.9778C58.7141 77.3453 58.4061 76.7557 57.9925 76.2427C57.579 75.7297 57.0681 75.3036 56.4893 74.9887C55.9105 74.6738 55.2752 74.4764 54.6199 74.4079L53.9799 74.2879C52.654 74.1411 51.3237 74.5227 50.2773 75.3501C49.231 76.1775 48.5528 77.3839 48.3899 78.7079L47.5799 86.4979C47.4598 87.1624 47.4871 87.8451 47.6599 88.4979C47.9016 89.4469 48.4314 90.2976 49.1763 90.9333C49.9212 91.569 50.8447 91.9584 51.8199 92.0479V92.0079Z" fill="white" stroke="#221F54" stroke-miterlimit="10" stroke-linecap="round"/>
<path id="Vector_15" d="M46.2098 84.948L61.3898 84.788C63.0869 84.7403 64.7763 85.0334 66.3582 85.65C67.9401 86.2666 69.3823 87.194 70.5995 88.3776C71.8167 89.5611 72.7843 90.9767 73.445 92.5407C74.1057 94.1046 74.4461 95.7852 74.4461 97.483C74.4461 99.1807 74.1057 100.861 73.445 102.425C72.7843 103.989 71.8167 105.405 70.5995 106.588C69.3823 107.772 67.9401 108.699 66.3582 109.316C64.7763 109.932 63.0869 110.226 61.3898 110.178L46.2298 110.328C42.8642 110.328 39.6364 108.991 37.2566 106.611C34.8768 104.231 33.5398 101.004 33.5398 97.638C33.5398 94.2724 34.8768 91.0446 37.2566 88.6648C39.6364 86.2849 42.8642 84.948 46.2298 84.948H46.2098Z" fill="white" stroke="#221F52" stroke-miterlimit="10"/>
<g id="Mask Group">
<mask id="mask0" mask-type="alpha" maskUnits="userSpaceOnUse" x="33" y="84" width="42" height="27">
<path id="Vector_16" d="M46.2098 84.948L61.3898 84.788C63.0869 84.7403 64.7763 85.0334 66.3582 85.65C67.9401 86.2666 69.3823 87.194 70.5995 88.3776C71.8167 89.5611 72.7843 90.9767 73.445 92.5407C74.1057 94.1046 74.4461 95.7852 74.4461 97.483C74.4461 99.1807 74.1057 100.861 73.445 102.425C72.7843 103.989 71.8167 105.405 70.5995 106.588C69.3823 107.772 67.9401 108.699 66.3582 109.316C64.7763 109.932 63.0869 110.226 61.3898 110.178L46.2298 110.328C42.8642 110.328 39.6364 108.991 37.2566 106.611C34.8768 104.231 33.5398 101.004 33.5398 97.638C33.5398 94.2724 34.8768 91.0446 37.2566 88.6648C39.6364 86.2849 42.8642 84.948 46.2298 84.948H46.2098Z" fill="white" stroke="#221F52" stroke-miterlimit="10"/>
</mask>
<g mask="url(#mask0)">
<g id="Group">
<path id="Vector_17" d="M58.0199 83.8479C58.0199 83.8479 47.1099 97.0279 57.8899 110.498L48.1399 110.618C48.1399 110.618 38.8599 97.4979 48.2099 84.2879C48.4699 84.1279 57.9899 83.9579 58.0199 83.8479Z" stroke="#221F52" stroke-miterlimit="10"/>
<path id="Vector_18" d="M41.3899 84.728C41.3899 84.728 30.5899 97.618 41.3899 110.958L31.6599 111.098C31.6599 111.098 22.3699 98.028 31.6599 85.168C31.6899 84.988 41.3899 85.068 41.3899 84.728Z" stroke="#221F52" stroke-miterlimit="10"/>
</g>
</g>
</g>
<path id="Vector_19" d="M67.5398 87.4279C67.5398 87.4279 68.6498 81.2179 73.0498 83.4279" stroke="#221F54" stroke-miterlimit="10" stroke-linecap="round"/>
<path id="Vector_20" d="M62.8397 87.3377C62.8397 87.3377 61.1197 80.8377 65.3897 80.1777" stroke="#221F54" stroke-miterlimit="10" stroke-linecap="round"/>
<path id="Vector_21" d="M75.6099 25.1478L88.6099 25.0278C91.5273 25.0278 94.3252 26.1868 96.3881 28.2497C98.451 30.3126 99.6099 33.1105 99.6099 36.0278C99.6099 38.9452 98.451 41.7431 96.3881 43.806C94.3252 45.8689 91.5273 47.0278 88.6099 47.0278L75.6099 47.1378C74.1355 47.1866 72.6664 46.9384 71.2899 46.4078C69.9155 45.8818 68.6614 45.0837 67.6029 44.0613C66.5444 43.0389 65.7032 41.8132 65.1299 40.4578C64.5487 39.0986 64.2473 37.6362 64.2439 36.158C64.2405 34.6797 64.5351 33.2159 65.1101 31.8541C65.6851 30.4922 66.5287 29.2602 67.5905 28.2317C68.6522 27.2032 69.9105 26.3992 71.2899 25.8678C72.6684 25.3456 74.1365 25.1009 75.6099 25.1478Z" fill="#FDD407"/>
<path id="Vector_22" d="M80.6799 30.3378L81.2199 30.0778C81.6903 29.7649 82.089 29.3559 82.3899 28.8778C82.6896 28.4064 82.8903 27.8791 82.9799 27.3278C83.0849 26.7828 83.0849 26.2227 82.9799 25.6778C82.8504 25.1325 82.6123 24.6189 82.2799 24.1678L78.2799 18.6578C77.6015 17.7474 76.5934 17.1392 75.4717 16.9635C74.3501 16.7877 73.2042 17.0585 72.2799 17.7178L71.7299 18.0778C71.2769 18.3974 70.8898 18.8015 70.5899 19.2678C70.2902 19.7391 70.0895 20.2664 69.9999 20.8178C69.8949 21.3627 69.8949 21.9228 69.9999 22.4678C70.1343 23.0095 70.3682 23.5216 70.6899 23.9778L74.6699 29.4978C75.3604 30.3993 76.3761 30.995 77.4999 31.1578C78.6266 31.3159 79.7701 31.021 80.6799 30.3378Z" fill="white" stroke="#221F54" stroke-miterlimit="10" stroke-linecap="round"/>
<path id="Vector_23" d="M80.3898 31.2779L80.9398 31.3879C82.0854 31.5079 83.2329 31.178 84.1398 30.4679C85.042 29.7563 85.6275 28.718 85.7698 27.5779L86.6498 20.8779C86.7653 19.7445 86.4305 18.6112 85.7177 17.7225C85.0049 16.8339 83.9712 16.2611 82.8398 16.1279L82.2898 16.0279C81.1451 15.898 79.9954 16.2255 79.0908 16.939C78.1863 17.6525 77.6001 18.6943 77.4598 19.8379L76.7698 26.5679C76.68 27.1207 76.7072 27.6862 76.8498 28.2279C76.9817 28.7718 77.2308 29.2803 77.5798 29.7179C77.9216 30.1602 78.3504 30.5277 78.8398 30.7979C79.3183 31.0621 79.8458 31.2254 80.3898 31.2779Z" fill="white" stroke="#221F54" stroke-miterlimit="10" stroke-linecap="round"/>
<path id="Vector_24" d="M75.5899 25.1979L88.6499 25.0679C91.4902 25.1538 94.1853 26.3425 96.164 28.382C98.1427 30.4214 99.2493 33.1513 99.2493 35.9929C99.2493 38.8344 98.1427 41.5643 96.164 43.6038C94.1853 45.6432 91.4902 46.8319 88.6499 46.9179L75.5899 47.0479C72.7496 46.9619 70.0545 45.7732 68.0758 43.7338C66.0971 41.6943 64.9905 38.9644 64.9905 36.1229C64.9905 33.2813 66.0971 30.5514 68.0758 28.512C70.0545 26.4725 72.7496 25.2838 75.5899 25.1979Z" fill="white" stroke="#221F53" stroke-miterlimit="10"/>
<g id="Mask Group_2">
<mask id="mask1" mask-type="alpha" maskUnits="userSpaceOnUse" x="64" y="24" width="36" height="24">
<path id="Vector_25" d="M75.5899 25.1979L88.6499 25.0679C91.4902 25.1538 94.1853 26.3425 96.164 28.382C98.1427 30.4214 99.2493 33.1513 99.2493 35.9929C99.2493 38.8344 98.1427 41.5643 96.164 43.6038C94.1853 45.6432 91.4902 46.8319 88.6499 46.9179L75.5899 47.0479C72.7496 46.9619 70.0545 45.7732 68.0758 43.7338C66.0971 41.6943 64.9905 38.9644 64.9905 36.1229C64.9905 33.2813 66.0971 30.5514 68.0758 28.512C70.0545 26.4725 72.7496 25.2838 75.5899 25.1979Z" fill="white" stroke="#221F53" stroke-miterlimit="10"/>
</mask>
<g mask="url(#mask1)">
<g id="Group_2">
<path id="Vector_26" d="M85.76 24.2578C85.76 24.2578 76.37 35.5978 85.64 47.2578L77.25 47.3578C77.25 47.3578 69.25 36.0178 77.32 24.6878C77.54 24.4978 85.74 24.3478 85.76 24.2578Z" stroke="#221F52" stroke-miterlimit="10"/>
<path id="Vector_27" d="M71.3899 25.0178C71.3899 25.0178 62.1499 36.1078 71.3899 47.5978L63.0099 47.7078C63.0099 47.7078 55.0099 36.4578 63.0099 25.3978C63.0899 25.2378 71.3899 25.3078 71.3899 25.0178Z" stroke="#221F52" stroke-miterlimit="10"/>
</g>
</g>
</g>
<path id="Vector_28" d="M93.9597 27.3379C93.9597 27.3379 94.9597 21.9879 98.6997 23.8979" stroke="#221F54" stroke-miterlimit="10" stroke-linecap="round"/>
<path id="Vector_29" d="M89.9099 27.2579C89.9099 27.2579 88.3899 21.6679 92.0999 21.0979" stroke="#221F54" stroke-miterlimit="10" stroke-linecap="round"/>
<path id="Vector_30" d="M9.76981 46.1479L20.9998 46.0479C23.5035 46.0479 25.9046 47.0424 27.6749 48.8128C29.4452 50.5831 30.4398 52.9842 30.4398 55.4879C30.4398 57.9915 29.4452 60.3926 27.6749 62.1629C25.9046 63.9333 23.5035 64.9279 20.9998 64.9279L9.76981 65.0179C8.50402 65.063 7.24215 64.8521 6.05981 64.3979C4.88117 63.9476 3.80367 63.2678 2.88981 62.3979C1.97351 61.5166 1.2455 60.4586 0.749812 59.2879C0.255007 58.1223 0 56.8691 0 55.6029C0 54.3366 0.255007 53.0834 0.749812 51.9179C1.24313 50.74 1.97128 49.675 2.88981 48.7879C3.80367 47.9179 4.88117 47.2381 6.05981 46.7879C7.24074 46.3268 8.50266 46.1091 9.76981 46.1479Z" fill="#FDD407"/>
<path id="Vector_31" d="M14.1398 50.6178L14.5998 50.3878C14.9987 50.1273 15.3393 49.7868 15.5998 49.3878C15.8578 48.9822 16.0315 48.5288 16.1106 48.0546C16.1896 47.5804 16.1723 47.0952 16.0598 46.6278C15.9533 46.1602 15.7487 45.7205 15.4598 45.3378L12.0898 40.5978C11.804 40.2077 11.444 39.8779 11.0305 39.6273C10.6169 39.3767 10.1578 39.2104 9.67975 39.1378C8.71649 38.9859 7.73217 39.2195 6.93975 39.7878L6.46975 40.0878C6.07797 40.3571 5.73901 40.696 5.46975 41.0878C5.22029 41.4954 5.05061 41.9468 4.96975 42.4178C4.87467 42.8864 4.87467 43.3692 4.96975 43.8378C5.07831 44.3078 5.28256 44.7503 5.56975 45.1378L8.92975 49.8878C9.52324 50.6668 10.4 51.1804 11.3698 51.3171C12.3395 51.4538 13.3241 51.2025 14.1098 50.6178H14.1398Z" fill="white" stroke="#221F54" stroke-miterlimit="10" stroke-linecap="round"/>
<path id="Vector_32" d="M13.9198 51.4178L14.3898 51.4978C15.3731 51.6107 16.3611 51.3303 17.1385 50.7178C17.9159 50.1052 18.4196 49.2102 18.5398 48.2278L19.2898 42.4978C19.3425 42.0125 19.2989 41.5215 19.1614 41.053C19.024 40.5845 18.7954 40.1478 18.4888 39.7678C18.1823 39.3878 17.8037 39.0721 17.3749 38.8387C16.946 38.6054 16.4754 38.4589 15.9898 38.4078L15.5198 38.3178C14.5413 38.2104 13.5598 38.492 12.7871 39.1019C12.0144 39.7118 11.5126 40.6011 11.3898 41.5778L10.7898 47.3678C10.718 47.8444 10.7418 48.3305 10.8598 48.7978C10.9792 49.2634 11.1937 49.6992 11.4898 50.0778C11.7838 50.4571 12.1511 50.7733 12.5698 51.0078C12.9869 51.2358 13.4464 51.3753 13.9198 51.4178Z" fill="white" stroke="#221F54" stroke-miterlimit="10" stroke-linecap="round"/>
<path id="Vector_33" d="M9.75986 46.1879L20.9899 46.0779C23.4829 46.0779 25.8738 47.0682 27.6367 48.8311C29.3995 50.5939 30.3899 52.9848 30.3899 55.4779C30.3899 57.9709 29.3995 60.3618 27.6367 62.1247C25.8738 63.8875 23.4829 64.8779 20.9899 64.8779L9.75986 64.9879C7.26683 64.9879 4.8759 63.9975 3.11306 62.2347C1.35022 60.4718 0.359863 58.0809 0.359863 55.5879C0.359863 53.0948 1.35022 50.7039 3.11306 48.9411C4.8759 47.1782 7.26683 46.1879 9.75986 46.1879Z" fill="white" stroke="#221F52" stroke-miterlimit="10"/>
<g id="Mask Group_3">
<mask id="mask2" mask-type="alpha" maskUnits="userSpaceOnUse" x="-1" y="45" width="32" height="21">
<path id="Vector_34" d="M9.75986 46.1879L20.9899 46.0779C23.4829 46.0779 25.8738 47.0682 27.6367 48.8311C29.3995 50.5939 30.3899 52.9848 30.3899 55.4779C30.3899 57.9709 29.3995 60.3618 27.6367 62.1247C25.8738 63.8875 23.4829 64.8779 20.9899 64.8779L9.75986 64.9879C7.26683 64.9879 4.8759 63.9975 3.11306 62.2347C1.35022 60.4718 0.359863 58.0809 0.359863 55.5879C0.359863 53.0948 1.35022 50.7039 3.11306 48.9411C4.8759 47.1782 7.26683 46.1879 9.75986 46.1879Z" fill="white" stroke="#221F52" stroke-miterlimit="10"/>
</mask>
<g mask="url(#mask2)">
<g id="Group_3">
<path id="Vector_35" d="M18.5098 45.3779C18.5098 45.3779 10.3898 55.1379 18.3898 65.1179L11.1698 65.2079C11.1698 65.2079 4.29979 55.4579 11.1698 45.7079C11.3898 45.5879 18.4898 45.4979 18.5098 45.3779Z" stroke="#221F52" stroke-miterlimit="10"/>
<path id="Vector_36" d="M6.15987 46.0378C6.15987 46.0378 -1.84013 55.5778 6.15987 65.4578L-1.05013 65.5578C-1.05013 65.5578 -7.93013 55.8778 -1.05013 46.3578C-0.990132 46.2278 6.17987 46.2778 6.15987 46.0378Z" stroke="#221F52" stroke-miterlimit="10"/>
</g>
</g>
</g>
<path id="Vector_37" d="M25.5598 48.0279C25.5598 48.0279 26.3798 43.4279 29.6298 45.0279" stroke="#221F54" stroke-miterlimit="10" stroke-linecap="round"/>
<path id="Vector_38" d="M22.0799 47.968C22.0799 47.968 20.7999 43.148 23.9599 42.668" stroke="#221F54" stroke-miterlimit="10" stroke-linecap="round"/>
</g>
</g>
</g>
<defs>
<clipPath id="clip0">
<rect width="140" height="140" fill="white"/>
</clipPath>
</defs>
</svg>
