<svg width="81" height="80" viewBox="0 0 81 80" fill="none" xmlns="http://www.w3.org/2000/svg">
<path d="M52.4 56.9H11.1C10.374 56.8511 9.69592 56.5205 9.21021 55.9788C8.72451 55.437 8.46965 54.727 8.49999 54V15.9C8.46965 15.173 8.72451 14.463 9.21021 13.9212C9.69592 13.3795 10.374 13.0489 11.1 13H52.4C53.1259 13.0489 53.8041 13.3795 54.2898 13.9212C54.7755 14.463 55.0303 15.173 55 15.9V53.9C55.0416 54.2707 55.006 54.6459 54.8953 55.0021C54.7847 55.3583 54.6015 55.6877 54.3572 55.9696C54.1129 56.2515 53.8129 56.4796 53.476 56.6398C53.1392 56.7999 52.7728 56.8885 52.4 56.9V56.9Z" stroke="#1F1A54" stroke-width="2" stroke-linecap="round" stroke-linejoin="round"/>
<path d="M26.1001 56.9001L40.6001 27.1001L55.0001 54.4001" stroke="#1F1A54" stroke-width="2" stroke-linecap="round" stroke-linejoin="round"/>
<path d="M8.69995 54.4L18.7 36L28.7999 50.4" stroke="#1F1A54" stroke-width="2" stroke-linecap="round" stroke-linejoin="round"/>
<path d="M23.8999 29.3999C26.3852 29.3999 28.3999 27.3852 28.3999 24.8999C28.3999 22.4146 26.3852 20.3999 23.8999 20.3999C21.4146 20.3999 19.3999 22.4146 19.3999 24.8999C19.3999 27.3852 21.4146 29.3999 23.8999 29.3999Z" stroke="#1F1A54" stroke-width="2" stroke-linecap="round" stroke-linejoin="round"/>
<g filter="url(#filter0_d)">
<path d="M53.75 67.1593C57.1519 67.1593 60.4773 66.1505 63.3059 64.2606C66.1344 62.3706 68.339 59.6843 69.6408 56.5414C70.9426 53.3986 71.2832 49.9402 70.6196 46.6037C69.9559 43.2673 68.3177 40.2025 65.9123 37.797C63.5068 35.3916 60.4421 33.7534 57.1056 33.0898C53.7691 32.4261 50.3108 32.7667 47.1679 34.0686C44.025 35.3704 41.3387 37.575 39.4488 40.4035C37.5588 43.232 36.55 46.5574 36.55 49.9593C36.55 54.521 38.3622 58.8959 41.5878 62.1215C44.8134 65.3471 49.1883 67.1593 53.75 67.1593Z" fill="url(#paint0_linear)"/>
</g>
<path d="M53.9 34.4C56.9937 34.3848 60.022 35.2899 62.6 37C65.1292 38.7677 67.1333 41.1864 68.4 44C69.5946 46.8773 69.9078 50.0445 69.3 53.1C68.6663 56.1249 67.1733 58.9026 65 61.1C62.8099 63.3012 60.0137 64.8002 56.9681 65.4058C53.9226 66.0113 50.7657 65.696 47.9 64.5C45.0327 63.3211 42.5914 61.2983 40.9 58.7C38.9054 55.6731 38.0153 52.0511 38.3796 48.4444C38.7439 44.8377 40.3404 41.4669 42.9 38.9C45.8287 36.0064 49.783 34.3887 53.9 34.4ZM53.9 31.4C50.2073 31.4112 46.5962 32.4876 43.5 34.5C40.4519 36.5653 38.0854 39.4887 36.7 42.9C35.3354 46.3275 34.9545 50.0678 35.6 53.7C36.337 57.3255 38.1084 60.6598 40.7 63.3C43.3262 65.9107 46.6666 67.6853 50.3 68.4C53.9281 69.1405 57.6958 68.7568 61.1 67.3C63.9353 66.1297 66.4371 64.2763 68.3826 61.905C70.3282 59.5337 71.6571 56.718 72.2511 53.7088C72.845 50.6995 72.6855 47.5901 71.7868 44.6574C70.8881 41.7247 69.278 39.0598 67.1 36.9C65.3769 35.1505 63.3216 33.7628 61.0549 32.8184C58.7882 31.8739 56.3556 31.3917 53.9 31.4Z" fill="white"/>
<path d="M54 58.0901V50.0801" stroke="white" stroke-width="3" stroke-linecap="round" stroke-linejoin="round"/>
<circle cx="54" cy="43.7598" r="2" fill="white"/>
<defs>
<filter id="filter0_d" x="33.55" y="32.7593" width="40.4" height="40.4" filterUnits="userSpaceOnUse" color-interpolation-filters="sRGB">
<feFlood flood-opacity="0" result="BackgroundImageFix"/>
<feColorMatrix in="SourceAlpha" type="matrix" values="0 0 0 0 0 0 0 0 0 0 0 0 0 0 0 0 0 0 127 0"/>
<feOffset dy="3"/>
<feGaussianBlur stdDeviation="1.5"/>
<feColorMatrix type="matrix" values="0 0 0 0 0.636094 0 0 0 0 0.666281 0 0 0 0 0.8625 0 0 0 0.2 0"/>
<feBlend mode="normal" in2="BackgroundImageFix" result="effect1_dropShadow"/>
<feBlend mode="normal" in="SourceGraphic" in2="effect1_dropShadow" result="shape"/>
</filter>
<linearGradient id="paint0_linear" x1="53.7501" y1="32.7593" x2="53.7501" y2="67.1593" gradientUnits="userSpaceOnUse">
<stop stop-color="#FBE100"/>
<stop offset="1" stop-color="#FFD600"/>
</linearGradient>
</defs>
</svg>
