<svg width="40" height="42" viewBox="0 0 40 42" fill="none" xmlns="http://www.w3.org/2000/svg">
<path d="M15.5138 4.5C13.5835 4.5003 11.6873 5.00763 10.015 5.97116C8.34275 6.93469 6.95319 8.32058 5.98556 9.98996C5.01794 11.6593 4.50623 13.5536 4.50172 15.4829C4.49721 17.4122 5.00005 19.3089 5.95986 20.9827L4.5 26.4223L9.8989 24.9718C11.3557 25.8316 12.9912 26.3442 14.6783 26.4697C16.3655 26.5951 18.0589 26.3301 19.6269 25.6952C21.195 25.0603 22.5954 24.0726 23.7195 22.8088C24.8436 21.545 25.6611 20.0391 26.1084 18.4083C26.5557 16.7774 26.6208 15.0654 26.2986 13.4054C25.9765 11.7453 25.2757 10.1818 24.2509 8.83633C23.226 7.4909 21.9045 6.39977 20.3892 5.6477C18.8739 4.89564 17.2056 4.5029 15.5138 4.5Z" stroke="#1F1A54" stroke-linecap="round" stroke-linejoin="round"/>
<path d="M11 11.5H20.5" stroke="#1F1A54" stroke-linecap="round"/>
<path d="M11 15H20.5" stroke="#1F1A54" stroke-linecap="round"/>
<path d="M11 18.5H16.5" stroke="#1F1A54" stroke-linecap="round"/>
<g filter="url(#filter0_d)">
<path d="M26.241 35.45C28.022 35.45 29.763 34.9456 31.2438 34.0006C32.7247 33.0557 33.8789 31.7125 34.5604 30.1411C35.242 28.5696 35.4203 26.8405 35.0729 25.1722C34.7254 23.504 33.8678 21.9716 32.6084 20.7689C31.349 19.5662 29.7445 18.7471 27.9977 18.4153C26.2509 18.0834 24.4404 18.2537 22.7949 18.9046C21.1495 19.5556 19.7431 20.6578 18.7536 22.0721C17.7642 23.4864 17.236 25.1491 17.236 26.85C17.236 29.1309 18.1848 31.3183 19.8735 32.9311C21.5623 34.5439 23.8527 35.45 26.241 35.45Z" fill="url(#paint0_linear)"/>
</g>
<path d="M26.2553 28.4441C26.2514 28.0486 26.3741 27.8263 26.5693 27.4823C26.7645 27.1384 27.0471 26.8521 27.3886 26.6526C27.728 26.4535 28.0093 26.1688 28.2043 25.8269C28.3993 25.4851 28.5013 25.0981 28.5 24.7046C28.4987 24.3111 28.3942 23.9248 28.197 23.5842C27.9998 23.2437 27.7166 22.9608 27.3759 22.7639C27.0352 22.567 26.6488 22.4628 26.2553 22.4619C25.8617 22.461 25.4748 22.5633 25.1332 22.7586C24.7916 22.9539 24.5071 23.2354 24.3083 23.5751C24.1094 23.9147 24.0031 24.3005 24 24.694" stroke="white" stroke-linecap="round" stroke-linejoin="round"/>
<path d="M26.4295 31.0497C26.4298 31.0799 26.4211 31.1095 26.4045 31.1347L26.8862 31.4511L26.4045 31.1347C26.3879 31.1599 26.3643 31.1796 26.3365 31.1914C26.3087 31.2031 26.278 31.2063 26.2484 31.2006C26.2187 31.1949 26.1915 31.1805 26.1701 31.1593C26.1486 31.138 26.134 31.1109 26.128 31.0813C26.122 31.0517 26.1249 31.0211 26.1364 30.9931C26.1479 30.9652 26.1674 30.9414 26.1925 30.9246C26.2176 30.9078 26.2471 30.8988 26.2772 30.8988C26.3174 30.8988 26.3559 30.9147 26.3844 30.9429L26.8068 30.5168L26.3844 30.9429C26.4129 30.9712 26.4291 31.0096 26.4295 31.0497L27.0295 31.0443L26.4295 31.0497Z" fill="white" stroke="white" stroke-width="1.2" stroke-linecap="round" stroke-linejoin="round"/>
<path d="M26.241 19C27.8606 18.9924 29.4461 19.4449 30.7958 20.3C32.1199 21.1838 33.1691 22.3932 33.8323 23.8C34.4577 25.2386 34.6217 26.8222 34.3035 28.35C33.9717 29.8624 33.1901 31.2513 32.0523 32.35C30.9057 33.4506 29.4417 34.2001 27.8472 34.5029C26.2528 34.8057 24.6 34.648 23.0997 34.05C21.5985 33.4605 20.3204 32.4492 19.4349 31.15C18.3906 29.6365 17.9246 27.8255 18.1153 26.0222C18.3061 24.2189 19.1419 22.5334 20.482 21.25C21.2383 20.5298 22.1368 19.9601 23.1254 19.5738C24.1139 19.1876 25.1729 18.9926 26.241 19ZM26.241 17.5C24.3077 17.5056 22.4171 18.0438 20.7961 19.05C19.2003 20.0826 17.9613 21.5443 17.236 23.25C16.5216 24.9637 16.3221 26.8339 16.6601 28.65C17.0289 30.4685 17.9588 32.1401 19.3303 33.4499C20.7018 34.7597 22.4521 35.6478 24.3562 36C26.2557 36.3703 28.2282 36.1784 30.0105 35.45C32.0905 34.6148 33.8042 33.1185 34.861 31.2145C35.9178 29.3106 36.2527 27.1162 35.809 25.0033C35.3653 22.8905 34.1703 20.9892 32.4265 19.6217C30.6827 18.2541 28.4973 17.5046 26.241 17.5Z" fill="white"/>
<defs>
<filter id="filter0_d" x="14.236" y="18.25" width="24.0099" height="23.2" filterUnits="userSpaceOnUse" color-interpolation-filters="sRGB">
<feFlood flood-opacity="0" result="BackgroundImageFix"/>
<feColorMatrix in="SourceAlpha" type="matrix" values="0 0 0 0 0 0 0 0 0 0 0 0 0 0 0 0 0 0 127 0"/>
<feOffset dy="3"/>
<feGaussianBlur stdDeviation="1.5"/>
<feColorMatrix type="matrix" values="0 0 0 0 0.636094 0 0 0 0 0.666281 0 0 0 0 0.8625 0 0 0 0.2 0"/>
<feBlend mode="normal" in2="BackgroundImageFix" result="effect1_dropShadow"/>
<feBlend mode="normal" in="SourceGraphic" in2="effect1_dropShadow" result="shape"/>
</filter>
<linearGradient id="paint0_linear" x1="26.241" y1="18.25" x2="26.241" y2="35.45" gradientUnits="userSpaceOnUse">
<stop stop-color="#FBE100"/>
<stop offset="1" stop-color="#FFD600"/>
</linearGradient>
</defs>
</svg>
