<svg width="375" height="280" viewBox="0 0 375 280" fill="none" xmlns="http://www.w3.org/2000/svg">
<path d="M135.8 46.7906C133.325 48.2197 131.8 50.8607 131.8 53.7188V108.788C131.8 111.643 133.321 114.281 135.791 115.711L183.394 143.28C185.872 144.715 188.928 144.716 191.407 143.283L239.104 115.71C241.577 114.281 243.1 111.641 243.1 108.784V53.723C243.1 50.8626 241.573 48.2199 239.095 46.7916L191.398 19.3041C188.924 17.8782 185.877 17.8793 183.404 19.3072L135.8 46.7906Z" fill="white" stroke="#1F1A54" stroke-width="0.8" stroke-miterlimit="10" stroke-linecap="round" stroke-linejoin="round"/>
<path d="M203.696 162.89C201.223 164.32 199.7 166.959 199.7 169.816V224.877C199.7 227.737 201.227 230.38 203.705 231.808L251.405 259.298C253.878 260.723 256.922 260.723 259.395 259.298L307.095 231.808C309.573 230.38 311.1 227.737 311.1 224.877V169.816C311.1 166.959 309.577 164.32 307.104 162.89L259.404 135.315C256.927 133.883 253.873 133.883 251.396 135.315L203.696 162.89Z" fill="white" stroke="#1F1A54" stroke-width="0.8" stroke-miterlimit="10" stroke-linecap="round" stroke-linejoin="round"/>
<mask id="mask0" mask-type="alpha" maskUnits="userSpaceOnUse" x="199" y="133" width="113" height="128">
<path d="M203.696 162.89C201.223 164.32 199.7 166.959 199.7 169.816V224.877C199.7 227.737 201.227 230.38 203.705 231.808L251.405 259.298C253.878 260.723 256.922 260.723 259.395 259.298L307.095 231.808C309.573 230.38 311.1 227.737 311.1 224.877V169.816C311.1 166.959 309.577 164.32 307.104 162.89L259.404 135.315C256.927 133.883 253.873 133.883 251.396 135.315L203.696 162.89Z" fill="white" stroke="#1F1A54" stroke-width="0.8" stroke-miterlimit="10" stroke-linecap="round" stroke-linejoin="round"/>
</mask>
<g mask="url(#mask0)">
<path d="M284.7 222.1L293.6 223.8C293.6 223.8 296.9 200.3 292.8 194.8C289.6 190.5 273.4 183.5 273.4 183.5L270.5 186.7C265.4 192.3 256.1 190.2 253.8 183C253.8 183 248.7 183.4 242.4 184.2C237.4 184.8 227.8 183 227.8 183L224.8 202.4L236.9 206C236.9 206 237.4 211.6 237.6 218.2C237.6 220.2 237.7 222.1 237.6 223.6C237.4 227.2 235.6 250.3 235.6 250.3L255.4 261.7L283.5 245.5L284.7 222.1Z" fill="#FFD400"/>
<path d="M284.7 222.5C284.5 222.5 284.3 222.3 284.3 222.1C284.3 221.9 284.5 221.7 284.7 221.7C284.9 221.7 285.1 221.9 285.1 222.1C285.1 222.3 284.9 222.5 284.7 222.5Z" fill="#1F1A54"/>
<path d="M255.4 262C255.3 262 255.3 262 255.2 261.9L235.4 250.5C235.3 250.4 235.2 250.3 235.2 250.1C235.2 249.9 237 227 237.2 223.4C237.3 222.1 237.3 220.3 237.2 218C237.1 212.3 236.7 207.3 236.6 206.1L224.8 202.5C224.6 202.4 224.5 202.3 224.5 202.1L227.5 182.7C227.5 182.6 227.6 182.5 227.7 182.4C227.8 182.3 227.9 182.3 228 182.3C228.1 182.3 237.5 184 242.4 183.4C248.7 182.6 253.8 182.3 253.8 182.2C254 182.2 254.2 182.3 254.2 182.5C255.2 185.8 257.8 188.2 261.2 188.9C264.5 189.6 267.9 188.6 270.2 186.1L273.1 182.9C273.2 182.8 273.4 182.7 273.6 182.8C274.3 183.1 289.9 189.9 293.1 194.2C297.2 199.8 294.1 222.6 294 223.5C294 223.6 293.9 223.7 293.8 223.8C293.7 223.9 293.6 223.9 293.5 223.9L285 222.3L283.7 245.1C283.7 245.2 283.6 245.4 283.5 245.4L255.4 261.6C255.5 262 255.5 262 255.4 262ZM236 250L255.3 261.2L283 245.2L284.3 222.1C284.3 222 284.4 221.9 284.5 221.8C284.6 221.7 284.7 221.7 284.8 221.7L293.3 223.3C293.7 220.1 296.1 199.9 292.5 195C289.6 191.1 275.6 184.8 273.5 183.9L270.8 186.9C268.3 189.6 264.6 190.8 261 190C257.5 189.2 254.7 186.8 253.5 183.4C252.3 183.5 247.8 183.9 242.4 184.5C237.9 185 230 183.7 228.1 183.4L225.2 202L236.9 205.5C237.1 205.5 237.2 205.7 237.2 205.8C237.2 205.9 237.7 211.5 237.9 218C238 220.3 237.9 222.1 237.9 223.4C237.8 226.9 236.2 247.4 236 250Z" fill="#1F1A54"/>
<path d="M284.7 222.5L277.2 221.1C277.1 221.1 277 221 276.9 220.9C276.8 220.8 276.8 220.7 276.8 220.6L279.5 208.8C279.5 208.6 279.8 208.5 280 208.5C280.2 208.5 280.4 208.8 280.3 209L277.7 220.4L284.8 221.7C285 221.7 285.2 221.9 285.1 222.2C285.1 222.4 284.9 222.5 284.7 222.5Z" fill="#1F1A54"/>
<path d="M247.3 256.9L254.9 261.3L255.7 261.4L262.1 257.7L247.3 256.9Z" fill="#1F1A54"/>
<path d="M235.8 247.4C235.7 249.1 235.6 250.2 235.6 250.2L238 251.6L269.8 253.3L276.1 249.6L235.8 247.4Z" fill="#1F1A54"/>
<path d="M236.5 238.6C236.4 240 236.3 241.3 236.2 242.6L283.5 245.2L283.7 241.2L236.5 238.6Z" fill="#1F1A54"/>
<path d="M236.9 205.9C236.9 205.9 236.9 206.4 237 207.1L294.8 210.3C294.8 209 294.9 207.6 294.9 206.3L225.7 202.5L236.9 205.9Z" fill="#1F1A54"/>
<path d="M237.4 212C237.5 213.2 237.5 214.6 237.6 216L294.2 219.1C294.3 217.9 294.4 216.6 294.5 215.1L237.4 212Z" fill="#1F1A54"/>
<path d="M226.2 193.7L225.6 197.7L294.7 201.5C294.6 200 294.3 198.6 294 197.5L226.2 193.7Z" fill="#1F1A54"/>
<path d="M237.1 229.8C237 231 236.9 232.4 236.8 233.8L283.9 236.4L284.1 232.4L237.1 229.8Z" fill="#1F1A54"/>
<path d="M269.8 187.2C265.6 191 259.3 190.4 255.8 186.4L227.5 184.8L226.9 188.8L290.1 192.3C288.1 190.8 285.4 189.3 282.8 187.9L269.8 187.2Z" fill="#1F1A54"/>
<path d="M237.6 220.9C237.6 221.8 237.6 222.7 237.5 223.5C237.5 223.8 237.5 224.3 237.4 224.9L284.3 227.5L284.5 223.5L237.6 220.9Z" fill="#1F1A54"/>
<path d="M272.2 174.2C276.1 175.1 279.7 174.3 281.7 171C282.7 169.4 283 167.7 282.7 166.2C282.3 164.2 280.9 162.8 279.1 162.8C276.9 162.9 275.3 164.1 274.5 164.8C274.5 164.8 272.9 162.1 274.1 158.5C275.3 155.1 276.2 154 276.3 153.9C276 153.9 266.9 154.7 264 153.7C261.2 152.7 267.6 150.7 268.1 150.6C267.6 150.6 260.7 150.7 257.4 150.5C254.9 156 251.7 164.1 251.4 167.8C251.2 171.3 252.2 174.1 255 176C255.2 176.2 255.5 176.3 255.8 176.5C255.9 176.6 256 176.6 256.1 176.7L255.5 182L253.7 182.9C256 190.1 265.2 192.2 270.4 186.6L273.3 183.4L270.8 182.3L272.2 174.2ZM257.8 160.1C257.4 159.9 257.2 159.3 257.4 158.8C257.6 158.2 258.2 157.9 258.6 158.1C259.1 158.3 259.2 158.9 259 159.5C258.8 159.9 258.3 160.3 257.8 160.1ZM265.3 162.8C264.8 162.6 264.7 162 264.9 161.4C265.1 160.8 265.7 160.5 266.1 160.7C266.5 160.9 266.7 161.5 266.5 162.1C266.3 162.7 265.8 163 265.3 162.8Z" fill="white"/>
<path d="M257.4 158.7C257.2 159.3 257.4 159.9 257.8 160C258.3 160.2 258.8 159.9 259 159.3C259.2 158.7 259 158.1 258.6 157.9C258.2 157.8 257.7 158.2 257.4 158.7Z" fill="#1F1A54"/>
<path d="M264.9 161.5C264.7 162.1 264.9 162.7 265.3 162.9C265.8 163.1 266.3 162.7 266.5 162.2C266.7 161.6 266.5 161 266.1 160.8C265.7 160.6 265.1 160.9 264.9 161.5Z" fill="#1F1A54"/>
<path d="M284.4 150.3C284.4 150.4 284.4 150.4 284.4 150.3C284.5 150.6 284.5 150.9 284.6 151.2C288.1 151.9 291.6 145.3 288.3 146C285 146.8 284.4 150 284.4 150.3Z" fill="#1F1A54"/>
<path d="M285.1 151.7C285.4 152 285.9 152.4 286.3 153C291 155.9 294.3 153.6 291.7 151.8C289.1 150 285.1 151.7 285.1 151.7Z" fill="#1F1A54"/>
<path d="M261.3 178.2C259.2 178.2 257.1 177.6 256 177.1C255.9 177 255.8 177 255.7 176.9C255.4 176.8 255.2 176.6 254.9 176.4C252.2 174.5 250.9 171.7 251.2 167.9C251.4 164.2 254.4 156.4 257.2 150.4C257.3 150.2 257.5 150.1 257.7 150.2C257.9 150.3 258 150.5 257.9 150.7C255.3 156.4 252.2 164.3 252 167.9C251.8 171.5 252.9 174 255.4 175.7C255.6 175.9 255.9 176 256.1 176.2C256.2 176.3 256.3 176.3 256.4 176.4C258.2 177.3 262 178 264.7 176.8C264.9 176.7 265.1 176.8 265.2 177C265.3 177.2 265.2 177.4 265 177.5C263.8 178 262.6 178.2 261.3 178.2Z" fill="#1F1A54"/>
<path d="M262 171.5C261.7 171.5 261.4 171.5 261 171.4C260.8 171.4 260.6 171.2 260.7 170.9C260.7 170.7 260.9 170.5 261.2 170.6C264.2 171.1 265.8 168.9 265.8 168.8C265.9 168.6 266.2 168.6 266.4 168.7C266.6 168.8 266.6 169.1 266.5 169.3C266.4 169.4 264.9 171.5 262 171.5Z" fill="#1F1A54"/>
<path d="M261.1 166C260.6 166 259.5 165.9 258.8 165C258.7 164.8 258.7 164.6 258.9 164.4C259.1 164.3 259.3 164.3 259.5 164.5C260 165.3 261.3 165.2 261.3 165.2C261.5 165.2 261.7 165.3 261.7 165.6C261.7 165.8 261.6 166 261.3 166C261.4 166 261.3 166 261.1 166Z" fill="#1F1A54"/>
<path d="M275.1 174.9C274.2 174.9 273.2 174.8 272.2 174.6C272 174.6 271.8 174.4 271.9 174.2C272 174 272.1 173.8 272.4 173.8C275.3 174.5 279.3 174.5 281.6 170.8C282.5 169.4 282.8 167.8 282.6 166.3C282.3 164.5 281 163.3 279.5 163.3C279.5 163.3 279.5 163.3 279.4 163.3C277.5 163.4 276 164.4 275.1 165.2C274.8 165.5 274.6 165.7 274.6 165.7C274.5 165.9 274.2 165.9 274 165.7C273.8 165.6 273.8 165.3 274 165.1C274 165.1 274.2 164.9 274.6 164.5C275.6 163.6 277.3 162.4 279.4 162.4C281.4 162.3 283 163.8 283.4 166.1C283.7 167.7 283.3 169.5 282.3 171.1C280.6 173.6 278.1 174.9 275.1 174.9Z" fill="#1F1A54"/>
<path d="M282.8 166.6C282.7 166.6 282.6 166.5 282.6 166.5C282.6 166.5 282.4 165.7 282.5 165.5C282.7 165.1 283.1 165.1 283.5 164.7C284.8 163.3 286.7 161.1 287.2 157.7C287.5 155.7 286.7 154.1 286 153.1C285.9 152.9 285.9 152.7 286.1 152.5C286.3 152.4 286.5 152.4 286.7 152.6C287.5 153.7 288.4 155.5 288 157.7C287.5 161.4 285.5 163.6 284.2 165.1C283.8 165.5 283.5 165.9 283.3 166.2C283.1 166.6 283 166.6 282.8 166.6Z" fill="#1F1A54"/>
<path d="M286.2 153.3C286.1 153.3 285.9 153.2 285.9 153.1C285.5 152.5 285 152.1 284.8 151.9C284.5 151.6 284.3 151.5 284.3 151.5C284.2 151.4 284.1 151.3 284.1 151.2C284 150.9 284 150.6 283.9 150.4C283.8 150.2 284 150 284.2 149.9C284.4 149.8 284.6 150 284.7 150.2C284.8 150.4 284.8 150.7 284.9 150.9C285 151 285.1 151.1 285.3 151.3C285.5 151.5 286 152 286.5 152.6C286.6 152.8 286.6 153 286.4 153.2C286.4 153.3 286.3 153.3 286.2 153.3Z" fill="#1F1A54"/>
<path d="M264.1 151C261.8 151 259.2 151 257.5 150.9H257C256.8 150.9 256.6 150.9 256.5 150.9C254.7 150.8 252.9 150 252.6 148.5C252.4 147.3 253.2 145.5 258 143.4C264.6 140.6 273.1 140.5 278.7 143.3C281.9 144.9 284 147.3 284.8 150.2C284.9 150.4 284.7 150.6 284.5 150.7C284.3 150.7 284.1 150.6 284 150.4C283.3 147.7 281.4 145.5 278.4 144C273 141.3 264.7 141.4 258.4 144.1C253.6 146.2 253.4 147.7 253.5 148.3C253.7 149.2 255 149.9 256.6 150C256.7 150 256.9 150 257.1 150H257.6C260.5 150.1 266 150.1 268.2 150.1H268.3C268.5 150.1 268.7 150.3 268.7 150.5C268.7 150.7 268.5 150.9 268.3 150.9H268.2C267.2 151 265.7 151 264.1 151Z" fill="#1F1A54"/>
<path d="M269.6 154.7C267.4 154.7 265.2 154.6 264 154.1C263.3 153.9 263 153.5 263 153.1C263 152.8 263 151.8 268 150.3H268.1C268.3 150.2 268.5 150.3 268.6 150.4C268.7 150.6 268.7 150.8 268.5 151C268.5 151 268.4 151.1 268.3 151.1H268.2C264 152.4 263.8 153.2 263.8 153.2C263.8 153.2 263.9 153.3 264.3 153.5C266.5 154.3 272.9 154 276.4 153.7C276.5 153.7 276.7 153.7 276.8 153.8C276.9 154 276.9 154.2 276.8 154.4C276.7 154.5 276.7 154.5 276.6 154.5C275.9 154.4 272.7 154.7 269.6 154.7Z" fill="#1F1A54"/>
<path d="M274.6 165.3C274.5 165.3 274.3 165.2 274.3 165.1C274.2 165 272.6 162.2 273.9 158.5C274.9 155.6 275.7 154.3 276.2 153.8C276.3 153.6 276.6 153.6 276.8 153.7C277 153.8 277 154.1 276.9 154.2C276.6 154.6 275.7 155.9 274.8 158.7C273.6 162.1 275.1 164.6 275.2 164.7C275.3 164.9 275.27 164.9 275.07 165.1C274.77 165.1 274.7 165.3 274.6 165.3Z" fill="#1F1A54"/>
<path d="M275.1 170.4C275 170.4 275 170.4 274.9 170.4C274.7 170.3 274.6 170.1 274.7 169.9C276.5 166.3 279.1 166.8 279.2 166.8C279.4 166.8 279.6 167.1 279.5 167.3C279.5 167.5 279.2 167.7 279 167.6C278.9 167.6 276.9 167.2 275.4 170.2C275.4 170.3 275.3 170.4 275.1 170.4Z" fill="#1F1A54"/>
<path d="M268.4 159.7C268.3 159.7 268.2 159.6 268.1 159.5C267.8 159.1 267.4 158.8 266.9 158.6C266.3 158.4 265.8 158.3 265.2 158.5C265 158.6 264.8 158.4 264.7 158.2C264.6 158 264.8 157.8 265 157.7C265.7 157.5 266.4 157.6 267.2 157.8C267.9 158.1 268.4 158.5 268.8 159C268.9 159.2 268.9 159.4 268.7 159.6C268.5 159.6 268.5 159.7 268.4 159.7Z" fill="#1F1A54"/>
<path d="M261.3 156.9C261.2 156.9 261.1 156.8 261 156.7C260.7 156.3 260.3 156 259.7 155.8C259.1 155.6 258.6 155.5 258 155.7C257.8 155.8 257.6 155.6 257.5 155.4C257.4 155.2 257.6 155 257.8 154.9C258.5 154.7 259.2 154.8 260 155C260.7 155.3 261.2 155.7 261.6 156.2C261.7 156.4 261.7 156.6 261.5 156.8C261.5 156.9 261.4 156.9 261.3 156.9Z" fill="#1F1A54"/>
<path d="M263.3 190.2C262.5 190.2 261.8 190.1 261 189.9C257.4 189.1 254.6 186.5 253.4 183C253.3 182.8 253.4 182.6 253.6 182.5L255.2 181.7L255.7 176.6C255.7 176.4 255.9 176.2 256.1 176.2C256.3 176.2 256.5 176.4 256.5 176.6L255.9 181.9C255.9 182 255.8 182.2 255.7 182.2L254.2 182.9C255.3 186 257.8 188.3 261.1 189C264.4 189.7 267.8 188.7 270.1 186.2L272.6 183.4L270.6 182.5C270.4 182.4 270.3 182.3 270.4 182.1L271.7 174C271.7 173.8 271.9 173.6 272.1 173.7C272.3 173.7 272.5 173.9 272.4 174.1L271.1 182L273.3 183C273.4 183.1 273.5 183.2 273.5 183.3C273.5 183.4 273.5 183.6 273.4 183.7L270.5 186.9C268.8 189 266.1 190.2 263.3 190.2Z" fill="#1F1A54"/>
<path d="M237.2 223.2C235.5 222.3 231.4 222.1 229 220.6C228 220 227.3 219.5 225.6 218.6C224.5 218 223 217.5 222 217.2C221.2 217 219.2 216.5 219.6 215.2C219.8 214.6 220.6 214.5 220.9 214.5C221.3 214.5 221.9 214.5 222.9 214.7C223.8 214.9 226.1 215.1 226.1 215.1C226.1 215.1 222.5 213.7 221.3 213.3C220.5 213.1 218.2 212.6 218.5 211.2C218.6 210.5 219.6 210.2 219.9 210.2C220.4 210.2 220.7 210.3 221.8 210.7C222.6 210.9 226.2 211.7 226.2 211.7C226.2 211.7 221.7 209.7 220.6 209.3C219.7 208.9 217.1 208.1 217.8 206.4C218.2 205.2 220.4 205.8 221.6 206.2C223.2 206.7 228.1 208.8 228.1 208.8L223.2 205.7C223.2 205.7 221.1 204.5 221.8 203.1C222.5 201.7 224.1 202.6 224.9 202.9C228.5 204.6 232.2 206.6 234.2 207.8C236.9 209.5 233.7 202 236.1 201.1C238.5 200.2 241.1 213.4 245.5 216.9C251 221.2 270.7 228.9 274.4 231.7C274.4 232.4 277.1 220.8 277.1 220.8L291.6 223.4C291.6 223.4 284.5 246.8 276.5 246.9C267 246.9 247.4 228.6 237.2 223.2Z" fill="white"/>
<path d="M276.6 247.2C270.2 247.2 259.6 239.4 250.3 232.5C245.3 228.8 240.6 225.3 237.1 223.5C236.4 223.1 235.2 222.9 234 222.6C232.3 222.2 230.3 221.8 228.9 220.9C228.5 220.7 228.2 220.5 227.9 220.3C227.3 219.9 226.6 219.5 225.5 218.9C224.5 218.4 222.9 217.8 222 217.6C221 217.4 219.9 217 219.4 216.2C219.2 215.9 219.2 215.5 219.3 215.1C219.6 214.3 220.5 214.1 221 214.1H221.1C221.5 214.1 222.1 214.1 223 214.4C223.1 214.4 223.3 214.5 223.4 214.5C222.6 214.2 221.7 213.9 221.2 213.7L221 213.6C220.1 213.4 217.8 212.8 218.2 211.1C218.4 210.2 219.5 209.8 220 209.8C220.5 209.8 220.9 209.9 222 210.3C222.2 210.3 222.4 210.4 222.8 210.5C221.9 210.1 221 209.7 220.6 209.6L220.4 209.5C219.3 209.1 216.9 208.1 217.6 206.2C218.2 204.6 221 205.5 221.9 205.8C222.5 206 223.5 206.4 224.6 206.8L223.3 206C222.5 205.5 221.1 204.3 221.8 202.9C222.7 201.2 224.3 202.1 225.2 202.5L225.4 202.6C229 204.3 232.8 206.3 234.7 207.6C235 207.8 235.2 207.8 235.2 207.8C235.4 207.6 235.3 206.3 235.2 205.6C235 203.7 234.9 201.5 236.3 200.9C237.8 200.3 239 203.2 240.7 207.2C242.2 210.9 244 215 246.1 216.7C249.1 219.1 256.6 222.5 263.2 225.5C268.2 227.8 272.6 229.8 274.6 231.1C275 229.5 276.3 224.3 277.1 220.8C277.1 220.6 277.3 220.5 277.5 220.5L292 223.1C292.1 223.1 292.2 223.2 292.2 223.3C292.3 223.4 292.3 223.5 292.2 223.6C291.8 224.4 284.9 247.2 276.6 247.2ZM221 214.8C220.7 214.8 220.2 214.9 220 215.3C219.9 215.5 219.9 215.7 220 215.8C220.3 216.4 221.6 216.7 222.1 216.8C223 217 224.7 217.6 225.8 218.2C226.9 218.8 227.6 219.2 228.2 219.6C228.5 219.8 228.8 220 229.2 220.2C230.5 221 232.4 221.4 234.1 221.8C235.5 222.1 236.6 222.4 237.4 222.8C241 224.7 245.7 228.2 250.7 231.9C259.9 238.7 270.4 246.4 276.6 246.4C283.7 246.4 290.1 227 291 224L278 221.5C276.5 228 275.475 231 275.075 231.8C274.875 232.2 274.5 231.9 274.4 231.9C274.3 231.9 274.2 231.8 274.2 231.8C272.5 230.6 267.7 228.3 262.6 226C256 223 248.5 219.5 245.4 217.1C243.1 215.3 241.3 211 239.8 207.3C238.6 204.4 237.2 201.1 236.4 201.4C235.5 201.7 235.6 203.7 235.8 205.3C235.9 206.8 236 207.9 235.4 208.2C234.9 208.5 234.4 208.1 234.2 208C232.3 206.8 228.6 204.8 225 203.1L224.8 203C223.6 202.4 222.9 202.2 222.4 203.1C221.8 204.2 223.6 205.2 223.6 205.2L228.5 208.3C228.7 208.4 228.7 208.6 228.6 208.8C228.5 209 228.3 209 228.1 209C228.1 209 223.2 207 221.6 206.4C219.7 205.8 218.5 205.8 218.3 206.4C217.9 207.5 219.2 208.2 220.7 208.8L221 208.9C222.1 209.4 226.5 211.3 226.6 211.3C226.8 211.4 226.9 211.6 226.8 211.8C226.7 212 226.6 212.1 226.4 212C226.3 212 222.7 211.2 221.9 211C220.9 210.7 220.6 210.6 220.1 210.6C219.9 210.6 219.1 210.8 219 211.3C218.8 212.2 220 212.6 221.3 213L221.5 213.1C222.7 213.4 226.2 214.8 226.3 214.9C226.5 215 226.6 215.1 226.5 215.3C226.5 215.5 226.3 215.6 226.1 215.6C226 215.6 223.7 215.4 222.8 215.2C221.9 215 221.4 215 221 215V214.8Z" fill="#1F1A54"/>
</g>
<path d="M284.4 150.3C284.4 150.4 284.4 150.4 284.4 150.3C284.5 150.6 284.5 150.9 284.6 151.2C288.1 151.9 291.6 145.3 288.3 146C285 146.8 284.4 150 284.4 150.3Z" fill="#1F1A54"/>
<path d="M285.1 151.7C285.4 152 285.9 152.4 286.3 153C291 155.9 294.3 153.6 291.7 151.8C289.1 150 285.1 151.7 285.1 151.7Z" fill="#1F1A54"/>
<path d="M64.8 169.823C64.8 167.106 66.2508 164.595 68.6052 163.238L116.305 135.749C118.654 134.395 121.546 134.395 123.895 135.749L171.595 163.238C173.949 164.595 175.4 167.106 175.4 169.823V224.884C175.4 227.598 173.953 230.106 171.604 231.464L123.904 259.039C121.55 260.399 118.65 260.399 116.296 259.039L68.5963 231.464C66.2469 230.106 64.8 227.598 64.8 224.884V169.823Z" fill="white" stroke="#1F1A54" stroke-width="0.8"/>
<path d="M217.3 126.6L219 133.5H206L205 115.1L216.5 115.2L217.3 126.6Z" fill="white"/>
<path d="M206 133.9C205.8 133.9 205.6 133.7 205.6 133.5L204.6 115.1C204.6 115 204.6 114.9 204.7 114.8C204.8 114.7 204.9 114.7 205 114.7H216.5C216.7 114.7 216.9 114.9 216.9 115L217.7 126.5L219.3 133.3C219.3 133.4 219.3 133.5 219.2 133.6C219.1 133.7 219 133.7 218.9 133.7L206 133.9ZM205.4 115.5L206.3 133.1H218.5L217 126.7L216.2 115.5H205.4Z" fill="#1F1A54"/>
<path d="M166.4 45.9C164.4 52.6 166.2 58.7 168.2 62.3C168.6 62.6 174.3 66.5 178.6 67.6C179 67.7 179.3 67.8 179.7 67.8C182.9 68.2 182.8 67.2 181.5 63.2C179.1 55.9 180.5 50.2 186.8 47.3C193.8 44.1 201.6 44 202.7 44.2C203.1 44.3 203.5 44.4 203.8 44.5V44.3C203.6 43.9 199.5 35.7 190.4 33C181 30.4 169.6 34.7 166.4 45.9Z" fill="#FFD400"/>
<path d="M168.2 62.4C168.7 63.2 169.1 64 169.6 64.5C170.2 65.3 172.1 66.8 173.7 67.7C175 68.5 176.7 69.4 178.6 69.9V67.7C174.2 66.6 168.5 62.6 168.2 62.4Z" fill="#1F1A54"/>
<path d="M178.5 76L178.4 76.2L187.3 80.3V83.1L189.5 85.1L191.3 83.1V80.3L193.7 77.8V73.6C193.4 73.7 193.1 73.7 192.8 73.8C191 74.1 186.7 73.5 184.2 71.1L183.5 69.9C182.9 70.2 182.1 70.4 181.1 70.3C180.2 70.3 179.3 70.1 178.4 69.9V76H178.5Z" fill="white"/>
<path d="M178.5 67.6V69.8C179.4 70 180.3 70.2 181.2 70.2C182.3 70.2 183.1 70.1 183.6 69.8C185.5 68.7 185 66 183.5 62.9C182.3 60.3 182 55.4 184.1 51.8C184.2 51.2 188.1 47.3 195.8 46C198.2 45.6 202 45.2 204.2 45.8C204.2 45.8 205.4 45.9 205.8 47.7C206 46.3 205.3 45.2 203.6 44.7C203.3 44.6 202.9 44.5 202.5 44.4C201.4 44.2 193.6 44.2 186.6 47.5C180.4 50.4 178.9 56 181.3 63.4C182.6 67.3 182.7 68.4 179.5 68C179.2 67.8 178.9 67.7 178.5 67.6Z" fill="#1F1A54"/>
<path d="M184.2 51.9C182.1 55.5 182.4 60.4 183.6 63C185.1 66.1 185.6 68.8 183.7 69.9L184.4 71.1C186.9 73.5 191.2 74 193 73.8C193.3 73.8 193.6 73.7 193.9 73.6C197 72.9 198.9 70.8 200 67.7C200.1 67.6 200.1 67.4 200.2 67.2C201.2 64.1 201.3 57.3 201 51.7C194.9 51.9 187.5 52.2 185 52C184.5 52 184.2 51.9 184.2 51.9Z" fill="white"/>
<path d="M203.3 51.7C206.3 51.6 208.7 51.5 209.4 51.4C211.1 51.3 208.5 49.9 206.5 48.3C206.3 48.1 206.1 48 205.9 47.8C205.3 47.3 205.3 47.2 205.3 47.2C205.1 46.6 203.9 46.1 202.2 46.1C199.7 46.1 196.6 46.3 193.4 47.3C187.8 48.9 184.9 52 184.9 52V52.2C187.3 52.4 194.8 52.2 200.9 51.9C201.7 51.7 202.5 51.7 203.3 51.7Z" fill="#1F1A54"/>
<path d="M200.1 67.3C200 67.5 200 67.6 199.9 67.8C203.4 66.5 202.4 62.9 201.5 60.5C200.8 58.5 202.1 55.7 203 52.8C203.1 52.5 203.2 52.2 203.2 51.8C202.4 51.8 201.7 51.9 200.9 51.9C201.1 57.4 201.1 64.2 200.1 67.3Z" fill="#1F1A54"/>
<path d="M192.1 74.3C190 74.3 186.3 73.6 184.1 71.4C183.9 71.2 183.9 71 184.1 70.8C184.3 70.6 184.5 70.6 184.7 70.8C187.1 73.1 191.3 73.6 193 73.4C193.3 73.4 193.6 73.3 193.8 73.2C196.7 72.5 198.5 70.7 199.6 67.6V67.5C199.6 67.4 199.7 67.3 199.7 67.1C200.5 64.6 200.8 58.9 200.5 51.7C200.5 51.5 200.7 51.3 200.9 51.3C201.1 51.3 201.3 51.5 201.3 51.7C201.4 55.2 201.6 63.7 200.5 67.4C200.4 67.6 200.4 67.7 200.3 67.9C200.3 67.9 200.3 67.9 200.3 68C199.1 71.4 197 73.3 194 74.1C193.7 74.2 193.4 74.2 193.1 74.3C192.8 74.2 192.4 74.3 192.1 74.3Z" fill="#1F1A54"/>
<path d="M178.5 76.4C178.3 76.4 178.1 76.2 178.1 76V69.8C178.1 69.6 178.3 69.4 178.5 69.4C178.7 69.4 178.9 69.6 178.9 69.8V76C178.9 76.3 178.8 76.4 178.5 76.4Z" fill="#1F1A54"/>
<path d="M193.8 78.3C193.6 78.3 193.4 78.1 193.4 77.9V73.7C193.4 73.5 193.6 73.3 193.8 73.3C194 73.3 194.2 73.5 194.2 73.7V77.9C194.2 78.1 194.1 78.3 193.8 78.3Z" fill="#1F1A54"/>
<path d="M168.1 62.7C168 62.7 167.8 62.6 167.7 62.5C166.4 60.1 163.6 53.6 165.9 45.8C167.4 40.8 170.5 36.8 175 34.4C179.6 31.9 185.2 31.3 190.3 32.8C199.3 35.5 203.4 43.3 203.9 44.3C203.9 44.4 204 44.4 204 44.5C204 44.8 203.5 45 203.3 44.8C203.3 44.8 203.2 44.7 203.2 44.6C202.7 43.6 198.7 36.1 190.1 33.6C185.2 32.1 179.9 32.7 175.4 35.1C171.1 37.4 168.1 41.2 166.7 46C164.5 53.6 167.2 59.8 168.4 62.1C168.5 62.3 168.4 62.5 168.2 62.6C168.3 62.7 168.2 62.7 168.1 62.7Z" fill="#1F1A54"/>
<path d="M181.6 70.7C181.5 70.7 181.4 70.7 181.3 70.7C180.4 70.7 179.4 70.5 178.5 70.2C176.9 69.7 175.2 69 173.5 68C172 67.1 170 65.6 169.3 64.7C168.8 64 168.3 63.3 167.9 62.5C167.8 62.3 167.9 62.1 168.1 62C168.3 61.9 168.5 62 168.6 62.2C169 62.9 169.5 63.6 170 64.3C170.5 65 172.4 66.4 174 67.4C175.6 68.4 177.3 69.1 178.8 69.5C179.7 69.7 180.6 69.9 181.4 69.9C182.3 69.9 183.1 69.8 183.6 69.5C185.5 68.4 184.3 65 183.3 63.1C181.9 60.3 181.8 55.2 183.9 51.6C184 51.4 184.3 51.3 184.4 51.5C184.6 51.6 184.7 51.9 184.5 52C182.5 55.4 182.7 60.1 183.9 62.7C186.2 67.5 185.1 69.4 183.8 70.1C183.3 70.6 182.5 70.7 181.6 70.7Z" fill="#1F1A54"/>
<path d="M199.9 68.2C199.7 68.2 199.6 68.1 199.5 67.9C199.4 67.7 199.5 67.5 199.7 67.4C202.6 66.3 202.1 63.5 201.1 60.6C200.5 58.9 201.2 56.7 202 54.4C202.2 53.8 202.4 53.2 202.6 52.6C202.7 52.3 202.8 51.9 202.8 51.6C202.8 51.5 202.9 51.4 202.9 51.3C203.1 51.1 203.3 51.1 203.5 51.3C203.6 51.4 203.6 51.6 203.6 51.7C203.6 52.1 203.5 52.4 203.4 52.7C203.2 53.3 203 53.9 202.8 54.5C202.1 56.7 201.4 58.7 201.9 60.2C202.6 62.1 204.1 66.5 200 68C200 68.2 200 68.2 199.9 68.2Z" fill="#1F1A54"/>
<path d="M205.9 48.1C205.7 48.1 205.5 48 205.5 47.8C205.2 46.3 204.3 46.2 204.3 46.2C204.1 46.2 203.9 46 203.9 45.8C203.9 45.6 204.1 45.4 204.3 45.4C204.4 45.4 205.8 45.5 206.2 47.7C206.3 47.9 206.2 48.1 205.9 48.1Z" fill="#1F1A54"/>
<path d="M187.9 52.5C186.6 52.5 185.6 52.5 185 52.4C184.4 52.4 183.8 52.3 183.8 51.8C183.9 50.9 188.1 46.9 195.8 45.6C198.4 45.2 202.2 44.8 204.4 45.4C204.6 45.5 204.7 45.7 204.7 45.9C204.7 46.1 204.4 46.2 204.2 46.2C202.1 45.7 198.4 46 195.9 46.5C189.6 47.6 185.8 50.6 184.8 51.7C184.9 51.7 184.9 51.7 185 51.7C186.9 51.9 192.4 51.8 200.9 51.4L203.3 51.3C206.5 51.2 208.7 51.1 209.4 51C209.1 50.7 208.3 50.1 207.7 49.7C207.2 49.4 206.7 49 206.2 48.6C205.9 48.4 205.7 48.2 205.6 48.1C205.1 47.7 204.8 47.3 205 47C205.1 46.8 205.4 46.8 205.6 46.9C205.7 47 205.7 47 205.8 47.1C205.8 47.1 205.9 47.3 206.2 47.5C206.4 47.6 206.5 47.8 206.8 48C207.3 48.4 207.8 48.7 208.3 49.1C209.9 50.3 210.6 50.8 210.4 51.4C210.3 51.9 209.7 51.9 209.5 51.9C208.8 51.9 206.6 52.1 203.4 52.2L201 52.3C196.6 52.3 191.3 52.5 187.9 52.5Z" fill="#1F1A54"/>
<path d="M180.7 68.3C180.4 68.3 180 68.3 179.5 68.2C179.1 68.1 178.8 68.1 178.4 68C173.8 66.9 167.9 62.7 167.9 62.6C167.9 62.6 167.9 62.6 167.8 62.6C167.6 62.4 167.6 62.2 167.8 62C168 61.8 168.2 61.8 168.4 62C168.8 62.3 174.4 66.1 178.6 67.2C178.9 67.3 179.3 67.4 179.6 67.4C180.8 67.6 181.4 67.5 181.7 67.2C182.1 66.7 181.6 65.2 181 63.3C178.4 55.5 180.3 49.8 186.5 46.9C193.6 43.6 201.3 43.5 202.7 43.8C203.2 43.9 203.6 44 203.9 44.1C205.7 44.7 206.6 45.9 206.4 47.6C206.4 47.8 206.2 48 206 48C205.8 48 205.6 47.8 205.6 47.6C205.8 46.3 205.1 45.5 203.7 45C203.4 44.9 203.1 44.8 202.6 44.7C201.5 44.5 193.9 44.6 186.9 47.7C181.1 50.4 179.4 55.7 181.8 63.1C182.6 65.4 183 66.9 182.4 67.7C182 68.2 181.5 68.3 180.7 68.3Z" fill="#1F1A54"/>
<path d="M185 52.3C184.9 52.3 184.8 52.3 184.7 52.2C184.5 52 184.5 51.8 184.7 51.6C184.8 51.5 187.7 48.5 193.4 46.8C196 46 198.9 45.7 202.3 45.6C204.1 45.6 205.4 46.1 205.7 46.9C205.8 47.1 205.7 47.3 205.5 47.4C205.3 47.5 205.1 47.4 205 47.2C204.9 46.9 204 46.4 202.4 46.4H202.3C199 46.4 196.2 46.8 193.6 47.5C188.2 49.1 185.3 52 185.3 52C185.2 52.2 185.1 52.3 185 52.3Z" fill="#1F1A54"/>
<path d="M189 57.6C189.497 57.6 189.9 57.1075 189.9 56.5C189.9 55.8925 189.497 55.4 189 55.4C188.503 55.4 188.1 55.8925 188.1 56.5C188.1 57.1075 188.503 57.6 189 57.6Z" fill="#1F1A54"/>
<path d="M197 57.7C197.497 57.7 197.9 57.2075 197.9 56.6C197.9 55.9925 197.497 55.5 197 55.5C196.503 55.5 196.1 55.9925 196.1 56.6C196.1 57.2075 196.503 57.7 197 57.7Z" fill="#1F1A54"/>
<path d="M191 53.6C190.9 53.6 190.8 53.6 190.8 53.5C190 52.9 188.6 52.9 187.7 53.4C187.5 53.5 187.3 53.5 187.1 53.3C187 53.1 187 52.9 187.2 52.7C188.3 52 190.1 52 191.2 52.8C191.4 52.9 191.4 53.2 191.3 53.4C191.3 53.6 191.2 53.6 191 53.6Z" fill="#1F1A54"/>
<path d="M198.6 53.6C198.5 53.6 198.4 53.6 198.4 53.5C197.6 52.9 196.2 52.9 195.3 53.4C195.1 53.5 194.9 53.5 194.7 53.3C194.6 53.1 194.6 52.9 194.8 52.7C195.9 52 197.7 52 198.8 52.8C199 52.9 199 53.2 198.9 53.4C198.9 53.6 198.8 53.6 198.6 53.6Z" fill="#1F1A54"/>
<path d="M190.1 67.2C190 67.2 190 67.2 190.1 67.2C186.5 66.5 185.8 63.3 185.7 63.2C185.7 63 185.8 62.8 186 62.7C186.2 62.6 186.4 62.8 186.5 63C186.5 63.1 187.2 65.8 190.2 66.4C190.4 66.4 190.6 66.7 190.5 66.9C190.4 67 190.2 67.2 190.1 67.2Z" fill="#1F1A54"/>
<path d="M193.1 62.3C192.3 62.3 191.7 62 191.6 61.9C191.4 61.8 191.3 61.6 191.4 61.4C191.5 61.2 191.7 61.1 191.9 61.2C191.9 61.2 193 61.8 193.8 61.2C194 61.1 194.2 61.1 194.4 61.3C194.5 61.5 194.5 61.7 194.3 61.9C193.9 62.2 193.5 62.3 193.1 62.3Z" fill="#1F1A54"/>
<path d="M195.6 76.5H193.9C193.7 76.5 193.5 76.3 193.5 76.1C193.5 75.9 193.7 75.7 193.9 75.7H195.6C195.8 75.7 196 75.9 196 76.1C196 76.3 195.8 76.5 195.6 76.5Z" fill="#1F1A54"/>
<path d="M178.1 75.5H176C175.8 75.5 175.6 75.3 175.6 75.1C175.6 74.9 175.8 74.7 176 74.7H178.1C178.3 74.7 178.5 74.9 178.5 75.1C178.5 75.3 178.3 75.5 178.1 75.5Z" fill="#1F1A54"/>
<path d="M188.6 73.2C188.7 74.1 191.5 75 192.9 74.9C194.7 74.8 196.2 73.7 196.1 73C196 72.3 194.9 72.7 193.5 72.8C192 73 188.5 72.5 188.6 73.2Z" fill="#1F1A54"/>
<path d="M169.7 46.4C169.6 46.4 169.6 46.4 169.5 46.4C169.2 46.3 169.1 46 169.2 45.8C169.6 44.6 170.2 43.5 170.9 42.5C171.1 42.3 171.4 42.2 171.6 42.4C171.8 42.6 171.9 42.9 171.7 43.1C171.1 44.1 170.5 45.1 170.1 46.2C170.1 46.3 169.9 46.4 169.7 46.4Z" fill="white"/>
<path d="M169.3 58.2C169.1 58.2 168.9 58.1 168.8 57.8C168.7 57.6 167.5 53.5 168.4 48.7C168.4 48.4 168.7 48.2 169 48.3C169.3 48.3 169.5 48.6 169.4 48.9C168.6 53.5 169.8 57.5 169.8 57.6C169.9 57.9 169.7 58.1 169.5 58.2C169.4 58.2 169.3 58.2 169.3 58.2Z" fill="white"/>
<path d="M209.9 115.1C209.7 117.1 209.6 119 209.6 120.5C209.6 122.4 209.7 127.1 209.8 132.6L187.5 145.5L163 131.4L163.2 115.2L160.3 115.8C160.3 115.8 151.7 93 156.1 87.7C159.6 83.5 176.1 78.5 176.1 78.5V75.1L178.6 76.2L187.5 80.3V83.1L189.7 85.1L191.5 83.1V80.3L193.9 77.8L195.6 76V79C195.6 79 208.2 84.1 211.5 86.9C213.7 88.8 215.5 91 216.1 98.5C217.1 110.2 217.1 115 217.1 115H209.9V115.1Z" fill="#FFD400"/>
<path d="M187.4 146C187.3 146 187.3 146 187.2 145.9L162.7 131.8C162.6 131.7 162.5 131.6 162.5 131.4L162.7 115.2C162.7 115 162.9 114.8 163.1 114.8C163.3 114.8 163.5 115 163.5 115.2L163.3 131.1L187.4 145L209.5 132.2C209.7 132.1 209.9 132.2 210 132.3C210.1 132.5 210 132.7 209.9 132.8L187.6 145.7C187.6 145.9 187.5 146 187.4 146Z" fill="#1F1A54"/>
<path d="M160.3 116.3C160.1 116.3 160 116.2 159.9 116C159.5 115.1 151.2 93 155.7 87.5C159 83.5 173.3 78.9 175.6 78.2V75.1C175.6 75 175.7 74.8 175.8 74.8C175.9 74.7 176.1 74.7 176.2 74.8L187.5 80C187.6 80.1 187.7 80.2 187.7 80.4V83L189.5 84.6L191 83V80.4C191 80.3 191 80.2 191.1 80.1L195.3 75.9C195.4 75.8 195.6 75.7 195.7 75.8C195.9 75.9 195.9 76 195.9 76.2V79C197.7 79.8 208.6 84.3 211.7 86.9C213.9 88.8 215.8 91 216.5 98.8C217.5 110.4 217.5 115.3 217.5 115.3C217.5 115.5 217.3 115.7 217.1 115.7H209.9C209.7 115.7 209.5 115.5 209.5 115.3C209.5 115.1 209.7 114.9 209.9 114.9H216.7C216.7 113.5 216.5 108.5 215.7 98.9C215.1 91.4 213.3 89.3 211.2 87.5C208 84.8 195.5 79.7 195.4 79.7C195.2 79.6 195.2 79.5 195.2 79.3V77.1L191.8 80.5V83.1C191.8 83.2 191.8 83.3 191.7 83.4L189.9 85.4C189.8 85.6 189.5 85.6 189.3 85.4L187.1 83.4C187 83.3 187 83.2 187 83.1V80.6L176.5 75.7V78.6C176.5 78.8 176.4 78.9 176.2 79C176 79 159.8 84.1 156.4 88.1C152.5 92.8 159.6 112.7 160.6 115.5L174.9 112.6L171.4 100.9C171.3 100.7 171.5 100.5 171.7 100.4C171.9 100.3 172.1 100.5 172.2 100.7L175.8 112.8C175.8 112.9 175.8 113 175.8 113.1C175.7 113.2 175.6 113.3 175.5 113.3L160.3 116.3Z" fill="#1F1A54"/>
<path d="M209.8 132.7H209.4C209.3 128.4 209.2 122.7 209.2 120.5C209.2 119.2 209.3 117.4 209.5 115.1C210 108.6 211.1 100.7 211.2 100.6C211.2 100.4 211.4 100.2 211.7 100.3C211.9 100.3 212.1 100.5 212 100.8C212 100.9 210.9 108.7 210.4 115.2C210.2 117.5 210.1 119.3 210.1 120.6C210.1 122.3 210.2 126.5 210.3 132.7H209.8Z" fill="#1F1A54"/>
<path d="M191 104.4C190.8 104.4 190.6 104.2 190.6 104C190.6 103.9 190.3 92.8 190.1 90.5C189.9 88.2 189.2 85.3 189.1 85.2C189 85 189.2 84.8 189.4 84.7C189.6 84.6 189.8 84.8 189.9 85C189.9 85.1 190.7 88 190.9 90.4C191.1 92.7 191.4 103.5 191.4 104C191.5 104.2 191.3 104.4 191 104.4C191.1 104.4 191.1 104.4 191 104.4Z" fill="#1F1A54"/>
<path d="M201.4 111.1C201.3 111.1 201.3 111.1 201.2 111L195.4 107.7C195.3 107.6 195.2 107.5 195.2 107.4V100.7C195.2 100.6 195.3 100.4 195.4 100.4L201.2 97.1C201.3 97 201.5 97 201.6 97.1L207.4 100.4C207.5 100.5 207.6 100.6 207.6 100.7V107.4C207.6 107.5 207.5 107.7 207.4 107.7L201.6 111C201.6 111.1 201.5 111.1 201.4 111.1ZM196.1 107.1L201.5 110.2L206.9 107.1V100.9L201.5 97.8L196.1 100.9V107.1Z" fill="#1F1A54"/>
<path d="M187.5 87.7C187.887 87.7 188.2 87.3866 188.2 87C188.2 86.6134 187.887 86.3 187.5 86.3C187.113 86.3 186.8 86.6134 186.8 87C186.8 87.3866 187.113 87.7 187.5 87.7Z" fill="#1F1A54"/>
<path d="M188.2 94.2C188.587 94.2 188.9 93.8866 188.9 93.5C188.9 93.1134 188.587 92.8 188.2 92.8C187.813 92.8 187.5 93.1134 187.5 93.5C187.5 93.8866 187.813 94.2 188.2 94.2Z" fill="#1F1A54"/>
<path d="M188.5 101.1C188.887 101.1 189.2 100.787 189.2 100.4C189.2 100.013 188.887 99.7 188.5 99.7C188.113 99.7 187.8 100.013 187.8 100.4C187.8 100.787 188.113 101.1 188.5 101.1Z" fill="#1F1A54"/>
<path d="M225.2 200.2L204.2 190.6C201.7 189.3 201 186.5 201.7 183.8C204 175 213 165.4 213.1 160.3C213.1 158.4 212.9 154.4 213.7 151.7C214 150.5 214.4 149.8 214.9 147.9C215.2 146.7 215.4 145 215.4 144.1C215.4 143.3 215.4 141.2 216.8 141.3C217.4 141.4 217.7 142.1 217.8 142.4C217.9 142.8 218 143.4 218 144.4C218 145.3 218.4 147.7 218.4 147.7C218.4 147.7 218.9 143.9 219 142.6C219 141.7 218.9 139.4 220.4 139.4C221.1 139.4 221.6 140.2 221.7 140.6C221.8 141.1 221.8 141.5 221.7 142.5C221.6 143.3 221.8 147.1 221.8 147.1C221.8 147.1 222.7 142.3 222.8 141C222.9 140 223.1 137.3 225 137.5C226.2 137.7 226.2 139.9 226.1 141.2C226 142.9 225.1 148.2 225.1 148.2L226.9 142.7C226.9 142.7 227.6 140.4 229.1 140.8C230.7 141.2 230.1 142.9 230 143.7C229.2 147.6 228.1 151.8 227.4 153.9C226.4 156.9 232.9 152.1 234.3 154.2C235.7 156.3 222.7 161.7 221.3 167.1L216.6 180.5L228 183L225.2 200.2Z" fill="white"/>
<path d="M225.2 200.6C225.1 200.6 225.1 200.6 225 200.6L204 191C201.5 189.7 200.4 186.8 201.2 183.7C202.4 179.2 205.3 174.5 207.8 170.3C210.3 166.2 212.5 162.7 212.5 160.3C212.5 159.9 212.5 159.4 212.5 158.8C212.5 156.7 212.4 153.7 213.1 151.5C213.2 151.1 213.3 150.7 213.5 150.3C213.7 149.6 214 148.9 214.3 147.7C214.6 146.6 214.8 144.9 214.8 144C214.8 143 214.9 141.8 215.6 141.2C215.9 140.9 216.3 140.8 216.7 140.9C217.5 141 217.9 141.9 218 142.4C218.1 142.9 218.2 143.5 218.2 144.5C218.3 143.7 218.4 143 218.4 142.6V142.4C218.4 141.4 218.5 139.1 220.2 139C221.2 138.9 221.8 140 221.9 140.5C222 141 222 141.4 221.9 142.6C221.9 142.7 221.9 142.8 221.9 143C222 142.1 222.2 141.4 222.2 141V140.7C222.3 139.6 222.7 136.9 224.8 137.2C226.5 137.4 226.3 140.3 226.2 141.3C226.2 141.9 226 142.8 225.9 143.8L226.3 142.6C226.6 141.6 227.5 140 229 140.4C230.8 140.9 230.4 142.7 230.2 143.6V143.8C229.4 147.7 228.3 151.9 227.6 154.1C227.5 154.5 227.5 154.6 227.5 154.6C227.7 154.7 228.9 154.3 229.6 154.1C231.4 153.5 233.5 152.8 234.4 154.1C235.3 155.4 232.9 157 229.7 159.3C226.3 161.6 222.2 164.5 221.5 167.3L216.9 180.3L227.9 182.7C228.1 182.7 228.2 182.9 228.2 183.2L225.5 200.5C225.5 200.6 225.4 200.7 225.3 200.8C225.3 200.6 225.3 200.6 225.2 200.6ZM216.5 141.6C216.3 141.6 216.2 141.6 216.1 141.7C215.6 142.2 215.6 143.5 215.6 144C215.6 145 215.4 146.7 215.1 147.9C214.8 149.1 214.5 149.9 214.3 150.6C214.2 151 214.1 151.3 213.9 151.7C213.3 153.8 213.3 156.6 213.4 158.7C213.4 159.3 213.4 159.8 213.4 160.2C213.4 162.8 211.1 166.4 208.5 170.6C206 174.7 203.1 179.4 202 183.7C201.3 186.4 202.2 188.9 204.3 190L224.8 199.4L227.5 183.5L216 181C215.9 181 216 180.5 215.9 180.4C215.8 180.3 215.8 180.2 215.9 180.1L220.6 166.7C221.4 163.6 225.7 160.6 229.1 158.2C231.3 156.7 234 154.8 233.6 154.1C233.1 153.3 231.2 153.9 229.7 154.4C228.3 154.9 227.3 155.2 226.7 154.7C226.3 154.3 226.5 153.6 226.6 153.4C227.3 151.2 228.4 147.1 229.2 143.2V143C229.5 141.7 229.5 141 228.6 140.7C227.5 140.4 226.9 142.3 226.9 142.4L225.1 147.9C225 148.1 224.8 148.2 224.6 148.2C224.4 148.2 224.3 148 224.3 147.7C224.3 147.6 225.1 142.4 225.3 140.8C225.5 138.8 225.2 137.7 224.6 137.6C223.5 137.5 223.1 138.9 222.9 140.5V140.8C222.7 142 221.9 146.7 221.9 146.9C221.9 147.1 221.7 147.2 221.5 147.2C221.3 147.2 221.1 147 221.1 146.8C221.1 146.6 221 143 221 142.2C221.1 141.1 221.1 140.8 221 140.4C221 140.2 220.6 139.6 220.1 139.6C219.2 139.6 219.1 140.9 219.1 142.2V142.4C219.1 143.7 218.5 147.4 218.5 147.5C218.5 147.7 218.3 147.8 218.1 147.8C217.9 147.8 217.7 147.7 217.7 147.5C217.7 147.4 217.3 145.1 217.3 144.2C217.3 143.3 217.2 142.8 217.1 142.4C217.2 142.3 217 141.7 216.5 141.6Z" fill="#1F1A54"/>
<path d="M211.6 184.8C211.4 184.8 211.2 184.7 211.2 184.5C211.2 184.3 211.3 184.1 211.5 184C215 183.4 215.87 180.1 215.87 180.1C215.97 179.9 216.7 179.1 216.9 179.1C217.1 179.2 216.9 180.049 216.9 180.249C216.8 180.449 215.6 184.1 211.6 184.8Z" fill="#1F1A54"/>
<path d="M225.6 99.0999C225.3 97.6999 224.7 96.3999 224.2 95.0999C224.1 94.8999 224 94.6999 224.1 94.4999C224.7 94.7999 225 95.2999 225.2 95.8999C226.1 98.0999 226.5 100.4 226 102.8C226 103 225.9 103.2 226 103.4C226.2 103.4 226.3 103.3 226.4 103.2C227.3 102.4 228.2 101.6 229 100.8C229.5 100.4 229.9 99.7999 230.2 99.2999C230.5 98.6999 230.9 98.0999 231.3 97.4999C231.9 96.3999 232.4 95.1999 232.7 93.8999C233.2 91.8999 232.8 90.0999 231.7 88.2999C231 87.1999 230.1 86.4999 228.9 85.9999C228 85.6999 227.2 85.6999 226.4 86.1999C226.2 86.2999 226 86.4999 225.7 86.5999C225.3 86.7999 224.9 86.9999 224.4 86.6999C223.9 86.4999 223.9 85.8999 224.3 85.5999C224.4 85.4999 224.5 85.4999 224.6 85.3999C225.3 85.0999 225.8 84.5999 226.4 84.0999C226.9 83.5999 227.1 83.0999 227.2 82.3999C227.2 81.6999 227.3 80.9999 227.3 80.2999C227.3 78.5999 226.9 77.0999 225.9 75.6999C225.3 74.8999 224.5 74.2999 223.5 73.9999C222.3 73.6999 221.2 73.3999 220.1 72.8999C218.7 72.2999 217.2 71.7999 215.6 72.0999C214 72.3999 212.5 72.7999 211.1 73.5999C211 73.5999 210.9 73.6999 210.9 73.7999C211 73.8999 211.1 73.8999 211.2 73.9999C212.1 74.2999 212.9 74.6999 213.7 75.1999C215.1 75.9999 216.2 77.1999 217.1 78.4999C217.8 79.4999 218.2 80.5999 218.8 81.6999C218.9 81.8999 219.1 82.1999 218.9 82.2999C218.7 82.4999 218.5 82.1999 218.3 82.0999C217.8 81.7999 217.6 81.2999 217.3 80.8999C216.6 80.0999 215.9 79.2999 215.1 78.3999C214.8 77.9999 214.4 77.5999 214.1 77.1999C213.6 76.4999 213 75.8999 212.3 75.2999C211.4 74.5999 210.4 74.5999 209.4 74.9999C207.9 75.4999 206.8 76.4999 205.7 77.5999C205.2 78.0999 204.7 78.4999 204.2 78.7999C204 78.8999 203.9 78.9999 203.8 79.1999C203.9 79.2999 203.9 79.2999 203.9 79.2999C204 79.2999 204 79.2999 204.1 79.2999C205.1 79.0999 206.1 79.2999 207.1 79.6999C208.3 80.0999 209.5 80.5999 210.7 81.0999C212 81.5999 213.2 82.3999 214.4 83.2999C214.9 83.6999 215.2 84.0999 215.4 84.7999C214.9 84.7999 214.6 84.6999 214.3 84.4999C213.8 84.1999 213.3 83.8999 212.8 83.5999C210.5 81.7999 207.9 80.9999 205.1 80.4999C204.7 80.3999 204.4 80.3999 204 80.3999C203.5 80.3999 203 80.3999 202.6 80.5999C201.9 80.9999 201.2 81.4999 200.7 82.1999C200.1 82.9999 199.5 83.7999 199.2 84.6999C198.9 85.5999 198.7 86.4999 198.4 87.3999C198.3 87.6999 198.4 87.7999 198.7 87.6999C198.9 87.5999 199.1 87.5999 199.2 87.4999C199.7 87.2999 200.2 87.0999 200.7 86.9999C203.9 86.4999 207.1 86.4999 210.1 87.7999C210.8 88.0999 211.4 88.4999 211.9 89.1999C212.3 89.7999 212.1 90.2999 211.4 90.3999C210.8 90.4999 210.1 90.4999 209.5 90.1999C208.5 89.7999 207.5 89.4999 206.6 88.9999C204 87.7999 201.2 87.5999 198.5 88.5999C197.8 88.8999 197.2 89.2999 196.9 90.0999C196.1 91.8999 195.8 93.8999 195.8 95.7999C195.8 95.8999 195.8 95.9999 195.9 95.9999C195.9 95.9999 196 95.9999 196 95.8999C196.6 95.1999 197.3 94.5999 198 93.9999C198.6 93.3999 199.4 93.0999 200.2 92.8999C201.9 92.4999 203.7 92.5999 205.4 93.0999C205.9 93.1999 206.4 93.4999 206.7 93.9999C207.1 94.4999 207.1 94.6999 206.6 95.0999C206 95.5999 205.2 95.6999 204.5 95.7999C203.9 95.7999 203.2 95.6999 202.6 95.5999C200.4 95.2999 198.3 95.6999 196.5 97.1999C196.3 97.3999 196.1 97.5999 196.1 97.8999C195.9 98.6999 195.9 99.5999 196 100.5C196.2 101.5 196.4 102.5 196.7 103.5C197.1 104.8 197.4 106.1 197.3 107.4L197.4 107.5C197.5 107.5 197.6 107.3 197.7 107.3C198.9 106.4 199.7 106.2 200.9 106.9C202.5 107.9 204.3 108.4 206.2 108.8C206.9 108.9 207.6 109 208.3 108.8C208.7 108.7 209 108.6 209.2 108.3C209.5 107.9 209.8 107.6 210.1 107.2C211.1 105.6 211.6 103.8 211.8 101.9C211.9 101.3 211.9 100.8 212 100.2C212.1 99.2999 212.3 98.3999 212.8 97.5999C213.1 97.1999 213.4 97.0999 213.8 97.3999C214.1 97.5999 214.2 97.9999 214.3 98.2999C214.5 99.5999 214.4 100.8 214.1 102C213.6 104.1 212.8 106.2 211.5 108C211.4 108.1 211.3 108.3 211.3 108.4C211.2 108.6 211.3 108.7 211.4 108.8C211.6 108.9 211.9 108.9 212.2 109C213.8 109.1 215.4 108.6 216.9 108.2C217.3 108.1 217.6 107.8 217.8 107.4C218.4 106.4 218.8 105.3 219 104.2C219.3 102.6 219.2 101 219 99.3999C218.9 98.5999 218.8 97.7999 218.7 96.9999C218.7 96.5999 218.7 96.1999 218.8 95.7999C218.9 95.5999 219 95.4999 219.2 95.4999C219.4 95.4999 219.5 95.6999 219.5 95.7999C219.8 96.2999 220 96.7999 220 97.3999C220.2 98.3999 220.1 99.4999 220.1 100.5C220.1 102.7 219.7 104.8 218.9 106.8C218.8 107 218.6 107.3 218.8 107.5C219 107.7 219.3 107.5 219.6 107.4C221.6 106.7 223.5 105.6 225.1 104.2C225.6 103.8 225.8 103.3 226 102.7C226 101.6 225.8 100.3 225.6 99.0999Z" fill="#1F1A54"/>
<path d="M244.8 64.2999C241.9 70.4999 239.3 76.8999 236.9 83.2999C234.5 89.6999 232.2 96.1999 230.1 102.7C228 109.2 226.2 115.8 224.6 122.5C223 129.1 221.7 135.9 220.7 142.6C220.6 143.3 220 143.7 219.3 143.6C218.6 143.5 218.2 142.9 218.3 142.2C219.5 135.4 220.9 128.6 222.7 122C224.5 115.3 226.4 108.7 228.7 102.2C230.9 95.6999 233.3 89.1999 235.9 82.7999C238.5 76.3999 241.2 70.0999 244.2 63.8999C244.3 63.6999 244.5 63.5999 244.7 63.6999C244.9 63.8999 244.9 64.0999 244.8 64.2999Z" fill="#1F1A54"/>
<path d="M223.4 88.2999C223.8 92.0999 223.9 95.7999 224 99.4999C224.1 103.2 224 107 223.9 110.7C223.8 114.4 223.6 118.2 223.3 121.9C223 125.6 222.7 129.4 222.3 133.1C222.2 133.8 221.6 134.3 221 134.2C220.3 134.1 219.8 133.5 219.9 132.9C220.4 129.2 220.9 125.5 221.3 121.8C221.7 118.1 222 114.4 222.3 110.7C222.5 107 222.7 103.3 222.8 99.4999C222.9 95.7999 222.8 91.9999 222.6 88.2999C222.6 88.0999 222.8 87.8999 223 87.8999C223.2 87.8999 223.3 88.0999 223.4 88.2999Z" fill="#1F1A54"/>
<path d="M237.1 99.1999C235.2 101.6 233.6 104.3 232.2 107C230.8 109.7 229.5 112.6 228.4 115.5C227.3 118.4 226.3 121.3 225.6 124.3C225.2 125.8 224.9 127.3 224.5 128.8C224.2 130.3 223.9 131.8 223.6 133.4C223.5 133.8 223.2 134 222.8 134C222.4 133.9 222.2 133.6 222.2 133.2C222.5 131.7 222.8 130.1 223.1 128.6C223.5 127.1 223.8 125.5 224.3 124C225.1 121 226.1 118 227.3 115.1C228.5 112.2 229.8 109.3 231.2 106.6C232.7 103.8 234.3 101.2 236.3 98.6999C236.5 98.4999 236.8 98.3999 237 98.5999C237.3 98.6999 237.3 98.9999 237.1 99.1999Z" fill="#1F1A54"/>
<path d="M254.5 62.9999C253 62.9999 251.6 63.2999 250.2 63.4999C250 63.4999 249.8 63.6999 249.6 63.4999C250 62.9999 250.6 62.7999 251.2 62.6999C253.6 62.2999 256 62.3999 258.3 63.3999C258.5 63.4999 258.7 63.5999 258.9 63.4999C258.9 63.2999 258.8 63.1999 258.8 62.9999C258.2 61.9999 257.6 60.8999 257 59.8999C256.7 59.2999 256.2 58.7999 255.7 58.3999C255.1 57.8999 254.6 57.3999 254.1 56.8999C253.1 55.9999 252 55.2999 250.9 54.6999C249 53.7999 247.1 53.7999 245.1 54.4999C243.8 54.8999 242.9 55.6999 242.2 56.7999C241.7 57.5999 241.6 58.3999 241.9 59.2999C242 59.5999 242.1 59.7999 242.2 60.0999C242.3 60.5999 242.4 60.9999 242 61.3999C241.7 61.7999 241.1 61.7999 240.8 61.2999C240.8 61.1999 240.7 61.0999 240.7 60.9999C240.6 60.2999 240.2 59.5999 239.8 58.9999C239.4 58.3999 238.9 58.0999 238.3 57.8999C237.6 57.6999 236.9 57.4999 236.2 57.3999C234.5 56.9999 232.9 57.0999 231.3 57.7999C230.3 58.1999 229.6 58.8999 229.1 59.7999C228.6 60.8999 228 61.9999 227.2 62.8999C226.2 64.1999 225.4 65.4999 225.4 67.1999C225.4 68.7999 225.4 70.4999 225.9 71.9999C225.9 72.0999 225.9 72.1999 226.1 72.2999C226.3 72.2999 226.3 72.0999 226.4 71.9999C226.9 71.1999 227.5 70.4999 228.1 69.7999C229.2 68.4999 230.6 67.6999 232.1 67.1999C233.3 66.6999 234.5 66.4999 235.7 66.2999C235.9 66.1999 236.2 66.0999 236.3 66.3999C236.4 66.5999 236.1 66.7999 235.9 66.8999C235.5 67.2999 234.9 67.3999 234.4 67.6999C233.4 68.1999 232.4 68.7999 231.5 69.2999C231 69.5999 230.6 69.7999 230.1 69.9999C229.3 70.2999 228.5 70.7999 227.8 71.3999C226.9 72.1999 226.7 73.0999 226.9 74.1999C227.1 75.7999 227.8 77.1999 228.7 78.4999C229.1 79.0999 229.4 79.5999 229.6 80.2999C229.7 80.4999 229.7 80.6999 229.9 80.7999C230 80.7999 230 80.6999 230 80.6999C230 80.5999 230 80.5999 230.1 80.4999C230.1 79.3999 230.6 78.4999 231.1 77.5999C231.8 76.4999 232.5 75.3999 233.3 74.2999C234.1 73.0999 235.1 71.9999 236.3 71.0999C236.8 70.6999 237.3 70.4999 238 70.3999C237.9 70.8999 237.7 71.1999 237.5 71.4999C237.1 71.9999 236.7 72.3999 236.2 72.7999C233.9 74.6999 232.5 77.1999 231.4 79.8999C231.3 80.2999 231.1 80.5999 231 80.9999C230.9 81.4999 230.7 81.9999 230.9 82.4999C231.2 83.2999 231.5 84.0999 232 84.6999C232.7 85.3999 233.3 86.1999 234.2 86.7999C235 87.2999 235.8 87.6999 236.7 88.1999C237 88.3999 237.1 88.2999 237.1 87.8999C237.1 87.6999 237 87.4999 237 87.2999C236.9 86.7999 236.8 86.1999 236.8 85.6999C237 82.3999 237.8 79.1999 239.7 76.3999C240.2 75.7999 240.7 75.1999 241.4 74.8999C242.1 74.5999 242.5 74.8999 242.5 75.5999C242.5 76.2999 242.3 76.8999 241.9 77.3999C241.3 78.2999 240.7 79.1999 240.1 79.9999C238.3 82.3999 237.5 84.9999 237.8 87.9999C237.9 88.7999 238.2 89.3999 238.9 89.8999C240.6 91.0999 242.4 91.7999 244.4 92.2999C244.5 92.2999 244.6 92.2999 244.6 92.1999C244.6 92.1999 244.6 92.0999 244.6 91.9999C244 91.1999 243.6 90.3999 243.1 89.5999C242.7 88.7999 242.5 87.9999 242.5 87.0999C242.5 85.2999 243 83.5999 243.8 81.9999C244.1 81.4999 244.5 81.0999 245 80.8999C245.6 80.5999 245.8 80.6999 246.1 81.2999C246.5 81.9999 246.4 82.7999 246.3 83.5999C246.2 84.2999 245.9 84.8999 245.7 85.4999C244.9 87.6999 244.8 89.7999 245.9 91.8999C246 92.1999 246.2 92.2999 246.5 92.4999C247.3 92.8999 248.1 93.0999 249 93.1999C250.1 93.2999 251.1 93.1999 252.2 93.1999C253.6 93.0999 254.9 93.0999 256.3 93.4999C256.3 93.4999 256.4 93.4999 256.5 93.3999C256.5 93.1999 256.4 93.1999 256.3 92.9999C255.6 91.5999 255.7 90.6999 256.6 89.7999C258 88.3999 258.9 86.6999 259.7 84.8999C260 84.1999 260.2 83.4999 260.2 82.7999C260.2 82.3999 260.2 82.0999 259.9 81.7999C259.6 81.3999 259.3 80.9999 259 80.6999C257.6 79.2999 255.9 78.3999 254.1 77.7999C253.6 77.5999 253 77.4999 252.4 77.2999C251.5 76.9999 250.7 76.5999 250 75.9999C249.6 75.5999 249.6 75.2999 250 74.8999C250.3 74.5999 250.7 74.5999 251 74.5999C252.3 74.6999 253.5 74.9999 254.7 75.5999C256.7 76.5999 258.6 77.7999 260.2 79.4999C260.3 79.5999 260.5 79.6999 260.6 79.7999C260.8 79.9999 260.9 79.8999 261 79.7999C261.2 79.5999 261.3 79.2999 261.3 78.9999C261.8 77.3999 261.6 75.6999 261.5 74.0999C261.5 73.6999 261.2 73.2999 260.9 72.9999C260 72.1999 259 71.5999 257.9 71.0999C256.4 70.3999 254.7 70.1999 253.1 69.9999C252.3 69.8999 251.5 69.8999 250.7 69.7999C250.3 69.7999 249.9 69.5999 249.5 69.3999C249.3 69.2999 249.2 69.1999 249.2 68.9999C249.2 68.7999 249.4 68.7999 249.6 68.6999C250.2 68.4999 250.7 68.4999 251.3 68.4999C252.4 68.5999 253.4 68.8999 254.5 69.0999C256.7 69.5999 258.7 70.3999 260.5 71.7999C260.7 71.9999 261 72.1999 261.2 72.0999C261.4 71.9999 261.3 71.5999 261.3 71.2999C261 69.0999 260.4 66.9999 259.3 65.0999C259 64.4999 258.6 64.1999 258 63.8999C257.1 63.0999 255.8 63.0999 254.5 62.9999Z" fill="#1F1A54"/>
<path d="M242.231 135.534L200.504 130.742L196.168 168.495L237.895 173.287L242.231 135.534Z" fill="white"/>
<path d="M237.8 173.6L196.1 168.8C196 168.8 195.9 168.7 195.8 168.7C195.7 168.6 195.7 168.5 195.7 168.4L200 130.7C200 130.5 200.2 130.3 200.4 130.3L242.2 135.1C242.3 135.1 242.4 135.2 242.5 135.2C242.6 135.3 242.6 135.4 242.6 135.5L238.3 173.2C238.2 173.5 238 173.6 237.8 173.6ZM196.6 168.1L237.5 172.8L241.7 135.9L200.8 131.2L196.6 168.1Z" fill="#1F1A54"/>
<path d="M214.4 151.4L217.1 152.7L219.9 152.1L222.1 153.3L223.9 152.5L221.8 171.4L212.2 170.3L214.4 151.4Z" fill="#1F1A54"/>
<path d="M192.8 155.5C194 157 196 160.5 198.2 162.2C199.1 162.9 199.9 163.4 201.3 164.6C202.2 165.4 203.3 166.7 203.9 167.4C204.3 168 205.6 169.8 206.7 168.9C207.2 168.5 207 167.7 206.9 167.4C206.7 167 206.5 166.5 206 165.7C205.5 164.9 204.5 162.8 204.5 162.8C204.5 162.8 207.1 165.6 207.9 166.6C208.4 167.3 209.6 169.2 210.9 168.4C211.5 168 211.5 167 211.3 166.7C211.1 166.3 210.9 166 210.2 165.1C209.7 164.5 207.7 161.3 207.7 161.3C207.7 161.3 211.2 164.8 212 165.7C212.7 166.4 214.4 168.5 215.8 167.3C216.7 166.5 215.4 164.7 214.6 163.7C213.5 162.4 209.8 158.6 209.8 158.6L214.4 162C214.4 162 216.3 163.5 217.3 162.3C218.4 161.1 217 160 216.3 159.4C213.4 156.7 210.2 153.9 208.3 152.5C205.8 150.6 213.9 150.8 213.8 148.3C213.7 145.7 199.6 149.2 195.7 145.2C190.6 140 183.5 129.2 180.1 125.8C177.1 118.8 175.3 112.7 175.3 112.7L161.7 115.5L170.5 132.4C179 144 189.1 151 192.8 155.5Z" fill="white"/>
<path d="M206 169.6C205.9 169.6 205.9 169.6 205.8 169.6C204.9 169.5 204.1 168.5 203.6 167.7C203.1 167 202 165.7 201.1 164.9C200.2 164.1 199.6 163.6 199 163.2C198.7 163 198.4 162.7 198 162.5C196.4 161.2 195 159.1 193.8 157.4C193.3 156.7 192.9 156.1 192.6 155.7C191.3 154.1 189.1 152.1 186.6 149.8C182 145.7 175.8 140 170.3 132.5L161.5 115.6C161.4 115.5 161.4 115.4 161.5 115.3C161.5 115.2 161.6 115.1 161.8 115.1L175.4 112.3C175.6 112.3 175.8 112.4 175.8 112.6C175.8 112.7 177.6 118.7 180.5 125.6C182.1 127.2 184.4 130.3 186.9 133.6C189.9 137.6 193.3 142.1 196.1 144.9C198.2 147 203.4 146.9 207.7 146.8C211.5 146.7 214.3 146.7 214.3 148.2C214.3 149.8 212.2 150.4 210.4 150.9C209.6 151.1 208.4 151.5 208.3 151.8C208.3 151.8 208.3 151.9 208.6 152.2C210.5 153.6 213.7 156.3 216.6 159.1L216.8 159.2C217.5 159.8 218.9 161.1 217.6 162.5C216.6 163.7 214.9 162.8 214.2 162.2L213 161.3C213.8 162.1 214.5 162.9 214.9 163.4C215.5 164.1 217.3 166.4 216 167.5C214.4 168.9 212.6 166.9 211.9 166.1L211.7 165.9C211.4 165.6 210.7 164.9 210 164.2C210.2 164.5 210.4 164.7 210.5 164.8C211.2 165.7 211.5 166 211.7 166.5C211.9 166.9 211.9 168.1 211.1 168.6C209.6 169.5 208.3 167.7 207.7 166.9L207.6 166.7C207.3 166.3 206.7 165.6 206.1 165C206.2 165.1 206.3 165.3 206.3 165.4C206.9 166.2 207.1 166.7 207.2 167.1C207.4 167.6 207.6 168.6 207 169.1C206.6 169.5 206.3 169.6 206 169.6ZM193.1 155.3C193.5 155.8 193.9 156.4 194.4 157.1C195.5 158.7 196.9 160.8 198.4 162C198.7 162.3 199 162.5 199.3 162.7C199.9 163.1 200.5 163.6 201.5 164.4C202.4 165.2 203.6 166.5 204.1 167.3C204.4 167.7 205.1 168.8 205.8 168.9C206 168.9 206.1 168.9 206.3 168.7C206.6 168.5 206.5 167.9 206.4 167.6C206.2 167.1 206 166.7 205.5 165.9C204.9 165.1 204 163 203.9 163C203.8 162.8 203.9 162.6 204 162.5C204.2 162.4 204.4 162.4 204.5 162.6C204.6 162.7 207.1 165.4 207.9 166.5L208 166.7C208.8 167.8 209.6 168.7 210.4 168.2C210.8 167.9 210.8 167.2 210.7 167C210.5 166.6 210.3 166.3 209.7 165.5C209.2 164.9 207.2 161.8 207.1 161.7C207 161.5 207 161.3 207.2 161.2C207.4 161.1 207.6 161.1 207.7 161.2C207.8 161.3 211.2 164.7 212 165.6L212.2 165.8C213.3 167 214.4 167.9 215.3 167.2C215.8 166.8 215.4 165.7 214.1 164.1C213 162.8 209.4 159 209.4 159C209.3 158.9 209.3 158.6 209.4 158.5C209.5 158.4 209.7 158.3 209.9 158.4L214.5 161.8C214.5 161.8 216.1 163.1 216.9 162.2C217.5 161.5 217.1 160.9 216.1 160L215.9 159.9C213 157.2 209.8 154.4 208 153.1C207.8 153 206.9 152.6 207 152C207.1 151.3 207.6 150.9 209 150.5C210.5 150 213.4 149.6 213.4 148.6C213.4 147.8 210.1 147.9 207.5 147.9C203.1 148 197.7 148.1 195.4 145.7C192.6 142.9 189.2 138.3 186.2 134.3C183.7 131 181.3 127.8 179.8 126.3L179.7 126.2C177.1 120.2 175.4 114.7 175 113.4L163 116L171 132C176.4 139.4 182.4 145.4 187 149.5C189.8 151.7 191.8 153.6 193.1 155.3Z" fill="#1F1A54"/>
<path d="M155.3 164.6C156.3 163 158.8 159.9 159.7 157.2C160.1 156.1 160.2 155.2 160.9 153.4C161.3 152.3 162.1 150.8 162.7 150C163.1 149.4 164.3 147.6 163.1 146.9C162.5 146.6 161.9 147 161.6 147.3C161.3 147.6 160.9 148 160.3 148.8C159.8 149.6 158.1 151.2 158.1 151.2C158.1 151.2 159.8 147.8 160.5 146.7C161 146 162.3 144.1 161.1 143.2C160.5 142.8 159.6 143.2 159.4 143.4C159 143.7 158.9 144.1 158.3 145C157.9 145.7 155.7 148.7 155.7 148.7C155.7 148.7 157.7 144.2 158.3 143.1C158.7 142.2 160.1 139.9 158.4 139C157.3 138.4 156.1 140.3 155.4 141.4C154.5 142.9 152.3 147.7 152.3 147.7L153.9 142.2C153.9 142.2 154.7 139.9 153.2 139.4C151.7 138.8 151.1 140.5 150.8 141.3C149.3 145 148.8 149.6 148.2 151.8C147.3 154.8 147.3 147.6 144.9 148.5C142.5 149.5 148.7 157.6 146.3 162.7C143.3 169.3 135.6 179.8 133.6 184.2L120.1 197.4L128.9 207.9L141.6 193.7C149.4 181.6 152.3 169.6 155.3 164.6Z" fill="white"/>
<path d="M128.8 208.2C128.7 208.2 128.6 208.2 128.5 208.1L119.7 197.6C119.6 197.5 119.6 197.2 119.7 197.1L133.2 184C134.1 182 136.2 178.7 138.5 175.2C141.2 171 144.2 166.2 145.9 162.6C147.1 159.9 145.9 156.3 144.9 153.4C144 150.8 143.3 148.8 144.7 148.2C145.1 148 145.5 148 145.8 148.2C146.7 148.6 147.1 150.1 147.5 151.2C147.6 151.4 147.6 151.6 147.7 151.8V151.7C147.9 151 148.1 150 148.3 148.8C148.7 146.5 149.3 143.6 150.3 141.1L150.4 140.9C150.7 140.1 151.4 138.3 153.2 139C154.6 139.5 154.5 141.4 154.2 142.3L153.8 143.8C154.3 142.8 154.8 141.8 155.1 141.3C155.6 140.5 157 138 158.6 138.8C160.5 139.8 159.3 142.1 158.7 143.1L158.6 143.3C158.4 143.7 158 144.6 157.6 145.5C157.8 145.2 158 145 158 144.8C158.6 143.8 158.8 143.5 159.2 143.1C159.5 142.8 160.6 142.3 161.4 142.9C162.8 143.9 161.5 145.8 161 146.7L160.9 146.9C160.6 147.3 160.2 148.1 159.8 148.9C159.9 148.8 160 148.7 160.1 148.6C160.6 147.8 161.1 147.4 161.4 147.1L161.5 147C161.8 146.7 162.7 146.2 163.4 146.6C163.8 146.8 164 147.1 164.1 147.5C164.3 148.4 163.7 149.4 163.1 150.2C162.6 150.9 161.8 152.4 161.4 153.5C161 154.7 160.8 155.4 160.6 156.1C160.5 156.5 160.4 156.9 160.3 157.3C159.7 159.2 158.2 161.3 157 163C156.5 163.7 156.1 164.3 155.8 164.8C154.7 166.6 153.7 169.3 152.4 172.5C150.2 178.2 147.1 186.1 142 193.8L129.3 208C129 208.1 128.9 208.2 128.8 208.2ZM120.5 197.3L128.8 207.2L141.2 193.4C146.2 185.8 149.3 178 151.5 172.2C152.8 168.9 153.8 166.2 154.9 164.4C155.2 163.9 155.6 163.3 156.1 162.6C157.2 161 158.7 158.9 159.3 157.1C159.4 156.7 159.5 156.3 159.6 156C159.8 155.3 160 154.5 160.4 153.3C160.8 152.1 161.6 150.6 162.2 149.8C162.5 149.4 163.2 148.3 163.1 147.6C163.1 147.4 163 147.3 162.8 147.2C162.5 147 161.9 147.3 161.8 147.5L161.7 147.6C161.4 147.9 161 148.2 160.5 149C160 149.8 158.4 151.4 158.3 151.5C158.2 151.6 158 151.6 157.8 151.5C157.7 151.4 157.6 151.2 157.7 151C157.8 150.9 159.4 147.5 160.1 146.4L160.2 146.2C160.9 145.1 161.5 144 160.8 143.5C160.4 143.2 159.7 143.5 159.5 143.7C159.2 144 159 144.3 158.5 145.2C158.1 145.9 155.9 148.8 155.9 148.9C155.8 149.1 155.6 149.1 155.4 149C155.2 148.9 155.2 148.7 155.2 148.5C155.3 148.3 157.2 144 157.8 142.9L157.9 142.7C158.6 141.3 159.1 139.9 158.1 139.3C157.5 139 156.6 139.8 155.6 141.5C154.8 143 152.5 147.7 152.5 147.7C152.4 147.9 152.2 148 152 147.9C151.8 147.8 151.7 147.6 151.8 147.5L153.4 142C153.4 142 154 140 152.9 139.6C152 139.3 151.6 139.9 151.1 141.1L151 141.3C150 143.7 149.4 146.6 149 148.9C148.8 150.1 148.6 151.1 148.4 151.8C148.3 152.3 148.1 152.8 147.7 152.8C147.2 152.8 147.1 152.3 146.8 151.3C146.5 150.4 146.1 149 145.5 148.7C145.3 148.6 145.2 148.6 145 148.7C144.3 149 144.9 150.9 145.6 152.9C146.7 155.9 148 159.7 146.6 162.6C144.9 166.2 141.9 171 139.2 175.3C137 178.8 134.9 182.1 134 184.1C134 184.1 134 184.2 133.9 184.2L120.5 197.3Z" fill="#1F1A54"/>
<path d="M162.466 133.504L142.907 139.64L150.39 163.492L169.949 157.357L162.466 133.504Z" fill="#1F1A54"/>
<path d="M137.6 131.3C139.5 131.5 141.3 130.1 143 129.4C143.7 129.1 144.3 128.9 145 128.7C144.4 128.6 143.7 128.5 143.1 128.4C141.5 128.1 139.9 127.9 138.4 127.6C137.1 127.4 136 127 135 126.2C134.8 126 135.1 125.6 135.3 125.8C136.7 127.1 138.7 127.2 140.5 127.5C142.3 127.8 144.2 128.1 146 128.4C146.2 128.4 146.5 128.5 146.7 128.5C146.8 128.5 146.8 128.5 146.9 128.5C147.1 128.5 147.8 128.6 147.9 128.6C149.4 128.8 151 129.2 152 130.2C151.3 128.5 150.2 126.9 149.3 125.3C148.4 123.8 147.8 122.1 147.3 120.4C147.3 120.3 147.1 119.9 147 119.8C146.8 119.6 146.6 119.3 146.2 119C144.5 117.7 142.6 116.7 140.5 116.5C139.1 116.4 137.7 116.8 136.4 117.2C134.9 117.7 133.3 118.3 132.1 119.5C131.9 119.7 131.6 119.3 131.8 119.1C133 117.9 134.6 117.3 136.2 116.8C137.5 116.3 138.8 116 140.2 116C142.6 116.1 144.8 117.3 146.7 118.8C146.1 117.3 145.4 115.8 144.4 114.5C143.3 113.2 142 112.3 140.6 111.3C140.6 111.3 140.6 111.3 140.5 111.3C140.2 111.1 139.8 110.9 139.5 110.6C138.8 110.1 138 109.6 137.3 109C137 108.8 136.4 108.3 135.7 108.3C134.9 108.2 134.2 108.4 133.3 108.6C132.5 108.8 131.7 108.8 130.9 108.7C130.6 108.6 130.6 108.1 131 108.2C132.1 108.4 133 108.1 134.1 107.9C134.7 107.7 135.3 107.7 135.9 107.9C135.6 107.6 135.2 107.3 134.9 107C133.5 105.6 132.1 104.2 130.4 103.2C130.1 103 130.4 102.6 130.7 102.8C132.5 103.9 134 105.5 135.5 106.9C136.9 108.2 138.3 109.3 139.9 110.4C139.1 108.8 138.8 107 138.9 105.2C138.9 104.9 139.4 104.9 139.4 105.3C139.3 107 139.7 108.7 140.4 110.2C140.4 110.3 140.6 110.6 140.7 110.7C140.8 110.8 140.9 110.9 141 111C141.1 111.1 141.2 111.2 141.3 111.2C142.6 112.1 143.8 113 144.8 114.2C146.1 115.7 146.8 117.5 147.5 119.3C148.2 121.3 148.8 123.2 149.8 125.1C150.2 125.7 150.5 126.3 150.9 127C150.9 123.7 150.8 120.5 152.5 117.5C152.7 117.2 153.1 117.4 153 117.7C151.4 120.6 151.4 123.8 151.4 127C151.4 127.1 151.4 127.5 151.4 127.6C151.4 127.6 151.4 127.7 151.4 127.8C151.4 127.9 151.5 128.3 151.6 128.4C151.6 128.5 151.7 128.6 151.7 128.6C152 129.2 152.3 129.8 152.6 130.4C153.3 132.2 153.9 134.1 154.3 136.1C154.8 138.2 155.4 140.3 155.5 142.4C155.5 142.7 155 142.8 155 142.5C154.9 140.5 154.4 138.6 153.9 136.6C153.6 135.4 153.3 134.3 153 133.1C152.7 132.2 152.4 131.7 152.2 131.3C151.4 129.9 149.7 129.5 148.1 129.3C147.8 129.3 147.6 129.2 147.3 129.2C147.1 129.2 146.5 129.1 146.4 129.1C144.8 129.2 143.3 129.9 141.8 130.6C140.4 131.3 139.1 132 137.6 131.9C137.2 131.8 137.3 131.3 137.6 131.3Z" fill="#1F1A54"/>
<path d="M155.3 143C155.2 143 155.1 143 155.1 143C154.9 142.9 154.9 142.8 154.8 142.6C154.7 140.6 154.2 138.6 153.7 136.8L153.6 136.3C153.4 135.3 153.1 134.3 152.8 133.3C152.5 132.5 152.3 132.1 152 131.7L151.9 131.6C151.2 130.3 149.5 129.9 148 129.7L147.2 129.6C147 129.6 146.4 129.5 146.3 129.5C144.7 129.6 143.3 130.2 141.8 130.9L141.4 131.1C140.2 131.7 138.9 132.3 137.5 132.2C137.3 132.2 137.2 132.1 137.1 131.9C137 131.7 137 131.5 137.2 131.4C137.3 131.3 137.5 131.2 137.7 131.2C139 131.3 140.3 130.7 141.6 130C142.1 129.8 142.5 129.5 143 129.3C143.3 129.2 143.7 129 144 128.9L143.2 128.8C142.7 128.7 142.2 128.6 141.7 128.6C140.6 128.4 139.6 128.3 138.5 128.1C137.1 127.8 135.9 127.5 135 126.6C134.8 126.4 134.8 126 135 125.9C135.2 125.7 135.5 125.7 135.7 125.9C136.8 126.9 138.4 127.2 140 127.4C140.3 127.4 140.6 127.5 140.9 127.5L146.4 128.4C146.6 128.4 146.9 128.5 147.1 128.5H147.3C147.4 128.5 147.8 128.6 148.2 128.6H148.3C149.5 128.8 150.7 129.1 151.7 129.7C151.3 128.8 150.7 127.9 150.2 127.1C149.9 126.6 149.6 126.2 149.4 125.7C148.5 124.1 147.9 122.4 147.3 120.8C147.3 120.7 147.1 120.3 147 120.2C146.9 120 146.6 119.7 146.3 119.4C144.3 117.9 142.5 117.1 140.7 117C139.3 116.9 137.9 117.3 136.7 117.7C135.2 118.2 133.7 118.8 132.5 119.9C132.3 120.1 132 120.1 131.8 119.9C131.6 119.7 131.6 119.4 131.8 119.1C133.1 117.8 134.7 117.3 136.3 116.7C137.6 116.2 138.9 115.8 140.4 115.9C142.3 116 144.2 116.7 146.4 118.2C145.9 117.1 145.3 115.9 144.5 114.8C143.4 113.5 142 112.5 140.8 111.7C140.8 111.7 140.7 111.7 140.7 111.6L139.8 111C139 110.5 138.3 109.9 137.6 109.4C137.3 109.2 136.7 108.8 136.1 108.7C135.4 108.6 134.7 108.8 133.9 109H133.8C133 109.2 132.2 109.2 131.3 109.1C131 109.1 130.8 108.8 130.9 108.5C130.9 108.2 131.2 108.1 131.5 108.1C132.6 108.3 133.4 108.1 134.5 107.8C134.9 107.7 135.3 107.6 135.6 107.7C135.5 107.6 135.3 107.4 135.2 107.3L135 107.1C133.6 105.8 132.3 104.5 130.7 103.5C130.6 103.4 130.5 103.3 130.5 103.1C130.5 102.9 130.6 102.7 130.8 102.7C131 102.6 131.2 102.6 131.3 102.7C132.9 103.7 134.3 105 135.6 106.3L136.2 106.9C137.4 108.1 138.7 109 139.8 109.9C139.3 108.5 139 106.9 139.1 105.4C139.1 105.2 139.2 105.1 139.3 105C139.5 104.9 139.7 104.9 139.8 105C140 105.1 140 105.3 140 105.5C139.9 107.2 140.2 108.8 140.9 110.3C140.9 110.4 141.1 110.7 141.2 110.8C141.3 110.9 141.4 111 141.4 111.1C141.4 111.2 141.6 111.3 141.6 111.3C142.8 112.2 144.1 113.1 145.1 114.4C146.4 115.9 147.2 117.8 147.8 119.6C147.9 119.9 148 120.2 148.1 120.5C148.7 122.1 149.2 123.8 150.1 125.3C150.3 125.7 150.5 126 150.7 126.4C150.7 123.5 150.8 120.5 152.4 117.7C152.6 117.4 152.9 117.4 153.1 117.5C153.3 117.6 153.4 117.9 153.3 118.1C151.7 121 151.7 124.2 151.7 127.2C151.7 127.3 151.7 127.7 151.7 127.7V127.9C151.7 128 151.8 128.4 151.9 128.5C151.9 128.6 152 128.7 152 128.7C152.4 129.4 152.7 130 152.9 130.6C153.7 132.5 154.2 134.4 154.6 136.3V136.5C155.1 138.5 155.6 140.6 155.8 142.7C155.8 142.9 155.7 143.1 155.6 143.2C155.5 142.9 155.4 143 155.3 143ZM154.1 136.2L154.2 136.6C154.7 138.5 155.2 140.5 155.3 142.5C155.2 140.4 154.6 138.3 154.1 136.4V136.2ZM151.9 130.6C152.1 130.8 152.2 131 152.4 131.2L152.5 131.3C152.7 131.7 153 132.2 153.3 133C153.3 133.1 153.4 133.2 153.4 133.3C153.2 132.6 153 131.9 152.7 131.3L151.9 130.6ZM137.6 131.6C137.8 131.6 137.9 131.6 138.1 131.6C137.9 131.6 137.7 131.6 137.6 131.6ZM145.4 118.2C145.7 118.4 146 118.6 146.3 118.9C146.7 119.2 147 119.5 147.1 119.8C147.2 120 147.4 120.4 147.4 120.5C148 122.1 148.5 123.8 149.4 125.3C149.7 125.8 149.9 126.2 150.2 126.7C150.9 127.8 151.6 129 152.1 130.2L152.3 130.7C152.3 130.6 152.2 130.6 152.2 130.5C152 129.9 151.7 129.3 151.3 128.7C151.3 128.7 151.2 128.6 151.2 128.5C151.1 128.4 151 127.9 151 127.8V127.6C151 127.5 151 127.1 151 127C151 123.9 150.9 120.6 152.6 117.6L152.4 117.5L152.6 117.6C150.9 120.6 151 123.8 151 126.9V127.8L150.3 126.5C150 126 149.7 125.6 149.5 125.1C148.6 123.5 148 121.9 147.5 120.2L147.2 119.3L146.5 118.8C146.1 118.8 145.7 118.5 145.4 118.2ZM139.4 127.6C140.1 127.7 140.8 127.8 141.5 128C142 128.1 142.5 128.2 143 128.3L146.2 128.8L144.9 129.1C144.3 129.2 143.6 129.5 142.9 129.8C142.7 129.9 142.5 130 142.3 130.1C143.5 129.5 144.8 129.1 146.1 129C146.3 129 146.9 129 147.1 129.1L147.9 129.2C148.7 129.3 149.5 129.5 150.3 129.8C149.5 129.4 148.5 129.3 147.6 129.1H147.5C147.3 129.1 146.8 129 146.7 129H146.5C146.3 129 146 128.9 145.8 128.9L140.3 128C140 128 139.7 127.9 139.5 127.9C139.5 127.6 139.5 127.6 139.4 127.6ZM135 126C135.4 126.4 135.8 126.6 136.3 126.8C135.9 126.6 135.4 126.4 135 126ZM139.9 116.3C138.6 116.3 137.4 116.7 136.2 117.1C134.7 117.6 133.1 118.2 131.9 119.4C133.1 118.2 134.7 117.6 136.2 117.1C137.5 116.6 138.9 116.2 140.4 116.3C141.8 116.4 143.2 116.9 144.7 117.8C143.1 116.8 141.5 116.3 140 116.3C140.1 116.3 140 116.3 139.9 116.3ZM146.2 117.2C146.5 117.7 146.7 118.3 146.9 118.8L147.1 119.4C146.9 118.6 146.6 117.9 146.2 117.2ZM136.3 108.2C136.9 108.4 137.5 108.8 137.5 108.9C138.2 109.4 138.9 110 139.6 110.5L140.6 111.2C141.9 112.1 143.3 113.1 144.4 114.4C144.8 114.8 145.1 115.3 145.3 115.7C145 115.2 144.7 114.8 144.4 114.4C143.4 113.2 142.2 112.3 141 111.4C141 111.4 140.8 111.2 140.7 111.1C140.6 111 140.5 110.9 140.4 110.7C140.3 110.6 140.1 110.2 140.1 110.1C139.4 108.5 139 106.8 139.1 105.1C139 106.8 139.4 108.6 140.1 110.2L140.5 111L139.7 110.5C138.7 109.8 137.5 108.9 136.3 107.9L136.7 108.3L136.3 108.2ZM131 108.5C131.8 108.6 132.6 108.6 133.3 108.4H133.4C134.2 108.2 134.9 108 135.7 108.1H135.8C135.3 108 134.7 108 134.2 108.1C133.1 108.4 132.2 108.7 131 108.5ZM130.7 102.9C131.7 103.5 132.7 104.3 133.6 105.2C132.6 104.4 131.7 103.6 130.7 102.9Z" fill="#1F1A54"/>
<path d="M116.4 95.8001C116.9 96.6001 117.4 97.3001 118 98.1001C118.7 99.1001 119.5 100 120.3 100.9C121.6 102.4 123.1 103.9 124.9 104.9C127.2 106.1 130.3 106 132 104L132.1 103.9C132.2 103.7 132.4 103.5 132.5 103.3C134.1 100.4 131.5 97.5001 128.9 96.5001C125.6 95.2001 121.5 94.4001 118 95.0001C117.9 95.0001 117.9 95.0001 117.9 95.0001C117.5 95.0001 117.2 95.1001 116.8 95.2001C116.6 95.2001 116.5 95.4001 116.4 95.6001C116.3 95.5001 116.3 95.7001 116.4 95.8001Z" fill="white"/>
<path d="M128.1 106C126.9 106 125.7 105.7 124.7 105.2C122.8 104.2 121.2 102.4 120 101.2C119.2 100.3 118.4 99.4001 117.7 98.4001C117.2 97.7001 116.6 96.9001 116.1 96.1001C116 95.9001 115.9 95.6001 116 95.4001C116.1 95.1001 116.3 94.8001 116.6 94.8001C117 94.7001 117.3 94.6001 117.7 94.6001C117.8 94.6001 117.8 94.6001 117.9 94.5001C121.1 94.0001 125.2 94.6001 129 96.1001C130.5 96.7001 132.4 98.0001 133.1 100C133.5 101.2 133.4 102.4 132.8 103.5C132.7 103.7 132.5 103.9 132.4 104.1C132.4 104.2 132.3 104.2 132.3 104.3C131.2 105.4 129.7 106 128.1 106ZM116.7 95.6001C117.2 96.4001 117.8 97.2001 118.3 97.8001C119 98.8001 119.8 99.7001 120.6 100.5C122.1 102.1 123.4 103.5 125.1 104.4C127.2 105.5 130.1 105.5 131.7 103.6L131.8 103.5C131.9 103.3 132 103.2 132.1 103C132.6 102.1 132.7 101.1 132.3 100.2C131.8 98.8001 130.4 97.5001 128.7 96.8001C125.1 95.4001 121.1 94.8001 118 95.3001L117.8 95.4001C117.5 95.4001 117.1 95.5001 116.8 95.6001C116.8 95.4001 116.7 95.5001 116.7 95.6001L116.4 95.8001L116.7 95.6001Z" fill="#1F1A54"/>
<path d="M116.4 95.8001C116.9 96.6001 117.4 97.3001 118 98.1001C118.7 99.1001 119.5 100 120.3 100.9C121.6 102.4 123.1 103.9 124.9 104.9C127.2 106.1 130.3 106 132 104L132.1 103.9C130.2 101.9 128.1 100 125.6 98.7001C122.7 97.2001 119.5 96.4001 116.4 95.6001C116.3 95.5001 116.3 95.7001 116.4 95.8001Z" fill="#1F1A54"/>
<path d="M118 98.0001C118.7 99.0001 119.5 99.9001 120.3 100.8C121.6 102.3 123.1 103.8 124.9 104.8C127.2 106 130.3 105.9 132 103.9C131.4 103.4 130.7 102.9 129.9 102.6C128.3 101.9 126.5 101.8 124.8 101.5C122.1 101 119.8 99.8001 118 98.0001Z" fill="white"/>
<path d="M128.1 106C126.9 106 125.7 105.7 124.7 105.2C122.8 104.2 121.2 102.4 120 101.2C119.2 100.3 118.4 99.4001 117.7 98.4001L118.3 97.9001C120 99.6001 122.3 100.8 124.9 101.2C125.3 101.3 125.6 101.3 126 101.4C127.4 101.6 128.8 101.8 130.1 102.3C130.9 102.6 131.6 103.1 132.3 103.7L132.6 104L132.4 104.3C131.2 105.4 129.7 106 128.1 106ZM120.4 100.4C120.5 100.5 120.5 100.5 120.6 100.6C122.1 102.2 123.4 103.6 125.1 104.5C127.1 105.5 129.8 105.6 131.4 104C130.9 103.6 130.3 103.3 129.7 103C128.5 102.5 127.2 102.3 125.8 102.1C125.4 102 125.1 102 124.7 101.9C123.2 101.6 121.7 101.1 120.4 100.4Z" fill="#1F1A54"/>
<path d="M121.6 110.7C123.2 111.6 125.7 111.8 127.5 111.6C128.9 111.4 130.7 110.5 131.4 109.2C131.5 109 131.6 108.8 131.6 108.6C131.6 108.5 131.6 108.5 131.6 108.4C131.7 108 131.6 107.6 131.4 107.2C131.4 107.1 131.4 107 131.3 106.9C129.8 104.8 127.3 103.6 124.7 103.4C122.1 103.3 119.5 104.7 117 104C116.9 104 116.8 103.9 116.7 103.9C116.1 103.7 115.8 104.6 116.4 104.9C117.7 105.5 118.3 107.2 119.1 108.3C119.9 109.2 120.6 110.2 121.6 110.7Z" fill="white"/>
<path d="M126.1 112.1C124.6 112.1 122.8 111.8 121.4 111.1C120.3 110.5 119.6 109.5 118.9 108.6L118.8 108.5C118.6 108.2 118.3 107.8 118.1 107.4C117.6 106.5 117 105.6 116.2 105.2C115.7 104.9 115.6 104.4 115.8 104C116 103.6 116.4 103.4 116.9 103.5C117 103.5 117.1 103.6 117.2 103.6C118.6 104 120 103.7 121.5 103.4C122.6 103.2 123.7 102.9 124.9 103C127.7 103.1 130.3 104.5 131.8 106.6C131.9 106.7 132 106.9 132 107.1C132.2 107.5 132.2 108 132.2 108.4C132.2 108.5 132.2 108.5 132.2 108.6C132.1 108.8 132 109.1 131.9 109.3C131.1 110.8 129.1 111.7 127.7 111.9C127.1 112.1 126.6 112.1 126.1 112.1ZM119.5 108C120.2 108.9 120.9 109.8 121.8 110.4C123.4 111.3 125.9 111.5 127.5 111.2C128.8 111 130.5 110.2 131.2 109C131.3 108.8 131.4 108.7 131.4 108.5C131.4 108.4 131.4 108.4 131.4 108.3C131.5 108 131.4 107.6 131.3 107.4V107.3V107.2C129.9 105.2 127.6 104 125 103.8C124 103.7 122.9 104 121.8 104.2C120.3 104.5 118.7 104.8 117.2 104.4C117.1 104.4 117 104.3 116.8 104.3C116.7 104.3 116.7 104.5 116.8 104.5C117.8 105 118.4 106.1 119 107C119.1 107.4 119.3 107.7 119.5 108Z" fill="#1F1A54"/>
<path d="M121.6 110.7C123.2 111.6 125.7 111.8 127.5 111.6C128.9 111.4 130.7 110.5 131.4 109.2C131.5 109 131.6 108.8 131.6 108.6C129.9 107.6 128 107 125.9 106.9C124.3 106.9 122.6 107.3 121 106.8C119.4 106.3 118.2 105.2 117 104C116.9 104 116.8 103.9 116.7 103.9C116.1 103.7 115.8 104.6 116.4 104.9C117.7 105.5 118.3 107.2 119.1 108.3C119.9 109.2 120.6 110.2 121.6 110.7Z" fill="#1F1A54"/>
<path d="M121.6 110.7C123.2 111.6 125.7 111.8 127.5 111.6C128.9 111.4 130.7 110.5 131.4 109.2C130.2 108.9 128.9 108.8 127.6 108.8C125.8 108.9 124 109.4 122.2 109.2C121.1 109.1 120 108.8 119.1 108.2C119.9 109.2 120.6 110.2 121.6 110.7Z" fill="white"/>
<path d="M126.1 112.1C124.6 112.1 122.8 111.8 121.4 111.1C120.3 110.5 119.6 109.5 118.9 108.5C118.8 108.3 118.8 108.1 118.9 108C119 107.9 119.2 107.8 119.4 107.9C120.3 108.4 121.3 108.7 122.4 108.8C123.5 108.9 124.7 108.7 125.8 108.6C126.4 108.5 127.1 108.4 127.7 108.4C129 108.3 130.4 108.4 131.6 108.8C131.7 108.8 131.8 108.9 131.9 109C131.9 109.1 131.9 109.2 131.9 109.3C131.1 110.8 129.1 111.7 127.7 111.9C127.1 112.1 126.6 112.1 126.1 112.1ZM120.5 109.3C120.9 109.7 121.3 110.1 121.8 110.4C123.4 111.3 125.9 111.5 127.5 111.2C128.7 111 130.1 110.4 130.9 109.4C129.9 109.2 128.8 109.1 127.8 109.2C127.2 109.2 126.5 109.3 125.9 109.4C124.8 109.5 123.6 109.7 122.4 109.6C121.7 109.6 121.1 109.5 120.5 109.3Z" fill="#1F1A54"/>
<path d="M128.6 133.3C129.2 133.5 129.8 133.7 130.4 133.8C131.7 134.1 132.9 134.4 134.2 134.6C135.6 134.8 137.1 134.9 138.2 133.7C138.4 133.4 138.7 133 138.8 132.6C138.9 132.4 138.9 132.2 139 132C139.1 131.5 139.2 130.9 139 130.5C139.1 128.9 137.2 128.8 136 129.2C133.5 130.1 131.6 132.7 128.8 132.6C128.6 132.6 128.4 132.8 128.4 133C128.4 133.1 128.4 133.3 128.6 133.3Z" fill="white"/>
<path d="M135.8 135.1C135.3 135.1 134.7 135 134.3 135C133 134.8 131.7 134.6 130.4 134.2C129.8 134 129.2 133.9 128.5 133.7C128.1 133.6 127.9 133.2 128 132.9C128.1 132.5 128.4 132.2 128.8 132.2C130.4 132.3 131.7 131.4 133 130.5C133.9 129.9 134.8 129.2 135.9 128.9C136.8 128.6 138 128.6 138.8 129.2C139.2 129.5 139.5 130 139.5 130.6C139.7 131.2 139.6 131.8 139.5 132.3C139.5 132.5 139.4 132.7 139.3 132.9C139.1 133.4 138.9 133.8 138.6 134.1C137.8 134.9 136.8 135.1 135.8 135.1ZM128.9 133C129.4 133.2 130 133.3 130.5 133.5C131.8 133.8 133.1 134.1 134.3 134.2C135.9 134.4 137 134.5 137.9 133.5C138.1 133.3 138.3 132.9 138.5 132.5C138.6 132.3 138.6 132.2 138.7 132C138.8 131.5 138.8 131 138.7 130.7V130.6V130.5C138.7 130.1 138.6 129.9 138.4 129.7C137.9 129.3 136.9 129.3 136.2 129.6C135.3 129.9 134.4 130.5 133.5 131.1C132.1 132.1 130.7 133.1 128.9 133Z" fill="#1F1A54"/>
<path d="M128.6 133.3C129.2 133.5 129.8 133.7 130.4 133.8C131.5 133.4 132.5 132.8 133.7 132.4C135.4 131.8 137.2 132.1 138.9 132.5C139 132.3 139 132.1 139.1 131.9C139.2 131.4 139.3 130.8 139.1 130.4C139.2 128.8 137.3 128.7 136.1 129.1C133.6 130 131.7 132.6 128.9 132.5C128.7 132.5 128.5 132.7 128.5 132.9C128.4 133.1 128.4 133.3 128.6 133.3Z" fill="#1F1A54"/>
<path d="M128.4 133C130.3 133.2 132.2 132.8 133.8 131.8C134.4 131.4 135 130.9 135.8 130.9C136.5 130.8 137.2 131.1 137.8 131.4C138.2 131.6 138.6 131.8 139 132.1C139.1 131.6 139.2 131 139 130.6C139.1 129 137.2 128.9 136 129.3C133.5 130.2 131.6 132.8 128.8 132.7C128.6 132.6 128.4 132.8 128.4 133Z" fill="white"/>
<path d="M129.4 133.4C129.1 133.4 128.7 133.4 128.4 133.3H128L128.1 132.9C128.2 132.5 128.5 132.2 128.9 132.2C130.5 132.3 131.8 131.4 133.1 130.5C134 129.9 134.9 129.2 136 128.9C136.9 128.6 138.1 128.6 138.9 129.2C139.3 129.5 139.6 130 139.6 130.6C139.8 131.2 139.7 131.8 139.6 132.3L139.5 132.9L139 132.6C138.6 132.3 138.2 132.1 137.8 131.9C137.2 131.6 136.6 131.4 136 131.4C135.5 131.4 135 131.7 134.6 132C134.5 132.1 134.3 132.2 134.2 132.3C132.6 133 131 133.4 129.4 133.4ZM137.2 129.5C136.8 129.5 136.5 129.6 136.2 129.7C135.3 130 134.4 130.6 133.5 131.2C132.9 131.6 132.3 132 131.7 132.4C132.4 132.2 133.1 131.9 133.7 131.5C133.8 131.4 134 131.3 134.1 131.3C134.6 131 135.2 130.6 135.9 130.5C136.7 130.4 137.4 130.7 138.1 131.1C138.4 131.2 138.6 131.4 138.8 131.5C138.8 131.2 138.8 131 138.7 130.8V130.7V130.6C138.7 130.2 138.6 130 138.4 129.8C138.1 129.6 137.6 129.5 137.2 129.5Z" fill="#1F1A54"/>
<path d="M140.8 105.2C141 105.2 141.2 105.2 141.3 105.2C142.6 105.1 143.9 104.2 144.9 103.4C146 102.4 146.7 101.3 147.1 99.8001C147.5 98.1001 147.5 95.4001 149.5 94.8001C149.6 94.8001 149.7 94.8001 149.8 94.7001C150.4 94.6001 150.3 93.6001 149.7 93.7001C149.7 93.7001 149.7 93.7001 149.6 93.7001C149.1 93.6001 148.6 93.6001 148.1 93.6001C146.2 93.7001 144.2 94.3001 142.5 95.3001C142 95.6001 141.5 96.0001 141.1 96.4001C139.4 98.0001 137.6 101.2 138.7 103.5C139.3 104.6 140 105.1 140.8 105.2Z" fill="white"/>
<path d="M141.1 105.6C141 105.6 140.8 105.6 140.7 105.6C139.7 105.5 138.9 104.8 138.5 103.8C137.3 101.1 139.4 97.8001 141 96.2001C141.4 95.8001 141.9 95.4001 142.5 95.1001C144.2 94.1001 146.3 93.4001 148.3 93.3001C148.8 93.3001 149.3 93.3001 149.8 93.4001C150.3 93.3001 150.7 93.6001 150.8 94.1001C150.9 94.5001 150.7 95.1001 150.1 95.2001L149.8 95.3001C148.4 95.7001 148.2 97.3001 147.9 98.8001C147.8 99.2001 147.7 99.6001 147.6 100C147.2 101.4 146.4 102.7 145.3 103.7C144.7 104.2 143.1 105.5 141.4 105.6C141.3 105.6 141.2 105.6 141.1 105.6ZM148.6 94.1001C148.5 94.1001 148.4 94.1001 148.3 94.1001C146.5 94.2001 144.5 94.8001 142.9 95.7001C142.4 96.0001 141.9 96.3001 141.5 96.7001C139.9 98.2001 138.2 101.2 139.2 103.3C139.6 104.1 140.1 104.6 140.8 104.7C140.9 104.7 141.1 104.7 141.3 104.7C142.3 104.6 143.5 104 144.7 103C145.8 102 146.5 100.9 146.8 99.6001C146.9 99.3001 147 98.9001 147 98.5001C147.3 96.9001 147.7 94.9001 149.5 94.4001L149.8 94.3001C150 94.3001 150 94.2001 149.9 94.1001H149.8H149.7H149.6C149.3 94.2001 148.9 94.1001 148.6 94.1001Z" fill="#1F1A54"/>
<path d="M140.8 105.2C141 105.2 141.2 105.2 141.3 105.2C142.8 104.1 143.7 102.7 144.2 100.8C144.7 98.7001 144.5 95.0001 146.9 94.1001C147.2 94.0001 147.5 94.0001 147.8 93.9001C148 93.9001 148.1 93.8001 148.2 93.7001C146.3 93.8001 144.3 94.4001 142.6 95.4001C142.1 95.7001 141.6 96.1001 141.2 96.5001C139.5 98.1001 137.7 101.3 138.8 103.6C139.3 104.6 140 105.1 140.8 105.2Z" fill="#1F1A54"/>
<path d="M140.8 105.2C141.4 104.5 142 103.8 142.3 102.9C142.6 102 142.5 101.1 142.5 100.2C142.4 98.6001 142.3 97.0001 142.7 95.5001C142.2 95.8001 141.7 96.2001 141.3 96.6001C139.6 98.2001 137.8 101.4 138.9 103.7C139.3 104.6 140 105.1 140.8 105.2Z" fill="#1F1A54"/>
<path d="M138 105.7H138.1C138.6 105.8 139.1 105.8 139.5 105.7C141.4 105.2 142.6 102.7 142.9 100.9C143.1 99.3001 142.8 97.6001 142.4 96.0001C142 94.2001 141.5 92.5001 140.8 90.8001C140.8 90.8001 140.8 90.7001 140.7 90.7001V90.6001C140.6 90.4001 140.3 90.3001 140.1 90.4001C138.3 93.0001 135.8 96.0001 135.2 99.2001C134.8 101.5 135.5 105 138 105.7Z" fill="white"/>
<path d="M138.9 106.2C138.6 106.2 138.4 106.2 138.1 106.1H137.9C135.1 105.3 134.4 101.6 134.8 99.2001C135.3 96.5001 137.1 93.9001 138.7 91.7001C139 91.2001 139.4 90.8001 139.7 90.3001L139.8 90.2001L139.9 90.1001C140.1 90.0001 140.4 89.9001 140.6 90.0001C140.8 90.1001 141 90.2001 141.1 90.5001C141.1 90.5001 141.2 90.6001 141.2 90.7001C142 92.5001 142.5 94.4001 142.9 96.0001C143.2 97.5001 143.6 99.3001 143.4 101.1C143.1 103.2 141.8 105.7 139.8 106.2C139.4 106.2 139.1 106.2 138.9 106.2ZM138.1 105.3C138.7 105.4 139.1 105.4 139.5 105.3C141.3 104.8 142.4 102.4 142.6 100.8C142.8 99.2001 142.5 97.5001 142.2 96.0001C141.8 94.4001 141.4 92.6001 140.6 90.9001L140.5 90.7001L140.8 90.5001L140.4 90.6001C140.1 91.1001 139.8 91.5001 139.4 92.0001C137.8 94.2001 136 96.6001 135.6 99.2001C135.3 101.4 135.8 104.7 138.1 105.3Z" fill="#1F1A54"/>
<path d="M138 105.7H138.1C138.6 105.8 139.1 105.8 139.5 105.7C141.4 105.2 142.6 102.7 142.9 100.9C143.1 99.3001 142.8 97.6001 142.4 96.0001C142 94.2001 141.5 92.5001 140.8 90.8001C140.8 90.8001 140.8 90.7001 140.7 90.7001V90.6001C140.6 90.4001 140.3 90.3001 140.1 90.4001C140.1 90.5001 140.1 90.5001 140.1 90.6001C140.3 91.2001 140.4 91.9001 140.4 92.6001C140.4 94.5001 139.7 96.1001 138.9 97.7001C137.7 100.3 137.1 103 138 105.7Z" fill="#1F1A54"/>
<path d="M139.6 105.7C141.5 105.2 142.7 102.7 143 100.9C143.2 99.3001 142.9 97.6001 142.5 96.0001C142.1 94.2001 141.6 92.5001 140.9 90.8001C140.9 90.8001 140.9 90.7001 140.8 90.7001V90.6001C140.7 90.4001 140.4 90.3001 140.2 90.4001L140.3 90.5001C141.8 92.7001 142.3 95.6001 141.5 98.2001C141 99.8001 139.9 101 139.7 102.7C139.5 103.7 139.5 104.8 139.6 105.7Z" fill="white"/>
<path d="M139.3 106.2L139.2 105.7C139.1 104.8 139.1 103.8 139.2 102.7C139.3 101.6 139.8 100.7 140.2 99.9001C140.5 99.3001 140.8 98.7001 141 98.1001C141.7 95.7001 141.3 92.9001 139.9 90.8001L139.7 90.4001L140 90.0001C140.2 89.9001 140.5 89.8001 140.7 89.9001C140.9 90.0001 141.1 90.1001 141.2 90.4001C141.2 90.4001 141.3 90.5001 141.3 90.6001C142.1 92.4001 142.6 94.3001 143 95.9001C143.3 97.4001 143.7 99.2001 143.5 101C143.2 103.1 141.9 105.6 139.9 106.1L139.3 106.2ZM142.2 96.4001C142.2 97.1001 142 97.8001 141.8 98.4001C141.6 99.1001 141.3 99.7001 141 100.3C140.6 101.1 140.2 101.9 140.1 102.9C140 103.7 140 104.5 140 105.2C141.5 104.5 142.4 102.3 142.6 100.9C142.7 99.4001 142.5 97.8001 142.2 96.4001ZM140.7 90.6001C140.7 90.7001 140.7 90.7001 140.7 90.6001V90.6001Z" fill="#1F1A54"/>
<path d="M117.8 121.7C118.5 121.8 119.3 121.9 120 122.1C121 122.4 121.9 122.7 122.9 123C124.3 123.4 125.6 123.8 127.1 123.6C129 123.4 132.7 121.7 132.4 119.4V119.3C132.5 119.1 132.5 118.9 132.4 118.8C132.4 118.8 132.4 118.7 132.3 118.7C132.3 118.6 132.3 118.6 132.3 118.5C132.2 118.3 132.1 118.1 132 117.9C130.9 116.2 128.2 116.3 126.5 116.9C125.1 117.4 124.1 118.4 122.9 119.2C121.5 120.2 119.8 120.7 118 120.7C117.3 120.7 117.2 121.6 117.8 121.7Z" fill="white"/>
<path d="M126.2 124.1C125 124.1 123.8 123.8 122.7 123.5C122.3 123.4 122 123.3 121.6 123.1C121 122.9 120.4 122.7 119.9 122.5C119.1 122.3 118.4 122.1 117.8 122.1C117.3 122.1 117 121.7 117 121.2C117 120.7 117.4 120.2 118 120.3C119.7 120.4 121.2 119.9 122.6 118.9C122.9 118.7 123.2 118.5 123.5 118.2C124.3 117.6 125.2 116.9 126.3 116.5C128.4 115.8 131.2 115.8 132.3 117.7C132.4 117.9 132.5 118.1 132.6 118.4C132.6 118.5 132.6 118.5 132.6 118.6C132.7 118.8 132.8 119.1 132.7 119.4C132.7 119.4 132.7 119.4 132.7 119.5C132.8 120.2 132.6 120.9 132.1 121.5C130.9 123 128.4 123.9 127 124.1C126.8 124 126.5 124.1 126.2 124.1ZM117.9 121.3C118.6 121.4 119.3 121.5 120.2 121.7C120.8 121.9 121.4 122.1 122 122.3C122.4 122.4 122.7 122.5 123.1 122.7C124.3 123.1 125.7 123.4 127.1 123.3C128.6 123.1 130.7 122.2 131.6 121C132 120.5 132.1 120.1 132 119.6V119.4V119.3C132 119.2 132 119.2 132 119.1L131.9 119L131.8 118.8C131.7 118.6 131.7 118.4 131.6 118.3C130.7 116.7 128.1 116.9 126.5 117.4C125.5 117.7 124.7 118.3 123.9 119C123.6 119.2 123.3 119.5 123 119.7C121.5 120.8 119.8 121.3 117.9 121.3C117.9 121.3 117.8 121.3 117.8 121.4C117.8 121.2 117.8 121.3 117.9 121.3V121.7V121.3Z" fill="#1F1A54"/>
<path d="M120 122.1C121 122.4 121.9 122.7 122.9 123C124.3 123.4 125.6 123.8 127.1 123.6C129 123.4 132.7 121.7 132.4 119.4V119.3C132.5 119.1 132.5 118.9 132.4 118.8C132.4 118.8 132.4 118.7 132.3 118.7C132.3 118.6 132.3 118.6 132.3 118.5C132.2 118.3 132.1 118.1 132 117.9C130.4 117.6 128.8 118.1 127.3 118.9C125.9 119.7 124.7 120.7 123.3 121.3C122.2 121.9 121.1 122.1 120 122.1Z" fill="white"/>
<path d="M126.2 124.1C125 124.1 123.8 123.8 122.7 123.5C122.3 123.4 122 123.3 121.6 123.1C121 122.9 120.4 122.7 119.9 122.5L117.3 121.8L120 121.7C121.2 121.7 122.2 121.5 123.1 121C123.9 120.6 124.6 120.1 125.4 119.7C125.9 119.3 126.5 119 127.1 118.6C128.3 117.9 130.1 117.2 132 117.5H132.2L132.3 117.7C132.4 117.9 132.5 118.1 132.6 118.4C132.6 118.5 132.6 118.5 132.6 118.6C132.7 118.8 132.8 119.1 132.7 119.4C132.7 119.4 132.7 119.4 132.7 119.5C132.8 120.2 132.6 120.9 132.1 121.5C130.9 123 128.4 123.9 127 124.1C126.8 124 126.5 124.1 126.2 124.1ZM121.9 122.3C122.3 122.4 122.6 122.6 123 122.7C124.2 123.1 125.6 123.4 127 123.3C128.5 123.1 130.6 122.2 131.5 121C131.9 120.5 132 120.1 131.9 119.6V119.4V119.3C131.9 119.2 131.9 119.2 131.9 119.1L131.8 119L131.7 118.8C131.7 118.6 131.6 118.5 131.6 118.4C130 118.2 128.4 118.8 127.4 119.4C126.8 119.7 126.3 120.1 125.7 120.4C124.9 120.9 124.2 121.4 123.3 121.8C123 122 122.4 122.2 121.9 122.3Z" fill="#1F1A54"/>
<path d="M122.9 123C124.3 123.4 125.6 123.8 127.1 123.6C129 123.4 132.7 121.7 132.4 119.4C131.3 119.5 130.2 120 129.2 120.6C127.9 121.4 126.7 122.5 125.1 122.9C124.4 123.1 123.6 123.1 122.9 123Z" fill="#FFD400"/>
<path d="M126.2 124.1C125 124.1 123.8 123.8 122.7 123.5L119.8 122.6L122.9 122.8C123.8 122.8 124.4 122.8 125 122.7C126.1 122.5 126.9 121.8 127.9 121.2C128.2 121 128.6 120.7 128.9 120.5C129.7 120 130.9 119.4 132.3 119.3H132.7L132.8 119.7C132.9 120.4 132.7 121.1 132.2 121.7C131 123.2 128.5 124.1 127.1 124.3C126.8 124 126.5 124.1 126.2 124.1ZM125.4 123.2C125.9 123.3 126.4 123.3 126.9 123.2C128.4 123 130.5 122.1 131.4 120.9C131.7 120.6 131.8 120.2 131.8 119.9C130.8 120.1 129.8 120.6 129.2 121C128.9 121.2 128.5 121.4 128.2 121.7C127.5 122.3 126.5 122.9 125.4 123.2Z" fill="#1F1A54"/>
<path d="M128.4 127C130.3 128.6 133.1 128.9 135.2 127.6C135.5 127.4 135.8 127.2 136 126.9C136.5 126.4 136.8 125.8 136.9 125.2C137.1 124.1 136.6 122.9 135.5 121.9C133.9 120.4 131.7 119.9 129.5 119.4C129 119.2 128.5 119.1 127.9 118.9C127.1 118.7 126.4 118.5 125.5 118.7C125.3 118.8 125.2 118.9 125.2 119.1C125.2 119.2 125.2 119.3 125.2 119.3C125.2 119.4 125.3 119.5 125.3 119.5C126.6 122.1 126.1 125 128.4 127Z" fill="white"/>
<path d="M132.2 128.8C130.7 128.8 129.3 128.3 128.1 127.3C126.5 126 126.2 124.2 125.8 122.5C125.6 121.6 125.4 120.6 125 119.8L124.9 119.6C124.8 119.5 124.8 119.3 124.8 119.1C124.8 118.7 125.1 118.4 125.4 118.4C126.3 118.1 127.1 118.3 128 118.6C128.5 118.8 129 118.9 129.6 119.1C131.8 119.5 134.1 120.1 135.8 121.7C136.9 122.8 137.5 124.1 137.3 125.4C137.2 126.1 136.9 126.8 136.3 127.3C136 127.6 135.7 127.8 135.4 128C134.4 128.5 133.3 128.8 132.2 128.8ZM128.6 126.7C130.4 128.2 133 128.4 135 127.2C135.3 127 135.6 126.8 135.8 126.6C136.2 126.2 136.5 125.7 136.6 125.1C136.7 124.1 136.3 123 135.3 122.1C133.8 120.7 131.6 120.2 129.5 119.7C128.9 119.5 128.4 119.4 127.9 119.2C127.1 119 126.5 118.8 125.8 119V119.1L125.9 119.3C126.3 120.2 126.5 121.2 126.7 122.2C127 124 127.3 125.5 128.6 126.7Z" fill="#1F1A54"/>
<path d="M130.6 125.2C132 126 133.5 126.2 135 126.6C135.4 126.7 135.7 126.8 136.1 126.9C136.6 126.4 136.9 125.8 137 125.2C137.2 124.1 136.7 122.9 135.6 121.9C134 120.4 131.8 119.9 129.6 119.4C129.1 119.2 128.6 119.1 128 118.9C127.2 118.7 126.5 118.5 125.6 118.7C125.4 118.8 125.3 118.9 125.3 119.1C125.3 119.2 125.3 119.3 125.3 119.3C125.3 119.4 125.4 119.5 125.4 119.5C127.4 121.1 128.4 123.8 130.6 125.2Z" fill="#1F1A54"/>
<path d="M125.3 119.2C127.9 119.4 129.6 121.3 131.5 123C133.2 124.4 134.9 125 136.9 125.3C137.1 124.2 136.6 123 135.5 122C133.9 120.5 131.7 120 129.5 119.5C129 119.3 128.5 119.2 127.9 119C127.1 118.8 126.4 118.6 125.5 118.8C125.4 118.8 125.3 119 125.3 119.2Z" fill="white"/>
<path d="M136.9 125.6C134.5 125.3 132.8 124.6 131.2 123.2C130.9 122.9 130.6 122.7 130.3 122.4C128.7 121 127.3 119.7 125.2 119.5C125.1 119.5 125 119.4 124.9 119.4C124.8 119.3 124.8 119.2 124.8 119.1C124.8 118.7 125.1 118.4 125.4 118.3C126.3 118 127.1 118.2 128 118.5C128.5 118.7 129 118.8 129.6 119C131.8 119.4 134.1 120 135.8 121.6C136.9 122.7 137.5 124 137.3 125.3C137.3 125.4 137.1 125.6 136.9 125.6ZM126.8 119C128.4 119.5 129.7 120.7 130.9 121.8C131.2 122.1 131.5 122.3 131.8 122.6C133.2 123.8 134.6 124.4 136.6 124.7C136.6 123.8 136.1 122.9 135.3 122.1C133.8 120.7 131.6 120.2 129.5 119.7C128.9 119.5 128.4 119.4 127.9 119.2C127.5 119.2 127.1 119.1 126.8 119Z" fill="#1F1A54"/>
<path d="M156.7 118.8C157.1 118.6 157.5 118.4 157.8 118.1C158.6 117.5 159.2 116.8 159.8 116C160.2 115.5 160.6 115 161.1 114.6C161.6 114.2 162.1 113.9 162.7 113.7C163.1 113.6 162.9 113 162.5 113C162.2 113 161.9 113 161.6 113.1H161.5C159.3 113.2 156.9 112.5 154.7 113.3C153.7 113.7 152.7 114.5 152.2 115.6C152.2 115.6 152.2 115.6 152.2 115.7C151.9 116.3 151.8 117 152.1 117.7C152.8 119.4 155.2 119.4 156.7 118.8Z" fill="#1F1A54"/>
<path d="M154.8 119.6C154.3 119.6 153.7 119.5 153.2 119.3C152.5 119 151.9 118.4 151.7 117.7C151.4 117 151.5 116.2 151.8 115.4L151.9 115.3C152.4 114.3 153.5 113.3 154.6 112.9C156.1 112.3 157.6 112.4 159.1 112.6C159.9 112.7 160.7 112.7 161.5 112.7C161.6 112.7 161.6 112.7 161.7 112.7C162 112.7 162.3 112.7 162.6 112.6C163 112.6 163.4 112.9 163.4 113.3C163.5 113.7 163.3 114 162.9 114.1C162.4 114.3 161.9 114.5 161.4 115C160.9 115.4 160.5 115.9 160.1 116.4L159.9 116.6C159.3 117.3 158.8 118 158 118.5C157.6 118.8 157.2 119 156.8 119.2C156.3 119.4 155.6 119.6 154.8 119.6ZM157.2 113.2C156.4 113.2 155.6 113.3 154.9 113.6C154.1 113.9 153.1 114.7 152.6 115.7C152.3 116.3 152.3 116.9 152.5 117.4C152.7 117.9 153.1 118.3 153.6 118.5C154.4 118.9 155.6 118.8 156.7 118.4C157.1 118.3 157.4 118.1 157.7 117.8C158.4 117.3 158.9 116.6 159.4 116L159.6 115.8C160 115.3 160.5 114.8 161 114.3C161.5 113.9 162 113.6 162.6 113.4C162.3 113.4 162.1 113.4 161.9 113.4H161.8H161.7C160.9 113.4 160 113.4 159.2 113.3C158.4 113.3 157.8 113.2 157.2 113.2Z" fill="#1F1A54"/>
<path d="M156.7 118.8C157.1 118.6 157.5 118.4 157.8 118.1C158.6 117.5 159.2 116.8 159.8 116C160.2 115.5 160.6 115 161.1 114.6C159.7 114 158.2 114.3 156.8 114.8C155.7 115.2 154.6 115.7 153.4 115.8C153 115.8 152.6 115.8 152.3 115.6H152.2C151.9 116.2 151.8 116.9 152.1 117.6C152.8 119.4 155.2 119.4 156.7 118.8Z" fill="#1F1A54"/>
<path d="M156.7 118.8C157.1 118.6 157.5 118.4 157.8 118.1C158.6 117.5 159.2 116.8 159.8 116C158.9 115.9 158 116.2 157.1 116.4C156.2 116.6 155 117.1 154.1 117C153.3 116.9 152.7 116.2 152.3 115.5C152.3 115.5 152.3 115.4 152.2 115.4C152.2 115.4 152.2 115.4 152.2 115.5C151.9 116.1 151.8 116.8 152.1 117.5C152.8 119.4 155.2 119.4 156.7 118.8Z" fill="white"/>
<path d="M154.8 119.6C154.3 119.6 153.7 119.5 153.2 119.3C152.5 119 151.9 118.4 151.7 117.7C151.4 117 151.5 116.2 151.8 115.4L151.9 115.3L152.2 114.8L152.5 115.3L152.3 115.6L152.6 115.4C153 116 153.5 116.6 154.2 116.7C154.8 116.8 155.6 116.6 156.3 116.4C156.6 116.3 156.8 116.3 157 116.2L157.3 116.1C158.1 115.9 159 115.7 159.8 115.8L160.5 115.9L159.9 116.7C159.3 117.4 158.8 118.1 158 118.6C157.6 118.9 157.2 119.1 156.8 119.3C156.3 119.4 155.6 119.6 154.8 119.6ZM152.3 116.3C152.2 116.7 152.3 117 152.4 117.4C152.6 117.9 153 118.3 153.5 118.5C154.3 118.9 155.5 118.8 156.6 118.4C157 118.3 157.3 118.1 157.6 117.8C158.1 117.4 158.5 116.9 158.9 116.5C158.4 116.6 158 116.7 157.5 116.8L157.1 116.9C156.9 117 156.7 117 156.4 117.1C155.6 117.3 154.7 117.6 153.9 117.5C153.3 117.3 152.8 116.9 152.3 116.3Z" fill="#1F1A54"/>
<path d="M152 118.1C152.2 118.2 152.3 118.3 152.5 118.4C152.6 118.4 152.6 118.4 152.7 118.5C154.8 119 156.9 116.5 157.3 114.7C157.8 112.7 157 110.7 156.9 108.8C156.9 108.2 156.9 107.7 157 107.1C157 106.9 157 106.8 156.9 106.7V106.6C157 106.3 156.7 106.1 156.5 106.1C156.3 106 156 106.1 155.9 106.4C155 109.2 151.3 109.6 150.6 112.5C150.3 113.8 150.6 117 152 118.1Z" fill="white"/>
<path d="M153.3 118.9C153.1 118.9 152.9 118.9 152.7 118.8C152.6 118.8 152.5 118.8 152.5 118.7C152.3 118.6 152.1 118.5 151.9 118.4C150.2 117.1 150 113.7 150.4 112.3C150.8 110.7 152 109.8 153.2 108.9C154.3 108.1 155.3 107.4 155.7 106.2C155.8 105.8 156.3 105.5 156.7 105.6C156.9 105.7 157.2 105.8 157.3 106C157.4 106.2 157.4 106.4 157.4 106.6C157.5 106.8 157.5 106.9 157.5 107.1C157.4 107.6 157.4 108.1 157.5 108.7C157.5 109.3 157.7 110 157.8 110.6C158 111.9 158.3 113.3 157.9 114.8C157.6 116 156.6 117.6 155.2 118.4C154.5 118.7 153.8 118.9 153.3 118.9ZM152.3 117.8C152.4 117.9 152.6 118 152.7 118H152.8C153.4 118.1 154 118 154.6 117.6C155.8 116.9 156.7 115.4 156.9 114.5C157.2 113.2 157 112 156.8 110.7C156.7 110.1 156.6 109.4 156.5 108.7C156.4 108.1 156.5 107.5 156.6 106.9L156.5 106.7L156.6 106.3C156.6 106.3 156.6 106.3 156.5 106.3H156.4C155.9 107.8 154.8 108.6 153.6 109.4C152.5 110.2 151.4 111 151.1 112.4C150.7 113.9 151 116.8 152.3 117.8Z" fill="#1F1A54"/>
<path d="M152 118.1C152.2 118.2 152.3 118.3 152.5 118.4C151.6 115.4 154.7 113 156.1 110.7C156.5 110 156.8 109.4 157 108.7C157 108.1 157 107.6 157.1 107C157.1 106.8 157.1 106.7 157 106.6V106.5C157.1 106.2 156.8 106 156.6 106C156.4 105.9 156.1 106 156 106.3C155.1 109.1 151.4 109.5 150.7 112.4C150.3 113.8 150.6 117 152 118.1Z" fill="#1F1A54"/>
<path d="M152 118.1C151.9 115.6 152.2 112.9 153.6 110.8C154.6 109.2 156.1 107.8 156.5 106C156.3 105.9 156 106 155.9 106.3C155 109.1 151.3 109.5 150.6 112.4C150.3 113.8 150.6 117 152 118.1Z" fill="white"/>
<path d="M152.4 118.9L151.7 118.4C150 117.1 149.8 113.7 150.2 112.3C150.6 110.7 151.8 109.8 153 108.9C154.1 108.1 155.1 107.4 155.5 106.2C155.6 105.8 156.1 105.5 156.5 105.6L156.9 105.7L156.8 106.1C156.5 107.5 155.7 108.6 154.8 109.7C154.5 110.1 154.1 110.6 153.8 111C152.6 112.8 152.1 115.1 152.2 118.1L152.4 118.9ZM154.7 108.7C154.3 109 154 109.3 153.6 109.5C152.5 110.3 151.4 111.1 151.1 112.5C150.8 113.6 151 115.7 151.7 117C151.7 114.4 152.3 112.3 153.4 110.6C153.7 110.1 154.1 109.7 154.4 109.2C154.4 109 154.6 108.9 154.7 108.7Z" fill="#1F1A54"/>
<mask id="mask1" mask-type="alpha" maskUnits="userSpaceOnUse" x="64" y="134" width="112" height="127">
<path d="M64.8 169.823C64.8 167.106 66.2508 164.595 68.6052 163.238L116.305 135.749C118.654 134.395 121.546 134.395 123.895 135.749L171.595 163.238C173.949 164.595 175.4 167.106 175.4 169.823V224.884C175.4 227.598 173.953 230.106 171.604 231.464L123.904 259.039C121.55 260.399 118.65 260.399 116.296 259.039L68.5963 231.464C66.2469 230.106 64.8 227.598 64.8 224.884V169.823Z" fill="white" stroke="#1F1A54" stroke-width="0.8"/>
</mask>
<g mask="url(#mask1)">
<path d="M83.7 240.7C79.8 218.4 82.6 180.5 82.8 176.9C83 172.7 86.7 170.8 86.7 170.8C89.6 161.6 104.6 161.6 113.9 167.3C119.2 170.5 119.9 189 120.1 200.8C120.1 200.8 118.2 236.5 101.3 250.7L83.7 240.7Z" fill="#1F1A54"/>
<path d="M101.3 251.2C101.2 251.2 101.2 251.2 101.1 251.1L83.5 240.9C83.4 240.8 83.3 240.7 83.3 240.6C81.7 231.3 80.1 213 82.3 178.4C82.3 177.6 82.4 177 82.4 176.7C82.6 172.8 85.7 170.8 86.4 170.4C87.4 167.4 89.7 165.2 93 164C99 161.8 107.7 162.9 114.1 166.9C119.4 170.2 120.3 187.8 120.5 200.8C120.5 201.2 118.4 236.8 101.6 251C101.5 251.2 101.4 251.2 101.3 251.2ZM84.1 240.4L101.3 250.3C117.6 236.2 119.7 201.2 119.7 200.8C119.6 193.5 119.3 171.1 113.7 167.6C107.6 163.8 99 162.6 93.2 164.8C90 166 87.9 168.1 87 170.9C87 171 86.9 171.1 86.8 171.1C86.8 171.1 83.3 172.9 83.1 176.8C83.1 177.1 83.1 177.7 83 178.5C81 212.9 82.5 231.1 84.1 240.4Z" fill="#1F1A54"/>
<path d="M94.5 185.8C94.5 185.8 96.5 182.4 100.9 178.3C104.6 174.9 105.8 170 105.8 170C105.8 170 110.8 173.8 113.5 174.1C115.2 179.9 117.2 188.4 116.9 192.1C116.6 195.6 115.2 198.2 112.2 199.7L113.6 206.1L97.8 205.5L95.5 195.3C91.5 195.6 88.1 194.3 86.5 190.8C84.6 186.5 87.1 182.6 90.2 183.2C92.5 183.5 93.9 185 94.5 185.8ZM112.4 182.2C112.3 181.6 111.8 181.2 111.3 181.3C110.8 181.4 110.6 182 110.7 182.6C110.8 183.2 111.3 183.6 111.8 183.5C112.3 183.4 112.6 182.8 112.4 182.2ZM104.6 183.8C104.5 183.2 104 182.8 103.5 182.9C103 183 102.7 183.6 102.9 184.2C103 184.8 103.5 185.2 104 185.1C104.5 185 104.8 184.4 104.6 183.8Z" fill="white"/>
<path d="M111.3 181.3C111.8 181.2 112.3 181.6 112.4 182.2C112.5 182.8 112.3 183.4 111.8 183.5C111.3 183.6 110.8 183.2 110.7 182.6C110.6 182 110.9 181.4 111.3 181.3Z" fill="#1F1A54"/>
<path d="M103.5 182.9C104 182.8 104.5 183.2 104.6 183.8C104.7 184.4 104.5 185 104 185.1C103.5 185.2 103 184.8 102.9 184.2C102.8 183.6 103.1 183 103.5 182.9Z" fill="#1F1A54"/>
<path d="M107.7 201C105.9 201 103.8 200.7 102.2 199.7C102 199.6 102 199.3 102.1 199.2C102.2 199 102.5 199 102.7 199.1C105.5 200.8 109.8 200.4 111.3 199.8C111.6 199.7 111.8 199.6 112.1 199.5C114.9 198.2 116.3 195.9 116.6 192.3C116.9 188.9 115.1 180.8 113.3 174.4C113.2 174.2 113.4 174 113.6 173.9C113.8 173.8 114 174 114.1 174.2C115.9 180.2 117.8 188.6 117.5 192.4C117.2 196.3 115.5 198.8 112.5 200.3C112.2 200.4 112 200.5 111.7 200.7C110.8 200.8 109.3 201 107.7 201Z" fill="#1F1A54"/>
<path d="M101.5 181.5C101.4 181.5 101.3 181.5 101.2 181.4C101 181.2 101 181 101.2 180.8C101.6 180.3 102.3 180 103 179.8C103.8 179.6 104.5 179.7 105.2 180C105.4 180.1 105.5 180.3 105.4 180.5C105.3 180.7 105.1 180.8 104.9 180.7C104.4 180.5 103.8 180.4 103.2 180.6C102.7 180.7 102.2 181 101.8 181.3C101.8 181.5 101.7 181.5 101.5 181.5Z" fill="#1F1A54"/>
<path d="M109 179.9C108.9 179.9 108.8 179.9 108.7 179.8C108.5 179.6 108.5 179.4 108.7 179.2C109.1 178.7 109.8 178.4 110.5 178.2C111.3 178 112 178.1 112.7 178.4C112.9 178.5 113 178.7 112.9 178.9C112.8 179.1 112.6 179.2 112.4 179.1C111.9 178.9 111.3 178.8 110.7 179C110.2 179.1 109.7 179.4 109.3 179.7C109.2 179.8 109.1 179.9 109 179.9Z" fill="#1F1A54"/>
<path d="M106.9 194.2C103.4 194.2 102 191.4 102 191.2C101.9 191 102 190.8 102.2 190.7C102.4 190.6 102.6 190.7 102.7 190.9C102.8 191 103.9 193.5 107 193.4C107.3 193.4 107.4 193.6 107.4 193.8C107.4 194 107.2 194.2 107 194.2H106.9Z" fill="#1F1A54"/>
<path d="M108.3 188.9C107.8 188.9 107.5 188.8 107.5 188.8C107.3 188.7 107.2 188.5 107.2 188.3C107.3 188.1 107.5 188 107.7 188C107.7 188 108.9 188.3 109.6 187.6C109.8 187.4 110 187.4 110.2 187.6C110.4 187.8 110.4 188 110.2 188.2C109.6 188.7 108.9 188.9 108.3 188.9Z" fill="#1F1A54"/>
<path d="M93.3 191.1C93.1 191.1 93 191 92.9 190.8C91.8 187.6 89.8 187.6 89.7 187.7C89.5 187.7 89.3 187.5 89.3 187.3C89.3 187.1 89.5 186.9 89.7 186.9C89.8 186.9 92.4 186.8 93.7 190.6C93.8 190.8 93.7 191 93.4 191.1C93.4 191.1 93.4 191.1 93.3 191.1Z" fill="#1F1A54"/>
<path d="M97.8 205.9C97.6 205.9 97.5 205.8 97.4 205.6L95.1 195.4C95.1 195.2 95.2 195 95.4 194.9C95.6 194.9 95.8 195 95.9 195.2L98.2 205.4C98.2 205.6 98.1 205.8 97.8 205.9C97.9 205.9 97.8 205.9 97.8 205.9Z" fill="#1F1A54"/>
<path d="M113.6 206.5L97.8 205.9C97.6 205.9 97.4 205.7 97.4 205.5C97.4 205.3 97.6 205.1 97.8 205.1L113.1 205.7L111.8 199.8C111.8 199.6 111.9 199.4 112.1 199.3C112.3 199.3 112.5 199.4 112.6 199.6L114 206C114 206.1 114 206.2 113.9 206.3C113.9 206.5 113.7 206.5 113.6 206.5Z" fill="#1F1A54"/>
<path d="M94.5 195.7C90.5 195.7 87.6 194 86.2 190.9C85.2 188.5 85.3 185.9 86.7 184.2C87.6 183 89 182.5 90.4 182.7C92.7 183.1 94.2 184.6 94.9 185.5C95.2 185.9 95.4 186.2 95.4 186.2C95.5 186.4 95.4 186.6 95.3 186.7C95.1 186.8 94.9 186.7 94.8 186.6C94.8 186.6 94.7 186.4 94.4 186C93.8 185.2 92.4 183.8 90.4 183.5C89.3 183.3 88.3 183.7 87.5 184.7C86.6 185.9 86 188 87.1 190.6C88.4 193.7 91.5 195.2 95.7 194.9C95.9 194.8 96.1 195 96.2 195.2C96.2 195.4 96.1 195.6 95.9 195.7C95.2 195.7 94.8 195.7 94.5 195.7Z" fill="#1F1A54"/>
<path d="M94.5 186.2C94.4 186.2 94.4 186.2 94.3 186.1C94.1 186 94 185.7 94.2 185.6C94.3 185.5 96.2 182.1 100.7 178C104.3 174.8 105.5 170 105.5 169.9C105.5 169.8 105.6 169.7 105.8 169.6C105.9 169.6 106.1 169.6 106.2 169.7C106.2 169.7 111.1 173.5 113.7 173.7C113.9 173.7 114.1 173.9 114.1 174.1C114.1 174.3 113.9 174.5 113.7 174.5C111.4 174.3 107.6 171.7 106.2 170.7C105.8 172.1 104.4 175.8 101.3 178.6C97 182.5 95 185.9 95 186C94.8 186.1 94.7 186.2 94.5 186.2Z" fill="#1F1A54"/>
<path d="M92.4 223.8C90.9 216.9 91.6 213.7 93 211C97.7 202.1 107.9 201.4 115.2 199.1C123.6 196.4 126.1 194.5 126.1 194.5L133.4 206.7L124.5 216.8C126.4 219.4 128.9 224 127.1 231.3C125.9 236.3 126.6 250 127.1 257.5L124.104 259.255C121.628 260.705 118.565 260.718 116.076 259.29L99.9 250C99.9 250 98.9 244.9 97.8 241.8C95.7 235.6 93.6 229.3 92.4 223.8Z" fill="#FFD400"/>
<path d="M120.1 262.1C120 262.1 120 262.1 119.9 262L99.7 250.4C99.6 250.3 99.5 250.2 99.5 250.1C99.5 250.1 98.4 245 97.4 241.9C95.4 236.2 93.2 229.6 91.9 223.9C90.4 217 91.1 213.7 92.6 210.8C96.5 203.5 103.9 201.6 110.5 199.9C112.1 199.5 113.6 199.1 115 198.7C123.3 196.1 125.7 194.2 125.8 194.2C125.9 194.1 126 194.1 126.1 194.1C126.2 194.1 126.3 194.2 126.4 194.3L133.7 206.5C133.8 206.6 133.8 206.8 133.7 207L125 216.9C128 221.2 128.8 226 127.5 231.5C126.3 236.4 127 250 127.6 257.6C127.6 257.8 127.5 257.9 127.4 258L120.4 262.1C120.2 262.1 120.2 262.1 120.1 262.1ZM100.3 249.8L120.1 261.2L126.7 257.4C126.2 249.7 125.5 236.3 126.7 231.3C128 226 127.2 221.4 124.1 217.1C124 216.9 124 216.7 124.1 216.6L132.8 206.7L125.9 195.1C124.9 195.7 122 197.4 115.2 199.5C113.8 199.9 112.3 200.3 110.7 200.7C104.3 202.3 97 204.2 93.3 211.2C91.9 213.9 91.2 217.1 92.7 223.7C94 229.4 96.2 235.9 98.1 241.6C99.2 244.5 100.1 248.8 100.3 249.8Z" fill="#1F1A54"/>
<path d="M64.8 169.823C64.8 167.106 66.2508 164.595 68.6052 163.238L116.305 135.749C118.654 134.395 121.546 134.395 123.895 135.749L171.595 163.238C173.949 164.595 175.4 167.106 175.4 169.823V224.884C175.4 227.598 173.953 230.106 171.604 231.464L123.904 259.039C121.55 260.4 118.65 260.4 116.296 259.039L68.5963 231.464C66.2469 230.106 64.8 227.598 64.8 224.884V169.823Z" stroke="#1F1A54" stroke-width="0.8"/>
</g>
<path d="M121.1 221.2C121 221.2 120.9 221.2 120.8 221.1C120.6 221 120.6 220.7 120.8 220.5L124.2 216.6C124.3 216.4 124.6 216.4 124.8 216.6C125 216.7 125 217 124.8 217.2L121.4 221.1C121.3 221.1 121.2 221.2 121.1 221.2Z" fill="#1F1A54"/>
<path d="M159.8 163.6C160.8 162 163.3 158.9 164.2 156.2C164.6 155.1 164.7 154.2 165.4 152.4C165.8 151.3 166.6 149.8 167.2 149C167.6 148.4 168.8 146.6 167.6 145.9C167 145.6 166.4 146 166.1 146.3C165.8 146.6 165.4 147 164.8 147.8C164.3 148.6 162.6 150.2 162.6 150.2C162.6 150.2 164.3 146.8 165 145.7C165.5 145 166.8 143.1 165.6 142.2C165 141.8 164.1 142.2 163.9 142.4C163.5 142.7 163.4 143.1 162.8 144C162.4 144.7 160.2 147.7 160.2 147.7C160.2 147.7 162.2 143.2 162.8 142.1C163.2 141.2 164.6 138.9 162.9 138C161.8 137.4 160.6 139.3 159.9 140.4C159 141.9 156.8 146.7 156.8 146.7L158.4 141.2C158.4 141.2 159.2 138.9 157.7 138.4C156.2 137.8 155.6 139.5 155.3 140.3C153.8 144 152.3 148 151.7 150.2C150.8 153.2 148.2 145.6 145.8 146.5C143.4 147.5 151.7 159.5 149.3 164.5C146.3 171.1 138.6 181.6 136.6 186C131.1 191.3 126.1 194.6 126.1 194.6L133.4 206.8L146.1 192.6C153.9 180.6 156.8 168.6 159.8 163.6Z" fill="white"/>
<path d="M133.4 207.1C133.3 207.1 133.3 207.1 133.4 207.1C133.2 207.1 133.1 207 133.1 206.9L125.8 194.7C125.7 194.5 125.7 194.3 125.9 194.2C125.9 194.2 131 190.9 136.3 185.7C137.2 183.7 139.3 180.4 141.6 176.9C144.3 172.7 147.3 167.9 149 164.3C150.2 161.6 148.3 156.7 146.7 152.8C145.3 149.2 144.3 146.7 145.7 146.1C147.1 145.5 148.5 147.3 149.6 148.8C150.1 149.4 150.8 150.5 151.1 150.4C151.1 150.4 151.2 150.3 151.3 150C151.9 147.8 153.4 143.8 154.9 140.1L155 139.9C155.3 139.1 156 137.3 157.8 138C159.2 138.5 159.1 140.4 158.8 141.3L158.4 142.8C158.9 141.8 159.4 140.8 159.7 140.3C160.2 139.5 161.6 137 163.2 137.8C165.1 138.8 163.9 141.1 163.3 142.1L163.2 142.3C163 142.7 162.6 143.6 162.2 144.5C162.4 144.2 162.6 144 162.6 143.8C163.2 142.8 163.4 142.5 163.8 142.1C164.1 141.8 165.2 141.3 166 141.9C167.4 142.9 166.1 144.8 165.6 145.7L165.5 145.9C165.2 146.3 164.8 147.1 164.4 147.9C164.5 147.8 164.6 147.7 164.7 147.6C165.2 146.8 165.7 146.4 166 146.1L166.1 146C166.4 145.7 167.3 145.2 168 145.6C168.4 145.8 168.6 146.1 168.7 146.5C168.9 147.4 168.3 148.4 167.7 149.2C167.2 149.9 166.4 151.4 166 152.5C165.6 153.7 165.4 154.4 165.2 155.1C165.1 155.5 165 155.9 164.9 156.3C164.3 158.2 162.8 160.3 161.6 162C161.1 162.7 160.7 163.3 160.4 163.8C159.3 165.6 158.3 168.3 157 171.5C154.8 177.2 151.7 185.1 146.6 192.8L133.9 207C133.6 207.1 133.5 207.1 133.4 207.1ZM126.6 194.6L133.5 206.1L145.8 192.3C150.8 184.7 153.9 176.9 156.1 171.1C157.4 167.8 158.4 165.1 159.5 163.3C159.8 162.8 160.2 162.2 160.7 161.5C161.8 159.9 163.3 157.8 163.9 156C164 155.6 164.1 155.2 164.2 154.9C164.4 154.2 164.6 153.4 165 152.2C165.4 151 166.2 149.5 166.8 148.7C167.1 148.3 167.8 147.2 167.7 146.5C167.7 146.3 167.6 146.2 167.4 146.1C167.1 145.9 166.5 146.2 166.4 146.4L166.3 146.5C166 146.8 165.6 147.1 165.1 147.9C164.6 148.7 163 150.3 162.9 150.4C162.8 150.5 162.6 150.5 162.4 150.4C162.3 150.3 162.2 150.1 162.3 149.9C162.4 149.8 164 146.4 164.7 145.3L164.8 145.1C165.5 144 166.1 142.9 165.4 142.4C165 142.1 164.3 142.4 164.1 142.6C163.8 142.9 163.6 143.2 163.1 144.1C162.7 144.8 160.5 147.7 160.5 147.8C160.4 148 160.2 148 160 147.9C159.8 147.8 159.8 147.6 159.8 147.4C159.9 147.2 161.8 142.9 162.4 141.8L162.5 141.6C163.2 140.2 163.7 138.8 162.7 138.2C162.1 137.9 161.2 138.7 160.2 140.4C159.4 141.9 157.1 146.6 157.1 146.6C157 146.8 156.8 146.9 156.6 146.8C156.4 146.7 156.3 146.5 156.4 146.4L158 140.9C158 140.9 158.6 138.9 157.5 138.5C156.6 138.2 156.2 138.8 155.7 140L155.6 140.2C154.1 143.9 152.6 147.8 152 150C151.9 150.2 151.8 150.9 151.2 151C150.5 151.1 149.8 150.3 148.9 149.1C147.9 147.8 146.7 146.3 145.8 146.6C145.1 146.9 146.3 149.9 147.3 152.3C148.9 156.4 150.9 161.4 149.6 164.4C147.9 168 144.9 172.8 142.2 177.1C140 180.6 137.9 183.9 137 185.9C137 185.9 137 186 136.9 186C132.2 190.7 127.7 193.8 126.6 194.6Z" fill="#1F1A54"/>
<path d="M268.2 150.6C267.7 150.8 261.3 152.7 264.1 153.7C267 154.8 276.1 153.9 276.4 153.9C276.3 154 275.4 155.1 274.2 158.5C272.9 162.1 274.6 164.8 274.6 164.8C275.4 164.1 277 162.8 279.2 162.8C281 162.8 282.4 164.2 282.8 166.2C283.7 164.8 286.9 162.4 287.5 157.8C287.8 155.7 287 154.1 286.2 152.9C285.8 152.3 285.4 151.9 285 151.6C284.7 151.3 284.5 151.2 284.5 151.2C284.4 150.9 284.4 150.6 284.3 150.3C282 141.5 267.8 139.6 258.1 143.8C250 147.3 252.9 150.3 256.4 150.5C256.7 150.5 257 150.5 257.4 150.5C260.8 150.7 267.7 150.6 268.2 150.6Z" fill="#1F1A54"/>
<path d="M285.1 151.7C284.9 151.7 284.7 151.7 284.5 151.6C284.3 151.6 284.1 151.3 284.2 151.1C284.2 150.9 284.5 150.7 284.7 150.8C286.2 151.1 287.7 149.9 288.6 148.5C289.2 147.5 289.4 146.7 289.2 146.5C289.1 146.3 288.6 146.4 288.4 146.4C285.5 147.1 284.9 150 284.9 150.4C284.9 150.6 284.7 150.8 284.5 150.8C284.3 150.8 284.1 150.6 284.1 150.4H284.5H284.1C284.2 150 284.8 146.5 288.3 145.7C289.3 145.5 289.7 145.8 289.9 146.1C290.4 146.8 289.9 148.1 289.3 149C288.3 150.4 286.7 151.7 285.1 151.7Z" fill="#1F1A54"/>
<path d="M290.4 154.8C289.2 154.8 287.6 154.4 286 153.3C285.9 153.2 285.8 153.1 285.8 152.9H286.2L286.4 152.5C286.4 152.5 286.4 152.5 286.5 152.5C289.5 154.4 291.7 153.9 292.1 153.2C292.4 152.7 291.7 152.1 291.5 152C289.1 150.4 285.3 151.9 285.2 151.9C285 152 284.8 151.9 284.7 151.7C284.6 151.5 284.7 151.3 284.9 151.2C285.1 151.1 289.2 149.5 291.9 151.4C293.1 152.2 293.1 153.2 292.7 153.7C292.4 154.4 291.5 154.8 290.4 154.8Z" fill="#1F1A54"/>
</svg>
