<svg width="375" height="300" viewBox="0 0 375 300" fill="none" xmlns="http://www.w3.org/2000/svg">
<path d="M135.6 63V127.3L191.2 159.5L246.9 127.3V63L191.2 30.9L135.6 63Z" fill="white" stroke="#1F1A54" stroke-width="0.8" stroke-miterlimit="10" stroke-linecap="round" stroke-linejoin="round"/>
<path d="M203.5 179.1V243.4L259.2 275.5L314.9 243.4V179.1L259.2 146.9L203.5 179.1Z" fill="white" stroke="#1F1A54" stroke-width="0.8" stroke-miterlimit="10" stroke-linecap="round" stroke-linejoin="round"/>
<path d="M68.2001 179.1V243.4L123.9 275.6L179.6 243.4V179.1L123.9 147L68.2001 179.1Z" fill="white"/>
<path d="M123.9 276C123.8 276 123.8 276 123.7 275.9L68 243.8C67.9 243.7 67.8 243.6 67.8 243.5V179.2C67.8 179.1 67.9 178.9 68 178.9L123.7 146.8C123.8 146.7 124 146.7 124.1 146.8L179.8 178.9C179.9 179 180 179.1 180 179.2V243.5C180 243.6 179.9 243.8 179.8 243.8L124.1 275.9C124 276 124 276 123.9 276ZM68.6 243.2L123.9 275.1L179.2 243.2V179.4L123.9 147.5L68.6 179.4V243.2Z" fill="#1F1A54"/>
<path d="M221.1 140.5L222.8 147.4H209.8L208.8 129L220.3 129.1L221.1 140.5Z" fill="white"/>
<path d="M209.8 147.8C209.6 147.8 209.4 147.6 209.4 147.4L208.4 129C208.4 128.9 208.4 128.8 208.5 128.7C208.6 128.6 208.7 128.6 208.8 128.6H220.3C220.5 128.6 220.7 128.8 220.7 128.9L221.5 140.4L223.1 147.2C223.1 147.3 223.1 147.4 223 147.5C222.9 147.6 222.8 147.6 222.7 147.6L209.8 147.8ZM209.2 129.4L210.1 147H222.3L220.8 140.6L220 129.4H209.2Z" fill="#1F1A54"/>
<path d="M170.2 59.8001C168.2 66.5001 170 72.6001 172 76.2001C172.4 76.5001 178.1 80.4001 182.4 81.5001C182.8 81.6001 183.1 81.7001 183.5 81.7001C186.7 82.1001 186.6 81.1001 185.3 77.1001C182.9 69.8001 184.3 64.1001 190.6 61.2001C197.6 58.0001 205.4 57.9001 206.5 58.1001C206.9 58.2001 207.3 58.3001 207.6 58.4001V58.2001C207.4 57.8001 203.3 49.6001 194.2 46.9001C184.8 44.3001 173.4 48.6001 170.2 59.8001Z" fill="#FFD400"/>
<path d="M172 76.3C172.5 77.1 172.9 77.9 173.4 78.4C174 79.2 175.9 80.7 177.5 81.6C178.8 82.4 180.5 83.3 182.4 83.8V81.6C178 80.5 172.3 76.5 172 76.3Z" fill="#1F1A54"/>
<path d="M182.3 89.9L182.2 90.1L191.1 94.2V97L193.3 99L195.1 97V94.2L197.5 91.7V87.5C197.2 87.6 196.9 87.6 196.6 87.7C194.8 88 190.5 87.4 188 85L187.3 83.8C186.7 84.1 185.9 84.3 184.9 84.2C184 84.2 183.1 84 182.2 83.8V89.9H182.3Z" fill="white"/>
<path d="M182.3 81.5001V83.7001C183.2 83.9001 184.1 84.1001 185 84.1001C186.1 84.1001 186.9 84.0001 187.4 83.7001C189.3 82.6001 188.8 79.9001 187.3 76.8001C186.1 74.2001 185.8 69.3001 187.9 65.7001C188 65.1001 191.9 61.2001 199.6 59.9001C202 59.5001 205.8 59.1001 208 59.7001C208 59.7001 209.2 59.8001 209.6 61.6001C209.8 60.2001 209.1 59.1001 207.4 58.6001C207.1 58.5001 206.7 58.4001 206.3 58.3001C205.2 58.1001 197.4 58.1001 190.4 61.4001C184.2 64.3001 182.7 69.9001 185.1 77.3001C186.4 81.2001 186.5 82.3001 183.3 81.9001C183 81.7001 182.7 81.6001 182.3 81.5001Z" fill="#1F1A54"/>
<path d="M188 65.8001C185.9 69.4001 186.2 74.3001 187.4 76.9001C188.9 80.0001 189.4 82.7001 187.5 83.8001L188.2 85.0001C190.7 87.4001 195 87.9001 196.8 87.7001C197.1 87.7001 197.4 87.6001 197.7 87.5001C200.8 86.8001 202.7 84.7001 203.8 81.6001C203.9 81.5001 203.9 81.3001 204 81.1001C205 78.0001 205.1 71.2001 204.8 65.6001C198.7 65.8001 191.3 66.1001 188.8 65.9001C188.3 65.9001 188 65.8001 188 65.8001Z" fill="white"/>
<path d="M207.1 65.6001C210.1 65.5001 212.5 65.4001 213.2 65.3001C214.9 65.2001 212.3 63.8001 210.3 62.2001C210.1 62.0001 209.9 61.9001 209.7 61.7001C209.1 61.2001 209.1 61.1001 209.1 61.1001C208.9 60.5001 207.7 60.0001 206 60.0001C203.5 60.0001 200.4 60.2001 197.2 61.2001C191.6 62.8001 188.7 65.9001 188.7 65.9001V66.1001C191.1 66.3001 198.6 66.1001 204.7 65.8001C205.5 65.6001 206.3 65.6001 207.1 65.6001Z" fill="#1F1A54"/>
<path d="M203.9 81.2001C203.8 81.4001 203.8 81.5001 203.7 81.7001C207.2 80.4001 206.2 76.8001 205.3 74.4001C204.6 72.4001 205.9 69.6001 206.8 66.7001C206.9 66.4001 207 66.1001 207 65.7001C206.2 65.7001 205.5 65.8001 204.7 65.8001C204.9 71.3001 204.9 78.1001 203.9 81.2001Z" fill="#1F1A54"/>
<path d="M195.9 88.2C193.8 88.2 190.1 87.5 187.9 85.3C187.7 85.1 187.7 84.9 187.9 84.7C188.1 84.5 188.3 84.5 188.5 84.7C190.9 87 195.1 87.5 196.8 87.3C197.1 87.3 197.4 87.2 197.6 87.1C200.5 86.4 202.3 84.6 203.4 81.5V81.4C203.4 81.3 203.5 81.2 203.5 81C204.3 78.5 204.6 72.8 204.3 65.6C204.3 65.4 204.5 65.2 204.7 65.2C204.9 65.2 205.1 65.4 205.1 65.6C205.2 69.1 205.4 77.6 204.3 81.3C204.2 81.5 204.2 81.6 204.1 81.8C204.1 81.8 204.1 81.8 204.1 81.9C202.9 85.3 200.8 87.2 197.8 88C197.5 88.1 197.2 88.1 196.9 88.2C196.6 88.1 196.2 88.2 195.9 88.2Z" fill="#1F1A54"/>
<path d="M182.3 90.3C182.1 90.3 181.9 90.1 181.9 89.9V83.7C181.9 83.5 182.1 83.3 182.3 83.3C182.5 83.3 182.7 83.5 182.7 83.7V89.9C182.7 90.2 182.6 90.3 182.3 90.3Z" fill="#1F1A54"/>
<path d="M197.6 92.2C197.4 92.2 197.2 92 197.2 91.8V87.6C197.2 87.4 197.4 87.2 197.6 87.2C197.8 87.2 198 87.4 198 87.6V91.8C198 92 197.9 92.2 197.6 92.2Z" fill="#1F1A54"/>
<path d="M171.9 76.6C171.8 76.6 171.6 76.5 171.5 76.4C170.2 74 167.4 67.5 169.7 59.7C171.2 54.7 174.3 50.7 178.8 48.3C183.4 45.8 189 45.2 194.1 46.7C203.1 49.4 207.2 57.2 207.7 58.2C207.7 58.3 207.8 58.3 207.8 58.4C207.8 58.7 207.3 58.9 207.1 58.7C207.1 58.7 207 58.6 207 58.5C206.5 57.5 202.5 50 193.9 47.5C189 46 183.7 46.6 179.2 49C174.9 51.3 171.9 55.1 170.5 59.9C168.3 67.5 171 73.7 172.2 76C172.3 76.2 172.2 76.4 172 76.5C172.1 76.6 172 76.6 171.9 76.6Z" fill="#1F1A54"/>
<path d="M185.4 84.6C185.3 84.6 185.2 84.6 185.1 84.6C184.2 84.6 183.2 84.4 182.3 84.1C180.7 83.6 179 82.9 177.3 81.9C175.8 81 173.8 79.5 173.1 78.6C172.6 77.9 172.1 77.2 171.7 76.4C171.6 76.2 171.7 76 171.9 75.9C172.1 75.8 172.3 75.9 172.4 76.1C172.8 76.8 173.3 77.5 173.8 78.2C174.3 78.9 176.2 80.3 177.8 81.3C179.4 82.3 181.1 83 182.6 83.4C183.5 83.6 184.4 83.8 185.2 83.8C186.1 83.8 186.9 83.7 187.4 83.4C189.3 82.3 188.1 78.9 187.1 77C185.7 74.2 185.6 69.1 187.7 65.5C187.8 65.3 188.1 65.2 188.2 65.4C188.4 65.5 188.5 65.8 188.3 65.9C186.3 69.3 186.5 74 187.7 76.6C190 81.4 188.9 83.3 187.6 84C187.1 84.5 186.3 84.6 185.4 84.6Z" fill="#1F1A54"/>
<path d="M203.7 82.1C203.5 82.1 203.4 82.0001 203.3 81.8001C203.2 81.6001 203.3 81.4001 203.5 81.3001C206.4 80.2001 205.9 77.4001 204.9 74.5001C204.3 72.8001 205 70.6001 205.8 68.3001C206 67.7001 206.2 67.1001 206.4 66.5001C206.5 66.2001 206.6 65.8001 206.6 65.5001C206.6 65.4001 206.7 65.3 206.7 65.2C206.9 65 207.1 65 207.3 65.2C207.4 65.3 207.4 65.5001 207.4 65.6001C207.4 66.0001 207.3 66.3001 207.2 66.6001C207 67.2001 206.8 67.8001 206.6 68.4001C205.9 70.6001 205.2 72.6 205.7 74.1C206.4 76 207.9 80.4001 203.8 81.9001C203.8 82.1001 203.8 82.1 203.7 82.1Z" fill="#1F1A54"/>
<path d="M209.7 62C209.5 62 209.3 61.9001 209.3 61.7001C209 60.2001 208.1 60.1 208.1 60.1C207.9 60.1 207.7 59.9001 207.7 59.7001C207.7 59.5001 207.9 59.3 208.1 59.3C208.2 59.3 209.6 59.4 210 61.6C210.1 61.8 210 62 209.7 62Z" fill="#1F1A54"/>
<path d="M191.7 66.4C190.4 66.4 189.4 66.4 188.8 66.3C188.2 66.3 187.6 66.2 187.6 65.7C187.7 64.8 191.9 60.8 199.6 59.5C202.2 59.1 206 58.7 208.2 59.3C208.4 59.4 208.5 59.6 208.5 59.8C208.5 60 208.2 60.1 208 60.1C205.9 59.6 202.2 59.9 199.7 60.4C193.4 61.5 189.6 64.5 188.6 65.6C188.7 65.6 188.7 65.6 188.8 65.6C190.7 65.8 196.2 65.7 204.7 65.3L207.1 65.2C210.3 65.1 212.5 65 213.2 64.9C212.9 64.6 212.1 64 211.5 63.6C211 63.3 210.5 62.9 210 62.5C209.7 62.3 209.5 62.1 209.4 62C208.9 61.6 208.6 61.2 208.8 60.9C208.9 60.7 209.2 60.7 209.4 60.8C209.5 60.9 209.5 60.9 209.6 61C209.6 61 209.7 61.2 210 61.4C210.2 61.5 210.3 61.7 210.6 61.9C211.1 62.3 211.6 62.6 212.1 63C213.7 64.2 214.4 64.7 214.2 65.3C214.1 65.8 213.5 65.8 213.3 65.8C212.6 65.8 210.4 66 207.2 66.1L204.8 66.2C200.4 66.2 195.1 66.4 191.7 66.4Z" fill="#1F1A54"/>
<path d="M184.5 82.2C184.2 82.2 183.8 82.2 183.3 82.1C182.9 82 182.6 82 182.2 81.9C177.6 80.8 171.7 76.6 171.7 76.5C171.7 76.5 171.7 76.5 171.6 76.5C171.4 76.3 171.4 76.1 171.6 75.9C171.8 75.7 172 75.7 172.2 75.9C172.6 76.2 178.2 80 182.4 81.1C182.7 81.2 183.1 81.3001 183.4 81.3001C184.6 81.5001 185.2 81.4 185.5 81.1C185.9 80.6 185.4 79.1 184.8 77.2C182.2 69.4 184.1 63.7 190.3 60.8C197.4 57.5 205.1 57.4 206.5 57.7C207 57.8 207.4 57.9 207.7 58C209.5 58.6 210.4 59.8 210.2 61.5C210.2 61.7 210 61.9 209.8 61.9C209.6 61.9 209.4 61.7 209.4 61.5C209.6 60.2 208.9 59.4 207.5 58.9C207.2 58.8 206.9 58.7 206.4 58.6C205.3 58.4 197.7 58.5 190.7 61.6C184.9 64.3 183.2 69.6 185.6 77C186.4 79.3 186.8 80.8 186.2 81.6C185.8 82.1 185.3 82.2 184.5 82.2Z" fill="#1F1A54"/>
<path d="M188.8 66.2C188.7 66.2 188.6 66.2 188.5 66.1C188.3 65.9 188.3 65.7 188.5 65.5C188.6 65.4 191.5 62.4 197.2 60.7C199.8 59.9 202.7 59.6 206.1 59.5C207.9 59.5 209.2 60 209.5 60.8C209.6 61 209.5 61.2 209.3 61.3C209.1 61.4 208.9 61.3 208.8 61.1C208.7 60.8 207.8 60.3 206.2 60.3H206.1C202.8 60.3 200 60.7 197.4 61.4C192 63 189.1 65.9 189.1 65.9C189 66.1 188.9 66.2 188.8 66.2Z" fill="#1F1A54"/>
<path d="M192.8 71.5C193.297 71.5 193.7 71.0076 193.7 70.4C193.7 69.7925 193.297 69.3 192.8 69.3C192.303 69.3 191.9 69.7925 191.9 70.4C191.9 71.0076 192.303 71.5 192.8 71.5Z" fill="#1F1A54"/>
<path d="M200.8 71.6C201.297 71.6 201.7 71.1075 201.7 70.5C201.7 69.8925 201.297 69.4 200.8 69.4C200.303 69.4 199.9 69.8925 199.9 70.5C199.9 71.1075 200.303 71.6 200.8 71.6Z" fill="#1F1A54"/>
<path d="M194.8 67.5C194.7 67.5 194.6 67.5 194.6 67.4C193.8 66.8 192.4 66.8 191.5 67.3C191.3 67.4 191.1 67.4 190.9 67.2C190.8 67 190.8 66.8 191 66.6C192.1 65.9 193.9 65.9 195 66.7C195.2 66.8 195.2 67.1 195.1 67.3C195.1 67.5 195 67.5 194.8 67.5Z" fill="#1F1A54"/>
<path d="M202.4 67.5C202.3 67.5 202.2 67.5 202.2 67.4C201.4 66.8 200 66.8 199.1 67.3C198.9 67.4 198.7 67.4 198.5 67.2C198.4 67 198.4 66.8 198.6 66.6C199.7 65.9 201.5 65.9 202.6 66.7C202.8 66.8 202.8 67.1 202.7 67.3C202.7 67.5 202.6 67.5 202.4 67.5Z" fill="#1F1A54"/>
<path d="M193.9 81.1C193.8 81.1 193.8 81.1 193.9 81.1C190.3 80.4 189.6 77.2 189.5 77.1C189.5 76.9 189.6 76.7 189.8 76.6C190 76.5 190.2 76.7 190.3 76.9C190.3 77 191 79.7 194 80.3C194.2 80.3 194.4 80.6 194.3 80.8C194.2 80.9 194 81.1 193.9 81.1Z" fill="#1F1A54"/>
<path d="M196.9 76.2C196.1 76.2 195.5 75.9 195.4 75.8C195.2 75.7 195.1 75.5 195.2 75.3C195.3 75.1 195.5 75 195.7 75.1C195.7 75.1 196.8 75.7 197.6 75.1C197.8 75 198 75 198.2 75.2C198.3 75.4 198.3 75.6 198.1 75.8C197.7 76.1 197.3 76.2 196.9 76.2Z" fill="#1F1A54"/>
<path d="M199.4 90.4H197.7C197.5 90.4 197.3 90.2 197.3 90C197.3 89.8 197.5 89.6 197.7 89.6H199.4C199.6 89.6 199.8 89.8 199.8 90C199.8 90.2 199.6 90.4 199.4 90.4Z" fill="#1F1A54"/>
<path d="M181.9 89.4H179.8C179.6 89.4 179.4 89.2 179.4 89C179.4 88.8 179.6 88.6 179.8 88.6H181.9C182.1 88.6 182.3 88.8 182.3 89C182.3 89.2 182.1 89.4 181.9 89.4Z" fill="#1F1A54"/>
<path d="M192.4 87.1C192.5 88 195.3 88.9 196.7 88.8C198.5 88.7 200 87.6 199.9 86.9C199.8 86.2 198.7 86.6 197.3 86.7C195.8 86.9 192.3 86.4 192.4 87.1Z" fill="#1F1A54"/>
<path d="M173.5 60.3001C173.4 60.3001 173.4 60.3001 173.3 60.3001C173 60.2001 172.9 59.9001 173 59.7001C173.4 58.5001 174 57.4001 174.7 56.4001C174.9 56.2001 175.2 56.1001 175.4 56.3001C175.6 56.5001 175.7 56.8001 175.5 57.0001C174.9 58.0001 174.3 59.0001 173.9 60.1001C173.9 60.2001 173.7 60.3001 173.5 60.3001Z" fill="white"/>
<path d="M173.1 72.1C172.9 72.1 172.7 72 172.6 71.7C172.5 71.5 171.3 67.4 172.2 62.6C172.2 62.3 172.5 62.1 172.8 62.2C173.1 62.2 173.3 62.5 173.2 62.8C172.4 67.4 173.6 71.4 173.6 71.5C173.7 71.8 173.5 72 173.3 72.1C173.2 72.1 173.1 72.1 173.1 72.1Z" fill="white"/>
<path d="M213.7 129C213.5 131 213.4 132.9 213.4 134.4C213.4 136.3 213.5 141 213.6 146.5L191.3 159.4L166.8 145.3L167 129.1L164.1 129.7C164.1 129.7 155.5 106.9 159.9 101.6C163.4 97.4 179.9 92.4 179.9 92.4V89L182.4 90.1L191.3 94.2V97L193.5 99L195.3 97V94.2L197.7 91.7L199.4 89.9V92.9C199.4 92.9 212 98 215.3 100.8C217.5 102.7 219.3 104.9 219.9 112.4C220.9 124.1 220.9 128.9 220.9 128.9H213.7V129Z" fill="#FFD400"/>
<path d="M191.2 159.9C191.1 159.9 191.1 159.9 191 159.8L166.5 145.7C166.4 145.6 166.3 145.5 166.3 145.3L166.5 129.1C166.5 128.9 166.7 128.7 166.9 128.7C167.1 128.7 167.3 128.9 167.3 129.1L167.1 145L191.2 158.9L213.3 146.1C213.5 146 213.7 146.1 213.8 146.2C213.9 146.4 213.8 146.6 213.7 146.7L191.4 159.6C191.4 159.8 191.3 159.9 191.2 159.9Z" fill="#1F1A54"/>
<path d="M164.1 130.2C163.9 130.2 163.8 130.1 163.7 129.9C163.3 129 155 106.9 159.5 101.4C162.8 97.4 177.1 92.8 179.4 92.1V89C179.4 88.9 179.5 88.7 179.6 88.7C179.7 88.6 179.9 88.6 180 88.7L191.3 93.9C191.4 94 191.5 94.1 191.5 94.3V96.9L193.3 98.5L194.8 96.9V94.3C194.8 94.2 194.8 94.1 194.9 94L199.1 89.8C199.2 89.7 199.4 89.6 199.5 89.7C199.7 89.8 199.7 89.9 199.7 90.1V92.9C201.5 93.7 212.4 98.2 215.5 100.8C217.7 102.7 219.6 104.9 220.3 112.7C221.3 124.3 221.3 129.2 221.3 129.2C221.3 129.4 221.1 129.6 220.9 129.6H213.7C213.5 129.6 213.3 129.4 213.3 129.2C213.3 129 213.5 128.8 213.7 128.8H220.5C220.5 127.4 220.3 122.4 219.5 112.8C218.9 105.3 217.1 103.2 215 101.4C211.8 98.7 199.3 93.6 199.2 93.6C199 93.5 199 93.4 199 93.2V91L195.6 94.4V97C195.6 97.1 195.6 97.2 195.5 97.3L193.7 99.3C193.6 99.5 193.3 99.5 193.1 99.3L190.9 97.3C190.8 97.2 190.8 97.1 190.8 97V94.5L180.3 89.6V92.5C180.3 92.7 180.2 92.8 180 92.9C179.8 92.9 163.6 98 160.2 102C156.3 106.7 163.4 126.6 164.4 129.4L178.7 126.5L175.2 114.8C175.1 114.6 175.3 114.4 175.5 114.3C175.7 114.2 175.9 114.4 176 114.6L179.6 126.7C179.6 126.8 179.6 126.9 179.6 127C179.5 127.1 179.4 127.2 179.3 127.2L164.1 130.2Z" fill="#1F1A54"/>
<path d="M213.6 146.6H213.2C213.1 142.3 213 136.6 213 134.4C213 133.1 213.1 131.3 213.3 129C213.8 122.5 214.9 114.6 215 114.5C215 114.3 215.2 114.1 215.5 114.2C215.7 114.2 215.9 114.4 215.8 114.7C215.8 114.8 214.7 122.6 214.2 129.1C214 131.4 213.9 133.2 213.9 134.5C213.9 136.2 214 140.4 214.1 146.6H213.6Z" fill="#1F1A54"/>
<path d="M194.8 118.3C194.6 118.3 194.4 118.1 194.4 117.9C194.4 117.8 194.1 106.7 193.9 104.4C193.7 102.1 193 99.2 192.9 99.1C192.8 98.9 193 98.7 193.2 98.6C193.4 98.5 193.6 98.7 193.7 98.9C193.7 99 194.5 101.9 194.7 104.3C194.9 106.6 195.2 117.4 195.2 117.9C195.3 118.1 195.1 118.3 194.8 118.3C194.9 118.3 194.9 118.3 194.8 118.3Z" fill="#1F1A54"/>
<path d="M205.2 125C205.1 125 205.1 125 205 124.9L199.2 121.6C199.1 121.5 199 121.4 199 121.3V114.6C199 114.5 199.1 114.3 199.2 114.3L205 111C205.1 110.9 205.3 110.9 205.4 111L211.2 114.3C211.3 114.4 211.4 114.5 211.4 114.6V121.3C211.4 121.4 211.3 121.6 211.2 121.6L205.4 124.9C205.4 125 205.3 125 205.2 125ZM199.9 121L205.3 124.1L210.7 121V114.8L205.3 111.7L199.9 114.8V121Z" fill="#1F1A54"/>
<path d="M191.3 101.6C191.687 101.6 192 101.287 192 100.9C192 100.513 191.687 100.2 191.3 100.2C190.913 100.2 190.6 100.513 190.6 100.9C190.6 101.287 190.913 101.6 191.3 101.6Z" fill="#1F1A54"/>
<path d="M192 108.1C192.387 108.1 192.7 107.787 192.7 107.4C192.7 107.013 192.387 106.7 192 106.7C191.613 106.7 191.3 107.013 191.3 107.4C191.3 107.787 191.613 108.1 192 108.1Z" fill="#1F1A54"/>
<path d="M192.3 115C192.687 115 193 114.687 193 114.3C193 113.913 192.687 113.6 192.3 113.6C191.913 113.6 191.6 113.913 191.6 114.3C191.6 114.687 191.913 115 192.3 115Z" fill="#1F1A54"/>
<path d="M229 214.1L208 204.5C205.5 203.2 204.8 200.4 205.5 197.7C207.8 188.9 216.8 179.3 216.9 174.2C216.9 172.3 216.7 168.3 217.5 165.6C217.8 164.4 218.2 163.7 218.7 161.8C219 160.6 219.2 158.9 219.2 158C219.2 157.2 219.2 155.1 220.6 155.2C221.2 155.3 221.5 156 221.6 156.3C221.7 156.7 221.8 157.3 221.8 158.3C221.8 159.2 222.2 161.6 222.2 161.6C222.2 161.6 222.7 157.8 222.8 156.5C222.8 155.6 222.7 153.3 224.2 153.3C224.9 153.3 225.4 154.1 225.5 154.5C225.6 155 225.6 155.4 225.5 156.4C225.4 157.2 225.6 161 225.6 161C225.6 161 226.5 156.2 226.6 154.9C226.7 153.9 226.9 151.2 228.8 151.4C230 151.6 230 153.8 229.9 155.1C229.8 156.8 228.9 162.1 228.9 162.1L230.7 156.6C230.7 156.6 231.4 154.3 232.9 154.7C234.5 155.1 233.9 156.8 233.8 157.6C233 161.5 231.9 165.7 231.2 167.8C230.2 170.8 236.7 166 238.1 168.1C239.5 170.2 226.5 175.6 225.1 181L220.4 194.4L231.8 196.9L229 214.1Z" fill="white"/>
<path d="M229 214.5C228.9 214.5 228.9 214.5 228.8 214.5L207.8 204.9C205.3 203.6 204.2 200.7 205 197.6C206.2 193.1 209.1 188.4 211.6 184.2C214.1 180.1 216.3 176.6 216.3 174.2C216.3 173.8 216.3 173.3 216.3 172.7C216.3 170.6 216.2 167.6 216.9 165.4C217 165 217.1 164.6 217.3 164.2C217.5 163.5 217.8 162.8 218.1 161.6C218.4 160.5 218.6 158.8 218.6 157.9C218.6 156.9 218.7 155.7 219.4 155.1C219.7 154.8 220.1 154.7 220.5 154.8C221.3 154.9 221.7 155.8 221.8 156.3C221.9 156.8 222 157.4 222 158.4C222.1 157.6 222.2 156.9 222.2 156.5V156.3C222.2 155.3 222.3 153 224 152.9C225 152.8 225.6 153.9 225.7 154.4C225.8 154.9 225.8 155.3 225.7 156.5C225.7 156.6 225.7 156.7 225.7 156.9C225.8 156 226 155.3 226 154.9V154.6C226.1 153.5 226.5 150.8 228.6 151.1C230.3 151.3 230.1 154.2 230 155.2C230 155.8 229.8 156.7 229.7 157.7L230.1 156.5C230.4 155.5 231.3 153.9 232.8 154.3C234.6 154.8 234.2 156.6 234 157.5V157.7C233.2 161.6 232.1 165.8 231.4 168C231.3 168.4 231.3 168.5 231.3 168.5C231.5 168.6 232.7 168.2 233.4 168C235.2 167.4 237.3 166.7 238.2 168C239.1 169.3 236.7 170.9 233.5 173.2C230.1 175.5 226 178.4 225.3 181.2L220.7 194.2L231.7 196.6C231.9 196.6 232 196.8 232 197.1L229.3 214.4C229.3 214.5 229.2 214.6 229.1 214.7C229.1 214.5 229.1 214.5 229 214.5ZM220.3 155.5C220.1 155.5 220 155.5 219.9 155.6C219.4 156.1 219.4 157.4 219.4 157.9C219.4 158.9 219.2 160.6 218.9 161.8C218.6 163 218.3 163.8 218.1 164.5C218 164.9 217.9 165.2 217.7 165.6C217.1 167.7 217.1 170.5 217.2 172.6C217.2 173.2 217.2 173.7 217.2 174.1C217.2 176.7 214.9 180.3 212.3 184.5C209.8 188.6 206.9 193.3 205.8 197.6C205.1 200.3 206 202.8 208.1 203.9L228.6 213.3L231.1 196.9L220 194.5C219.9 194.5 219.8 194.4 219.7 194.3C219.6 194.2 219.6 194.1 219.7 194L224.4 180.6C225.2 177.5 229.5 174.5 232.9 172.1C235.1 170.6 237.8 168.7 237.4 168C236.9 167.2 235 167.8 233.5 168.3C232.1 168.8 231.1 169.1 230.5 168.6C230.1 168.2 230.3 167.5 230.4 167.3C231.1 165.1 232.2 161 233 157.1V156.9C233.3 155.6 233.3 154.9 232.4 154.6C231.3 154.3 230.7 156.2 230.7 156.3L228.9 161.8C228.8 162 228.6 162.1 228.4 162.1C228.2 162.1 228.1 161.9 228.1 161.6C228.1 161.5 228.9 156.3 229.1 154.7C229.3 152.7 229 151.6 228.4 151.5C227.3 151.4 226.9 152.8 226.7 154.4V154.7C226.5 155.9 225.7 160.6 225.7 160.8C225.7 161 225.5 161.1 225.3 161.1C225.1 161.1 224.9 160.9 224.9 160.7C224.9 160.5 224.8 156.9 224.8 156.1C224.9 155 224.9 154.7 224.8 154.3C224.8 154.1 224.4 153.5 223.9 153.5C223 153.5 222.9 154.8 222.9 156.1V156.3C222.9 157.6 222.3 161.3 222.3 161.4C222.3 161.6 222.1 161.7 221.9 161.7C221.7 161.7 221.5 161.6 221.5 161.4C221.5 161.3 221.1 159 221.1 158.1C221.1 157.2 221 156.7 220.9 156.3C221 156.2 220.8 155.6 220.3 155.5C220.4 155.5 220.3 155.5 220.3 155.5Z" fill="#1F1A54"/>
<path d="M215.4 198.7C215.2 198.7 215 198.6 215 198.4C215 198.2 215.1 198 215.3 197.9C218.8 197.3 219.67 194 219.67 194C219.77 193.8 220.5 193 220.7 193C220.9 193.1 221 193.3 221 193.5C220.9 193.7 219.4 198 215.4 198.7Z" fill="#1F1A54"/>
<path d="M229.4 113C229.1 111.6 228.5 110.3 228 109C227.9 108.8 227.8 108.6 227.9 108.4C228.5 108.7 228.8 109.2 229 109.8C229.9 112 230.3 114.3 229.8 116.7C229.8 116.9 229.7 117.1 229.8 117.3C230 117.3 230.1 117.2 230.2 117.1C231.1 116.3 232 115.5 232.8 114.7C233.3 114.3 233.7 113.7 234 113.2C234.3 112.6 234.7 112 235.1 111.4C235.7 110.3 236.2 109.1 236.5 107.8C237 105.8 236.6 104 235.5 102.2C234.8 101.1 233.9 100.4 232.7 99.9001C231.8 99.6001 231 99.6001 230.2 100.1C230 100.2 229.8 100.4 229.5 100.5C229.1 100.7 228.7 100.9 228.2 100.6C227.7 100.4 227.7 99.8001 228.1 99.5001C228.2 99.4001 228.3 99.4001 228.4 99.3001C229.1 99.0001 229.6 98.5001 230.2 98.0001C230.7 97.5001 230.9 97.0001 231 96.3001C231 95.6001 231.1 94.9001 231.1 94.2001C231.1 92.5001 230.7 91.0001 229.7 89.6001C229.1 88.8001 228.3 88.2001 227.3 87.9001C226.1 87.6001 225 87.3001 223.9 86.8001C222.5 86.2001 221 85.7001 219.4 86.0001C217.8 86.3001 216.3 86.7001 214.9 87.5001C214.8 87.5001 214.7 87.6001 214.7 87.7001C214.8 87.8001 214.9 87.8001 215 87.9001C215.9 88.2001 216.7 88.6001 217.5 89.1001C218.9 89.9001 220 91.1001 220.9 92.4001C221.6 93.4001 222 94.5001 222.6 95.6001C222.7 95.8001 222.9 96.1001 222.7 96.2001C222.5 96.4001 222.3 96.1001 222.1 96.0001C221.6 95.7001 221.4 95.2001 221.1 94.8001C220.4 94.0001 219.7 93.2001 218.9 92.3001C218.6 91.9001 218.2 91.5001 217.9 91.1001C217.4 90.4001 216.8 89.8001 216.1 89.2001C215.2 88.5001 214.2 88.5001 213.2 88.9001C211.7 89.4001 210.6 90.4001 209.5 91.5001C209 92.0001 208.5 92.4001 208 92.7001C207.8 92.8001 207.7 92.9001 207.6 93.1001C207.7 93.2001 207.7 93.2001 207.7 93.2001C207.8 93.2001 207.8 93.2001 207.9 93.2001C208.9 93.0001 209.9 93.2001 210.9 93.6001C212.1 94.0001 213.3 94.5001 214.5 95.0001C215.8 95.5001 217 96.3001 218.2 97.2001C218.7 97.6001 219 98.0001 219.2 98.7001C218.7 98.7001 218.4 98.6001 218.1 98.4001C217.6 98.1001 217.1 97.8001 216.6 97.5001C214.3 95.7001 211.7 94.9001 208.9 94.4001C208.5 94.3001 208.2 94.3001 207.8 94.3001C207.3 94.3001 206.8 94.3001 206.4 94.5001C205.7 94.9001 205 95.4001 204.5 96.1001C203.9 96.9001 203.3 97.7001 203 98.6001C202.7 99.5001 202.5 100.4 202.2 101.3C202.1 101.6 202.2 101.7 202.5 101.6C202.7 101.5 202.9 101.5 203 101.4C203.5 101.2 204 101 204.5 100.9C207.7 100.4 210.9 100.4 213.9 101.7C214.6 102 215.2 102.4 215.7 103.1C216.1 103.7 215.9 104.2 215.2 104.3C214.6 104.4 213.9 104.4 213.3 104.1C212.3 103.7 211.3 103.4 210.4 102.9C207.8 101.7 205 101.5 202.3 102.5C201.6 102.8 201 103.2 200.7 104C199.9 105.8 199.6 107.8 199.6 109.7C199.6 109.8 199.6 109.9 199.7 109.9C199.7 109.9 199.8 109.9 199.8 109.8C200.4 109.1 201.1 108.5 201.8 107.9C202.4 107.3 203.2 107 204 106.8C205.7 106.4 207.5 106.5 209.2 107C209.7 107.1 210.2 107.4 210.5 107.9C210.9 108.4 210.9 108.6 210.4 109C209.8 109.5 209 109.6 208.3 109.7C207.7 109.7 207 109.6 206.4 109.5C204.2 109.2 202.1 109.6 200.3 111.1C200.1 111.3 199.9 111.5 199.9 111.8C199.7 112.6 199.7 113.5 199.8 114.4C200 115.4 200.2 116.4 200.5 117.4C200.9 118.7 201.2 120 201.1 121.3L201.2 121.4C201.3 121.4 201.4 121.2 201.5 121.2C202.7 120.3 203.5 120.1 204.7 120.8C206.3 121.8 208.1 122.3 210 122.7C210.7 122.8 211.4 122.9 212.1 122.7C212.5 122.6 212.8 122.5 213 122.2C213.3 121.8 213.6 121.5 213.9 121.1C214.9 119.5 215.4 117.7 215.6 115.8C215.7 115.2 215.7 114.7 215.8 114.1C215.9 113.2 216.1 112.3 216.6 111.5C216.9 111.1 217.2 111 217.6 111.3C217.9 111.5 218 111.9 218.1 112.2C218.3 113.5 218.2 114.7 217.9 115.9C217.4 118 216.6 120.1 215.3 121.9C215.2 122 215.1 122.2 215.1 122.3C215 122.5 215.1 122.6 215.2 122.7C215.4 122.8 215.7 122.8 216 122.9C217.6 123 219.2 122.5 220.7 122.1C221.1 122 221.4 121.7 221.6 121.3C222.2 120.3 222.6 119.2 222.8 118.1C223.1 116.5 223 114.9 222.8 113.3C222.7 112.5 222.6 111.7 222.5 110.9C222.5 110.5 222.5 110.1 222.6 109.7C222.7 109.5 222.8 109.4 223 109.4C223.2 109.4 223.3 109.6 223.3 109.7C223.6 110.2 223.8 110.7 223.8 111.3C224 112.3 223.9 113.4 223.9 114.4C223.9 116.6 223.5 118.7 222.7 120.7C222.6 120.9 222.4 121.2 222.6 121.4C222.8 121.6 223.1 121.4 223.4 121.3C225.4 120.6 227.3 119.5 228.9 118.1C229.4 117.7 229.6 117.2 229.8 116.6C229.8 115.5 229.6 114.2 229.4 113Z" fill="#1F1A54"/>
<path d="M248.6 78.2C245.7 84.4 243.1 90.8 240.7 97.2C238.3 103.6 236 110.1 233.9 116.6C231.8 123.1 230 129.7 228.4 136.4C226.8 143 225.5 149.8 224.5 156.5C224.4 157.2 223.8 157.6 223.1 157.5C222.4 157.4 222 156.8 222.1 156.1C223.3 149.3 224.7 142.5 226.5 135.9C228.3 129.2 230.2 122.6 232.5 116.1C234.7 109.6 237.1 103.1 239.7 96.7C242.3 90.3 245 84 248 77.8C248.1 77.6 248.3 77.5 248.5 77.6C248.7 77.8 248.7 78 248.6 78.2Z" fill="#1F1A54"/>
<path d="M227.2 102.2C227.6 106 227.7 109.7 227.8 113.4C227.9 117.1 227.8 120.9 227.7 124.6C227.6 128.3 227.4 132.1 227.1 135.8C226.8 139.5 226.5 143.3 226.1 147C226 147.7 225.4 148.2 224.8 148.1C224.1 148 223.6 147.4 223.7 146.8C224.2 143.1 224.7 139.4 225.1 135.7C225.5 132 225.8 128.3 226.1 124.6C226.3 120.9 226.5 117.2 226.6 113.4C226.7 109.7 226.6 105.9 226.4 102.2C226.4 102 226.6 101.8 226.8 101.8C227 101.8 227.1 102 227.2 102.2Z" fill="#1F1A54"/>
<path d="M240.9 113.1C239 115.5 237.4 118.2 236 120.9C234.6 123.6 233.3 126.5 232.2 129.4C231.1 132.3 230.1 135.2 229.4 138.2C229 139.7 228.7 141.2 228.3 142.7C228 144.2 227.7 145.7 227.4 147.3C227.3 147.7 227 147.9 226.6 147.9C226.2 147.8 226 147.5 226 147.1C226.3 145.6 226.6 144 226.9 142.5C227.3 141 227.6 139.4 228.1 137.9C228.9 134.9 229.9 131.9 231.1 129C232.3 126.1 233.6 123.2 235 120.5C236.5 117.7 238.1 115.1 240.1 112.6C240.3 112.4 240.6 112.3 240.8 112.5C241.1 112.6 241.1 112.9 240.9 113.1Z" fill="#1F1A54"/>
<path d="M258.3 76.9001C256.8 76.9001 255.4 77.2001 254 77.4001C253.8 77.4001 253.6 77.6001 253.4 77.4001C253.8 76.9001 254.4 76.7001 255 76.6001C257.4 76.2001 259.8 76.3001 262.1 77.3001C262.3 77.4001 262.5 77.5001 262.7 77.4001C262.7 77.2001 262.6 77.1001 262.6 76.9001C262 75.9001 261.4 74.8001 260.8 73.8001C260.5 73.2001 260 72.7001 259.5 72.3001C258.9 71.8001 258.4 71.3001 257.9 70.8001C256.9 69.9001 255.8 69.2001 254.7 68.6001C252.8 67.7001 250.9 67.7001 248.9 68.4001C247.6 68.8001 246.7 69.6001 246 70.7001C245.5 71.5001 245.4 72.3001 245.7 73.2001C245.8 73.5001 245.9 73.7001 246 74.0001C246.1 74.5001 246.2 74.9001 245.8 75.3001C245.5 75.7001 244.9 75.7001 244.6 75.2001C244.6 75.1001 244.5 75.0001 244.5 74.9001C244.4 74.2001 244 73.5001 243.6 72.9001C243.2 72.3001 242.7 72.0001 242.1 71.8001C241.4 71.6001 240.7 71.4001 240 71.3001C238.3 70.9001 236.7 71.0001 235.1 71.7001C234.1 72.1001 233.4 72.8001 232.9 73.7001C232.4 74.8001 231.8 75.9001 231 76.8001C230 78.1001 229.2 79.4001 229.2 81.1001C229.2 82.7001 229.2 84.4001 229.7 85.9001C229.7 86.0001 229.7 86.1001 229.9 86.2001C230.1 86.2001 230.1 86.0001 230.2 85.9001C230.7 85.1001 231.3 84.4001 231.9 83.7001C233 82.4001 234.4 81.6001 235.9 81.1001C237.1 80.6001 238.3 80.4001 239.5 80.2001C239.7 80.1001 240 80.0001 240.1 80.3001C240.2 80.5001 239.9 80.7001 239.7 80.8001C239.3 81.2001 238.7 81.3001 238.2 81.6001C237.2 82.1001 236.2 82.7001 235.3 83.2001C234.8 83.5001 234.4 83.7001 233.9 83.9001C233.1 84.2001 232.3 84.7001 231.6 85.3001C230.7 86.1001 230.5 87.0001 230.7 88.1001C230.9 89.7001 231.6 91.1001 232.5 92.4001C232.9 93.0001 233.2 93.5001 233.4 94.2001C233.5 94.4001 233.5 94.6001 233.7 94.7001C233.8 94.7001 233.8 94.6001 233.8 94.6001C233.8 94.5001 233.8 94.5001 233.9 94.4001C233.9 93.3001 234.4 92.4001 234.9 91.5001C235.6 90.4001 236.3 89.3001 237.1 88.2001C237.9 87.0001 238.9 85.9001 240.1 85.0001C240.6 84.6001 241.1 84.4001 241.8 84.3001C241.7 84.8001 241.5 85.1001 241.3 85.4001C240.9 85.9001 240.5 86.3001 240 86.7001C237.7 88.6001 236.3 91.1001 235.2 93.8001C235.1 94.2001 234.9 94.5001 234.8 94.9001C234.7 95.4001 234.5 95.9001 234.7 96.4001C235 97.2001 235.3 98.0001 235.8 98.6001C236.5 99.3001 237.1 100.1 238 100.7C238.8 101.2 239.6 101.6 240.5 102.1C240.8 102.3 240.9 102.2 240.9 101.8C240.9 101.6 240.8 101.4 240.8 101.2C240.7 100.7 240.6 100.1 240.6 99.6001C240.8 96.3001 241.6 93.1001 243.5 90.3001C244 89.7001 244.5 89.1001 245.2 88.8001C245.9 88.5001 246.3 88.8001 246.3 89.5001C246.3 90.2001 246.1 90.8001 245.7 91.3001C245.1 92.2001 244.5 93.1001 243.9 93.9001C242.1 96.3001 241.3 98.9001 241.6 101.9C241.7 102.7 242 103.3 242.7 103.8C244.4 105 246.2 105.7 248.2 106.2C248.3 106.2 248.4 106.2 248.4 106.1C248.4 106.1 248.4 106 248.4 105.9C247.8 105.1 247.4 104.3 246.9 103.5C246.5 102.7 246.3 101.9 246.3 101C246.3 99.2001 246.8 97.5001 247.6 95.9001C247.9 95.4001 248.3 95.0001 248.8 94.8001C249.4 94.5001 249.6 94.6001 249.9 95.2001C250.3 95.9001 250.2 96.7001 250.1 97.5001C250 98.2001 249.7 98.8001 249.5 99.4001C248.7 101.6 248.6 103.7 249.7 105.8C249.8 106.1 250 106.2 250.3 106.4C251.1 106.8 251.9 107 252.8 107.1C253.9 107.2 254.9 107.1 256 107.1C257.4 107 258.7 107 260.1 107.4C260.1 107.4 260.2 107.4 260.3 107.3C260.3 107.1 260.2 107.1 260.1 106.9C259.4 105.5 259.5 104.6 260.4 103.7C261.8 102.3 262.7 100.6 263.5 98.8001C263.8 98.1001 264 97.4001 264 96.7001C264 96.3001 264 96.0001 263.7 95.7001C263.4 95.3001 263.1 94.9001 262.8 94.6001C261.4 93.2001 259.7 92.3001 257.9 91.7001C257.4 91.5001 256.8 91.4001 256.2 91.2001C255.3 90.9001 254.5 90.5001 253.8 89.9001C253.4 89.5001 253.4 89.2001 253.8 88.8001C254.1 88.5001 254.5 88.5001 254.8 88.5001C256.1 88.6001 257.3 88.9001 258.5 89.5001C260.5 90.5001 262.4 91.7001 264 93.4001C264.1 93.5001 264.3 93.6001 264.4 93.7001C264.6 93.9001 264.7 93.8001 264.8 93.7001C265 93.5001 265.1 93.2001 265.1 92.9001C265.6 91.3001 265.4 89.6001 265.3 88.0001C265.3 87.6001 265 87.2001 264.7 86.9001C263.8 86.1001 262.8 85.5001 261.7 85.0001C260.2 84.3001 258.5 84.1001 256.9 83.9001C256.1 83.8001 255.3 83.8001 254.5 83.7001C254.1 83.7001 253.7 83.5001 253.3 83.3001C253.1 83.2001 253 83.1001 253 82.9001C253 82.7001 253.2 82.7001 253.4 82.6001C254 82.4001 254.5 82.4001 255.1 82.4001C256.2 82.5001 257.2 82.8001 258.3 83.0001C260.5 83.5001 262.5 84.3001 264.3 85.7001C264.5 85.9001 264.8 86.1001 265 86.0001C265.2 85.9001 265.1 85.5001 265.1 85.2001C264.8 83.0001 264.2 80.9001 263.1 79.0001C262.8 78.4001 262.4 78.1001 261.8 77.8001C260.9 77.0001 259.6 77.0001 258.3 76.9001Z" fill="#1F1A54"/>
<path d="M246.031 149.434L204.304 144.642L199.969 182.395L241.696 187.187L246.031 149.434Z" fill="white"/>
<path d="M241.6 187.5L199.9 182.7C199.8 182.7 199.7 182.6 199.6 182.6C199.5 182.5 199.5 182.4 199.5 182.3L203.8 144.6C203.8 144.4 204 144.2 204.2 144.2L246 149C246.1 149 246.2 149.1 246.3 149.1C246.4 149.2 246.4 149.3 246.4 149.4L242.1 187.1C242 187.4 241.8 187.5 241.6 187.5ZM200.4 182L241.3 186.7L245.5 149.8L204.6 145.1L200.4 182Z" fill="#1F1A54"/>
<path d="M218.2 165.3L220.9 166.6L223.7 166L225.9 167.2L227.7 166.4L225.6 185.3L216 184.2L218.2 165.3Z" fill="#1F1A54"/>
<path d="M196.6 169.4C197.8 170.9 199.8 174.4 202 176.1C202.9 176.8 203.7 177.3 205.1 178.5C206 179.3 207.1 180.6 207.7 181.3C208.1 181.9 209.4 183.7 210.5 182.8C211 182.4 210.8 181.6 210.7 181.3C210.5 180.9 210.3 180.4 209.8 179.6C209.3 178.8 208.3 176.7 208.3 176.7C208.3 176.7 210.9 179.5 211.7 180.5C212.2 181.2 213.4 183.1 214.7 182.3C215.3 181.9 215.3 180.9 215.1 180.6C214.9 180.2 214.7 179.9 214 179C213.5 178.4 211.5 175.2 211.5 175.2C211.5 175.2 215 178.7 215.8 179.6C216.5 180.3 218.2 182.4 219.6 181.2C220.5 180.4 219.2 178.6 218.4 177.6C217.3 176.3 213.6 172.5 213.6 172.5L218.2 175.9C218.2 175.9 220.1 177.4 221.1 176.2C222.2 175 220.8 173.9 220.1 173.3C217.2 170.6 214 167.8 212.1 166.4C209.6 164.5 217.7 164.7 217.6 162.2C217.5 159.6 203.4 163.1 199.5 159.1C194.4 153.9 187.3 143.1 183.9 139.7C180.9 132.7 179.1 126.6 179.1 126.6L165.5 129.4L174.3 146.3C182.8 157.9 192.9 164.9 196.6 169.4Z" fill="white"/>
<path d="M209.8 183.5C209.7 183.5 209.7 183.5 209.6 183.5C208.7 183.4 207.9 182.4 207.4 181.6C206.9 180.9 205.8 179.6 204.9 178.8C204 178 203.4 177.5 202.8 177.1C202.5 176.9 202.2 176.6 201.8 176.4C200.2 175.1 198.8 173 197.6 171.3C197.1 170.6 196.7 170 196.4 169.6C195.1 168 192.9 166 190.4 163.7C185.8 159.6 179.6 153.9 174.1 146.4L165.3 129.5C165.2 129.4 165.2 129.3 165.3 129.2C165.3 129.1 165.4 129 165.6 129L179.2 126.2C179.4 126.2 179.6 126.3 179.6 126.5C179.6 126.6 181.4 132.6 184.3 139.5C185.9 141.1 188.2 144.2 190.7 147.5C193.7 151.5 197.1 156 199.9 158.8C202 160.9 207.2 160.8 211.5 160.7C215.3 160.6 218.1 160.6 218.1 162.1C218.1 163.7 216 164.3 214.2 164.8C213.4 165 212.2 165.4 212.1 165.7C212.1 165.7 212.1 165.8 212.4 166.1C214.3 167.5 217.5 170.2 220.4 173L220.6 173.1C221.3 173.7 222.7 175 221.4 176.4C220.4 177.6 218.7 176.7 218 176.1L216.8 175.2C217.6 176 218.3 176.8 218.7 177.3C219.3 178 221.1 180.3 219.8 181.4C218.2 182.8 216.4 180.8 215.7 180L215.5 179.8C215.2 179.5 214.5 178.8 213.8 178.1C214 178.4 214.2 178.6 214.3 178.7C215 179.6 215.3 179.9 215.5 180.4C215.7 180.8 215.7 182 214.9 182.5C213.4 183.4 212.1 181.6 211.5 180.8L211.4 180.6C211.1 180.2 210.5 179.5 209.9 178.9C210 179 210.1 179.2 210.1 179.3C210.7 180.1 210.9 180.6 211 181C211.2 181.5 211.4 182.5 210.8 183C210.4 183.4 210.1 183.5 209.8 183.5ZM196.9 169.2C197.3 169.7 197.7 170.3 198.2 171C199.3 172.6 200.7 174.7 202.2 175.9C202.5 176.2 202.8 176.4 203.1 176.6C203.7 177 204.3 177.5 205.3 178.3C206.2 179.1 207.4 180.4 207.9 181.2C208.2 181.6 208.9 182.7 209.6 182.8C209.8 182.8 209.9 182.8 210.1 182.6C210.4 182.4 210.3 181.8 210.2 181.5C210 181 209.8 180.6 209.3 179.8C208.7 179 207.8 176.9 207.7 176.9C207.6 176.7 207.7 176.5 207.8 176.4C208 176.3 208.2 176.3 208.3 176.5C208.4 176.6 210.9 179.3 211.7 180.4L211.8 180.6C212.6 181.7 213.4 182.6 214.2 182.1C214.6 181.8 214.6 181.1 214.5 180.9C214.3 180.5 214.1 180.2 213.5 179.4C213 178.8 211 175.7 210.9 175.6C210.8 175.4 210.8 175.2 211 175.1C211.2 175 211.4 175 211.5 175.1C211.6 175.2 215 178.6 215.8 179.5L216 179.7C217.1 180.9 218.2 181.8 219.1 181.1C219.6 180.7 219.2 179.6 217.9 178C216.8 176.7 213.2 172.9 213.2 172.9C213.1 172.8 213.1 172.5 213.2 172.4C213.3 172.3 213.5 172.2 213.7 172.3L218.3 175.7C218.3 175.7 219.9 177 220.7 176.1C221.3 175.4 220.9 174.8 219.9 173.9L219.7 173.8C216.8 171.1 213.6 168.3 211.8 167C211.6 166.9 211.1 166.5 211.2 165.9C211.3 165.2 212.4 164.9 213.8 164.5C215.3 164 217.2 163.5 217.2 162.5C217.2 161.7 213.9 161.8 211.3 161.8C206.9 161.9 201.5 162 199.2 159.6C196.4 156.8 193 152.2 190 148.2C187.5 144.9 185.1 141.7 183.6 140.2L183.5 140.1C180.9 134.1 179.2 128.6 178.8 127.3L166 129.9L174.5 146.3C179.9 153.7 186.1 159.3 190.7 163.4C193.5 165.6 195.6 167.5 196.9 169.2Z" fill="#1F1A54"/>
<path d="M159.1 178.5C160.1 176.9 162.6 173.8 163.5 171.1C163.9 170 164 169.1 164.7 167.3C165.1 166.2 165.9 164.7 166.5 163.9C166.9 163.3 168.1 161.5 166.9 160.8C166.3 160.5 165.7 160.9 165.4 161.2C165.1 161.5 164.7 161.9 164.1 162.7C163.6 163.5 161.9 165.1 161.9 165.1C161.9 165.1 163.6 161.7 164.3 160.6C164.8 159.9 166.1 158 164.9 157.1C164.3 156.7 163.4 157.1 163.2 157.3C162.8 157.6 162.7 158 162.1 158.9C161.7 159.6 159.5 162.6 159.5 162.6C159.5 162.6 161.5 158.1 162.1 157C162.5 156.1 163.9 153.8 162.2 152.9C161.1 152.3 159.9 154.2 159.2 155.3C158.3 156.8 156.1 161.6 156.1 161.6L157.7 156.1C157.7 156.1 158.5 153.8 157 153.3C155.5 152.7 154.9 154.4 154.6 155.2C153.1 158.9 152.6 163.5 152 165.7C151.1 168.7 151.1 161.5 148.7 162.4C146.3 163.4 152.5 171.5 150.1 176.6C147.1 183.2 139.4 193.7 137.4 198.1L123.9 211.3L132.7 221.8L145.4 207.6C153.2 195.5 156.1 183.5 159.1 178.5Z" fill="white"/>
<path d="M132.6 222.1C132.5 222.1 132.4 222.1 132.3 222L123.5 211.5C123.4 211.4 123.4 211.1 123.5 211L137 197.9C137.9 195.9 140 192.6 142.3 189.1C145 184.9 148 180.1 149.7 176.5C150.9 173.8 149.7 170.2 148.7 167.3C147.8 164.7 147.1 162.7 148.5 162.1C148.9 161.9 149.3 161.9 149.6 162.1C150.5 162.5 150.9 164 151.3 165.1C151.4 165.3 151.4 165.5 151.5 165.7V165.6C151.7 164.9 151.9 163.9 152.1 162.7C152.5 160.4 153.1 157.5 154.1 155L154.2 154.8C154.5 154 155.2 152.2 157 152.9C158.4 153.4 158.3 155.3 158 156.2L157.6 157.7C158.1 156.7 158.6 155.7 158.9 155.2C159.4 154.4 160.8 151.9 162.4 152.7C164.3 153.7 163.1 156 162.5 157L162.4 157.2C162.2 157.6 161.8 158.5 161.4 159.4C161.6 159.1 161.8 158.9 161.8 158.7C162.4 157.7 162.6 157.4 163 157C163.3 156.7 164.4 156.2 165.2 156.8C166.6 157.8 165.3 159.7 164.8 160.6L164.7 160.8C164.4 161.2 164 162 163.6 162.8C163.7 162.7 163.8 162.6 163.9 162.5C164.4 161.7 164.9 161.3 165.2 161L165.3 160.9C165.6 160.6 166.5 160.1 167.2 160.5C167.6 160.7 167.8 161 167.9 161.4C168.1 162.3 167.5 163.3 166.9 164.1C166.4 164.8 165.6 166.3 165.2 167.4C164.8 168.6 164.6 169.3 164.4 170C164.3 170.4 164.2 170.8 164.1 171.2C163.5 173.1 162 175.2 160.8 176.9C160.3 177.6 159.9 178.2 159.6 178.7C158.5 180.5 157.5 183.2 156.2 186.4C154 192.1 150.9 200 145.8 207.7L133.1 221.9C132.8 222 132.7 222.1 132.6 222.1ZM124.3 211.2L132.6 221.1L145 207.3C150 199.7 153.1 191.9 155.3 186.1C156.6 182.8 157.6 180.1 158.7 178.3C159 177.8 159.4 177.2 159.9 176.5C161 174.9 162.5 172.8 163.1 171C163.2 170.6 163.3 170.2 163.4 169.9C163.6 169.2 163.8 168.4 164.2 167.2C164.6 166 165.4 164.5 166 163.7C166.3 163.3 167 162.2 166.9 161.5C166.9 161.3 166.8 161.2 166.6 161.1C166.3 160.9 165.7 161.2 165.6 161.4L165.5 161.5C165.2 161.8 164.8 162.1 164.3 162.9C163.8 163.7 162.2 165.3 162.1 165.4C162 165.5 161.8 165.5 161.6 165.4C161.5 165.3 161.4 165.1 161.5 164.9C161.6 164.8 163.2 161.4 163.9 160.3L164 160.1C164.7 159 165.3 157.9 164.6 157.4C164.2 157.1 163.5 157.4 163.3 157.6C163 157.9 162.8 158.2 162.3 159.1C161.9 159.8 159.7 162.7 159.7 162.8C159.6 163 159.4 163 159.2 162.9C159 162.8 159 162.6 159 162.4C159.1 162.2 161 157.9 161.6 156.8L161.7 156.6C162.4 155.2 162.9 153.8 161.9 153.2C161.3 152.9 160.4 153.7 159.4 155.4C158.6 156.9 156.3 161.6 156.3 161.6C156.2 161.8 156 161.9 155.8 161.8C155.6 161.7 155.5 161.5 155.6 161.4L157.2 155.9C157.2 155.9 157.8 153.9 156.7 153.5C155.8 153.2 155.4 153.8 154.9 155L154.8 155.2C153.8 157.6 153.2 160.5 152.8 162.8C152.6 164 152.4 165 152.2 165.7C152.1 166.2 151.9 166.7 151.5 166.7C151 166.7 150.9 166.2 150.6 165.2C150.3 164.3 149.9 162.9 149.3 162.6C149.1 162.5 149 162.5 148.8 162.6C148.1 162.9 148.7 164.8 149.4 166.8C150.5 169.8 151.8 173.6 150.4 176.5C148.7 180.1 145.7 184.9 143 189.2C140.8 192.7 138.7 196 137.8 198C137.8 198 137.8 198.1 137.7 198.1L124.3 211.2Z" fill="#1F1A54"/>
<path d="M166.266 147.404L146.707 153.54L154.19 177.392L173.749 171.257L166.266 147.404Z" fill="#1F1A54"/>
<path d="M141.4 145.2C143.3 145.4 145.1 144 146.8 143.3C147.5 143 148.1 142.8 148.8 142.6C148.2 142.5 147.5 142.4 146.9 142.3C145.3 142 143.7 141.8 142.2 141.5C140.9 141.3 139.8 140.9 138.8 140.1C138.6 139.9 138.9 139.5 139.1 139.7C140.5 141 142.5 141.1 144.3 141.4C146.1 141.7 148 142 149.8 142.3C150 142.3 150.3 142.4 150.5 142.4C150.6 142.4 150.6 142.4 150.7 142.4C150.9 142.4 151.6 142.5 151.7 142.5C153.2 142.7 154.8 143.1 155.8 144.1C155.1 142.4 154 140.8 153.1 139.2C152.2 137.7 151.6 136 151.1 134.3C151.1 134.2 150.9 133.8 150.8 133.7C150.6 133.5 150.4 133.2 150 132.9C148.3 131.6 146.4 130.6 144.3 130.4C142.9 130.3 141.5 130.7 140.2 131.1C138.7 131.6 137.1 132.2 135.9 133.4C135.7 133.6 135.4 133.2 135.6 133C136.8 131.8 138.4 131.2 140 130.7C141.3 130.2 142.6 129.9 144 129.9C146.4 130 148.6 131.2 150.5 132.7C149.9 131.2 149.2 129.7 148.2 128.4C147.1 127.1 145.8 126.2 144.4 125.2C144.4 125.2 144.4 125.2 144.3 125.2C144 125 143.6 124.8 143.3 124.5C142.6 124 141.8 123.5 141.1 122.9C140.8 122.7 140.2 122.2 139.5 122.2C138.7 122.1 138 122.3 137.1 122.5C136.3 122.7 135.5 122.7 134.7 122.6C134.4 122.5 134.4 122 134.8 122.1C135.9 122.3 136.8 122 137.9 121.8C138.5 121.6 139.1 121.6 139.7 121.8C139.4 121.5 139 121.2 138.7 120.9C137.3 119.5 135.9 118.1 134.2 117.1C133.9 116.9 134.2 116.5 134.5 116.7C136.3 117.8 137.8 119.4 139.3 120.8C140.7 122.1 142.1 123.2 143.7 124.3C142.9 122.7 142.6 120.9 142.7 119.1C142.7 118.8 143.2 118.8 143.2 119.2C143.1 120.9 143.5 122.6 144.2 124.1C144.2 124.2 144.4 124.5 144.5 124.6C144.6 124.7 144.7 124.8 144.8 124.9C144.9 125 145 125.1 145.1 125.1C146.4 126 147.6 126.9 148.6 128.1C149.9 129.6 150.6 131.4 151.3 133.2C152 135.2 152.6 137.1 153.6 139C154 139.6 154.3 140.2 154.7 140.9C154.7 137.6 154.6 134.4 156.3 131.4C156.5 131.1 156.9 131.3 156.8 131.6C155.2 134.5 155.2 137.7 155.2 140.9C155.2 141 155.2 141.4 155.2 141.5C155.2 141.5 155.2 141.6 155.2 141.7C155.2 141.8 155.3 142.2 155.4 142.3C155.4 142.4 155.5 142.5 155.5 142.5C155.8 143.1 156.1 143.7 156.4 144.3C157.1 146.1 157.7 148 158.1 150C158.6 152.1 159.2 154.2 159.3 156.3C159.3 156.6 158.8 156.7 158.8 156.4C158.7 154.4 158.2 152.5 157.7 150.5C157.4 149.3 157.1 148.2 156.8 147C156.5 146.1 156.2 145.6 156 145.2C155.2 143.8 153.5 143.4 151.9 143.2C151.6 143.2 151.4 143.1 151.1 143.1C150.9 143.1 150.3 143 150.2 143C148.6 143.1 147.1 143.8 145.6 144.5C144.2 145.2 142.9 145.9 141.4 145.8C141 145.7 141.1 145.2 141.4 145.2Z" fill="#1F1A54"/>
<path d="M159.1 156.9C159 156.9 158.9 156.9 158.9 156.9C158.7 156.8 158.7 156.7 158.6 156.5C158.5 154.5 158 152.5 157.5 150.7L157.4 150.2C157.2 149.2 156.9 148.2 156.6 147.2C156.3 146.4 156.1 146 155.8 145.6L155.7 145.5C155 144.2 153.3 143.8 151.8 143.6L151 143.5C150.8 143.5 150.2 143.4 150.1 143.4C148.5 143.5 147.1 144.1 145.6 144.8L145.2 145C144 145.6 142.7 146.2 141.3 146.1C141.1 146.1 141 146 140.9 145.8C140.8 145.6 140.8 145.4 141 145.3C141.1 145.2 141.3 145.1 141.5 145.1C142.8 145.2 144.1 144.6 145.4 143.9C145.9 143.7 146.3 143.4 146.8 143.2C147.1 143.1 147.5 142.9 147.8 142.8L147 142.7C146.5 142.6 146 142.5 145.5 142.5C144.4 142.3 143.4 142.2 142.3 142C140.9 141.7 139.7 141.4 138.8 140.5C138.6 140.3 138.6 139.9 138.8 139.8C139 139.6 139.3 139.6 139.5 139.8C140.6 140.8 142.2 141.1 143.8 141.3C144.1 141.3 144.4 141.4 144.7 141.4L150.2 142.3C150.4 142.3 150.7 142.4 150.9 142.4H151.1C151.2 142.4 151.6 142.5 152 142.5H152.1C153.3 142.7 154.5 143 155.5 143.6C155.1 142.7 154.5 141.8 154 141C153.7 140.5 153.4 140.1 153.2 139.6C152.3 138 151.7 136.3 151.1 134.7C151.1 134.6 150.9 134.2 150.8 134.1C150.7 133.9 150.4 133.6 150.1 133.3C148.1 131.8 146.3 131 144.5 130.9C143.1 130.8 141.7 131.2 140.5 131.6C139 132.1 137.5 132.7 136.3 133.8C136.1 134 135.8 134 135.6 133.8C135.4 133.6 135.4 133.3 135.6 133C136.9 131.7 138.5 131.2 140.1 130.6C141.4 130.1 142.7 129.7 144.2 129.8C146.1 129.9 148 130.6 150.2 132.1C149.7 131 149.1 129.8 148.3 128.7C147.2 127.4 145.8 126.4 144.6 125.6C144.6 125.6 144.5 125.6 144.5 125.5L143.6 124.9C142.8 124.4 142.1 123.8 141.4 123.3C141.1 123.1 140.5 122.7 139.9 122.6C139.2 122.5 138.5 122.7 137.7 122.9H137.6C136.8 123.1 136 123.1 135.1 123C134.8 123 134.6 122.7 134.7 122.4C134.7 122.1 135 122 135.3 122C136.4 122.2 137.2 122 138.3 121.7C138.7 121.6 139.1 121.5 139.4 121.6C139.3 121.5 139.1 121.3 139 121.2L138.8 121C137.4 119.7 136.1 118.4 134.5 117.4C134.4 117.3 134.3 117.2 134.3 117C134.3 116.8 134.4 116.6 134.6 116.6C134.8 116.5 135 116.5 135.1 116.6C136.7 117.6 138.1 118.9 139.4 120.2L140 120.8C141.2 122 142.5 122.9 143.6 123.8C143.1 122.4 142.8 120.8 142.9 119.3C142.9 119.1 143 119 143.1 118.9C143.3 118.8 143.5 118.8 143.6 118.9C143.8 119 143.8 119.2 143.8 119.4C143.7 121.1 144 122.7 144.7 124.2C144.7 124.3 144.9 124.6 145 124.7C145.1 124.8 145.2 124.9 145.2 125C145.2 125.1 145.4 125.2 145.4 125.2C146.6 126.1 147.9 127 148.9 128.3C150.2 129.8 151 131.7 151.6 133.5C151.7 133.8 151.8 134.1 151.9 134.4C152.5 136 153 137.7 153.9 139.2C154.1 139.6 154.3 139.9 154.5 140.3C154.5 137.4 154.6 134.4 156.2 131.6C156.4 131.3 156.7 131.3 156.9 131.4C157.1 131.5 157.2 131.8 157.1 132C155.5 134.9 155.5 138.1 155.5 141.1C155.5 141.2 155.5 141.6 155.5 141.6V141.8C155.5 141.9 155.6 142.3 155.7 142.4C155.7 142.5 155.8 142.6 155.8 142.6C156.2 143.3 156.5 143.9 156.7 144.5C157.5 146.4 158 148.3 158.4 150.2V150.4C158.9 152.4 159.4 154.5 159.6 156.6C159.6 156.8 159.5 157 159.4 157.1C159.3 156.8 159.2 156.9 159.1 156.9ZM157.9 150.1L158 150.5C158.5 152.4 159 154.4 159.1 156.4C159 154.3 158.4 152.2 157.9 150.3V150.1ZM155.7 144.5C155.9 144.7 156 144.9 156.2 145.1L156.3 145.2C156.5 145.6 156.8 146.1 157.1 146.9C157.1 147 157.2 147.1 157.2 147.2C157 146.5 156.8 145.8 156.5 145.2L155.7 144.5ZM141.4 145.5C141.6 145.5 141.7 145.5 141.9 145.5C141.7 145.5 141.5 145.5 141.4 145.5ZM149.2 132.1C149.5 132.3 149.8 132.5 150.1 132.8C150.5 133.1 150.8 133.4 150.9 133.7C151 133.9 151.2 134.3 151.2 134.4C151.8 136 152.3 137.7 153.2 139.2C153.5 139.7 153.7 140.1 154 140.6C154.7 141.7 155.4 142.9 155.9 144.1L156.1 144.6C156.1 144.5 156 144.5 156 144.4C155.8 143.8 155.5 143.2 155.1 142.6C155.1 142.6 155 142.5 155 142.4C154.9 142.3 154.8 141.8 154.8 141.7V141.5C154.8 141.4 154.8 141 154.8 140.9C154.8 137.8 154.7 134.5 156.4 131.5L156.2 131.4L156.4 131.5C154.7 134.5 154.8 137.7 154.8 140.8V141.7L154.1 140.4C153.8 139.9 153.5 139.5 153.3 139C152.4 137.4 151.8 135.8 151.3 134.1L151 133.2L150.3 132.7C149.9 132.7 149.5 132.4 149.2 132.1ZM143.2 141.5C143.9 141.6 144.6 141.7 145.3 141.9C145.8 142 146.3 142.1 146.8 142.2L150 142.7L148.7 143C148.1 143.1 147.4 143.4 146.7 143.7C146.5 143.8 146.3 143.9 146.1 144C147.3 143.4 148.6 143 149.9 142.9C150.1 142.9 150.7 142.9 150.9 143L151.7 143.1C152.5 143.2 153.3 143.4 154.1 143.7C153.3 143.3 152.3 143.2 151.4 143H151.3C151.1 143 150.6 142.9 150.5 142.9H150.3C150.1 142.9 149.8 142.8 149.6 142.8L144.1 141.9C143.8 141.9 143.5 141.8 143.3 141.8C143.3 141.5 143.3 141.5 143.2 141.5ZM138.8 139.9C139.2 140.3 139.6 140.5 140.1 140.7C139.7 140.5 139.2 140.3 138.8 139.9ZM143.7 130.2C142.4 130.2 141.2 130.6 140 131C138.5 131.5 136.9 132.1 135.7 133.3C136.9 132.1 138.5 131.5 140 131C141.3 130.5 142.7 130.1 144.2 130.2C145.6 130.3 147 130.8 148.5 131.7C146.9 130.7 145.3 130.2 143.8 130.2C143.9 130.2 143.8 130.2 143.7 130.2ZM150 131.1C150.3 131.6 150.5 132.2 150.7 132.7L150.9 133.3C150.7 132.5 150.4 131.8 150 131.1ZM140.1 122.1C140.7 122.3 141.3 122.7 141.3 122.8C142 123.3 142.7 123.9 143.4 124.4L144.4 125.1C145.7 126 147.1 127 148.2 128.3C148.6 128.7 148.9 129.2 149.1 129.6C148.8 129.1 148.5 128.7 148.2 128.3C147.2 127.1 146 126.2 144.8 125.3C144.8 125.3 144.6 125.1 144.5 125C144.4 124.9 144.3 124.8 144.2 124.6C144.1 124.5 143.9 124.1 143.9 124C143.2 122.4 142.8 120.7 142.9 119C142.8 120.7 143.2 122.5 143.9 124.1L144.3 124.9L143.5 124.4C142.5 123.7 141.3 122.8 140.1 121.8L140.5 122.2L140.1 122.1ZM134.8 122.4C135.6 122.5 136.4 122.5 137.1 122.3H137.2C138 122.1 138.7 121.9 139.5 122H139.6C139.1 121.9 138.5 121.9 138 122C136.9 122.3 136 122.6 134.8 122.4ZM134.5 116.8C135.5 117.4 136.5 118.2 137.4 119.1C136.4 118.3 135.5 117.5 134.5 116.8Z" fill="#1F1A54"/>
<path d="M120.2 109.7C120.7 110.5 121.2 111.2 121.8 112C122.5 113 123.3 113.9 124.1 114.8C125.4 116.3 126.9 117.8 128.7 118.8C131 120 134.1 119.9 135.8 117.9L135.9 117.8C136 117.6 136.2 117.4 136.3 117.2C137.9 114.3 135.3 111.4 132.7 110.4C129.4 109.1 125.3 108.3 121.8 108.9C121.7 108.9 121.7 108.9 121.7 108.9C121.3 108.9 121 109 120.6 109.1C120.4 109.1 120.3 109.3 120.2 109.5C120.1 109.4 120.1 109.6 120.2 109.7Z" fill="white"/>
<path d="M131.9 119.9C130.7 119.9 129.5 119.6 128.5 119.1C126.6 118.1 125 116.3 123.8 115.1C123 114.2 122.2 113.3 121.5 112.3C121 111.6 120.4 110.8 119.9 110C119.8 109.8 119.7 109.5 119.8 109.3C119.9 109 120.1 108.7 120.4 108.7C120.8 108.6 121.1 108.5 121.5 108.5C121.6 108.5 121.6 108.5 121.7 108.4C124.9 107.9 129 108.5 132.8 110C134.3 110.6 136.2 111.9 136.9 113.9C137.3 115.1 137.2 116.3 136.6 117.4C136.5 117.6 136.3 117.8 136.2 118C136.2 118.1 136.1 118.1 136.1 118.2C135 119.3 133.5 119.9 131.9 119.9ZM120.5 109.5C121 110.3 121.6 111.1 122.1 111.7C122.8 112.7 123.6 113.6 124.4 114.4C125.9 116 127.2 117.4 128.9 118.3C131 119.4 133.9 119.4 135.5 117.5L135.6 117.4C135.7 117.2 135.8 117.1 135.9 116.9C136.4 116 136.5 115 136.1 114.1C135.6 112.7 134.2 111.4 132.5 110.7C128.9 109.3 124.9 108.7 121.8 109.2L121.6 109.3C121.3 109.3 120.9 109.4 120.6 109.5C120.6 109.3 120.5 109.4 120.5 109.5L120.2 109.7L120.5 109.5Z" fill="#1F1A54"/>
<path d="M120.2 109.7C120.7 110.5 121.2 111.2 121.8 112C122.5 113 123.3 113.9 124.1 114.8C125.4 116.3 126.9 117.8 128.7 118.8C131 120 134.1 119.9 135.8 117.9L135.9 117.8C134 115.8 131.9 113.9 129.4 112.6C126.5 111.1 123.3 110.3 120.2 109.5C120.1 109.4 120.1 109.6 120.2 109.7Z" fill="#1F1A54"/>
<path d="M121.8 111.9C122.5 112.9 123.3 113.8 124.1 114.7C125.4 116.2 126.9 117.7 128.7 118.7C131 119.9 134.1 119.8 135.8 117.8C135.2 117.3 134.5 116.8 133.7 116.5C132.1 115.8 130.3 115.7 128.6 115.4C125.9 114.9 123.6 113.7 121.8 111.9Z" fill="white"/>
<path d="M131.9 119.9C130.7 119.9 129.5 119.6 128.5 119.1C126.6 118.1 125 116.3 123.8 115.1C123 114.2 122.2 113.3 121.5 112.3L122.1 111.8C123.8 113.5 126.1 114.7 128.7 115.1C129.1 115.2 129.4 115.2 129.8 115.3C131.2 115.5 132.6 115.7 133.9 116.2C134.7 116.5 135.4 117 136.1 117.6L136.4 117.9L136.2 118.2C135 119.3 133.5 119.9 131.9 119.9ZM124.2 114.3C124.3 114.4 124.3 114.4 124.4 114.5C125.9 116.1 127.2 117.5 128.9 118.4C130.9 119.4 133.6 119.5 135.2 117.9C134.7 117.5 134.1 117.2 133.5 116.9C132.3 116.4 131 116.2 129.6 116C129.2 115.9 128.9 115.9 128.5 115.8C127 115.5 125.5 115 124.2 114.3Z" fill="#1F1A54"/>
<path d="M125.4 124.6C127 125.5 129.5 125.7 131.3 125.5C132.7 125.3 134.5 124.4 135.2 123.1C135.3 122.9 135.4 122.7 135.4 122.5C135.4 122.4 135.4 122.4 135.4 122.3C135.5 121.9 135.4 121.5 135.2 121.1C135.2 121 135.2 120.9 135.1 120.8C133.6 118.7 131.1 117.5 128.5 117.3C125.9 117.2 123.3 118.6 120.8 117.9C120.7 117.9 120.6 117.8 120.5 117.8C119.9 117.6 119.6 118.5 120.2 118.8C121.5 119.4 122.1 121.1 122.9 122.2C123.7 123.1 124.4 124.1 125.4 124.6Z" fill="white"/>
<path d="M129.9 126C128.4 126 126.6 125.7 125.2 125C124.1 124.4 123.4 123.4 122.7 122.5L122.6 122.4C122.4 122.1 122.1 121.7 121.9 121.3C121.4 120.4 120.8 119.5 120 119.1C119.5 118.8 119.4 118.3 119.6 117.9C119.8 117.5 120.2 117.3 120.7 117.4C120.8 117.4 120.9 117.5 121 117.5C122.4 117.9 123.8 117.6 125.3 117.3C126.4 117.1 127.5 116.8 128.7 116.9C131.5 117 134.1 118.4 135.6 120.5C135.7 120.6 135.8 120.8 135.8 121C136 121.4 136 121.9 136 122.3C136 122.4 136 122.4 136 122.5C135.9 122.7 135.8 123 135.7 123.2C134.9 124.7 132.9 125.6 131.5 125.8C130.9 126 130.4 126 129.9 126ZM123.3 121.9C124 122.8 124.7 123.7 125.6 124.3C127.2 125.2 129.7 125.4 131.3 125.1C132.6 124.9 134.3 124.1 135 122.9C135.1 122.7 135.2 122.6 135.2 122.4C135.2 122.3 135.2 122.3 135.2 122.2C135.3 121.9 135.2 121.5 135.1 121.3V121.2V121.1C133.7 119.1 131.4 117.9 128.8 117.7C127.8 117.6 126.7 117.9 125.6 118.1C124.1 118.4 122.5 118.7 121 118.3C120.9 118.3 120.8 118.2 120.6 118.2C120.5 118.2 120.5 118.4 120.6 118.4C121.6 118.9 122.2 120 122.8 120.9C122.9 121.3 123.1 121.6 123.3 121.9Z" fill="#1F1A54"/>
<path d="M125.4 124.6C127 125.5 129.5 125.7 131.3 125.5C132.7 125.3 134.5 124.4 135.2 123.1C135.3 122.9 135.4 122.7 135.4 122.5C133.7 121.5 131.8 120.9 129.7 120.8C128.1 120.8 126.4 121.2 124.8 120.7C123.2 120.2 122 119.1 120.8 117.9C120.7 117.9 120.6 117.8 120.5 117.8C119.9 117.6 119.6 118.5 120.2 118.8C121.5 119.4 122.1 121.1 122.9 122.2C123.7 123.1 124.4 124.1 125.4 124.6Z" fill="#1F1A54"/>
<path d="M125.4 124.6C127 125.5 129.5 125.7 131.3 125.5C132.7 125.3 134.5 124.4 135.2 123.1C134 122.8 132.7 122.7 131.4 122.7C129.6 122.8 127.8 123.3 126 123.1C124.9 123 123.8 122.7 122.9 122.1C123.7 123.1 124.4 124.1 125.4 124.6Z" fill="white"/>
<path d="M129.9 126C128.4 126 126.6 125.7 125.2 125C124.1 124.4 123.4 123.4 122.7 122.4C122.6 122.2 122.6 122 122.7 121.9C122.8 121.8 123 121.7 123.2 121.8C124.1 122.3 125.1 122.6 126.2 122.7C127.3 122.8 128.5 122.6 129.6 122.5C130.2 122.4 130.9 122.3 131.5 122.3C132.8 122.2 134.2 122.3 135.4 122.7C135.5 122.7 135.6 122.8 135.7 122.9C135.7 123 135.7 123.1 135.7 123.2C134.9 124.7 132.9 125.6 131.5 125.8C130.9 126 130.4 126 129.9 126ZM124.3 123.2C124.7 123.6 125.1 124 125.6 124.3C127.2 125.2 129.7 125.4 131.3 125.1C132.5 124.9 133.9 124.3 134.7 123.3C133.7 123.1 132.6 123 131.6 123.1C131 123.1 130.3 123.2 129.7 123.3C128.6 123.4 127.4 123.6 126.2 123.5C125.5 123.5 124.9 123.4 124.3 123.2Z" fill="#1F1A54"/>
<path d="M132.4 147.2C133 147.4 133.6 147.6 134.2 147.7C135.5 148 136.7 148.3 138 148.5C139.4 148.7 140.9 148.8 142 147.6C142.2 147.3 142.5 146.9 142.6 146.5C142.7 146.3 142.7 146.1 142.8 145.9C142.9 145.4 143 144.8 142.8 144.4C142.9 142.8 141 142.7 139.8 143.1C137.3 144 135.4 146.6 132.6 146.5C132.4 146.5 132.2 146.7 132.2 146.9C132.2 147 132.2 147.2 132.4 147.2Z" fill="white"/>
<path d="M139.6 149C139.1 149 138.5 148.9 138.1 148.9C136.8 148.7 135.5 148.5 134.2 148.1C133.6 147.9 133 147.8 132.3 147.6C131.9 147.5 131.7 147.1 131.8 146.8C131.9 146.4 132.2 146.1 132.6 146.1C134.2 146.2 135.5 145.3 136.8 144.4C137.7 143.8 138.6 143.1 139.7 142.8C140.6 142.5 141.8 142.5 142.6 143.1C143 143.4 143.3 143.9 143.3 144.5C143.5 145.1 143.4 145.7 143.3 146.2C143.3 146.4 143.2 146.6 143.1 146.8C142.9 147.3 142.7 147.7 142.4 148C141.6 148.8 140.6 149 139.6 149ZM132.7 146.9C133.2 147.1 133.8 147.2 134.3 147.4C135.6 147.7 136.9 148 138.1 148.1C139.7 148.3 140.8 148.4 141.7 147.4C141.9 147.2 142.1 146.8 142.3 146.4C142.4 146.2 142.4 146.1 142.5 145.9C142.6 145.4 142.6 144.9 142.5 144.6V144.5V144.4C142.5 144 142.4 143.8 142.2 143.6C141.7 143.2 140.7 143.2 140 143.5C139.1 143.8 138.2 144.4 137.3 145C135.9 146 134.5 147 132.7 146.9Z" fill="#1F1A54"/>
<path d="M132.4 147.2C133 147.4 133.6 147.6 134.2 147.7C135.3 147.3 136.3 146.7 137.5 146.3C139.2 145.7 141 146 142.7 146.4C142.8 146.2 142.8 146 142.9 145.8C143 145.3 143.1 144.7 142.9 144.3C143 142.7 141.1 142.6 139.9 143C137.4 143.9 135.5 146.5 132.7 146.4C132.5 146.4 132.3 146.6 132.3 146.8C132.2 147 132.2 147.2 132.4 147.2Z" fill="#1F1A54"/>
<path d="M132.2 146.9C134.1 147.1 136 146.7 137.6 145.7C138.2 145.3 138.8 144.8 139.6 144.8C140.3 144.7 141 145 141.6 145.3C142 145.5 142.4 145.7 142.8 146C142.9 145.5 143 144.9 142.8 144.5C142.9 142.9 141 142.8 139.8 143.2C137.3 144.1 135.4 146.7 132.6 146.6C132.4 146.5 132.2 146.7 132.2 146.9Z" fill="white"/>
<path d="M133.2 147.3C132.9 147.3 132.5 147.3 132.2 147.2H131.8L131.9 146.8C132 146.4 132.3 146.1 132.7 146.1C134.3 146.2 135.6 145.3 136.9 144.4C137.8 143.8 138.7 143.1 139.8 142.8C140.7 142.5 141.9 142.5 142.7 143.1C143.1 143.4 143.4 143.9 143.4 144.5C143.6 145.1 143.5 145.7 143.4 146.2L143.3 146.8L142.8 146.5C142.4 146.2 142 146 141.6 145.8C141 145.5 140.4 145.3 139.8 145.3C139.3 145.3 138.8 145.6 138.4 145.9C138.3 146 138.1 146.1 138 146.2C136.4 146.9 134.8 147.3 133.2 147.3ZM141 143.4C140.6 143.4 140.3 143.5 140 143.6C139.1 143.9 138.2 144.5 137.3 145.1C136.7 145.5 136.1 145.9 135.5 146.3C136.2 146.1 136.9 145.8 137.5 145.4C137.6 145.3 137.8 145.2 137.9 145.2C138.4 144.9 139 144.5 139.7 144.4C140.5 144.3 141.2 144.6 141.9 145C142.2 145.1 142.4 145.3 142.6 145.4C142.6 145.1 142.6 144.9 142.5 144.7V144.6V144.5C142.5 144.1 142.4 143.9 142.2 143.7C141.9 143.5 141.4 143.4 141 143.4Z" fill="#1F1A54"/>
<path d="M144.6 119.1C144.8 119.1 145 119.1 145.1 119.1C146.4 119 147.7 118.1 148.7 117.3C149.8 116.3 150.5 115.2 150.9 113.7C151.3 112 151.3 109.3 153.3 108.7C153.4 108.7 153.5 108.7 153.6 108.6C154.2 108.5 154.1 107.5 153.5 107.6C153.5 107.6 153.5 107.6 153.4 107.6C152.9 107.5 152.4 107.5 151.9 107.5C150 107.6 148 108.2 146.3 109.2C145.8 109.5 145.3 109.9 144.9 110.3C143.2 111.9 141.4 115.1 142.5 117.4C143.1 118.5 143.8 119 144.6 119.1Z" fill="white"/>
<path d="M144.9 119.5C144.8 119.5 144.6 119.5 144.5 119.5C143.5 119.4 142.7 118.7 142.3 117.7C141.1 115 143.2 111.7 144.8 110.1C145.2 109.7 145.7 109.3 146.3 109C148 108 150.1 107.3 152.1 107.2C152.6 107.2 153.1 107.2 153.6 107.3C154.1 107.2 154.5 107.5 154.6 108C154.7 108.4 154.5 109 153.9 109.1L153.6 109.2C152.2 109.6 152 111.2 151.7 112.7C151.6 113.1 151.5 113.5 151.4 113.9C151 115.3 150.2 116.6 149.1 117.6C148.5 118.1 146.9 119.4 145.2 119.5C145.1 119.5 145 119.5 144.9 119.5ZM152.4 108C152.3 108 152.2 108 152.1 108C150.3 108.1 148.3 108.7 146.7 109.6C146.2 109.9 145.7 110.2 145.3 110.6C143.7 112.1 142 115.1 143 117.2C143.4 118 143.9 118.5 144.6 118.6C144.7 118.6 144.9 118.6 145.1 118.6C146.1 118.5 147.3 117.9 148.5 116.9C149.6 115.9 150.3 114.8 150.6 113.5C150.7 113.2 150.8 112.8 150.8 112.4C151.1 110.8 151.5 108.8 153.3 108.3L153.6 108.2C153.8 108.2 153.8 108.1 153.7 108H153.6H153.5H153.4C153.1 108.1 152.7 108 152.4 108Z" fill="#1F1A54"/>
<path d="M144.6 119.1C144.8 119.1 145 119.1 145.1 119.1C146.6 118 147.5 116.6 148 114.7C148.5 112.6 148.3 108.9 150.7 108C151 107.9 151.3 107.9 151.6 107.8C151.8 107.8 151.9 107.7 152 107.6C150.1 107.7 148.1 108.3 146.4 109.3C145.9 109.6 145.4 110 145 110.4C143.3 112 141.5 115.2 142.6 117.5C143.1 118.5 143.8 119 144.6 119.1Z" fill="#1F1A54"/>
<path d="M144.6 119.1C145.2 118.4 145.8 117.7 146.1 116.8C146.4 115.9 146.3 115 146.3 114.1C146.2 112.5 146.1 110.9 146.5 109.4C146 109.7 145.5 110.1 145.1 110.5C143.4 112.1 141.6 115.3 142.7 117.6C143.1 118.5 143.8 119 144.6 119.1Z" fill="#1F1A54"/>
<path d="M141.8 119.6H141.9C142.4 119.7 142.9 119.7 143.3 119.6C145.2 119.1 146.4 116.6 146.7 114.8C146.9 113.2 146.6 111.5 146.2 109.9C145.8 108.1 145.3 106.4 144.6 104.7C144.6 104.7 144.6 104.6 144.5 104.6V104.5C144.4 104.3 144.1 104.2 143.9 104.3C142.1 106.9 139.6 109.9 139 113.1C138.6 115.4 139.3 118.9 141.8 119.6Z" fill="white"/>
<path d="M142.7 120.1C142.4 120.1 142.2 120.1 141.9 120H141.7C138.9 119.2 138.2 115.5 138.6 113.1C139.1 110.4 140.9 107.8 142.5 105.6C142.8 105.1 143.2 104.7 143.5 104.2L143.6 104.1L143.7 104C143.9 103.9 144.2 103.8 144.4 103.9C144.6 104 144.8 104.1 144.9 104.4C144.9 104.4 145 104.5 145 104.6C145.8 106.4 146.3 108.3 146.7 109.9C147 111.4 147.4 113.2 147.2 115C146.9 117.1 145.6 119.6 143.6 120.1C143.2 120.1 142.9 120.1 142.7 120.1ZM141.9 119.2C142.5 119.3 142.9 119.3 143.3 119.2C145.1 118.7 146.2 116.3 146.4 114.7C146.6 113.1 146.3 111.4 146 109.9C145.6 108.3 145.2 106.5 144.4 104.8L144.3 104.6L144.6 104.4L144.2 104.5C143.9 105 143.6 105.4 143.2 105.9C141.6 108.1 139.8 110.5 139.4 113.1C139.1 115.3 139.6 118.6 141.9 119.2Z" fill="#1F1A54"/>
<path d="M141.8 119.6H141.9C142.4 119.7 142.9 119.7 143.3 119.6C145.2 119.1 146.4 116.6 146.7 114.8C146.9 113.2 146.6 111.5 146.2 109.9C145.8 108.1 145.3 106.4 144.6 104.7C144.6 104.7 144.6 104.6 144.5 104.6V104.5C144.4 104.3 144.1 104.2 143.9 104.3C143.9 104.4 143.9 104.4 143.9 104.5C144.1 105.1 144.2 105.8 144.2 106.5C144.2 108.4 143.5 110 142.7 111.6C141.5 114.2 140.9 116.9 141.8 119.6Z" fill="#1F1A54"/>
<path d="M143.4 119.6C145.3 119.1 146.5 116.6 146.8 114.8C147 113.2 146.7 111.5 146.3 109.9C145.9 108.1 145.4 106.4 144.7 104.7C144.7 104.7 144.7 104.6 144.6 104.6V104.5C144.5 104.3 144.2 104.2 144 104.3L144.1 104.4C145.6 106.6 146.1 109.5 145.3 112.1C144.8 113.7 143.7 114.9 143.5 116.6C143.3 117.6 143.3 118.7 143.4 119.6Z" fill="white"/>
<path d="M143.1 120.1L143 119.6C142.9 118.7 142.9 117.7 143 116.6C143.1 115.5 143.6 114.6 144 113.8C144.3 113.2 144.6 112.6 144.8 112C145.5 109.6 145.1 106.8 143.7 104.7L143.5 104.3L143.8 103.9C144 103.8 144.3 103.7 144.5 103.8C144.7 103.9 144.9 104 145 104.3C145 104.3 145.1 104.4 145.1 104.5C145.9 106.3 146.4 108.2 146.8 109.8C147.1 111.3 147.5 113.1 147.3 114.9C147 117 145.7 119.5 143.7 120L143.1 120.1ZM146 110.3C146 111 145.8 111.7 145.6 112.3C145.4 113 145.1 113.6 144.8 114.2C144.4 115 144 115.8 143.9 116.8C143.8 117.6 143.8 118.4 143.8 119.1C145.3 118.4 146.2 116.2 146.4 114.8C146.5 113.3 146.3 111.7 146 110.3ZM144.5 104.5C144.5 104.6 144.5 104.6 144.5 104.5V104.5Z" fill="#1F1A54"/>
<path d="M121.6 135.6C122.3 135.7 123.1 135.8 123.8 136C124.8 136.3 125.7 136.6 126.7 136.9C128.1 137.3 129.4 137.7 130.9 137.5C132.8 137.3 136.5 135.6 136.2 133.3V133.2C136.3 133 136.3 132.8 136.2 132.7C136.2 132.7 136.2 132.6 136.1 132.6C136.1 132.5 136.1 132.5 136.1 132.4C136 132.2 135.9 132 135.8 131.8C134.7 130.1 132 130.2 130.3 130.8C128.9 131.3 127.9 132.3 126.7 133.1C125.3 134.1 123.6 134.6 121.8 134.6C121.1 134.6 121 135.5 121.6 135.6Z" fill="white"/>
<path d="M130 138C128.8 138 127.6 137.7 126.5 137.4C126.1 137.3 125.8 137.2 125.4 137C124.8 136.8 124.2 136.6 123.7 136.4C122.9 136.2 122.2 136 121.6 136C121.1 136 120.8 135.6 120.8 135.1C120.8 134.6 121.2 134.1 121.8 134.2C123.5 134.3 125 133.8 126.4 132.8C126.7 132.6 127 132.4 127.3 132.1C128.1 131.5 129 130.8 130.1 130.4C132.2 129.7 135 129.7 136.1 131.6C136.2 131.8 136.3 132 136.4 132.3C136.4 132.4 136.4 132.4 136.4 132.5C136.5 132.7 136.6 133 136.5 133.3C136.5 133.3 136.5 133.3 136.5 133.4C136.6 134.1 136.4 134.8 135.9 135.4C134.7 136.9 132.2 137.8 130.8 138C130.6 137.9 130.3 138 130 138ZM121.7 135.2C122.4 135.3 123.1 135.4 124 135.6C124.6 135.8 125.2 136 125.8 136.2C126.2 136.3 126.5 136.4 126.9 136.6C128.1 137 129.5 137.3 130.9 137.2C132.4 137 134.5 136.1 135.4 134.9C135.8 134.4 135.9 134 135.8 133.5V133.3V133.2C135.8 133.1 135.8 133.1 135.8 133L135.7 132.9L135.6 132.7C135.5 132.5 135.5 132.3 135.4 132.2C134.5 130.6 131.9 130.8 130.3 131.3C129.3 131.6 128.5 132.2 127.7 132.9C127.4 133.1 127.1 133.4 126.8 133.6C125.3 134.7 123.6 135.2 121.7 135.2C121.7 135.2 121.6 135.2 121.6 135.3C121.6 135.1 121.6 135.2 121.7 135.2V135.6V135.2Z" fill="#1F1A54"/>
<path d="M123.8 136C124.8 136.3 125.7 136.6 126.7 136.9C128.1 137.3 129.4 137.7 130.9 137.5C132.8 137.3 136.5 135.6 136.2 133.3V133.2C136.3 133 136.3 132.8 136.2 132.7C136.2 132.7 136.2 132.6 136.1 132.6C136.1 132.5 136.1 132.5 136.1 132.4C136 132.2 135.9 132 135.8 131.8C134.2 131.5 132.6 132 131.1 132.8C129.7 133.6 128.5 134.6 127.1 135.2C126 135.8 124.9 136 123.8 136Z" fill="white"/>
<path d="M130 138C128.8 138 127.6 137.7 126.5 137.4C126.1 137.3 125.8 137.2 125.4 137C124.8 136.8 124.2 136.6 123.7 136.4L121.1 135.7L123.8 135.6C125 135.6 126 135.4 126.9 134.9C127.7 134.5 128.4 134 129.2 133.6C129.7 133.2 130.3 132.9 130.9 132.5C132.1 131.8 133.9 131.1 135.8 131.4H136L136.1 131.6C136.2 131.8 136.3 132 136.4 132.3C136.4 132.4 136.4 132.4 136.4 132.5C136.5 132.7 136.6 133 136.5 133.3C136.5 133.3 136.5 133.3 136.5 133.4C136.6 134.1 136.4 134.8 135.9 135.4C134.7 136.9 132.2 137.8 130.8 138C130.6 137.9 130.3 138 130 138ZM125.7 136.2C126.1 136.3 126.4 136.5 126.8 136.6C128 137 129.4 137.3 130.8 137.2C132.3 137 134.4 136.1 135.3 134.9C135.7 134.4 135.8 134 135.7 133.5V133.3V133.2C135.7 133.1 135.7 133.1 135.7 133L135.6 132.9L135.5 132.7C135.5 132.5 135.4 132.4 135.4 132.3C133.8 132.1 132.2 132.7 131.2 133.3C130.6 133.6 130.1 134 129.5 134.3C128.7 134.8 128 135.3 127.1 135.7C126.8 135.9 126.2 136.1 125.7 136.2Z" fill="#1F1A54"/>
<path d="M126.7 136.9C128.1 137.3 129.4 137.7 130.9 137.5C132.8 137.3 136.5 135.6 136.2 133.3C135.1 133.4 134 133.9 133 134.5C131.7 135.3 130.5 136.4 128.9 136.8C128.2 137 127.4 137 126.7 136.9Z" fill="#FFD400"/>
<path d="M130 138C128.8 138 127.6 137.7 126.5 137.4L123.6 136.5L126.7 136.7C127.6 136.7 128.2 136.7 128.8 136.6C129.9 136.4 130.7 135.7 131.7 135.1C132 134.9 132.4 134.6 132.7 134.4C133.5 133.9 134.7 133.3 136.1 133.2H136.5L136.6 133.6C136.7 134.3 136.5 135 136 135.6C134.8 137.1 132.3 138 130.9 138.2C130.6 137.9 130.3 138 130 138ZM129.2 137.1C129.7 137.2 130.2 137.2 130.7 137.1C132.2 136.9 134.3 136 135.2 134.8C135.5 134.5 135.6 134.1 135.6 133.8C134.6 134 133.6 134.5 133 134.9C132.7 135.1 132.3 135.3 132 135.6C131.3 136.2 130.3 136.8 129.2 137.1Z" fill="#1F1A54"/>
<path d="M132.2 140.9C134.1 142.5 136.9 142.8 139 141.5C139.3 141.3 139.6 141.1 139.8 140.8C140.3 140.3 140.6 139.7 140.7 139.1C140.9 138 140.4 136.8 139.3 135.8C137.7 134.3 135.5 133.8 133.3 133.3C132.8 133.1 132.3 133 131.7 132.8C130.9 132.6 130.2 132.4 129.3 132.6C129.1 132.7 129 132.8 129 133C129 133.1 129 133.2 129 133.2C129 133.3 129.1 133.4 129.1 133.4C130.4 136 129.9 138.9 132.2 140.9Z" fill="white"/>
<path d="M136 142.7C134.5 142.7 133.1 142.2 131.9 141.2C130.3 139.9 130 138.1 129.6 136.4C129.4 135.5 129.2 134.5 128.8 133.7L128.7 133.5C128.6 133.4 128.6 133.2 128.6 133C128.6 132.6 128.9 132.3 129.2 132.3C130.1 132 130.9 132.2 131.8 132.5C132.3 132.7 132.8 132.8 133.4 133C135.6 133.4 137.9 134 139.6 135.6C140.7 136.7 141.3 138 141.1 139.3C141 140 140.7 140.7 140.1 141.2C139.8 141.5 139.5 141.7 139.2 141.9C138.2 142.4 137.1 142.7 136 142.7ZM132.4 140.6C134.2 142.1 136.8 142.3 138.8 141.1C139.1 140.9 139.4 140.7 139.6 140.5C140 140.1 140.3 139.6 140.4 139C140.5 138 140.1 136.9 139.1 136C137.6 134.6 135.4 134.1 133.3 133.6C132.7 133.4 132.2 133.3 131.7 133.1C130.9 132.9 130.3 132.7 129.6 132.9V133L129.7 133.2C130.1 134.1 130.3 135.1 130.5 136.1C130.8 137.9 131.1 139.4 132.4 140.6Z" fill="#1F1A54"/>
<path d="M134.4 139.1C135.8 139.9 137.3 140.1 138.8 140.5C139.2 140.6 139.5 140.7 139.9 140.8C140.4 140.3 140.7 139.7 140.8 139.1C141 138 140.5 136.8 139.4 135.8C137.8 134.3 135.6 133.8 133.4 133.3C132.9 133.1 132.4 133 131.8 132.8C131 132.6 130.3 132.4 129.4 132.6C129.2 132.7 129.1 132.8 129.1 133C129.1 133.1 129.1 133.2 129.1 133.2C129.1 133.3 129.2 133.4 129.2 133.4C131.2 135 132.2 137.7 134.4 139.1Z" fill="#1F1A54"/>
<path d="M129.1 133.1C131.7 133.3 133.4 135.2 135.3 136.9C137 138.3 138.7 138.9 140.7 139.2C140.9 138.1 140.4 136.9 139.3 135.9C137.7 134.4 135.5 133.9 133.3 133.4C132.8 133.2 132.3 133.1 131.7 132.9C130.9 132.7 130.2 132.5 129.3 132.7C129.2 132.7 129.1 132.9 129.1 133.1Z" fill="white"/>
<path d="M140.7 139.5C138.3 139.2 136.6 138.5 135 137.1C134.7 136.8 134.4 136.6 134.1 136.3C132.5 134.9 131.1 133.6 129 133.4C128.9 133.4 128.8 133.3 128.7 133.3C128.6 133.2 128.6 133.1 128.6 133C128.6 132.6 128.9 132.3 129.2 132.2C130.1 131.9 130.9 132.1 131.8 132.4C132.3 132.6 132.8 132.7 133.4 132.9C135.6 133.3 137.9 133.9 139.6 135.5C140.7 136.6 141.3 137.9 141.1 139.2C141.1 139.3 140.9 139.5 140.7 139.5ZM130.6 132.9C132.2 133.4 133.5 134.6 134.7 135.7C135 136 135.3 136.2 135.6 136.5C137 137.7 138.4 138.3 140.4 138.6C140.4 137.7 139.9 136.8 139.1 136C137.6 134.6 135.4 134.1 133.3 133.6C132.7 133.4 132.2 133.3 131.7 133.1C131.3 133.1 130.9 133 130.6 132.9Z" fill="#1F1A54"/>
<path d="M160.5 132.7C160.9 132.5 161.3 132.3 161.6 132C162.4 131.4 163 130.7 163.6 129.9C164 129.4 164.4 128.9 164.9 128.5C165.4 128.1 165.9 127.8 166.5 127.6C166.9 127.5 166.7 126.9 166.3 126.9C166 126.9 165.7 126.9 165.4 127H165.3C163.1 127.1 160.7 126.4 158.5 127.2C157.5 127.6 156.5 128.4 156 129.5C156 129.5 156 129.5 156 129.6C155.7 130.2 155.6 130.9 155.9 131.6C156.6 133.3 159 133.3 160.5 132.7Z" fill="#1F1A54"/>
<path d="M158.6 133.5C158.1 133.5 157.5 133.4 157 133.2C156.3 132.9 155.7 132.3 155.5 131.6C155.2 130.9 155.3 130.1 155.6 129.3L155.7 129.2C156.2 128.2 157.3 127.2 158.4 126.8C159.9 126.2 161.4 126.3 162.9 126.5C163.7 126.6 164.5 126.6 165.3 126.6C165.4 126.6 165.4 126.6 165.5 126.6C165.8 126.6 166.1 126.6 166.4 126.5C166.8 126.5 167.2 126.8 167.2 127.2C167.3 127.6 167.1 127.9 166.7 128C166.2 128.2 165.7 128.4 165.2 128.9C164.7 129.3 164.3 129.8 163.9 130.3L163.7 130.5C163.1 131.2 162.6 131.9 161.8 132.4C161.4 132.7 161 132.9 160.6 133.1C160.1 133.3 159.4 133.5 158.6 133.5ZM161 127.1C160.2 127.1 159.4 127.2 158.7 127.5C157.9 127.8 156.9 128.6 156.4 129.6C156.1 130.2 156.1 130.8 156.3 131.3C156.5 131.8 156.9 132.2 157.4 132.4C158.2 132.8 159.4 132.7 160.5 132.3C160.9 132.2 161.2 132 161.5 131.7C162.2 131.2 162.7 130.5 163.2 129.9L163.4 129.7C163.8 129.2 164.3 128.7 164.8 128.2C165.3 127.8 165.8 127.5 166.4 127.3C166.1 127.3 165.9 127.3 165.7 127.3H165.6H165.5C164.7 127.3 163.8 127.3 163 127.2C162.2 127.2 161.6 127.1 161 127.1Z" fill="#1F1A54"/>
<path d="M160.5 132.7C160.9 132.5 161.3 132.3 161.6 132C162.4 131.4 163 130.7 163.6 129.9C164 129.4 164.4 128.9 164.9 128.5C163.5 127.9 162 128.2 160.6 128.7C159.5 129.1 158.4 129.6 157.2 129.7C156.8 129.7 156.4 129.7 156.1 129.5H156C155.7 130.1 155.6 130.8 155.9 131.5C156.6 133.3 159 133.3 160.5 132.7Z" fill="#1F1A54"/>
<path d="M160.5 132.7C160.9 132.5 161.3 132.3 161.6 132C162.4 131.4 163 130.7 163.6 129.9C162.7 129.8 161.8 130.1 160.9 130.3C160 130.5 158.8 131 157.9 130.9C157.1 130.8 156.5 130.1 156.1 129.4C156.1 129.4 156.1 129.3 156 129.3C156 129.3 156 129.3 156 129.4C155.7 130 155.6 130.7 155.9 131.4C156.6 133.3 159 133.3 160.5 132.7Z" fill="white"/>
<path d="M158.6 133.5C158.1 133.5 157.5 133.4 157 133.2C156.3 132.9 155.7 132.3 155.5 131.6C155.2 130.9 155.3 130.1 155.6 129.3L155.7 129.2L156 128.7L156.3 129.2L156.1 129.5L156.4 129.3C156.8 129.9 157.3 130.5 158 130.6C158.6 130.7 159.4 130.5 160.1 130.3C160.4 130.2 160.6 130.2 160.8 130.1L161.1 130C161.9 129.8 162.8 129.6 163.6 129.7L164.3 129.8L163.7 130.6C163.1 131.3 162.6 132 161.8 132.5C161.4 132.8 161 133 160.6 133.2C160.1 133.3 159.4 133.5 158.6 133.5ZM156.1 130.2C156 130.6 156.1 130.9 156.2 131.3C156.4 131.8 156.8 132.2 157.3 132.4C158.1 132.8 159.3 132.7 160.4 132.3C160.8 132.2 161.1 132 161.4 131.7C161.9 131.3 162.3 130.8 162.7 130.4C162.2 130.5 161.8 130.6 161.3 130.7L160.9 130.8C160.7 130.9 160.5 130.9 160.2 131C159.4 131.2 158.5 131.5 157.7 131.4C157.1 131.2 156.6 130.8 156.1 130.2Z" fill="#1F1A54"/>
<path d="M155.8 132C156 132.1 156.1 132.2 156.3 132.3C156.4 132.3 156.4 132.3 156.5 132.4C158.6 132.9 160.7 130.4 161.1 128.6C161.6 126.6 160.8 124.6 160.7 122.7C160.7 122.1 160.7 121.6 160.8 121C160.8 120.8 160.8 120.7 160.7 120.6V120.5C160.8 120.2 160.5 120 160.3 120C160.1 119.9 159.8 120 159.7 120.3C158.8 123.1 155.1 123.5 154.4 126.4C154.1 127.7 154.4 130.9 155.8 132Z" fill="white"/>
<path d="M157.1 132.8C156.9 132.8 156.7 132.8 156.5 132.7C156.4 132.7 156.3 132.7 156.3 132.6C156.1 132.5 155.9 132.4 155.7 132.3C154 131 153.8 127.6 154.2 126.2C154.6 124.6 155.8 123.7 157 122.8C158.1 122 159.1 121.3 159.5 120.1C159.6 119.7 160.1 119.4 160.5 119.5C160.7 119.6 161 119.7 161.1 119.9C161.2 120.1 161.2 120.3 161.2 120.5C161.3 120.7 161.3 120.8 161.3 121C161.2 121.5 161.2 122 161.3 122.6C161.3 123.2 161.5 123.9 161.6 124.5C161.8 125.8 162.1 127.2 161.7 128.7C161.4 129.9 160.4 131.5 159 132.3C158.3 132.6 157.6 132.8 157.1 132.8ZM156.1 131.7C156.2 131.8 156.4 131.9 156.5 131.9H156.6C157.2 132 157.8 131.9 158.4 131.5C159.6 130.8 160.5 129.3 160.7 128.4C161 127.1 160.8 125.9 160.6 124.6C160.5 124 160.4 123.3 160.3 122.6C160.2 122 160.3 121.4 160.4 120.8L160.3 120.6L160.4 120.2C160.4 120.2 160.4 120.2 160.3 120.2H160.2C159.7 121.7 158.6 122.5 157.4 123.3C156.3 124.1 155.2 124.9 154.9 126.3C154.5 127.8 154.8 130.7 156.1 131.7Z" fill="#1F1A54"/>
<path d="M155.8 132C156 132.1 156.1 132.2 156.3 132.3C155.4 129.3 158.5 126.9 159.9 124.6C160.3 123.9 160.6 123.3 160.8 122.6C160.8 122 160.8 121.5 160.9 120.9C160.9 120.7 160.9 120.6 160.8 120.5V120.4C160.9 120.1 160.6 119.9 160.4 119.9C160.2 119.8 159.9 119.9 159.8 120.2C158.9 123 155.2 123.4 154.5 126.3C154.1 127.7 154.4 130.9 155.8 132Z" fill="#1F1A54"/>
<path d="M155.8 132C155.7 129.5 156 126.8 157.4 124.7C158.4 123.1 159.9 121.7 160.3 119.9C160.1 119.8 159.8 119.9 159.7 120.2C158.8 123 155.1 123.4 154.4 126.3C154.1 127.7 154.4 130.9 155.8 132Z" fill="white"/>
<path d="M156.2 132.8L155.5 132.3C153.8 131 153.6 127.6 154 126.2C154.4 124.6 155.6 123.7 156.8 122.8C157.9 122 158.9 121.3 159.3 120.1C159.4 119.7 159.9 119.4 160.3 119.5L160.7 119.6L160.6 120C160.3 121.4 159.5 122.5 158.6 123.6C158.3 124 157.9 124.5 157.6 124.9C156.4 126.7 155.9 129 156 132L156.2 132.8ZM158.5 122.6C158.1 122.9 157.8 123.2 157.4 123.4C156.3 124.2 155.2 125 154.9 126.4C154.6 127.5 154.8 129.6 155.5 130.9C155.5 128.3 156.1 126.2 157.2 124.5C157.5 124 157.9 123.6 158.2 123.1C158.2 122.9 158.4 122.8 158.5 122.6Z" fill="#1F1A54"/>
<path d="M87.5 254.6C83.6 232.3 86.3999 194.4 86.5999 190.8C86.7999 186.6 90.5 184.7 90.5 184.7C93.4 175.5 108.4 175.5 117.7 181.2C123 184.4 123.7 202.9 123.9 214.7C123.9 214.7 122 250.4 105.1 264.6L87.5 254.6Z" fill="#1F1A54"/>
<path d="M105.1 265.1C105 265.1 105 265.1 104.9 265L87.3 254.8C87.2 254.7 87.1 254.6 87.1 254.5C85.5 245.2 83.9 226.9 86.1 192.3C86.1 191.5 86.2 190.9 86.2 190.6C86.4 186.7 89.5 184.7 90.2 184.3C91.2 181.3 93.5 179.1 96.8 177.9C102.8 175.7 111.5 176.8 117.9 180.8C123.2 184.1 124.1 201.7 124.3 214.7C124.3 215.1 122.2 250.7 105.4 264.9C105.3 265.1 105.2 265.1 105.1 265.1ZM87.9 254.3L105.1 264.2C121.4 250.1 123.5 215.1 123.5 214.7C123.4 207.4 123.1 185 117.5 181.5C111.4 177.7 102.8 176.5 97 178.7C93.8 179.9 91.7 182 90.8 184.8C90.8 184.9 90.7 185 90.6 185C90.6 185 87.1 186.8 86.9 190.7C86.9 191 86.9 191.6 86.8 192.4C84.8 226.8 86.3 245 87.9 254.3Z" fill="#1F1A54"/>
<path d="M98.3 199.7C98.3 199.7 100.3 196.3 104.7 192.2C108.4 188.8 109.6 183.9 109.6 183.9C109.6 183.9 114.6 187.7 117.3 188C119 193.8 121 202.3 120.7 206C120.4 209.5 119 212.1 116 213.6L117.4 220L101.6 219.4L99.3 209.2C95.3 209.5 91.9 208.2 90.3 204.7C88.4 200.4 90.9 196.5 94 197.1C96.3 197.4 97.7 198.9 98.3 199.7ZM116.2 196.1C116.1 195.5 115.6 195.1 115.1 195.2C114.6 195.3 114.4 195.9 114.5 196.5C114.6 197.1 115.1 197.5 115.6 197.4C116.1 197.3 116.4 196.7 116.2 196.1ZM108.4 197.7C108.3 197.1 107.8 196.7 107.3 196.8C106.8 196.9 106.5 197.5 106.7 198.1C106.8 198.7 107.3 199.1 107.8 199C108.3 198.9 108.6 198.3 108.4 197.7Z" fill="white"/>
<path d="M115.1 195.2C115.6 195.1 116.1 195.5 116.2 196.1C116.3 196.7 116.1 197.3 115.6 197.4C115.1 197.5 114.6 197.1 114.5 196.5C114.4 195.9 114.7 195.3 115.1 195.2Z" fill="#1F1A54"/>
<path d="M107.3 196.8C107.8 196.7 108.3 197.1 108.4 197.7C108.5 198.3 108.3 198.9 107.8 199C107.3 199.1 106.8 198.7 106.7 198.1C106.6 197.5 106.9 196.9 107.3 196.8Z" fill="#1F1A54"/>
<path d="M111.5 214.9C109.7 214.9 107.6 214.6 106 213.6C105.8 213.5 105.8 213.2 105.9 213.1C106 212.9 106.3 212.9 106.5 213C109.3 214.7 113.6 214.3 115.1 213.7C115.4 213.6 115.6 213.5 115.9 213.4C118.7 212.1 120.1 209.8 120.4 206.2C120.7 202.8 118.9 194.7 117.1 188.3C117 188.1 117.2 187.9 117.4 187.8C117.6 187.7 117.8 187.9 117.9 188.1C119.7 194.1 121.6 202.5 121.3 206.3C121 210.2 119.3 212.7 116.3 214.2C116 214.3 115.8 214.4 115.5 214.6C114.6 214.7 113.1 214.9 111.5 214.9Z" fill="#1F1A54"/>
<path d="M105.3 195.4C105.2 195.4 105.1 195.4 105 195.3C104.8 195.1 104.8 194.9 105 194.7C105.4 194.2 106.1 193.9 106.8 193.7C107.6 193.5 108.3 193.6 109 193.9C109.2 194 109.3 194.2 109.2 194.4C109.1 194.6 108.9 194.7 108.7 194.6C108.2 194.4 107.6 194.3 107 194.5C106.5 194.6 106 194.9 105.6 195.2C105.6 195.4 105.5 195.4 105.3 195.4Z" fill="#1F1A54"/>
<path d="M112.8 193.8C112.7 193.8 112.6 193.8 112.5 193.7C112.3 193.5 112.3 193.3 112.5 193.1C112.9 192.6 113.6 192.3 114.3 192.1C115.1 191.9 115.8 192 116.5 192.3C116.7 192.4 116.8 192.6 116.7 192.8C116.6 193 116.4 193.1 116.2 193C115.7 192.8 115.1 192.7 114.5 192.9C114 193 113.5 193.3 113.1 193.6C113 193.7 112.9 193.8 112.8 193.8Z" fill="#1F1A54"/>
<path d="M110.7 208.1C107.2 208.1 105.8 205.3 105.8 205.1C105.7 204.9 105.8 204.7 106 204.6C106.2 204.5 106.4 204.6 106.5 204.8C106.6 204.9 107.7 207.4 110.8 207.3C111.1 207.3 111.2 207.5 111.2 207.7C111.2 207.9 111 208.1 110.8 208.1H110.7Z" fill="#1F1A54"/>
<path d="M112.1 202.8C111.6 202.8 111.3 202.7 111.3 202.7C111.1 202.6 111 202.4 111 202.2C111.1 202 111.3 201.9 111.5 201.9C111.5 201.9 112.7 202.2 113.4 201.5C113.6 201.3 113.8 201.3 114 201.5C114.2 201.7 114.2 201.9 114 202.1C113.4 202.6 112.7 202.8 112.1 202.8Z" fill="#1F1A54"/>
<path d="M97.1001 205C96.9001 205 96.8001 204.9 96.7001 204.7C95.6001 201.5 93.6001 201.5 93.5001 201.6C93.3001 201.6 93.1001 201.4 93.1001 201.2C93.1001 201 93.3001 200.8 93.5001 200.8C93.6001 200.8 96.2001 200.7 97.5001 204.5C97.6001 204.7 97.5001 204.9 97.2001 205C97.2001 205 97.2001 205 97.1001 205Z" fill="#1F1A54"/>
<path d="M101.6 219.8C101.4 219.8 101.3 219.7 101.2 219.5L98.9 209.3C98.9 209.1 99 208.9 99.2 208.8C99.4 208.8 99.6 208.9 99.7 209.1L102 219.3C102 219.5 101.9 219.7 101.6 219.8C101.7 219.8 101.6 219.8 101.6 219.8Z" fill="#1F1A54"/>
<path d="M117.4 220.4L101.6 219.8C101.4 219.8 101.2 219.6 101.2 219.4C101.2 219.2 101.4 219 101.6 219L116.9 219.6L115.6 213.7C115.6 213.5 115.7 213.3 115.9 213.2C116.1 213.2 116.3 213.3 116.4 213.5L117.8 219.9C117.8 220 117.8 220.1 117.7 220.2C117.7 220.4 117.5 220.4 117.4 220.4Z" fill="#1F1A54"/>
<path d="M98.3001 209.6C94.3001 209.6 91.4 207.9 90 204.8C89 202.4 89.1 199.8 90.5 198.1C91.4 196.9 92.8 196.4 94.2 196.6C96.5 197 98 198.5 98.7 199.4C99 199.8 99.2 200.1 99.2 200.1C99.3 200.3 99.2 200.5 99.1 200.6C98.9 200.7 98.7 200.6 98.6 200.5C98.6 200.5 98.5 200.3 98.2 199.9C97.6 199.1 96.2 197.7 94.2 197.4C93.1 197.2 92.1001 197.6 91.3001 198.6C90.4001 199.8 89.8001 201.9 90.9001 204.5C92.2001 207.6 95.3 209.1 99.5 208.8C99.7 208.7 99.9 208.9 100 209.1C100 209.3 99.9 209.5 99.7 209.6C99 209.6 98.6001 209.6 98.3001 209.6Z" fill="#1F1A54"/>
<path d="M98.3 200.1C98.2 200.1 98.2 200.1 98.1 200C97.9 199.9 97.8 199.6 98 199.5C98.1 199.4 100 196 104.5 191.9C108.1 188.7 109.3 183.9 109.3 183.8C109.3 183.7 109.4 183.6 109.6 183.5C109.7 183.5 109.9 183.5 110 183.6C110 183.6 114.9 187.4 117.5 187.6C117.7 187.6 117.9 187.8 117.9 188C117.9 188.2 117.7 188.4 117.5 188.4C115.2 188.2 111.4 185.6 110 184.6C109.6 186 108.2 189.7 105.1 192.5C100.8 196.4 98.8 199.8 98.8 199.9C98.6 200 98.5 200.1 98.3 200.1Z" fill="#1F1A54"/>
<path d="M96.2 237.7C94.7 230.8 95.4001 227.6 96.8001 224.9C101.5 216 111.7 215.3 119 213C127.4 210.3 129.9 208.4 129.9 208.4L137.2 220.6L128.3 230.7C130.2 233.3 132.7 237.9 130.9 245.2C129.7 250.2 130.4 263.9 130.9 271.4L123.9 275.5L103.7 263.9C103.7 263.9 102.7 258.8 101.6 255.7C99.5001 249.5 97.4 243.2 96.2 237.7Z" fill="#FFD400"/>
<path d="M123.9 276C123.8 276 123.8 276 123.7 275.9L103.5 264.3C103.4 264.2 103.3 264.1 103.3 264C103.3 264 102.2 258.9 101.2 255.8C99.2 250.1 97 243.5 95.7 237.8C94.2 230.9 94.9 227.6 96.4 224.7C100.3 217.4 107.7 215.5 114.3 213.8C115.9 213.4 117.4 213 118.8 212.6C127.1 210 129.5 208.1 129.6 208.1C129.7 208 129.8 208 129.9 208C130 208 130.1 208.1 130.2 208.2L137.5 220.4C137.6 220.5 137.6 220.7 137.5 220.9L128.8 230.8C131.8 235.1 132.6 239.9 131.3 245.4C130.1 250.3 130.8 263.9 131.4 271.5C131.4 271.7 131.3 271.8 131.2 271.9L124.2 276C124 276 124 276 123.9 276ZM104.1 263.7L123.9 275.1L130.5 271.3C130 263.6 129.3 250.2 130.5 245.2C131.8 239.9 131 235.3 127.9 231C127.8 230.8 127.8 230.6 127.9 230.5L136.6 220.6L129.7 209C128.7 209.6 125.8 211.3 119 213.4C117.6 213.8 116.1 214.2 114.5 214.6C108.1 216.2 100.8 218.1 97.1 225.1C95.7 227.8 95 231 96.5 237.6C97.8 243.3 100 249.8 101.9 255.5C103 258.4 103.9 262.7 104.1 263.7Z" fill="#1F1A54"/>
<path d="M124.9 235.1C124.8 235.1 124.7 235.1 124.6 235C124.4 234.9 124.4 234.6 124.6 234.4L128 230.5C128.1 230.3 128.4 230.3 128.6 230.5C128.8 230.6 128.8 230.9 128.6 231.1L125.2 235C125.1 235 125 235.1 124.9 235.1Z" fill="#1F1A54"/>
<path d="M163.6 177.5C164.6 175.9 167.1 172.8 168 170.1C168.4 169 168.5 168.1 169.2 166.3C169.6 165.2 170.4 163.7 171 162.9C171.4 162.3 172.6 160.5 171.4 159.8C170.8 159.5 170.2 159.9 169.9 160.2C169.6 160.5 169.2 160.9 168.6 161.7C168.1 162.5 166.4 164.1 166.4 164.1C166.4 164.1 168.1 160.7 168.8 159.6C169.3 158.9 170.6 157 169.4 156.1C168.8 155.7 167.9 156.1 167.7 156.3C167.3 156.6 167.2 157 166.6 157.9C166.2 158.6 164 161.6 164 161.6C164 161.6 166 157.1 166.6 156C167 155.1 168.4 152.8 166.7 151.9C165.6 151.3 164.4 153.2 163.7 154.3C162.8 155.8 160.6 160.6 160.6 160.6L162.2 155.1C162.2 155.1 163 152.8 161.5 152.3C160 151.7 159.4 153.4 159.1 154.2C157.6 157.9 156.1 161.9 155.5 164.1C154.6 167.1 152 159.5 149.6 160.4C147.2 161.4 155.5 173.4 153.1 178.4C150.1 185 142.4 195.5 140.4 199.9C134.9 205.2 129.9 208.5 129.9 208.5L137.2 220.7L149.9 206.5C157.7 194.5 160.6 182.5 163.6 177.5Z" fill="white"/>
<path d="M137.2 221C137.1 221 137.1 221 137.2 221C137 221 136.9 220.9 136.9 220.8L129.6 208.6C129.5 208.4 129.5 208.2 129.7 208.1C129.7 208.1 134.8 204.8 140.1 199.6C141 197.6 143.1 194.3 145.4 190.8C148.1 186.6 151.1 181.8 152.8 178.2C154 175.5 152.1 170.6 150.5 166.7C149.1 163.1 148.1 160.6 149.5 160C150.9 159.4 152.3 161.2 153.4 162.7C153.9 163.3 154.6 164.4 154.9 164.3C154.9 164.3 155 164.2 155.1 163.9C155.7 161.7 157.2 157.7 158.7 154L158.8 153.8C159.1 153 159.8 151.2 161.6 151.9C163 152.4 162.9 154.3 162.6 155.2L162.2 156.7C162.7 155.7 163.2 154.7 163.5 154.2C164 153.4 165.4 150.9 167 151.7C168.9 152.7 167.7 155 167.1 156L167 156.2C166.8 156.6 166.4 157.5 166 158.4C166.2 158.1 166.4 157.9 166.4 157.7C167 156.7 167.2 156.4 167.6 156C167.9 155.7 169 155.2 169.8 155.8C171.2 156.8 169.9 158.7 169.4 159.6L169.3 159.8C169 160.2 168.6 161 168.2 161.8C168.3 161.7 168.4 161.6 168.5 161.5C169 160.7 169.5 160.3 169.8 160L169.9 159.9C170.2 159.6 171.1 159.1 171.8 159.5C172.2 159.7 172.4 160 172.5 160.4C172.7 161.3 172.1 162.3 171.5 163.1C171 163.8 170.2 165.3 169.8 166.4C169.4 167.6 169.2 168.3 169 169C168.9 169.4 168.8 169.8 168.7 170.2C168.1 172.1 166.6 174.2 165.4 175.9C164.9 176.6 164.5 177.2 164.2 177.7C163.1 179.5 162.1 182.2 160.8 185.4C158.6 191.1 155.5 199 150.4 206.7L137.7 220.9C137.4 221 137.3 221 137.2 221ZM130.4 208.5L137.3 220L149.6 206.2C154.6 198.6 157.7 190.8 159.9 185C161.2 181.7 162.2 179 163.3 177.2C163.6 176.7 164 176.1 164.5 175.4C165.6 173.8 167.1 171.7 167.7 169.9C167.8 169.5 167.9 169.1 168 168.8C168.2 168.1 168.4 167.3 168.8 166.1C169.2 164.9 170 163.4 170.6 162.6C170.9 162.2 171.6 161.1 171.5 160.4C171.5 160.2 171.4 160.1 171.2 160C170.9 159.8 170.3 160.1 170.2 160.3L170.1 160.4C169.8 160.7 169.4 161 168.9 161.8C168.4 162.6 166.8 164.2 166.7 164.3C166.6 164.4 166.4 164.4 166.2 164.3C166.1 164.2 166 164 166.1 163.8C166.2 163.7 167.8 160.3 168.5 159.2L168.6 159C169.3 157.9 169.9 156.8 169.2 156.3C168.8 156 168.1 156.3 167.9 156.5C167.6 156.8 167.4 157.1 166.9 158C166.5 158.7 164.3 161.6 164.3 161.7C164.2 161.9 164 161.9 163.8 161.8C163.6 161.7 163.6 161.5 163.6 161.3C163.7 161.1 165.6 156.8 166.2 155.7L166.3 155.5C167 154.1 167.5 152.7 166.5 152.1C165.9 151.8 165 152.6 164 154.3C163.2 155.8 160.9 160.5 160.9 160.5C160.8 160.7 160.6 160.8 160.4 160.7C160.2 160.6 160.1 160.4 160.2 160.3L161.8 154.8C161.8 154.8 162.4 152.8 161.3 152.4C160.4 152.1 160 152.7 159.5 153.9L159.4 154.1C157.9 157.8 156.4 161.7 155.8 163.9C155.7 164.1 155.6 164.8 155 164.9C154.3 165 153.6 164.2 152.7 163C151.7 161.7 150.5 160.2 149.6 160.5C148.9 160.8 150.1 163.8 151.1 166.2C152.7 170.3 154.7 175.3 153.4 178.3C151.7 181.9 148.7 186.7 146 191C143.8 194.5 141.7 197.8 140.8 199.8C140.8 199.8 140.8 199.9 140.7 199.9C136 204.6 131.5 207.7 130.4 208.5Z" fill="#1F1A54"/>
<path d="M288.5 236L297.4 237.7C297.4 237.7 300.7 214.2 296.6 208.7C293.4 204.4 277.2 197.4 277.2 197.4L274.3 200.6C269.2 206.2 259.9 204.1 257.6 196.9C257.6 196.9 252.5 197.3 246.2 198.1C241.2 198.7 231.6 196.9 231.6 196.9L228.6 216.3L240.7 219.9C240.7 219.9 241.2 225.5 241.4 232.1C241.4 234.1 241.5 236 241.4 237.5C241.2 241.1 239.4 264.2 239.4 264.2L259.2 275.6L287.3 259.4L288.5 236Z" fill="#FFD400"/>
<path d="M288.5 236.4C288.3 236.4 288.1 236.2 288.1 236C288.1 235.8 288.3 235.6 288.5 235.6C288.7 235.6 288.9 235.8 288.9 236C288.9 236.2 288.7 236.4 288.5 236.4Z" fill="#1F1A54"/>
<path d="M259.2 275.9C259.1 275.9 259.1 275.9 259 275.8L239.2 264.4C239.1 264.3 239 264.2 239 264C239 263.8 240.8 240.9 241 237.3C241.1 236 241.1 234.2 241 231.9C240.9 226.2 240.5 221.2 240.4 220L228.6 216.4C228.4 216.3 228.3 216.2 228.3 216L231.3 196.6C231.3 196.5 231.4 196.4 231.5 196.3C231.6 196.2 231.7 196.2 231.8 196.2C231.9 196.2 241.3 197.9 246.2 197.3C252.5 196.5 257.6 196.2 257.6 196.1C257.8 196.1 258 196.2 258 196.4C259 199.7 261.6 202.1 265 202.8C268.3 203.5 271.7 202.5 274 200L276.9 196.8C277 196.7 277.2 196.6 277.4 196.7C278.1 197 293.7 203.8 296.9 208.1C301 213.7 297.9 236.5 297.8 237.4C297.8 237.5 297.7 237.6 297.6 237.7C297.5 237.8 297.4 237.8 297.3 237.8L288.8 236.2L287.5 259C287.5 259.1 287.4 259.3 287.3 259.3L259.2 275.5C259.3 275.9 259.3 275.9 259.2 275.9ZM239.8 263.9L259.1 275.1L286.8 259.1L288.1 236C288.1 235.9 288.2 235.8 288.3 235.7C288.4 235.6 288.5 235.6 288.6 235.6L297.1 237.2C297.5 234 299.9 213.8 296.3 208.9C293.4 205 279.4 198.7 277.3 197.8L274.6 200.8C272.1 203.5 268.4 204.7 264.8 203.9C261.3 203.1 258.5 200.7 257.3 197.3C256.1 197.4 251.6 197.8 246.2 198.4C241.7 198.9 233.8 197.6 231.9 197.3L229 215.9L240.7 219.4C240.9 219.4 241 219.6 241 219.7C241 219.8 241.5 225.4 241.7 231.9C241.8 234.2 241.7 236 241.7 237.3C241.6 240.8 240 261.3 239.8 263.9Z" fill="#1F1A54"/>
<path d="M288.5 236.4L281 235C280.9 235 280.8 234.9 280.7 234.8C280.6 234.7 280.6 234.6 280.6 234.5L283.3 222.7C283.3 222.5 283.6 222.4 283.8 222.4C284 222.4 284.2 222.7 284.1 222.9L281.5 234.3L288.6 235.6C288.8 235.6 289 235.8 288.9 236.1C288.9 236.3 288.7 236.4 288.5 236.4Z" fill="#1F1A54"/>
<path d="M251.1 270.8L258.7 275.2L259.5 275.3L265.9 271.6L251.1 270.8Z" fill="#1F1A54"/>
<path d="M239.6 261.3C239.5 263 239.4 264.1 239.4 264.1L241.8 265.5L273.6 267.2L279.9 263.5L239.6 261.3Z" fill="#1F1A54"/>
<path d="M240.3 252.5C240.2 253.9 240.1 255.2 240 256.5L287.3 259.1L287.5 255.1L240.3 252.5Z" fill="#1F1A54"/>
<path d="M240.7 219.8C240.7 219.8 240.7 220.3 240.8 221L298.6 224.2C298.6 222.9 298.7 221.5 298.7 220.2L229.5 216.4L240.7 219.8Z" fill="#1F1A54"/>
<path d="M241.2 225.9C241.3 227.1 241.3 228.5 241.4 229.9L298 233C298.1 231.8 298.2 230.5 298.3 229L241.2 225.9Z" fill="#1F1A54"/>
<path d="M230 207.6L229.4 211.6L298.5 215.4C298.4 213.9 298.1 212.5 297.8 211.4L230 207.6Z" fill="#1F1A54"/>
<path d="M240.9 243.7C240.8 244.9 240.7 246.3 240.6 247.7L287.7 250.3L287.9 246.3L240.9 243.7Z" fill="#1F1A54"/>
<path d="M273.6 201.1C269.4 204.9 263.1 204.3 259.6 200.3L231.3 198.7L230.7 202.7L293.9 206.2C291.9 204.7 289.2 203.2 286.6 201.8L273.6 201.1Z" fill="#1F1A54"/>
<path d="M241.4 234.8C241.4 235.7 241.4 236.6 241.3 237.4C241.3 237.7 241.3 238.2 241.2 238.8L288.1 241.4L288.3 237.4L241.4 234.8Z" fill="#1F1A54"/>
<path d="M276 188.1C279.9 189 283.5 188.2 285.5 184.9C286.5 183.3 286.8 181.6 286.5 180.1C286.1 178.1 284.7 176.7 282.9 176.7C280.7 176.8 279.1 178 278.3 178.7C278.3 178.7 276.7 176 277.9 172.4C279.1 169 280 167.9 280.1 167.8C279.8 167.8 270.7 168.6 267.8 167.6C265 166.6 271.4 164.6 271.9 164.5C271.4 164.5 264.5 164.6 261.2 164.4C258.7 169.9 255.5 178 255.2 181.7C255 185.2 256 188 258.8 189.9C259 190.1 259.3 190.2 259.6 190.4C259.7 190.5 259.8 190.5 259.9 190.6L259.3 195.9L257.5 196.8C259.8 204 269 206.1 274.2 200.5L277.1 197.3L274.6 196.2L276 188.1ZM261.6 174C261.2 173.8 261 173.2 261.2 172.7C261.4 172.1 262 171.8 262.4 172C262.9 172.2 263 172.8 262.8 173.4C262.6 173.8 262.1 174.2 261.6 174ZM269.1 176.7C268.6 176.5 268.5 175.9 268.7 175.3C268.9 174.7 269.5 174.4 269.9 174.6C270.3 174.8 270.5 175.4 270.3 176C270.1 176.6 269.6 176.9 269.1 176.7Z" fill="white"/>
<path d="M272 164.5C271.5 164.7 265.1 166.6 267.9 167.6C270.8 168.7 279.9 167.8 280.2 167.8C280.1 167.9 279.2 169 278 172.4C276.7 176 278.4 178.7 278.4 178.7C279.2 178 280.8 176.7 283 176.7C284.8 176.7 286.2 178.1 286.6 180.1C287.5 178.7 290.7 176.3 291.3 171.7C291.6 169.6 290.8 168 290 166.8C289.6 166.2 289.2 165.8 288.8 165.5C288.5 165.2 288.3 165.1 288.3 165.1C288.2 164.8 288.2 164.5 288.1 164.2C285.8 155.4 271.6 153.5 261.9 157.7C253.8 161.2 256.7 164.2 260.2 164.4C260.5 164.4 260.8 164.4 261.2 164.4C264.6 164.6 271.5 164.5 272 164.5Z" fill="#1F1A54"/>
<path d="M261.2 172.6C261 173.2 261.2 173.8 261.6 173.9C262.1 174.1 262.6 173.8 262.8 173.2C263 172.6 262.8 172 262.4 171.8C262 171.7 261.5 172.1 261.2 172.6Z" fill="#1F1A54"/>
<path d="M268.7 175.4C268.5 176 268.7 176.6 269.1 176.8C269.6 177 270.1 176.6 270.3 176.1C270.5 175.5 270.3 174.9 269.9 174.7C269.5 174.5 268.9 174.8 268.7 175.4Z" fill="#1F1A54"/>
<path d="M288.2 164.2C288.2 164.3 288.2 164.3 288.2 164.2C288.3 164.5 288.3 164.8 288.4 165.1C291.9 165.8 295.4 159.2 292.1 159.9C288.8 160.7 288.2 163.9 288.2 164.2Z" fill="#1F1A54"/>
<path d="M288.9 165.6C289.2 165.9 289.7 166.3 290.1 166.9C294.8 169.8 298.1 167.5 295.5 165.7C292.9 163.9 288.9 165.6 288.9 165.6Z" fill="#1F1A54"/>
<path d="M265.1 192.1C263 192.1 260.9 191.5 259.8 191C259.7 190.9 259.6 190.9 259.5 190.8C259.2 190.7 259 190.5 258.7 190.3C256 188.4 254.7 185.6 255 181.8C255.2 178.1 258.2 170.3 261 164.3C261.1 164.1 261.3 164 261.5 164.1C261.7 164.2 261.8 164.4 261.7 164.6C259.1 170.3 256 178.2 255.8 181.8C255.6 185.4 256.7 187.9 259.2 189.6C259.4 189.8 259.7 189.9 259.9 190.1C260 190.2 260.1 190.2 260.2 190.3C262 191.2 265.8 191.9 268.5 190.7C268.7 190.6 268.9 190.7 269 190.9C269.1 191.1 269 191.3 268.8 191.4C267.6 191.9 266.4 192.1 265.1 192.1Z" fill="#1F1A54"/>
<path d="M265.8 185.4C265.5 185.4 265.2 185.4 264.8 185.3C264.6 185.3 264.4 185.1 264.5 184.8C264.5 184.6 264.7 184.4 265 184.5C268 185 269.6 182.8 269.6 182.7C269.7 182.5 270 182.5 270.2 182.6C270.4 182.7 270.4 183 270.3 183.2C270.2 183.3 268.7 185.4 265.8 185.4Z" fill="#1F1A54"/>
<path d="M264.9 179.9C264.4 179.9 263.3 179.8 262.6 178.9C262.5 178.7 262.5 178.5 262.7 178.3C262.9 178.2 263.1 178.2 263.3 178.4C263.8 179.2 265.1 179.1 265.1 179.1C265.3 179.1 265.5 179.2 265.5 179.5C265.5 179.7 265.4 179.9 265.1 179.9C265.2 179.9 265.1 179.9 264.9 179.9Z" fill="#1F1A54"/>
<path d="M278.9 188.8C278 188.8 277 188.7 276 188.5C275.8 188.5 275.6 188.3 275.7 188.1C275.8 187.9 275.9 187.7 276.2 187.7C279.1 188.4 283.1 188.4 285.4 184.7C286.3 183.3 286.6 181.7 286.4 180.2C286.1 178.4 284.8 177.2 283.3 177.2C283.3 177.2 283.3 177.2 283.2 177.2C281.3 177.3 279.8 178.3 278.9 179.1C278.6 179.4 278.4 179.6 278.4 179.6C278.3 179.8 278 179.8 277.8 179.6C277.6 179.5 277.6 179.2 277.8 179C277.8 179 278 178.8 278.4 178.4C279.4 177.5 281.1 176.3 283.2 176.3C285.2 176.2 286.8 177.7 287.2 180C287.5 181.6 287.1 183.4 286.1 185C284.4 187.5 281.9 188.8 278.9 188.8Z" fill="#1F1A54"/>
<path d="M286.6 180.5C286.5 180.5 286.5 180.5 286.4 180.4C286.2 180.3 286.2 180 286.3 179.8C286.5 179.4 286.9 179 287.3 178.6C288.6 177.2 290.5 175 291 171.6C291.3 169.6 290.5 168 289.8 167C289.7 166.8 289.7 166.6 289.9 166.4C290.1 166.3 290.3 166.3 290.5 166.5C291.3 167.6 292.2 169.4 291.8 171.6C291.3 175.3 289.3 177.5 288 179C287.6 179.4 287.3 179.8 287.1 180.1C286.9 180.5 286.8 180.5 286.6 180.5Z" fill="#1F1A54"/>
<path d="M290 167.2C289.9 167.2 289.7 167.1 289.7 167C289.3 166.4 288.8 166 288.6 165.8C288.3 165.5 288.1 165.4 288.1 165.4C288 165.3 287.9 165.2 287.9 165.1C287.8 164.8 287.8 164.5 287.7 164.3C287.6 164.1 287.8 163.9 288 163.8C288.2 163.7 288.4 163.9 288.5 164.1C288.6 164.3 288.6 164.6 288.7 164.8C288.8 164.9 288.9 165 289.1 165.2C289.3 165.4 289.8 165.9 290.3 166.5C290.4 166.7 290.4 166.9 290.2 167.1C290.2 167.2 290.1 167.2 290 167.2Z" fill="#1F1A54"/>
<path d="M267.9 164.9C265.6 164.9 263 164.9 261.3 164.8H260.8C260.6 164.8 260.4 164.8 260.3 164.8C258.5 164.7 256.7 163.9 256.4 162.4C256.2 161.2 257 159.4 261.8 157.3C268.4 154.5 276.9 154.4 282.5 157.2C285.7 158.8 287.8 161.2 288.6 164.1C288.7 164.3 288.5 164.5 288.3 164.6C288.1 164.6 287.9 164.5 287.8 164.3C287.1 161.6 285.2 159.4 282.2 157.9C276.8 155.2 268.5 155.3 262.2 158C257.4 160.1 257.2 161.6 257.3 162.2C257.5 163.1 258.8 163.8 260.4 163.9C260.5 163.9 260.7 163.9 260.9 163.9H261.4C264.3 164 269.8 164 272 164H272.1C272.3 164 272.5 164.2 272.5 164.4C272.5 164.6 272.3 164.8 272.1 164.8H272C271 164.9 269.5 164.9 267.9 164.9Z" fill="#1F1A54"/>
<path d="M273.4 168.6C271.2 168.6 269 168.5 267.8 168C267.1 167.8 266.8 167.4 266.8 167C266.8 166.7 266.8 165.7 271.8 164.2H271.9C272.1 164.1 272.3 164.2 272.4 164.3C272.5 164.5 272.5 164.7 272.3 164.9C272.3 164.9 272.2 165 272.1 165H272C267.8 166.3 267.6 167.1 267.6 167.1C267.6 167.1 267.7 167.2 268.1 167.4C270.3 168.2 276.7 167.9 280.2 167.6C280.3 167.6 280.5 167.6 280.6 167.7C280.7 167.9 280.7 168.1 280.6 168.3C280.5 168.4 280.5 168.4 280.4 168.4C279.7 168.3 276.5 168.6 273.4 168.6Z" fill="#1F1A54"/>
<path d="M278.4 179.2C278.3 179.2 278.1 179.1 278.1 179C278 178.9 276.4 176.1 277.7 172.4C278.7 169.5 279.5 168.2 280 167.7C280.1 167.5 280.4 167.5 280.6 167.6C280.8 167.7 280.8 168 280.7 168.1C280.4 168.5 279.5 169.8 278.6 172.6C277.4 176 278.9 178.5 279 178.6C279.1 178.8 279.1 179 278.9 179.2C278.6 179.2 278.5 179.2 278.4 179.2Z" fill="#1F1A54"/>
<path d="M288.9 165.6C288.7 165.6 288.5 165.6 288.3 165.5C288.1 165.5 287.9 165.2 288 165C288 164.8 288.3 164.6 288.5 164.7C290 165 291.5 163.8 292.4 162.4C293 161.4 293.2 160.6 293 160.4C292.9 160.2 292.4 160.3 292.2 160.3C289.3 161 288.7 163.9 288.7 164.3C288.7 164.5 288.5 164.7 288.3 164.7C288.1 164.7 287.9 164.5 287.9 164.3H288.3H287.9C288 163.9 288.6 160.4 292.1 159.6C293.1 159.4 293.5 159.7 293.7 160C294.2 160.7 293.7 162 293.1 162.9C292.1 164.3 290.5 165.6 288.9 165.6Z" fill="#1F1A54"/>
<path d="M294.2 168.7C293 168.7 291.4 168.3 289.8 167.2C289.7 167.1 289.6 167 289.6 166.8H290L290.2 166.4C290.2 166.4 290.2 166.4 290.3 166.4C293.3 168.3 295.5 167.8 295.9 167.1C296.2 166.6 295.5 166 295.3 165.9C292.9 164.3 289.1 165.8 289 165.8C288.8 165.9 288.6 165.8 288.5 165.6C288.4 165.4 288.5 165.2 288.7 165.1C288.9 165 293 163.4 295.7 165.3C296.9 166.1 296.9 167.1 296.5 167.6C296.2 168.3 295.3 168.7 294.2 168.7Z" fill="#1F1A54"/>
<path d="M278.9 184.3C278.8 184.3 278.8 184.3 278.7 184.3C278.5 184.2 278.4 184 278.5 183.8C280.3 180.2 282.9 180.7 283 180.7C283.2 180.7 283.4 181 283.3 181.2C283.3 181.4 283 181.6 282.8 181.5C282.7 181.5 280.7 181.1 279.2 184.1C279.2 184.2 279.1 184.3 278.9 184.3Z" fill="#1F1A54"/>
<path d="M272.2 173.6C272.1 173.6 272 173.5 271.9 173.4C271.6 173 271.2 172.7 270.7 172.5C270.1 172.3 269.6 172.2 269 172.4C268.8 172.5 268.6 172.3 268.5 172.1C268.4 171.9 268.6 171.7 268.8 171.6C269.5 171.4 270.2 171.5 271 171.7C271.7 172 272.2 172.4 272.6 172.9C272.7 173.1 272.7 173.3 272.5 173.5C272.3 173.5 272.3 173.6 272.2 173.6Z" fill="#1F1A54"/>
<path d="M265.1 170.8C265 170.8 264.9 170.7 264.8 170.6C264.5 170.2 264.1 169.9 263.5 169.7C262.9 169.5 262.4 169.4 261.8 169.6C261.6 169.7 261.4 169.5 261.3 169.3C261.2 169.1 261.4 168.9 261.6 168.8C262.3 168.6 263 168.7 263.8 168.9C264.5 169.2 265 169.6 265.4 170.1C265.5 170.3 265.5 170.5 265.3 170.7C265.3 170.8 265.2 170.8 265.1 170.8Z" fill="#1F1A54"/>
<path d="M267.1 204.1C266.3 204.1 265.6 204 264.8 203.8C261.2 203 258.4 200.4 257.2 196.9C257.1 196.7 257.2 196.5 257.4 196.4L259 195.6L259.5 190.5C259.5 190.3 259.7 190.1 259.9 190.1C260.1 190.1 260.3 190.3 260.3 190.5L259.7 195.8C259.7 195.9 259.6 196.1 259.5 196.1L258 196.8C259.1 199.9 261.6 202.2 264.9 202.9C268.2 203.6 271.6 202.6 273.9 200.1L276.4 197.3L274.4 196.4C274.2 196.3 274.1 196.2 274.2 196L275.5 187.9C275.5 187.7 275.7 187.5 275.9 187.6C276.1 187.6 276.3 187.8 276.2 188L274.9 195.9L277.1 196.9C277.2 197 277.3 197.1 277.3 197.2C277.3 197.3 277.3 197.5 277.2 197.6L274.3 200.8C272.6 202.9 269.9 204.1 267.1 204.1Z" fill="#1F1A54"/>
<path d="M241 237.1C239.3 236.2 235.2 236 232.8 234.5C231.8 233.9 231.1 233.4 229.4 232.5C228.3 231.9 226.8 231.4 225.8 231.1C225 230.9 223 230.4 223.4 229.1C223.6 228.5 224.4 228.4 224.7 228.4C225.1 228.4 225.7 228.4 226.7 228.6C227.6 228.8 229.9 229 229.9 229C229.9 229 226.3 227.6 225.1 227.2C224.3 227 222 226.5 222.3 225.1C222.4 224.4 223.4 224.1 223.7 224.1C224.2 224.1 224.5 224.2 225.6 224.6C226.4 224.8 230 225.6 230 225.6C230 225.6 225.5 223.6 224.4 223.2C223.5 222.8 220.9 222 221.6 220.3C222 219.1 224.2 219.7 225.4 220.1C227 220.6 231.9 222.7 231.9 222.7L227 219.6C227 219.6 224.9 218.4 225.6 217C226.3 215.6 227.9 216.5 228.7 216.8C232.3 218.5 236 220.5 238 221.7C240.7 223.4 237.5 215.9 239.9 215C242.3 214.1 244.9 227.3 249.3 230.8C254.8 235.1 274.5 242.8 278.2 245.6C278.2 246.3 280.9 234.7 280.9 234.7L295.4 237.3C295.4 237.3 288.3 260.7 280.3 260.8C270.8 260.8 251.2 242.5 241 237.1Z" fill="white"/>
<path d="M280.4 261.1C274 261.1 263.4 253.3 254.1 246.4C249.1 242.7 244.4 239.2 240.9 237.4C240.2 237 239 236.8 237.8 236.5C236.1 236.1 234.1 235.7 232.7 234.8C232.3 234.6 232 234.4 231.7 234.2C231.1 233.8 230.4 233.4 229.3 232.8C228.3 232.3 226.7 231.7 225.8 231.5C224.8 231.3 223.7 230.9 223.2 230.1C223 229.8 223 229.4 223.1 229C223.4 228.2 224.3 228 224.8 228H224.9C225.3 228 225.9 228 226.8 228.3C226.9 228.3 227.1 228.4 227.2 228.4C226.4 228.1 225.5 227.8 225 227.6L224.8 227.5C223.9 227.3 221.6 226.7 222 225C222.2 224.1 223.3 223.7 223.8 223.7C224.3 223.7 224.7 223.8 225.8 224.2C226 224.2 226.2 224.3 226.6 224.4C225.7 224 224.8 223.6 224.4 223.5L224.2 223.4C223.1 223 220.7 222 221.4 220.1C222 218.5 224.8 219.4 225.7 219.7C226.3 219.9 227.3 220.3 228.4 220.7L227.1 219.9C226.3 219.4 224.9 218.2 225.6 216.8C226.5 215.1 228.1 216 229 216.4L229.2 216.5C232.8 218.2 236.6 220.2 238.5 221.5C238.8 221.7 239 221.7 239 221.7C239.2 221.5 239.1 220.2 239 219.5C238.8 217.6 238.7 215.4 240.1 214.8C241.6 214.2 242.8 217.1 244.5 221.1C246 224.8 247.8 228.9 249.9 230.6C252.9 233 260.4 236.4 267 239.4C272 241.7 276.4 243.7 278.4 245C278.8 243.4 280.1 238.2 280.9 234.7C280.9 234.5 281.1 234.4 281.3 234.4L295.8 237C295.9 237 296 237.1 296 237.2C296.1 237.3 296.1 237.4 296 237.5C295.6 238.3 288.7 261.1 280.4 261.1ZM224.8 228.7C224.5 228.7 224 228.8 223.8 229.2C223.7 229.4 223.7 229.6 223.8 229.7C224.1 230.3 225.4 230.6 225.9 230.7C226.8 230.9 228.5 231.5 229.6 232.1C230.7 232.7 231.4 233.1 232 233.5C232.3 233.7 232.6 233.9 233 234.1C234.3 234.9 236.2 235.3 237.9 235.7C239.3 236 240.4 236.3 241.2 236.7C244.8 238.6 249.5 242.1 254.5 245.8C263.7 252.6 274.2 260.3 280.4 260.3C287.5 260.3 294.1 240.5 295 237.5L281.2 235C279.5 242.1 279 244.6 278.6 245.4C278.4 245.8 278.3 245.8 278.2 245.8C278.1 245.8 278 245.7 278 245.7C276.3 244.5 271.5 242.2 266.4 239.9C259.8 236.9 252.3 233.4 249.2 231C246.9 229.2 245.1 224.9 243.6 221.2C242.4 218.3 241 215 240.2 215.3C239.3 215.6 239.4 217.6 239.6 219.2C239.7 220.7 239.8 221.8 239.2 222.1C238.7 222.4 238.2 222 238 221.9C236.1 220.7 232.4 218.7 228.8 217L228.6 216.9C227.4 216.3 226.7 216.1 226.2 217C225.6 218.1 227.4 219.1 227.4 219.1L232.3 222.2C232.5 222.3 232.5 222.5 232.4 222.7C232.3 222.9 232.1 222.9 231.9 222.9C231.9 222.9 227 220.9 225.4 220.3C223.5 219.7 222.3 219.7 222.1 220.3C221.7 221.4 223 222.1 224.5 222.7L224.8 222.8C225.9 223.3 230.3 225.2 230.4 225.2C230.6 225.3 230.7 225.5 230.6 225.7C230.5 225.9 230.4 226 230.2 225.9C230.1 225.9 226.5 225.1 225.7 224.9C224.7 224.6 224.4 224.5 223.9 224.5C223.7 224.5 222.9 224.7 222.8 225.2C222.6 226.1 223.8 226.5 225.1 226.9L225.3 227C226.5 227.3 230 228.7 230.1 228.8C230.3 228.9 230.4 229 230.3 229.2C230.3 229.4 230.1 229.5 229.9 229.5C229.8 229.5 227.5 229.3 226.6 229.1C225.7 228.9 225.2 228.9 224.8 228.9V228.7Z" fill="#1F1A54"/>
</svg>
