<svg width="375" height="277" viewBox="0 0 375 277" fill="none" xmlns="http://www.w3.org/2000/svg">
<path d="M98.9002 100.9L90.6002 102C90.6002 102 88.8002 80.2 92.8002 75.3C96.0002 71.5 111.2 65.9 111.2 65.9L113.7 69C118.1 74.4 126.8 73 129.2 66.4C129.2 66.4 133 67.4 138.8 68.4C143.4 69.2 154.6 67.8 154.6 67.8L154.8 82.2L143.6 88.3C143.6 88.3 142.9 93.4 142.4 99.5C142.3 101.4 142.2 103.1 142.2 104.5C142.2 109.9 142.9 139.7 142.9 139.7C128.9 144.2 98.9002 138.5 98.9002 138.5V100.9Z" fill="#FFD400"/>
<path d="M98.9 101.3C98.7 101.3 98.5 101.1 98.5 100.9C98.5 100.7 98.7 100.5 98.9 100.5C99.1 100.5 99.3 100.7 99.3 100.9C99.3 101.1 99.1 101.3 98.9 101.3Z" fill="#1F1A54"/>
<path d="M128.3 141.9C114.5 141.9 99.1001 139.1 98.9001 139C98.7001 139 98.6001 138.8 98.6001 138.6V101.3L90.7001 102.4C90.6001 102.4 90.5001 102.4 90.4001 102.3C90.3001 102.2 90.3001 102.1 90.3001 102C90.2001 101.1 88.5001 80 92.6001 75C95.8001 71.1 110.5 65.7 111.2 65.5C111.3 65.4 111.5 65.5 111.6 65.6L114.1 68.7C116.1 71.1 119.1 72.3 122.3 71.8C125.4 71.3 127.9 69.2 129 66.3C129.1 66.1 129.3 66 129.4 66.1C129.4 66.1 133.2 67.1 139 68.1C143.5 68.9 154.6 67.5 154.7 67.5C154.8 67.5 154.9 67.5 155 67.6C155.1 67.7 155.1 67.8 155.1 67.9L155.3 82.3C155.3 82.4 155.2 82.6 155.1 82.6L144.1 88.6C144 89.6 143.3 94.2 142.9 99.5C142.7 101.6 142.7 103.2 142.7 104.5C142.7 109.9 143.4 139.4 143.4 139.7C143.4 139.9 143.3 140 143.1 140.1C139.1 141.5 133.8 141.9 128.3 141.9ZM99.3001 138.3C102.5 138.9 129.5 143.5 142.6 139.5C142.5 136.5 141.9 109.6 141.9 104.5C141.9 103.3 142 101.6 142.2 99.5C142.7 93.5 143.4 88.4 143.4 88.3C143.4 88.2 143.5 88.1 143.6 88L154.6 82L154.4 68.2C152.3 68.4 143 69.5 138.9 68.7C134.1 67.9 130.6 67 129.6 66.7C128.3 69.7 125.7 71.9 122.4 72.4C119 73 115.7 71.7 113.5 69.1L111.1 66.2C109.1 66.9 95.9001 72 93.1001 75.4C89.5001 79.8 90.7001 98.5 90.9001 101.4L98.8001 100.3C98.9001 100.3 99.0001 100.3 99.1001 100.4C99.2001 100.5 99.2001 100.6 99.2001 100.7V138.3H99.3001Z" fill="#1F1A54"/>
<path d="M98.9 101.3C98.7 101.3 98.6 101.2 98.5 101C98.5 100.8 98.6 100.6 98.8 100.6L105.4 99.7L103.6 89.1C103.6 88.9 103.7 88.7 103.9 88.7C104.1 88.7 104.3 88.8 104.3 89L106.1 100C106.1 100.1 106.1 100.2 106 100.3C105.9 100.4 105.9 100.4 105.8 100.4L98.9 101.3C99 101.3 98.9 101.3 98.9 101.3Z" fill="#1F1A54"/>
<path d="M98.8999 118.5V122.2H142.5C142.5 121 142.4 119.7 142.4 118.5H98.8999Z" fill="#1F1A54"/>
<path d="M98.8999 126.7V130.4H142.7C142.7 129.2 142.6 128 142.6 126.7H98.8999Z" fill="#1F1A54"/>
<path d="M90.3998 85.9C90.2998 87.1 90.2998 88.4 90.2998 89.6H143.6C143.7 88.9 143.8 88.5 143.8 88.5L148.5 85.9H90.3998Z" fill="#1F1A54"/>
<path d="M98.8999 134.9V138.6H142.9C142.9 137.7 142.9 136.5 142.8 134.9H98.8999Z" fill="#1F1A54"/>
<path d="M90.2998 94.1C90.2998 95.4 90.3998 96.7 90.3998 97.8H142.7C142.8 96.5 142.9 95.2 143.1 94.1H90.2998Z" fill="#1F1A54"/>
<path d="M127.3 69.6C123.9 73.1 118 73.3 114.4 69.6H102.4C99.8999 70.7 97.2999 72 95.3999 73.3H154.8V69.6H127.3Z" fill="#1F1A54"/>
<path d="M91.6999 77.7C91.3999 78.8 91.0999 80 90.8999 81.4H155V77.7H91.6999Z" fill="#1F1A54"/>
<path d="M98.8999 110.4V114.1H142.4C142.4 112.8 142.4 111.6 142.3 110.4H98.8999Z" fill="#1F1A54"/>
<path d="M142.3 102.2H98.8999V105.9H142.2C142.2 105.4 142.2 104.9 142.2 104.6C142.2 103.9 142.3 103.1 142.3 102.2Z" fill="#1F1A54"/>
<path d="M147.6 80.3C132.9 90.7 131.4 67 131.4 67L133.4 67.5C133.4 67.5 134.2 91.2 148.9 80.8L147.6 80.3Z" fill="white"/>
<path d="M142.3 83.7C141.4 83.7 140.6 83.5 139.8 83.2C139.2 83.1 138.6 82.9 138.1 82.7C131.9 79.7 131.1 67.5 131.1 67C131.1 66.9 131.1 66.8 131.2 66.7C131.3 66.6 131.4 66.6 131.5 66.6L133.5 67.1C133.7 67.1 133.8 67.3 133.8 67.4C133.8 67.5 134.3 79.7 139.8 82.4C139.9 82.4 139.9 82.5 140 82.5C142.1 82.8 144.6 82 147.4 80C147.5 79.9 147.6 79.9 147.7 79.9L149 80.3C149.1 80.3 149.2 80.5 149.3 80.6C149.3 80.7 149.3 80.9 149.1 81C146.6 82.8 144.3 83.7 142.3 83.7ZM147.7 80.7C146.3 81.7 144.9 82.4 143.6 82.8C145 82.5 146.4 81.9 148.1 80.8L147.7 80.7ZM131.9 67.4C132.1 69.5 133.2 78 137.3 81.3C133.8 77.2 133.2 69.4 133.1 67.7L131.9 67.4Z" fill="#1F1A54"/>
<path d="M108.9 66.8C108.9 66.8 131 94.6 147.6 80.3V82.3C130.6 96.3 106.9 67.6 106.9 67.6L108.9 66.8Z" fill="white"/>
<path d="M137.2 86.5C122.3 86.5 106.9 68.1 106.7 67.9C106.6 67.8 106.6 67.7 106.6 67.6C106.6 67.5 106.7 67.4 106.8 67.3L108.8 66.5C109 66.4 109.1 66.5 109.2 66.6C109.3 66.8 122.2 82.7 135.4 83.9C139.9 84.3 143.9 83 147.4 80C147.5 79.9 147.7 79.9 147.8 79.9C147.9 80 148 80.1 148 80.2V82.2C148 82.3 148 82.4 147.9 82.5C144.5 85.3 140.9 86.5 137.2 86.5ZM107.6 67.8C110.5 71.1 131.9 94.6 147.3 82.1V81.1C143.8 83.9 139.8 85.1 135.4 84.7C122.8 83.5 110.5 69.2 108.9 67.3L107.6 67.8Z" fill="#1F1A54"/>
<path d="M127.6 258.1C145.881 258.1 160.7 256.757 160.7 255.1C160.7 253.443 145.881 252.1 127.6 252.1C109.319 252.1 94.5 253.443 94.5 255.1C94.5 256.757 109.319 258.1 127.6 258.1Z" fill="#9DAFED"/>
<path d="M224.7 258.6C250.658 258.6 271.7 257.257 271.7 255.6C271.7 253.943 250.658 252.6 224.7 252.6C198.743 252.6 177.7 253.943 177.7 255.6C177.7 257.257 198.743 258.6 224.7 258.6Z" fill="#9DAFED"/>
<path d="M155.5 249.3C155.5 249.3 155.8 249.7 155.5 251.2C155 253.2 153.2 254.8 147.3 254.7C143.4 254.7 124.8 253.9 122.9 253.7C121 253.5 122.6 250.7 123.3 248.4C123.3 248.4 147.8 252.5 152.4 251.5C154.5 251 155.6 250.2 155.5 249.3Z" fill="white"/>
<path d="M141.2 243.4C142 243.8 142.8 244.2 143.6 244.5C144.1 244.7 144.6 244.9 145.2 245.1C145.6 245.2 145.9 245.3 146.3 245.4C147.9 245.9 149.6 246.4 150.8 246.7C152.4 247.1 154.2 247.4 154.9 248.2C155.3 248.6 155.5 249 155.6 249.3C155.7 250.3 154.5 251.1 152.5 251.5C147.9 252.5 123.4 248.4 123.4 248.4C123.4 248.4 123.8 246.6 124.3 243.5C124.3 243.5 124.6 243.6 125.2 243.8C126.2 244 128 244.2 130.1 243.5C131.8 242.9 133.7 242 135 241.1C136 240.5 136.6 240 136.5 239.8C136.9 240.3 137.6 241 138.6 241.6C139.3 242.3 140.2 242.9 141.2 243.4Z" fill="white"/>
<path d="M134.9 235.9L134.8 240.9L134.9 241.1C133.6 241.9 131.7 242.9 130 243.5C127.9 244.2 126.1 244 125.1 243.8L125.2 243.5V235.9H134.9Z" fill="#FFD400"/>
<path d="M150.2 252C142.7 252 124.2 248.9 123.3 248.7C123.2 248.7 123.1 248.6 123.1 248.5C123 248.4 123 248.3 123 248.2C123 248.2 123.4 246.4 123.9 243.4C123.9 243.2 124.1 243.1 124.3 243.1C124.5 243.1 124.7 243.3 124.7 243.5C124.3 245.8 124 247.4 123.8 248.1C126.9 248.6 148.2 252.1 152.3 251.1C154.1 250.7 155.2 250 155.1 249.3C155.1 249.1 155.2 248.9 155.4 248.9C155.6 248.9 155.8 249 155.8 249.2C155.9 249.9 155.5 251.1 152.4 251.8C152 252 151.2 252 150.2 252Z" fill="#1F1A54"/>
<path d="M155.5 249.6C155.3 249.6 155.2 249.5 155.1 249.3C155.1 249 154.9 248.7 154.5 248.4C154 247.9 152.7 247.6 151.5 247.3C151.2 247.2 150.9 247.1 150.6 247.1C149.4 246.8 147.7 246.3 146.1 245.8L145 245.5C144.5 245.3 144 245.2 143.4 244.9C142.5 244.6 141.7 244.2 141 243.8C140 243.3 139.1 242.7 138.3 242.2C137.5 241.7 136.9 241.1 136.5 240.7C136.3 240.9 135.8 241.2 135.1 241.7C133.9 242.5 131.9 243.5 130.1 244.1C128 244.8 126.2 244.6 125 244.4C124.4 244.3 124.1 244.1 124 244.1C123.8 244 123.7 243.8 123.8 243.6C123.9 243.4 124.1 243.3 124.3 243.4C124.3 243.4 124.6 243.5 125.1 243.6C126.1 243.8 127.8 244 129.8 243.3C131.5 242.7 133.4 241.7 134.6 241C135.5 240.4 135.9 240.1 136 240C136 239.9 136.1 239.8 136.1 239.8C136.3 239.7 136.5 239.7 136.6 239.9C137 240.4 137.7 241 138.6 241.7C139.4 242.3 140.3 242.8 141.2 243.3C141.9 243.7 142.7 244.1 143.6 244.4C144.1 244.6 144.7 244.8 145.1 245L146.2 245.3C147.8 245.8 149.6 246.3 150.7 246.6C151 246.7 151.3 246.8 151.6 246.8C153 247.1 154.3 247.5 154.9 248.1C155.4 248.5 155.6 249 155.7 249.4C155.9 249.4 155.8 249.6 155.5 249.6Z" fill="#1F1A54"/>
<path d="M147.7 255C147.6 255 147.4 255 147.3 255C143.3 255 124.8 254.2 122.9 254C122.4 253.9 122.1 253.8 121.9 253.4C121.4 252.6 121.9 251.2 122.5 249.7C122.7 249.2 122.9 248.7 123 248.2C123.1 248 123.3 247.9 123.5 248C123.7 248.1 123.8 248.3 123.7 248.5C123.6 249 123.4 249.5 123.2 250C122.8 251.2 122.3 252.6 122.6 253.1C122.7 253.2 122.8 253.3 123.1 253.3C125 253.5 143.5 254.2 147.4 254.3C153.7 254.4 154.9 252.5 155.2 251.1C155.5 249.9 155.3 249.5 155.3 249.5C155.2 249.4 155.2 249.4 155.2 249.3C155.2 249.1 155.4 248.9 155.6 248.9C155.8 248.9 155.9 249 155.9 249.1C156 249.3 156.2 249.9 155.9 251.2C155.3 253.8 152.7 255 147.7 255Z" fill="#1F1A54"/>
<path d="M137.5 243.3C137.4 243.3 137.3 243.3 137.3 243.2C137.1 243.1 137.1 242.8 137.3 242.7L139.4 240.3C139.5 240.1 139.8 240.1 139.9 240.3C140.1 240.4 140.1 240.7 139.9 240.8L137.8 243.2C137.7 243.3 137.6 243.3 137.5 243.3Z" fill="#1F1A54"/>
<path d="M140.1 245.2C140 245.2 139.9 245.2 139.9 245.1C139.7 245 139.7 244.7 139.8 244.6L141.7 242C141.8 241.8 142.1 241.8 142.2 241.9C142.4 242 142.4 242.3 142.3 242.4L140.4 245C140.3 245.2 140.2 245.2 140.1 245.2Z" fill="#1F1A54"/>
<path d="M142.7 246.4C142.6 246.4 142.6 246.4 142.5 246.3C142.3 246.2 142.3 246 142.4 245.8L144.2 243C144.3 242.8 144.5 242.8 144.7 242.9C144.9 243 144.9 243.2 144.8 243.4L143 246.2C142.9 246.3 142.8 246.4 142.7 246.4Z" fill="#1F1A54"/>
<path d="M145.2 247.3C145.1 247.3 145.1 247.3 145 247.2C144.8 247.1 144.8 246.9 144.9 246.7L146.7 243.9C146.8 243.7 147 243.7 147.2 243.8C147.4 243.9 147.4 244.1 147.3 244.3L145.5 247.1C145.5 247.3 145.4 247.3 145.2 247.3Z" fill="#1F1A54"/>
<path d="M125.2 243.9C125 243.9 124.8 243.7 124.8 243.5V235.9C124.8 235.7 125 235.5 125.2 235.5H134.9C135 235.5 135.1 235.5 135.2 235.6C135.3 235.7 135.3 235.8 135.3 235.9L135.2 240.9C135.2 241.1 135 241.3 134.8 241.3C134.6 241.3 134.4 241.1 134.4 240.9L134.5 236.2H125.5V243.4C125.6 243.7 125.4 243.9 125.2 243.9Z" fill="#1F1A54"/>
<path d="M132.5 251.1C132.5 251.1 132.8 251.5 132.5 253C132 255 130.2 256.6 124.3 256.5C120.4 256.5 101.8 255.7 99.8999 255.5C97.9999 255.3 99.5999 252.5 100.3 250.2C100.3 250.2 124.8 254.3 129.4 253.3C131.5 252.9 132.6 252.1 132.5 251.1Z" fill="white"/>
<path d="M118.2 245.2C119 245.6 119.8 246 120.6 246.3C121.1 246.5 121.6 246.7 122.2 246.9C122.6 247 122.9 247.1 123.3 247.2C124.9 247.7 126.6 248.2 127.8 248.5C129.4 248.9 131.2 249.2 131.9 250C132.3 250.4 132.5 250.8 132.6 251.1C132.7 252.1 131.5 252.9 129.5 253.3C124.9 254.3 100.4 250.2 100.4 250.2C100.4 250.2 100.8 248.4 101.3 245.3C101.3 245.3 101.6 245.4 102.2 245.6C103.2 245.8 105 246 107.1 245.3C108.8 244.7 110.7 243.8 112 242.9C113 242.3 113.6 241.8 113.5 241.6C113.9 242.1 114.6 242.8 115.6 243.4C116.3 244.1 117.2 244.7 118.2 245.2Z" fill="white"/>
<path d="M112 237.8L111.9 242.8L112 243C110.7 243.8 108.8 244.8 107.1 245.4C105 246.1 103.2 245.9 102.2 245.7L102.3 245.4V237.8H112Z" fill="#FFD400"/>
<path d="M127.2 253.9C119.7 253.9 101.2 250.8 100.3 250.6C100.2 250.6 100.1 250.5 100.1 250.4C100 250.3 100 250.2 100 250.1C100 250.1 100.4 248.3 100.9 245.3C100.9 245.1 101.1 245 101.3 245C101.5 245 101.7 245.2 101.7 245.4C101.3 247.7 101 249.3 100.8 250C103.9 250.5 125.2 254 129.3 253C131.1 252.6 132.2 251.9 132.1 251.2C132.1 251 132.2 250.8 132.4 250.8C132.6 250.8 132.8 250.9 132.8 251.1C132.9 251.8 132.5 253 129.4 253.7C129 253.8 128.2 253.9 127.2 253.9Z" fill="#1F1A54"/>
<path d="M132.5 251.5C132.3 251.5 132.2 251.4 132.1 251.2C132.1 250.9 131.9 250.6 131.5 250.3C131 249.8 129.7 249.5 128.5 249.2C128.2 249.1 127.9 249 127.6 249C126.4 248.7 124.7 248.2 123.1 247.7L122 247.4C121.5 247.2 121 247.1 120.4 246.8C119.5 246.5 118.7 246.1 118 245.7C117 245.2 116.1 244.6 115.3 244.1C114.5 243.6 113.9 243 113.5 242.6C113.3 242.8 112.8 243.1 112.1 243.6C110.9 244.4 108.9 245.4 107.1 246C105 246.7 103.2 246.5 102 246.3C101.4 246.2 101.1 246 101 246C100.8 245.9 100.7 245.7 100.8 245.5C100.9 245.3 101.1 245.2 101.3 245.3C101.3 245.3 101.6 245.4 102.1 245.5C103.1 245.7 104.8 245.9 106.8 245.2C108.5 244.6 110.4 243.6 111.6 242.9C112.5 242.3 112.9 242 113 241.9C113 241.8 113.1 241.7 113.1 241.7C113.3 241.6 113.5 241.6 113.6 241.8C114 242.3 114.7 242.9 115.6 243.6C116.4 244.2 117.3 244.7 118.2 245.2C118.9 245.6 119.7 246 120.6 246.3C121.1 246.5 121.7 246.7 122.1 246.9L123.2 247.2C124.8 247.7 126.6 248.2 127.7 248.5C128 248.6 128.3 248.7 128.6 248.7C130 249 131.3 249.4 131.9 250C132.4 250.4 132.6 250.9 132.7 251.3C132.9 251.2 132.8 251.4 132.5 251.5C132.6 251.5 132.6 251.5 132.5 251.5Z" fill="#1F1A54"/>
<path d="M124.7 256.9C124.6 256.9 124.4 256.9 124.3 256.9C120.3 256.9 101.8 256.1 99.9 255.9C99.4 255.8 99.1 255.7 98.9 255.3C98.4 254.5 98.9 253.1 99.5 251.6C99.7 251.1 99.9 250.6 100 250.1C100.1 249.9 100.3 249.8 100.5 249.9C100.7 250 100.8 250.2 100.7 250.4C100.6 250.9 100.4 251.4 100.2 251.9C99.8 253.1 99.3 254.4 99.6 255C99.7 255.1 99.8 255.2 100.1 255.2C102 255.4 120.5 256.1 124.4 256.2C130.7 256.3 131.9 254.4 132.2 253C132.5 251.8 132.3 251.4 132.3 251.4C132.2 251.3 132.2 251.3 132.2 251.2C132.2 251 132.4 250.8 132.6 250.8C132.8 250.8 132.9 250.9 132.9 251C133 251.2 133.2 251.8 132.9 253.1C132.3 255.7 129.7 256.9 124.7 256.9Z" fill="#1F1A54"/>
<path d="M114.5 245.2C114.4 245.2 114.3 245.2 114.3 245.1C114.1 245 114.1 244.7 114.3 244.6L116.4 242.2C116.5 242 116.8 242 116.9 242.2C117.1 242.3 117.1 242.6 116.9 242.7L114.8 245.1C114.7 245.1 114.6 245.2 114.5 245.2Z" fill="#1F1A54"/>
<path d="M117.1 247.1C117 247.1 116.9 247.1 116.9 247C116.7 246.9 116.7 246.6 116.8 246.5L118.7 243.9C118.8 243.7 119.1 243.7 119.2 243.8C119.4 243.9 119.4 244.2 119.3 244.3L117.4 246.9C117.3 247 117.2 247.1 117.1 247.1Z" fill="#1F1A54"/>
<path d="M119.7 248.2C119.6 248.2 119.6 248.2 119.5 248.1C119.3 248 119.3 247.8 119.4 247.6L121.2 244.8C121.3 244.6 121.5 244.6 121.7 244.7C121.9 244.8 121.9 245 121.8 245.2L120 248C119.9 248.1 119.8 248.2 119.7 248.2Z" fill="#1F1A54"/>
<path d="M122.3 249.2C122.2 249.2 122.2 249.2 122.1 249.1C121.9 249 121.9 248.8 122 248.6L123.8 245.8C123.9 245.6 124.1 245.6 124.3 245.7C124.5 245.8 124.5 246 124.4 246.2L122.6 249C122.5 249.1 122.4 249.2 122.3 249.2Z" fill="#1F1A54"/>
<path d="M102.2 245.7C102 245.7 101.8 245.5 101.8 245.3V237.7C101.8 237.5 102 237.3 102.2 237.3H111.9C112 237.3 112.1 237.3 112.2 237.4C112.3 237.5 112.3 237.6 112.3 237.7L112.2 242.7C112.2 242.9 112 243.1 111.8 243.1C111.6 243.1 111.4 242.9 111.4 242.7L111.5 238H102.5V245.2C102.6 245.6 102.5 245.7 102.2 245.7Z" fill="#1F1A54"/>
<path d="M120.5 164.8L117.6 197.6L114.5 237.7H100.3L100.9 198.2L98.8999 138.6C98.8999 138.6 129 144.2 142.9 139.8L136.7 235.9H122.5L123.3 197.5L120.5 164.8Z" fill="#1F1A54"/>
<path d="M136.7 236.3H122.5C122.4 236.3 122.3 236.3 122.2 236.2C122.1 236.1 122.1 236 122.1 235.9L122.9 197.5L120 164.8C120 164.6 120.1 164.4 120.3 164.4C120.5 164.4 120.7 164.5 120.7 164.7L123.6 197.4L122.8 235.5H136.3L142.5 139.8C142.5 139.6 142.7 139.4 142.9 139.4C143.1 139.4 143.3 139.6 143.3 139.8L137.1 235.9C137 236.1 136.9 236.3 136.7 236.3Z" fill="#1F1A54"/>
<path d="M114.5 238.1H100.3C100.2 238.1 100.1 238.1 100 238C99.9 237.9 99.9 237.8 99.9 237.7L100.5 198.2L98.5 138.7C98.5 138.5 98.7 138.3 98.9 138.3C99.1 138.2 99.3 138.5 99.3 138.7L101.3 198.3L100.7 237.5H114.1L117.1 197.7L120 164.8C120 164.7 120 164.6 120.1 164.6L127.7 155.9C127.8 155.7 128.1 155.7 128.2 155.9C128.4 156 128.4 156.3 128.2 156.4L120.6 165L117.7 197.7L114.6 237.8C114.9 238 114.7 238.1 114.5 238.1Z" fill="#1F1A54"/>
<path d="M120.3 174.2C120.2 174.2 120.1 174.1 120.1 174L120.8 164.3C120.8 164.2 120.8 164.2 120.9 164.1L126 159.3C126.1 159.2 126.2 159.2 126.3 159.3C126.4 159.4 126.4 159.5 126.3 159.6L121.2 164.3L120.5 173.9C120.5 174.2 120.4 174.2 120.3 174.2Z" fill="#F2F4F6"/>
<path d="M124.9 35.1001C125.3 35.4001 130.2 39.2001 127.4 39.2001C124.6 39.1001 117 35.4001 116.7 35.3001C116.7 35.4001 117.2 36.7001 117.1 40.0001C117 43.5001 114.7 45.3001 114.7 45.3001C114.3 44.4001 113.3 42.8001 111.4 42.0001C109.8 41.4001 108.2 42.1001 107.2 43.7001C106.9 42.2001 104.9 39.1001 105.9 34.9001C106.3 33.0001 107.5 31.8001 108.6 31.1001C109.1 30.7001 109.7 30.5001 110 30.4001C110.4 30.3001 110.6 30.2001 110.6 30.2001C110.7 30.0001 110.9 29.7001 111.1 29.5001C116 22.7001 128.8 25.8001 135.8 32.6001C141.6 38.2001 138.2 39.9001 135 38.9001C134.8 38.8001 134.4 38.7001 134.1 38.6001C131.2 37.6001 125.3 35.3001 124.9 35.1001Z" fill="#1F1A54"/>
<path d="M127.7 61.4V65.6L129.3 66.5C126.8 73.1 118.2 74.5 113.8 69.1L111.3 66L113.7 65.1V54C110 53.5 107.2 51.6 106.5 48.1C106.2 46.3 106.5 44.8 107.2 43.7C108.2 42.1 109.8 41.4 111.4 42C113.3 42.8 114.2 44.4 114.7 45.3C114.7 45.3 117 43.5 117.1 40C117.2 36.7 116.8 35.4 116.7 35.3C116.9 35.4 124.5 39.1 127.4 39.2C130.2 39.3 125.3 35.4 124.9 35.1C125.3 35.3 131.2 37.6 134.2 38.6C134.6 44.1 134.7 52.2 133.6 55.5C132.5 58.6 130.8 60.6 127.7 61.4ZM131.5 45.7C131.5 45.1 131.1 44.7 130.7 44.7C130.2 44.7 129.9 45.2 129.9 45.7C129.9 46.3 130.3 46.7 130.7 46.7C131.1 46.7 131.5 46.2 131.5 45.7ZM124.1 45.5C124.1 44.9 123.7 44.5 123.3 44.5C122.9 44.5 122.5 45 122.5 45.5C122.5 46.1 122.9 46.5 123.3 46.5C123.8 46.6 124.1 46.1 124.1 45.5Z" fill="white"/>
<path d="M130.7 44.6C131.1 44.6 131.5 45.1 131.5 45.6C131.5 46.2 131.1 46.6 130.7 46.6C130.2 46.6 129.9 46.1 129.9 45.6C129.8 45.1 130.2 44.6 130.7 44.6Z" fill="#1F1A54"/>
<path d="M123.3 44.5001C123.8 44.5001 124.1 45.0001 124.1 45.5001C124.1 46.1001 123.7 46.5001 123.3 46.5001C122.9 46.5001 122.5 46.0001 122.5 45.5001C122.5 45.0001 122.9 44.5001 123.3 44.5001Z" fill="#1F1A54"/>
<path d="M109.199 24.6C111.799 26.3 111.099 29.3 111.099 29.6C110.899 29.8 110.799 30 110.599 30.3C107.399 29.7 106.499 22.8 109.199 24.6Z" fill="#1F1A54"/>
<path d="M110 30.4C109.6 30.5 109.1 30.8 108.6 31.1C103.6 32.1 101.5 29 104.3 28.3C107.1 27.7 110 30.4 110 30.4Z" fill="#1F1A54"/>
<path d="M126.1 61.9C124.1 61.9 120.8 61.2 118.8 59.3C118.7 59.2 118.7 58.9 118.8 58.8C118.9 58.7 119.2 58.7 119.3 58.8C121.5 60.9 125.4 61.4 126.9 61.2C127.2 61.2 127.4 61.1 127.7 61C130.4 60.4 132.2 58.6 133.2 55.4C134.2 52.2 134.2 44.4 133.8 38.6C133.8 38.4 133.9 38.2 134.1 38.2C134.3 38.2 134.5 38.3 134.5 38.5C134.9 44.3 134.9 52.2 133.9 55.5C132.8 58.9 130.8 60.9 127.9 61.6C127.6 61.7 127.4 61.7 127.1 61.8C126.7 61.9 126.4 61.9 126.1 61.9Z" fill="#1F1A54"/>
<path d="M124.2 55.4001C120.9 54.7001 120.2 51.8001 120.2 51.7001C120.2 51.5001 120.3 51.3 120.5 51.3C120.7 51.3 120.9 51.4 120.9 51.6C120.9 51.7 121.5 54.1001 124.3 54.7001C124.5 54.7001 124.6 54.9 124.6 55.1C124.6 55.3 124.4 55.4001 124.2 55.4001Z" fill="#1F1A54"/>
<path d="M127 50.9C126.3 50.9 125.7 50.6 125.7 50.6C125.5 50.5 125.5 50.3 125.5 50.1C125.6 49.9 125.8 49.9 126 49.9C126 49.9 127 50.4 127.8 49.9C128 49.8 128.2 49.8 128.3 50C128.4 50.2 128.4 50.4 128.2 50.5C127.8 50.8 127.4 50.9 127 50.9Z" fill="#1F1A54"/>
<path d="M113.6 54.4C109.4 53.8 106.7 51.6 106.1 48.2C105.8 46.5 106 44.8 106.8 43.5C107.9 41.7 109.8 41 111.5 41.7C113.4 42.5 114.4 44 115 45.1C115.2 45.5 115.3 45.8 115.3 45.8C115.4 46 115.3 46.2 115.1 46.3C114.9 46.4 114.7 46.3 114.6 46.1C114.6 46.1 114.5 45.9 114.3 45.5C113.8 44.5 112.9 43.1 111.2 42.4C109.9 41.8 108.3 42.5 107.5 43.9C106.8 45.1 106.6 46.5 106.9 48.1C107.7 52 111 53.3 113.7 53.7C113.9 53.7 114 53.9 114 54.1C114 54.3 113.8 54.4 113.6 54.4Z" fill="#1F1A54"/>
<path d="M107.1 44.1C106.9 44.1 106.8 44 106.7 43.8C106.6 43.5 106.5 43 106.3 42.5C105.6 40.8 104.7 38.1 105.4 34.8C105.8 33.2 106.8 31.8 108.3 30.8C108.5 30.7 108.7 30.7 108.8 30.9C108.9 31.1 108.9 31.3 108.7 31.4C107.3 32.3 106.5 33.5 106.2 34.9C105.5 38 106.4 40.5 107 42.2C107.2 42.7 107.4 43.2 107.5 43.6C107.5 43.8 107.4 44 107.1 44.1C107.2 44.1 107.2 44.1 107.1 44.1Z" fill="#1F1A54"/>
<path d="M108.6 31.5C108.5 31.5 108.4 31.4 108.3 31.3C108.2 31.1 108.2 30.9 108.4 30.8C109 30.4 109.6 30.1 109.9 30C110.1 29.9 110.3 29.9 110.4 29.8C110.5 29.6 110.7 29.4 110.8 29.2C110.9 29 111.2 29 111.3 29.1C111.5 29.2 111.5 29.5 111.4 29.6C111.3 29.8 111.1 30 111 30.2C110.9 30.3 110.8 30.4 110.7 30.4C110.7 30.4 110.5 30.4 110.2 30.6C109.9 30.7 109.4 30.9 108.8 31.3C108.7 31.5 108.7 31.5 108.6 31.5Z" fill="#1F1A54"/>
<path d="M136.7 39.5C136.1 39.5 135.5 39.4 134.9 39.2L134 38.9C131.1 37.9 125.1 35.6 124.7 35.4C124.5 35.3 124.4 35.1 124.5 34.9C124.6 34.7 124.8 34.6 125 34.7C125.4 34.9 131.3 37.2 134.2 38.2L135.1 38.5C136.6 39 137.9 38.8 138.4 38.1C138.7 37.6 139 36.2 135.5 32.8C130.9 28.3 123.8 25.6 118.3 26.1C115.2 26.4 112.8 27.6 111.3 29.7C111.2 29.9 111 29.9 110.8 29.8C110.6 29.7 110.6 29.5 110.7 29.3C112.3 27 114.9 25.7 118.2 25.4C123.9 24.9 131.3 27.7 136 32.3C139.5 35.7 139.5 37.5 139 38.5C138.6 39.2 137.7 39.5 136.7 39.5Z" fill="#1F1A54"/>
<path d="M127.4 39.5C124.6 39.4 117.9 36.2 116.6 35.6L116.5 35.5C116.4 35.4 116.4 35.1 116.5 35C116.6 34.9 116.8 34.9 117 35C120.6 36.7 125.5 38.8 127.5 38.8C127.9 38.8 128 38.7 128 38.7C128 38.5 127.6 37.6 124.9 35.4C124.9 35.4 124.8 35.4 124.8 35.3C124.7 35.2 124.7 34.9 124.8 34.8C124.9 34.7 125.1 34.7 125.2 34.7H125.3C129.1 37.7 128.8 38.6 128.7 38.9C128.4 39.3 128 39.5 127.4 39.5Z" fill="#1F1A54"/>
<path d="M114.6 45.7001C114.5 45.7001 114.4 45.7 114.3 45.6C114.2 45.4 114.2 45.2 114.4 45.1C114.4 45.1 116.6 43.4 116.7 40.1C116.8 37.3 116.5 36 116.4 35.5L117.1 35.3C117.3 35.9 117.6 37.3 117.5 40.1C117.4 43.8 115 45.6 114.9 45.7001C114.8 45.6 114.7 45.7001 114.6 45.7001Z" fill="#1F1A54"/>
<path d="M110.6 30.6C108.8 30.3 107.7 28.5 107.4 26.8C107.2 25.8 107.2 24.5 107.9 24.1C108.2 23.9 108.7 23.8 109.4 24.3C111.9 26 111.6 28.8 111.4 29.7V29.8C111.3 29.9 111.2 30 111.1 30C110.9 30 110.7 29.8 110.7 29.6V29.5C110.8 28.7 111.1 26.3 109 24.9C108.8 24.8 108.5 24.6 108.3 24.7C108 24.9 107.9 25.6 108.1 26.7C108.4 28.1 109.3 29.7 110.7 29.9C110.9 29.9 111 30.1 111 30.3C110.9 30.5 110.8 30.6 110.6 30.6Z" fill="#1F1A54"/>
<path d="M106.7 31.7C104.4 31.7 102.9 30.8 102.7 29.7C102.6 29.1 102.9 28.3 104.2 28C107.2 27.3 110.2 30 110.3 30.2C110.4 30.3 110.5 30.6 110.3 30.7C110.2 30.8 109.9 30.9 109.8 30.7C109.8 30.7 107 28.1 104.4 28.7C104.1 28.8 103.3 29 103.5 29.6C103.7 30.3 105.4 31.5 108.6 30.8C108.9 30.7 109.1 30.9 109.1 31.2C109.1 31.4 109 31.5 108.8 31.6C108 31.7 107.3 31.7 106.7 31.7Z" fill="#1F1A54"/>
<path d="M112.6 49.8C112.4 49.8 112.3 49.7 112.2 49.5C111.9 46.4 110.1 46 110 46C109.8 46 109.7 45.8 109.7 45.6C109.7 45.4 109.9 45.3 110.1 45.3C110.2 45.3 112.6 45.7001 112.9 49.4001C112.9 49.6001 112.8 49.8 112.6 49.8Z" fill="#1F1A54"/>
<path d="M125.2 42.9C125.1 42.9 125 42.9 125 42.8C124.3 42.3 122.9 42.2 122.2 42.7C122 42.8 121.8 42.8 121.7 42.6C121.6 42.4 121.6 42.2 121.8 42.1C122.8 41.4 124.5 41.5 125.5 42.2C125.7 42.3 125.7 42.6 125.6 42.7C125.4 42.9 125.3 42.9 125.2 42.9Z" fill="#1F1A54"/>
<path d="M132.1 42.9C132 42.9 131.9 42.9 131.9 42.8C131.2 42.3 129.8 42.2 129 42.7C128.8 42.8 128.6 42.8 128.5 42.6C128.4 42.4 128.4 42.2 128.6 42.1C129.6 41.4 131.3 41.5 132.3 42.2C132.5 42.3 132.5 42.6 132.4 42.7C132.4 42.9 132.3 42.9 132.1 42.9Z" fill="#1F1A54"/>
<path d="M120.8 72.7C118 72.7 115.4 71.5 113.5 69.2L111 66.1C110.9 66 110.9 65.9 110.9 65.8C110.9 65.7 111 65.6 111.1 65.5L113.2 64.7V54C113.2 53.8 113.4 53.6 113.6 53.6C113.8 53.6 114 53.8 114 54V65C114 65.2 113.9 65.3 113.8 65.3L111.9 66L114.1 68.7C116.1 71.1 119.1 72.3 122.3 71.8C125.3 71.3 127.8 69.4 128.9 66.6L127.6 65.9C127.5 65.8 127.4 65.7 127.4 65.6V61.4C127.4 61.2 127.6 61 127.8 61C128 61 128.2 61.2 128.2 61.4V65.3L129.6 66.1C129.8 66.2 129.8 66.4 129.8 66.6C128.6 69.8 125.9 72 122.5 72.6C121.8 72.6 121.3 72.7 120.8 72.7Z" fill="#1F1A54"/>
<path d="M195.7 54.3C197.4 53.7 198.9 54.3 200.3 54C201.9 53.8 204.3 53.4 206.2 51.4L204.8 39.1C203.4 39.4 195.7 41 194 39.5C194.3 46.1 190.4 47.9 187.4 50.4C180.7 55.8 173.3 58.4 167.8 62.3C159.9 66.6 154.7 67.9 154.7 67.9L154.9 80.3L167.8 74.9C176.2 72.6 190.7 56.1 195.7 54.3Z" fill="white"/>
<path d="M154.9 80.7C154.8 80.7 154.8 80.7 154.7 80.6C154.6 80.5 154.5 80.4 154.5 80.3L154.3 67.9C154.3 67.7 154.4 67.6 154.6 67.5C154.7 67.5 159.8 66.2 167.6 62C169.9 60.4 172.5 59 175.3 57.5C179.2 55.4 183.3 53.3 187.2 50.1C187.6 49.8 188 49.4 188.5 49.1C191.2 47.1 194 45 193.7 39.5C193.7 39.4 193.8 39.2 193.9 39.1C194 39 194.2 39.1 194.3 39.2C195 39.8 197.3 40.2 204.5 38.8L204.8 38.7C204.9 38.7 205 38.7 205.1 38.8C205.2 38.9 205.2 39 205.2 39.1L206.6 51.4C206.6 51.5 206.6 51.6 206.5 51.7C204.5 53.8 201.9 54.2 200.4 54.4C199.8 54.5 199.2 54.4 198.6 54.4C197.7 54.3 196.8 54.3 195.8 54.6C193.8 55.3 190.2 58.5 186 62.2C179.9 67.6 172.9 73.7 167.9 75.1L155.1 80.5C155 80.6 155 80.7 154.9 80.7ZM155.1 68.2L155.3 79.8L167.7 74.6C172.6 73.3 179.8 67 185.5 61.9C189.8 58.1 193.5 54.9 195.6 54.1C196.7 53.7 197.8 53.8 198.7 53.8C199.3 53.8 199.8 53.9 200.3 53.8C201.8 53.6 204 53.3 205.9 51.4L204.6 39.7C199.4 40.7 196.1 40.9 194.5 40.3C194.5 45.7 191.6 47.9 189 49.8C188.6 50.1 188.1 50.4 187.7 50.8C183.8 54 179.7 56.1 175.7 58.3C172.9 59.8 170.3 61.1 168.1 62.7C161.2 66.4 156.3 67.8 155.1 68.2Z" fill="#1F1A54"/>
<path d="M202.399 39.7C201.199 39.9 198.799 41.6 197.999 37.2C197.699 35.4 196.899 32.6 196.199 31.6C195.299 30.5 193.199 30.4 193.999 33.8C194.199 34.7 194.399 36.5 194.299 38.2C194.199 38.9 193.699 41.1 193.499 41.8C192.799 44.4 193.599 46.8 194.799 47.6" fill="white"/>
<path d="M194.9 48.1C194.8 48.1 194.8 48.1 194.7 48C193.4 47.1 192.5 44.5 193.2 41.7C193.4 41 193.9 38.9 193.9 38.2C194 36.6 193.9 34.9 193.6 33.9C193.1 31.6 193.8 30.9 194.3 30.7C195 30.4 195.9 30.7 196.5 31.4C197.3 32.5 198.1 35.5 198.4 37.1C198.6 38.4 199 39.2 199.5 39.5C200.1 39.9 200.9 39.6 201.5 39.4C201.8 39.3 202.1 39.2 202.3 39.2C202.5 39.2 202.7 39.3 202.7 39.5C202.7 39.7 202.6 39.9 202.4 39.9C202.2 39.9 202 40 201.7 40.1C201 40.3 199.9 40.6 199.1 40.1C198.4 39.6 197.9 38.7 197.6 37.2C197.3 35.2 196.5 32.6 195.9 31.8C195.6 31.4 195 31.1 194.6 31.3C194.1 31.5 194 32.4 194.3 33.7C194.5 34.8 194.7 36.5 194.6 38.2C194.5 38.9 194 41.1 193.8 41.8C193.1 44.2 193.9 46.5 195 47.2C195.2 47.3 195.2 47.5 195.1 47.7C195.1 48 195 48.1 194.9 48.1Z" fill="#1F1A54"/>
<path d="M204 49.9C203.6 50 203.1 49.8 202.9 49.3L194.7 22C194.6 21.6 194.8 21.1 195.3 20.9C195.7 20.8 196.2 21 196.4 21.5L204.7 48.8C204.7 49.3 204.5 49.7 204 49.9Z" fill="#FFD400"/>
<path d="M203.8 50.3C203.6 50.3 203.4 50.3 203.2 50.2C202.9 50 202.7 49.8 202.6 49.5L194.3 22.2C194.2 21.9 194.2 21.6 194.4 21.3C194.6 21 194.8 20.8 195.1 20.7C195.4 20.6 195.7 20.6 196 20.8C196.3 21 196.5 21.2 196.6 21.5L204.9 48.8C205 49.1 205 49.4 204.8 49.7C204.6 50 204.4 50.2 204.1 50.3C204 50.3 203.9 50.3 203.8 50.3ZM195.5 21.3H195.4C195.3 21.3 195.2 21.4 195.1 21.5C195 21.6 195 21.7 195.1 21.9L203.4 49.2C203.4 49.3 203.5 49.4 203.6 49.5C203.7 49.6 203.8 49.6 204 49.5C204.1 49.5 204.2 49.4 204.3 49.3C204.4 49.2 204.4 49.1 204.3 48.9L196 21.6C196 21.5 195.9 21.4 195.8 21.3C195.6 21.3 195.5 21.3 195.5 21.3Z" fill="#1F1A54"/>
<path d="M207.292 51.712C208.58 50.9611 209.309 49.8108 208.919 49.1428C208.53 48.4749 207.17 48.5422 205.882 49.2931C204.594 50.0441 203.865 51.1943 204.254 51.8623C204.644 52.5303 206.004 52.463 207.292 51.712Z" fill="white"/>
<path d="M205.3 52.8C204.5 52.8 204.1 52.4 203.9 52.1C203.7 51.7 203.6 51.3 203.7 50.9C203.9 50.3 204.5 49.7 205.6 49C206.4 48.5 208.3 47.4 209.2 49C209.5 49.5 209.6 49.9 209.5 50.3C209.3 51 208.6 51.4 207.8 51.9L207.5 52.1C206.5 52.6 205.8 52.8 205.3 52.8ZM207.9 48.9C207.5 48.9 206.9 49.1 206.1 49.6C205.1 50.2 204.6 50.6 204.5 51.1C204.4 51.3 204.5 51.5 204.6 51.7C205 52.5 206.2 52 207.2 51.4L207.5 51.2C208.2 50.8 208.8 50.5 208.9 50.1C209 49.9 208.9 49.6 208.7 49.3C208.5 49.1 208.2 48.9 207.9 48.9Z" fill="#1F1A54"/>
<path d="M206.308 48.6067C207.927 47.6564 208.923 46.3454 208.532 45.6785C208.14 45.0116 206.51 45.2414 204.891 46.1917C203.271 47.1421 202.275 48.4531 202.667 49.12C203.058 49.7869 204.688 49.5571 206.308 48.6067Z" fill="white"/>
<path d="M203.6 50C202.9 50 202.5 49.7 202.3 49.3C201.4 47.8 203.7 46.5 204.6 45.9C205.6 45.3 206.3 45 206.9 44.9C208 44.7 208.5 45.1 208.7 45.6C209 46 209 46.5 208.9 46.8C208.7 47.6 207.8 48.1 206.7 48.8L206.3 49C205.4 49.5 204.6 49.9 204 50C204 49.9 203.8 50 203.6 50ZM207.5 45.5C207.4 45.5 207.3 45.5 207.1 45.5C206.4 45.6 205.6 46.1 205 46.4C202.7 47.8 202.7 48.4 202.9 48.8C203 48.9 203.1 49.2 203.9 49.1C204.4 49 205.2 48.7 206 48.2L206.4 48C207.3 47.5 208.1 47 208.2 46.5C208.3 46.3 208.2 46.1 208 45.8C208.1 45.7 207.9 45.5 207.5 45.5Z" fill="#1F1A54"/>
<path d="M205.7 45.4C207.3 44.4 208.8 43.8 207.9 42.3C207.2 41.2 205.8 41.7 204.1 42.7C202.5 43.7 200.7 45 201.3 46.1C202.1 47.7 204 46.4 205.7 45.4Z" fill="white"/>
<path d="M202.4 47.2C202.2 47.2 202.1 47.2 201.9 47.1C201.5 47 201.2 46.7 200.9 46.3C200.3 45.2 201.2 43.9 203.8 42.4C204.8 41.8 205.6 41.5 206.2 41.4C207.3 41.2 207.8 41.7 208.1 42.2C208.4 42.7 208.5 43.2 208.4 43.6C208.2 44.4 207.3 45 206.2 45.6L205.5 46C204.5 46.6 203.4 47.2 202.4 47.2ZM206.7 42.1C206.6 42.1 206.5 42.1 206.4 42.1C205.7 42.2 204.9 42.7 204.3 43C202.2 44.2 201.3 45.3 201.7 45.9C201.8 46.2 202 46.3 202.2 46.4C202.9 46.6 204.1 45.9 205.2 45.3L205.9 44.9C206.8 44.4 207.6 43.9 207.8 43.4C207.9 43.2 207.8 42.9 207.6 42.6C207.4 42.3 207.2 42.1 206.7 42.1Z" fill="#1F1A54"/>
<path d="M204.722 42.4167C206.198 41.5502 207.078 40.3072 206.687 39.6403C206.296 38.9734 204.781 39.1352 203.305 40.0017C201.828 40.8682 200.948 42.1112 201.339 42.7781C201.731 43.445 203.245 43.2832 204.722 42.4167Z" fill="white"/>
<path d="M202.4 43.7C201.7 43.7 201.3 43.3 201.1 43C200.9 42.6 200.7 41.9 201.3 41.1C201.7 40.7 202.2 40.2 203.1 39.7C204.1 39.1 206.1 37.9 207 39.5C207.3 40 207.4 40.4 207.3 40.8C207.1 41.6 206.3 42 205.3 42.6L205 42.8C204.2 43.3 203.4 43.6 202.8 43.7C202.6 43.6 202.5 43.7 202.4 43.7ZM205.7 39.4C205.3 39.4 204.6 39.6 203.5 40.3C202.7 40.8 202.2 41.2 201.9 41.6C201.5 42.1 201.6 42.4 201.7 42.6C201.8 42.8 202 43 202.7 42.9C203.2 42.8 203.9 42.6 204.6 42.1L204.9 41.9C205.7 41.4 206.4 41 206.5 40.5C206.6 40.3 206.5 40 206.3 39.8C206.2 39.6 206 39.4 205.7 39.4Z" fill="#1F1A54"/>
<path d="M154.9 95.1L149.5 96.9L146.5 79.5L148.9 76.7H151.7L154.9 95.1Z" fill="white"/>
<path d="M149.5 97.3C149.4 97.3 149.4 97.3 149.3 97.2C149.2 97.1 149.1 97.1 149.1 96.9L146.1 79.5C146.1 79.4 146.1 79.3 146.2 79.2L148.6 76.5C148.7 76.4 148.8 76.4 148.9 76.4H151.7C151.9 76.4 152 76.5 152.1 76.7L155.3 95C155.3 95.2 155.2 95.4 155.1 95.4L149.7 97.3C149.6 97.3 149.5 97.3 149.5 97.3ZM146.9 79.6L149.8 96.4L154.5 94.8L151.5 77.1H149.1L146.9 79.6Z" fill="#1F1A54"/>
<path d="M149.3 78.6C149.1 78.6 149 78.5 148.9 78.3C148.9 78.1 149 77.9 149.2 77.9C149.2 77.9 149.4 77.5 149.3 76.9C149.2 76.3 149 76 148.9 76C148.9 76 148.7 76.4 148.8 77C148.8 77.2 148.7 77.4 148.5 77.4C148.3 77.4 148.1 77.3 148.1 77.1C147.9 76.1 148.2 75.4 148.8 75.3C149.4 75.2 149.9 75.8 150.1 76.8C150.2 77.7 149.9 78.5 149.3 78.6Z" fill="#1F1A54"/>
<path d="M155.6 101.4C155.6 101.4 155.8 101.4 155.8 102.3C155.8 106 147 105.6 147 105.6C143.5 105.7 140.5 106.1 140.5 106.1C135.2 107.3 114 124.5 105.1 124C97.6999 123.6 92.3999 101.6 92.3999 101.6L105.9 99.9C105.9 99.9 107.8 110.7 107.8 110C111.3 107.6 129.7 101.2 134.5 98.3C135.9 97.4 137.8 96.6 139.5 94.8C142.5 91.6 145.5 86.5 147.3 85.3C147.8 85 148.2 85.3 148.4 85.6C149.7 87.8 145 93.7 148 92.9C149 92.6 152.3 92.2 153.8 92.4C155.4 92.6 156.1 93.5 156.1 94.2C156.1 94.8 155.8 95.2 155.4 95.5C155.4 95.5 156.5 96 156.6 96.9C156.7 97.6 156.5 98 156.1 98.3C156.1 98.3 156.5 98.8 156.5 99.7C156.4 100.6 156.1 101.1 155.6 101.4Z" fill="white"/>
<path d="M154.3 99.4C154.1 99.4 154 99.4 154 99.4C153.8 99.4 153.7 99.2 153.7 99C153.7 98.8 153.9 98.6 154.1 98.7C154.1 98.7 155.2 98.8 155.8 98.3C156.1 98.1 156.2 97.7 156.1 97.2C156.1 96.7 155.4 96.2 155.1 96.1C154.9 96 154.8 95.8 154.9 95.6C155 95.4 155.2 95.3 155.4 95.4C155.5 95.4 156.7 96 156.8 97.1C156.9 98 156.5 98.5 156.2 98.8C155.7 99.3 154.8 99.4 154.3 99.4Z" fill="#1F1A54"/>
<path d="M105.5 124.5C105.4 124.5 105.2 124.5 105.1 124.5C97.5 124 92.3 102.7 92 101.8C92 101.7 92 101.6 92.1 101.5C92.2 101.4 92.3 101.4 92.4 101.3L105.9 99.6C106.1 99.6 106.3 99.7 106.3 99.9C106.9 103.2 107.7 108 108.1 109.5C110.3 108.2 115.4 106.2 120.8 104C126.3 101.8 132 99.5 134.4 98.1C134.7 97.9 135 97.7 135.3 97.6C136.6 96.9 138 96.1 139.2 94.7C140.5 93.3 141.9 91.4 143.1 89.8C144.7 87.7 146 85.8 147.1 85.1C147.4 84.9 147.6 84.9 147.9 84.9C148.2 85 148.5 85.2 148.6 85.5C149.3 86.7 148.5 88.6 147.9 90.3C147.6 91.1 147.1 92.4 147.3 92.7C147.3 92.7 147.5 92.8 147.8 92.7C148.8 92.4 152.2 92 153.7 92.2C155.7 92.5 156.4 93.5 156.4 94.4C156.4 95 156.1 95.6 155.5 96C154.7 96.5 153.8 96.7 153.7 96.7C153.5 96.7 153.3 96.6 153.3 96.4C153.3 96.2 153.4 96 153.6 96C153.6 96 154.5 95.9 155 95.4C155.4 95.1 155.6 94.8 155.6 94.4C155.6 93.8 155 93.1 153.6 92.9C152.2 92.7 149 93.1 148 93.4C147.8 93.5 147.1 93.6 146.7 93.2C146.2 92.6 146.6 91.6 147.2 90.1C147.8 88.6 148.5 86.8 148 85.9C147.9 85.8 147.8 85.7 147.7 85.7C147.6 85.7 147.5 85.7 147.4 85.8C146.5 86.4 145.1 88.3 143.6 90.3C142.4 92 141 93.8 139.7 95.3C138.4 96.7 136.9 97.6 135.6 98.3C135.3 98.5 135 98.7 134.7 98.8C132.3 100.2 126.6 102.5 121 104.8C115.5 107 109.9 109.3 108.1 110.5C108 110.6 108 110.6 107.9 110.6C107.8 110.6 107.7 110.6 107.5 110.2C107.2 109.4 106.8 107.1 105.7 100.5L92.9 102C93.7 105 98.7 123.3 105.2 123.7C110.7 124 121.1 117.4 129.4 112C134.4 108.8 138.4 106.2 140.4 105.8C140.5 105.8 143.5 105.4 147 105.3C147.1 105.3 152.9 105.5 154.9 103.7C155.3 103.3 155.5 102.9 155.5 102.4C155.5 102 155.5 101.8 155.5 101.8C155.4 101.7 155.4 101.6 155.4 101.5C155.4 101.3 155.6 101.1 155.8 101.1C156.4 101.1 156.4 102 156.4 102.4C156.4 103.1 156.1 103.7 155.6 104.3C153.4 106.4 147.5 106.1 147.2 106.1C143.8 106.2 140.8 106.6 140.7 106.6C138.9 107 134.7 109.7 130 112.7C121.5 118 111.3 124.5 105.5 124.5Z" fill="#1F1A54"/>
<path d="M153.7 102.4C153.5 102.4 153.3 102.2 153.3 102C153.3 101.8 153.5 101.6 153.7 101.6C153.7 101.6 154.7 101.6 155.4 101.1C155.8 100.8 156 100.3 156 99.8C156 99.1 155.7 98.6 155.7 98.6C155.6 98.4 155.6 98.2 155.8 98.1C156 98 156.2 98 156.3 98.2C156.3 98.2 156.7 98.8 156.7 99.8C156.7 100.8 156.2 101.4 155.8 101.7C155 102.4 153.8 102.4 153.7 102.4Z" fill="#1F1A54"/>
<path d="M227.1 122.3C209.3 128.4 211.3 136.6 199.1 138.6C186.9 140.5 180.8 152 180.8 162.9C180.8 173.7 187.7 191.1 210.6 191.1C233.5 191.1 228 191.1 233.7 191.1C239.4 191.1 251.8 184.6 251.8 171.9C251.8 159.2 255.2 146 270.2 144.3C277.2 143.5 272 131.1 260.7 124.8C252.5 120.3 238.8 118.2 227.1 122.3Z" fill="#F2F4F6"/>
<path d="M233.7 191.5H210.6C200.4 191.5 192.2 188 186.8 181.3C182.8 176.3 180.4 169.4 180.4 162.9C180.4 152.4 186.2 140.2 199 138.2C204.8 137.3 207.3 134.9 210.4 132C213.6 128.9 217.7 125.1 226.9 122C239.3 117.7 253.2 120.3 260.8 124.5C269.4 129.3 274.5 137.5 273.6 141.9C273.3 143.6 272 144.7 270.1 144.9C258.2 146.2 252.1 155.3 252.1 172C252.2 184.5 240 191.5 233.7 191.5ZM240.6 120.6C236.2 120.6 231.6 121.2 227.2 122.7C218.2 125.8 214.4 129.4 211 132.5C207.9 135.5 205.2 138 199.1 139C186.8 140.9 181.2 152.7 181.2 162.8C181.2 172.4 187.3 190.5 210.5 190.5H233.6C239.6 190.5 251.2 183.9 251.2 171.8C251.2 154.6 257.5 145.1 270 143.8C271.5 143.6 272.4 142.9 272.7 141.6C273.5 137.5 268.4 129.7 260.3 125.2C255.6 122.5 248.4 120.6 240.6 120.6Z" fill="#1F1A54"/>
<path d="M203.4 176.7C203.2 176.7 203.1 176.6 203 176.4C202.9 176.2 203 175.9 203.2 175.8C203.4 175.7 207.5 173.7 214.7 172.5C221.4 171.4 232 170.8 245 174.4C245.2 174.5 245.4 174.7 245.3 175C245.2 175.2 245 175.4 244.7 175.3C220.2 168.6 203.7 176.6 203.5 176.7C203.5 176.7 203.5 176.7 203.4 176.7Z" fill="#1F1A54"/>
<path d="M227.4 191.1H221.8V227.6H227.4V191.1Z" fill="#1F1A54"/>
<path d="M223.8 186.9C222.2 186.9 220.5 186.8 218.5 186.8C215.8 186.7 212.7 186.6 208.8 186.6C197.2 186.6 187.3 177.7 185.8 166C183.4 147 195.1 140 200.3 137.8C200.5 137.7 200.8 137.8 200.9 138C201 138.2 200.9 138.5 200.7 138.6C195.7 140.7 184.5 147.5 186.8 165.8C188.2 177.1 197.7 185.6 208.8 185.6C212.7 185.6 215.8 185.7 218.5 185.8C224.6 186 228.2 186.1 232.4 184.8C245.2 180.9 245.7 172.2 246.3 163.7C246.4 162.1 246.5 160.4 246.7 158.8C248.6 144.1 257.9 140.7 265.3 140.4C267.5 140.3 268.9 139.7 269.7 138.5C271.1 136.2 269.4 132.6 269.4 132.6C269.3 132.4 269.4 132.1 269.6 132C269.8 131.9 270.1 132 270.2 132.2C270.3 132.4 272.1 136.3 270.5 139C269.6 140.5 267.9 141.3 265.4 141.4C258.3 141.7 249.4 145 247.7 159C247.5 160.6 247.4 162.1 247.3 163.8C246.7 172.2 246.1 181.6 232.7 185.7C229.7 186.7 227.1 186.9 223.8 186.9Z" fill="#1F1A54"/>
<path d="M222.4 220.4L181 248.3C180.2 248.8 179.7 249.8 179.7 250.9V254.1C179.7 254.9 180.3 255.6 181.1 255.6H181.4C182.2 255.6 182.8 254.9 182.8 254.1V253.8C182.8 252.7 183.3 251.7 184.2 251.2L222.5 227.5V220.4H222.4Z" fill="#1F1A54"/>
<path d="M226.8 220.4L268.2 248.3C269 248.8 269.5 249.8 269.5 250.9V254.1C269.5 254.9 268.9 255.6 268.1 255.6H267.8C267 255.6 266.4 254.9 266.4 254.1V253.8C266.4 252.7 265.9 251.7 265 251.2L226.7 227.5V220.4H226.8Z" fill="#1F1A54"/>
<path d="M224.6 220.4L240 248.5C240.3 249 240.4 249.5 240.4 250.1V254.2C240.4 255 239.8 255.7 239 255.7H238.7C237.9 255.7 237.3 255 237.3 254.2V253C237.3 252.5 237.2 252 236.9 251.5L224.5 229.5V220.4H224.6Z" fill="#1F1A54"/>
<path d="M224.6 220.4L209.2 248.5C208.9 249 208.8 249.5 208.8 250.1V254.2C208.8 255 209.4 255.7 210.2 255.7H210.5C211.3 255.7 211.9 255 211.9 254.2V253C211.9 252.5 212 252 212.3 251.5L224.7 229.5V220.4H224.6Z" fill="#1F1A54"/>
<path d="M270.1 144.2C271 144.2 271.3 144 271.5 143.9C270.8 144.8 267.4 149.6 267.4 159.3C267.4 170.1 269 190.9 233.7 190.9C239.4 190.9 251.7 184.4 251.7 171.7C251.8 159.1 255.2 145.9 270.1 144.2Z" fill="#FFD400"/>
<path d="M233.7 191.5V190.6C246.3 190.6 255.3 187.9 260.7 182.5C267.1 176.1 267 167.2 267 160.7V159.3C267 149.4 270.5 144.5 271.2 143.6L271.9 144.2C271.2 145.1 267.9 149.8 267.9 159.4V160.8C267.9 167.4 268 176.5 261.3 183.2C255.8 188.7 246.6 191.5 233.7 191.5Z" fill="#1F1A54"/>
<path d="M271.9 144.2L271.4 143.8H271.3V143.7L271.4 143.6L271.5 143.5L271.7 143.9H272.2V144.2H271.9Z" fill="#1F1A54"/>
<path d="M271.9 144.2L271.5 143.8L271.2 143.7L271.3 143.5L271.7 143.9L272.1 144L272 144.1L271.9 144.2Z" fill="#1F1A54"/>
<path d="M271.6 144.4V143.9H271.1L271.6 143.5V143.9H272H271.6V144.4Z" fill="#1F1A54"/>
<path d="M233.7 191.5V190.6C239.7 190.6 251.3 184 251.3 171.9C251.3 154.7 257.6 145.2 270.1 143.9C270.9 143.9 271.2 143.8 271.3 143.7L271.9 144.4C271.5 144.7 271 144.8 270.2 144.8C258.4 146.1 252.3 155.2 252.3 171.9C252.2 184.5 240 191.5 233.7 191.5Z" fill="#1F1A54"/>
</svg>
