<svg width="375" height="277" viewBox="0 0 375 277" fill="none" xmlns="http://www.w3.org/2000/svg">
<path d="M158.34 145.44C158.54 147.49 158.5 147.82 158.27 148.51C157.81 149.89 155.37 154.62 154.52 154.58C154.37 154.57 154.224 154.526 154.092 154.452C153.961 154.377 153.849 154.274 153.763 154.15C153.678 154.026 153.621 153.884 153.598 153.735C153.575 153.586 153.586 153.434 153.63 153.29C153.705 152.946 153.815 152.611 153.96 152.29C153.96 152.24 153.96 152.18 154.04 152.14C154.12 152.1 154.18 151.84 154.2 151.78C154.52 151.12 154.86 150.54 154.86 150.54C156.11 150.33 155.86 147 155.58 144.54C155.401 143.101 155.503 141.641 155.88 140.24L157.42 139.97C157.91 142.36 158.2 144.09 158.34 145.44Z" fill="white"/>
<path d="M152.84 145.59L150.58 146.32V146.37V146.46V146.53V146.59C149.69 148.4 147.58 151.34 146.84 151.05C146.1 150.76 146.44 149.53 146.6 149.05C146.81 148.43 147.66 146.64 147.66 146.64L147.75 144.7C146.5 140.43 147.65 134.47 147.65 134.47C148.71 125.82 144.96 115.98 144.65 104.47L143.8 91L154.5 90.36L154.22 104.1C154.22 104.1 154.51 110.36 154.51 114.67C154.51 120.54 154.6 125.49 154.93 128.89C155.24 132.11 156.76 136.67 157.22 138.89C157.3 139.25 157.37 139.61 157.44 139.94L155.9 140.21C155.524 141.611 155.422 143.071 155.6 144.51C155.89 146.95 156.13 150.28 154.88 150.51C153.88 150.68 153.55 149.92 153.37 148.88C153.265 147.773 153.088 146.674 152.84 145.59Z" fill="white"/>
<path d="M153.37 148.91C153.55 149.91 153.9 150.71 154.88 150.54C154.88 150.54 154.54 151.12 154.22 151.78C154.159 151.896 154.106 152.017 154.06 152.14C154.06 152.14 154.06 152.24 153.98 152.29C153.8 152.65 153.5 153.19 153.09 153.91C152.68 154.63 152.25 155.04 151.75 155.08C151.25 155.12 150.83 154.65 150.97 153.69C151.396 152.08 151.961 150.511 152.66 149L153.37 148.91Z" fill="white"/>
<path d="M154 152.18C154.045 152.057 154.099 151.936 154.16 151.82C154.18 151.88 154.12 152 154 152.18Z" fill="white"/>
<path d="M153.37 148.91L152.65 149.03C152.55 149.14 151.75 150.14 150.83 151.28C149.91 152.42 149.42 152.94 148.71 152.84C148.24 152.78 148.05 151.84 148.39 151.14C148.73 150.44 150.04 147.51 150.46 146.58V146.52V146.45V146.36V146.31L152.72 145.58C153.01 146.674 153.228 147.787 153.37 148.91Z" fill="white"/>
<path d="M148.85 153.26H148.64C148.501 153.238 148.37 153.183 148.257 153.099C148.144 153.016 148.052 152.906 147.99 152.78C147.857 152.502 147.788 152.198 147.788 151.89C147.788 151.582 147.857 151.278 147.99 151C148.22 150.52 149.11 148.55 149.68 147.29L150.06 146.45C150.057 146.417 150.057 146.383 150.06 146.35C150.06 146.35 150.13 146.19 150.14 146.18C150.193 146.087 150.28 146.018 150.383 145.988C150.485 145.958 150.596 145.97 150.69 146.02C150.776 146.067 150.841 146.144 150.873 146.237C150.904 146.329 150.9 146.431 150.86 146.52C150.846 146.548 150.829 146.575 150.81 146.6L150.43 146.48L150.76 146.72L150.36 147.62C149.78 148.89 148.9 150.86 148.66 151.34C148.512 151.652 148.483 152.008 148.58 152.34C148.599 152.393 148.63 152.441 148.67 152.48C149.13 152.55 149.61 152.08 150.43 151.07C151.66 149.54 152.18 148.9 152.27 148.81C152.302 148.763 152.344 148.723 152.393 148.694C152.442 148.664 152.496 148.646 152.553 148.639C152.609 148.632 152.667 148.637 152.721 148.655C152.775 148.672 152.825 148.7 152.868 148.738C152.91 148.777 152.944 148.823 152.967 148.875C152.989 148.928 153.001 148.984 153 149.041C153 149.098 152.987 149.154 152.963 149.206C152.938 149.257 152.904 149.303 152.86 149.34C152.75 149.46 151.56 150.94 151.05 151.57C150.32 152.54 149.67 153.26 148.85 153.26Z" fill="#1F1A54"/>
<path d="M154.52 155C154.327 154.989 154.139 154.938 153.966 154.85C153.794 154.763 153.642 154.64 153.52 154.49C153.382 154.317 153.286 154.113 153.239 153.897C153.192 153.68 153.196 153.455 153.25 153.24C153.325 152.877 153.442 152.525 153.6 152.19C153.642 152.094 153.72 152.018 153.817 151.979C153.915 151.939 154.023 151.94 154.12 151.98C154.216 152.022 154.292 152.1 154.332 152.197C154.371 152.294 154.37 152.403 154.33 152.5C154.209 152.786 154.109 153.08 154.03 153.38C154.004 153.484 154 153.592 154.019 153.697C154.038 153.802 154.079 153.902 154.14 153.99C154.189 154.05 154.25 154.099 154.319 154.136C154.388 154.172 154.463 154.194 154.54 154.2C155.15 154 157.39 149.94 157.9 148.4C158.1 147.8 158.15 147.54 157.95 145.5C157.82 144.21 157.54 142.5 157.06 140.09L156.84 139.09C156.69 138.35 156.42 137.37 156.11 136.23C155.408 133.873 154.883 131.466 154.54 129.03C154.26 126.03 154.13 121.65 154.12 114.77C154.12 110.51 153.83 104.28 153.83 104.21L154.1 90.88L144.23 91.47L144.92 104.47C145.149 109.326 145.734 114.159 146.67 118.93C147.67 124.48 148.52 129.73 147.93 134.57C147.93 134.65 146.81 140.52 148.01 144.64C148.021 144.683 148.021 144.727 148.01 144.77L147.92 146.71C147.935 146.759 147.935 146.811 147.92 146.86C147.92 146.86 147.08 148.64 146.92 149.23C146.76 149.82 146.69 150.63 146.92 150.72C147.37 150.66 149.19 148.41 150.15 146.46C150.174 146.413 150.206 146.37 150.246 146.335C150.286 146.3 150.332 146.274 150.383 146.257C150.433 146.24 150.486 146.234 150.539 146.238C150.592 146.242 150.643 146.256 150.69 146.28C150.737 146.302 150.78 146.334 150.814 146.373C150.849 146.412 150.876 146.458 150.892 146.507C150.909 146.556 150.916 146.609 150.912 146.661C150.908 146.713 150.894 146.764 150.87 146.81C150.53 147.51 147.94 152 146.63 151.47C145.71 151.09 145.92 149.68 146.15 148.98C146.38 148.28 147.03 146.98 147.15 146.59L147.23 144.8C146 140.49 147.09 134.69 147.14 134.44C147.72 129.75 146.82 124.56 145.88 119.06C144.944 114.255 144.355 109.389 144.12 104.5L143.41 91.09C143.405 90.9855 143.44 90.883 143.51 90.8045C143.579 90.726 143.676 90.6777 143.78 90.67L154.48 90.03C154.535 90.024 154.591 90.0308 154.643 90.0499C154.695 90.069 154.742 90.0998 154.78 90.14C154.821 90.1788 154.853 90.2253 154.876 90.2768C154.898 90.3284 154.91 90.3839 154.91 90.44L154.63 104.17C154.63 104.17 154.92 110.47 154.92 114.74C154.92 121.59 155.05 125.97 155.34 128.92C155.676 131.313 156.194 133.676 156.89 135.99C157.2 137.14 157.47 138.14 157.63 138.9L157.84 139.9C158.33 142.38 158.61 144.07 158.75 145.39C158.95 147.48 158.91 147.87 158.66 148.63C158.41 149.39 155.86 155 154.52 155Z" fill="#1F1A54"/>
<path d="M154 152.58C153.948 152.595 153.893 152.595 153.84 152.58C153.792 152.56 153.748 152.531 153.711 152.494C153.674 152.457 153.645 152.413 153.625 152.365C153.605 152.316 153.596 152.264 153.597 152.212C153.598 152.159 153.609 152.108 153.63 152.06C153.68 151.93 153.74 151.8 153.8 151.68C153.85 151.586 153.933 151.515 154.034 151.481C154.135 151.447 154.245 151.454 154.34 151.5C154.388 151.523 154.43 151.556 154.465 151.596C154.499 151.636 154.526 151.683 154.541 151.733C154.557 151.784 154.563 151.837 154.557 151.89C154.552 151.943 154.536 151.994 154.51 152.04L154.36 152.37C154.325 152.435 154.273 152.489 154.21 152.526C154.146 152.563 154.074 152.581 154 152.58Z" fill="#1F1A54"/>
<path d="M154.22 152.18C154.152 152.182 154.084 152.167 154.024 152.135C153.964 152.103 153.913 152.056 153.876 151.999C153.84 151.941 153.819 151.875 153.816 151.806C153.813 151.738 153.829 151.671 153.86 151.61C154.19 150.93 154.54 150.34 154.54 150.34C154.566 150.295 154.6 150.255 154.642 150.224C154.683 150.192 154.73 150.169 154.781 150.156C154.831 150.143 154.883 150.14 154.935 150.148C154.986 150.155 155.036 150.173 155.08 150.2C155.126 150.225 155.167 150.259 155.199 150.3C155.231 150.341 155.255 150.389 155.268 150.439C155.281 150.49 155.284 150.543 155.276 150.595C155.267 150.646 155.248 150.696 155.22 150.74C155.22 150.74 154.89 151.31 154.58 151.95C154.549 152.019 154.498 152.078 154.434 152.119C154.37 152.16 154.296 152.181 154.22 152.18Z" fill="#1F1A54"/>
<path d="M154.61 151C153.32 151 153.06 149.52 152.97 149C152.91 148.63 152.87 148.23 152.82 147.82C152.771 147.12 152.65 146.426 152.46 145.75C152.431 145.643 152.39 145.539 152.34 145.44L152.26 145.25C150.957 142.723 150.089 139.995 149.69 137.18C149.676 137.075 149.704 136.969 149.767 136.885C149.831 136.801 149.926 136.745 150.03 136.73C150.082 136.722 150.135 136.724 150.187 136.736C150.238 136.749 150.286 136.772 150.328 136.804C150.37 136.836 150.405 136.876 150.431 136.921C150.457 136.967 150.474 137.018 150.48 137.07C150.872 139.807 151.717 142.46 152.98 144.92L153.08 145.11C153.08 145.24 153.18 145.37 153.22 145.5C153.425 146.229 153.559 146.976 153.62 147.73C153.62 148.13 153.7 148.51 153.76 148.87C153.99 150.2 154.39 150.25 154.81 150.18C155.06 150.18 155.81 149.62 155.2 144.64C155.008 143.144 155.117 141.624 155.52 140.17C155.537 140.12 155.563 140.074 155.597 140.034C155.631 139.994 155.673 139.962 155.72 139.938C155.767 139.914 155.818 139.9 155.87 139.896C155.923 139.892 155.975 139.899 156.025 139.915C156.075 139.931 156.121 139.958 156.161 139.992C156.201 140.026 156.234 140.068 156.257 140.115C156.281 140.162 156.295 140.213 156.299 140.265C156.303 140.317 156.297 140.37 156.28 140.42C155.926 141.763 155.831 143.161 156 144.54C156.51 148.83 156.2 150.76 154.95 150.97L154.61 151Z" fill="#1F1A54"/>
<path d="M103.53 99.28L95.1298 100.4C95.1298 100.4 93.2998 78.29 97.3898 73.34C100.61 69.45 116.05 63.77 116.05 63.77L118.61 66.87C119.633 68.123 120.969 69.084 122.482 69.6561C123.995 70.2281 125.633 70.391 127.229 70.1284C128.825 69.8657 130.324 69.1867 131.574 68.1599C132.825 67.1332 133.782 65.7949 134.35 64.28C134.35 64.28 137 64.56 142.98 67.16C146.197 68.6777 149.278 70.4676 152.19 72.51L154 77.36V83L148.91 86.61C148.91 86.61 148.16 91.79 147.66 97.91C147.51 99.8 147.41 101.56 147.41 102.91C147.41 108.44 148.11 138.63 148.11 138.63C133.97 143.15 103.5 137.44 103.5 137.44L103.53 99.28Z" fill="#FFD400"/>
<path d="M103.53 99.36L95.1298 100.48C95.1298 100.48 93.2998 78.37 97.3898 73.42C100.61 69.53 116.05 63.85 116.05 63.85L118.61 66.95C119.633 68.203 120.969 69.164 122.482 69.7361C123.995 70.3081 125.633 70.4711 127.229 70.2084C128.825 69.9457 130.324 69.2667 131.574 68.24C132.825 67.2132 133.782 65.8749 134.35 64.36C134.35 64.36 137 64.64 142.98 67.24C146.197 68.7578 149.278 70.5476 152.19 72.59L154 77.44V83.1L148.91 86.71C148.91 86.71 148.16 91.89 147.66 98.01C147.51 99.9 147.41 101.66 147.41 103.01C147.41 108.54 148.11 138.73 148.11 138.73C133.97 143.25 103.5 137.54 103.5 137.54L103.53 99.36Z" fill="#FFD400"/>
<path d="M99.4497 81.22C99.2519 81.22 99.0586 81.2787 98.8941 81.3886C98.7297 81.4984 98.6015 81.6546 98.5258 81.8373C98.4501 82.0201 98.4303 82.2211 98.4689 82.4151C98.5075 82.6091 98.6027 82.7873 98.7426 82.9271C98.8824 83.067 99.0606 83.1622 99.2546 83.2008C99.4486 83.2394 99.6497 83.2196 99.8324 83.1439C100.015 83.0682 100.171 82.9401 100.281 82.7756C100.391 82.6112 100.45 82.4178 100.45 82.22C100.45 81.9548 100.344 81.7005 100.157 81.5129C99.9693 81.3254 99.7149 81.22 99.4497 81.22Z" fill="white"/>
<path d="M103.49 72.71C103.292 72.71 103.099 72.7687 102.934 72.8786C102.77 72.9884 102.642 73.1446 102.566 73.3273C102.49 73.5101 102.47 73.7111 102.509 73.9051C102.548 74.0991 102.643 74.2773 102.783 74.4171C102.922 74.557 103.101 74.6522 103.295 74.6908C103.489 74.7294 103.69 74.7096 103.872 74.6339C104.055 74.5582 104.211 74.43 104.321 74.2656C104.431 74.1011 104.49 73.9078 104.49 73.71C104.49 73.4448 104.384 73.1905 104.197 73.0029C104.009 72.8154 103.755 72.71 103.49 72.71Z" fill="white"/>
<path d="M104 90.26C103.802 90.26 103.609 90.3187 103.444 90.4285C103.28 90.5384 103.152 90.6946 103.076 90.8773C103 91.0601 102.981 91.2611 103.019 91.4551C103.058 91.6491 103.153 91.8273 103.293 91.9671C103.433 92.107 103.611 92.2022 103.805 92.2408C103.999 92.2794 104.2 92.2596 104.383 92.1839C104.565 92.1082 104.722 91.98 104.831 91.8156C104.941 91.6511 105 91.4578 105 91.26C105 90.9948 104.895 90.7404 104.707 90.5529C104.52 90.3654 104.265 90.26 104 90.26Z" fill="white"/>
<path d="M98.4697 94.55C98.2719 94.55 98.0786 94.6087 97.9142 94.7186C97.7497 94.8285 97.6215 94.9846 97.5458 95.1674C97.4702 95.3501 97.4504 95.5512 97.4889 95.7451C97.5275 95.9391 97.6228 96.1173 97.7626 96.2572C97.9025 96.397 98.0807 96.4922 98.2746 96.5308C98.4686 96.5694 98.6697 96.5496 98.8524 96.4739C99.0351 96.3982 99.1913 96.2701 99.3012 96.1056C99.4111 95.9412 99.4697 95.7478 99.4697 95.55C99.4697 95.2848 99.3644 95.0305 99.1768 94.8429C98.9893 94.6554 98.7349 94.55 98.4697 94.55Z" fill="white"/>
<path d="M108.49 81.22C108.225 81.22 107.97 81.3254 107.783 81.5129C107.595 81.7005 107.49 81.9548 107.49 82.22C107.49 82.4852 107.595 82.7396 107.783 82.9271C107.97 83.1147 108.225 83.22 108.49 83.22C108.755 83.22 109.009 83.1147 109.197 82.9271C109.384 82.7396 109.49 82.4852 109.49 82.22C109.49 81.9548 109.384 81.7005 109.197 81.5129C109.009 81.3254 108.755 81.22 108.49 81.22Z" fill="white"/>
<path d="M108.49 99.29C108.225 99.29 107.97 99.3954 107.783 99.5829C107.595 99.7705 107.49 100.025 107.49 100.29C107.49 100.555 107.595 100.81 107.783 100.997C107.97 101.185 108.225 101.29 108.49 101.29C108.755 101.29 109.009 101.185 109.197 100.997C109.384 100.81 109.49 100.555 109.49 100.29C109.49 100.025 109.384 99.7705 109.197 99.5829C109.009 99.3954 108.755 99.29 108.49 99.29Z" fill="white"/>
<path d="M108.49 117.36C108.292 117.36 108.099 117.419 107.934 117.529C107.77 117.638 107.642 117.795 107.566 117.977C107.49 118.16 107.47 118.361 107.509 118.555C107.548 118.749 107.643 118.927 107.783 119.067C107.922 119.207 108.101 119.302 108.295 119.341C108.489 119.379 108.69 119.36 108.872 119.284C109.055 119.208 109.211 119.08 109.321 118.916C109.431 118.751 109.49 118.558 109.49 118.36C109.49 118.095 109.384 117.84 109.197 117.653C109.009 117.465 108.755 117.36 108.49 117.36Z" fill="white"/>
<path d="M113 108.33C112.802 108.33 112.609 108.389 112.444 108.499C112.28 108.608 112.152 108.765 112.076 108.947C112 109.13 111.981 109.331 112.019 109.525C112.058 109.719 112.153 109.897 112.293 110.037C112.433 110.177 112.611 110.272 112.805 110.311C112.999 110.349 113.2 110.33 113.383 110.254C113.565 110.178 113.722 110.05 113.831 109.886C113.941 109.721 114 109.528 114 109.33C114 109.065 113.895 108.81 113.707 108.623C113.52 108.435 113.265 108.33 113 108.33Z" fill="white"/>
<path d="M113 126.4C112.802 126.4 112.609 126.459 112.444 126.569C112.28 126.678 112.152 126.835 112.076 127.017C112 127.2 111.981 127.401 112.019 127.595C112.058 127.789 112.153 127.967 112.293 128.107C112.433 128.247 112.611 128.342 112.805 128.381C112.999 128.419 113.2 128.4 113.383 128.324C113.565 128.248 113.722 128.12 113.831 127.956C113.941 127.791 114 127.598 114 127.4C114 127.135 113.895 126.88 113.707 126.693C113.52 126.505 113.265 126.4 113 126.4Z" fill="white"/>
<path d="M117.52 81.22C117.322 81.22 117.129 81.2787 116.964 81.3886C116.8 81.4984 116.672 81.6546 116.596 81.8373C116.52 82.0201 116.501 82.2211 116.539 82.4151C116.578 82.6091 116.673 82.7873 116.813 82.9271C116.953 83.067 117.131 83.1622 117.325 83.2008C117.519 83.2394 117.72 83.2196 117.903 83.1439C118.085 83.0682 118.242 82.9401 118.351 82.7756C118.461 82.6112 118.52 82.4178 118.52 82.22C118.52 81.9548 118.415 81.7005 118.227 81.5129C118.04 81.3254 117.785 81.22 117.52 81.22Z" fill="white"/>
<path d="M117.52 99.29C117.322 99.29 117.129 99.3487 116.964 99.4586C116.8 99.5684 116.672 99.7246 116.596 99.9074C116.52 100.09 116.501 100.291 116.539 100.485C116.578 100.679 116.673 100.857 116.813 100.997C116.953 101.137 117.131 101.232 117.325 101.271C117.519 101.309 117.72 101.29 117.903 101.214C118.085 101.138 118.242 101.01 118.351 100.846C118.461 100.681 118.52 100.488 118.52 100.29C118.52 100.025 118.415 99.7705 118.227 99.5829C118.04 99.3954 117.785 99.29 117.52 99.29Z" fill="white"/>
<path d="M113 90.26C112.802 90.26 112.609 90.3187 112.444 90.4285C112.28 90.5384 112.152 90.6946 112.076 90.8773C112 91.0601 111.981 91.2611 112.019 91.4551C112.058 91.6491 112.153 91.8273 112.293 91.9671C112.433 92.107 112.611 92.2022 112.805 92.2408C112.999 92.2794 113.2 92.2596 113.383 92.1839C113.565 92.1082 113.722 91.98 113.831 91.8156C113.941 91.6511 114 91.4578 114 91.26C114 90.9948 113.895 90.7404 113.707 90.5529C113.52 90.3654 113.265 90.26 113 90.26Z" fill="white"/>
<path d="M117.52 117.36C117.322 117.36 117.129 117.419 116.964 117.529C116.8 117.638 116.672 117.795 116.596 117.977C116.52 118.16 116.501 118.361 116.539 118.555C116.578 118.749 116.673 118.927 116.813 119.067C116.953 119.207 117.131 119.302 117.325 119.341C117.519 119.379 117.72 119.36 117.903 119.284C118.085 119.208 118.242 119.08 118.351 118.916C118.461 118.751 118.52 118.558 118.52 118.36C118.52 118.095 118.415 117.84 118.227 117.653C118.04 117.465 117.785 117.36 117.52 117.36Z" fill="white"/>
<path d="M113 72.19C112.735 72.19 112.48 72.2954 112.293 72.4829C112.105 72.6704 112 72.9248 112 73.19C112 73.4552 112.105 73.7096 112.293 73.8971C112.48 74.0846 112.735 74.19 113 74.19C113.265 74.19 113.52 74.0846 113.707 73.8971C113.895 73.7096 114 73.4552 114 73.19C114 72.9248 113.895 72.6704 113.707 72.4829C113.52 72.2954 113.265 72.19 113 72.19Z" fill="white"/>
<path d="M122.6 72.19C122.402 72.19 122.209 72.2486 122.045 72.3585C121.88 72.4684 121.752 72.6246 121.676 72.8073C121.601 72.99 121.581 73.1911 121.619 73.3851C121.658 73.5791 121.753 73.7573 121.893 73.8971C122.033 74.037 122.211 74.1322 122.405 74.1708C122.599 74.2094 122.8 74.1896 122.983 74.1139C123.166 74.0382 123.322 73.91 123.432 73.7456C123.541 73.5811 123.6 73.3878 123.6 73.19C123.6 72.9248 123.495 72.6704 123.307 72.4829C123.12 72.2954 122.865 72.19 122.6 72.19Z" fill="white"/>
<path d="M131.23 72.19C131.032 72.19 130.839 72.2486 130.674 72.3585C130.51 72.4684 130.382 72.6246 130.306 72.8073C130.23 72.99 130.211 73.1911 130.249 73.3851C130.288 73.5791 130.383 73.7573 130.523 73.8971C130.663 74.037 130.841 74.1322 131.035 74.1708C131.229 74.2094 131.43 74.1896 131.613 74.1139C131.795 74.0382 131.952 73.91 132.061 73.7456C132.171 73.5811 132.23 73.3878 132.23 73.19C132.23 72.9248 132.125 72.6704 131.937 72.4829C131.75 72.2954 131.495 72.19 131.23 72.19Z" fill="white"/>
<path d="M140.82 72.19C140.622 72.19 140.429 72.2486 140.264 72.3585C140.1 72.4684 139.972 72.6246 139.896 72.8073C139.82 72.99 139.8 73.1911 139.839 73.3851C139.878 73.5791 139.973 73.7573 140.113 73.8971C140.253 74.037 140.431 74.1322 140.625 74.1708C140.819 74.2094 141.02 74.1896 141.203 74.1139C141.385 74.0382 141.541 73.91 141.651 73.7456C141.761 73.5811 141.82 73.3878 141.82 73.19C141.82 72.9248 141.714 72.6704 141.527 72.4829C141.339 72.2954 141.085 72.19 140.82 72.19Z" fill="white"/>
<path d="M149.3 73.17C149.102 73.17 148.909 73.2287 148.744 73.3386C148.58 73.4485 148.452 73.6046 148.376 73.7874C148.3 73.9701 148.28 74.1712 148.319 74.3651C148.358 74.5591 148.453 74.7373 148.593 74.8772C148.733 75.017 148.911 75.1122 149.105 75.1508C149.299 75.1894 149.5 75.1696 149.682 75.0939C149.865 75.0182 150.021 74.8901 150.131 74.7256C150.241 74.5612 150.3 74.3678 150.3 74.17C150.3 73.9048 150.194 73.6505 150.007 73.4629C149.819 73.2754 149.565 73.17 149.3 73.17Z" fill="white"/>
<path d="M136.73 65.74C136.532 65.74 136.339 65.7986 136.174 65.9085C136.01 66.0184 135.882 66.1746 135.806 66.3573C135.73 66.54 135.711 66.7411 135.749 66.9351C135.788 67.1291 135.883 67.3072 136.023 67.4471C136.163 67.587 136.341 67.6822 136.535 67.7208C136.729 67.7594 136.93 67.7396 137.113 67.6639C137.295 67.5882 137.452 67.46 137.561 67.2956C137.671 67.1311 137.73 66.9378 137.73 66.74C137.73 66.4748 137.625 66.2204 137.437 66.0329C137.25 65.8453 136.995 65.74 136.73 65.74Z" fill="white"/>
<path d="M115.56 65.74C115.362 65.74 115.169 65.7986 115.004 65.9085C114.84 66.0184 114.712 66.1746 114.636 66.3573C114.56 66.54 114.541 66.7411 114.579 66.9351C114.618 67.1291 114.713 67.3072 114.853 67.4471C114.993 67.587 115.171 67.6822 115.365 67.7208C115.559 67.7594 115.76 67.7396 115.943 67.6639C116.125 67.5882 116.282 67.46 116.392 67.2956C116.501 67.1311 116.56 66.9378 116.56 66.74C116.56 66.4748 116.455 66.2204 116.267 66.0329C116.08 65.8453 115.825 65.74 115.56 65.74Z" fill="white"/>
<path d="M122 110.29C122.198 110.29 122.391 110.231 122.556 110.122C122.72 110.012 122.848 109.855 122.924 109.673C123 109.49 123.019 109.289 122.981 109.095C122.942 108.901 122.847 108.723 122.707 108.583C122.567 108.443 122.389 108.348 122.195 108.309C122.001 108.271 121.8 108.29 121.617 108.366C121.435 108.442 121.278 108.57 121.169 108.734C121.059 108.899 121 109.092 121 109.29C121 109.555 121.105 109.81 121.293 109.997C121.48 110.185 121.735 110.29 122 110.29Z" fill="white"/>
<path d="M122 92.22C122.198 92.22 122.391 92.1614 122.556 92.0515C122.72 91.9416 122.848 91.7854 122.924 91.6027C123 91.42 123.019 91.2189 122.981 91.0249C122.942 90.831 122.847 90.6528 122.707 90.5129C122.567 90.3731 122.389 90.2778 122.195 90.2392C122.001 90.2007 121.8 90.2205 121.617 90.2962C121.435 90.3718 121.278 90.5 121.169 90.6645C121.059 90.8289 121 91.0223 121 91.22C121 91.4853 121.105 91.7396 121.293 91.9271C121.48 92.1147 121.735 92.22 122 92.22Z" fill="white"/>
<path d="M131.23 108.2C131.032 108.2 130.839 108.259 130.674 108.369C130.51 108.478 130.382 108.635 130.306 108.817C130.23 109 130.211 109.201 130.249 109.395C130.288 109.589 130.383 109.767 130.523 109.907C130.663 110.047 130.841 110.142 131.035 110.181C131.229 110.219 131.43 110.2 131.613 110.124C131.795 110.048 131.952 109.92 132.061 109.756C132.171 109.591 132.23 109.398 132.23 109.2C132.23 108.935 132.125 108.68 131.937 108.493C131.75 108.305 131.495 108.2 131.23 108.2Z" fill="white"/>
<path d="M126.71 81.1C126.512 81.1 126.319 81.1587 126.154 81.2686C125.99 81.3785 125.862 81.5346 125.786 81.7174C125.71 81.9001 125.691 82.1011 125.729 82.2951C125.768 82.4891 125.863 82.6673 126.003 82.8071C126.143 82.947 126.321 83.0422 126.515 83.0808C126.709 83.1194 126.91 83.0996 127.093 83.0239C127.275 82.9482 127.432 82.8201 127.541 82.6556C127.651 82.4912 127.71 82.2978 127.71 82.1C127.71 81.8348 127.605 81.5805 127.417 81.3929C127.23 81.2054 126.975 81.1 126.71 81.1Z" fill="white"/>
<path d="M131.23 90.13C131.032 90.13 130.839 90.1887 130.674 90.2985C130.51 90.4084 130.382 90.5646 130.306 90.7473C130.23 90.93 130.211 91.1311 130.249 91.3251C130.288 91.5191 130.383 91.6973 130.523 91.8371C130.663 91.977 130.841 92.0722 131.035 92.1108C131.229 92.1494 131.43 92.1296 131.613 92.0539C131.795 91.9782 131.952 91.85 132.061 91.6856C132.171 91.5211 132.23 91.3278 132.23 91.13C132.23 90.8648 132.125 90.6104 131.937 90.4229C131.75 90.2354 131.495 90.13 131.23 90.13Z" fill="white"/>
<path d="M126.71 99.17C126.512 99.17 126.319 99.2287 126.154 99.3386C125.99 99.4485 125.862 99.6046 125.786 99.7874C125.71 99.9701 125.691 100.171 125.729 100.365C125.768 100.559 125.863 100.737 126.003 100.877C126.143 101.017 126.321 101.112 126.515 101.151C126.709 101.189 126.91 101.17 127.093 101.094C127.275 101.018 127.432 100.89 127.541 100.726C127.651 100.561 127.71 100.368 127.71 100.17C127.71 99.9048 127.605 99.6505 127.417 99.4629C127.23 99.2754 126.975 99.17 126.71 99.17Z" fill="white"/>
<path d="M126.71 117.24C126.512 117.24 126.319 117.299 126.154 117.409C125.99 117.518 125.862 117.675 125.786 117.857C125.71 118.04 125.691 118.241 125.729 118.435C125.768 118.629 125.863 118.807 126.003 118.947C126.143 119.087 126.321 119.182 126.515 119.221C126.709 119.259 126.91 119.24 127.093 119.164C127.275 119.088 127.432 118.96 127.541 118.796C127.651 118.631 127.71 118.438 127.71 118.24C127.71 117.975 127.605 117.72 127.417 117.533C127.23 117.345 126.975 117.24 126.71 117.24Z" fill="white"/>
<path d="M122.15 126.75C121.952 126.75 121.759 126.809 121.594 126.919C121.43 127.028 121.302 127.185 121.226 127.367C121.15 127.55 121.131 127.751 121.169 127.945C121.208 128.139 121.303 128.317 121.443 128.457C121.583 128.597 121.761 128.692 121.955 128.731C122.149 128.769 122.35 128.75 122.533 128.674C122.715 128.598 122.871 128.47 122.981 128.306C123.091 128.141 123.15 127.948 123.15 127.75C123.15 127.485 123.045 127.23 122.857 127.043C122.669 126.855 122.415 126.75 122.15 126.75Z" fill="white"/>
<path d="M135.75 83.06C135.948 83.06 136.141 83.0013 136.306 82.8915C136.47 82.7816 136.598 82.6254 136.674 82.4427C136.75 82.26 136.769 82.0589 136.731 81.8649C136.692 81.6709 136.597 81.4927 136.457 81.3529C136.317 81.213 136.139 81.1178 135.945 81.0792C135.751 81.0406 135.55 81.0604 135.367 81.1361C135.185 81.2118 135.028 81.34 134.919 81.5044C134.809 81.6689 134.75 81.8622 134.75 82.06C134.75 82.3252 134.855 82.5796 135.043 82.7671C135.23 82.9546 135.485 83.06 135.75 83.06Z" fill="white"/>
<path d="M135.75 101.13C135.948 101.13 136.141 101.071 136.306 100.961C136.47 100.852 136.598 100.695 136.674 100.513C136.75 100.33 136.769 100.129 136.731 99.9349C136.692 99.7409 136.597 99.5627 136.457 99.4229C136.317 99.283 136.139 99.1878 135.945 99.1492C135.751 99.1106 135.55 99.1304 135.367 99.2061C135.185 99.2818 135.028 99.41 134.919 99.5744C134.809 99.7389 134.75 99.9322 134.75 100.13C134.75 100.395 134.855 100.65 135.043 100.837C135.23 101.025 135.485 101.13 135.75 101.13Z" fill="white"/>
<path d="M136.73 118.22C136.73 118.022 136.671 117.829 136.561 117.664C136.452 117.5 136.295 117.372 136.113 117.296C135.93 117.22 135.729 117.201 135.535 117.239C135.341 117.278 135.163 117.373 135.023 117.513C134.883 117.653 134.788 117.831 134.749 118.025C134.711 118.219 134.73 118.42 134.806 118.603C134.882 118.785 135.01 118.942 135.174 119.052C135.339 119.161 135.532 119.22 135.73 119.22C135.995 119.22 136.25 119.115 136.437 118.927C136.625 118.74 136.73 118.485 136.73 118.22Z" fill="white"/>
<path d="M140.26 108.2C140.062 108.2 139.869 108.259 139.704 108.369C139.54 108.478 139.412 108.635 139.336 108.817C139.26 109 139.24 109.201 139.279 109.395C139.318 109.589 139.413 109.767 139.553 109.907C139.693 110.047 139.871 110.142 140.065 110.181C140.259 110.219 140.46 110.2 140.642 110.124C140.825 110.048 140.981 109.92 141.091 109.756C141.201 109.591 141.26 109.398 141.26 109.2C141.26 108.935 141.154 108.68 140.967 108.493C140.779 108.305 140.525 108.2 140.26 108.2Z" fill="white"/>
<path d="M140.26 126.75C140.062 126.75 139.869 126.809 139.704 126.919C139.54 127.028 139.412 127.185 139.336 127.367C139.26 127.55 139.24 127.751 139.279 127.945C139.318 128.139 139.413 128.317 139.553 128.457C139.693 128.597 139.871 128.692 140.065 128.731C140.259 128.769 140.46 128.75 140.642 128.674C140.825 128.598 140.981 128.47 141.091 128.306C141.201 128.141 141.26 127.948 141.26 127.75C141.26 127.485 141.154 127.23 140.967 127.043C140.779 126.855 140.525 126.75 140.26 126.75Z" fill="white"/>
<path d="M131.18 126.75C130.982 126.75 130.789 126.809 130.624 126.919C130.46 127.028 130.331 127.185 130.256 127.367C130.18 127.55 130.16 127.751 130.199 127.945C130.237 128.139 130.333 128.317 130.473 128.457C130.612 128.597 130.791 128.692 130.985 128.731C131.179 128.769 131.38 128.75 131.562 128.674C131.745 128.598 131.901 128.47 132.011 128.306C132.121 128.141 132.18 127.948 132.18 127.75C132.18 127.485 132.074 127.23 131.887 127.043C131.699 126.855 131.445 126.75 131.18 126.75Z" fill="white"/>
<path d="M108.47 132.23C108.272 132.23 108.079 132.289 107.914 132.399C107.75 132.508 107.622 132.665 107.546 132.847C107.47 133.03 107.45 133.231 107.489 133.425C107.528 133.619 107.623 133.797 107.763 133.937C107.902 134.077 108.081 134.172 108.275 134.211C108.469 134.249 108.67 134.23 108.852 134.154C109.035 134.078 109.191 133.95 109.301 133.786C109.411 133.621 109.47 133.428 109.47 133.23C109.47 132.965 109.364 132.71 109.177 132.523C108.989 132.335 108.735 132.23 108.47 132.23Z" fill="white"/>
<path d="M126.58 135C126.382 135 126.189 135.059 126.025 135.169C125.86 135.278 125.732 135.435 125.656 135.617C125.581 135.8 125.561 136.001 125.599 136.195C125.638 136.389 125.733 136.567 125.873 136.707C126.013 136.847 126.191 136.942 126.385 136.981C126.579 137.019 126.78 137 126.963 136.924C127.145 136.848 127.302 136.72 127.412 136.556C127.521 136.391 127.58 136.198 127.58 136C127.58 135.735 127.475 135.48 127.287 135.293C127.1 135.105 126.845 135 126.58 135Z" fill="white"/>
<path d="M136.73 135C136.532 135 136.339 135.059 136.174 135.169C136.01 135.278 135.882 135.435 135.806 135.617C135.73 135.8 135.711 136.001 135.749 136.195C135.788 136.389 135.883 136.567 136.023 136.707C136.163 136.847 136.341 136.942 136.535 136.981C136.729 137.019 136.93 137 137.113 136.924C137.295 136.848 137.452 136.72 137.561 136.556C137.671 136.391 137.73 136.198 137.73 136C137.73 135.735 137.625 135.48 137.437 135.293C137.25 135.105 136.995 135 136.73 135Z" fill="white"/>
<path d="M146.22 134.2C146.022 134.2 145.829 134.259 145.664 134.369C145.5 134.478 145.372 134.635 145.296 134.817C145.22 135 145.2 135.201 145.239 135.395C145.278 135.589 145.373 135.767 145.513 135.907C145.652 136.047 145.831 136.142 146.025 136.181C146.219 136.219 146.42 136.2 146.602 136.124C146.785 136.048 146.941 135.92 147.051 135.756C147.161 135.591 147.22 135.398 147.22 135.2C147.22 134.935 147.114 134.68 146.927 134.493C146.739 134.305 146.485 134.2 146.22 134.2Z" fill="white"/>
<path d="M117.5 134.1C117.302 134.1 117.109 134.159 116.944 134.269C116.78 134.378 116.652 134.535 116.576 134.717C116.5 134.9 116.481 135.101 116.519 135.295C116.558 135.489 116.653 135.667 116.793 135.807C116.933 135.947 117.111 136.042 117.305 136.081C117.499 136.119 117.7 136.1 117.883 136.024C118.065 135.948 118.222 135.82 118.331 135.656C118.441 135.491 118.5 135.298 118.5 135.1C118.5 134.835 118.395 134.58 118.207 134.393C118.02 134.205 117.765 134.1 117.5 134.1Z" fill="white"/>
<path d="M144.78 83.06C144.978 83.06 145.171 83.0013 145.335 82.8915C145.5 82.7816 145.628 82.6254 145.704 82.4427C145.779 82.26 145.799 82.0589 145.761 81.8649C145.722 81.6709 145.627 81.4927 145.487 81.3529C145.347 81.213 145.169 81.1178 144.975 81.0792C144.781 81.0406 144.58 81.0604 144.397 81.1361C144.214 81.2118 144.058 81.34 143.948 81.5044C143.838 81.6689 143.78 81.8622 143.78 82.06C143.78 82.3252 143.885 82.5796 144.073 82.7671C144.26 82.9546 144.515 83.06 144.78 83.06Z" fill="white"/>
<path d="M144.78 101.13C144.978 101.13 145.171 101.071 145.335 100.961C145.5 100.852 145.628 100.695 145.704 100.513C145.779 100.33 145.799 100.129 145.761 99.9349C145.722 99.7409 145.627 99.5627 145.487 99.4229C145.347 99.283 145.169 99.1878 144.975 99.1492C144.781 99.1106 144.58 99.1304 144.397 99.2061C144.214 99.2818 144.058 99.41 143.948 99.5744C143.838 99.7389 143.78 99.9322 143.78 100.13C143.78 100.395 143.885 100.65 144.073 100.837C144.26 101.025 144.515 101.13 144.78 101.13Z" fill="white"/>
<path d="M140.26 90.13C140.062 90.13 139.869 90.1887 139.704 90.2985C139.54 90.4084 139.412 90.5646 139.336 90.7473C139.26 90.93 139.24 91.1311 139.279 91.3251C139.318 91.5191 139.413 91.6973 139.553 91.8371C139.693 91.977 139.871 92.0722 140.065 92.1108C140.259 92.1494 140.46 92.1296 140.642 92.0539C140.825 91.9782 140.981 91.85 141.091 91.6856C141.201 91.5211 141.26 91.3278 141.26 91.13C141.26 90.8648 141.154 90.6104 140.967 90.4229C140.779 90.2354 140.525 90.13 140.26 90.13Z" fill="white"/>
<path d="M145.76 118.22C145.76 118.022 145.701 117.829 145.591 117.664C145.481 117.5 145.325 117.372 145.142 117.296C144.96 117.22 144.759 117.201 144.565 117.239C144.371 117.278 144.193 117.373 144.053 117.513C143.913 117.653 143.818 117.831 143.779 118.025C143.74 118.219 143.76 118.42 143.836 118.603C143.912 118.785 144.04 118.942 144.204 119.052C144.369 119.161 144.562 119.22 144.76 119.22C145.025 119.22 145.279 119.115 145.467 118.927C145.654 118.74 145.76 118.485 145.76 118.22Z" fill="white"/>
<path d="M103.53 99.67C103.478 99.6713 103.426 99.6622 103.378 99.6432C103.329 99.6242 103.285 99.5957 103.248 99.5594C103.21 99.523 103.181 99.4796 103.16 99.4316C103.14 99.3836 103.13 99.3321 103.13 99.28C103.13 99.1739 103.172 99.0722 103.247 98.9972C103.322 98.9221 103.424 98.88 103.53 98.88C103.636 98.88 103.738 98.9221 103.813 98.9972C103.888 99.0722 103.93 99.1739 103.93 99.28C103.925 99.3835 103.881 99.4813 103.807 99.5537C103.732 99.626 103.634 99.6676 103.53 99.67Z" fill="#1F1A54"/>
<path d="M133.3 140.83C123.292 140.638 113.314 139.658 103.46 137.9C103.368 137.884 103.285 137.836 103.225 137.765C103.164 137.693 103.131 137.603 103.13 137.51V99.73L95.1799 100.79C95.1271 100.799 95.0731 100.796 95.0214 100.782C94.9697 100.768 94.9215 100.744 94.8799 100.71C94.796 100.639 94.7424 100.539 94.7299 100.43C94.6599 99.52 92.9399 78.1 97.0799 73.09C100.33 69.16 115.28 63.63 115.91 63.4C115.988 63.3705 116.073 63.3663 116.154 63.3878C116.235 63.4093 116.307 63.4555 116.36 63.52L118.92 66.62C119.9 67.8217 121.179 68.7436 122.629 69.2926C124.079 69.8415 125.648 69.9981 127.178 69.7465C128.708 69.4949 130.144 68.844 131.342 67.8596C132.54 66.8752 133.457 65.5922 134 64.14C134.032 64.0487 134.097 63.9726 134.182 63.9264C134.267 63.8802 134.366 63.8672 134.46 63.89C137.437 64.6074 140.348 65.5775 143.16 66.79C145.799 68.0124 148.34 69.4367 150.76 71.05C151.905 71.7974 152.767 72.9061 153.21 74.2L157 85.39C157.024 85.4434 157.037 85.5014 157.037 85.56C157.037 85.6187 157.024 85.6766 157 85.73C156.97 85.7793 156.929 85.8211 156.881 85.8523C156.832 85.8835 156.777 85.9032 156.72 85.91L149.29 87C149.13 88.18 148.51 92.77 148.09 98C147.92 100.14 147.84 101.78 147.84 103C147.84 108.46 148.54 138.41 148.54 138.71C148.543 138.797 148.518 138.883 148.467 138.953C148.416 139.024 148.343 139.076 148.26 139.1C144.25 140.37 138.9 140.83 133.3 140.83ZM103.93 137.17C107.23 137.76 134.52 142.44 147.74 138.41C147.66 135.24 147.04 108.15 147.04 102.98C147.04 101.72 147.12 100.05 147.29 97.9C147.79 91.84 148.53 86.62 148.54 86.57C148.55 86.4835 148.59 86.403 148.651 86.3414C148.713 86.2798 148.793 86.2406 148.88 86.23L156.06 85.23L152.43 74.5C152.047 73.3768 151.301 72.4129 150.31 71.76C147.927 70.1691 145.423 68.7681 142.82 67.57C140.161 66.4189 137.412 65.4891 134.6 64.79C133.96 66.3197 132.935 67.6577 131.625 68.6741C130.315 69.6904 128.764 70.3504 127.123 70.59C125.482 70.8296 123.807 70.6406 122.261 70.0413C120.715 69.442 119.351 68.4528 118.3 67.17L115.92 64.29C113.92 65.06 100.58 70.15 97.6999 73.63C94.0599 78 95.2699 96.88 95.4999 99.94L103.5 98.88C103.555 98.8713 103.611 98.8749 103.665 98.8905C103.719 98.906 103.768 98.9332 103.81 98.97C103.854 99.0087 103.889 99.0563 103.914 99.1098C103.938 99.1633 103.95 99.2213 103.95 99.28L103.93 137.17Z" fill="#1F1A54"/>
<path d="M103.53 99.68C103.433 99.6787 103.339 99.6428 103.266 99.5786C103.192 99.5145 103.144 99.4264 103.13 99.33C103.123 99.2774 103.127 99.224 103.14 99.1728C103.154 99.1216 103.178 99.0736 103.211 99.0317C103.243 98.9899 103.284 98.9549 103.33 98.9288C103.376 98.9028 103.427 98.8862 103.48 98.88L110.12 97.99L108.32 87.26C108.311 87.2082 108.313 87.1551 108.325 87.1039C108.337 87.0527 108.359 87.0043 108.39 86.9616C108.42 86.9189 108.459 86.8826 108.504 86.8549C108.548 86.8272 108.598 86.8085 108.65 86.8C108.702 86.7915 108.755 86.7932 108.806 86.8051C108.857 86.8171 108.906 86.839 108.948 86.8697C108.991 86.9003 109.027 86.9391 109.055 86.9838C109.083 87.0284 109.101 87.0781 109.11 87.13L111 98.27C111.017 98.3753 110.991 98.4829 110.93 98.57C110.864 98.6563 110.767 98.7136 110.66 98.73L103.6 99.67L103.53 99.68Z" fill="#1F1A54"/>
<path d="M132.58 258.55C151.104 258.55 166.12 257.211 166.12 255.56C166.12 253.909 151.104 252.57 132.58 252.57C114.056 252.57 99.04 253.909 99.04 255.56C99.04 257.211 114.056 258.55 132.58 258.55Z" fill="#9DAFED"/>
<path d="M160.89 249.62C160.89 249.62 161.24 250.05 160.89 251.53C160.43 253.53 158.6 255.16 152.61 255.09C148.61 255.04 129.77 254.31 127.9 254.09C126.03 253.87 127.59 251.03 128.28 248.74C128.28 248.74 153.08 252.93 157.75 251.87C159.82 251.41 161 250.61 160.89 249.62Z" fill="white"/>
<path d="M146.37 243.65C147.162 244.074 147.976 244.454 148.81 244.79C149.33 245 149.86 245.19 150.39 245.36L151.47 245.7C153.1 246.2 154.81 246.7 156.05 247C157.64 247.43 159.46 247.75 160.22 248.48C160.564 248.77 160.8 249.169 160.89 249.61C161.01 250.61 159.82 251.4 157.75 251.87C153.08 252.93 128.28 248.74 128.28 248.74C128.28 248.74 128.71 246.94 129.22 243.81C129.519 243.923 129.827 244.014 130.14 244.08C131.8 244.454 133.532 244.357 135.14 243.8C136.869 243.188 138.526 242.386 140.08 241.41C141.08 240.78 141.73 240.26 141.64 240.14C142.239 240.85 142.932 241.476 143.7 242C144.552 242.61 145.444 243.161 146.37 243.65Z" fill="white"/>
<path d="M140 236.1L139.88 241.21L140 241.42C138.446 242.396 136.79 243.198 135.06 243.81C133.452 244.367 131.72 244.464 130.06 244.09L130.11 243.8V236.1H140Z" fill="#FFD400"/>
<path d="M155.48 252.45C147.89 252.45 129.11 249.3 128.21 249.15C128.102 249.129 128.006 249.068 127.94 248.98C127.918 248.93 127.907 248.875 127.907 248.82C127.907 248.765 127.918 248.71 127.94 248.66C127.94 248.66 128.37 246.83 128.88 243.76C128.88 243.709 128.89 243.659 128.91 243.612C128.93 243.565 128.959 243.523 128.995 243.488C129.031 243.452 129.074 243.425 129.122 243.406C129.169 243.388 129.219 243.379 129.27 243.38C129.38 243.385 129.483 243.433 129.558 243.513C129.633 243.594 129.673 243.7 129.67 243.81C129.3 246.12 128.97 247.72 128.81 248.43C132.08 248.97 153.5 252.43 157.71 251.49C159.57 251.07 160.63 250.38 160.55 249.67C160.55 249.572 160.586 249.476 160.651 249.403C160.717 249.329 160.807 249.283 160.905 249.271C161.003 249.26 161.101 249.286 161.181 249.343C161.262 249.399 161.318 249.484 161.34 249.58C161.42 250.27 161.07 251.58 157.88 252.27C157.089 252.418 156.284 252.478 155.48 252.45Z" fill="#1F1A54"/>
<path d="M160.89 250C160.795 250.001 160.702 249.967 160.631 249.904C160.559 249.841 160.512 249.755 160.5 249.66C160.413 249.308 160.217 248.993 159.94 248.76C159.027 248.181 158.007 247.793 156.94 247.62L155.94 247.37C154.22 246.92 152.67 246.48 151.34 246.07L150.34 245.75C149.75 245.56 149.21 245.36 148.69 245.15C147.842 244.815 147.014 244.431 146.21 244C145.266 243.507 144.357 242.949 143.49 242.33C142.822 241.873 142.2 241.354 141.63 240.78C141.204 241.153 140.745 241.487 140.26 241.78C138.69 242.775 137.013 243.59 135.26 244.21C133.6 244.781 131.814 244.882 130.1 244.5C129.758 244.438 129.423 244.341 129.1 244.21C129.002 244.17 128.924 244.093 128.883 243.995C128.841 243.898 128.841 243.788 128.88 243.69C128.922 243.591 129.001 243.513 129.1 243.472C129.199 243.431 129.311 243.43 129.41 243.47C129.686 243.576 129.97 243.66 130.26 243.72C131.831 244.069 133.469 243.976 134.99 243.45C136.692 242.848 138.322 242.06 139.85 241.1C140.345 240.818 140.808 240.482 141.23 240.1C141.237 240.05 141.254 240.003 141.279 239.96C141.305 239.917 141.339 239.879 141.38 239.85C141.465 239.788 141.57 239.76 141.674 239.773C141.778 239.786 141.873 239.839 141.94 239.92C142.52 240.607 143.194 241.209 143.94 241.71C144.778 242.307 145.657 242.845 146.57 243.32C147.349 243.737 148.15 244.111 148.97 244.44C149.48 244.64 149.97 244.84 150.52 245L151.59 245.34C152.92 245.75 154.45 246.18 156.17 246.63L157.1 246.87C158.326 247.05 159.493 247.512 160.51 248.22C160.917 248.573 161.195 249.052 161.3 249.58C161.314 249.685 161.287 249.791 161.223 249.875C161.159 249.959 161.065 250.015 160.96 250.03L160.89 250Z" fill="#1F1A54"/>
<path d="M153 255.49H152.6C148.6 255.44 129.75 254.71 127.85 254.49C127.649 254.472 127.454 254.408 127.281 254.304C127.108 254.201 126.961 254.059 126.85 253.89C126.34 253.07 126.85 251.7 127.42 250.13C127.6 249.62 127.79 249.13 127.94 248.63C127.97 248.53 128.038 248.446 128.13 248.395C128.221 248.345 128.329 248.332 128.43 248.36C128.531 248.392 128.615 248.462 128.666 248.556C128.716 248.649 128.728 248.758 128.7 248.86C128.55 249.36 128.36 249.86 128.17 250.4C127.73 251.61 127.23 252.98 127.53 253.47C127.58 253.55 127.68 253.66 127.98 253.69C129.87 253.91 148.63 254.63 152.65 254.69C159.02 254.77 160.21 252.87 160.54 251.44C160.82 250.24 160.61 249.85 160.6 249.85C160.552 249.783 160.527 249.702 160.53 249.62C160.53 249.514 160.572 249.412 160.647 249.337C160.722 249.262 160.824 249.22 160.93 249.22C161.007 249.217 161.084 249.238 161.15 249.278C161.216 249.319 161.268 249.379 161.3 249.45C161.571 250.148 161.571 250.922 161.3 251.62C160.68 254.26 158 255.49 153 255.49Z" fill="#1F1A54"/>
<path d="M142.63 243.62C142.552 243.624 142.475 243.604 142.408 243.563C142.341 243.523 142.288 243.463 142.256 243.392C142.224 243.321 142.214 243.242 142.227 243.165C142.24 243.088 142.276 243.016 142.33 242.96L144.5 240.53C144.574 240.467 144.668 240.433 144.765 240.434C144.862 240.435 144.955 240.472 145.027 240.536C145.1 240.601 145.146 240.69 145.157 240.786C145.169 240.883 145.145 240.98 145.09 241.06L142.93 243.49C142.893 243.532 142.846 243.566 142.794 243.588C142.743 243.61 142.687 243.621 142.63 243.62Z" fill="#1F1A54"/>
<path d="M145.27 245.55C145.197 245.547 145.126 245.524 145.065 245.484C145.004 245.444 144.955 245.389 144.922 245.324C144.89 245.259 144.875 245.186 144.88 245.113C144.885 245.04 144.909 244.97 144.95 244.91L146.95 242.25C147.012 242.164 147.106 242.106 147.211 242.089C147.316 242.072 147.424 242.098 147.51 242.16C147.596 242.222 147.654 242.316 147.671 242.421C147.688 242.526 147.662 242.634 147.6 242.72L145.6 245.39C145.562 245.442 145.512 245.483 145.455 245.511C145.397 245.539 145.334 245.552 145.27 245.55Z" fill="#1F1A54"/>
<path d="M147.87 246.71C147.799 246.71 147.729 246.691 147.667 246.655C147.606 246.619 147.555 246.567 147.521 246.505C147.486 246.443 147.469 246.372 147.47 246.301C147.472 246.23 147.492 246.161 147.53 246.1L149.31 243.25C149.336 243.204 149.372 243.165 149.415 243.133C149.457 243.102 149.505 243.079 149.557 243.067C149.608 243.055 149.662 243.053 149.714 243.062C149.766 243.072 149.816 243.091 149.86 243.12C149.948 243.177 150.01 243.267 150.033 243.37C150.055 243.473 150.036 243.581 149.98 243.67L148.21 246.52C148.173 246.577 148.122 246.624 148.063 246.657C148.004 246.69 147.938 246.708 147.87 246.71Z" fill="#1F1A54"/>
<path d="M150.48 247.68C150.403 247.68 150.327 247.659 150.26 247.62C150.172 247.563 150.109 247.473 150.087 247.37C150.064 247.267 150.083 247.159 150.14 247.07L151.92 244.23C151.946 244.183 151.982 244.142 152.025 244.109C152.067 244.076 152.116 244.052 152.169 244.038C152.221 244.025 152.275 244.022 152.329 244.03C152.382 244.038 152.433 244.057 152.479 244.085C152.525 244.113 152.565 244.151 152.596 244.195C152.627 244.239 152.649 244.289 152.66 244.342C152.672 244.395 152.672 244.449 152.662 244.502C152.651 244.555 152.63 244.605 152.6 244.65L150.82 247.49C150.783 247.547 150.733 247.594 150.673 247.627C150.614 247.66 150.548 247.678 150.48 247.68Z" fill="#1F1A54"/>
<path d="M130.19 244.2C130.084 244.2 129.982 244.158 129.907 244.083C129.832 244.008 129.79 243.906 129.79 243.8V236.1C129.79 235.994 129.832 235.892 129.907 235.817C129.982 235.742 130.084 235.7 130.19 235.7H140C140.107 235.703 140.209 235.747 140.284 235.824C140.358 235.9 140.4 236.003 140.4 236.11L140.28 241.22C140.275 241.325 140.229 241.424 140.153 241.497C140.077 241.57 139.975 241.61 139.87 241.61C139.818 241.61 139.766 241.6 139.718 241.579C139.67 241.559 139.627 241.53 139.591 241.492C139.554 241.455 139.526 241.411 139.507 241.362C139.488 241.314 139.479 241.262 139.48 241.21L139.59 236.5H130.59V243.8C130.59 243.906 130.548 244.008 130.473 244.083C130.398 244.158 130.296 244.2 130.19 244.2Z" fill="#1F1A54"/>
<path d="M137.6 251.49C137.6 251.49 137.95 251.92 137.6 253.4C137.13 255.4 135.3 257.03 129.31 256.96C125.31 256.96 106.48 256.18 104.6 255.96C102.72 255.74 104.3 252.9 104.99 250.61C104.99 250.61 129.79 254.8 134.45 253.74C136.53 253.28 137.71 252.48 137.6 251.49Z" fill="white"/>
<path d="M123.08 245.52C123.872 245.944 124.687 246.324 125.52 246.66C126.04 246.87 126.52 247.06 127.1 247.23L128.18 247.57C129.81 248.07 131.52 248.57 132.76 248.87C134.35 249.3 136.17 249.62 136.93 250.35C137.274 250.641 137.511 251.039 137.6 251.48C137.71 252.48 136.53 253.27 134.45 253.74C129.79 254.8 104.99 250.61 104.99 250.61C104.99 250.61 105.42 248.81 105.93 245.68C106.23 245.793 106.537 245.884 106.85 245.95C108.511 246.319 110.241 246.222 111.85 245.67C113.58 245.058 115.237 244.256 116.79 243.28C117.79 242.64 118.44 242.13 118.35 242.01C118.967 242.725 119.677 243.353 120.46 243.88C121.295 244.486 122.17 245.034 123.08 245.52Z" fill="white"/>
<path d="M116.74 238L116.62 243.11L116.74 243.32C115.186 244.296 113.529 245.098 111.8 245.71C110.191 246.262 108.46 246.359 106.8 245.99L106.85 245.7V238H116.74Z" fill="#FFD400"/>
<path d="M132.19 254.32C124.6 254.32 105.82 251.17 104.92 251.02C104.865 251.011 104.812 250.99 104.766 250.959C104.719 250.928 104.68 250.888 104.65 250.84C104.62 250.795 104.599 250.744 104.591 250.691C104.582 250.637 104.585 250.582 104.6 250.53C104.6 250.53 105.03 248.7 105.54 245.63C105.539 245.579 105.548 245.528 105.567 245.481C105.586 245.433 105.615 245.39 105.652 245.354C105.688 245.319 105.732 245.291 105.78 245.273C105.828 245.255 105.879 245.247 105.93 245.25C106.039 245.258 106.141 245.306 106.215 245.386C106.289 245.466 106.33 245.571 106.33 245.68C105.96 247.99 105.62 249.59 105.47 250.3C108.74 250.84 130.16 254.3 134.37 253.36C136.22 252.94 137.29 252.25 137.2 251.54C137.191 251.433 137.224 251.327 137.291 251.244C137.358 251.16 137.454 251.105 137.56 251.09C137.613 251.084 137.666 251.089 137.717 251.105C137.767 251.12 137.814 251.145 137.855 251.178C137.896 251.212 137.93 251.253 137.955 251.3C137.98 251.346 137.995 251.397 138 251.45C138.08 252.14 137.73 253.45 134.54 254.14C133.766 254.284 132.978 254.344 132.19 254.32Z" fill="#1F1A54"/>
<path d="M137.6 251.88C137.503 251.883 137.408 251.848 137.335 251.783C137.262 251.718 137.218 251.627 137.21 251.53C137.12 251.182 136.925 250.871 136.65 250.64C135.737 250.061 134.717 249.673 133.65 249.5L132.65 249.25C131.47 248.94 129.72 248.46 128.05 247.95L126.97 247.61C126.43 247.44 125.89 247.24 125.36 247.03C124.512 246.692 123.684 246.304 122.88 245.87C121.937 245.384 121.031 244.83 120.17 244.21C119.502 243.753 118.879 243.234 118.31 242.66C117.879 243.027 117.421 243.361 116.94 243.66C115.37 244.655 113.692 245.47 111.94 246.09C110.28 246.661 108.494 246.762 106.78 246.38C106.439 246.312 106.105 246.215 105.78 246.09C105.688 246.046 105.617 245.969 105.58 245.874C105.543 245.779 105.544 245.673 105.582 245.579C105.62 245.485 105.693 245.408 105.786 245.366C105.878 245.323 105.983 245.318 106.08 245.35C106.357 245.452 106.641 245.536 106.93 245.6C108.505 245.944 110.144 245.851 111.67 245.33C113.371 244.726 115.001 243.938 116.53 242.98C117.022 242.694 117.485 242.359 117.91 241.98C117.917 241.93 117.934 241.883 117.959 241.84C117.985 241.797 118.019 241.759 118.06 241.73C118.145 241.668 118.25 241.64 118.354 241.653C118.458 241.666 118.553 241.719 118.62 241.8C119.2 242.487 119.873 243.089 120.62 243.59C121.461 244.184 122.339 244.721 123.25 245.2C124.029 245.617 124.83 245.991 125.65 246.32C126.16 246.52 126.65 246.72 127.2 246.88L128.27 247.22C129.93 247.73 131.67 248.22 132.84 248.51L133.78 248.75C135.003 248.933 136.169 249.391 137.19 250.09C137.596 250.448 137.873 250.929 137.98 251.46C137.987 251.513 137.983 251.566 137.97 251.617C137.956 251.668 137.932 251.716 137.899 251.758C137.867 251.8 137.826 251.835 137.78 251.861C137.734 251.887 137.683 251.904 137.63 251.91L137.6 251.88Z" fill="#1F1A54"/>
<path d="M129.71 257.36H129.31C125.31 257.31 106.45 256.58 104.56 256.36C104.359 256.346 104.164 256.285 103.99 256.183C103.817 256.08 103.669 255.939 103.56 255.77C103.05 254.94 103.56 253.58 104.13 252.01C104.31 251.5 104.5 251.01 104.64 250.51C104.672 250.409 104.742 250.325 104.836 250.274C104.929 250.224 105.038 250.212 105.14 250.24C105.241 250.272 105.325 250.342 105.376 250.436C105.426 250.529 105.438 250.638 105.41 250.74C105.26 251.24 105.07 251.74 104.88 252.28C104.43 253.49 103.88 254.85 104.24 255.35C104.24 255.43 104.39 255.54 104.69 255.57C106.57 255.79 125.33 256.51 129.36 256.57C135.73 256.65 136.92 254.75 137.25 253.32C137.53 252.12 137.32 251.73 137.31 251.73C137.262 251.663 137.237 251.582 137.24 251.5C137.24 251.394 137.282 251.292 137.357 251.217C137.432 251.142 137.534 251.1 137.64 251.1C137.717 251.1 137.793 251.121 137.858 251.162C137.923 251.202 137.976 251.261 138.01 251.33C138.281 252.028 138.281 252.802 138.01 253.5C137.38 256.13 134.75 257.36 129.71 257.36Z" fill="#1F1A54"/>
<path d="M119.34 245.49C119.262 245.494 119.185 245.474 119.118 245.433C119.051 245.393 118.998 245.333 118.966 245.262C118.934 245.191 118.924 245.112 118.937 245.035C118.95 244.958 118.986 244.886 119.04 244.83L121.21 242.4C121.242 242.353 121.284 242.313 121.333 242.284C121.382 242.254 121.436 242.236 121.493 242.229C121.549 242.222 121.607 242.227 121.661 242.245C121.715 242.262 121.765 242.29 121.808 242.328C121.85 242.366 121.884 242.413 121.907 242.465C121.929 242.517 121.941 242.574 121.94 242.631C121.939 242.688 121.927 242.744 121.902 242.796C121.878 242.847 121.843 242.893 121.8 242.93L119.64 245.36C119.603 245.402 119.556 245.436 119.504 245.458C119.453 245.48 119.397 245.491 119.34 245.49Z" fill="#1F1A54"/>
<path d="M122 247.42C121.914 247.418 121.83 247.39 121.76 247.34C121.677 247.275 121.623 247.18 121.608 247.076C121.593 246.972 121.619 246.866 121.68 246.78L123.68 244.12C123.711 244.077 123.75 244.041 123.795 244.014C123.84 243.986 123.89 243.967 123.942 243.959C123.994 243.951 124.047 243.953 124.098 243.965C124.149 243.977 124.197 243.999 124.24 244.03C124.283 244.061 124.319 244.1 124.347 244.145C124.374 244.189 124.393 244.239 124.401 244.291C124.41 244.343 124.408 244.396 124.395 244.448C124.383 244.499 124.361 244.547 124.33 244.59L122.33 247.25C122.293 247.303 122.244 247.346 122.186 247.376C122.129 247.405 122.065 247.42 122 247.42Z" fill="#1F1A54"/>
<path d="M124.58 248.58C124.504 248.582 124.43 248.557 124.37 248.51C124.325 248.483 124.285 248.448 124.253 248.405C124.222 248.363 124.199 248.314 124.187 248.263C124.175 248.211 124.173 248.158 124.183 248.106C124.192 248.054 124.211 248.004 124.24 247.96L126.01 245.11C126.068 245.022 126.157 244.959 126.26 244.937C126.363 244.914 126.471 244.933 126.56 244.99C126.606 245.017 126.646 245.052 126.677 245.095C126.708 245.137 126.731 245.186 126.743 245.237C126.755 245.289 126.757 245.342 126.748 245.394C126.739 245.446 126.719 245.496 126.69 245.54L124.92 248.39C124.883 248.447 124.833 248.494 124.774 248.527C124.714 248.56 124.648 248.578 124.58 248.58Z" fill="#1F1A54"/>
<path d="M127.18 249.55C127.106 249.549 127.034 249.528 126.97 249.49C126.925 249.462 126.886 249.424 126.855 249.381C126.825 249.337 126.803 249.287 126.792 249.235C126.781 249.183 126.78 249.129 126.79 249.077C126.8 249.024 126.821 248.974 126.85 248.93L128.63 246.09C128.687 246.002 128.777 245.939 128.88 245.917C128.983 245.894 129.091 245.913 129.18 245.97C129.226 245.997 129.266 246.032 129.297 246.075C129.328 246.117 129.351 246.166 129.363 246.217C129.375 246.269 129.377 246.322 129.368 246.374C129.359 246.426 129.339 246.476 129.31 246.52L127.52 249.36C127.485 249.419 127.435 249.467 127.376 249.5C127.316 249.534 127.248 249.551 127.18 249.55Z" fill="#1F1A54"/>
<path d="M106.9 246.07C106.794 246.07 106.692 246.028 106.617 245.953C106.542 245.878 106.5 245.776 106.5 245.67V238C106.5 237.894 106.542 237.792 106.617 237.717C106.692 237.642 106.794 237.6 106.9 237.6H116.74C116.848 237.604 116.951 237.646 117.03 237.72C117.099 237.801 117.138 237.903 117.14 238.01L117.02 243.12C117.015 243.225 116.969 243.324 116.893 243.397C116.817 243.47 116.715 243.51 116.61 243.51C116.557 243.509 116.506 243.497 116.458 243.476C116.41 243.454 116.366 243.424 116.33 243.386C116.294 243.348 116.265 243.303 116.247 243.254C116.228 243.205 116.219 243.153 116.22 243.1L116.33 238.4H107.33V245.7C107.326 245.753 107.312 245.804 107.288 245.851C107.265 245.898 107.232 245.94 107.192 245.974C107.152 246.009 107.106 246.035 107.056 246.051C107.005 246.068 106.953 246.074 106.9 246.07Z" fill="#1F1A54"/>
<path d="M125.35 164L122.44 197.29L119.34 238H105L105.59 197.91L103.59 137.53C103.59 137.53 134.06 143.25 148.2 138.73L141.88 236.13H127.43L128.27 197.19L125.35 164Z" fill="#1F1A54"/>
<path d="M141.82 236.5H127.43C127.376 236.501 127.323 236.49 127.273 236.47C127.223 236.449 127.178 236.419 127.14 236.38C127.069 236.304 127.03 236.204 127.03 236.1L127.87 197.16L125 164.05C125.004 163.953 125.043 163.861 125.11 163.791C125.177 163.721 125.268 163.677 125.364 163.669C125.461 163.66 125.557 163.687 125.636 163.744C125.714 163.802 125.769 163.885 125.79 163.98L128.71 197.13L127.88 235.7H141.48L147.78 138.7C147.787 138.598 147.833 138.503 147.907 138.433C147.98 138.362 148.078 138.322 148.18 138.32C148.232 138.319 148.283 138.328 148.331 138.347C148.379 138.366 148.422 138.395 148.459 138.431C148.495 138.468 148.524 138.511 148.543 138.559C148.562 138.607 148.571 138.658 148.57 138.71L142.24 236.16C142.227 236.26 142.177 236.351 142.098 236.415C142.02 236.478 141.92 236.509 141.82 236.5Z" fill="#1F1A54"/>
<path d="M119.34 238.37H105C104.946 238.371 104.893 238.36 104.843 238.34C104.793 238.319 104.748 238.288 104.71 238.25C104.639 238.174 104.6 238.074 104.6 237.97L105.19 197.88L103.14 137.52C103.137 137.467 103.145 137.413 103.164 137.363C103.182 137.313 103.21 137.267 103.247 137.228C103.283 137.189 103.327 137.157 103.375 137.135C103.424 137.113 103.477 137.101 103.53 137.1C103.636 137.1 103.737 137.14 103.813 137.213C103.89 137.286 103.935 137.385 103.94 137.49L105.94 197.87L105.35 237.57H119L122 197.28L125 164C125.006 163.916 125.037 163.836 125.09 163.77L132.83 154.97C132.865 154.931 132.907 154.898 132.954 154.875C133.002 154.852 133.053 154.839 133.105 154.835C133.158 154.832 133.21 154.839 133.26 154.856C133.31 154.873 133.356 154.9 133.395 154.935C133.435 154.97 133.467 155.012 133.49 155.059C133.513 155.106 133.526 155.158 133.53 155.21C133.533 155.263 133.526 155.315 133.509 155.365C133.492 155.415 133.465 155.461 133.43 155.5L125.78 164.2L122.88 197.37L119.74 238C119.733 238.101 119.687 238.195 119.613 238.264C119.539 238.332 119.441 238.37 119.34 238.37Z" fill="#1F1A54"/>
<path d="M125.23 173.6C125.197 173.597 125.165 173.588 125.136 173.574C125.106 173.559 125.08 173.538 125.059 173.513C125.037 173.488 125.021 173.459 125.011 173.427C125.001 173.396 124.997 173.363 125 173.33L125.74 163.5C125.75 163.44 125.778 163.384 125.82 163.34L131 158.5C131.049 158.465 131.109 158.449 131.169 158.455C131.229 158.461 131.285 158.488 131.326 158.532C131.368 158.576 131.392 158.633 131.394 158.694C131.397 158.754 131.378 158.813 131.34 158.86L126.2 163.63L125.47 173.37C125.465 173.431 125.438 173.488 125.394 173.531C125.349 173.573 125.291 173.598 125.23 173.6Z" fill="#F2F4F6"/>
<path d="M135.69 42.19C135.908 42.1378 136.137 42.1553 136.344 42.2401C136.552 42.3249 136.727 42.4727 136.846 42.6626C136.965 42.8525 137.021 43.0749 137.007 43.2986C136.993 43.5222 136.909 43.7357 136.767 43.909C136.625 44.0823 136.432 44.2066 136.215 44.2643C135.999 44.3221 135.769 44.3105 135.56 44.231C135.35 44.1516 135.171 44.0084 135.047 43.8216C134.924 43.6348 134.861 43.4139 134.87 43.19C134.855 42.9505 134.931 42.7144 135.084 42.5289C135.236 42.3434 135.452 42.2223 135.69 42.19Z" fill="#1F1A54"/>
<path d="M128.25 42.0599C128.467 42.0078 128.696 42.0253 128.904 42.1101C129.111 42.1949 129.287 42.3427 129.406 42.5326C129.525 42.7225 129.581 42.9449 129.567 43.1686C129.552 43.3922 129.468 43.6057 129.326 43.779C129.184 43.9523 128.991 44.0766 128.775 44.1343C128.558 44.1921 128.329 44.1805 128.119 44.101C127.91 44.0216 127.731 43.8784 127.607 43.6916C127.483 43.5048 127.421 43.2839 127.43 43.0599C127.415 42.8205 127.491 42.5844 127.643 42.3989C127.795 42.2134 128.012 42.0923 128.25 42.0599Z" fill="#1F1A54"/>
<path d="M131.07 59.76C129.07 59.76 125.67 59.09 123.61 57.09C123.54 57.0145 123.502 56.9151 123.503 56.8124C123.505 56.7097 123.546 56.6115 123.618 56.5382C123.69 56.4649 123.788 56.4222 123.89 56.4188C123.993 56.4154 124.093 56.4516 124.17 56.52C126.39 58.67 130.32 59.15 131.85 58.91C132.112 58.8764 132.373 58.8263 132.63 58.76C135.4 58.11 137.17 56.31 138.19 53.1C139.21 49.89 139.19 41.94 138.8 36.1C138.796 36.0474 138.802 35.9946 138.818 35.9445C138.835 35.8944 138.861 35.848 138.895 35.808C138.93 35.7681 138.972 35.7353 139.019 35.7116C139.066 35.6879 139.117 35.6738 139.17 35.67C139.277 35.6645 139.382 35.7012 139.462 35.7722C139.543 35.8433 139.592 35.943 139.6 36.05C140 42 140 50 139 53.34C138 56.68 135.89 58.82 132.86 59.54C132.29 59.682 131.706 59.7559 131.12 59.76H131.07Z" fill="#1F1A54"/>
<path d="M129.19 53.12H129.11C128.161 52.9314 127.283 52.4813 126.576 51.8204C125.87 51.1596 125.362 50.3143 125.11 49.38C125.098 49.3287 125.096 49.2757 125.105 49.2239C125.114 49.172 125.133 49.1224 125.16 49.0778C125.188 49.0333 125.225 48.9946 125.267 48.9641C125.31 48.9336 125.359 48.9118 125.41 48.9C125.461 48.8881 125.514 48.8865 125.566 48.8952C125.618 48.9039 125.667 48.9227 125.712 48.9505C125.757 48.9784 125.795 49.0148 125.826 49.0576C125.856 49.1004 125.878 49.1487 125.89 49.2C126.106 49.9873 126.538 50.6985 127.137 51.2534C127.736 51.8082 128.478 52.1846 129.28 52.34C129.332 52.3494 129.381 52.3693 129.425 52.3983C129.469 52.4273 129.506 52.4649 129.535 52.5088C129.564 52.5527 129.584 52.6021 129.593 52.6538C129.603 52.7056 129.602 52.7587 129.59 52.81C129.569 52.8998 129.518 52.9798 129.445 53.0363C129.372 53.0927 129.282 53.1223 129.19 53.12Z" fill="#1F1A54"/>
<path d="M132 48.56C131.525 48.5519 131.057 48.4392 130.63 48.23C130.583 48.2057 130.542 48.1725 130.508 48.1322C130.474 48.0919 130.449 48.0454 130.433 47.9952C130.417 47.9451 130.411 47.8923 130.416 47.8399C130.421 47.7876 130.436 47.7366 130.46 47.69C130.484 47.6434 130.517 47.602 130.558 47.5682C130.598 47.5345 130.645 47.509 130.695 47.4932C130.745 47.4774 130.798 47.4716 130.85 47.4762C130.902 47.4808 130.953 47.4957 131 47.52C131.274 47.6542 131.575 47.724 131.88 47.724C132.185 47.724 132.486 47.6542 132.76 47.52C132.847 47.4671 132.952 47.4497 133.052 47.4714C133.152 47.4932 133.24 47.5524 133.297 47.6369C133.355 47.7215 133.378 47.8249 133.362 47.9259C133.345 48.0269 133.291 48.1178 133.21 48.18C132.855 48.4283 132.433 48.5611 132 48.56Z" fill="#1F1A54"/>
<path d="M118.44 52.13C114.14 51.5 111.44 49.27 110.79 45.84C110.428 44.2135 110.692 42.5105 111.53 41.0699C111.951 40.227 112.669 39.5692 113.546 39.2223C114.422 38.8755 115.395 38.8639 116.28 39.1899C117.841 39.8869 119.095 41.1271 119.81 42.68C119.919 42.9147 120.016 43.1551 120.1 43.4C120.129 43.5007 120.118 43.6087 120.069 43.7017C120.021 43.7947 119.939 43.8656 119.84 43.9C119.79 43.9169 119.737 43.9236 119.685 43.9196C119.632 43.9156 119.581 43.901 119.534 43.8767C119.488 43.8525 119.446 43.8189 119.413 43.7782C119.379 43.7376 119.354 43.6905 119.34 43.6399C119.34 43.6399 119.25 43.39 119.08 43.02C118.453 41.65 117.352 40.5526 115.98 39.93C115.271 39.6801 114.494 39.7 113.799 39.9858C113.104 40.2717 112.538 40.8036 112.21 41.4799C111.482 42.7519 111.254 44.2491 111.57 45.68C112.33 49.62 115.75 50.93 118.49 51.34C118.54 51.3399 118.59 51.3501 118.636 51.3699C118.682 51.3897 118.724 51.4188 118.759 51.4553C118.793 51.4918 118.82 51.535 118.838 51.5822C118.855 51.6294 118.862 51.6797 118.86 51.7299C118.855 51.8378 118.808 51.9396 118.73 52.0141C118.652 52.0886 118.548 52.1301 118.44 52.13Z" fill="#1F1A54"/>
<path d="M117.34 47.48C117.242 47.478 117.148 47.4403 117.077 47.374C117.005 47.3077 116.96 47.2173 116.95 47.12C116.65 43.99 114.79 43.64 114.71 43.62C114.607 43.6028 114.515 43.5461 114.453 43.462C114.392 43.378 114.365 43.2732 114.38 43.17C114.397 43.0665 114.453 42.9736 114.537 42.9103C114.621 42.8471 114.726 42.8183 114.83 42.83C114.94 42.83 117.38 43.26 117.74 47.04C117.745 47.0926 117.74 47.1457 117.725 47.1964C117.71 47.247 117.685 47.2942 117.652 47.3351C117.618 47.376 117.577 47.4099 117.53 47.4347C117.484 47.4596 117.432 47.475 117.38 47.48H117.34Z" fill="#1F1A54"/>
<path d="M130.12 40.48C130.038 40.4814 129.957 40.4569 129.89 40.41C129.463 40.1366 128.97 39.9864 128.463 39.9758C127.957 39.9652 127.457 40.0947 127.02 40.35C126.931 40.4083 126.822 40.429 126.718 40.4074C126.614 40.3858 126.523 40.3238 126.465 40.235C126.406 40.1461 126.386 40.0377 126.407 39.9336C126.429 39.8296 126.491 39.7383 126.58 39.68C127.154 39.3377 127.812 39.1629 128.48 39.1753C129.148 39.1877 129.799 39.3867 130.36 39.75C130.431 39.7989 130.485 39.8697 130.513 39.9518C130.541 40.0339 130.541 40.1228 130.514 40.2051C130.487 40.2875 130.434 40.3588 130.363 40.4084C130.292 40.4579 130.206 40.4831 130.12 40.48Z" fill="#1F1A54"/>
<path d="M137.21 40.48C137.124 40.4829 137.04 40.4583 136.97 40.41C136.544 40.1386 136.052 39.9894 135.548 39.9788C135.044 39.9682 134.546 40.0966 134.11 40.35C134.021 40.4083 133.912 40.429 133.808 40.4074C133.704 40.3858 133.613 40.3238 133.555 40.235C133.496 40.1461 133.476 40.0377 133.497 39.9336C133.519 39.8296 133.581 39.7383 133.67 39.68C134.242 39.339 134.9 39.1657 135.566 39.1798C136.233 39.194 136.882 39.395 137.44 39.76C137.482 39.7907 137.519 39.8297 137.546 39.8745C137.574 39.9193 137.593 39.9692 137.601 40.0213C137.609 40.0733 137.607 40.1265 137.595 40.1777C137.583 40.229 137.561 40.2773 137.53 40.32C137.491 40.3686 137.443 40.4081 137.387 40.4357C137.332 40.4634 137.271 40.4785 137.21 40.48Z" fill="#1F1A54"/>
<path d="M125.69 70.64C124.273 70.6441 122.873 70.3299 121.594 69.7206C120.315 69.1114 119.189 68.2226 118.3 67.12L115.74 64C115.7 63.95 115.672 63.8916 115.658 63.8292C115.644 63.7668 115.645 63.7021 115.66 63.64C115.676 63.5793 115.706 63.5232 115.747 63.4763C115.789 63.4294 115.841 63.393 115.9 63.37L118.03 62.54V51.73C118.03 51.6239 118.072 51.5221 118.147 51.4471C118.222 51.3721 118.323 51.33 118.43 51.33C118.482 51.3286 118.533 51.3377 118.582 51.3567C118.63 51.3757 118.675 51.4042 118.712 51.4406C118.749 51.4769 118.779 51.5204 118.799 51.5684C118.819 51.6163 118.83 51.6679 118.83 51.72V62.83C118.829 62.9107 118.803 62.9892 118.757 63.0552C118.71 63.1213 118.645 63.1717 118.57 63.2L116.71 63.94L118.91 66.61C119.873 67.7832 121.123 68.6881 122.538 69.2369C123.953 69.7857 125.486 69.9599 126.989 69.7427C128.491 69.5255 129.912 68.9242 131.114 67.997C132.316 67.0698 133.258 65.848 133.85 64.45L132.53 63.71C132.466 63.6767 132.412 63.6264 132.375 63.5646C132.338 63.5028 132.319 63.432 132.32 63.36V59.15C132.32 59.0439 132.362 58.9421 132.437 58.8671C132.512 58.7921 132.613 58.75 132.72 58.75C132.826 58.75 132.927 58.7921 133.002 58.8671C133.077 58.9421 133.12 59.0439 133.12 59.15V63.15L134.54 63.94C134.625 63.9849 134.69 64.0599 134.724 64.1504C134.757 64.2409 134.755 64.3405 134.72 64.43C134.134 66.0145 133.137 67.4147 131.831 68.4867C130.525 69.5587 128.958 70.2639 127.29 70.53C126.76 70.6108 126.225 70.6476 125.69 70.64Z" fill="#1F1A54"/>
<path d="M152.92 78.34C138 88.91 136.13 64.81 136.13 64.81L138.55 65.57C138.55 65.57 139.32 89.32 154.24 78.74L152.92 78.34Z" fill="white"/>
<path d="M147.41 81.86C146.517 81.8622 145.635 81.6747 144.82 81.31C144.253 81.2067 143.702 81.032 143.18 80.79C136.81 77.79 135.77 65.37 135.73 64.79C135.726 64.7254 135.737 64.6607 135.763 64.6015C135.789 64.5423 135.829 64.4903 135.88 64.45C135.93 64.4072 135.991 64.3782 136.056 64.3659C136.121 64.3537 136.187 64.3585 136.25 64.38L138.67 65.14C138.749 65.1662 138.817 65.2155 138.867 65.2816C138.917 65.3476 138.946 65.4273 138.95 65.51C138.95 65.63 139.41 77.68 144.95 80.45C144.976 80.4446 145.004 80.4446 145.03 80.45C147.23 80.81 149.79 79.96 152.67 77.92C152.727 77.9102 152.786 77.9123 152.843 77.926C152.9 77.9398 152.953 77.965 153 78L154.32 78.41C154.392 78.4316 154.456 78.4731 154.506 78.5297C154.555 78.5863 154.588 78.6557 154.6 78.73C154.61 78.8033 154.6 78.878 154.572 78.9465C154.544 79.015 154.499 79.0749 154.44 79.12C151.86 80.92 149.49 81.86 147.41 81.86ZM153 78.78C151.827 79.6049 150.553 80.2769 149.21 80.78C150.684 80.3649 152.079 79.7094 153.34 78.84L153 78.78ZM136.6 65.37C136.86 67.66 138.08 75.9 142.2 79.22C138.82 75.1 138.25 67.47 138.2 65.87L136.6 65.37Z" fill="#1F1A54"/>
<path d="M113.69 64.68C113.69 64.68 136.12 92.81 152.92 78.34V80.34C135.72 94.53 111.66 65.48 111.66 65.48L113.69 64.68Z" fill="white"/>
<path d="M142.32 84.63C127.2 84.63 111.55 65.99 111.32 65.75C111.28 65.7019 111.252 65.6453 111.239 65.5845C111.225 65.5237 111.225 65.4605 111.24 65.4C111.256 65.3393 111.286 65.2833 111.328 65.2364C111.37 65.1895 111.422 65.153 111.48 65.13L113.48 64.31C113.561 64.2758 113.65 64.269 113.735 64.2906C113.82 64.3123 113.896 64.3613 113.95 64.43C114.08 64.59 127.1 80.75 140.45 82C142.642 82.2202 144.857 81.978 146.949 81.289C149.042 80.6 150.967 79.4795 152.6 78C152.659 77.9518 152.731 77.9207 152.807 77.9101C152.882 77.8996 152.96 77.9099 153.03 77.94C153.099 77.9738 153.158 78.0265 153.198 78.0919C153.239 78.1574 153.26 78.2329 153.26 78.31V80.31C153.262 80.3674 153.25 80.4245 153.225 80.4765C153.201 80.5286 153.165 80.5743 153.12 80.61C150.114 83.1944 146.284 84.62 142.32 84.63ZM112.32 65.63C115.32 69.11 136.95 92.71 152.51 80.14V79.14C150.833 80.5057 148.902 81.5268 146.829 82.1445C144.756 82.7623 142.581 82.9647 140.43 82.74C127.43 81.53 115.28 67.2 113.56 65.11L112.32 65.63Z" fill="#1F1A54"/>
<path d="M160.23 93.32L154.77 95.21L151.74 77.53L154.15 74.74L157.04 74.72L160.23 93.32Z" fill="white"/>
<path d="M154.77 95.61C154.699 95.6102 154.629 95.5893 154.57 95.55C154.521 95.5211 154.479 95.482 154.446 95.4355C154.413 95.3889 154.391 95.3359 154.38 95.28L151.38 77.6C151.371 77.541 151.375 77.4807 151.393 77.4236C151.41 77.3665 151.44 77.314 151.48 77.27L153.89 74.48C153.969 74.3969 154.076 74.3468 154.19 74.34H157.08C157.173 74.3409 157.263 74.3743 157.335 74.4346C157.406 74.4949 157.454 74.5781 157.47 74.67L160.67 93.27C160.687 93.3649 160.669 93.4627 160.619 93.5454C160.57 93.6281 160.492 93.6901 160.4 93.72L154.94 95.61H154.77ZM152.16 77.61L155.09 94.61L159.78 92.99L156.7 75.12H154.34L152.16 77.61Z" fill="#1F1A54"/>
<path d="M154.58 76.65C154.487 76.6491 154.396 76.6156 154.325 76.5554C154.254 76.4951 154.206 76.4118 154.19 76.32C154.18 76.268 154.181 76.2145 154.192 76.1627C154.203 76.111 154.225 76.0621 154.256 76.019C154.287 75.976 154.326 75.9397 154.371 75.9123C154.417 75.885 154.467 75.8672 154.52 75.86C154.637 75.5397 154.658 75.192 154.58 74.86C154.556 74.5241 154.406 74.2096 154.16 73.98C154.1 74.3106 154.1 74.6493 154.16 74.98C154.178 75.0343 154.183 75.0918 154.177 75.1486C154.171 75.2054 154.152 75.2602 154.123 75.3093C154.093 75.3583 154.054 75.4005 154.007 75.433C153.96 75.4655 153.906 75.4875 153.85 75.4976C153.794 75.5077 153.736 75.5056 153.681 75.4915C153.625 75.4774 153.574 75.4516 153.529 75.4158C153.485 75.38 153.448 75.3351 153.422 75.2841C153.397 75.2331 153.382 75.1771 153.38 75.12C153.21 74.12 153.51 73.34 154.09 73.24C154.67 73.14 155.21 73.79 155.38 74.77C155.55 75.75 155.25 76.54 154.67 76.64L154.58 76.65Z" fill="#1F1A54"/>
<path d="M161 99.78C161 99.78 161.18 99.78 161.18 100.7C161.18 104.5 152.23 104.09 152.23 104.09C148.72 104.22 145.63 104.61 145.63 104.61C140.31 105.87 118.8 123.29 109.79 122.74C102.29 122.3 96.8999 100.05 96.8999 100.05L110.57 98.32C110.57 98.32 112.49 109.23 112.49 108.59C116.06 106.14 134.68 99.69 139.57 96.75C141.408 95.845 143.094 94.661 144.57 93.24C147.57 89.99 150.65 84.79 152.48 83.57C152.567 83.5124 152.666 83.474 152.77 83.4575C152.873 83.4409 152.979 83.4465 153.08 83.474C153.181 83.5014 153.276 83.55 153.357 83.6165C153.438 83.6831 153.503 83.7661 153.55 83.86C154.87 86.09 150.09 92.11 153.15 91.27C155.072 90.8452 157.043 90.6804 159.01 90.78C160.68 91 161.39 91.87 161.38 92.63C161.375 92.8914 161.305 93.1475 161.178 93.3758C161.051 93.6042 160.869 93.7979 160.65 93.94C160.65 93.94 161.77 94.5 161.84 95.36C161.881 95.6101 161.861 95.8664 161.781 96.1069C161.7 96.3473 161.563 96.5646 161.38 96.74C161.616 97.1649 161.736 97.6441 161.73 98.13C161.752 98.4437 161.697 98.758 161.57 99.0456C161.442 99.3331 161.247 99.5852 161 99.78Z" fill="white"/>
<path d="M159.69 97.7C159.58 97.7065 159.47 97.7065 159.36 97.7C159.304 97.7012 159.247 97.6904 159.195 97.6682C159.143 97.646 159.096 97.6131 159.058 97.5715C159.019 97.5298 158.99 97.4805 158.972 97.4268C158.954 97.3731 158.948 97.3162 158.954 97.2598C158.959 97.2034 158.977 97.149 159.005 97.0999C159.034 97.0509 159.072 97.0084 159.118 96.9753C159.164 96.9423 159.217 96.9194 159.272 96.9081C159.328 96.8968 159.385 96.8975 159.44 96.91C160.045 96.9753 160.652 96.8189 161.15 96.47C161.293 96.337 161.4 96.1702 161.461 95.9849C161.522 95.7996 161.536 95.6019 161.5 95.41C161.45 94.9 160.78 94.41 160.5 94.32C160.453 94.2966 160.41 94.2641 160.375 94.2242C160.341 94.1843 160.314 94.1379 160.297 94.0876C160.281 94.0374 160.274 93.9843 160.278 93.9315C160.282 93.8787 160.296 93.8272 160.32 93.78C160.369 93.6859 160.453 93.6146 160.554 93.581C160.655 93.5475 160.764 93.5543 160.86 93.6C160.99 93.67 162.18 94.29 162.27 95.35C162.319 95.6624 162.289 95.9819 162.185 96.2803C162.08 96.5786 161.903 96.8464 161.67 97.06C161.108 97.5027 160.405 97.7297 159.69 97.7Z" fill="#1F1A54"/>
<path d="M110.22 123.16H109.78C102.07 122.7 96.7799 101.09 96.5199 100.16C96.5047 100.104 96.5023 100.045 96.5126 99.9882C96.523 99.9311 96.546 99.8771 96.5799 99.83C96.6124 99.7839 96.654 99.7451 96.7022 99.7158C96.7504 99.6866 96.8041 99.6676 96.8599 99.66L110.53 97.94C110.632 97.9253 110.735 97.9503 110.819 98.0099C110.903 98.0695 110.96 98.1591 110.98 98.26C111.56 101.58 112.42 106.39 112.75 107.97C114.95 106.67 120.13 104.6 125.59 102.41C131.05 100.22 136.99 97.85 139.38 96.41L140.32 95.87C141.8 95.1242 143.151 94.145 144.32 92.97C145.718 91.3745 147.03 89.7054 148.25 87.97C149.85 85.81 151.25 83.97 152.3 83.22C152.425 83.1329 152.567 83.0728 152.717 83.0435C152.867 83.0142 153.021 83.0164 153.17 83.05C153.33 83.0928 153.479 83.167 153.609 83.2683C153.74 83.3696 153.849 83.496 153.93 83.64C154.65 84.86 153.93 86.82 153.22 88.56C152.91 89.35 152.39 90.68 152.57 90.91C152.57 90.91 152.68 90.97 153.08 90.86C155.048 90.4225 157.067 90.2576 159.08 90.37C160.96 90.61 161.8 91.67 161.79 92.62C161.783 92.9443 161.698 93.2622 161.541 93.5461C161.384 93.8301 161.161 94.0717 160.89 94.25C160.347 94.6193 159.729 94.8619 159.08 94.96C159.028 94.9685 158.975 94.9663 158.924 94.9536C158.872 94.9409 158.824 94.918 158.782 94.8862C158.74 94.8544 158.705 94.8145 158.679 94.7687C158.653 94.723 158.636 94.6724 158.63 94.62C158.616 94.5153 158.643 94.4092 158.707 94.3249C158.771 94.2406 158.865 94.1849 158.97 94.17C159.488 94.0839 159.982 93.8897 160.42 93.6C160.59 93.4938 160.732 93.3467 160.831 93.1721C160.931 92.9975 160.985 92.8009 160.99 92.6C160.99 92.01 160.37 91.33 158.99 91.15C157.078 91.0542 155.161 91.2122 153.29 91.62C153.06 91.69 152.36 91.88 151.97 91.44C151.58 91 151.88 89.77 152.46 88.26C153.04 86.75 153.76 84.92 153.23 84.03C153.174 83.9285 153.081 83.8531 152.97 83.82C152.928 83.811 152.885 83.8117 152.843 83.8221C152.801 83.8325 152.763 83.8523 152.73 83.88C151.78 84.51 150.38 86.42 148.89 88.44C147.645 90.1755 146.31 91.8444 144.89 93.44C143.668 94.6634 142.252 95.677 140.7 96.44C140.37 96.63 140.06 96.8 139.77 96.98C137.32 98.44 131.5 100.77 125.87 103.03C120.24 105.29 114.61 107.53 112.77 108.76C112.701 108.835 112.61 108.884 112.51 108.9C112.35 108.9 112.24 108.9 112.09 108.47C111.82 107.62 111.4 105.24 110.25 98.68L97.3999 100.3C98.1999 103.39 103.25 121.86 109.81 122.3C115.37 122.62 125.92 115.9 134.39 110.49C139.49 107.23 143.51 104.66 145.54 104.18C145.61 104.18 148.73 103.78 152.22 103.65C152.31 103.65 158.22 103.9 160.22 102C160.409 101.832 160.561 101.626 160.665 101.395C160.768 101.164 160.821 100.913 160.82 100.66C160.842 100.454 160.842 100.246 160.82 100.04C160.775 100.004 160.739 99.9586 160.715 99.9065C160.69 99.8545 160.678 99.7974 160.68 99.74C160.68 99.6339 160.722 99.5322 160.797 99.4572C160.872 99.3822 160.974 99.34 161.08 99.34C161.66 99.34 161.66 100.23 161.66 100.66C161.661 101.022 161.586 101.38 161.44 101.711C161.293 102.042 161.079 102.338 160.81 102.58C158.58 104.71 152.55 104.46 152.29 104.45C148.87 104.58 145.79 104.96 145.76 104.97C143.91 105.41 139.76 108.08 134.9 111.16C126.48 116.54 116.12 123.16 110.22 123.16Z" fill="#1F1A54"/>
<path d="M159.06 100.8C158.954 100.8 158.852 100.758 158.777 100.683C158.702 100.608 158.66 100.506 158.66 100.4C158.66 100.294 158.702 100.192 158.777 100.117C158.852 100.042 158.954 100 159.06 100C159.667 99.9859 160.257 99.7985 160.76 99.46C160.968 99.3107 161.134 99.1115 161.244 98.8808C161.354 98.6501 161.405 98.3953 161.39 98.14C161.389 97.7419 161.29 97.3503 161.1 97C161.044 96.911 161.025 96.8033 161.047 96.7004C161.069 96.5974 161.132 96.5074 161.22 96.45C161.264 96.4207 161.313 96.4005 161.365 96.3907C161.416 96.3808 161.469 96.3815 161.521 96.3928C161.572 96.404 161.621 96.4254 161.664 96.4559C161.706 96.4864 161.743 96.5252 161.77 96.57C162.053 97.0553 162.198 97.6084 162.19 98.17C162.209 98.5548 162.133 98.9382 161.969 99.2869C161.805 99.6355 161.558 99.9387 161.25 100.17C160.597 100.588 159.836 100.807 159.06 100.8Z" fill="#1F1A54"/>
<path d="M139.18 36.31C139.474 36.2327 139.776 36.1858 140.08 36.17C140.77 36.17 140.94 34.84 141.32 34.68C142.67 34.13 142.73 34.04 142.25 32.5C141.88 31.33 142.13 29.94 140.97 28.82C140.26 28.14 138.24 27.57 137.52 26.98C136.588 26.1407 135.584 25.3844 134.52 24.72C132.08 23.53 130.27 21.59 127.77 21.28C126.954 21.349 126.164 21.602 125.46 22.02C124.8 22.31 123.97 22.09 123.4 22.24C122.83 22.39 122.4 22.97 121.92 23.06C120.768 23.289 119.595 23.3996 118.42 23.39C117.916 23.3422 117.414 23.4929 117.02 23.81C116.511 24.0719 116.112 24.507 115.896 25.037C115.68 25.5669 115.66 26.1567 115.84 26.7C115.675 26.9222 115.522 27.1525 115.38 27.39C115.179 27.4393 114.982 27.5028 114.79 27.58C114.283 27.767 113.8 28.012 113.35 28.31C112.81 28.66 112.87 30.07 112.35 30.7C111.83 31.33 110.82 31.15 110.6 32.11C110.29 33.48 109.9 35.19 111.08 35.86C112.08 36.42 111.15 37.79 111.08 38.78C111.01 39.77 111.8 40.48 111.9 41.01C112.269 40.2526 112.905 39.6581 113.686 39.3407C114.467 39.0232 115.337 39.0052 116.13 39.29C117.594 39.9523 118.769 41.1206 119.44 42.58C119.816 42.4657 120.158 42.2623 120.439 41.9872C120.719 41.7122 120.929 41.3735 121.05 41C121.19 40.63 120.82 39.75 120.96 39.29C121.1 38.83 121.89 38.02 121.96 37.23C121.96 36.72 121.96 36.23 121.96 35.85C121.96 33.51 122.47 33.85 122.43 33.75C122.39 33.65 122.23 33.54 123.92 34.27C124.59 34.57 124.74 35.54 125.51 35.85C126.67 36.31 128.44 35.38 129.51 35.68C130.33 35.91 130.76 33.48 130.58 33.33C131.148 33.2033 131.737 33.2003 132.306 33.3211C132.876 33.4418 133.412 33.6836 133.88 34.03C134.78 34.61 135.43 36.36 136.5 36.67C137.409 36.7885 138.334 36.6643 139.18 36.31Z" fill="#1F1A54"/>
<path d="M197.41 107.52V56.49L241.6 30.98L285.8 56.49V107.52L241.6 133.04L197.41 107.52Z" fill="#FFD400"/>
<path d="M241.6 31.44L285.4 56.72V107.29L241.6 132.58L197.81 107.29V56.72L241.6 31.44ZM241.6 30.51L197 56.26V107.75L241.6 133.5L286.2 107.75V56.26L241.6 30.51Z" fill="#1F1A54"/>
<path d="M241.67 133L258.11 123.32L257.64 122.07C251.243 123.417 244.699 123.935 238.17 123.61C230.3 123.26 226.6 122.07 226.6 122.07C226.6 122.07 226.42 122.8 226.12 124.07L241.67 133Z" fill="#1F1A54" stroke="#1F1A54" stroke-width="0.8" stroke-linecap="round" stroke-linejoin="round"/>
<path d="M224.73 71.84C225.56 66.59 222.23 41.39 228.19 35.58C235.58 28.37 249.47 25.22 254.06 33.16C255.211 33.5126 256.26 34.1362 257.12 34.9784C257.979 35.8206 258.624 36.8568 259 38C261.42 45.85 260.78 60.82 264.16 74.4L224.73 71.84Z" fill="#1F1A54" stroke="#1F1A54" stroke-width="0.8" stroke-linecap="round" stroke-linejoin="round"/>
<path d="M249.93 48.64C250.617 47.1532 251.817 45.9639 253.31 45.29C256.06 44.15 259.16 47.29 258.31 51.58C257.61 55.16 254.74 57.08 250.96 57.63V68.89L253.36 69.83C253.154 71.2213 252.819 72.5905 252.36 73.92C249.08 81.09 241.79 82.25 239.15 81.59C238.167 81.3672 237.238 80.9501 236.419 80.3631C235.599 79.7761 234.905 79.0312 234.378 78.1721C233.851 77.313 233.5 76.3572 233.348 75.3608C233.195 74.3643 233.244 73.3475 233.49 72.37C233.58 72.04 233.72 71.49 233.83 71.04L234.03 70.22L236.5 69.43V64.81C235.667 64.4742 234.883 64.0268 234.17 63.48C231.86 61.7 230.17 58.63 229.8 53.99C229.549 49.9223 229.589 45.8419 229.92 41.78C232.39 40.99 236.21 36.43 236.21 36.43C237.691 39.1519 239.86 41.438 242.5 43.06C245.23 44.5566 247.732 46.4356 249.93 48.64ZM241.84 48.88C241.856 48.6333 241.78 48.3896 241.626 48.1957C241.473 48.0018 241.253 47.8715 241.01 47.83C240.768 47.8737 240.551 48.0049 240.4 48.1986C240.248 48.3922 240.174 48.6348 240.19 48.88C240.171 49.1268 240.245 49.3719 240.396 49.5677C240.547 49.7635 240.766 49.8961 241.01 49.94C241.255 49.8983 241.476 49.7666 241.63 49.5706C241.783 49.3745 241.858 49.1283 241.84 48.88ZM234.29 49.01C234.321 48.8847 234.323 48.7541 234.296 48.6279C234.269 48.5017 234.214 48.3833 234.134 48.2816C234.055 48.18 233.953 48.0978 233.837 48.0413C233.721 47.9847 233.594 47.9554 233.465 47.9554C233.336 47.9554 233.208 47.9847 233.092 48.0413C232.976 48.0978 232.875 48.18 232.795 48.2816C232.716 48.3833 232.661 48.5017 232.634 48.6279C232.607 48.7541 232.609 48.8847 232.64 49.01C232.609 49.1352 232.607 49.2659 232.634 49.3921C232.661 49.5183 232.716 49.6367 232.795 49.7383C232.875 49.84 232.976 49.9222 233.092 49.9787C233.208 50.0352 233.336 50.0646 233.465 50.0646C233.594 50.0646 233.721 50.0352 233.837 49.9787C233.953 49.9222 234.055 49.84 234.134 49.7383C234.214 49.6367 234.269 49.5183 234.296 49.3921C234.323 49.2659 234.321 49.1352 234.29 49.01Z" fill="white"/>
<path d="M241 47.83C241.244 47.8715 241.463 48.0018 241.617 48.1957C241.77 48.3896 241.846 48.6334 241.83 48.88C241.849 49.1283 241.774 49.3746 241.62 49.5706C241.467 49.7666 241.246 49.8984 241 49.94C240.756 49.8962 240.538 49.7635 240.386 49.5677C240.235 49.3719 240.161 49.1269 240.18 48.88C240.164 48.6348 240.239 48.3922 240.39 48.1986C240.541 48.0049 240.758 47.8737 241 47.83Z" fill="#1F1A54"/>
<path d="M233.46 48C233.695 48.0405 233.908 48.1635 234.06 48.3468C234.212 48.5301 234.294 48.7618 234.29 49C234.321 49.1252 234.323 49.2559 234.297 49.3821C234.27 49.5083 234.214 49.6267 234.135 49.7284C234.055 49.83 233.954 49.9122 233.838 49.9687C233.722 50.0253 233.594 50.0546 233.465 50.0546C233.336 50.0546 233.209 50.0253 233.093 49.9687C232.977 49.9122 232.875 49.83 232.796 49.7284C232.716 49.6267 232.661 49.5083 232.634 49.3821C232.607 49.2559 232.609 49.1252 232.64 49C232.636 48.7632 232.717 48.5327 232.867 48.3496C233.017 48.1665 233.227 48.0426 233.46 48Z" fill="#1F1A54"/>
<path d="M242.49 45.75C242.002 45.4433 241.436 45.2836 240.86 45.29C240.239 45.2823 239.631 45.4675 239.12 45.82" stroke="#1F1A54" stroke-width="0.8" stroke-linecap="round" stroke-linejoin="round"/>
<path d="M235.3 45.75C234.791 45.4377 234.202 45.2783 233.605 45.2907C233.008 45.3031 232.426 45.4868 231.93 45.82" stroke="#1F1A54" stroke-width="0.8" stroke-linecap="round" stroke-linejoin="round"/>
<path d="M243.81 55.16C243.567 56.0316 243.087 56.8186 242.423 57.4331C241.759 58.0476 240.938 58.4655 240.05 58.64" stroke="#1F1A54" stroke-width="0.8" stroke-linecap="round" stroke-linejoin="round"/>
<path d="M238.4 53.73C238.061 53.9078 237.683 54.0007 237.3 54.0007C236.917 54.0007 236.54 53.9078 236.2 53.73" stroke="#1F1A54" stroke-width="0.8" stroke-linecap="round" stroke-linejoin="round"/>
<path d="M254.67 49C254.67 49 252.42 49.35 252.07 52.91" stroke="#1F1A54" stroke-width="0.8" stroke-miterlimit="10" stroke-linecap="round"/>
<path d="M236.45 64.81V69.43L233.98 70.22L233.78 71.04C233.67 71.49 233.53 72.04 233.44 72.37C233.194 73.3475 233.145 74.3643 233.298 75.3608C233.45 76.3572 233.801 77.3131 234.328 78.1721C234.855 79.0312 235.549 79.7761 236.369 80.3631C237.188 80.9501 238.117 81.3672 239.1 81.59C241.74 82.25 249.03 81.09 252.31 73.92C252.769 72.5905 253.104 71.2213 253.31 69.83L250.91 68.89V57.63" stroke="#1F1A54" stroke-width="0.8" stroke-linecap="round" stroke-linejoin="round"/>
<path d="M249.66 49.31C249.734 49.0806 249.825 48.8567 249.93 48.64C250.617 47.1532 251.817 45.9638 253.31 45.29C256.06 44.15 259.16 47.29 258.31 51.58C257.61 55.16 254.74 57.08 250.96 57.63" stroke="#1F1A54" stroke-width="0.8" stroke-linecap="round" stroke-linejoin="round"/>
<path d="M249.93 48.64C247.729 46.4348 245.223 44.5558 242.49 43.06C239.85 41.438 237.681 39.1519 236.2 36.43C236.2 36.43 232.38 40.99 229.91 41.78" stroke="#1F1A54" stroke-width="0.8" stroke-linecap="round" stroke-linejoin="round"/>
<path d="M229.87 41.72V41.78C229.539 45.8452 229.499 49.929 229.75 54C230.17 58.64 231.81 61.71 234.12 63.49C234.833 64.0368 235.617 64.4842 236.45 64.82C237.784 65.3371 239.237 65.462 240.64 65.18L240.99 65.12C242.654 64.7616 244.189 63.956 245.43 62.79" stroke="#1F1A54" stroke-width="0.8" stroke-linecap="round" stroke-linejoin="round"/>
<path d="M256.44 92.54L259.54 103.02L273.54 99.32C273.54 99.32 270.43 81.73 268 77.75C265.34 73.37 253.37 69.83 253.37 69.83C253.164 71.2213 252.829 72.5905 252.37 73.92C249.09 81.09 241.8 82.25 239.16 81.59C238.177 81.3673 237.249 80.9502 236.43 80.363C235.611 79.7759 234.917 79.0307 234.391 78.1715C233.864 77.3122 233.515 76.3562 233.364 75.3598C233.212 74.3634 233.262 73.3469 233.51 72.37C233.67 71.69 234.04 70.22 234.04 70.22C230.925 70.6037 227.831 71.1444 224.77 71.84C219.7 73.38 212.54 91.63 212.54 91.63L217.31 94.91C217.31 94.91 217.14 91.67 218.93 93.51C220.72 95.35 224.53 108.42 225.49 113.01C226.192 115.988 226.578 119.031 226.64 122.09C226.64 122.09 229.57 123.21 236.92 123.53C243.872 123.842 250.837 123.359 257.68 122.09L261.68 103.48" fill="#FFD400"/>
<path d="M256.44 92.54L259.54 103.02L273.54 99.32C273.54 99.32 270.43 81.73 268 77.75C265.34 73.37 253.37 69.83 253.37 69.83C253.164 71.2213 252.829 72.5905 252.37 73.92C249.09 81.09 241.8 82.25 239.16 81.59C238.177 81.3673 237.249 80.9502 236.43 80.363C235.611 79.7759 234.917 79.0307 234.391 78.1715C233.864 77.3122 233.515 76.3562 233.364 75.3598C233.212 74.3634 233.262 73.3469 233.51 72.37C233.67 71.69 234.04 70.22 234.04 70.22C230.925 70.6037 227.831 71.1444 224.77 71.84C219.7 73.38 212.54 91.63 212.54 91.63L217.31 94.91C217.31 94.91 217.14 91.67 218.93 93.51C220.72 95.35 224.53 108.42 225.49 113.01C226.192 115.988 226.578 119.031 226.64 122.09C226.64 122.09 229.57 123.21 236.92 123.53C243.872 123.842 250.837 123.359 257.68 122.09L261.68 103.48" stroke="#1F1A54" stroke-width="0.8" stroke-linecap="round" stroke-linejoin="round"/>
<path d="M222.86 104.06C223.31 105.56 223.74 107.06 224.12 108.41H260.41L261.35 104.06H222.86Z" fill="#1F1A54"/>
<path d="M225.4 113.69C225.74 115.39 225.97 116.85 226.12 118.05H258.32L259.26 113.69H225.4Z" fill="#1F1A54"/>
<path d="M247.43 79.52H268.64C268.417 78.908 268.143 78.3159 267.82 77.75C267.116 76.7195 266.212 75.842 265.16 75.17H251.49C250.491 76.9144 249.102 78.4034 247.43 79.52Z" fill="#1F1A54"/>
<path d="M233.54 123.33C234.54 123.41 235.54 123.48 236.69 123.53C240.517 123.685 244.35 123.618 248.17 123.33H233.54Z" fill="#1F1A54"/>
<path d="M216.39 94.43L217.08 94.91C217.08 94.91 217.08 94.71 217.08 94.43H216.39Z" fill="#1F1A54"/>
<path d="M235.21 79.52C234.056 78.3389 233.325 76.8096 233.13 75.17H220.8C219.771 76.5563 218.836 78.0095 218 79.52H235.21Z" fill="#1F1A54"/>
<path d="M253.18 69.89H253.37L253.19 69.83L253.18 69.89Z" fill="#1F1A54"/>
<path d="M219.32 94.43C220.023 95.8366 220.627 97.2901 221.13 98.78H273.3C273.16 98 272.86 96.41 272.46 94.43H219.32Z" fill="#1F1A54"/>
<path d="M215.3 84.8C214.52 86.45 213.85 87.97 213.3 89.15H271.3C270.97 87.69 270.61 86.21 270.24 84.8H215.3Z" fill="#1F1A54"/>
<path d="M215.46 80.9L216.22 80.53L218.32 80.36L219.6 82.3L218.83 84.83L219.52 86.35L219.66 88.78L218.11 87.91L217 91.53H208.89L208 91L204.84 86.83L204.33 85.3L204.98 84.59V83.31L206.26 82.31V81.1L206.71 79.89L208.13 80.27L208.89 79.89L209.39 78.35L210.6 78.02L211.04 77.57L209.65 75.38C209.65 75.38 209.08 74.24 209.65 73.72C210.22 73.2 210.78 72.72 211.57 73.91L215.63 80.27L215.47 80.92" fill="white"/>
<path d="M232.38 114.34L233.58 119.73L213.55 118.17L206.73 91.63H227.18L231.21 107.22" fill="white"/>
<path d="M232.38 114.34L233.58 119.73L213.55 118.17L206.73 91.63H227.18L231.21 107.22" stroke="#1F1A54" stroke-width="0.8" stroke-linecap="round" stroke-linejoin="round"/>
<path d="M232.51 103C234.659 103.129 236.764 103.669 238.71 104.59C241.826 106.068 245.096 107.198 248.46 107.96C255.46 109.01 258.97 109.13 263.46 109.96L261.46 102.61L272.85 99.53C272.85 99.53 279.13 122.09 267.43 120.86C258.95 119.97 247.79 115.86 242.08 114.68C241.806 114.623 241.529 114.586 241.25 114.57C239.152 114.288 237.031 114.224 234.92 114.38C234.075 114.51 233.215 114.51 232.37 114.38C230.07 113.98 225.57 113.15 224.46 112.47C222.87 111.47 219.65 106.88 219.65 106.88C219.65 106.88 219.51 104.21 222.65 105.95C225.79 107.69 229.91 107.95 231.19 107.26C231.91 106.86 232.36 106.36 230.95 105.93L230.09 103C230.09 103 231.81 103 232.51 103Z" fill="white" stroke="#1F1A54" stroke-width="0.8" stroke-linecap="round" stroke-linejoin="round"/>
<path d="M228 110.4C226.78 109.99 223.22 109.05 222.13 108.4L219.71 106.88" fill="white"/>
<path d="M228 110.4C226.78 109.99 223.22 109.05 222.13 108.4L219.71 106.88" stroke="#1F1A54" stroke-width="0.8" stroke-linecap="round" stroke-linejoin="round"/>
<path d="M228.45 112.06C226.213 111.683 224.041 110.99 222 110L228.45 112.06Z" fill="white"/>
<path d="M228.45 112.06C226.213 111.683 224.041 110.99 222 110" stroke="#1F1A54" stroke-width="0.8" stroke-linecap="round" stroke-linejoin="round"/>
<path d="M219 85.3C219.247 84.6499 219.441 83.9811 219.58 83.3C219.716 82.7413 219.677 82.1546 219.47 81.6184C219.263 81.0822 218.896 80.6222 218.42 80.3C218.04 79.97 216.32 80.47 216.32 80.47C215.62 80.74 215.13 80.95 214.83 81.09C214.561 81.2149 214.352 81.4414 214.25 81.72C214.05 82.3 214.01 83.24 215.76 83.27L217.86 82.68" stroke="#1F1A54" stroke-width="0.8" stroke-linecap="round" stroke-linejoin="round"/>
<path d="M208.77 91.54C207.77 90.46 205.77 87.68 205.77 87.68" stroke="#1F1A54" stroke-width="0.8" stroke-linecap="round" stroke-linejoin="round"/>
<path d="M218.11 87.91C217.62 89.51 217.11 91.02 217.11 91.02L217 91.53" stroke="#1F1A54" stroke-width="0.8" stroke-linecap="round" stroke-linejoin="round"/>
<path d="M216.05 83.23C216.05 83.23 216.95 84.9 215.79 85.3C215.414 85.3965 215.019 85.3976 214.642 85.3034C214.265 85.2091 213.917 85.0223 213.63 84.76L212.63 84.07C212.27 83.84 211.94 83.62 211.63 83.39C211.009 82.8501 210.414 82.2794 209.85 81.68" stroke="#1F1A54" stroke-width="0.8" stroke-linecap="round" stroke-linejoin="round"/>
<path d="M214.36 81.5L211.5 78.22C211.5 78.22 210 77.52 209.19 78.57C209.055 78.7551 208.96 78.9665 208.912 79.1904C208.864 79.4143 208.863 79.6458 208.91 79.87" stroke="#1F1A54" stroke-width="0.8" stroke-linecap="round" stroke-linejoin="round"/>
<path d="M208 83.82C208.406 84.1876 208.841 84.522 209.3 84.82C209.811 85.2777 210.415 85.6189 211.07 85.82L212.21 86.38C212.512 86.5974 212.864 86.7337 213.234 86.7757C213.603 86.8178 213.977 86.7642 214.32 86.62C214.78 86.34 214.71 85.81 214.51 85.35" stroke="#1F1A54" stroke-width="0.8" stroke-linecap="round" stroke-linejoin="round"/>
<path d="M208.92 80C208.92 80 207 79.47 206.54 80.65C206.458 80.9254 206.436 81.2153 206.475 81.5001C206.515 81.7848 206.616 82.0576 206.77 82.3" stroke="#1F1A54" stroke-width="0.8" stroke-linecap="round" stroke-linejoin="round"/>
<path d="M207.12 86.35C207.43 86.54 207.79 86.73 208.18 86.92L209.55 87.48L210.61 87.87C210.899 88.032 211.224 88.1172 211.555 88.1172C211.886 88.1172 212.212 88.032 212.5 87.87C213.02 87.48 212.62 86.78 212.3 86.35" stroke="#1F1A54" stroke-width="0.8" stroke-linecap="round" stroke-linejoin="round"/>
<path d="M206.75 82.3C206.38 82.3 205.27 82.43 205.03 83.3C204.986 83.5199 204.986 83.7464 205.031 83.9663C205.075 84.1861 205.164 84.3948 205.29 84.58" stroke="#1F1A54" stroke-width="0.8" stroke-linecap="round" stroke-linejoin="round"/>
<path d="M205.28 84.62C205.069 84.6236 204.863 84.6943 204.695 84.8219C204.526 84.9495 204.402 85.1274 204.34 85.33C204.09 86.33 205.22 87.9 208.34 89.01L209.28 89.36C209.538 89.5009 209.827 89.5748 210.12 89.5748C210.414 89.5748 210.703 89.5009 210.96 89.36C211.48 88.97 210.96 88.23 210.69 87.89" stroke="#1F1A54" stroke-width="0.8" stroke-linecap="round" stroke-linejoin="round"/>
<path d="M217.31 82.88L219.52 86.35L219.66 88.78L217.45 87.54L215.97 85.22" stroke="#1F1A54" stroke-width="0.8" stroke-linecap="round" stroke-linejoin="round"/>
<path d="M211.5 78.22L209.5 75.08C209.419 74.9506 209.364 74.8059 209.341 74.6548C209.317 74.5037 209.325 74.3493 209.364 74.2013C209.402 74.0533 209.47 73.9147 209.564 73.7941C209.658 73.6734 209.776 73.5734 209.91 73.5C210.185 73.3428 210.509 73.2956 210.817 73.368C211.125 73.4404 211.394 73.6269 211.57 73.89L215.91 80.68" stroke="#1F1A54" stroke-width="0.8" stroke-linecap="round" stroke-linejoin="round"/>
<path d="M208.28 97.61L204.28 109.95C204.28 109.95 204.14 120.46 212.74 115.52L208.28 97.61Z" fill="white" stroke="#1F1A54" stroke-width="0.8" stroke-linecap="round" stroke-linejoin="round"/>
<path d="M226 39.69C226.54 37.92 227.07 35.79 228 34.85C235.39 27.64 249.28 24.49 253.87 32.43C255.008 32.7865 256.045 33.4087 256.895 34.245C257.746 35.0814 258.385 36.1079 258.76 37.24C259 38.01 259.2 38.85 259.39 39.75C259.62 40.89 260.59 44.75 259.58 44.03C257.97 42.84 252.29 39.81 248.36 36.65C245.89 34.65 245.43 31.85 242.97 31.85C233.93 31.83 224.59 44.37 226 39.69Z" fill="#1F1A54" stroke="#1F1A54" stroke-width="0.8" stroke-linecap="round" stroke-linejoin="round"/>
<path d="M208.17 97.44L204.17 109.78C204.17 109.78 204.04 120.29 212.64 115.35L208.17 97.44Z" fill="white" stroke="#1F1A54" stroke-width="0.8" stroke-linecap="round" stroke-linejoin="round"/>
<path d="M232.29 114.42L233.49 119.81L213.46 118.25L206.64 91.71H227.09L231.12 107.3" fill="white"/>
<path d="M232.29 114.42L233.49 119.81L213.46 118.25L206.64 91.71H227.09L231.12 107.3" stroke="#1F1A54" stroke-width="0.8" stroke-linecap="round" stroke-linejoin="round"/>
<path d="M232.42 103.11C234.566 103.239 236.667 103.779 238.61 104.7C241.732 106.172 245.005 107.302 248.37 108.07C255.37 109.12 258.87 109.24 263.37 110.07L261.37 102.72L272.76 99.64C272.76 99.64 279.04 122.2 267.34 120.97C258.86 120.07 247.7 115.92 241.99 114.79C241.716 114.735 241.439 114.695 241.16 114.67C239.062 114.396 236.941 114.335 234.83 114.49C233.985 114.62 233.125 114.62 232.28 114.49C229.98 114.09 225.48 113.26 224.37 112.58C222.78 111.58 219.56 106.99 219.56 106.99C219.56 106.99 219.42 104.31 222.56 106.06C225.7 107.81 229.82 108.06 231.1 107.37C231.82 106.97 232.27 106.47 230.86 106.04L230 103C230 103 231.72 103.07 232.42 103.11Z" fill="white" stroke="#1F1A54" stroke-width="0.8" stroke-linecap="round" stroke-linejoin="round"/>
<path d="M227.86 110.48C226.64 110.07 223.08 109.13 221.98 108.48L219.57 106.96" fill="white"/>
<path d="M227.86 110.48C226.64 110.07 223.08 109.13 221.98 108.48L219.57 106.96" stroke="#1F1A54" stroke-width="0.8" stroke-linecap="round" stroke-linejoin="round"/>
<path d="M228.36 112.14C226.129 111.74 223.964 111.03 221.93 110.03L228.36 112.14Z" fill="white"/>
<path d="M228.36 112.14C226.129 111.74 223.964 111.03 221.93 110.03" stroke="#1F1A54" stroke-width="0.8" stroke-linecap="round" stroke-linejoin="round"/>
</svg>
