<svg width="57" height="56" viewBox="0 0 57 56" fill="none" xmlns="http://www.w3.org/2000/svg">
<path fill-rule="evenodd" clip-rule="evenodd" d="M12.312 14.623C11.6595 14.623 11.1226 15.16 11.1226 15.8124V41.1215C11.1226 41.774 11.6595 42.3109 12.312 42.3109H43.7301C44.333 42.3109 44.8226 41.8254 44.8226 41.1215V15.8124C44.8226 15.16 44.2856 14.623 43.6332 14.623H12.312ZM9.62256 15.8124C9.62256 14.3316 10.8311 13.123 12.312 13.123H43.6332C45.114 13.123 46.3226 14.3316 46.3226 15.8124V41.1215C46.3226 42.551 45.2606 43.8109 43.7301 43.8109H12.312C10.8311 43.8109 9.62256 42.6024 9.62256 41.1215V15.8124Z" fill="#8D8BA7"/>
<path fill-rule="evenodd" clip-rule="evenodd" d="M35.4804 18.9414C35.7518 18.9388 36.0034 19.083 36.1383 19.3184L45.2535 35.2215C45.4595 35.5808 45.3351 36.0392 44.9758 36.2451C44.6164 36.4511 44.1581 36.3268 43.9521 35.9674L35.5025 21.2255L23.3454 43.4214C23.1465 43.7847 22.6906 43.9179 22.3274 43.7189C21.9641 43.5199 21.8309 43.0641 22.0298 42.7008L34.8298 19.3311C34.9602 19.0931 35.209 18.9441 35.4804 18.9414Z" fill="#8D8BA7"/>
<path fill-rule="evenodd" clip-rule="evenodd" d="M17.0423 28.4437C17.2779 28.4369 17.5029 28.5413 17.65 28.7256L25.3106 38.3256C25.5689 38.6493 25.5159 39.1212 25.1921 39.3796C24.8684 39.6379 24.3965 39.5849 24.1381 39.2612L17.0994 30.4405L11.0818 38.936C10.8424 39.274 10.3743 39.3539 10.0363 39.1145C9.69827 38.875 9.61835 38.4069 9.85777 38.0689L16.4517 28.7598C16.5879 28.5675 16.8067 28.4504 17.0423 28.4437Z" fill="#8D8BA7"/>
<path fill-rule="evenodd" clip-rule="evenodd" d="M22.9789 19.1797C21.5187 19.1797 20.335 20.3634 20.335 21.8236C20.335 23.2838 21.5187 24.4676 22.9789 24.4676C24.4391 24.4676 25.6228 23.2838 25.6228 21.8236C25.6228 20.3634 24.4391 19.1797 22.9789 19.1797ZM18.835 21.8236C18.835 19.535 20.6903 17.6797 22.9789 17.6797C25.2675 17.6797 27.1228 19.535 27.1228 21.8236C27.1228 24.1123 25.2675 25.9676 22.9789 25.9676C20.6903 25.9676 18.835 24.1123 18.835 21.8236Z" fill="#8D8BA7"/>
<g filter="url(#filter0_d)">
<path d="M36.8819 38.503C35.6213 38.406 34.6516 37.3394 34.7486 36.0788C34.7486 36.0788 34.7486 36.0788 34.7486 35.9818V27.0606C34.6516 25.8 35.5243 24.7333 36.7849 24.5394C36.7849 24.5394 36.7849 24.5394 36.8819 24.5394H39.4031L40.4698 21.8242H48.2273L49.294 24.5394H51.7183C52.9789 24.5394 53.9486 25.606 53.9486 26.8666V26.9636V35.8848C54.0455 37.1454 53.1728 38.2121 51.9122 38.406C51.9122 38.406 51.9122 38.406 51.8152 38.406H36.8819V38.503Z" fill="url(#paint0_linear)"/>
</g>
<path d="M47.7426 22.4055L48.9063 25.3146H52.1063C52.882 25.4116 53.4638 26.0904 53.3669 26.8661V36.2722C53.3669 37.1449 52.882 37.8237 52.2032 37.8237H36.3972C35.8154 37.8237 35.2335 37.0479 35.2335 36.2722V26.8661C35.2335 25.9934 35.7184 25.3146 36.3972 25.3146H39.5972L40.8578 22.4055H47.7426ZM49.2941 20.3691H39.6941L39.2093 21.6297L38.4335 23.2782H36.5911C34.7487 23.3752 33.2941 25.0237 33.3911 26.8661C33.3911 26.8661 33.3911 26.8661 33.3911 26.9631V36.2722C33.2941 38.1146 34.6517 39.7631 36.5911 39.957C36.5911 39.957 36.5911 39.957 36.6881 39.957H52.3972C54.2396 39.86 55.6941 38.2116 55.5972 36.3691C55.5972 36.3691 55.5972 36.3691 55.5972 36.2722V26.8661C55.6941 24.9267 54.2396 23.3752 52.3972 23.1813H52.3002H50.5548L49.779 21.7267L49.2941 20.3691Z" fill="white"/>
<path fill-rule="evenodd" clip-rule="evenodd" d="M44.3489 28.2949C42.728 28.2949 41.4141 29.6089 41.4141 31.2298C41.4141 32.8506 42.728 34.1646 44.3489 34.1646C45.9698 34.1646 47.2838 32.8506 47.2838 31.2298C47.2838 29.6089 45.9698 28.2949 44.3489 28.2949ZM39.9141 31.2298C39.9141 28.7805 41.8996 26.7949 44.3489 26.7949C46.7982 26.7949 48.7838 28.7805 48.7838 31.2298C48.7838 33.6791 46.7982 35.6646 44.3489 35.6646C41.8996 35.6646 39.9141 33.6791 39.9141 31.2298Z" fill="white"/>
<defs>
<filter id="filter0_d" x="31.7412" y="21.8242" width="25.2147" height="22.6788" filterUnits="userSpaceOnUse" color-interpolation-filters="sRGB">
<feFlood flood-opacity="0" result="BackgroundImageFix"/>
<feColorMatrix in="SourceAlpha" type="matrix" values="0 0 0 0 0 0 0 0 0 0 0 0 0 0 0 0 0 0 127 0"/>
<feOffset dy="3"/>
<feGaussianBlur stdDeviation="1.5"/>
<feColorMatrix type="matrix" values="0 0 0 0 0.636094 0 0 0 0 0.666281 0 0 0 0 0.8625 0 0 0 0.2 0"/>
<feBlend mode="normal" in2="BackgroundImageFix" result="effect1_dropShadow"/>
<feBlend mode="normal" in="SourceGraphic" in2="effect1_dropShadow" result="shape"/>
</filter>
<linearGradient id="paint0_linear" x1="44.3486" y1="21.8242" x2="44.3486" y2="38.503" gradientUnits="userSpaceOnUse">
<stop stop-color="#FBED7E"/>
<stop offset="1" stop-color="#FCE97E"/>
</linearGradient>
</defs>
</svg>
