<svg width="80" height="80" viewBox="0 0 80 80" fill="none" xmlns="http://www.w3.org/2000/svg">
<path d="M11.5341 54.7802L38.3844 38.9729M23.6236 69.2472L48.1056 53.1187M48.1056 53.1187L70.8434 64.5381M48.1056 53.1187L65.4182 42.3418M72 69.2472H8L15.5089 38.5415H64.4911L72 69.2472Z" stroke="#1F1A54" stroke-width="2" stroke-linecap="round" stroke-linejoin="round"/>
<path d="M40.4863 53.1553C40.1213 53.155 39.7713 53.0097 39.5133 52.7514L26.9189 40.1112C23.3509 36.5173 21.3486 31.6585 21.3486 26.5942C21.3486 21.53 23.3509 16.6712 26.9189 13.0773L27.0015 12.9855C28.7681 11.2042 30.8698 9.79013 33.1854 8.82486C35.501 7.85958 37.9848 7.36218 40.4936 7.36133C43.0024 7.36048 45.4865 7.85619 47.8028 8.81989C50.1191 9.78359 52.2217 11.1962 53.9895 12.9763L54.0905 13.0865C57.6556 16.68 59.6562 21.5368 59.6562 26.5988C59.6562 31.6608 57.6556 36.5177 54.0905 40.1112L41.4594 52.7514C41.2014 53.0097 40.8514 53.155 40.4863 53.1553Z" fill="#FFD400"/>
<path d="M40.4865 8.75397C42.8103 8.75209 45.1114 9.21022 47.2572 10.102C49.403 10.9937 51.3511 12.3014 52.9891 13.9496L53.0809 14.0506C56.3965 17.384 58.2569 21.8948 58.2552 26.5964C58.2535 31.2979 56.3898 35.8074 53.0717 39.1384L40.4865 51.7786L27.8922 39.1384C24.5753 35.8062 22.7133 31.296 22.7133 26.5945C22.7133 21.8929 24.5753 17.3827 27.8922 14.0506L27.9839 13.9496C29.622 12.3014 31.57 10.9937 33.7159 10.102C35.8617 9.21022 38.1628 8.75209 40.4865 8.75397ZM40.4865 6.00009C37.8003 5.99194 35.1393 6.51857 32.6587 7.54928C30.178 8.57999 27.9274 10.0942 26.0379 12.0035L25.9277 12.1229C22.1075 15.9741 19.9639 21.179 19.9639 26.6036C19.9639 32.0283 22.1075 37.2332 25.9277 41.0844L38.5405 53.7339C39.0564 54.2505 39.7564 54.541 40.4865 54.5417C40.8496 54.5426 41.2093 54.4717 41.5448 54.333C41.8804 54.1944 42.1852 53.9908 42.4418 53.7339L55.0362 41.0844C58.8598 37.2312 61.0054 32.0229 61.0054 26.5945C61.0054 21.1661 58.8598 15.9577 55.0362 12.1045L54.9535 12.0219C53.0628 10.1078 50.8097 8.58952 48.3258 7.55562C45.8419 6.52172 43.177 5.99292 40.4865 6.00009Z" fill="white"/>
<path d="M45.1497 26.5254C45.1479 27.4473 44.8728 28.348 44.3593 29.1137C43.8458 29.8793 43.1169 30.4756 42.2646 30.8271C41.4124 31.1787 40.4751 31.2697 39.5711 31.0888C38.6671 30.9078 37.8371 30.4629 37.1858 29.8104C36.5346 29.1579 36.0914 28.327 35.9122 27.4226C35.733 26.5183 35.8259 25.5812 36.1791 24.7296C36.5323 23.878 37.13 23.1503 37.8967 22.6383C38.6633 22.1263 39.5646 21.853 40.4865 21.853C41.7241 21.8555 42.9102 22.3488 43.7844 23.2248C44.6587 24.1008 45.1497 25.2878 45.1497 26.5254Z" fill="white"/>
</svg>
