<svg width="375" height="275" viewBox="0 0 375 275" fill="none" xmlns="http://www.w3.org/2000/svg">
<path d="M95.1401 182.433L95.1401 182.437C95.1523 185.365 95.932 188.239 97.4015 190.772C98.8711 193.305 100.979 195.409 103.515 196.873L180.604 241.383C183.15 242.856 186.04 243.629 188.982 243.623C191.912 243.623 194.79 242.85 197.326 241.383L274.415 196.873C276.951 195.409 279.059 193.305 280.529 190.772C281.998 188.239 282.778 185.365 282.79 182.437V182.433V93.4334V93.4308C282.78 90.5006 282.001 87.6243 280.531 85.0893C279.062 82.5542 276.953 80.449 274.415 78.9839L274.415 78.9838L197.285 34.4738L197.284 34.473C194.746 33.0164 191.871 32.25 188.945 32.25C186.019 32.25 183.144 33.0164 180.607 34.473L180.605 34.4739L103.515 78.9839C100.977 80.449 98.8685 82.5542 97.3989 85.0893C95.9293 87.6243 95.1505 90.5006 95.1401 93.4308V93.4334L95.1401 182.433Z" fill="#FFD400" stroke="#1F1A54" stroke-width="1.5"/>
<path d="M95.1401 182.433L95.1401 182.437C95.1523 185.365 95.932 188.239 97.4015 190.772C98.8711 193.305 100.979 195.409 103.515 196.873L180.604 241.383C183.15 242.856 186.04 243.629 188.982 243.623C191.912 243.623 194.79 242.85 197.326 241.383L274.415 196.873C276.951 195.409 279.059 193.305 280.529 190.772C281.998 188.239 282.778 185.365 282.79 182.437V182.433V93.4334V93.4308C282.78 90.5006 282.001 87.6243 280.531 85.0893C279.062 82.5542 276.953 80.449 274.415 78.9839L274.415 78.9838L197.285 34.4738L197.284 34.473C194.746 33.0164 191.871 32.25 188.945 32.25C186.019 32.25 183.144 33.0164 180.607 34.473L180.605 34.4739L103.515 78.9839C100.977 80.449 98.8685 82.5542 97.3989 85.0893C95.9293 87.6243 95.1505 90.5006 95.1401 93.4308V93.4334L95.1401 182.433Z" fill="#FFD400" stroke="#1F1A54" stroke-width="1.5"/>
<path d="M188.98 242.873C186.171 242.879 183.411 242.14 180.98 240.733L103.89 196.223C101.468 194.825 99.454 192.815 98.0503 190.396C96.6466 187.976 95.9018 185.231 95.8901 182.433V93.4334C95.9 90.6344 96.644 87.887 98.0478 85.4654C99.4516 83.0439 101.466 81.0329 103.89 79.6334L180.98 35.1234C183.404 33.7321 186.15 33 188.945 33C191.74 33 194.486 33.7321 196.91 35.1234L274.04 79.6334C276.464 81.0329 278.479 83.0439 279.882 85.4654C281.286 87.887 282.03 90.6344 282.04 93.4334V182.433C282.029 185.231 281.284 187.976 279.88 190.396C278.476 192.815 276.463 194.825 274.04 196.223L196.95 240.733C194.528 242.135 191.779 242.873 188.98 242.873Z" fill="#FFD400"/>
<path fill-rule="evenodd" clip-rule="evenodd" d="M95.8901 162.252V141.027C98.1024 139.901 100.41 138.811 102.777 137.693C109.342 134.592 116.363 131.275 123.07 126.373C126.687 123.733 130.791 117.709 134.481 112.296C136.045 110 137.534 107.815 138.88 106.043C139.473 105.264 140.03 104.395 140.548 103.586C141.647 101.872 142.57 100.431 143.29 100.703C144.35 101.103 145.71 103.313 143.73 106.763C143.131 107.808 142.407 108.881 141.775 109.816C140.321 111.971 139.358 113.398 141.54 112.073C143.819 110.73 146.296 109.758 148.88 109.193L156.61 127.193C153.26 130.393 144.36 133.563 144.36 133.563C141.252 134.574 138.71 134.905 136.559 135.186C135.029 135.385 133.697 135.559 132.5 135.933C129.07 137.005 123.426 141.636 116.991 146.917C110.278 152.425 102.705 158.639 95.8901 162.252Z" fill="white"/>
<path fill-rule="evenodd" clip-rule="evenodd" d="M169.84 234.302L152.381 224.221C152.511 220.722 152.63 218.224 152.63 218.224L152.09 192.004L172.59 193.224L171.22 218.844C171.069 224.182 170.535 229.33 169.84 234.302Z" fill="white"/>
<path fill-rule="evenodd" clip-rule="evenodd" d="M153.065 224.616L151.75 223.857C151.847 221.27 151.935 219.292 151.967 218.575C151.975 218.392 151.98 218.291 151.98 218.284L151.44 192.074C151.44 191.875 151.519 191.684 151.66 191.544C151.81 191.414 152.002 191.343 152.2 191.344L172.7 192.564C172.793 192.569 172.885 192.592 172.969 192.633C173.053 192.673 173.128 192.73 173.191 192.8C173.253 192.869 173.301 192.951 173.332 193.039C173.362 193.127 173.375 193.22 173.37 193.314L172.01 218.914C171.855 224.404 171.302 229.647 170.582 234.73L169.17 233.915C169.845 229.049 170.356 224.036 170.5 218.804L171.8 193.874L152.8 192.744L153.32 218.234C153.32 218.252 153.312 218.438 153.298 218.765C153.256 219.724 153.163 221.897 153.065 224.616Z" fill="#1F1A54"/>
<path fill-rule="evenodd" clip-rule="evenodd" d="M180.98 240.733C183.411 242.14 186.171 242.879 188.98 242.873C191.778 242.873 194.528 242.135 196.95 240.733L248.11 211.195V195.634L265.65 195.474C265.65 195.474 267.71 155.304 259.87 145.854C253.71 138.444 224.12 127.604 224.12 127.604L219.22 133.524C217.25 135.912 214.686 137.74 211.787 138.826C208.888 139.912 205.754 140.217 202.7 139.711C199.645 139.204 196.778 137.904 194.384 135.941C191.99 133.978 190.154 131.42 189.06 128.524C189.06 128.524 166.43 137.654 160.61 142.604C156.68 145.964 153.44 149.904 152.34 163.354C150.63 184.214 150.63 192.734 150.63 192.734H163.5V192.774C163.78 196.374 163.98 199.774 163.98 202.424C163.98 206.601 163.769 218.188 163.515 230.649L180.98 240.733Z" fill="#FFD400"/>
<path d="M265.67 196.184C265.853 196.184 266.029 196.113 266.162 195.987C266.294 195.86 266.372 195.687 266.38 195.504C266.46 193.854 268.38 154.954 260.43 145.404C254.22 137.924 225.6 127.404 224.38 126.934C224.241 126.884 224.09 126.877 223.947 126.915C223.804 126.952 223.676 127.032 223.58 127.144L218.68 133.064C216.786 135.344 214.328 137.089 211.551 138.127C208.775 139.164 205.775 139.457 202.85 138.977C199.924 138.497 197.176 137.26 194.876 135.39C192.576 133.519 190.806 131.08 189.74 128.314C189.706 128.225 189.656 128.144 189.59 128.075C189.525 128.007 189.447 127.952 189.36 127.914C189.271 127.877 189.176 127.858 189.08 127.858C188.984 127.858 188.889 127.877 188.8 127.914C187.87 128.284 166 137.144 160.16 142.114C156.16 145.514 152.77 149.464 151.64 163.354C149.94 183.994 149.92 192.704 149.92 192.784C149.92 192.975 149.996 193.158 150.131 193.293C150.266 193.428 150.449 193.504 150.64 193.504H163.5C163.601 193.516 163.703 193.506 163.8 193.476C163.897 193.445 163.987 193.395 164.063 193.327C164.139 193.259 164.2 193.177 164.241 193.084C164.283 192.991 164.305 192.89 164.305 192.789C164.305 192.687 164.283 192.587 164.241 192.494C164.2 192.401 164.139 192.318 164.063 192.251C163.987 192.183 163.897 192.132 163.8 192.102C163.703 192.071 163.601 192.062 163.5 192.074H151.36C151.36 189.624 151.64 180.754 153.07 163.464C154.15 150.114 157.34 146.394 161.07 143.204C166.18 138.844 184.87 131.064 188.65 129.504C189.889 132.409 191.855 134.946 194.358 136.87C196.862 138.795 199.819 140.043 202.945 140.493C206.071 140.943 209.26 140.581 212.205 139.44C215.15 138.3 217.752 136.421 219.76 133.984L224.34 128.454C228.16 129.884 253.77 139.644 259.34 146.324C266.34 154.794 265.21 189.494 264.99 194.774L237.47 195.034C237.29 191.784 238.1 177.544 236.47 166.954C236.461 166.856 236.432 166.76 236.385 166.674C236.338 166.587 236.274 166.511 236.197 166.451C236.119 166.39 236.03 166.346 235.935 166.321C235.839 166.296 235.74 166.291 235.643 166.306C235.545 166.321 235.452 166.356 235.369 166.408C235.285 166.461 235.214 166.53 235.158 166.611C235.103 166.693 235.064 166.785 235.046 166.881C235.027 166.978 235.029 167.078 235.05 167.174C236.74 177.994 236.05 193.034 235.96 195.784C235.95 195.845 235.953 195.907 235.969 195.967C235.985 196.026 236.013 196.082 236.051 196.13C236.09 196.178 236.138 196.218 236.193 196.246C236.248 196.274 236.308 196.29 236.37 196.294C239.99 196.534 265.67 196.184 265.67 196.184Z" fill="#1F1A54"/>
<path fill-rule="evenodd" clip-rule="evenodd" d="M164.253 231.076C164.513 218.44 164.73 206.627 164.73 202.423C164.73 200.003 164.57 196.823 164.24 192.723C163.3 181.153 161.3 167.093 161.24 166.953C161.235 166.853 161.209 166.755 161.165 166.665C161.12 166.576 161.057 166.497 160.98 166.433C160.903 166.369 160.813 166.322 160.717 166.295C160.62 166.268 160.519 166.261 160.42 166.275C160.321 166.289 160.226 166.323 160.141 166.376C160.056 166.429 159.983 166.498 159.926 166.581C159.87 166.664 159.831 166.757 159.813 166.856C159.795 166.954 159.797 167.055 159.82 167.153C159.82 167.174 159.865 167.508 159.945 168.099C160.397 171.447 161.963 183.042 162.77 192.833C163.1 196.903 163.25 200.033 163.25 202.423C163.25 206.527 163.043 217.914 162.791 230.232L164.253 231.076ZM248.84 210.773L247.4 211.605V195.633C247.4 195.442 247.476 195.258 247.611 195.123C247.746 194.988 247.929 194.913 248.12 194.913C248.311 194.913 248.494 194.988 248.629 195.123C248.764 195.258 248.84 195.442 248.84 195.633V210.773Z" fill="#1F1A54"/>
<path d="M163.85 197.822H248.12V204.952H163.97C163.97 203.952 163.97 203.082 163.97 202.422C163.99 201.052 163.94 199.492 163.85 197.822Z" fill="#1F1A54"/>
<path fill-rule="evenodd" clip-rule="evenodd" d="M204.26 236.513H173.67L163.519 230.652C163.53 230.228 163.541 229.805 163.55 229.383H216.609L204.26 236.513Z" fill="#1F1A54"/>
<path d="M248.12 213.633V220.763H163.72C163.77 218.233 163.81 215.843 163.85 213.633H248.12Z" fill="#1F1A54"/>
<path d="M265.9 182.043C265.9 184.713 265.9 187.133 265.9 189.173H150.72C150.78 187.463 150.88 185.113 151.05 182.043H265.9Z" fill="#1F1A54"/>
<path d="M262.3 150.482C263.088 152.811 263.69 155.198 264.1 157.622H153.1C153.463 155.185 154.08 152.792 154.94 150.482H262.3Z" fill="#1F1A54"/>
<path d="M192.98 134.713C194.627 136.369 196.584 137.683 198.741 138.58C200.897 139.476 203.21 139.938 205.545 139.938C207.88 139.938 210.193 139.476 212.349 138.58C214.505 137.683 216.463 136.369 218.11 134.713H241.39C246.07 136.771 250.602 139.153 254.95 141.843H161.67C165.895 139.115 170.333 136.731 174.94 134.713H192.98Z" fill="#1F1A54"/>
<path d="M265.2 166.264C265.41 168.634 265.57 171.034 265.67 173.394H151.59C151.737 171.227 151.913 168.85 152.12 166.264H265.2Z" fill="#1F1A54"/>
<path d="M197.911 67.2842C197.177 67.883 187.643 75.5434 193.078 75.3782C198.513 75.213 213.412 67.8726 213.864 67.6455C213.793 67.9036 212.859 70.4227 213.14 77.0713C213.171 79.0732 213.608 81.0464 214.422 82.865C215.237 84.6836 216.412 86.3074 217.872 87.6328C219.169 84.7497 221.434 82.444 224.251 81.139C227.316 79.8485 230.581 81.3558 232.459 84.5253C233.072 81.5313 236.889 75.3988 234.961 66.9744C234.232 63.8624 232.341 61.1699 229.696 59.4792H229.616C228.753 58.8757 227.818 58.3898 226.833 58.0338C226.466 57.8728 226.087 57.7449 225.698 57.6519C225.433 57.1807 225.141 56.7257 224.824 56.2891C215.331 42.6511 190.205 48.8145 176.603 62.3906C165.311 73.6747 172.022 76.9681 178.1 74.9859L179.858 74.3768C185.544 72.25 197.107 67.6145 197.911 67.2842Z" fill="#1F1A54"/>
<path d="M219.57 125.822L224.13 127.602L219.23 133.522C217.26 135.91 214.697 137.739 211.797 138.825C208.898 139.911 205.764 140.216 202.71 139.71C199.655 139.203 196.788 137.903 194.394 135.94C192 133.976 190.164 131.418 189.07 128.522L192.18 126.792V118.792C186.28 117.402 182.87 113.412 180.98 107.472C178.9 101.052 179.1 85.4722 179.78 74.8122V74.7622C185.44 72.7622 196.95 68.3122 197.78 67.9922C197.05 68.5722 187.56 75.9922 192.97 75.8322C198.38 75.6722 213.21 68.5622 213.66 68.3422C213.59 68.5922 212.66 71.0322 212.94 77.4722C212.97 79.4112 213.405 81.3225 214.216 83.084C215.027 84.8455 216.197 86.4184 217.65 87.7022C218.941 84.9096 221.195 82.6762 224 81.4122C227.05 80.1622 230.3 81.6222 232.17 84.6922C233.673 87.2771 234.148 90.3331 233.5 93.2522C232.19 99.9722 226.77 103.592 219.61 104.642L219.57 125.822Z" fill="white"/>
<path d="M195.35 119.912C199.14 119.912 205.66 118.632 209.6 114.832C209.713 114.696 209.772 114.523 209.764 114.346C209.756 114.168 209.682 114.001 209.557 113.876C209.431 113.75 209.264 113.676 209.087 113.668C208.91 113.66 208.736 113.719 208.6 113.832C204.34 117.952 196.77 118.832 193.85 118.412C193.348 118.344 192.851 118.248 192.36 118.122C187.02 116.862 183.62 113.422 181.66 107.282C179.7 101.142 179.78 85.9723 180.49 74.8823C180.497 74.7882 180.485 74.6937 180.455 74.6044C180.424 74.515 180.377 74.4325 180.314 74.3618C180.252 74.291 180.176 74.2334 180.091 74.1923C180.006 74.1512 179.914 74.1274 179.82 74.1223C179.631 74.1113 179.445 74.1755 179.302 74.301C179.16 74.4265 179.073 74.603 179.06 74.7923C178.35 86.0123 178.24 101.362 180.3 107.712C182.4 114.282 186.23 118.142 192.02 119.512C192.557 119.644 193.102 119.748 193.65 119.822C194.214 119.894 194.782 119.924 195.35 119.912Z" fill="#1F1A54"/>
<path d="M198.95 107.243C198.996 107.253 199.044 107.253 199.09 107.243C200.899 106.89 202.573 106.04 203.924 104.787C205.276 103.535 206.251 101.93 206.74 100.153C206.779 99.9677 206.745 99.7743 206.644 99.6138C206.543 99.4533 206.384 99.3383 206.2 99.2931C206.014 99.2512 205.82 99.2844 205.659 99.3856C205.497 99.4868 205.383 99.6477 205.34 99.8331C204.913 101.341 204.075 102.7 202.92 103.76C201.765 104.819 200.339 105.537 198.8 105.833C198.621 105.862 198.459 105.959 198.349 106.103C198.238 106.247 198.188 106.428 198.207 106.609C198.226 106.79 198.314 106.956 198.452 107.074C198.59 107.192 198.769 107.253 198.95 107.243Z" fill="#1F1A54"/>
<path d="M193.5 98.5425C194.405 98.5234 195.296 98.3085 196.11 97.9125C196.197 97.8684 196.274 97.8071 196.337 97.7322C196.4 97.6573 196.447 97.5704 196.475 97.4769C196.503 97.3833 196.511 97.2851 196.5 97.188C196.489 97.091 196.458 96.9973 196.41 96.9125C196.366 96.8255 196.304 96.7482 196.23 96.6853C196.155 96.6224 196.069 96.5751 195.975 96.5462C195.882 96.5173 195.784 96.5074 195.687 96.5171C195.59 96.5267 195.496 96.5558 195.41 96.6025C195.41 96.6025 193.41 97.6025 192 96.6025C191.843 96.4941 191.65 96.4523 191.463 96.486C191.275 96.5197 191.109 96.6263 191 96.7825C190.946 96.8602 190.907 96.948 190.887 97.0408C190.867 97.1336 190.866 97.2294 190.884 97.3226C190.902 97.4158 190.938 97.5046 190.99 97.5835C191.043 97.6625 191.111 97.7302 191.19 97.7825C191.861 98.2731 192.669 98.5391 193.5 98.5425Z" fill="#1F1A54"/>
<path d="M219.55 105.353C227.75 104.163 232.89 99.9132 234.16 93.3532C234.846 90.2634 234.343 87.0283 232.75 84.2932C230.63 80.8032 227 79.3732 223.7 80.7232C220.728 82.0474 218.34 84.4075 216.98 87.3632C216.767 87.8053 216.58 88.2594 216.42 88.7232C216.391 88.8125 216.38 88.9066 216.388 89.0002C216.395 89.0937 216.421 89.1849 216.464 89.2685C216.506 89.3521 216.565 89.4264 216.636 89.4873C216.708 89.5481 216.791 89.5943 216.88 89.6232C216.969 89.6521 217.063 89.6631 217.157 89.6556C217.25 89.6482 217.342 89.6223 217.425 89.5796C217.509 89.5369 217.583 89.4781 217.644 89.4067C217.705 89.3352 217.751 89.2525 217.78 89.1632C217.92 88.7573 218.084 88.36 218.27 87.9732C219.486 85.3355 221.618 83.2286 224.27 82.0432C226.88 80.9732 229.81 82.1732 231.54 85.0432C232.94 87.4607 233.382 90.3153 232.78 93.0432C231.31 100.593 224.78 103.043 219.48 103.863C219.389 103.864 219.299 103.884 219.216 103.921C219.132 103.957 219.057 104.01 218.995 104.076C218.932 104.143 218.884 104.221 218.852 104.306C218.82 104.391 218.806 104.482 218.81 104.573C218.807 104.673 218.824 104.772 218.86 104.866C218.896 104.959 218.95 105.044 219.018 105.117C219.087 105.189 219.169 105.247 219.261 105.288C219.352 105.328 219.45 105.351 219.55 105.353Z" fill="#1F1A54"/>
<path d="M232.15 85.3832C232.313 85.3846 232.472 85.3297 232.599 85.2277C232.727 85.1257 232.815 84.9828 232.85 84.8232C233.074 83.9831 233.351 83.158 233.68 82.3532C234.94 79.0032 236.85 73.9332 235.34 67.4732C234.572 64.2804 232.578 61.518 229.79 59.7832C229.632 59.6785 229.439 59.6407 229.253 59.6782C229.068 59.7157 228.905 59.8254 228.8 59.9832C228.695 60.141 228.657 60.334 228.695 60.5197C228.732 60.7053 228.842 60.8685 229 60.9732C230.233 61.7269 231.305 62.7177 232.153 63.8884C233.001 65.059 233.608 66.3863 233.94 67.7932C235.36 73.7932 233.54 78.6632 232.34 81.8532C231.984 82.7226 231.687 83.6145 231.45 84.5232C231.411 84.7102 231.449 84.9048 231.554 85.0642C231.659 85.2236 231.823 85.3347 232.01 85.3732L232.15 85.3832Z" fill="#1F1A54"/>
<path d="M229.32 61.0724C229.476 61.077 229.628 61.0303 229.755 60.9395C229.881 60.8488 229.974 60.719 230.02 60.5701C230.065 60.4212 230.061 60.2615 230.006 60.1156C229.952 59.9696 229.852 59.8455 229.72 59.7624C228.807 59.1492 227.819 58.6552 226.78 58.2924C226.488 58.1648 226.187 58.0579 225.88 57.9724C225.6 57.5224 225.37 57.1724 225.11 56.8324C224.987 56.7041 224.82 56.626 224.643 56.6132C224.465 56.6004 224.289 56.6539 224.148 56.7633C224.008 56.8727 223.913 57.0302 223.882 57.2055C223.851 57.3808 223.886 57.5614 223.98 57.7124C224.255 58.074 224.509 58.4513 224.74 58.8424C224.868 59.046 225.057 59.2036 225.28 59.2924C225.622 59.3744 225.956 59.4847 226.28 59.6224C227.218 59.9483 228.108 60.3954 228.93 60.9524C229.047 61.0268 229.182 61.0682 229.32 61.0724Z" fill="#1F1A54"/>
<path d="M174.76 76.6327C175.935 76.6199 177.101 76.4311 178.22 76.0727L179.99 75.4827C185.71 73.4827 197.21 69.0027 197.99 68.6927C198.085 68.6627 198.172 68.6135 198.247 68.5481C198.322 68.4826 198.382 68.4024 198.425 68.3125C198.467 68.2226 198.49 68.1249 198.493 68.0255C198.495 67.9262 198.478 67.8274 198.44 67.7353C198.403 67.6432 198.347 67.5599 198.276 67.4905C198.204 67.4212 198.12 67.3673 198.027 67.3323C197.934 67.2973 197.834 67.2819 197.735 67.2871C197.636 67.2924 197.539 67.3181 197.45 67.3627C196.67 67.6827 185.21 72.1527 179.51 74.1327L177.77 74.7127C174.95 75.6127 172.29 75.2527 171.45 73.8727C170.91 72.9727 170.36 70.1727 177.01 63.7027C185.9 55.0827 199.64 49.7027 210.41 50.7027C216.41 51.2327 221.04 53.6527 223.93 57.7027C224.042 57.8551 224.209 57.958 224.396 57.9897C224.582 58.0214 224.774 57.9795 224.93 57.8727C225.008 57.8188 225.074 57.75 225.124 57.6703C225.175 57.5906 225.209 57.5015 225.225 57.4084C225.241 57.3153 225.238 57.2199 225.217 57.1279C225.195 57.0359 225.155 56.9492 225.1 56.8727C221.95 52.4727 216.92 49.8727 210.54 49.2827C199.39 48.2827 185.18 53.7927 176.01 62.6927C169.25 69.2727 169.13 72.8027 170.23 74.6227C171.11 76.0127 172.85 76.6327 174.76 76.6327Z" fill="#1F1A54"/>
<path d="M192.81 76.5433H192.93C198.21 76.4433 211.29 70.2533 213.86 69.0133C213.95 68.9718 214.034 68.918 214.11 68.8533C214.239 68.7191 214.312 68.5398 214.312 68.3533C214.312 68.1668 214.239 67.9875 214.11 67.8533C213.995 67.7342 213.841 67.6599 213.676 67.6434C213.512 67.6269 213.346 67.6694 213.21 67.7633C206.21 71.1433 196.74 75.0633 192.89 75.1433C192.12 75.1433 191.96 74.9933 191.96 74.9933C191.88 74.6633 192.8 72.8333 198.05 68.6633C198.133 68.6251 198.208 68.5707 198.27 68.5033C198.394 68.3834 198.47 68.2225 198.484 68.0508C198.498 67.879 198.449 67.708 198.346 67.5696C198.243 67.4313 198.093 67.3351 197.925 67.299C197.756 67.2628 197.58 67.2893 197.43 67.3733L197.28 67.4633C189.85 73.3633 190.42 74.9233 190.63 75.4633C190.84 76.0033 191.62 76.5433 192.81 76.5433Z" fill="#1F1A54"/>
<path d="M217.6 88.4223C217.71 88.4216 217.818 88.3961 217.917 88.3476C218.016 88.2991 218.102 88.2289 218.17 88.1423C218.283 87.9918 218.334 87.8028 218.309 87.6158C218.285 87.4288 218.188 87.2588 218.04 87.1423C216.677 85.9144 215.581 84.4201 214.819 82.7516C214.057 81.0832 213.646 79.2762 213.61 77.4423C213.4 72.0523 214 69.4424 214.27 68.6124L212.92 68.1523C212.54 69.3423 211.97 72.0924 212.18 77.5023C212.212 79.5477 212.673 81.5636 213.535 83.419C214.396 85.2744 215.638 86.928 217.18 88.2723C217.301 88.3649 217.448 88.4174 217.6 88.4223Z" fill="#1F1A54"/>
<path d="M224.426 59.2566C225.37 58.8217 226.366 58.5111 227.389 58.3327L227.447 58.277C235.696 52.9353 234.475 45.7318 229.673 48.5939C224.87 51.456 224.426 59.2566 224.426 59.2566Z" fill="#1F1A54"/>
<path d="M225.9 59.7177L226.028 59.7394C229.359 59.7159 232.099 56.6001 233.332 53.5129C234.072 51.6606 234.456 49.2811 233.287 48.1599C232.806 47.7032 231.892 47.2945 230.272 47.9936C224.87 50.3637 224.591 55.895 224.598 57.5291C224.602 57.5849 224.61 57.6403 224.62 57.6952C224.648 57.8406 224.719 57.9739 224.825 58.0772C224.931 58.1804 225.066 58.2485 225.212 58.2723C225.398 58.3038 225.588 58.2602 225.742 58.1512C225.895 58.0422 225.999 57.8766 226.031 57.691C226.058 57.6152 226.072 57.535 226.071 57.4544C226.046 55.9287 226.347 51.2836 230.852 49.2989C231.247 49.1224 231.938 48.8745 232.291 49.1879C232.643 49.5012 232.764 51.0634 231.992 52.9814C230.936 55.6219 228.668 58.2903 226.016 58.3173C225.838 58.3173 225.666 58.3843 225.535 58.5049C225.404 58.6255 225.323 58.7909 225.308 58.9684C225.294 59.1459 225.346 59.3224 225.455 59.4631C225.565 59.6037 225.723 59.6981 225.899 59.7275L225.9 59.7177Z" fill="#1F1A54"/>
<path d="M226.55 58.9624C227.53 59.3072 228.461 59.7778 229.32 60.3624H229.4C239.04 62.2724 243.18 56.2524 237.74 54.9624C232.3 53.6724 226.55 58.9624 226.55 58.9624Z" fill="#1F1A54"/>
<path d="M232.98 61.4539C237.38 61.4539 240.36 59.7239 240.82 57.6239C241.09 56.4039 240.46 54.8839 237.9 54.2839C232.11 52.9439 226.31 58.2239 226.06 58.4439C225.928 58.5769 225.854 58.7566 225.854 58.9439C225.854 59.1312 225.928 59.311 226.06 59.4439C226.194 59.5735 226.373 59.6459 226.56 59.6459C226.746 59.6459 226.926 59.5735 227.06 59.4439C227.11 59.4439 232.55 54.4439 237.6 55.6239C238.08 55.7339 239.67 56.1939 239.44 57.2639C239.13 58.6639 235.83 60.8639 229.56 59.6339C229.453 59.5967 229.338 59.5859 229.226 59.6026C229.114 59.6194 229.008 59.663 228.917 59.7299C228.825 59.7968 228.751 59.8849 228.701 59.9866C228.651 60.0883 228.627 60.2007 228.63 60.3139C228.633 60.479 228.692 60.6381 228.798 60.7652C228.903 60.8924 229.048 60.98 229.21 61.0139H229.28C230.496 61.2794 231.735 61.4268 232.98 61.4539Z" fill="#1F1A54"/>
<path d="M221.65 96.4733C221.827 96.4742 221.998 96.4091 222.129 96.2907C222.26 96.1724 222.343 96.0093 222.36 95.8333C222.94 89.7533 226.64 89.1233 226.68 89.1233C226.773 89.1099 226.862 89.0782 226.942 89.0302C227.023 88.9821 227.093 88.9186 227.149 88.8433C227.204 88.768 227.245 88.6824 227.267 88.5914C227.29 88.5005 227.294 88.406 227.28 88.3133C227.25 88.1252 227.148 87.9565 226.994 87.844C226.84 87.7316 226.648 87.6846 226.46 87.7133C226.26 87.7133 221.62 88.5233 220.93 95.7133C220.913 95.9029 220.972 96.0913 221.094 96.2374C221.216 96.3836 221.391 96.4756 221.58 96.4933L221.65 96.4733Z" fill="#1F1A54"/>
<path d="M197.18 83.1235C197.331 83.1227 197.479 83.0737 197.6 82.9835C198.425 82.4596 199.377 82.1715 200.353 82.1503C201.33 82.1292 202.294 82.3758 203.14 82.8635C203.219 82.9161 203.307 82.9528 203.4 82.9712C203.493 82.9897 203.589 82.9896 203.682 82.971C203.774 82.9524 203.863 82.9157 203.941 82.8629C204.02 82.8102 204.088 82.7424 204.14 82.6635C204.194 82.5845 204.231 82.4957 204.249 82.4021C204.268 82.3085 204.267 82.2122 204.247 82.1189C204.228 82.0255 204.19 81.9371 204.135 81.8589C204.081 81.7806 204.011 81.7142 203.93 81.6635C202.838 81.0198 201.588 80.6945 200.321 80.7246C199.054 80.7546 197.82 81.1387 196.76 81.8335C196.684 81.8888 196.62 81.9588 196.571 82.0392C196.522 82.1197 196.49 82.209 196.476 82.3021C196.462 82.3951 196.467 82.49 196.49 82.5812C196.513 82.6725 196.554 82.7582 196.61 82.8335C196.676 82.9224 196.762 82.9949 196.861 83.0452C196.96 83.0955 197.069 83.1223 197.18 83.1235Z" fill="#1F1A54"/>
<path d="M183.59 83.1224C183.744 83.1204 183.894 83.0716 184.02 82.9824C184.847 82.4608 185.801 82.1741 186.778 82.153C187.756 82.1318 188.721 82.3771 189.57 82.8624C189.649 82.9151 189.737 82.9517 189.83 82.9701C189.923 82.9886 190.019 82.9885 190.112 82.97C190.204 82.9514 190.293 82.9146 190.371 82.8619C190.45 82.8091 190.518 82.7413 190.57 82.6624C190.625 82.584 190.663 82.4951 190.682 82.4012C190.702 82.3074 190.701 82.2106 190.682 82.1169C190.662 82.0231 190.623 81.9344 190.568 81.8563C190.513 81.7781 190.442 81.7121 190.36 81.6624C189.265 81.0181 188.011 80.6926 186.741 80.7226C185.47 80.7526 184.234 81.137 183.17 81.8324C183.05 81.9217 182.961 82.0469 182.916 82.1899C182.871 82.3329 182.873 82.4865 182.92 82.6285C182.968 82.7706 183.059 82.8939 183.182 82.9809C183.304 83.0678 183.45 83.1138 183.6 83.1124L183.59 83.1224Z" fill="#1F1A54"/>
<path d="M205.66 140.632C208.364 140.637 211.035 140.038 213.478 138.879C215.92 137.72 218.074 136.03 219.78 133.932L224.69 128.012C224.759 127.925 224.808 127.822 224.832 127.713C224.857 127.604 224.856 127.491 224.83 127.382C224.801 127.274 224.747 127.174 224.673 127.091C224.598 127.007 224.504 126.943 224.4 126.902L220.29 125.292V104.632C220.29 104.441 220.214 104.258 220.079 104.123C219.944 103.988 219.761 103.912 219.57 103.912C219.477 103.911 219.384 103.928 219.297 103.962C219.211 103.997 219.132 104.048 219.065 104.113C218.998 104.178 218.945 104.256 218.908 104.341C218.871 104.427 218.851 104.519 218.85 104.612V125.812C218.851 125.956 218.895 126.096 218.977 126.214C219.06 126.331 219.176 126.422 219.31 126.472L222.95 127.892L218.68 133.052C216.82 135.295 214.414 137.022 211.694 138.067C208.974 139.113 206.031 139.441 203.147 139.022C200.263 138.602 197.536 137.448 195.227 135.671C192.917 133.893 191.104 131.552 189.96 128.872L192.53 127.452C192.642 127.39 192.736 127.298 192.801 127.188C192.866 127.077 192.9 126.951 192.9 126.822V118.822C192.879 118.647 192.795 118.486 192.663 118.369C192.531 118.252 192.361 118.187 192.185 118.187C192.009 118.187 191.839 118.252 191.707 118.369C191.575 118.486 191.491 118.647 191.47 118.822V126.442L188.72 127.972C188.57 128.053 188.454 128.186 188.395 128.347C188.336 128.507 188.338 128.683 188.4 128.842C189.522 131.863 191.427 134.53 193.921 136.571C196.415 138.611 199.407 139.951 202.59 140.452C203.607 140.596 204.633 140.656 205.66 140.632Z" fill="#1F1A54"/>
<path d="M186.5 86.4429C186.098 86.3566 185.678 86.3965 185.299 86.5574C184.92 86.7182 184.6 86.9921 184.383 87.3416C184.165 87.6911 184.061 88.0992 184.084 88.5102C184.107 88.9213 184.256 89.3152 184.511 89.6382C184.766 89.9613 185.115 90.1977 185.51 90.3152C185.904 90.4327 186.325 90.4256 186.716 90.2949C187.106 90.1642 187.447 89.9161 187.691 89.5847C187.935 89.2532 188.071 88.8545 188.08 88.4429C188.109 88.2076 188.092 87.9688 188.028 87.7404C187.964 87.512 187.855 87.2986 187.708 87.1125C187.561 86.9264 187.379 86.7714 187.171 86.6565C186.964 86.5415 186.736 86.4689 186.5 86.4429Z" fill="#1F1A54"/>
<path d="M200.76 86.1937C200.358 86.101 199.937 86.1349 199.555 86.2909C199.173 86.4469 198.848 86.7173 198.626 87.0649C198.403 87.4126 198.294 87.8205 198.313 88.2328C198.331 88.6451 198.477 89.0415 198.73 89.3677C198.983 89.6939 199.33 89.9339 199.725 90.0548C200.119 90.1757 200.542 90.1716 200.934 90.043C201.326 89.9144 201.669 89.6676 201.915 89.3366C202.161 89.0055 202.299 88.6063 202.31 88.1937C202.367 87.7235 202.236 87.2498 201.946 86.8754C201.655 86.501 201.229 86.2561 200.76 86.1937Z" fill="#1F1A54"/>
<path fill-rule="evenodd" clip-rule="evenodd" d="M95.8901 163.02C102.775 159.423 110.387 153.136 117.27 147.393L117.612 147.113C123.917 141.941 129.349 137.486 132.62 136.503C133.93 136.147 135.269 135.903 136.62 135.773C139.305 135.486 141.954 134.933 144.53 134.123C144.91 133.993 153.61 130.863 157.02 127.613C157.113 127.523 157.177 127.408 157.203 127.281C157.23 127.155 157.219 127.023 157.17 126.903L149.44 108.903C149.384 108.774 149.288 108.667 149.165 108.598C149.042 108.529 148.899 108.503 148.76 108.523C146.21 109.061 143.76 109.996 141.5 111.293L142.28 110.123C142.94 109.173 143.66 108.103 144.28 107.033C144.794 106.291 145.133 105.443 145.274 104.551C145.414 103.659 145.351 102.747 145.09 101.883C144.969 101.486 144.764 101.119 144.49 100.807C144.216 100.495 143.878 100.245 143.5 100.073C142.25 99.6134 141.26 101.183 140 103.183L139.967 103.236C139.458 104.049 138.938 104.879 138.36 105.623C137.01 107.403 135.52 109.583 133.95 111.893L133.923 111.933C130.299 117.244 126.201 123.25 122.69 125.813C116.06 130.653 109.22 133.903 102.6 137.033C100.331 138.057 98.0936 139.147 95.8901 140.302V141.831C98.284 140.567 100.719 139.381 103.19 138.273C109.86 135.113 116.76 131.843 123.49 126.933C127.19 124.233 131.37 118.103 135.05 112.703C136.61 110.403 138.09 108.243 139.43 106.483C140.04 105.673 140.62 104.763 141.13 103.953C141.76 102.943 142.73 101.413 143.13 101.353C143.515 101.577 143.806 101.932 143.95 102.353C144.139 103.047 144.171 103.773 144.045 104.48C143.919 105.188 143.637 105.858 143.22 106.443C142.63 107.443 141.92 108.513 141.29 109.443C139.87 111.583 139.42 112.463 139.87 112.973C140.32 113.483 141.08 113.093 141.87 112.603C143.942 111.396 146.174 110.487 148.5 109.903L155.88 127.023C152.44 129.963 144.26 132.963 144.18 132.963C141.683 133.748 139.113 134.281 136.51 134.553C135.1 134.689 133.705 134.946 132.34 135.323H132.35C128.78 136.453 123.13 141.073 116.58 146.453L116.509 146.512C109.816 151.993 102.483 158 95.8901 161.552V163.02Z" fill="#1F1A54"/>
<path d="M137.449 109.859L141.7 98.6797L136.924 96.8634L132.673 108.042L137.449 109.859Z" fill="#1F1A54"/>
<path d="M137.22 110.453L132.44 108.633C132.286 108.571 132.161 108.453 132.09 108.303C132.058 108.225 132.041 108.142 132.041 108.058C132.041 107.974 132.058 107.89 132.09 107.813L136.32 96.6327C136.381 96.4755 136.501 96.3486 136.654 96.2793C136.808 96.21 136.982 96.2041 137.14 96.2627L141.92 98.0727C142.076 98.1353 142.201 98.2555 142.27 98.4083C142.339 98.5611 142.346 98.7347 142.29 98.8927L138.04 110.073C138.011 110.151 137.967 110.223 137.91 110.285C137.853 110.346 137.784 110.395 137.708 110.43C137.631 110.464 137.549 110.483 137.465 110.485C137.381 110.488 137.298 110.473 137.22 110.443V110.453ZM137.29 97.6827L133.5 107.633L137.08 108.993L140.88 98.9927L137.29 97.6827Z" fill="#1F1A54"/>
<path d="M139.56 115.633L165.3 104.073C165.684 103.9 165.985 103.582 166.135 103.188C166.285 102.795 166.272 102.357 166.1 101.973L161.29 91.2628C161.205 91.0712 161.082 90.8984 160.93 90.7544C160.777 90.6104 160.598 90.4979 160.402 90.4236C160.205 90.3492 159.997 90.3144 159.787 90.3211C159.577 90.3279 159.371 90.376 159.18 90.4628L136.79 100.463C135.596 101.795 134.94 103.524 134.95 105.313L139.56 115.633Z" fill="#FFF2A5"/>
<path d="M139.33 116.263C139.252 116.233 139.18 116.187 139.12 116.129C139.06 116.07 139.012 116 138.98 115.923L135.25 107.633C134.55 106.066 134.499 104.286 135.108 102.682C135.717 101.078 136.937 99.7803 138.5 99.073L158.05 90.293C158.817 89.9512 159.688 89.9266 160.473 90.2244C161.258 90.5223 161.893 91.1185 162.24 91.883L166.24 100.883C166.584 101.649 166.61 102.521 166.312 103.307C166.014 104.093 165.416 104.728 164.65 105.073L139.77 116.243C139.703 116.272 139.632 116.292 139.56 116.303C139.482 116.303 139.404 116.289 139.33 116.263ZM158.59 91.453L139.03 100.233C138.407 100.513 137.844 100.913 137.376 101.411C136.907 101.908 136.541 102.493 136.299 103.132C136.056 103.771 135.942 104.451 135.963 105.135C135.984 105.818 136.139 106.49 136.42 107.113L139.88 114.823L164.18 103.913C164.638 103.706 164.996 103.325 165.174 102.854C165.352 102.384 165.336 101.862 165.13 101.403L161.13 92.403C160.971 92.0443 160.705 91.7439 160.369 91.5432C160.032 91.3425 159.641 91.2516 159.25 91.283C159.022 91.3015 158.799 91.359 158.59 91.453Z" fill="#1F1A54"/>
<path d="M162.39 106.074C162.462 106.063 162.533 106.043 162.6 106.014C162.753 105.944 162.872 105.816 162.932 105.659C162.992 105.502 162.988 105.328 162.92 105.174L156.8 91.5635C156.767 91.486 156.72 91.4158 156.659 91.357C156.599 91.2982 156.528 91.2521 156.45 91.2214C156.371 91.1906 156.288 91.1758 156.204 91.1779C156.119 91.18 156.037 91.1989 155.96 91.2335C155.806 91.3054 155.687 91.4346 155.627 91.5934C155.567 91.7522 155.572 91.9281 155.64 92.0835L161.76 105.694C161.812 105.815 161.901 105.917 162.014 105.985C162.127 106.053 162.258 106.084 162.39 106.074Z" fill="#1F1A54"/>
<path d="M149.67 131.793L156.26 128.793L148.07 115.793C147.829 115.408 147.672 114.976 147.612 114.525C147.552 114.075 147.589 113.617 147.721 113.182C147.852 112.747 148.076 112.345 148.376 112.004C148.676 111.663 149.046 111.389 149.46 111.203L139.56 115.653L149.67 131.793Z" fill="#1F1A54"/>
<path d="M149.13 132.132L139.02 116.002C138.972 115.926 138.941 115.839 138.929 115.75C138.917 115.66 138.924 115.569 138.95 115.482C138.976 115.394 139.02 115.313 139.081 115.244C139.141 115.175 139.216 115.119 139.3 115.082L149.2 110.632C149.354 110.565 149.528 110.56 149.686 110.62C149.843 110.68 149.97 110.799 150.04 110.952C150.076 111.028 150.097 111.111 150.1 111.195C150.104 111.279 150.09 111.362 150.06 111.441C150.03 111.52 149.985 111.591 149.926 111.652C149.868 111.712 149.798 111.76 149.72 111.792C149.389 111.94 149.093 112.157 148.853 112.429C148.613 112.701 148.434 113.022 148.329 113.369C148.224 113.716 148.194 114.082 148.243 114.441C148.291 114.801 148.417 115.145 148.61 115.452L156.8 128.452C156.85 128.529 156.882 128.616 156.895 128.707C156.907 128.797 156.9 128.89 156.873 128.977C156.847 129.065 156.801 129.146 156.74 129.214C156.679 129.282 156.604 129.336 156.52 129.372L149.93 132.372L149.72 132.432C149.604 132.442 149.487 132.419 149.382 132.366C149.278 132.313 149.191 132.232 149.13 132.132ZM147.54 116.132C147.248 115.672 147.059 115.154 146.984 114.614C146.91 114.074 146.953 113.524 147.11 113.002L140.47 116.002L149.9 131.002L155.31 128.572L147.54 116.132Z" fill="#1F1A54"/>
<path d="M155.131 128.564C157.32 127.422 158.607 125.563 158.006 124.412C157.405 123.262 155.144 123.255 152.956 124.398C150.767 125.541 149.48 127.399 150.081 128.55C150.682 129.7 152.943 129.707 155.131 128.564Z" fill="white"/>
<path d="M149.5 128.842C149.329 128.542 149.22 128.209 149.183 127.865C149.145 127.521 149.178 127.173 149.28 126.842C149.61 125.782 150.65 124.842 152.64 123.842C153.99 123.132 157.17 121.472 158.56 124.122C158.766 124.455 158.902 124.826 158.961 125.212C159.019 125.599 158.999 125.994 158.9 126.372C158.54 127.532 157.32 128.152 155.9 128.882L155.41 129.132C154.429 129.699 153.344 130.063 152.22 130.202C151.681 130.288 151.129 130.203 150.641 129.959C150.154 129.715 149.754 129.325 149.5 128.842ZM155.33 127.732C156.48 127.132 157.48 126.622 157.69 125.972C157.774 125.528 157.681 125.069 157.43 124.692C156.95 123.772 156.05 123.472 153.23 124.952C151.6 125.802 150.71 126.552 150.49 127.242C150.443 127.41 150.431 127.585 150.455 127.757C150.48 127.929 150.539 128.094 150.63 128.242C151.29 129.502 153.28 128.802 154.83 127.992L155.33 127.732Z" fill="#1F1A54"/>
<path d="M153.942 123.888C156.645 122.466 158.357 120.403 157.766 119.278C157.174 118.154 154.504 118.395 151.801 119.817C149.098 121.238 147.386 123.302 147.977 124.426C148.568 125.551 151.239 125.31 153.942 123.888Z" fill="white"/>
<path d="M147.41 124.734C146.05 122.134 149.87 120.124 151.51 119.264C153.15 118.404 156.97 116.394 158.33 118.994C158.515 119.303 158.635 119.647 158.683 120.005C158.731 120.362 158.706 120.726 158.61 121.074C158.2 122.404 156.61 123.204 154.84 124.144L154.24 124.454C153.025 125.146 151.704 125.633 150.33 125.894H150.02C149.518 125.999 148.996 125.944 148.527 125.735C148.059 125.527 147.668 125.177 147.41 124.734ZM152.1 120.394C148.22 122.394 148.21 123.504 148.54 124.134C148.63 124.304 148.9 124.814 150.16 124.634C151.384 124.393 152.56 123.95 153.64 123.324L154.26 123.014C155.8 122.204 157.14 121.514 157.4 120.694C157.443 120.505 157.447 120.309 157.413 120.118C157.379 119.927 157.306 119.746 157.2 119.584C157.069 119.349 156.866 119.164 156.621 119.054C156.376 118.944 156.102 118.916 155.84 118.974C154.518 119.219 153.252 119.7 152.1 120.394Z" fill="#1F1A54"/>
<path d="M151.66 119.903C154.44 118.443 156.81 117.473 155.48 114.963C154.48 113.033 152.03 113.853 149.25 115.313C146.47 116.773 143.45 118.883 144.44 120.773C145.66 123.323 148.89 121.363 151.66 119.903Z" fill="white"/>
<path d="M145.43 122.503C145.086 122.383 144.771 122.193 144.504 121.945C144.238 121.697 144.025 121.397 143.88 121.063C143.47 120.283 143.33 119.063 144.99 117.423C146.197 116.357 147.543 115.459 148.99 114.753C150.226 114.021 151.579 113.507 152.99 113.233C153.594 113.09 154.228 113.153 154.791 113.412C155.355 113.672 155.815 114.112 156.1 114.663C156.314 115.011 156.454 115.399 156.512 115.803C156.571 116.207 156.546 116.619 156.44 117.013C156 118.393 154.44 119.193 152.64 120.133L152.01 120.463L151.41 120.783C149.973 121.681 148.383 122.308 146.72 122.633C146.286 122.679 145.846 122.634 145.43 122.503ZM152 119.003C153.56 118.203 154.9 117.503 155.17 116.633C155.223 116.399 155.228 116.158 155.185 115.922C155.142 115.687 155.052 115.462 154.92 115.263C154.68 114.793 154.27 114.343 153.11 114.493C151.86 114.774 150.66 115.242 149.55 115.883C148.221 116.533 146.987 117.361 145.88 118.343C144.56 119.613 144.88 120.263 145.02 120.493C145.09 120.676 145.199 120.842 145.339 120.98C145.478 121.118 145.646 121.225 145.83 121.293C146.98 121.663 148.99 120.603 150.76 119.653L151.37 119.333L152 119.003Z" fill="#1F1A54"/>
<path d="M148.799 115.552C151.287 114.244 152.814 112.252 152.21 111.103C151.606 109.955 149.099 110.084 146.611 111.393C144.123 112.701 142.596 114.693 143.2 115.842C143.804 116.99 146.311 116.861 148.799 115.552Z" fill="white"/>
<path d="M142.63 116.143C142.359 115.642 142.264 115.065 142.358 114.504C142.452 113.942 142.731 113.428 143.15 113.043C144.068 112.13 145.137 111.382 146.31 110.833C147.95 109.973 151.37 108.173 152.76 110.833C152.961 111.156 153.094 111.518 153.149 111.894C153.204 112.271 153.181 112.656 153.08 113.023C152.68 114.283 151.27 115.023 149.64 115.853L149.09 116.143C147.957 116.79 146.718 117.227 145.43 117.433H145.31C144.784 117.532 144.24 117.46 143.758 117.228C143.276 116.996 142.881 116.616 142.63 116.143ZM146.9 111.963C145.866 112.446 144.919 113.098 144.1 113.893C143.42 114.653 143.54 115.163 143.75 115.553C143.96 115.943 144.24 116.213 145.3 116.143C146.424 115.957 147.505 115.568 148.49 114.993L149.06 114.703C150.44 113.993 151.63 113.373 151.86 112.613C151.905 112.407 151.909 112.194 151.872 111.986C151.834 111.778 151.755 111.58 151.64 111.403C151.515 111.15 151.31 110.945 151.057 110.82C150.804 110.695 150.517 110.658 150.24 110.713C149.059 110.921 147.927 111.344 146.9 111.963Z" fill="#1F1A54"/>
<path d="M123.1 126.363C128.25 122.603 134.39 111.983 138.91 106.033C140.76 103.603 141.46 101.253 143.43 101.803C144.52 102.113 144.88 105.063 142.93 108.453C141.957 110.172 141.105 111.957 140.38 113.793C139.899 114.943 139.74 116.201 139.92 117.433C140.27 119.943 140.61 124.433 138.92 126.493" fill="white"/>
<path d="M139 127.124C139.085 127.117 139.168 127.093 139.243 127.053C139.319 127.014 139.386 126.96 139.44 126.894C141.16 124.794 140.99 120.544 140.55 117.344C140.386 116.227 140.528 115.087 140.96 114.044C141.68 112.229 142.522 110.465 143.48 108.764C145.14 105.884 145.17 103.464 144.68 102.274C144.6 102.021 144.46 101.79 144.272 101.602C144.084 101.414 143.853 101.274 143.6 101.194C141.69 100.654 140.69 102.194 139.6 103.864C139.24 104.424 138.84 105.034 138.37 105.654C137.02 107.434 135.53 109.654 133.96 111.924C130.33 117.244 126.22 123.274 122.7 125.844C122.632 125.892 122.574 125.954 122.529 126.026C122.485 126.097 122.456 126.176 122.443 126.259C122.43 126.342 122.433 126.427 122.453 126.508C122.474 126.59 122.51 126.667 122.56 126.734C122.66 126.87 122.81 126.961 122.976 126.987C123.143 127.013 123.313 126.973 123.45 126.874C127.15 124.174 131.33 118.044 135.01 112.644C136.57 110.344 138.01 108.184 139.39 106.424C139.88 105.774 140.29 105.134 140.67 104.554C141.82 102.764 142.3 102.164 143.22 102.414C143.27 102.414 143.37 102.514 143.47 102.754C143.86 103.754 143.68 105.814 142.35 108.134C141.365 109.88 140.5 111.691 139.76 113.554C139.231 114.817 139.058 116.2 139.26 117.554C139.83 121.664 139.53 124.784 138.43 126.124C138.322 126.254 138.269 126.422 138.284 126.59C138.299 126.759 138.38 126.915 138.51 127.024C138.58 127.074 138.66 127.108 138.744 127.125C138.829 127.143 138.916 127.142 139 127.124Z" fill="#1F1A54"/>
<path d="M159.5 206.912C159.194 207.673 159.094 208.5 159.21 209.312C159.254 209.844 159.429 210.356 159.719 210.805C160.008 211.253 160.404 211.623 160.87 211.882C160.82 211.882 160.56 211.982 160.75 213.452C161.56 219.792 176.4 217.182 176.4 217.182C182.25 216.632 187.5 216.632 187.5 216.632C196.65 217.632 235.8 239.092 250.7 236.262C263.12 233.892 262.37 195.552 262.37 195.552L239.29 195.742C239.29 195.742 239.29 215.302 239.14 214.222C232.68 210.902 204.72 206.072 195.93 202.222C193.29 201.072 189.93 200.032 186.78 197.452C181.05 192.682 174.78 184.672 171.52 183.022C171.361 182.944 171.188 182.901 171.011 182.895C170.835 182.889 170.659 182.921 170.495 182.988C170.332 183.055 170.184 183.156 170.063 183.284C169.941 183.413 169.848 183.565 169.79 183.732C168.08 187.732 177.33 196.732 172.05 195.982C168.751 195.699 165.429 195.854 162.17 196.442C159.42 197.162 158.44 198.742 158.62 200.022C158.689 200.451 158.861 200.856 159.12 201.204C159.38 201.553 159.719 201.833 160.11 202.022C160.11 202.022 158.37 203.192 158.43 204.642C158.409 205.079 158.495 205.515 158.682 205.911C158.868 206.306 159.149 206.65 159.5 206.912Z" fill="white"/>
<path d="M162.98 207.362C161.794 207.645 160.546 207.485 159.47 206.912C159.13 206.655 158.856 206.32 158.671 205.936C158.487 205.551 158.397 205.128 158.41 204.702C158.35 203.252 160.09 202.082 160.09 202.082" stroke="#1F1A54" stroke-width="1.5" stroke-linecap="round" stroke-linejoin="round"/>
<path d="M162.97 202.803C161.97 202.775 160.989 202.522 160.1 202.063C159.709 201.874 159.37 201.594 159.11 201.245C158.851 200.897 158.679 200.492 158.61 200.063C158.43 198.783 159.41 197.203 162.16 196.483C165.419 195.895 168.741 195.74 172.04 196.023C177.32 196.793 168.04 187.763 169.78 183.773C169.838 183.606 169.931 183.454 170.053 183.325C170.175 183.197 170.322 183.096 170.485 183.029C170.649 182.962 170.825 182.93 171.001 182.936C171.178 182.942 171.351 182.985 171.51 183.063C174.82 184.713 181.04 192.723 186.77 197.493C189.89 200.073 193.28 201.113 195.92 202.263C204.71 206.123 232.67 210.953 239.13 214.263C239.26 215.343 239.28 195.783 239.28 195.783L262.36 195.593C262.36 195.593 263.11 233.933 250.69 236.303C235.79 239.123 196.64 217.633 187.5 216.633C187.5 216.633 182.26 216.633 176.38 217.153C176.38 217.153 161.54 219.763 160.73 213.423C160.54 211.953 160.8 211.863 160.85 211.853" stroke="#1F1A54" stroke-width="1.5" stroke-linecap="round" stroke-linejoin="round"/>
<path d="M164.21 212.482C163.053 212.605 161.884 212.396 160.84 211.882C160.374 211.623 159.978 211.253 159.689 210.805C159.399 210.356 159.224 209.844 159.18 209.312C159.064 208.501 159.164 207.673 159.47 206.912" stroke="#1F1A54" stroke-width="1.5" stroke-linecap="round" stroke-linejoin="round"/>
<path d="M142.34 72.7734C142.34 62.5634 130.85 54.2734 116.67 54.2734C102.49 54.2734 91 62.5634 91 72.7734C91 82.9834 102.49 91.2734 116.67 91.2734H116.75L116.25 95.1034C116.257 95.2817 116.311 95.4549 116.407 95.6051C116.504 95.7553 116.638 95.877 116.797 95.9576C116.957 96.0382 117.134 96.0747 117.312 96.0634C117.491 96.0522 117.662 95.9935 117.81 95.8934L125.66 90.1134C135.4 87.4834 142.34 80.7134 142.34 72.7734Z" fill="white" stroke="#1F1A54" stroke-width="1.5" stroke-linecap="round" stroke-linejoin="round"/>
<path d="M111.855 73.1578C111.855 70.5578 110.905 69.2578 109.005 69.2578C107.105 69.2578 106.155 70.5578 106.155 73.1578C106.155 75.7578 107.105 77.0578 109.005 77.0578C110.905 77.0578 111.855 75.7578 111.855 73.1578ZM112.65 77.2978C111.76 78.2878 110.545 78.7828 109.005 78.7828C107.465 78.7828 106.245 78.2878 105.345 77.2978C104.455 76.3078 104.01 74.9278 104.01 73.1578C104.01 71.3878 104.455 70.0078 105.345 69.0178C106.245 68.0278 107.465 67.5328 109.005 67.5328C110.545 67.5328 111.76 68.0278 112.65 69.0178C113.55 70.0078 114 71.3878 114 73.1578C114 74.9278 113.55 76.3078 112.65 77.2978ZM116.541 78.6328C116.311 78.6328 116.111 78.5478 115.941 78.3778C115.781 78.2078 115.701 78.0078 115.701 77.7778V68.5378C115.701 68.3078 115.781 68.1078 115.941 67.9378C116.111 67.7678 116.311 67.6828 116.541 67.6828H116.946C117.176 67.6828 117.376 67.7678 117.546 67.9378C117.716 68.1078 117.801 68.3078 117.801 68.5378V72.4228C117.801 72.4328 117.806 72.4378 117.816 72.4378C117.826 72.4378 117.831 72.4328 117.831 72.4228L120.846 68.3728C121.176 67.9128 121.626 67.6828 122.196 67.6828H122.946C123.116 67.6828 123.241 67.7628 123.321 67.9228C123.401 68.0828 123.386 68.2278 123.276 68.3578L119.826 72.8278C119.776 72.8978 119.776 72.9678 119.826 73.0378L123.441 77.9428C123.551 78.0828 123.566 78.2328 123.486 78.3928C123.406 78.5528 123.276 78.6328 123.096 78.6328H122.346C121.776 78.6328 121.331 78.4028 121.011 77.9428L117.831 73.4428C117.831 73.4328 117.826 73.4278 117.816 73.4278C117.806 73.4278 117.801 73.4328 117.801 73.4428V77.7778C117.801 78.0078 117.716 78.2078 117.546 78.3778C117.376 78.5478 117.176 78.6328 116.946 78.6328H116.541ZM126.724 75.3328C126.484 75.3328 126.279 75.2528 126.109 75.0928C125.939 74.9228 125.849 74.7178 125.839 74.4778L125.614 68.5378C125.604 68.3078 125.679 68.1078 125.839 67.9378C125.999 67.7678 126.194 67.6828 126.424 67.6828H127.234C127.464 67.6828 127.659 67.7678 127.819 67.9378C127.979 68.1078 128.054 68.3078 128.044 68.5378L127.819 74.4778C127.809 74.7178 127.719 74.9228 127.549 75.0928C127.379 75.2528 127.174 75.3328 126.934 75.3328H126.724ZM127.084 76.5328C127.314 76.5328 127.509 76.6178 127.669 76.7878C127.839 76.9578 127.924 77.1578 127.924 77.3878V77.7778C127.924 78.0078 127.839 78.2078 127.669 78.3778C127.509 78.5478 127.314 78.6328 127.084 78.6328H126.574C126.344 78.6328 126.144 78.5478 125.974 78.3778C125.814 78.2078 125.734 78.0078 125.734 77.7778V77.3878C125.734 77.1578 125.814 76.9578 125.974 76.7878C126.144 76.6178 126.344 76.5328 126.574 76.5328H127.084Z" fill="#1F1A54"/>
</svg>
