<svg width="142" height="38" viewBox="0 0 142 38" fill="none" xmlns="http://www.w3.org/2000/svg">
<path fill-rule="evenodd" clip-rule="evenodd" d="M126.401 30.5865C126.55 30.6976 126.661 30.7717 126.735 30.8458C128.254 32.0685 129.958 32.8466 131.922 33.106C133.219 33.2542 134.516 33.2542 135.738 32.7355C137.109 32.1797 137.776 31.0682 137.924 29.6602C137.999 28.9192 137.962 28.1411 137.962 27.363C137.962 27.2889 137.962 27.2519 137.924 27.1407C137.887 27.1777 137.85 27.1777 137.813 27.1777C136.961 28.1781 135.813 28.6598 134.59 28.9192C132.552 29.3267 130.588 29.1044 128.773 28.1411C126.809 27.1036 125.66 25.3993 125.142 23.2873C124.919 22.4722 124.845 21.62 124.845 20.7308C124.845 16.9515 124.845 13.1723 124.845 9.43009C124.845 9.09662 124.845 9.09662 125.179 9.09662C126.476 9.09662 127.772 9.09662 129.069 9.09662C129.329 9.09662 129.403 9.17072 129.403 9.43009C129.403 13.2464 129.366 17.0997 129.403 20.916C129.403 22.6945 130.477 24.473 132.7 24.8435C133.997 25.0658 135.22 24.8806 136.257 24.0284C137.072 23.3985 137.443 22.5463 137.591 21.5459C137.628 21.1754 137.628 20.7678 137.628 20.3603C137.628 16.6922 137.628 13.0611 137.628 9.39303C137.628 9.05957 137.628 9.05957 137.962 9.05957C139.221 9.05957 140.481 9.05957 141.741 9.05957C141.926 9.05957 142 9.09662 142 9.31893C142 16.0623 142 22.8427 141.963 29.5861C141.963 31.4387 141.407 33.143 140.148 34.551C139.073 35.7366 137.739 36.4406 136.22 36.8482C135.331 37.0705 134.405 37.1816 133.478 37.2187C130.922 37.3299 128.625 36.6259 126.587 34.9956C126.401 34.8474 126.327 34.6992 126.327 34.4769C126.327 33.2171 126.327 31.9944 126.327 30.7347C126.401 30.7347 126.401 30.6976 126.401 30.5865Z" fill="#00B041"/>
<path fill-rule="evenodd" clip-rule="evenodd" d="M88.0159 29.2154C87.9048 29.2154 87.7936 29.2154 87.7195 29.2154C86.4597 29.2154 85.237 29.2154 83.9773 29.2154C83.7179 29.2154 83.6438 29.1413 83.6438 28.8819C83.6438 23.5465 83.6438 18.2481 83.6438 12.9127C83.6438 10.3562 83.6438 7.79961 83.6438 5.24306C83.6438 4.87254 83.6438 4.87254 83.9773 4.87254C87.0896 4.87254 90.1649 4.83549 93.2772 4.9096C95.5003 4.94665 97.5752 5.65063 99.2055 7.28089C100.206 8.31833 100.836 9.57808 101.095 10.986C101.429 12.7645 101.391 14.58 100.799 16.3215C99.8724 18.9521 97.9828 20.4712 95.3521 21.1752C94.4629 21.3975 93.5366 21.5087 92.6473 21.5087C91.2023 21.5087 89.7944 21.5087 88.3494 21.5087C88.0159 21.5087 88.0159 21.5087 88.0159 21.8421C88.0159 24.1764 88.0159 26.5477 88.0159 28.8819C88.0159 28.9931 88.0159 29.1042 88.0159 29.2154ZM90.4984 17.433C91.0912 17.433 91.7211 17.4701 92.3139 17.433C92.8326 17.3959 93.3513 17.3959 93.87 17.2848C95.2409 16.9884 96.2413 16.2474 96.723 14.8764C97.0935 13.802 97.0935 12.6904 96.7601 11.5789C96.4636 10.5044 95.7597 9.76334 94.7222 9.35577C94.0923 9.09641 93.3884 8.98526 92.7214 8.98526C91.2394 8.98526 89.7573 8.98526 88.2753 8.98526C88.09 8.98526 88.0159 9.05936 88.0159 9.24462C88.0159 11.8753 88.0159 14.543 88.0159 17.1736C88.0159 17.3959 88.09 17.433 88.3123 17.433C89.0163 17.433 89.7573 17.433 90.4984 17.433Z" fill="#00B041"/>
<path fill-rule="evenodd" clip-rule="evenodd" d="M117.694 27.1405C116.694 28.1779 115.471 28.7708 114.137 29.0301C113.137 29.2154 112.099 29.2154 111.062 29.1042C109.802 28.9931 108.617 28.6596 107.542 28.0297C105.504 26.9182 104.244 25.1768 103.652 22.9537C103.392 21.9903 103.244 20.99 103.244 19.9525C103.244 18.9892 103.207 17.9888 103.281 17.0254C103.615 13.2462 105.727 10.1339 109.876 9.13347C112.062 8.61475 114.211 8.65181 116.36 9.39284C119.213 10.3932 120.955 12.4311 121.696 15.3211C121.918 16.1733 121.992 17.0625 121.992 17.9517C121.992 21.5087 121.992 25.0286 121.992 28.5855C121.992 28.956 121.992 28.956 121.622 28.956C120.399 28.956 119.176 28.956 117.991 28.956C117.768 28.956 117.694 28.919 117.694 28.6596C117.731 28.1779 117.694 27.6592 117.694 27.1405ZM117.768 19.1003C117.731 18.3963 117.731 17.6553 117.62 16.9513C117.324 15.247 116.36 14.0243 114.693 13.3944C113.656 13.0239 112.581 12.9868 111.507 13.1721C109.506 13.5426 107.95 15.0988 107.653 17.0995C107.468 18.2111 107.505 19.3597 107.616 20.4712C107.801 22.3609 108.765 23.7318 110.469 24.5469C111.544 25.0656 112.655 25.1027 113.841 24.9545C115.656 24.6951 117.027 23.5465 117.546 21.768C117.731 20.8788 117.731 19.9896 117.768 19.1003Z" fill="#00B041"/>
<g clip-path="url(#clip0)">
<path fill-rule="evenodd" clip-rule="evenodd" d="M80.7263 20.928C80.6881 21.2346 80.6499 21.5412 80.6116 21.8479C80.3441 23.9943 79.4268 25.8724 77.9361 27.4439C76.4072 29.0537 74.5725 30.0503 72.3938 30.3953C68.9156 30.9702 64.864 29.552 62.8 26.3324C62.4942 25.8341 62.2648 25.2592 62.0355 24.7226C61.9591 24.5692 61.9973 24.4542 62.1119 24.3393C62.4942 23.9176 62.8382 23.4577 63.2204 22.9977C63.2586 22.9594 63.2968 22.8828 63.3351 22.8061C63.488 23.1894 63.5644 23.496 63.6791 23.7643C64.8258 26.3707 66.8515 27.9805 69.6418 28.4405C73.7316 29.1304 77.5921 26.3707 78.5476 22.4995C78.7005 21.8862 78.777 21.2729 78.777 20.6213C78.8152 19.8164 78.777 18.9732 78.7387 18.1683C78.6623 16.6351 78.089 15.2169 77.1334 14.0287C75.7574 12.2272 73.9609 11.154 71.7058 10.8857C69.4889 10.6174 67.5013 11.3073 65.7813 12.7255C63.9849 14.2204 62.4177 15.9068 60.9653 17.7083C60.2773 18.5516 59.6275 19.3948 58.9395 20.238C58.9013 20.2764 58.863 20.353 58.7866 20.4297C58.7866 20.3147 58.7866 20.2764 58.7866 20.1997C58.7866 19.3565 58.7866 18.5516 58.7866 17.7083C58.7866 17.5933 58.8248 17.4783 58.9013 17.3634C60.0862 15.8302 61.3093 14.297 62.7235 12.9555C63.7555 11.9206 64.864 11.039 66.0871 10.2725C67.1955 9.5442 68.4187 9.16091 69.7565 8.96927C74.9547 8.27934 79.465 11.9589 80.5352 16.4818C80.6499 17.0184 80.6881 17.555 80.8028 18.0916C80.8028 18.2066 80.841 18.3216 80.8792 18.4366C80.7263 19.2415 80.7263 20.0847 80.7263 20.928Z" fill="#00B041"/>
<path fill-rule="evenodd" clip-rule="evenodd" d="M20.5635 18.3221C17.8115 18.3221 15.0977 18.3221 12.3074 18.3221C12.3074 18.2071 12.3074 18.1304 12.3074 18.0155C12.3074 17.5938 12.3074 17.1339 12.3074 16.7123C12.3074 16.3673 12.3074 16.3673 12.6896 16.3673C14.9065 16.3673 17.1235 16.3673 19.3786 16.3673C20.3341 16.3673 21.2897 16.3673 22.2835 16.3673C22.5128 16.3673 22.5893 16.444 22.5893 16.6739C22.5893 20.1236 22.5893 23.5349 22.5893 26.9845C22.5893 27.1378 22.5128 27.2911 22.4364 27.4061C21.4426 28.5943 20.1813 29.3992 18.767 30.0125C17.4675 30.5874 16.0914 30.9324 14.639 31.0857C12.1927 31.354 9.86117 31.124 7.60604 30.0891C3.66912 28.211 1.22287 25.183 0.343754 20.9668C-0.191362 18.4754 -0.114916 15.984 0.764202 13.5693C1.98732 10.3496 4.16601 8.04987 7.10915 6.44004C8.67627 5.5968 10.3581 5.09852 12.1545 4.90688C13.4541 4.75356 14.7537 4.83022 16.0532 4.90688C17.3146 5.02186 18.5759 5.25184 19.799 5.67346C20.0284 5.75012 20.143 5.86511 20.143 6.17174C20.1048 6.78501 20.143 7.35994 20.143 8.01154C19.9137 7.89655 19.6844 7.78156 19.4933 7.66658C18.3848 7.12997 17.2381 6.86166 16.0532 6.74668C15.1741 6.67002 14.295 6.63169 13.4541 6.63169C10.855 6.67002 8.52338 7.51326 6.45936 9.08476C4.43357 10.6563 3.05755 12.5727 2.36955 14.9491C2.02555 16.1757 1.9491 17.4022 2.02555 18.6287C2.10199 20.2385 2.40777 21.7334 3.134 23.1516C4.70112 26.2562 7.18559 28.1727 10.5874 28.9009C11.9634 29.2076 13.3394 29.1692 14.7537 29.0159C16.3972 28.8243 17.9261 28.4027 19.3404 27.4828C19.7226 27.2528 20.0666 26.9461 20.4106 26.6395C20.5253 26.5629 20.6017 26.3712 20.6017 26.2179C20.6017 23.6498 20.6017 21.0818 20.6017 18.5137C20.6017 18.5137 20.6017 18.4371 20.5635 18.3221Z" fill="#00B041"/>
<path fill-rule="evenodd" clip-rule="evenodd" d="M50.4538 27.9033C50.4538 28.5549 50.4538 29.1298 50.4538 29.7431C50.4538 29.8198 50.3391 29.9347 50.2627 29.9347C49.6511 30.0881 49.0396 30.318 48.428 30.3947C45.8671 30.663 43.5355 29.9731 41.5097 28.4016C39.3693 26.7534 38.0315 24.5687 37.6875 21.8473C37.5346 20.6974 37.5728 19.5092 37.611 18.3593C37.6493 16.0213 38.4901 13.9898 40.0191 12.2267C41.548 10.4635 43.4209 9.35199 45.7142 8.93037C48.8102 8.39376 51.5623 9.16034 53.9321 11.2301C55.7667 12.8399 56.8752 14.8331 57.2574 17.2478C57.3339 17.7077 57.3721 18.1677 57.3721 18.6276C57.3721 22.4222 57.3721 26.2551 57.3721 30.0497C57.3721 30.1647 57.3721 30.2797 57.3721 30.3947C56.7223 30.3947 56.0725 30.3947 55.4227 30.3947C55.4227 30.2414 55.4227 30.1264 55.4227 30.0114C55.4227 26.2168 55.461 22.3839 55.4227 18.5893C55.3845 14.5648 52.5178 11.4984 48.9631 10.8468C44.6822 10.0419 40.5542 12.9933 39.7133 17.1711C39.6368 17.5928 39.5604 18.0144 39.5604 18.436C39.5604 19.5475 39.4457 20.6974 39.675 21.809C40.2484 24.722 41.9684 26.7534 44.7204 27.9033C46.5551 28.6699 48.3898 28.5932 50.2245 27.9416C50.2245 27.98 50.3391 27.9416 50.4538 27.9033Z" fill="#00B041"/>
<path fill-rule="evenodd" clip-rule="evenodd" d="M19.0727 19.8546C19.0727 19.9696 19.0727 20.0463 19.0727 20.1229C19.0727 21.9627 19.0727 23.7642 19.0727 25.604C19.0727 25.7957 18.9963 25.9106 18.8434 26.064C18.0025 26.7539 17.0087 27.0989 15.9767 27.3288C14.7918 27.5971 13.6069 27.7121 12.422 27.6355C8.90552 27.4055 6.30639 25.6807 4.6246 22.576C3.89837 21.2345 3.59259 19.7397 3.55437 18.2065C3.51614 16.7116 3.70726 15.2551 4.35704 13.9136C5.54194 11.4222 7.49129 9.77406 10.0522 8.81583C11.5811 8.2409 13.1864 8.08758 14.83 8.20257C16.206 8.27923 17.582 8.5092 18.8816 9.00748C19.2638 9.1608 19.6078 9.31411 19.9518 9.50576C20.0283 9.54409 20.1047 9.65908 20.1047 9.73573C20.1047 10.4257 20.1047 11.1539 20.1047 11.8822C19.9901 11.8055 19.9136 11.7672 19.8372 11.6905C18.7669 10.8856 17.5056 10.4257 16.1678 10.2723C15.2887 10.1574 14.3713 10.0807 13.4922 10.119C10.3198 10.2723 7.87351 11.6139 6.26817 14.4119C5.73305 15.3701 5.46549 16.4433 5.46549 17.5549C5.42727 18.8581 5.58016 20.1229 6.11528 21.3111C7.22373 23.6492 9.05841 25.1441 11.6193 25.5274C13.454 25.834 15.2122 25.5657 16.9705 24.9141C17.1616 24.8374 17.1998 24.7608 17.1998 24.5691C17.1998 23.7259 17.1998 22.921 17.1998 22.0777C17.1998 21.8094 17.1234 21.7328 16.8558 21.7328C15.4416 21.7328 13.9891 21.7328 12.5749 21.7328C12.3456 21.7328 12.2691 21.6944 12.2691 21.4261C12.3073 20.8895 12.2691 20.3529 12.2691 19.778C14.5625 19.8546 16.7794 19.8546 19.0727 19.8546Z" fill="#00B041"/>
<path fill-rule="evenodd" clip-rule="evenodd" d="M66.0863 19.4325C66.201 19.9308 66.2774 20.3907 66.3921 20.8123C66.7361 21.9622 67.3094 22.9971 68.1886 23.8787C70.0232 25.6801 72.5842 25.1819 74.0366 23.7253C74.8393 22.9204 75.2597 21.9239 75.298 20.8123C75.298 19.9691 75.3744 19.0875 75.298 18.2443C75.1451 16.4045 73.7308 14.8713 71.9344 14.4497C70.3672 14.1047 68.9912 14.5263 67.8063 15.5996C66.2392 17.0177 64.8632 18.6659 63.4872 20.2757C61.9201 22.1155 60.4294 23.9936 58.9005 25.8718C58.9005 25.9101 58.8623 25.9101 58.824 25.9101C58.824 25.8334 58.824 25.7568 58.824 25.7185C58.824 24.8752 58.824 24.032 58.824 23.1504C58.824 22.9971 58.8623 22.8438 58.9769 22.7288C60.3912 20.8507 61.9201 19.0875 63.4872 17.3627C64.3663 16.4045 65.2072 15.4846 66.1245 14.5647C67.1566 13.5681 68.3797 12.7632 69.7939 12.4566C71.5139 12.0733 73.081 12.4949 74.4953 13.4915C75.9477 14.5263 76.8651 15.9062 77.2091 17.6693C77.2855 17.976 77.2855 18.2826 77.2855 18.6276C77.2855 19.5858 77.3238 20.544 77.2091 21.4639C76.9415 23.9553 75.0686 26.0634 72.6224 26.7533C69.9468 27.5199 67.233 26.4467 65.6659 23.9936C65.169 23.2654 64.825 22.4605 64.6339 21.5789C64.5956 21.4639 64.6339 21.2723 64.7103 21.1956C65.1308 20.659 65.5512 20.1607 65.9717 19.6241C65.9717 19.5858 66.0099 19.5091 66.0863 19.4325Z" fill="#00B041"/>
<path fill-rule="evenodd" clip-rule="evenodd" d="M50.4532 24.0714C50.4532 24.7613 50.4532 25.3746 50.4532 26.0262C50.4532 26.1028 50.3385 26.2178 50.2621 26.2945C49.7269 26.6394 49.1536 26.8311 48.542 26.9461C45.8665 27.3677 43.3055 26.1412 41.9295 23.8031C41.3562 22.8065 41.0504 21.7333 41.0504 20.5834C41.0504 20.0085 41.0504 19.4719 41.0504 18.8969C41.0504 16.7505 41.8913 15.064 43.5349 13.7225C47.2043 10.7712 52.823 12.6876 53.7403 17.5171C53.8168 17.9387 53.855 18.3987 53.855 18.8586C53.855 22.6149 53.855 26.4095 53.855 30.1657C53.855 30.5107 53.855 30.5107 53.511 30.5107C53.0905 30.5107 52.6319 30.5107 52.2114 30.5107C51.9821 30.5107 51.9439 30.434 51.9439 30.204C51.9439 29.2075 51.9439 28.1726 51.9439 27.176C51.9439 24.4163 51.9439 21.695 51.9439 18.9353C51.9439 17.9387 51.7527 17.0188 51.1794 16.2139C50.3003 14.949 49.0389 14.3358 47.51 14.2974C45.6753 14.2591 43.7642 15.4856 43.2291 17.6321C43.1527 17.977 43.1144 18.322 43.0762 18.7053C43.038 19.3186 43.0762 19.9702 43.0762 20.5834C43.0762 22.8448 44.6433 24.6846 46.8602 24.9913C48.0834 25.1829 49.23 24.9146 50.2621 24.263C50.2621 24.1864 50.3385 24.148 50.4532 24.0714Z" fill="#00B041"/>
<path fill-rule="evenodd" clip-rule="evenodd" d="M39.7508 10.157C39.2539 10.6936 38.8334 11.1919 38.3748 11.6518C37.8779 11.4602 37.381 11.1919 36.8458 11.0769C33.7498 10.3869 30.9596 10.9619 28.7044 13.3766C27.7107 14.4498 27.1373 15.753 26.9462 17.2095C26.8315 17.8995 26.7933 18.5894 26.7933 19.2793C26.7933 22.8822 26.7933 26.5235 26.7933 30.1265C26.7933 30.5098 26.7933 30.5098 26.4111 30.5098C25.9524 30.5098 25.532 30.5098 25.0733 30.5098C24.8822 30.5098 24.8057 30.4331 24.844 30.2798C24.844 30.2414 24.844 30.2031 24.844 30.1648C24.844 26.4085 24.844 22.6139 24.844 18.8577C24.844 16.6729 25.3791 14.6798 26.6404 12.8783C28.1311 10.7702 30.1951 9.5437 32.6796 9.04542C34.6289 8.66213 36.5783 8.81544 38.413 9.5437C38.8716 9.65868 39.2921 9.92699 39.7508 10.157Z" fill="#00B041"/>
<path fill-rule="evenodd" clip-rule="evenodd" d="M37.535 12.9167C37.2292 13.53 36.9616 14.0666 36.6941 14.6032C36.3118 14.5265 35.9296 14.3732 35.5092 14.3349C33.6363 14.1049 31.8398 14.7182 30.846 16.5196C30.502 17.1712 30.3109 17.8995 30.3109 18.6277C30.3109 22.4607 30.3109 26.2553 30.3109 30.0882C30.3109 30.2032 30.3109 30.3181 30.3109 30.4331C29.6611 30.4331 29.0113 30.4331 28.3615 30.4331C28.3615 30.3565 28.3615 30.2415 28.3615 30.1648C28.3615 26.2936 28.3233 22.384 28.3615 18.5128C28.3998 15.3698 30.5402 12.955 33.4834 12.4184C34.6683 12.1884 35.8149 12.2651 36.9616 12.6484C37.1527 12.7251 37.3438 12.8017 37.535 12.9167Z" fill="#00B041"/>
<path fill-rule="evenodd" clip-rule="evenodd" d="M60.812 0C61.4618 0 62.1116 0 62.7614 0C62.7614 0.114987 62.7614 0.191646 62.7614 0.306633C62.7614 3.6796 62.7614 7.01424 62.7614 10.3872C62.7614 10.5405 62.7231 10.6555 62.5703 10.8088C62.0351 11.3454 61.5383 11.882 61.0031 12.457C60.9267 12.5336 60.8885 12.6103 60.7738 12.687C60.812 8.43242 60.812 4.21621 60.812 0Z" fill="#00B041"/>
<path fill-rule="evenodd" clip-rule="evenodd" d="M64.2901 9.73561C64.2901 9.58229 64.2901 9.50563 64.2901 9.39065C64.2901 6.36264 64.2901 3.37297 64.2901 0.344962C64.2901 0 64.2901 0 64.6341 0C65.0545 0 65.4367 0 65.8572 0C66.2394 0 66.2394 0 66.2394 0.383292C66.2394 0.958229 66.2394 1.53317 66.2394 2.1081C66.2394 4.10122 66.2394 6.09434 66.2394 8.08745C66.2394 8.2791 66.163 8.39409 66.0101 8.50908C65.5132 8.81571 65.0163 9.16067 64.5194 9.50563C64.443 9.62062 64.4047 9.65895 64.2901 9.73561Z" fill="#00B041"/>
</g>
<defs>
<clipPath id="clip0">
<rect width="80.726" height="31.1233" fill="white"/>
</clipPath>
</defs>
</svg>
