<svg width="150" height="36" viewBox="0 0 150 36" fill="none" xmlns="http://www.w3.org/2000/svg">
<path d="M113.496 11.2567H111.159C110.689 11.2567 110.321 11.6377 110.321 12.0949V14.5205C110.092 13.0093 108.162 10.9901 104.86 10.9901C100.174 10.9901 96.7704 14.6729 96.7704 19.7401C96.7704 24.8072 100.225 28.6424 104.797 28.6424C107.654 28.6424 109.419 26.9915 110.308 26.0517V27.5249C110.308 27.9948 110.689 28.3631 111.146 28.3631H113.483C113.953 28.3631 114.321 27.9821 114.321 27.5249V12.0949C114.334 11.6377 113.953 11.2567 113.496 11.2567ZM110.321 19.7909C110.321 23.2705 107.933 25.0993 105.584 25.0993C102.511 25.0993 100.847 22.3308 100.847 19.7401C100.847 17.1493 102.472 14.5205 105.584 14.5205C107.946 14.5205 110.321 16.3366 110.321 19.7909Z" fill="#002CB8"/>
<path d="M124.824 18.1907C122.957 17.67 121.344 17.2255 121.344 16.0064C121.344 15.0031 122.258 14.4189 123.859 14.4189C125.332 14.4189 126.335 15.0666 126.614 16.2096C126.703 16.5906 127.046 16.8572 127.427 16.8572H129.751C129.993 16.8572 130.234 16.7557 130.386 16.5652C130.551 16.3747 130.615 16.1334 130.577 15.8921C130.107 12.8188 127.63 10.9901 123.973 10.9901C120.125 10.9901 117.331 13.1109 117.331 16.0445C117.331 19.7655 120.722 20.6671 123.452 21.4037C125.319 21.899 126.945 22.3435 126.945 23.4864C126.945 24.5405 125.891 25.1882 124.189 25.1882C122.728 25.1882 121.547 24.4516 121.23 23.3594C121.128 22.9784 120.798 22.7244 120.417 22.7244H117.966C117.712 22.7244 117.471 22.8387 117.318 23.0292C117.166 23.2197 117.09 23.461 117.141 23.7023C117.674 26.5978 120.595 28.6297 124.252 28.6297C128.151 28.6297 130.869 26.4962 130.869 23.4483C130.754 19.8289 127.465 18.9146 124.824 18.1907Z" fill="#002CB8"/>
<path d="M142.667 11.2694C140.762 11.2694 139.022 11.9044 137.815 13.0347V6.41819C137.815 5.9483 137.434 5.58002 136.977 5.58002H134.679C134.209 5.58002 133.841 5.961 133.841 6.41819V27.5122C133.841 27.982 134.221 28.3503 134.679 28.3503H136.977C137.447 28.3503 137.815 27.9693 137.815 27.5122V19.1051C137.815 16.3619 139.238 14.5078 141.714 14.5078C144.165 14.5078 145.575 16.3619 145.575 19.1051V27.5122C145.575 27.982 145.956 28.3503 146.413 28.3503H148.686C149.156 28.3503 149.524 27.9693 149.524 27.5122V18.5971C149.524 14.1522 146.832 11.2694 142.667 11.2694Z" fill="#002CB8"/>
<path d="M94.434 22.7875L92.4656 21.6699C92.3386 21.5937 92.1989 21.5556 92.0465 21.5556C91.7544 21.5556 91.5004 21.6953 91.348 21.9366C90.8527 22.7113 90.1669 23.3463 89.3161 23.8289C88.3001 24.4003 87.1572 24.6924 85.8999 24.6924C83.7791 24.6924 82.0392 24.0193 80.7312 22.6732C79.4231 21.3397 78.75 19.6126 78.75 17.5426C78.75 15.4725 79.4104 13.7581 80.7312 12.4119C82.0392 11.0785 83.7791 10.3927 85.8999 10.3927C87.1445 10.3927 88.2874 10.6848 89.3034 11.2563C90.1543 11.7389 90.84 12.3865 91.348 13.1612C91.5004 13.3898 91.7671 13.5422 92.0465 13.5422C92.1989 13.5422 92.3386 13.5041 92.4656 13.4279L94.4467 12.2849C94.6499 12.1707 94.7896 11.9675 94.8404 11.7516C94.8912 11.523 94.8531 11.2944 94.7261 11.1039C93.8498 9.78313 92.6688 8.71637 91.2337 7.9036C89.6082 7.00193 87.8175 6.53204 85.8999 6.53204C82.725 6.53204 80.0454 7.59881 77.95 9.70693C75.8545 11.8151 74.7878 14.4566 74.7878 17.5553C74.7878 20.654 75.8545 23.2955 77.95 25.4036C80.0454 27.5117 82.725 28.5785 85.8999 28.5785C87.8302 28.5785 89.6336 28.1086 91.2591 27.1942C92.6942 26.3815 93.8625 25.302 94.7261 23.9812C94.8531 23.7908 94.8912 23.5622 94.8404 23.3336C94.7769 23.0923 94.6372 22.9018 94.434 22.7875Z" fill="#002CB8"/>
<path d="M62.5961 15.803C62.0119 15.803 61.542 16.2729 61.542 16.8571V18.3683C61.542 18.9525 62.0119 19.4224 62.5961 19.4224H68.5395C67.8537 23.4482 63.6375 24.807 61.796 24.807C59.6625 24.807 57.8592 24.0958 56.4495 22.6862C55.1034 21.3527 54.4176 19.6256 54.4176 17.5937C54.4176 15.549 55.1034 13.8219 56.4368 12.463C57.7703 11.1042 59.5101 10.4184 61.5928 10.4184C62.8755 10.4184 64.0566 10.7105 65.0979 11.282C65.9234 11.7392 66.5965 12.3234 67.1045 13.0091C67.2949 13.2631 67.6124 13.4282 67.9553 13.4282C68.1458 13.4282 68.3236 13.3774 68.476 13.2885L70.0635 12.3742C70.3174 12.2218 70.5079 11.9805 70.5714 11.6884C70.6349 11.409 70.5714 11.1042 70.4063 10.8756C69.5428 9.66915 68.4125 8.66588 67.041 7.90391C65.39 6.97684 63.5613 6.51965 61.5928 6.51965C58.456 6.51965 55.7891 7.59912 53.6556 9.71994C51.5348 11.8408 50.4553 14.4823 50.4553 17.5429C50.4553 20.6289 51.5348 23.2577 53.6556 25.3785C55.7764 27.4993 58.5068 28.5661 61.7706 28.5661C64.4883 28.5661 67.6251 27.2453 69.5936 25.2769C71.3207 23.5498 72.0827 21.0861 72.2986 19.7145H72.3113L72.3494 19.3843C72.3875 19.016 72.4256 18.0382 72.451 17.2C72.4764 16.438 71.8541 15.8157 71.1048 15.8157H62.5961V15.803Z" fill="#002CB8"/>
<path d="M37.4766 17.5432C37.4766 20.7308 36.7273 23.8168 35.3304 26.5853C34.8605 27.5123 35.1653 28.6426 36.0416 29.2014C37.0321 29.8237 38.3656 29.4681 38.899 28.414C40.5626 25.1502 41.5024 21.4546 41.5024 17.5432C41.5024 13.6317 40.5626 9.94884 38.9117 6.68505C38.3783 5.63099 37.0575 5.2754 36.0543 5.89768C35.178 6.45646 34.8732 7.58672 35.3431 8.51379C36.74 11.2823 37.4766 14.3556 37.4766 17.5432Z" fill="#6FBAF7"/>
<path d="M30.9867 17.5433C30.9867 19.5244 30.5677 21.442 29.7549 23.1819C29.3358 24.0962 29.6533 25.1884 30.5042 25.7218C31.5328 26.3694 32.8917 25.9631 33.3997 24.8582C34.441 22.5977 34.9871 20.1086 34.9871 17.5433C34.9871 14.9779 34.441 12.5015 33.3997 10.241C32.8917 9.13614 31.5328 8.72976 30.5042 9.37743C29.6533 9.91082 29.3231 11.003 29.7422 11.9173C30.5677 13.6572 30.9867 15.5748 30.9867 17.5433Z" fill="#6FBAF7"/>
<path d="M17.5 31.0299C13.8933 31.0299 10.5152 29.633 7.96263 27.0803C5.41001 24.5277 4.01306 21.1496 4.01306 17.543C4.01306 13.9363 5.41001 10.5582 7.96263 8.0056C10.5152 5.45298 13.8933 4.05603 17.5 4.05603C21.3861 4.05603 24.1546 5.64348 25.742 6.86263C26.5421 7.48491 27.6723 7.42142 28.3835 6.69754C29.2344 5.84667 29.1455 4.43702 28.193 3.70044C26.0468 2.0495 22.4401 0.0429688 17.5 0.0429688C12.8266 0.0429688 8.43251 1.85901 5.13062 5.17359C1.81604 8.47548 0 12.8695 0 17.543C0 22.191 1.84144 26.6359 5.13062 29.9123C8.43251 33.2142 12.8266 35.043 17.5 35.043C21.4369 35.043 25.1705 33.7603 28.2184 31.3855C29.1582 30.6616 29.2344 29.2647 28.3962 28.4265C28.3835 28.4138 28.3708 28.4011 28.3581 28.3884C27.6597 27.6899 26.5421 27.6137 25.7547 28.2233C24.2054 29.4044 21.4115 31.0299 17.5 31.0299Z" fill="#007CFF"/>
<path d="M27.9899 16.108C27.6089 15.727 27.1009 15.5112 26.5676 15.5112L19.5447 15.5239C18.4271 15.5239 17.5255 16.4255 17.5255 17.5431C17.5255 18.6606 18.4271 19.5623 19.5447 19.5623H19.5574H24.2562C23.3673 22.534 20.548 24.6802 17.2588 24.5659C13.4616 24.4263 10.4391 21.2387 10.4899 17.4415C10.5407 13.6062 13.6648 10.5075 17.5255 10.5075C18.8716 10.5075 20.1543 10.8885 21.2718 11.587C22.0719 12.095 23.1133 11.9553 23.7863 11.2949C24.7007 10.3805 24.5356 8.85658 23.4435 8.17081C21.0432 6.64686 18.1096 6.10078 15.1379 6.72306C10.8836 7.61203 7.56901 10.9647 6.70544 15.2191C5.21959 22.3308 10.6423 28.6171 17.5128 28.6171C23.6213 28.6171 28.5868 23.6516 28.5868 17.5431C28.5868 17.0097 28.3709 16.489 27.9899 16.108Z" fill="#002CB8"/>
</svg>
