<svg width="147" height="40" viewBox="0 0 147 40" fill="none" xmlns="http://www.w3.org/2000/svg">
<path d="M112.424 5.98096H104.178C103.603 5.98096 103.143 6.40001 103.028 6.93334L99.6911 27.9619C99.6144 28.3429 99.8829 28.6857 100.266 28.7619C100.305 28.7619 100.343 28.7619 100.381 28.7619H104.6C104.984 28.7619 105.329 28.4571 105.405 28.0762L106.364 22.1333C106.441 21.5619 106.939 21.1429 107.515 21.181H110.123C115.568 21.181 118.713 18.5524 119.519 13.3714C119.902 11.1238 119.519 9.33334 118.483 8.0762C117.256 6.70477 115.185 5.98096 112.424 5.98096ZM113.382 13.6381C112.922 16.5714 110.66 16.5714 108.474 16.5714H107.246L108.128 11.0857C108.167 10.7429 108.474 10.5143 108.819 10.5143H109.394C110.89 10.5143 112.309 10.5143 112.999 11.3524C113.421 11.8476 113.536 12.6095 113.382 13.6381Z" fill="#009ADE"/>
<path d="M53.5547 5.98145H45.2708C44.6956 5.98145 44.2354 6.40049 44.1203 6.93383L40.7837 27.9624C40.707 28.3434 40.9755 28.6862 41.359 28.7624C41.3974 28.7624 41.4357 28.7624 41.4741 28.7624H45.4242C45.9995 28.7624 46.4597 28.3434 46.5748 27.81L47.4568 22.1338C47.5336 21.5624 48.0321 21.1434 48.6074 21.1814H51.2153C56.6611 21.1814 59.8059 18.5529 60.6113 13.3719C60.9948 11.1243 60.6113 9.33383 59.5758 8.07668C58.3869 6.70526 56.316 5.98145 53.5547 5.98145ZM54.4751 13.6386C54.0149 16.5719 51.7522 16.5719 49.5662 16.5719H48.3389L49.221 11.0862C49.2594 10.7434 49.5662 10.5148 49.9113 10.5148H50.4866C51.9823 10.5148 53.4013 10.5148 54.0916 11.3529C54.5135 11.8481 54.6669 12.61 54.4751 13.6386Z" fill="#002F87"/>
<path d="M78.2145 13.5621H74.2643C73.9192 13.5621 73.6507 13.7907 73.574 14.1335L73.3823 15.2383L73.1138 14.8573C72.2701 13.6383 70.3525 13.2192 68.435 13.2192C64.0629 13.2192 60.3429 16.4954 59.6142 21.105C59.2307 23.3907 59.7676 25.6002 61.0715 27.124C62.2604 28.5335 63.9862 29.105 66.0572 29.105C68.1281 29.143 70.0841 28.305 71.5414 26.8573L71.3496 27.9621C71.2729 28.343 71.5414 28.6859 71.9249 28.7621C71.9633 28.7621 72.0016 28.7621 72.04 28.7621H75.6066C76.1819 28.7621 76.6421 28.343 76.7572 27.8097L78.9048 14.3621C78.9815 13.9811 78.7131 13.6383 78.3295 13.5621C78.2912 13.5621 78.2528 13.5621 78.2145 13.5621ZM72.6919 21.1811C72.3851 23.3526 70.4676 24.9526 68.2432 24.9145C66.5557 25.0669 65.0601 23.8478 64.9066 22.2097C64.8683 21.8288 64.9066 21.4859 64.9834 21.105C65.2902 18.9335 67.2077 17.2954 69.4321 17.3335C70.4292 17.2954 71.388 17.6764 72.0783 18.4002C72.6919 19.2002 72.8837 20.1907 72.6919 21.1811Z" fill="#002F87"/>
<path d="M137.084 13.5621H133.133C132.788 13.5621 132.52 13.7907 132.443 14.1335L132.251 15.2383L131.983 14.8573C131.139 13.6383 129.222 13.2192 127.304 13.2192C122.932 13.2192 119.212 16.4954 118.483 21.105C118.1 23.3907 118.637 25.6002 119.941 27.124C121.129 28.5335 122.855 29.105 124.926 29.105C126.997 29.143 128.953 28.305 130.41 26.8573L130.219 27.9621C130.142 28.343 130.41 28.6859 130.794 28.7621C130.832 28.7621 130.871 28.7621 130.909 28.7621H134.476C135.051 28.7621 135.511 28.343 135.626 27.8097L137.774 14.3621C137.851 13.9811 137.582 13.6383 137.237 13.5621C137.199 13.5621 137.122 13.5621 137.084 13.5621ZM131.599 21.1811C131.292 23.3526 129.375 24.9526 127.151 24.9145C125.463 25.0669 123.967 23.8478 123.814 22.2097C123.776 21.8288 123.814 21.4859 123.891 21.105C124.198 18.9335 126.115 17.2954 128.339 17.3335C129.337 17.2954 130.295 17.6764 130.986 18.4002C131.561 19.2002 131.753 20.2288 131.599 21.1811Z" fill="#009ADE"/>
<path d="M99.2692 13.562H95.2807C94.8972 13.562 94.5521 13.7525 94.3219 14.0573L88.8377 22.0573L86.4983 14.362C86.3449 13.8668 85.8847 13.562 85.3861 13.562H81.4743C81.0908 13.562 80.784 13.8668 80.784 14.2477C80.784 14.3239 80.784 14.4001 80.8223 14.4763L85.1944 27.2382L81.0908 32.9906C80.8607 33.2953 80.9374 33.7144 81.2442 33.943C81.3593 34.0192 81.5127 34.0573 81.6661 34.0573H85.6546C86.0381 34.0573 86.3833 33.8668 86.6134 33.562L99.8445 14.6287C100.075 14.3239 99.9979 13.9049 99.6911 13.6763C99.5377 13.6001 99.4226 13.562 99.2692 13.562Z" fill="#002F87"/>
<path d="M141.762 6.5526L138.387 27.9621C138.311 28.3431 138.579 28.6859 138.963 28.7621C139.001 28.7621 139.039 28.7621 139.078 28.7621H142.491C143.066 28.7621 143.527 28.3431 143.642 27.8097L146.978 6.78117C147.055 6.40022 146.786 6.05736 146.403 5.98117C146.365 5.98117 146.326 5.98117 146.288 5.98117H142.491C142.146 5.94307 141.801 6.20974 141.762 6.5526Z" fill="#009ADE"/>
<path d="M30.7738 10.1714C31.2723 7.04762 30.7738 4.95238 29.0863 3.00952C27.2071 0.914286 23.8322 0 19.5369 0H6.99605C6.11397 0 5.3853 0.609524 5.2319 1.48571L0.016139 34.3619C-0.0989145 34.9333 0.284597 35.4667 0.859865 35.581C0.936567 35.581 1.01327 35.581 1.08997 35.581H8.83691L8.29999 38.9333C8.22329 39.4286 8.56845 39.9238 9.06701 40C9.10537 40 9.18207 40 9.22042 40H15.7401C16.5071 40 17.1591 39.4667 17.2742 38.7048L17.3509 38.3619L18.5781 30.6286L18.6548 30.2095C18.7699 29.4476 19.4218 28.9143 20.1889 28.9143H21.1476C27.4756 28.9143 32.3845 26.3619 33.8419 19.0095C34.4555 15.9238 34.1487 13.3714 32.5379 11.5429C32.0394 10.9714 31.4641 10.5143 30.7738 10.1714Z" fill="#009ADE"/>
<path d="M30.7738 10.1714C31.2723 7.04762 30.7738 4.95238 29.0863 3.00952C27.2071 0.914286 23.8322 0 19.5369 0H6.99605C6.11397 0 5.3853 0.609524 5.2319 1.48571L0.016139 34.3619C-0.0989145 34.9333 0.284597 35.4667 0.859865 35.581C0.936567 35.581 1.01327 35.581 1.08997 35.581H8.83691L10.7545 23.3524L10.6778 23.7333C10.8312 22.8571 11.5598 22.2476 12.4419 22.2476H16.1236C23.3336 22.2476 28.9713 19.3524 30.6587 10.8952C30.6971 10.6286 30.7354 10.4 30.7738 10.1714Z" fill="#002169"/>
<path d="M12.8638 10.2095C12.9405 9.71428 13.2856 9.25714 13.7459 9.06667C13.976 8.95238 14.2061 8.91428 14.4362 8.91428H24.2541C25.3279 8.91428 26.4017 8.99048 27.4756 9.14286C27.744 9.18095 28.0508 9.25714 28.3193 9.29524C28.5878 9.37143 28.8562 9.40952 29.0863 9.48571C29.2014 9.52381 29.3548 9.5619 29.4698 9.6C29.93 9.75238 30.3903 9.94286 30.8121 10.1714C31.3107 7.04762 30.8121 4.95238 29.1247 3.00952C27.2071 0.914286 23.8322 0 19.5369 0H6.99605C6.11397 0 5.3853 0.609524 5.2319 1.48571L0.016139 34.3619C-0.0989145 34.9333 0.284597 35.4667 0.859865 35.581C0.936567 35.581 1.01327 35.581 1.08997 35.581H8.83691L10.7545 23.3524L12.8638 10.2095Z" fill="#002F87"/>
</svg>
