<svg width="375" height="503" viewBox="0 0 375 503" fill="none" xmlns="http://www.w3.org/2000/svg">
<mask id="mask0" mask-type="alpha" maskUnits="userSpaceOnUse" x="0" y="0" width="375" height="503">
<rect width="375" height="503" fill="#C4C4C4"/>
</mask>
<g mask="url(#mask0)">
<path d="M0 -44H375V825H0V-44Z" fill="black" fill-opacity="0.4"/>
<path opacity="0.5" d="M403 503L401.6 499.398C387.24 455.096 367.101 422.968 325.637 415.656L241.131 390.552V353.597C258.326 338.326 268.306 322.586 277.748 294.528C294.046 297.733 310.488 268.163 314.544 246.084C318.601 224.005 312.606 211.11 296.595 207.184C296.595 205.887 296.595 204.555 296.595 203.294C296.595 140.659 282.451 71 189.58 71C96.7085 71 82.7796 140.659 82.7796 203.294C82.7796 204.555 82.7796 205.887 82.7796 207.184C66.9122 211.11 60.9529 224.293 64.83 246.084C68.7071 267.874 85.6874 297.697 101.842 294.528C111.284 322.586 121.263 338.326 138.459 353.597V390.552L50.3268 415.476C8.86325 422.788 -11.2403 454.916 -25.5999 499.398L-27 503" fill="white"/>
</g>
</svg>
