<svg width="64" height="64" viewBox="0 0 64 64" fill="none" xmlns="http://www.w3.org/2000/svg">
<g clip-path="url(#clip0)">
<path d="M10.0003 16.9354C8.76254 17.6498 8 18.9705 8 20.3997V43.9603C8 45.3895 8.76254 46.7102 10.0003 47.4246L30.4099 59.2055C31.6476 59.9199 33.1723 59.9198 34.4099 59.2052L54.8103 47.4248C56.0477 46.7102 56.81 45.3898 56.81 43.9608V20.3992C56.81 18.9702 56.0477 17.6498 54.8103 16.9352L34.4099 5.15484C33.1723 4.44022 31.6476 4.44009 30.4099 5.15449L10.0003 16.9354Z" fill="url(#paint0_linear)"/>
<path opacity="0.25" fill-rule="evenodd" clip-rule="evenodd" d="M57.1235 28.1987C57.1117 28.2003 57.0998 28.2018 57.088 28.2034C56.9238 28.2251 56.8083 28.3759 56.83 28.5402C56.8499 28.6898 56.9768 28.799 57.1235 28.8008V28.1987ZM39.8874 56.223C39.467 56.1141 39.0682 56.0084 38.6947 55.9076C38.5347 55.8644 38.3701 55.9591 38.3269 56.119C38.2837 56.279 38.3784 56.4437 38.5384 56.4868C38.7349 56.5399 38.9384 56.5943 39.1483 56.6498L39.8874 56.223ZM21.0651 53.6304C21.3157 53.6387 21.5689 53.6481 21.8248 53.6587C21.9904 53.6656 22.1302 53.537 22.1371 53.3715C22.1439 53.2059 22.0153 53.0661 21.8498 53.0592C21.2075 53.0325 20.5823 53.0138 19.9741 53.0006L21.0651 53.6304ZM8.31348 40.479C8.40148 40.5783 8.54837 40.6103 8.67258 40.5479C9.22875 40.2687 9.80878 40.0339 10.4075 39.8469C10.7471 39.746 11.091 39.6624 11.438 39.5962C11.6007 39.5652 11.7075 39.4081 11.6764 39.2453C11.6454 39.0826 11.4883 38.9758 11.3255 39.0069C10.9582 39.0769 10.5941 39.1655 10.2346 39.2723L10.2307 39.2736C9.60007 39.4703 8.98912 39.7176 8.40332 40.0118C8.3682 40.0294 8.33805 40.053 8.31348 40.0807V40.479ZM55.4309 29.1665C55.5898 29.1197 55.6807 28.9529 55.6339 28.794C55.5871 28.6351 55.4203 28.5442 55.2614 28.591C54.815 28.7224 54.3757 28.8798 53.9458 29.0626C53.6159 29.194 53.2909 29.337 52.9716 29.4912C52.8224 29.5632 52.7598 29.7425 52.8318 29.8917C52.9039 30.041 53.0832 30.1035 53.2324 30.0315C53.5401 29.883 53.8532 29.7454 54.171 29.6188L54.1775 29.6161C54.5871 29.4418 55.0056 29.2918 55.4309 29.1665ZM52.031 30.6833C52.1727 30.5975 52.218 30.413 52.1322 30.2713C52.0464 30.1295 51.862 30.0842 51.7202 30.17C51.4159 30.3543 51.1179 30.5494 50.8269 30.7551C50.6916 30.8507 50.6594 31.0379 50.7551 31.1732C50.8507 31.3085 51.0379 31.3406 51.1732 31.245C51.4526 31.0475 51.7387 30.8602 52.031 30.6833ZM50.2089 42.9559C50.0464 42.9234 49.8884 43.0287 49.8559 43.1912C49.8234 43.3537 49.9287 43.5117 50.0912 43.5442L50.1812 43.5622C50.2018 43.5663 50.2223 43.5682 50.2424 43.5681C50.261 43.576 50.2807 43.5821 50.3012 43.5862L50.3912 43.6042C50.4106 43.6081 50.4303 43.61 50.4501 43.61H50.4771L50.4864 43.6099L50.4951 43.6095L50.5063 43.61C50.9551 43.711 51.3857 43.8031 51.7985 43.8871C51.9609 43.9201 52.1193 43.8152 52.1523 43.6529C52.1853 43.4905 52.0804 43.3321 51.9181 43.2991C51.4996 43.214 51.0624 43.1204 50.6061 43.0174C50.5844 43.0125 50.5623 43.01 50.5401 43.01H50.5131C50.507 43.01 50.501 43.0102 50.4951 43.0106C50.49 43.0103 50.4849 43.0101 50.4798 43.01L50.4189 42.9979C50.3983 42.9937 50.3778 42.9918 50.3577 42.992C50.3391 42.9841 50.3195 42.978 50.2989 42.9739L50.2089 42.9559ZM53.6703 43.6265C53.5069 43.5988 53.3521 43.7088 53.3244 43.8722C53.2967 44.0355 53.4067 44.1904 53.5701 44.218C54.6099 44.3941 55.5033 44.5115 56.257 44.5886C56.4218 44.6055 56.5691 44.4856 56.586 44.3207C56.6029 44.1559 56.4829 44.0086 56.3181 43.9918C55.5779 43.916 54.6976 43.8004 53.6703 43.6265ZM13.9338 38.8202C13.5591 38.8031 13.1844 38.8049 12.811 38.8253C12.6456 38.8344 12.5188 38.9758 12.5278 39.1413C12.5369 39.3067 12.6784 39.4335 12.8438 39.4244C13.1972 39.4051 13.5518 39.4034 13.9064 39.4196C14.0719 39.4272 14.2122 39.2991 14.2197 39.1336C14.2273 38.9681 14.0993 38.8278 13.9338 38.8202ZM23.8833 53.1697C23.718 53.1585 23.5749 53.2835 23.5637 53.4488C23.5526 53.6141 23.6775 53.7571 23.8428 53.7683C24.8151 53.834 25.8221 53.9214 26.8637 54.0378C27.0283 54.0562 27.1767 53.9376 27.1951 53.773C27.2135 53.6083 27.095 53.4599 26.9303 53.4415C25.8792 53.3241 24.8635 53.2359 23.8833 53.1697ZM28.9499 53.6988C28.7858 53.6753 28.6338 53.7892 28.6103 53.9532C28.5868 54.1172 28.7007 54.2692 28.8647 54.2927C29.8328 54.4315 30.8286 54.5968 31.852 54.794C32.0147 54.8253 32.172 54.7188 32.2034 54.5561C32.2347 54.3934 32.1282 54.2361 31.9655 54.2048C30.9323 54.0058 29.9271 53.8388 28.9499 53.6988ZM33.9659 54.6237C33.8043 54.5871 33.6436 54.6885 33.6071 54.8501C33.5705 55.0117 33.6719 55.1723 33.8335 55.2089C34.3164 55.3182 34.8052 55.4347 35.2997 55.5591C35.4157 55.5961 35.9119 55.7483 36.6747 55.9678C36.834 56.0136 37.0002 55.9216 37.046 55.7624C37.0918 55.6032 36.9999 55.437 36.8407 55.3911C36.0114 55.1526 35.5269 55.0019 35.4879 54.9898L35.4879 54.9898L35.4854 54.989C35.4749 54.9851 35.4641 54.9817 35.4532 54.979C34.9516 54.8528 34.4558 54.7345 33.9659 54.6237Z" fill="white"/>
<path opacity="0.25" d="M30.4604 52.4002C26.3072 52.4002 22.9404 51.8451 22.9404 51.1602C22.9404 50.4754 26.3072 49.9202 30.4604 49.9202C34.6136 49.9202 37.9804 50.4754 37.9804 51.1602C37.9804 51.8451 34.6136 52.4002 30.4604 52.4002Z" fill="#875AFF"/>
<path d="M22.0474 16.4192L22.0638 16.4076C24.2637 14.8506 27.3092 15.3717 28.8663 17.5716L32.6387 22.9017C34.1958 25.1015 33.6746 28.1471 31.4747 29.7042L31.4584 29.7157C29.2585 31.2727 26.213 30.7516 24.6559 28.5517L20.8835 23.2217C19.3264 21.0218 19.8476 17.9762 22.0474 16.4192Z" fill="#E8EFF7"/>
<path d="M33.2232 14.7391L33.243 14.7414C35.9202 15.0522 37.8386 17.4743 37.5279 20.1515L36.7751 26.6379C36.4644 29.3151 34.0423 31.2334 31.3651 30.9228L31.3452 30.9205C28.668 30.6097 26.7496 28.1876 27.0603 25.5104L27.8131 19.024C28.1238 16.3468 30.546 14.4284 33.2232 14.7391Z" fill="white"/>
<path d="M25.7203 24.3301H39.4703C45.9044 24.3301 51.1203 29.5459 51.1203 35.9801V36.0401C51.1203 42.4742 45.9044 47.6901 39.4703 47.6901H25.7203C19.2862 47.6901 14.0703 42.4742 14.0703 36.0401V35.9801C14.0703 29.5459 19.2862 24.3301 25.7203 24.3301Z" fill="url(#paint1_linear)"/>
<path d="M35.6817 47.6898H27.0885C25.7503 45.4951 20.0024 34.8426 27.3217 24.3298H35.8205C34.5558 26.006 27.2648 36.5906 35.6817 47.6898Z" fill="#000A64"/>
<path d="M20.1256 25.7581C18.0394 29.159 14.317 37.3445 19.8529 46.1071C16.3936 44.087 14.0693 40.3348 14.0693 36.0398V35.9798C14.0693 31.5728 16.5163 27.7374 20.1256 25.7581Z" fill="#000A64"/>
<path d="M38.2697 36.0201C37.2535 36.0201 36.4297 35.1963 36.4297 34.1801C36.4297 33.1639 37.2535 32.3401 38.2697 32.3401C39.2859 32.3401 40.1097 33.1639 40.1097 34.1801C40.1097 35.1963 39.2859 36.0201 38.2697 36.0201Z" fill="#000A64"/>
<path d="M37.9899 34.41C37.6751 34.41 37.4199 34.1548 37.4199 33.84C37.4199 33.5252 37.6751 33.27 37.9899 33.27C38.3047 33.27 38.5599 33.5252 38.5599 33.84C38.5599 34.1548 38.3047 34.41 37.9899 34.41Z" fill="white"/>
<path d="M47.6095 36.0201C46.5933 36.0201 45.7695 35.1963 45.7695 34.1801C45.7695 33.1639 46.5933 32.3401 47.6095 32.3401C48.6257 32.3401 49.4495 33.1639 49.4495 34.1801C49.4495 35.1963 48.6257 36.0201 47.6095 36.0201Z" fill="#000A64"/>
<path d="M47.3395 34.41C47.0247 34.41 46.7695 34.1548 46.7695 33.84C46.7695 33.5252 47.0247 33.27 47.3395 33.27C47.6543 33.27 47.9095 33.5252 47.9095 33.84C47.9095 34.1548 47.6543 34.41 47.3395 34.41Z" fill="white"/>
<path d="M37.24 38.9701C36.141 38.9701 35.25 38.3926 35.25 37.6801C35.25 36.9677 36.141 36.3901 37.24 36.3901C38.3391 36.3901 39.23 36.9677 39.23 37.6801C39.23 38.3926 38.3391 38.9701 37.24 38.9701Z" fill="url(#paint2_linear)"/>
<path d="M48.6396 38.99C47.7891 38.99 47.0996 38.4214 47.0996 37.72C47.0996 37.0185 47.7891 36.45 48.6396 36.45C49.4901 36.45 50.1796 37.0185 50.1796 37.72C50.1796 38.4214 49.4901 38.99 48.6396 38.99Z" fill="url(#paint3_linear)"/>
<path fill-rule="evenodd" clip-rule="evenodd" d="M45.6528 26.7826L45.6531 26.7811L45.655 26.7716C45.6567 26.7627 45.6595 26.7487 45.6633 26.73C45.6711 26.6926 45.6832 26.6365 45.7002 26.565C45.7341 26.4219 45.7869 26.2178 45.862 25.9784C46.0134 25.4958 46.2497 24.887 46.5917 24.3458C46.9361 23.8007 47.3616 23.3653 47.8754 23.1622C48.3689 22.9671 49.0179 22.9573 49.8887 23.4085C50.1143 23.5254 50.3919 23.4373 50.5087 23.2117C50.6256 22.9861 50.5375 22.7085 50.3119 22.5916C49.2527 22.0428 48.3242 21.9955 47.5371 22.3067C46.7703 22.6098 46.212 23.2244 45.8139 23.8543C45.4135 24.4881 45.1485 25.1793 44.9842 25.703C44.9015 25.9667 44.843 26.1923 44.8049 26.3531C44.7859 26.4335 44.7719 26.498 44.7625 26.5431C44.7578 26.5657 44.7543 26.5834 44.7519 26.596L44.749 26.6108L44.7482 26.6152L44.7479 26.6166L44.7479 26.6171C44.7478 26.6173 44.7478 26.6175 45.2003 26.7001L44.7478 26.6175C44.7022 26.8674 44.8678 27.107 45.1177 27.1526C45.3676 27.1982 45.6071 27.0327 45.6528 26.7829L45.6528 26.7829L45.6528 26.7826Z" fill="#000A64"/>
<path fill-rule="evenodd" clip-rule="evenodd" d="M43.6237 19.9541C43.6657 20.2047 43.4966 20.4418 43.2461 20.4838C42.4286 20.6208 41.9231 21.0277 41.5986 21.5623C41.2626 22.1158 41.1085 22.8297 41.0668 23.5709C41.0255 24.3068 41.0969 25.0314 41.1807 25.5769C41.2223 25.8484 41.2666 26.0725 41.3001 26.2278C41.3169 26.3053 41.3309 26.3655 41.3406 26.4056C41.3455 26.4257 41.3492 26.4407 41.3516 26.4503L41.3543 26.4607L41.3548 26.4627C41.4195 26.7083 41.273 26.9601 41.0275 27.0249C40.7818 27.0897 40.5301 26.9432 40.4653 26.6975L40.9101 26.5801C40.4653 26.6975 40.4653 26.6977 40.4653 26.6975L40.4647 26.6954L40.4636 26.691L40.4598 26.676C40.4565 26.6633 40.452 26.645 40.4463 26.6216C40.435 26.5748 40.4193 26.5074 40.4009 26.4221C40.364 26.2516 40.3162 26.0091 40.2713 25.7165C40.1819 25.1339 40.1021 24.341 40.1483 23.5193C40.1941 22.7031 40.3663 21.8195 40.8121 21.0849C41.2695 20.3313 42.0015 19.7595 43.094 19.5765C43.3446 19.5345 43.5818 19.7036 43.6237 19.9541Z" fill="#000A64"/>
<path d="M44.9498 40.63C46.3398 39.26 46.7798 37.78 46.3098 37.19C46.0428 36.918 45.689 36.7482 45.3098 36.71C44.9003 36.6702 44.4871 36.7214 44.0998 36.86C43.774 36.9663 43.4393 37.0432 43.0998 37.09H42.9598L41.7498 36.63C41.4398 36.51 40.6598 36.25 40.2098 36.63C39.7598 37.01 39.6698 38.53 40.7398 40.03C41.3533 40.3978 42.0327 40.6423 42.7398 40.75C43.4772 40.8556 44.2282 40.8148 44.9498 40.63Z" fill="url(#paint4_linear)"/>
<path d="M42.9401 42.8201C42.073 42.8201 41.3701 41.8307 41.3701 40.6101C41.3701 39.3896 42.073 38.4001 42.9401 38.4001C43.8072 38.4001 44.5101 39.3896 44.5101 40.6101C44.5101 41.8307 43.8072 42.8201 42.9401 42.8201Z" fill="url(#paint5_linear)"/>
<path d="M42.9402 41.4901C42.4155 41.4901 41.9902 40.8901 41.9902 40.1501C41.9902 39.41 42.4155 38.8101 42.9402 38.8101C43.4649 38.8101 43.8902 39.41 43.8902 40.1501C43.8902 40.8901 43.4649 41.4901 42.9402 41.4901Z" fill="url(#paint6_linear)"/>
<path d="M47.7297 26L47.2597 26.94L46.3997 27.45C46.3873 27.4582 46.3772 27.4694 46.3701 27.4825C46.3631 27.4955 46.3594 27.5102 46.3594 27.525C46.3594 27.5399 46.3631 27.5545 46.3701 27.5676C46.3772 27.5807 46.3873 27.5918 46.3997 27.6L47.2597 28.12L47.7297 29.07C47.7366 29.0825 47.7468 29.0929 47.7591 29.1002C47.7714 29.1075 47.7854 29.1113 47.7997 29.1113C47.814 29.1113 47.828 29.1075 47.8403 29.1002C47.8526 29.0929 47.8628 29.0825 47.8697 29.07L48.3397 28.12L49.1997 27.6C49.2121 27.5918 49.2222 27.5807 49.2293 27.5676C49.2363 27.5545 49.2399 27.5399 49.2399 27.525C49.2399 27.5102 49.2363 27.4955 49.2293 27.4825C49.2222 27.4694 49.2121 27.4582 49.1997 27.45L48.3397 26.94L47.8697 26C47.8628 25.9875 47.8526 25.9771 47.8403 25.9698C47.828 25.9626 47.814 25.9587 47.7997 25.9587C47.7854 25.9587 47.7714 25.9626 47.7591 25.9698C47.7468 25.9771 47.7366 25.9875 47.7297 26Z" fill="url(#paint7_linear)"/>
<path d="M36.3698 56.7901L35.9298 57.6701L35.1398 58.1401C35.1274 58.1483 35.1173 58.1595 35.1103 58.1726C35.1032 58.1857 35.0996 58.2003 35.0996 58.2151C35.0996 58.23 35.1032 58.2446 35.1103 58.2577C35.1173 58.2708 35.1274 58.2819 35.1398 58.2901L35.9298 58.7601L36.3698 59.6401C36.376 59.6505 36.3848 59.6591 36.3953 59.665C36.4059 59.671 36.4177 59.6741 36.4298 59.6741C36.4419 59.6741 36.4538 59.671 36.4643 59.665C36.4748 59.6591 36.4836 59.6505 36.4898 59.6401L36.9298 58.7601L37.7198 58.2901C37.7322 58.2819 37.7423 58.2708 37.7494 58.2577C37.7564 58.2446 37.7601 58.23 37.7601 58.2151C37.7601 58.2003 37.7564 58.1857 37.7494 58.1726C37.7423 58.1595 37.7322 58.1483 37.7198 58.1401L36.9998 57.7001L36.5598 56.8201C36.5638 56.7949 36.5576 56.7692 36.5426 56.7486C36.5276 56.7279 36.505 56.7141 36.4798 56.7101C36.4546 56.7062 36.4289 56.7124 36.4082 56.7274C36.3876 56.7424 36.3738 56.7649 36.3698 56.7901Z" fill="url(#paint8_linear)"/>
<path opacity="0.5" d="M18.6096 48.2101L18.3796 48.6701L17.9596 48.9201C17.9498 48.9311 17.9443 48.9453 17.9443 48.9601C17.9443 48.9748 17.9498 48.9891 17.9596 49.0001L18.3796 49.2501L18.6096 49.7101C18.6096 49.7101 18.6096 49.7101 18.6796 49.7101L18.9096 49.2501L19.3396 49.0001V48.9201L18.9196 48.6701L18.6896 48.2101C18.6896 48.2101 18.6196 48.1801 18.6096 48.2101Z" fill="url(#paint9_linear)"/>
<path opacity="0.5" d="M14.0001 21L13.7001 21.62L13.1401 21.95C13.1319 21.9555 13.1251 21.9629 13.1204 21.9716C13.1157 21.9804 13.1133 21.9901 13.1133 22C13.1133 22.0099 13.1157 22.0196 13.1204 22.0284C13.1251 22.0371 13.1319 22.0445 13.1401 22.05L13.7001 22.39L14.0001 23H14.0901L14.4001 22.39L14.9601 22.05C14.9668 22.0435 14.9721 22.0357 14.9757 22.0271C14.9793 22.0185 14.9811 22.0093 14.9811 22C14.9811 21.9907 14.9793 21.9815 14.9757 21.9729C14.9721 21.9643 14.9668 21.9565 14.9601 21.95L14.4001 21.62L14.0901 21H14.0001Z" fill="url(#paint10_linear)"/>
<path d="M43.1102 11.6799L42.6902 12.5299L41.9202 12.9899C41.9077 12.9969 41.8973 13.007 41.89 13.0193C41.8828 13.0316 41.8789 13.0456 41.8789 13.0599C41.8789 13.0742 41.8828 13.0883 41.89 13.1006C41.8973 13.1129 41.9077 13.123 41.9202 13.1299L42.6902 13.5899L43.1102 14.4399C43.1164 14.4503 43.1252 14.4589 43.1357 14.4648C43.1462 14.4708 43.1581 14.4739 43.1702 14.4739C43.1823 14.4739 43.1942 14.4708 43.2047 14.4648C43.2152 14.4589 43.224 14.4503 43.2302 14.4399L43.6502 13.5899L44.4202 13.1299C44.4327 13.123 44.4431 13.1129 44.4504 13.1006C44.4576 13.0883 44.4615 13.0742 44.4615 13.0599C44.4615 13.0456 44.4576 13.0316 44.4504 13.0193C44.4431 13.007 44.4327 12.9969 44.4202 12.9899L43.6502 12.5299L43.2302 11.6799C43.224 11.6696 43.2152 11.661 43.2047 11.6551C43.1942 11.6491 43.1823 11.646 43.1702 11.646C43.1581 11.646 43.1462 11.6491 43.1357 11.6551C43.1252 11.661 43.1164 11.6696 43.1102 11.6799Z" fill="url(#paint11_linear)"/>
<path d="M51.4299 47.7801L50.9299 48.7801L50.0099 49.3201C49.9987 49.3312 49.9898 49.3445 49.9838 49.359C49.9777 49.3736 49.9746 49.3893 49.9746 49.4051C49.9746 49.4209 49.9777 49.4365 49.9838 49.4511C49.9898 49.4657 49.9987 49.4789 50.0099 49.4901L50.9299 50.0401L51.4299 51.0401C51.4381 51.0524 51.4493 51.0626 51.4623 51.0696C51.4754 51.0766 51.4901 51.0803 51.5049 51.0803C51.5198 51.0803 51.5344 51.0766 51.5475 51.0696C51.5606 51.0626 51.5717 51.0524 51.5799 51.0401L52.0799 50.0401L52.9999 49.5301C53.0111 49.5189 53.02 49.5057 53.026 49.4911C53.0321 49.4765 53.0352 49.4609 53.0352 49.4451C53.0352 49.4293 53.0321 49.4136 53.026 49.399C53.02 49.3845 53.0111 49.3712 52.9999 49.3601L52.0799 48.8201L51.5799 47.8201C51.5802 47.8022 51.5745 47.7848 51.5637 47.7705C51.553 47.7563 51.5378 47.7461 51.5205 47.7415C51.5033 47.7369 51.485 47.7382 51.4686 47.7452C51.4522 47.7522 51.4385 47.7644 51.4299 47.7801Z" fill="url(#paint12_linear)"/>
<path d="M14.9004 13.1401L14.4004 14.1401L13.4804 14.6901C13.468 14.6994 13.4579 14.7114 13.451 14.7253C13.444 14.7392 13.4404 14.7545 13.4404 14.7701C13.4404 14.7856 13.444 14.8009 13.451 14.8148C13.4579 14.8287 13.468 14.8407 13.4804 14.8501L14.4004 15.4001L14.9004 16.4001C14.9061 16.4154 14.9163 16.4286 14.9298 16.4379C14.9432 16.4472 14.9591 16.4522 14.9754 16.4522C14.9918 16.4522 15.0077 16.4472 15.0211 16.4379C15.0345 16.4286 15.0447 16.4154 15.0504 16.4001L15.5504 15.4001L16.4704 14.8501C16.4851 14.8425 16.4974 14.831 16.506 14.8169C16.5146 14.8028 16.5192 14.7866 16.5192 14.7701C16.5192 14.7535 16.5146 14.7373 16.506 14.7232C16.4974 14.7091 16.4851 14.6976 16.4704 14.6901L15.5504 14.1401L15.0504 13.1401C15.0447 13.1247 15.0345 13.1115 15.0211 13.1022C15.0077 13.0929 14.9918 13.0879 14.9754 13.0879C14.9591 13.0879 14.9432 13.0929 14.9298 13.1022C14.9163 13.1115 14.9061 13.1247 14.9004 13.1401Z" fill="url(#paint13_linear)"/>
</g>
<defs>
<linearGradient id="paint0_linear" x1="32.405" y1="60.14" x2="32.405" y2="11.33" gradientUnits="userSpaceOnUse">
<stop stop-color="#61D3F7"/>
<stop offset="1" stop-color="#318BFF"/>
</linearGradient>
<linearGradient id="paint1_linear" x1="32.6003" y1="47.7001" x2="32.6003" y2="24.3301" gradientUnits="userSpaceOnUse">
<stop stop-color="#FFB500"/>
<stop offset="0.96" stop-color="#FFD271"/>
</linearGradient>
<linearGradient id="paint2_linear" x1="37.04" y1="41.0801" x2="37.39" y2="35.2501" gradientUnits="userSpaceOnUse">
<stop stop-color="#FF952D"/>
<stop offset="1" stop-color="#FF782D"/>
</linearGradient>
<linearGradient id="paint3_linear" x1="-10.0652" y1="132.386" x2="-9.33122" y2="117.561" gradientUnits="userSpaceOnUse">
<stop stop-color="#FF952D"/>
<stop offset="1" stop-color="#FF782D"/>
</linearGradient>
<linearGradient id="paint4_linear" x1="-44.768" y1="176.334" x2="-44.768" y2="205.391" gradientUnits="userSpaceOnUse">
<stop stop-color="#71C4FF"/>
<stop offset="1" stop-color="#318BFF"/>
</linearGradient>
<linearGradient id="paint5_linear" x1="42.9401" y1="39.5301" x2="42.9401" y2="42.6601" gradientUnits="userSpaceOnUse">
<stop stop-color="#FFF2A5"/>
<stop offset="1" stop-color="#FFD400"/>
</linearGradient>
<linearGradient id="paint6_linear" x1="-3.64771" y1="134.915" x2="-3.64771" y2="140.034" gradientUnits="userSpaceOnUse">
<stop stop-color="#71C4FF"/>
<stop offset="1" stop-color="#318BFF"/>
</linearGradient>
<linearGradient id="paint7_linear" x1="49.2697" y1="27.52" x2="46.3297" y2="27.52" gradientUnits="userSpaceOnUse">
<stop stop-color="white"/>
<stop offset="1" stop-color="#E7EFF7"/>
</linearGradient>
<linearGradient id="paint8_linear" x1="-13.3482" y1="217.537" x2="-20.5847" y2="217.537" gradientUnits="userSpaceOnUse">
<stop stop-color="#FFB500"/>
<stop offset="0.96" stop-color="#FFD271"/>
</linearGradient>
<linearGradient id="paint9_linear" x1="-33.1787" y1="116.266" x2="-35.1879" y2="116.266" gradientUnits="userSpaceOnUse">
<stop stop-color="white"/>
<stop offset="1" stop-color="#E7EFF7"/>
</linearGradient>
<linearGradient id="paint10_linear" x1="-63.5057" y1="57.02" x2="-67.0919" y2="57.02" gradientUnits="userSpaceOnUse">
<stop stop-color="white"/>
<stop offset="1" stop-color="#E7EFF7"/>
</linearGradient>
<linearGradient id="paint11_linear" x1="12.1539" y1="37.3515" x2="5.33599" y2="37.3515" gradientUnits="userSpaceOnUse">
<stop stop-color="#FFB500"/>
<stop offset="0.96" stop-color="#FFD271"/>
</linearGradient>
<linearGradient id="paint12_linear" x1="41.0071" y1="199.612" x2="31.4274" y2="199.612" gradientUnits="userSpaceOnUse">
<stop stop-color="white"/>
<stop offset="1" stop-color="#E7EFF7"/>
</linearGradient>
<linearGradient id="paint13_linear" x1="-108.048" y1="49.4562" x2="-117.685" y2="49.4562" gradientUnits="userSpaceOnUse">
<stop stop-color="white"/>
<stop offset="1" stop-color="#E7EFF7"/>
</linearGradient>
<clipPath id="clip0">
<rect width="49" height="57" fill="white" transform="translate(8 4)"/>
</clipPath>
</defs>
</svg>
