<svg width="140" height="140" viewBox="0 0 140 140" fill="none" xmlns="http://www.w3.org/2000/svg">
<path d="M140 69.8777C139.97 52.8964 133.769 36.5048 122.55 23.7566C111.332 11.0083 95.8621 2.77277 79.0223 0.584044C62.1825 -1.60468 45.1213 2.40269 31.0169 11.8596C16.9125 21.3166 6.72674 35.5782 2.3571 51.9878C-2.01254 68.3973 -0.268081 85.8358 7.2655 101.055C14.7991 116.273 27.6081 128.235 43.3063 134.71C59.0045 141.186 76.5215 141.734 92.594 136.253C108.666 130.772 122.199 119.636 130.669 104.918C136.804 94.2602 140.022 82.1746 140 69.8777Z" fill="#F3F4F5"/>
<path d="M71.3113 106.99C91.1039 106.99 107.142 104.878 107.142 102.275C107.142 99.6719 91.1239 97.5594 71.3113 97.5594C51.4986 97.5594 35.4803 99.6919 35.4803 102.295C35.4803 104.898 51.5187 106.99 71.3113 106.99Z" fill="#9DAFED"/>
<path d="M72.5828 90.103C76.1768 90.103 79.0902 87.1895 79.0902 83.5956C79.0902 80.0016 76.1768 77.0881 72.5828 77.0881C68.9889 77.0881 66.0754 80.0016 66.0754 83.5956C66.0754 87.1895 68.9889 90.103 72.5828 90.103Z" fill="#FDD405" stroke="#221F50" stroke-width="0.8" stroke-miterlimit="10"/>
<path d="M56.0038 37.7209C58.3758 37.7209 60.2987 35.798 60.2987 33.426C60.2987 31.054 58.3758 29.1311 56.0038 29.1311C53.6318 29.1311 51.7089 31.054 51.7089 33.426C51.7089 35.798 53.6318 37.7209 56.0038 37.7209Z" fill="#221F50" stroke="#221F51" stroke-width="0.8" stroke-linecap="round" stroke-linejoin="round"/>
<path d="M99.3433 69.3781C99.7949 70.7959 99.6727 72.3342 99.003 73.663C98.6677 74.3209 98.206 74.9063 97.6442 75.3856C97.0825 75.8649 96.4317 76.2287 95.7292 76.4562L48.8957 91.5634C47.4778 92.0215 45.9361 91.8975 44.6096 91.2188C43.2832 90.54 42.2807 89.3622 41.8226 87.9443C41.3646 86.5264 41.4886 84.9847 42.1673 83.6582C42.846 82.3318 44.0239 81.3293 45.4418 80.8712C44.0602 74.6041 42.6753 68.3403 41.287 62.0798C40.3667 59.2354 40.0157 56.2376 40.2539 53.2575C40.4922 50.2774 41.3151 47.3735 42.6756 44.7114C44.0361 42.0494 45.9077 39.6814 48.1834 37.7426C50.4591 35.8039 53.0944 34.3323 55.9388 33.412C58.7832 32.4917 61.781 32.1407 64.761 32.3789C67.7411 32.6172 70.6451 33.4401 73.3071 34.8006C75.9692 36.1611 78.3372 38.0327 80.2759 40.3084C82.2147 42.5841 83.6862 45.2194 84.6065 48.0638L92.2452 65.7339C92.9504 65.5023 93.6945 65.4129 94.4345 65.4711C95.1745 65.5292 95.8955 65.7337 96.5558 66.0727C97.2161 66.4117 97.8025 66.8785 98.2811 67.4459C98.7596 68.0133 99.1206 68.6701 99.3433 69.3781Z" fill="white" stroke="#221F51" stroke-width="0.8" stroke-linecap="round" stroke-linejoin="round"/>
<path d="M74.3348 39.9736C74.94 40.4095 75.5215 40.8773 76.0768 41.3752L74.3348 39.9736Z" fill="white"/>
<path d="M74.3348 39.9736C74.94 40.4095 75.5215 40.8773 76.0768 41.3752" stroke="#221F51" stroke-width="0.8" stroke-linecap="round" stroke-linejoin="round"/>
<path d="M60.1486 36.6499C64.1723 36.0119 68.2947 36.6674 71.922 38.5221L72.0221 38.5822" fill="white"/>
<path d="M60.1486 36.6499C64.1723 36.0119 68.2947 36.6674 71.922 38.5221L72.0221 38.5822" stroke="#221F51" stroke-width="0.8" stroke-linecap="round" stroke-linejoin="round"/>
<path d="M78.009 52.6781C78.2455 52.8741 78.5346 52.996 78.84 53.0285C79.1172 53.0626 79.3984 53.0384 79.6656 52.9574C79.9329 52.8763 80.1802 52.7403 80.3918 52.558C81.6532 51.4067 81.0926 48.173 78.84 44.4688" fill="white"/>
<path d="M78.009 52.6781C78.2455 52.8741 78.5346 52.996 78.84 53.0285C79.1172 53.0626 79.3984 53.0384 79.6656 52.9574C79.9329 52.8763 80.1802 52.7403 80.3918 52.558C81.6532 51.4067 81.0926 48.173 78.84 44.4688" stroke="#221F51" stroke-width="0.8" stroke-linecap="round" stroke-linejoin="round"/>
<path d="M66.8262 40.9747C69.831 41.8313 72.4698 43.6539 74.3348 46.1607C75.2654 47.4649 76.0352 48.8767 76.6274 50.3655" fill="white"/>
<path d="M66.8262 40.9747C69.831 41.8313 72.4698 43.6539 74.3348 46.1607C75.2654 47.4649 76.0352 48.8767 76.6274 50.3655" stroke="#221F51" stroke-width="0.8" stroke-linecap="round" stroke-linejoin="round"/>
<path d="M58.1963 37.0702C58.0378 37.0931 57.8829 37.1369 57.7358 37.2003C56.4143 37.7209 55.4632 39.523 55.9738 40.5842C56.1668 40.9496 56.4875 41.2311 56.8748 41.3751C58.787 42.2761 60.4489 40.8245 63.6426 40.6743H63.9829" fill="white"/>
<path d="M58.1963 37.0702C58.0378 37.0931 57.8829 37.1369 57.7358 37.2003C56.4143 37.7209 55.4632 39.523 55.9738 40.5842C56.1668 40.9496 56.4875 41.2311 56.8748 41.3751C58.787 42.2761 60.4489 40.8245 63.6426 40.6743H63.9829" stroke="#221F51" stroke-width="0.8" stroke-linecap="round" stroke-linejoin="round"/>
</svg>
