<svg width="141" height="141" viewBox="0 0 141 141" fill="none" xmlns="http://www.w3.org/2000/svg">
<g clip-path="url(#clip0)">
<path d="M117.946 68.5573L118.577 68.2521C119.112 67.8802 119.566 67.4041 119.913 66.8522C120.251 66.2945 120.476 65.6758 120.576 65.0314C120.707 64.3925 120.707 63.7336 120.576 63.0948C120.424 62.4581 120.148 61.8573 119.766 61.3265L115.137 54.8852C114.349 53.8166 113.172 53.1015 111.861 52.8947C110.55 52.6878 109.21 53.0059 108.132 53.78L107.49 54.1905C106.958 54.5652 106.504 55.0408 106.154 55.5903C105.801 56.1397 105.565 56.7559 105.46 57.4007C105.355 58.0441 105.376 58.702 105.523 59.3373C105.669 59.9741 105.941 60.5753 106.322 61.1055L110.909 67.5679C111.728 68.6329 112.934 69.3323 114.264 69.5151C115.583 69.6985 116.921 69.3544 117.988 68.5573H117.946Z" fill="white" stroke="#221F54" stroke-miterlimit="10" stroke-linecap="round"/>
<path d="M117.641 69.6626L118.283 69.7784C119.621 69.927 120.965 69.542 122.022 68.7068C123.079 67.8716 123.765 66.6533 123.931 65.3157L124.983 57.485C125.119 56.152 124.723 54.8192 123.882 53.7765C123.041 52.7339 121.822 52.0657 120.492 51.9172L119.85 51.7909C118.512 51.6412 117.169 52.0187 116.105 52.8434C115.048 53.6768 114.363 54.8954 114.201 56.2325L113.37 64.1474C113.267 64.792 113.295 65.4509 113.454 66.084C113.615 66.7197 113.906 67.3153 114.308 67.8333C114.709 68.3513 115.214 68.7806 115.79 69.0942C116.361 69.409 116.991 69.6025 117.641 69.6626Z" fill="white" stroke="#221F54" stroke-miterlimit="10" stroke-linecap="round"/>
<path d="M112.013 62.4737L127.276 62.3369C130.683 62.3369 133.949 63.6909 136.358 66.1009C138.767 68.511 140.12 71.7797 140.12 75.1881C140.12 78.5964 138.767 81.8652 136.358 84.2753C133.949 86.6853 130.683 88.0393 127.276 88.0393L112.013 88.1656C110.299 88.2142 108.592 87.9209 106.992 87.3029C105.392 86.6849 103.931 85.7546 102.694 84.566C101.459 83.3671 100.472 81.9365 99.7904 80.3559C99.1169 78.7679 98.7698 77.0605 98.7698 75.3354C98.7698 73.6104 99.1169 71.903 99.7904 70.315C100.809 67.9236 102.526 65.8963 104.717 64.4988C106.908 63.1014 109.469 62.3992 112.066 62.4843L112.013 62.4737Z" fill="#FDD407"/>
<path fill-rule="evenodd" clip-rule="evenodd" d="M105.284 86.4952C104.345 85.9643 103.475 85.3167 102.694 84.5662C101.459 83.3673 100.472 81.9367 99.7904 80.3561C99.1169 78.7682 98.7698 77.0607 98.7698 75.3357C98.7698 73.6106 99.1169 71.9032 99.7904 70.3152C100.809 67.9239 102.526 65.8965 104.717 64.499C105.102 64.2536 105.498 64.0297 105.904 63.8276C103.626 67.5248 99.368 76.6765 105.284 86.4952ZM113.506 88.1534C111.842 85.349 106.045 73.9888 113.484 62.4608L123.052 62.375C120.747 65.8881 115.003 76.7665 123.273 88.0726L113.506 88.1534Z" fill="#221F54"/>
<path d="M132.914 76.7773C132.434 77.1871 131.83 77.4243 131.199 77.451C130.568 77.4777 129.946 77.2924 129.432 76.9247" stroke="#221F54" stroke-miterlimit="10" stroke-linecap="round"/>
<path d="M133.44 73.6935C133.437 73.9955 133.524 74.2914 133.691 74.5429C133.858 74.7944 134.097 74.9899 134.377 75.1039C134.656 75.2203 134.964 75.2496 135.26 75.1881C135.557 75.1306 135.83 74.9856 136.043 74.7718C136.257 74.558 136.402 74.2851 136.459 73.9882C136.521 73.6918 136.491 73.3837 136.375 73.1041C136.256 72.8257 136.059 72.588 135.807 72.42C135.513 72.226 135.162 72.1389 134.811 72.1734C134.461 72.2079 134.133 72.3618 133.882 72.6095C133.599 72.899 133.44 73.2882 133.44 73.6935Z" fill="#221F54"/>
<path d="M125.835 73.5705C125.832 73.8724 125.919 74.1684 126.086 74.4199C126.253 74.6714 126.492 74.8669 126.771 74.9809C127.051 75.0972 127.359 75.1265 127.655 75.0651C127.952 75.0076 128.224 74.8626 128.438 74.6488C128.652 74.435 128.797 74.1621 128.854 73.8652C128.916 73.5687 128.886 73.2606 128.77 72.9811C128.651 72.7027 128.454 72.4649 128.202 72.297C127.908 72.1029 127.556 72.0159 127.206 72.0504C126.856 72.0848 126.528 72.2388 126.277 72.4864C125.994 72.7759 125.835 73.1652 125.835 73.5705Z" fill="#221F54"/>
<path d="M134.25 73.5251C134.229 73.6009 134.229 73.6809 134.25 73.7567C134.272 73.8313 134.316 73.8974 134.376 73.9461C134.437 73.9934 134.51 74.0226 134.587 74.0303C134.668 74.0305 134.748 74.0087 134.818 73.9672C134.881 73.9766 134.945 73.9766 135.007 73.9672C135.061 73.9308 135.111 73.8885 135.155 73.8409C135.22 73.7794 135.27 73.7038 135.302 73.6199C135.344 73.4934 135.344 73.3569 135.302 73.2304C135.269 73.1743 135.226 73.1244 135.176 73.0831C135.122 73.0414 135.062 73.0094 134.997 72.9884C134.931 72.9774 134.863 72.9774 134.797 72.9884C134.608 72.9252 134.324 73.2094 134.25 73.5251Z" fill="white"/>
<path d="M126.645 73.4021C126.624 73.4778 126.624 73.5579 126.645 73.6336C126.667 73.7083 126.711 73.7744 126.771 73.8231C126.832 73.8704 126.905 73.8996 126.982 73.9073C127.063 73.9075 127.143 73.8857 127.213 73.8442C127.276 73.8535 127.34 73.8535 127.402 73.8442C127.456 73.8078 127.505 73.7654 127.55 73.7178C127.615 73.6563 127.665 73.5807 127.697 73.4968C127.739 73.3704 127.739 73.2338 127.697 73.1074C127.664 73.0513 127.621 73.0014 127.571 72.96C127.517 72.9184 127.456 72.8863 127.392 72.8653C127.326 72.8543 127.258 72.8543 127.192 72.8653C127.003 72.8022 126.719 73.0863 126.645 73.4021Z" fill="white"/>
<path d="M133.482 65.0417C133.482 65.0417 134.597 58.7793 139.026 60.9895" stroke="#221F54" stroke-miterlimit="10" stroke-linecap="round"/>
<path d="M128.749 64.9575C128.749 64.9575 127.003 58.4004 131.316 57.7373" stroke="#221F54" stroke-miterlimit="10" stroke-linecap="round"/>
<path d="M118.56 125.022C125.82 125.022 131.71 124.021 131.71 122.901C131.71 121.78 125.82 120.77 118.56 120.77C111.3 120.77 105.42 121.77 105.42 122.901C105.42 124.031 111.3 125.022 118.56 125.022Z" fill="#9DAFED"/>
<path d="M80.1687 30.0472L80.6889 29.7951C81.1362 29.4793 81.5172 29.0787 81.8104 28.616C82.1035 28.1547 82.3007 27.6389 82.3901 27.0996C82.4794 26.5603 82.4592 26.0085 82.3305 25.4771C82.2025 24.9462 81.9704 24.4459 81.6479 24.0053L77.82 18.6139C77.1582 17.7234 76.1736 17.1282 75.0779 16.9564C73.9822 16.7846 72.8628 17.0498 71.9605 17.695L71.4241 18.0365C70.9789 18.3516 70.5982 18.7491 70.3026 19.2075C70.0109 19.6679 69.8146 20.1823 69.7256 20.72C69.6329 21.2573 69.6492 21.8078 69.7734 22.3386C69.8977 22.8695 70.1274 23.3699 70.4489 23.8101L74.2848 29.2178C74.9602 30.1023 75.9574 30.6841 77.0595 30.8364C78.1615 30.9887 79.279 30.6992 80.1687 30.031V30.0472Z" fill="white" stroke="#221F54" stroke-miterlimit="10" stroke-linecap="round"/>
<path d="M79.9087 30.9662L80.445 31.0719C81.5646 31.1917 82.6865 30.8682 83.5705 30.1706C84.4546 29.4729 85.0305 28.4567 85.1749 27.3394L85.9876 20.7851C86.1016 19.671 85.7709 18.557 85.0677 17.6857C84.3644 16.8145 83.3455 16.2567 82.233 16.1337L81.6966 16.0362C80.5768 15.91 79.4524 16.2313 78.5682 16.9303C77.6839 17.6293 77.1113 18.6494 76.9748 19.7687L76.3003 26.3554C76.2106 26.8967 76.2355 27.4508 76.3734 27.9818C76.5047 28.5127 76.7486 29.0091 77.0886 29.4374C77.425 29.8694 77.8452 30.229 78.3239 30.4945C78.8128 30.7623 79.353 30.9231 79.9087 30.9662Z" fill="white" stroke="#221F54" stroke-miterlimit="10" stroke-linecap="round"/>
<path d="M75.1869 25.0134L87.9544 24.8833C89.3579 24.8833 90.7476 25.1599 92.0442 25.6973C93.3408 26.2347 94.5189 27.0223 95.5113 28.0153C96.5037 29.0083 97.2909 30.1871 97.8279 31.4845C98.365 32.7818 98.6414 34.1724 98.6414 35.5766C98.6414 36.9809 98.365 38.3714 97.8279 39.6688C97.2909 40.9662 96.5037 42.145 95.5113 43.138C94.5189 44.1309 93.3408 44.9186 92.0442 45.456C90.7476 45.9934 89.3579 46.27 87.9544 46.27L75.1869 46.4001C73.7835 46.4001 72.3938 46.1235 71.0972 45.5861C69.8006 45.0487 68.6225 44.261 67.6301 43.2681C66.6377 42.2751 65.8505 41.0963 65.3134 39.7989C64.7764 38.5015 64.4999 37.111 64.4999 35.7067C64.4999 34.3025 64.7764 32.912 65.3134 31.6146C65.8505 30.3172 66.6377 29.1384 67.6301 28.1454C68.6225 27.1524 69.8006 26.3648 71.0972 25.8274C72.3938 25.29 73.7835 25.0134 75.1869 25.0134Z" fill="white" stroke="#221F51" stroke-miterlimit="10"/>
<path fill-rule="evenodd" clip-rule="evenodd" d="M70.5296 45.331C67.0812 40.3077 67.1654 35.4703 68.1779 31.7843C68.729 29.778 69.5568 28.1109 70.2478 26.945C70.4917 26.5333 70.7181 26.1851 70.9083 25.9074C70.2794 26.1824 69.6797 26.5167 69.117 26.9052C68.456 28.0884 67.7233 29.6638 67.2136 31.5194C66.2565 35.0038 66.0897 39.4713 68.6352 44.1547C69.2234 44.6114 69.8583 45.0058 70.5296 45.331ZM76.0509 46.391C75.8475 46.0563 75.5717 45.5755 75.267 44.9689C74.644 43.7289 73.8971 41.9575 73.4015 39.83C72.457 35.7751 72.4255 30.4155 75.9095 25.0057L77.1198 24.9934C73.4463 30.3108 73.4436 35.6028 74.3755 39.6032C74.849 41.6362 75.564 43.3325 76.1606 44.52C76.4586 45.1133 76.7264 45.5782 76.9185 45.893C76.9801 45.994 77.0339 46.0795 77.0784 46.1488L84.0191 46.0663C79.975 40.5086 80.0496 35.0483 81.1913 30.9307C81.7876 28.7804 82.6735 26.9971 83.4094 25.7518C83.5924 25.4422 83.7664 25.1654 83.9247 24.924L85.1442 24.9116C84.9196 25.2262 84.6121 25.6824 84.2703 26.2606C83.5665 27.4516 82.7219 29.1532 82.155 31.1979C81.0251 35.2729 80.9928 40.7132 85.4111 46.2423L85.4533 46.2951L76.0509 46.391Z" fill="#221F51"/>
<path d="M93.1475 27.1116C93.1475 27.1116 94.0821 21.8747 97.788 23.7369" stroke="#221F54" stroke-miterlimit="10" stroke-linecap="round"/>
<path d="M89.1896 27.0306C89.1896 27.0306 87.7755 21.566 91.3351 21.0049" stroke="#221F54" stroke-miterlimit="10" stroke-linecap="round"/>
<path d="M17.6529 48.597L18.1559 48.3532C18.5885 48.0477 18.9569 47.6603 19.2405 47.2129C19.524 46.7667 19.7146 46.268 19.801 45.7464C19.8875 45.2248 19.8679 44.6912 19.7435 44.1773C19.6196 43.6639 19.3952 43.1801 19.0833 42.7539L15.3815 37.5401C14.7415 36.6789 13.7893 36.1033 12.7296 35.9371C11.67 35.7709 10.5875 36.0274 9.71485 36.6514L9.19612 36.9817C8.76559 37.2864 8.39742 37.6708 8.11153 38.1141C7.82941 38.5594 7.63964 39.0568 7.55351 39.5769C7.4639 40.0964 7.47965 40.6288 7.59982 41.1421C7.71998 41.6555 7.94211 42.1395 8.253 42.5652L11.9626 47.7948C12.6158 48.6503 13.5802 49.2129 14.6459 49.3602C15.7117 49.5075 16.7924 49.2275 17.6529 48.5812V48.597Z" fill="white" stroke="#221F54" stroke-miterlimit="10" stroke-linecap="round"/>
<path d="M17.4012 49.4855L17.9199 49.5877C19.0026 49.7036 20.0876 49.3907 20.9425 48.716C21.7975 48.0414 22.3544 47.0586 22.4941 45.9781L23.2801 39.6396C23.3903 38.5622 23.0705 37.4848 22.3904 36.6423C21.7102 35.7997 20.7249 35.2602 19.649 35.1414L19.1303 35.047C18.0473 34.925 16.96 35.2357 16.1049 35.9117C15.2497 36.5877 14.6959 37.5742 14.564 38.6566L13.9116 45.0265C13.8249 45.55 13.849 46.0858 13.9824 46.5993C14.1094 47.1127 14.3452 47.5928 14.674 48.007C14.9993 48.4248 15.4057 48.7725 15.8686 49.0293C16.3414 49.2883 16.8638 49.4438 17.4012 49.4855Z" fill="white" stroke="#221F54" stroke-miterlimit="10" stroke-linecap="round"/>
<path d="M12.835 43.7289L25.1822 43.603C26.5394 43.603 27.8833 43.8705 29.1372 44.3902C30.3912 44.9099 31.5305 45.6716 32.4902 46.6319C33.4499 47.5922 34.2112 48.7322 34.7306 49.9869C35.25 51.2415 35.5173 52.5863 35.5173 53.9443C35.5173 55.3023 35.25 56.6471 34.7306 57.9017C34.2112 59.1564 33.4499 60.2964 32.4902 61.2567C31.5305 62.2169 30.3912 62.9787 29.1372 63.4984C27.8833 64.0181 26.5394 64.2856 25.1822 64.2856L12.835 64.4114C11.4778 64.4114 10.1338 64.1439 8.87993 63.6242C7.62601 63.1045 6.48668 62.3428 5.52697 61.3825C4.56726 60.4222 3.80598 59.2822 3.28659 58.0275C2.7672 56.7729 2.49988 55.4281 2.49988 54.0701C2.49988 52.7121 2.7672 51.3673 3.28659 50.1127C3.80598 48.858 4.56726 47.718 5.52697 46.7577C6.48668 45.7975 7.62601 45.0357 8.87993 44.516C10.1338 43.9963 11.4778 43.7289 12.835 43.7289Z" fill="white" stroke="#221F51" stroke-miterlimit="10"/>
<path fill-rule="evenodd" clip-rule="evenodd" d="M8.36118 63.3921C5.01281 58.5303 5.09294 53.8479 6.07271 50.2812C6.60521 48.3427 7.40507 46.7318 8.07275 45.6052C8.31478 45.1968 8.53887 44.853 8.72565 44.5813C8.09559 44.8545 7.49559 45.1893 6.9341 45.58C6.29873 46.7218 5.59756 48.2357 5.10843 50.0163C4.18413 53.3811 4.02134 57.6933 6.4667 62.2147C7.05338 62.674 7.6885 63.0689 8.36118 63.3921ZM13.6516 64.4029C13.4552 64.0793 13.1903 63.6168 12.8978 63.0347C12.2949 61.8347 11.5721 60.1203 11.0925 58.0614C10.1788 54.1391 10.1478 48.9549 13.5141 43.7218L14.7244 43.7095C11.1686 48.8502 11.1654 53.9668 12.0664 57.8345C12.524 59.799 13.2149 61.4382 13.7914 62.5858C14.0794 63.1591 14.3382 63.6083 14.5237 63.9124C14.581 64.0063 14.6313 64.0863 14.6732 64.1518L21.3445 64.0725C17.4489 58.7019 17.5226 53.4264 18.626 49.447C19.203 47.3657 20.0605 45.6398 20.7727 44.4346C20.9474 44.139 21.1137 43.8742 21.2652 43.6428L22.4848 43.6304C22.2673 43.9346 21.9673 44.3787 21.6336 44.9434C20.9535 46.0942 20.1374 47.7385 19.5896 49.7142C18.498 53.651 18.4666 58.9064 22.7355 64.2485L22.7845 64.3098L13.6516 64.4029Z" fill="#221F51"/>
<path d="M30.2042 45.7578C30.2042 45.7578 31.108 40.6933 34.6919 42.4942" stroke="#221F54" stroke-miterlimit="10" stroke-linecap="round"/>
<path d="M26.3766 45.6793C26.3766 45.6793 25.0091 40.3947 28.4515 39.8521" stroke="#221F54" stroke-miterlimit="10" stroke-linecap="round"/>
<path d="M52.4516 90.7003L53.0688 90.4012C53.5995 90.0264 54.0517 89.5511 54.3995 89.0021C54.7473 88.4547 54.9813 87.8428 55.0873 87.2028C55.1933 86.5629 55.1693 85.9082 55.0167 85.2777C54.8647 84.6477 54.5894 84.0542 54.2067 83.5313L49.6648 77.1343C48.8796 76.0776 47.7113 75.3715 46.4112 75.1676C45.1111 74.9637 43.7829 75.2784 42.7123 76.044L42.0758 76.4492C41.5476 76.823 41.0959 77.2947 40.7451 77.8386C40.399 78.3849 40.1661 78.9952 40.0605 79.6333C39.9505 80.2708 39.9698 80.9239 40.1173 81.5538C40.2647 82.1836 40.5372 82.7774 40.9187 83.2998L45.4701 89.7161C46.2715 90.7657 47.4548 91.456 48.7624 91.6367C50.07 91.8174 51.396 91.4739 52.4516 90.681V90.7003Z" fill="white" stroke="#221F54" stroke-miterlimit="10" stroke-linecap="round"/>
<path d="M52.143 91.7908L52.7795 91.9162C54.1078 92.0584 55.439 91.6745 56.488 90.8468C57.5369 90.019 58.2203 88.8132 58.3916 87.4875L59.3559 79.7107C59.4912 78.3887 59.0988 77.0669 58.2643 76.0331C57.4299 74.9994 56.2209 74.3375 54.9009 74.1916L54.2645 74.0758C52.9358 73.9261 51.6017 74.3074 50.5525 75.1368C49.5033 75.9662 48.8238 77.1765 48.6619 78.5046L47.8616 86.32C47.7552 86.9622 47.7848 87.6197 47.9483 88.2497C48.1042 88.8797 48.3936 89.4687 48.7969 89.9768C49.1961 90.4895 49.6946 90.9161 50.2626 91.2312C50.8427 91.5489 51.4837 91.7397 52.143 91.7908Z" fill="white" stroke="#221F54" stroke-miterlimit="10" stroke-linecap="round"/>
<path d="M46.5405 84.7276L61.6896 84.5732C63.3548 84.5732 65.0037 84.9014 66.5422 85.5391C68.0807 86.1767 69.4785 87.1113 70.656 88.2895C71.8335 89.4677 72.7676 90.8664 73.4048 92.4057C74.0421 93.9451 74.37 95.595 74.37 97.2612C74.37 98.9274 74.0421 100.577 73.4048 102.117C72.7676 103.656 71.8335 105.055 70.656 106.233C69.4785 107.411 68.0807 108.346 66.5422 108.983C65.0037 109.621 63.3548 109.949 61.6896 109.949L46.5405 110.104C44.8753 110.104 43.2264 109.775 41.6879 109.138C40.1494 108.5 38.7516 107.566 37.5741 106.387C36.3966 105.209 35.4625 103.81 34.8253 102.271C34.188 100.732 33.86 99.0818 33.86 97.4156C33.86 95.7494 34.188 94.0995 34.8253 92.5601C35.4625 91.0207 36.3966 89.622 37.5741 88.4438C38.7516 87.2657 40.1494 86.3311 41.6879 85.6934C43.2264 85.0558 44.8753 84.7276 46.5405 84.7276Z" fill="white" stroke="#221F51" stroke-miterlimit="10"/>
<path fill-rule="evenodd" clip-rule="evenodd" d="M40.8447 108.752C36.8293 102.814 36.9362 97.0984 38.1343 92.737C38.7909 90.3464 39.7771 88.3607 40.6 86.9721C40.8551 86.5417 41.094 86.1694 41.302 85.8609C40.6784 86.144 40.0797 86.4767 39.5116 86.8553C38.7069 88.2711 37.7961 90.1929 37.17 92.4721C36.027 96.633 35.8374 101.98 38.9501 107.579C39.5456 108.025 40.1795 108.417 40.8447 108.752ZM47.6745 110.092C47.6703 110.085 47.6661 110.078 47.6619 110.072C47.4203 109.675 47.0876 109.098 46.719 108.364C45.9823 106.897 45.099 104.803 44.5131 102.287C43.3935 97.4809 43.3592 91.128 47.5097 84.7177L48.7199 84.7054C44.38 91.0233 44.3802 97.3086 45.487 102.06C46.051 104.481 46.9022 106.501 47.6126 107.915C47.9675 108.621 48.2865 109.175 48.5156 109.551C48.6025 109.693 48.6765 109.81 48.7345 109.9L57.2028 109.799C52.316 103.182 52.3963 96.674 53.755 91.7739C54.4597 89.2323 55.507 87.124 56.3772 85.6515C56.6068 85.2629 56.8244 84.9181 57.0206 84.6208L58.2399 84.6084C57.976 84.9809 57.6255 85.5048 57.2381 86.1602C56.4 87.5784 55.394 89.6051 54.7186 92.0411C53.3717 96.8985 53.3341 103.386 58.5991 109.975L58.6037 109.981L47.6745 110.092Z" fill="#221F51"/>
<path d="M67.8514 87.2171C67.8514 87.2171 68.9604 81.0034 73.3576 83.2129" stroke="#221F54" stroke-miterlimit="10" stroke-linecap="round"/>
<path d="M63.1552 87.1208C63.1552 87.1208 61.4773 80.6369 65.7009 79.9712" stroke="#221F54" stroke-miterlimit="10" stroke-linecap="round"/>
</g>
<defs>
<clipPath id="clip0">
<rect width="140" height="140.083" fill="white" transform="translate(0.499878)"/>
</clipPath>
</defs>
</svg>
