<svg width="141" height="141" viewBox="0 0 141 141" fill="none" xmlns="http://www.w3.org/2000/svg">
<g clip-path="url(#clip0)">
<path d="M117.14 67.9686L117.78 67.6584C118.331 67.2698 118.8 66.7768 119.16 66.2076C119.521 65.6399 119.764 65.0053 119.874 64.3417C119.984 63.678 119.959 62.999 119.8 62.3453C119.643 61.692 119.357 61.0764 118.96 60.5342L114.25 53.9003C113.436 52.8045 112.225 52.0722 110.876 51.8607C109.528 51.6493 108.151 51.9756 107.04 52.7696L106.38 53.1898C105.833 53.5775 105.364 54.0666 105 54.6307C104.641 55.1972 104.4 55.8301 104.29 56.4918C104.176 57.1529 104.196 57.8302 104.349 58.4834C104.502 59.1366 104.785 59.7524 105.18 60.2941L109.9 66.948C110.731 68.0364 111.958 68.7523 113.314 68.9397C114.67 69.1271 116.046 68.7709 117.14 67.9486V67.9686Z" fill="white" stroke="#221F54" stroke-miterlimit="10" stroke-linecap="round"/>
<path d="M116.82 69.0993L117.48 69.2294C118.858 69.3768 120.238 68.9787 121.326 68.1203C122.414 67.2619 123.123 66.0114 123.3 64.6367L124.3 56.5719C124.441 55.201 124.034 53.8302 123.168 52.7582C122.303 51.6861 121.049 50.9997 119.68 50.8485L119.02 50.7284C117.642 50.5731 116.259 50.9685 115.171 51.8286C114.083 52.6887 113.378 53.9439 113.21 55.3211L112.38 63.4259C112.27 64.092 112.301 64.7737 112.47 65.4271C112.632 66.0804 112.932 66.6912 113.35 67.2182C113.764 67.7498 114.281 68.1922 114.87 68.519C115.472 68.8485 116.137 69.0463 116.82 69.0993Z" fill="white" stroke="#221F54" stroke-miterlimit="10" stroke-linecap="round"/>
<path d="M111.01 61.7748L126.72 61.6147C128.447 61.6147 130.157 61.9551 131.753 62.6163C133.348 63.2776 134.798 64.2468 136.019 65.4686C137.24 66.6904 138.209 68.1409 138.869 69.7373C139.53 71.3337 139.87 73.0447 139.87 74.7726C139.87 76.5005 139.53 78.2115 138.869 79.8078C138.209 81.4042 137.24 82.8547 136.019 84.0765C134.798 85.2984 133.348 86.2676 131.753 86.9288C130.157 87.59 128.447 87.9304 126.72 87.9304L111.01 88.0905C109.283 88.0905 107.574 87.7501 105.978 87.0889C104.383 86.4277 102.933 85.4585 101.712 84.2366C100.491 83.0148 99.5222 81.5643 98.8613 79.9679C98.2005 78.3716 97.8604 76.6606 97.8604 74.9327C97.8604 73.2047 98.2005 71.4938 98.8613 69.8974C99.5222 68.301 100.491 66.8505 101.712 65.6287C102.933 64.4069 104.383 63.4377 105.978 62.7764C107.574 62.1152 109.283 61.7748 111.01 61.7748Z" fill="white" stroke="#221F51" stroke-miterlimit="10"/>
<path fill-rule="evenodd" clip-rule="evenodd" d="M105.07 86.6712C100.921 80.5179 101.033 74.5962 102.275 70.0758C102.957 67.5948 103.98 65.5339 104.834 64.093C105.092 63.6579 105.334 63.2799 105.546 62.9647C104.923 63.2494 104.325 63.5818 103.756 63.9585C102.917 65.4286 101.964 67.432 101.311 69.811C100.124 74.131 99.9291 79.6844 103.175 85.4997C103.772 85.9427 104.406 86.3347 105.07 86.6712ZM112.208 88.0782C112.202 88.0681 112.195 88.0579 112.189 88.0475C111.939 87.6371 111.594 87.0383 111.212 86.2779C110.449 84.7581 109.533 82.5871 108.926 79.9802C107.765 74.9971 107.73 68.4102 112.038 61.7643L113.248 61.752C108.751 68.3055 108.752 74.8249 109.9 79.7534C110.485 82.2658 111.369 84.3617 112.106 85.829C112.474 86.5621 112.805 87.1369 113.043 87.5267C113.136 87.6792 113.215 87.8033 113.276 87.8974L122.104 87.7925C117.019 80.9256 117.1 74.1713 118.51 69.0869C119.24 66.4532 120.325 64.2683 121.227 62.7422C121.468 62.335 121.696 61.9742 121.901 61.6638L123.12 61.6514C122.847 62.0373 122.486 62.5772 122.088 63.251C121.219 64.7227 120.174 66.826 119.474 69.3541C118.076 74.3946 118.037 81.1268 123.497 87.9632L112.208 88.0782Z" fill="#221F51"/>
<path d="M133.11 64.3561C133.11 64.3561 134.26 57.9123 138.82 60.2037" stroke="#221F54" stroke-miterlimit="10" stroke-linecap="round"/>
<path d="M128.24 64.2562C128.24 64.2562 126.5 57.5322 130.88 56.8418" stroke="#221F54" stroke-miterlimit="10" stroke-linecap="round"/>
<path d="M117.37 124.472C124.68 124.472 130.6 123.472 130.6 122.341C130.6 121.21 124.68 120.2 117.37 120.2C110.06 120.2 104.15 121.2 104.15 122.341C104.15 123.482 110.07 124.472 117.37 124.472Z" fill="#9DAFED"/>
<path d="M59.8301 94.4243C59.841 94.5197 59.8792 94.6101 59.9401 94.6844C60.0004 94.7627 60.0847 94.8189 60.1801 94.8445C60.2744 94.8744 60.3757 94.8744 60.4701 94.8445C60.5625 94.8137 60.6439 94.7566 60.7043 94.6801C60.7647 94.6037 60.8014 94.5113 60.8101 94.4142C60.819 94.3169 60.7981 94.2192 60.7501 94.1341C60.702 94.0511 60.633 93.9821 60.5501 93.934C60.455 93.9094 60.3552 93.9094 60.2601 93.934C60.1601 93.8739 59.8901 94.1341 59.8301 94.4243Z" fill="white"/>
<path d="M51.9999 89.7421L52.5999 89.4519C53.1085 89.0984 53.5404 88.6458 53.8699 88.1211C54.191 87.5909 54.405 87.0028 54.4999 86.3901C54.625 85.7828 54.625 85.1563 54.4999 84.549C54.3555 83.9437 54.0939 83.3726 53.7299 82.868L49.3299 76.7444C48.5806 75.7285 47.4617 75.0487 46.2153 74.8521C44.9689 74.6555 43.6952 74.9578 42.6699 75.6938L42.0599 76.084C41.5536 76.4402 41.1221 76.8923 40.7899 77.4148C40.4542 77.937 40.2295 78.5229 40.1299 79.1358C40.0297 79.7475 40.0501 80.373 40.1899 80.9769C40.3288 81.5823 40.5872 82.1538 40.9499 82.6579L45.3099 88.8016C46.0889 89.814 47.2348 90.4789 48.4999 90.6527C49.7537 90.827 51.0256 90.4999 52.0399 89.7421H51.9999Z" fill="white" stroke="#221F54" stroke-miterlimit="10" stroke-linecap="round"/>
<path d="M51.71 90.7926L52.32 90.9027C53.5928 91.044 54.87 90.678 55.8751 89.884C56.8801 89.0899 57.5322 87.9317 57.69 86.6601L58.69 79.2157C58.8191 77.9484 58.4429 76.6814 57.6433 75.6902C56.8437 74.699 55.6853 74.0637 54.42 73.9226L53.81 73.8025C52.5385 73.6602 51.2615 74.0191 50.25 74.8031C49.2447 75.5954 48.5939 76.7539 48.44 78.025L47.65 85.5495C47.5515 86.1623 47.5787 86.7887 47.73 87.3906C47.8829 87.9949 48.1591 88.5611 48.5411 89.0536C48.9232 89.546 49.4028 89.9541 49.95 90.2523C50.4933 90.5516 51.0925 90.7355 51.71 90.7926Z" fill="white" stroke="#221F54" stroke-miterlimit="10" stroke-linecap="round"/>
<path d="M46.3601 83.9587L60.8701 83.8286C64.1084 83.8286 67.2141 85.1158 69.5039 87.407C71.7937 89.6981 73.0801 92.8057 73.0801 96.0459C73.0801 99.2861 71.7937 102.394 69.5039 104.685C67.2141 106.976 64.1084 108.263 60.8701 108.263L46.3601 108.383C44.7302 108.429 43.1075 108.151 41.5864 107.563C40.0653 106.976 38.6762 106.091 37.5001 104.961C36.3262 103.821 35.3884 102.461 34.7401 100.959C34.0998 99.4491 33.7698 97.8259 33.7698 96.186C33.7698 94.546 34.0998 92.9228 34.7401 91.4131C35.7085 89.1398 37.3411 87.2124 39.4237 85.8839C41.5063 84.5554 43.9416 83.8878 46.4101 83.9687L46.3601 83.9587Z" fill="#FDD407"/>
<path fill-rule="evenodd" clip-rule="evenodd" d="M39.9623 106.795C39.0702 106.29 38.2427 105.674 37.5001 104.961C36.3262 103.821 35.3884 102.461 34.7401 100.958C34.0998 99.4488 33.7698 97.8256 33.7698 96.1856C33.7698 94.5456 34.0998 92.9224 34.7401 91.4128C35.7085 89.1394 37.3411 87.212 39.4237 85.8835C39.7895 85.6502 40.1661 85.4373 40.5519 85.2452C38.3868 88.7601 34.3385 97.4603 39.9623 106.795ZM47.7788 108.371C46.1967 105.705 40.6862 94.9052 47.7578 83.9458L56.8543 83.8643C54.6625 87.2041 49.2026 97.5459 57.0643 108.294L47.7788 108.371Z" fill="#221F54"/>
<path d="M66.2299 97.5566C65.773 97.9462 65.1989 98.1717 64.599 98.197C63.9992 98.2224 63.4081 98.0463 62.9199 97.6967" stroke="#221F54" stroke-miterlimit="10" stroke-linecap="round"/>
<path d="M66.7301 94.625C66.7269 94.9121 66.8101 95.1934 66.9688 95.4325C67.1275 95.6716 67.3544 95.8575 67.6201 95.9658C67.8857 96.0764 68.1784 96.1043 68.4601 96.0459C68.7421 95.9912 69.0014 95.8534 69.2046 95.6501C69.4077 95.4469 69.5455 95.1874 69.6001 94.9052C69.6585 94.6234 69.6306 94.3304 69.5201 94.0647C69.4071 93.8 69.2194 93.574 68.9801 93.4143C68.7006 93.2299 68.3663 93.1471 68.0332 93.1799C67.7 93.2127 67.3882 93.359 67.1501 93.5944C66.8806 93.8696 66.7298 94.2397 66.7301 94.625Z" fill="#221F54"/>
<path d="M59.5001 94.5074C59.4969 94.7944 59.5801 95.0757 59.7388 95.3148C59.8975 95.554 60.1244 95.7398 60.3901 95.8482C60.6557 95.9588 60.9484 95.9867 61.2301 95.9282C61.5121 95.8735 61.7714 95.7357 61.9746 95.5325C62.1777 95.3292 62.3155 95.0697 62.3701 94.7875C62.4285 94.5057 62.4006 94.2128 62.2901 93.947C62.1771 93.6823 61.9894 93.4563 61.7501 93.2966C61.4707 93.1122 61.1363 93.0294 60.8032 93.0622C60.47 93.095 60.1583 93.2413 59.9201 93.4767C59.6506 93.752 59.4998 94.122 59.5001 94.5074Z" fill="#221F54"/>
<path d="M67.4999 94.465C67.4799 94.537 67.4799 94.6131 67.4999 94.6851C67.5205 94.7561 67.5624 94.8189 67.6199 94.8653C67.6777 94.9102 67.747 94.9379 67.8199 94.9453C67.8973 94.9455 67.9733 94.9247 68.0399 94.8853C68.0996 94.8942 68.1602 94.8942 68.2199 94.8853C68.271 94.8507 68.3179 94.8104 68.3599 94.7652C68.4219 94.7067 68.4698 94.6349 68.4999 94.5551C68.5396 94.4349 68.5396 94.3051 68.4999 94.1848C68.4684 94.1315 68.4278 94.0841 68.3799 94.0448C68.3288 94.0052 68.2713 93.9747 68.2099 93.9547C68.147 93.9443 68.0828 93.9443 68.0199 93.9547C67.8399 93.8947 67.5699 94.1648 67.4999 94.465Z" fill="white"/>
<path d="M60.2699 94.3473C60.2499 94.4194 60.2499 94.4955 60.2699 94.5675C60.2905 94.6384 60.3324 94.7013 60.3899 94.7476C60.4478 94.7925 60.5171 94.8203 60.5899 94.8276C60.6673 94.8278 60.7433 94.8071 60.8099 94.7676C60.8696 94.7765 60.9302 94.7765 60.9899 94.7676C61.041 94.733 61.088 94.6927 61.1299 94.6475C61.192 94.5891 61.2398 94.5172 61.2699 94.4374C61.3096 94.3172 61.3096 94.1874 61.2699 94.0672C61.2384 94.0138 61.1978 93.9664 61.1499 93.9271C61.0989 93.8875 61.0413 93.857 60.9799 93.837C60.917 93.8266 60.8528 93.8266 60.7899 93.837C60.6099 93.777 60.3399 94.0472 60.2699 94.3473Z" fill="white"/>
<path d="M66.77 86.4001C66.77 86.4001 67.83 80.4465 72.04 82.5478" stroke="#221F54" stroke-miterlimit="10" stroke-linecap="round"/>
<path d="M62.2701 86.3196C62.2701 86.3196 60.6101 80.0859 64.7101 79.4556" stroke="#221F54" stroke-miterlimit="10" stroke-linecap="round"/>
<path d="M80.2674 28.3746L80.7863 28.1236C81.2262 27.8178 81.5998 27.4263 81.8848 26.9726C82.1625 26.514 82.3476 26.0053 82.4297 25.4754C82.5378 24.9501 82.5378 24.4083 82.4297 23.883C82.3047 23.3595 82.0785 22.8656 81.7637 22.4291L77.9581 17.1327C77.31 16.2541 76.3422 15.6661 75.2642 15.496C74.1861 15.3259 73.0845 15.5875 72.1977 16.224L71.6701 16.5615C71.2323 16.8696 70.8591 17.2606 70.5717 17.7125C70.2813 18.1642 70.087 18.6709 70.0009 19.2011C69.9142 19.7302 69.9318 20.2711 70.0527 20.7935C70.1729 21.3171 70.3964 21.8114 70.7101 22.2474L74.4811 27.5611C75.1549 28.4367 76.146 29.0119 77.2402 29.1621C78.3246 29.313 79.4247 29.03 80.302 28.3746H80.2674Z" fill="white" stroke="#221F54" stroke-miterlimit="10" stroke-linecap="round"/>
<path d="M80.0168 29.2834L80.5444 29.3786C81.6452 29.5008 82.7499 29.1843 83.6192 28.4975C84.4885 27.8107 85.0524 26.809 85.189 25.7092L86.0539 19.2704C86.1655 18.1743 85.8402 17.0784 85.1485 16.2211C84.4569 15.3638 83.455 14.8143 82.3607 14.6923L81.8331 14.5884C80.7333 14.4653 79.6288 14.7757 78.754 15.4538C77.8845 16.1391 77.3216 17.1411 77.1885 18.2405L76.5052 24.7485C76.42 25.2785 76.4436 25.8203 76.5744 26.3409C76.7067 26.8636 76.9455 27.3533 77.276 27.7793C77.6064 28.2052 78.0213 28.5582 78.4945 28.8161C78.9644 29.0749 79.4826 29.234 80.0168 29.2834Z" fill="white" stroke="#221F54" stroke-miterlimit="10" stroke-linecap="round"/>
<path d="M75.3895 23.3728L87.9394 23.2603C90.7403 23.2603 93.4264 24.3735 95.4069 26.3552C97.3874 28.3369 98.5 31.0246 98.5 33.8271C98.5 36.6296 97.3874 39.3174 95.4069 41.299C93.4264 43.2807 90.7403 44.394 87.9394 44.394L75.3895 44.4979C73.9798 44.5378 72.5763 44.2967 71.2607 43.7885C69.945 43.2804 68.7436 42.5154 67.7264 41.5381C66.7111 40.5523 65.8999 39.376 65.3392 38.0764C64.7854 36.7707 64.5 35.3667 64.5 33.9483C64.5 32.5298 64.7854 31.1259 65.3392 29.8202C66.1768 27.8539 67.5889 26.1869 69.3902 25.0379C71.1914 23.8888 73.2977 23.3114 75.4328 23.3814L75.3895 23.3728Z" fill="#FDD407"/>
<path fill-rule="evenodd" clip-rule="evenodd" d="M69.8571 43.1245C69.0851 42.6878 68.369 42.1551 67.7264 41.5377C66.7111 40.5519 65.8999 39.3756 65.3392 38.076C64.7854 36.7703 64.5 35.3663 64.5 33.9479C64.5 32.5295 64.7854 31.1255 65.3392 29.8198C66.1768 27.8535 67.5889 26.1865 69.3902 25.0375C69.7061 24.8359 70.0315 24.652 70.3647 24.486C68.4917 27.5275 64.9923 35.052 69.8571 43.1245ZM76.6173 44.4873C75.25 42.1836 70.4814 32.8417 76.5976 23.3615L84.4652 23.291C82.5689 26.1812 77.8487 35.1254 84.6487 44.4208L76.6173 44.4873Z" fill="#221F54"/>
<path d="M92.575 35.1338C92.1798 35.4707 91.6832 35.6657 91.1644 35.6877C90.6457 35.7096 90.1344 35.5573 89.7122 35.2549" stroke="#221F54" stroke-miterlimit="10" stroke-linecap="round"/>
<path d="M93.0079 32.5978C93.0051 32.8461 93.0771 33.0894 93.2144 33.2962C93.3516 33.503 93.5479 33.6637 93.7777 33.7575C94.0074 33.8531 94.2606 33.8773 94.5042 33.8267C94.7481 33.7794 94.9724 33.6602 95.1481 33.4844C95.3238 33.3086 95.4429 33.0842 95.4902 32.8401C95.5407 32.5964 95.5166 32.343 95.421 32.1132C95.3233 31.8842 95.161 31.6887 94.9539 31.5506C94.7123 31.3911 94.4231 31.3195 94.135 31.3479C93.8468 31.3762 93.5771 31.5028 93.3712 31.7064C93.138 31.9445 93.0076 32.2645 93.0079 32.5978Z" fill="#221F54"/>
<path d="M86.7545 32.4962C86.7517 32.7445 86.8237 32.9878 86.9609 33.1947C87.0982 33.4015 87.2945 33.5622 87.5242 33.6559C87.7539 33.7516 88.0071 33.7757 88.2508 33.7251C88.4947 33.6779 88.719 33.5587 88.8947 33.3829C89.0704 33.207 89.1895 32.9827 89.2368 32.7386C89.2873 32.4948 89.2632 32.2414 89.1676 32.0116C89.0698 31.7827 88.9075 31.5872 88.7005 31.4491C88.4588 31.2895 88.1697 31.2179 87.8815 31.2463C87.5934 31.2747 87.3237 31.4013 87.1177 31.6049C86.8846 31.8429 86.7542 32.163 86.7545 32.4962Z" fill="#221F54"/>
<path d="M93.6736 32.4594C93.6563 32.5217 93.6563 32.5875 93.6736 32.6498C93.6915 32.7111 93.7277 32.7655 93.7774 32.8056C93.8275 32.8444 93.8874 32.8684 93.9504 32.8748C94.0174 32.8749 94.0831 32.857 94.1407 32.8229C94.1923 32.8306 94.2448 32.8306 94.2964 32.8229C94.3406 32.793 94.3812 32.7581 94.4175 32.719C94.4711 32.6685 94.5125 32.6063 94.5386 32.5373C94.5729 32.4333 94.5729 32.3211 94.5386 32.2171C94.5113 32.1709 94.4762 32.1299 94.4348 32.0959C94.3906 32.0617 94.3409 32.0353 94.2877 32.018C94.2333 32.009 94.1778 32.009 94.1234 32.018C93.9677 31.9661 93.7342 32.1998 93.6736 32.4594Z" fill="white"/>
<path d="M87.4205 32.3578C87.4031 32.4201 87.4031 32.4859 87.4205 32.5482C87.4383 32.6096 87.4745 32.664 87.5243 32.704C87.5743 32.7429 87.6342 32.7669 87.6972 32.7732C87.7642 32.7734 87.8299 32.7554 87.8875 32.7213C87.9391 32.729 87.9916 32.729 88.0432 32.7213C88.0874 32.6914 88.128 32.6566 88.1643 32.6175C88.218 32.5669 88.2594 32.5047 88.2854 32.4357C88.3197 32.3317 88.3197 32.2195 88.2854 32.1155C88.2581 32.0694 88.223 32.0284 88.1816 31.9944C88.1374 31.9601 88.0877 31.9338 88.0346 31.9165C87.9802 31.9074 87.9246 31.9074 87.8702 31.9165C87.7145 31.8645 87.481 32.0982 87.4205 32.3578Z" fill="white"/>
<path d="M93.0425 25.484C93.0425 25.484 93.9593 20.3347 97.6006 22.1521" stroke="#221F54" stroke-miterlimit="10" stroke-linecap="round"/>
<path d="M89.1502 25.4149C89.1502 25.4149 87.7145 20.0232 91.2606 19.478" stroke="#221F54" stroke-miterlimit="10" stroke-linecap="round"/>
<path d="M13.6327 49.5271L14.0649 49.3181C14.4312 49.0634 14.7424 48.7373 14.9798 48.3594C15.2111 47.9774 15.3653 47.5537 15.4336 47.1124C15.5237 46.6749 15.5237 46.2236 15.4336 45.7861C15.3296 45.35 15.1411 44.9386 14.8789 44.5751L11.7092 40.1637C11.1695 39.4319 10.3634 38.9422 9.4655 38.8005C8.56759 38.6589 7.65005 38.8767 6.91144 39.4069L6.47201 39.688C6.1073 39.9446 5.79646 40.2703 5.55711 40.6467C5.31525 41.0229 5.1534 41.4449 5.08166 41.8865C5.00949 42.3272 5.02417 42.7777 5.12488 43.2128C5.22495 43.6489 5.41109 44.0606 5.67238 44.4237L8.81327 48.8495C9.37445 49.5789 10.2 50.0579 11.1113 50.183C12.0145 50.3087 12.9308 50.073 13.6615 49.5271H13.6327Z" fill="white" stroke="#221F54" stroke-miterlimit="10" stroke-linecap="round"/>
<path d="M13.4238 50.2839L13.8632 50.3632C14.7801 50.465 15.7002 50.2013 16.4242 49.6293C17.1483 49.0573 17.618 48.223 17.7317 47.3069L18.4521 41.9441C18.5451 41.0311 18.2741 40.1184 17.6981 39.4043C17.122 38.6903 16.2875 38.2326 15.3761 38.131L14.9366 38.0445C14.0206 37.9419 13.1007 38.2005 12.372 38.7653C11.6478 39.336 11.179 40.1706 11.0681 41.0863L10.499 46.5068C10.4281 46.9483 10.4477 47.3995 10.5567 47.8331C10.6668 48.2685 10.8658 48.6763 11.141 49.0311C11.4162 49.3859 11.7617 49.6799 12.1559 49.8946C12.5473 50.1102 12.9789 50.2427 13.4238 50.2839Z" fill="white" stroke="#221F54" stroke-miterlimit="10" stroke-linecap="round"/>
<path d="M9.56988 45.3608L20.0227 45.2671C22.3555 45.2671 24.5928 46.1944 26.2424 47.8449C27.8919 49.4954 28.8186 51.734 28.8186 54.0682C28.8186 56.4024 27.8919 58.641 26.2424 60.2916C24.5928 61.9421 22.3555 62.8694 20.0227 62.8694L9.56988 62.9559C8.39576 62.9892 7.22676 62.7883 6.13097 62.3651C5.03518 61.9419 4.03451 61.3047 3.18725 60.4907C2.34164 59.6696 1.66602 58.6899 1.19898 57.6074C0.737719 56.5199 0.5 55.3506 0.5 54.1691C0.5 52.9877 0.737719 51.8184 1.19898 50.7309C1.89665 49.0932 3.07276 47.7047 4.57302 46.7477C6.07329 45.7906 7.82763 45.3097 9.6059 45.368L9.56988 45.3608Z" fill="#FDD407"/>
<path fill-rule="evenodd" clip-rule="evenodd" d="M4.96221 61.8124C4.31912 61.4486 3.72257 61.0049 3.18725 60.4906C2.34164 59.6696 1.66602 58.6898 1.19898 57.6074C0.737719 56.5198 0.5 55.3505 0.5 54.1691C0.5 52.9877 0.737719 51.8183 1.19898 50.7308C1.89665 49.0931 3.07276 47.7047 4.57302 46.7476C4.83615 46.5798 5.1071 46.4266 5.38462 46.2883C3.82453 48.8218 0.910091 55.0889 4.96221 61.8124ZM10.5926 62.9474C9.45399 61.029 5.48185 53.248 10.576 45.3517L17.129 45.293C15.5494 47.7004 11.6182 55.1499 17.282 62.892L10.5926 62.9474Z" fill="#221F54"/>
<path d="M23.8838 55.1567C23.5546 55.4374 23.141 55.5998 22.7089 55.6181C22.2768 55.6364 21.851 55.5095 21.4993 55.2577" stroke="#221F54" stroke-miterlimit="10" stroke-linecap="round"/>
<path d="M24.244 53.0447C24.2417 53.2514 24.3016 53.4541 24.4159 53.6264C24.5303 53.7986 24.6937 53.9325 24.8851 54.0106C25.0764 54.0902 25.2873 54.1103 25.4902 54.0682C25.6934 54.0288 25.8802 53.9296 26.0265 53.7831C26.1729 53.6367 26.2721 53.4498 26.3115 53.2465C26.3536 53.0435 26.3335 52.8324 26.2538 52.641C26.1724 52.4503 26.0373 52.2875 25.8648 52.1725C25.6635 52.0396 25.4227 51.98 25.1827 52.0036C24.9427 52.0272 24.7181 52.1326 24.5465 52.3022C24.3524 52.5005 24.2437 52.7671 24.244 53.0447Z" fill="#221F54"/>
<path d="M19.0357 52.9602C19.0334 53.167 19.0933 53.3696 19.2077 53.5419C19.322 53.7142 19.4855 53.848 19.6769 53.9261C19.8682 54.0058 20.0791 54.0259 20.282 53.9837C20.4852 53.9444 20.6719 53.8451 20.8183 53.6987C20.9646 53.5522 21.0639 53.3653 21.1032 53.162C21.1453 52.959 21.1252 52.748 21.0456 52.5565C20.9642 52.3658 20.829 52.203 20.6566 52.088C20.4553 51.9551 20.2144 51.8955 19.9744 51.9191C19.7344 51.9427 19.5098 52.0482 19.3383 52.2178C19.1441 52.416 19.0355 52.6826 19.0357 52.9602Z" fill="#221F54"/>
<path d="M24.7987 52.9294C24.7842 52.9812 24.7842 53.0361 24.7987 53.0879C24.8135 53.139 24.8437 53.1843 24.8851 53.2177C24.9268 53.2501 24.9767 53.27 25.0292 53.2753C25.0849 53.2755 25.1397 53.2605 25.1877 53.2321C25.2307 53.2385 25.2744 53.2385 25.3174 53.2321C25.3541 53.2072 25.388 53.1782 25.4182 53.1456C25.4629 53.1035 25.4974 53.0517 25.5191 52.9942C25.5476 52.9076 25.5476 52.8141 25.5191 52.7275C25.4964 52.6891 25.4671 52.6549 25.4326 52.6266C25.3958 52.5981 25.3544 52.5761 25.3101 52.5617C25.2648 52.5542 25.2186 52.5542 25.1733 52.5617C25.0436 52.5185 24.8491 52.7131 24.7987 52.9294Z" fill="white"/>
<path d="M19.5904 52.8449C19.576 52.8968 19.576 52.9516 19.5904 53.0035C19.6053 53.0545 19.6354 53.0998 19.6769 53.1332C19.7185 53.1656 19.7685 53.1856 19.8209 53.1909C19.8767 53.191 19.9315 53.176 19.9794 53.1476C20.0224 53.154 20.0661 53.154 20.1091 53.1476C20.1459 53.1227 20.1797 53.0937 20.21 53.0611C20.2546 53.019 20.2891 52.9672 20.3108 52.9097C20.3394 52.8231 20.3394 52.7296 20.3108 52.643C20.2881 52.6046 20.2588 52.5705 20.2244 52.5421C20.1876 52.5136 20.1461 52.4917 20.1019 52.4773C20.0566 52.4697 20.0103 52.4697 19.965 52.4773C19.8353 52.434 19.6408 52.6286 19.5904 52.8449Z" fill="white"/>
<path d="M24.2729 47.1197C24.2729 47.1197 25.0366 42.8308 28.0694 44.3446" stroke="#221F54" stroke-miterlimit="10" stroke-linecap="round"/>
<path d="M21.0312 47.062C21.0312 47.062 19.8353 42.5713 22.7889 42.1172" stroke="#221F54" stroke-miterlimit="10" stroke-linecap="round"/>
</g>
<defs>
<clipPath id="clip0">
<rect width="140" height="140.083" fill="white" transform="translate(0.5)"/>
</clipPath>
</defs>
</svg>
