<svg width="140" height="141" viewBox="0 0 140 141" fill="none" xmlns="http://www.w3.org/2000/svg">
<g clip-path="url(#clip0)">
<path d="M140 70.8944C140.004 58.5954 136.767 46.5125 130.614 35.8633C124.461 25.214 115.61 16.3746 104.953 10.2358C94.3153 4.12122 82.257 0.911237 69.9874 0.927798C57.7177 0.94436 45.6681 4.18689 35.0472 10.3302C24.3907 16.47 15.5404 25.3097 9.38764 35.9587C3.23487 46.6077 -0.00305115 58.69 2.15742e-06 70.9887C-0.000313546 83.2869 3.23876 95.3682 9.39125 106.017C15.5437 116.665 24.3926 125.505 35.0472 131.647C45.6916 137.782 57.7615 141.011 70.0472 141.011C82.3328 141.011 94.4027 137.782 105.047 131.647C115.699 125.486 124.539 116.627 130.675 105.961C136.811 95.2946 140.028 83.1996 140 70.8944Z" fill="#F2F4F6"/>
<g clip-path="url(#clip1)">
<path d="M70.9326 109.895C93.8781 109.895 112.479 108.026 112.479 105.721C112.479 103.416 93.8781 101.547 70.9326 101.547C47.9872 101.547 29.3862 103.416 29.3862 105.721C29.3862 108.026 47.9872 109.895 70.9326 109.895Z" fill="#9DAFED"/>
<path d="M109.874 74.8076H30.0374C28.6048 74.8076 27.4326 73.6337 27.4326 72.1989V65.4163C27.4326 63.9815 28.6048 62.8076 30.0374 62.8076H109.874C111.307 62.8076 112.479 63.9815 112.479 65.4163V72.1989C112.479 73.5033 111.307 74.8076 109.874 74.8076Z" fill="#1F1A54" stroke="#1F1A54" stroke-width="0.8" stroke-miterlimit="10" stroke-linecap="round" stroke-linejoin="round"/>
<path d="M95.0269 58.2422H100.106C103.883 58.2422 107.269 60.9813 107.921 64.7639L108.572 68.1552C109.093 71.1552 109.353 74.2857 109.353 77.4161V100.112C109.353 103.242 106.879 105.72 103.753 105.72H36.1586C33.0329 105.72 30.5583 103.242 30.5583 100.112V77.4161C30.5583 74.2857 30.8188 71.2857 31.3398 68.1552L31.991 64.7639C32.6422 60.9813 35.8982 58.2422 39.8054 58.2422H91.3802" fill="#FFD400"/>
<path d="M95.0269 58.2422H100.106C103.883 58.2422 107.269 60.9813 107.921 64.7639L108.572 68.1552C109.093 71.1552 109.353 74.2857 109.353 77.4161V100.112C109.353 103.242 106.879 105.72 103.753 105.72H36.1586C33.0329 105.72 30.5583 103.242 30.5583 100.112V77.4161C30.5583 74.2857 30.8188 71.2857 31.3398 68.1552L31.991 64.7639C32.6422 60.9813 35.8982 58.2422 39.8054 58.2422H91.3802" stroke="#1F1A54" stroke-width="0.8" stroke-miterlimit="10" stroke-linecap="round" stroke-linejoin="round"/>
<path d="M101.279 99.9811H38.6333C36.9402 99.9811 35.5076 98.5463 35.5076 96.8506V82.8941C35.5076 81.1985 36.9402 79.7637 38.6333 79.7637H101.279C102.972 79.7637 104.404 81.1985 104.404 82.8941V96.8506C104.274 98.6767 102.972 99.9811 101.279 99.9811Z" fill="#1F1A54" stroke="#1F1A54" stroke-width="0.8" stroke-miterlimit="10" stroke-linecap="round" stroke-linejoin="round"/>
<path d="M41.759 60.1982C41.759 63.4591 54.3923 66.0678 69.8908 66.0678C85.3893 66.0678 98.0225 63.4591 98.0225 60.1982H41.759Z" fill="#1F1A54" stroke="#1F1A54" stroke-width="0.8" stroke-miterlimit="10" stroke-linecap="round" stroke-linejoin="round"/>
<path d="M45.5359 82.6332C47.2622 82.6332 48.6617 81.582 48.6617 80.2853C48.6617 78.9887 47.2622 77.9375 45.5359 77.9375C43.8096 77.9375 42.4102 78.9887 42.4102 80.2853C42.4102 81.582 43.8096 82.6332 45.5359 82.6332Z" fill="white" stroke="#1F1A54" stroke-width="0.8" stroke-miterlimit="10" stroke-linecap="round" stroke-linejoin="round"/>
<path d="M53.741 82.6332C55.4673 82.6332 56.8667 81.582 56.8667 80.2853C56.8667 78.9887 55.4673 77.9375 53.741 77.9375C52.0147 77.9375 50.6152 78.9887 50.6152 80.2853C50.6152 81.582 52.0147 82.6332 53.741 82.6332Z" fill="white" stroke="#1F1A54" stroke-width="0.8" stroke-miterlimit="10" stroke-linecap="round" stroke-linejoin="round"/>
<path d="M61.9461 82.6332C63.6724 82.6332 65.0718 81.582 65.0718 80.2853C65.0718 78.9887 63.6724 77.9375 61.9461 77.9375C60.2198 77.9375 58.8203 78.9887 58.8203 80.2853C58.8203 81.582 60.2198 82.6332 61.9461 82.6332Z" fill="white" stroke="#1F1A54" stroke-width="0.8" stroke-miterlimit="10" stroke-linecap="round" stroke-linejoin="round"/>
<path d="M70.2815 82.6332C72.0078 82.6332 73.4073 81.582 73.4073 80.2853C73.4073 78.9887 72.0078 77.9375 70.2815 77.9375C68.5552 77.9375 67.1558 78.9887 67.1558 80.2853C67.1558 81.582 68.5552 82.6332 70.2815 82.6332Z" fill="white" stroke="#1F1A54" stroke-width="0.8" stroke-miterlimit="10" stroke-linecap="round" stroke-linejoin="round"/>
<path d="M78.4863 82.6332C80.2126 82.6332 81.6121 81.582 81.6121 80.2853C81.6121 78.9887 80.2126 77.9375 78.4863 77.9375C76.76 77.9375 75.3606 78.9887 75.3606 80.2853C75.3606 81.582 76.76 82.6332 78.4863 82.6332Z" fill="white" stroke="#1F1A54" stroke-width="0.8" stroke-miterlimit="10" stroke-linecap="round" stroke-linejoin="round"/>
<path d="M86.8218 82.6332C88.5481 82.6332 89.9475 81.582 89.9475 80.2853C89.9475 78.9887 88.5481 77.9375 86.8218 77.9375C85.0955 77.9375 83.696 78.9887 83.696 80.2853C83.696 81.582 85.0955 82.6332 86.8218 82.6332Z" fill="white" stroke="#1F1A54" stroke-width="0.8" stroke-miterlimit="10" stroke-linecap="round" stroke-linejoin="round"/>
<path d="M95.0269 82.6332C96.7532 82.6332 98.1526 81.582 98.1526 80.2853C98.1526 78.9887 96.7532 77.9375 95.0269 77.9375C93.3006 77.9375 91.9011 78.9887 91.9011 80.2853C91.9011 81.582 93.3006 82.6332 95.0269 82.6332Z" fill="white" stroke="#1F1A54" stroke-width="0.8" stroke-miterlimit="10" stroke-linecap="round" stroke-linejoin="round"/>
<path d="M45.5359 95.9378C47.2622 95.9378 48.6617 94.8867 48.6617 93.59C48.6617 92.2933 47.2622 91.2422 45.5359 91.2422C43.8096 91.2422 42.4102 92.2933 42.4102 93.59C42.4102 94.8867 43.8096 95.9378 45.5359 95.9378Z" fill="white" stroke="#1F1A54" stroke-width="0.8" stroke-miterlimit="10" stroke-linecap="round" stroke-linejoin="round"/>
<path d="M53.741 95.9378C55.4673 95.9378 56.8667 94.8867 56.8667 93.59C56.8667 92.2933 55.4673 91.2422 53.741 91.2422C52.0147 91.2422 50.6152 92.2933 50.6152 93.59C50.6152 94.8867 52.0147 95.9378 53.741 95.9378Z" fill="white" stroke="#1F1A54" stroke-width="0.8" stroke-miterlimit="10" stroke-linecap="round" stroke-linejoin="round"/>
<path d="M61.9461 95.9378C63.6724 95.9378 65.0718 94.8867 65.0718 93.59C65.0718 92.2933 63.6724 91.2422 61.9461 91.2422C60.2198 91.2422 58.8203 92.2933 58.8203 93.59C58.8203 94.8867 60.2198 95.9378 61.9461 95.9378Z" fill="white" stroke="#1F1A54" stroke-width="0.8" stroke-miterlimit="10" stroke-linecap="round" stroke-linejoin="round"/>
<path d="M70.2815 95.9378C72.0078 95.9378 73.4073 94.8867 73.4073 93.59C73.4073 92.2933 72.0078 91.2422 70.2815 91.2422C68.5552 91.2422 67.1558 92.2933 67.1558 93.59C67.1558 94.8867 68.5552 95.9378 70.2815 95.9378Z" fill="white" stroke="#1F1A54" stroke-width="0.8" stroke-miterlimit="10" stroke-linecap="round" stroke-linejoin="round"/>
<path d="M78.4863 95.9378C80.2126 95.9378 81.6121 94.8867 81.6121 93.59C81.6121 92.2933 80.2126 91.2422 78.4863 91.2422C76.76 91.2422 75.3606 92.2933 75.3606 93.59C75.3606 94.8867 76.76 95.9378 78.4863 95.9378Z" fill="white" stroke="#1F1A54" stroke-width="0.8" stroke-miterlimit="10" stroke-linecap="round" stroke-linejoin="round"/>
<path d="M86.8218 95.9378C88.5481 95.9378 89.9475 94.8867 89.9475 93.59C89.9475 92.2933 88.5481 91.2422 86.8218 91.2422C85.0955 91.2422 83.696 92.2933 83.696 93.59C83.696 94.8867 85.0955 95.9378 86.8218 95.9378Z" fill="white" stroke="#1F1A54" stroke-width="0.8" stroke-miterlimit="10" stroke-linecap="round" stroke-linejoin="round"/>
<path d="M95.0269 95.9378C96.7532 95.9378 98.1526 94.8867 98.1526 93.59C98.1526 92.2933 96.7532 91.2422 95.0269 91.2422C93.3006 91.2422 91.9011 92.2933 91.9011 93.59C91.9011 94.8867 93.3006 95.9378 95.0269 95.9378Z" fill="white" stroke="#1F1A54" stroke-width="0.8" stroke-miterlimit="10" stroke-linecap="round" stroke-linejoin="round"/>
<path d="M49.3128 89.2855C51.0391 89.2855 52.4385 88.2343 52.4385 86.9377C52.4385 85.641 51.0391 84.5898 49.3128 84.5898C47.5865 84.5898 46.187 85.641 46.187 86.9377C46.187 88.2343 47.5865 89.2855 49.3128 89.2855Z" fill="white" stroke="#1F1A54" stroke-width="0.8" stroke-miterlimit="10" stroke-linecap="round" stroke-linejoin="round"/>
<path d="M57.5178 89.2855C59.2441 89.2855 60.6436 88.2343 60.6436 86.9377C60.6436 85.641 59.2441 84.5898 57.5178 84.5898C55.7915 84.5898 54.3921 85.641 54.3921 86.9377C54.3921 88.2343 55.7915 89.2855 57.5178 89.2855Z" fill="white" stroke="#1F1A54" stroke-width="0.8" stroke-miterlimit="10" stroke-linecap="round" stroke-linejoin="round"/>
<path d="M41.1077 89.2855C42.834 89.2855 44.2334 88.2343 44.2334 86.9377C44.2334 85.641 42.834 84.5898 41.1077 84.5898C39.3814 84.5898 37.9819 85.641 37.9819 86.9377C37.9819 88.2343 39.3814 89.2855 41.1077 89.2855Z" fill="white" stroke="#1F1A54" stroke-width="0.8" stroke-miterlimit="10" stroke-linecap="round" stroke-linejoin="round"/>
<path d="M65.8533 89.2855C67.5796 89.2855 68.979 88.2343 68.979 86.9377C68.979 85.641 67.5796 84.5898 65.8533 84.5898C64.127 84.5898 62.7275 85.641 62.7275 86.9377C62.7275 88.2343 64.127 89.2855 65.8533 89.2855Z" fill="white" stroke="#1F1A54" stroke-width="0.8" stroke-miterlimit="10" stroke-linecap="round" stroke-linejoin="round"/>
<path d="M74.0581 89.2855C75.7844 89.2855 77.1839 88.2343 77.1839 86.9377C77.1839 85.641 75.7844 84.5898 74.0581 84.5898C72.3318 84.5898 70.9324 85.641 70.9324 86.9377C70.9324 88.2343 72.3318 89.2855 74.0581 89.2855Z" fill="white" stroke="#1F1A54" stroke-width="0.8" stroke-miterlimit="10" stroke-linecap="round" stroke-linejoin="round"/>
<path d="M82.2634 89.2855C83.9898 89.2855 85.3892 88.2343 85.3892 86.9377C85.3892 85.641 83.9898 84.5898 82.2634 84.5898C80.5371 84.5898 79.1377 85.641 79.1377 86.9377C79.1377 88.2343 80.5371 89.2855 82.2634 89.2855Z" fill="white" stroke="#1F1A54" stroke-width="0.8" stroke-miterlimit="10" stroke-linecap="round" stroke-linejoin="round"/>
<path d="M90.5986 89.2855C92.3249 89.2855 93.7244 88.2343 93.7244 86.9377C93.7244 85.641 92.3249 84.5898 90.5986 84.5898C88.8723 84.5898 87.4729 85.641 87.4729 86.9377C87.4729 88.2343 88.8723 89.2855 90.5986 89.2855Z" fill="white" stroke="#1F1A54" stroke-width="0.8" stroke-miterlimit="10" stroke-linecap="round" stroke-linejoin="round"/>
<path d="M98.8037 89.2855C100.53 89.2855 101.929 88.2343 101.929 86.9377C101.929 85.641 100.53 84.5898 98.8037 84.5898C97.0774 84.5898 95.678 85.641 95.678 86.9377C95.678 88.2343 97.0774 89.2855 98.8037 89.2855Z" fill="white" stroke="#1F1A54" stroke-width="0.8" stroke-miterlimit="10" stroke-linecap="round" stroke-linejoin="round"/>
<path d="M83.4358 101.807H56.4762C55.4343 101.807 54.6528 100.894 54.6528 99.9814C54.6528 98.9379 55.5645 98.1553 56.4762 98.1553H83.3055C84.3474 98.1553 85.1289 99.0683 85.1289 99.9814C85.2591 100.894 84.4777 101.807 83.4358 101.807Z" fill="white" stroke="#1F1A54" stroke-width="0.8" stroke-miterlimit="10" stroke-linecap="round" stroke-linejoin="round"/>
<path d="M35.6377 73.5029H34.4655C32.3817 73.5029 30.5583 75.1986 30.5583 77.416V79.8942" stroke="#1F1A54" stroke-width="0.8" stroke-miterlimit="10" stroke-linecap="round" stroke-linejoin="round"/>
<path d="M88.6452 73.5029H39.2844" stroke="#1F1A54" stroke-width="0.8" stroke-miterlimit="10" stroke-linecap="round" stroke-linejoin="round"/>
<path d="M109.223 79.8942V77.416C109.223 75.329 107.53 73.5029 105.316 73.5029H93.5942" stroke="#1F1A54" stroke-width="0.8" stroke-miterlimit="10" stroke-linecap="round" stroke-linejoin="round"/>
<path d="M105.316 66.0677L104.925 64.3721" stroke="white" stroke-width="0.8" stroke-miterlimit="10" stroke-linecap="round" stroke-linejoin="round"/>
<path d="M54.5225 71.1556H103.623C104.925 71.1556 105.967 69.9817 105.707 68.5469" stroke="white" stroke-width="0.8" stroke-miterlimit="10" stroke-linecap="round" stroke-linejoin="round"/>
<path d="M36.6797 71.1553H51.6572" stroke="white" stroke-width="0.8" stroke-miterlimit="10" stroke-linecap="round" stroke-linejoin="round"/>
<path d="M93.2036 63.4597C96.3294 62.5466 98.1527 61.3727 98.1527 60.0684L93.2036 63.4597Z" fill="#1F1A54"/>
<path d="M93.2036 63.4597C96.3294 62.5466 98.1527 61.3727 98.1527 60.0684" stroke="#1F1A54" stroke-width="0.8" stroke-miterlimit="10" stroke-linecap="round" stroke-linejoin="round"/>
<path d="M93.0733 32.416H46.708V63.4595H93.0733V32.416Z" fill="white"/>
<path d="M93.2036 52.2421V32.416H64.6812" fill="white"/>
<path d="M93.2036 52.2421V32.416H64.6812" stroke="#1F1A54" stroke-width="0.8" stroke-miterlimit="10" stroke-linecap="round" stroke-linejoin="round"/>
<path d="M52.4387 32.416H46.8384V63.4595C51.9177 65.0247 60.3833 66.0682 70.021 66.0682C79.6587 66.0682 88.1243 65.0247 93.2036 63.4595V54.9812" fill="white"/>
<path d="M52.4387 32.416H46.8384V63.4595C51.9177 65.0247 60.3833 66.0682 70.021 66.0682C79.6587 66.0682 88.1243 65.0247 93.2036 63.4595V54.9812" stroke="#1F1A54" stroke-width="0.8" stroke-miterlimit="10" stroke-linecap="round" stroke-linejoin="round"/>
<path d="M32.6423 62.6769V58.7638C32.6423 58.2421 32.512 57.8508 32.3818 57.329L28.7351 49.2421C28.6048 48.9812 28.0839 48.8508 27.8234 49.2421L27.3024 49.7638C26.2605 50.9377 26.2605 52.6334 27.3024 53.8073L30.2979 57.329C30.8189 57.9812 31.0794 58.7638 31.0794 59.5464V62.8073H32.6423V62.6769Z" stroke="#1F1A54" stroke-width="0.8" stroke-miterlimit="10" stroke-linecap="round" stroke-linejoin="round"/>
<path d="M61.5555 32.416H55.5645" stroke="#1F1A54" stroke-width="0.8" stroke-miterlimit="10" stroke-linecap="round" stroke-linejoin="round"/>
</g>
</g>
<defs>
<clipPath id="clip0">
<rect width="140" height="140" fill="white" transform="translate(0 0.894531)"/>
</clipPath>
<clipPath id="clip1">
<rect width="87" height="78" fill="white" transform="translate(26 31.8945)"/>
</clipPath>
</defs>
</svg>
