<svg width="375" height="275" viewBox="0 0 375 275" fill="none" xmlns="http://www.w3.org/2000/svg">
<g clip-path="url(#clip0)">
<path d="M193.818 150.633L192.853 149.919C189.53 146.478 189.512 141.034 192.953 137.712L202.721 127.954C206.163 124.632 211.607 124.613 214.929 128.054L215.902 128.956C219.224 132.397 219.243 137.841 215.801 141.163L206.033 150.921C202.592 154.243 197.141 154.074 193.818 150.633Z" fill="white" stroke="#1F1A54" stroke-width="1.4" stroke-miterlimit="10" stroke-linecap="round"/>
<path d="M193.889 152.511L192.765 152.554C188.056 152.169 184.15 148.187 184.528 143.291L185.134 129.563C185.518 124.855 189.501 120.949 194.397 121.327L195.521 121.284C200.23 121.669 204.136 125.651 203.758 130.547L202.777 144.289C202.775 149.17 198.41 152.903 193.889 152.511Z" fill="white" stroke="#1F1A54" stroke-width="1.4" stroke-miterlimit="10" stroke-linecap="round"/>
<path d="M205.683 141.734L179.785 137.084C167.5 134.921 156.175 143.236 154.005 155.334C151.842 167.619 160.157 178.944 172.255 181.114L198.153 185.764C210.439 187.927 221.764 179.612 223.934 167.514C226.298 155.596 217.969 143.897 205.683 141.734Z" fill="#FFD400"/>
<path d="M193.818 150.634L192.853 149.919C189.53 146.478 189.512 141.034 192.953 137.712L202.721 127.954C206.163 124.632 211.607 124.614 214.929 128.055L215.902 128.957C219.224 132.398 219.243 137.842 215.801 141.164L206.033 150.921C202.592 154.244 197.141 154.075 193.818 150.634Z" fill="white" stroke="#1F1A54" stroke-width="1.4" stroke-miterlimit="10" stroke-linecap="round"/>
<path d="M193.889 152.512L192.765 152.554C188.056 152.17 184.15 148.187 184.528 143.292L185.134 129.563C185.518 124.855 189.501 120.949 194.397 121.327L195.521 121.284C200.23 121.669 204.136 125.651 203.758 130.547L202.777 144.289C202.775 149.171 198.41 152.903 193.889 152.512Z" fill="white" stroke="#1F1A54" stroke-width="1.4" stroke-miterlimit="10" stroke-linecap="round"/>
<path d="M205.683 141.734L179.786 137.084C167.5 134.921 156.175 143.236 154.005 155.334C151.843 167.619 160.157 178.944 172.256 181.114L198.154 185.764C210.439 187.927 221.764 179.612 223.934 167.514C226.298 155.596 217.969 143.897 205.683 141.734Z" fill="#FFD400"/>
<path d="M205.683 141.734L179.785 137.084C167.5 134.921 156.175 143.236 154.005 155.334C151.842 167.619 160.157 178.944 172.255 181.114L198.153 185.764C210.439 187.927 221.764 179.612 223.934 167.514C226.298 155.596 217.969 143.897 205.683 141.734Z" fill="#FFD400"/>
<path fill-rule="evenodd" clip-rule="evenodd" d="M215.93 146.345C218.672 153.311 222.935 169.693 210.395 184.452C217.269 181.615 222.527 175.36 223.934 167.514C225.551 159.361 222.164 151.311 215.93 146.345ZM195.049 185.207C197.899 181.986 212.631 163.778 202.994 141.251L186.871 138.356C189.644 144.609 196.73 165.265 178.681 182.268L195.049 185.207Z" fill="#1F1A54"/>
<path d="M165.748 162.756C165.748 162.756 169.162 160.564 171.728 163.812" stroke="#1F1A54" stroke-width="1.4" stroke-miterlimit="10" stroke-linecap="round"/>
<path d="M179.602 156.985C179.284 158.499 178 159.299 176.493 159.168C174.979 158.85 174.179 157.566 174.31 156.06C174.441 154.553 175.912 153.746 177.419 153.876C178.926 154.007 179.927 155.659 179.602 156.985Z" fill="#1F1A54"/>
<path d="M178.269 156.48C178.29 157.043 177.742 157.439 177.165 157.085C176.603 157.107 176.206 156.559 176.56 155.982C176.539 155.419 177.087 155.023 177.664 155.377C177.851 155.37 178.247 155.918 178.269 156.48Z" fill="white"/>
<path d="M165.81 154.698C165.492 156.212 164.208 157.012 162.701 156.881C161.187 156.563 160.387 155.279 160.518 153.772C160.836 152.258 162.12 151.459 163.627 151.589C164.946 151.727 166.128 153.184 165.81 154.698Z" fill="#1F1A54"/>
<path d="M164.476 154.183C164.498 154.745 163.949 155.142 163.373 154.788C162.81 154.809 162.414 154.261 162.768 153.684C162.746 153.122 163.294 152.726 163.871 153.079C164.059 153.072 164.455 153.62 164.476 154.183Z" fill="white"/>
<path d="M159.951 159.237C155.399 161.298 152.543 164.452 153.072 167.053C153.161 167.697 153.413 168.307 153.802 168.827C154.191 169.347 154.706 169.759 155.299 170.026C155.829 170.178 156.386 170.212 156.931 170.126C157.476 170.04 157.996 169.836 158.454 169.529C160.665 168.11 161.216 163.962 159.951 159.237Z" fill="#9DAFED"/>
<path d="M163.853 142.379C163.853 142.379 154.342 134.611 150.77 143.46" stroke="#221E54" stroke-width="1.4" stroke-miterlimit="10" stroke-linecap="round"/>
<path d="M173.759 140.087C173.759 140.087 167.853 128.382 160.845 132.969" stroke="#221E54" stroke-width="1.4" stroke-miterlimit="10" stroke-linecap="round"/>
<path d="M-12 224.517H387.001" stroke="url(#paint0_linear)"/>
<path d="M335 216.943L331.392 213.794C329.695 212.325 328.34 210.559 327.406 208.602C326.479 206.669 326 204.581 326 202.471C326 200.361 326.479 198.274 327.406 196.341C328.34 194.384 329.695 192.618 331.392 191.149L335 188L338.595 191.149C340.3 192.614 341.66 194.381 342.594 196.341C343.521 198.274 344 200.361 344 202.471C344 204.581 343.521 206.669 342.594 208.602C341.66 210.562 340.3 212.328 338.595 213.794L335 216.943Z" fill="#FFD400"/>
<path d="M335 202.15V224M335 222.04L342.242 215.695M335 216.943L331.392 213.794C329.695 212.325 328.34 210.559 327.406 208.602C326.479 206.669 326 204.581 326 202.471C326 200.361 326.479 198.274 327.406 196.341C328.34 194.384 329.695 192.618 331.392 191.149L335 188L338.595 191.149C340.3 192.614 341.66 194.381 342.594 196.341C343.521 198.274 344 200.361 344 202.471C344 204.581 343.521 206.669 342.594 208.602C341.66 210.562 340.3 212.328 338.595 213.794L335 216.943Z" stroke="#1F1A54" stroke-linecap="round" stroke-linejoin="round"/>
<path d="M105 216.158L100.991 212.66C99.1059 211.027 97.5999 209.065 96.5625 206.891C95.532 204.743 95 202.424 95 200.079C95 197.735 95.532 195.415 96.5625 193.267C97.5999 191.093 99.1059 189.131 100.991 187.498L105 184L108.994 187.498C110.888 189.127 112.4 191.09 113.437 193.267C114.468 195.415 115 197.735 115 200.079C115 202.424 114.468 204.743 113.437 206.891C112.4 209.069 110.888 211.031 108.994 212.66L105 216.158Z" fill="#FFD400"/>
<path d="M105 199.723V224M105 221.822L113.047 214.772M105 216.158L100.991 212.66C99.1059 211.027 97.5999 209.065 96.5625 206.891C95.532 204.743 95 202.424 95 200.079C95 197.735 95.532 195.415 96.5625 193.267C97.5999 191.093 99.1059 189.131 100.991 187.498L105 184L108.994 187.498C110.888 189.127 112.4 191.09 113.437 193.267C114.468 195.415 115 197.735 115 200.079C115 202.424 114.468 204.743 113.437 206.891C112.4 209.069 110.888 211.031 108.994 212.66L105 216.158Z" stroke="#1F1A54" stroke-linecap="round" stroke-linejoin="round"/>
<path d="M43.9945 217.209V224V217.209ZM43.7116 200.227L38.01 220.517C37.9984 220.558 37.9969 220.601 38.0056 220.643C38.0143 220.685 38.0331 220.725 38.0604 220.759C38.0878 220.793 38.1229 220.82 38.1633 220.839C38.2036 220.858 38.2479 220.868 38.293 220.868H49.7179C49.762 220.867 49.805 220.855 49.844 220.836C49.883 220.816 49.9168 220.788 49.9429 220.755C49.969 220.721 49.9868 220.682 49.995 220.641C50.0031 220.6 50.0014 220.557 49.9899 220.517L44.2774 200.269C44.2774 200.197 44.2476 200.129 44.1946 200.079C44.1415 200.028 44.0696 200 43.9945 200C43.9195 200 43.8475 200.028 43.7945 200.079C43.7414 200.129 43.7116 200.197 43.7116 200.269V200.227Z" fill="#FFD400" stroke="#1F1A54" stroke-linecap="round" stroke-linejoin="round"/>
<path d="M300.538 103.515C300.362 101.454 299.392 99.5384 297.828 98.1657C296.24 96.7651 294.185 95.9943 292.057 96.001C290.96 95.9843 289.872 96.1837 288.854 96.5875C287.846 96.9754 286.926 97.558 286.149 98.3013C285.371 99.0446 284.751 99.9338 284.324 100.917C283.912 101.894 283.705 102.944 283.717 104.003V105.204H282.419C281.003 105.242 279.653 105.805 278.637 106.783C277.635 107.736 277.048 109.039 277 110.414V116H300.481C302.201 116.005 303.856 115.349 305.096 114.17C305.698 113.596 306.177 112.907 306.504 112.145C306.831 111.383 307 110.564 307 109.736C307 108.909 306.831 108.089 306.504 107.327C306.177 106.565 305.698 105.877 305.096 105.302C303.863 104.152 302.232 103.512 300.538 103.515V103.515Z" stroke="#221E54" stroke-linecap="round" stroke-linejoin="round"/>
<path d="M79.5379 139.515C79.3619 137.454 78.3917 135.538 76.8284 134.166C75.2397 132.765 73.1845 131.994 71.0569 132.001C69.9604 131.984 68.8715 132.184 67.8536 132.588C66.846 132.975 65.9265 133.558 65.1487 134.301C64.371 135.045 63.7506 135.934 63.3238 136.917C62.9118 137.894 62.7053 138.944 62.717 140.003V141.204H61.4188C60.0028 141.242 58.6528 141.805 57.637 142.783C56.6353 143.736 56.0481 145.039 56 146.414V152H79.4814C81.201 152.005 82.8555 151.349 84.0959 150.17C84.6981 149.596 85.1771 148.907 85.5042 148.145C85.8314 147.383 86 146.564 86 145.736C86 144.909 85.8314 144.089 85.5042 143.327C85.1771 142.565 84.6981 141.877 84.0959 141.302C82.863 140.152 81.2322 139.512 79.5379 139.515V139.515Z" stroke="#221E54" stroke-linecap="round" stroke-linejoin="round"/>
<path d="M234.993 72.7479C222.669 59.5249 205.98 52.2424 187.999 52.2422C170.02 52.2424 153.331 59.5249 141.007 72.7479C139.595 74.2629 139.678 76.6359 141.193 78.048C142.708 79.4598 145.081 79.3766 146.493 77.8614C157.383 66.1772 172.124 59.7424 188.001 59.7422C203.876 59.7424 218.617 66.1772 229.507 77.8614C230.245 78.6538 231.247 79.0546 232.251 79.0546C233.166 79.0546 234.084 78.7213 234.807 78.048C236.322 76.6357 236.405 74.2629 234.993 72.7479Z" fill="#FFEB86" fill-opacity="0.25"/>
<path d="M221.224 88.2338C212.114 79.055 200.314 74.0002 187.999 74.0005C175.682 74.0007 163.882 79.0557 154.775 88.2342C153.316 89.7044 153.326 92.0787 154.796 93.5375C156.266 94.9962 158.64 94.987 160.099 93.5168C167.787 85.7682 177.696 81.5007 187.999 81.5005C198.3 81.5002 208.209 85.7678 215.9 93.5172C216.633 94.2558 217.597 94.6255 218.562 94.6255C219.517 94.6255 220.472 94.2629 221.204 93.5371C222.674 92.0781 222.683 89.7038 221.224 88.2338Z" fill="#FFEB86" fill-opacity="0.5"/>
<path d="M206.216 103.766C201.337 98.9321 194.344 95.9297 187.965 95.9297C187.964 95.9297 187.963 95.9297 187.962 95.9297H187.692C187.69 95.9297 187.69 95.9297 187.689 95.9297C181.309 95.9297 174.316 98.9323 169.437 103.766C167.966 105.223 167.955 107.598 169.413 109.069C170.146 109.809 171.111 110.18 172.077 110.18C173.03 110.18 173.985 109.818 174.716 109.094C178.189 105.653 183.281 103.43 187.689 103.43C187.69 103.43 187.69 103.43 187.691 103.43H187.962C187.963 103.43 187.963 103.43 187.964 103.43C192.372 103.43 197.464 105.653 200.937 109.094C202.408 110.551 204.783 110.541 206.24 109.069C207.698 107.598 207.687 105.223 206.216 103.766Z" fill="#FFEB86"/>
<path d="M313.914 157.001C314.821 162.932 307.714 185.916 278.303 181.138C246.503 175.971 250.326 150.298 260.05 146.296C269.775 142.294 279.611 155.849 263.423 168.354C255.491 174.492 244.801 173.746 235.635 171.031" stroke="#FED401" stroke-linecap="round" stroke-dasharray="7 7"/>
</g>
<defs>
<linearGradient id="paint0_linear" x1="375" y1="225.002" x2="-1.50001" y2="225" gradientUnits="userSpaceOnUse">
<stop stop-color="#1F1A54" stop-opacity="0"/>
<stop offset="0.09375" stop-color="#1F1A54"/>
<stop offset="0.5" stop-color="#1F1A54"/>
<stop offset="0.885417" stop-color="#1F1A54"/>
<stop offset="1" stop-color="#1F1A54" stop-opacity="0"/>
</linearGradient>
<clipPath id="clip0">
<rect width="375" height="275" fill="white"/>
</clipPath>
</defs>
</svg>
