<svg width="140" height="140" viewBox="0 0 140 140" fill="none" xmlns="http://www.w3.org/2000/svg">
<path d="M140 69.9251C140.004 57.6334 136.767 45.5577 130.614 34.9148C124.461 24.2719 115.61 15.4377 104.953 9.30253C94.3152 3.19159 82.2569 -0.0164879 69.9873 6.37231e-05C57.7176 0.0166153 45.668 3.25722 35.0471 9.39683C24.3906 15.5331 15.5403 24.3674 9.38754 35.0101C3.23478 45.6528 -0.00314271 57.728 -8.93953e-05 70.0194C-0.000405099 82.3102 3.23867 94.3843 9.39116 105.027C15.5437 115.669 24.3925 124.504 35.0471 130.642C45.6916 136.773 57.7614 140 70.0471 140C82.3327 140 94.4026 136.773 105.047 130.642C115.699 124.485 124.539 115.63 130.675 104.97C136.811 94.3108 140.028 82.2229 140 69.9251Z" fill="#F2F4F6"/>
<g clip-path="url(#clip0)">
<path d="M76.0462 109.032C96.4552 109.032 113 107.398 113 105.382C113 103.367 96.4552 101.732 76.0462 101.732C55.6372 101.732 39.0925 103.367 39.0925 105.382C39.0925 107.398 55.6372 109.032 76.0462 109.032Z" fill="#9DAFED"/>
<path d="M88.0594 98.8645C84.4032 104.47 77.0908 106.425 63.6412 106.425C50.1916 106.425 43.0098 104.34 39.3536 98.8645C35.828 93.6502 34.5222 86.3502 34.5222 73.3145C34.5222 60.2788 35.828 52.9788 39.3536 47.7645C43.1404 42.2895 50.3222 41.377 63.7718 41.377C77.2214 41.377 84.5338 42.1591 88.19 47.7645C91.585 52.9788 92.6297 60.2788 92.6297 73.3145C92.4991 86.3502 91.585 93.6502 88.0594 98.8645Z" fill="white" stroke="#1F1A54" stroke-width="0.8" stroke-miterlimit="10" stroke-linecap="round" stroke-linejoin="round"/>
<path d="M78.3965 101.993C75.132 102.384 69.6477 102.645 63.6411 102.645C53.5866 102.645 45.3601 101.863 45.3601 100.951C45.3601 100.038 53.5866 99.2559 63.6411 99.2559C65.7304 99.2559 67.8196 99.2559 69.6477 99.3862C76.8296 99.6469 81.9221 100.299 81.9221 101.081C81.9221 101.342 81.5304 101.472 80.8775 101.733" fill="#FFD400"/>
<path d="M78.3965 101.993C75.132 102.384 69.6477 102.645 63.6411 102.645C53.5866 102.645 45.3601 101.863 45.3601 100.951C45.3601 100.038 53.5866 99.2559 63.6411 99.2559C65.7304 99.2559 67.8196 99.2559 69.6477 99.3862C76.8296 99.6469 81.9221 100.299 81.9221 101.081C81.9221 101.342 81.5304 101.472 80.8775 101.733" stroke="#1F1A54" stroke-width="0.8" stroke-miterlimit="10" stroke-linecap="round" stroke-linejoin="round"/>
<path d="M54.5007 48.1557C47.4495 47.3736 42.4875 45.6789 42.4875 43.7236V38.3789H84.9255V43.7236C84.9255 45.8093 79.5718 47.5039 71.9983 48.2861" fill="white"/>
<path d="M54.5007 48.1557C47.4495 47.3736 42.4875 45.6789 42.4875 43.7236V38.3789H84.9255V43.7236C84.9255 45.8093 79.5718 47.5039 71.9983 48.2861" stroke="#1F1A54" stroke-width="0.8" stroke-miterlimit="10" stroke-linecap="round" stroke-linejoin="round"/>
<path d="M40.0066 60.1488C38.0479 68.1006 38.0479 76.5738 40.0066 84.5256C40.6595 87.5238 45.2297 86.2202 44.5768 83.222C42.4876 75.0095 42.8793 66.2756 45.4909 58.0631C46.4049 55.1952 41.8347 53.8916 40.9206 56.7595" fill="white"/>
<path d="M40.0066 60.1488C38.0479 68.1006 38.0479 76.5738 40.0066 84.5256C40.6595 87.5238 45.2297 86.2202 44.5768 83.222C42.4876 75.0095 42.8793 66.2756 45.4909 58.0631C46.4049 55.1952 41.8347 53.8916 40.9206 56.7595" stroke="#1F1A54" stroke-width="0.8" stroke-miterlimit="10" stroke-linecap="round" stroke-linejoin="round"/>
<path d="M88.5817 57.8031C85.709 58.5852 86.3619 69.7959 89.7569 82.7013C93.1519 95.6067 98.3751 105.644 101.248 104.862L106.34 103.428L94.066 56.3691L88.5817 57.8031Z" fill="#FFD400" stroke="#1F1A54" stroke-width="0.8" stroke-miterlimit="10" stroke-linecap="round" stroke-linejoin="round"/>
<path d="M106.926 103.514C109.782 102.75 109.268 91.5887 105.778 78.5848C102.288 65.581 97.1435 55.6586 94.2875 56.4225C91.4316 57.1864 91.9457 68.3474 95.4358 81.3512C98.9259 94.3551 104.07 104.278 106.926 103.514Z" fill="#FFD400" stroke="#1F1A54" stroke-width="0.8" stroke-miterlimit="10" stroke-linecap="round" stroke-linejoin="round"/>
<path d="M105.035 94.4326C105.296 97.5612 105.035 99.6469 104.251 99.7773L105.035 94.4326Z" fill="white"/>
<path d="M105.035 94.4326C105.296 97.5612 105.035 99.6469 104.251 99.7773" stroke="#1F1A54" stroke-width="0.8" stroke-miterlimit="10" stroke-linecap="round" stroke-linejoin="round"/>
<path d="M93.9355 60.9307C95.633 60.5396 99.2892 68.8825 102.162 79.5718C103.076 83.0914 103.859 86.4807 104.382 89.4789" fill="#FFD400"/>
<path d="M93.9355 60.9307C95.633 60.5396 99.2892 68.8825 102.162 79.5718C103.076 83.0914 103.859 86.4807 104.382 89.4789" stroke="#1F1A54" stroke-width="0.8" stroke-miterlimit="10" stroke-linecap="round" stroke-linejoin="round"/>
<path d="M69.1256 42.2895L52.4115 88.436L56.4595 89.8699L74.7405 41.6377" fill="#1F1A54"/>
<path d="M69.1256 42.2895L52.4115 88.436L56.4595 89.8699L74.7405 41.6377" stroke="#1F1A54" stroke-width="0.8" stroke-miterlimit="10" stroke-linecap="round" stroke-linejoin="round"/>
<path d="M61.6385 90.3362C62.2408 88.7163 59.605 86.2454 55.7513 84.8173C51.8976 83.3893 48.2853 83.5447 47.6829 85.1646C47.0806 86.7845 49.7164 89.2553 53.5701 90.6834C57.4239 92.1115 61.0362 91.956 61.6385 90.3362Z" fill="#FFD400" stroke="#1F1A54" stroke-width="0.8" stroke-miterlimit="10" stroke-linecap="round" stroke-linejoin="round"/>
<path d="M56.59 89.3485C59.2016 90.7824 60.7685 92.6074 60.2462 93.7806C59.5933 95.3449 56.0677 95.4753 52.1503 94.0413C48.233 92.6074 45.6214 90.1306 46.2743 88.5663C46.666 87.3931 48.8859 87.0021 51.4974 87.5235" fill="#FFD400"/>
<path d="M56.59 89.3485C59.2016 90.7824 60.7685 92.6074 60.2462 93.7806C59.5933 95.3449 56.0677 95.4753 52.1503 94.0413C48.233 92.6074 45.6214 90.1306 46.2743 88.5663C46.666 87.3931 48.8859 87.0021 51.4974 87.5235" stroke="#1F1A54" stroke-width="0.8" stroke-miterlimit="10" stroke-linecap="round" stroke-linejoin="round"/>
<path d="M51.1057 90.5214C51.8892 90.6518 52.5421 90.9125 53.3256 91.1732C57.2429 92.6072 59.8545 95.084 59.2016 96.6482C58.5487 98.2125 55.0231 98.3429 51.1057 96.909C47.1884 95.475 44.5768 92.9982 45.2297 91.4339C45.4908 90.6518 46.5355 90.2607 48.1024 90.1304" fill="#FFD400"/>
<path d="M51.1057 90.5214C51.8892 90.6518 52.5421 90.9125 53.3256 91.1732C57.2429 92.6072 59.8545 95.084 59.2016 96.6482C58.5487 98.2125 55.0231 98.3429 51.1057 96.909C47.1884 95.475 44.5768 92.9982 45.2297 91.4339C45.4908 90.6518 46.5355 90.2607 48.1024 90.1304" stroke="#1F1A54" stroke-width="0.8" stroke-miterlimit="10" stroke-linecap="round" stroke-linejoin="round"/>
<path d="M56.0677 97.1699C57.5041 98.3431 58.157 99.5163 57.8958 100.429C57.2429 101.993 53.7173 102.123 49.8 100.69C45.8826 99.2556 43.271 96.7788 43.9239 95.2145C44.4462 93.6503 48.1024 93.5199 52.0198 94.9538C52.5421 95.0842 52.9338 95.3449 53.4562 95.4753" fill="#FFD400"/>
<path d="M56.0677 97.1699C57.5041 98.3431 58.157 99.5163 57.8958 100.429C57.2429 101.993 53.7173 102.123 49.8 100.69C45.8826 99.2556 43.271 96.7788 43.9239 95.2145C44.4462 93.6503 48.1024 93.5199 52.0198 94.9538C52.5421 95.0842 52.9338 95.3449 53.4562 95.4753" stroke="#1F1A54" stroke-width="0.8" stroke-miterlimit="10" stroke-linecap="round" stroke-linejoin="round"/>
<path d="M44.9685 40.2035C43.4016 39.6821 42.4875 39.0303 42.4875 38.3785C42.4875 36.2928 52.0198 34.4678 63.6412 34.4678C75.3933 34.4678 84.795 36.1624 84.795 38.3785C84.795 40.5946 75.2627 42.2892 63.6412 42.2892C58.2875 42.2892 53.3255 41.8981 49.5388 41.3767" fill="white"/>
<path d="M44.9685 40.2035C43.4016 39.6821 42.4875 39.0303 42.4875 38.3785C42.4875 36.2928 52.0198 34.4678 63.6412 34.4678C75.3933 34.4678 84.795 36.1624 84.795 38.3785C84.795 40.5946 75.2627 42.2892 63.6412 42.2892C58.2875 42.2892 53.3255 41.8981 49.5388 41.3767" stroke="#1F1A54" stroke-width="0.8" stroke-miterlimit="10" stroke-linecap="round" stroke-linejoin="round"/>
<path d="M56.4595 36.4233C50.1917 36.684 45.8826 37.3358 45.8826 38.118C45.8826 39.1608 53.9785 40.0733 63.9024 40.0733C65.6 40.0733 67.5586 40.0733 68.7338 39.943C71.476 39.8126 73.1735 39.8126 74.6099 39.6822C76.438 39.5519 81.9223 38.7697 81.9223 38.118C81.9223 37.0751 73.8264 36.1626 63.9024 36.1626C62.3355 36.1626 60.7685 36.1626 59.3322 36.1626" fill="white"/>
<path d="M56.4595 36.4233C50.1917 36.684 45.8826 37.3358 45.8826 38.118C45.8826 39.1608 53.9785 40.0733 63.9024 40.0733C65.6 40.0733 67.5586 40.0733 68.7338 39.943C71.476 39.8126 73.1735 39.8126 74.6099 39.6822C76.438 39.5519 81.9223 38.7697 81.9223 38.118C81.9223 37.0751 73.8264 36.1626 63.9024 36.1626C62.3355 36.1626 60.7685 36.1626 59.3322 36.1626" stroke="#1F1A54" stroke-width="0.8" stroke-miterlimit="10" stroke-linecap="round" stroke-linejoin="round"/>
<path d="M74.4995 39.4434L78.919 27.8198L72.5206 29.9055L68.9995 39.9431L74.4995 39.4434Z" fill="#1F1A54" stroke="#1F1A54" stroke-width="0.8" stroke-miterlimit="10" stroke-linecap="round" stroke-linejoin="round"/>
<path d="M78.9189 27.8201L79.7024 25.604C80.0942 24.4308 79.0495 23.1272 77.8743 22.6058C76.6991 22.2147 75.0016 22.6058 74.6099 23.6486L68.4997 39.9433" fill="#1F1A54"/>
<path d="M78.9189 27.8201L79.7024 25.604C80.0942 24.4308 79.0495 23.1272 77.8743 22.6058C76.6991 22.2147 75.0016 22.6058 74.6099 23.6486L68.4997 39.9433" stroke="#1F1A54" stroke-width="0.8" stroke-miterlimit="10" stroke-linecap="round" stroke-linejoin="round"/>
<path d="M76.8297 33.1646L78.266 29.3843" stroke="#1F1A54" stroke-width="0.8" stroke-miterlimit="10" stroke-linecap="round" stroke-linejoin="round"/>
<path d="M74.4792 39.4214L76.3074 34.8589" stroke="#1F1A54" stroke-width="0.8" stroke-miterlimit="10" stroke-linecap="round" stroke-linejoin="round"/>
<path d="M68.9949 48.416C66.9057 48.5464 64.8164 48.5464 62.5966 48.5464" stroke="#1F1A54" stroke-width="0.8" stroke-miterlimit="10" stroke-linecap="round" stroke-linejoin="round"/>
<path d="M84.9255 43.7231C84.9255 45.5481 80.3552 47.2428 73.8263 48.0249C73.304 48.1553 72.6511 48.1553 71.9982 48.2857C71.9982 48.2857 71.6064 48.2857 70.9536 48.416" stroke="#1F1A54" stroke-width="0.8" stroke-miterlimit="10" stroke-linecap="round" stroke-linejoin="round"/>
</g>
<defs>
<clipPath id="clip0">
<rect width="79" height="86.9483" fill="white" transform="translate(33.9999 21.9536)"/>
</clipPath>
</defs>
</svg>
