<svg width="140" height="141" viewBox="0 0 140 141" fill="none" xmlns="http://www.w3.org/2000/svg">
<path d="M140 69.9666C140.004 57.6677 136.767 45.5848 130.614 34.9355C124.461 24.2863 115.61 15.4469 104.953 9.30806C94.3152 3.19349 82.2569 -0.0164977 69.9872 6.3761e-05C57.7176 0.0166252 45.668 3.25915 35.0471 9.40242C24.3906 15.5423 15.5403 24.3819 9.38751 35.0309C3.23475 45.68 -0.00317322 57.7623 -0.000119913 70.061C-0.000435617 82.3592 3.23864 94.4404 9.39113 105.089C15.5436 115.738 24.3924 124.578 35.0471 130.72C45.6915 136.854 57.7614 140.083 70.0471 140.083C82.3327 140.083 94.4026 136.854 105.047 130.72C115.699 124.559 124.538 115.699 130.675 105.033C136.811 94.3669 140.028 82.2718 140 69.9666Z" fill="#F2F4F6"/>
<g clip-path="url(#clip0)">
<path d="M71.1776 108.967C92.1385 108.967 109.131 107.087 109.131 104.769C109.131 102.451 92.1385 100.572 71.1776 100.572C50.2168 100.572 33.2246 102.451 33.2246 104.769C33.2246 107.087 50.2168 108.967 71.1776 108.967Z" fill="#9DAFED"/>
<path d="M52.2012 103.195H100.886C101.54 103.195 101.933 102.67 101.933 102.014L96.8287 39.8372H47.0972L52.2012 103.195Z" fill="#1F1A54" stroke="#1F1A54" stroke-width="0.8" stroke-miterlimit="10" stroke-linecap="round" stroke-linejoin="round"/>
<path d="M92.9026 105.163H43.171L45.3959 39.8372H95.2583L92.9026 105.163Z" fill="white" stroke="#1F1A54" stroke-width="0.8" stroke-miterlimit="10" stroke-linecap="round" stroke-linejoin="round"/>
<path d="M90.8086 97.0297L90.5469 105.163H40.8153L43.0401 39.8372H92.7717L92.6408 43.5101" fill="white"/>
<path d="M90.8086 97.0297L90.5469 105.163H40.8153L43.0401 39.8372H92.7717L92.6408 43.5101" stroke="#1F1A54" stroke-width="0.8" stroke-miterlimit="10" stroke-linecap="round" stroke-linejoin="round"/>
<path d="M89.369 63.5799L87.9294 105.163H38.1979L40.4227 39.8372H90.2851L89.7616 53.6106" fill="white"/>
<path d="M89.369 63.5799L87.9294 105.163H38.1979L40.4227 39.8372H90.2851L89.7616 53.6106" stroke="#1F1A54" stroke-width="0.8" stroke-miterlimit="10" stroke-linecap="round" stroke-linejoin="round"/>
<path d="M89.6308 57.9395L89.369 63.58" stroke="#1F1A54" stroke-width="0.8" stroke-miterlimit="10" stroke-linecap="round" stroke-linejoin="round"/>
<path d="M46.0502 47.4453C47.1344 47.4453 48.0133 46.5643 48.0133 45.4776C48.0133 44.3909 47.1344 43.51 46.0502 43.51C44.9661 43.51 44.0872 44.3909 44.0872 45.4776C44.0872 46.5643 44.9661 47.4453 46.0502 47.4453Z" fill="#1F1A54"/>
<path d="M53.9025 47.4453C54.9867 47.4453 55.8656 46.5643 55.8656 45.4776C55.8656 44.3909 54.9867 43.51 53.9025 43.51C52.8184 43.51 51.9395 44.3909 51.9395 45.4776C51.9395 46.5643 52.8184 47.4453 53.9025 47.4453Z" fill="#1F1A54"/>
<path d="M61.755 47.4453C62.8391 47.4453 63.718 46.5643 63.718 45.4776C63.718 44.3909 62.8391 43.51 61.755 43.51C60.6708 43.51 59.7919 44.3909 59.7919 45.4776C59.7919 46.5643 60.6708 47.4453 61.755 47.4453Z" fill="#1F1A54"/>
<path d="M69.6073 47.4453C70.6914 47.4453 71.5703 46.5643 71.5703 45.4776C71.5703 44.3909 70.6914 43.51 69.6073 43.51C68.5231 43.51 67.6442 44.3909 67.6442 45.4776C67.6442 46.5643 68.5231 47.4453 69.6073 47.4453Z" fill="#1F1A54"/>
<path d="M77.4595 47.4453C78.5437 47.4453 79.4226 46.5643 79.4226 45.4776C79.4226 44.3909 78.5437 43.51 77.4595 43.51C76.3754 43.51 75.4965 44.3909 75.4965 45.4776C75.4965 46.5643 76.3754 47.4453 77.4595 47.4453Z" fill="#1F1A54"/>
<path d="M85.312 47.4453C86.3961 47.4453 87.2751 46.5643 87.2751 45.4776C87.2751 44.3909 86.3961 43.51 85.312 43.51C84.2278 43.51 83.3489 44.3909 83.3489 45.4776C83.3489 46.5643 84.2278 47.4453 85.312 47.4453Z" fill="#1F1A54"/>
<path d="M92.5099 45.4778L90.9395 93.2257" stroke="#1F1A54" stroke-width="0.8" stroke-miterlimit="10" stroke-linecap="round" stroke-linejoin="round"/>
<path d="M103.11 35.5093H98.1373V38.6575H103.11V35.5093Z" fill="#1F1A54" stroke="#1F1A54" stroke-width="0.8" stroke-miterlimit="10" stroke-linecap="round" stroke-linejoin="round"/>
<path d="M98.9226 39.8373H38.0669L31.5233 37.2137L38.0669 34.3279H98.9226C100.362 34.3279 101.671 35.5085 101.671 37.0826C101.54 38.5255 100.362 39.8373 98.9226 39.8373Z" fill="#FFD400" stroke="#1F1A54" stroke-width="0.8" stroke-miterlimit="10" stroke-linecap="round" stroke-linejoin="round"/>
<path d="M87.9294 35.5093H98.0066" stroke="white" stroke-width="0.5" stroke-miterlimit="10" stroke-linecap="round" stroke-linejoin="round"/>
<path d="M79.2917 35.5093H86.0971" stroke="white" stroke-width="0.5" stroke-miterlimit="10" stroke-linecap="round" stroke-linejoin="round"/>
<path d="M39.1139 35.5093H76.936" stroke="white" stroke-width="0.5" stroke-miterlimit="10" stroke-linecap="round" stroke-linejoin="round"/>
<path d="M74.5803 32.4917H100.231" stroke="#1F1A54" stroke-width="0.8" stroke-miterlimit="10" stroke-linecap="round" stroke-linejoin="round"/>
<path d="M93.8186 32.4917V34.3282" stroke="#1F1A54" stroke-width="0.8" stroke-miterlimit="10" stroke-linecap="round" stroke-linejoin="round"/>
<path d="M95.9126 32.4917V34.3282" stroke="#1F1A54" stroke-width="0.8" stroke-miterlimit="10" stroke-linecap="round" stroke-linejoin="round"/>
<path d="M46.0501 45.4782C44.4796 45.4782 43.1709 42.5924 43.1709 39.0506C43.1709 35.5089 44.4796 32.623 46.0501 32.623C46.7045 32.623 47.3588 33.2789 47.8823 34.1972" stroke="#1F1A54" stroke-width="0.8" stroke-miterlimit="10" stroke-linecap="round" stroke-linejoin="round"/>
<path d="M53.9025 45.4782C52.332 45.4782 51.0233 42.5924 51.0233 39.0506C51.0233 35.5089 52.332 32.623 53.9025 32.623C54.5569 32.623 55.2112 33.2789 55.7347 34.1972" stroke="#1F1A54" stroke-width="0.8" stroke-miterlimit="10" stroke-linecap="round" stroke-linejoin="round"/>
<path d="M61.7549 45.4782C60.1845 45.4782 58.8757 42.5924 58.8757 39.0506C58.8757 35.5089 60.1845 32.623 61.7549 32.623C62.4093 32.623 63.0637 33.2789 63.5871 34.1972" stroke="#1F1A54" stroke-width="0.8" stroke-miterlimit="10" stroke-linecap="round" stroke-linejoin="round"/>
<path d="M69.6072 45.4782C68.0368 45.4782 66.728 42.5924 66.728 39.0506C66.728 35.5089 68.0368 32.623 69.6072 32.623C70.2616 32.623 70.916 33.2789 71.4394 34.1972" stroke="#1F1A54" stroke-width="0.8" stroke-miterlimit="10" stroke-linecap="round" stroke-linejoin="round"/>
<path d="M77.4595 45.4782C75.889 45.4782 74.5803 42.5924 74.5803 39.0506C74.5803 35.5089 75.889 32.623 77.4595 32.623C78.1139 32.623 78.7682 33.2789 79.2917 34.1972" stroke="#1F1A54" stroke-width="0.8" stroke-miterlimit="10" stroke-linecap="round" stroke-linejoin="round"/>
<path d="M85.3119 45.4782C83.7415 45.4782 82.4327 42.5924 82.4327 39.0506C82.4327 35.5089 83.7415 32.623 85.3119 32.623C85.9663 32.623 86.6207 33.2789 87.1442 34.1972" stroke="#1F1A54" stroke-width="0.8" stroke-miterlimit="10" stroke-linecap="round" stroke-linejoin="round"/>
</g>
<defs>
<clipPath id="clip0">
<rect width="78" height="77" fill="white" transform="translate(30.9999 31.9668)"/>
</clipPath>
</defs>
</svg>
