<svg width="140" height="141" viewBox="0 0 140 141" fill="none" xmlns="http://www.w3.org/2000/svg">
<g clip-path="url(#clip0)">
<path d="M140 70.4471C140.004 58.1481 136.767 46.0653 130.614 35.416C124.461 24.7667 115.61 15.9274 104.953 9.78853C94.3153 3.67396 82.257 0.463971 69.9874 0.480533C57.7177 0.497094 45.6681 3.73962 35.0472 9.88289C24.3907 16.0228 15.5404 24.8624 9.38764 35.5114C3.23487 46.1604 -0.00305115 58.2428 2.15742e-06 70.5415C-0.000313546 82.8396 3.23876 94.9209 9.39125 105.569C15.5437 116.218 24.3926 125.058 35.0472 131.2C45.6916 137.335 57.7615 140.564 70.0472 140.564C82.3328 140.564 94.4027 137.335 105.047 131.2C115.699 125.039 124.539 116.179 130.675 105.513C136.811 94.8474 140.028 82.7523 140 70.4471Z" fill="#F2F4F6"/>
<g clip-path="url(#clip1)">
<path d="M76.0463 109.578C96.4552 109.578 113 107.943 113 105.926C113 103.909 96.4552 102.273 76.0463 102.273C55.6373 102.273 39.0925 103.909 39.0925 105.926C39.0925 107.943 55.6373 109.578 76.0463 109.578Z" fill="#9DAFED"/>
<path d="M88.0595 99.4036C84.4033 105.012 77.0909 106.969 63.6413 106.969C50.1918 106.969 43.0099 104.882 39.3537 99.4036C35.8281 94.1862 34.5223 86.8818 34.5223 73.8384C34.5223 60.7949 35.8281 53.4905 39.3537 48.2731C43.1405 42.7949 50.3223 41.8818 63.7719 41.8818C77.2215 41.8818 84.5339 42.6644 88.1901 48.2731C91.5851 53.4905 92.6298 60.7949 92.6298 73.8384C92.4992 86.8818 91.5852 94.1862 88.0595 99.4036Z" fill="white" stroke="#1F1A54" stroke-width="0.8" stroke-miterlimit="10" stroke-linecap="round" stroke-linejoin="round"/>
<path d="M78.3966 102.534C75.1321 102.925 69.6478 103.186 63.6412 103.186C53.5867 103.186 45.3602 102.404 45.3602 101.491C45.3602 100.578 53.5867 99.7949 63.6412 99.7949C65.7305 99.7949 67.8197 99.7949 69.6478 99.9254C76.8296 100.186 81.9222 100.838 81.9222 101.621C81.9222 101.882 81.5305 102.012 80.8776 102.273" fill="#FFD400"/>
<path d="M78.3966 102.534C75.1321 102.925 69.6478 103.186 63.6412 103.186C53.5867 103.186 45.3602 102.404 45.3602 101.491C45.3602 100.578 53.5867 99.7949 63.6412 99.7949C65.7305 99.7949 67.8197 99.7949 69.6478 99.9254C76.8296 100.186 81.9222 100.838 81.9222 101.621C81.9222 101.882 81.5305 102.012 80.8776 102.273" stroke="#1F1A54" stroke-width="0.8" stroke-miterlimit="10" stroke-linecap="round" stroke-linejoin="round"/>
<path d="M54.5009 48.6644C47.4497 47.8818 42.4877 46.1862 42.4877 44.2297V38.8818H84.9257V44.2297C84.9257 46.3166 79.572 48.0123 71.9984 48.7949" fill="white"/>
<path d="M54.5009 48.6644C47.4497 47.8818 42.4877 46.1862 42.4877 44.2297V38.8818H84.9257V44.2297C84.9257 46.3166 79.572 48.0123 71.9984 48.7949" stroke="#1F1A54" stroke-width="0.8" stroke-miterlimit="10" stroke-linecap="round" stroke-linejoin="round"/>
<path d="M40.0067 60.6649C38.0481 68.6214 38.0481 77.0997 40.0067 85.0562C40.6596 88.0562 45.2299 86.7519 44.577 83.7519C42.4877 75.5345 42.8795 66.7954 45.491 58.578C46.4051 55.7084 41.8348 54.4041 40.9208 57.2736" fill="white"/>
<path d="M40.0067 60.6649C38.0481 68.6214 38.0481 77.0997 40.0067 85.0562C40.6596 88.0562 45.2299 86.7519 44.577 83.7519C42.4877 75.5345 42.8795 66.7954 45.491 58.578C46.4051 55.7084 41.8348 54.4041 40.9208 57.2736" stroke="#1F1A54" stroke-width="0.8" stroke-miterlimit="10" stroke-linecap="round" stroke-linejoin="round"/>
<path d="M88.5818 58.3166C85.7091 59.0992 86.362 70.3166 89.757 83.2297C93.152 96.1427 98.3752 106.186 101.248 105.404L106.34 103.969L94.0661 56.8818L88.5818 58.3166Z" fill="#FFD400" stroke="#1F1A54" stroke-width="0.8" stroke-miterlimit="10" stroke-linecap="round" stroke-linejoin="round"/>
<path d="M106.926 104.054C109.782 103.29 109.268 92.1225 105.778 79.1109C102.288 66.0993 97.1436 56.1709 94.2876 56.9353C91.4317 57.6997 91.9458 68.8673 95.4359 81.8789C98.926 94.8905 104.071 104.819 106.926 104.054Z" fill="#FFD400" stroke="#1F1A54" stroke-width="0.8" stroke-miterlimit="10" stroke-linecap="round" stroke-linejoin="round"/>
<path d="M105.035 94.9688C105.296 98.0992 105.035 100.186 104.251 100.317L105.035 94.9688Z" fill="white"/>
<path d="M105.035 94.9688C105.296 98.0992 105.035 100.186 104.251 100.317" stroke="#1F1A54" stroke-width="0.8" stroke-miterlimit="10" stroke-linecap="round" stroke-linejoin="round"/>
<path d="M93.9355 61.4468C95.6331 61.0555 99.2893 69.4033 102.162 80.099C103.076 83.6207 103.86 87.012 104.382 90.012" fill="#FFD400"/>
<path d="M93.9355 61.4468C95.6331 61.0555 99.2893 69.4033 102.162 80.099C103.076 83.6207 103.86 87.012 104.382 90.012" stroke="#1F1A54" stroke-width="0.8" stroke-miterlimit="10" stroke-linecap="round" stroke-linejoin="round"/>
<path d="M69.1257 42.7948L52.4116 88.9687L56.4596 90.4034L74.7405 42.1426" fill="#1F1A54"/>
<path d="M69.1257 42.7948L52.4116 88.9687L56.4596 90.4034L74.7405 42.1426" stroke="#1F1A54" stroke-width="0.8" stroke-miterlimit="10" stroke-linecap="round" stroke-linejoin="round"/>
<path d="M61.6387 90.8697C62.241 89.2489 59.6052 86.7765 55.7515 85.3476C51.8978 83.9187 48.2854 84.0743 47.6831 85.6951C47.0808 87.3159 49.7166 89.7883 53.5703 91.2172C57.424 92.6461 61.0364 92.4905 61.6387 90.8697Z" fill="#FFD400" stroke="#1F1A54" stroke-width="0.8" stroke-miterlimit="10" stroke-linecap="round" stroke-linejoin="round"/>
<path d="M56.5901 89.8819C59.2017 91.3167 60.7686 93.1428 60.2463 94.3167C59.5934 95.8819 56.0678 96.0124 52.1505 94.5776C48.2331 93.1428 45.6215 90.6645 46.2744 89.0993C46.6662 87.9254 48.886 87.5341 51.4976 88.0558" fill="#FFD400"/>
<path d="M56.5901 89.8819C59.2017 91.3167 60.7686 93.1428 60.2463 94.3167C59.5934 95.8819 56.0678 96.0124 52.1505 94.5776C48.2331 93.1428 45.6215 90.6645 46.2744 89.0993C46.6662 87.9254 48.886 87.5341 51.4976 88.0558" stroke="#1F1A54" stroke-width="0.8" stroke-miterlimit="10" stroke-linecap="round" stroke-linejoin="round"/>
<path d="M51.1059 91.0554C51.8894 91.1858 52.5423 91.4467 53.3257 91.7075C57.2431 93.1423 59.8547 95.6206 59.2018 97.1858C58.5489 98.751 55.0233 98.8815 51.1059 97.4467C47.1885 96.0119 44.577 93.5336 45.2299 91.9684C45.491 91.1858 46.5357 90.7945 48.1026 90.6641" fill="#FFD400"/>
<path d="M51.1059 91.0554C51.8894 91.1858 52.5423 91.4467 53.3257 91.7075C57.2431 93.1423 59.8547 95.6206 59.2018 97.1858C58.5489 98.751 55.0233 98.8815 51.1059 97.4467C47.1885 96.0119 44.577 93.5336 45.2299 91.9684C45.491 91.1858 46.5357 90.7945 48.1026 90.6641" stroke="#1F1A54" stroke-width="0.8" stroke-miterlimit="10" stroke-linecap="round" stroke-linejoin="round"/>
<path d="M56.0679 97.7079C57.5042 98.8819 58.1571 100.056 57.896 100.969C57.2431 102.534 53.7175 102.664 49.8001 101.23C45.8828 99.7949 43.2712 97.3166 43.9241 95.7514C44.4464 94.1862 48.1026 94.0558 52.0199 95.4906C52.5423 95.621 52.934 95.8819 53.4563 96.0123" fill="#FFD400"/>
<path d="M56.0679 97.7079C57.5042 98.8819 58.1571 100.056 57.896 100.969C57.2431 102.534 53.7175 102.664 49.8001 101.23C45.8828 99.7949 43.2712 97.3166 43.9241 95.7514C44.4464 94.1862 48.1026 94.0558 52.02 95.4906C52.5423 95.621 52.934 95.8819 53.4563 96.0123" stroke="#1F1A54" stroke-width="0.8" stroke-miterlimit="10" stroke-linecap="round" stroke-linejoin="round"/>
<path d="M44.9687 40.7079C43.4017 40.1861 42.4877 39.534 42.4877 38.8818C42.4877 36.7948 52.0199 34.9688 63.6414 34.9688C75.3935 34.9688 84.7951 36.6644 84.7951 38.8818C84.7951 41.0992 75.2629 42.7948 63.6414 42.7948C58.2877 42.7948 53.3257 42.4035 49.5389 41.8818" fill="white"/>
<path d="M44.9687 40.7079C43.4017 40.1861 42.4877 39.534 42.4877 38.8818C42.4877 36.7948 52.0199 34.9688 63.6414 34.9688C75.3935 34.9688 84.7951 36.6644 84.7951 38.8818C84.7951 41.0992 75.2629 42.7948 63.6414 42.7948C58.2877 42.7948 53.3257 42.4035 49.5389 41.8818" stroke="#1F1A54" stroke-width="0.8" stroke-miterlimit="10" stroke-linecap="round" stroke-linejoin="round"/>
<path d="M56.4595 36.9249C50.1918 37.1858 45.8827 37.838 45.8827 38.6206C45.8827 39.6641 53.9786 40.5771 63.9025 40.5771C65.6 40.5771 67.5587 40.5771 68.7339 40.4467C71.4761 40.3162 73.1736 40.3162 74.61 40.1858C76.4381 40.0554 81.9224 39.2728 81.9224 38.6206C81.9224 37.5771 73.8265 36.6641 63.9025 36.6641C62.3356 36.6641 60.7686 36.6641 59.3323 36.6641" fill="white"/>
<path d="M56.4595 36.9249C50.1918 37.1858 45.8827 37.838 45.8827 38.6206C45.8827 39.6641 53.9786 40.5771 63.9025 40.5771C65.6 40.5771 67.5587 40.5771 68.7339 40.4467C71.4761 40.3162 73.1736 40.3162 74.61 40.1858C76.4381 40.0554 81.9224 39.2728 81.9224 38.6206C81.9224 37.5771 73.8265 36.6641 63.9025 36.6641C62.3356 36.6641 60.7686 36.6641 59.3323 36.6641" stroke="#1F1A54" stroke-width="0.8" stroke-miterlimit="10" stroke-linecap="round" stroke-linejoin="round"/>
<path d="M74.4996 39.9469L78.9191 28.3164L72.5207 30.4034L68.9996 40.4469L74.4996 39.9469Z" fill="#1F1A54" stroke="#1F1A54" stroke-width="0.8" stroke-miterlimit="10" stroke-linecap="round" stroke-linejoin="round"/>
<path d="M78.9191 28.3164L79.7026 26.099C80.0943 24.9251 79.0497 23.6208 77.8745 23.099C76.6993 22.7077 75.0017 23.099 74.61 24.1425L68.4999 40.4469" fill="#1F1A54"/>
<path d="M78.9191 28.3164L79.7026 26.099C80.0943 24.9251 79.0497 23.6208 77.8745 23.099C76.6993 22.7077 75.0017 23.099 74.61 24.1425L68.4999 40.4469" stroke="#1F1A54" stroke-width="0.8" stroke-miterlimit="10" stroke-linecap="round" stroke-linejoin="round"/>
<path d="M76.8298 33.6644L78.2662 29.8818" stroke="#1F1A54" stroke-width="0.8" stroke-miterlimit="10" stroke-linecap="round" stroke-linejoin="round"/>
<path d="M74.4794 39.9256L76.3075 35.3604" stroke="#1F1A54" stroke-width="0.8" stroke-miterlimit="10" stroke-linecap="round" stroke-linejoin="round"/>
<path d="M68.995 48.9248C66.9058 49.0552 64.8165 49.0552 62.5967 49.0552" stroke="#1F1A54" stroke-width="0.8" stroke-miterlimit="10" stroke-linecap="round" stroke-linejoin="round"/>
<path d="M84.9256 44.2295C84.9256 46.0556 80.3554 47.7512 73.8265 48.5338C73.3042 48.6643 72.6513 48.6643 71.9984 48.7947C71.9984 48.7947 71.6066 48.7947 70.9537 48.9251" stroke="#1F1A54" stroke-width="0.8" stroke-miterlimit="10" stroke-linecap="round" stroke-linejoin="round"/>
</g>
</g>
<defs>
<clipPath id="clip0">
<rect width="140" height="140" fill="white" transform="translate(0 0.447266)"/>
</clipPath>
<clipPath id="clip1">
<rect width="79" height="87" fill="white" transform="translate(34 22.4473)"/>
</clipPath>
</defs>
</svg>
