<svg width="140" height="141" viewBox="0 0 140 141" fill="none" xmlns="http://www.w3.org/2000/svg">
<g clip-path="url(#clip0)">
<path d="M140 70.4471C140.004 58.1481 136.767 46.0653 130.614 35.416C124.461 24.7667 115.61 15.9274 104.953 9.78853C94.3153 3.67396 82.257 0.463971 69.9874 0.480533C57.7177 0.497094 45.6681 3.73962 35.0472 9.88289C24.3907 16.0228 15.5404 24.8624 9.38764 35.5114C3.23487 46.1604 -0.00305115 58.2428 2.15742e-06 70.5415C-0.000313546 82.8396 3.23876 94.9209 9.39125 105.569C15.5437 116.218 24.3926 125.058 35.0472 131.2C45.6916 137.335 57.7615 140.564 70.0472 140.564C82.3328 140.564 94.4027 137.335 105.047 131.2C115.699 125.039 124.539 116.179 130.675 105.513C136.811 94.8474 140.028 82.7523 140 70.4471Z" fill="#F2F4F6"/>
<g clip-path="url(#clip1)">
<path d="M71.1779 109.447C92.1388 109.447 109.131 107.568 109.131 105.249C109.131 102.931 92.1388 101.052 71.1779 101.052C50.217 101.052 33.2249 102.931 33.2249 105.249C33.2249 107.568 50.217 109.447 71.1779 109.447Z" fill="#9DAFED"/>
<path d="M52.2012 103.676H100.886C101.54 103.676 101.933 103.151 101.933 102.496L96.8287 40.3184H47.0972L52.2012 103.676Z" fill="#1F1A54" stroke="#1F1A54" stroke-width="0.8" stroke-miterlimit="10" stroke-linecap="round" stroke-linejoin="round"/>
<path d="M92.9027 105.644H43.1711L45.396 40.3184H95.2584L92.9027 105.644Z" fill="white" stroke="#1F1A54" stroke-width="0.8" stroke-miterlimit="10" stroke-linecap="round" stroke-linejoin="round"/>
<path d="M90.8087 97.5109L90.547 105.644H40.8154L43.0403 40.3184H92.7718L92.6409 43.9913" fill="white"/>
<path d="M90.8087 97.5109L90.547 105.644H40.8154L43.0403 40.3184H92.7718L92.6409 43.9913" stroke="#1F1A54" stroke-width="0.8" stroke-miterlimit="10" stroke-linecap="round" stroke-linejoin="round"/>
<path d="M89.3691 64.0611L87.9295 105.644H38.198L40.4228 40.3184H90.2852L89.7617 54.0918" fill="white"/>
<path d="M89.3691 64.0611L87.9295 105.644H38.198L40.4228 40.3184H90.2852L89.7618 54.0918" stroke="#1F1A54" stroke-width="0.8" stroke-miterlimit="10" stroke-linecap="round" stroke-linejoin="round"/>
<path d="M89.6309 58.4209L89.3691 64.0614" stroke="#1F1A54" stroke-width="0.8" stroke-miterlimit="10" stroke-linecap="round" stroke-linejoin="round"/>
<path d="M46.0502 47.9265C47.1344 47.9265 48.0133 47.0455 48.0133 45.9588C48.0133 44.8721 47.1344 43.9912 46.0502 43.9912C44.9661 43.9912 44.0872 44.8721 44.0872 45.9588C44.0872 47.0455 44.9661 47.9265 46.0502 47.9265Z" fill="#1F1A54"/>
<path d="M53.9028 47.9265C54.987 47.9265 55.8659 47.0455 55.8659 45.9588C55.8659 44.8721 54.987 43.9912 53.9028 43.9912C52.8186 43.9912 51.9397 44.8721 51.9397 45.9588C51.9397 47.0455 52.8186 47.9265 53.9028 47.9265Z" fill="#1F1A54"/>
<path d="M61.7551 47.9265C62.8393 47.9265 63.7182 47.0455 63.7182 45.9588C63.7182 44.8721 62.8393 43.9912 61.7551 43.9912C60.6709 43.9912 59.792 44.8721 59.792 45.9588C59.792 47.0455 60.6709 47.9265 61.7551 47.9265Z" fill="#1F1A54"/>
<path d="M69.6074 47.9265C70.6916 47.9265 71.5705 47.0455 71.5705 45.9588C71.5705 44.8721 70.6916 43.9912 69.6074 43.9912C68.5232 43.9912 67.6443 44.8721 67.6443 45.9588C67.6443 47.0455 68.5232 47.9265 69.6074 47.9265Z" fill="#1F1A54"/>
<path d="M77.4597 47.9265C78.5438 47.9265 79.4228 47.0455 79.4228 45.9588C79.4228 44.8721 78.5438 43.9912 77.4597 43.9912C76.3755 43.9912 75.4966 44.8721 75.4966 45.9588C75.4966 47.0455 76.3755 47.9265 77.4597 47.9265Z" fill="#1F1A54"/>
<path d="M85.3122 47.9265C86.3964 47.9265 87.2753 47.0455 87.2753 45.9588C87.2753 44.8721 86.3964 43.9912 85.3122 43.9912C84.228 43.9912 83.3491 44.8721 83.3491 45.9588C83.3491 47.0455 84.228 47.9265 85.3122 47.9265Z" fill="#1F1A54"/>
<path d="M92.5102 45.959L90.9397 93.7069" stroke="#1F1A54" stroke-width="0.8" stroke-miterlimit="10" stroke-linecap="round" stroke-linejoin="round"/>
<path d="M103.111 35.9893H98.1375V39.1375H103.111V35.9893Z" fill="#1F1A54" stroke="#1F1A54" stroke-width="0.8" stroke-miterlimit="10" stroke-linecap="round" stroke-linejoin="round"/>
<path d="M98.9228 40.318H38.0671L31.5234 37.6945L38.0671 34.8086H98.9228C100.362 34.8086 101.671 35.9892 101.671 37.5633C101.54 39.0062 100.362 40.318 98.9228 40.318Z" fill="#FFD400" stroke="#1F1A54" stroke-width="0.8" stroke-miterlimit="10" stroke-linecap="round" stroke-linejoin="round"/>
<path d="M87.9294 35.9893H98.0066" stroke="white" stroke-width="0.5" stroke-miterlimit="10" stroke-linecap="round" stroke-linejoin="round"/>
<path d="M79.292 35.9893H86.0974" stroke="white" stroke-width="0.5" stroke-miterlimit="10" stroke-linecap="round" stroke-linejoin="round"/>
<path d="M39.114 35.9893H76.9362" stroke="white" stroke-width="0.5" stroke-miterlimit="10" stroke-linecap="round" stroke-linejoin="round"/>
<path d="M74.5806 32.9717H100.232" stroke="#1F1A54" stroke-width="0.8" stroke-miterlimit="10" stroke-linecap="round" stroke-linejoin="round"/>
<path d="M93.8188 32.9717V34.8081" stroke="#1F1A54" stroke-width="0.8" stroke-miterlimit="10" stroke-linecap="round" stroke-linejoin="round"/>
<path d="M95.9128 32.9717V34.8081" stroke="#1F1A54" stroke-width="0.8" stroke-miterlimit="10" stroke-linecap="round" stroke-linejoin="round"/>
<path d="M46.0503 45.9587C44.4799 45.9587 43.1711 43.0729 43.1711 39.5311C43.1711 35.9894 44.4799 33.1035 46.0503 33.1035C46.7047 33.1035 47.3591 33.7594 47.8825 34.6776" stroke="#1F1A54" stroke-width="0.8" stroke-miterlimit="10" stroke-linecap="round" stroke-linejoin="round"/>
<path d="M53.9026 45.9587C52.3322 45.9587 51.0234 43.0729 51.0234 39.5311C51.0234 35.9894 52.3322 33.1035 53.9026 33.1035C54.557 33.1035 55.2114 33.7594 55.7348 34.6776" stroke="#1F1A54" stroke-width="0.8" stroke-miterlimit="10" stroke-linecap="round" stroke-linejoin="round"/>
<path d="M61.7549 45.9587C60.1845 45.9587 58.8757 43.0729 58.8757 39.5311C58.8757 35.9894 60.1845 33.1035 61.7549 33.1035C62.4093 33.1035 63.0637 33.7594 63.5871 34.6776" stroke="#1F1A54" stroke-width="0.8" stroke-miterlimit="10" stroke-linecap="round" stroke-linejoin="round"/>
<path d="M69.6072 45.9587C68.0368 45.9587 66.728 43.0729 66.728 39.5311C66.728 35.9894 68.0368 33.1035 69.6072 33.1035C70.2616 33.1035 70.916 33.7594 71.4394 34.6776" stroke="#1F1A54" stroke-width="0.8" stroke-miterlimit="10" stroke-linecap="round" stroke-linejoin="round"/>
<path d="M77.4598 45.9587C75.8893 45.9587 74.5806 43.0729 74.5806 39.5311C74.5806 35.9894 75.8893 33.1035 77.4598 33.1035C78.1141 33.1035 78.7685 33.7594 79.292 34.6776" stroke="#1F1A54" stroke-width="0.8" stroke-miterlimit="10" stroke-linecap="round" stroke-linejoin="round"/>
<path d="M85.3121 45.9587C83.7416 45.9587 82.4329 43.0729 82.4329 39.5311C82.4329 35.9894 83.7416 33.1035 85.3121 33.1035C85.9664 33.1035 86.6208 33.7594 87.1443 34.6776" stroke="#1F1A54" stroke-width="0.8" stroke-miterlimit="10" stroke-linecap="round" stroke-linejoin="round"/>
</g>
</g>
<defs>
<clipPath id="clip0">
<rect width="140" height="140" fill="white" transform="translate(0 0.447266)"/>
</clipPath>
<clipPath id="clip1">
<rect width="78" height="77" fill="white" transform="translate(31 32.4473)"/>
</clipPath>
</defs>
</svg>
