<svg width="375" height="275" viewBox="0 0 375 275" fill="none" xmlns="http://www.w3.org/2000/svg">
<g clip-path="url(#clip0)">
<path d="M387 234.09H-12V235.09H387V234.09Z" fill="url(#paint0_linear)"/>
<path d="M311.4 228.13L308.4 225.48C306.977 224.27 305.819 222.779 305 221.1C304.223 219.489 303.82 217.723 303.82 215.935C303.82 214.146 304.223 212.381 305 210.77C305.808 209.098 306.952 207.61 308.36 206.4L311.36 203.74L314.36 206.4C315.776 207.605 316.924 209.094 317.73 210.77C318.507 212.381 318.91 214.146 318.91 215.935C318.91 217.723 318.507 219.489 317.73 221.1C316.922 222.777 315.774 224.269 314.36 225.48L311.4 228.13Z" fill="#FFD400"/>
<path d="M311.4 215.67V234.08V215.67ZM311.4 232.43L317.5 227.08L311.4 232.43ZM311.4 228.08L308.4 225.43C306.982 224.234 305.825 222.761 305 221.1C304.223 219.489 303.82 217.723 303.82 215.935C303.82 214.146 304.223 212.381 305 210.77C305.808 209.098 306.952 207.61 308.36 206.4L311.36 203.74L314.36 206.4C315.776 207.605 316.924 209.094 317.73 210.77C318.507 212.381 318.91 214.146 318.91 215.935C318.91 217.723 318.507 219.489 317.73 221.1C316.922 222.777 315.774 224.269 314.36 225.48L311.4 228.08Z" stroke="#1F1A54" stroke-linecap="round" stroke-linejoin="round"/>
<path d="M90.47 227L86.86 223.85C85.1829 222.415 83.821 220.647 82.86 218.66C81.93 216.75 81.4466 214.654 81.4466 212.53C81.4466 210.406 81.93 208.31 82.86 206.4C83.821 204.413 85.1829 202.646 86.86 201.21L90.47 198.06L94.07 201.21C95.7471 202.646 97.109 204.413 98.07 206.4C98.9915 208.312 99.47 210.407 99.47 212.53C99.47 214.653 98.9915 216.748 98.07 218.66C97.109 220.647 95.7471 222.415 94.07 223.85L90.47 227Z" fill="#FFD400"/>
<path d="M90.47 212.23V234.08V212.23ZM90.47 232.08L97.71 225.73L90.47 232.08ZM90.47 227L86.86 223.85C85.1829 222.415 83.821 220.647 82.86 218.66C81.93 216.75 81.4466 214.654 81.4466 212.53C81.4466 210.406 81.93 208.31 82.86 206.4C83.821 204.413 85.1829 202.646 86.86 201.21L90.47 198.06L94.07 201.21C95.7471 202.646 97.109 204.413 98.07 206.4C98.9915 208.312 99.47 210.407 99.47 212.53C99.47 214.653 98.9915 216.748 98.07 218.66C97.109 220.647 95.7471 222.415 94.07 223.85L90.47 227Z" stroke="#1F1A54" stroke-linecap="round" stroke-linejoin="round"/>
<path d="M47.19 210.29L41.49 230.58C41.4805 230.623 41.4805 230.667 41.49 230.71C41.5018 230.754 41.5222 230.794 41.55 230.83C41.5787 230.862 41.6125 230.889 41.65 230.91C41.6929 230.919 41.7372 230.919 41.78 230.91H53.2H53.32C53.3597 230.893 53.3942 230.865 53.42 230.83C53.4293 230.794 53.4293 230.756 53.42 230.72C53.4298 230.677 53.4298 230.633 53.42 230.59L47.71 210.35C47.7112 210.314 47.7036 210.277 47.688 210.244C47.6723 210.211 47.649 210.182 47.62 210.16C47.5936 210.134 47.5623 210.114 47.528 210.1C47.4937 210.086 47.457 210.08 47.42 210.08C47.3461 210.083 47.2754 210.111 47.22 210.16C47.1944 210.185 47.1741 210.214 47.1604 210.247C47.1466 210.28 47.1397 210.315 47.14 210.35L47.19 210.29Z" fill="#FFD400"/>
<path d="M47.47 234.58C47.3382 234.577 47.2125 234.524 47.1193 234.43C47.0261 234.337 46.9726 234.211 46.97 234.08V231.45H41.77C41.6522 231.448 41.5362 231.421 41.43 231.37C41.3206 231.32 41.2246 231.244 41.15 231.15C41.073 231.053 41.0184 230.94 40.99 230.82C40.96 230.702 40.96 230.578 40.99 230.46L46.69 210.17C46.7308 210.044 46.8031 209.93 46.9 209.84C47.0491 209.704 47.2434 209.629 47.445 209.629C47.6466 209.629 47.8409 209.704 47.99 209.84C48.1199 209.96 48.2017 210.124 48.22 210.3L53.92 230.5C53.9501 230.618 53.9501 230.742 53.92 230.86C53.8966 230.975 53.8488 231.084 53.78 231.18C53.7036 231.268 53.6122 231.343 53.51 231.4C53.406 231.448 53.2944 231.479 53.18 231.49H48V234.12C47.9898 234.251 47.9284 234.372 47.8293 234.458C47.7301 234.544 47.6011 234.588 47.47 234.58ZM48 230.45H52.94L47.5 211.17L42.08 230.45H47V227.29C47 227.157 47.0527 227.03 47.1465 226.936C47.2402 226.842 47.3674 226.79 47.5 226.79C47.6326 226.79 47.7598 226.842 47.8536 226.936C47.9473 227.03 48 227.157 48 227.29V230.45Z" fill="#1F1A54"/>
<path d="M259 46.8899C258.851 45.1415 258.043 43.5152 256.74 42.3399C255.413 41.1507 253.692 40.4952 251.91 40.4999C250.996 40.4906 250.089 40.6605 249.24 40.9999C248.403 41.3313 247.641 41.8279 247 42.4599C246.355 43.0946 245.838 43.8485 245.48 44.6799C245.147 45.5124 244.983 46.4032 245 47.2999V48.2999H243.92C242.734 48.3359 241.606 48.818 240.76 49.6499C239.927 50.4631 239.44 51.5664 239.4 52.7299V57.4999H258.97C260.405 57.5027 261.784 56.9425 262.81 55.9399C263.321 55.4543 263.726 54.8688 264 54.2199C264.413 53.2455 264.521 52.169 264.311 51.1319C264.1 50.0949 263.58 49.1459 262.82 48.4099C261.793 47.4258 260.423 46.8805 259 46.8899V46.8899Z" stroke="#221E54" stroke-linecap="round" stroke-linejoin="round"/>
<path d="M303.08 70.9999C303.245 68.9535 304.19 67.0487 305.72 65.6799C307.266 64.2903 309.271 63.5211 311.35 63.5199C312.419 63.5103 313.479 63.7108 314.47 64.1099C315.455 64.4934 316.353 65.0716 317.11 65.8099C317.864 66.5549 318.468 67.4375 318.89 68.4099C319.289 69.3837 319.49 70.4275 319.48 71.4799V72.6799H320.74C322.124 72.7202 323.441 73.2808 324.43 74.2499C325.41 75.201 325.984 76.4949 326.03 77.8599V83.4199H303.13C301.451 83.4202 299.837 82.7675 298.63 81.5999C298.044 81.0319 297.578 80.3517 297.26 79.5999C296.937 78.8428 296.77 78.0281 296.77 77.2049C296.77 76.3816 296.937 75.567 297.26 74.8099C297.576 74.0569 298.042 73.3764 298.63 72.8099C299.823 71.6525 301.418 71.0035 303.08 70.9999Z" stroke="#221E54" stroke-linecap="round" stroke-linejoin="round"/>
<path d="M77 98.5396C76.8184 96.2837 75.7852 94.1815 74.11 92.6596C72.4394 91.1354 70.2615 90.2871 68 90.2796C66.8348 90.2637 65.6779 90.4791 64.5965 90.9134C63.5151 91.3477 62.5306 91.9922 61.7 92.8096C60.849 93.6237 60.1691 94.5994 59.7 95.6796C59.2586 96.7579 59.0408 97.9146 59.06 99.0796V100.4H57.67C56.1627 100.453 54.731 101.073 53.6599 102.135C52.5888 103.197 51.9569 104.623 51.89 106.13V112.28H76.89C78.7291 112.285 80.4964 111.567 81.81 110.28C82.4531 109.641 82.9635 108.882 83.3118 108.045C83.6601 107.208 83.8394 106.311 83.8394 105.405C83.8394 104.498 83.6601 103.601 83.3118 102.764C82.9635 101.928 82.4531 101.168 81.81 100.53C80.5221 99.2727 78.7995 98.56 77 98.5396V98.5396Z" stroke="#221E54" stroke-linecap="round" stroke-linejoin="round"/>
<path d="M285.56 173.33C283.199 173.309 280.842 173.112 278.51 172.74C278.445 172.73 278.383 172.708 278.327 172.674C278.271 172.64 278.223 172.595 278.185 172.541C278.146 172.488 278.119 172.428 278.105 172.364C278.09 172.3 278.089 172.234 278.1 172.17C278.122 172.04 278.194 171.923 278.3 171.845C278.407 171.767 278.539 171.733 278.67 171.75C280.949 172.114 283.252 172.308 285.56 172.33C285.693 172.33 285.82 172.383 285.914 172.476C286.007 172.57 286.06 172.697 286.06 172.83C286.06 172.963 286.007 173.09 285.914 173.183C285.82 173.277 285.693 173.33 285.56 173.33ZM292.51 172.73C292.395 172.73 292.283 172.69 292.194 172.617C292.104 172.544 292.043 172.443 292.02 172.33C291.996 172.199 292.025 172.064 292.1 171.953C292.175 171.843 292.289 171.767 292.42 171.74C294.676 171.325 296.873 170.633 298.96 169.68C299.081 169.626 299.218 169.622 299.342 169.669C299.465 169.715 299.565 169.809 299.62 169.93C299.648 169.989 299.665 170.053 299.668 170.118C299.671 170.184 299.662 170.249 299.639 170.311C299.617 170.372 299.582 170.429 299.538 170.477C299.493 170.525 299.44 170.563 299.38 170.59C297.217 171.573 294.944 172.291 292.61 172.73H292.51ZM271.76 171.23H271.62C269.337 170.56 267.12 169.68 265 168.6C264.882 168.539 264.793 168.434 264.753 168.307C264.712 168.18 264.724 168.043 264.785 167.925C264.846 167.807 264.951 167.718 265.078 167.678C265.205 167.637 265.342 167.649 265.46 167.71C267.512 168.757 269.658 169.608 271.87 170.25C271.995 170.289 272.1 170.376 272.162 170.492C272.224 170.608 272.238 170.744 272.2 170.87C272.173 170.968 272.116 171.056 272.038 171.12C271.959 171.185 271.862 171.223 271.76 171.23ZM305.05 166.89C304.978 166.889 304.908 166.874 304.842 166.845C304.777 166.815 304.718 166.773 304.67 166.72C304.585 166.617 304.544 166.485 304.555 166.353C304.567 166.22 304.629 166.097 304.73 166.01C306.468 164.521 307.996 162.801 309.27 160.9C309.345 160.79 309.461 160.713 309.591 160.687C309.722 160.661 309.858 160.687 309.97 160.76C310.025 160.797 310.072 160.845 310.108 160.9C310.144 160.956 310.169 161.018 310.181 161.083C310.193 161.148 310.193 161.215 310.179 161.28C310.165 161.344 310.138 161.406 310.1 161.46C308.773 163.438 307.182 165.224 305.37 166.77C305.282 166.849 305.168 166.892 305.05 166.89ZM259.51 164.72C259.449 164.721 259.389 164.71 259.332 164.688C259.275 164.666 259.224 164.632 259.18 164.59C258.64 164.1 258.13 163.59 257.65 163.07C256.125 163.613 254.551 164.008 252.95 164.25C252.817 164.271 252.682 164.239 252.573 164.16C252.464 164.081 252.391 163.963 252.37 163.83C252.349 163.697 252.381 163.562 252.46 163.453C252.539 163.344 252.657 163.271 252.79 163.25C254.204 163.041 255.596 162.706 256.95 162.25C256.114 161.239 255.38 160.147 254.76 158.99C254.729 158.933 254.709 158.87 254.702 158.806C254.695 158.741 254.701 158.675 254.719 158.613C254.738 158.551 254.769 158.493 254.81 158.442C254.852 158.392 254.902 158.35 254.96 158.32C255.077 158.259 255.214 158.245 255.34 158.283C255.467 158.32 255.575 158.405 255.64 158.52C256.284 159.724 257.059 160.854 257.95 161.89C258.42 161.7 258.88 161.5 259.33 161.28C259.451 161.223 259.589 161.216 259.715 161.261C259.84 161.306 259.943 161.399 260 161.52C260.057 161.641 260.064 161.779 260.019 161.905C259.974 162.03 259.881 162.133 259.76 162.19L258.66 162.68C259.03 163.08 259.43 163.47 259.85 163.85C259.897 163.896 259.934 163.95 259.959 164.01C259.984 164.07 259.997 164.135 259.997 164.2C259.997 164.265 259.984 164.33 259.959 164.39C259.934 164.45 259.897 164.504 259.85 164.55C259.808 164.6 259.756 164.641 259.698 164.67C259.639 164.699 259.575 164.716 259.51 164.72ZM245.89 164.52C243.534 164.369 241.194 164.035 238.89 163.52C238.824 163.506 238.762 163.478 238.707 163.44C238.652 163.401 238.605 163.352 238.569 163.296C238.532 163.239 238.508 163.176 238.496 163.11C238.484 163.043 238.486 162.976 238.5 162.91C238.514 162.844 238.542 162.782 238.58 162.727C238.619 162.672 238.668 162.625 238.724 162.589C238.781 162.552 238.844 162.528 238.91 162.516C238.976 162.504 239.044 162.506 239.11 162.52C241.36 163.034 243.647 163.369 245.95 163.52C246.083 163.52 246.21 163.573 246.304 163.666C246.397 163.76 246.45 163.887 246.45 164.02C246.45 164.153 246.397 164.28 246.304 164.374C246.21 164.467 246.083 164.52 245.95 164.52H245.89ZM265.28 158.27C265.18 158.269 265.082 158.237 265 158.18C264.917 158.122 264.854 158.041 264.819 157.947C264.783 157.853 264.777 157.751 264.8 157.653C264.823 157.556 264.876 157.467 264.95 157.4C266.672 155.892 268.165 154.14 269.38 152.2C269.415 152.144 269.46 152.096 269.514 152.057C269.567 152.019 269.628 151.992 269.692 151.977C269.756 151.962 269.822 151.96 269.887 151.971C269.952 151.981 270.014 152.005 270.07 152.04C270.126 152.074 270.174 152.118 270.212 152.171C270.25 152.223 270.278 152.283 270.292 152.346C270.307 152.41 270.309 152.475 270.299 152.539C270.288 152.604 270.265 152.665 270.23 152.72C268.966 154.742 267.413 156.568 265.62 158.14C265.527 158.224 265.406 158.271 265.28 158.27ZM312.79 155.42C312.737 155.429 312.683 155.429 312.63 155.42C312.505 155.375 312.403 155.282 312.345 155.163C312.287 155.043 312.278 154.906 312.32 154.78C312.968 152.977 313.329 151.084 313.39 149.17C313.393 148.835 313.369 148.501 313.32 148.17C313.31 148.104 313.313 148.037 313.329 147.973C313.345 147.908 313.374 147.848 313.413 147.794C313.453 147.741 313.502 147.696 313.559 147.662C313.616 147.627 313.679 147.605 313.745 147.595C313.811 147.585 313.878 147.588 313.942 147.604C314.006 147.62 314.067 147.649 314.121 147.688C314.174 147.728 314.219 147.777 314.253 147.834C314.287 147.891 314.31 147.954 314.32 148.02C314.374 148.411 314.401 148.805 314.4 149.2C314.338 151.223 313.96 153.224 313.28 155.13C313.238 155.222 313.168 155.3 313.08 155.352C312.993 155.403 312.891 155.427 312.79 155.42ZM253.12 152.62C252.997 152.62 252.878 152.574 252.787 152.491C252.696 152.407 252.64 152.293 252.63 152.17C252.549 151.506 252.513 150.838 252.52 150.17C252.514 148.444 252.76 146.725 253.25 145.07C253.267 145.006 253.297 144.947 253.338 144.895C253.379 144.843 253.43 144.8 253.488 144.768C253.545 144.736 253.609 144.716 253.675 144.71C253.741 144.703 253.807 144.71 253.87 144.73C253.996 144.769 254.101 144.856 254.165 144.971C254.228 145.087 254.244 145.223 254.21 145.35C253.749 146.915 253.516 148.538 253.52 150.17C253.513 150.808 253.547 151.446 253.62 152.08C253.634 152.212 253.596 152.345 253.514 152.449C253.432 152.554 253.312 152.622 253.18 152.64L253.12 152.62ZM271.94 146.38C271.874 146.377 271.81 146.362 271.75 146.334C271.69 146.307 271.637 146.268 271.592 146.219C271.548 146.171 271.513 146.115 271.49 146.053C271.468 145.991 271.457 145.926 271.46 145.86V145.53C271.486 143.413 270.736 141.36 269.35 139.76C269.258 139.665 269.206 139.537 269.206 139.405C269.206 139.272 269.258 139.145 269.35 139.05C269.396 139.003 269.452 138.966 269.513 138.941C269.574 138.915 269.639 138.902 269.705 138.902C269.771 138.902 269.836 138.915 269.897 138.941C269.958 138.966 270.014 139.003 270.06 139.05C271.609 140.835 272.448 143.127 272.42 145.49V145.85C272.425 145.984 272.378 146.114 272.288 146.213C272.199 146.312 272.074 146.372 271.94 146.38ZM257.2 139.7C257.064 139.696 256.934 139.638 256.84 139.54C256.793 139.494 256.756 139.44 256.731 139.38C256.706 139.32 256.693 139.255 256.693 139.19C256.693 139.125 256.706 139.06 256.731 139C256.756 138.94 256.793 138.886 256.84 138.84C257.673 137.993 258.661 137.314 259.75 136.84C260.922 136.349 262.179 136.094 263.45 136.09C263.586 136.087 263.718 136.138 263.817 136.232C263.916 136.325 263.975 136.454 263.98 136.59C263.983 136.655 263.972 136.719 263.949 136.78C263.926 136.84 263.892 136.896 263.847 136.942C263.802 136.989 263.748 137.026 263.688 137.052C263.629 137.077 263.565 137.09 263.5 137.09C262.343 137.091 261.197 137.322 260.13 137.77C259.159 138.177 258.277 138.768 257.53 139.51C257.492 139.563 257.443 139.608 257.386 139.641C257.329 139.673 257.265 139.694 257.2 139.7Z" fill="#FED401"/>
<path d="M156 73.7001C155.883 73.7735 155.75 73.8173 155.612 73.8278C155.475 73.8382 155.337 73.815 155.21 73.7601C155.081 73.7132 154.966 73.6346 154.875 73.5315C154.784 73.4284 154.72 73.3041 154.69 73.1701C154.59 72.8394 154.615 72.4836 154.76 72.1701C154.883 71.858 155.124 71.6066 155.43 71.4701C156.743 70.8172 158.116 70.2915 159.53 69.9001C160.96 69.4376 162.5 69.4376 163.93 69.9001C164.468 70.0865 164.95 70.4048 165.332 70.8259C165.715 71.2469 165.986 71.7572 166.12 72.3101C166.256 72.7877 166.313 73.2841 166.29 73.7801C166.27 74.2351 166.147 74.6797 165.93 75.0801C165.75 75.4248 165.549 75.7587 165.33 76.0801C165.15 76.3301 164.89 76.6601 164.53 77.0801C164.17 77.5001 163.85 77.9001 163.66 78.1501C163.443 78.4657 163.256 78.8004 163.1 79.1501C162.916 79.5636 162.811 80.0079 162.79 80.4601C162.778 80.8137 162.674 81.1581 162.49 81.4601C162.316 81.7559 162.032 81.9714 161.7 82.0601C161.533 82.1095 161.357 82.1226 161.185 82.0984C161.012 82.0743 160.847 82.0135 160.7 81.9201C160.557 81.8382 160.437 81.7223 160.35 81.5828C160.263 81.4432 160.211 81.2843 160.2 81.1201C160.171 80.6643 160.205 80.2067 160.3 79.7601C160.405 79.3308 160.573 78.9195 160.8 78.5401C160.985 78.2154 161.189 77.9015 161.41 77.6001C161.58 77.3701 161.83 77.0501 162.17 76.6501C162.51 76.2501 162.87 75.8001 163.06 75.5301C163.262 75.2201 163.42 74.8836 163.53 74.5301C163.65 74.1051 163.65 73.6551 163.53 73.2301C163.18 71.9001 161.9 71.5201 159.71 72.1101C158.412 72.4843 157.166 73.0184 156 73.7001ZM162.15 84.0501H162.29C162.457 84.0013 162.633 83.9886 162.805 84.0128C162.977 84.0369 163.143 84.0973 163.29 84.1901C163.445 84.2723 163.581 84.3859 163.689 84.5236C163.798 84.6614 163.876 84.8203 163.92 84.9901L164.02 85.3501C164.106 85.6933 164.055 86.0566 163.878 86.3628C163.7 86.669 163.411 86.8941 163.07 86.9901L163 87.0001C162.661 87.0867 162.302 87.0364 162 86.8601C161.844 86.7763 161.708 86.661 161.6 86.5216C161.491 86.3821 161.413 86.2215 161.37 86.0501L161.27 85.6901C161.183 85.3513 161.234 84.9921 161.41 84.6901C161.567 84.3872 161.836 84.1576 162.16 84.0501H162.15Z" fill="#1F1A54"/>
<path d="M176.69 80.71C176.554 80.7272 176.416 80.7116 176.287 80.6647C176.159 80.6177 176.043 80.5407 175.95 80.44C175.851 80.3427 175.779 80.2217 175.741 80.0886C175.702 79.9556 175.699 79.8149 175.73 79.68C175.784 79.351 175.95 79.0508 176.2 78.83C176.447 78.5995 176.772 78.4709 177.11 78.47C178.573 78.4393 180.037 78.5464 181.48 78.79C182.971 78.9617 184.371 79.5984 185.48 80.61C185.894 81.0032 186.202 81.4941 186.377 82.0374C186.551 82.5808 186.587 83.1593 186.48 83.72C186.403 84.2115 186.247 84.6875 186.02 85.13C185.803 85.5237 185.503 85.8651 185.14 86.13C184.819 86.3646 184.485 86.5815 184.14 86.78C183.87 86.94 183.49 87.13 182.99 87.36C182.49 87.59 181.99 87.81 181.75 87.96C181.412 88.1583 181.093 88.3895 180.8 88.65C180.458 88.9464 180.176 89.3064 179.97 89.71C179.81 90.0361 179.565 90.3127 179.26 90.51C179.116 90.6102 178.953 90.6804 178.781 90.7165C178.61 90.7526 178.432 90.7537 178.26 90.72C178.093 90.6935 177.933 90.6316 177.792 90.5385C177.65 90.4453 177.53 90.3231 177.44 90.18C177.347 90.0457 177.289 89.8907 177.269 89.7286C177.25 89.5665 177.271 89.4022 177.33 89.25C177.496 88.8286 177.718 88.4316 177.99 88.07C178.272 87.7147 178.61 87.4074 178.99 87.16C179.37 86.9 179.69 86.71 179.94 86.57C180.19 86.43 180.56 86.25 181.03 86.03C181.5 85.81 182.03 85.55 182.31 85.39C182.639 85.1887 182.933 84.9354 183.18 84.64C183.474 84.3071 183.668 83.8981 183.74 83.46C183.98 82.11 182.99 81.23 180.74 80.84C179.401 80.6232 178.04 80.5795 176.69 80.71ZM177.89 92.71H178.03C178.376 92.7781 178.682 92.9777 178.883 93.2668C179.085 93.556 179.166 93.912 179.11 94.26L179.05 94.63C179.019 94.802 178.953 94.966 178.857 95.112C178.76 95.2581 178.636 95.3832 178.49 95.48C178.349 95.5874 178.187 95.6636 178.015 95.7033C177.842 95.7429 177.663 95.7452 177.49 95.71H177.35C177.176 95.681 177.009 95.6163 176.861 95.5199C176.713 95.4235 176.587 95.2976 176.49 95.15C176.387 95.0071 176.313 94.845 176.274 94.6732C176.234 94.5015 176.23 94.3236 176.26 94.15L176.33 93.78C176.359 93.6069 176.423 93.4415 176.517 93.2937C176.612 93.1459 176.735 93.0188 176.88 92.92C177.024 92.816 177.188 92.7421 177.362 92.7026C177.535 92.6631 177.715 92.6588 177.89 92.69V92.71Z" fill="#1F1A54"/>
<path d="M174 107.19C182.54 110.77 176.12 123.36 176.12 123.36" stroke="#221E54" stroke-linecap="round" stroke-linejoin="round"/>
<path d="M166.35 121.37C166.35 121.37 166.35 107.74 156.78 110.97" stroke="#221E54" stroke-linecap="round" stroke-linejoin="round"/>
<path d="M155.78 162.53C151.903 165.783 146.906 167.387 141.86 167" stroke="#221E54" stroke-linecap="round" stroke-linejoin="round"/>
<path d="M224.285 125.211C228.623 120.771 228.542 113.656 224.103 109.32C219.664 104.984 212.55 105.069 208.212 109.51L200.784 117.113C196.446 121.554 196.528 128.669 200.966 133.005C205.405 137.341 212.519 137.256 216.857 132.815L224.285 125.211Z" stroke="#221E54" stroke-linecap="round" stroke-linejoin="round"/>
<path d="M209.931 112.076C210.52 105.896 205.99 100.41 199.813 99.8215C193.636 99.2332 188.151 103.766 187.563 109.946L186.555 120.528C185.966 126.708 190.497 132.194 196.674 132.782C202.851 133.371 208.335 128.838 208.924 122.658L209.931 112.076Z" fill="white" stroke="#221E54" stroke-linecap="round" stroke-linejoin="round"/>
<path d="M211.91 125.55C218.91 127.084 225.015 131.336 228.88 137.371C232.745 143.406 234.054 150.729 232.52 157.73C230.986 164.73 226.733 170.834 220.698 174.7C214.664 178.565 207.34 179.874 200.34 178.34L196.63 177.52C205.78 169.05 211.63 156.23 211.63 141.88C211.642 136.092 210.671 130.343 208.76 124.88L211.91 125.55Z" fill="#FFD400"/>
<path d="M208.74 124.86C210.651 130.323 211.622 136.072 211.61 141.86C211.61 156.21 205.78 169.03 196.61 177.5L176.68 173.14V173.01C186.5 165.57 192.96 153.01 192.96 138.67C192.975 132.446 191.712 126.286 189.25 120.57L208.7 124.83L208.74 124.86Z" fill="#1F1A54"/>
<path d="M189.29 120.59C191.752 126.306 193.015 132.466 193 138.69C193 152.99 186.54 165.59 176.72 173.03V173.16L169.12 171.49C162.12 169.958 156.014 165.708 152.147 159.675C148.28 153.642 146.968 146.32 148.5 139.32C150.032 132.319 154.281 126.214 160.314 122.347C166.347 118.48 173.67 117.168 180.67 118.7L189.29 120.59Z" fill="#FFD400"/>
<path d="M232.51 157.73C231.557 162.06 229.552 166.088 226.672 169.46C223.793 172.831 220.127 175.441 216 177.06C222.609 169.574 226.434 160.038 226.83 150.06C227.133 143.706 226.062 137.362 223.69 131.46C227.397 134.633 230.174 138.751 231.727 143.377C233.28 148.003 233.551 152.963 232.51 157.73Z" fill="#1F1A54"/>
<path d="M159.53 141.84C161.314 141.84 162.76 140.394 162.76 138.61C162.76 136.826 161.314 135.38 159.53 135.38C157.746 135.38 156.3 136.826 156.3 138.61C156.3 140.394 157.746 141.84 159.53 141.84Z" fill="#1F1A54"/>
<path d="M160.02 139.47C160.672 139.47 161.2 138.942 161.2 138.29C161.2 137.638 160.672 137.11 160.02 137.11C159.368 137.11 158.84 137.638 158.84 138.29C158.84 138.942 159.368 139.47 160.02 139.47Z" fill="white"/>
<path d="M176.1 145.12C177.884 145.12 179.33 143.674 179.33 141.89C179.33 140.106 177.884 138.66 176.1 138.66C174.316 138.66 172.87 140.106 172.87 141.89C172.87 143.674 174.316 145.12 176.1 145.12Z" fill="#1F1A54"/>
<path d="M176.59 142.76C177.242 142.76 177.77 142.232 177.77 141.58C177.77 140.928 177.242 140.4 176.59 140.4C175.938 140.4 175.41 140.928 175.41 141.58C175.41 142.232 175.938 142.76 176.59 142.76Z" fill="white"/>
<path d="M162.67 147C163.859 146.781 165.079 146.801 166.26 147.06C167.173 147.18 168.042 147.523 168.79 148.06" stroke="#221E54" stroke-miterlimit="10" stroke-linecap="round"/>
<path d="M173.26 168.55C171.33 174.197 167.297 178.882 162 181.63" stroke="#221E54" stroke-linecap="round" stroke-linejoin="round"/>
<path d="M147.43 173.88L124.85 139.1L120.92 136.33L121.7 141.14L144.28 175.92C144.555 176.333 144.982 176.622 145.468 176.725C145.954 176.828 146.461 176.736 146.88 176.47C147.272 176.18 147.544 175.756 147.645 175.279C147.746 174.802 147.67 174.305 147.43 173.88Z" fill="#1F1A54" stroke="#1F1A54" stroke-width="0.8" stroke-linecap="round" stroke-linejoin="round"/>
<path d="M128.339 162.513C137.212 162.138 144.101 154.642 143.726 145.769C143.351 136.896 135.854 130.007 126.981 130.382C118.108 130.757 111.22 138.254 111.595 147.127C111.97 156 119.466 162.888 128.339 162.513Z" fill="#FFD400" stroke="#1F1A54"/>
<path d="M127.66 158.1C134.094 158.1 139.31 152.884 139.31 146.45C139.31 140.016 134.094 134.8 127.66 134.8C121.226 134.8 116.01 140.016 116.01 146.45C116.01 152.884 121.226 158.1 127.66 158.1Z" fill="white" stroke="#1F1A54"/>
<path d="M134.49 144.23C134.2 143.332 133.735 142.5 133.123 141.782C132.511 141.065 131.763 140.475 130.922 140.046C130.081 139.618 129.164 139.36 128.223 139.287C127.283 139.214 126.337 139.327 125.44 139.62" stroke="#1F1A54" stroke-linecap="round"/>
</g>
<defs>
<linearGradient id="paint0_linear" x1="375" y1="234.6" x2="-1.50001" y2="234.6" gradientUnits="userSpaceOnUse">
<stop stop-color="#1F1A54" stop-opacity="0"/>
<stop offset="0.09" stop-color="#1F1A54"/>
<stop offset="0.5" stop-color="#1F1A54"/>
<stop offset="0.89" stop-color="#1F1A54"/>
<stop offset="1" stop-color="#1F1A54" stop-opacity="0"/>
</linearGradient>
<clipPath id="clip0">
<rect width="399" height="195.09" fill="white" transform="translate(-12 40)"/>
</clipPath>
</defs>
</svg>
