<svg width="375" height="300" viewBox="0 0 375 300" fill="none" xmlns="http://www.w3.org/2000/svg">
<path d="M233.803 122.15L207.478 113.32V65.7695L233.803 74.5995V122.15Z" fill="white" stroke="#1F1A54" stroke-width="0.8" stroke-linecap="round" stroke-linejoin="round"/>
<path d="M260.1 113.32L233.766 122.15V74.5995L260.1 65.7695V113.32Z" fill="white" stroke="#1F1A54" stroke-width="0.8" stroke-linecap="round" stroke-linejoin="round"/>
<path d="M286.425 122.15L260.1 113.32V65.7695L286.425 74.5995V122.15Z" fill="white" stroke="#1F1A54" stroke-width="0.8" stroke-linecap="round" stroke-linejoin="round"/>
<path d="M118.256 181L107.006 210L93.8813 254.58L79.9501 250.58C79.9501 250.58 95.3157 186.58 98.7001 165.01C101.747 145.5 106.106 128.93 106.106 128.93" stroke="#1F1A54" stroke-width="0.8" stroke-linecap="round" stroke-linejoin="round"/>
<path d="M108.141 155.86L115.078 170.53L127.688 207.25L157.2 244.73L168.141 233.94L142.969 199.58C142.969 199.58 139.106 171.7 140.353 164.71C143.259 148.38 139.134 134.43 133.2 127.64" stroke="#1F1A54" stroke-width="0.8" stroke-linecap="round" stroke-linejoin="round"/>
<path d="M117.272 68.0498C119.713 67.3563 122.278 67.3243 124.734 67.9564C127.19 68.5886 129.458 69.865 131.334 71.6697L147.272 90.9797L138.891 101L135.075 97.9398C134.897 99.9398 134.681 102.01 134.466 104.05L134.409 104.56C133.564 112.229 133.185 119.948 133.275 127.67C133.275 127.67 130.35 129.92 118.866 130.92C109.8 131.71 106.088 128.92 106.088 128.92C106.294 127.72 104.466 114.92 104.4 114.5C107.986 110.14 111.269 105.508 114.225 100.64L99.4313 95.2697C101.3 89.1586 103.623 83.2164 106.378 77.4998C107.981 74.3898 109.706 71.7998 111.394 70.6798C111.806 70.4098 112.238 70.1398 112.678 69.8998C114.129 69.0764 115.673 68.4547 117.272 68.0498Z" fill="#FFD400"/>
<path d="M163.697 155.94C163.491 158.56 161.981 159.31 161.288 159.12C160.594 158.93 161.006 156.53 160.922 154.48C160.725 149.48 161.363 141.23 160.05 137.19C157.144 128.19 152.109 121.4 149.363 114.49C148.117 112.115 146.691 109.854 145.097 107.73C143.267 105.249 141.186 102.992 138.891 101L147.244 90.9995L154.463 100.41L156.263 102.76C162.422 109.84 165.91 126.76 168.319 132.07C168.319 132.07 171.666 139.69 173.803 142.68C173.803 142.68 177.131 146.55 177.722 149.6L167.241 156.6C166.09 155.298 165.141 153.809 164.428 152.19C163.538 149.92 163.913 153.27 163.697 155.94Z" fill="white"/>
<path d="M111.394 70.6797C109.706 71.7997 107.981 74.3897 106.378 77.4997C99.9938 67.9997 98.5876 40.9997 104.484 34.8697C111.797 27.2597 125.531 23.9297 130.078 32.3097C131.204 32.6867 132.23 33.344 133.071 34.2272C133.913 35.1105 134.545 36.1945 134.916 37.3897C135.853 40.6597 141.028 58.1297 149.372 71.6697C155.953 82.4297 166.266 89.7797 166.266 92.0997C166.266 98.6497 151.266 84.6497 154.453 100.4L147.244 90.9997L131.306 71.6897C130.031 70.4754 128.577 69.4924 127.003 68.7797V58.1397C130.753 57.5597 133.566 55.5297 134.278 51.7497C135.113 47.1797 132.038 43.9097 129.309 45.1197C127.83 45.8232 126.638 47.0733 125.953 48.6397C123.771 46.3164 121.29 44.3365 118.584 42.7597C115.975 41.0453 113.832 38.6319 112.369 35.7597C112.369 35.7597 108.619 40.5797 106.144 41.4097C105.816 45.7079 105.776 50.0254 106.022 54.3297C106.434 59.1997 108.056 62.4397 110.344 64.3297C111.043 64.9133 111.816 65.3881 112.641 65.7397V69.8997C112.238 70.1397 111.806 70.4097 111.394 70.6797Z" fill="#1F1A54"/>
<path d="M138.891 101C141.184 103.002 143.262 105.269 145.088 107.76C137.297 108.2 134.391 104.53 134.391 104.53L134.447 104.02C134.663 102.02 134.878 99.9297 135.056 97.9097L138.891 101Z" fill="#1F1A54"/>
<path d="M116.344 48.8997C116.379 48.7346 116.457 48.5835 116.57 48.4637C116.682 48.3439 116.823 48.2603 116.978 48.2225C117.133 48.1846 117.294 48.1941 117.444 48.2498C117.594 48.3056 117.726 48.4053 117.825 48.5375C117.925 48.6697 117.987 48.8291 118.005 48.9973C118.023 49.1655 117.996 49.3357 117.927 49.4884C117.859 49.6412 117.751 49.7701 117.617 49.8606C117.483 49.951 117.328 49.9992 117.169 49.9997C116.923 49.9695 116.698 49.837 116.544 49.631C116.389 49.4249 116.317 49.1621 116.344 48.8997Z" fill="#1F1A54"/>
<path d="M109.697 47.9295C109.479 47.8753 109.251 47.8952 109.045 47.9864C108.838 48.0776 108.664 48.2355 108.546 48.4379C108.428 48.6404 108.373 48.8771 108.387 49.115C108.402 49.3528 108.487 49.5797 108.628 49.7637C108.77 49.9478 108.963 50.0798 109.179 50.1412C109.395 50.2025 109.623 50.1902 109.832 50.1058C110.041 50.0215 110.22 49.8694 110.344 49.671C110.468 49.4725 110.53 49.2377 110.522 48.9995C110.541 48.742 110.465 48.4869 110.311 48.2874C110.158 48.088 109.937 47.9597 109.697 47.9295ZM117.197 47.7895C116.981 47.7334 116.754 47.7504 116.548 47.8382C116.341 47.926 116.166 48.0802 116.046 48.2794C115.925 48.4786 115.866 48.7129 115.876 48.9496C115.886 49.1863 115.966 49.4138 116.103 49.6003C116.24 49.7868 116.428 49.9232 116.641 49.9903C116.854 50.0575 117.081 50.0521 117.291 49.9751C117.502 49.898 117.684 49.753 117.813 49.5602C117.942 49.3674 118.012 49.1365 118.013 48.8995C118.027 48.7673 118.016 48.6333 117.981 48.5056C117.946 48.3778 117.888 48.2587 117.809 48.1553C117.731 48.0519 117.634 47.9663 117.524 47.9035C117.414 47.8407 117.293 47.8019 117.169 47.7895H117.197ZM129.384 45.1195C132.113 43.9095 135.188 47.1795 134.353 51.7495C133.669 55.5295 130.828 57.5595 127.078 58.1395V68.7595C123.983 67.4157 120.566 67.1669 117.328 68.0495C115.729 68.4544 114.185 69.0762 112.734 69.8995V65.7095C111.91 65.3579 111.137 64.8831 110.438 64.2995C108.15 62.4395 106.528 59.1995 106.116 54.2995C105.87 49.9952 105.91 45.6777 106.238 41.3795C108.675 40.5495 112.463 35.7295 112.463 35.7295C113.926 38.6017 116.069 41.0151 118.678 42.7295C121.352 44.3235 123.802 46.3132 125.953 48.6395C126.642 47.0696 127.841 45.8191 129.328 45.1195H129.384Z" fill="white"/>
<path d="M109.697 47.9297C109.914 47.8733 110.143 47.8912 110.35 47.9807C110.558 48.0702 110.734 48.2269 110.853 48.4287C110.973 48.6305 111.03 48.8672 111.016 49.1054C111.003 49.3437 110.92 49.5715 110.779 49.7566C110.638 49.9418 110.445 50.0751 110.229 50.1376C110.014 50.2002 109.785 50.1888 109.575 50.1052C109.365 50.0216 109.186 49.87 109.061 49.6716C108.937 49.4733 108.874 49.2383 108.881 48.9997C108.862 48.7438 108.937 48.49 109.089 48.2908C109.24 48.0916 109.458 47.9623 109.697 47.9297Z" fill="#1F1A54"/>
<path d="M48.3001 82.8097C48.1594 82.5818 48.0716 82.3214 48.0439 82.0502C48.0162 81.7789 48.0494 81.5045 48.1407 81.2497C48.3938 80.3797 49.6219 80.0597 49.6219 80.0597C49.4408 79.8559 49.308 79.6089 49.2346 79.3393C49.1612 79.0696 49.1494 78.7852 49.2001 78.5097C49.3688 77.7097 50.2501 76.9897 51.9282 77.1597C53.8741 77.5284 55.7656 78.1706 57.5532 79.0697C60.3657 80.6897 59.0813 70.1797 61.8188 70.2297C63.6376 70.2297 62.7563 78.0397 65.5032 83.2297C66.6586 85.0604 68.0758 86.6868 69.7032 88.0497C73.8282 92.2897 90.5907 103.5 93.5251 106.9C93.3751 107.58 99.4595 95.2697 99.4595 95.2697L114.244 100.64C111.277 105.485 107.984 110.093 104.391 114.43C100.463 119.04 96.1313 122.89 92.9626 122.32C84.0094 120.73 66.8907 97.3997 61.9782 94.8097C61.9782 94.8097 59.0344 93.6497 55.6313 92.6697C55.6407 92.6697 46.8001 90.9997 47.6532 86.9997C47.8501 86.0897 48.0094 86.0797 48.0376 86.0897C47.8225 85.8369 47.6717 85.5295 47.5995 85.1969C47.5273 84.8644 47.5361 84.5176 47.6251 84.1897C47.7323 83.6743 47.9652 83.1983 48.3001 82.8097Z" fill="white"/>
<path d="M50.1751 83.8596C49.4572 83.7793 48.791 83.424 48.3001 82.8596C48.1517 82.6258 48.0595 82.3566 48.0317 82.0758C48.0039 81.795 48.0414 81.5113 48.1407 81.2496C48.3939 80.3796 49.622 80.0596 49.622 80.0596" stroke="#1F1A54" stroke-width="0.8" stroke-linecap="round" stroke-linejoin="round"/>
<path d="M51.1032 81.1197C50.5545 80.879 50.0594 80.5178 49.6501 80.0597C49.469 79.8559 49.3362 79.6089 49.2628 79.3393C49.1894 79.0696 49.1775 78.7852 49.2282 78.5097C49.397 77.7097 50.2782 76.9897 51.9563 77.1597C53.9022 77.5284 55.7937 78.1706 57.5813 79.0697C60.3938 80.6897 59.1095 70.1797 61.847 70.2297C63.6657 70.2297 62.7845 78.0397 65.5313 83.2297C66.6782 85.0582 68.0858 86.6845 69.7032 88.0497C73.8282 92.2897 90.5907 103.5 93.5251 106.9C93.3751 107.58 99.4595 95.2697 99.4595 95.2697L114.244 100.64C111.277 105.485 107.984 110.093 104.391 114.43C100.463 119.04 96.1313 122.89 92.9626 122.32C84.0095 120.73 66.8907 97.3997 61.9782 94.8097C61.9782 94.8097 59.0345 93.6497 55.6313 92.6697C55.6407 92.6697 46.8001 90.9997 47.6532 86.9997C47.8501 86.0897 48.0095 86.0797 48.0376 86.0897" stroke="#1F1A54" stroke-width="0.8" stroke-linecap="round" stroke-linejoin="round"/>
<path d="M49.8001 87.1796C49.1304 86.9973 48.5247 86.6117 48.0564 86.0696C47.8413 85.8167 47.6905 85.5094 47.6183 85.1768C47.5461 84.8443 47.5549 84.4975 47.6439 84.1696C47.7488 83.6634 47.9749 83.1948 48.3001 82.8096" stroke="#1F1A54" stroke-width="0.8" stroke-linecap="round" stroke-linejoin="round"/>
<path d="M114.216 100.64L118.838 93.8799" stroke="#1F1A54" stroke-width="0.8" stroke-linecap="round" stroke-linejoin="round"/>
<path d="M104.391 114.42C104.456 114.88 106.266 127.64 106.078 128.84C106.078 128.84 109.828 131.67 118.856 130.84C130.341 129.84 133.266 127.59 133.266 127.59C133.174 119.885 133.55 112.182 134.391 104.53L134.447 104.02C134.663 102.02 134.878 99.9296 135.056 97.9096C135.469 93.4696 135.769 89.1496 135.769 85.2896C135.773 84.2878 135.73 83.2865 135.638 82.2896" stroke="#1F1A54" stroke-width="0.8" stroke-linecap="round" stroke-linejoin="round"/>
<path d="M145.097 107.73C146.7 109.853 148.136 112.114 149.391 114.49C152.138 121.4 157.172 128.2 160.078 137.19C161.391 141.19 160.753 149.46 160.95 154.48C161.034 156.48 160.584 158.92 161.316 159.12C162.047 159.32 163.519 158.56 163.725 155.94C163.931 153.32 163.566 149.94 164.494 152.17C165.206 153.79 166.155 155.278 167.306 156.58L177.788 149.58C177.197 146.58 173.869 142.66 173.869 142.66C171.731 139.66 168.384 132.05 168.384 132.05C165.975 126.79 162.488 109.82 156.328 102.74" stroke="#1F1A54" stroke-width="0.8" stroke-linecap="round" stroke-linejoin="round"/>
<path d="M138.891 101C141.184 103.002 143.262 105.269 145.088 107.76" stroke="#1F1A54" stroke-width="0.8" stroke-linecap="round" stroke-linejoin="round"/>
<path d="M156.263 102.75L154.453 100.4L147.244 90.9897" stroke="#1F1A54" stroke-width="0.8" stroke-linecap="round" stroke-linejoin="round"/>
<path d="M106.181 41.4097C105.854 45.7078 105.813 50.0254 106.059 54.3297C106.472 59.1997 108.094 62.4397 110.381 64.3297C111.08 64.9133 111.854 65.388 112.678 65.7397C113.994 66.2867 115.429 66.4186 116.813 66.1197L117.15 66.0497C118.797 65.6827 120.316 64.8344 121.538 63.5997" stroke="#1F1A54" stroke-width="0.8" stroke-linecap="round" stroke-linejoin="round"/>
<path d="M118.622 45.5997C118.139 45.2777 117.579 45.111 117.009 45.1197C116.396 45.1073 115.795 45.3034 115.294 45.6797" stroke="#1F1A54" stroke-width="0.8" stroke-linecap="round" stroke-linejoin="round"/>
<path d="M111.516 45.5997C111.029 45.2789 110.466 45.1124 109.894 45.1197C109.281 45.1073 108.68 45.3034 108.178 45.6797" stroke="#1F1A54" stroke-width="0.8" stroke-linecap="round" stroke-linejoin="round"/>
<path d="M119.934 55.5298C119.692 56.4533 119.212 57.2862 118.55 57.9346C117.887 58.583 117.068 59.0212 116.184 59.1998" stroke="#1F1A54" stroke-width="0.8" stroke-linecap="round" stroke-linejoin="round"/>
<path d="M114.581 53.9995C114.246 54.1887 113.873 54.2875 113.494 54.2875C113.115 54.2875 112.741 54.1887 112.406 53.9995" stroke="#1F1A54" stroke-width="0.8" stroke-linecap="round" stroke-linejoin="round"/>
<path d="M130.688 48.9995C130.688 48.9995 128.447 49.3595 128.109 53.1195" stroke="#1F1A54" stroke-width="0.8" stroke-miterlimit="10" stroke-linecap="round"/>
<path d="M127.022 58.1396V68.7596V68.7696" stroke="#1F1A54" stroke-width="0.8" stroke-linecap="round" stroke-linejoin="round"/>
<path d="M112.678 65.7095V69.8995" stroke="#1F1A54" stroke-width="0.8" stroke-linecap="round" stroke-linejoin="round"/>
<path d="M125.719 49.3498C125.797 49.1079 125.888 48.8708 125.991 48.6398C126.671 47.0768 127.855 45.8272 129.328 45.1198C132.056 43.9098 135.131 47.1798 134.297 51.7498C133.613 55.5298 130.772 57.5598 127.022 58.1398" stroke="#1F1A54" stroke-width="0.8" stroke-linecap="round" stroke-linejoin="round"/>
<path d="M106.378 77.4997C99.9938 67.9997 98.5876 40.9997 104.484 34.8697C111.797 27.2597 125.531 23.9297 130.078 32.3097C131.204 32.6867 132.23 33.344 133.071 34.2272C133.913 35.1105 134.545 36.1945 134.916 37.3897C135.853 40.6597 141.028 58.1297 149.372 71.6697C155.953 82.4297 166.266 89.7797 166.266 92.0997C166.266 98.6497 151.266 84.6497 154.453 100.4" stroke="#1F1A54" stroke-width="0.8" stroke-linecap="round" stroke-linejoin="round"/>
<path d="M126 48.6495C123.818 46.3263 121.337 44.3464 118.631 42.7695C116.022 41.0551 113.879 38.6417 112.416 35.7695C112.416 35.7695 108.666 40.5895 106.191 41.4195" stroke="#1F1A54" stroke-width="0.8" stroke-linecap="round" stroke-linejoin="round"/>
<path d="M131.334 71.6797C131.766 72.0959 132.176 72.5365 132.563 72.9997" stroke="#1F1A54" stroke-width="0.8" stroke-linecap="round" stroke-linejoin="round"/>
<path d="M99.4313 95.2598C101.3 89.152 103.623 83.2132 106.378 77.4998C107.981 74.3898 109.706 71.7998 111.394 70.6798C111.806 70.4098 112.238 70.1398 112.678 69.8998C114.129 69.0764 115.673 68.4547 117.272 68.0498C119.713 67.3563 122.278 67.3243 124.734 67.9564C127.19 68.5886 129.458 69.865 131.334 71.6697" stroke="#1F1A54" stroke-width="0.8" stroke-linecap="round" stroke-linejoin="round"/>
<path d="M131.316 71.6699L131.334 71.6799L147.244 90.9899L138.891 100.97L135.066 97.9099" stroke="#1F1A54" stroke-width="0.8" stroke-linecap="round" stroke-linejoin="round"/>
<path d="M134.391 104.53C134.391 104.53 137.306 108.2 145.097 107.73" stroke="#1F1A54" stroke-width="0.8" stroke-linecap="round" stroke-linejoin="round"/>
<path d="M91.1625 253.76L89.2875 261.26C87.4689 261.308 85.6786 260.772 84.15 259.72C82.7819 258.76 81.5069 257.658 80.3438 256.43L80.4469 256.32L81.6375 251L91.1625 253.76Z" fill="#FFD400"/>
<path d="M167.363 234.74L172.397 241.24C171.535 242.916 170.231 244.286 168.647 245.18C166.932 246.104 165.123 246.815 163.256 247.3L159.619 242.25L167.363 234.74Z" fill="#FFD400"/>
<path d="M161.447 247.51C161.447 247.66 162.178 247.57 163.219 247.3C165.086 246.815 166.894 246.104 168.61 245.18C170.194 244.286 171.498 242.916 172.36 241.24C172.46 241.047 172.548 240.846 172.622 240.64C175.266 242.55 176.878 243.55 176.878 243.55C176.878 243.55 162.778 265.86 158.766 268.69C156.975 269.97 155.569 270.28 154.931 269.47C154.672 269.072 154.546 268.593 154.575 268.11C154.575 266.98 155.597 265.33 156.384 263.79C157.003 262.57 157.847 260.91 158.625 259.27C158.794 258.91 158.963 258.55 159.122 258.19C159.366 257.65 159.591 257.1 159.797 256.54C160.126 255.646 160.411 254.735 160.65 253.81C160.942 252.737 161.165 251.645 161.316 250.54C161.489 249.541 161.533 248.521 161.447 247.51Z" fill="white"/>
<path d="M156.347 270.88C155.044 270.05 154.959 269.47 154.959 269.47C155.597 270.28 157.003 269.97 158.794 268.69C162.778 265.86 176.916 243.55 176.916 243.55C179.053 244.71 182.203 245.55 181.059 247.2C179.916 248.85 167.381 264 164.672 267.09C160.584 271.78 158.147 272 156.347 270.88Z" fill="white"/>
<path d="M89.2501 261.26C89.4405 261.274 89.6315 261.274 89.8219 261.26C89.5782 264.66 89.5594 266.65 89.5594 266.65C89.5594 266.65 64.3876 264.65 60.1032 262.36C58.1719 261.36 57.2157 260.18 57.5813 259.19C57.7773 258.752 58.1082 258.399 58.5188 258.19C59.4563 257.63 61.2844 257.75 62.9344 257.72C64.2282 257.72 66.0001 257.64 67.7157 257.54L68.8501 257.47C69.4032 257.47 69.9657 257.36 70.5188 257.28C71.4126 257.144 72.2985 256.954 73.1719 256.71C74.1882 256.446 75.1872 256.112 76.1626 255.71C77.0536 255.357 77.8981 254.884 78.6751 254.3C78.5251 254.42 79.2376 255.36 80.3251 256.49C81.4882 257.719 82.7632 258.821 84.1313 259.78C85.6609 260.807 87.4436 261.322 89.2501 261.26Z" fill="white"/>
<path d="M57.1126 261.13C57.1126 259.51 57.572 259.13 57.572 259.13C57.2064 260.13 58.1626 261.27 60.0939 262.3C64.3782 264.59 89.5501 266.59 89.5501 266.59C89.6814 269.14 90.4876 272.5 88.6126 272.24C86.7376 271.98 68.2032 267.92 64.3314 267C58.4532 265.51 57.0845 263.36 57.1126 261.13Z" fill="white"/>
<path d="M172.388 241.24L167.353 234.74L159.581 242.25L163.209 247.3" stroke="#1F1A54" stroke-width="0.8" stroke-linecap="round" stroke-linejoin="round"/>
<path d="M80.4094 256.32L81.6376 251L91.1532 253.76L89.2407 261.26" stroke="#1F1A54" stroke-width="0.8" stroke-linecap="round" stroke-linejoin="round"/>
<path d="M176.916 243.55C176.916 243.55 175.303 242.55 172.659 240.64C172.586 240.846 172.498 241.047 172.397 241.24C171.535 242.916 170.231 244.286 168.647 245.18C166.932 246.104 165.123 246.815 163.256 247.3C162.216 247.57 161.503 247.66 161.484 247.51C161.577 248.51 161.542 249.519 161.381 250.51C161.23 251.615 161.008 252.707 160.716 253.78C160.477 254.705 160.192 255.616 159.863 256.51C159.656 257.07 159.431 257.62 159.188 258.16C159.028 258.52 158.859 258.88 158.691 259.24C157.913 260.88 157.069 262.54 156.45 263.76C155.663 265.3 154.631 266.95 154.641 268.08C154.612 268.563 154.737 269.042 154.997 269.44C155.634 270.25 157.041 269.94 158.831 268.66C162.778 265.86 176.916 243.55 176.916 243.55Z" stroke="#1F1A54" stroke-width="0.8" stroke-linecap="round" stroke-linejoin="round"/>
<path d="M154.959 269.47C154.959 269.47 155.044 270.05 156.347 270.88C158.147 272.02 160.584 271.78 164.672 267.09C167.381 263.98 179.916 248.82 181.059 247.2C182.203 245.58 179.053 244.71 176.916 243.55" stroke="#1F1A54" stroke-width="0.8" stroke-linecap="round" stroke-linejoin="round"/>
<path d="M162.956 250.589L161.334 250.539L159.694 250.479" stroke="#1F1A54" stroke-width="0.8" stroke-linecap="round" stroke-linejoin="round"/>
<path d="M162.516 254.06L160.669 253.81L159.225 253.62" stroke="#1F1A54" stroke-width="0.8" stroke-linecap="round" stroke-linejoin="round"/>
<path d="M161.569 256.92L159.816 256.54L158.269 256.21" stroke="#1F1A54" stroke-width="0.8" stroke-linecap="round" stroke-linejoin="round"/>
<path d="M160.463 259.67L158.644 259.27L157.172 258.95" stroke="#1F1A54" stroke-width="0.8" stroke-linecap="round" stroke-linejoin="round"/>
<path d="M89.5594 266.599C89.5594 266.599 89.5594 264.599 89.8219 261.209C89.6315 261.224 89.4404 261.224 89.25 261.209C87.4314 261.258 85.6411 260.722 84.1125 259.669C82.7444 258.71 81.4694 257.608 80.3063 256.379C79.2188 255.249 78.5063 254.309 78.6563 254.189C77.8793 254.773 77.0348 255.247 76.1438 255.599C75.1684 256.002 74.1694 256.336 73.1531 256.599C72.2797 256.843 71.3938 257.033 70.5 257.169C69.9469 257.249 69.3844 257.319 68.8313 257.359L67.6969 257.429C65.9813 257.529 64.2094 257.579 62.9156 257.609C61.2656 257.609 59.4094 257.519 58.5 258.079C58.0894 258.289 57.7585 258.641 57.5625 259.079C57.1969 260.079 58.1531 261.219 60.0844 262.249C64.3875 264.599 89.5594 266.599 89.5594 266.599Z" stroke="#1F1A54" stroke-width="0.8" stroke-linecap="round" stroke-linejoin="round"/>
<path d="M57.5719 259.14C57.5719 259.14 57.1313 259.51 57.1125 261.14C57.1125 263.37 58.4813 265.52 64.3313 266.97C68.2032 267.97 86.7657 271.97 88.7063 272.26C90.6469 272.55 89.7376 269.16 89.6438 266.61" stroke="#1F1A54" stroke-width="0.8" stroke-linecap="round" stroke-linejoin="round"/>
<path d="M76.9032 257.18L76.1438 255.65L75.3657 254.1" stroke="#1F1A54" stroke-width="0.8" stroke-linecap="round" stroke-linejoin="round"/>
<path d="M73.8563 258.499L73.1532 256.659L72.5813 255.229" stroke="#1F1A54" stroke-width="0.8" stroke-linecap="round" stroke-linejoin="round"/>
<path d="M71.0626 259.04L70.4907 257.23L70.0032 255.63" stroke="#1F1A54" stroke-width="0.8" stroke-linecap="round" stroke-linejoin="round"/>
<path d="M68.2781 259.38L67.6875 257.49L67.2188 255.97" stroke="#1F1A54" stroke-width="0.8" stroke-linecap="round" stroke-linejoin="round"/>
<path d="M118.453 181.57L106.997 210L93.8719 254.58L79.9407 250.58C79.9407 250.58 94.7063 188.45 98.6907 165.01C101.972 145.68 106.106 128.93 106.106 128.93C106.106 128.93 109.856 131.75 118.875 130.93C130.359 129.93 133.284 127.67 133.284 127.67C139.209 134.46 143.334 148.41 140.428 164.74C139.181 171.74 143.053 199.61 143.053 199.61L170.016 234.94L157.191 244.73L127.706 207.25L118.453 181.57Z" fill="#1F1A54"/>
<mask id="mask0" mask-type="alpha" maskUnits="userSpaceOnUse" x="79" y="127" width="92" height="128">
<path d="M118.453 181.57L106.997 210L93.8719 254.58L79.9407 250.58C79.9407 250.58 94.7063 188.45 98.6907 165.01C101.972 145.68 106.106 128.93 106.106 128.93C106.106 128.93 109.856 131.75 118.875 130.93C130.359 129.93 133.284 127.67 133.284 127.67C139.209 134.46 143.334 148.41 140.428 164.74C139.181 171.74 143.053 199.61 143.053 199.61L170.016 234.94L157.191 244.73L127.706 207.25L118.453 181.57Z" fill="#1F1A54"/>
</mask>
<g mask="url(#mask0)">
<path d="M86.7656 129.61C87.1365 129.61 87.499 129.493 87.8073 129.273C88.1157 129.053 88.356 128.741 88.4979 128.375C88.6398 128.01 88.6769 127.608 88.6046 127.22C88.5322 126.832 88.3537 126.475 88.0914 126.196C87.8292 125.916 87.4951 125.725 87.1314 125.648C86.7677 125.571 86.3907 125.611 86.0481 125.762C85.7055 125.913 85.4126 126.17 85.2066 126.499C85.0006 126.828 84.8906 127.214 84.8906 127.61C84.8906 128.14 85.0882 128.649 85.4398 129.024C85.7914 129.399 86.2683 129.61 86.7656 129.61Z" fill="white" stroke="#1F1A54" stroke-width="1.5" stroke-miterlimit="10"/>
<path d="M97.1438 129.61C97.5146 129.61 97.8772 129.493 98.1855 129.273C98.4938 129.053 98.7342 128.741 98.8761 128.375C99.018 128.01 99.0551 127.608 98.9828 127.22C98.9104 126.832 98.7318 126.475 98.4696 126.196C98.2074 125.916 97.8733 125.725 97.5096 125.648C97.1459 125.571 96.7689 125.611 96.4263 125.762C96.0837 125.913 95.7908 126.17 95.5848 126.499C95.3788 126.828 95.2688 127.214 95.2688 127.61C95.2688 128.14 95.4663 128.649 95.818 129.024C96.1696 129.399 96.6465 129.61 97.1438 129.61Z" fill="white" stroke="#1F1A54" stroke-width="1.5" stroke-miterlimit="10"/>
<path d="M107.522 129.61C107.893 129.61 108.255 129.493 108.564 129.273C108.872 129.053 109.112 128.741 109.254 128.375C109.396 128.01 109.433 127.608 109.361 127.22C109.288 126.832 109.11 126.475 108.848 126.196C108.585 125.916 108.251 125.725 107.888 125.648C107.524 125.571 107.147 125.611 106.804 125.762C106.462 125.913 106.169 126.17 105.963 126.499C105.757 126.828 105.647 127.214 105.647 127.61C105.647 128.14 105.844 128.649 106.196 129.024C106.548 129.399 107.025 129.61 107.522 129.61Z" fill="white" stroke="#1F1A54" stroke-width="1.5" stroke-miterlimit="10"/>
<path d="M117.9 129.61C118.271 129.61 118.633 129.493 118.942 129.273C119.25 129.053 119.49 128.741 119.632 128.375C119.774 128.01 119.811 127.608 119.739 127.22C119.667 126.832 119.488 126.475 119.226 126.196C118.964 125.916 118.63 125.725 118.266 125.648C117.902 125.571 117.525 125.611 117.182 125.762C116.84 125.913 116.547 126.17 116.341 126.499C116.135 126.828 116.025 127.214 116.025 127.61C116.025 128.14 116.223 128.649 116.574 129.024C116.926 129.399 117.403 129.61 117.9 129.61Z" fill="white" stroke="#1F1A54" stroke-width="1.5" stroke-miterlimit="10"/>
<path d="M128.278 129.61C128.649 129.61 129.011 129.493 129.32 129.273C129.628 129.053 129.868 128.741 130.01 128.375C130.152 128.01 130.189 127.608 130.117 127.22C130.045 126.832 129.866 126.475 129.604 126.196C129.342 125.916 129.008 125.725 128.644 125.648C128.28 125.571 127.903 125.611 127.561 125.762C127.218 125.913 126.925 126.17 126.719 126.499C126.513 126.828 126.403 127.214 126.403 127.61C126.403 128.14 126.601 128.649 126.952 129.024C127.304 129.399 127.781 129.61 128.278 129.61Z" fill="white" stroke="#1F1A54" stroke-width="1.5" stroke-miterlimit="10"/>
<path d="M138.656 129.61C139.027 129.61 139.39 129.493 139.698 129.273C140.006 129.053 140.247 128.741 140.389 128.375C140.53 128.01 140.568 127.608 140.495 127.22C140.423 126.832 140.244 126.475 139.982 126.196C139.72 125.916 139.386 125.725 139.022 125.648C138.658 125.571 138.281 125.611 137.939 125.762C137.596 125.913 137.303 126.17 137.097 126.499C136.891 126.828 136.781 127.214 136.781 127.61C136.781 128.14 136.979 128.649 137.33 129.024C137.682 129.399 138.159 129.61 138.656 129.61Z" fill="white" stroke="#1F1A54" stroke-width="1.5" stroke-miterlimit="10"/>
<path d="M149.034 129.61C150.07 129.61 150.909 128.714 150.909 127.61C150.909 126.505 150.07 125.61 149.034 125.61C147.999 125.61 147.159 126.505 147.159 127.61C147.159 128.714 147.999 129.61 149.034 129.61Z" fill="white" stroke="#1F1A54" stroke-width="1.5" stroke-miterlimit="10"/>
<path d="M159.412 129.61C159.783 129.61 160.146 129.493 160.454 129.273C160.763 129.053 161.003 128.741 161.145 128.375C161.287 128.01 161.324 127.608 161.251 127.22C161.179 126.832 161.001 126.475 160.738 126.196C160.476 125.916 160.142 125.725 159.778 125.648C159.415 125.571 159.038 125.611 158.695 125.762C158.352 125.913 158.059 126.17 157.853 126.499C157.647 126.828 157.537 127.214 157.537 127.61C157.537 128.14 157.735 128.649 158.087 129.024C158.438 129.399 158.915 129.61 159.412 129.61Z" fill="white" stroke="#1F1A54" stroke-width="1.5" stroke-miterlimit="10"/>
<path d="M169.791 129.61C170.161 129.61 170.524 129.493 170.832 129.273C171.141 129.053 171.381 128.741 171.523 128.375C171.665 128.01 171.702 127.608 171.63 127.22C171.557 126.832 171.379 126.475 171.116 126.196C170.854 125.916 170.52 125.725 170.156 125.648C169.793 125.571 169.416 125.611 169.073 125.762C168.731 125.913 168.438 126.17 168.232 126.499C168.026 126.828 167.916 127.214 167.916 127.61C167.916 128.14 168.113 128.649 168.465 129.024C168.816 129.399 169.293 129.61 169.791 129.61Z" fill="white" stroke="#1F1A54" stroke-width="1.5" stroke-miterlimit="10"/>
<path d="M81.5813 140.68C81.9521 140.68 82.3147 140.563 82.623 140.343C82.9313 140.123 83.1717 139.811 83.3136 139.446C83.4555 139.08 83.4926 138.678 83.4203 138.29C83.3479 137.902 83.1693 137.546 82.9071 137.266C82.6449 136.986 82.3108 136.796 81.9471 136.719C81.5834 136.641 81.2064 136.681 80.8638 136.832C80.5212 136.984 80.2283 137.24 80.0223 137.569C79.8163 137.898 79.7063 138.285 79.7063 138.68C79.7063 139.211 79.9038 139.719 80.2555 140.094C80.6071 140.469 81.084 140.68 81.5813 140.68Z" fill="white" stroke="#1F1A54" stroke-width="1.5" stroke-miterlimit="10"/>
<path d="M91.9593 140.68C92.3302 140.68 92.6927 140.563 93.001 140.343C93.3094 140.123 93.5497 139.811 93.6916 139.446C93.8335 139.08 93.8707 138.678 93.7983 138.29C93.726 137.902 93.5474 137.546 93.2852 137.266C93.0229 136.986 92.6889 136.796 92.3251 136.719C91.9614 136.641 91.5844 136.681 91.2418 136.832C90.8992 136.984 90.6064 137.24 90.4003 137.569C90.1943 137.898 90.0844 138.285 90.0844 138.68C90.0844 139.211 90.2819 139.719 90.6335 140.094C90.9852 140.469 91.4621 140.68 91.9593 140.68Z" fill="white" stroke="#1F1A54" stroke-width="1.5" stroke-miterlimit="10"/>
<path d="M102.338 140.68C102.708 140.68 103.071 140.563 103.379 140.343C103.688 140.123 103.928 139.811 104.07 139.446C104.212 139.08 104.249 138.678 104.176 138.29C104.104 137.902 103.926 137.546 103.663 137.266C103.401 136.986 103.067 136.796 102.703 136.719C102.34 136.641 101.963 136.681 101.62 136.832C101.277 136.984 100.985 137.24 100.779 137.569C100.572 137.898 100.463 138.285 100.463 138.68C100.463 139.211 100.66 139.719 101.012 140.094C101.363 140.469 101.84 140.68 102.338 140.68Z" fill="white" stroke="#1F1A54" stroke-width="1.5" stroke-miterlimit="10"/>
<path d="M112.716 140.68C113.086 140.68 113.449 140.563 113.757 140.343C114.066 140.123 114.306 139.811 114.448 139.446C114.59 139.08 114.627 138.678 114.555 138.29C114.482 137.902 114.304 137.546 114.041 137.266C113.779 136.986 113.445 136.796 113.081 136.719C112.718 136.641 112.341 136.681 111.998 136.832C111.655 136.984 111.363 137.24 111.157 137.569C110.951 137.898 110.841 138.285 110.841 138.68C110.841 139.211 111.038 139.719 111.39 140.094C111.741 140.469 112.218 140.68 112.716 140.68Z" fill="white" stroke="#1F1A54" stroke-width="1.5" stroke-miterlimit="10"/>
<path d="M123.141 140.68C123.511 140.68 123.874 140.563 124.182 140.343C124.491 140.123 124.731 139.811 124.873 139.446C125.015 139.08 125.052 138.678 124.98 138.29C124.907 137.902 124.729 137.546 124.466 137.266C124.204 136.986 123.87 136.796 123.506 136.719C123.143 136.641 122.766 136.681 122.423 136.832C122.08 136.984 121.788 137.24 121.582 137.569C121.376 137.898 121.266 138.285 121.266 138.68C121.266 139.211 121.463 139.719 121.815 140.094C122.166 140.469 122.643 140.68 123.141 140.68Z" fill="white" stroke="#1F1A54" stroke-width="1.5" stroke-miterlimit="10"/>
<path d="M133.453 140.68C133.824 140.68 134.186 140.563 134.495 140.343C134.803 140.123 135.043 139.811 135.185 139.446C135.327 139.08 135.364 138.678 135.292 138.29C135.22 137.902 135.041 137.546 134.779 137.266C134.517 136.986 134.183 136.796 133.819 136.719C133.455 136.641 133.078 136.681 132.736 136.832C132.393 136.984 132.1 137.24 131.894 137.569C131.688 137.898 131.578 138.285 131.578 138.68C131.578 139.211 131.776 139.719 132.127 140.094C132.479 140.469 132.956 140.68 133.453 140.68Z" fill="white" stroke="#1F1A54" stroke-width="1.5" stroke-miterlimit="10"/>
<path d="M143.85 140.68C144.221 140.68 144.583 140.563 144.892 140.343C145.2 140.123 145.44 139.811 145.582 139.446C145.724 139.08 145.761 138.678 145.689 138.29C145.617 137.902 145.438 137.546 145.176 137.266C144.914 136.986 144.579 136.796 144.216 136.719C143.852 136.641 143.475 136.681 143.132 136.832C142.79 136.984 142.497 137.24 142.291 137.569C142.085 137.898 141.975 138.285 141.975 138.68C141.975 139.211 142.173 139.719 142.524 140.094C142.876 140.469 143.353 140.68 143.85 140.68Z" fill="white" stroke="#1F1A54" stroke-width="1.5" stroke-miterlimit="10"/>
<path d="M154.228 140.68C154.599 140.68 154.961 140.563 155.27 140.343C155.578 140.123 155.818 139.811 155.96 139.446C156.102 139.08 156.139 138.678 156.067 138.29C155.995 137.902 155.816 137.546 155.554 137.266C155.292 136.986 154.958 136.796 154.594 136.719C154.23 136.641 153.853 136.681 153.511 136.832C153.168 136.984 152.875 137.24 152.669 137.569C152.463 137.898 152.353 138.285 152.353 138.68C152.353 139.211 152.551 139.719 152.902 140.094C153.254 140.469 153.731 140.68 154.228 140.68Z" fill="white" stroke="#1F1A54" stroke-width="1.5" stroke-miterlimit="10"/>
<path d="M164.606 140.68C164.977 140.68 165.34 140.563 165.648 140.343C165.956 140.123 166.197 139.811 166.338 139.446C166.48 139.08 166.518 138.678 166.445 138.29C166.373 137.902 166.194 137.546 165.932 137.266C165.67 136.986 165.336 136.796 164.972 136.719C164.608 136.641 164.231 136.681 163.889 136.832C163.546 136.984 163.253 137.24 163.047 137.569C162.841 137.898 162.731 138.285 162.731 138.68C162.731 139.211 162.929 139.719 163.28 140.094C163.632 140.469 164.109 140.68 164.606 140.68Z" fill="white" stroke="#1F1A54" stroke-width="1.5" stroke-miterlimit="10"/>
<path d="M86.7656 151.75C87.1365 151.75 87.499 151.633 87.8073 151.413C88.1157 151.193 88.356 150.881 88.4979 150.515C88.6398 150.15 88.6769 149.748 88.6046 149.36C88.5322 148.972 88.3537 148.615 88.0914 148.336C87.8292 148.056 87.4951 147.866 87.1314 147.788C86.7677 147.711 86.3907 147.751 86.0481 147.902C85.7055 148.054 85.4126 148.31 85.2066 148.639C85.0006 148.968 84.8906 149.354 84.8906 149.75C84.8906 150.28 85.0882 150.789 85.4398 151.164C85.7914 151.539 86.2683 151.75 86.7656 151.75Z" fill="white" stroke="#1F1A54" stroke-width="1.5" stroke-miterlimit="10"/>
<path d="M97.1438 151.75C97.5146 151.75 97.8772 151.633 98.1855 151.413C98.4938 151.193 98.7342 150.881 98.8761 150.515C99.018 150.15 99.0551 149.748 98.9828 149.36C98.9104 148.972 98.7318 148.615 98.4696 148.336C98.2074 148.056 97.8733 147.866 97.5096 147.788C97.1459 147.711 96.7689 147.751 96.4263 147.902C96.0837 148.054 95.7908 148.31 95.5848 148.639C95.3788 148.968 95.2688 149.354 95.2688 149.75C95.2688 150.28 95.4663 150.789 95.818 151.164C96.1696 151.539 96.6465 151.75 97.1438 151.75Z" fill="white" stroke="#1F1A54" stroke-width="1.5" stroke-miterlimit="10"/>
<path d="M107.522 151.75C107.893 151.75 108.255 151.633 108.564 151.413C108.872 151.193 109.112 150.881 109.254 150.515C109.396 150.15 109.433 149.748 109.361 149.36C109.288 148.972 109.11 148.615 108.848 148.336C108.585 148.056 108.251 147.866 107.888 147.788C107.524 147.711 107.147 147.751 106.804 147.902C106.462 148.054 106.169 148.31 105.963 148.639C105.757 148.968 105.647 149.354 105.647 149.75C105.647 150.28 105.844 150.789 106.196 151.164C106.548 151.539 107.025 151.75 107.522 151.75Z" fill="white" stroke="#1F1A54" stroke-width="1.5" stroke-miterlimit="10"/>
<path d="M117.9 151.75C118.271 151.75 118.633 151.633 118.942 151.413C119.25 151.193 119.49 150.881 119.632 150.515C119.774 150.15 119.811 149.748 119.739 149.36C119.667 148.972 119.488 148.615 119.226 148.336C118.964 148.056 118.63 147.866 118.266 147.788C117.902 147.711 117.525 147.751 117.182 147.902C116.84 148.054 116.547 148.31 116.341 148.639C116.135 148.968 116.025 149.354 116.025 149.75C116.025 150.28 116.223 150.789 116.574 151.164C116.926 151.539 117.403 151.75 117.9 151.75Z" fill="white" stroke="#1F1A54" stroke-width="1.5" stroke-miterlimit="10"/>
<path d="M128.278 151.75C128.649 151.75 129.011 151.633 129.32 151.413C129.628 151.193 129.868 150.881 130.01 150.515C130.152 150.15 130.189 149.748 130.117 149.36C130.045 148.972 129.866 148.615 129.604 148.336C129.342 148.056 129.008 147.866 128.644 147.788C128.28 147.711 127.903 147.751 127.561 147.902C127.218 148.054 126.925 148.31 126.719 148.639C126.513 148.968 126.403 149.354 126.403 149.75C126.403 150.28 126.601 150.789 126.952 151.164C127.304 151.539 127.781 151.75 128.278 151.75Z" fill="white" stroke="#1F1A54" stroke-width="1.5" stroke-miterlimit="10"/>
<path d="M138.656 151.75C139.027 151.75 139.39 151.633 139.698 151.413C140.006 151.193 140.247 150.881 140.389 150.515C140.53 150.15 140.568 149.748 140.495 149.36C140.423 148.972 140.244 148.615 139.982 148.336C139.72 148.056 139.386 147.866 139.022 147.788C138.658 147.711 138.281 147.751 137.939 147.902C137.596 148.054 137.303 148.31 137.097 148.639C136.891 148.968 136.781 149.354 136.781 149.75C136.781 150.28 136.979 150.789 137.33 151.164C137.682 151.539 138.159 151.75 138.656 151.75Z" fill="white" stroke="#1F1A54" stroke-width="1.5" stroke-miterlimit="10"/>
<path d="M149.034 151.75C150.07 151.75 150.909 150.855 150.909 149.75C150.909 148.645 150.07 147.75 149.034 147.75C147.999 147.75 147.159 148.645 147.159 149.75C147.159 150.855 147.999 151.75 149.034 151.75Z" fill="white" stroke="#1F1A54" stroke-width="1.5" stroke-miterlimit="10"/>
<path d="M159.412 151.75C159.783 151.75 160.146 151.633 160.454 151.413C160.763 151.193 161.003 150.881 161.145 150.515C161.287 150.15 161.324 149.748 161.251 149.36C161.179 148.972 161.001 148.615 160.738 148.336C160.476 148.056 160.142 147.866 159.778 147.788C159.415 147.711 159.038 147.751 158.695 147.902C158.352 148.054 158.059 148.31 157.853 148.639C157.647 148.968 157.537 149.354 157.537 149.75C157.537 150.28 157.735 150.789 158.087 151.164C158.438 151.539 158.915 151.75 159.412 151.75Z" fill="white" stroke="#1F1A54" stroke-width="1.5" stroke-miterlimit="10"/>
<path d="M169.791 151.75C170.161 151.75 170.524 151.633 170.832 151.413C171.141 151.193 171.381 150.881 171.523 150.515C171.665 150.15 171.702 149.748 171.63 149.36C171.557 148.972 171.379 148.615 171.116 148.336C170.854 148.056 170.52 147.866 170.156 147.788C169.793 147.711 169.416 147.751 169.073 147.902C168.731 148.054 168.438 148.31 168.232 148.639C168.026 148.968 167.916 149.354 167.916 149.75C167.916 150.28 168.113 150.789 168.465 151.164C168.816 151.539 169.293 151.75 169.791 151.75Z" fill="white" stroke="#1F1A54" stroke-width="1.5" stroke-miterlimit="10"/>
<path d="M81.5813 162.82C81.9521 162.82 82.3147 162.703 82.623 162.483C82.9313 162.263 83.1717 161.951 83.3136 161.585C83.4555 161.22 83.4926 160.818 83.4203 160.43C83.3479 160.042 83.1693 159.685 82.9071 159.406C82.6449 159.126 82.3108 158.935 81.9471 158.858C81.5834 158.781 81.2064 158.821 80.8638 158.972C80.5212 159.123 80.2283 159.38 80.0223 159.709C79.8163 160.038 79.7063 160.424 79.7063 160.82C79.7063 161.35 79.9038 161.859 80.2555 162.234C80.6071 162.609 81.084 162.82 81.5813 162.82Z" fill="white" stroke="#1F1A54" stroke-width="1.5" stroke-miterlimit="10"/>
<path d="M91.9593 162.82C92.3302 162.82 92.6927 162.703 93.001 162.483C93.3094 162.263 93.5497 161.951 93.6916 161.585C93.8335 161.22 93.8707 160.818 93.7983 160.43C93.726 160.042 93.5474 159.685 93.2852 159.406C93.0229 159.126 92.6889 158.935 92.3251 158.858C91.9614 158.781 91.5844 158.821 91.2418 158.972C90.8992 159.123 90.6064 159.38 90.4003 159.709C90.1943 160.038 90.0844 160.424 90.0844 160.82C90.0844 161.35 90.2819 161.859 90.6335 162.234C90.9852 162.609 91.4621 162.82 91.9593 162.82Z" fill="white" stroke="#1F1A54" stroke-width="1.5" stroke-miterlimit="10"/>
<path d="M102.338 162.82C102.708 162.82 103.071 162.703 103.379 162.483C103.688 162.263 103.928 161.951 104.07 161.585C104.212 161.22 104.249 160.818 104.176 160.43C104.104 160.042 103.926 159.685 103.663 159.406C103.401 159.126 103.067 158.935 102.703 158.858C102.34 158.781 101.963 158.821 101.62 158.972C101.277 159.123 100.985 159.38 100.779 159.709C100.572 160.038 100.463 160.424 100.463 160.82C100.463 161.35 100.66 161.859 101.012 162.234C101.363 162.609 101.84 162.82 102.338 162.82Z" fill="white" stroke="#1F1A54" stroke-width="1.5" stroke-miterlimit="10"/>
<path d="M112.716 162.82C113.086 162.82 113.449 162.703 113.757 162.483C114.066 162.263 114.306 161.951 114.448 161.585C114.59 161.22 114.627 160.818 114.555 160.43C114.482 160.042 114.304 159.685 114.041 159.406C113.779 159.126 113.445 158.935 113.081 158.858C112.718 158.781 112.341 158.821 111.998 158.972C111.655 159.123 111.363 159.38 111.157 159.709C110.951 160.038 110.841 160.424 110.841 160.82C110.841 161.35 111.038 161.859 111.39 162.234C111.741 162.609 112.218 162.82 112.716 162.82Z" fill="white" stroke="#1F1A54" stroke-width="1.5" stroke-miterlimit="10"/>
<path d="M123.141 162.82C123.511 162.82 123.874 162.703 124.182 162.483C124.491 162.263 124.731 161.951 124.873 161.585C125.015 161.22 125.052 160.818 124.98 160.43C124.907 160.042 124.729 159.685 124.466 159.406C124.204 159.126 123.87 158.935 123.506 158.858C123.143 158.781 122.766 158.821 122.423 158.972C122.08 159.123 121.788 159.38 121.582 159.709C121.376 160.038 121.266 160.424 121.266 160.82C121.266 161.35 121.463 161.859 121.815 162.234C122.166 162.609 122.643 162.82 123.141 162.82Z" fill="white" stroke="#1F1A54" stroke-width="1.5" stroke-miterlimit="10"/>
<path d="M133.453 162.82C133.824 162.82 134.186 162.703 134.495 162.483C134.803 162.263 135.043 161.951 135.185 161.585C135.327 161.22 135.364 160.818 135.292 160.43C135.22 160.042 135.041 159.685 134.779 159.406C134.517 159.126 134.183 158.935 133.819 158.858C133.455 158.781 133.078 158.821 132.736 158.972C132.393 159.123 132.1 159.38 131.894 159.709C131.688 160.038 131.578 160.424 131.578 160.82C131.578 161.35 131.776 161.859 132.127 162.234C132.479 162.609 132.956 162.82 133.453 162.82Z" fill="white" stroke="#1F1A54" stroke-width="1.5" stroke-miterlimit="10"/>
<path d="M143.85 162.82C144.221 162.82 144.583 162.703 144.892 162.483C145.2 162.263 145.44 161.951 145.582 161.585C145.724 161.22 145.761 160.818 145.689 160.43C145.617 160.042 145.438 159.685 145.176 159.406C144.914 159.126 144.579 158.935 144.216 158.858C143.852 158.781 143.475 158.821 143.132 158.972C142.79 159.123 142.497 159.38 142.291 159.709C142.085 160.038 141.975 160.424 141.975 160.82C141.975 161.35 142.173 161.859 142.524 162.234C142.876 162.609 143.353 162.82 143.85 162.82Z" fill="white" stroke="#1F1A54" stroke-width="1.5" stroke-miterlimit="10"/>
<path d="M154.228 162.82C154.599 162.82 154.961 162.703 155.27 162.483C155.578 162.263 155.818 161.951 155.96 161.585C156.102 161.22 156.139 160.818 156.067 160.43C155.995 160.042 155.816 159.685 155.554 159.406C155.292 159.126 154.958 158.935 154.594 158.858C154.23 158.781 153.853 158.821 153.511 158.972C153.168 159.123 152.875 159.38 152.669 159.709C152.463 160.038 152.353 160.424 152.353 160.82C152.353 161.35 152.551 161.859 152.902 162.234C153.254 162.609 153.731 162.82 154.228 162.82Z" fill="white" stroke="#1F1A54" stroke-width="1.5" stroke-miterlimit="10"/>
<path d="M164.606 162.82C164.977 162.82 165.34 162.703 165.648 162.483C165.956 162.263 166.197 161.951 166.338 161.585C166.48 161.22 166.518 160.818 166.445 160.43C166.373 160.042 166.194 159.685 165.932 159.406C165.67 159.126 165.336 158.935 164.972 158.858C164.608 158.781 164.231 158.821 163.889 158.972C163.546 159.123 163.253 159.38 163.047 159.709C162.841 160.038 162.731 160.424 162.731 160.82C162.731 161.35 162.929 161.859 163.28 162.234C163.632 162.609 164.109 162.82 164.606 162.82Z" fill="white" stroke="#1F1A54" stroke-width="1.5" stroke-miterlimit="10"/>
<path d="M86.7656 173.89C87.1365 173.89 87.499 173.773 87.8073 173.553C88.1157 173.333 88.356 173.021 88.4979 172.656C88.6398 172.29 88.6769 171.888 88.6046 171.5C88.5322 171.112 88.3537 170.756 88.0914 170.476C87.8292 170.196 87.4951 170.006 87.1314 169.929C86.7677 169.851 86.3907 169.891 86.0481 170.042C85.7055 170.194 85.4126 170.45 85.2066 170.779C85.0006 171.108 84.8906 171.495 84.8906 171.89C84.8906 172.421 85.0882 172.929 85.4398 173.304C85.7914 173.679 86.2683 173.89 86.7656 173.89Z" fill="white" stroke="#1F1A54" stroke-width="1.5" stroke-miterlimit="10"/>
<path d="M97.1438 173.89C97.5146 173.89 97.8772 173.773 98.1855 173.553C98.4938 173.333 98.7342 173.021 98.8761 172.656C99.018 172.29 99.0551 171.888 98.9828 171.5C98.9104 171.112 98.7318 170.756 98.4696 170.476C98.2074 170.196 97.8733 170.006 97.5096 169.929C97.1459 169.851 96.7689 169.891 96.4263 170.042C96.0837 170.194 95.7908 170.45 95.5848 170.779C95.3788 171.108 95.2688 171.495 95.2688 171.89C95.2688 172.421 95.4663 172.929 95.818 173.304C96.1696 173.679 96.6465 173.89 97.1438 173.89Z" fill="white" stroke="#1F1A54" stroke-width="1.5" stroke-miterlimit="10"/>
<path d="M107.522 173.89C107.893 173.89 108.255 173.773 108.564 173.553C108.872 173.333 109.112 173.021 109.254 172.656C109.396 172.29 109.433 171.888 109.361 171.5C109.288 171.112 109.11 170.756 108.848 170.476C108.585 170.196 108.251 170.006 107.888 169.929C107.524 169.851 107.147 169.891 106.804 170.042C106.462 170.194 106.169 170.45 105.963 170.779C105.757 171.108 105.647 171.495 105.647 171.89C105.647 172.421 105.844 172.929 106.196 173.304C106.548 173.679 107.025 173.89 107.522 173.89Z" fill="white" stroke="#1F1A54" stroke-width="1.5" stroke-miterlimit="10"/>
<path d="M117.9 173.89C118.271 173.89 118.633 173.773 118.942 173.553C119.25 173.333 119.49 173.021 119.632 172.656C119.774 172.29 119.811 171.888 119.739 171.5C119.667 171.112 119.488 170.756 119.226 170.476C118.964 170.196 118.63 170.006 118.266 169.929C117.902 169.851 117.525 169.891 117.182 170.042C116.84 170.194 116.547 170.45 116.341 170.779C116.135 171.108 116.025 171.495 116.025 171.89C116.025 172.421 116.223 172.929 116.574 173.304C116.926 173.679 117.403 173.89 117.9 173.89Z" fill="white" stroke="#1F1A54" stroke-width="1.5" stroke-miterlimit="10"/>
<path d="M128.278 173.89C128.649 173.89 129.011 173.773 129.32 173.553C129.628 173.333 129.868 173.021 130.01 172.656C130.152 172.29 130.189 171.888 130.117 171.5C130.045 171.112 129.866 170.756 129.604 170.476C129.342 170.196 129.008 170.006 128.644 169.929C128.28 169.851 127.903 169.891 127.561 170.042C127.218 170.194 126.925 170.45 126.719 170.779C126.513 171.108 126.403 171.495 126.403 171.89C126.403 172.421 126.601 172.929 126.952 173.304C127.304 173.679 127.781 173.89 128.278 173.89Z" fill="white" stroke="#1F1A54" stroke-width="1.5" stroke-miterlimit="10"/>
<path d="M138.656 173.89C139.027 173.89 139.39 173.773 139.698 173.553C140.006 173.333 140.247 173.021 140.389 172.656C140.53 172.29 140.568 171.888 140.495 171.5C140.423 171.112 140.244 170.756 139.982 170.476C139.72 170.196 139.386 170.006 139.022 169.929C138.658 169.851 138.281 169.891 137.939 170.042C137.596 170.194 137.303 170.45 137.097 170.779C136.891 171.108 136.781 171.495 136.781 171.89C136.781 172.421 136.979 172.929 137.33 173.304C137.682 173.679 138.159 173.89 138.656 173.89Z" fill="white" stroke="#1F1A54" stroke-width="1.5" stroke-miterlimit="10"/>
<path d="M149.034 173.89C149.405 173.89 149.768 173.773 150.076 173.553C150.384 173.333 150.625 173.021 150.767 172.656C150.909 172.29 150.946 171.888 150.873 171.5C150.801 171.112 150.622 170.756 150.36 170.476C150.098 170.196 149.764 170.006 149.4 169.929C149.036 169.851 148.659 169.891 148.317 170.042C147.974 170.194 147.681 170.45 147.475 170.779C147.269 171.108 147.159 171.495 147.159 171.89C147.159 172.421 147.357 172.929 147.709 173.304C148.06 173.679 148.537 173.89 149.034 173.89Z" fill="white" stroke="#1F1A54" stroke-width="1.5" stroke-miterlimit="10"/>
<path d="M159.412 173.89C159.783 173.89 160.146 173.773 160.454 173.553C160.763 173.333 161.003 173.021 161.145 172.656C161.287 172.29 161.324 171.888 161.251 171.5C161.179 171.112 161.001 170.756 160.738 170.476C160.476 170.196 160.142 170.006 159.778 169.929C159.415 169.851 159.038 169.891 158.695 170.042C158.352 170.194 158.059 170.45 157.853 170.779C157.647 171.108 157.537 171.495 157.537 171.89C157.537 172.421 157.735 172.929 158.087 173.304C158.438 173.679 158.915 173.89 159.412 173.89Z" fill="white" stroke="#1F1A54" stroke-width="1.5" stroke-miterlimit="10"/>
<path d="M169.791 173.89C170.161 173.89 170.524 173.773 170.832 173.553C171.141 173.333 171.381 173.021 171.523 172.656C171.665 172.29 171.702 171.888 171.63 171.5C171.557 171.112 171.379 170.756 171.116 170.476C170.854 170.196 170.52 170.006 170.156 169.929C169.793 169.851 169.416 169.891 169.073 170.042C168.731 170.194 168.438 170.45 168.232 170.779C168.026 171.108 167.916 171.495 167.916 171.89C167.916 172.421 168.113 172.929 168.465 173.304C168.816 173.679 169.293 173.89 169.791 173.89Z" fill="white" stroke="#1F1A54" stroke-width="1.5" stroke-miterlimit="10"/>
<path d="M81.5813 185C81.9521 185 82.3147 184.883 82.623 184.663C82.9313 184.443 83.1717 184.131 83.3136 183.765C83.4555 183.4 83.4926 182.998 83.4203 182.61C83.3479 182.222 83.1693 181.865 82.9071 181.586C82.6449 181.306 82.3108 181.116 81.9471 181.038C81.5834 180.961 81.2064 181.001 80.8638 181.152C80.5212 181.304 80.2283 181.56 80.0223 181.889C79.8163 182.218 79.7063 182.604 79.7063 183C79.7063 183.53 79.9038 184.039 80.2555 184.414C80.6071 184.789 81.084 185 81.5813 185Z" fill="white" stroke="#1F1A54" stroke-width="1.5" stroke-miterlimit="10"/>
<path d="M91.9593 185C92.3302 185 92.6927 184.883 93.001 184.663C93.3094 184.443 93.5497 184.131 93.6916 183.765C93.8335 183.4 93.8707 182.998 93.7983 182.61C93.726 182.222 93.5474 181.865 93.2852 181.586C93.0229 181.306 92.6889 181.116 92.3251 181.038C91.9614 180.961 91.5844 181.001 91.2418 181.152C90.8992 181.304 90.6064 181.56 90.4003 181.889C90.1943 182.218 90.0844 182.604 90.0844 183C90.0844 183.53 90.2819 184.039 90.6335 184.414C90.9852 184.789 91.4621 185 91.9593 185Z" fill="white" stroke="#1F1A54" stroke-width="1.5" stroke-miterlimit="10"/>
<path d="M102.338 185C102.708 185 103.071 184.883 103.379 184.663C103.688 184.443 103.928 184.131 104.07 183.765C104.212 183.4 104.249 182.998 104.176 182.61C104.104 182.222 103.926 181.865 103.663 181.586C103.401 181.306 103.067 181.116 102.703 181.038C102.34 180.961 101.963 181.001 101.62 181.152C101.277 181.304 100.985 181.56 100.779 181.889C100.572 182.218 100.463 182.604 100.463 183C100.463 183.53 100.66 184.039 101.012 184.414C101.363 184.789 101.84 185 102.338 185Z" fill="white" stroke="#1F1A54" stroke-width="1.5" stroke-miterlimit="10"/>
<path d="M112.716 185C113.086 185 113.449 184.883 113.757 184.663C114.066 184.443 114.306 184.131 114.448 183.765C114.59 183.4 114.627 182.998 114.555 182.61C114.482 182.222 114.304 181.865 114.041 181.586C113.779 181.306 113.445 181.116 113.081 181.038C112.718 180.961 112.341 181.001 111.998 181.152C111.655 181.304 111.363 181.56 111.157 181.889C110.951 182.218 110.841 182.604 110.841 183C110.841 183.53 111.038 184.039 111.39 184.414C111.741 184.789 112.218 185 112.716 185Z" fill="white" stroke="#1F1A54" stroke-width="1.5" stroke-miterlimit="10"/>
<path d="M123.141 185C123.511 185 123.874 184.883 124.182 184.663C124.491 184.443 124.731 184.131 124.873 183.765C125.015 183.4 125.052 182.998 124.98 182.61C124.907 182.222 124.729 181.865 124.466 181.586C124.204 181.306 123.87 181.116 123.506 181.038C123.143 180.961 122.766 181.001 122.423 181.152C122.08 181.304 121.788 181.56 121.582 181.889C121.376 182.218 121.266 182.604 121.266 183C121.266 183.53 121.463 184.039 121.815 184.414C122.166 184.789 122.643 185 123.141 185Z" fill="white" stroke="#1F1A54" stroke-width="1.5" stroke-miterlimit="10"/>
<path d="M133.453 185C133.824 185 134.186 184.883 134.495 184.663C134.803 184.443 135.043 184.131 135.185 183.765C135.327 183.4 135.364 182.998 135.292 182.61C135.22 182.222 135.041 181.865 134.779 181.586C134.517 181.306 134.183 181.116 133.819 181.038C133.455 180.961 133.078 181.001 132.736 181.152C132.393 181.304 132.1 181.56 131.894 181.889C131.688 182.218 131.578 182.604 131.578 183C131.578 183.53 131.776 184.039 132.127 184.414C132.479 184.789 132.956 185 133.453 185Z" fill="white" stroke="#1F1A54" stroke-width="1.5" stroke-miterlimit="10"/>
<path d="M143.85 185C144.221 185 144.583 184.883 144.892 184.663C145.2 184.443 145.44 184.131 145.582 183.765C145.724 183.4 145.761 182.998 145.689 182.61C145.617 182.222 145.438 181.865 145.176 181.586C144.914 181.306 144.579 181.116 144.216 181.038C143.852 180.961 143.475 181.001 143.132 181.152C142.79 181.304 142.497 181.56 142.291 181.889C142.085 182.218 141.975 182.604 141.975 183C141.975 183.53 142.173 184.039 142.524 184.414C142.876 184.789 143.353 185 143.85 185Z" fill="white" stroke="#1F1A54" stroke-width="1.5" stroke-miterlimit="10"/>
<path d="M154.228 185C154.599 185 154.961 184.883 155.27 184.663C155.578 184.443 155.818 184.131 155.96 183.765C156.102 183.4 156.139 182.998 156.067 182.61C155.995 182.222 155.816 181.865 155.554 181.586C155.292 181.306 154.958 181.116 154.594 181.038C154.23 180.961 153.853 181.001 153.511 181.152C153.168 181.304 152.875 181.56 152.669 181.889C152.463 182.218 152.353 182.604 152.353 183C152.353 183.53 152.551 184.039 152.902 184.414C153.254 184.789 153.731 185 154.228 185Z" fill="white" stroke="#1F1A54" stroke-width="1.5" stroke-miterlimit="10"/>
<path d="M164.606 185C164.977 185 165.34 184.883 165.648 184.663C165.956 184.443 166.197 184.131 166.338 183.765C166.48 183.4 166.518 182.998 166.445 182.61C166.373 182.222 166.194 181.865 165.932 181.586C165.67 181.306 165.336 181.116 164.972 181.038C164.608 180.961 164.231 181.001 163.889 181.152C163.546 181.304 163.253 181.56 163.047 181.889C162.841 182.218 162.731 182.604 162.731 183C162.731 183.53 162.929 184.039 163.28 184.414C163.632 184.789 164.109 185 164.606 185Z" fill="white" stroke="#1F1A54" stroke-width="1.5" stroke-miterlimit="10"/>
<path d="M86.7656 196C87.1365 196 87.499 195.883 87.8073 195.663C88.1157 195.443 88.356 195.131 88.4979 194.765C88.6398 194.4 88.6769 193.998 88.6046 193.61C88.5322 193.222 88.3537 192.865 88.0914 192.586C87.8292 192.306 87.4951 192.116 87.1314 192.038C86.7677 191.961 86.3907 192.001 86.0481 192.152C85.7055 192.304 85.4126 192.56 85.2066 192.889C85.0006 193.218 84.8906 193.604 84.8906 194C84.8906 194.53 85.0882 195.039 85.4398 195.414C85.7914 195.789 86.2683 196 86.7656 196Z" fill="white" stroke="#1F1A54" stroke-width="1.5" stroke-miterlimit="10"/>
<path d="M97.1438 196C97.5146 196 97.8772 195.883 98.1855 195.663C98.4938 195.443 98.7342 195.131 98.8761 194.765C99.018 194.4 99.0551 193.998 98.9828 193.61C98.9104 193.222 98.7318 192.865 98.4696 192.586C98.2074 192.306 97.8733 192.116 97.5096 192.038C97.1459 191.961 96.7689 192.001 96.4263 192.152C96.0837 192.304 95.7908 192.56 95.5848 192.889C95.3788 193.218 95.2688 193.604 95.2688 194C95.2688 194.53 95.4663 195.039 95.818 195.414C96.1696 195.789 96.6465 196 97.1438 196Z" fill="white" stroke="#1F1A54" stroke-width="1.5" stroke-miterlimit="10"/>
<path d="M107.522 196C107.893 196 108.255 195.883 108.564 195.663C108.872 195.443 109.112 195.131 109.254 194.765C109.396 194.4 109.433 193.998 109.361 193.61C109.288 193.222 109.11 192.865 108.848 192.586C108.585 192.306 108.251 192.116 107.888 192.038C107.524 191.961 107.147 192.001 106.804 192.152C106.462 192.304 106.169 192.56 105.963 192.889C105.757 193.218 105.647 193.604 105.647 194C105.647 194.53 105.844 195.039 106.196 195.414C106.548 195.789 107.025 196 107.522 196Z" fill="white" stroke="#1F1A54" stroke-width="1.5" stroke-miterlimit="10"/>
<path d="M117.9 196C118.271 196 118.633 195.883 118.942 195.663C119.25 195.443 119.49 195.131 119.632 194.765C119.774 194.4 119.811 193.998 119.739 193.61C119.667 193.222 119.488 192.865 119.226 192.586C118.964 192.306 118.63 192.116 118.266 192.038C117.902 191.961 117.525 192.001 117.182 192.152C116.84 192.304 116.547 192.56 116.341 192.889C116.135 193.218 116.025 193.604 116.025 194C116.025 194.53 116.223 195.039 116.574 195.414C116.926 195.789 117.403 196 117.9 196Z" fill="white" stroke="#1F1A54" stroke-width="1.5" stroke-miterlimit="10"/>
<path d="M128.278 196C128.649 196 129.011 195.883 129.32 195.663C129.628 195.443 129.868 195.131 130.01 194.765C130.152 194.4 130.189 193.998 130.117 193.61C130.045 193.222 129.866 192.865 129.604 192.586C129.342 192.306 129.008 192.116 128.644 192.038C128.28 191.961 127.903 192.001 127.561 192.152C127.218 192.304 126.925 192.56 126.719 192.889C126.513 193.218 126.403 193.604 126.403 194C126.403 194.53 126.601 195.039 126.952 195.414C127.304 195.789 127.781 196 128.278 196Z" fill="white" stroke="#1F1A54" stroke-width="1.5" stroke-miterlimit="10"/>
<path d="M138.656 196C139.027 196 139.39 195.883 139.698 195.663C140.006 195.443 140.247 195.131 140.389 194.765C140.53 194.4 140.568 193.998 140.495 193.61C140.423 193.222 140.244 192.865 139.982 192.586C139.72 192.306 139.386 192.116 139.022 192.038C138.658 191.961 138.281 192.001 137.939 192.152C137.596 192.304 137.303 192.56 137.097 192.889C136.891 193.218 136.781 193.604 136.781 194C136.781 194.53 136.979 195.039 137.33 195.414C137.682 195.789 138.159 196 138.656 196Z" fill="white" stroke="#1F1A54" stroke-width="1.5" stroke-miterlimit="10"/>
<path d="M149.034 196.03C150.07 196.03 150.909 195.134 150.909 194.03C150.909 192.925 150.07 192.03 149.034 192.03C147.999 192.03 147.159 192.925 147.159 194.03C147.159 195.134 147.999 196.03 149.034 196.03Z" fill="white" stroke="#1F1A54" stroke-width="1.5" stroke-miterlimit="10"/>
<path d="M159.412 196C159.783 196 160.146 195.883 160.454 195.663C160.763 195.443 161.003 195.131 161.145 194.765C161.287 194.4 161.324 193.998 161.251 193.61C161.179 193.222 161.001 192.865 160.738 192.586C160.476 192.306 160.142 192.116 159.778 192.038C159.415 191.961 159.038 192.001 158.695 192.152C158.352 192.304 158.059 192.56 157.853 192.889C157.647 193.218 157.537 193.604 157.537 194C157.537 194.53 157.735 195.039 158.087 195.414C158.438 195.789 158.915 196 159.412 196Z" fill="white" stroke="#1F1A54" stroke-width="1.5" stroke-miterlimit="10"/>
<path d="M169.791 196C170.161 196 170.524 195.883 170.832 195.663C171.141 195.443 171.381 195.131 171.523 194.765C171.665 194.4 171.702 193.998 171.63 193.61C171.557 193.222 171.379 192.865 171.116 192.586C170.854 192.306 170.52 192.116 170.156 192.038C169.793 191.961 169.416 192.001 169.073 192.152C168.731 192.304 168.438 192.56 168.232 192.889C168.026 193.218 167.916 193.604 167.916 194C167.916 194.53 168.113 195.039 168.465 195.414C168.816 195.789 169.293 196 169.791 196Z" fill="white" stroke="#1F1A54" stroke-width="1.5" stroke-miterlimit="10"/>
<path d="M81.5813 207.1C81.9521 207.1 82.3147 206.983 82.623 206.763C82.9313 206.543 83.1717 206.231 83.3136 205.865C83.4555 205.5 83.4926 205.098 83.4203 204.71C83.3479 204.322 83.1693 203.966 82.9071 203.686C82.6449 203.406 82.3108 203.216 81.9471 203.139C81.5834 203.061 81.2064 203.101 80.8638 203.252C80.5212 203.404 80.2283 203.66 80.0223 203.989C79.8163 204.318 79.7063 204.705 79.7063 205.1C79.7063 205.631 79.9038 206.139 80.2555 206.514C80.6071 206.889 81.084 207.1 81.5813 207.1Z" fill="white" stroke="#1F1A54" stroke-width="1.5" stroke-miterlimit="10"/>
<path d="M91.9593 207.1C92.3302 207.1 92.6927 206.983 93.001 206.763C93.3094 206.543 93.5497 206.231 93.6916 205.865C93.8335 205.5 93.8707 205.098 93.7983 204.71C93.726 204.322 93.5474 203.966 93.2852 203.686C93.0229 203.406 92.6889 203.216 92.3251 203.139C91.9614 203.061 91.5844 203.101 91.2418 203.252C90.8992 203.404 90.6064 203.66 90.4003 203.989C90.1943 204.318 90.0844 204.705 90.0844 205.1C90.0844 205.631 90.2819 206.139 90.6335 206.514C90.9852 206.889 91.4621 207.1 91.9593 207.1Z" fill="white" stroke="#1F1A54" stroke-width="1.5" stroke-miterlimit="10"/>
<path d="M102.338 207.1C102.708 207.1 103.071 206.983 103.379 206.763C103.688 206.543 103.928 206.231 104.07 205.865C104.212 205.5 104.249 205.098 104.176 204.71C104.104 204.322 103.926 203.966 103.663 203.686C103.401 203.406 103.067 203.216 102.703 203.139C102.34 203.061 101.963 203.101 101.62 203.252C101.277 203.404 100.985 203.66 100.779 203.989C100.572 204.318 100.463 204.705 100.463 205.1C100.463 205.631 100.66 206.139 101.012 206.514C101.363 206.889 101.84 207.1 102.338 207.1Z" fill="white" stroke="#1F1A54" stroke-width="1.5" stroke-miterlimit="10"/>
<path d="M112.716 207.1C113.086 207.1 113.449 206.983 113.757 206.763C114.066 206.543 114.306 206.231 114.448 205.865C114.59 205.5 114.627 205.098 114.555 204.71C114.482 204.322 114.304 203.966 114.041 203.686C113.779 203.406 113.445 203.216 113.081 203.139C112.718 203.061 112.341 203.101 111.998 203.252C111.655 203.404 111.363 203.66 111.157 203.989C110.951 204.318 110.841 204.705 110.841 205.1C110.841 205.631 111.038 206.139 111.39 206.514C111.741 206.889 112.218 207.1 112.716 207.1Z" fill="white" stroke="#1F1A54" stroke-width="1.5" stroke-miterlimit="10"/>
<path d="M123.141 207.1C123.511 207.1 123.874 206.983 124.182 206.763C124.491 206.543 124.731 206.231 124.873 205.865C125.015 205.5 125.052 205.098 124.98 204.71C124.907 204.322 124.729 203.966 124.466 203.686C124.204 203.406 123.87 203.216 123.506 203.139C123.143 203.061 122.766 203.101 122.423 203.252C122.08 203.404 121.788 203.66 121.582 203.989C121.376 204.318 121.266 204.705 121.266 205.1C121.266 205.631 121.463 206.139 121.815 206.514C122.166 206.889 122.643 207.1 123.141 207.1Z" fill="white" stroke="#1F1A54" stroke-width="1.5" stroke-miterlimit="10"/>
<path d="M133.453 207.1C133.824 207.1 134.186 206.983 134.495 206.763C134.803 206.543 135.043 206.231 135.185 205.865C135.327 205.5 135.364 205.098 135.292 204.71C135.22 204.322 135.041 203.966 134.779 203.686C134.517 203.406 134.183 203.216 133.819 203.139C133.455 203.061 133.078 203.101 132.736 203.252C132.393 203.404 132.1 203.66 131.894 203.989C131.688 204.318 131.578 204.705 131.578 205.1C131.578 205.631 131.776 206.139 132.127 206.514C132.479 206.889 132.956 207.1 133.453 207.1Z" fill="white" stroke="#1F1A54" stroke-width="1.5" stroke-miterlimit="10"/>
<path d="M143.85 207.1C144.221 207.1 144.583 206.983 144.892 206.763C145.2 206.543 145.44 206.231 145.582 205.865C145.724 205.5 145.761 205.098 145.689 204.71C145.617 204.322 145.438 203.966 145.176 203.686C144.914 203.406 144.579 203.216 144.216 203.139C143.852 203.061 143.475 203.101 143.132 203.252C142.79 203.404 142.497 203.66 142.291 203.989C142.085 204.318 141.975 204.705 141.975 205.1C141.975 205.631 142.173 206.139 142.524 206.514C142.876 206.889 143.353 207.1 143.85 207.1Z" fill="white" stroke="#1F1A54" stroke-width="1.5" stroke-miterlimit="10"/>
<path d="M154.228 207.1C154.599 207.1 154.961 206.983 155.27 206.763C155.578 206.543 155.818 206.231 155.96 205.865C156.102 205.5 156.139 205.098 156.067 204.71C155.995 204.322 155.816 203.966 155.554 203.686C155.292 203.406 154.958 203.216 154.594 203.139C154.23 203.061 153.853 203.101 153.511 203.252C153.168 203.404 152.875 203.66 152.669 203.989C152.463 204.318 152.353 204.705 152.353 205.1C152.353 205.631 152.551 206.139 152.902 206.514C153.254 206.889 153.731 207.1 154.228 207.1Z" fill="white" stroke="#1F1A54" stroke-width="1.5" stroke-miterlimit="10"/>
<path d="M164.606 207.1C164.977 207.1 165.34 206.983 165.648 206.763C165.956 206.543 166.197 206.231 166.338 205.865C166.48 205.5 166.518 205.098 166.445 204.71C166.373 204.322 166.194 203.966 165.932 203.686C165.67 203.406 165.336 203.216 164.972 203.139C164.608 203.061 164.231 203.101 163.889 203.252C163.546 203.404 163.253 203.66 163.047 203.989C162.841 204.318 162.731 204.705 162.731 205.1C162.731 205.631 162.929 206.139 163.28 206.514C163.632 206.889 164.109 207.1 164.606 207.1Z" fill="white" stroke="#1F1A54" stroke-width="1.5" stroke-miterlimit="10"/>
<path d="M86.7656 218.17C87.1365 218.17 87.499 218.053 87.8073 217.833C88.1157 217.613 88.356 217.301 88.4979 216.935C88.6398 216.57 88.6769 216.168 88.6046 215.78C88.5322 215.392 88.3537 215.035 88.0914 214.756C87.8292 214.476 87.4951 214.286 87.1314 214.208C86.7677 214.131 86.3907 214.171 86.0481 214.322C85.7055 214.474 85.4126 214.73 85.2066 215.059C85.0006 215.388 84.8906 215.774 84.8906 216.17C84.8906 216.7 85.0882 217.209 85.4398 217.584C85.7914 217.959 86.2683 218.17 86.7656 218.17Z" fill="white" stroke="#1F1A54" stroke-width="1.5" stroke-miterlimit="10"/>
<path d="M97.1438 218.17C97.5146 218.17 97.8772 218.053 98.1855 217.833C98.4938 217.613 98.7342 217.301 98.8761 216.935C99.018 216.57 99.0551 216.168 98.9828 215.78C98.9104 215.392 98.7318 215.035 98.4696 214.756C98.2074 214.476 97.8733 214.286 97.5096 214.208C97.1459 214.131 96.7689 214.171 96.4263 214.322C96.0837 214.474 95.7908 214.73 95.5848 215.059C95.3788 215.388 95.2688 215.774 95.2688 216.17C95.2688 216.7 95.4663 217.209 95.818 217.584C96.1696 217.959 96.6465 218.17 97.1438 218.17Z" fill="white" stroke="#1F1A54" stroke-width="1.5" stroke-miterlimit="10"/>
<path d="M107.522 218.17C107.893 218.17 108.255 218.053 108.564 217.833C108.872 217.613 109.112 217.301 109.254 216.935C109.396 216.57 109.433 216.168 109.361 215.78C109.288 215.392 109.11 215.035 108.848 214.756C108.585 214.476 108.251 214.286 107.888 214.208C107.524 214.131 107.147 214.171 106.804 214.322C106.462 214.474 106.169 214.73 105.963 215.059C105.757 215.388 105.647 215.774 105.647 216.17C105.647 216.7 105.844 217.209 106.196 217.584C106.548 217.959 107.025 218.17 107.522 218.17Z" fill="white" stroke="#1F1A54" stroke-width="1.5" stroke-miterlimit="10"/>
<path d="M117.9 218.17C118.271 218.17 118.633 218.053 118.942 217.833C119.25 217.613 119.49 217.301 119.632 216.935C119.774 216.57 119.811 216.168 119.739 215.78C119.667 215.392 119.488 215.035 119.226 214.756C118.964 214.476 118.63 214.286 118.266 214.208C117.902 214.131 117.525 214.171 117.182 214.322C116.84 214.474 116.547 214.73 116.341 215.059C116.135 215.388 116.025 215.774 116.025 216.17C116.025 216.7 116.223 217.209 116.574 217.584C116.926 217.959 117.403 218.17 117.9 218.17Z" fill="white" stroke="#1F1A54" stroke-width="1.5" stroke-miterlimit="10"/>
<path d="M128.278 218.17C128.649 218.17 129.011 218.053 129.32 217.833C129.628 217.613 129.868 217.301 130.01 216.935C130.152 216.57 130.189 216.168 130.117 215.78C130.045 215.392 129.866 215.035 129.604 214.756C129.342 214.476 129.008 214.286 128.644 214.208C128.28 214.131 127.903 214.171 127.561 214.322C127.218 214.474 126.925 214.73 126.719 215.059C126.513 215.388 126.403 215.774 126.403 216.17C126.403 216.7 126.601 217.209 126.952 217.584C127.304 217.959 127.781 218.17 128.278 218.17Z" fill="white" stroke="#1F1A54" stroke-width="1.5" stroke-miterlimit="10"/>
<path d="M138.656 218.17C139.027 218.17 139.39 218.053 139.698 217.833C140.006 217.613 140.247 217.301 140.389 216.935C140.53 216.57 140.568 216.168 140.495 215.78C140.423 215.392 140.244 215.035 139.982 214.756C139.72 214.476 139.386 214.286 139.022 214.208C138.658 214.131 138.281 214.171 137.939 214.322C137.596 214.474 137.303 214.73 137.097 215.059C136.891 215.388 136.781 215.774 136.781 216.17C136.781 216.7 136.979 217.209 137.33 217.584C137.682 217.959 138.159 218.17 138.656 218.17Z" fill="white" stroke="#1F1A54" stroke-width="1.5" stroke-miterlimit="10"/>
<path d="M149.034 218.17C149.405 218.17 149.768 218.053 150.076 217.833C150.384 217.613 150.625 217.301 150.767 216.935C150.909 216.57 150.946 216.168 150.873 215.78C150.801 215.392 150.622 215.035 150.36 214.756C150.098 214.476 149.764 214.286 149.4 214.208C149.036 214.131 148.659 214.171 148.317 214.322C147.974 214.474 147.681 214.73 147.475 215.059C147.269 215.388 147.159 215.774 147.159 216.17C147.159 216.7 147.357 217.209 147.709 217.584C148.06 217.959 148.537 218.17 149.034 218.17Z" fill="white" stroke="#1F1A54" stroke-width="1.5" stroke-miterlimit="10"/>
<path d="M159.412 218.17C159.783 218.17 160.146 218.053 160.454 217.833C160.763 217.613 161.003 217.301 161.145 216.935C161.287 216.57 161.324 216.168 161.251 215.78C161.179 215.392 161.001 215.035 160.738 214.756C160.476 214.476 160.142 214.286 159.778 214.208C159.415 214.131 159.038 214.171 158.695 214.322C158.352 214.474 158.059 214.73 157.853 215.059C157.647 215.388 157.537 215.774 157.537 216.17C157.537 216.7 157.735 217.209 158.087 217.584C158.438 217.959 158.915 218.17 159.412 218.17Z" fill="white" stroke="#1F1A54" stroke-width="1.5" stroke-miterlimit="10"/>
<path d="M169.791 218.17C170.161 218.17 170.524 218.053 170.832 217.833C171.141 217.613 171.381 217.301 171.523 216.935C171.665 216.57 171.702 216.168 171.63 215.78C171.557 215.392 171.379 215.035 171.116 214.756C170.854 214.476 170.52 214.286 170.156 214.208C169.793 214.131 169.416 214.171 169.073 214.322C168.731 214.474 168.438 214.73 168.232 215.059C168.026 215.388 167.916 215.774 167.916 216.17C167.916 216.7 168.113 217.209 168.465 217.584C168.816 217.959 169.293 218.17 169.791 218.17Z" fill="white" stroke="#1F1A54" stroke-width="1.5" stroke-miterlimit="10"/>
<path d="M81.5813 229.24C81.9521 229.24 82.3147 229.122 82.623 228.903C82.9313 228.683 83.1717 228.371 83.3136 228.005C83.4555 227.64 83.4926 227.238 83.4203 226.85C83.3479 226.462 83.1693 226.105 82.9071 225.826C82.6449 225.546 82.3108 225.355 81.9471 225.278C81.5834 225.201 81.2064 225.241 80.8638 225.392C80.5212 225.543 80.2283 225.8 80.0223 226.129C79.8163 226.458 79.7063 226.844 79.7063 227.24C79.7063 227.77 79.9038 228.279 80.2555 228.654C80.6071 229.029 81.084 229.24 81.5813 229.24Z" fill="white" stroke="#1F1A54" stroke-width="1.5" stroke-miterlimit="10"/>
<path d="M91.9593 229.24C92.3302 229.24 92.6927 229.122 93.001 228.903C93.3094 228.683 93.5497 228.371 93.6916 228.005C93.8335 227.64 93.8707 227.238 93.7983 226.85C93.726 226.462 93.5474 226.105 93.2852 225.826C93.0229 225.546 92.6889 225.355 92.3251 225.278C91.9614 225.201 91.5844 225.241 91.2418 225.392C90.8992 225.543 90.6064 225.8 90.4003 226.129C90.1943 226.458 90.0844 226.844 90.0844 227.24C90.0844 227.77 90.2819 228.279 90.6335 228.654C90.9852 229.029 91.4621 229.24 91.9593 229.24Z" fill="white" stroke="#1F1A54" stroke-width="1.5" stroke-miterlimit="10"/>
<path d="M102.338 229.24C102.708 229.24 103.071 229.122 103.379 228.903C103.688 228.683 103.928 228.371 104.07 228.005C104.212 227.64 104.249 227.238 104.176 226.85C104.104 226.462 103.926 226.105 103.663 225.826C103.401 225.546 103.067 225.355 102.703 225.278C102.34 225.201 101.963 225.241 101.62 225.392C101.277 225.543 100.985 225.8 100.779 226.129C100.572 226.458 100.463 226.844 100.463 227.24C100.463 227.77 100.66 228.279 101.012 228.654C101.363 229.029 101.84 229.24 102.338 229.24Z" fill="white" stroke="#1F1A54" stroke-width="1.5" stroke-miterlimit="10"/>
<path d="M112.716 229.24C113.086 229.24 113.449 229.122 113.757 228.903C114.066 228.683 114.306 228.371 114.448 228.005C114.59 227.64 114.627 227.238 114.555 226.85C114.482 226.462 114.304 226.105 114.041 225.826C113.779 225.546 113.445 225.355 113.081 225.278C112.718 225.201 112.341 225.241 111.998 225.392C111.655 225.543 111.363 225.8 111.157 226.129C110.951 226.458 110.841 226.844 110.841 227.24C110.841 227.77 111.038 228.279 111.39 228.654C111.741 229.029 112.218 229.24 112.716 229.24Z" fill="white" stroke="#1F1A54" stroke-width="1.5" stroke-miterlimit="10"/>
<path d="M123.141 229.24C123.511 229.24 123.874 229.122 124.182 228.903C124.491 228.683 124.731 228.371 124.873 228.005C125.015 227.64 125.052 227.238 124.98 226.85C124.907 226.462 124.729 226.105 124.466 225.826C124.204 225.546 123.87 225.355 123.506 225.278C123.143 225.201 122.766 225.241 122.423 225.392C122.08 225.543 121.788 225.8 121.582 226.129C121.376 226.458 121.266 226.844 121.266 227.24C121.266 227.77 121.463 228.279 121.815 228.654C122.166 229.029 122.643 229.24 123.141 229.24Z" fill="white" stroke="#1F1A54" stroke-width="1.5" stroke-miterlimit="10"/>
<path d="M133.453 229.24C133.824 229.24 134.186 229.122 134.495 228.903C134.803 228.683 135.043 228.371 135.185 228.005C135.327 227.64 135.364 227.238 135.292 226.85C135.22 226.462 135.041 226.105 134.779 225.826C134.517 225.546 134.183 225.355 133.819 225.278C133.455 225.201 133.078 225.241 132.736 225.392C132.393 225.543 132.1 225.8 131.894 226.129C131.688 226.458 131.578 226.844 131.578 227.24C131.578 227.77 131.776 228.279 132.127 228.654C132.479 229.029 132.956 229.24 133.453 229.24Z" fill="white" stroke="#1F1A54" stroke-width="1.5" stroke-miterlimit="10"/>
<path d="M143.85 229.24C144.221 229.24 144.583 229.122 144.892 228.903C145.2 228.683 145.44 228.371 145.582 228.005C145.724 227.64 145.761 227.238 145.689 226.85C145.617 226.462 145.438 226.105 145.176 225.826C144.914 225.546 144.579 225.355 144.216 225.278C143.852 225.201 143.475 225.241 143.132 225.392C142.79 225.543 142.497 225.8 142.291 226.129C142.085 226.458 141.975 226.844 141.975 227.24C141.975 227.77 142.173 228.279 142.524 228.654C142.876 229.029 143.353 229.24 143.85 229.24Z" fill="white" stroke="#1F1A54" stroke-width="1.5" stroke-miterlimit="10"/>
<path d="M154.228 229.24C154.599 229.24 154.961 229.122 155.27 228.903C155.578 228.683 155.818 228.371 155.96 228.005C156.102 227.64 156.139 227.238 156.067 226.85C155.995 226.462 155.816 226.105 155.554 225.826C155.292 225.546 154.958 225.355 154.594 225.278C154.23 225.201 153.853 225.241 153.511 225.392C153.168 225.543 152.875 225.8 152.669 226.129C152.463 226.458 152.353 226.844 152.353 227.24C152.353 227.77 152.551 228.279 152.902 228.654C153.254 229.029 153.731 229.24 154.228 229.24Z" fill="white" stroke="#1F1A54" stroke-width="1.5" stroke-miterlimit="10"/>
<path d="M164.606 229.24C164.977 229.24 165.34 229.122 165.648 228.903C165.956 228.683 166.197 228.371 166.338 228.005C166.48 227.64 166.518 227.238 166.445 226.85C166.373 226.462 166.194 226.105 165.932 225.826C165.67 225.546 165.336 225.355 164.972 225.278C164.608 225.201 164.231 225.241 163.889 225.392C163.546 225.543 163.253 225.8 163.047 226.129C162.841 226.458 162.731 226.844 162.731 227.24C162.731 227.77 162.929 228.279 163.28 228.654C163.632 229.029 164.109 229.24 164.606 229.24Z" fill="white" stroke="#1F1A54" stroke-width="1.5" stroke-miterlimit="10"/>
<path d="M86.7656 240.31C87.1365 240.31 87.499 240.193 87.8073 239.973C88.1157 239.753 88.356 239.441 88.4979 239.075C88.6398 238.71 88.6769 238.308 88.6046 237.92C88.5322 237.532 88.3537 237.176 88.0914 236.896C87.8292 236.616 87.4951 236.426 87.1314 236.348C86.7677 236.271 86.3907 236.311 86.0481 236.462C85.7055 236.614 85.4126 236.87 85.2066 237.199C85.0006 237.528 84.8906 237.914 84.8906 238.31C84.8906 238.84 85.0882 239.349 85.4398 239.724C85.7914 240.099 86.2683 240.31 86.7656 240.31Z" fill="white" stroke="#1F1A54" stroke-width="1.5" stroke-miterlimit="10"/>
<path d="M97.1438 240.31C97.5146 240.31 97.8772 240.193 98.1855 239.973C98.4938 239.753 98.7342 239.441 98.8761 239.075C99.018 238.71 99.0551 238.308 98.9828 237.92C98.9104 237.532 98.7318 237.176 98.4696 236.896C98.2074 236.616 97.8733 236.426 97.5096 236.348C97.1459 236.271 96.7689 236.311 96.4263 236.462C96.0837 236.614 95.7908 236.87 95.5848 237.199C95.3788 237.528 95.2688 237.914 95.2688 238.31C95.2688 238.84 95.4663 239.349 95.818 239.724C96.1696 240.099 96.6465 240.31 97.1438 240.31Z" fill="white" stroke="#1F1A54" stroke-width="1.5" stroke-miterlimit="10"/>
<path d="M107.522 240.31C107.893 240.31 108.255 240.193 108.564 239.973C108.872 239.753 109.112 239.441 109.254 239.075C109.396 238.71 109.433 238.308 109.361 237.92C109.288 237.532 109.11 237.176 108.848 236.896C108.585 236.616 108.251 236.426 107.888 236.348C107.524 236.271 107.147 236.311 106.804 236.462C106.462 236.614 106.169 236.87 105.963 237.199C105.757 237.528 105.647 237.914 105.647 238.31C105.647 238.84 105.844 239.349 106.196 239.724C106.548 240.099 107.025 240.31 107.522 240.31Z" fill="white" stroke="#1F1A54" stroke-width="1.5" stroke-miterlimit="10"/>
<path d="M117.9 240.31C118.271 240.31 118.633 240.193 118.942 239.973C119.25 239.753 119.49 239.441 119.632 239.075C119.774 238.71 119.811 238.308 119.739 237.92C119.667 237.532 119.488 237.176 119.226 236.896C118.964 236.616 118.63 236.426 118.266 236.348C117.902 236.271 117.525 236.311 117.182 236.462C116.84 236.614 116.547 236.87 116.341 237.199C116.135 237.528 116.025 237.914 116.025 238.31C116.025 238.84 116.223 239.349 116.574 239.724C116.926 240.099 117.403 240.31 117.9 240.31Z" fill="white" stroke="#1F1A54" stroke-width="1.5" stroke-miterlimit="10"/>
<path d="M128.278 240.31C128.649 240.31 129.011 240.193 129.32 239.973C129.628 239.753 129.868 239.441 130.01 239.075C130.152 238.71 130.189 238.308 130.117 237.92C130.045 237.532 129.866 237.176 129.604 236.896C129.342 236.616 129.008 236.426 128.644 236.348C128.28 236.271 127.903 236.311 127.561 236.462C127.218 236.614 126.925 236.87 126.719 237.199C126.513 237.528 126.403 237.914 126.403 238.31C126.403 238.84 126.601 239.349 126.952 239.724C127.304 240.099 127.781 240.31 128.278 240.31Z" fill="white" stroke="#1F1A54" stroke-width="1.5" stroke-miterlimit="10"/>
<path d="M138.656 240.31C139.027 240.31 139.39 240.193 139.698 239.973C140.006 239.753 140.247 239.441 140.389 239.075C140.53 238.71 140.568 238.308 140.495 237.92C140.423 237.532 140.244 237.176 139.982 236.896C139.72 236.616 139.386 236.426 139.022 236.348C138.658 236.271 138.281 236.311 137.939 236.462C137.596 236.614 137.303 236.87 137.097 237.199C136.891 237.528 136.781 237.914 136.781 238.31C136.781 238.84 136.979 239.349 137.33 239.724C137.682 240.099 138.159 240.31 138.656 240.31Z" fill="white" stroke="#1F1A54" stroke-width="1.5" stroke-miterlimit="10"/>
<path d="M149.034 240.31C149.405 240.31 149.768 240.193 150.076 239.973C150.384 239.753 150.625 239.441 150.767 239.075C150.909 238.71 150.946 238.308 150.873 237.92C150.801 237.532 150.622 237.176 150.36 236.896C150.098 236.616 149.764 236.426 149.4 236.348C149.036 236.271 148.659 236.311 148.317 236.462C147.974 236.614 147.681 236.87 147.475 237.199C147.269 237.528 147.159 237.914 147.159 238.31C147.159 238.84 147.357 239.349 147.709 239.724C148.06 240.099 148.537 240.31 149.034 240.31Z" fill="white" stroke="#1F1A54" stroke-width="1.5" stroke-miterlimit="10"/>
<path d="M159.412 240.31C159.783 240.31 160.146 240.193 160.454 239.973C160.763 239.753 161.003 239.441 161.145 239.075C161.287 238.71 161.324 238.308 161.251 237.92C161.179 237.532 161.001 237.176 160.738 236.896C160.476 236.616 160.142 236.426 159.778 236.348C159.415 236.271 159.038 236.311 158.695 236.462C158.352 236.614 158.059 236.87 157.853 237.199C157.647 237.528 157.537 237.914 157.537 238.31C157.537 238.84 157.735 239.349 158.087 239.724C158.438 240.099 158.915 240.31 159.412 240.31Z" fill="white" stroke="#1F1A54" stroke-width="1.5" stroke-miterlimit="10"/>
<path d="M169.791 240.31C170.161 240.31 170.524 240.193 170.832 239.973C171.141 239.753 171.381 239.441 171.523 239.075C171.665 238.71 171.702 238.308 171.63 237.92C171.557 237.532 171.379 237.176 171.116 236.896C170.854 236.616 170.52 236.426 170.156 236.348C169.793 236.271 169.416 236.311 169.073 236.462C168.731 236.614 168.438 236.87 168.232 237.199C168.026 237.528 167.916 237.914 167.916 238.31C167.916 238.84 168.113 239.349 168.465 239.724C168.816 240.099 169.293 240.31 169.791 240.31Z" fill="white" stroke="#1F1A54" stroke-width="1.5" stroke-miterlimit="10"/>
<path d="M81.5813 251.38C82.6168 251.38 83.4563 250.484 83.4563 249.38C83.4563 248.275 82.6168 247.38 81.5813 247.38C80.5458 247.38 79.7063 248.275 79.7063 249.38C79.7063 250.484 80.5458 251.38 81.5813 251.38Z" fill="white" stroke="#1F1A54" stroke-width="1.5" stroke-miterlimit="10"/>
<path d="M91.9593 251.38C92.3302 251.38 92.6927 251.263 93.001 251.043C93.3094 250.823 93.5497 250.511 93.6916 250.145C93.8335 249.78 93.8707 249.378 93.7983 248.99C93.726 248.602 93.5474 248.245 93.2852 247.966C93.0229 247.686 92.6889 247.495 92.3251 247.418C91.9614 247.341 91.5844 247.381 91.2418 247.532C90.8992 247.684 90.6064 247.94 90.4003 248.269C90.1943 248.598 90.0844 248.984 90.0844 249.38C90.0844 249.91 90.2819 250.419 90.6335 250.794C90.9852 251.169 91.4621 251.38 91.9593 251.38Z" fill="white" stroke="#1F1A54" stroke-width="1.5" stroke-miterlimit="10"/>
<path d="M102.338 251.38C102.708 251.38 103.071 251.263 103.379 251.043C103.688 250.823 103.928 250.511 104.07 250.145C104.212 249.78 104.249 249.378 104.176 248.99C104.104 248.602 103.926 248.245 103.663 247.966C103.401 247.686 103.067 247.495 102.703 247.418C102.34 247.341 101.963 247.381 101.62 247.532C101.277 247.684 100.985 247.94 100.779 248.269C100.572 248.598 100.463 248.984 100.463 249.38C100.463 249.91 100.66 250.419 101.012 250.794C101.363 251.169 101.84 251.38 102.338 251.38Z" fill="white" stroke="#1F1A54" stroke-width="1.5" stroke-miterlimit="10"/>
<path d="M112.716 251.38C113.086 251.38 113.449 251.263 113.757 251.043C114.066 250.823 114.306 250.511 114.448 250.145C114.59 249.78 114.627 249.378 114.555 248.99C114.482 248.602 114.304 248.245 114.041 247.966C113.779 247.686 113.445 247.495 113.081 247.418C112.718 247.341 112.341 247.381 111.998 247.532C111.655 247.684 111.363 247.94 111.157 248.269C110.951 248.598 110.841 248.984 110.841 249.38C110.841 249.91 111.038 250.419 111.39 250.794C111.741 251.169 112.218 251.38 112.716 251.38Z" fill="white" stroke="#1F1A54" stroke-width="1.5" stroke-miterlimit="10"/>
<path d="M123.141 251.38C123.511 251.38 123.874 251.263 124.182 251.043C124.491 250.823 124.731 250.511 124.873 250.145C125.015 249.78 125.052 249.378 124.98 248.99C124.907 248.602 124.729 248.245 124.466 247.966C124.204 247.686 123.87 247.495 123.506 247.418C123.143 247.341 122.766 247.381 122.423 247.532C122.08 247.684 121.788 247.94 121.582 248.269C121.376 248.598 121.266 248.984 121.266 249.38C121.266 249.91 121.463 250.419 121.815 250.794C122.166 251.169 122.643 251.38 123.141 251.38Z" fill="white" stroke="#1F1A54" stroke-width="1.5" stroke-miterlimit="10"/>
<path d="M133.453 251.38C133.824 251.38 134.186 251.263 134.495 251.043C134.803 250.823 135.043 250.511 135.185 250.145C135.327 249.78 135.364 249.378 135.292 248.99C135.22 248.602 135.041 248.245 134.779 247.966C134.517 247.686 134.183 247.495 133.819 247.418C133.455 247.341 133.078 247.381 132.736 247.532C132.393 247.684 132.1 247.94 131.894 248.269C131.688 248.598 131.578 248.984 131.578 249.38C131.578 249.91 131.776 250.419 132.127 250.794C132.479 251.169 132.956 251.38 133.453 251.38Z" fill="white" stroke="#1F1A54" stroke-width="1.5" stroke-miterlimit="10"/>
<path d="M143.85 251.38C144.221 251.38 144.583 251.263 144.892 251.043C145.2 250.823 145.44 250.511 145.582 250.145C145.724 249.78 145.761 249.378 145.689 248.99C145.617 248.602 145.438 248.245 145.176 247.966C144.914 247.686 144.579 247.495 144.216 247.418C143.852 247.341 143.475 247.381 143.132 247.532C142.79 247.684 142.497 247.94 142.291 248.269C142.085 248.598 141.975 248.984 141.975 249.38C141.975 249.91 142.173 250.419 142.524 250.794C142.876 251.169 143.353 251.38 143.85 251.38Z" fill="white" stroke="#1F1A54" stroke-width="1.5" stroke-miterlimit="10"/>
<path d="M154.228 251.38C154.599 251.38 154.961 251.263 155.27 251.043C155.578 250.823 155.818 250.511 155.96 250.145C156.102 249.78 156.139 249.378 156.067 248.99C155.995 248.602 155.816 248.245 155.554 247.966C155.292 247.686 154.958 247.495 154.594 247.418C154.23 247.341 153.853 247.381 153.511 247.532C153.168 247.684 152.875 247.94 152.669 248.269C152.463 248.598 152.353 248.984 152.353 249.38C152.353 249.91 152.551 250.419 152.902 250.794C153.254 251.169 153.731 251.38 154.228 251.38Z" fill="white" stroke="#1F1A54" stroke-width="1.5" stroke-miterlimit="10"/>
<path d="M164.606 251.38C164.977 251.38 165.34 251.263 165.648 251.043C165.956 250.823 166.197 250.511 166.338 250.145C166.48 249.78 166.518 249.378 166.445 248.99C166.373 248.602 166.194 248.245 165.932 247.966C165.67 247.686 165.336 247.495 164.972 247.418C164.608 247.341 164.231 247.381 163.889 247.532C163.546 247.684 163.253 247.94 163.047 248.269C162.841 248.598 162.731 248.984 162.731 249.38C162.731 249.91 162.929 250.419 163.28 250.794C163.632 251.169 164.109 251.38 164.606 251.38Z" fill="white" stroke="#1F1A54" stroke-width="1.5" stroke-miterlimit="10"/>
</g>
<path d="M108 155.979L114.938 170.639L118.453 182.349" stroke="#FFD400" stroke-width="0.5" stroke-linecap="round" stroke-linejoin="round"/>
<path d="M316.575 188.42H235.078V245.35H316.575V188.42Z" fill="#FFD400" stroke="#1F1A54" stroke-width="0.8" stroke-linecap="round" stroke-linejoin="round"/>
<path d="M285.609 188.56H266.034V210.53H285.609V188.56Z" fill="#1F1A54"/>
<path d="M285.619 148.01H235.078V188.49H285.619V148.01Z" fill="#FFD400" stroke="#1F1A54" stroke-width="0.8" stroke-linecap="round" stroke-linejoin="round"/>
<path d="M306.563 166.07H285.619V188.41H306.563V166.07Z" fill="#FFD400" stroke="#1F1A54" stroke-width="0.8" stroke-linecap="round" stroke-linejoin="round"/>
<path d="M327.759 245.35H223.894V250.22H327.759V245.35Z" fill="#1F1A54" stroke="#1F1A54" stroke-linejoin="round"/>
<path d="M236.1 261.42H228.103V250.7H245.485L236.1 261.42Z" fill="#1F1A54" stroke="#1F1A54" stroke-linejoin="round"/>
<path d="M232.106 269.709C236.642 269.709 240.319 265.787 240.319 260.949C240.319 256.111 236.642 252.189 232.106 252.189C227.571 252.189 223.894 256.111 223.894 260.949C223.894 265.787 227.571 269.709 232.106 269.709Z" fill="white" stroke="#1F1A54" stroke-width="0.8" stroke-linecap="round" stroke-linejoin="round"/>
<path d="M232.106 265.22C234.317 265.22 236.11 263.308 236.11 260.95C236.11 258.591 234.317 256.68 232.106 256.68C229.896 256.68 228.103 258.591 228.103 260.95C228.103 263.308 229.896 265.22 232.106 265.22Z" stroke="#1F1A54" stroke-width="0.8" stroke-linecap="round" stroke-linejoin="round"/>
<path d="M229.434 261C229.43 260.437 229.587 259.885 229.884 259.42" stroke="#1F1A54" stroke-width="0.8" stroke-linecap="round" stroke-linejoin="round"/>
<path d="M232.481 263.77C232.357 263.78 232.231 263.78 232.106 263.77C231.62 263.768 231.144 263.626 230.728 263.359C230.312 263.091 229.972 262.707 229.744 262.25" stroke="#1F1A54" stroke-width="0.8" stroke-linecap="round" stroke-linejoin="round"/>
<path d="M315.553 261.42H323.55V250.7H306.178L315.553 261.42Z" fill="#1F1A54" stroke="#1F1A54" stroke-linejoin="round"/>
<path d="M319.547 269.709C324.083 269.709 327.759 265.787 327.759 260.949C327.759 256.111 324.083 252.189 319.547 252.189C315.011 252.189 311.334 256.111 311.334 260.949C311.334 265.787 315.011 269.709 319.547 269.709Z" fill="white" stroke="#1F1A54" stroke-width="0.8" stroke-linecap="round" stroke-linejoin="round"/>
<path d="M319.547 265.22C321.758 265.22 323.55 263.308 323.55 260.95C323.55 258.591 321.758 256.68 319.547 256.68C317.336 256.68 315.544 258.591 315.544 260.95C315.544 263.308 317.336 265.22 319.547 265.22Z" stroke="#1F1A54" stroke-width="0.8" stroke-linecap="round" stroke-linejoin="round"/>
<path d="M316.875 261C316.874 260.437 317.031 259.887 317.325 259.42" stroke="#1F1A54" stroke-width="0.8" stroke-linecap="round" stroke-linejoin="round"/>
<path d="M319.922 263.77H319.556C319.069 263.769 318.591 263.627 318.173 263.36C317.755 263.092 317.414 262.708 317.184 262.25" stroke="#1F1A54" stroke-width="0.8" stroke-linecap="round" stroke-linejoin="round"/>
<path d="M181.463 147.82C181.281 147.446 181.028 147.117 180.719 146.855C180.41 146.593 180.054 146.402 179.672 146.297C179.29 146.191 178.891 146.172 178.502 146.242C178.113 146.311 177.741 146.467 177.413 146.7L165.45 155.06C165.118 155.288 164.836 155.589 164.62 155.942C164.405 156.295 164.261 156.692 164.2 157.109C164.138 157.525 164.159 157.95 164.261 158.357C164.363 158.763 164.545 159.143 164.794 159.47C168.3 163.963 172.984 167.236 178.247 168.87L181.322 169.82L183.759 168.12L184.172 164.72C184.872 158.924 183.929 153.038 181.463 147.82ZM181.378 164.34L181.134 166.34L180.872 166.52L178.997 165.96C174.652 164.614 170.739 162.016 167.691 158.45C167.595 158.334 167.524 158.197 167.483 158.049C167.441 157.901 167.43 157.745 167.451 157.592C167.471 157.439 167.523 157.292 167.601 157.162C167.68 157.033 167.784 156.922 167.906 156.84L177.966 149.84C178.086 149.755 178.222 149.699 178.364 149.675C178.507 149.651 178.653 149.66 178.791 149.702C178.93 149.744 179.059 149.817 179.169 149.917C179.279 150.016 179.367 150.14 179.428 150.28C181.29 154.682 181.965 159.551 181.378 164.34Z" fill="#1F1A54" stroke="#1F1A54" stroke-width="0.8" stroke-linecap="round" stroke-linejoin="round"/>
<path d="M184.028 167.942L181.055 170.019L225.315 242.082L228.287 240.005L184.028 167.942Z" fill="#FFD400" stroke="#1F1A54" stroke-width="0.8" stroke-linecap="round" stroke-linejoin="round"/>
<path d="M177.652 151.864C178.404 151.343 178.324 149.791 177.475 148.397C176.626 147.003 175.329 146.295 174.578 146.815C173.827 147.336 173.906 148.888 174.755 150.282C175.604 151.676 176.901 152.384 177.652 151.864Z" fill="white" stroke="#1F1A54" stroke-width="0.8" stroke-linecap="round" stroke-linejoin="round"/>
<path d="M175.32 154.238C176.055 153.732 175.805 151.923 174.761 150.196C173.717 148.47 172.275 147.48 171.539 147.986C170.804 148.492 171.054 150.302 172.098 152.028C173.142 153.755 174.585 154.744 175.32 154.238Z" fill="white" stroke="#1F1A54" stroke-width="0.8" stroke-linecap="round" stroke-linejoin="round"/>
<path d="M172.041 152C173.11 153.77 174.131 155.11 172.481 156.24C171.216 157.11 170.11 155.84 169.041 154.06C167.972 152.28 166.978 150.06 168.216 149.19C169.819 148 170.953 150.18 172.041 152Z" fill="white" stroke="#1F1A54" stroke-width="0.8" stroke-linecap="round" stroke-linejoin="round"/>
<path d="M169.24 157.527C169.993 157.009 169.825 155.302 168.865 153.715C167.906 152.128 166.517 151.261 165.765 151.779C165.012 152.296 165.18 154.003 166.139 155.59C167.099 157.178 168.487 158.045 169.24 157.527Z" fill="white" stroke="#1F1A54" stroke-width="0.8" stroke-linecap="round" stroke-linejoin="round"/>
<path d="M227.156 235.65C228.022 235.65 228.851 236.016 229.463 236.669C230.075 237.322 230.419 238.207 230.419 239.13V245.35H223.856V239.13C223.856 238.669 223.942 238.213 224.108 237.789C224.275 237.364 224.518 236.978 224.825 236.655C225.132 236.331 225.496 236.075 225.896 235.903C226.296 235.73 226.725 235.644 227.156 235.65Z" fill="#FFD400" stroke="#1F1A54" stroke-width="0.8" stroke-linecap="round" stroke-linejoin="round"/>
<path d="M227.156 240.09C227.653 240.09 228.056 239.66 228.056 239.13C228.056 238.6 227.653 238.17 227.156 238.17C226.659 238.17 226.256 238.6 226.256 239.13C226.256 239.66 226.659 240.09 227.156 240.09Z" fill="#1F1A54" stroke="#1F1A54" stroke-linejoin="round"/>
<path d="M217.453 92.0498L219.291 92.4798" stroke="#1F1A54" stroke-width="0.8" stroke-linecap="round" stroke-linejoin="round"/>
<path d="M219.291 92.4795L221.672 93.0395" stroke="#1F1A54" stroke-width="0.8" stroke-linecap="round" stroke-linejoin="round"/>
<path d="M222.591 93.2495L233.766 95.8695L242.034 92.4995" stroke="#1F1A54" stroke-width="0.8" stroke-linecap="round" stroke-linejoin="round"/>
<path d="M242.034 92.4995L243.788 91.7896V93.7896" stroke="#1F1A54" stroke-width="0.8" stroke-linecap="round" stroke-linejoin="round"/>
<path d="M243.788 93.7896V96.5695" stroke="#1F1A54" stroke-width="0.8" stroke-linecap="round" stroke-linejoin="round"/>
<path d="M243.788 97.5698V112.71" stroke="#1F1A54" stroke-width="0.8" stroke-linecap="round" stroke-linejoin="round"/>
<path d="M243.788 112.709V114.709L245.588 114.169" stroke="#1F1A54" stroke-width="0.8" stroke-linecap="round" stroke-linejoin="round"/>
<path d="M245.588 114.17L248.925 113.16" stroke="#1F1A54" stroke-width="0.8" stroke-linecap="round" stroke-linejoin="round"/>
<path d="M249.825 112.89L258.291 110.33" stroke="#1F1A54" stroke-width="0.8" stroke-linecap="round" stroke-linejoin="round"/>
<path d="M258.291 110.33L260.1 109.79" stroke="#1F1A54" stroke-width="0.8" stroke-linecap="round" stroke-linejoin="round"/>
<path d="M223.453 80.6696C223.453 84.2196 217.444 91.7596 217.444 91.7596C217.444 91.7596 211.425 84.2196 211.425 80.6696C211.486 79.0121 212.147 77.4442 213.268 76.2946C214.389 75.145 215.884 74.5029 217.439 74.5029C218.994 74.5029 220.489 75.145 221.61 76.2946C222.731 77.4442 223.392 79.0121 223.453 80.6696Z" fill="#1F1A54" stroke="#1F1A54" stroke-width="0.8" stroke-linecap="round" stroke-linejoin="round"/>
<path d="M217.453 82.8098C218.556 82.8098 219.45 81.8562 219.45 80.6798C219.45 79.5034 218.556 78.5498 217.453 78.5498C216.35 78.5498 215.456 79.5034 215.456 80.6798C215.456 81.8562 216.35 82.8098 217.453 82.8098Z" fill="white" stroke="#1F1A54" stroke-width="0.8" stroke-linecap="round" stroke-linejoin="round"/>
<path d="M259.397 100.8C259.397 104.34 253.378 111.89 253.378 111.89C253.378 111.89 247.359 104.34 247.359 100.8C247.359 99.0972 247.993 97.4642 249.122 96.2603C250.251 95.0563 251.782 94.3799 253.378 94.3799C254.974 94.3799 256.505 95.0563 257.634 96.2603C258.763 97.4642 259.397 99.0972 259.397 100.8Z" fill="#1F1A54" stroke="#1F1A54" stroke-width="0.8" stroke-linecap="round" stroke-linejoin="round"/>
<path d="M253.378 102.93C254.481 102.93 255.375 101.976 255.375 100.8C255.375 99.6236 254.481 98.6699 253.378 98.6699C252.275 98.6699 251.381 99.6236 251.381 100.8C251.381 101.976 252.275 102.93 253.378 102.93Z" fill="white" stroke="#1F1A54" stroke-width="0.8" stroke-linecap="round" stroke-linejoin="round"/>
<path d="M283.838 71.2198C283.838 74.7698 277.819 82.3098 277.819 82.3098C277.819 82.3098 271.8 74.7698 271.8 71.2198C271.8 69.5171 272.434 67.8842 273.563 66.6802C274.692 65.4762 276.223 64.7998 277.819 64.7998C279.415 64.7998 280.946 65.4762 282.075 66.6802C283.203 67.8842 283.838 69.5171 283.838 71.2198Z" fill="#1F1A54" stroke="#1F1A54" stroke-width="0.8" stroke-linecap="round" stroke-linejoin="round"/>
<path d="M277.819 73.3498C278.922 73.3498 279.816 72.3962 279.816 71.2198C279.816 70.0435 278.922 69.0898 277.819 69.0898C276.716 69.0898 275.822 70.0435 275.822 71.2198C275.822 72.3962 276.716 73.3498 277.819 73.3498Z" fill="white" stroke="#1F1A54" stroke-width="0.8" stroke-linecap="round" stroke-linejoin="round"/>
<path d="M260.1 109.79L277.819 115.83V82.3096" stroke="#1F1A54" stroke-width="0.8" stroke-linecap="round" stroke-linejoin="round"/>
<path d="M266.034 148.01H256.247V167.49H266.034V148.01Z" fill="#1F1A54"/>
</svg>
