<svg width="375" height="300" viewBox="0 0 375 300" fill="none" xmlns="http://www.w3.org/2000/svg">
<g clip-path="url(#clip0)">
<path d="M0 183.861C13.7385 174.862 26.7072 167.863 35.4662 166.373C46.0751 164.583 58.4638 168.763 63.1733 178.372C65.233 182.542 66.4029 190.441 64.1732 195.51C61.1735 202.179 53.7343 205.189 49.5447 200.73C39.6158 190.161 61.3335 173.732 75.4619 170.483C89.5904 167.233 104.299 170.863 118.347 174.482C138.145 179.592 157.523 186.791 177.741 189.821C246.474 200.1 330.075 168.233 323.945 147.375C321.706 139.736 313.307 138.126 306.877 142.686C301.978 146.175 300.988 155.754 305.417 161.154C314.896 172.713 339.064 173.642 371.69 164.983C372.77 164.693 373.88 164.423 375 164.174" stroke="white" stroke-width="1.8" stroke-miterlimit="10" stroke-linecap="round" stroke-dasharray="0 6 6 0"/>
<path d="M109.108 269.382C144.903 269.382 173.921 268.004 173.921 266.303C173.921 264.602 144.903 263.223 109.108 263.223C73.3129 263.223 44.295 264.602 44.295 266.303C44.295 268.004 73.3129 269.382 109.108 269.382Z" fill="#FFEB86" fill-opacity="0.6"/>
<path d="M263.802 267.882C299.597 267.882 328.615 266.504 328.615 264.803C328.615 263.102 299.597 261.723 263.802 261.723C228.006 261.723 198.989 263.102 198.989 264.803C198.989 266.504 228.006 267.882 263.802 267.882Z" fill="#FFEB86" fill-opacity="0.6"/>
<path d="M222.496 128.817L196.619 120.678V76.853L222.496 84.9922V128.817Z" fill="white" stroke="#1F1A54" stroke-width="0.74" stroke-linecap="round" stroke-linejoin="round"/>
<path d="M248.344 120.678L222.456 128.817V84.9922L248.344 76.853V120.678Z" fill="white" stroke="#1F1A54" stroke-width="0.74" stroke-linecap="round" stroke-linejoin="round"/>
<path d="M274.221 128.817L248.344 120.678V76.853L274.221 84.9922V128.817Z" fill="white" stroke="#1F1A54" stroke-width="0.74" stroke-linecap="round" stroke-linejoin="round"/>
<path d="M108.909 183.072L97.8398 209.739L84.9112 250.825L71.2126 247.105C71.2126 247.105 86.311 188.161 89.6307 168.254C92.6304 150.255 96.9199 134.997 96.9199 134.997" stroke="#1F1A54" stroke-width="0.74" stroke-linecap="round" stroke-linejoin="round"/>
<path d="M98.9895 159.884L105.809 173.403L118.207 207.249L147.204 241.785L157.983 231.837L133.236 200.17C133.236 200.17 129.436 174.483 130.666 168.043C133.526 152.995 129.466 140.136 123.667 133.877" stroke="#1F1A54" stroke-width="0.74" stroke-linecap="round" stroke-linejoin="round"/>
<path d="M167.362 154.105L157.053 160.554C155.937 159.348 155.016 157.975 154.323 156.485C153.414 154.415 153.784 157.484 153.574 159.964C153.364 162.444 151.884 163.064 151.204 162.894C150.524 162.724 150.924 160.504 150.844 158.614C150.654 153.985 151.274 146.406 149.984 142.686C147.124 134.397 142.185 128.128 139.475 121.758C138.25 119.571 136.849 117.488 135.286 115.529C133.491 113.235 131.449 111.146 129.196 109.3L137.405 100.101L144.505 108.78L146.264 110.989C152.314 117.519 155.743 133.157 158.113 137.987C158.113 137.987 161.403 144.986 163.503 147.765C163.503 147.736 166.772 151.295 167.362 154.105Z" fill="white"/>
<path d="M121.757 82.3124C120.507 81.1885 119.078 80.2827 117.528 79.6327V69.8338C121.217 69.2938 124.007 67.424 124.677 63.9444C125.497 59.7349 122.477 56.7152 119.797 57.8351C118.35 58.4856 117.186 59.6357 116.518 61.0747C114.367 58.9373 111.927 57.113 109.268 55.6553C106.702 54.0776 104.596 51.8537 103.159 49.206C103.159 49.206 99.4295 53.6455 96.9898 54.4154C96.6691 58.3772 96.629 62.3567 96.8698 66.3241C97.2798 70.8037 98.8696 73.7934 101.119 75.5032C101.805 76.045 102.566 76.483 103.379 76.803V80.6726C102.949 80.8926 102.519 81.1426 102.119 81.3825C100.459 82.3824 98.7596 84.8022 97.1898 87.6719C90.9904 78.9128 89.5706 53.9955 95.36 48.3861C102.549 41.3868 116.058 38.3071 120.527 46.0263C121.633 46.3737 122.641 46.9793 123.467 47.793C124.293 48.6066 124.913 49.6051 125.277 50.7058C126.207 53.7055 131.276 69.8238 139.485 82.3024C145.985 92.2114 156.083 98.9907 156.103 101.13C156.103 107.13 141.355 94.2612 144.495 108.78L137.395 100.101L121.757 82.3124Z" fill="#1F1A54"/>
<path d="M117.517 79.6226C119.067 80.2725 120.497 81.1784 121.747 82.3023L137.385 100.09L129.176 109.289L125.427 106.47C125.257 108.33 125.037 110.219 124.827 112.099V112.569C123.994 119.637 123.62 126.751 123.707 133.867C123.707 133.867 120.837 135.947 109.548 136.867C100.629 137.596 96.9796 134.987 96.9796 134.987C97.1896 133.877 95.3898 122.118 95.3198 121.698C98.8445 117.7 102.076 113.453 104.989 108.989L90.4503 103.99C92.2878 98.361 94.5715 92.8875 97.2796 87.6218C98.8494 84.7521 100.549 82.3723 102.209 81.3324C102.609 81.0925 103.039 80.8425 103.469 80.6225C104.9 79.8883 106.418 79.3405 107.988 78.9927C111.151 78.1798 114.49 78.4005 117.517 79.6226Z" fill="#FFD400"/>
<path d="M135.276 115.529C127.616 115.969 124.757 112.529 124.757 112.529V112.059C124.967 110.179 125.187 108.289 125.357 106.43L129.106 109.249C131.39 111.107 133.459 113.213 135.276 115.529Z" fill="#1F1A54"/>
<path d="M116.507 61.0748C117.176 59.6358 118.34 58.4857 119.787 57.8351C122.467 56.7153 125.486 59.7349 124.666 63.9445C123.997 67.4241 121.207 69.2939 117.517 69.8339V79.6228C114.49 78.4007 111.15 78.18 107.988 78.9929C106.414 79.3661 104.895 79.9408 103.469 80.7027V76.8031C102.656 76.4831 101.894 76.0451 101.209 75.5032C98.9592 73.7934 97.3693 70.8038 96.9594 66.3242C96.6886 62.3589 96.6986 58.3794 96.9894 54.4155C99.3891 53.6456 103.109 49.2061 103.109 49.2061C104.545 51.8538 106.652 54.0777 109.218 55.6554C111.891 57.1099 114.345 58.9344 116.507 61.0748ZM108.638 61.3148C108.606 61.1611 108.531 61.0198 108.422 60.9071C108.312 60.7944 108.173 60.715 108.021 60.6781C107.868 60.6412 107.708 60.6483 107.56 60.6986C107.411 60.749 107.28 60.8404 107.181 60.9624C107.082 61.0844 107.02 61.2318 107.002 61.3877C106.983 61.5436 107.009 61.7015 107.077 61.8431C107.145 61.9846 107.252 62.1041 107.384 62.1876C107.517 62.271 107.671 62.3151 107.828 62.3147C108.066 62.2845 108.283 62.1637 108.434 61.9774C108.585 61.7911 108.658 61.5537 108.638 61.3148ZM101.299 61.4448C101.267 61.2911 101.192 61.1498 101.082 61.0371C100.973 60.9244 100.834 60.845 100.682 60.8081C100.529 60.7712 100.369 60.7783 100.221 60.8286C100.072 60.879 99.9405 60.9704 99.8417 61.0924C99.7429 61.2143 99.6807 61.3618 99.6624 61.5177C99.644 61.6736 99.6703 61.8315 99.738 61.9731C99.8058 62.1146 99.9123 62.2341 100.045 62.3176C100.178 62.401 100.332 62.4451 100.489 62.4446C100.727 62.4145 100.944 62.2937 101.095 62.1074C101.246 61.9211 101.319 61.6837 101.299 61.4448Z" fill="white"/>
<path d="M107.829 60.295C108.03 60.2561 108.239 60.28 108.426 60.3636C108.613 60.4472 108.77 60.5864 108.876 60.7623C108.981 60.9382 109.03 61.1423 109.016 61.347C109.002 61.5516 108.925 61.7469 108.796 61.9063C108.666 62.0657 108.491 62.1815 108.294 62.2381C108.097 62.2947 107.887 62.2892 107.693 62.2225C107.499 62.1557 107.33 62.031 107.21 61.8651C107.089 61.6992 107.022 61.5002 107.019 61.295C106.999 61.0561 107.072 60.8186 107.223 60.6323C107.374 60.446 107.591 60.3251 107.829 60.295Z" fill="#1F1A54"/>
<path d="M41.4655 89.9918C41.2843 89.806 41.152 89.5781 41.0804 89.3286C41.0089 89.079 41.0003 88.8156 41.0556 88.562C41.2155 87.8221 42.0554 87.1621 43.7253 87.3221C45.6434 87.6533 47.5071 88.2454 49.2647 89.0819C52.0144 90.5718 50.7645 80.8828 53.4642 80.9328C55.244 80.9328 54.3541 88.132 57.0838 92.8715C58.1796 94.5608 59.5286 96.0716 61.0834 97.3511C65.143 101.261 81.6212 111.59 84.5009 114.729C84.3609 115.349 90.3403 104.01 90.3403 104.01L104.989 108.99C102.069 113.454 98.8313 117.701 95.2998 121.698C91.3902 125.988 87.1306 129.508 83.991 128.988C75.2019 127.518 58.3837 105.99 53.5542 103.63C53.5542 103.63 50.6645 102.63 47.3149 101.631C47.3149 101.631 38.6258 100.061 39.4657 96.4012C39.6657 95.5613 39.8257 95.5612 39.8557 95.5612C39.6482 95.3261 39.5022 95.0432 39.4307 94.7379C39.3592 94.4326 39.3643 94.1143 39.4457 93.8114C39.5532 93.3415 39.7805 92.9075 40.1057 92.5516C39.9774 92.34 39.9007 92.1014 39.8816 91.8547C39.8625 91.6081 39.9016 91.3605 39.9957 91.1317C40.2656 90.3318 41.4655 89.9918 41.4655 89.9918Z" fill="white"/>
<path d="M100.489 60.4247C100.702 60.3725 100.926 60.3883 101.13 60.4699C101.333 60.5515 101.506 60.6947 101.624 60.8796C101.742 61.0644 101.8 61.2815 101.788 61.5005C101.776 61.7194 101.696 61.9292 101.559 62.1005C101.422 62.2717 101.235 62.3957 101.024 62.4552C100.813 62.5146 100.589 62.5065 100.382 62.432C100.176 62.3575 99.9985 62.2203 99.8742 62.0396C99.7499 61.8589 99.6853 61.6439 99.6895 61.4247C99.6693 61.1872 99.7411 60.9511 99.89 60.765C100.039 60.579 100.253 60.4571 100.489 60.4247Z" fill="#1F1A54"/>
<path d="M41.9958 93.5317C41.2817 93.4406 40.6282 93.0835 40.1658 92.5317C40.031 92.3275 39.9454 92.0947 39.9159 91.8518C39.8864 91.6088 39.9138 91.3623 39.9958 91.1317C40.2558 90.3317 41.4558 90.0317 41.4558 90.0317" stroke="#1F1A54" stroke-width="0.74" stroke-linecap="round" stroke-linejoin="round"/>
<path d="M42.8853 90.9917C42.3435 90.7682 41.8584 90.4266 41.4654 89.9918C41.2842 89.806 41.1519 89.5781 41.0803 89.3286C41.0088 89.079 41.0003 88.8156 41.0555 88.562C41.2155 87.8221 42.0554 87.1621 43.7252 87.3221C45.6433 87.6533 47.507 88.2454 49.2646 89.0819C52.0143 90.5718 50.7644 80.8828 53.4641 80.9328C55.244 80.9328 54.354 88.132 57.0838 92.8715C58.1795 94.5608 59.5285 96.0716 61.0833 97.3511C65.1429 101.261 81.6211 111.59 84.5008 114.729C84.3608 115.349 90.3402 104.01 90.3402 104.01L104.989 108.99C102.069 113.454 98.8313 117.701 95.2997 121.698C91.3901 125.988 87.1306 129.508 83.9909 128.988C75.2018 127.518 58.3836 105.99 53.5541 103.63C53.5541 103.63 50.6644 102.63 47.3148 101.631C47.3148 101.631 38.6257 100.061 39.4656 96.4012C39.6656 95.5613 39.8256 95.5612 39.8556 95.5612" stroke="#1F1A54" stroke-width="0.74" stroke-linecap="round" stroke-linejoin="round"/>
<path d="M41.6058 96.5915C40.9514 96.4298 40.3576 96.0826 39.8958 95.5915C39.6883 95.3563 39.5423 95.0735 39.4707 94.7681C39.3992 94.4627 39.4044 94.1444 39.4858 93.8415C39.5932 93.3716 39.8206 92.9375 40.1458 92.5815" stroke="#1F1A54" stroke-width="0.74" stroke-linecap="round" stroke-linejoin="round"/>
<path d="M104.939 109.001L109.479 102.771" stroke="#1F1A54" stroke-width="0.74" stroke-linecap="round" stroke-linejoin="round"/>
<path d="M95.2496 121.698C95.3196 122.118 97.1194 133.877 96.9095 134.987C96.9095 134.987 100.559 137.596 109.478 136.866C120.767 135.947 123.637 133.867 123.637 133.867C123.55 126.751 123.924 119.637 124.756 112.569V112.099C124.966 110.219 125.186 108.33 125.356 106.47C125.766 102.38 126.056 98.4006 126.056 94.841C126.062 93.9094 126.019 92.9782 125.926 92.0513" stroke="#1F1A54" stroke-width="0.74" stroke-linecap="round" stroke-linejoin="round"/>
<path d="M135.285 115.529C136.849 117.488 138.25 119.571 139.475 121.758C142.185 128.128 147.124 134.397 149.984 142.686C151.274 146.406 150.654 153.985 150.844 158.614C150.924 160.504 150.484 162.704 151.204 162.894C151.924 163.084 153.363 162.374 153.573 159.964C153.783 157.554 153.413 154.415 154.323 156.485C155.015 157.975 155.937 159.348 157.053 160.554L167.362 154.105C166.772 151.295 163.502 147.736 163.502 147.736C161.403 144.976 158.113 137.957 158.113 137.957C155.743 133.107 152.314 117.469 146.264 110.959" stroke="#1F1A54" stroke-width="0.74" stroke-linecap="round" stroke-linejoin="round"/>
<path d="M129.186 109.3C131.439 111.146 133.482 113.235 135.276 115.53" stroke="#1F1A54" stroke-width="0.74" stroke-linecap="round" stroke-linejoin="round"/>
<path d="M146.265 110.939L144.495 108.78L137.396 100.101" stroke="#1F1A54" stroke-width="0.74" stroke-linecap="round" stroke-linejoin="round"/>
<path d="M96.9897 54.4155C96.669 58.3773 96.6289 62.3568 96.8697 66.3243C97.2797 70.8038 98.8695 73.7935 101.119 75.5033C101.805 76.0451 102.566 76.4831 103.379 76.8031C104.669 77.3128 106.08 77.4345 107.439 77.1531C107.553 77.1388 107.666 77.1188 107.779 77.0931C109.398 76.7564 110.89 75.9737 112.088 74.8334" stroke="#1F1A54" stroke-width="0.74" stroke-linecap="round" stroke-linejoin="round"/>
<path d="M109.259 58.2752C108.763 57.9763 108.192 57.8242 107.614 57.8366C107.035 57.849 106.471 58.0254 105.989 58.3452" stroke="#1F1A54" stroke-width="0.74" stroke-linecap="round" stroke-linejoin="round"/>
<path d="M102.279 58.275C101.798 57.9808 101.243 57.8283 100.679 57.835C100.079 57.8233 99.4913 58.0018 98.9993 58.345" stroke="#1F1A54" stroke-width="0.74" stroke-linecap="round" stroke-linejoin="round"/>
<path d="M110.549 67.4243C110.315 68.2717 109.85 69.037 109.205 69.6342C108.56 70.2314 107.762 70.6366 106.899 70.8043" stroke="#1F1A54" stroke-width="0.74" stroke-linecap="round" stroke-linejoin="round"/>
<path d="M105.289 65.9941C104.96 66.1692 104.592 66.2608 104.219 66.2608C103.846 66.2608 103.479 66.1692 103.149 65.9941" stroke="#1F1A54" stroke-width="0.74" stroke-linecap="round" stroke-linejoin="round"/>
<path d="M121.127 61.4448C121.127 61.4448 118.917 61.7748 118.587 65.2448" stroke="#1F1A54" stroke-width="0.74" stroke-miterlimit="10" stroke-linecap="round"/>
<path d="M117.517 69.834V79.6229V79.6329" stroke="#1F1A54" stroke-width="0.74" stroke-linecap="round" stroke-linejoin="round"/>
<path d="M103.419 76.8032V80.6732" stroke="#1F1A54" stroke-width="0.74" stroke-linecap="round" stroke-linejoin="round"/>
<path d="M116.238 61.7348C116.313 61.5092 116.403 61.2887 116.508 61.0749C117.176 59.6358 118.34 58.4857 119.787 57.8352C122.467 56.7153 125.487 59.735 124.667 63.9446C123.997 67.4242 121.207 69.294 117.517 69.8339" stroke="#1F1A54" stroke-width="0.74" stroke-linecap="round" stroke-linejoin="round"/>
<path d="M97.2295 87.6719C90.9901 78.9128 89.5703 53.9955 95.3597 48.3861C102.549 41.3868 116.057 38.3071 120.527 46.0263C121.633 46.3737 122.641 46.9793 123.466 47.793C124.292 48.6066 124.913 49.605 125.276 50.7058C126.206 53.7055 131.276 69.8238 139.485 82.3024C145.984 92.2114 156.083 98.9907 156.103 101.13C156.103 107.13 141.355 94.2612 144.494 108.78" stroke="#1F1A54" stroke-width="0.74" stroke-linecap="round" stroke-linejoin="round"/>
<path d="M116.518 61.0846C114.367 58.9472 111.927 57.1228 109.268 55.6651C106.702 54.0875 104.595 51.8635 103.159 49.2158C103.159 49.2158 99.4294 53.6453 96.9896 54.4153" stroke="#1F1A54" stroke-width="0.74" stroke-linecap="round" stroke-linejoin="round"/>
<path d="M121.757 82.3125C122.189 82.6785 122.6 83.0691 122.987 83.4825" stroke="#1F1A54" stroke-width="0.74" stroke-linecap="round" stroke-linejoin="round"/>
<path d="M90.4005 104.04C92.238 98.4111 94.5217 92.9377 97.2298 87.6719C98.7996 84.8022 100.499 82.4225 102.159 81.3826C102.559 81.1426 102.989 80.8926 103.419 80.6727C104.863 79.9171 106.399 79.3524 107.989 78.9928C111.17 78.1784 114.528 78.4098 117.568 79.6528C119.118 80.3027 120.547 81.2086 121.797 82.3325" stroke="#1F1A54" stroke-width="0.74" stroke-linecap="round" stroke-linejoin="round"/>
<path d="M121.747 82.3027L121.757 82.3127L137.395 100.101L129.186 109.3L125.436 106.48" stroke="#1F1A54" stroke-width="0.74" stroke-linecap="round" stroke-linejoin="round"/>
<path d="M124.757 112.579C124.757 112.579 127.616 115.969 135.276 115.579" stroke="#1F1A54" stroke-width="0.74" stroke-linecap="round" stroke-linejoin="round"/>
<path d="M166.562 240.696C168.662 241.766 171.762 242.576 170.642 244.065C169.522 245.555 157.193 259.524 154.533 262.393C150.534 266.713 148.114 266.933 146.344 265.883C145.064 265.123 144.984 264.583 144.984 264.583C145.604 265.333 146.984 265.053 148.754 263.873C152.664 261.264 166.562 240.696 166.562 240.696Z" fill="white"/>
<path d="M151.254 247.145C151.418 246.221 151.455 245.279 151.364 244.345C151.364 244.485 152.074 244.405 153.104 244.155C154.94 243.691 156.718 243.02 158.403 242.155C159.973 241.338 161.267 240.075 162.123 238.526C162.303 238.176 162.383 237.966 162.383 237.966C164.982 239.726 166.562 240.646 166.562 240.646C166.562 240.646 152.664 261.213 148.754 263.823C146.994 265.003 145.604 265.283 144.984 264.533C144.732 264.167 144.609 263.727 144.634 263.283C144.634 262.283 145.634 260.723 146.414 259.284C147.014 258.164 147.844 256.634 148.614 255.114L149.104 254.114C149.344 253.614 149.564 253.114 149.764 252.594C150.087 251.769 150.367 250.928 150.604 250.075C150.884 249.113 151.101 248.134 151.254 247.145Z" fill="white"/>
<path d="M157.173 232.577L162.122 238.576C161.267 240.125 159.973 241.388 158.403 242.206C156.718 243.07 154.94 243.741 153.103 244.205L149.534 239.556L157.173 232.577Z" fill="#FFD400"/>
<path d="M82.2713 250.114L80.3915 257.024C78.6047 257.062 76.8468 256.568 75.342 255.604C73.9982 254.727 72.7424 253.723 71.5924 252.604L71.7024 252.494L72.9023 247.595L82.2713 250.114Z" fill="#FFD400"/>
<path d="M80.3912 257.024C80.5922 257.024 80.7929 257.007 80.9911 256.974C80.7512 260.114 80.7312 261.973 80.7312 261.973C80.7312 261.973 55.9938 260.104 51.7343 257.974C49.8345 256.974 48.8946 255.974 49.2545 255.044C49.4475 254.645 49.7676 254.322 50.1644 254.124C51.0543 253.614 52.8841 253.724 54.504 253.694C55.7738 253.694 57.5036 253.624 59.2035 253.524L60.3133 253.464C60.8633 253.464 61.4132 253.364 61.9532 253.284C63.8505 253.006 65.7114 252.519 67.5026 251.835C68.377 251.506 69.2068 251.07 69.9723 250.535C69.8223 250.645 70.5323 251.535 71.5921 252.534C72.7421 253.653 73.9979 254.658 75.3417 255.534C76.8387 256.523 78.5972 257.042 80.3912 257.024Z" fill="white"/>
<path d="M80.6911 261.974C80.8211 264.323 81.691 267.423 79.8112 267.183C77.9314 266.943 59.7034 263.183 55.8938 262.303C50.1444 260.964 48.7645 258.984 48.7945 256.934C48.7945 255.434 49.2445 255.094 49.2445 255.094C48.8845 256.014 49.8244 257.094 51.7242 258.024C55.9938 260.104 80.6911 261.974 80.6911 261.974Z" fill="white"/>
<path d="M162.122 238.576L157.173 232.577L149.534 239.506L153.103 244.155" stroke="#1F1A54" stroke-width="0.74" stroke-linecap="round" stroke-linejoin="round"/>
<path d="M71.7023 252.474L72.9021 247.565L82.2711 250.105L80.3913 257.024" stroke="#1F1A54" stroke-width="0.74" stroke-linecap="round" stroke-linejoin="round"/>
<path d="M166.562 240.696C166.562 240.696 164.982 239.776 162.383 237.976C162.383 237.976 162.303 238.186 162.123 238.536C161.267 240.085 159.973 241.348 158.403 242.166C156.718 243.03 154.94 243.701 153.104 244.165C152.104 244.415 151.374 244.495 151.364 244.355C151.455 245.289 151.418 246.231 151.254 247.155C151.104 248.168 150.887 249.17 150.604 250.155C150.367 251.009 150.087 251.85 149.764 252.675C149.564 253.184 149.344 253.674 149.104 254.194L148.614 255.194C147.844 256.714 147.014 258.194 146.414 259.364C145.634 260.784 144.624 262.303 144.634 263.363C144.609 263.807 144.732 264.247 144.984 264.613C145.604 265.363 146.984 265.083 148.754 263.903C152.664 261.264 166.562 240.696 166.562 240.696Z" stroke="#1F1A54" stroke-width="0.74" stroke-linecap="round" stroke-linejoin="round"/>
<path d="M144.984 264.583C144.984 264.583 145.064 265.123 146.344 265.883C148.114 266.933 150.514 266.713 154.533 262.393C157.193 259.524 169.532 245.555 170.642 244.065C171.752 242.576 168.642 241.766 166.562 240.696" stroke="#1F1A54" stroke-width="0.74" stroke-linecap="round" stroke-linejoin="round"/>
<path d="M152.854 247.185L151.264 247.145L149.634 247.085" stroke="#1F1A54" stroke-width="0.74" stroke-linecap="round" stroke-linejoin="round"/>
<path d="M152.424 250.384L150.604 250.154L149.184 249.984" stroke="#1F1A54" stroke-width="0.74" stroke-linecap="round" stroke-linejoin="round"/>
<path d="M151.484 253.024L149.764 252.674L148.244 252.364" stroke="#1F1A54" stroke-width="0.74" stroke-linecap="round" stroke-linejoin="round"/>
<path d="M150.404 255.554L148.614 255.184L147.154 254.894" stroke="#1F1A54" stroke-width="0.74" stroke-linecap="round" stroke-linejoin="round"/>
<path d="M80.6912 261.973C80.6912 261.973 80.6912 260.143 80.9512 256.974C80.7661 257.005 80.5789 257.021 80.3912 257.024C78.6044 257.062 76.8466 256.568 75.3418 255.604C73.9979 254.728 72.7422 253.723 71.5922 252.604C70.5323 251.604 69.8224 250.694 69.9724 250.604C69.2068 251.14 68.3771 251.576 67.5026 251.904C65.7224 252.569 63.875 253.039 61.9932 253.304C61.4533 253.384 60.9033 253.444 60.3534 253.484L59.2435 253.544C57.5537 253.644 55.8139 253.684 54.544 253.714C52.9242 253.714 51.0944 253.634 50.2045 254.144C49.8076 254.341 49.4875 254.665 49.2946 255.064C48.9346 255.984 49.8745 257.064 51.7743 257.994C55.9938 260.103 80.6912 261.973 80.6912 261.973Z" stroke="#1F1A54" stroke-width="0.74" stroke-linecap="round" stroke-linejoin="round"/>
<path d="M49.2445 255.064C49.2445 255.064 48.8146 255.404 48.7946 256.904C48.7946 258.904 50.1444 260.903 55.8938 262.273C59.7034 263.163 77.9414 266.913 79.8112 267.153C81.681 267.393 80.8111 264.293 80.6911 261.943" stroke="#1F1A54" stroke-width="0.74" stroke-linecap="round" stroke-linejoin="round"/>
<path d="M68.2527 253.265L67.5027 251.855L66.7527 250.425" stroke="#1F1A54" stroke-width="0.74" stroke-linecap="round" stroke-linejoin="round"/>
<path d="M65.2632 254.474L64.5632 252.784L64.0132 251.464" stroke="#1F1A54" stroke-width="0.74" stroke-linecap="round" stroke-linejoin="round"/>
<path d="M62.5136 254.974L61.9636 253.304L61.4836 251.834" stroke="#1F1A54" stroke-width="0.74" stroke-linecap="round" stroke-linejoin="round"/>
<path d="M59.7738 255.285L59.2038 253.545L58.7438 252.145" stroke="#1F1A54" stroke-width="0.74" stroke-linecap="round" stroke-linejoin="round"/>
<path d="M109.109 183.582L97.8398 209.739L84.9012 250.825L71.2126 247.105C71.2126 247.105 85.7211 189.861 89.6307 168.254C92.8503 150.435 96.9199 134.987 96.9199 134.987C96.9199 134.987 100.56 137.587 109.479 136.867C120.767 135.947 123.637 133.867 123.637 133.867C129.466 140.127 133.516 152.975 130.636 168.024C129.406 174.473 133.216 200.16 133.216 200.16L159.803 232.747L147.195 241.746L118.198 207.199L109.109 183.582Z" fill="#1F1A54"/>
<mask id="mask0" mask-type="alpha" maskUnits="userSpaceOnUse" x="71" y="133" width="89" height="118">
<path d="M109.108 183.582L97.8393 209.739L84.9007 250.825L71.2122 247.105C71.2122 247.105 85.7206 189.861 89.6302 168.254C92.8498 150.435 96.9194 134.987 96.9194 134.987C96.9194 134.987 100.559 137.587 109.478 136.867C120.767 135.947 123.637 133.867 123.637 133.867C129.466 140.127 133.516 152.975 130.636 168.024C129.406 174.473 133.216 200.16 133.216 200.16L159.803 232.747L147.194 241.746L118.197 207.199L109.108 183.582Z" fill="#1F1A54"/>
</mask>
<g mask="url(#mask0)">
<path d="M77.9916 135.688C78.3564 135.69 78.7135 135.583 79.0176 135.382C79.3218 135.18 79.5591 134.893 79.6997 134.557C79.8402 134.22 79.8774 133.849 79.8068 133.491C79.7361 133.133 79.5606 132.805 79.3027 132.547C79.0448 132.289 78.716 132.113 78.3581 132.043C78.0003 131.972 77.6295 132.009 77.2929 132.15C76.9563 132.29 76.669 132.528 76.4676 132.832C76.2662 133.136 76.1597 133.493 76.1616 133.858C76.1616 134.343 76.3545 134.809 76.6976 135.152C77.0408 135.495 77.5063 135.688 77.9916 135.688Z" fill="white" stroke="#1F1A54" stroke-width="1.38" stroke-miterlimit="10"/>
<path d="M88.1608 135.687C88.5252 135.687 88.8813 135.579 89.1841 135.377C89.4869 135.174 89.7227 134.886 89.8617 134.549C90.0007 134.212 90.0365 133.842 89.9647 133.485C89.8929 133.127 89.7167 132.8 89.4583 132.543C89.2 132.286 88.8712 132.111 88.5136 132.041C88.156 131.972 87.7858 132.009 87.4497 132.15C87.1137 132.291 86.827 132.528 86.626 132.832C86.4251 133.136 86.3188 133.493 86.3208 133.857C86.3235 134.344 86.5185 134.809 86.8633 135.152C87.2081 135.495 87.6746 135.687 88.1608 135.687Z" fill="white" stroke="#1F1A54" stroke-width="1.38" stroke-miterlimit="10"/>
<path d="M98.3599 135.687C98.7243 135.687 99.0804 135.579 99.3832 135.377C99.686 135.174 99.9218 134.886 100.061 134.549C100.2 134.212 100.236 133.842 100.164 133.485C100.092 133.127 99.9158 132.8 99.6574 132.543C99.3991 132.286 99.0703 132.111 98.7127 132.041C98.3551 131.972 97.9849 132.009 97.6488 132.15C97.3128 132.291 97.0261 132.528 96.8251 132.832C96.6242 133.136 96.5179 133.493 96.5199 133.857C96.5199 134.098 96.5676 134.337 96.6602 134.56C96.7528 134.783 96.8885 134.985 97.0595 135.155C97.2304 135.325 97.4334 135.46 97.6565 135.551C97.8797 135.642 98.1188 135.689 98.3599 135.687Z" fill="white" stroke="#1F1A54" stroke-width="1.38" stroke-miterlimit="10"/>
<path d="M108.559 135.687C108.923 135.687 109.279 135.579 109.582 135.377C109.885 135.174 110.12 134.886 110.259 134.549C110.398 134.212 110.434 133.842 110.362 133.485C110.291 133.127 110.114 132.8 109.856 132.543C109.598 132.286 109.269 132.111 108.911 132.041C108.554 131.972 108.183 132.009 107.847 132.15C107.511 132.291 107.225 132.528 107.024 132.832C106.823 133.136 106.717 133.493 106.719 133.857C106.719 134.098 106.766 134.337 106.859 134.56C106.951 134.783 107.087 134.985 107.258 135.155C107.429 135.325 107.632 135.46 107.855 135.551C108.078 135.642 108.317 135.689 108.559 135.687Z" fill="white" stroke="#1F1A54" stroke-width="1.38" stroke-miterlimit="10"/>
<path d="M118.767 135.687C119.132 135.687 119.488 135.579 119.791 135.377C120.093 135.174 120.329 134.886 120.468 134.549C120.607 134.212 120.643 133.842 120.571 133.485C120.499 133.127 120.323 132.8 120.065 132.543C119.807 132.286 119.478 132.111 119.12 132.041C118.763 131.972 118.392 132.009 118.056 132.15C117.72 132.291 117.434 132.528 117.233 132.832C117.032 133.136 116.925 133.493 116.927 133.857C116.927 134.098 116.975 134.337 117.068 134.56C117.16 134.783 117.296 134.985 117.467 135.155C117.638 135.325 117.841 135.46 118.064 135.551C118.287 135.642 118.526 135.689 118.767 135.687Z" fill="white" stroke="#1F1A54" stroke-width="1.38" stroke-miterlimit="10"/>
<path d="M128.987 135.687C129.351 135.687 129.707 135.579 130.01 135.377C130.313 135.174 130.548 134.886 130.687 134.549C130.826 134.212 130.862 133.842 130.79 133.485C130.719 133.127 130.542 132.8 130.284 132.543C130.026 132.286 129.697 132.111 129.339 132.041C128.982 131.972 128.611 132.009 128.275 132.15C127.939 132.291 127.653 132.528 127.452 132.832C127.251 133.136 127.145 133.493 127.147 133.857C127.149 134.344 127.344 134.809 127.689 135.152C128.034 135.495 128.5 135.687 128.987 135.687Z" fill="white" stroke="#1F1A54" stroke-width="1.38" stroke-miterlimit="10"/>
<path d="M139.165 135.698C140.181 135.698 141.005 134.874 141.005 133.858C141.005 132.841 140.181 132.018 139.165 132.018C138.149 132.018 137.325 132.841 137.325 133.858C137.325 134.874 138.149 135.698 139.165 135.698Z" fill="white" stroke="#1F1A54" stroke-width="1.38" stroke-miterlimit="10"/>
<path d="M149.364 135.687C149.729 135.687 150.085 135.579 150.387 135.377C150.69 135.174 150.926 134.886 151.065 134.549C151.204 134.212 151.24 133.842 151.168 133.485C151.096 133.127 150.92 132.8 150.662 132.543C150.403 132.286 150.075 132.111 149.717 132.041C149.359 131.972 148.989 132.009 148.653 132.15C148.317 132.291 148.03 132.528 147.829 132.832C147.628 133.136 147.522 133.493 147.524 133.857C147.524 134.098 147.572 134.337 147.664 134.56C147.757 134.783 147.893 134.985 148.064 135.155C148.235 135.325 148.438 135.46 148.661 135.551C148.884 135.642 149.123 135.689 149.364 135.687Z" fill="white" stroke="#1F1A54" stroke-width="1.38" stroke-miterlimit="10"/>
<path d="M159.573 135.687C159.937 135.687 160.294 135.579 160.596 135.377C160.899 135.174 161.135 134.886 161.274 134.549C161.413 134.212 161.449 133.842 161.377 133.485C161.305 133.127 161.129 132.8 160.871 132.543C160.612 132.286 160.283 132.111 159.926 132.041C159.568 131.972 159.198 132.009 158.862 132.15C158.526 132.291 158.239 132.528 158.038 132.832C157.837 133.136 157.731 133.493 157.733 133.857C157.736 134.344 157.931 134.809 158.276 135.152C158.62 135.495 159.087 135.687 159.573 135.687Z" fill="white" stroke="#1F1A54" stroke-width="1.38" stroke-miterlimit="10"/>
<path d="M72.8523 145.897C73.2154 145.893 73.5691 145.781 73.869 145.577C74.169 145.372 74.4017 145.084 74.5379 144.747C74.6741 144.411 74.7077 144.041 74.6345 143.686C74.5612 143.33 74.3844 143.004 74.1263 142.749C73.8682 142.493 73.5404 142.32 73.184 142.251C72.8276 142.181 72.4587 142.219 72.1236 142.359C71.7886 142.499 71.5024 142.734 71.3011 143.037C71.0998 143.339 70.9923 143.694 70.9923 144.057C70.9923 144.3 71.0405 144.541 71.1343 144.765C71.228 144.99 71.3653 145.194 71.5383 145.365C71.7113 145.536 71.9165 145.671 72.142 145.762C72.3676 145.854 72.609 145.899 72.8523 145.897Z" fill="white" stroke="#1F1A54" stroke-width="1.38" stroke-miterlimit="10"/>
<path d="M83.0612 145.896C83.4251 145.896 83.7808 145.788 84.0834 145.586C84.386 145.384 84.6219 145.097 84.7611 144.76C84.9004 144.424 84.9368 144.054 84.8658 143.697C84.7948 143.34 84.6196 143.013 84.3623 142.755C84.1049 142.498 83.7771 142.323 83.4202 142.252C83.0632 142.181 82.6933 142.217 82.357 142.356C82.0208 142.496 81.7335 142.731 81.5313 143.034C81.3291 143.337 81.2212 143.692 81.2212 144.056C81.2238 144.544 81.4185 145.01 81.763 145.354C82.1075 145.699 82.574 145.894 83.0612 145.896Z" fill="white" stroke="#1F1A54" stroke-width="1.38" stroke-miterlimit="10"/>
<path d="M93.2603 145.896C93.6242 145.896 93.98 145.788 94.2825 145.586C94.5851 145.384 94.821 145.097 94.9602 144.76C95.0995 144.424 95.1359 144.054 95.0649 143.697C94.9939 143.34 94.8187 143.013 94.5614 142.755C94.304 142.498 93.9762 142.323 93.6193 142.252C93.2623 142.181 92.8924 142.217 92.5562 142.356C92.2199 142.496 91.9326 142.731 91.7304 143.034C91.5282 143.337 91.4203 143.692 91.4203 144.056C91.4229 144.544 91.6176 145.01 91.9621 145.354C92.3066 145.699 92.7731 145.894 93.2603 145.896Z" fill="white" stroke="#1F1A54" stroke-width="1.38" stroke-miterlimit="10"/>
<path d="M103.459 145.896C103.823 145.896 104.179 145.788 104.481 145.586C104.784 145.384 105.02 145.097 105.159 144.76C105.298 144.424 105.335 144.054 105.264 143.697C105.193 143.34 105.017 143.013 104.76 142.755C104.503 142.498 104.175 142.323 103.818 142.252C103.461 142.181 103.091 142.217 102.755 142.356C102.419 142.496 102.131 142.731 101.929 143.034C101.727 143.337 101.619 143.692 101.619 144.056C101.619 144.544 101.813 145.012 102.158 145.357C102.503 145.702 102.971 145.896 103.459 145.896Z" fill="white" stroke="#1F1A54" stroke-width="1.38" stroke-miterlimit="10"/>
<path d="M113.658 145.896C114.022 145.898 114.379 145.792 114.683 145.591C114.987 145.39 115.224 145.103 115.365 144.767C115.506 144.431 115.543 144.061 115.474 143.703C115.404 143.346 115.229 143.017 114.972 142.759C114.715 142.5 114.388 142.324 114.03 142.252C113.673 142.181 113.303 142.216 112.966 142.355C112.629 142.494 112.341 142.73 112.139 143.033C111.936 143.336 111.828 143.692 111.828 144.056C111.828 144.543 112.02 145.009 112.363 145.354C112.706 145.699 113.171 145.894 113.658 145.896Z" fill="white" stroke="#1F1A54" stroke-width="1.38" stroke-miterlimit="10"/>
<path d="M123.867 145.896C124.231 145.896 124.587 145.788 124.889 145.586C125.192 145.384 125.428 145.097 125.567 144.76C125.706 144.424 125.742 144.054 125.672 143.697C125.601 143.34 125.425 143.013 125.168 142.755C124.911 142.498 124.583 142.323 124.226 142.252C123.869 142.181 123.499 142.217 123.163 142.356C122.827 142.496 122.539 142.731 122.337 143.034C122.135 143.337 122.027 143.692 122.027 144.056C122.029 144.544 122.224 145.01 122.569 145.354C122.913 145.699 123.38 145.894 123.867 145.896Z" fill="white" stroke="#1F1A54" stroke-width="1.38" stroke-miterlimit="10"/>
<path d="M134.066 145.896C134.43 145.896 134.786 145.788 135.088 145.586C135.391 145.384 135.627 145.097 135.766 144.76C135.905 144.424 135.942 144.054 135.871 143.697C135.8 143.34 135.624 143.013 135.367 142.755C135.11 142.498 134.782 142.323 134.425 142.252C134.068 142.181 133.698 142.217 133.362 142.356C133.026 142.496 132.738 142.731 132.536 143.034C132.334 143.337 132.226 143.692 132.226 144.056C132.226 144.544 132.42 145.012 132.765 145.357C133.11 145.702 133.578 145.896 134.066 145.896Z" fill="white" stroke="#1F1A54" stroke-width="1.38" stroke-miterlimit="10"/>
<path d="M144.265 145.896C144.628 145.896 144.984 145.788 145.287 145.586C145.589 145.384 145.825 145.097 145.964 144.76C146.104 144.424 146.14 144.054 146.069 143.697C145.998 143.34 145.823 143.013 145.566 142.755C145.308 142.498 144.98 142.323 144.624 142.252C144.267 142.181 143.897 142.217 143.56 142.356C143.224 142.496 142.937 142.731 142.735 143.034C142.532 143.337 142.425 143.692 142.425 144.056C142.425 144.544 142.618 145.012 142.963 145.357C143.309 145.702 143.777 145.896 144.265 145.896Z" fill="white" stroke="#1F1A54" stroke-width="1.38" stroke-miterlimit="10"/>
<path d="M154.474 145.896C154.837 145.896 155.193 145.788 155.496 145.586C155.798 145.384 156.034 145.097 156.173 144.76C156.313 144.424 156.349 144.054 156.278 143.697C156.207 143.34 156.032 143.013 155.775 142.755C155.517 142.498 155.189 142.323 154.833 142.252C154.476 142.181 154.106 142.217 153.769 142.356C153.433 142.496 153.146 142.731 152.944 143.034C152.741 143.337 152.634 143.692 152.634 144.056C152.634 144.544 152.827 145.012 153.172 145.357C153.518 145.702 153.986 145.896 154.474 145.896Z" fill="white" stroke="#1F1A54" stroke-width="1.38" stroke-miterlimit="10"/>
<path d="M77.9916 156.095C78.356 156.097 78.7127 155.991 79.0166 155.79C79.3205 155.589 79.5579 155.303 79.6987 154.967C79.8395 154.631 79.8773 154.26 79.8075 153.903C79.7376 153.545 79.5632 153.216 79.3062 152.958C79.0493 152.7 78.7215 152.523 78.3643 152.452C78.0071 152.38 77.6366 152.416 77.2998 152.555C76.963 152.694 76.6751 152.929 76.4724 153.232C76.2698 153.535 76.1616 153.891 76.1616 154.256C76.1616 154.742 76.3541 155.208 76.697 155.553C77.0399 155.898 77.5054 156.093 77.9916 156.095Z" fill="white" stroke="#1F1A54" stroke-width="1.38" stroke-miterlimit="10"/>
<path d="M88.1608 156.096C88.5247 156.096 88.8805 155.988 89.183 155.785C89.4856 155.583 89.7215 155.296 89.8607 154.96C90 154.623 90.0364 154.253 89.9654 153.897C89.8944 153.54 89.7192 153.212 89.4619 152.954C89.2045 152.697 88.8767 152.522 88.5198 152.451C88.1628 152.38 87.7929 152.416 87.4567 152.556C87.1204 152.695 86.8331 152.931 86.6309 153.233C86.4287 153.536 86.3208 153.892 86.3208 154.256C86.3208 154.744 86.5147 155.212 86.8597 155.557C87.2048 155.902 87.6728 156.096 88.1608 156.096Z" fill="white" stroke="#1F1A54" stroke-width="1.38" stroke-miterlimit="10"/>
<path d="M98.3599 156.096C98.7238 156.096 99.0796 155.988 99.3821 155.785C99.6847 155.583 99.9206 155.296 100.06 154.96C100.199 154.623 100.236 154.253 100.165 153.897C100.094 153.54 99.9183 153.212 99.661 152.954C99.4036 152.697 99.0758 152.522 98.7189 152.451C98.3619 152.38 97.992 152.416 97.6558 152.556C97.3195 152.695 97.0322 152.931 96.83 153.233C96.6278 153.536 96.5199 153.892 96.5199 154.256C96.5199 154.497 96.5675 154.736 96.66 154.96C96.7524 155.183 96.888 155.386 97.0588 155.557C97.2297 155.727 97.4325 155.863 97.6558 155.955C97.879 156.048 98.1183 156.096 98.3599 156.096Z" fill="white" stroke="#1F1A54" stroke-width="1.38" stroke-miterlimit="10"/>
<path d="M108.559 156.096C108.922 156.096 109.278 155.988 109.581 155.785C109.883 155.583 110.119 155.296 110.258 154.96C110.398 154.623 110.434 154.253 110.363 153.897C110.292 153.54 110.117 153.212 109.86 152.954C109.602 152.697 109.274 152.522 108.917 152.451C108.561 152.38 108.191 152.416 107.854 152.556C107.518 152.695 107.231 152.931 107.029 153.233C106.826 153.536 106.719 153.892 106.719 154.256C106.719 154.744 106.912 155.212 107.257 155.557C107.602 155.902 108.071 156.096 108.559 156.096Z" fill="white" stroke="#1F1A54" stroke-width="1.38" stroke-miterlimit="10"/>
<path d="M118.767 156.096C119.131 156.096 119.487 155.988 119.79 155.785C120.092 155.583 120.328 155.296 120.467 154.96C120.607 154.623 120.643 154.253 120.572 153.897C120.501 153.54 120.326 153.212 120.068 152.954C119.811 152.697 119.483 152.522 119.126 152.451C118.769 152.38 118.399 152.416 118.063 152.556C117.727 152.695 117.44 152.931 117.237 153.233C117.035 153.536 116.927 153.892 116.927 154.256C116.926 154.498 116.973 154.737 117.065 154.961C117.157 155.185 117.292 155.388 117.463 155.56C117.634 155.731 117.838 155.866 118.062 155.958C118.286 156.05 118.525 156.097 118.767 156.096Z" fill="white" stroke="#1F1A54" stroke-width="1.38" stroke-miterlimit="10"/>
<path d="M128.986 156.096C129.35 156.096 129.706 155.988 130.009 155.785C130.311 155.583 130.547 155.296 130.686 154.96C130.826 154.623 130.862 154.253 130.791 153.897C130.72 153.54 130.545 153.212 130.288 152.954C130.03 152.697 129.702 152.522 129.345 152.451C128.989 152.38 128.619 152.416 128.282 152.556C127.946 152.695 127.659 152.931 127.457 153.233C127.254 153.536 127.146 153.892 127.146 154.256C127.146 154.744 127.34 155.212 127.685 155.557C128.03 155.902 128.498 156.096 128.986 156.096Z" fill="white" stroke="#1F1A54" stroke-width="1.38" stroke-miterlimit="10"/>
<path d="M139.165 156.096C140.181 156.096 141.005 155.272 141.005 154.256C141.005 153.239 140.181 152.416 139.165 152.416C138.149 152.416 137.325 153.239 137.325 154.256C137.325 155.272 138.149 156.096 139.165 156.096Z" fill="white" stroke="#1F1A54" stroke-width="1.38" stroke-miterlimit="10"/>
<path d="M149.364 156.096C149.728 156.096 150.084 155.988 150.386 155.785C150.689 155.583 150.925 155.296 151.064 154.96C151.203 154.623 151.24 154.253 151.169 153.897C151.098 153.54 150.923 153.212 150.665 152.954C150.408 152.697 150.08 152.522 149.723 152.451C149.366 152.38 148.996 152.416 148.66 152.556C148.324 152.695 148.036 152.931 147.834 153.233C147.632 153.536 147.524 153.892 147.524 154.256C147.524 154.744 147.718 155.212 148.063 155.557C148.408 155.902 148.876 156.096 149.364 156.096Z" fill="white" stroke="#1F1A54" stroke-width="1.38" stroke-miterlimit="10"/>
<path d="M159.573 156.096C159.937 156.096 160.293 155.988 160.595 155.785C160.898 155.583 161.134 155.296 161.273 154.96C161.412 154.623 161.449 154.253 161.378 153.897C161.307 153.54 161.131 153.212 160.874 152.954C160.617 152.697 160.289 152.522 159.932 152.451C159.575 152.38 159.205 152.416 158.869 152.556C158.533 152.695 158.245 152.931 158.043 153.233C157.841 153.536 157.733 153.892 157.733 154.256C157.733 154.744 157.927 155.212 158.272 155.557C158.617 155.902 159.085 156.096 159.573 156.096Z" fill="white" stroke="#1F1A54" stroke-width="1.38" stroke-miterlimit="10"/>
<path d="M72.8523 166.294C73.2154 166.29 73.5691 166.179 73.869 165.974C74.169 165.77 74.4017 165.481 74.5379 165.145C74.6741 164.808 74.7077 164.439 74.6345 164.083C74.5612 163.727 74.3844 163.401 74.1263 163.146C73.8682 162.891 73.5404 162.718 73.184 162.648C72.8276 162.579 72.4587 162.616 72.1236 162.756C71.7886 162.896 71.5024 163.132 71.3011 163.434C71.0998 163.736 70.9923 164.091 70.9923 164.454C70.9923 164.697 71.0405 164.938 71.1343 165.163C71.228 165.387 71.3653 165.591 71.5383 165.762C71.7113 165.933 71.9165 166.069 72.142 166.16C72.3676 166.251 72.609 166.297 72.8523 166.294Z" fill="white" stroke="#1F1A54" stroke-width="1.38" stroke-miterlimit="10"/>
<path d="M83.0612 166.294C83.4251 166.294 83.7808 166.186 84.0834 165.984C84.386 165.782 84.6219 165.495 84.7611 165.158C84.9004 164.822 84.9368 164.452 84.8658 164.095C84.7948 163.738 84.6196 163.411 84.3623 163.153C84.1049 162.896 83.7771 162.721 83.4202 162.65C83.0632 162.579 82.6933 162.615 82.357 162.754C82.0208 162.894 81.7335 163.129 81.5313 163.432C81.3291 163.735 81.2212 164.09 81.2212 164.454C81.2212 164.942 81.415 165.41 81.7601 165.755C82.1052 166.1 82.5732 166.294 83.0612 166.294Z" fill="white" stroke="#1F1A54" stroke-width="1.38" stroke-miterlimit="10"/>
<path d="M93.2603 166.294C93.6242 166.294 93.98 166.186 94.2825 165.984C94.5851 165.782 94.821 165.495 94.9602 165.158C95.0995 164.822 95.1359 164.452 95.0649 164.095C94.9939 163.738 94.8187 163.411 94.5614 163.153C94.304 162.896 93.9762 162.721 93.6193 162.65C93.2623 162.579 92.8924 162.615 92.5562 162.754C92.2199 162.894 91.9326 163.129 91.7304 163.432C91.5282 163.735 91.4203 164.09 91.4203 164.454C91.4203 164.942 91.6141 165.41 91.9592 165.755C92.3043 166.1 92.7723 166.294 93.2603 166.294Z" fill="white" stroke="#1F1A54" stroke-width="1.38" stroke-miterlimit="10"/>
<path d="M103.459 166.294C103.823 166.294 104.179 166.186 104.481 165.984C104.784 165.782 105.02 165.495 105.159 165.158C105.298 164.822 105.335 164.452 105.264 164.095C105.193 163.738 105.017 163.411 104.76 163.153C104.503 162.896 104.175 162.721 103.818 162.65C103.461 162.579 103.091 162.615 102.755 162.754C102.419 162.894 102.131 163.129 101.929 163.432C101.727 163.735 101.619 164.09 101.619 164.454C101.619 164.942 101.813 165.41 102.158 165.755C102.503 166.1 102.971 166.294 103.459 166.294Z" fill="white" stroke="#1F1A54" stroke-width="1.38" stroke-miterlimit="10"/>
<path d="M113.658 166.294C114.022 166.296 114.379 166.19 114.683 165.989C114.987 165.788 115.224 165.501 115.365 165.165C115.506 164.829 115.543 164.459 115.474 164.101C115.404 163.744 115.229 163.415 114.972 163.157C114.715 162.898 114.388 162.722 114.03 162.65C113.673 162.579 113.303 162.614 112.966 162.753C112.629 162.892 112.341 163.128 112.139 163.431C111.936 163.734 111.828 164.09 111.828 164.454C111.828 164.941 112.02 165.407 112.363 165.752C112.706 166.097 113.171 166.292 113.658 166.294Z" fill="white" stroke="#1F1A54" stroke-width="1.38" stroke-miterlimit="10"/>
<path d="M123.867 166.294C124.231 166.294 124.587 166.186 124.889 165.984C125.192 165.782 125.428 165.495 125.567 165.158C125.706 164.822 125.742 164.452 125.672 164.095C125.601 163.738 125.425 163.411 125.168 163.153C124.911 162.896 124.583 162.721 124.226 162.65C123.869 162.579 123.499 162.615 123.163 162.754C122.827 162.894 122.539 163.129 122.337 163.432C122.135 163.735 122.027 164.09 122.027 164.454C122.027 164.942 122.221 165.41 122.566 165.755C122.911 166.1 123.379 166.294 123.867 166.294Z" fill="white" stroke="#1F1A54" stroke-width="1.38" stroke-miterlimit="10"/>
<path d="M134.066 166.294C134.43 166.294 134.786 166.186 135.088 165.984C135.391 165.782 135.627 165.495 135.766 165.158C135.905 164.822 135.942 164.452 135.871 164.095C135.8 163.738 135.624 163.411 135.367 163.153C135.11 162.896 134.782 162.721 134.425 162.65C134.068 162.579 133.698 162.615 133.362 162.754C133.026 162.894 132.738 163.129 132.536 163.432C132.334 163.735 132.226 164.09 132.226 164.454C132.226 164.942 132.42 165.41 132.765 165.755C133.11 166.1 133.578 166.294 134.066 166.294Z" fill="white" stroke="#1F1A54" stroke-width="1.38" stroke-miterlimit="10"/>
<path d="M144.265 166.294C144.628 166.294 144.984 166.186 145.287 165.984C145.589 165.782 145.825 165.495 145.964 165.158C146.104 164.822 146.14 164.452 146.069 164.095C145.998 163.738 145.823 163.411 145.566 163.153C145.308 162.896 144.98 162.721 144.624 162.65C144.267 162.579 143.897 162.615 143.56 162.754C143.224 162.894 142.937 163.129 142.735 163.432C142.532 163.735 142.425 164.09 142.425 164.454C142.425 164.942 142.618 165.41 142.963 165.755C143.309 166.1 143.777 166.294 144.265 166.294Z" fill="white" stroke="#1F1A54" stroke-width="1.38" stroke-miterlimit="10"/>
<path d="M154.474 166.294C154.838 166.294 155.193 166.186 155.496 165.984C155.798 165.782 156.034 165.495 156.174 165.158C156.313 164.822 156.349 164.452 156.278 164.095C156.207 163.738 156.032 163.411 155.775 163.153C155.517 162.896 155.189 162.721 154.833 162.65C154.476 162.579 154.106 162.615 153.769 162.754C153.433 162.894 153.146 163.129 152.944 163.432C152.741 163.735 152.634 164.09 152.634 164.454C152.632 164.696 152.679 164.936 152.771 165.16C152.863 165.384 152.998 165.587 153.17 165.758C153.341 165.929 153.544 166.065 153.768 166.157C153.992 166.249 154.232 166.296 154.474 166.294Z" fill="white" stroke="#1F1A54" stroke-width="1.38" stroke-miterlimit="10"/>
<path d="M77.9916 176.503C78.356 176.505 78.7127 176.399 79.0166 176.198C79.3205 175.997 79.5579 175.71 79.6987 175.374C79.8395 175.038 79.8773 174.668 79.8075 174.31C79.7376 173.953 79.5632 173.624 79.3062 173.366C79.0493 173.107 78.7215 172.931 78.3643 172.859C78.0071 172.788 77.6366 172.823 77.2998 172.962C76.963 173.101 76.6751 173.337 76.4724 173.64C76.2698 173.943 76.1616 174.299 76.1616 174.663C76.1616 175.149 76.3541 175.616 76.697 175.961C77.0399 176.306 77.5054 176.501 77.9916 176.503Z" fill="white" stroke="#1F1A54" stroke-width="1.38" stroke-miterlimit="10"/>
<path d="M88.1608 176.503C88.5247 176.503 88.8805 176.395 89.183 176.193C89.4856 175.991 89.7215 175.704 89.8607 175.367C90 175.031 90.0364 174.661 89.9654 174.304C89.8944 173.947 89.7192 173.619 89.4619 173.362C89.2045 173.105 88.8767 172.93 88.5198 172.859C88.1628 172.788 87.7929 172.824 87.4567 172.963C87.1204 173.103 86.8331 173.338 86.6309 173.641C86.4287 173.944 86.3208 174.299 86.3208 174.663C86.3234 175.15 86.5181 175.617 86.8626 175.961C87.2071 176.306 87.6736 176.501 88.1608 176.503Z" fill="white" stroke="#1F1A54" stroke-width="1.38" stroke-miterlimit="10"/>
<path d="M98.3599 176.503C98.7238 176.503 99.0796 176.395 99.3821 176.193C99.6847 175.991 99.9206 175.704 100.06 175.367C100.199 175.031 100.236 174.661 100.165 174.304C100.094 173.947 99.9183 173.619 99.661 173.362C99.4036 173.105 99.0758 172.93 98.7189 172.859C98.3619 172.788 97.992 172.824 97.6558 172.963C97.3195 173.103 97.0322 173.338 96.83 173.641C96.6278 173.944 96.5199 174.299 96.5199 174.663C96.5199 174.905 96.5675 175.144 96.66 175.367C96.7524 175.591 96.888 175.793 97.0588 175.964C97.2297 176.135 97.4325 176.271 97.6558 176.363C97.879 176.456 98.1183 176.503 98.3599 176.503Z" fill="white" stroke="#1F1A54" stroke-width="1.38" stroke-miterlimit="10"/>
<path d="M108.559 176.503C108.922 176.503 109.278 176.395 109.581 176.193C109.883 175.991 110.119 175.704 110.258 175.367C110.398 175.031 110.434 174.661 110.363 174.304C110.292 173.947 110.117 173.619 109.86 173.362C109.602 173.105 109.274 172.93 108.917 172.859C108.561 172.788 108.191 172.824 107.854 172.963C107.518 173.103 107.231 173.338 107.029 173.641C106.826 173.944 106.719 174.299 106.719 174.663C106.719 175.151 106.912 175.619 107.257 175.964C107.602 176.309 108.071 176.503 108.559 176.503Z" fill="white" stroke="#1F1A54" stroke-width="1.38" stroke-miterlimit="10"/>
<path d="M118.767 176.503C119.131 176.503 119.487 176.395 119.79 176.193C120.092 175.991 120.328 175.704 120.467 175.367C120.607 175.031 120.643 174.661 120.572 174.304C120.501 173.947 120.326 173.619 120.068 173.362C119.811 173.105 119.483 172.93 119.126 172.859C118.769 172.788 118.399 172.824 118.063 172.963C117.727 173.103 117.44 173.338 117.237 173.641C117.035 173.944 116.927 174.299 116.927 174.663C116.927 175.151 117.121 175.619 117.466 175.964C117.811 176.309 118.279 176.503 118.767 176.503Z" fill="white" stroke="#1F1A54" stroke-width="1.38" stroke-miterlimit="10"/>
<path d="M128.986 176.503C129.35 176.503 129.706 176.395 130.009 176.193C130.311 175.991 130.547 175.704 130.686 175.367C130.826 175.031 130.862 174.661 130.791 174.304C130.72 173.947 130.545 173.619 130.288 173.362C130.03 173.105 129.702 172.93 129.345 172.859C128.989 172.788 128.619 172.824 128.282 172.963C127.946 173.103 127.659 173.338 127.457 173.641C127.254 173.944 127.146 174.299 127.146 174.663C127.149 175.15 127.344 175.617 127.688 175.961C128.033 176.306 128.499 176.501 128.986 176.503Z" fill="white" stroke="#1F1A54" stroke-width="1.38" stroke-miterlimit="10"/>
<path d="M139.165 176.503C139.529 176.503 139.885 176.395 140.187 176.193C140.49 175.991 140.726 175.704 140.865 175.367C141.004 175.031 141.041 174.661 140.97 174.304C140.899 173.947 140.723 173.619 140.466 173.362C140.209 173.105 139.881 172.93 139.524 172.859C139.167 172.788 138.797 172.824 138.461 172.963C138.125 173.103 137.837 173.338 137.635 173.641C137.433 173.944 137.325 174.299 137.325 174.663C137.325 175.151 137.519 175.619 137.864 175.964C138.209 176.309 138.677 176.503 139.165 176.503Z" fill="white" stroke="#1F1A54" stroke-width="1.38" stroke-miterlimit="10"/>
<path d="M149.364 176.503C149.728 176.503 150.084 176.395 150.386 176.193C150.689 175.991 150.925 175.704 151.064 175.367C151.203 175.031 151.24 174.661 151.169 174.304C151.098 173.947 150.923 173.619 150.665 173.362C150.408 173.105 150.08 172.93 149.723 172.859C149.366 172.788 148.996 172.824 148.66 172.963C148.324 173.103 148.036 173.338 147.834 173.641C147.632 173.944 147.524 174.299 147.524 174.663C147.524 175.151 147.718 175.619 148.063 175.964C148.408 176.309 148.876 176.503 149.364 176.503Z" fill="white" stroke="#1F1A54" stroke-width="1.38" stroke-miterlimit="10"/>
<path d="M159.573 176.503C159.937 176.503 160.293 176.395 160.595 176.193C160.898 175.991 161.134 175.704 161.273 175.367C161.412 175.031 161.449 174.661 161.378 174.304C161.307 173.947 161.131 173.619 160.874 173.362C160.617 173.105 160.289 172.93 159.932 172.859C159.575 172.788 159.205 172.824 158.869 172.963C158.533 173.103 158.245 173.338 158.043 173.641C157.841 173.944 157.733 174.299 157.733 174.663C157.736 175.15 157.93 175.617 158.275 175.961C158.619 176.306 159.086 176.501 159.573 176.503Z" fill="white" stroke="#1F1A54" stroke-width="1.38" stroke-miterlimit="10"/>
<path d="M72.8523 186.702C73.2154 186.698 73.5691 186.587 73.869 186.382C74.169 186.178 74.4017 185.889 74.5379 185.552C74.6741 185.216 74.7077 184.846 74.6345 184.491C74.5612 184.135 74.3844 183.809 74.1263 183.554C73.8682 183.299 73.5404 183.125 73.184 183.056C72.8276 182.987 72.4587 183.024 72.1236 183.164C71.7886 183.304 71.5024 183.54 71.3011 183.842C71.0998 184.144 70.9923 184.499 70.9923 184.862C70.9923 185.105 71.0405 185.346 71.1343 185.571C71.228 185.795 71.3653 185.999 71.5383 186.17C71.7113 186.341 71.9165 186.476 72.142 186.568C72.3676 186.659 72.609 186.705 72.8523 186.702Z" fill="white" stroke="#1F1A54" stroke-width="1.38" stroke-miterlimit="10"/>
<path d="M83.0612 186.702C83.4251 186.702 83.7808 186.594 84.0834 186.392C84.386 186.19 84.6219 185.902 84.7611 185.566C84.9004 185.23 84.9368 184.86 84.8658 184.503C84.7948 184.146 84.6196 183.818 84.3623 183.561C84.1049 183.304 83.7771 183.128 83.4202 183.057C83.0632 182.986 82.6933 183.023 82.357 183.162C82.0208 183.301 81.7335 183.537 81.5313 183.84C81.3291 184.142 81.2212 184.498 81.2212 184.862C81.2212 185.35 81.415 185.818 81.7601 186.163C82.1052 186.508 82.5732 186.702 83.0612 186.702Z" fill="white" stroke="#1F1A54" stroke-width="1.38" stroke-miterlimit="10"/>
<path d="M93.2603 186.702C93.6242 186.702 93.98 186.594 94.2825 186.392C94.5851 186.19 94.821 185.902 94.9602 185.566C95.0995 185.23 95.1359 184.86 95.0649 184.503C94.9939 184.146 94.8187 183.818 94.5614 183.561C94.304 183.304 93.9762 183.128 93.6193 183.057C93.2623 182.986 92.8924 183.023 92.5562 183.162C92.2199 183.301 91.9326 183.537 91.7304 183.84C91.5282 184.142 91.4203 184.498 91.4203 184.862C91.4203 185.35 91.6141 185.818 91.9592 186.163C92.3043 186.508 92.7723 186.702 93.2603 186.702Z" fill="white" stroke="#1F1A54" stroke-width="1.38" stroke-miterlimit="10"/>
<path d="M103.459 186.702C103.823 186.702 104.179 186.594 104.481 186.392C104.784 186.19 105.02 185.902 105.159 185.566C105.298 185.23 105.335 184.86 105.264 184.503C105.193 184.146 105.017 183.818 104.76 183.561C104.503 183.304 104.175 183.128 103.818 183.057C103.461 182.986 103.091 183.023 102.755 183.162C102.419 183.301 102.131 183.537 101.929 183.84C101.727 184.142 101.619 184.498 101.619 184.862C101.619 185.35 101.813 185.818 102.158 186.163C102.503 186.508 102.971 186.702 103.459 186.702Z" fill="white" stroke="#1F1A54" stroke-width="1.38" stroke-miterlimit="10"/>
<path d="M113.658 186.702C114.022 186.704 114.379 186.598 114.683 186.397C114.987 186.196 115.224 185.909 115.365 185.573C115.506 185.237 115.543 184.867 115.474 184.509C115.404 184.152 115.229 183.823 114.972 183.564C114.715 183.306 114.388 183.13 114.03 183.058C113.673 182.986 113.303 183.022 112.966 183.161C112.629 183.3 112.341 183.536 112.139 183.839C111.936 184.141 111.828 184.498 111.828 184.862C111.828 185.348 112.02 185.815 112.363 186.159C112.706 186.504 113.171 186.699 113.658 186.702Z" fill="white" stroke="#1F1A54" stroke-width="1.38" stroke-miterlimit="10"/>
<path d="M123.867 186.702C124.231 186.702 124.587 186.594 124.889 186.392C125.192 186.19 125.428 185.902 125.567 185.566C125.706 185.23 125.742 184.86 125.672 184.503C125.601 184.146 125.425 183.818 125.168 183.561C124.911 183.304 124.583 183.128 124.226 183.057C123.869 182.986 123.499 183.023 123.163 183.162C122.827 183.301 122.539 183.537 122.337 183.84C122.135 184.142 122.027 184.498 122.027 184.862C122.027 185.35 122.221 185.818 122.566 186.163C122.911 186.508 123.379 186.702 123.867 186.702Z" fill="white" stroke="#1F1A54" stroke-width="1.38" stroke-miterlimit="10"/>
<path d="M134.066 186.702C134.43 186.702 134.786 186.594 135.088 186.392C135.391 186.19 135.627 185.902 135.766 185.566C135.905 185.23 135.942 184.86 135.871 184.503C135.8 184.146 135.624 183.818 135.367 183.561C135.11 183.304 134.782 183.128 134.425 183.057C134.068 182.986 133.698 183.023 133.362 183.162C133.026 183.301 132.738 183.537 132.536 183.84C132.334 184.142 132.226 184.498 132.226 184.862C132.226 185.35 132.42 185.818 132.765 186.163C133.11 186.508 133.578 186.702 134.066 186.702Z" fill="white" stroke="#1F1A54" stroke-width="1.38" stroke-miterlimit="10"/>
<path d="M144.265 186.702C144.628 186.702 144.984 186.594 145.287 186.392C145.589 186.19 145.825 185.902 145.964 185.566C146.104 185.23 146.14 184.86 146.069 184.503C145.998 184.146 145.823 183.818 145.566 183.561C145.308 183.304 144.98 183.128 144.624 183.057C144.267 182.986 143.897 183.023 143.56 183.162C143.224 183.301 142.937 183.537 142.735 183.84C142.532 184.142 142.425 184.498 142.425 184.862C142.425 185.35 142.618 185.818 142.963 186.163C143.309 186.508 143.777 186.702 144.265 186.702Z" fill="white" stroke="#1F1A54" stroke-width="1.38" stroke-miterlimit="10"/>
<path d="M154.474 186.702C154.838 186.702 155.193 186.594 155.496 186.392C155.798 186.19 156.034 185.902 156.174 185.566C156.313 185.23 156.349 184.86 156.278 184.503C156.207 184.146 156.032 183.818 155.775 183.561C155.517 183.304 155.189 183.128 154.833 183.057C154.476 182.986 154.106 183.023 153.769 183.162C153.433 183.301 153.146 183.537 152.944 183.84C152.741 184.142 152.634 184.498 152.634 184.862C152.632 185.104 152.679 185.344 152.771 185.568C152.863 185.792 152.998 185.995 153.17 186.166C153.341 186.337 153.544 186.473 153.768 186.565C153.992 186.657 154.232 186.703 154.474 186.702Z" fill="white" stroke="#1F1A54" stroke-width="1.38" stroke-miterlimit="10"/>
<path d="M77.9916 196.901C78.356 196.903 78.7127 196.797 79.0166 196.596C79.3205 196.395 79.5579 196.108 79.6987 195.772C79.8395 195.436 79.8773 195.066 79.8075 194.708C79.7376 194.351 79.5632 194.022 79.3062 193.764C79.0493 193.505 78.7215 193.329 78.3643 193.257C78.0071 193.185 77.6366 193.221 77.2998 193.36C76.963 193.499 76.6751 193.735 76.4724 194.038C76.2698 194.341 76.1616 194.697 76.1616 195.061C76.1616 195.547 76.3541 196.014 76.697 196.359C77.0399 196.703 77.5054 196.899 77.9916 196.901Z" fill="white" stroke="#1F1A54" stroke-width="1.38" stroke-miterlimit="10"/>
<path d="M88.1608 196.901C88.5247 196.901 88.8805 196.793 89.183 196.591C89.4856 196.389 89.7215 196.102 89.8607 195.765C90 195.429 90.0364 195.059 89.9654 194.702C89.8944 194.345 89.7192 194.017 89.4619 193.76C89.2045 193.503 88.8767 193.328 88.5198 193.257C88.1628 193.186 87.7929 193.222 87.4567 193.361C87.1204 193.501 86.8331 193.736 86.6309 194.039C86.4287 194.342 86.3208 194.697 86.3208 195.061C86.3208 195.549 86.5147 196.017 86.8597 196.362C87.2048 196.707 87.6728 196.901 88.1608 196.901Z" fill="white" stroke="#1F1A54" stroke-width="1.38" stroke-miterlimit="10"/>
<path d="M98.3599 196.901C98.7238 196.901 99.0796 196.793 99.3821 196.591C99.6847 196.389 99.9206 196.102 100.06 195.765C100.199 195.429 100.236 195.059 100.165 194.702C100.094 194.345 99.9183 194.017 99.661 193.76C99.4036 193.503 99.0758 193.328 98.7189 193.257C98.3619 193.186 97.992 193.222 97.6558 193.361C97.3195 193.501 97.0322 193.736 96.83 194.039C96.6278 194.342 96.5199 194.697 96.5199 195.061C96.5199 195.303 96.5675 195.542 96.66 195.765C96.7524 195.989 96.888 196.191 97.0588 196.362C97.2297 196.533 97.4325 196.669 97.6558 196.761C97.879 196.854 98.1183 196.901 98.3599 196.901Z" fill="white" stroke="#1F1A54" stroke-width="1.38" stroke-miterlimit="10"/>
<path d="M108.559 196.901C108.922 196.901 109.278 196.793 109.581 196.591C109.883 196.389 110.119 196.102 110.258 195.765C110.398 195.429 110.434 195.059 110.363 194.702C110.292 194.345 110.117 194.017 109.86 193.76C109.602 193.503 109.274 193.328 108.917 193.257C108.561 193.186 108.191 193.222 107.854 193.361C107.518 193.501 107.231 193.736 107.029 194.039C106.826 194.342 106.719 194.697 106.719 195.061C106.719 195.549 106.912 196.017 107.257 196.362C107.602 196.707 108.071 196.901 108.559 196.901Z" fill="white" stroke="#1F1A54" stroke-width="1.38" stroke-miterlimit="10"/>
<path d="M118.767 196.901C119.131 196.901 119.487 196.793 119.79 196.591C120.092 196.389 120.328 196.102 120.467 195.765C120.607 195.429 120.643 195.059 120.572 194.702C120.501 194.345 120.326 194.017 120.068 193.76C119.811 193.503 119.483 193.328 119.126 193.257C118.769 193.186 118.399 193.222 118.063 193.361C117.727 193.501 117.44 193.736 117.237 194.039C117.035 194.342 116.927 194.697 116.927 195.061C116.926 195.303 116.973 195.543 117.065 195.767C117.157 195.991 117.292 196.194 117.463 196.365C117.634 196.536 117.838 196.672 118.062 196.764C118.286 196.856 118.525 196.903 118.767 196.901Z" fill="white" stroke="#1F1A54" stroke-width="1.38" stroke-miterlimit="10"/>
<path d="M128.986 196.901C129.35 196.901 129.706 196.793 130.009 196.591C130.311 196.389 130.547 196.102 130.686 195.765C130.826 195.429 130.862 195.059 130.791 194.702C130.72 194.345 130.545 194.017 130.288 193.76C130.03 193.503 129.702 193.328 129.345 193.257C128.989 193.186 128.619 193.222 128.282 193.361C127.946 193.501 127.659 193.736 127.457 194.039C127.254 194.342 127.146 194.697 127.146 195.061C127.146 195.549 127.34 196.017 127.685 196.362C128.03 196.707 128.498 196.901 128.986 196.901Z" fill="white" stroke="#1F1A54" stroke-width="1.38" stroke-miterlimit="10"/>
<path d="M139.165 196.901C140.181 196.901 141.005 196.077 141.005 195.061C141.005 194.045 140.181 193.221 139.165 193.221C138.149 193.221 137.325 194.045 137.325 195.061C137.325 196.077 138.149 196.901 139.165 196.901Z" fill="white" stroke="#1F1A54" stroke-width="1.38" stroke-miterlimit="10"/>
<path d="M149.364 196.901C149.728 196.901 150.084 196.793 150.386 196.591C150.689 196.389 150.925 196.102 151.064 195.765C151.203 195.429 151.24 195.059 151.169 194.702C151.098 194.345 150.923 194.017 150.665 193.76C150.408 193.503 150.08 193.328 149.723 193.257C149.366 193.186 148.996 193.222 148.66 193.361C148.324 193.501 148.036 193.736 147.834 194.039C147.632 194.342 147.524 194.697 147.524 195.061C147.524 195.549 147.718 196.017 148.063 196.362C148.408 196.707 148.876 196.901 149.364 196.901Z" fill="white" stroke="#1F1A54" stroke-width="1.38" stroke-miterlimit="10"/>
<path d="M159.573 196.901C159.937 196.901 160.293 196.793 160.595 196.591C160.898 196.389 161.134 196.102 161.273 195.765C161.412 195.429 161.449 195.059 161.378 194.702C161.307 194.345 161.131 194.017 160.874 193.76C160.617 193.503 160.289 193.328 159.932 193.257C159.575 193.186 159.205 193.222 158.869 193.361C158.533 193.501 158.245 193.736 158.043 194.039C157.841 194.342 157.733 194.697 157.733 195.061C157.733 195.549 157.927 196.017 158.272 196.362C158.617 196.707 159.085 196.901 159.573 196.901Z" fill="white" stroke="#1F1A54" stroke-width="1.38" stroke-miterlimit="10"/>
<path d="M72.8523 207.1C73.2158 207.096 73.57 206.984 73.8701 206.779C74.1703 206.574 74.403 206.285 74.5389 205.948C74.6748 205.611 74.7078 205.241 74.6337 204.885C74.5597 204.529 74.3819 204.203 74.1228 203.948C73.8637 203.693 73.5349 203.521 73.1778 203.453C72.8208 203.384 72.4516 203.423 72.1167 203.565C71.7818 203.706 71.4963 203.944 71.2962 204.247C71.0961 204.55 70.9904 204.906 70.9923 205.27C70.9923 205.513 71.0406 205.753 71.1344 205.977C71.2283 206.201 71.3658 206.404 71.5389 206.575C71.712 206.745 71.9173 206.879 72.1428 206.969C72.3683 207.059 72.6095 207.104 72.8523 207.1Z" fill="white" stroke="#1F1A54" stroke-width="1.38" stroke-miterlimit="10"/>
<path d="M83.0612 207.1C83.4256 207.1 83.7817 206.992 84.0845 206.789C84.3873 206.586 84.6231 206.299 84.7621 205.962C84.9011 205.625 84.9369 205.254 84.8651 204.897C84.7933 204.54 84.617 204.212 84.3587 203.955C84.1004 203.698 83.7716 203.524 83.414 203.454C83.0564 203.384 82.6862 203.422 82.3501 203.563C82.0141 203.704 81.7274 203.941 81.5264 204.245C81.3255 204.549 81.2192 204.906 81.2212 205.27C81.2239 205.756 81.4189 206.222 81.7637 206.565C82.1084 206.907 82.5749 207.1 83.0612 207.1Z" fill="white" stroke="#1F1A54" stroke-width="1.38" stroke-miterlimit="10"/>
<path d="M93.2603 207.1C93.6247 207.1 93.9808 206.992 94.2836 206.789C94.5864 206.586 94.8222 206.299 94.9612 205.962C95.1002 205.625 95.136 205.254 95.0642 204.897C94.9924 204.54 94.8161 204.212 94.5578 203.955C94.2995 203.698 93.9707 203.524 93.6131 203.454C93.2555 203.384 92.8853 203.422 92.5492 203.563C92.2132 203.704 91.9265 203.941 91.7255 204.245C91.5246 204.549 91.4183 204.906 91.4203 205.27C91.423 205.756 91.618 206.222 91.9628 206.565C92.3075 206.907 92.774 207.1 93.2603 207.1Z" fill="white" stroke="#1F1A54" stroke-width="1.38" stroke-miterlimit="10"/>
<path d="M103.459 207.1C103.823 207.1 104.179 206.992 104.482 206.789C104.785 206.586 105.021 206.299 105.16 205.962C105.299 205.625 105.335 205.254 105.263 204.897C105.191 204.54 105.015 204.212 104.756 203.955C104.498 203.698 104.169 203.524 103.812 203.454C103.454 203.384 103.084 203.422 102.748 203.563C102.412 203.704 102.125 203.941 101.924 204.245C101.723 204.549 101.617 204.906 101.619 205.27C101.619 205.511 101.667 205.75 101.759 205.973C101.852 206.195 101.987 206.397 102.158 206.567C102.329 206.738 102.532 206.872 102.756 206.963C102.979 207.055 103.218 207.101 103.459 207.1Z" fill="white" stroke="#1F1A54" stroke-width="1.38" stroke-miterlimit="10"/>
<path d="M113.658 207.1C114.023 207.102 114.38 206.995 114.684 206.794C114.988 206.593 115.225 206.305 115.366 205.969C115.506 205.632 115.544 205.261 115.473 204.903C115.402 204.546 115.227 204.217 114.969 203.959C114.711 203.701 114.382 203.525 114.024 203.455C113.666 203.384 113.296 203.421 112.959 203.562C112.622 203.702 112.335 203.94 112.134 204.244C111.932 204.548 111.826 204.905 111.828 205.27C111.828 205.51 111.875 205.748 111.967 205.97C112.059 206.192 112.194 206.394 112.364 206.564C112.534 206.734 112.735 206.869 112.957 206.961C113.18 207.053 113.417 207.1 113.658 207.1Z" fill="white" stroke="#1F1A54" stroke-width="1.38" stroke-miterlimit="10"/>
<path d="M123.867 207.1C124.231 207.1 124.587 206.992 124.89 206.789C125.193 206.586 125.429 206.299 125.568 205.962C125.707 205.625 125.743 205.254 125.671 204.897C125.599 204.54 125.423 204.212 125.164 203.955C124.906 203.698 124.577 203.524 124.22 203.454C123.862 203.384 123.492 203.422 123.156 203.563C122.82 203.704 122.533 203.941 122.332 204.245C122.131 204.549 122.025 204.906 122.027 205.27C122.03 205.756 122.225 206.222 122.569 206.565C122.914 206.907 123.381 207.1 123.867 207.1Z" fill="white" stroke="#1F1A54" stroke-width="1.38" stroke-miterlimit="10"/>
<path d="M134.066 207.1C134.43 207.1 134.786 206.992 135.089 206.789C135.392 206.586 135.628 206.299 135.767 205.962C135.906 205.625 135.942 205.254 135.87 204.897C135.798 204.54 135.622 204.212 135.363 203.955C135.105 203.698 134.776 203.524 134.419 203.454C134.061 203.384 133.691 203.422 133.355 203.563C133.019 203.704 132.732 203.941 132.531 204.245C132.33 204.549 132.224 204.906 132.226 205.27C132.226 205.511 132.274 205.75 132.366 205.973C132.459 206.195 132.595 206.397 132.765 206.567C132.936 206.738 133.139 206.872 133.363 206.963C133.586 207.055 133.825 207.101 134.066 207.1Z" fill="white" stroke="#1F1A54" stroke-width="1.38" stroke-miterlimit="10"/>
<path d="M144.265 207.1C144.629 207.1 144.985 206.992 145.288 206.789C145.591 206.586 145.826 206.299 145.965 205.962C146.104 205.625 146.14 205.254 146.068 204.897C145.997 204.54 145.82 204.212 145.562 203.955C145.304 203.698 144.975 203.524 144.617 203.454C144.26 203.384 143.89 203.422 143.553 203.563C143.217 203.704 142.931 203.941 142.73 204.245C142.529 204.549 142.423 204.906 142.425 205.27C142.425 205.511 142.472 205.75 142.565 205.973C142.657 206.195 142.793 206.397 142.964 206.567C143.135 206.738 143.338 206.872 143.561 206.963C143.784 207.055 144.023 207.101 144.265 207.1Z" fill="white" stroke="#1F1A54" stroke-width="1.38" stroke-miterlimit="10"/>
<path d="M154.474 207.1C154.838 207.1 155.194 206.992 155.497 206.789C155.8 206.586 156.035 206.299 156.174 205.962C156.313 205.625 156.349 205.254 156.277 204.897C156.206 204.54 156.029 204.212 155.771 203.955C155.513 203.698 155.184 203.524 154.826 203.454C154.469 203.384 154.099 203.422 153.762 203.563C153.426 203.704 153.14 203.941 152.939 204.245C152.738 204.549 152.632 204.906 152.634 205.27C152.634 205.511 152.681 205.75 152.774 205.973C152.866 206.195 153.002 206.397 153.173 206.567C153.344 206.738 153.547 206.872 153.77 206.963C153.993 207.055 154.232 207.101 154.474 207.1Z" fill="white" stroke="#1F1A54" stroke-width="1.38" stroke-miterlimit="10"/>
<path d="M77.9916 217.309C78.356 217.311 78.7127 217.205 79.0166 217.004C79.3205 216.803 79.5579 216.516 79.6987 216.18C79.8395 215.844 79.8773 215.474 79.8075 215.116C79.7376 214.759 79.5632 214.43 79.3062 214.171C79.0493 213.913 78.7215 213.737 78.3643 213.665C78.0071 213.593 77.6366 213.629 77.2998 213.768C76.963 213.907 76.6751 214.143 76.4724 214.446C76.2698 214.748 76.1616 215.105 76.1616 215.469C76.1616 215.955 76.3541 216.422 76.697 216.766C77.0399 217.111 77.5054 217.306 77.9916 217.309Z" fill="white" stroke="#1F1A54" stroke-width="1.38" stroke-miterlimit="10"/>
<path d="M88.1608 217.309C88.5247 217.309 88.8805 217.201 89.183 216.999C89.4856 216.797 89.7215 216.509 89.8607 216.173C90 215.837 90.0364 215.467 89.9654 215.11C89.8944 214.753 89.7192 214.425 89.4619 214.168C89.2045 213.911 88.8767 213.735 88.5198 213.664C88.1628 213.593 87.7929 213.63 87.4567 213.769C87.1204 213.908 86.8331 214.144 86.6309 214.447C86.4287 214.749 86.3208 215.105 86.3208 215.469C86.3234 215.956 86.5181 216.423 86.8626 216.767C87.2071 217.112 87.6736 217.306 88.1608 217.309Z" fill="white" stroke="#1F1A54" stroke-width="1.38" stroke-miterlimit="10"/>
<path d="M98.3599 217.309C98.7238 217.309 99.0796 217.201 99.3821 216.999C99.6847 216.797 99.9206 216.509 100.06 216.173C100.199 215.837 100.236 215.467 100.165 215.11C100.094 214.753 99.9183 214.425 99.661 214.168C99.4036 213.911 99.0758 213.735 98.7189 213.664C98.3619 213.593 97.992 213.63 97.6558 213.769C97.3195 213.908 97.0322 214.144 96.83 214.447C96.6278 214.749 96.5199 215.105 96.5199 215.469C96.5199 215.711 96.5675 215.95 96.66 216.173C96.7524 216.396 96.888 216.599 97.0588 216.77C97.2297 216.941 97.4325 217.076 97.6558 217.169C97.879 217.261 98.1183 217.309 98.3599 217.309Z" fill="white" stroke="#1F1A54" stroke-width="1.38" stroke-miterlimit="10"/>
<path d="M108.559 217.309C108.922 217.309 109.278 217.201 109.581 216.999C109.883 216.797 110.119 216.509 110.258 216.173C110.398 215.837 110.434 215.467 110.363 215.11C110.292 214.753 110.117 214.425 109.86 214.168C109.602 213.911 109.274 213.735 108.917 213.664C108.561 213.593 108.191 213.63 107.854 213.769C107.518 213.908 107.231 214.144 107.029 214.447C106.826 214.749 106.719 215.105 106.719 215.469C106.719 215.957 106.912 216.425 107.257 216.77C107.602 217.115 108.071 217.309 108.559 217.309Z" fill="white" stroke="#1F1A54" stroke-width="1.38" stroke-miterlimit="10"/>
<path d="M118.767 217.309C119.131 217.309 119.487 217.201 119.79 216.999C120.092 216.797 120.328 216.509 120.467 216.173C120.607 215.837 120.643 215.467 120.572 215.11C120.501 214.753 120.326 214.425 120.068 214.168C119.811 213.911 119.483 213.735 119.126 213.664C118.769 213.593 118.399 213.63 118.063 213.769C117.727 213.908 117.44 214.144 117.237 214.447C117.035 214.749 116.927 215.105 116.927 215.469C116.927 215.957 117.121 216.425 117.466 216.77C117.811 217.115 118.279 217.309 118.767 217.309Z" fill="white" stroke="#1F1A54" stroke-width="1.38" stroke-miterlimit="10"/>
<path d="M128.986 217.309C129.35 217.309 129.706 217.201 130.009 216.999C130.311 216.797 130.547 216.509 130.686 216.173C130.826 215.837 130.862 215.467 130.791 215.11C130.72 214.753 130.545 214.425 130.288 214.168C130.03 213.911 129.702 213.735 129.345 213.664C128.989 213.593 128.619 213.63 128.282 213.769C127.946 213.908 127.659 214.144 127.457 214.447C127.254 214.749 127.146 215.105 127.146 215.469C127.149 215.956 127.344 216.423 127.688 216.767C128.033 217.112 128.499 217.306 128.986 217.309Z" fill="white" stroke="#1F1A54" stroke-width="1.38" stroke-miterlimit="10"/>
<path d="M139.165 217.309C139.529 217.309 139.885 217.201 140.187 216.999C140.49 216.797 140.726 216.509 140.865 216.173C141.004 215.837 141.041 215.467 140.97 215.11C140.899 214.753 140.723 214.425 140.466 214.168C140.209 213.911 139.881 213.735 139.524 213.664C139.167 213.593 138.797 213.63 138.461 213.769C138.125 213.908 137.837 214.144 137.635 214.447C137.433 214.749 137.325 215.105 137.325 215.469C137.325 215.957 137.519 216.425 137.864 216.77C138.209 217.115 138.677 217.309 139.165 217.309Z" fill="white" stroke="#1F1A54" stroke-width="1.38" stroke-miterlimit="10"/>
<path d="M149.364 217.309C149.728 217.309 150.084 217.201 150.386 216.999C150.689 216.797 150.925 216.509 151.064 216.173C151.203 215.837 151.24 215.467 151.169 215.11C151.098 214.753 150.923 214.425 150.665 214.168C150.408 213.911 150.08 213.735 149.723 213.664C149.366 213.593 148.996 213.63 148.66 213.769C148.324 213.908 148.036 214.144 147.834 214.447C147.632 214.749 147.524 215.105 147.524 215.469C147.524 215.957 147.718 216.425 148.063 216.77C148.408 217.115 148.876 217.309 149.364 217.309Z" fill="white" stroke="#1F1A54" stroke-width="1.38" stroke-miterlimit="10"/>
<path d="M159.573 217.309C159.937 217.309 160.293 217.201 160.595 216.999C160.898 216.797 161.134 216.509 161.273 216.173C161.412 215.837 161.449 215.467 161.378 215.11C161.307 214.753 161.131 214.425 160.874 214.168C160.617 213.911 160.289 213.735 159.932 213.664C159.575 213.593 159.205 213.63 158.869 213.769C158.533 213.908 158.245 214.144 158.043 214.447C157.841 214.749 157.733 215.105 157.733 215.469C157.736 215.956 157.93 216.423 158.275 216.767C158.619 217.112 159.086 217.306 159.573 217.309Z" fill="white" stroke="#1F1A54" stroke-width="1.38" stroke-miterlimit="10"/>
<path d="M72.8523 227.508C73.2154 227.504 73.5691 227.392 73.869 227.188C74.169 226.983 74.4017 226.694 74.5379 226.358C74.6741 226.021 74.7077 225.652 74.6345 225.296C74.5612 224.941 74.3844 224.615 74.1263 224.36C73.8682 224.104 73.5404 223.931 73.184 223.862C72.8276 223.792 72.4587 223.83 72.1236 223.97C71.7886 224.109 71.5024 224.345 71.3011 224.647C71.0998 224.95 70.9923 225.304 70.9923 225.668C70.9923 225.911 71.0405 226.152 71.1343 226.376C71.228 226.601 71.3653 226.805 71.5383 226.976C71.7113 227.147 71.9165 227.282 72.142 227.373C72.3676 227.465 72.609 227.51 72.8523 227.508Z" fill="white" stroke="#1F1A54" stroke-width="1.38" stroke-miterlimit="10"/>
<path d="M83.0612 227.508C83.4251 227.508 83.7808 227.4 84.0834 227.198C84.386 226.995 84.6219 226.708 84.7611 226.372C84.9004 226.036 84.9368 225.666 84.8658 225.309C84.7948 224.952 84.6196 224.624 84.3623 224.367C84.1049 224.109 83.7771 223.934 83.4202 223.863C83.0632 223.792 82.6933 223.828 82.357 223.968C82.0208 224.107 81.7335 224.343 81.5313 224.645C81.3291 224.948 81.2212 225.304 81.2212 225.668C81.2212 226.156 81.415 226.624 81.7601 226.969C82.1052 227.314 82.5732 227.508 83.0612 227.508Z" fill="white" stroke="#1F1A54" stroke-width="1.38" stroke-miterlimit="10"/>
<path d="M93.2603 227.508C93.6242 227.508 93.98 227.4 94.2825 227.198C94.5851 226.995 94.821 226.708 94.9602 226.372C95.0995 226.036 95.1359 225.666 95.0649 225.309C94.9939 224.952 94.8187 224.624 94.5614 224.367C94.304 224.109 93.9762 223.934 93.6193 223.863C93.2623 223.792 92.8924 223.828 92.5562 223.968C92.2199 224.107 91.9326 224.343 91.7304 224.645C91.5282 224.948 91.4203 225.304 91.4203 225.668C91.4203 226.156 91.6141 226.624 91.9592 226.969C92.3043 227.314 92.7723 227.508 93.2603 227.508Z" fill="white" stroke="#1F1A54" stroke-width="1.38" stroke-miterlimit="10"/>
<path d="M103.459 227.508C103.823 227.508 104.179 227.4 104.481 227.198C104.784 226.995 105.02 226.708 105.159 226.372C105.298 226.036 105.335 225.666 105.264 225.309C105.193 224.952 105.017 224.624 104.76 224.367C104.503 224.109 104.175 223.934 103.818 223.863C103.461 223.792 103.091 223.828 102.755 223.968C102.419 224.107 102.131 224.343 101.929 224.645C101.727 224.948 101.619 225.304 101.619 225.668C101.619 226.156 101.813 226.624 102.158 226.969C102.503 227.314 102.971 227.508 103.459 227.508Z" fill="white" stroke="#1F1A54" stroke-width="1.38" stroke-miterlimit="10"/>
<path d="M113.658 227.508C114.022 227.51 114.379 227.403 114.683 227.202C114.987 227.001 115.224 226.715 115.365 226.379C115.506 226.043 115.543 225.672 115.474 225.315C115.404 224.957 115.229 224.628 114.972 224.37C114.715 224.112 114.388 223.936 114.03 223.864C113.673 223.792 113.303 223.828 112.966 223.967C112.629 224.106 112.341 224.342 112.139 224.644C111.936 224.947 111.828 225.303 111.828 225.668C111.828 226.154 112.02 226.62 112.363 226.965C112.706 227.31 113.171 227.505 113.658 227.508Z" fill="white" stroke="#1F1A54" stroke-width="1.38" stroke-miterlimit="10"/>
<path d="M123.867 227.508C124.231 227.508 124.587 227.4 124.889 227.198C125.192 226.995 125.428 226.708 125.567 226.372C125.706 226.036 125.742 225.666 125.672 225.309C125.601 224.952 125.425 224.624 125.168 224.367C124.911 224.109 124.583 223.934 124.226 223.863C123.869 223.792 123.499 223.828 123.163 223.968C122.827 224.107 122.539 224.343 122.337 224.645C122.135 224.948 122.027 225.304 122.027 225.668C122.027 226.156 122.221 226.624 122.566 226.969C122.911 227.314 123.379 227.508 123.867 227.508Z" fill="white" stroke="#1F1A54" stroke-width="1.38" stroke-miterlimit="10"/>
<path d="M134.066 227.508C134.43 227.508 134.786 227.4 135.088 227.198C135.391 226.995 135.627 226.708 135.766 226.372C135.905 226.036 135.942 225.666 135.871 225.309C135.8 224.952 135.624 224.624 135.367 224.367C135.11 224.109 134.782 223.934 134.425 223.863C134.068 223.792 133.698 223.828 133.362 223.968C133.026 224.107 132.738 224.343 132.536 224.645C132.334 224.948 132.226 225.304 132.226 225.668C132.226 226.156 132.42 226.624 132.765 226.969C133.11 227.314 133.578 227.508 134.066 227.508Z" fill="white" stroke="#1F1A54" stroke-width="1.38" stroke-miterlimit="10"/>
<path d="M144.265 227.508C144.628 227.508 144.984 227.4 145.287 227.198C145.589 226.995 145.825 226.708 145.964 226.372C146.104 226.036 146.14 225.666 146.069 225.309C145.998 224.952 145.823 224.624 145.566 224.367C145.308 224.109 144.98 223.934 144.624 223.863C144.267 223.792 143.897 223.828 143.56 223.968C143.224 224.107 142.937 224.343 142.735 224.645C142.532 224.948 142.425 225.304 142.425 225.668C142.425 226.156 142.618 226.624 142.963 226.969C143.309 227.314 143.777 227.508 144.265 227.508Z" fill="white" stroke="#1F1A54" stroke-width="1.38" stroke-miterlimit="10"/>
<path d="M154.474 227.508C154.838 227.508 155.193 227.4 155.496 227.198C155.798 226.995 156.034 226.708 156.174 226.372C156.313 226.036 156.349 225.666 156.278 225.309C156.207 224.952 156.032 224.624 155.775 224.367C155.517 224.109 155.189 223.934 154.833 223.863C154.476 223.792 154.106 223.828 153.769 223.968C153.433 224.107 153.146 224.343 152.944 224.645C152.741 224.948 152.634 225.304 152.634 225.668C152.632 225.91 152.679 226.15 152.771 226.373C152.863 226.597 152.998 226.801 153.17 226.972C153.341 227.143 153.544 227.278 153.768 227.37C153.992 227.462 154.232 227.509 154.474 227.508Z" fill="white" stroke="#1F1A54" stroke-width="1.38" stroke-miterlimit="10"/>
<path d="M77.9916 237.707C78.356 237.709 78.7127 237.603 79.0166 237.402C79.3205 237.201 79.5579 236.914 79.6987 236.578C79.8395 236.242 79.8773 235.872 79.8075 235.514C79.7376 235.156 79.5632 234.828 79.3062 234.569C79.0493 234.311 78.7215 234.135 78.3643 234.063C78.0071 233.991 77.6366 234.027 77.2998 234.166C76.963 234.305 76.6751 234.541 76.4724 234.844C76.2698 235.146 76.1616 235.502 76.1616 235.867C76.1616 236.353 76.3541 236.82 76.697 237.164C77.0399 237.509 77.5054 237.704 77.9916 237.707Z" fill="white" stroke="#1F1A54" stroke-width="1.38" stroke-miterlimit="10"/>
<path d="M88.1608 237.707C88.5247 237.707 88.8805 237.599 89.183 237.397C89.4856 237.195 89.7215 236.907 89.8607 236.571C90 236.235 90.0364 235.865 89.9654 235.508C89.8944 235.151 89.7192 234.823 89.4619 234.566C89.2045 234.308 88.8767 234.133 88.5198 234.062C88.1628 233.991 87.7929 234.028 87.4567 234.167C87.1204 234.306 86.8331 234.542 86.6309 234.845C86.4287 235.147 86.3208 235.503 86.3208 235.867C86.3208 236.355 86.5147 236.823 86.8597 237.168C87.2048 237.513 87.6728 237.707 88.1608 237.707Z" fill="white" stroke="#1F1A54" stroke-width="1.38" stroke-miterlimit="10"/>
<path d="M98.3599 237.707C98.7238 237.707 99.0796 237.599 99.3821 237.397C99.6847 237.195 99.9206 236.907 100.06 236.571C100.199 236.235 100.236 235.865 100.165 235.508C100.094 235.151 99.9183 234.823 99.661 234.566C99.4036 234.308 99.0758 234.133 98.7189 234.062C98.3619 233.991 97.992 234.028 97.6558 234.167C97.3195 234.306 97.0322 234.542 96.83 234.845C96.6278 235.147 96.5199 235.503 96.5199 235.867C96.5199 236.108 96.5675 236.348 96.66 236.571C96.7524 236.794 96.888 236.997 97.0588 237.168C97.2297 237.339 97.4325 237.474 97.6558 237.567C97.879 237.659 98.1183 237.707 98.3599 237.707Z" fill="white" stroke="#1F1A54" stroke-width="1.38" stroke-miterlimit="10"/>
<path d="M108.559 237.707C108.922 237.707 109.278 237.599 109.581 237.397C109.883 237.195 110.119 236.907 110.258 236.571C110.398 236.235 110.434 235.865 110.363 235.508C110.292 235.151 110.117 234.823 109.86 234.566C109.602 234.308 109.274 234.133 108.917 234.062C108.561 233.991 108.191 234.028 107.854 234.167C107.518 234.306 107.231 234.542 107.029 234.845C106.826 235.147 106.719 235.503 106.719 235.867C106.719 236.355 106.912 236.823 107.257 237.168C107.602 237.513 108.071 237.707 108.559 237.707Z" fill="white" stroke="#1F1A54" stroke-width="1.38" stroke-miterlimit="10"/>
<path d="M118.767 237.707C119.131 237.707 119.487 237.599 119.79 237.397C120.092 237.195 120.328 236.907 120.467 236.571C120.607 236.235 120.643 235.865 120.572 235.508C120.501 235.151 120.326 234.823 120.068 234.566C119.811 234.308 119.483 234.133 119.126 234.062C118.769 233.991 118.399 234.028 118.063 234.167C117.727 234.306 117.44 234.542 117.237 234.845C117.035 235.147 116.927 235.503 116.927 235.867C116.926 236.109 116.973 236.349 117.065 236.573C117.157 236.796 117.292 237 117.463 237.171C117.634 237.342 117.838 237.477 118.062 237.569C118.286 237.661 118.525 237.708 118.767 237.707Z" fill="white" stroke="#1F1A54" stroke-width="1.38" stroke-miterlimit="10"/>
<path d="M128.986 237.707C129.35 237.707 129.706 237.599 130.009 237.397C130.311 237.195 130.547 236.907 130.686 236.571C130.826 236.235 130.862 235.865 130.791 235.508C130.72 235.151 130.545 234.823 130.288 234.566C130.03 234.308 129.702 234.133 129.345 234.062C128.989 233.991 128.619 234.028 128.282 234.167C127.946 234.306 127.659 234.542 127.457 234.845C127.254 235.147 127.146 235.503 127.146 235.867C127.146 236.355 127.34 236.823 127.685 237.168C128.03 237.513 128.498 237.707 128.986 237.707Z" fill="white" stroke="#1F1A54" stroke-width="1.38" stroke-miterlimit="10"/>
<path d="M139.165 237.707C139.529 237.707 139.885 237.599 140.187 237.397C140.49 237.195 140.726 236.907 140.865 236.571C141.004 236.235 141.041 235.865 140.97 235.508C140.899 235.151 140.723 234.823 140.466 234.566C140.209 234.308 139.881 234.133 139.524 234.062C139.167 233.991 138.797 234.028 138.461 234.167C138.125 234.306 137.837 234.542 137.635 234.845C137.433 235.147 137.325 235.503 137.325 235.867C137.325 236.355 137.519 236.823 137.864 237.168C138.209 237.513 138.677 237.707 139.165 237.707Z" fill="white" stroke="#1F1A54" stroke-width="1.38" stroke-miterlimit="10"/>
<path d="M149.364 237.707C149.728 237.707 150.084 237.599 150.386 237.397C150.689 237.195 150.925 236.907 151.064 236.571C151.203 236.235 151.24 235.865 151.169 235.508C151.098 235.151 150.923 234.823 150.665 234.566C150.408 234.308 150.08 234.133 149.723 234.062C149.366 233.991 148.996 234.028 148.66 234.167C148.324 234.306 148.036 234.542 147.834 234.845C147.632 235.147 147.524 235.503 147.524 235.867C147.524 236.355 147.718 236.823 148.063 237.168C148.408 237.513 148.876 237.707 149.364 237.707Z" fill="white" stroke="#1F1A54" stroke-width="1.38" stroke-miterlimit="10"/>
<path d="M159.573 237.707C159.937 237.707 160.293 237.599 160.595 237.397C160.898 237.195 161.134 236.907 161.273 236.571C161.412 236.235 161.449 235.865 161.378 235.508C161.307 235.151 161.131 234.823 160.874 234.566C160.617 234.308 160.289 234.133 159.932 234.062C159.575 233.991 159.205 234.028 158.869 234.167C158.533 234.306 158.245 234.542 158.043 234.845C157.841 235.147 157.733 235.503 157.733 235.867C157.733 236.355 157.927 236.823 158.272 237.168C158.617 237.513 159.085 237.707 159.573 237.707Z" fill="white" stroke="#1F1A54" stroke-width="1.38" stroke-miterlimit="10"/>
<path d="M72.8626 247.915C73.8788 247.915 74.7026 247.092 74.7026 246.075C74.7026 245.059 73.8788 244.235 72.8626 244.235C71.8464 244.235 71.0226 245.059 71.0226 246.075C71.0226 247.092 71.8464 247.915 72.8626 247.915Z" fill="white" stroke="#1F1A54" stroke-width="1.38" stroke-miterlimit="10"/>
<path d="M83.0612 247.915C83.4251 247.915 83.7808 247.807 84.0834 247.605C84.386 247.403 84.6219 247.116 84.7611 246.779C84.9004 246.443 84.9368 246.073 84.8658 245.716C84.7948 245.359 84.6196 245.032 84.3623 244.774C84.1049 244.517 83.7771 244.342 83.4202 244.271C83.0632 244.2 82.6933 244.236 82.357 244.375C82.0208 244.515 81.7335 244.751 81.5313 245.053C81.3291 245.356 81.2212 245.711 81.2212 246.075C81.2238 246.563 81.4185 247.029 81.763 247.374C82.1075 247.718 82.574 247.913 83.0612 247.915Z" fill="white" stroke="#1F1A54" stroke-width="1.38" stroke-miterlimit="10"/>
<path d="M93.2603 247.915C93.6242 247.915 93.98 247.807 94.2825 247.605C94.5851 247.403 94.821 247.116 94.9602 246.779C95.0995 246.443 95.1359 246.073 95.0649 245.716C94.9939 245.359 94.8187 245.032 94.5614 244.774C94.304 244.517 93.9762 244.342 93.6193 244.271C93.2623 244.2 92.8924 244.236 92.5562 244.375C92.2199 244.515 91.9326 244.751 91.7304 245.053C91.5282 245.356 91.4203 245.711 91.4203 246.075C91.4229 246.563 91.6176 247.029 91.9621 247.374C92.3066 247.718 92.7731 247.913 93.2603 247.915Z" fill="white" stroke="#1F1A54" stroke-width="1.38" stroke-miterlimit="10"/>
<path d="M103.459 247.915C103.823 247.915 104.179 247.807 104.481 247.605C104.784 247.403 105.02 247.116 105.159 246.779C105.298 246.443 105.335 246.073 105.264 245.716C105.193 245.359 105.017 245.032 104.76 244.774C104.503 244.517 104.175 244.342 103.818 244.271C103.461 244.2 103.091 244.236 102.755 244.375C102.419 244.515 102.131 244.751 101.929 245.053C101.727 245.356 101.619 245.711 101.619 246.075C101.619 246.317 101.666 246.556 101.759 246.779C101.851 247.003 101.987 247.206 102.158 247.376C102.329 247.547 102.532 247.683 102.755 247.775C102.978 247.868 103.217 247.915 103.459 247.915Z" fill="white" stroke="#1F1A54" stroke-width="1.38" stroke-miterlimit="10"/>
<path d="M113.658 247.915C114.022 247.917 114.379 247.811 114.683 247.61C114.987 247.409 115.224 247.122 115.365 246.786C115.506 246.45 115.543 246.08 115.474 245.723C115.404 245.365 115.229 245.036 114.972 244.778C114.715 244.519 114.388 244.343 114.03 244.271C113.673 244.2 113.303 244.235 112.966 244.374C112.629 244.513 112.341 244.749 112.139 245.052C111.936 245.355 111.828 245.711 111.828 246.075C111.828 246.562 112.02 247.028 112.363 247.373C112.706 247.718 113.171 247.913 113.658 247.915Z" fill="white" stroke="#1F1A54" stroke-width="1.38" stroke-miterlimit="10"/>
<path d="M123.867 247.915C124.229 247.908 124.581 247.793 124.878 247.586C125.175 247.379 125.405 247.089 125.538 246.752C125.671 246.415 125.702 246.047 125.626 245.693C125.551 245.338 125.373 245.014 125.114 244.761C124.855 244.508 124.527 244.336 124.171 244.268C123.816 244.201 123.448 244.239 123.114 244.38C122.78 244.52 122.495 244.756 122.294 245.057C122.094 245.359 121.987 245.713 121.987 246.075C121.988 246.32 122.038 246.562 122.133 246.787C122.229 247.013 122.368 247.217 122.543 247.388C122.718 247.559 122.925 247.694 123.152 247.784C123.379 247.875 123.622 247.919 123.867 247.915Z" fill="white" stroke="#1F1A54" stroke-width="1.38" stroke-miterlimit="10"/>
<path d="M134.066 247.915C134.43 247.915 134.786 247.807 135.088 247.605C135.391 247.403 135.627 247.116 135.766 246.779C135.905 246.443 135.942 246.073 135.871 245.716C135.8 245.359 135.624 245.032 135.367 244.774C135.11 244.517 134.782 244.342 134.425 244.271C134.068 244.2 133.698 244.236 133.362 244.375C133.026 244.515 132.738 244.751 132.536 245.053C132.334 245.356 132.226 245.711 132.226 246.075C132.226 246.317 132.274 246.556 132.366 246.779C132.458 247.003 132.594 247.206 132.765 247.376C132.936 247.547 133.139 247.683 133.362 247.775C133.585 247.868 133.824 247.915 134.066 247.915Z" fill="white" stroke="#1F1A54" stroke-width="1.38" stroke-miterlimit="10"/>
<path d="M144.265 247.915C144.628 247.915 144.984 247.807 145.287 247.605C145.589 247.403 145.825 247.116 145.964 246.779C146.104 246.443 146.14 246.073 146.069 245.716C145.998 245.359 145.823 245.032 145.566 244.774C145.308 244.517 144.98 244.342 144.624 244.271C144.267 244.2 143.897 244.236 143.56 244.375C143.224 244.515 142.937 244.751 142.735 245.053C142.532 245.356 142.425 245.711 142.425 246.075C142.425 246.317 142.472 246.556 142.565 246.779C142.657 247.003 142.793 247.206 142.963 247.376C143.134 247.547 143.337 247.683 143.56 247.775C143.784 247.868 144.023 247.915 144.265 247.915Z" fill="white" stroke="#1F1A54" stroke-width="1.38" stroke-miterlimit="10"/>
<path d="M154.474 247.915C154.837 247.915 155.193 247.807 155.496 247.605C155.798 247.403 156.034 247.116 156.173 246.779C156.313 246.443 156.349 246.073 156.278 245.716C156.207 245.359 156.032 245.032 155.775 244.774C155.517 244.517 155.189 244.342 154.833 244.271C154.476 244.2 154.106 244.236 153.769 244.375C153.433 244.515 153.146 244.751 152.944 245.053C152.741 245.356 152.634 245.711 152.634 246.075C152.634 246.317 152.681 246.556 152.774 246.779C152.866 247.003 153.002 247.206 153.172 247.376C153.343 247.547 153.546 247.683 153.769 247.775C153.993 247.868 154.232 247.915 154.474 247.915Z" fill="white" stroke="#1F1A54" stroke-width="1.38" stroke-miterlimit="10"/>
</g>
<path d="M98.8293 159.994L105.649 173.513L109.108 184.292" stroke="#FFD400" stroke-width="0.46" stroke-linecap="round" stroke-linejoin="round"/>
<path d="M303.858 189.891H223.746V242.356H303.858V189.891Z" fill="#FFD400" stroke="#1F1A54" stroke-width="0.74" stroke-linecap="round" stroke-linejoin="round"/>
<path d="M273.431 152.655H223.746V189.961H273.431V152.655Z" fill="#FFD400" stroke="#1F1A54" stroke-width="0.74" stroke-linecap="round" stroke-linejoin="round"/>
<path d="M294.019 169.293H273.431V189.881H294.019V169.293Z" fill="#FFD400" stroke="#1F1A54" stroke-width="0.74" stroke-linecap="round" stroke-linejoin="round"/>
<path d="M314.856 242.355H212.757V246.845H314.856V242.355Z" fill="#1F1A54" stroke="#1F1A54" stroke-width="0.92" stroke-linejoin="round"/>
<path d="M224.756 257.164H216.897V247.285H233.975L224.756 257.164Z" fill="#1F1A54" stroke="#1F1A54" stroke-width="0.92" stroke-linejoin="round"/>
<path d="M220.826 264.803C225.283 264.803 228.895 261.19 228.895 256.734C228.895 252.277 225.283 248.665 220.826 248.665C216.37 248.665 212.757 252.277 212.757 256.734C212.757 261.19 216.37 264.803 220.826 264.803Z" fill="white" stroke="#1F1A54" stroke-width="0.74" stroke-linecap="round" stroke-linejoin="round"/>
<path d="M220.827 260.664C222.997 260.664 224.757 258.905 224.757 256.734C224.757 254.564 222.997 252.804 220.827 252.804C218.656 252.804 216.897 254.564 216.897 256.734C216.897 258.905 218.656 260.664 220.827 260.664Z" stroke="#1F1A54" stroke-width="0.74" stroke-linecap="round" stroke-linejoin="round"/>
<path d="M218.197 256.734C218.196 256.214 218.349 255.706 218.637 255.274" stroke="#1F1A54" stroke-width="0.74" stroke-linecap="round" stroke-linejoin="round"/>
<path d="M221.187 259.334C221.067 259.344 220.946 259.344 220.827 259.334C220.349 259.335 219.88 259.206 219.469 258.961C219.059 258.716 218.723 258.365 218.497 257.944" stroke="#1F1A54" stroke-width="0.74" stroke-linecap="round" stroke-linejoin="round"/>
<path d="M302.858 257.164H310.717V247.285H293.639L302.858 257.164Z" fill="#1F1A54" stroke="#1F1A54" stroke-width="0.92" stroke-linejoin="round"/>
<path d="M306.787 264.803C311.244 264.803 314.856 261.19 314.856 256.734C314.856 252.277 311.244 248.665 306.787 248.665C302.331 248.665 298.718 252.277 298.718 256.734C298.718 261.19 302.331 264.803 306.787 264.803Z" fill="white" stroke="#1F1A54" stroke-width="0.74" stroke-linecap="round" stroke-linejoin="round"/>
<path d="M306.788 260.664C308.958 260.664 310.718 258.905 310.718 256.734C310.718 254.564 308.958 252.804 306.788 252.804C304.617 252.804 302.858 254.564 302.858 256.734C302.858 258.905 304.617 260.664 306.788 260.664Z" stroke="#1F1A54" stroke-width="0.74" stroke-linecap="round" stroke-linejoin="round"/>
<path d="M304.157 256.734C304.156 256.214 304.309 255.706 304.597 255.274" stroke="#1F1A54" stroke-width="0.74" stroke-linecap="round" stroke-linejoin="round"/>
<path d="M307.148 259.334C307.028 259.344 306.908 259.344 306.788 259.334C306.31 259.336 305.84 259.207 305.43 258.962C305.019 258.718 304.683 258.365 304.458 257.944" stroke="#1F1A54" stroke-width="0.74" stroke-linecap="round" stroke-linejoin="round"/>
<path d="M171.042 152.475C170.86 152.131 170.608 151.83 170.302 151.59C169.996 151.35 169.642 151.177 169.265 151.083C168.888 150.988 168.495 150.975 168.112 151.042C167.729 151.11 167.364 151.257 167.042 151.475L155.273 159.184C154.949 159.396 154.673 159.673 154.463 159.999C154.252 160.324 154.112 160.689 154.052 161.072C153.992 161.454 154.012 161.845 154.112 162.22C154.213 162.594 154.39 162.943 154.633 163.244C158.076 167.388 162.68 170.407 167.852 171.913L170.852 172.793L173.251 171.223L173.651 168.093C174.362 162.743 173.453 157.303 171.042 152.475ZM170.982 167.693L170.742 169.563L170.472 169.743L168.662 169.213C164.394 167.975 160.551 165.584 157.553 162.304C157.46 162.196 157.391 162.07 157.351 161.933C157.311 161.796 157.3 161.652 157.32 161.511C157.34 161.37 157.39 161.235 157.466 161.115C157.543 160.995 157.644 160.892 157.763 160.814L167.652 154.375C167.77 154.3 167.903 154.251 168.041 154.231C168.18 154.21 168.321 154.219 168.456 154.257C168.591 154.295 168.716 154.36 168.824 154.449C168.932 154.539 169.02 154.649 169.082 154.775C170.901 158.822 171.558 163.294 170.982 167.693Z" fill="#1F1A54" stroke="#1F1A54" stroke-width="0.74" stroke-linecap="round" stroke-linejoin="round"/>
<path d="M173.556 171.014L170.637 172.926L214.149 239.344L217.068 237.432L173.556 171.014Z" fill="#FFD400" stroke="#1F1A54" stroke-width="0.74" stroke-linecap="round" stroke-linejoin="round"/>
<path d="M167.292 156.199C168.033 155.718 167.958 154.288 167.124 153.005C166.291 151.722 165.015 151.072 164.274 151.554C163.533 152.035 163.608 153.465 164.441 154.748C165.274 156.031 166.551 156.681 167.292 156.199Z" fill="white" stroke="#1F1A54" stroke-width="0.74" stroke-linecap="round" stroke-linejoin="round"/>
<path d="M165.001 158.394C165.725 157.927 165.48 156.258 164.453 154.666C163.426 153.074 162.007 152.162 161.283 152.629C160.559 153.096 160.804 154.765 161.831 156.357C162.858 157.949 164.277 158.861 165.001 158.394Z" fill="white" stroke="#1F1A54" stroke-width="0.74" stroke-linecap="round" stroke-linejoin="round"/>
<path d="M161.783 156.285C162.783 157.915 163.783 159.145 162.213 160.195C160.963 160.995 159.883 159.815 158.833 158.195C157.783 156.575 156.833 154.485 158.023 153.705C159.593 152.595 160.723 154.645 161.783 156.285Z" fill="white" stroke="#1F1A54" stroke-width="0.74" stroke-linecap="round" stroke-linejoin="round"/>
<path d="M159.033 161.426C159.771 160.95 159.603 159.375 158.657 157.909C157.711 156.442 156.346 155.639 155.608 156.115C154.87 156.591 155.038 158.166 155.984 159.632C156.93 161.099 158.295 161.902 159.033 161.426Z" fill="white" stroke="#1F1A54" stroke-width="0.74" stroke-linecap="round" stroke-linejoin="round"/>
<path d="M215.967 233.417C216.818 233.417 217.635 233.755 218.237 234.357C218.839 234.959 219.177 235.775 219.177 236.626V242.357H212.757V236.626C212.757 235.775 213.095 234.959 213.697 234.357C214.299 233.755 215.116 233.417 215.967 233.417Z" fill="#FFD400" stroke="#1F1A54" stroke-width="0.74" stroke-linecap="round" stroke-linejoin="round"/>
<path d="M215.967 237.506C216.453 237.506 216.847 237.112 216.847 236.626C216.847 236.14 216.453 235.746 215.967 235.746C215.481 235.746 215.087 236.14 215.087 236.626C215.087 237.112 215.481 237.506 215.967 237.506Z" fill="#1F1A54" stroke="#1F1A54" stroke-width="0.92" stroke-linejoin="round"/>
<path d="M206.428 101.081L208.228 101.471" stroke="#1F1A54" stroke-width="0.74" stroke-linecap="round" stroke-linejoin="round"/>
<path d="M208.228 101.471L210.498 101.971" stroke="#1F1A54" stroke-width="0.74" stroke-linecap="round" stroke-linejoin="round"/>
<path d="M211.477 102.19L222.456 104.6L230.585 101.49" stroke="#1F1A54" stroke-width="0.74" stroke-linecap="round" stroke-linejoin="round"/>
<path d="M230.585 101.491L232.305 100.831V102.681" stroke="#1F1A54" stroke-width="0.74" stroke-linecap="round" stroke-linejoin="round"/>
<path d="M232.305 102.68V105.17" stroke="#1F1A54" stroke-width="0.74" stroke-linecap="round" stroke-linejoin="round"/>
<path d="M232.305 106.17V120.118" stroke="#1F1A54" stroke-width="0.74" stroke-linecap="round" stroke-linejoin="round"/>
<path d="M232.305 120.119V121.959L234.085 121.459" stroke="#1F1A54" stroke-width="0.74" stroke-linecap="round" stroke-linejoin="round"/>
<path d="M234.085 121.459L237.285 120.559" stroke="#1F1A54" stroke-width="0.74" stroke-linecap="round" stroke-linejoin="round"/>
<path d="M238.245 120.279L246.565 117.929" stroke="#1F1A54" stroke-width="0.74" stroke-linecap="round" stroke-linejoin="round"/>
<path d="M246.563 117.929L248.343 117.429" stroke="#1F1A54" stroke-width="0.74" stroke-linecap="round" stroke-linejoin="round"/>
<path d="M212.337 90.5917C212.337 93.8613 206.428 100.811 206.428 100.811C206.428 100.811 200.508 93.8613 200.508 90.5917C200.571 89.0652 201.222 87.622 202.324 86.5641C203.426 85.5062 204.895 84.9155 206.423 84.9155C207.951 84.9155 209.419 85.5062 210.522 86.5641C211.624 87.622 212.274 89.0652 212.337 90.5917Z" fill="#1F1A54" stroke="#1F1A54" stroke-width="0.74" stroke-linecap="round" stroke-linejoin="round"/>
<path d="M206.428 92.5621C207.516 92.5621 208.398 91.6801 208.398 90.5921C208.398 89.5041 207.516 88.6221 206.428 88.6221C205.34 88.6221 204.458 89.5041 204.458 90.5921C204.458 91.6801 205.34 92.5621 206.428 92.5621Z" fill="white" stroke="#1F1A54" stroke-width="0.74" stroke-linecap="round" stroke-linejoin="round"/>
<path d="M247.654 109.14C247.654 112.409 241.734 119.358 241.734 119.358C241.734 119.358 235.825 112.359 235.825 109.14C235.888 107.613 236.538 106.17 237.641 105.112C238.743 104.054 240.212 103.463 241.739 103.463C243.267 103.463 244.736 104.054 245.838 105.112C246.94 106.17 247.591 107.613 247.654 109.14Z" fill="#1F1A54" stroke="#1F1A54" stroke-width="0.74" stroke-linecap="round" stroke-linejoin="round"/>
<path d="M241.734 111.11C242.822 111.11 243.704 110.228 243.704 109.14C243.704 108.052 242.822 107.17 241.734 107.17C240.646 107.17 239.764 108.052 239.764 109.14C239.764 110.228 240.646 111.11 241.734 111.11Z" fill="white" stroke="#1F1A54" stroke-width="0.74" stroke-linecap="round" stroke-linejoin="round"/>
<path d="M271.671 81.8827C271.671 85.1523 265.762 92.1016 265.762 92.1016C265.762 92.1016 259.842 85.1023 259.842 81.8827C259.905 80.3562 260.556 78.913 261.658 77.8552C262.76 76.7973 264.229 76.2065 265.757 76.2065C267.285 76.2065 268.753 76.7973 269.855 77.8552C270.958 78.913 271.608 80.3562 271.671 81.8827Z" fill="#1F1A54" stroke="#1F1A54" stroke-width="0.74" stroke-linecap="round" stroke-linejoin="round"/>
<path d="M265.762 83.8526C266.85 83.8526 267.732 82.9706 267.732 81.8826C267.732 80.7946 266.85 79.9126 265.762 79.9126C264.674 79.9126 263.792 80.7946 263.792 81.8826C263.792 82.9706 264.674 83.8526 265.762 83.8526Z" fill="white" stroke="#1F1A54" stroke-width="0.74" stroke-linecap="round" stroke-linejoin="round"/>
<path d="M248.344 117.429L265.762 122.988V92.1016" stroke="#1F1A54" stroke-width="0.74" stroke-linecap="round" stroke-linejoin="round"/>
<path d="M254.183 170.603L251.323 169.683L248.583 170.603L246.254 169.683L244.564 170.603V152.645H254.183V170.603Z" fill="white" stroke="#1F1A54" stroke-width="0.74" stroke-linecap="round" stroke-linejoin="round"/>
<path d="M273.431 210.259L269.761 208.419L265.152 210.259L260.612 208.419L257.163 210.259L254.183 208.419V190.021H273.431V210.259Z" fill="white" stroke="#1F1A54" stroke-width="0.74" stroke-linecap="round" stroke-linejoin="round"/>
<path d="M298.718 232.417V223.078L290.629 218.408L282.54 223.078V232.417L290.629 237.076L298.718 232.417Z" fill="#FFD400" stroke="#1F1A54" stroke-width="0.74" stroke-linecap="round" stroke-linejoin="round"/>
<path d="M269.371 182.102V175.063L263.272 171.543L257.173 175.063V182.102L263.272 185.621L269.371 182.102Z" fill="#FFD400" stroke="#1F1A54" stroke-width="0.74" stroke-linecap="round" stroke-linejoin="round"/>
</g>
<defs>
<clipPath id="clip0">
<rect width="375" height="300" fill="white"/>
</clipPath>
</defs>
</svg>
