<svg width="375" height="300" viewBox="0 0 375 300" fill="none" xmlns="http://www.w3.org/2000/svg">
<path d="M282.807 177.52L270.638 169.07" stroke="#1F1A54" stroke-width="2" stroke-linecap="round" stroke-linejoin="round"/>
<path d="M283.388 176.99L274.276 166.09" stroke="#1F1A54" stroke-width="2" stroke-linecap="round" stroke-linejoin="round"/>
<path d="M283.913 176.56L275.926 164.74" stroke="#1F1A54" stroke-width="2" stroke-linecap="round" stroke-linejoin="round"/>
<path d="M282.863 177.47L273.854 168.6" stroke="#1F1A54" stroke-width="2" stroke-linecap="round" stroke-linejoin="round"/>
<path d="M284.485 176.1L278.522 165.77" stroke="#1F1A54" stroke-width="3" stroke-linecap="round" stroke-linejoin="round"/>
<path d="M282.751 184.82C285.563 188.72 298.791 203.05 301.069 201.18C303.348 199.31 293.804 181.97 291.001 178.07C288.197 174.17 285.854 174.99 283.576 176.85C281.298 178.71 279.938 180.93 282.751 184.82Z" fill="white" stroke="#1F1A54" stroke-width="0.8" stroke-linecap="round" stroke-linejoin="round"/>
<path d="M288.376 175.68C287.126 177.264 285.707 178.687 284.148 179.92" stroke="#1F1A54" stroke-width="0.8" stroke-linecap="round" stroke-linejoin="round"/>
<path d="M281.298 180.21C282.34 179.496 283.325 178.69 284.241 177.8" stroke="#1F1A54" stroke-width="0.8" stroke-linecap="round" stroke-linejoin="round"/>
<path d="M281.598 182.54L282.207 182.44C283.888 181.941 285.434 181.022 286.716 179.76" stroke="#1F1A54" stroke-width="0.8" stroke-linecap="round" stroke-linejoin="round"/>
<path d="M290.251 177.25C290.063 177.37 290.073 177.67 289.969 177.89C289.858 178.064 289.732 178.228 289.594 178.38C289.51 178.52 289.463 178.68 289.379 178.83C289.24 179.071 289.062 179.285 288.854 179.46L287.916 180.29" stroke="#1F1A54" stroke-width="0.8" stroke-linecap="round" stroke-linejoin="round"/>
<path d="M289.744 180.28C289.891 180.241 290.028 180.17 290.148 180.07C290.233 179.972 290.308 179.865 290.373 179.75C290.486 179.608 290.611 179.478 290.748 179.36C290.91 179.183 291.038 178.972 291.123 178.74" stroke="#1F1A54" stroke-width="0.8" stroke-linecap="round" stroke-linejoin="round"/>
<path d="M306.376 179.38C306.779 179.38 307.248 178.29 307.135 177.87C307.023 177.45 306.741 177.1 306.61 176.68C306.551 176.404 306.559 176.117 306.632 175.846C306.705 175.574 306.842 175.327 307.029 175.127C307.217 174.927 307.449 174.781 307.703 174.703C307.958 174.625 308.227 174.617 308.485 174.68C307.832 173.515 307.417 172.217 307.266 170.87C307.199 170.196 307.265 169.514 307.459 168.868C307.652 168.223 307.97 167.627 308.391 167.12C309.001 166.44 309.901 165.89 310.004 164.95C309.99 164.575 310.009 164.2 310.06 163.83C310.538 162.35 313.491 163.7 313.585 161.66C313.588 161.495 313.573 161.33 313.538 161.17C313.428 160.206 313.61 159.23 314.057 158.385C314.504 157.539 315.193 156.868 316.023 156.47C316.814 156.111 317.666 155.926 318.526 155.926C319.386 155.926 320.237 156.111 321.029 156.47C321.423 156.63 321.854 156.89 321.966 157.34C321.985 157.576 321.985 157.814 321.966 158.05C321.966 158.78 322.716 159.26 323.391 159.39C324.071 159.423 324.745 159.544 325.398 159.75C326.607 160.32 326.954 161.92 327.16 163.31C327.29 163.847 327.274 164.412 327.113 164.94C326.757 165.78 325.707 166.19 325.557 167.1C325.444 167.81 325.951 168.49 325.876 169.21C325.773 170.12 324.835 170.59 324.169 171.21C323.054 172.21 322.548 173.79 321.413 174.73C320.476 175.5 319.238 175.73 318.376 176.6C317.766 177.18 317.438 178.01 316.773 178.6C316.566 178.785 316.324 178.92 316.063 178.996C315.802 179.072 315.53 179.087 315.263 179.04C314.891 178.961 314.508 178.967 314.138 179.057C313.768 179.146 313.42 179.318 313.116 179.56C312.576 179.968 312.065 180.419 311.588 180.91C311.379 181.157 311.124 181.355 310.838 181.49C310.418 181.589 309.983 181.589 309.563 181.49C308.644 181.461 307.736 181.714 306.948 182.22L306.376 179.38Z" fill="white" stroke="#1F1A54" stroke-width="0.8" stroke-linecap="round" stroke-linejoin="round"/>
<path d="M306.526 182.72C308.944 179.167 311.578 175.786 314.41 172.6C318.291 168.44 321.816 161.5 321.816 161.5C319.921 164.941 317.519 168.034 314.701 170.66C310.843 174.276 307.268 178.223 304.013 182.46C302.513 184.46 306.526 182.72 306.526 182.72Z" fill="white" stroke="#1F1A54" stroke-width="0.8" stroke-linecap="round" stroke-linejoin="round"/>
<path d="M310.454 177.3C311.098 176.434 311.875 175.691 312.751 175.1C313.288 174.71 313.894 174.441 314.532 174.31C315.094 174.31 315.207 174.91 315.713 174.96C315.818 174.968 315.924 174.951 316.023 174.91C317.019 174.49 318.062 174.208 319.126 174.07" stroke="#1F1A54" stroke-width="0.8" stroke-linecap="round" stroke-linejoin="round"/>
<path d="M315.038 171.87C315.254 171.55 317.213 171.99 317.551 171.87C318.788 171.36 320.194 171.43 321.404 170.87" stroke="#1F1A54" stroke-width="0.8" stroke-linecap="round" stroke-linejoin="round"/>
<path d="M317.035 168.17C317.21 167.545 317.511 166.968 317.916 166.48C318.189 166.227 318.401 165.908 318.535 165.55C318.578 165.166 318.526 164.777 318.385 164.42C318.169 163.695 318.028 162.948 317.963 162.19C317.915 161.958 317.92 161.717 317.977 161.488C318.034 161.258 318.142 161.046 318.291 160.87" stroke="#1F1A54" stroke-width="0.8" stroke-linecap="round" stroke-linejoin="round"/>
<path d="M311.982 173.26C312.404 172.72 313.088 171.64 313.51 171.1C313.644 170.95 313.749 170.773 313.819 170.58C313.862 170.295 313.862 170.005 313.819 169.72C313.819 168.86 314.335 168.06 314.344 167.19" stroke="#1F1A54" stroke-width="0.8" stroke-linecap="round" stroke-linejoin="round"/>
<path d="M309.854 175.5C309.836 174.955 309.754 174.414 309.61 173.89C309.357 173.46 308.944 173.16 308.748 172.7C308.638 172.315 308.608 171.91 308.658 171.511C308.708 171.113 308.838 170.731 309.038 170.39" stroke="#1F1A54" stroke-width="0.8" stroke-linecap="round" stroke-linejoin="round"/>
<path d="M278.97 184.214L334.366 169.065L344.442 210.989C344.813 212.53 344.594 214.166 343.834 215.535C343.074 216.905 341.836 217.896 340.391 218.291L295.892 230.46C294.447 230.855 292.914 230.622 291.63 229.812C290.346 229.001 289.417 227.68 289.047 226.138L278.97 184.214Z" fill="#FFD400" stroke="#1F1A54" stroke-width="0.8" stroke-linecap="round" stroke-linejoin="round"/>
<path d="M287.329 219L342.725 203.85L344.451 211.028C344.821 212.569 344.602 214.205 343.842 215.574C343.083 216.943 341.844 217.935 340.399 218.33L295.9 230.499C294.455 230.894 292.922 230.661 291.638 229.851C290.355 229.04 289.425 227.719 289.055 226.177L287.336 219.029L287.329 219Z" fill="#1F1A54"/>
<path d="M303.516 214.6L295.079 179.6C294.591 177.6 293.916 167.52 295.632 161.6C297.066 156.6 300.741 156.06 303.479 154.86C309.216 152.34 317.476 170.54 318.216 173.58L326.579 208.37" stroke="#1F1A54" stroke-width="3" stroke-miterlimit="10"/>
<path d="M322.397 173.71C322.322 173.81 322.229 173.92 322.247 174.05C322.26 174.093 322.28 174.133 322.308 174.168C322.335 174.202 322.369 174.23 322.407 174.25C322.617 174.359 322.848 174.415 323.082 174.415C323.316 174.415 323.546 174.359 323.757 174.25C324.176 174.016 324.619 173.838 325.079 173.72C325.309 173.669 325.55 173.703 325.76 173.818C325.969 173.932 326.136 174.12 326.232 174.35C326.24 174.437 326.277 174.518 326.335 174.58C326.408 174.605 326.487 174.605 326.56 174.58C327.001 174.5 327.497 174.7 327.872 174.51C328.247 174.32 328.388 173.99 328.726 173.89C328.916 173.87 329.107 173.87 329.297 173.89C330.179 173.79 330.722 172.59 331.604 172.63C331.782 172.63 331.951 172.7 332.138 172.72C332.481 172.723 332.821 172.644 333.132 172.49C333.165 172.352 333.223 172.222 333.303 172.109C333.383 171.995 333.484 171.899 333.599 171.828C333.714 171.756 333.842 171.71 333.974 171.691C334.106 171.673 334.241 171.682 334.369 171.72C334.455 171.76 334.548 171.78 334.641 171.78C334.904 171.78 334.894 171.31 335.082 171.1C335.269 170.89 335.513 170.94 335.719 170.84C335.836 170.772 335.936 170.674 336.01 170.556C336.083 170.437 336.128 170.301 336.141 170.16C336.157 169.875 336.135 169.589 336.076 169.31C336.061 169.202 336.022 169.099 335.963 169.01C335.898 168.931 335.813 168.872 335.719 168.84C335.11 168.58 329.082 166.23 328.304 166.67C326.316 167.79 325.726 170.31 324.366 170.02C324.249 169.996 324.128 169.996 324.01 170.02C323.871 170.054 323.74 170.119 323.626 170.21C323.203 170.473 322.826 170.811 322.51 171.21C322.358 171.394 322.254 171.617 322.206 171.857C322.158 172.097 322.169 172.346 322.238 172.58C322.416 172.9 322.716 173.22 322.397 173.71Z" fill="white" stroke="#1F1A54" stroke-width="0.8" stroke-linecap="round" stroke-linejoin="round"/>
<path d="M325.988 168.83C326.298 168.52 330.46 168.24 331.36 169.04C331.991 169.491 332.714 169.776 333.469 169.87" fill="white"/>
<path d="M325.988 168.83C326.298 168.52 330.46 168.24 331.36 169.04C331.991 169.491 332.714 169.776 333.469 169.87" stroke="#1F1A54" stroke-width="0.8" stroke-linecap="round" stroke-linejoin="round"/>
<path d="M327.479 168.6C327.724 169.08 327.999 169.541 328.304 169.98C328.588 170.693 328.783 171.443 328.885 172.21" stroke="#1F1A54" stroke-width="0.8" stroke-linecap="round" stroke-linejoin="round"/>
<path d="M325.66 169.32C325.724 169.497 325.724 169.693 325.66 169.87C325.446 170.502 325.182 171.114 324.873 171.7" stroke="#1F1A54" stroke-width="0.8" stroke-linecap="round" stroke-linejoin="round"/>
<path d="M100.548 108.41L99.8071 100.41C99.7626 99.9275 99.8995 99.4458 100.188 99.0708C100.476 98.6958 100.892 98.4582 101.345 98.4102L109.388 97.6002C109.612 97.5753 109.838 97.5977 110.053 97.6663C110.269 97.7348 110.469 97.8481 110.643 97.9995C110.818 98.151 110.962 98.3377 111.068 98.5489C111.175 98.7601 111.241 98.9916 111.263 99.2302L112.107 108.33" stroke="#1F1A54" stroke-width="0.8" stroke-linecap="round" stroke-linejoin="round"/>
<path d="M113.316 121.47L113.504 123.47C113.527 123.709 113.506 123.95 113.442 124.179C113.378 124.409 113.271 124.623 113.129 124.809C112.987 124.995 112.812 125.149 112.614 125.262C112.416 125.376 112.199 125.446 111.976 125.47L103.932 126.32C103.481 126.368 103.031 126.223 102.679 125.918C102.328 125.612 102.104 125.171 102.057 124.69L101.926 123.19" stroke="#1F1A54" stroke-width="0.8" stroke-linecap="round" stroke-linejoin="round"/>
<path d="M230.794 70.23L233.063 72.71V75.47L234.779 77.47L236.879 75.47V72.71L245.251 68.6L247.566 67.46V70.96C247.566 70.96 263.063 76.04 266.316 80.2C270.423 85.5 279.619 96.38 279.619 96.38L266.935 108.82L260.091 101.97V149.88C260.091 149.88 229.519 156 215.326 151.16C214.744 150.95 214.191 150.74 213.666 150.5V99.17L202.66 102.27L199.791 82.6L229.163 71.5V68.5L230.794 70.23Z" fill="#FFD400"/>
<path d="M277.06 251.69C275.185 252.28 272.457 252.04 270.863 252.01L268.735 247.74L268.576 247.47L277.388 241.33L281.71 249.33C280.285 250.371 278.716 251.168 277.06 251.69Z" fill="white"/>
<path d="M281.719 249.34C281.987 249.154 282.244 248.95 282.488 248.73C284.71 251.18 286.491 252.92 286.491 252.92C286.491 252.92 274.36 264.22 267.198 269.76C264.798 265.98 261.573 267.27 261.573 267.27C262.416 266.21 263.551 264.76 264.619 263.33L265.313 262.38C265.651 261.9 265.979 261.38 266.251 260.91C266.744 260.106 267.198 259.275 267.61 258.42C268.091 257.429 268.514 256.407 268.876 255.36C269.225 254.417 269.453 253.428 269.551 252.42C269.298 252.06 269.851 252 270.816 252.01C272.41 252.01 275.119 252.28 277.013 251.69C278.688 251.176 280.277 250.383 281.719 249.34Z" fill="#FFD400"/>
<path d="M261.582 267.27C261.582 267.27 264.798 265.98 267.207 269.76C265.893 270.851 264.48 271.799 262.988 272.59C260.991 273.45 259.548 273.46 259.098 272.51C258.917 272.069 258.884 271.574 259.004 271.11C259.201 270.01 260.513 268.6 261.582 267.27Z" fill="white"/>
<path d="M259.088 272.51C259.538 273.51 260.963 273.45 262.979 272.59C264.47 271.799 265.883 270.851 267.198 269.76C274.36 264.22 286.491 252.92 286.491 252.92C288.366 254.51 288.179 255.65 286.754 256.99C285.329 258.33 272.288 269.83 269.044 272.29C264.151 276 261.723 275.7 260.176 274.2C259.107 273.2 259.079 272.58 259.079 272.52L259.088 272.51Z" fill="white"/>
<path d="M253.566 56.87C252.426 58.1188 251.133 59.1985 249.723 60.08C248.291 61.0203 246.749 61.7565 245.138 62.27V60.02C249.198 58.94 254.513 55.02 254.869 54.73C254.489 55.4793 254.054 56.195 253.566 56.87Z" fill="#1F1A54"/>
<path d="M240.385 55.3601C238.998 58.4201 238.51 61.2101 240.291 62.2701L239.626 63.5101C237.319 65.8901 233.223 66.5101 231.573 66.1901C231.298 66.1498 231.026 66.0931 230.757 66.0201C227.813 65.2801 226.069 63.2101 225.048 60.1401C224.991 59.9901 224.944 59.8301 224.898 59.6701C223.96 56.6001 223.96 49.7801 224.129 44.1401C229.838 44.3801 236.823 44.6101 239.082 44.4101C239.56 44.4101 239.823 44.3101 239.823 44.2401C240.679 45.9349 241.173 47.8106 241.271 49.733C241.368 51.6554 241.065 53.577 240.385 55.3601Z" fill="white"/>
<path d="M240.291 62.27C241.003 62.6334 241.793 62.7854 242.579 62.71C243.445 62.6652 244.303 62.5176 245.138 62.27V68.42L245.251 68.6L236.935 72.71V75.47L234.835 77.47L233.12 75.47V72.71L230.832 70.23V66.02C231.101 66.093 231.373 66.1497 231.648 66.19C233.298 66.46 237.395 65.89 239.701 63.51L240.291 62.27Z" fill="white"/>
<path d="M239.11 44.4098C236.851 44.6098 229.866 44.4098 224.157 44.1398L221.954 44.0398C219.141 43.9198 216.929 43.7998 216.226 43.7498C214.669 43.6498 217.079 42.1998 218.982 40.6098C219.207 40.4198 219.394 40.2598 219.535 40.1198C220.107 39.5998 220.051 39.5098 220.051 39.5098C220.266 38.8898 221.401 38.4298 222.863 38.4498C225.675 38.416 228.477 38.8031 231.188 39.5998C234.152 40.4491 236.881 42.0436 239.148 44.2498L239.11 44.4098Z" fill="#1F1A54"/>
<path d="M238.191 178.26L233.326 213.36V255.42H218.888L215.354 151.16C229.548 156 260.119 149.88 260.119 149.88L260.438 204.63L278.354 240.68L277.416 241.33L268.604 247.47L265.876 249.38L244.163 209.48L238.191 178.26Z" fill="#1F1A54"/>
<path d="M223.548 52.8201C224.213 50.8201 222.976 47.9901 222.151 45.0801C222.057 44.7539 221.991 44.4191 221.954 44.0801L224.157 44.1801C223.941 49.8201 224.007 56.6401 224.926 59.7101C224.973 59.8701 225.019 60.0301 225.076 60.1801C221.813 58.8101 222.751 55.2301 223.548 52.8201Z" fill="#1F1A54"/>
<path d="M221.598 36.8301C221.813 36.4501 225.563 28.2701 234.17 25.6001C242.776 22.9301 253.473 27.1001 256.557 38.3001C258.035 43.7923 257.436 49.6836 254.888 54.7101C254.532 54.9801 249.263 58.9201 245.157 60.0001C244.82 60.0868 244.507 60.1568 244.22 60.2101C241.21 60.6401 241.313 59.5901 242.551 55.6601C244.848 48.3501 243.488 42.6601 237.61 39.8001C231.048 36.5501 223.763 36.5001 222.695 36.7301C222.339 36.8092 221.988 36.9127 221.645 37.0401V36.8401L221.598 36.8301Z" fill="#FFD400"/>
<path d="M230.523 264.6C228.852 264.569 227.195 264.266 225.61 263.7C223.873 263.045 222.21 262.187 220.651 261.14L220.773 260.93L220.66 255.45H230.523V264.6Z" fill="white"/>
<path d="M237.544 39.8198C243.394 42.6998 244.782 48.3698 242.485 55.6798C241.247 59.6098 241.144 60.6798 244.154 60.2298C244.472 60.1765 244.785 60.1065 245.091 60.0198V62.2698C244.256 62.5174 243.398 62.665 242.532 62.7098C241.746 62.7852 240.956 62.6332 240.244 62.2698C238.482 61.2098 238.951 58.4198 240.338 55.3598C241.023 53.5788 241.33 51.6584 241.238 49.736C241.145 47.8136 240.656 45.9368 239.804 44.2398C239.729 43.6798 236.054 39.7498 228.872 38.4398C226.585 38.0198 223.013 37.6598 220.951 38.1898C220.951 38.1898 219.797 38.2698 219.469 40.1198C219.31 38.6698 219.976 37.6498 221.532 37.0698C221.875 36.9424 222.226 36.8389 222.582 36.7598C223.688 36.5198 230.944 36.5998 237.544 39.8198Z" fill="#1F1A54"/>
<path d="M207.863 272.54C207.863 267.98 204.573 267.08 204.573 267.08C205.819 266.73 207.535 266.23 209.176 265.69L210.254 265.33C210.788 265.15 211.323 264.94 211.838 264.72C212.683 264.361 213.509 263.953 214.313 263.5C215.244 262.984 216.14 262.399 216.994 261.75C217.783 261.19 218.496 260.517 219.113 259.75C219.019 259.88 219.666 260.43 220.679 261.11C222.238 262.157 223.901 263.015 225.638 263.67C227.223 264.235 228.88 264.539 230.551 264.57C230.925 264.595 231.301 264.595 231.676 264.57C232.201 267.93 232.735 270.45 232.735 270.45C232.735 270.45 216.741 272.37 207.891 272.58L207.863 272.54Z" fill="#FFD400"/>
<path d="M207.863 272.54C206.197 272.638 204.526 272.558 202.876 272.3C200.794 271.79 199.604 270.94 199.716 269.88C199.81 269.408 200.048 268.983 200.391 268.67C201.151 267.89 202.979 267.54 204.573 267.08C204.573 267.08 207.901 267.98 207.863 272.54Z" fill="white"/>
<path d="M207.863 272.6C216.713 272.39 232.707 270.47 232.707 270.47C233.401 272.91 232.641 273.74 230.748 273.96C228.854 274.18 211.998 275.74 208.032 275.79C202.023 275.87 200.185 274.15 199.716 271.98C199.37 270.4 199.716 269.98 199.716 269.98C199.604 271.04 200.795 271.89 202.876 272.4C204.528 272.644 206.199 272.711 207.863 272.6Z" fill="white"/>
<path d="M224.157 44.1401C223.941 49.7801 224.007 56.6001 224.926 59.6701C224.973 59.8301 225.019 59.9901 225.076 60.1401C226.088 63.2101 227.841 65.2801 230.785 66.0201C231.054 66.0931 231.326 66.1498 231.601 66.1901C233.251 66.4601 237.348 65.8901 239.654 63.5101" stroke="#1F1A54" stroke-width="0.8" stroke-linecap="round" stroke-linejoin="round"/>
<path d="M245.138 62.27V68.42" stroke="#1F1A54" stroke-width="0.8" stroke-linecap="round" stroke-linejoin="round"/>
<path d="M230.794 66.02V70.23" stroke="#1F1A54" stroke-width="0.8" stroke-linecap="round" stroke-linejoin="round"/>
<path d="M213.666 99.17L202.66 102.27L199.791 82.6L229.163 71.5V68.5L230.794 70.27L233.063 72.71V75.47L234.779 77.47L236.879 75.47V72.71L245.251 68.6L247.566 67.46V70.96C247.566 70.96 263.063 76.04 266.316 80.2C270.423 85.5 279.619 96.38 279.619 96.38L266.935 108.82L260.091 101.97" stroke="#1F1A54" stroke-width="0.8" stroke-linecap="round" stroke-linejoin="round"/>
<path d="M254.888 54.7099C257.436 49.6834 258.035 43.7921 256.557 38.2999C253.473 27.0999 242.86 22.8199 234.17 25.5999C225.479 28.3799 221.813 36.4499 221.598 36.8299" stroke="#1F1A54" stroke-width="0.8" stroke-linecap="round" stroke-linejoin="round"/>
<path d="M239.851 44.2402C240.703 45.9372 241.192 47.8141 241.285 49.7364C241.377 51.6588 241.07 53.5793 240.385 55.3602C238.998 58.4202 238.51 61.2102 240.291 62.2702C241.003 62.6336 241.793 62.7856 242.579 62.7102C243.445 62.6654 244.303 62.5178 245.138 62.2702C246.749 61.7568 248.291 61.0205 249.723 60.0802C251.133 59.1987 252.426 58.1191 253.566 56.8702C254.054 56.1952 254.49 55.4796 254.87 54.7302" stroke="#1F1A54" stroke-width="0.8" stroke-linecap="round" stroke-linejoin="round"/>
<path d="M225.066 60.1501C221.804 58.8101 222.751 55.2301 223.548 52.8201C224.213 50.8201 222.976 47.9901 222.151 45.0801C222.057 44.7539 221.991 44.4191 221.954 44.0801" stroke="#1F1A54" stroke-width="0.8" stroke-linecap="round" stroke-linejoin="round"/>
<path d="M220.998 38.1802C220.998 38.1802 219.844 38.2602 219.516 40.1102" stroke="#1F1A54" stroke-width="0.8" stroke-linecap="round" stroke-linejoin="round"/>
<path d="M220.998 38.1801C223.06 37.6501 226.623 38.0101 228.919 38.4301C236.101 39.7401 239.776 43.6701 239.851 44.2301C239.851 44.3001 239.588 44.3601 239.11 44.4001C236.851 44.6001 229.866 44.4001 224.157 44.1301L221.954 44.0301C219.141 43.9101 216.929 43.7901 216.226 43.7401C214.669 43.6401 217.079 42.1901 218.982 40.6001C219.207 40.4101 219.394 40.2501 219.535 40.1101C220.107 39.5901 220.051 39.5001 220.051 39.5001" stroke="#1F1A54" stroke-width="0.8" stroke-linecap="round" stroke-linejoin="round"/>
<path d="M254.888 54.71C254.532 54.98 249.263 58.92 245.157 60C244.819 60.0866 244.507 60.1566 244.219 60.21C241.21 60.64 241.313 59.59 242.551 55.66C244.847 48.35 243.488 42.66 237.61 39.8C231.048 36.55 223.763 36.5 222.694 36.73C222.338 36.8091 221.988 36.9126 221.644 37.04C220.088 37.62 219.422 38.64 219.582 40.09" stroke="#1F1A54" stroke-width="0.8" stroke-linecap="round" stroke-linejoin="round"/>
<path d="M239.101 44.2598C236.849 42.057 234.136 40.4594 231.188 39.5998C228.508 38.8089 225.738 38.4185 222.957 38.4398C221.448 38.4398 220.313 38.8798 220.145 39.4998" stroke="#1F1A54" stroke-width="0.8" stroke-linecap="round" stroke-linejoin="round"/>
<path d="M260.091 101.96V149.87C260.091 149.87 229.519 155.99 215.326 151.15C214.744 150.94 214.191 150.73 213.666 150.49V99.1699" stroke="#1F1A54" stroke-width="0.8" stroke-linecap="round" stroke-linejoin="round"/>
<path d="M238.191 178.26L233.326 213.36L233.297 255.42H230.522H220.669H218.86L215.335 151.16V151.14" stroke="#1F1A54" stroke-width="0.8" stroke-linecap="round" stroke-linejoin="round"/>
<path d="M230.429 168.84L238.191 178.26L244.135 209.48L265.848 249.38L268.576 247.47L277.398 241.33L278.335 240.68L260.42 204.63L260.101 149.88" stroke="#1F1A54" stroke-width="0.8" stroke-linecap="round" stroke-linejoin="round"/>
<path d="M199.716 269.89C199.604 270.95 200.794 271.8 202.876 272.31C204.527 272.568 206.197 272.648 207.863 272.55C216.713 272.34 232.707 270.42 232.707 270.42C232.707 270.42 232.173 267.9 231.648 264.54C231.273 264.565 230.897 264.565 230.523 264.54C228.852 264.509 227.195 264.206 225.61 263.64C223.873 262.985 222.21 262.127 220.651 261.08C219.638 260.4 218.991 259.85 219.085 259.72C218.468 260.488 217.755 261.161 216.966 261.72C216.122 262.379 215.235 262.973 214.313 263.5C213.518 263.953 212.702 264.36 211.866 264.72C211.351 264.94 210.816 265.15 210.282 265.33L209.204 265.69C207.563 266.23 205.848 266.69 204.601 267.08C203.007 267.54 201.179 267.89 200.419 268.67C200.076 268.983 199.838 269.409 199.744 269.88" stroke="#1F1A54" stroke-width="0.8" stroke-linecap="round" stroke-linejoin="round"/>
<path d="M207.863 272.54C207.863 267.98 204.573 267.08 204.573 267.08" stroke="#1F1A54" stroke-width="0.8" stroke-linecap="round" stroke-linejoin="round"/>
<path d="M199.716 269.88C199.716 269.88 199.37 270.34 199.716 271.88C200.185 274.05 202.023 275.77 208.032 275.69C212.007 275.69 228.863 274.09 230.748 273.86C232.632 273.63 233.401 272.81 232.707 270.37" stroke="#1F1A54" stroke-width="0.8" stroke-linecap="round" stroke-linejoin="round"/>
<path d="M218.054 263.04L216.976 261.75L215.869 260.44" stroke="#1F1A54" stroke-width="0.8" stroke-linecap="round" stroke-linejoin="round"/>
<path d="M215.401 265.1L214.285 263.5L213.432 262.25" stroke="#1F1A54" stroke-width="0.8" stroke-linecap="round" stroke-linejoin="round"/>
<path d="M212.795 266.34L211.848 264.72L211.004 263.29" stroke="#1F1A54" stroke-width="0.8" stroke-linecap="round" stroke-linejoin="round"/>
<path d="M210.179 267.38L209.185 265.69L208.388 264.34" stroke="#1F1A54" stroke-width="0.8" stroke-linecap="round" stroke-linejoin="round"/>
<path d="M270.863 252.01C269.926 252.01 269.344 252.06 269.598 252.42C269.5 253.428 269.272 254.417 268.923 255.36C268.561 256.407 268.138 257.429 267.657 258.42C267.245 259.275 266.791 260.106 266.298 260.91C265.988 261.41 265.66 261.91 265.36 262.38L264.666 263.33C263.598 264.76 262.463 266.21 261.619 267.27C260.551 268.61 259.238 270.01 259.032 271.11C258.912 271.574 258.945 272.069 259.126 272.51C259.576 273.51 261.001 273.45 263.016 272.59C264.508 271.799 265.921 270.851 267.235 269.76C274.398 264.22 286.529 252.92 286.529 252.92C286.529 252.92 284.748 251.18 282.526 248.73C282.282 248.95 282.025 249.154 281.757 249.34C280.32 250.381 278.738 251.174 277.069 251.69C275.166 252.28 272.438 252.04 270.863 252.01Z" stroke="#1F1A54" stroke-width="0.8" stroke-linecap="round" stroke-linejoin="round"/>
<path d="M267.198 269.76C264.798 265.98 261.573 267.27 261.573 267.27" stroke="#1F1A54" stroke-width="0.8" stroke-linecap="round" stroke-linejoin="round"/>
<path d="M259.079 272.52C259.079 272.58 259.079 273.16 260.176 274.2C261.723 275.7 264.151 276 269.044 272.29C272.288 269.83 285.319 258.29 286.754 256.99C288.188 255.69 288.366 254.51 286.491 252.92" stroke="#1F1A54" stroke-width="0.8" stroke-linecap="round" stroke-linejoin="round"/>
<path d="M270.507 255.77L268.923 255.36L267.338 254.95" stroke="#1F1A54" stroke-width="0.8" stroke-linecap="round" stroke-linejoin="round"/>
<path d="M269.419 259.06L267.666 258.42L266.279 257.92" stroke="#1F1A54" stroke-width="0.8" stroke-linecap="round" stroke-linejoin="round"/>
<path d="M267.948 261.66L266.307 260.91L264.854 260.25" stroke="#1F1A54" stroke-width="0.8" stroke-linecap="round" stroke-linejoin="round"/>
<path d="M266.344 264.11L264.638 263.33L263.26 262.7" stroke="#1F1A54" stroke-width="0.8" stroke-linecap="round" stroke-linejoin="round"/>
<path d="M277.407 241.34L281.719 249.34V249.35" stroke="#1F1A54" stroke-width="0.8" stroke-linecap="round" stroke-linejoin="round"/>
<path d="M268.735 247.74L270.863 252.01" stroke="#1F1A54" stroke-width="0.8" stroke-linecap="round" stroke-linejoin="round"/>
<path d="M230.522 255.42V264.57" stroke="#1F1A54" stroke-width="0.8" stroke-linecap="round" stroke-linejoin="round"/>
<path d="M220.66 255.42L220.773 260.9" stroke="#1F1A54" stroke-width="0.8" stroke-linecap="round" stroke-linejoin="round"/>
<path d="M117.469 99.2799L130.416 101.89C133.182 102.38 135.554 100.47 136.623 97.7099C140.166 88.6099 142.519 69.3599 145.538 64.9499C146.682 63.2899 149.363 60.0399 150.376 57.1799C150.807 55.9699 151.004 55.0799 151.763 53.1799C152.3 51.9181 152.956 50.7185 153.723 49.5999C154.201 48.9299 155.504 47.0799 154.294 46.2899C153.76 45.9399 153.038 46.3899 152.794 46.6099C152.275 47.0657 151.812 47.5899 151.416 48.1699C150.688 49.0574 149.915 49.902 149.101 50.6999C149.101 50.6999 150.976 47.0799 151.763 45.9499C152.26 45.1999 153.751 43.2799 152.588 42.2599C152.314 42.0952 152.001 42.0205 151.687 42.0455C151.374 42.0704 151.074 42.1937 150.826 42.3999C150.349 42.8812 149.944 43.4376 149.626 44.0499C149.166 44.7899 146.813 47.9199 146.813 47.9199C146.813 47.9199 149.082 43.1999 149.691 42.0299C150.169 41.1199 151.707 38.6499 150.057 37.6299C148.969 36.9599 147.638 38.8999 146.944 40.0599C146.007 41.6199 143.448 46.6699 143.448 46.6699L145.323 40.7699C145.323 40.7699 146.26 38.3499 144.741 37.6799C143.223 37.0099 142.613 38.8099 142.248 39.6799C140.494 43.6099 138.816 47.8199 138.066 50.1499C137.026 53.3599 134.757 45.0099 132.31 45.9299C129.863 46.8499 137.101 59.9299 134.86 65.4899L126.779 85.2199L119.888 82.5999L117.469 99.2799Z" fill="white" stroke="#1F1A54" stroke-width="0.8" stroke-linecap="round" stroke-linejoin="round"/>
<path d="M139.791 52.7998C139.791 52.7998 141.666 55.0198 141.479 56.7998C142.223 56.0413 143.19 55.5788 144.216 55.4898" stroke="#1F1A54" stroke-width="0.8" stroke-linecap="round" stroke-linejoin="round"/>
<path d="M48.8539 252.39C46.5589 252.546 44.2547 252.354 42.0102 251.82C40.4579 251.421 39.0257 250.609 37.8477 249.46L37.9508 249.34L42.2727 241.34L51.1883 247.14L48.7695 252.01L48.8539 252.39Z" fill="#FFD400"/>
<path d="M94.0601 263.67C92.4607 264.253 90.7421 264.356 89.0913 263.97L89.1476 263.66V255.42H99.0007L98.8788 260.89L99.0007 261.11C97.4475 262.155 95.7905 263.014 94.0601 263.67Z" fill="#FFD400"/>
<path d="M102.751 261.75C103.605 262.399 104.501 262.984 105.432 263.5C106.227 263.952 107.044 264.36 107.879 264.72C108.394 264.94 108.929 265.15 109.463 265.33L110.541 265.69C112.182 266.23 113.897 266.69 115.144 267.08C116.738 267.54 118.566 267.89 119.326 268.67C119.669 268.983 119.907 269.408 120.001 269.88C120.113 270.94 118.922 271.79 116.841 272.3C112.154 273.43 87.2725 268.95 87.2725 268.95C87.2725 268.95 87.7037 267.02 88.21 263.67C88.5141 263.795 88.8278 263.892 89.1475 263.96C90.7983 264.346 92.5168 264.243 94.1162 263.66C95.8268 263.003 97.4648 262.148 99.0006 261.11C100.013 260.43 100.66 259.88 100.566 259.75C101.203 260.522 101.938 261.196 102.751 261.75Z" fill="white"/>
<path d="M87.2257 268.96C87.2257 268.96 112.126 273.44 116.813 272.31C118.894 271.8 120.085 270.95 119.973 269.89C119.973 269.89 120.319 270.35 119.973 271.89C119.504 274.06 117.666 275.78 111.657 275.7C107.682 275.7 88.7445 274.87 86.8601 274.64C84.9757 274.41 86.532 271.41 87.2257 268.96Z" fill="white"/>
<path d="M56.982 272C59.007 272.76 60.4413 272.69 60.8538 271.73C60.8538 271.73 60.9101 272.32 59.832 273.47C58.3507 275.04 55.932 275.47 50.8882 271.99C47.5601 269.71 31.8945 258.32 30.4132 257.06C28.932 255.8 31.7726 254.12 33.582 252.43C33.582 252.43 52.4538 270.31 56.982 272Z" fill="white"/>
<path d="M51.6852 258.08C52.1258 258.89 52.6227 259.71 53.157 260.5C53.4852 260.98 53.832 261.5 54.1977 261.92C54.432 262.22 54.6758 262.52 54.9383 262.83C56.0539 264.21 57.2539 265.6 58.1445 266.62C59.2695 267.9 60.6477 269.24 60.8914 270.33C61.0415 270.783 61.0415 271.277 60.8914 271.73C60.4789 272.73 59.0164 272.73 57.0195 272C52.4914 270.31 33.582 252.43 33.582 252.43C33.582 252.43 34.9133 251.04 37.0227 248.43C37.2672 248.791 37.5435 249.126 37.8477 249.43C39.0257 250.58 40.4579 251.392 42.0102 251.79C44.2547 252.324 46.5589 252.516 48.8539 252.36C49.257 252.36 49.4914 252.25 49.4914 252.16C49.6301 253.158 49.8983 254.131 50.2883 255.05C50.69 256.092 51.1566 257.105 51.6852 258.08Z" fill="white"/>
<path d="M119.954 269.89C120.066 270.95 118.876 271.8 116.795 272.31C112.107 273.44 87.2258 268.96 87.2258 268.96C87.2258 268.96 87.6571 267.03 88.1633 263.68" stroke="#1F1A54" stroke-width="0.8" stroke-linecap="round" stroke-linejoin="round"/>
<path d="M88.1726 263.68C88.4768 263.805 88.7904 263.902 89.1101 263.97C90.7609 264.356 92.4795 264.253 94.0789 263.67C95.8028 263.013 97.4535 262.154 99.0007 261.11C100.013 260.43 100.66 259.88 100.566 259.75C101.183 260.517 101.896 261.19 102.685 261.75C103.54 262.399 104.435 262.984 105.366 263.5C106.161 263.952 106.978 264.36 107.813 264.72C108.329 264.94 108.863 265.15 109.398 265.33L110.476 265.69C112.116 266.23 113.832 266.69 115.079 267.08C116.673 267.54 118.501 267.89 119.26 268.67C119.604 268.983 119.841 269.408 119.935 269.88" stroke="#1F1A54" stroke-width="0.8" stroke-linecap="round" stroke-linejoin="round"/>
<path d="M119.954 269.88C119.954 269.88 120.301 270.34 119.954 271.88C119.485 274.05 117.648 275.77 111.638 275.69C107.663 275.69 88.7258 274.86 86.8414 274.63C84.957 274.4 86.532 271.36 87.2258 268.91" stroke="#1F1A54" stroke-width="0.8" stroke-linecap="round" stroke-linejoin="round"/>
<path d="M101.635 263.04L102.704 261.75L103.81 260.44" stroke="#1F1A54" stroke-width="0.8" stroke-linecap="round" stroke-linejoin="round"/>
<path d="M104.288 265.1L105.385 263.5L106.247 262.25" stroke="#1F1A54" stroke-width="0.8" stroke-linecap="round" stroke-linejoin="round"/>
<path d="M106.895 266.34L107.832 264.72L108.666 263.29" stroke="#1F1A54" stroke-width="0.8" stroke-linecap="round" stroke-linejoin="round"/>
<path d="M109.501 267.38L110.504 265.69L111.291 264.34" stroke="#1F1A54" stroke-width="0.8" stroke-linecap="round" stroke-linejoin="round"/>
<path d="M49.4914 252.18C49.6301 253.178 49.8983 254.151 50.2883 255.07C50.6911 256.102 51.1577 257.104 51.6852 258.07C52.1258 258.88 52.6227 259.7 53.157 260.49C53.4852 260.97 53.832 261.49 54.1977 261.91C54.432 262.21 54.6758 262.51 54.9383 262.82C56.0539 264.2 57.2539 265.59 58.1445 266.61C59.2695 267.89 60.6477 269.23 60.8914 270.32C61.0415 270.773 61.0415 271.267 60.8914 271.72V271.72C60.4789 272.72 59.0164 272.72 57.0195 271.99C52.4914 270.3 33.582 252.42 33.582 252.42C33.582 252.42 34.9133 251.03 37.0227 248.42C37.2672 248.78 37.5435 249.115 37.8477 249.42C39.0257 250.569 40.4579 251.381 42.0102 251.78C44.2547 252.314 46.5589 252.506 48.8539 252.35C49.257 252.35 49.4914 252.24 49.4914 252.15" stroke="#1F1A54" stroke-width="0.8" stroke-linecap="round" stroke-linejoin="round"/>
<path d="M60.8726 271.74C60.8726 271.74 60.9288 272.33 59.8507 273.48C58.3695 275.05 55.9507 275.48 50.907 272C47.5601 269.71 31.8945 258.32 30.4132 257.06C28.932 255.8 31.7726 254.12 33.582 252.43" stroke="#1F1A54" stroke-width="0.8" stroke-linecap="round" stroke-linejoin="round"/>
<path d="M48.7412 255.57L50.2975 255.08L51.8725 254.59" stroke="#1F1A54" stroke-width="0.8" stroke-linecap="round" stroke-linejoin="round"/>
<path d="M49.9695 258.81L51.6945 258.08L53.0632 257.51" stroke="#1F1A54" stroke-width="0.8" stroke-linecap="round" stroke-linejoin="round"/>
<path d="M51.5537 261.33L53.1662 260.5L54.5725 259.77" stroke="#1F1A54" stroke-width="0.8" stroke-linecap="round" stroke-linejoin="round"/>
<path d="M53.2507 263.7L54.9382 262.83L56.2789 262.14" stroke="#1F1A54" stroke-width="0.8" stroke-linecap="round" stroke-linejoin="round"/>
<path d="M37.9507 249.34L42.2726 241.33L51.2351 247.14L48.8069 252.01" stroke="#1F1A54" stroke-width="0.8" stroke-linecap="round" stroke-linejoin="round"/>
<path d="M89.1475 263.66V255.42H99.0287L98.8975 260.89" stroke="#1F1A54" stroke-width="0.8" stroke-linecap="round" stroke-linejoin="round"/>
<path d="M235.285 49.95C235.736 49.95 236.101 49.453 236.101 48.84C236.101 48.2269 235.736 47.73 235.285 47.73C234.835 47.73 234.469 48.2269 234.469 48.84C234.469 49.453 234.835 49.95 235.285 49.95Z" fill="#1F1A54"/>
<path d="M227.822 50.0901C228.273 50.0901 228.638 49.5932 228.638 48.9801C228.638 48.3671 228.273 47.8701 227.822 47.8701C227.372 47.8701 227.007 48.3671 227.007 48.9801C227.007 49.5932 227.372 50.0901 227.822 50.0901Z" fill="#1F1A54"/>
<path d="M236.748 45.54C236.262 45.2147 235.699 45.0447 235.126 45.05C234.513 45.0424 233.914 45.2381 233.41 45.61" stroke="#1F1A54" stroke-width="0.8" stroke-linecap="round" stroke-linejoin="round"/>
<path d="M229.632 45.5401C229.15 45.2145 228.59 45.0444 228.019 45.0501C227.407 45.0411 226.807 45.237 226.304 45.6101" stroke="#1F1A54" stroke-width="0.8" stroke-linecap="round" stroke-linejoin="round"/>
<path d="M238.06 55.46C237.817 56.3842 237.337 57.2181 236.675 57.868C236.013 58.518 235.194 58.9584 234.31 59.14" stroke="#1F1A54" stroke-width="0.8" stroke-linecap="round" stroke-linejoin="round"/>
<path d="M232.698 53.9502C232.364 54.1393 231.992 54.2382 231.615 54.2382C231.237 54.2382 230.865 54.1393 230.532 53.9502" stroke="#1F1A54" stroke-width="0.8" stroke-linecap="round" stroke-linejoin="round"/>
<path d="M230.804 68.46H229.163" stroke="#1F1A54" stroke-width="0.8" stroke-linecap="round" stroke-linejoin="round"/>
<path d="M247.529 67.46H245.532" stroke="#1F1A54" stroke-width="0.8" stroke-linecap="round" stroke-linejoin="round"/>
<path d="M234.807 77.4902C234.372 79.2467 234.059 81.0348 233.869 82.8402C233.701 85.1902 233.382 96.3802 233.382 96.3802" stroke="#1F1A54" stroke-width="0.8" stroke-linecap="round" stroke-linejoin="round"/>
<path d="M202.21 99.2799L189.263 101.89C186.497 102.38 184.126 100.47 183.057 97.7099C179.513 88.6099 177.16 69.3599 174.141 64.9499C172.997 63.2899 170.316 60.0399 169.304 57.1799C168.872 55.9699 168.676 55.0799 167.916 53.1799C167.38 51.9181 166.723 50.7185 165.957 49.5999C165.479 48.9299 164.176 47.0799 165.385 46.2899C165.919 45.9399 166.641 46.3899 166.885 46.6099C167.404 47.0657 167.867 47.5899 168.263 48.1699C168.991 49.0574 169.764 49.902 170.579 50.6999C170.579 50.6999 168.704 47.0799 167.916 45.9499C167.419 45.1999 165.929 43.2799 167.091 42.2599C167.365 42.0952 167.679 42.0206 167.992 42.0455C168.306 42.0704 168.606 42.1937 168.854 42.3999C169.326 42.8906 169.727 43.4535 170.044 44.0699C170.504 44.8099 172.857 47.9399 172.857 47.9399C172.857 47.9399 170.588 43.2199 169.979 42.0499C169.501 41.1399 167.963 38.6699 169.613 37.6499C170.701 36.9799 172.032 38.9199 172.726 40.0799C173.663 41.6399 176.222 46.6899 176.222 46.6899L174.347 40.7899C174.347 40.7899 173.41 38.3699 174.929 37.6999C176.447 37.0299 177.057 38.8299 177.422 39.6999C179.176 43.6299 180.854 47.8399 181.604 50.1699C182.635 53.3799 184.904 45.0299 187.36 45.9499C189.816 46.8699 182.569 59.9499 184.81 65.5099L192.891 85.2399L199.791 82.5999L202.21 99.2799Z" fill="white" stroke="#1F1A54" stroke-width="0.8" stroke-linecap="round" stroke-linejoin="round"/>
<path d="M179.888 52.7998C179.888 52.7998 177.966 55.0198 178.201 56.7998C177.456 56.0413 176.489 55.5788 175.463 55.4898" stroke="#1F1A54" stroke-width="0.8" stroke-linecap="round" stroke-linejoin="round"/>
<path d="M232.96 173.18L237.694 178.94L238.304 182.13" stroke="#FFD400" stroke-width="0.5" stroke-linecap="round" stroke-linejoin="round"/>
<path d="M305.71 159.95C305.686 160.228 305.608 160.498 305.48 160.741C305.352 160.985 305.178 161.198 304.969 161.365C304.76 161.533 304.52 161.652 304.265 161.715C304.01 161.778 303.745 161.783 303.488 161.73C303.47 162.019 303.381 162.299 303.228 162.539C303.076 162.779 302.867 162.973 302.622 163.099C302.377 163.225 302.105 163.279 301.834 163.257C301.563 163.234 301.302 163.135 301.079 162.97H300.844C300.876 163.255 300.843 163.545 300.746 163.813C300.65 164.081 300.494 164.32 300.291 164.51C299.701 165.04 298.585 165.04 297.348 163.81C296.44 162.949 295.715 161.893 295.219 160.71C294.169 158.19 293.485 164.57 293.485 164.57C292.984 164.588 292.49 164.441 292.069 164.15C290.194 162.24 292.838 149.74 290.194 144.42C288.151 140.35 280.173 127.07 277.426 120.16C272.813 111.44 268.229 107.6 268.229 107.6L277.763 98.1899L285.366 106.28C291.526 113.36 296.016 134.1 298.435 139.36C298.435 139.36 301.782 146.98 303.91 149.97C303.91 149.97 309.938 157.09 306.985 159.67C306.244 160.27 305.71 159.95 305.71 159.95Z" fill="white"/>
<path d="M302.607 159.69C303.117 160.222 303.43 160.932 303.488 161.69C303.47 161.979 303.381 162.259 303.228 162.499C303.076 162.74 302.867 162.933 302.622 163.059C302.377 163.185 302.105 163.239 301.834 163.217C301.563 163.194 301.302 163.095 301.079 162.93" stroke="#1F1A54" stroke-width="0.8" stroke-linecap="round" stroke-linejoin="round"/>
<path d="M304.801 157.3C305.378 158.049 305.707 158.981 305.738 159.95C305.714 160.228 305.636 160.497 305.508 160.741C305.38 160.985 305.206 161.197 304.997 161.365C304.788 161.533 304.548 161.652 304.293 161.715C304.038 161.777 303.773 161.783 303.516 161.73" stroke="#1F1A54" stroke-width="0.8" stroke-linecap="round" stroke-linejoin="round"/>
<path d="M305.71 159.95C305.71 159.95 306.244 160.27 306.985 159.62C309.938 157.04 303.91 149.92 303.91 149.92C301.782 146.92 298.435 139.31 298.435 139.31C296.016 134.05 291.526 113.31 285.366 106.23L277.763 98.1401L268.229 107.6C268.229 107.6 272.813 111.49 277.398 120.23C280.144 127.14 288.123 140.42 290.166 144.49C292.838 149.81 290.166 162.31 292.041 164.22C292.462 164.512 292.956 164.658 293.457 164.64C293.457 164.64 294.141 158.26 295.191 160.78C295.686 161.963 296.412 163.02 297.319 163.88C298.557 165.11 299.672 165.11 300.263 164.58C300.466 164.391 300.622 164.151 300.718 163.883C300.814 163.615 300.848 163.325 300.816 163.04C300.754 162.422 300.569 161.825 300.273 161.29" stroke="#1F1A54" stroke-width="0.8" stroke-linecap="round" stroke-linejoin="round"/>
<path d="M235.726 65.6001C235.66 66.5301 233.054 67.4501 231.676 67.3501C229.979 67.2301 228.61 66.1101 228.666 65.4501C228.722 64.7901 229.744 65.1501 231.113 65.2701C232.482 65.3901 235.772 64.9101 235.726 65.6001Z" fill="#1F1A54"/>
<path d="M241.679 99.7302V93.0402L247.097 89.7002L252.526 93.0402V99.7302L247.097 103.07L241.679 99.7302Z" stroke="#1F1A54" stroke-width="0.8" stroke-linecap="round" stroke-linejoin="round"/>
<path d="M144.216 30.2V24" stroke="#1F1A54" stroke-width="0.8" stroke-linecap="round" stroke-linejoin="round"/>
<path d="M150.854 31.1202L153.676 25.7002" stroke="#1F1A54" stroke-width="0.8" stroke-linecap="round" stroke-linejoin="round"/>
<path d="M156.338 34.9098L160.707 30.8198" stroke="#1F1A54" stroke-width="0.8" stroke-linecap="round" stroke-linejoin="round"/>
<path d="M253.473 38.3001C253.09 37.159 252.58 36.0711 251.954 35.0601" stroke="white" stroke-linecap="round" stroke-linejoin="round"/>
<path d="M253.81 50.0902C254.515 47.1872 254.643 44.159 254.185 41.2002" stroke="white" stroke-linecap="round" stroke-linejoin="round"/>
<path d="M236.719 80.1002C237.092 80.1002 237.394 79.7778 237.394 79.3802C237.394 78.9825 237.092 78.6602 236.719 78.6602C236.347 78.6602 236.044 78.9825 236.044 79.3802C236.044 79.7778 236.347 80.1002 236.719 80.1002Z" fill="#1F1A54"/>
<path d="M236.044 86.5801C236.417 86.5801 236.719 86.2578 236.719 85.8601C236.719 85.4625 236.417 85.1401 236.044 85.1401C235.672 85.1401 235.369 85.4625 235.369 85.8601C235.369 86.2578 235.672 86.5801 236.044 86.5801Z" fill="#1F1A54"/>
<path d="M235.829 93.46C236.202 93.46 236.504 93.1377 236.504 92.74C236.504 92.3424 236.202 92.02 235.829 92.02C235.456 92.02 235.154 92.3424 235.154 92.74C235.154 93.1377 235.456 93.46 235.829 93.46Z" fill="#1F1A54"/>
<path d="M115.135 116.18C115.127 115.743 114.97 115.324 114.694 115C114.793 114.908 114.881 114.804 114.957 114.69C115.298 115.103 115.494 115.63 115.51 116.18C115.517 116.688 115.372 117.185 115.097 117.6C115.021 117.494 114.925 117.406 114.816 117.34C115.028 116.996 115.139 116.592 115.135 116.18Z" fill="#1F1A54"/>
<path d="M115.276 113.2C115.33 113.724 115.211 114.251 114.938 114.69C114.852 114.586 114.758 114.489 114.657 114.4C114.869 114.054 114.968 113.643 114.938 113.23C114.886 112.962 114.782 112.708 114.633 112.485C114.485 112.261 114.295 112.072 114.076 111.93C114.178 111.851 114.272 111.76 114.357 111.66C114.602 111.834 114.811 112.061 114.969 112.326C115.128 112.592 115.232 112.889 115.276 113.2Z" fill="#1F1A54"/>
<path d="M114.816 117.37C114.925 117.436 115.021 117.524 115.098 117.63C115.03 117.739 114.951 117.839 114.863 117.93C114.783 117.823 114.68 117.737 114.563 117.68C114.654 117.586 114.736 117.482 114.807 117.37H114.816Z" fill="#1F1A54"/>
<path d="M114.676 114.4C114.776 114.489 114.87 114.586 114.957 114.69C114.882 114.804 114.793 114.908 114.695 115C114.621 114.896 114.536 114.803 114.441 114.72C114.535 114.627 114.614 114.519 114.676 114.4Z" fill="#1F1A54"/>
<path d="M114.422 118.05C114.332 118.008 114.261 117.93 114.224 117.833C114.187 117.736 114.188 117.627 114.226 117.53C114.242 117.479 114.271 117.435 114.31 117.4C114.358 117.345 114.42 117.307 114.489 117.291C114.558 117.275 114.629 117.282 114.694 117.31C114.735 117.322 114.773 117.342 114.807 117.37C114.736 117.482 114.654 117.586 114.563 117.68C114.68 117.737 114.783 117.823 114.863 117.93C114.785 118.015 114.701 118.092 114.61 118.16C114.556 118.108 114.492 118.071 114.422 118.05Z" fill="#1F1A54"/>
<path d="M114.216 115.04C114.177 115.008 114.143 114.969 114.118 114.923C114.093 114.878 114.077 114.827 114.071 114.775C114.065 114.722 114.069 114.669 114.083 114.619C114.096 114.568 114.119 114.521 114.151 114.48C114.18 114.438 114.217 114.402 114.26 114.376C114.302 114.349 114.349 114.331 114.398 114.324C114.446 114.316 114.496 114.319 114.544 114.332C114.592 114.345 114.636 114.368 114.676 114.4C114.61 114.516 114.528 114.621 114.432 114.71C114.526 114.792 114.611 114.886 114.685 114.99C114.6 115.078 114.506 115.155 114.404 115.22C114.347 115.154 114.284 115.094 114.216 115.04Z" fill="#1F1A54"/>
<path d="M114.694 115C114.97 115.324 115.127 115.743 115.135 116.18C115.145 116.602 115.034 117.017 114.816 117.37C114.783 117.342 114.745 117.322 114.704 117.31C114.639 117.282 114.567 117.275 114.498 117.291C114.43 117.307 114.367 117.345 114.319 117.4C114.472 117.244 114.592 117.056 114.671 116.848C114.75 116.639 114.787 116.415 114.779 116.19C114.767 115.842 114.641 115.509 114.422 115.25C114.524 115.185 114.619 115.108 114.704 115.02L114.694 115Z" fill="#1F1A54"/>
<path d="M113.701 111.71C113.807 111.625 113.908 111.532 114.001 111.43C114.114 111.495 114.221 111.572 114.319 111.66C114.235 111.76 114.141 111.851 114.038 111.93C113.93 111.849 113.818 111.775 113.701 111.71Z" fill="#1F1A54"/>
<path d="M115.51 118.94C115.499 119.536 115.322 120.115 115.002 120.603C114.681 121.091 114.231 121.466 113.71 121.68V121.42C113.716 121.374 113.716 121.327 113.71 121.28C114.138 121.076 114.504 120.749 114.767 120.336C115.03 119.923 115.181 119.439 115.201 118.94C115.214 118.584 115.119 118.233 114.929 117.94C115.017 117.849 115.096 117.749 115.163 117.64C115.427 118.012 115.551 118.476 115.51 118.94Z" fill="#1F1A54"/>
<path d="M113.532 112.07C113.445 112.019 113.38 111.935 113.349 111.835C113.318 111.735 113.323 111.626 113.363 111.53C113.388 111.473 113.427 111.424 113.476 111.39C113.532 111.358 113.595 111.342 113.659 111.342C113.722 111.342 113.785 111.358 113.841 111.39L113.973 111.47C113.879 111.571 113.779 111.665 113.673 111.75C113.79 111.815 113.902 111.889 114.01 111.97L113.898 112.07L113.682 112.22L113.532 112.07Z" fill="#1F1A54"/>
<path d="M113.682 121.42V121.68C113.606 121.736 113.524 121.783 113.438 121.82L113.316 121.88V121.46L113.654 121.28C113.669 121.325 113.678 121.372 113.682 121.42Z" fill="#1F1A54"/>
<path d="M112.941 121.6C113.073 121.6 113.185 121.49 113.307 121.43V121.85C113.188 121.911 113.066 121.965 112.941 122.01V121.6Z" fill="#1F1A54"/>
<path d="M115.135 118.94C115.115 119.439 114.965 119.923 114.701 120.336C114.438 120.749 114.072 121.076 113.644 121.28C113.61 121.207 113.556 121.147 113.489 121.107C113.422 121.068 113.346 121.051 113.269 121.06C113.232 121.051 113.194 121.051 113.157 121.06C114.235 120.52 114.76 119.81 114.76 118.91C114.779 118.648 114.713 118.386 114.573 118.17C114.663 118.101 114.748 118.024 114.826 117.94C115.029 118.228 115.138 118.579 115.135 118.94Z" fill="#1F1A54"/>
<path d="M112.444 108.4C113.841 108.71 114.441 109.55 114.432 110.31C114.429 110.729 114.275 111.13 114.001 111.43L113.869 111.35C113.813 111.318 113.75 111.302 113.687 111.302C113.623 111.302 113.56 111.318 113.504 111.35C113.671 111.234 113.809 111.075 113.906 110.889C114.002 110.702 114.054 110.493 114.057 110.28C114.057 109.66 113.466 108.93 112.107 108.72C112.19 108.718 112.269 108.685 112.331 108.627C112.393 108.568 112.433 108.487 112.444 108.4Z" fill="#1F1A54"/>
<path d="M113.27 121.06C113.346 121.051 113.422 121.068 113.489 121.107C113.556 121.146 113.611 121.207 113.645 121.28L113.307 121.46C113.185 121.52 113.073 121.58 112.941 121.63V121.5C112.932 121.421 112.946 121.341 112.981 121.271C113.016 121.201 113.071 121.145 113.138 121.11C113.177 121.08 113.222 121.063 113.27 121.06Z" fill="#1F1A54"/>
<path d="M112.06 118.22C112.872 118.209 113.658 117.918 114.301 117.39C114.262 117.425 114.233 117.47 114.216 117.52C114.179 117.617 114.178 117.726 114.215 117.823C114.252 117.92 114.323 117.998 114.413 118.04C114.473 118.078 114.524 118.129 114.563 118.19C113.816 118.713 112.944 118.998 112.051 119.01C112.002 119.01 111.953 119 111.907 118.98C111.862 118.96 111.82 118.93 111.786 118.893C111.751 118.856 111.723 118.812 111.704 118.763C111.685 118.715 111.676 118.663 111.676 118.61C111.676 118.558 111.685 118.506 111.704 118.457C111.723 118.409 111.751 118.364 111.786 118.327C111.82 118.29 111.862 118.261 111.907 118.241C111.953 118.22 112.002 118.21 112.051 118.21L112.06 118.22Z" fill="#1F1A54"/>
<path d="M114.001 111.43C114.275 111.13 114.429 110.729 114.432 110.31C114.432 109.55 113.841 108.71 112.444 108.4C112.453 108.361 112.453 108.319 112.444 108.28V107.98C114.216 108.35 114.826 109.45 114.816 110.31C114.81 110.808 114.637 111.287 114.329 111.66C114.227 111.571 114.117 111.494 114.001 111.43Z" fill="#1F1A54"/>
<path d="M112.435 107.98V108.28C112.444 108.32 112.444 108.361 112.435 108.4L112.126 108.33V107.93L112.435 107.98Z" fill="#1F1A54"/>
<path d="M111.779 100.91L112.435 107.98H112.107H112.051L111.395 100.87L111.779 100.91Z" fill="#1F1A54"/>
<path d="M114.526 113.26C114.526 112.8 114.01 112.39 113.71 112.18L113.926 112.03L114.038 111.93C114.258 112.072 114.448 112.261 114.596 112.485C114.744 112.708 114.848 112.962 114.901 113.23C114.947 113.636 114.868 114.047 114.676 114.4C114.636 114.369 114.592 114.346 114.544 114.333C114.496 114.32 114.447 114.317 114.398 114.324C114.349 114.332 114.302 114.349 114.26 114.376C114.217 114.403 114.18 114.438 114.151 114.48C114.12 114.521 114.096 114.568 114.083 114.619C114.069 114.67 114.065 114.723 114.071 114.775C114.077 114.828 114.093 114.878 114.118 114.924C114.143 114.969 114.177 115.009 114.216 115.04C114.285 115.1 114.347 115.167 114.404 115.24C113.881 115.555 113.288 115.714 112.688 115.7H112.36C112.311 115.695 112.264 115.68 112.22 115.655C112.177 115.63 112.139 115.596 112.108 115.555C112.078 115.514 112.055 115.466 112.042 115.416C112.029 115.365 112.026 115.312 112.032 115.26C112.036 115.208 112.049 115.157 112.071 115.11C112.094 115.064 112.124 115.023 112.162 114.989C112.2 114.955 112.243 114.93 112.29 114.915C112.337 114.9 112.386 114.895 112.435 114.9C113.05 114.971 113.669 114.804 114.179 114.43C114.323 114.281 114.429 114.096 114.49 113.892C114.55 113.687 114.563 113.471 114.526 113.26Z" fill="#1F1A54"/>
<path d="M113.363 111.53C113.323 111.626 113.318 111.735 113.349 111.835C113.38 111.935 113.445 112.019 113.532 112.07L113.71 112.18C113.219 112.488 112.679 112.699 112.116 112.8C112.017 112.815 111.916 112.787 111.836 112.722C111.756 112.657 111.703 112.561 111.69 112.455C111.676 112.349 111.703 112.242 111.763 112.156C111.824 112.071 111.914 112.015 112.013 112C112.537 111.914 113.036 111.705 113.476 111.39C113.427 111.424 113.388 111.473 113.363 111.53Z" fill="#1F1A54"/>
<path d="M111.713 108.36V108.29H112.069L112.426 108.36C112.415 108.444 112.378 108.522 112.32 108.58C112.262 108.639 112.186 108.674 112.107 108.68C112.017 108.683 111.929 108.653 111.857 108.594C111.785 108.536 111.735 108.453 111.713 108.36Z" fill="#1F1A54"/>
<path d="M112.051 107.92V108.32H111.695V107.91L112.051 107.92Z" fill="#1F1A54"/>
<path d="M111.966 125.45C112.19 125.426 112.407 125.356 112.605 125.242C112.803 125.129 112.978 124.975 113.12 124.789C113.262 124.603 113.368 124.389 113.432 124.159C113.497 123.929 113.518 123.688 113.494 123.45L113.344 121.87L113.466 121.81C113.552 121.773 113.634 121.726 113.71 121.67L113.869 123.41C113.897 123.701 113.87 123.995 113.79 124.275C113.71 124.554 113.58 124.815 113.405 125.041C113.231 125.266 113.017 125.453 112.775 125.59C112.533 125.728 112.267 125.812 111.994 125.84L105.188 126.56V126.16L111.966 125.45Z" fill="#1F1A54"/>
<path d="M113.71 112.18C114.01 112.39 114.488 112.8 114.526 113.26C114.561 113.469 114.548 113.684 114.488 113.886C114.427 114.088 114.321 114.272 114.179 114.42C113.669 114.794 113.05 114.961 112.435 114.89C112.386 114.885 112.337 114.89 112.29 114.905C112.243 114.92 112.2 114.945 112.162 114.979C112.124 115.013 112.094 115.054 112.071 115.1C112.049 115.147 112.036 115.198 112.032 115.25C112.026 115.302 112.029 115.355 112.042 115.406C112.055 115.456 112.078 115.504 112.108 115.545C112.139 115.586 112.177 115.62 112.22 115.645C112.264 115.67 112.311 115.685 112.36 115.69H112.688C113.288 115.704 113.881 115.545 114.404 115.23C114.623 115.489 114.749 115.822 114.76 116.17C114.768 116.395 114.731 116.619 114.652 116.828C114.573 117.036 114.453 117.225 114.301 117.38C113.658 117.908 112.872 118.199 112.06 118.21C112.011 118.21 111.962 118.22 111.917 118.241C111.871 118.261 111.83 118.29 111.795 118.327C111.76 118.364 111.733 118.409 111.714 118.457C111.695 118.506 111.685 118.558 111.685 118.61C111.685 118.663 111.695 118.715 111.714 118.763C111.733 118.812 111.76 118.856 111.795 118.893C111.83 118.93 111.871 118.96 111.917 118.98C111.962 119 112.011 119.01 112.06 119.01C112.954 118.998 113.826 118.713 114.573 118.19C114.713 118.407 114.779 118.668 114.76 118.93C114.76 119.83 114.235 120.54 113.157 121.08C110.645 122.34 106.248 122.14 106.173 122.14C104.749 122.238 103.333 122.438 101.935 122.74H101.813C98.4664 123.38 94.9133 124.35 94.8852 124.36C92.1611 125.235 89.4823 126.263 86.8602 127.44C79.2664 130.62 68.8695 134.97 62.7383 134.58C56.1102 134.15 53.4383 112.4 53.082 109.14L66.1883 108C66.9383 115.64 67.2102 118.43 67.4164 119.45C67.4067 119.496 67.4067 119.544 67.4164 119.59H67.4727C67.5852 120.03 67.6789 120.03 67.8102 120.02C67.9085 120.011 67.9995 119.961 68.0633 119.88C70.632 118.09 80.5227 116.88 87.0945 116.03C89.907 115.67 92.2977 115.37 93.5352 115.11C96.1133 114.56 98.6727 111.55 100.829 108.68C101.401 107.91 101.963 107.13 102.498 106.39C104.157 104.08 106.248 101.22 106.885 101.73C107.523 102.24 106.979 104.34 106.398 105.93C105.816 107.52 105.46 108.49 105.948 109.06C106.435 109.63 106.988 109.31 107.204 109.25C108.777 108.805 110.408 108.636 112.032 108.75H112.126C113.485 108.96 114.085 109.69 114.076 110.31C114.073 110.523 114.021 110.732 113.924 110.919C113.828 111.105 113.69 111.264 113.523 111.38C113.083 111.695 112.584 111.904 112.06 111.99C111.961 112.005 111.871 112.061 111.81 112.146C111.749 112.231 111.723 112.339 111.737 112.445C111.75 112.551 111.803 112.647 111.883 112.712C111.963 112.777 112.064 112.805 112.163 112.79C112.709 112.686 113.232 112.479 113.71 112.18Z" fill="white"/>
<path d="M107.335 101.07C106.088 100.07 104.335 102.52 101.916 105.88L100.819 107.38L100.172 100.38C100.155 100.192 100.173 100.003 100.224 99.8228C100.276 99.6427 100.36 99.4751 100.472 99.3298C100.587 99.1813 100.73 99.0601 100.892 98.974C101.053 98.8879 101.23 98.8387 101.41 98.8298L109.463 97.9798C109.637 97.9604 109.812 97.9781 109.98 98.0316C110.147 98.0851 110.303 98.1734 110.438 98.2915C110.573 98.4096 110.685 98.5551 110.767 98.7196C110.849 98.8841 110.9 99.0643 110.916 99.2498L111.713 107.87C110.134 107.84 108.558 108.031 107.026 108.44C106.895 108.484 106.759 108.507 106.622 108.51H106.501C106.341 108.28 106.81 106.98 107.101 106.2C107.813 104.26 108.61 102.07 107.335 101.07Z" fill="#FFD400"/>
<path d="M101.907 122.77C103.305 122.468 104.721 122.267 106.144 122.17C106.219 122.17 110.616 122.37 113.129 121.11C113.062 121.145 113.007 121.201 112.972 121.271C112.936 121.341 112.922 121.421 112.932 121.5V121.6C110.251 122.77 106.154 122.6 106.154 122.6C104.851 122.685 103.554 122.862 102.273 123.13C102.266 123.032 102.224 122.94 102.156 122.873C102.088 122.807 101.999 122.77 101.907 122.77Z" fill="#1F1A54"/>
<path d="M106.154 122.6C106.154 122.6 110.288 122.8 112.941 121.66V122.07C110.728 122.8 108.412 123.115 106.098 123C104.817 123.089 103.543 123.263 102.282 123.52V123.16C103.56 122.883 104.853 122.696 106.154 122.6Z" fill="#1F1A54"/>
<path d="M103.876 125.9C103.7 125.919 103.522 125.9 103.353 125.845C103.184 125.79 103.027 125.699 102.891 125.577C102.756 125.456 102.645 125.307 102.564 125.139C102.483 124.971 102.435 124.788 102.422 124.6L102.319 123.46C103.58 123.202 104.854 123.029 106.135 122.94C108.449 123.055 110.765 122.74 112.979 122.01L113.119 123.47C113.137 123.655 113.121 123.842 113.071 124.021C113.021 124.199 112.938 124.365 112.827 124.51C112.716 124.654 112.58 124.773 112.426 124.861C112.272 124.948 112.103 125.002 111.929 125.02L103.876 125.9Z" fill="#FFD400"/>
<path d="M102.282 123.13V123.49L101.935 123.56V123.17L102.301 123.1L102.282 123.13Z" fill="#1F1A54"/>
<path d="M102.047 124.67C102.07 124.908 102.136 125.14 102.242 125.351C102.349 125.562 102.493 125.749 102.667 125.9C102.842 126.052 103.042 126.165 103.258 126.234C103.473 126.302 103.699 126.325 103.922 126.3L105.197 126.17V126.57L103.951 126.7H103.744C103.265 126.702 102.801 126.525 102.432 126.2C102.002 125.827 101.729 125.287 101.672 124.7L101.569 123.6L101.944 123.53L102.047 124.67Z" fill="#1F1A54"/>
<path d="M103.913 126.3C103.69 126.325 103.464 126.303 103.248 126.234C103.033 126.165 102.832 126.052 102.658 125.901C102.484 125.749 102.339 125.563 102.233 125.351C102.127 125.14 102.06 124.909 102.038 124.67L101.935 123.57L102.282 123.5L102.385 124.64C102.401 124.826 102.452 125.006 102.534 125.17C102.616 125.335 102.728 125.48 102.863 125.598C102.998 125.716 103.154 125.805 103.321 125.858C103.489 125.912 103.664 125.929 103.838 125.91L111.891 125.06C112.065 125.043 112.234 124.989 112.388 124.901C112.543 124.813 112.679 124.694 112.79 124.55C112.9 124.406 112.983 124.24 113.033 124.061C113.084 123.883 113.1 123.695 113.082 123.51L112.941 122.05C113.066 122.005 113.188 121.951 113.307 121.89L113.457 123.47C113.48 123.709 113.459 123.95 113.395 124.179C113.331 124.409 113.225 124.623 113.083 124.809C112.941 124.995 112.766 125.149 112.568 125.262C112.37 125.376 112.152 125.446 111.929 125.47L105.151 126.19L103.913 126.3Z" fill="#1F1A54"/>
<path d="M101.944 123.6L101.569 123.67V123.28L101.944 123.2V123.6Z" fill="#1F1A54"/>
<path d="M107.11 108.84C104.045 109.75 109.21 103.03 107.11 101.39C105.966 100.5 103.688 104.21 100.876 107.95L100.82 107.38L101.916 105.88C104.335 102.52 106.088 100.1 107.335 101.07C108.582 102.04 107.813 104.26 107.11 106.2C106.82 106.98 106.351 108.28 106.51 108.51H106.613C106.75 108.507 106.886 108.484 107.016 108.44C108.549 108.032 110.125 107.84 111.704 107.87V108.28C110.156 108.235 108.609 108.424 107.11 108.84Z" fill="#1F1A54"/>
<path d="M101.532 123.21C101.523 123.111 101.549 123.013 101.604 122.933C101.66 122.854 101.741 122.799 101.832 122.78H101.907C101.995 122.779 102.08 122.811 102.147 122.872C102.215 122.933 102.259 123.017 102.273 123.11L101.907 123.18L101.532 123.26V123.21Z" fill="#1F1A54"/>
<path d="M100.819 107.38L100.876 107.95L100.538 108.41L100.482 107.84L100.819 107.38Z" fill="#1F1A54"/>
<path d="M106.894 101.71C106.229 101.2 104.166 104.06 102.507 106.37C101.973 107.11 101.41 107.89 100.838 108.66C100.872 108.618 100.898 108.568 100.914 108.515C100.93 108.462 100.936 108.406 100.932 108.35V107.93C103.744 104.19 106.023 100.48 107.166 101.37C109.266 103.01 104.101 109.73 107.166 108.82C108.666 108.407 110.212 108.222 111.76 108.27V108.34C111.774 108.441 111.821 108.533 111.893 108.599C111.966 108.665 112.058 108.701 112.154 108.7H112.088C110.464 108.586 108.833 108.755 107.26 109.2C107.044 109.26 106.379 109.46 106.004 109.01C105.629 108.56 105.91 107.37 106.454 105.88C106.998 104.39 107.701 102.35 106.894 101.71Z" fill="#1F1A54"/>
<path d="M100.304 108.72L100.538 108.41L100.876 107.95V108.37C100.88 108.426 100.874 108.482 100.858 108.535C100.842 108.589 100.816 108.638 100.782 108.68C100.718 108.754 100.631 108.8 100.538 108.81C100.452 108.812 100.369 108.78 100.304 108.72Z" fill="#1F1A54"/>
<path d="M100.538 108.41L100.304 108.72C100.229 108.65 100.179 108.554 100.163 108.45V108.29L100.266 108.16L100.501 107.84L100.538 108.41Z" fill="#1F1A54"/>
<path d="M109.379 97.6002C109.602 97.5753 109.828 97.5977 110.044 97.6663C110.259 97.7348 110.46 97.8481 110.634 97.9995C110.808 98.151 110.953 98.3377 111.059 98.5489C111.165 98.7601 111.232 98.9916 111.254 99.2302L111.404 100.82L112.06 107.93H111.676L110.879 99.3102C110.863 99.1247 110.812 98.9445 110.73 98.78C110.648 98.6155 110.536 98.47 110.401 98.3519C110.266 98.2338 110.11 98.1455 109.942 98.0919C109.775 98.0384 109.6 98.0208 109.426 98.0402L101.373 98.8902C101.192 98.8991 101.016 98.9483 100.854 99.0344C100.693 99.1205 100.55 99.2417 100.435 99.3902C100.323 99.5355 100.238 99.703 100.187 99.8832C100.135 100.063 100.118 100.253 100.135 100.44L100.782 107.44L100.445 107.9L99.7602 100.49C99.7356 100.251 99.7557 100.01 99.8195 99.7797C99.8832 99.5494 99.9893 99.3349 100.132 99.1488C100.274 98.9626 100.449 98.8085 100.648 98.6955C100.846 98.5824 101.064 98.5126 101.288 98.4902L109.379 97.6002Z" fill="#1F1A54"/>
<path d="M111.245 99.2202C111.222 98.9816 111.156 98.7501 111.05 98.5389C110.943 98.3277 110.799 98.141 110.625 97.9895C110.45 97.8381 110.25 97.7248 110.034 97.6563C109.819 97.5878 109.593 97.5653 109.37 97.5902L101.316 98.4402C101.092 98.4626 100.875 98.5324 100.676 98.6455C100.477 98.7585 100.302 98.9126 100.16 99.0988C100.017 99.2849 99.9114 99.4994 99.8476 99.7297C99.7839 99.96 99.7637 100.201 99.7883 100.44L100.473 107.85L100.238 108.17L100.135 108.3L99.4133 100.48C99.3605 99.8889 99.529 99.2994 99.8821 98.8402C100.056 98.6162 100.27 98.4312 100.511 98.2956C100.753 98.1601 101.017 98.0766 101.288 98.0502L109.313 97.1902C109.864 97.1344 110.413 97.3135 110.84 97.6884C111.267 98.0632 111.537 98.6032 111.591 99.1902L111.751 100.92L111.366 100.82L111.245 99.2202Z" fill="#1F1A54"/>
<path d="M91.032 48.98C91.0689 48.8159 91.1484 48.6662 91.2613 48.5479C91.3742 48.4296 91.516 48.3476 91.6705 48.3112C91.825 48.2748 91.986 48.2855 92.1351 48.342C92.2842 48.3986 92.4153 48.4987 92.5136 48.6309C92.6119 48.7632 92.6734 48.9223 92.691 49.09C92.7086 49.2577 92.6816 49.4274 92.6131 49.5795C92.5446 49.7317 92.4374 49.8602 92.3037 49.9505C92.17 50.0408 92.0152 50.0891 91.857 50.09C91.7344 50.0751 91.6158 50.0346 91.508 49.9707C91.4001 49.9068 91.3051 49.8208 91.2285 49.7177C91.1518 49.6146 91.095 49.4963 91.0613 49.3698C91.0276 49.2432 91.0176 49.1107 91.032 48.98Z" fill="#1F1A54"/>
<path d="M59.6258 149.88C59.6258 149.88 90.1976 156 104.391 151.16L100.81 255.42H86.3727V213.36L81.507 178.26L75.5633 209.48L53.8508 249.38L41.3633 240.68L59.2602 204.6L59.6258 149.88Z" fill="#1F1A54"/>
<path d="M84.3851 47.7302C84.601 47.6741 84.8279 47.6911 85.0342 47.7789C85.2406 47.8667 85.4162 48.0209 85.5365 48.2201C85.6569 48.4193 85.7161 48.6536 85.7059 48.8903C85.6956 49.127 85.6165 49.3545 85.4794 49.541C85.3424 49.7275 85.1542 49.8638 84.9411 49.931C84.7281 49.9982 84.5007 49.9928 84.2906 49.9158C84.0805 49.8387 83.8981 49.6937 83.7689 49.5009C83.6397 49.3081 83.57 49.0772 83.5695 48.8402C83.5404 48.5778 83.6098 48.3137 83.7626 48.1057C83.9155 47.8977 84.1393 47.7627 84.3851 47.7302Z" fill="#1F1A54"/>
<path d="M67.9507 46.89C68.3283 46.078 68.9722 45.4421 69.7602 45.103C70.5482 44.7638 71.4256 44.745 72.2257 45.05C73.7035 45.7649 74.8889 47.0258 75.5632 48.6C76.3248 47.8779 76.9372 46.9946 77.3617 46.0065C77.7862 45.0183 78.0134 43.9468 78.0289 42.86C78.1857 41.1431 78.0588 39.4102 77.6539 37.74C77.8882 37.86 85.5945 41.88 88.4914 41.94C91.3882 42 86.3539 37.87 85.9695 37.54C86.3914 37.72 92.4195 40.24 95.3445 41.34C95.7007 47.34 95.8039 56.06 94.7164 59.66C93.7226 62.99 91.9039 65.23 88.8476 66.01V70.52L90.4789 71.52C89.9071 73.1398 88.9457 74.5704 87.6913 75.6683C86.4369 76.7661 84.9337 77.4923 83.3328 77.7741C81.7318 78.0558 80.0896 77.8831 78.571 77.2733C77.0525 76.6635 75.7112 75.638 74.682 74.3L72.1132 70.98L74.5039 69.98V58.08C70.7539 57.49 67.9414 55.46 67.2289 51.69C66.8967 50.0501 67.1543 48.3369 67.9507 46.89ZM92.6726 48.98C92.6356 48.8155 92.5558 48.6654 92.4425 48.547C92.3292 48.4287 92.1868 48.3467 92.0319 48.3107C91.8769 48.2747 91.7155 48.286 91.5662 48.3433C91.417 48.4006 91.2859 48.5017 91.1881 48.6349C91.0902 48.768 91.0295 48.9279 91.013 49.0962C90.9965 49.2645 91.0247 49.4344 91.0946 49.5863C91.1644 49.7382 91.273 49.8661 91.4078 49.9552C91.5427 50.0443 91.6984 50.091 91.857 50.09C92.1028 50.0575 92.3267 49.9225 92.4795 49.7145C92.6323 49.5065 92.7017 49.2425 92.6726 48.98ZM85.1726 48.84C85.1357 48.6759 85.0562 48.5262 84.9433 48.4079C84.8305 48.2897 84.6887 48.2076 84.5341 48.1712C84.3796 48.1348 84.2186 48.1455 84.0696 48.202C83.9205 48.2586 83.7893 48.3587 83.691 48.4909C83.5927 48.6232 83.5312 48.7823 83.5136 48.95C83.496 49.1177 83.523 49.2874 83.5915 49.4395C83.66 49.5917 83.7672 49.7202 83.9009 49.8105C84.0346 49.9008 84.1894 49.9491 84.3476 49.95C84.4735 49.9401 84.5962 49.9032 84.7083 49.8415C84.8205 49.7798 84.9198 49.6945 85.0004 49.5909C85.0809 49.4872 85.141 49.3673 85.1771 49.2383C85.2131 49.1093 85.2243 48.9738 85.2101 48.84H85.1726Z" fill="white"/>
<path d="M71.4664 32.2498C68.1852 31.5998 67.3227 24.1798 70.0227 26.0798C70.799 26.6853 71.3908 27.5213 71.7243 28.4835C72.0577 29.4457 72.118 30.4913 71.8977 31.4898C71.7407 31.7343 71.5967 31.9881 71.4664 32.2498Z" fill="#1F1A54"/>
<path d="M85.9695 37.5198C86.3539 37.8498 91.3226 41.9798 88.4914 41.9198C85.6601 41.8598 77.8883 37.8398 77.6539 37.7198C78.0588 39.3899 78.1857 41.1228 78.0289 42.8398C78.016 43.93 77.79 45.0053 77.3655 45.9971C76.9409 46.9889 76.3271 47.8753 75.5633 48.5998C74.8875 47.0348 73.7061 45.7817 72.2351 45.0698C71.435 44.7647 70.5576 44.7835 69.7696 45.1227C68.9816 45.4619 68.3377 46.0978 67.9601 46.9098C67.6414 45.2798 65.6539 41.9098 66.657 37.3498C67.0349 35.6604 68.0219 34.1981 69.4039 33.2798C69.8587 32.9389 70.3536 32.6632 70.8758 32.4598C71.0663 32.3708 71.2639 32.3005 71.4664 32.2498C71.6064 31.9941 71.7597 31.7471 71.9257 31.5098C76.8851 24.0798 89.982 27.4298 97.1257 34.8098C103.013 40.9398 99.5164 42.7298 96.3476 41.6498L95.4101 41.3198C92.4382 40.2198 86.3914 37.6998 85.9695 37.5198Z" fill="#1F1A54"/>
<path d="M67.782 119.6C67.782 120.29 66.5352 107.6 66.5352 107.6V107.2C66.6332 107.192 66.7304 107.225 66.8058 107.292C66.8812 107.359 66.9288 107.456 66.9383 107.56C67.3227 111.49 67.8758 117.16 68.1008 118.98C71.2883 117.24 80.2883 116.1 87.0289 115.26C89.8414 114.91 92.1945 114.61 93.4133 114.36C95.7383 113.86 98.2414 110.9 100.173 108.36V108.52C100.189 108.625 100.239 108.72 100.313 108.79C98.157 111.63 95.7664 114.3 93.4601 114.79C89.2133 115.6 71.3539 116.97 67.782 119.6Z" fill="#1F1A54"/>
<path d="M65.0163 30.2202C67.8945 29.5102 70.8757 32.4602 70.8757 32.4602C70.362 32.6526 69.8736 32.9148 69.4226 33.2402C64.3132 34.3202 62.1663 30.9402 65.0163 30.2202Z" fill="#1F1A54"/>
<path d="M66.1882 107.6L52.6882 108.82L66.1882 107.6Z" fill="#1F1A54"/>
<path d="M87.085 116.03C80.5225 116.85 70.6225 118.09 68.0537 119.88C67.9899 119.96 67.899 120.011 67.8006 120.02C67.6693 120.02 67.5756 120.02 67.4631 119.59H67.4068C67.3971 119.544 67.3971 119.496 67.4068 119.45C67.2006 118.45 66.9287 115.64 66.1787 108L53.0631 109.18C53.4193 112.44 56.0912 134.18 62.7193 134.62C68.8506 135.01 79.2475 130.62 86.8412 127.48C89.4634 126.303 92.1421 125.275 94.8662 124.4C94.8662 124.4 98.4475 123.4 101.794 122.78C101.703 122.799 101.622 122.854 101.567 122.934C101.511 123.013 101.486 123.112 101.494 123.21C98.2412 123.85 94.9318 124.75 94.9318 124.75C89.6256 126.14 71.8131 135.6 62.7287 135.02C55.2287 134.53 52.6787 108.82 52.6787 108.82L66.1881 107.6H66.5443C66.5443 107.6 67.7818 120.28 67.7818 119.6C71.3537 116.98 89.2131 115.6 93.4506 114.73C95.7568 114.24 98.1381 111.57 100.304 108.73C100.369 108.79 100.452 108.822 100.538 108.82C100.631 108.81 100.718 108.764 100.782 108.69C98.6256 111.56 96.0943 114.57 93.4881 115.12C92.2881 115.37 89.8787 115.67 87.085 116.03Z" fill="#1F1A54"/>
<path d="M94.9883 124.79C94.9883 124.79 98.2789 123.89 101.551 123.25V123.64C98.3539 124.28 95.1008 125.17 95.0633 125.18C92.3696 126.023 89.7218 127.024 87.132 128.18C79.8102 131.24 69.9008 135.39 63.5352 135.4C63.2477 135.4 62.9664 135.4 62.6914 135.4C61.4843 135.274 60.3661 134.667 59.5602 133.7C54.2352 127.98 52.3789 109.7 52.2852 108.84H52.6602C52.6602 108.84 55.182 134.55 62.7102 135.04C71.8133 135.6 89.6258 126.14 94.9883 124.79Z" fill="#1F1A54"/>
<path d="M66.5069 107.17V107.57L66.1882 107.6L52.6882 108.82H52.3132C52.3064 108.715 52.3365 108.612 52.3976 108.53C52.429 108.487 52.4686 108.451 52.5138 108.425C52.5591 108.399 52.6089 108.384 52.6601 108.38L66.5069 107.17Z" fill="#1F1A54"/>
<path d="M95.3726 41.3501C95.7289 47.3501 95.832 56.0701 94.7445 59.6701C93.7507 63.0001 91.932 65.2401 88.8757 66.0201C88.6071 66.093 88.3348 66.1498 88.0601 66.1901C86.4101 66.4601 82.3132 65.8901 80.0164 63.5101" stroke="#1F1A54" stroke-width="0.8" stroke-linecap="round" stroke-linejoin="round"/>
<path d="M81.6194 55.46C81.8625 56.3842 82.3421 57.2181 83.0044 57.868C83.6668 58.518 84.4856 58.9584 85.3694 59.14" stroke="#1F1A54" stroke-width="0.8" stroke-linecap="round" stroke-linejoin="round"/>
<path d="M86.9727 53.9502C87.3077 54.1393 87.6811 54.2382 88.0602 54.2382C88.4393 54.2382 88.8126 54.1393 89.1477 53.9502" stroke="#1F1A54" stroke-width="0.8" stroke-linecap="round" stroke-linejoin="round"/>
<path d="M75.8257 49.2899C75.75 49.055 75.6624 48.8246 75.5632 48.5999C74.8875 47.0349 73.706 45.7818 72.2351 45.0699C71.4349 44.7648 70.5576 44.7836 69.7696 45.1228C68.9816 45.462 68.3377 46.0979 67.9601 46.9099C67.1733 48.3607 66.9257 50.0737 67.2663 51.7099C67.9507 55.4799 70.7913 57.5099 74.5413 58.0999" stroke="#1F1A54" stroke-width="0.8" stroke-miterlimit="10" stroke-linecap="round"/>
<path d="M69.3851 33.25C68.0031 34.1683 67.0161 35.6307 66.6382 37.32C65.6351 41.92 67.6226 45.25 67.9413 46.88" stroke="#1F1A54" stroke-width="0.8" stroke-linecap="round" stroke-linejoin="round"/>
<path d="M71.9257 31.5098C71.7597 31.7471 71.6064 31.9941 71.4664 32.2498C71.2639 32.3005 71.0662 32.3708 70.8757 32.4598C70.362 32.6522 69.8736 32.9144 69.4226 33.2398" stroke="#1F1A54" stroke-width="0.8" stroke-linecap="round" stroke-linejoin="round"/>
<path d="M85.9694 37.5198C86.3913 37.6998 92.4194 40.2198 95.3444 41.3198L96.2819 41.6498C99.4507 42.7298 102.948 40.9398 97.0601 34.8098C89.9819 27.4298 76.8851 24.0798 71.9351 31.4898" stroke="#1F1A54" stroke-width="0.8" stroke-linecap="round" stroke-linejoin="round"/>
<path d="M77.6445 37.7098C77.8789 37.8298 85.5852 41.8498 88.482 41.9098C91.3789 41.9698 86.3445 37.8398 85.9602 37.5098" stroke="#1F1A54" stroke-width="0.8" stroke-linecap="round" stroke-linejoin="round"/>
<path d="M75.5632 48.6002C76.3248 47.878 76.9372 46.9948 77.3617 46.0067C77.7862 45.0185 78.0134 43.947 78.0289 42.8602C78.1857 41.1433 78.0588 39.4103 77.6539 37.7402" stroke="#1F1A54" stroke-width="0.8" stroke-linecap="round" stroke-linejoin="round"/>
<path d="M71.9258 31.5098C72.1462 30.5113 72.0859 29.4657 71.7524 28.5035C71.4189 27.5413 70.8271 26.7053 70.0508 26.0998C67.3508 24.1998 68.1758 31.6498 71.4945 32.2698" stroke="#1F1A54" stroke-width="0.8" stroke-linecap="round" stroke-linejoin="round"/>
<path d="M70.8758 32.4602C70.8758 32.4602 67.8946 29.5102 65.0164 30.2202C62.1383 30.9302 64.3321 34.3202 69.3852 33.2202" stroke="#1F1A54" stroke-width="0.8" stroke-linecap="round" stroke-linejoin="round"/>
<path d="M70.8757 48.98C70.8757 48.98 73.1164 49.34 73.4539 53.1" stroke="#1F1A54" stroke-width="0.8" stroke-miterlimit="10" stroke-linecap="round"/>
<path d="M74.5414 58.0698V58.0798V69.9598L72.1414 70.9598" stroke="#1F1A54" stroke-width="0.8" stroke-linecap="round" stroke-linejoin="round"/>
<path d="M88.8757 66.02V70.53L90.507 71.5" stroke="#1F1A54" stroke-width="0.8" stroke-linecap="round" stroke-linejoin="round"/>
<path d="M52.3038 108.86L50.4288 109.03C50.4288 109.03 49.3132 85.5 53.4194 80.2C56.6444 76.04 72.1694 70.96 72.1694 70.96L74.7382 74.28C75.7685 75.6105 77.1083 76.6292 78.6234 77.2344C80.1385 77.8396 81.7761 78.01 83.3723 77.7286C84.9685 77.4472 86.4676 76.7238 87.7196 75.6308C88.9716 74.5378 89.9327 73.1134 90.5069 71.5L119.879 82.6L117.01 102.27L111.779 100.91" stroke="#1F1A54" stroke-width="0.8" stroke-linecap="round" stroke-linejoin="round"/>
<path d="M65.2881 95.3101L66.5068 107.17" stroke="#1F1A54" stroke-width="0.8" stroke-linecap="round" stroke-linejoin="round"/>
<path d="M59.6257 133.72V149.88C59.6257 149.88 90.1976 156 104.391 151.16C104.973 150.95 105.526 150.74 106.051 150.5L105.198 126.6" stroke="#1F1A54" stroke-width="0.8" stroke-linecap="round" stroke-linejoin="round"/>
<path d="M81.4788 178.26L86.3538 213.36L86.3725 255.42H100.819L104.344 151.16V151.14" stroke="#1F1A54" stroke-width="0.8" stroke-linecap="round" stroke-linejoin="round"/>
<path d="M89.2413 168.84L81.4788 178.26L75.5444 209.48L53.8319 249.38L41.3538 240.68L59.26 204.63L59.5788 149.88" stroke="#1F1A54" stroke-width="0.8" stroke-linecap="round" stroke-linejoin="round"/>
<path d="M103.744 126.71H103.95L105.197 126.58L106.004 150.51C105.479 150.75 104.925 150.96 104.344 151.17C90.1505 156 59.6255 149.88 59.6255 149.88V133.72C60.4315 134.687 61.5496 135.294 62.7567 135.42C63.0255 135.42 63.3067 135.42 63.6005 135.42C69.9661 135.42 79.8755 131.26 87.1974 128.2C89.7871 127.045 92.435 126.043 95.1286 125.2C95.1286 125.2 98.4192 124.3 101.616 123.66L101.719 124.73C101.776 125.318 102.049 125.857 102.479 126.23C102.838 126.538 103.284 126.707 103.744 126.71Z" fill="#FFD400"/>
<path d="M66.5072 107.17L52.6509 108.42C52.5998 108.424 52.5499 108.439 52.5047 108.465C52.4595 108.491 52.4199 108.527 52.3884 108.57C52.3274 108.652 52.2973 108.755 52.3041 108.86L50.4291 109.03C50.4291 109.03 49.3134 85.5 53.4197 80.2C56.6447 76.04 72.1697 70.96 72.1697 70.96L74.7384 74.28C75.7688 75.6105 77.1085 76.6292 78.6236 77.2344C80.1388 77.8396 81.7763 78.01 83.3725 77.7286C84.9688 77.4472 86.4678 76.7238 87.7198 75.6308C88.9718 74.5378 89.933 73.1134 90.5072 71.5L119.879 82.6L117.01 102.27L111.779 100.91L111.62 99.18C111.565 98.593 111.295 98.053 110.868 97.6782C110.441 97.3033 109.892 97.1242 109.342 97.18L101.298 98.03C101.026 98.0564 100.762 98.1398 100.521 98.2754C100.28 98.411 100.066 98.596 99.8915 98.82C99.5385 99.2792 99.37 99.8687 99.4228 100.46L100.145 108.28C98.2134 110.86 95.7103 113.82 93.3853 114.28C92.1666 114.53 89.7759 114.83 87.0009 115.18C80.2978 116.02 71.2603 117.18 68.0728 118.9C67.8666 117.08 67.2947 111.41 66.9103 107.48C66.8902 107.385 66.8381 107.301 66.7638 107.244C66.6895 107.186 66.5983 107.16 66.5072 107.17Z" fill="#FFD400"/>
<mask id="mask0" mask-type="alpha" maskUnits="userSpaceOnUse" x="50" y="70" width="70" height="84">
<path d="M103.744 126.71H103.95L105.197 126.58L106.004 150.51C105.479 150.75 104.925 150.96 104.344 151.17C90.1505 156 59.6255 149.88 59.6255 149.88V133.72C60.4315 134.687 61.5496 135.294 62.7567 135.42C63.0255 135.42 63.3067 135.42 63.6005 135.42C69.9661 135.42 79.8755 131.26 87.1974 128.2C89.7871 127.045 92.435 126.043 95.1286 125.2C95.1286 125.2 98.4192 124.3 101.616 123.66L101.719 124.73C101.776 125.318 102.049 125.857 102.479 126.23C102.838 126.538 103.284 126.707 103.744 126.71Z" fill="#FFD400"/>
<path d="M66.5072 107.17L52.6509 108.42C52.5998 108.424 52.5499 108.439 52.5047 108.465C52.4595 108.491 52.4199 108.527 52.3884 108.57C52.3274 108.652 52.2973 108.755 52.3041 108.86L50.4291 109.03C50.4291 109.03 49.3134 85.5 53.4197 80.2C56.6447 76.04 72.1697 70.96 72.1697 70.96L74.7384 74.28C75.7688 75.6105 77.1085 76.6292 78.6236 77.2344C80.1388 77.8396 81.7763 78.01 83.3725 77.7286C84.9688 77.4472 86.4678 76.7238 87.7198 75.6308C88.9718 74.5378 89.933 73.1134 90.5072 71.5L119.879 82.6L117.01 102.27L111.779 100.91L111.62 99.18C111.565 98.593 111.295 98.053 110.868 97.6782C110.441 97.3033 109.892 97.1242 109.342 97.18L101.298 98.03C101.026 98.0564 100.762 98.1398 100.521 98.2754C100.28 98.411 100.066 98.596 99.8915 98.82C99.5385 99.2792 99.37 99.8687 99.4228 100.46L100.145 108.28C98.2134 110.86 95.7103 113.82 93.3853 114.28C92.1666 114.53 89.7759 114.83 87.0009 115.18C80.2978 116.02 71.2603 117.18 68.0728 118.9C67.8666 117.08 67.2947 111.41 66.9103 107.48C66.8902 107.385 66.8381 107.301 66.7638 107.244C66.6895 107.186 66.5983 107.16 66.5072 107.17Z" fill="#FFD400"/>
</mask>
<g mask="url(#mask0)">
<path d="M31.041 76.9502H122.025" stroke="#1F1A54" stroke-width="4" stroke-linejoin="round"/>
<path d="M31.041 85.8101H122.025" stroke="#1F1A54" stroke-width="4" stroke-linejoin="round"/>
<path d="M31.041 94.6602H122.025" stroke="#1F1A54" stroke-width="4" stroke-linejoin="round"/>
<path d="M31.041 103.51H122.025" stroke="#1F1A54" stroke-width="4" stroke-linejoin="round"/>
<path d="M31.041 112.36H122.025" stroke="#1F1A54" stroke-width="4" stroke-linejoin="round"/>
<path d="M31.041 121.21H122.025" stroke="#1F1A54" stroke-width="4" stroke-linejoin="round"/>
<path d="M31.041 130.06H122.025" stroke="#1F1A54" stroke-width="4" stroke-linejoin="round"/>
<path d="M31.041 138.91H122.025" stroke="#1F1A54" stroke-width="4" stroke-linejoin="round"/>
<path d="M31.041 147.76H122.025" stroke="#1F1A54" stroke-width="4" stroke-linejoin="round"/>
</g>
<path d="M82.9319 45.54C83.4175 45.2147 83.9803 45.0447 84.5538 45.05C85.1662 45.0424 85.7658 45.2381 86.2694 45.61" stroke="#1F1A54" stroke-width="0.8" stroke-linecap="round" stroke-linejoin="round"/>
<path d="M90.0476 45.5401C90.5488 45.2072 91.1296 45.0357 91.72 45.0464C92.3104 45.057 92.8853 45.2493 93.3757 45.6001" stroke="#1F1A54" stroke-width="0.8" stroke-linecap="round" stroke-linejoin="round"/>
<path d="M86.8506 172.56L82.0225 178.15L81.1975 183.2" stroke="#FFD400" stroke-width="0.5" stroke-linecap="round" stroke-linejoin="round"/>
</svg>
