<svg width="375" height="300" viewBox="0 0 375 300" fill="none" xmlns="http://www.w3.org/2000/svg">
<path d="M268.813 48.9102H228.51C226.439 48.9102 224.76 50.701 224.76 52.9102V105.96C224.76 108.169 226.439 109.96 228.51 109.96H268.813C270.884 109.96 272.563 108.169 272.563 105.96V52.9102C272.563 50.701 270.884 48.9102 268.813 48.9102Z" fill="#FFD400" stroke="#1F1A54" stroke-width="0.8" stroke-linecap="round" stroke-linejoin="round"/>
<path d="M233.957 94.75H263.301" stroke="#1F1A54" stroke-width="0.8" stroke-linecap="round" stroke-linejoin="round"/>
<path d="M233.957 99.7202H250.879" stroke="#1F1A54" stroke-width="0.8" stroke-linecap="round" stroke-linejoin="round"/>
<path d="M257.395 99.7202H263.357" stroke="#1F1A54" stroke-width="0.8" stroke-linecap="round" stroke-linejoin="round"/>
<path d="M258.379 87.6001H238.945C238.451 87.5754 237.969 87.4354 237.532 87.1902C237.095 86.9449 236.713 86.6003 236.415 86.1807C236.116 85.7611 235.908 85.2767 235.804 84.7617C235.7 84.2467 235.703 83.7136 235.813 83.2001L238.626 67.7701C238.685 67.3819 238.868 67.0277 239.146 66.7685C239.423 66.5093 239.776 66.3614 240.145 66.3501H257.17C257.54 66.3591 257.895 66.506 258.174 66.7654C258.453 67.0248 258.639 67.3803 258.698 67.7701L261.51 83.2001C261.62 83.7136 261.624 84.2467 261.52 84.7617C261.416 85.2767 261.207 85.7611 260.909 86.1807C260.61 86.6003 260.229 86.9449 259.792 87.1902C259.354 87.4354 258.872 87.5754 258.379 87.6001Z" fill="white" stroke="#1F1A54" stroke-width="0.8" stroke-linecap="round" stroke-linejoin="round"/>
<path d="M243.857 74.3501H253.457V76.3501C253.457 77.2386 253.126 78.0907 252.537 78.7189C251.948 79.3472 251.149 79.7001 250.316 79.7001H246.998C246.165 79.7001 245.366 79.3472 244.777 78.7189C244.188 78.0907 243.857 77.2386 243.857 76.3501V74.3501Z" fill="white" stroke="#1F1A54" stroke-width="0.8" stroke-linecap="round" stroke-linejoin="round"/>
<path d="M243.191 69.3899V64.1599C243.161 63.3661 243.279 62.5739 243.539 61.8291C243.798 61.0844 244.193 60.402 244.702 59.8215C245.21 59.241 245.822 58.774 246.501 58.4476C247.18 58.1211 247.913 57.9418 248.657 57.9199V57.9199C249.402 57.9418 250.135 58.1211 250.814 58.4476C251.493 58.774 252.104 59.241 252.613 59.8215C253.121 60.402 253.516 61.0844 253.776 61.8291C254.035 62.5739 254.153 63.3661 254.123 64.1599V69.3899" stroke="#1F1A54" stroke-width="1.5" stroke-linecap="round" stroke-linejoin="round"/>
<path d="M236.826 123.99H196.523C194.452 123.99 192.773 125.781 192.773 127.99V181.04C192.773 183.249 194.452 185.04 196.523 185.04H236.826C238.897 185.04 240.576 183.249 240.576 181.04V127.99C240.576 125.781 238.897 123.99 236.826 123.99Z" fill="#FFD400" stroke="#1F1A54" stroke-width="0.8" stroke-linecap="round" stroke-linejoin="round"/>
<path d="M201.979 169.82H231.313" stroke="#1F1A54" stroke-width="0.8" stroke-linecap="round" stroke-linejoin="round"/>
<path d="M201.979 174.79H218.891" stroke="#1F1A54" stroke-width="0.8" stroke-linecap="round" stroke-linejoin="round"/>
<path d="M225.416 174.79H231.369" stroke="#1F1A54" stroke-width="0.8" stroke-linecap="round" stroke-linejoin="round"/>
<path d="M228.848 145.96C228.848 152.32 225.407 161.22 218.282 160.15C217.345 160 216.791 159.83 216.285 160.15C210.463 163.22 203.723 153.37 203.723 145.97C203.723 138.57 209.348 135.27 216.285 138.06C223.57 135.26 228.848 138.6 228.848 145.96Z" fill="white" stroke="#1F1A54" stroke-width="0.8" stroke-linecap="round" stroke-linejoin="round"/>
<path d="M212.891 139.68C214.032 140.215 215.278 140.442 216.52 140.34C217.804 140.34 219.876 140.39 220.391 139.66" fill="#FFD400"/>
<path d="M212.891 139.68C214.032 140.215 215.278 140.442 216.52 140.34C217.804 140.34 219.876 140.39 220.391 139.66" stroke="#1F1A54" stroke-width="0.8" stroke-linecap="round" stroke-linejoin="round"/>
<path d="M216.285 140.05C216.285 140.05 216.641 135.17 219.895 133.16" stroke="#1F1A54" stroke-width="0.8" stroke-linecap="round" stroke-linejoin="round"/>
<path d="M211.391 133.01H211.869C212.476 133.01 213.077 133.137 213.638 133.385C214.199 133.633 214.708 133.996 215.138 134.454C215.567 134.912 215.907 135.455 216.14 136.053C216.372 136.651 216.491 137.292 216.491 137.94V138.45H216.013C214.787 138.45 213.612 137.93 212.745 137.006C211.878 136.081 211.391 134.827 211.391 133.52V133.01Z" fill="#1F1A54" stroke="#1F1A54" stroke-width="0.8" stroke-linecap="round" stroke-linejoin="round"/>
<path d="M300.791 125.81H260.488C258.417 125.81 256.738 127.601 256.738 129.81V182.86C256.738 185.069 258.417 186.86 260.488 186.86H300.791C302.862 186.86 304.541 185.069 304.541 182.86V129.81C304.541 127.601 302.862 125.81 300.791 125.81Z" fill="#FFD400" stroke="#1F1A54" stroke-width="0.8" stroke-linecap="round" stroke-linejoin="round"/>
<path d="M265.945 171.65H295.288" stroke="#1F1A54" stroke-width="0.8" stroke-linecap="round" stroke-linejoin="round"/>
<path d="M265.945 176.62H282.866" stroke="#1F1A54" stroke-width="0.8" stroke-linecap="round" stroke-linejoin="round"/>
<path d="M289.382 176.62H295.345" stroke="#1F1A54" stroke-width="0.8" stroke-linecap="round" stroke-linejoin="round"/>
<path d="M293.91 154.52C293.91 158.21 288.229 161.52 281.226 161.52C274.223 161.52 268.541 158.24 268.541 154.52C268.541 150.8 274.166 145.52 281.226 145.52C288.285 145.52 293.91 150.83 293.91 154.52Z" fill="white" stroke="#1F1A54" stroke-width="0.8" stroke-linecap="round" stroke-linejoin="round"/>
<path d="M268.223 153.1C268.063 153.27 267.848 153.44 267.829 153.71C267.833 153.889 267.9 154.061 268.016 154.19C268.323 154.517 268.703 154.753 269.12 154.878C269.537 155.002 269.977 155.01 270.398 154.9C271.216 154.662 272.062 154.551 272.91 154.57C273.362 154.624 273.782 154.842 274.1 155.188C274.418 155.535 274.613 155.987 274.654 156.47C274.635 156.65 274.668 156.831 274.748 156.99C274.801 157.04 274.864 157.079 274.931 157.103C274.999 157.127 275.07 157.136 275.141 157.13C275.929 157.21 276.67 157.88 277.448 157.72C278.066 157.59 278.573 156.96 279.191 156.93C279.542 156.972 279.888 157.052 280.223 157.17C281.788 157.46 283.241 155.33 284.76 155.9C285.07 156.01 285.351 156.24 285.698 156.37C286.303 156.581 286.951 156.615 287.573 156.47C287.66 156.22 287.798 155.993 287.977 155.807C288.157 155.62 288.373 155.48 288.611 155.394C288.848 155.309 289.1 155.281 289.349 155.313C289.598 155.346 289.836 155.437 290.048 155.58C290.176 155.714 290.334 155.811 290.507 155.86C290.985 155.86 291.145 155.05 291.557 154.74C291.97 154.43 292.373 154.65 292.776 154.56C293.019 154.473 293.239 154.324 293.416 154.125C293.592 153.926 293.72 153.684 293.788 153.42C293.949 152.856 294.031 152.27 294.032 151.68C294.056 151.458 294.037 151.234 293.976 151.02C293.894 150.83 293.768 150.665 293.61 150.54C292.686 149.69 291.602 149.059 290.432 148.69C290.241 148.611 290.033 148.591 289.832 148.63C289.561 148.748 289.322 148.937 289.138 149.18C287.732 150.63 285.688 150.47 283.87 150.18C283.106 150.127 282.357 149.931 281.657 149.6C281.488 149.51 281.329 149.4 281.151 149.32C280.931 149.245 280.705 149.195 280.476 149.17C277.958 148.794 275.529 147.919 273.313 146.59C273.133 146.458 272.928 146.366 272.713 146.32C272.45 146.311 272.189 146.373 271.954 146.5C271.093 146.794 270.291 147.259 269.591 147.87C269.241 148.19 268.965 148.592 268.784 149.045C268.604 149.498 268.524 149.989 268.551 150.48C268.607 151.48 269.001 152.3 268.223 153.1Z" fill="#FFD400" stroke="#1F1A54" stroke-width="0.8" stroke-linecap="round" stroke-linejoin="round"/>
<path d="M293.91 148.46C293.91 152.84 288.229 154.57 281.226 154.57C274.223 154.57 268.541 152.84 268.541 148.46C268.541 144.08 274.166 143.25 281.226 143.25C288.285 143.25 293.91 144.09 293.91 148.46Z" fill="#1F1A54" stroke="#1F1A54" stroke-width="0.8" stroke-linecap="round" stroke-linejoin="round"/>
<path d="M293.91 144.13C293.91 147.82 288.229 150.19 281.226 150.19C274.223 150.19 268.541 147.82 268.541 144.13C268.541 140.44 274.166 135.13 281.226 135.13C288.285 135.13 293.91 140.43 293.91 144.13Z" fill="white" stroke="#1F1A54" stroke-width="0.8" stroke-linecap="round" stroke-linejoin="round"/>
<path d="M282.595 145.35L282.932 145.21" stroke="#1F1A54" stroke-width="0.8" stroke-linecap="round" stroke-linejoin="round"/>
<path d="M285.566 140.46L285.041 140.37" stroke="#1F1A54" stroke-width="0.8" stroke-linecap="round" stroke-linejoin="round"/>
<path d="M281.535 140.82H281.385" stroke="#1F1A54" stroke-width="0.8" stroke-linecap="round" stroke-linejoin="round"/>
<path d="M276.454 141.54L276.613 141.26" stroke="#1F1A54" stroke-width="0.8" stroke-linecap="round" stroke-linejoin="round"/>
<path d="M272.863 142.6L273.088 142.32" stroke="#1F1A54" stroke-width="0.8" stroke-linecap="round" stroke-linejoin="round"/>
<path d="M280.476 137.28H280.879" stroke="#1F1A54" stroke-width="0.8" stroke-linecap="round" stroke-linejoin="round"/>
<path d="M288.098 142.67L288.398 142.49" stroke="#1F1A54" stroke-width="0.8" stroke-linecap="round" stroke-linejoin="round"/>
<path d="M277.607 144.07L277.841 143.88" stroke="#1F1A54" stroke-width="0.8" stroke-linecap="round" stroke-linejoin="round"/>
<path d="M275.807 137.66H276.032" stroke="#1F1A54" stroke-width="0.8" stroke-linecap="round" stroke-linejoin="round"/>
<path d="M285.426 137.6L285.773 137.69" stroke="#1F1A54" stroke-width="0.8" stroke-linecap="round" stroke-linejoin="round"/>
<path d="M150.341 110.93L157.448 115.83L176.048 97.2502C178.729 94.5835 181.52 92.0369 184.42 89.6102L187.926 86.7002C188.265 86.4133 188.663 86.2177 189.088 86.1302L206.254 82.4702C206.442 82.7423 206.569 83.0575 206.623 83.3907C206.677 83.7239 206.658 84.066 206.567 84.39C206.476 84.714 206.316 85.011 206.099 85.2575C205.882 85.504 205.614 85.6932 205.316 85.8102L196.56 88.7002C195.107 89.5002 194.938 91.3802 196.476 91.6002L200.61 91.9002C202.579 92.2502 202.954 94.7202 201.023 94.9002C198.951 95.1302 191.46 96.4002 190.495 96.6402C187.839 97.2919 185.488 98.9338 183.866 101.27C179.066 108.22 171.098 121.6 166.185 128.6C164.507 130.99 162.116 132.66 159.454 131.73L145.56 126.29" fill="white"/>
<path d="M150.341 110.93L157.448 115.83L176.048 97.2502C178.729 94.5835 181.52 92.0369 184.42 89.6102L187.926 86.7002C188.265 86.4133 188.663 86.2177 189.088 86.1302L206.254 82.4702C206.442 82.7423 206.569 83.0575 206.623 83.3907C206.677 83.7239 206.658 84.066 206.567 84.39C206.476 84.714 206.316 85.011 206.099 85.2575C205.882 85.504 205.614 85.6932 205.316 85.8102L196.56 88.7002C195.107 89.5002 194.938 91.3802 196.476 91.6002L200.61 91.9002C202.579 92.2502 202.954 94.7202 201.023 94.9002C198.951 95.1302 191.46 96.4002 190.495 96.6402C187.839 97.2919 185.488 98.9338 183.866 101.27C179.066 108.22 171.098 121.6 166.185 128.6C164.507 130.99 162.116 132.66 159.454 131.73L145.56 126.29" stroke="#1F1A54" stroke-width="0.8" stroke-linecap="round" stroke-linejoin="round"/>
<path d="M136.626 174.71C136.682 164.03 128.46 150.58 128.46 150.58" stroke="#1F1A54" stroke-width="0.8" stroke-linecap="round" stroke-linejoin="round"/>
<path d="M110.854 199.2L112.56 213.8L95.2633 216.8V230.49L127.007 230.87C128.311 230.88 129.57 230.366 130.534 229.431C131.499 228.495 132.097 227.206 132.21 225.82L134.629 199.6" stroke="#1F1A54" stroke-width="0.8" stroke-linecap="round" stroke-linejoin="round"/>
<path d="M93.6227 152.12C93.6227 152.12 90.8758 159.25 89.6383 162.92C84.4915 178.11 87.1446 198.64 107.507 199.13L143.573 199.72L146.385 230.56L159.801 230.82L160.523 187.73C160.555 185.51 159.848 183.349 158.528 181.632C157.209 179.915 155.361 178.752 153.313 178.35L110.526 169.96" stroke="#1F1A54" stroke-width="0.8" stroke-linecap="round" stroke-linejoin="round"/>
<path d="M179.254 248.46C179.254 248.46 179.591 248.93 179.254 250.46C178.785 252.63 176.938 254.35 170.929 254.27C166.954 254.22 148.016 253.44 146.132 253.21C144.248 252.98 145.823 249.94 146.516 247.49C146.516 247.49 171.407 251.97 176.085 250.84C178.185 250.33 179.366 249.47 179.245 248.41L179.254 248.46Z" fill="white"/>
<path d="M167.123 243.3C167.638 243.52 168.173 243.73 168.707 243.91L169.785 244.27C171.426 244.81 173.141 245.27 174.388 245.66C175.982 246.12 177.81 246.47 178.57 247.25C178.913 247.563 179.151 247.988 179.245 248.46C179.366 249.52 178.185 250.38 176.085 250.89C171.398 252.02 146.516 247.54 146.516 247.54C146.516 247.54 146.948 245.61 147.454 242.26C147.864 242.426 148.288 242.55 148.72 242.63C150.263 242.916 151.849 242.786 153.332 242.25C155.174 241.555 156.932 240.632 158.573 239.5C159.426 238.91 159.941 238.44 159.857 238.33C160.474 239.097 161.187 239.77 161.976 240.33C162.83 240.979 163.726 241.564 164.657 242.08C165.458 242.533 166.281 242.94 167.123 243.3Z" fill="white"/>
<path d="M158.591 239.31V239.5C156.96 240.629 155.211 241.552 153.379 242.25C151.895 242.786 150.309 242.916 148.766 242.63L148.841 242.25L148.11 230.02H157.991L158.591 239.31Z" fill="#FFD400"/>
<path d="M95.2539 216.76V228.08L85.4758 228.9H85.4196C84.2565 227.029 83.312 225.014 82.6071 222.9C82.0768 221.218 81.9829 219.414 82.3352 217.68L95.2539 216.76Z" fill="#FFD400"/>
<path d="M81.6039 237.67C81.3883 238.23 81.1914 238.79 81.0227 239.36L80.6852 240.51C80.1789 242.26 79.7008 244.08 79.3633 245.42C78.9321 247.11 78.6039 249.06 77.8633 249.87C77.5712 250.237 77.1714 250.487 76.7289 250.58C75.7914 250.71 74.9289 249.44 74.4602 247.2C73.4196 242.2 77.6852 215.68 77.6852 215.68C77.6852 215.68 79.4946 216.14 82.6539 216.68C82.527 217.004 82.4267 217.338 82.3539 217.68C82.0016 219.414 82.0956 221.218 82.6258 222.9C83.3308 225.015 84.2753 227.03 85.4383 228.9C85.8789 229.59 86.2164 229.99 86.3102 229.9C85.5886 230.559 84.9574 231.324 84.4352 232.17C83.8219 233.077 83.2705 234.029 82.7852 235.02C82.3448 235.879 81.9504 236.764 81.6039 237.67Z" fill="white"/>
<path d="M76.7289 250.6C76.7289 250.6 76.2883 250.96 74.8539 250.6C72.7539 250.08 71.1602 248.11 71.2539 241.7C71.3196 237.46 72.1071 217.26 72.3321 215.25C72.5571 213.24 75.3977 214.93 77.6852 215.68C77.6852 215.68 73.4196 242.21 74.4602 247.2C74.9289 249.44 75.7446 250.71 76.7289 250.6Z" fill="white"/>
<path d="M147.473 242.26C147.883 242.426 148.306 242.55 148.738 242.63C150.281 242.916 151.867 242.786 153.351 242.25C155.192 241.555 156.951 240.632 158.591 239.5C159.445 238.91 159.96 238.44 159.876 238.33C160.493 239.097 161.206 239.77 161.995 240.33C162.849 240.979 163.745 241.564 164.676 242.08C165.471 242.532 166.288 242.94 167.123 243.3C167.638 243.52 168.173 243.73 168.707 243.91L169.785 244.27C171.426 244.81 173.141 245.27 174.388 245.66C175.982 246.12 177.81 246.47 178.57 247.25C178.913 247.563 179.151 247.988 179.245 248.46C179.366 249.52 178.185 250.38 176.085 250.89C171.398 252.02 146.516 247.54 146.516 247.54C146.516 247.54 146.948 245.61 147.454 242.26" stroke="#1F1A54" stroke-width="0.8" stroke-linecap="round" stroke-linejoin="round"/>
<path d="M179.254 248.46C179.254 248.46 179.591 248.93 179.254 250.46C178.785 252.63 176.938 254.35 170.929 254.27C166.954 254.22 148.016 253.44 146.132 253.21C144.248 252.98 145.823 249.94 146.516 247.49" stroke="#1F1A54" stroke-width="0.8" stroke-linecap="round" stroke-linejoin="round"/>
<path d="M160.917 241.61L161.995 240.32L163.091 239.01" stroke="#1F1A54" stroke-width="0.8" stroke-linecap="round" stroke-linejoin="round"/>
<path d="M163.57 243.67L164.676 242.07L165.548 240.82" stroke="#1F1A54" stroke-width="0.8" stroke-linecap="round" stroke-linejoin="round"/>
<path d="M166.176 244.91L167.123 243.29L167.957 241.86" stroke="#1F1A54" stroke-width="0.8" stroke-linecap="round" stroke-linejoin="round"/>
<path d="M168.791 245.95L169.785 244.26L170.582 242.91" stroke="#1F1A54" stroke-width="0.8" stroke-linecap="round" stroke-linejoin="round"/>
<path d="M77.6851 215.68C77.6851 215.68 79.4945 216.14 82.6539 216.68C82.527 217.004 82.4266 217.338 82.3539 217.68C82.0016 219.414 82.0955 221.218 82.6258 222.9C83.3307 225.015 84.2752 227.03 85.4383 228.9C85.8789 229.59 86.2164 229.99 86.3101 229.9C85.5886 230.559 84.9574 231.324 84.4351 232.17C83.8219 233.077 83.2705 234.029 82.7851 235.02C82.3559 235.863 81.9709 236.731 81.632 237.62C81.4164 238.18 81.2195 238.74 81.0508 239.31L80.7133 240.46C80.207 242.21 79.7289 244.03 79.3914 245.37C78.9601 247.06 78.632 249.01 77.8914 249.82C77.5993 250.187 77.1994 250.437 76.757 250.53C75.8195 250.66 74.957 249.39 74.4883 247.15C73.4195 242.21 77.6851 215.68 77.6851 215.68Z" stroke="#1F1A54" stroke-width="0.8" stroke-linecap="round" stroke-linejoin="round"/>
<path d="M76.7289 250.6C76.7289 250.6 76.2883 250.96 74.8539 250.6C72.7539 250.08 71.1602 248.11 71.2539 241.7C71.3196 237.46 72.1071 217.26 72.3321 215.25C72.5571 213.24 75.3977 214.93 77.6852 215.68" stroke="#1F1A54" stroke-width="0.8" stroke-linecap="round" stroke-linejoin="round"/>
<path d="M83.1976 231.06L84.407 232.22L85.6258 233.38" stroke="#1F1A54" stroke-width="0.8" stroke-linecap="round" stroke-linejoin="round"/>
<path d="M81.2571 233.88L82.7571 235.07L83.929 235.98" stroke="#1F1A54" stroke-width="0.8" stroke-linecap="round" stroke-linejoin="round"/>
<path d="M80.0946 236.64L81.604 237.66L82.9352 238.57" stroke="#1F1A54" stroke-width="0.8" stroke-linecap="round" stroke-linejoin="round"/>
<path d="M79.1008 239.44L80.6852 240.51L81.9508 241.35" stroke="#1F1A54" stroke-width="0.8" stroke-linecap="round" stroke-linejoin="round"/>
<path d="M148.813 242.25L148.082 230.01H157.991L158.591 239.31" stroke="#1F1A54" stroke-width="0.8" stroke-linecap="round" stroke-linejoin="round"/>
<path d="M82.3446 217.76H82.354L95.254 216.76V228.07L85.4759 228.89" stroke="#1F1A54" stroke-width="0.8" stroke-linecap="round" stroke-linejoin="round"/>
<path d="M150.173 106.12C154.734 106.12 158.432 92.6617 158.432 76.06C158.432 59.4583 154.734 46 150.173 46C145.611 46 141.913 59.4583 141.913 76.06C141.913 92.6617 145.611 106.12 150.173 106.12Z" fill="#1F1A54" stroke="#1F1A54" stroke-width="0.8" stroke-linecap="round" stroke-linejoin="round"/>
<path d="M150.173 46H145.195C140.638 46 136.935 59.46 136.935 76.06C136.935 92.66 140.685 106.13 145.195 106.13H150.173" fill="#1F1A54"/>
<path d="M150.173 46H145.195C140.638 46 136.935 59.46 136.935 76.06C136.935 92.66 140.685 106.13 145.195 106.13H150.173" stroke="#1F1A54" stroke-width="0.8" stroke-linecap="round" stroke-linejoin="round"/>
<path d="M150.173 102.34C153.264 102.34 155.77 90.5738 155.77 76.0598C155.77 61.5457 153.264 49.7798 150.173 49.7798C147.082 49.7798 144.576 61.5457 144.576 76.0598C144.576 90.5738 147.082 102.34 150.173 102.34Z" fill="#FFD400" stroke="#1F1A54" stroke-width="0.8" stroke-linecap="round" stroke-linejoin="round"/>
<path d="M148.354 51.2998C151.345 55.2998 152.966 64.8998 152.966 76.0598C152.966 87.2198 151.345 96.7898 148.354 100.82" fill="#FFD400"/>
<path d="M148.354 51.2998C151.345 55.2998 152.966 64.8998 152.966 76.0598C152.966 87.2198 151.345 96.7898 148.354 100.82" stroke="#1F1A54" stroke-width="0.8" stroke-linecap="round" stroke-linejoin="round"/>
<path d="M136.56 175.07L153.276 178.35C155.322 178.752 157.169 179.915 158.487 181.633C159.806 183.35 160.51 185.511 160.476 187.73L159.754 230.82L146.348 230.6L143.535 199.76L134.629 199.6L110.826 199.21L107.469 199.16C87.1164 198.67 84.4539 178.16 89.6008 162.95C90.8476 159.28 93.5945 152.15 93.5945 152.15C105.202 154.023 117.039 153.497 128.46 150.6C128.46 150.6 136.682 164.05 136.626 174.74L136.56 175.07ZM110.854 199.18L112.551 213.78L95.2633 216.78V230.46L127.007 230.84C128.31 230.848 129.568 230.333 130.532 229.398C131.496 228.462 132.095 227.175 132.21 225.79L134.629 199.6L110.854 199.18Z" fill="#1F1A54"/>
<mask id="mask0" mask-type="alpha" maskUnits="userSpaceOnUse" x="87" y="150" width="74" height="81">
<path d="M136.56 175.07L153.276 178.35C155.322 178.752 157.169 179.915 158.487 181.633C159.806 183.35 160.51 185.511 160.476 187.73L159.754 230.82L146.348 230.6L143.535 199.76L134.629 199.6L110.826 199.21L107.47 199.16C87.1165 198.67 84.454 178.16 89.6009 162.95C90.8477 159.28 93.5946 152.15 93.5946 152.15C105.202 154.023 117.039 153.497 128.46 150.6C128.46 150.6 136.682 164.05 136.626 174.74L136.56 175.07ZM110.854 199.18L112.551 213.78L95.2634 216.78V230.46L127.007 230.84C128.31 230.848 129.568 230.333 130.532 229.398C131.496 228.462 132.095 227.175 132.21 225.79L134.629 199.6L110.854 199.18Z" fill="#1F1A54"/>
</mask>
<g mask="url(#mask0)">
<path d="M89.1602 150.16C89.531 150.16 89.8935 150.042 90.2019 149.823C90.5102 149.603 90.7505 149.29 90.8924 148.925C91.0343 148.56 91.0715 148.157 90.9991 147.769C90.9268 147.382 90.7482 147.025 90.486 146.745C90.2238 146.466 89.8897 146.275 89.526 146.198C89.1622 146.121 88.7852 146.161 88.4426 146.312C88.1 146.463 87.8072 146.72 87.6012 147.049C87.3951 147.377 87.2852 147.764 87.2852 148.16C87.2852 148.69 87.4827 149.199 87.8343 149.574C88.186 149.949 88.6629 150.16 89.1602 150.16Z" fill="white" stroke="#1F1A54" stroke-width="1.5" stroke-miterlimit="10"/>
<path d="M99.5383 150.16C99.9092 150.16 100.272 150.042 100.58 149.823C100.888 149.603 101.129 149.29 101.271 148.925C101.413 148.56 101.45 148.157 101.377 147.769C101.305 147.382 101.126 147.025 100.864 146.745C100.602 146.466 100.268 146.275 99.9041 146.198C99.5404 146.121 99.1634 146.161 98.8208 146.312C98.4782 146.463 98.1854 146.72 97.9793 147.049C97.7733 147.377 97.6633 147.764 97.6633 148.16C97.6633 148.69 97.8609 149.199 98.2125 149.574C98.5641 149.949 99.041 150.16 99.5383 150.16Z" fill="white" stroke="#1F1A54" stroke-width="1.5" stroke-miterlimit="10"/>
<path d="M109.916 150.16C110.287 150.16 110.65 150.042 110.958 149.823C111.266 149.603 111.507 149.29 111.649 148.925C111.791 148.56 111.828 148.157 111.755 147.769C111.683 147.382 111.504 147.025 111.242 146.745C110.98 146.466 110.646 146.275 110.282 146.198C109.918 146.121 109.541 146.161 109.199 146.312C108.856 146.463 108.563 146.72 108.357 147.049C108.151 147.377 108.041 147.764 108.041 148.16C108.041 148.69 108.239 149.199 108.591 149.574C108.942 149.949 109.419 150.16 109.916 150.16Z" fill="white" stroke="#1F1A54" stroke-width="1.5" stroke-miterlimit="10"/>
<path d="M120.295 150.16C120.665 150.16 121.028 150.042 121.336 149.823C121.645 149.603 121.885 149.29 122.027 148.925C122.169 148.56 122.206 148.157 122.134 147.769C122.061 147.382 121.883 147.025 121.62 146.745C121.358 146.466 121.024 146.275 120.66 146.198C120.297 146.121 119.92 146.161 119.577 146.312C119.234 146.463 118.942 146.72 118.736 147.049C118.53 147.377 118.42 147.764 118.42 148.16C118.42 148.69 118.617 149.199 118.969 149.574C119.32 149.949 119.797 150.16 120.295 150.16Z" fill="white" stroke="#1F1A54" stroke-width="1.5" stroke-miterlimit="10"/>
<path d="M130.673 150.16C131.044 150.16 131.406 150.042 131.714 149.823C132.023 149.603 132.263 149.29 132.405 148.925C132.547 148.56 132.584 148.157 132.512 147.769C132.439 147.382 132.261 147.025 131.999 146.745C131.736 146.466 131.402 146.275 131.039 146.198C130.675 146.121 130.298 146.161 129.955 146.312C129.613 146.463 129.32 146.72 129.114 147.049C128.908 147.377 128.798 147.764 128.798 148.16C128.798 148.69 128.995 149.199 129.347 149.574C129.699 149.949 130.175 150.16 130.673 150.16Z" fill="white" stroke="#1F1A54" stroke-width="1.5" stroke-miterlimit="10"/>
<path d="M141.051 150.16C141.422 150.16 141.784 150.042 142.092 149.823C142.401 149.603 142.641 149.29 142.783 148.925C142.925 148.56 142.962 148.157 142.89 147.769C142.817 147.382 142.639 147.025 142.377 146.745C142.114 146.466 141.78 146.275 141.417 146.198C141.053 146.121 140.676 146.161 140.333 146.312C139.991 146.463 139.698 146.72 139.492 147.049C139.286 147.377 139.176 147.764 139.176 148.16C139.176 148.69 139.373 149.199 139.725 149.574C140.077 149.949 140.553 150.16 141.051 150.16Z" fill="white" stroke="#1F1A54" stroke-width="1.5" stroke-miterlimit="10"/>
<path d="M151.429 150.16C151.8 150.16 152.162 150.042 152.471 149.823C152.779 149.603 153.019 149.29 153.161 148.925C153.303 148.56 153.34 148.157 153.268 147.769C153.196 147.382 153.017 147.025 152.755 146.745C152.493 146.466 152.158 146.275 151.795 146.198C151.431 146.121 151.054 146.161 150.711 146.312C150.369 146.463 150.076 146.72 149.87 147.049C149.664 147.377 149.554 147.764 149.554 148.16C149.554 148.69 149.751 149.199 150.103 149.574C150.455 149.949 150.932 150.16 151.429 150.16Z" fill="white" stroke="#1F1A54" stroke-width="1.5" stroke-miterlimit="10"/>
<path d="M161.816 150.16C162.187 150.16 162.55 150.042 162.858 149.823C163.166 149.603 163.407 149.29 163.549 148.925C163.691 148.56 163.728 148.157 163.655 147.769C163.583 147.382 163.404 147.025 163.142 146.745C162.88 146.466 162.546 146.275 162.182 146.198C161.818 146.121 161.441 146.161 161.099 146.312C160.756 146.463 160.463 146.72 160.257 147.049C160.051 147.377 159.941 147.764 159.941 148.16C159.941 148.69 160.139 149.199 160.491 149.574C160.842 149.949 161.319 150.16 161.816 150.16Z" fill="white" stroke="#1F1A54" stroke-width="1.5" stroke-miterlimit="10"/>
<path d="M94.3164 161.23C94.6872 161.23 95.0498 161.113 95.3581 160.893C95.6664 160.673 95.9068 160.361 96.0487 159.995C96.1906 159.63 96.2277 159.228 96.1554 158.84C96.083 158.452 95.9045 158.095 95.6422 157.816C95.38 157.536 95.0459 157.346 94.6822 157.268C94.3185 157.191 93.9415 157.231 93.5989 157.382C93.2563 157.534 92.9634 157.79 92.7574 158.119C92.5514 158.448 92.4414 158.834 92.4414 159.23C92.4414 159.76 92.639 160.269 92.9906 160.644C93.3422 161.019 93.8191 161.23 94.3164 161.23Z" fill="white" stroke="#1F1A54" stroke-width="1.5" stroke-miterlimit="10"/>
<path d="M104.732 161.23C105.103 161.23 105.465 161.113 105.774 160.893C106.082 160.673 106.322 160.361 106.464 159.995C106.606 159.63 106.643 159.228 106.571 158.84C106.499 158.452 106.32 158.095 106.058 157.816C105.796 157.536 105.462 157.346 105.098 157.268C104.734 157.191 104.357 157.231 104.015 157.382C103.672 157.534 103.379 157.79 103.173 158.119C102.967 158.448 102.857 158.834 102.857 159.23C102.857 159.76 103.055 160.269 103.406 160.644C103.758 161.019 104.235 161.23 104.732 161.23Z" fill="white" stroke="#1F1A54" stroke-width="1.5" stroke-miterlimit="10"/>
<path d="M115.11 161.23C115.481 161.23 115.844 161.113 116.152 160.893C116.46 160.673 116.701 160.361 116.843 159.995C116.984 159.63 117.022 159.228 116.949 158.84C116.877 158.452 116.698 158.095 116.436 157.816C116.174 157.536 115.84 157.346 115.476 157.268C115.112 157.191 114.735 157.231 114.393 157.382C114.05 157.534 113.757 157.79 113.551 158.119C113.345 158.448 113.235 158.834 113.235 159.23C113.235 159.76 113.433 160.269 113.784 160.644C114.136 161.019 114.613 161.23 115.11 161.23Z" fill="white" stroke="#1F1A54" stroke-width="1.5" stroke-miterlimit="10"/>
<path d="M125.488 161.23C125.859 161.23 126.222 161.113 126.53 160.893C126.838 160.673 127.079 160.361 127.221 159.995C127.362 159.63 127.4 159.228 127.327 158.84C127.255 158.452 127.076 158.095 126.814 157.816C126.552 157.536 126.218 157.346 125.854 157.268C125.49 157.191 125.113 157.231 124.771 157.382C124.428 157.534 124.135 157.79 123.929 158.119C123.723 158.448 123.613 158.834 123.613 159.23C123.613 159.76 123.811 160.269 124.162 160.644C124.514 161.019 124.991 161.23 125.488 161.23Z" fill="white" stroke="#1F1A54" stroke-width="1.5" stroke-miterlimit="10"/>
<path d="M135.866 161.23C136.237 161.23 136.6 161.113 136.908 160.893C137.216 160.673 137.457 160.361 137.599 159.995C137.741 159.63 137.778 159.228 137.705 158.84C137.633 158.452 137.455 158.095 137.192 157.816C136.93 157.536 136.596 157.346 136.232 157.268C135.869 157.191 135.492 157.231 135.149 157.382C134.806 157.534 134.513 157.79 134.307 158.119C134.101 158.448 133.991 158.834 133.991 159.23C133.991 159.76 134.189 160.269 134.541 160.644C134.892 161.019 135.369 161.23 135.866 161.23Z" fill="white" stroke="#1F1A54" stroke-width="1.5" stroke-miterlimit="10"/>
<path d="M146.235 161.23C146.606 161.23 146.968 161.113 147.277 160.893C147.585 160.673 147.825 160.361 147.967 159.995C148.109 159.63 148.146 159.228 148.074 158.84C148.002 158.452 147.823 158.095 147.561 157.816C147.299 157.536 146.965 157.346 146.601 157.268C146.237 157.191 145.86 157.231 145.518 157.382C145.175 157.534 144.882 157.79 144.676 158.119C144.47 158.448 144.36 158.834 144.36 159.23C144.36 159.76 144.558 160.269 144.909 160.644C145.261 161.019 145.738 161.23 146.235 161.23Z" fill="white" stroke="#1F1A54" stroke-width="1.5" stroke-miterlimit="10"/>
<path d="M156.613 161.23C156.984 161.23 157.347 161.113 157.655 160.893C157.963 160.673 158.204 160.361 158.346 159.995C158.487 159.63 158.525 159.228 158.452 158.84C158.38 158.452 158.201 158.095 157.939 157.816C157.677 157.536 157.343 157.346 156.979 157.268C156.615 157.191 156.238 157.231 155.896 157.382C155.553 157.534 155.26 157.79 155.054 158.119C154.848 158.448 154.738 158.834 154.738 159.23C154.738 159.76 154.936 160.269 155.287 160.644C155.639 161.019 156.116 161.23 156.613 161.23Z" fill="white" stroke="#1F1A54" stroke-width="1.5" stroke-miterlimit="10"/>
<path d="M89.1602 172.3C89.531 172.3 89.8935 172.183 90.2019 171.963C90.5102 171.743 90.7505 171.431 90.8924 171.065C91.0343 170.7 91.0715 170.298 90.9991 169.91C90.9268 169.522 90.7482 169.165 90.486 168.886C90.2238 168.606 89.8897 168.415 89.526 168.338C89.1622 168.261 88.7852 168.301 88.4426 168.452C88.1 168.603 87.8072 168.86 87.6012 169.189C87.3951 169.518 87.2852 169.904 87.2852 170.3C87.2852 170.83 87.4827 171.339 87.8343 171.714C88.186 172.089 88.6629 172.3 89.1602 172.3Z" fill="white" stroke="#1F1A54" stroke-width="1.5" stroke-miterlimit="10"/>
<path d="M99.5383 172.3C99.9092 172.3 100.272 172.183 100.58 171.963C100.888 171.743 101.129 171.431 101.271 171.065C101.413 170.7 101.45 170.298 101.377 169.91C101.305 169.522 101.126 169.165 100.864 168.886C100.602 168.606 100.268 168.415 99.9041 168.338C99.5404 168.261 99.1634 168.301 98.8208 168.452C98.4782 168.603 98.1854 168.86 97.9793 169.189C97.7733 169.518 97.6633 169.904 97.6633 170.3C97.6633 170.83 97.8609 171.339 98.2125 171.714C98.5641 172.089 99.041 172.3 99.5383 172.3Z" fill="white" stroke="#1F1A54" stroke-width="1.5" stroke-miterlimit="10"/>
<path d="M109.916 172.3C110.287 172.3 110.65 172.183 110.958 171.963C111.266 171.743 111.507 171.431 111.649 171.065C111.791 170.7 111.828 170.298 111.755 169.91C111.683 169.522 111.504 169.165 111.242 168.886C110.98 168.606 110.646 168.415 110.282 168.338C109.918 168.261 109.541 168.301 109.199 168.452C108.856 168.603 108.563 168.86 108.357 169.189C108.151 169.518 108.041 169.904 108.041 170.3C108.041 170.83 108.239 171.339 108.591 171.714C108.942 172.089 109.419 172.3 109.916 172.3Z" fill="white" stroke="#1F1A54" stroke-width="1.5" stroke-miterlimit="10"/>
<path d="M120.295 172.3C120.665 172.3 121.028 172.183 121.336 171.963C121.645 171.743 121.885 171.431 122.027 171.065C122.169 170.7 122.206 170.298 122.134 169.91C122.061 169.522 121.883 169.165 121.62 168.886C121.358 168.606 121.024 168.415 120.66 168.338C120.297 168.261 119.92 168.301 119.577 168.452C119.234 168.603 118.942 168.86 118.736 169.189C118.53 169.518 118.42 169.904 118.42 170.3C118.42 170.83 118.617 171.339 118.969 171.714C119.32 172.089 119.797 172.3 120.295 172.3Z" fill="white" stroke="#1F1A54" stroke-width="1.5" stroke-miterlimit="10"/>
<path d="M130.673 172.3C131.044 172.3 131.406 172.183 131.714 171.963C132.023 171.743 132.263 171.431 132.405 171.065C132.547 170.7 132.584 170.298 132.512 169.91C132.439 169.522 132.261 169.165 131.999 168.886C131.736 168.606 131.402 168.415 131.039 168.338C130.675 168.261 130.298 168.301 129.955 168.452C129.613 168.603 129.32 168.86 129.114 169.189C128.908 169.518 128.798 169.904 128.798 170.3C128.798 170.83 128.995 171.339 129.347 171.714C129.699 172.089 130.175 172.3 130.673 172.3Z" fill="white" stroke="#1F1A54" stroke-width="1.5" stroke-miterlimit="10"/>
<path d="M141.051 172.3C141.422 172.3 141.784 172.183 142.092 171.963C142.401 171.743 142.641 171.431 142.783 171.065C142.925 170.7 142.962 170.298 142.89 169.91C142.817 169.522 142.639 169.165 142.377 168.886C142.114 168.606 141.78 168.415 141.417 168.338C141.053 168.261 140.676 168.301 140.333 168.452C139.991 168.603 139.698 168.86 139.492 169.189C139.286 169.518 139.176 169.904 139.176 170.3C139.176 170.83 139.373 171.339 139.725 171.714C140.077 172.089 140.553 172.3 141.051 172.3Z" fill="white" stroke="#1F1A54" stroke-width="1.5" stroke-miterlimit="10"/>
<path d="M151.429 172.3C151.8 172.3 152.162 172.183 152.471 171.963C152.779 171.743 153.019 171.431 153.161 171.065C153.303 170.7 153.34 170.298 153.268 169.91C153.196 169.522 153.017 169.165 152.755 168.886C152.493 168.606 152.158 168.415 151.795 168.338C151.431 168.261 151.054 168.301 150.711 168.452C150.369 168.603 150.076 168.86 149.87 169.189C149.664 169.518 149.554 169.904 149.554 170.3C149.554 170.83 149.751 171.339 150.103 171.714C150.455 172.089 150.932 172.3 151.429 172.3Z" fill="white" stroke="#1F1A54" stroke-width="1.5" stroke-miterlimit="10"/>
<path d="M161.816 172.3C162.187 172.3 162.55 172.183 162.858 171.963C163.166 171.743 163.407 171.431 163.549 171.065C163.691 170.7 163.728 170.298 163.655 169.91C163.583 169.522 163.404 169.165 163.142 168.886C162.88 168.606 162.546 168.415 162.182 168.338C161.818 168.261 161.441 168.301 161.099 168.452C160.756 168.603 160.463 168.86 160.257 169.189C160.051 169.518 159.941 169.904 159.941 170.3C159.941 170.83 160.139 171.339 160.491 171.714C160.842 172.089 161.319 172.3 161.816 172.3Z" fill="white" stroke="#1F1A54" stroke-width="1.5" stroke-miterlimit="10"/>
<path d="M94.3164 183.37C94.6872 183.37 95.0498 183.253 95.3581 183.033C95.6664 182.813 95.9068 182.501 96.0487 182.135C96.1906 181.77 96.2277 181.368 96.1554 180.98C96.083 180.592 95.9045 180.236 95.6422 179.956C95.38 179.676 95.0459 179.486 94.6822 179.409C94.3185 179.331 93.9415 179.371 93.5989 179.522C93.2563 179.674 92.9634 179.93 92.7574 180.259C92.5514 180.588 92.4414 180.975 92.4414 181.37C92.4414 181.901 92.639 182.409 92.9906 182.784C93.3422 183.159 93.8191 183.37 94.3164 183.37Z" fill="white" stroke="#1F1A54" stroke-width="1.5" stroke-miterlimit="10"/>
<path d="M104.732 183.37C105.103 183.37 105.465 183.253 105.774 183.033C106.082 182.813 106.322 182.501 106.464 182.135C106.606 181.77 106.643 181.368 106.571 180.98C106.499 180.592 106.32 180.236 106.058 179.956C105.796 179.676 105.462 179.486 105.098 179.409C104.734 179.331 104.357 179.371 104.015 179.522C103.672 179.674 103.379 179.93 103.173 180.259C102.967 180.588 102.857 180.975 102.857 181.37C102.857 181.901 103.055 182.409 103.406 182.784C103.758 183.159 104.235 183.37 104.732 183.37Z" fill="white" stroke="#1F1A54" stroke-width="1.5" stroke-miterlimit="10"/>
<path d="M115.11 183.37C115.481 183.37 115.844 183.253 116.152 183.033C116.46 182.813 116.701 182.501 116.843 182.135C116.984 181.77 117.022 181.368 116.949 180.98C116.877 180.592 116.698 180.236 116.436 179.956C116.174 179.676 115.84 179.486 115.476 179.409C115.112 179.331 114.735 179.371 114.393 179.522C114.05 179.674 113.757 179.93 113.551 180.259C113.345 180.588 113.235 180.975 113.235 181.37C113.235 181.901 113.433 182.409 113.784 182.784C114.136 183.159 114.613 183.37 115.11 183.37Z" fill="white" stroke="#1F1A54" stroke-width="1.5" stroke-miterlimit="10"/>
<path d="M125.488 183.37C125.859 183.37 126.222 183.253 126.53 183.033C126.838 182.813 127.079 182.501 127.221 182.135C127.362 181.77 127.4 181.368 127.327 180.98C127.255 180.592 127.076 180.236 126.814 179.956C126.552 179.676 126.218 179.486 125.854 179.409C125.49 179.331 125.113 179.371 124.771 179.522C124.428 179.674 124.135 179.93 123.929 180.259C123.723 180.588 123.613 180.975 123.613 181.37C123.613 181.901 123.811 182.409 124.162 182.784C124.514 183.159 124.991 183.37 125.488 183.37Z" fill="white" stroke="#1F1A54" stroke-width="1.5" stroke-miterlimit="10"/>
<path d="M135.866 183.37C136.237 183.37 136.6 183.253 136.908 183.033C137.216 182.813 137.457 182.501 137.599 182.135C137.741 181.77 137.778 181.368 137.705 180.98C137.633 180.592 137.455 180.236 137.192 179.956C136.93 179.676 136.596 179.486 136.232 179.409C135.869 179.331 135.492 179.371 135.149 179.522C134.806 179.674 134.513 179.93 134.307 180.259C134.101 180.588 133.991 180.975 133.991 181.37C133.991 181.901 134.189 182.409 134.541 182.784C134.892 183.159 135.369 183.37 135.866 183.37Z" fill="white" stroke="#1F1A54" stroke-width="1.5" stroke-miterlimit="10"/>
<path d="M146.235 183.37C146.606 183.37 146.968 183.253 147.277 183.033C147.585 182.813 147.825 182.501 147.967 182.135C148.109 181.77 148.146 181.368 148.074 180.98C148.002 180.592 147.823 180.236 147.561 179.956C147.299 179.676 146.965 179.486 146.601 179.409C146.237 179.331 145.86 179.371 145.518 179.522C145.175 179.674 144.882 179.93 144.676 180.259C144.47 180.588 144.36 180.975 144.36 181.37C144.36 181.901 144.558 182.409 144.909 182.784C145.261 183.159 145.738 183.37 146.235 183.37Z" fill="white" stroke="#1F1A54" stroke-width="1.5" stroke-miterlimit="10"/>
<path d="M156.613 183.37C156.984 183.37 157.347 183.253 157.655 183.033C157.963 182.813 158.204 182.501 158.346 182.135C158.487 181.77 158.525 181.368 158.452 180.98C158.38 180.592 158.201 180.236 157.939 179.956C157.677 179.676 157.343 179.486 156.979 179.409C156.615 179.331 156.238 179.371 155.896 179.522C155.553 179.674 155.26 179.93 155.054 180.259C154.848 180.588 154.738 180.975 154.738 181.37C154.738 181.901 154.936 182.409 155.287 182.784C155.639 183.159 156.116 183.37 156.613 183.37Z" fill="white" stroke="#1F1A54" stroke-width="1.5" stroke-miterlimit="10"/>
<path d="M89.1602 194.44C89.531 194.44 89.8935 194.323 90.2019 194.103C90.5102 193.883 90.7505 193.571 90.8924 193.205C91.0343 192.84 91.0715 192.438 90.9991 192.05C90.9268 191.662 90.7482 191.305 90.486 191.026C90.2238 190.746 89.8897 190.556 89.526 190.478C89.1622 190.401 88.7852 190.441 88.4426 190.592C88.1 190.744 87.8072 191 87.6012 191.329C87.3951 191.658 87.2852 192.044 87.2852 192.44C87.2852 192.97 87.4827 193.479 87.8343 193.854C88.186 194.229 88.6629 194.44 89.1602 194.44Z" fill="white" stroke="#1F1A54" stroke-width="1.5" stroke-miterlimit="10"/>
<path d="M99.5383 194.44C99.9092 194.44 100.272 194.323 100.58 194.103C100.888 193.883 101.129 193.571 101.271 193.205C101.413 192.84 101.45 192.438 101.377 192.05C101.305 191.662 101.126 191.305 100.864 191.026C100.602 190.746 100.268 190.556 99.9041 190.478C99.5404 190.401 99.1634 190.441 98.8208 190.592C98.4782 190.744 98.1854 191 97.9793 191.329C97.7733 191.658 97.6633 192.044 97.6633 192.44C97.6633 192.97 97.8609 193.479 98.2125 193.854C98.5641 194.229 99.041 194.44 99.5383 194.44Z" fill="white" stroke="#1F1A54" stroke-width="1.5" stroke-miterlimit="10"/>
<path d="M109.916 194.44C110.287 194.44 110.65 194.323 110.958 194.103C111.266 193.883 111.507 193.571 111.649 193.205C111.791 192.84 111.828 192.438 111.755 192.05C111.683 191.662 111.504 191.305 111.242 191.026C110.98 190.746 110.646 190.556 110.282 190.478C109.918 190.401 109.541 190.441 109.199 190.592C108.856 190.744 108.563 191 108.357 191.329C108.151 191.658 108.041 192.044 108.041 192.44C108.041 192.97 108.239 193.479 108.591 193.854C108.942 194.229 109.419 194.44 109.916 194.44Z" fill="white" stroke="#1F1A54" stroke-width="1.5" stroke-miterlimit="10"/>
<path d="M120.295 194.44C120.665 194.44 121.028 194.323 121.336 194.103C121.645 193.883 121.885 193.571 122.027 193.205C122.169 192.84 122.206 192.438 122.134 192.05C122.061 191.662 121.883 191.305 121.62 191.026C121.358 190.746 121.024 190.556 120.66 190.478C120.297 190.401 119.92 190.441 119.577 190.592C119.234 190.744 118.942 191 118.736 191.329C118.53 191.658 118.42 192.044 118.42 192.44C118.42 192.97 118.617 193.479 118.969 193.854C119.32 194.229 119.797 194.44 120.295 194.44Z" fill="white" stroke="#1F1A54" stroke-width="1.5" stroke-miterlimit="10"/>
<path d="M130.673 194.44C131.044 194.44 131.406 194.323 131.714 194.103C132.023 193.883 132.263 193.571 132.405 193.205C132.547 192.84 132.584 192.438 132.512 192.05C132.439 191.662 132.261 191.305 131.999 191.026C131.736 190.746 131.402 190.556 131.039 190.478C130.675 190.401 130.298 190.441 129.955 190.592C129.613 190.744 129.32 191 129.114 191.329C128.908 191.658 128.798 192.044 128.798 192.44C128.798 192.97 128.995 193.479 129.347 193.854C129.699 194.229 130.175 194.44 130.673 194.44Z" fill="white" stroke="#1F1A54" stroke-width="1.5" stroke-miterlimit="10"/>
<path d="M141.051 194.44C141.422 194.44 141.784 194.323 142.092 194.103C142.401 193.883 142.641 193.571 142.783 193.205C142.925 192.84 142.962 192.438 142.89 192.05C142.817 191.662 142.639 191.305 142.377 191.026C142.114 190.746 141.78 190.556 141.417 190.478C141.053 190.401 140.676 190.441 140.333 190.592C139.991 190.744 139.698 191 139.492 191.329C139.286 191.658 139.176 192.044 139.176 192.44C139.176 192.97 139.373 193.479 139.725 193.854C140.077 194.229 140.553 194.44 141.051 194.44Z" fill="white" stroke="#1F1A54" stroke-width="1.5" stroke-miterlimit="10"/>
<path d="M151.429 194.44C151.8 194.44 152.162 194.323 152.471 194.103C152.779 193.883 153.019 193.571 153.161 193.205C153.303 192.84 153.34 192.438 153.268 192.05C153.196 191.662 153.017 191.305 152.755 191.026C152.493 190.746 152.158 190.556 151.795 190.478C151.431 190.401 151.054 190.441 150.711 190.592C150.369 190.744 150.076 191 149.87 191.329C149.664 191.658 149.554 192.044 149.554 192.44C149.554 192.97 149.751 193.479 150.103 193.854C150.455 194.229 150.932 194.44 151.429 194.44Z" fill="white" stroke="#1F1A54" stroke-width="1.5" stroke-miterlimit="10"/>
<path d="M161.816 194.44C162.187 194.44 162.55 194.323 162.858 194.103C163.166 193.883 163.407 193.571 163.549 193.205C163.691 192.84 163.728 192.438 163.655 192.05C163.583 191.662 163.404 191.305 163.142 191.026C162.88 190.746 162.546 190.556 162.182 190.478C161.818 190.401 161.441 190.441 161.099 190.592C160.756 190.744 160.463 191 160.257 191.329C160.051 191.658 159.941 192.044 159.941 192.44C159.941 192.97 160.139 193.479 160.491 193.854C160.842 194.229 161.319 194.44 161.816 194.44Z" fill="white" stroke="#1F1A54" stroke-width="1.5" stroke-miterlimit="10"/>
<path d="M94.3164 205.51C94.6872 205.51 95.0498 205.392 95.3581 205.173C95.6664 204.953 95.9068 204.641 96.0487 204.275C96.1906 203.91 96.2277 203.508 96.1554 203.12C96.083 202.732 95.9045 202.375 95.6422 202.096C95.38 201.816 95.0459 201.625 94.6822 201.548C94.3185 201.471 93.9415 201.511 93.5989 201.662C93.2563 201.813 92.9634 202.07 92.7574 202.399C92.5514 202.728 92.4414 203.114 92.4414 203.51C92.4414 204.04 92.639 204.549 92.9906 204.924C93.3422 205.299 93.8191 205.51 94.3164 205.51Z" fill="white" stroke="#1F1A54" stroke-width="1.5" stroke-miterlimit="10"/>
<path d="M104.723 205.51C105.758 205.51 106.598 204.614 106.598 203.51C106.598 202.405 105.758 201.51 104.723 201.51C103.687 201.51 102.848 202.405 102.848 203.51C102.848 204.614 103.687 205.51 104.723 205.51Z" fill="white" stroke="#1F1A54" stroke-width="1.5" stroke-miterlimit="10"/>
<path d="M115.11 205.51C115.481 205.51 115.844 205.392 116.152 205.173C116.46 204.953 116.701 204.641 116.843 204.275C116.984 203.91 117.022 203.508 116.949 203.12C116.877 202.732 116.698 202.375 116.436 202.096C116.174 201.816 115.84 201.625 115.476 201.548C115.112 201.471 114.735 201.511 114.393 201.662C114.05 201.813 113.757 202.07 113.551 202.399C113.345 202.728 113.235 203.114 113.235 203.51C113.235 204.04 113.433 204.549 113.784 204.924C114.136 205.299 114.613 205.51 115.11 205.51Z" fill="white" stroke="#1F1A54" stroke-width="1.5" stroke-miterlimit="10"/>
<path d="M125.488 205.51C125.859 205.51 126.222 205.392 126.53 205.173C126.838 204.953 127.079 204.641 127.221 204.275C127.362 203.91 127.4 203.508 127.327 203.12C127.255 202.732 127.076 202.375 126.814 202.096C126.552 201.816 126.218 201.625 125.854 201.548C125.49 201.471 125.113 201.511 124.771 201.662C124.428 201.813 124.135 202.07 123.929 202.399C123.723 202.728 123.613 203.114 123.613 203.51C123.613 204.04 123.811 204.549 124.162 204.924C124.514 205.299 124.991 205.51 125.488 205.51Z" fill="white" stroke="#1F1A54" stroke-width="1.5" stroke-miterlimit="10"/>
<path d="M135.866 205.51C136.237 205.51 136.6 205.392 136.908 205.173C137.216 204.953 137.457 204.641 137.599 204.275C137.741 203.91 137.778 203.508 137.705 203.12C137.633 202.732 137.455 202.375 137.192 202.096C136.93 201.816 136.596 201.625 136.232 201.548C135.869 201.471 135.492 201.511 135.149 201.662C134.806 201.813 134.513 202.07 134.307 202.399C134.101 202.728 133.991 203.114 133.991 203.51C133.991 204.04 134.189 204.549 134.541 204.924C134.892 205.299 135.369 205.51 135.866 205.51Z" fill="white" stroke="#1F1A54" stroke-width="1.5" stroke-miterlimit="10"/>
<path d="M146.235 205.51C146.606 205.51 146.968 205.392 147.277 205.173C147.585 204.953 147.825 204.641 147.967 204.275C148.109 203.91 148.146 203.508 148.074 203.12C148.002 202.732 147.823 202.375 147.561 202.096C147.299 201.816 146.965 201.625 146.601 201.548C146.237 201.471 145.86 201.511 145.518 201.662C145.175 201.813 144.882 202.07 144.676 202.399C144.47 202.728 144.36 203.114 144.36 203.51C144.36 204.04 144.558 204.549 144.909 204.924C145.261 205.299 145.738 205.51 146.235 205.51Z" fill="white" stroke="#1F1A54" stroke-width="1.5" stroke-miterlimit="10"/>
<path d="M156.613 205.51C156.984 205.51 157.347 205.392 157.655 205.173C157.963 204.953 158.204 204.641 158.346 204.275C158.487 203.91 158.525 203.508 158.452 203.12C158.38 202.732 158.201 202.375 157.939 202.096C157.677 201.816 157.343 201.625 156.979 201.548C156.615 201.471 156.238 201.511 155.896 201.662C155.553 201.813 155.26 202.07 155.054 202.399C154.848 202.728 154.738 203.114 154.738 203.51C154.738 204.04 154.936 204.549 155.287 204.924C155.639 205.299 156.116 205.51 156.613 205.51Z" fill="white" stroke="#1F1A54" stroke-width="1.5" stroke-miterlimit="10"/>
<path d="M89.1602 216.6C89.531 216.6 89.8935 216.483 90.2019 216.263C90.5102 216.043 90.7505 215.731 90.8924 215.365C91.0343 215 91.0715 214.598 90.9991 214.21C90.9268 213.822 90.7482 213.466 90.486 213.186C90.2238 212.906 89.8897 212.716 89.526 212.639C89.1622 212.561 88.7852 212.601 88.4426 212.752C88.1 212.904 87.8072 213.16 87.6012 213.489C87.3951 213.818 87.2852 214.205 87.2852 214.6C87.2852 215.131 87.4827 215.639 87.8343 216.014C88.186 216.389 88.6629 216.6 89.1602 216.6Z" fill="white" stroke="#1F1A54" stroke-width="1.5" stroke-miterlimit="10"/>
<path d="M99.5383 216.6C99.9092 216.6 100.272 216.483 100.58 216.263C100.888 216.043 101.129 215.731 101.271 215.365C101.413 215 101.45 214.598 101.377 214.21C101.305 213.822 101.126 213.466 100.864 213.186C100.602 212.906 100.268 212.716 99.9041 212.639C99.5404 212.561 99.1634 212.601 98.8208 212.752C98.4782 212.904 98.1854 213.16 97.9793 213.489C97.7733 213.818 97.6633 214.205 97.6633 214.6C97.6633 215.131 97.8609 215.639 98.2125 216.014C98.5641 216.389 99.041 216.6 99.5383 216.6Z" fill="white" stroke="#1F1A54" stroke-width="1.5" stroke-miterlimit="10"/>
<path d="M109.916 216.6C110.287 216.6 110.65 216.483 110.958 216.263C111.266 216.043 111.507 215.731 111.649 215.365C111.791 215 111.828 214.598 111.755 214.21C111.683 213.822 111.504 213.466 111.242 213.186C110.98 212.906 110.646 212.716 110.282 212.639C109.918 212.561 109.541 212.601 109.199 212.752C108.856 212.904 108.563 213.16 108.357 213.489C108.151 213.818 108.041 214.205 108.041 214.6C108.041 215.131 108.239 215.639 108.591 216.014C108.942 216.389 109.419 216.6 109.916 216.6Z" fill="white" stroke="#1F1A54" stroke-width="1.5" stroke-miterlimit="10"/>
<path d="M120.295 216.6C120.665 216.6 121.028 216.483 121.336 216.263C121.645 216.043 121.885 215.731 122.027 215.365C122.169 215 122.206 214.598 122.134 214.21C122.061 213.822 121.883 213.466 121.62 213.186C121.358 212.906 121.024 212.716 120.66 212.639C120.297 212.561 119.92 212.601 119.577 212.752C119.234 212.904 118.942 213.16 118.736 213.489C118.53 213.818 118.42 214.205 118.42 214.6C118.42 215.131 118.617 215.639 118.969 216.014C119.32 216.389 119.797 216.6 120.295 216.6Z" fill="white" stroke="#1F1A54" stroke-width="1.5" stroke-miterlimit="10"/>
<path d="M130.673 216.6C131.044 216.6 131.406 216.483 131.714 216.263C132.023 216.043 132.263 215.731 132.405 215.365C132.547 215 132.584 214.598 132.512 214.21C132.439 213.822 132.261 213.466 131.999 213.186C131.736 212.906 131.402 212.716 131.039 212.639C130.675 212.561 130.298 212.601 129.955 212.752C129.613 212.904 129.32 213.16 129.114 213.489C128.908 213.818 128.798 214.205 128.798 214.6C128.798 215.131 128.995 215.639 129.347 216.014C129.699 216.389 130.175 216.6 130.673 216.6Z" fill="white" stroke="#1F1A54" stroke-width="1.5" stroke-miterlimit="10"/>
<path d="M141.051 216.6C141.422 216.6 141.784 216.483 142.092 216.263C142.401 216.043 142.641 215.731 142.783 215.365C142.925 215 142.962 214.598 142.89 214.21C142.817 213.822 142.639 213.466 142.377 213.186C142.114 212.906 141.78 212.716 141.417 212.639C141.053 212.561 140.676 212.601 140.333 212.752C139.991 212.904 139.698 213.16 139.492 213.489C139.286 213.818 139.176 214.205 139.176 214.6C139.176 215.131 139.373 215.639 139.725 216.014C140.077 216.389 140.553 216.6 141.051 216.6Z" fill="white" stroke="#1F1A54" stroke-width="1.5" stroke-miterlimit="10"/>
<path d="M151.429 216.6C151.8 216.6 152.162 216.483 152.471 216.263C152.779 216.043 153.019 215.731 153.161 215.365C153.303 215 153.34 214.598 153.268 214.21C153.196 213.822 153.017 213.466 152.755 213.186C152.493 212.906 152.158 212.716 151.795 212.639C151.431 212.561 151.054 212.601 150.711 212.752C150.369 212.904 150.076 213.16 149.87 213.489C149.664 213.818 149.554 214.205 149.554 214.6C149.554 215.131 149.751 215.639 150.103 216.014C150.455 216.389 150.932 216.6 151.429 216.6Z" fill="white" stroke="#1F1A54" stroke-width="1.5" stroke-miterlimit="10"/>
<path d="M161.816 216.6C162.187 216.6 162.55 216.483 162.858 216.263C163.166 216.043 163.407 215.731 163.549 215.365C163.691 215 163.728 214.598 163.655 214.21C163.583 213.822 163.404 213.466 163.142 213.186C162.88 212.906 162.546 212.716 162.182 212.639C161.818 212.561 161.441 212.601 161.099 212.752C160.756 212.904 160.463 213.16 160.257 213.489C160.051 213.818 159.941 214.205 159.941 214.6C159.941 215.131 160.139 215.639 160.491 216.014C160.842 216.389 161.319 216.6 161.816 216.6Z" fill="white" stroke="#1F1A54" stroke-width="1.5" stroke-miterlimit="10"/>
<path d="M94.3164 227.65C94.6872 227.65 95.0498 227.533 95.3581 227.313C95.6664 227.093 95.9068 226.781 96.0487 226.415C96.1906 226.05 96.2277 225.648 96.1554 225.26C96.083 224.872 95.9045 224.515 95.6422 224.236C95.38 223.956 95.0459 223.766 94.6822 223.688C94.3185 223.611 93.9415 223.651 93.5989 223.802C93.2563 223.954 92.9634 224.21 92.7574 224.539C92.5514 224.868 92.4414 225.254 92.4414 225.65C92.4414 226.18 92.639 226.689 92.9906 227.064C93.3422 227.439 93.8191 227.65 94.3164 227.65Z" fill="white" stroke="#1F1A54" stroke-width="1.5" stroke-miterlimit="10"/>
<path d="M104.723 227.65C105.758 227.65 106.598 226.754 106.598 225.65C106.598 224.545 105.758 223.65 104.723 223.65C103.687 223.65 102.848 224.545 102.848 225.65C102.848 226.754 103.687 227.65 104.723 227.65Z" fill="white" stroke="#1F1A54" stroke-width="1.5" stroke-miterlimit="10"/>
<path d="M115.11 227.65C115.481 227.65 115.844 227.533 116.152 227.313C116.46 227.093 116.701 226.781 116.843 226.415C116.984 226.05 117.022 225.648 116.949 225.26C116.877 224.872 116.698 224.515 116.436 224.236C116.174 223.956 115.84 223.766 115.476 223.688C115.112 223.611 114.735 223.651 114.393 223.802C114.05 223.954 113.757 224.21 113.551 224.539C113.345 224.868 113.235 225.254 113.235 225.65C113.235 226.18 113.433 226.689 113.784 227.064C114.136 227.439 114.613 227.65 115.11 227.65Z" fill="white" stroke="#1F1A54" stroke-width="1.5" stroke-miterlimit="10"/>
<path d="M125.488 227.65C125.859 227.65 126.222 227.533 126.53 227.313C126.838 227.093 127.079 226.781 127.221 226.415C127.362 226.05 127.4 225.648 127.327 225.26C127.255 224.872 127.076 224.515 126.814 224.236C126.552 223.956 126.218 223.766 125.854 223.688C125.49 223.611 125.113 223.651 124.771 223.802C124.428 223.954 124.135 224.21 123.929 224.539C123.723 224.868 123.613 225.254 123.613 225.65C123.613 226.18 123.811 226.689 124.162 227.064C124.514 227.439 124.991 227.65 125.488 227.65Z" fill="white" stroke="#1F1A54" stroke-width="1.5" stroke-miterlimit="10"/>
<path d="M135.866 227.65C136.237 227.65 136.6 227.533 136.908 227.313C137.216 227.093 137.457 226.781 137.599 226.415C137.741 226.05 137.778 225.648 137.705 225.26C137.633 224.872 137.455 224.515 137.192 224.236C136.93 223.956 136.596 223.766 136.232 223.688C135.869 223.611 135.492 223.651 135.149 223.802C134.806 223.954 134.513 224.21 134.307 224.539C134.101 224.868 133.991 225.254 133.991 225.65C133.991 226.18 134.189 226.689 134.541 227.064C134.892 227.439 135.369 227.65 135.866 227.65Z" fill="white" stroke="#1F1A54" stroke-width="1.5" stroke-miterlimit="10"/>
<path d="M146.235 227.65C146.606 227.65 146.968 227.533 147.277 227.313C147.585 227.093 147.825 226.781 147.967 226.415C148.109 226.05 148.146 225.648 148.074 225.26C148.002 224.872 147.823 224.515 147.561 224.236C147.299 223.956 146.965 223.766 146.601 223.688C146.237 223.611 145.86 223.651 145.518 223.802C145.175 223.954 144.882 224.21 144.676 224.539C144.47 224.868 144.36 225.254 144.36 225.65C144.36 226.18 144.558 226.689 144.909 227.064C145.261 227.439 145.738 227.65 146.235 227.65Z" fill="white" stroke="#1F1A54" stroke-width="1.5" stroke-miterlimit="10"/>
<path d="M156.613 227.65C156.984 227.65 157.347 227.533 157.655 227.313C157.963 227.093 158.204 226.781 158.346 226.415C158.487 226.05 158.525 225.648 158.452 225.26C158.38 224.872 158.201 224.515 157.939 224.236C157.677 223.956 157.343 223.766 156.979 223.688C156.615 223.611 156.238 223.651 155.896 223.802C155.553 223.954 155.26 224.21 155.054 224.539C154.848 224.868 154.738 225.254 154.738 225.65C154.738 226.18 154.936 226.689 155.287 227.064C155.639 227.439 156.116 227.65 156.613 227.65Z" fill="white" stroke="#1F1A54" stroke-width="1.5" stroke-miterlimit="10"/>
</g>
<path d="M137.263 174.55L110.601 169.33" stroke="#FFD400" stroke-width="0.5" stroke-linecap="round" stroke-linejoin="round"/>
<path d="M110.123 199.84L135.276 200.23" stroke="#FFD400" stroke-width="0.5" stroke-linecap="round" stroke-linejoin="round"/>
<path d="M147.341 105.33C143.695 102.22 140.985 90.3299 140.985 76.0599C140.985 61.5399 143.798 49.4099 147.548 46.6099" stroke="#FFD400" stroke-width="0.5" stroke-linecap="round" stroke-linejoin="round"/>
<path d="M149.338 88.0601C149.17 89.4101 148.973 90.8001 148.729 92.2201" stroke="white" stroke-width="0.8" stroke-miterlimit="10" stroke-linecap="round"/>
<path d="M148.691 59.6602C150.138 67.5996 150.492 75.7218 149.741 83.7702" stroke="white" stroke-width="0.8" stroke-miterlimit="10" stroke-linecap="round"/>
<path d="M144.21 125C141.145 125.91 147.341 119.29 145.241 117.65C144.126 116.79 141.341 120.17 138.398 123.75L135.079 122.28C135.207 123.67 135.207 125.07 135.079 126.46C135.079 126.89 134.985 127.34 134.901 127.81C133.541 128.997 132.067 130.026 130.504 130.88C125.591 134.02 106.898 140.88 103.316 143.55C103.316 144.24 101.198 130.55 101.198 130.55L87.3039 132.48C87.3039 132.48 81.3227 110.59 85.4289 105.29C86.8851 103.691 88.5643 102.342 90.407 101.29C94.4059 98.9241 98.5282 96.8039 102.754 94.9399L104.366 100.6C104.999 102.762 106.337 104.611 108.138 105.811C109.939 107.011 112.084 107.482 114.183 107.14C116.282 106.798 118.197 105.664 119.58 103.945C120.962 102.226 121.722 100.035 121.72 97.7699C121.72 97.5699 121.72 97.3699 121.72 97.1699L121.616 95.4999L132.595 99.7299L136.466 101.22C137.701 101.697 138.862 102.372 139.907 103.22L150.332 110.87L144.604 124.9L144.21 125Z" fill="#FFD400"/>
<path d="M130.495 142.67C129.254 145.111 128.558 147.825 128.46 150.6C124.075 151.706 119.619 152.462 115.129 152.86C120.566 149.52 126.191 145.48 130.495 142.67Z" fill="#FFD400"/>
<path d="M122.441 71.8498C122.657 71.7937 122.884 71.8107 123.091 71.8985C123.297 71.9863 123.472 72.1405 123.593 72.3397C123.713 72.5389 123.772 72.7732 123.762 73.0099C123.752 73.2467 123.673 73.4741 123.536 73.6606C123.399 73.8472 123.21 73.9835 122.997 74.0506C122.784 74.1178 122.557 74.1125 122.347 74.0354C122.137 73.9583 121.954 73.8133 121.825 73.6205C121.696 73.4277 121.626 73.1968 121.626 72.9598C121.597 72.6974 121.666 72.4333 121.819 72.2253C121.972 72.0173 122.196 71.8823 122.441 71.8498Z" fill="#1F1A54"/>
<path d="M114.941 71.71C115.176 71.7686 115.385 71.9101 115.535 72.1116C115.685 72.3132 115.767 72.5628 115.767 72.82C115.767 73.0771 115.685 73.3268 115.535 73.5283C115.385 73.7298 115.176 73.8713 114.941 73.93C114.707 73.8713 114.497 73.7298 114.348 73.5283C114.198 73.3268 114.116 73.0771 114.116 72.82C114.116 72.5628 114.198 72.3132 114.348 72.1116C114.497 71.9101 114.707 71.7686 114.941 71.71Z" fill="#1F1A54"/>
<path d="M132.576 99.7101L121.598 95.4801L119.441 94.4801V89.9801H118.363C118.731 89.8817 119.091 89.7547 119.441 89.6001C120.266 89.2485 121.039 88.7737 121.738 88.1901C124.026 86.3301 125.648 83.0901 126.06 78.1901C126.306 73.8858 126.266 69.5683 125.938 65.2701C123.491 64.4401 119.713 59.6101 119.713 59.6101C118.25 62.4826 116.107 64.896 113.498 66.6101C110.781 68.2182 108.296 70.2356 106.12 72.6001C105.447 71.0121 104.248 69.7445 102.754 69.0401C100.588 68.0401 98.2071 69.9401 97.7289 73.0401L95.0289 72.6001C95.5263 68.7876 96.2528 65.0132 97.2039 61.3001C97.5762 60.1068 98.2089 59.0248 99.0499 58.1433C99.891 57.2619 100.916 56.6061 102.041 56.2301C106.588 47.8501 120.323 51.1801 127.635 58.7901C133.532 64.9201 130.288 95.9801 132.716 99.2901L132.576 99.7101Z" fill="#1F1A54"/>
<path d="M97.7664 73.0301C97.641 73.9069 97.66 74.8003 97.8227 75.6701C98.507 79.4501 101.357 81.4801 105.098 82.0601V93.9401L102.707 94.9401C98.4933 96.8185 94.3834 98.952 90.3977 101.33L90.2852 101.12C92.4414 91.7301 93.7445 81.1001 95.0289 72.6001L97.7664 73.0301Z" fill="#1F1A54"/>
<path d="M115.129 152.85C109.504 156.27 104.16 158.92 100.663 158.7C98.2633 158.55 96.0415 155.84 94.1008 152.21C101.062 153.307 108.12 153.522 115.129 152.85Z" fill="white"/>
<path d="M122.441 71.85C122.225 71.796 121.999 71.8151 121.794 71.9045C121.588 71.994 121.414 72.1494 121.295 72.3493C121.176 72.5491 121.119 72.7834 121.13 73.0198C121.142 73.2561 121.222 73.4827 121.36 73.6681C121.498 73.8536 121.687 73.9887 121.9 74.0547C122.113 74.1207 122.34 74.1143 122.549 74.0365C122.759 73.9587 122.94 73.8132 123.069 73.6203C123.197 73.4274 123.266 73.1966 123.266 72.96C123.281 72.8293 123.271 72.6968 123.237 72.5702C123.203 72.4437 123.147 72.3254 123.07 72.2223C122.993 72.1192 122.898 72.0332 122.79 71.9693C122.683 71.9054 122.564 71.8649 122.441 71.85ZM114.941 71.71C114.725 71.656 114.499 71.6751 114.294 71.7645C114.088 71.854 113.914 72.0094 113.795 72.2093C113.676 72.4091 113.619 72.6434 113.63 72.8798C113.642 73.1161 113.722 73.3427 113.86 73.5281C113.998 73.7136 114.187 73.8487 114.4 73.9147C114.613 73.9807 114.84 73.9743 115.049 73.8965C115.259 73.8187 115.44 73.6732 115.569 73.4803C115.697 73.2874 115.766 73.0566 115.766 72.82C115.781 72.6893 115.771 72.5568 115.737 72.4302C115.703 72.3037 115.647 72.1854 115.57 72.0823C115.493 71.9792 115.398 71.8932 115.29 71.8293C115.183 71.7654 115.064 71.7249 114.941 71.71ZM113.16 107.21C111.219 107.285 109.307 106.679 107.719 105.485C106.131 104.292 104.953 102.576 104.366 100.6L102.754 94.94L105.145 93.94V82.06C101.395 81.48 98.5821 79.45 97.8696 75.67C97.7069 74.8002 97.6879 73.9067 97.8133 73.03C98.2914 69.94 100.673 68.08 102.838 69.03C104.303 69.7547 105.469 71.0239 106.12 72.6C108.303 70.2708 110.787 68.2874 113.498 66.71C116.107 64.9959 118.25 62.5824 119.713 59.71C119.713 59.71 123.463 64.54 125.938 65.37C126.266 69.6681 126.306 73.9856 126.06 78.29C125.648 83.16 124.026 86.4 121.738 88.29C121.034 88.8385 120.26 89.2794 119.441 89.6C119.091 89.7444 118.73 89.8613 118.363 89.95H119.441V94.45L121.598 95.45L121.701 97.12C121.701 97.32 121.701 97.52 121.701 97.72C121.707 100.174 120.821 102.535 119.227 104.305C117.634 106.075 115.459 107.117 113.16 107.21Z" fill="white"/>
<path d="M130.495 142.67C129.254 145.111 128.558 147.825 128.46 150.6" stroke="#1F1A54" stroke-width="0.8" stroke-linecap="round" stroke-linejoin="round"/>
<path d="M133.326 115.83C134.291 117.841 134.886 120.03 135.079 122.28C135.207 123.67 135.207 125.07 135.079 126.46C135.079 126.89 134.985 127.34 134.901 127.81" stroke="#1F1A54" stroke-width="0.8" stroke-linecap="round" stroke-linejoin="round"/>
<path d="M113.498 69.5199C113.981 69.1979 114.541 69.0312 115.11 69.0399C115.72 69.0297 116.317 69.2257 116.816 69.5999" stroke="#1F1A54" stroke-width="0.8" stroke-linecap="round" stroke-linejoin="round"/>
<path d="M120.566 69.5198C121.053 69.1975 121.616 69.0309 122.188 69.0398C122.814 69.021 123.429 69.2173 123.941 69.5998" stroke="#1F1A54" stroke-width="0.8" stroke-linecap="round" stroke-linejoin="round"/>
<path d="M112.185 79.4502C112.427 80.3743 112.906 81.2077 113.569 81.8563C114.232 82.5049 115.051 82.9427 115.935 83.1202" stroke="#1F1A54" stroke-width="0.8" stroke-linecap="round" stroke-linejoin="round"/>
<path d="M117.538 77.9399C117.873 78.1291 118.247 78.228 118.626 78.228C119.005 78.228 119.378 78.1291 119.713 77.9399" stroke="#1F1A54" stroke-width="0.8" stroke-linecap="round" stroke-linejoin="round"/>
<path d="M101.432 72.96C101.432 72.96 103.673 73.32 104.01 77.08" stroke="#1F1A54" stroke-width="0.8" stroke-miterlimit="10" stroke-linecap="round"/>
<path d="M105.098 82.0498V93.9398L102.707 94.9398" stroke="#1F1A54" stroke-width="0.8" stroke-linecap="round" stroke-linejoin="round"/>
<path d="M119.441 90.0098V94.5098L121.598 95.4798" stroke="#1F1A54" stroke-width="0.8" stroke-linecap="round" stroke-linejoin="round"/>
<path d="M138.398 123.75L135.079 122.28" stroke="#1F1A54" stroke-width="0.8" stroke-linecap="round" stroke-linejoin="round"/>
<path d="M87.3039 132.48C87.3039 132.48 81.3227 110.59 85.4289 105.29C86.8851 103.691 88.5643 102.342 90.407 101.29C94.4059 98.9241 98.5282 96.8039 102.754 94.9399L104.366 100.6C104.999 102.762 106.337 104.611 108.138 105.811C109.939 107.011 112.084 107.482 114.183 107.14C116.282 106.798 118.197 105.664 119.58 103.945C120.962 102.226 121.722 100.035 121.72 97.7699C121.72 97.5699 121.72 97.3699 121.72 97.1699L121.616 95.4999L132.595 99.7299L136.466 101.22C137.701 101.697 138.862 102.372 139.907 103.22L150.332 110.87L144.604 124.9" stroke="#1F1A54" stroke-width="0.8" stroke-linecap="round" stroke-linejoin="round"/>
<path d="M99.6884 120.45L101.245 130.57" stroke="#1F1A54" stroke-width="0.8" stroke-linecap="round" stroke-linejoin="round"/>
<path d="M106.391 73.27C106.314 73.0311 106.223 72.7973 106.12 72.57C105.441 70.9933 104.243 69.7371 102.754 69.04C100.588 68.04 98.2071 69.94 97.729 73.04C97.6035 73.9168 97.6226 74.8102 97.7852 75.68C98.4696 79.46 101.32 81.49 105.06 82.07" stroke="#1F1A54" stroke-width="0.8" stroke-linecap="round" stroke-linejoin="round"/>
<path d="M90.2852 101.12C92.4414 91.7301 93.7445 81.1001 95.0289 72.6001C95.5263 68.7876 96.2528 65.0132 97.2039 61.3001C97.5762 60.1068 98.2089 59.0248 99.0499 58.1433C99.8909 57.2619 100.916 56.6061 102.041 56.2301C106.588 47.8501 120.323 51.1801 127.635 58.7901C133.532 64.9201 130.288 95.9801 132.716 99.2901" stroke="#1F1A54" stroke-width="0.8" stroke-linecap="round" stroke-linejoin="round"/>
<path d="M106.12 72.6C108.303 70.2708 110.787 68.2874 113.498 66.71C116.107 64.9959 118.25 62.5824 119.713 59.71C119.713 59.71 123.463 64.54 125.938 65.37" stroke="#1F1A54" stroke-width="0.8" stroke-linecap="round" stroke-linejoin="round"/>
<path d="M125.938 65.3301C126.266 69.6282 126.306 73.9458 126.06 78.2501C125.648 83.1201 124.026 86.3601 121.738 88.2501C121.036 88.8126 120.263 89.2671 119.441 89.6001C119.091 89.7445 118.73 89.8615 118.363 89.9501C117.355 90.1721 116.315 90.1721 115.307 89.9501L114.941 89.9401C113.294 89.5731 111.775 88.7248 110.554 87.4901" stroke="#1F1A54" stroke-width="0.8" stroke-linecap="round" stroke-linejoin="round"/>
<path d="M115.129 152.85C119.619 152.455 124.075 151.703 128.46 150.6" stroke="#1F1A54" stroke-width="0.8" stroke-linecap="round" stroke-linejoin="round"/>
<path d="M93.6227 152.12L94.1196 152.21" stroke="#1F1A54" stroke-width="0.8" stroke-linecap="round" stroke-linejoin="round"/>
<path d="M149.451 144.65H145.241L146.179 106.13H148.513L149.451 144.65Z" fill="#1F1A54" stroke="#1F1A54" stroke-width="0.8" stroke-linecap="round" stroke-linejoin="round"/>
<path d="M134.948 127.81C135.16 127.59 135.376 127.36 135.595 127.12C136.532 126.12 137.47 124.9 138.407 123.75L144.032 126.26L144.585 124.9C146.394 124.525 148.239 124.387 150.079 124.49C151.748 124.72 152.46 125.65 152.451 126.49C152.445 126.769 152.375 127.042 152.247 127.286C152.12 127.53 151.939 127.737 151.72 127.89C151.72 127.89 152.845 128.48 152.92 129.4C152.96 129.669 152.939 129.944 152.857 130.202C152.776 130.46 152.636 130.693 152.451 130.88C152.687 131.332 152.81 131.842 152.807 132.36C152.822 132.701 152.757 133.04 152.618 133.348C152.479 133.655 152.27 133.921 152.01 134.12C152.01 134.12 152.207 134.12 152.207 135.12C152.207 139.19 143.226 138.75 143.226 138.75C139.701 138.89 136.598 139.31 136.598 139.31C134.43 140.156 132.37 141.288 130.466 142.68C126.191 145.48 120.566 149.52 115.129 152.85C108.127 153.52 101.075 153.305 94.1196 152.21C90.0133 144.44 87.304 132.48 87.304 132.48L101.245 130.6C101.245 130.6 103.363 144.27 103.363 143.6C106.935 140.98 125.629 134.07 130.551 130.93C132.116 130.06 133.59 129.014 134.948 127.81Z" fill="white"/>
<path d="M145.241 117.65C147.341 119.29 141.145 125.91 144.21 125L144.604 124.9L144.051 126.26L138.426 123.75C141.341 120.17 144.126 116.79 145.241 117.65Z" fill="white"/>
<path d="M150.435 131.45C151.148 131.526 151.862 131.32 152.441 130.87C152.627 130.683 152.766 130.45 152.848 130.192C152.93 129.934 152.951 129.659 152.91 129.39C152.835 128.47 151.71 127.88 151.71 127.88" stroke="#1F1A54" stroke-width="0.8" stroke-linecap="round" stroke-linejoin="round"/>
<path d="M150.098 134.78C150.791 134.764 151.464 134.535 152.038 134.12C152.298 133.92 152.507 133.655 152.646 133.348C152.785 133.04 152.85 132.701 152.835 132.36C152.827 131.838 152.691 131.328 152.441 130.88" stroke="#1F1A54" stroke-width="0.8" stroke-linecap="round" stroke-linejoin="round"/>
<path d="M150.098 128.6C150.684 128.501 151.243 128.269 151.738 127.92V127.92C151.958 127.767 152.139 127.56 152.266 127.316C152.394 127.072 152.463 126.799 152.47 126.52C152.47 125.7 151.766 124.77 150.098 124.52C148.258 124.417 146.413 124.555 144.604 124.93L144.21 125.03C141.145 125.94 147.341 119.32 145.241 117.68C144.126 116.82 141.341 120.2 138.398 123.78C137.46 124.93 136.523 126.1 135.585 127.15C135.373 127.39 135.157 127.62 134.938 127.84C133.579 129.026 132.105 130.056 130.541 130.91C125.629 134.05 106.935 140.91 103.354 143.58C103.354 144.27 101.235 130.58 101.235 130.58L87.304 132.48C87.304 132.48 90.0133 144.48 94.1196 152.21C96.0415 155.84 98.2633 158.55 100.682 158.7C104.179 158.92 109.56 156.27 115.148 152.85C120.566 149.52 126.191 145.48 130.495 142.67C132.398 141.278 134.458 140.146 136.626 139.3C136.626 139.3 139.729 138.88 143.254 138.74C143.254 138.74 152.235 139.18 152.235 135.11C152.235 134.17 152.076 134.11 152.038 134.11" stroke="#1F1A54" stroke-width="0.8" stroke-linecap="round" stroke-linejoin="round"/>
</svg>
