<svg width="375" height="300" viewBox="0 0 375 300" fill="none" xmlns="http://www.w3.org/2000/svg">
<g clip-path="url(#clip0)">
<path d="M276.5 245.2C274.9 245.2 273.3 245.1 271.7 244.9H271.6C271.4 244.9 271.2 244.8 271 244.8C270.6 244.7 270.2 244.3 270.2 243.9V243.8C270.3 243.3 270.7 242.9 271.2 243C271.4 243 271.5 243 271.7 243.1H271.9C273.4 243.3 275 243.4 276.5 243.4C276.9 243.4 277.2 243.4 277.5 243.4C278 243.4 278.4 243.8 278.4 244.3C278.4 244.8 278 245.2 277.5 245.2C277.3 245.2 276.9 245.2 276.5 245.2ZM284 244.5C283.6 244.5 283.2 244.2 283.1 243.8C283.1 243.7 283.1 243.7 283.1 243.6C283.1 243.2 283.4 242.8 283.8 242.7C283.8 242.7 283.8 242.7 283.9 242.7C285.8 242.3 287.9 241.8 289.9 241.1C290.4 240.9 290.9 241.2 291.1 241.7C291.1 241.8 291.1 241.9 291.1 242C291.1 242.4 290.9 242.7 290.6 242.8H290.5C290.5 242.8 290.5 242.8 290.4 242.8C288.3 243.5 286.2 244.1 284.1 244.5H284C284 244.5 284.1 244.5 284 244.5ZM264.8 243.5C264.7 243.5 264.7 243.5 264.6 243.5H264.5C262.3 242.9 260.2 242.2 258.3 241.4C258 241.2 257.7 240.9 257.7 240.6C257.7 240.5 257.7 240.4 257.8 240.2C258 239.7 258.6 239.5 259 239.7C260.8 240.5 262.8 241.1 265 241.7C265.4 241.8 265.7 242.2 265.7 242.6C265.7 242.7 265.7 242.7 265.7 242.8C265.6 243.2 265.2 243.5 264.8 243.5ZM296.2 240.4C295.8 240.4 295.5 240.2 295.4 239.9C295.4 239.8 295.3 239.6 295.3 239.5C295.3 239.1 295.5 238.8 295.8 238.7C297.7 237.9 299.6 236.9 301.5 235.8C301.9 235.6 302.5 235.7 302.7 236.2C302.8 236.3 302.8 236.5 302.8 236.6C302.8 236.9 302.6 237.2 302.3 237.4C300.3 238.5 298.4 239.5 296.5 240.3C296.5 240.4 296.3 240.4 296.2 240.4ZM253.1 238.4C252.9 238.4 252.7 238.3 252.6 238.2C250.7 236.9 249.1 235.3 247.9 233.6L247.8 233.5C247.7 233.3 247.6 233.2 247.6 232.9C247.6 232.6 247.7 232.3 248 232.2C248.4 231.9 249 232 249.3 232.4C250.5 234 251.9 235.4 253.6 236.7C253.6 236.7 253.6 236.7 253.7 236.7C253.9 236.9 254 237.1 254 237.4C254 237.6 253.9 237.8 253.8 238C253.7 238.2 253.4 238.4 253.1 238.4ZM307.5 234.3C307.2 234.3 306.9 234.1 306.7 233.9C306.6 233.8 306.5 233.6 306.5 233.4C306.5 233.1 306.7 232.8 306.9 232.6C308.6 231.5 310.4 230.3 312.2 229.1C312.6 228.8 313.2 228.9 313.5 229.3C313.6 229.5 313.7 229.6 313.7 229.8C313.7 230.1 313.6 230.4 313.3 230.6C311.5 231.9 309.7 233.1 307.9 234.2C307.9 234.2 307.7 234.3 307.5 234.3ZM248.3 229.5C246.6 229.5 244.7 229.4 242.7 229.2C242.2 229.2 241.9 228.8 241.9 228.3V228.2C241.9 227.7 242.4 227.3 242.9 227.4C243.5 227.5 244.2 227.5 244.7 227.6C244.7 227.6 244.7 227.6 244.7 227.5C244.2 225.8 243.9 224.2 243.9 222.7C243.9 222.1 243.9 221.4 244.1 220.7C244.2 220.2 244.7 219.9 245.1 219.9C245.6 220 245.9 220.4 245.9 220.8V220.9C245.8 221.4 245.8 222 245.8 222.6C245.8 224 246 225.4 246.5 226.9C246.5 227 246.5 227.1 246.5 227.2C246.5 227.4 246.5 227.5 246.4 227.7C247.4 227.8 248.2 227.8 249.2 227.7C249.7 227.7 250.1 228.1 250.1 228.6C250.1 229.1 249.7 229.5 249.2 229.6C249 229.5 248.6 229.5 248.3 229.5ZM255.7 228.6C255.3 228.6 254.9 228.4 254.8 228C254.8 227.9 254.8 227.8 254.8 227.7C254.8 227.3 255 226.9 255.4 226.8C256.9 226.3 258.1 225.7 259 224.8C259.5 224.4 259.9 224 260.2 223.5C260.5 223.1 261.1 223.1 261.5 223.4C261.7 223.6 261.8 223.8 261.8 224.1C261.8 224.3 261.7 224.5 261.6 224.7C261.2 225.2 260.7 225.7 260.2 226.1C259.1 227.1 257.7 227.9 256 228.5H255.9C255.8 228.6 255.8 228.6 255.7 228.6ZM236.5 228.3C236.4 228.3 236.4 228.3 236.3 228.3C234.3 227.9 232.3 227.5 229.9 227C229.5 226.9 229.2 226.5 229.2 226.1C229.2 226 229.2 225.9 229.2 225.9C229.3 225.4 229.8 225.1 230.3 225.2C232.5 225.7 234.6 226.2 236.5 226.5C236.9 226.6 237.3 227 237.3 227.4C237.3 227.5 237.3 227.5 237.3 227.6C237.3 227.9 236.9 228.3 236.5 228.3ZM318.1 226.9C317.8 226.9 317.5 226.8 317.4 226.5C317.3 226.3 317.2 226.1 317.2 226C317.2 225.7 317.3 225.4 317.6 225.3C318.2 224.9 318.7 224.4 319.3 224C319.9 223.5 320.5 223 321.2 222.5C321.7 222.1 322.2 221.7 322.7 221.3C323.1 221 323.7 221.1 324 221.5C324.1 221.7 324.2 221.8 324.2 222C324.2 222.3 324.1 222.6 323.8 222.7L322.6 223.6C321.8 224.2 321.1 224.8 320.4 225.3L319.9 225.6C319.5 225.9 319.1 226.2 318.6 226.6C318.5 226.8 318.3 226.9 318.1 226.9ZM223.9 225.3C223.8 225.3 223.7 225.3 223.7 225.3C221.7 224.8 219.6 224.2 217.5 223.5C217.1 223.4 216.8 223 216.8 222.6C216.8 222.5 216.8 222.4 216.8 222.3C216.9 221.8 217.5 221.5 217.9 221.7C220.1 222.4 222.2 222.9 224.1 223.5C224.5 223.6 224.8 224 224.8 224.4C224.8 224.5 224.8 224.6 224.8 224.6C224.7 225.1 224.3 225.3 223.9 225.3ZM211.5 221.7C211.4 221.7 211.3 221.7 211.2 221.7C209.2 221.1 207.1 220.4 205 219.7C204.6 219.6 204.4 219.2 204.4 218.8C204.4 218.7 204.4 218.6 204.4 218.5C204.6 218 205.1 217.8 205.6 217.9C207.7 218.6 209.8 219.3 211.7 219.9C212.1 220 212.4 220.4 212.4 220.8C212.4 220.9 212.4 221 212.4 221.1C212.2 221.5 211.9 221.7 211.5 221.7ZM263 219.1C262.5 219.1 262.1 218.8 262.1 218.3C262 217.7 261.9 217.1 261.6 216.4C261.3 215.5 260.3 214.5 259.1 213.9C258.8 213.7 258.6 213.4 258.6 213.1C258.6 212.9 258.6 212.8 258.7 212.6C258.9 212.2 259.5 212 260 212.3C261.6 213.2 262.8 214.5 263.3 215.8C263.6 216.6 263.8 217.4 263.9 218.2V218.3C263.9 218.6 263.5 219 263 219.1ZM328.3 219C328 219 327.7 218.9 327.6 218.6C327.5 218.4 327.4 218.2 327.4 218.1C327.4 217.9 327.5 217.6 327.7 217.4L327.8 217.3C329.5 216 331.2 214.7 332.9 213.4C333.3 213.1 333.9 213.2 334.2 213.6C334.3 213.8 334.4 213.9 334.4 214.1C334.4 214.4 334.3 214.7 334 214.8L333.5 215.2C331.9 216.4 330.4 217.6 328.9 218.7C328.7 218.9 328.5 219 328.3 219ZM199.2 217.7C199.1 217.7 199 217.7 198.9 217.7C196.8 217 194.8 216.3 192.8 215.6C192.4 215.5 192.2 215.1 192.2 214.7C192.2 214.6 192.2 214.5 192.3 214.4C192.5 213.9 193 213.7 193.5 213.8C195.7 214.6 197.7 215.3 199.6 215.9C200 216 200.2 216.4 200.2 216.8C200.2 216.9 200.2 217 200.2 217.1C200 217.4 199.6 217.7 199.2 217.7ZM247.8 216C247.6 216 247.3 215.9 247.2 215.8C247 215.6 246.9 215.4 246.9 215.1C246.9 214.9 247 214.6 247.1 214.5C248.1 213.5 249.2 212.6 250.6 211.9C251.4 211.5 252.3 211.2 253.1 211C253.6 210.9 254.1 211.2 254.2 211.7C254.2 211.8 254.2 211.8 254.2 211.9C254.2 212.3 253.9 212.7 253.4 212.8C252.7 212.9 252 213.2 251.4 213.5C250.3 214.1 249.3 214.8 248.5 215.7C248.3 215.9 248.1 216 247.8 216ZM187 213.5C186.9 213.5 186.8 213.5 186.8 213.5H186.7C184.7 212.8 182.7 212.1 180.7 211.4C180.3 211.3 180.1 210.9 180.1 210.5C180.1 210.4 180.1 210.3 180.2 210.2C180.4 209.7 180.9 209.5 181.4 209.7C183.5 210.4 185.5 211.2 187.5 211.9C187.9 212 188.1 212.4 188.1 212.8C188.1 212.9 188.1 213 188.1 213.1C187.8 213.2 187.4 213.5 187 213.5ZM338.5 211.1C338.2 211.1 337.9 211 337.8 210.7C337.7 210.5 337.6 210.3 337.6 210.1C337.6 209.8 337.7 209.5 338 209.4C340 207.9 341.6 206.6 343.1 205.5C343.5 205.2 344.1 205.3 344.4 205.7C344.5 205.9 344.6 206.1 344.6 206.3C344.6 206.6 344.5 206.9 344.2 207C342.3 208.4 340.4 209.8 339.1 210.9C338.9 211 338.8 211.1 338.5 211.1ZM174.8 209.1C174.7 209.1 174.6 209.1 174.5 209C172.5 208.3 170.5 207.5 168.4 206.8C168 206.7 167.8 206.3 167.8 205.9C167.8 205.8 167.8 205.7 167.9 205.6C168.1 205.1 168.6 204.9 169.1 205.1L169.9 205.4C171.7 206 173.4 206.7 175.1 207.3C175.5 207.4 175.7 207.8 175.7 208.2C175.7 208.3 175.7 208.4 175.7 208.5C175.6 208.9 175.2 209.1 174.8 209.1ZM162.7 204.7C162.6 204.7 162.5 204.7 162.4 204.6L160.3 203.8C159 203.3 157.7 202.8 156.4 202.4C156 202.3 155.8 201.9 155.8 201.5C155.8 201.4 155.8 201.3 155.8 201.2C156 200.7 156.5 200.5 157 200.6C159 201.3 161.1 202.1 163.1 202.8C163.5 202.9 163.7 203.3 163.7 203.7C163.7 203.8 163.7 203.9 163.7 204C163.4 204.5 163.1 204.7 162.7 204.7ZM348.9 203.3C348.6 203.3 348.3 203.2 348.2 202.9C348.1 202.7 348 202.5 348 202.4C348 202.1 348.1 201.8 348.4 201.7C349.8 200.7 351.7 199.3 353.6 197.9L353.7 197.8C354.1 197.6 354.6 197.7 354.9 198C355 198.2 355.1 198.4 355.1 198.6C355.1 198.9 355 199.2 354.7 199.3C352.9 200.6 351.1 201.9 349.5 203.1L349.4 203.2C349.2 203.3 349 203.3 348.9 203.3ZM150.5 200.3C150.4 200.3 150.3 200.3 150.2 200.3C147.9 199.5 146 198.8 144.2 198.1C143.8 198 143.6 197.6 143.6 197.2C143.6 197.1 143.6 197 143.7 196.9C143.9 196.4 144.4 196.2 144.9 196.4C147.2 197.2 149.2 197.9 151 198.6C151.4 198.7 151.6 199.1 151.6 199.5C151.6 199.6 151.6 199.7 151.5 199.8C151.3 200.1 150.9 200.3 150.5 200.3ZM138.4 196C138.3 196 138.2 196 138.1 196C136.3 195.3 134.3 194.6 132 193.9C131.6 193.8 131.4 193.4 131.4 193.1C131.4 193 131.4 192.9 131.4 192.8C131.6 192.3 132.1 192.1 132.6 192.2C134.9 193 136.9 193.7 138.7 194.3C139.1 194.4 139.3 194.8 139.3 195.2C139.3 195.3 139.3 195.4 139.3 195.5C139.1 195.7 138.8 196 138.4 196ZM359.3 195.7C359 195.7 358.7 195.6 358.5 195.3C358.4 195.1 358.3 195 358.3 194.8C358.3 194.5 358.4 194.2 358.7 194.1C360.5 192.8 362.3 191.6 364 190.4C364.4 190.1 365 190.2 365.3 190.6C365.4 190.7 365.5 190.9 365.5 191.1C365.5 191.4 365.3 191.7 365.1 191.9C363.2 193.3 361.4 194.5 359.8 195.6C359.7 195.7 359.5 195.7 359.3 195.7ZM126.2 191.8C126.1 191.8 126 191.8 125.9 191.8C124 191.1 122 190.5 119.8 189.7C119.4 189.6 119.2 189.2 119.2 188.8C119.2 188.7 119.2 188.6 119.2 188.5C119.4 188 119.9 187.8 120.4 187.9C122.2 188.5 124.2 189.2 126.5 190C126.9 190.1 127.1 190.5 127.1 190.9C127.1 191 127.1 191.1 127.1 191.2C126.9 191.5 126.6 191.8 126.2 191.8ZM375 185.1C373.5 186.1 372 187.1 370.4 188.2H370.3C370.2 188.3 370 188.3 369.9 188.3C369.6 188.3 369.3 188.1 369.1 187.9C369 187.7 368.9 187.6 368.9 187.4C368.9 187.1 369 186.8 369.3 186.7C369.3 186.7 369.3 186.7 369.4 186.7C371.1 185.5 372.8 184.4 374.5 183.3C374.7 183.2 374.8 183.2 375 183.2V185.1ZM113.9 187.7C113.8 187.7 113.7 187.7 113.7 187.7H113.6C113.6 187.7 113.6 187.7 113.5 187.7C111.5 187.1 109.5 186.4 107.4 185.7C107 185.6 106.7 185.2 106.8 184.8C106.8 184.7 106.8 184.6 106.8 184.5C106.9 184 107.5 183.7 108 183.9C110 184.5 112.1 185.2 114.1 185.9C114.1 185.9 114.1 185.9 114.2 185.9C114.6 186 114.8 186.4 114.8 186.8C114.8 186.9 114.8 187 114.8 187.1C114.7 187.4 114.3 187.7 113.9 187.7ZM101.6 183.8C101.5 183.8 101.4 183.8 101.3 183.8C99.2 183.2 97.1 182.5 95.1 181.9C94.7 181.8 94.5 181.4 94.4 181C94.4 180.9 94.4 180.8 94.4 180.7C94.5 180.2 95.1 179.9 95.6 180.1C97.8 180.8 99.8 181.4 101.8 182C102.2 182.1 102.4 182.5 102.4 182.9C102.4 183 102.4 183.1 102.4 183.2C102.4 183.5 102 183.8 101.6 183.8ZM89.2 180.1C89.1 180.1 89 180.1 89 180.1C86.9 179.5 84.8 178.9 82.8 178.4C82.4 178.3 82.1 177.9 82.1 177.5C82.1 177.4 82.1 177.3 82.1 177.3C82.2 176.8 82.7 176.5 83.2 176.6C85.2 177.1 87.2 177.7 89.4 178.3C89.8 178.4 90.1 178.8 90.1 179.2C90.1 179.3 90.1 179.4 90.1 179.4C90 179.8 89.7 180.1 89.2 180.1ZM76.8 176.8C76.7 176.8 76.6 176.8 76.6 176.8C74.6 176.3 72.6 175.8 70.4 175.3C70 175.2 69.7 174.8 69.7 174.4C69.7 174.3 69.7 174.2 69.7 174.2C69.8 173.7 70.3 173.4 70.8 173.5C72.8 174 75 174.5 77.1 175C77.5 175.1 77.8 175.5 77.8 175.9C77.8 176 77.8 176.1 77.8 176.1C77.6 176.5 77.2 176.8 76.8 176.8ZM64.2 173.8C64.1 173.8 64.1 173.8 64 173.8C61.9 173.3 59.8 172.9 57.7 172.5C57.3 172.4 56.9 172 56.9 171.6C56.9 171.5 56.9 171.5 56.9 171.4C57 170.9 57.5 170.6 58 170.7C60.1 171.1 62.2 171.5 64.4 172C64.8 172.1 65.1 172.5 65.1 172.9C65.1 173 65.1 173 65.1 173.1C65 173.5 64.6 173.8 64.2 173.8ZM51.5 171.4H51.4C49.3 171.1 47.1 170.7 45 170.4C44.6 170.3 44.3 169.9 44.2 169.5V169.4C44.3 168.9 44.7 168.6 45.2 168.6C47.3 168.9 49.4 169.2 51.6 169.6C52 169.7 52.4 170.1 52.4 170.5C52.4 170.6 52.4 170.6 52.4 170.6C52.4 171.1 52 171.4 51.5 171.4ZM38.7 169.6C36.4 169.4 34.3 169.2 32.3 169.1H32.2C31.7 169.1 31.3 168.6 31.3 168.2C31.3 167.7 31.8 167.3 32.3 167.3C34.4 167.4 36.5 167.6 38.8 167.8C39.3 167.9 39.6 168.2 39.6 168.7V168.8C39.6 169.3 39.2 169.6 38.7 169.6ZM2.44156e-05 167.4C0.100024 167.4 0.100024 167.4 2.44156e-05 167.4C0.500024 167.4 1.00002 167.8 1.00002 168.3C1.00002 168.8 0.600024 169.3 0.100024 169.3C0.100024 169.3 0.100024 169.3 2.44156e-05 169.3C2.44156e-05 169.3 2.44156e-05 169.3 -0.0999756 169.3L2.44156e-05 167.4ZM6.50002 168.9C6.00002 168.9 5.60002 168.5 5.60002 168C5.60002 168 5.60002 168 5.60002 167.9C5.60002 167.4 6.00002 167 6.50002 167C8.60002 166.9 10.8 166.8 13 166.8C13.5 166.8 13.9 167.2 13.9 167.7C13.9 168.2 13.5 168.6 13 168.6C10.9 168.7 8.80002 168.8 6.50002 168.9ZM25.9 168.8C23.8 168.7 21.7 168.7 19.6 168.7H19.5C19 168.7 18.6 168.3 18.6 167.8C18.6 167.3 19 166.9 19.5 166.9C21.7 166.9 23.9 167 26 167C26.5 167 26.9 167.4 26.9 167.9C26.8 168.4 26.4 168.8 25.9 168.8Z" fill="white"/>
<path d="M115 269.6C146.48 269.6 172 268.212 172 266.5C172 264.788 146.48 263.4 115 263.4C83.5198 263.4 58 264.788 58 266.5C58 268.212 83.5198 269.6 115 269.6Z" fill="#FFEB86"/>
<path d="M258.6 132.8H219C217 132.8 215.3 131.1 215.3 129.1V80.2C215.3 78.2 217 76.5 219 76.5H258.6C260.6 76.5 262.3 78.2 262.3 80.2V129.1C262.3 131.2 260.6 132.8 258.6 132.8Z" fill="#FFD400"/>
<path d="M258.6 133.2H219C216.8 133.2 214.9 131.4 214.9 129.1V80.2001C214.9 78.0001 216.7 76.1001 219 76.1001H258.6C260.8 76.1001 262.7 77.9001 262.7 80.2001V129.1C262.7 131.4 260.8 133.2 258.6 133.2ZM219 76.9001C217.2 76.9001 215.7 78.4001 215.7 80.2001V129.1C215.7 130.9 217.2 132.4 219 132.4H258.6C260.4 132.4 261.9 130.9 261.9 129.1V80.2001C261.9 78.4001 260.4 76.9001 258.6 76.9001H219Z" fill="#1F1A54"/>
<path d="M253.2 119.2H224.4C224.2 119.2 224 119 224 118.8C224 118.6 224.2 118.4 224.4 118.4H253.2C253.4 118.4 253.6 118.6 253.6 118.8C253.6 119 253.4 119.2 253.2 119.2Z" fill="#1F1A54"/>
<path d="M241 123.7H224.4C224.2 123.7 224 123.5 224 123.3C224 123.1 224.2 122.9 224.4 122.9H241C241.2 122.9 241.4 123.1 241.4 123.3C241.4 123.5 241.2 123.7 241 123.7Z" fill="#1F1A54"/>
<path d="M253.3 123.7H247.4C247.2 123.7 247 123.5 247 123.3C247 123.1 247.2 122.9 247.4 122.9H253.3C253.5 122.9 253.7 123.1 253.7 123.3C253.7 123.5 253.5 123.7 253.3 123.7Z" fill="#1F1A54"/>
<path d="M248.4 112.2H229.3C227.3 112.2 225.8 110.2 226.2 108.1L229 93.9001C229.1 93.1001 229.8 92.6001 230.5 92.6001H247.2C247.9 92.6001 248.6 93.1001 248.7 93.9001L251.5 108.1C251.8 110.3 250.3 112.2 248.4 112.2Z" fill="white"/>
<path d="M248.4 112.6H229.3C228.3 112.6 227.3 112.1 226.7 111.3C226 110.4 225.7 109.2 225.9 108.1L228.7 93.9003C228.9 93.0003 229.7 92.3003 230.6 92.3003H247.3C248.2 92.3003 249 93.0003 249.2 93.9003L252 108.1C252.2 109.3 251.9 110.4 251.2 111.3C250.3 112.1 249.4 112.6 248.4 112.6ZM230.4 93.0003C229.9 93.0003 229.4 93.4003 229.3 94.0003L226.5 108.2C226.3 109.1 226.6 110.1 227.1 110.8C227.6 111.4 228.4 111.8 229.2 111.8H248.3C249.1 111.8 249.8 111.4 250.4 110.8C251 110.1 251.2 109.1 251 108.2L248.3 94.0003C248.2 93.4003 247.7 93.0003 247.2 93.0003H230.4Z" fill="#1F1A54"/>
<path d="M240.4 104.9H237.1C235.4 104.9 234 103.5 234 101.8V100H243.4V101.8C243.5 103.5 242.1 104.9 240.4 104.9Z" fill="white"/>
<path d="M240.4 105.3H237.1C235.2 105.3 233.6 103.8 233.6 101.8V100C233.6 99.8001 233.8 99.6001 234 99.6001H243.4C243.6 99.6001 243.8 99.8001 243.8 100V101.8C243.9 103.7 242.3 105.3 240.4 105.3ZM234.5 100.4V101.9C234.5 103.4 235.7 104.6 237.2 104.6H240.5C242 104.6 243.2 103.4 243.2 101.9V100.4H234.5Z" fill="#1F1A54"/>
<path d="M244.2 96.1002C243.8 96.1002 243.5 95.8002 243.5 95.4002V90.6002C243.5 87.8002 241.4 85.5002 238.8 85.5002C236.2 85.5002 234.1 87.8002 234.1 90.6002V95.4002C234.1 95.8002 233.8 96.1002 233.4 96.1002C233 96.1002 232.7 95.8002 232.7 95.4002V90.6002C232.7 87.1002 235.4 84.2002 238.8 84.2002C242.2 84.2002 244.9 87.1002 244.9 90.6002V95.4002C244.9 95.8002 244.6 96.1002 244.2 96.1002Z" fill="#1F1A54"/>
<path d="M227.2 202H187.6C185.6 202 183.9 200.3 183.9 198.3V149.4C183.9 147.4 185.6 145.7 187.6 145.7H227.2C229.2 145.7 230.9 147.4 230.9 149.4V198.3C230.9 200.4 229.2 202 227.2 202Z" fill="#FFD400"/>
<path d="M227.2 202.4H187.6C185.4 202.4 183.5 200.6 183.5 198.3V149.4C183.5 147.2 185.3 145.3 187.6 145.3H227.2C229.4 145.3 231.3 147.1 231.3 149.4V198.3C231.2 200.6 229.4 202.4 227.2 202.4ZM187.5 146.1C185.7 146.1 184.2 147.6 184.2 149.4V198.3C184.2 200.1 185.7 201.6 187.5 201.6H227.1C228.9 201.6 230.4 200.1 230.4 198.3V149.4C230.4 147.6 228.9 146.1 227.1 146.1H187.5Z" fill="#1F1A54"/>
<path d="M221.8 188.4H193C192.8 188.4 192.6 188.2 192.6 188C192.6 187.8 192.8 187.6 193 187.6H221.8C222 187.6 222.2 187.8 222.2 188C222.2 188.2 222 188.4 221.8 188.4Z" fill="#1F1A54"/>
<path d="M209.5 192.9H192.9C192.7 192.9 192.5 192.7 192.5 192.5C192.5 192.3 192.7 192.1 192.9 192.1H209.5C209.7 192.1 209.9 192.3 209.9 192.5C209.9 192.7 209.7 192.9 209.5 192.9Z" fill="#1F1A54"/>
<path d="M221.8 192.9H216C215.8 192.9 215.6 192.7 215.6 192.5C215.6 192.3 215.8 192.1 216 192.1H221.9C222.1 192.1 222.3 192.3 222.3 192.5C222.3 192.7 222 192.9 221.8 192.9Z" fill="#1F1A54"/>
<path d="M219.3 165.999C219.3 171.899 215.9 180.099 208.9 179.099C207.9 178.999 207.4 178.799 206.9 179.099C201.2 181.899 194.5 172.899 194.5 165.999C194.5 159.099 200 156.099 206.9 158.699C214.1 156.099 219.3 159.199 219.3 165.999Z" fill="white"/>
<path d="M204.7 179.999C203.5 179.999 202.3 179.599 201.1 178.899C197.3 176.499 194.2 170.799 194.2 166.099C194.2 162.899 195.4 160.399 197.5 158.899C199.9 157.299 203.3 157.099 206.9 158.399C210.7 157.099 214.1 157.199 216.4 158.899C218.5 160.399 219.6 162.899 219.6 166.099C219.6 169.899 218.2 174.999 215 177.699C213.2 179.299 211.1 179.899 208.8 179.499L208.3 179.399C207.6 179.299 207.3 179.299 207 179.399C206.4 179.799 205.6 179.999 204.7 179.999ZM202.4 158.199C200.7 158.199 199.2 158.599 198 159.499C196.1 160.799 195 163.199 195 166.099C195 170.599 197.9 176.099 201.6 178.299C202.9 179.099 204.8 179.799 206.9 178.799C207.4 178.499 207.9 178.599 208.6 178.699L209.1 178.799C211.2 179.099 213.1 178.499 214.7 177.099C217.7 174.499 219 169.699 219 166.099C219 163.099 218 160.899 216.1 159.499C213.9 157.999 210.7 157.799 207.1 159.099C207 159.099 206.9 159.099 206.8 159.099C205.3 158.499 203.8 158.199 202.4 158.199Z" fill="#1F1A54"/>
<path d="M203.6 160.2C204.8 160.8 205.7 160.8 207.2 160.8C208.5 160.8 210.5 160.8 211 160.2" fill="#FFD400"/>
<path d="M207.9 161.2C207.7 161.2 207.5 161.2 207.2 161.2C205.6 161.2 204.7 161.1 203.5 160.6C203.3 160.5 203.2 160.3 203.3 160.1C203.4 159.9 203.6 159.8 203.8 159.9C204.9 160.4 205.7 160.4 207.2 160.5C208.2 160.5 210.3 160.5 210.7 160C210.8 159.8 211.1 159.8 211.2 159.9C211.4 160 211.4 160.3 211.3 160.4C210.8 161.1 209.4 161.2 207.9 161.2Z" fill="#1F1A54"/>
<path d="M207 160.9C206.8 160.9 206.6 160.7 206.6 160.5C206.6 160.3 207 155.8 210.3 153.9C210.5 153.8 210.7 153.9 210.8 154C210.9 154.1 210.8 154.4 210.7 154.5C207.7 156.2 207.3 160.5 207.3 160.6C207.3 160.8 207.2 160.9 207 160.9Z" fill="#1F1A54"/>
<path d="M207.2 159.1H206.7C204.2 159.1 202.2 157.1 202.2 154.6V154.1H202.7C205.2 154.1 207.2 156.1 207.2 158.6V159.1Z" fill="#1F1A54"/>
<path d="M207.2 159.4H206.7C204 159.4 201.8 157.2 201.8 154.5V154C201.8 153.8 202 153.6 202.2 153.6H202.7C205.4 153.6 207.6 155.8 207.6 158.5V159C207.5 159.3 207.4 159.4 207.2 159.4ZM202.5 154.4V154.5C202.5 156.8 204.4 158.7 206.7 158.7H206.8V158.6C206.8 156.3 204.9 154.4 202.6 154.4H202.5Z" fill="#1F1A54"/>
<path d="M290.1 203.7H250.5C248.5 203.7 246.8 202 246.8 200V151.1C246.8 149.1 248.5 147.4 250.5 147.4H290.1C292.1 147.4 293.8 149.1 293.8 151.1V200C293.7 202 292.1 203.7 290.1 203.7Z" fill="#FFD400"/>
<path d="M290.1 204.1H250.5C248.3 204.1 246.4 202.3 246.4 200V151.1C246.4 148.9 248.2 147 250.5 147H290.1C292.3 147 294.2 148.8 294.2 151.1V200C294.1 202.2 292.3 204.1 290.1 204.1ZM250.4 147.8C248.6 147.8 247.1 149.3 247.1 151.1V200C247.1 201.8 248.6 203.3 250.4 203.3H290C291.8 203.3 293.3 201.8 293.3 200V151.1C293.3 149.3 291.8 147.8 290 147.8H250.4Z" fill="#1F1A54"/>
<path d="M284.6 190H255.8C255.6 190 255.4 189.8 255.4 189.6C255.4 189.4 255.6 189.2 255.8 189.2H284.6C284.8 189.2 285 189.4 285 189.6C285 189.8 284.8 190 284.6 190Z" fill="#1F1A54"/>
<path d="M272.4 194.6H255.8C255.6 194.6 255.4 194.4 255.4 194.2C255.4 194 255.6 193.8 255.8 193.8H272.4C272.6 193.8 272.8 194 272.8 194.2C272.8 194.4 272.6 194.6 272.4 194.6Z" fill="#1F1A54"/>
<path d="M284.7 194.6H278.8C278.6 194.6 278.4 194.4 278.4 194.2C278.4 194 278.6 193.8 278.8 193.8H284.7C284.9 193.8 285.1 194 285.1 194.2C285.1 194.4 284.9 194.6 284.7 194.6Z" fill="#1F1A54"/>
<path d="M283.3 173.9C283.3 177.3 277.7 180.3 270.8 180.3C263.9 180.3 258.3 177.3 258.3 173.9C258.3 170.5 263.9 165.6 270.8 165.6C277.7 165.6 283.3 170.5 283.3 173.9Z" fill="white"/>
<path d="M270.8 180.7C263.8 180.7 258 177.6 258 173.9C258 170.1 264 165.3 270.8 165.3C277.6 165.3 283.6 170.1 283.6 173.9C283.7 177.6 277.8 180.7 270.8 180.7ZM270.8 166C264.1 166 258.7 170.8 258.7 173.9C258.7 177.1 264.4 180 270.8 180C277.2 180 282.9 177.2 282.9 173.9C282.9 170.8 277.5 166 270.8 166Z" fill="#1F1A54"/>
<path d="M258 172.6C257.8 172.8 257.6 172.9 257.6 173.2C257.6 173.4 257.7 173.5 257.8 173.6C258.4 174.3 259.3 174.4 260.1 174.3C260.9 174.2 261.7 173.9 262.6 174C263.4 174.1 264.3 174.8 264.3 175.8C264.3 176 264.3 176.2 264.4 176.3C264.5 176.4 264.6 176.4 264.8 176.4C265.6 176.5 266.3 177.1 267.1 176.9C267.7 176.8 268.2 176.2 268.8 176.2C269.1 176.2 269.5 176.4 269.8 176.4C271.3 176.7 272.8 174.7 274.3 175.2C274.6 175.3 274.9 175.5 275.2 175.6C275.8 175.8 276.4 175.8 277 175.7C277.4 174.7 278.6 174.3 279.4 174.9C279.5 175 279.7 175.1 279.8 175.2C280.3 175.3 280.4 174.5 280.8 174.2C281.1 173.9 281.6 174.1 282 174C282.5 173.9 282.8 173.4 283 172.9C283.2 172.4 283.2 171.8 283.2 171.3C283.2 171.1 283.2 170.9 283.1 170.7C283 170.5 282.9 170.4 282.7 170.3C281.8 169.5 280.7 168.9 279.6 168.6C279.4 168.5 279.2 168.5 279 168.5C278.7 168.6 278.5 168.8 278.3 169C276.9 170.3 274.9 170.2 273.1 170C272.4 169.9 271.6 169.8 270.9 169.5C270.7 169.4 270.6 169.3 270.4 169.2C270.2 169.1 270 169.1 269.7 169.1C267.3 168.8 264.9 168 262.7 166.7C262.5 166.6 262.3 166.5 262.1 166.5C261.8 166.5 261.6 166.6 261.4 166.7C260.6 167 259.8 167.3 259.1 168C258.5 168.5 257.9 169.5 258.1 170.4C258.4 171.1 258.8 171.8 258 172.6Z" fill="#FFD400"/>
<path d="M266.9 177.2C266.5 177.2 266.1 177 265.7 176.9C265.4 176.8 265.1 176.7 264.8 176.6C264.6 176.6 264.3 176.6 264.2 176.3C264 176.1 264 175.8 264 175.7C264 174.9 263.3 174.3 262.6 174.2C262.1 174.1 261.5 174.2 261 174.4C260.8 174.5 260.5 174.5 260.3 174.5C259.1 174.7 258.2 174.4 257.6 173.7C257.4 173.5 257.3 173.2 257.3 173C257.3 172.6 257.6 172.4 257.7 172.3L257.8 172.2C258.2 171.8 258.2 171.4 258 170.7C258 170.5 257.9 170.4 257.9 170.2C257.7 169.1 258.4 168 259 167.5C259.7 166.8 260.6 166.5 261.4 166.2C261.7 166.1 262 166 262.3 166C262.6 166 262.8 166.2 263 166.3C265.2 167.5 267.5 168.3 269.9 168.6C270.2 168.6 270.4 168.7 270.6 168.8C270.7 168.9 270.9 168.9 271 169L271.1 169.1C271.7 169.4 272.4 169.5 273.1 169.6C274.9 169.8 276.7 169.9 278 168.7L278.1 168.6C278.3 168.4 278.5 168.2 278.8 168.1C279.1 168 279.4 168.1 279.6 168.2C280.8 168.5 281.9 169.2 282.9 170C283.1 170.1 283.3 170.3 283.4 170.6C283.5 170.9 283.5 171.2 283.5 171.4C283.5 171.9 283.4 172.5 283.2 173.1C283 173.8 282.5 174.3 281.9 174.4C281.7 174.4 281.5 174.4 281.3 174.4C281.1 174.4 280.9 174.4 280.8 174.5C280.7 174.6 280.6 174.7 280.5 174.9C280.3 175.2 280 175.7 279.5 175.6C279.3 175.6 279.1 175.4 278.9 175.3C278.6 175.1 278.2 175 277.9 175.1C277.5 175.2 277.2 175.5 277 175.9C276.9 176 276.8 176.1 276.7 176.1C276.1 176.2 275.4 176.3 274.7 176C274.6 175.9 274.4 175.9 274.3 175.8C274.2 175.7 274 175.6 273.9 175.6C273.3 175.4 272.6 175.7 271.9 176.1C271.1 176.5 270.4 176.9 269.5 176.8C269.4 176.8 269.2 176.7 269.1 176.7C268.9 176.6 268.7 176.6 268.6 176.6C268.4 176.6 268.1 176.8 267.8 176.9C267.5 177.1 267.2 177.2 266.9 177.3C267.1 177.2 267 177.2 266.9 177.2ZM264.8 175.9C265.3 175.9 265.6 176.1 265.9 176.2C266.3 176.4 266.7 176.5 267 176.4C267.2 176.4 267.4 176.2 267.7 176.1C268 175.9 268.4 175.7 268.8 175.7C269.1 175.7 269.3 175.8 269.5 175.8C269.6 175.8 269.7 175.9 269.8 175.9C270.4 176 271 175.7 271.7 175.3C272.5 174.9 273.4 174.4 274.3 174.7C274.5 174.8 274.7 174.9 274.8 175C274.9 175.1 275 175.1 275.2 175.2C275.6 175.4 276.1 175.3 276.6 175.3C276.9 174.8 277.3 174.4 277.9 174.3C278.5 174.1 279.1 174.2 279.5 174.6L279.6 174.7C279.7 174.7 279.7 174.8 279.8 174.8C279.9 174.8 280 174.6 280.1 174.4C280.2 174.2 280.4 174 280.6 173.8C280.9 173.6 281.3 173.6 281.6 173.6C281.7 173.6 281.9 173.6 282 173.6C282.3 173.5 282.6 173.2 282.7 172.8C282.9 172.3 282.9 171.8 282.9 171.3C282.9 171.1 282.9 171 282.9 170.8C282.9 170.7 282.8 170.6 282.6 170.5C281.7 169.7 280.7 169.2 279.6 168.9C279.5 168.9 279.3 168.8 279.2 168.8C279.1 168.8 278.9 169 278.8 169.1L278.7 169.2C277.2 170.6 275.2 170.5 273.2 170.3C272.5 170.2 271.6 170.1 270.9 169.7L270.7 169.6C270.6 169.5 270.5 169.5 270.4 169.4C270.2 169.3 270.1 169.3 269.9 169.3C267.4 168.9 264.9 168.1 262.7 166.9C262.5 166.8 262.4 166.7 262.2 166.7C262 166.7 261.8 166.8 261.6 166.8C260.8 167.1 260 167.4 259.4 168C258.9 168.5 258.4 169.3 258.5 170.1C258.5 170.3 258.6 170.4 258.6 170.6C258.7 171.3 258.9 172.1 258.2 172.8L258.1 172.9C258 173 257.9 173.1 257.9 173.1C257.9 173.1 257.9 173.2 258 173.3C258.5 173.9 259.4 173.9 260 173.8C260.2 173.8 260.5 173.7 260.7 173.7C261.3 173.6 261.9 173.4 262.6 173.5C263.6 173.6 264.6 174.4 264.6 175.6C264.7 175.8 264.7 175.9 264.8 175.9C264.7 175.9 264.8 175.9 264.8 175.9Z" fill="#1F1A54"/>
<path d="M283.3 168.3C283.3 172.3 277.7 173.9 270.8 173.9C263.9 173.9 258.3 172.3 258.3 168.3C258.3 164.3 263.9 163.5 270.8 163.5C277.7 163.5 283.3 164.3 283.3 168.3Z" fill="#1F1A54"/>
<path d="M270.8 174.3C262.6 174.3 258 172.1 258 168.3C258 163.7 264.5 163.1 270.8 163.1C277.1 163.1 283.6 163.7 283.6 168.3C283.7 172.1 279 174.3 270.8 174.3ZM270.8 163.9C262.3 163.9 258.7 165.2 258.7 168.3C258.7 173 267.2 173.6 270.8 173.6C274.4 173.6 282.9 173.1 282.9 168.3C282.9 165.2 279.3 163.9 270.8 163.9Z" fill="#1F1A54"/>
<path d="M283.3 164.3C283.3 167.7 277.7 169.9 270.8 169.9C263.9 169.9 258.3 167.7 258.3 164.3C258.3 160.9 263.9 156 270.8 156C277.7 156 283.3 160.9 283.3 164.3Z" fill="white"/>
<path d="M270.8 170.3C263.2 170.3 258 167.9 258 164.3C258 160.5 264 155.7 270.8 155.7C277.6 155.7 283.6 160.5 283.6 164.3C283.7 167.8 278.4 170.3 270.8 170.3ZM270.8 156.4C264.1 156.4 258.7 161.2 258.7 164.3C258.7 167.3 263.8 169.5 270.8 169.5C277.8 169.5 282.9 167.3 282.9 164.3C282.9 161.2 277.5 156.4 270.8 156.4Z" fill="#1F1A54"/>
<path d="M272.2 165.8C272.1 165.8 271.9 165.7 271.9 165.6C271.8 165.4 271.9 165.2 272.1 165.1L272.4 165C272.6 164.9 272.8 165 272.9 165.2C273 165.4 272.9 165.6 272.7 165.7L272.4 165.8C272.3 165.8 272.2 165.8 272.2 165.8Z" fill="#1F1A54"/>
<path d="M275.1 161.3L274.5 161.2C274.3 161.2 274.2 161 274.2 160.8C274.2 160.6 274.4 160.5 274.6 160.5L275.1 160.6C275.3 160.6 275.4 160.8 275.4 161C275.5 161.2 275.3 161.3 275.1 161.3Z" fill="#1F1A54"/>
<path d="M271.1 161.6H271C270.8 161.6 270.6 161.4 270.6 161.2C270.6 161 270.8 160.8 271 160.8H271.1C271.3 160.8 271.5 161 271.5 161.2C271.5 161.4 271.3 161.6 271.1 161.6Z" fill="#1F1A54"/>
<path d="M266.1 162.3C266 162.3 266 162.3 265.9 162.2C265.7 162.1 265.7 161.9 265.8 161.7L265.9 161.4C266 161.2 266.2 161.2 266.4 161.3C266.6 161.4 266.6 161.6 266.5 161.8L266.3 162.1C266.4 162.2 266.3 162.3 266.1 162.3Z" fill="#1F1A54"/>
<path d="M262.6 163.3C262.5 163.3 262.4 163.3 262.4 163.2C262.2 163.1 262.2 162.8 262.4 162.7L262.6 162.4C262.7 162.2 263 162.2 263.1 162.4C263.3 162.5 263.3 162.8 263.1 162.9L262.9 163.2C262.8 163.2 262.7 163.3 262.6 163.3Z" fill="#1F1A54"/>
<path d="M270.5 158.4H270.1C269.9 158.4 269.7 158.2 269.7 158C269.7 157.8 269.9 157.6 270.1 157.6H270.5C270.7 157.6 270.9 157.8 270.9 158C270.9 158.2 270.7 158.4 270.5 158.4Z" fill="#1F1A54"/>
<path d="M277.6 163.3C277.5 163.3 277.4 163.2 277.3 163.1C277.2 162.9 277.3 162.7 277.4 162.6L277.7 162.4C277.9 162.3 278.1 162.4 278.2 162.5C278.3 162.7 278.2 162.9 278.1 163L277.8 163.2C277.7 163.3 277.6 163.3 277.6 163.3Z" fill="#1F1A54"/>
<path d="M267.3 164.6C267.2 164.6 267.1 164.5 267 164.5C266.9 164.3 266.9 164.1 267.1 164L267.3 163.8C267.5 163.7 267.7 163.7 267.8 163.9C267.9 164.1 267.9 164.3 267.7 164.4L267.5 164.6C267.4 164.6 267.3 164.6 267.3 164.6Z" fill="#1F1A54"/>
<path d="M265.7 158.7H265.5C265.3 158.7 265.1 158.5 265.1 158.3C265.1 158.1 265.3 157.9 265.5 157.9H265.7C265.9 157.9 266.1 158.1 266.1 158.3C266.1 158.5 265.9 158.7 265.7 158.7Z" fill="#1F1A54"/>
<path d="M275.3 158.7C275.3 158.7 275.2 158.7 275.3 158.7L274.9 158.6C274.7 158.6 274.6 158.4 274.6 158.2C274.6 158 274.8 157.9 275 157.9L275.3 158C275.5 158 275.6 158.2 275.6 158.4C275.6 158.6 275.5 158.7 275.3 158.7Z" fill="#1F1A54"/>
<path d="M142.1 133.7L149.1 138.2L167.4 121.1C170 118.6 172.8 116.3 175.6 114.1L179 111.4C179.3 111.1 179.7 111 180.1 110.9L197 107.5C197.6 108.3 197.5 110.2 196.1 110.6L187.5 113.3C186.1 114 185.9 115.8 187.4 116L191.5 116.3C193.4 116.6 193.8 118.9 191.9 119.1C189.9 119.3 182.5 120.5 181.5 120.7C178.9 121.3 176.6 122.8 175 125C170.3 131.4 162.5 143.7 157.6 150.1C155.9 152.3 153.6 153.8 151 153L137.3 148" fill="white"/>
<path d="M152.6 153.5C152.1 153.5 151.5 153.4 151 153.2L137.3 148.2C137.1 148.1 137 147.9 137.1 147.7C137.2 147.5 137.4 147.4 137.6 147.5L151.3 152.5C154.2 153.4 156.4 151.2 157.5 149.7C160 146.3 163.4 141.3 166.6 136.5C169.7 131.9 172.6 127.6 174.8 124.6C176.4 122.4 178.8 120.8 181.5 120.2C182.5 120 189.9 118.8 191.9 118.6C192.5 118.5 192.8 118.3 192.8 117.8C192.8 117.3 192.3 116.6 191.5 116.5L187.5 116.2C186.7 116.1 186.2 115.7 186.1 115C186 114.2 186.5 113.3 187.4 112.8L196.1 110.1C196.7 109.9 197 109.5 197.1 109.2C197.2 108.7 197.2 108.2 197 107.8L180.4 111.1C180 111.2 179.7 111.3 179.4 111.5L176 114.2C173.2 116.4 170.4 118.8 167.8 121.2L149.5 138.3C149.4 138.4 149.2 138.4 149 138.3L142 133.8C141.8 133.7 141.8 133.5 141.9 133.3C142 133.1 142.2 133.1 142.4 133.2L149.1 137.6L167.2 120.7C169.8 118.2 172.6 115.9 175.5 113.6L178.9 110.9C179.3 110.6 179.7 110.4 180.2 110.3L197.1 106.9C197.2 106.9 197.4 106.9 197.5 107C197.9 107.6 198.1 108.5 197.8 109.2C197.6 109.9 197.1 110.4 196.3 110.6L187.7 113.3C187.1 113.6 186.8 114.3 186.8 114.7C186.9 115.1 187.2 115.2 187.5 115.3L191.5 115.6C192.8 115.8 193.5 116.8 193.5 117.7C193.5 118.5 192.9 119.1 191.9 119.2C189.9 119.4 182.5 120.6 181.6 120.8C179.1 121.4 176.8 122.9 175.3 124.9C173.1 127.9 170.2 132.3 167.1 136.8C163.8 141.6 160.5 146.6 157.9 150C156.4 152.3 154.5 153.5 152.6 153.5Z" fill="#1F1A54"/>
<path d="M128.7 192.9C128.5 192.9 128.3 192.7 128.3 192.5C128.4 182.9 120.4 170.6 120.3 170.5C120.2 170.3 120.2 170.1 120.4 170C120.6 169.9 120.8 169.9 120.9 170.1C121.2 170.6 129 182.7 129 192.5C129 192.7 128.9 192.9 128.7 192.9Z" fill="#1F1A54"/>
<path d="M88 245.1C87.9 245.1 87.8 245.1 87.7 245C87.6 244.9 87.6 244.8 87.6 244.7V232.1C87.6 231.9 87.7 231.8 87.9 231.7L104.6 228.1L103 215C103 214.8 103.1 214.6 103.3 214.6C103.5 214.6 103.7 214.7 103.7 214.9L105.4 228.4C105.4 228.6 105.3 228.8 105.1 228.8L88.4 232.4V244.3L119.2 243.7C121.6 243.7 123.7 241.8 124 239.4L126.4 215.3C126.4 215.1 126.6 215 126.8 215C127 215 127.2 215.2 127.1 215.4L124.7 239.5C124.5 242.3 122.1 244.5 119.3 244.5L88 245.1Z" fill="#1F1A54"/>
<path d="M151.4 244.6L138.2 244.4C138 244.4 137.9 244.3 137.8 244.1L135.1 216L100 215.5C92.7 215.3 87 212.6 83.5 207.6C78.3 200 79.3 189.2 82 181.6C83.2 178.2 85.9 171.7 85.9 171.6C86 171.4 86.2 171.3 86.4 171.4C86.6 171.5 86.7 171.7 86.6 171.9C86.6 172 83.9 178.5 82.7 181.8C80 189.2 79 199.7 84.1 207.1C87.4 212 92.8 214.5 100 214.7L135.5 215.2C135.7 215.2 135.8 215.3 135.9 215.5L138.6 243.6L151.1 243.8L151.8 204.5C151.9 200.4 149 197 145 196.2L102.9 188.5C102.7 188.5 102.6 188.3 102.6 188.1C102.6 187.9 102.8 187.8 103 187.8L145.1 195.5C149.5 196.3 152.6 200.1 152.5 204.5L151.8 244.2C151.8 244.4 151.6 244.6 151.4 244.6Z" fill="#1F1A54"/>
<path d="M170.6 260.5C170.6 260.5 170.9 260.9 170.6 262.4C170.1 264.4 168.3 266 162.4 265.9C158.5 265.9 139.9 265.1 138 264.9C136.1 264.7 137.7 261.9 138.4 259.6C138.4 259.6 162.9 263.7 167.5 262.7C169.5 262.2 170.7 261.4 170.6 260.5Z" fill="white"/>
<path d="M153.6 253C154.4 253.5 155.2 254.1 156.2 254.6C157 255 157.8 255.4 158.6 255.7C159.1 255.9 159.6 256.1 160.2 256.3C160.6 256.4 160.9 256.5 161.3 256.6C162.9 257.1 164.6 257.6 165.8 257.9C167.4 258.3 169.2 258.6 169.9 259.4C170.3 259.8 170.5 260.2 170.6 260.5C170.7 261.5 169.6 262.3 167.5 262.7C162.9 263.7 138.4 259.6 138.4 259.6C138.4 259.6 138.8 257.8 139.3 254.7C139.3 254.7 139.8 254.9 140.5 255C141.5 255.2 143.1 255.3 145 254.6C146.8 254 148.9 252.9 150.2 252.1C151 251.6 151.5 251.1 151.5 251C151.9 251.7 152.7 252.3 153.6 253Z" fill="white"/>
<path d="M150.3 252V252.2C149 253 146.9 254.1 145.1 254.7C143.2 255.3 141.6 255.2 140.6 255.1L140.7 254.7L140 243.4H149.7L150.3 252Z" fill="#FFD400"/>
<path d="M88 233.1V243.5L78.4 244.3H78.3C77.5 243 76.2 240.8 75.6 238.8C74.9 236.7 75.1 235 75.3 234L88 233.1Z" fill="#FFD400"/>
<path d="M74.6 252.4C74.4 252.9 74.2 253.4 74 254C73.9 254.4 73.8 254.7 73.7 255.1C73.2 256.7 72.7 258.4 72.4 259.6C72 261.2 71.7 263 70.9 263.7C70.5 264.1 70.1 264.3 69.8 264.4C68.8 264.5 68 263.3 67.6 261.3C66.6 256.7 70.8 232.2 70.8 232.2C70.8 232.2 72.6 232.6 75.7 233.1C75.7 233.1 75.5 233.5 75.4 234.1C75.2 235.1 75 236.9 75.7 238.9C76.3 240.9 77.6 243.1 78.4 244.4C78.8 245 79.2 245.4 79.3 245.3C78.8 245.7 78.1 246.4 77.4 247.4C76.8 248.2 76.3 249 75.8 250C75.3 250.7 74.9 251.5 74.6 252.4Z" fill="white"/>
<path d="M70.7 232.1C70.7 232.1 66.5 256.6 67.5 261.2C68 263.3 68.8 264.4 69.7 264.3C69.7 264.3 69.3 264.6 67.8 264.3C65.8 263.8 64.2 262 64.3 256.1C64.4 252.2 65.1 233.6 65.4 231.7C65.7 229.8 68.5 231.4 70.7 232.1Z" fill="white"/>
<path d="M165.2 263.2C157.7 263.2 139.2 260.1 138.3 259.9C138.2 259.9 138.1 259.8 138.1 259.7C138 259.6 138 259.5 138 259.4C138 259.4 138.4 257.6 138.9 254.6C138.9 254.3 139.3 254.2 139.5 254.4C139.7 254.5 140 254.6 140.6 254.7C141.6 254.9 143.1 255 145 254.4C146.8 253.8 148.9 252.7 150.1 251.9C150.8 251.5 151.1 251.2 151.2 251.1C151.2 251 151.3 250.9 151.3 250.9C151.5 250.8 151.7 250.8 151.8 251C152.2 251.5 152.9 252.1 153.8 252.8C154.6 253.4 155.5 253.9 156.4 254.4C157.1 254.8 157.9 255.2 158.8 255.5C159.3 255.7 159.9 255.9 160.3 256.1L161.4 256.4C163 256.9 164.8 257.4 165.9 257.7C166.2 257.8 166.5 257.9 166.8 257.9C168.2 258.2 169.5 258.6 170.1 259.2C170.6 259.6 170.8 260.1 170.9 260.5C171 261.2 170.7 262.4 167.5 263.1C167 263.2 166.2 263.2 165.2 263.2ZM138.8 259.3C141.9 259.8 163.2 263.3 167.3 262.3C169.2 261.9 170.2 261.2 170.1 260.5C170.1 260.2 169.9 259.9 169.5 259.6C169 259.1 167.7 258.8 166.5 258.5C166.2 258.4 165.9 258.3 165.6 258.3C164.4 258 162.7 257.5 161.1 257L160 256.7C159.5 256.5 159 256.4 158.4 256.1C157.5 255.8 156.7 255.4 156 255C155 254.5 154.1 253.9 153.3 253.4C152.5 252.9 151.9 252.3 151.5 251.9C151.3 252.1 151 252.3 150.4 252.7C149.2 253.5 147.1 254.7 145.2 255.3C143.3 255.9 141.6 255.9 140.5 255.7C140.1 255.6 139.8 255.6 139.6 255.5C139.3 257.3 139 258.7 138.8 259.3Z" fill="#1F1A54"/>
<path d="M162.8 266.2C162.7 266.2 162.5 266.2 162.4 266.2C158.4 266.2 139.9 265.4 138 265.2C137.5 265.1 137.2 265 137 264.6C136.5 263.8 137 262.4 137.6 260.9C137.8 260.4 138 259.9 138.1 259.4C138.2 259.2 138.4 259.1 138.6 259.2C138.8 259.3 138.9 259.5 138.8 259.7C138.7 260.2 138.5 260.7 138.3 261.2C137.9 262.4 137.4 263.8 137.7 264.3C137.8 264.4 137.9 264.5 138.2 264.5C140.1 264.7 158.6 265.4 162.5 265.5C162.6 265.5 162.8 265.5 162.9 265.5C168.9 265.5 170 263.7 170.3 262.3C170.6 261.1 170.4 260.7 170.4 260.7C170.3 260.5 170.3 260.3 170.5 260.2C170.7 260.1 170.9 260.1 171 260.3C171.1 260.4 171.4 260.9 171.1 262.5C170.3 265 167.7 266.2 162.8 266.2Z" fill="#1F1A54"/>
<path d="M152.5 254.5C152.4 254.5 152.3 254.5 152.3 254.4C152.1 254.3 152.1 254 152.3 253.9L154.4 251.5C154.5 251.3 154.8 251.3 154.9 251.5C155.1 251.6 155.1 251.9 154.9 252L152.8 254.4C152.7 254.5 152.6 254.5 152.5 254.5Z" fill="#1F1A54"/>
<path d="M155.1 256.4C155 256.4 154.9 256.4 154.9 256.3C154.7 256.2 154.7 255.9 154.8 255.8L156.7 253.2C156.8 253 157.1 253 157.2 253.1C157.4 253.2 157.4 253.5 157.3 253.6L155.4 256.2C155.4 256.4 155.3 256.4 155.1 256.4Z" fill="#1F1A54"/>
<path d="M157.7 257.6C157.6 257.6 157.6 257.6 157.5 257.5C157.3 257.4 157.3 257.2 157.4 257L159.2 254.2C159.3 254 159.5 254 159.7 254.1C159.9 254.2 159.9 254.4 159.8 254.6L158 257.4C158 257.5 157.8 257.6 157.7 257.6Z" fill="#1F1A54"/>
<path d="M160.3 258.5C160.2 258.5 160.2 258.5 160.1 258.4C159.9 258.3 159.9 258.1 160 257.9L161.8 255.1C161.9 254.9 162.1 254.9 162.3 255C162.5 255.1 162.5 255.3 162.4 255.5L160.6 258.3C160.5 258.5 160.4 258.5 160.3 258.5Z" fill="#1F1A54"/>
<path d="M69.6 264.6C68.9 264.6 67.8 264.1 67.1 261.2C66.1 256.6 70.1 233 70.3 232C70.3 231.9 70.4 231.8 70.5 231.8C70.6 231.7 70.7 231.7 70.8 231.7C70.8 231.7 72.6 232.1 75.7 232.6C75.8 232.6 75.9 232.7 76 232.8C76.1 232.9 76.1 233 76 233.1C76 233.1 75.9 233.4 75.7 234C75.5 235 75.3 236.7 76 238.6C76.6 240.5 77.8 242.7 78.7 244C79 244.5 79.2 244.7 79.3 244.8C79.4 244.8 79.5 244.9 79.5 244.9C79.6 245.1 79.6 245.3 79.4 245.4C78.9 245.8 78.2 246.5 77.6 247.4C77 248.2 76.5 249 76 250C75.6 250.7 75.2 251.5 74.9 252.4C74.7 253 74.5 253.5 74.3 253.9L74 255C73.4 256.8 72.9 258.6 72.7 259.5C72.6 259.8 72.5 260.1 72.5 260.4C72.2 261.8 71.8 263.1 71.2 263.7C70.8 264.2 70.3 264.4 69.9 264.5C69.8 264.6 69.7 264.6 69.6 264.6ZM71 232.5C70.5 235.6 67 256.9 67.9 261C68.3 262.8 69 263.9 69.7 263.8C70 263.8 70.3 263.6 70.6 263.3C71.1 262.8 71.4 261.5 71.7 260.3C71.8 260 71.9 259.7 71.9 259.4C72.1 258.5 72.6 256.7 73.2 254.9L73.5 253.8C73.7 253.3 73.8 252.8 74.1 252.2C74.5 251.3 74.9 250.5 75.3 249.8C75.8 248.8 76.4 247.9 76.9 247.1C77.4 246.3 78 245.7 78.5 245.3C78.4 245.1 78.2 244.9 77.9 244.6C77 243.3 75.8 241 75.1 239C74.4 236.9 74.6 235.1 74.8 234C74.9 233.8 74.9 233.6 75 233.4C73.1 233 71.7 232.7 71 232.5Z" fill="#1F1A54"/>
<path d="M69 264.8C68.7 264.8 68.3 264.8 67.8 264.6C65.1 264 63.9 261.3 64 256.1C64.1 252.1 64.8 233.5 65.1 231.7C65.2 231.2 65.3 230.9 65.7 230.7C66.5 230.2 67.9 230.7 69.4 231.3C69.9 231.5 70.4 231.7 70.9 231.8C71.1 231.9 71.2 232.1 71.1 232.3C71 232.5 70.8 232.6 70.6 232.5C70.1 232.4 69.6 232.2 69.1 232C67.9 231.6 66.5 231.1 66 231.4C65.9 231.4 65.8 231.6 65.8 231.9C65.6 233.7 64.8 252.2 64.7 256.2C64.6 262.5 66.5 263.7 67.9 264C69.1 264.3 69.5 264.1 69.5 264.1C69.7 264 69.9 264 70 264.2C70.1 264.4 70.1 264.6 69.9 264.7C69.9 264.6 69.7 264.8 69 264.8Z" fill="#1F1A54"/>
<path d="M78.5 248.8C78.4 248.8 78.3 248.8 78.3 248.7L75.9 246.6C75.7 246.5 75.7 246.2 75.9 246.1C76 245.9 76.3 245.9 76.4 246.1L78.8 248.2C79 248.3 79 248.6 78.8 248.7C78.7 248.7 78.6 248.8 78.5 248.8Z" fill="#1F1A54"/>
<path d="M76.9 251.2C76.8 251.2 76.7 251.2 76.7 251.1L74.1 249.2C73.9 249.1 73.9 248.8 74 248.7C74.1 248.5 74.4 248.5 74.5 248.6L77.1 250.5C77.3 250.6 77.3 250.9 77.2 251C77.1 251.1 77 251.2 76.9 251.2Z" fill="#1F1A54"/>
<path d="M75.9001 253.6C75.8001 253.6 75.8001 253.6 75.7001 253.5L72.9001 251.7C72.7001 251.6 72.7001 251.4 72.8001 251.2C72.9001 251 73.1001 251 73.3001 251.1L76.1001 252.9C76.3001 253 76.3001 253.2 76.2001 253.4C76.1001 253.5 76.0001 253.6 75.9001 253.6Z" fill="#1F1A54"/>
<path d="M74.9001 256.1C74.8001 256.1 74.8001 256.1 74.7001 256L71.9001 254.2C71.7001 254.1 71.7001 253.9 71.8001 253.7C71.9001 253.5 72.1001 253.5 72.3001 253.6L75.1001 255.4C75.3001 255.5 75.3001 255.7 75.2001 255.9C75.2001 256.1 75.0001 256.1 74.9001 256.1Z" fill="#1F1A54"/>
<path d="M140.6 255.1C140.4 255.1 140.2 254.9 140.2 254.8L139.5 243.5C139.5 243.4 139.5 243.3 139.6 243.2C139.7 243.1 139.8 243.1 139.9 243.1H149.6C149.8 243.1 150 243.3 150 243.4L150.6 252C150.6 252.2 150.5 252.4 150.3 252.4C150.1 252.4 149.9 252.3 149.9 252.1L149.3 243.9H140.3L141 254.8C141 254.9 140.9 255.1 140.6 255.1C140.7 255.1 140.7 255.1 140.6 255.1Z" fill="#1F1A54"/>
<path d="M78.4 244.6C78.2 244.6 78 244.5 78 244.3C78 244.1 78.1 243.9 78.3 243.9L87.6 243.2V233.5L75.3 234.4C75.1 234.4 74.9 234.3 74.9 234.1C74.9 233.9 75 233.7 75.2 233.7L87.9 232.8C88 232.8 88.1 232.8 88.2 232.9C88.3 233 88.3 233.1 88.3 233.2V243.6C88.3 243.8 88.2 244 88 244L78.4 244.6Z" fill="#1F1A54"/>
<path d="M142 129.3C146.474 129.3 150.1 116.898 150.1 101.6C150.1 86.3016 146.474 73.8999 142 73.8999C137.527 73.8999 133.9 86.3016 133.9 101.6C133.9 116.898 137.527 129.3 142 129.3Z" fill="#1F1A54"/>
<path d="M142 129.7C137.2 129.7 133.5 117.4 133.5 101.6C133.5 85.8 137.2 73.5 142 73.5C146.8 73.5 150.5 85.8 150.5 101.6C150.5 117.4 146.7 129.7 142 129.7ZM142 74.2C137.8 74.2 134.3 86.7 134.3 101.5C134.3 116.3 137.8 128.8 142 128.8C146.2 128.8 149.7 116.3 149.7 101.5C149.7 86.8 146.2 74.2 142 74.2Z" fill="#1F1A54"/>
<path d="M142 73.8999H137.1C132.6 73.8999 129 86.2999 129 101.6C129 116.9 132.6 129.3 137.1 129.3H142" fill="#1F1A54"/>
<path d="M142 129.7H137.1C132.3 129.7 128.6 117.4 128.6 101.6C128.6 85.8 132.3 73.5 137.1 73.5H142C142.2 73.5 142.4 73.7 142.4 73.9C142.4 74.1 142.2 74.3 142 74.3H137.1C132.9 74.3 129.4 86.8 129.4 101.6C129.4 116.4 132.9 128.9 137.1 128.9H142C142.2 128.9 142.4 129.1 142.4 129.3C142.4 129.5 142.2 129.7 142 129.7Z" fill="#1F1A54"/>
<path d="M142 125.8C145.038 125.8 147.5 114.965 147.5 101.6C147.5 88.2346 145.038 77.3999 142 77.3999C138.962 77.3999 136.5 88.2346 136.5 101.6C136.5 114.965 138.962 125.8 142 125.8Z" fill="#FFD400"/>
<path d="M142 126.2C138.2 126.2 136.1 113.5 136.1 101.6C136.1 89.7 138.2 77 142 77C145.8 77 147.9 89.7 147.9 101.6C147.9 113.5 145.8 126.2 142 126.2ZM142 77.7C139.6 77.7 136.9 87.5 136.9 101.6C136.9 115.7 139.6 125.5 142 125.5C144.4 125.5 147.1 115.7 147.1 101.6C147.1 87.5 144.4 77.7 142 77.7Z" fill="#1F1A54"/>
<path d="M140.2 78.7998C143.1 82.4998 144.7 91.2998 144.7 101.6C144.7 111.9 143.1 120.7 140.2 124.4" fill="#FFD400"/>
<path d="M140.2 124.8C140.1 124.8 140 124.8 140 124.7C139.8 124.6 139.8 124.3 139.9 124.2C142.7 120.7 144.4 112.2 144.4 101.6C144.4 90.9998 142.7 82.4998 139.9 78.9998C139.8 78.7998 139.8 78.5998 140 78.4998C140.2 78.3998 140.4 78.3998 140.5 78.5998C143.4 82.1998 145.1 90.8998 145.1 101.6C145.1 112.4 143.4 121 140.5 124.6C140.4 124.7 140.3 124.8 140.2 124.8Z" fill="#1F1A54"/>
<path d="M128.6 192.8L145 195.8C149.2 196.6 152.2 200.2 152.1 204.4L151.4 244.1L138.2 243.9L135.5 215.5L126.7 215.4L103.3 215H100C80 214.5 77.4 195.6 82.4 181.6C83.6 178.2 86.3 171.6 86.3 171.6C86.3 171.6 102 174.6 120.5 170.2C120.5 170.2 128.6 182.6 128.5 192.4L128.6 192.8ZM103.3 215L105 228.5L88 232.1V244.7L119.2 244.1C121.9 244.1 124.1 242.1 124.3 239.4L126.7 215.3L103.3 215Z" fill="#1F1A54"/>
<path d="M102.4 187.3C101.8 187.3 101.3 187.8 101.3 188.4C101.3 189 101.8 189.5 102.4 189.5C103 189.5 103.5 189 103.5 188.4C103.5 187.8 103 187.3 102.4 187.3Z" fill="white"/>
<path d="M102.4 207.7C101.8 207.7 101.3 208.2 101.3 208.8C101.3 209.4 101.8 209.9 102.4 209.9C103 209.9 103.5 209.4 103.5 208.8C103.5 208.2 103 207.7 102.4 207.7Z" fill="white"/>
<path d="M97.3001 240.5C97.9076 240.5 98.4001 240.008 98.4001 239.4C98.4001 238.793 97.9076 238.3 97.3001 238.3C96.6926 238.3 96.2001 238.793 96.2001 239.4C96.2001 240.008 96.6926 240.5 97.3001 240.5Z" fill="white"/>
<path d="M92.2 210C92.8 210 93.3 209.5 93.3 208.9C93.3 208.3 92.8 207.8 92.2 207.8C91.6 207.8 91.1 208.3 91.1 208.9C91.1 209.5 91.6 210 92.2 210Z" fill="white"/>
<path d="M92.2 189.6C92.8 189.6 93.3 189.1 93.3 188.5C93.3 187.9 92.8 187.4 92.2 187.4C91.6 187.4 91.1 187.9 91.1 188.5C91.1 189.1 91.6 189.6 92.2 189.6Z" fill="white"/>
<path d="M97.3001 199.7C97.9076 199.7 98.4001 199.208 98.4001 198.6C98.4001 197.992 97.9076 197.5 97.3001 197.5C96.6926 197.5 96.2001 197.992 96.2001 198.6C96.2001 199.208 96.6926 199.7 97.3001 199.7Z" fill="white"/>
<path d="M102.4 230.4C103 230.4 103.5 229.9 103.5 229.3C103.5 229.2 103.5 229 103.4 228.9L101.2 229.4C101.3 229.9 101.8 230.4 102.4 230.4Z" fill="white"/>
<path d="M88.2 198.6C88.2 198 87.7 197.5 87.1 197.5C86.5 197.5 86 198 86 198.6C86 199.2 86.5 199.7 87.1 199.7C87.7 199.8 88.2 199.3 88.2 198.6Z" fill="white"/>
<path d="M107.5 179.3C108.108 179.3 108.6 178.808 108.6 178.2C108.6 177.593 108.108 177.1 107.5 177.1C106.893 177.1 106.4 177.593 106.4 178.2C106.4 178.808 106.893 179.3 107.5 179.3Z" fill="white"/>
<path d="M117.7 177.1C117.1 177.1 116.6 177.6 116.6 178.2C116.6 178.8 117.1 179.3 117.7 179.3C118.3 179.3 118.8 178.8 118.8 178.2C118.8 177.6 118.3 177.1 117.7 177.1Z" fill="white"/>
<path d="M82 189.6C82.6 189.6 83.1 189.1 83.1 188.5C83.1 187.9 82.6 187.4 82 187.4C81.4 187.4 80.9 187.9 80.9 188.5C80.9 189.1 81.4 189.6 82 189.6Z" fill="white"/>
<path d="M122.8 228.1C122.2 228.1 121.7 228.6 121.7 229.2C121.7 229.8 122.2 230.3 122.8 230.3C123.4 230.3 123.9 229.8 123.9 229.2C124 228.6 123.4 228.1 122.8 228.1Z" fill="white"/>
<path d="M97.3001 179.3C97.9076 179.3 98.4001 178.808 98.4001 178.2C98.4001 177.593 97.9076 177.1 97.3001 177.1C96.6926 177.1 96.2001 177.593 96.2001 178.2C96.2001 178.808 96.6926 179.3 97.3001 179.3Z" fill="white"/>
<path d="M112.6 207.7C112 207.7 111.5 208.2 111.5 208.8C111.5 209.4 112 209.9 112.6 209.9C113.2 209.9 113.7 209.4 113.7 208.8C113.8 208.2 113.2 207.7 112.6 207.7Z" fill="white"/>
<path d="M117.7 197.5C117.1 197.5 116.6 198 116.6 198.6C116.6 199.2 117.1 199.7 117.7 199.7C118.3 199.7 118.8 199.2 118.8 198.6C118.8 198 118.3 197.5 117.7 197.5Z" fill="white"/>
<path d="M107.5 199.7C108.108 199.7 108.6 199.208 108.6 198.6C108.6 197.992 108.108 197.5 107.5 197.5C106.893 197.5 106.4 197.992 106.4 198.6C106.4 199.208 106.893 199.7 107.5 199.7Z" fill="white"/>
<path d="M112.6 187.3C112 187.3 111.5 187.8 111.5 188.4C111.5 189 112 189.5 112.6 189.5C113.2 189.5 113.7 189 113.7 188.4C113.7 187.8 113.2 187.3 112.6 187.3Z" fill="white"/>
<path d="M139.3 239.4C139.3 238.8 138.8 238.3 138.2 238.3C138 238.3 137.9 238.3 137.8 238.4L138 240.6C138.1 240.6 138.1 240.6 138.2 240.6C138.7 240.6 139.3 240.1 139.3 239.4Z" fill="white"/>
<path d="M143.2 207.7C142.6 207.7 142.1 208.2 142.1 208.8C142.1 209.4 142.6 209.9 143.2 209.9C143.8 209.9 144.3 209.4 144.3 208.8C144.4 208.2 143.8 207.7 143.2 207.7Z" fill="white"/>
<path d="M137 198.6C137 199.2 137.5 199.7 138.1 199.7C138.7 199.7 139.2 199.2 139.2 198.6C139.2 198 138.7 197.5 138.1 197.5C137.5 197.5 137 198 137 198.6Z" fill="white"/>
<path d="M143.2 228.1C142.6 228.1 142.1 228.6 142.1 229.2C142.1 229.8 142.6 230.3 143.2 230.3C143.8 230.3 144.3 229.8 144.3 229.2C144.4 228.6 143.8 228.1 143.2 228.1Z" fill="white"/>
<path d="M127.9 199.8C128.5 199.8 129 199.3 129 198.7C129 198.1 128.5 197.6 127.9 197.6C127.3 197.6 126.8 198.1 126.8 198.7C126.8 199.3 127.3 199.8 127.9 199.8Z" fill="white"/>
<path d="M133 207.7C132.4 207.7 131.9 208.2 131.9 208.8C131.9 209.4 132.4 209.9 133 209.9C133.6 209.9 134.1 209.4 134.1 208.8C134.2 208.2 133.6 207.7 133 207.7Z" fill="white"/>
<path d="M148.3 217.9C147.7 217.9 147.2 218.4 147.2 219C147.2 219.6 147.7 220.1 148.3 220.1C148.9 220.1 149.4 219.6 149.4 219C149.4 218.4 148.9 217.9 148.3 217.9Z" fill="white"/>
<path d="M138.1 220.2C138.7 220.2 139.2 219.7 139.2 219.1C139.2 218.5 138.7 218 138.1 218C137.5 218 137 218.5 137 219.1C137 219.7 137.5 220.2 138.1 220.2Z" fill="white"/>
<path d="M85.9 178.2C85.9 178.8 86.4 179.3 87 179.3C87.6 179.3 88.1 178.8 88.1 178.2C88.1 177.6 87.6 177.1 87 177.1C86.5 177.1 85.9 177.6 85.9 178.2Z" fill="white"/>
<path d="M148.3 197.5C147.7 197.5 147.2 198 147.2 198.6C147.2 199.2 147.7 199.7 148.3 199.7C148.9 199.7 149.4 199.2 149.4 198.6C149.4 198 148.9 197.5 148.3 197.5Z" fill="white"/>
<path d="M148.3 240.6C148.9 240.6 149.4 240.1 149.4 239.5C149.4 238.9 148.9 238.4 148.3 238.4C147.7 238.4 147.2 238.9 147.2 239.5C147.2 240.1 147.7 240.6 148.3 240.6Z" fill="white"/>
<path d="M107.5 220.1C108.108 220.1 108.6 219.607 108.6 219C108.6 218.392 108.108 217.9 107.5 217.9C106.893 217.9 106.4 218.392 106.4 219C106.4 219.607 106.893 220.1 107.5 220.1Z" fill="white"/>
<path d="M122.8 189.5C123.408 189.5 123.9 189.008 123.9 188.4C123.9 187.793 123.408 187.3 122.8 187.3C122.193 187.3 121.7 187.793 121.7 188.4C121.7 189.008 122.193 189.5 122.8 189.5Z" fill="white"/>
<path d="M107.5 240.5C108.108 240.5 108.6 240.008 108.6 239.4C108.6 238.793 108.108 238.3 107.5 238.3C106.893 238.3 106.4 238.793 106.4 239.4C106.4 240.008 106.893 240.5 107.5 240.5Z" fill="white"/>
<path d="M88 238.8V240.2C88.1 240 88.2 239.8 88.2 239.5C88.2 239.2 88.1 239 88 238.8Z" fill="white"/>
<path d="M113.8 229.2C113.8 228.6 113.3 228.1 112.7 228.1C112.1 228.1 111.6 228.6 111.6 229.2C111.6 229.8 112.1 230.3 112.7 230.3C113.2 230.4 113.8 229.9 113.8 229.2Z" fill="white"/>
<path d="M124 208.8C124 208.2 123.5 207.7 122.9 207.7C122.3 207.7 121.8 208.2 121.8 208.8C121.8 209.4 122.3 209.9 122.9 209.9C123.5 209.9 124 209.5 124 208.8Z" fill="white"/>
<path d="M118.9 239.4C118.9 238.8 118.4 238.3 117.8 238.3C117.2 238.3 116.7 238.8 116.7 239.4C116.7 240 117.2 240.5 117.8 240.5C118.3 240.6 118.9 240.1 118.9 239.4Z" fill="white"/>
<path d="M117.7 217.9C117.1 217.9 116.6 218.4 116.6 219C116.6 219.6 117.1 220.1 117.7 220.1C118.3 220.1 118.8 219.6 118.8 219C118.8 218.4 118.3 217.9 117.7 217.9Z" fill="white"/>
<path d="M129.3 192.6L103 187.8C102.9 187.8 102.8 187.7 102.8 187.5C102.8 187.4 102.9 187.3 103.1 187.3L129.3 192.1C129.4 192.1 129.5 192.2 129.5 192.4C129.5 192.5 129.4 192.6 129.3 192.6Z" fill="#FFD400"/>
<path d="M127.3 216.2L102.6 215.8C102.5 215.8 102.4 215.7 102.4 215.6C102.4 215.5 102.5 215.4 102.6 215.4L127.3 215.8C127.4 215.8 127.5 215.9 127.5 216C127.5 216.1 127.5 216.2 127.3 216.2Z" fill="#FFD400"/>
<path d="M139.2 128.8C139.1 128.8 139.1 128.8 139.1 128.7C135.4 125.7 132.8 114.5 132.8 101.5C132.8 88.3001 135.6 76.8001 139.4 74.2001C139.5 74.1001 139.6 74.2001 139.7 74.3001C139.8 74.4001 139.7 74.5001 139.6 74.6001C135.9 77.2001 133.2 88.5001 133.2 101.6C133.2 114.3 135.8 125.5 139.4 128.4C139.5 128.5 139.5 128.6 139.4 128.7C139.3 128.7 139.3 128.8 139.2 128.8Z" fill="#FFD400"/>
<path d="M140.6 116.8C140.5 116.8 140.5 116.8 140.6 116.8C140.3 116.8 140.2 116.6 140.2 116.4C140.4 115.1 140.6 113.9 140.8 112.6C140.8 112.4 141 112.3 141.2 112.3C141.4 112.3 141.5 112.5 141.5 112.7C141.3 114 141.1 115.3 140.9 116.6C140.9 116.7 140.7 116.8 140.6 116.8Z" fill="white"/>
<path d="M141.6 109C141.4 109 141.2 108.8 141.2 108.6C142.3 95.7001 140.2 86.6001 140.2 86.5001C140.2 86.3001 140.3 86.1001 140.5 86.1001C140.7 86.1001 140.9 86.2001 140.9 86.4001C140.9 86.5001 143.1 95.8001 141.9 108.7C141.9 108.9 141.8 109 141.6 109Z" fill="white"/>
<path d="M136.1 146.7C133.1 147.5 139.2 141.4 137.1 139.9C136 139.1 133.3 142.2 130.4 145.5L127.1 144.1C127.2 145.3 127.3 146.5 127.1 148C127.1 148.4 127 148.8 126.9 149.2C125.4 150.5 123.8 151.3 122.6 152C117.8 154.9 99.4 161.3 95.9 163.7C95.9 164.3 93.8 151.7 93.8 151.7L80.1 153.5C80.1 153.5 74.2 133.3 78.3 128.4C79.2 127.3 81.1 126 83.2 124.8C88.4 121.8 95.3 118.9 95.3 118.9L96.9 124.1C98.1 127.9 101.6 130.3 105.5 130.2C110.2 130 113.9 126.1 113.9 121.5C113.9 121.3 113.9 121.1 113.9 120.9L113.8 119.4L124.6 123.3L128.4 124.7C129.6 125.1 130.8 125.8 131.8 126.5L142 133.6L136.4 146.6C136.4 146.6 136.2 146.6 136.1 146.7Z" fill="#FFD400"/>
<path d="M122.6 163C120.7 166 120.6 170.3 120.6 170.3C116 171.4 111.5 172 107.5 172.4C112.9 169.3 118.4 165.5 122.6 163Z" fill="#FFD400"/>
<path d="M114.7 97.7002C115.2 97.7002 115.5 98.2002 115.5 98.7002C115.5 99.3002 115.1 99.7002 114.7 99.7002C114.3 99.7002 113.9 99.2002 113.9 98.7002C113.9 98.1002 114.2 97.7002 114.7 97.7002Z" fill="#1F1A54"/>
<path d="M107.4 97.6001C107.8 97.6001 108.2 98.1001 108.2 98.6001C108.2 99.2001 107.8 99.6001 107.4 99.6001C107 99.6001 106.6 99.1001 106.6 98.6001C106.6 98.0001 106.9 97.6001 107.4 97.6001Z" fill="#1F1A54"/>
<path d="M124.7 123.4L113.9 119.5L111.8 118.6V114.5H110.7C111 114.4 111.4 114.3 111.8 114.2C112.5 113.9 113.3 113.5 114.1 112.9C116.3 111.2 117.9 108.2 118.3 103.7C118.6 100 118.4 95.3001 118.2 91.8001C115.8 91.0001 112.1 86.6001 112.1 86.6001C112.1 86.6001 110 90.8001 106 93.1001C101.2 95.8001 98.7 98.5001 98.7 98.5001C98.3 97.6001 97.3 96.0001 95.4 95.2001C93.3 94.3001 90.9 96.0001 90.5 98.9001L87.8 98.5001C88.5 94.4001 89.1 90.8001 89.9 88.1001C91 84.4001 94.7 83.4001 94.7 83.4001C99.2 75.7001 112.7 78.7001 119.9 85.8001C125.7 91.4001 122.5 120.1 124.9 123.1L124.7 123.4Z" fill="#1F1A54"/>
<path d="M90.5001 98.7998C90.4001 99.4998 90.4001 100.4 90.6001 101.2C91.3001 104.7 94.1001 106.6 97.8001 107.1V118L95.4001 118.9C95.4001 118.9 88.5001 121.8 83.3001 124.8L83.2001 124.6C85.4001 115.9 86.6001 106.1 87.9001 98.2998L90.5001 98.7998Z" fill="#1F1A54"/>
<path d="M107.5 172.3C102 175.5 96.7 177.9 93.3 177.7C90.9 177.6 88.8 175.1 86.9 171.7C88.9 172.1 96.9 173.2 107.5 172.3Z" fill="white"/>
<path d="M114.7 97.7C114.3 97.7 113.9 98.2 113.9 98.7C113.9 99.3 114.3 99.7 114.7 99.7C115.2 99.7 115.5 99.2 115.5 98.7C115.5 98.1 115.1 97.7 114.7 97.7ZM107.4 97.6C107 97.6 106.6 98.1 106.6 98.6C106.6 99.2 107 99.6 107.4 99.6C107.8 99.6 108.2 99.1 108.2 98.6C108.2 98 107.8 97.6 107.4 97.6ZM105.6 130.3C101.7 130.4 98.1 127.9 97 124.2L95.4 119L97.8 118.1V107.1C94.1 106.6 91.3 104.7 90.6 101.2C90.4 100.3 90.4 99.5 90.5 98.8C91 96 93.3 94.2 95.4 95.1C97.3 95.9 98.2 97.5 98.7 98.4C98.7 98.4 101.2 95.7 106 93C110 90.7 112.1 86.5 112.1 86.5C112.1 86.5 115.8 91 118.2 91.7C118.4 95.3 118.7 99.9 118.3 103.6C117.9 108.1 116.3 111.1 114.1 112.8C113.3 113.4 112.6 113.8 111.8 114.1C111.4 114.2 111.1 114.3 110.7 114.4H111.8V118.5L113.9 119.4L114 120.9C114 121.1 114 121.3 114 121.5C114 126.2 110.3 130.1 105.6 130.3Z" fill="white"/>
<path d="M120.6 170.6C120.4 170.6 120.2 170.4 120.2 170.2C120.2 170 120.3 165.8 122.3 162.7C122.4 162.5 122.6 162.5 122.8 162.6C123 162.7 123 162.9 122.9 163.1C121.1 166 121 170.2 121 170.2C121 170.5 120.8 170.6 120.6 170.6Z" fill="#1F1A54"/>
<path d="M127 149.6C126.7 149.6 126.6 149.4 126.6 149.2C126.7 148.8 126.7 148.4 126.8 148C126.9 146.7 126.9 145.5 126.8 144.2C126.4 140.6 125.1 138.4 125.1 138.4C125 138.2 125.1 138 125.2 137.9C125.4 137.8 125.6 137.9 125.7 138C125.8 138.1 127.1 140.4 127.5 144.1C127.6 145.4 127.7 146.7 127.5 148C127.5 148.4 127.4 148.9 127.3 149.3C127.3 149.5 127.2 149.6 127 149.6Z" fill="#1F1A54"/>
<path d="M109.2 95.9998C109.1 95.9998 109 95.9998 109 95.8998C108.3 95.3998 106.9 95.2998 106.1 95.7998C105.9 95.8998 105.7 95.8998 105.6 95.6998C105.5 95.4998 105.5 95.2998 105.7 95.1998C106.7 94.4998 108.4 94.5998 109.4 95.2998C109.6 95.3998 109.6 95.6998 109.5 95.7998C109.4 95.8998 109.3 95.9998 109.2 95.9998Z" fill="#1F1A54"/>
<path d="M116.2 95.9998C116.1 95.9998 116 95.9998 116 95.8998C115.2 95.2998 113.9 95.2998 113.1 95.7998C112.9 95.8998 112.7 95.8998 112.6 95.6998C112.5 95.4998 112.5 95.2998 112.7 95.1998C113.7 94.4998 115.4 94.5998 116.4 95.2998C116.6 95.3998 116.6 95.6998 116.5 95.7998C116.4 95.8998 116.3 95.9998 116.2 95.9998Z" fill="#1F1A54"/>
<path d="M108.3 108.4C108.3 108.4 108.2 108.4 108.3 108.4C105 107.7 104.3 104.9 104.3 104.7C104.3 104.5 104.4 104.3 104.6 104.3C104.8 104.3 105 104.4 105 104.6C105 104.7 105.6 107.1 108.4 107.7C108.6 107.7 108.7 107.9 108.7 108.1C108.6 108.3 108.5 108.4 108.3 108.4Z" fill="#1F1A54"/>
<path d="M111.1 103.9C110.4 103.9 109.8 103.6 109.8 103.6C109.6 103.5 109.6 103.3 109.6 103.1C109.7 102.9 109.9 102.9 110.1 102.9C110.1 102.9 111.1 103.4 111.9 102.9C112.1 102.8 112.3 102.8 112.4 103C112.5 103.2 112.5 103.4 112.3 103.5C111.9 103.9 111.4 103.9 111.1 103.9Z" fill="#1F1A54"/>
<path d="M96.6001 102.9C96.4001 102.9 96.3001 102.8 96.2001 102.6C95.9001 99.4999 94.1001 99.0999 94.0001 99.0999C93.8001 99.0999 93.7001 98.8999 93.7001 98.6999C93.7001 98.4999 93.9001 98.3999 94.1001 98.3999C94.2001 98.3999 96.6001 98.7999 96.9001 102.5C97.0001 102.7 96.8001 102.8 96.6001 102.9Z" fill="#1F1A54"/>
<path d="M95.3 119.3C95.2 119.3 95 119.2 95 119.1C94.9 118.9 95 118.7 95.2 118.6L97.3 117.8V107.1C97.3 106.9 97.5 106.7 97.7 106.7C97.9 106.7 98.1 106.9 98.1 107.1V118.1C98.1 118.3 98 118.4 97.9 118.4L95.5 119.3C95.4 119.3 95.4 119.3 95.3 119.3Z" fill="#1F1A54"/>
<path d="M113.9 119.8H113.8L111.7 118.9C111.6 118.8 111.5 118.7 111.5 118.6V114.5C111.5 114.3 111.7 114.1 111.9 114.1C112.1 114.1 112.3 114.3 112.3 114.5V118.4L114.2 119.2C114.4 119.3 114.5 119.5 114.4 119.7C114.2 119.7 114 119.8 113.9 119.8Z" fill="#1F1A54"/>
<path d="M130.4 145.9H130.3L127 144.5C126.8 144.4 126.7 144.2 126.8 144C126.9 143.8 127.1 143.7 127.3 143.8L130.6 145.2C130.8 145.3 130.9 145.5 130.8 145.7C130.7 145.8 130.5 145.9 130.4 145.9Z" fill="#1F1A54"/>
<path d="M80.2 153.9C80 153.9 79.9001 153.8 79.8001 153.6C79.6001 152.8 73.9 133.2 78 128.2C78.9 127.2 80.5 125.9 83 124.5C88.1 121.5 95.1 118.6 95.1 118.6C95.2 118.6 95.3 118.6 95.4 118.6C95.5 118.6 95.6 118.7 95.6 118.8L97.2 124C98.3 127.6 101.7 130 105.5 129.9C110 129.7 113.6 126.1 113.6 121.5C113.6 121.3 113.6 121.1 113.6 121L113.5 119.5C113.5 119.4 113.5 119.3 113.6 119.2C113.7 119.1 113.8 119.1 113.9 119.1L128.5 124.4C129.7 124.8 130.9 125.5 132 126.3L142.2 133.3C142.3 133.4 142.4 133.6 142.3 133.8L136.7 146.8C136.6 147 136.4 147.1 136.2 147C136 146.9 135.9 146.7 136 146.5L141.5 133.8L131.5 126.9C130.5 126.1 129.4 125.5 128.2 125.1L114.1 120L114.2 121C114.2 121.2 114.2 121.4 114.2 121.6C114.2 126.5 110.3 130.5 105.4 130.7C101.3 130.9 97.6 128.2 96.4 124.3L94.9 119.5C93.4 120.1 87.6 122.6 83.2 125.2C80.8 126.6 79.2 127.8 78.4 128.8C74.6 133.4 80.0001 152.4 80.3001 153.5C80.3001 153.5 80.3001 153.6 80.3001 153.7C80.5001 153.8 80.4 153.9 80.2 153.9Z" fill="#1F1A54"/>
<path d="M93.9 152.2C93.7 152.2 93.6 152.1 93.5 151.9L92 142.6C92 142.4 92.1 142.2 92.3 142.2C92.5 142.2 92.7 142.3 92.7 142.5L94.2 151.8C94.3 151.9 94.1 152.1 93.9 152.2Z" fill="#1F1A54"/>
<path d="M97.7 107.5C97.6 107.5 97.6 107.5 97.7 107.5C93.5 106.9 90.8 104.7 90.2 101.3C90 100.4 90 99.5999 90.1 98.6999C90.4 96.9999 91.3 95.5999 92.5 94.8999C93.5 94.3999 94.5 94.2999 95.5 94.6999C97.5 95.4999 98.5 97.1999 99 98.0999C99.2 98.4999 99.3 98.7999 99.3 98.7999C99.4 98.9999 99.3 99.1999 99.1 99.2999C98.9 99.3999 98.7 99.2999 98.6 99.0999C98.6 99.0999 98.5 98.8999 98.4 98.4999C98 97.6999 97.1 96.1999 95.3 95.3999C94.5 95.0999 93.7 95.0999 92.9 95.5999C91.8 96.1999 91.1 97.3999 90.8 98.7999C90.7 99.4999 90.7 100.3 90.9 101.1C91.5 104.2 93.9 106.1 97.7 106.7C97.9 106.7 98 106.9 98 107.1C98 107.3 97.8 107.5 97.7 107.5Z" fill="#1F1A54"/>
<path d="M83.1001 125C83.1001 125 83.0001 125 83.1001 125C82.8001 124.9 82.7001 124.7 82.7001 124.5C84.4001 117.8 85.5001 110.3 86.5001 103.7C86.8001 101.8 87.1001 99.9001 87.4001 98.2001C88.0001 94.6001 88.7001 90.6001 89.5001 87.8001C90.6001 84.3001 93.6001 83.2001 94.4001 82.9001C95.9001 80.4001 98.4001 78.9001 101.6 78.4001C107.5 77.6001 115.1 80.4001 120 85.3001C123.6 88.9001 123.8 100.9 124 110.5C124.1 116.2 124.2 121.6 125 122.7C125.1 122.9 125.1 123.1 124.9 123.2C124.7 123.3 124.5 123.3 124.4 123.1C123.4 121.8 123.3 116.8 123.2 110.5C123 101 122.9 89.1001 119.4 85.8001C114.7 81.2001 107.2 78.4001 101.6 79.1001C98.5001 79.5001 96.2001 81.0001 94.8001 83.3001C94.8001 83.4001 94.7001 83.4001 94.6001 83.5001C94.6001 83.5001 91.2001 84.5001 90.1001 87.9001C89.2001 90.7001 88.5001 94.7001 88.0001 98.2001C87.7001 100 87.4001 101.8 87.1001 103.7C86.1001 110.3 85.0001 117.8 83.3001 124.6C83.4001 124.9 83.3001 125 83.1001 125Z" fill="#1F1A54"/>
<path d="M98.7 98.7001C98.6 98.7001 98.5 98.7001 98.5 98.6001C98.3 98.5001 98.3 98.2001 98.5 98.1001C98.6 98.0001 101.1 95.3001 105.8 92.6001C109.7 90.4001 111.7 86.3001 111.8 86.3001C111.9 86.2001 112 86.1001 112.1 86.1001C112.2 86.1001 112.3 86.1001 112.4 86.2001C112.4 86.2001 116.1 90.6001 118.3 91.3001C118.5 91.4001 118.6 91.6001 118.5 91.8001C118.4 92.0001 118.2 92.1001 118 92.0001C115.9 91.3001 113.1 88.2001 112.1 87.1001C111.4 88.3001 109.4 91.4001 106.1 93.2001C101.4 95.9001 99 98.5001 98.9 98.6001C98.9 98.7001 98.8 98.7001 98.7 98.7001Z" fill="#1F1A54"/>
<path d="M109.2 114.9C108.6 114.9 108.1 114.8 107.7 114.8C107.6 114.8 107.6 114.8 107.5 114.8H107.4C105.7 114.5 104.1 113.6 102.9 112.4C102.8 112.3 102.8 112 102.9 111.9C103 111.8 103.3 111.8 103.4 111.9C104.5 112.9 106 113.8 107.5 114.1H107.6C107.7 114.1 107.7 114.1 107.8 114.1C108.5 114.2 109.5 114.3 110.7 114.1C111 114 111.3 113.9 111.7 113.8C112.4 113.5 113.2 113.1 113.9 112.6C116.2 110.8 117.6 107.7 118 103.7C118.3 99.9999 118.1 95.3999 117.9 91.7999C117.9 91.5999 118 91.3999 118.2 91.3999C118.4 91.3999 118.6 91.4999 118.6 91.6999C118.8 95.2999 119.1 99.8999 118.7 103.7C118.3 108 116.8 111.3 114.3 113.1C113.5 113.7 112.7 114.1 112 114.5C111.6 114.7 111.2 114.8 110.9 114.8C110.2 114.9 109.7 114.9 109.2 114.9Z" fill="#1F1A54"/>
<path d="M107.5 172.7C107.3 172.7 107.1 172.6 107.1 172.4C107.1 172.2 107.2 172 107.4 172C111.9 171.6 116.2 170.9 120.5 169.9C120.7 169.9 120.9 170 120.9 170.2C120.9 170.4 120.8 170.6 120.6 170.6C116.5 171.6 112.1 172.3 107.5 172.7Z" fill="#1F1A54"/>
<path d="M86.9 172.1C86.9 172.1 86.8 172.1 86.9 172.1L86.4 172C86.2 172 86.1 171.8 86.1 171.6C86.1 171.4 86.3 171.3 86.5 171.3L87 171.4C87.2 171.4 87.3 171.6 87.3 171.8C87.2 172 87.1 172.1 86.9 172.1Z" fill="#1F1A54"/>
<path d="M141.3 164.8H137.1L138 129.3H140.3L141.3 164.8Z" fill="#1F1A54"/>
<path d="M141.3 165.2H137.2C137.1 165.2 137 165.2 136.9 165.1C136.8 165 136.8 164.9 136.8 164.8L137.7 129.3C137.7 129.1 137.9 128.9 138.1 128.9H140.4C140.6 128.9 140.8 129.1 140.8 129.3L141.7 164.8C141.7 164.9 141.7 165 141.6 165.1C141.5 165.1 141.4 165.2 141.3 165.2ZM137.5 164.4H140.9L140 129.6H138.4L137.5 164.4Z" fill="#1F1A54"/>
<path d="M127 149.3C127.2 149.1 127.4 148.9 127.6 148.7C128.5 147.7 129.4 146.7 130.4 145.6L136 147.9L136.5 146.6C137.8 146.3 140.6 146 141.9 146.2C143.5 146.4 144.2 147.3 144.2 148C144.2 148.6 143.9 149 143.5 149.3C143.5 149.3 144.6 149.8 144.7 150.7C144.8 151.4 144.6 151.8 144.2 152.1C144.2 152.1 144.6 152.6 144.6 153.5C144.6 154.3 144.3 154.8 143.8 155.1C143.8 155.1 144 155.1 144 156C144 159.8 135.2 159.3 135.2 159.3C131.7 159.4 128.7 159.8 128.7 159.8C127.5 160.1 125.3 161.3 122.7 162.9C118.5 165.5 112.9 169.2 107.6 172.3C97.0001 173.2 88.9001 172 86.9001 171.7C82.9001 164.5 80.2001 153.5 80.2001 153.5L93.9001 151.7C93.9001 151.7 96.0001 164.3 96.0001 163.7C99.5001 161.3 117.9 154.9 122.7 152C124 151.3 125.6 150.6 127 149.3Z" fill="white"/>
<path d="M137.1 139.9C139.2 141.4 133.1 147.5 136.1 146.7C136.2 146.7 136.3 146.6 136.5 146.6L136 147.9L130.4 145.6C133.3 142.2 136 139.1 137.1 139.9Z" fill="white"/>
<path d="M142.5 153C142.3 153 142.2 153 142.2 153C142 153 141.9 152.8 141.9 152.6C141.9 152.4 142.1 152.2 142.3 152.3C142.3 152.3 143.4 152.4 144 151.9C144.3 151.7 144.4 151.3 144.3 150.8C144.3 150.3 143.6 149.8 143.3 149.7C143.1 149.6 143 149.4 143.1 149.2C143.2 149 143.4 148.9 143.6 149C143.7 149 144.9 149.6 145 150.7C145.1 151.6 144.7 152.1 144.4 152.4C143.9 152.9 143 153 142.5 153Z" fill="#1F1A54"/>
<path d="M141.9 156.1C141.7 156.1 141.5 155.9 141.5 155.7C141.5 155.5 141.7 155.3 141.9 155.3C141.9 155.3 142.9 155.3 143.6 154.8C144 154.5 144.2 154.1 144.2 153.5C144.2 152.8 143.9 152.3 143.9 152.3C143.8 152.1 143.8 151.9 144 151.8C144.2 151.7 144.4 151.7 144.5 151.9C144.5 151.9 144.9 152.5 144.9 153.5C144.9 154.3 144.6 155 144 155.4C143.2 156 142 156.1 141.9 156.1Z" fill="#1F1A54"/>
<path d="M93.7 178.1C93.5 178.1 93.4 178.1 93.3 178.1C91.1 178 88.8 175.9 86.6 171.9C82.6 164.8 79.9 153.7 79.9 153.6C79.9 153.5 79.9 153.4 80 153.3C80.1 153.2 80.2 153.2 80.3 153.1L94 151.3C94.2 151.3 94.4 151.4 94.4 151.6C95.1 155.6 96 161.3 96.4 163C98.6 161.7 103.7 159.7 109.1 157.5C114.6 155.3 120.3 153 122.7 151.6C123 151.4 123.3 151.2 123.7 151C124.7 150.4 125.9 149.8 127 148.8C127.2 148.6 127.4 148.4 127.6 148.2C128.5 147.2 129.4 146.1 130.3 145.1C133.9 141 136.2 138.5 137.5 139.4C138.8 140.4 137.6 142.6 136.7 144.3C136.3 144.9 135.8 145.9 135.8 146.2C135.8 146.2 136 146.2 136.2 146.1H136.3C136.4 146.1 136.5 146 136.6 146C137.9 145.7 140.8 145.4 142.1 145.6C143.9 145.8 144.8 146.9 144.8 147.8C144.8 148.4 144.5 148.9 144 149.3C144 149.3 144 149.3 143.9 149.3C143.2 149.8 142.2 150 142.1 150C141.9 150 141.7 149.9 141.7 149.7C141.7 149.5 141.8 149.3 142 149.3C142 149.3 142.8 149.2 143.4 148.8C143.8 148.5 144 148.2 144 147.8C144 147.2 143.4 146.5 142 146.3C140.7 146.1 138 146.4 136.7 146.7C136.6 146.7 136.5 146.7 136.4 146.8H136.3C135.9 146.9 135.4 147 135.1 146.6C134.7 146.1 135.2 145.2 135.9 143.9C136.7 142.5 137.8 140.5 137 140C136.2 139.4 133 143 130.8 145.6C129.9 146.6 128.9 147.7 128 148.7C127.8 148.9 127.6 149.1 127.3 149.4C126.2 150.4 125 151.1 123.9 151.7C123.6 151.9 123.2 152.1 122.9 152.3C120.5 153.7 114.7 156 109.2 158.3C103.7 160.5 98.1 162.8 96.3 164C96.2 164.1 96.2 164.1 96.1 164.1C96 164.1 95.9 164.1 95.7 163.7C95.7 163.7 95.7 163.7 95.7 163.6C95.4 162.7 95 160 93.7 152.1L80.7 153.8C81.2 155.8 83.7 165.2 87.3 171.5C89.4 175.2 91.5 177.2 93.4 177.3C96.3 177.5 100.9 175.7 107.4 172C110.8 170 114.4 167.7 117.6 165.7C119.3 164.6 121 163.5 122.5 162.6C122.5 162.6 122.5 162.6 122.6 162.6C125.7 160.7 127.6 159.7 128.7 159.5C128.8 159.5 131.8 159.1 135.3 159C135.4 159 141.2 159.2 143.2 157.4C143.6 157 143.8 156.6 143.8 156.1C143.8 155.7 143.8 155.6 143.8 155.5C143.7 155.4 143.7 155.3 143.7 155.2C143.7 155 143.9 154.8 144.1 154.8C144.7 154.8 144.7 155.7 144.7 156.1C144.7 156.8 144.4 157.5 143.9 158C141.7 160.1 135.8 159.8 135.5 159.8C132.1 159.9 129.1 160.3 129 160.3C127.7 160.6 125.2 162.1 123.2 163.3C123.2 163.3 123.2 163.3 123.1 163.3C121.6 164.2 119.9 165.3 118.2 166.4C115 168.4 111.5 170.7 108 172.7C101.2 176.4 96.8 178.1 93.7 178.1Z" fill="#1F1A54"/>
</g>
<defs>
<clipPath id="clip0">
<rect width="375" height="276.6" fill="white" transform="translate(0 12)"/>
</clipPath>
</defs>
</svg>
