<svg width="375" height="300" viewBox="0 0 375 300" fill="none" xmlns="http://www.w3.org/2000/svg">
<g clip-path="url(#clip0)">
<path d="M-0.189941 168.35C10.4081 167.597 21.0438 167.534 31.6501 168.16C111.65 173.16 238.72 244.26 259.36 225.47C261.56 223.47 263.86 220.31 262.15 216.05C261.04 213.3 255.61 210.16 250.75 212.7C245.89 215.24 242.23 221.24 246.57 230.14C250.91 239.04 261.66 242.6 271.57 243.96C287.38 246.13 303.57 236.96 319.57 224.65C332.12 214.97 354.31 197.39 374.77 184.05" stroke="white" stroke-width="1.8" stroke-miterlimit="10" stroke-linecap="round" stroke-dasharray="0 6 6 0"/>
<path d="M114.71 269.6C146.201 269.6 171.73 268.221 171.73 266.52C171.73 264.819 146.201 263.44 114.71 263.44C83.2187 263.44 57.6899 264.819 57.6899 266.52C57.6899 268.221 83.2187 269.6 114.71 269.6Z" fill="#FFEB86" fill-opacity="0.6"/>
<path d="M258.35 76.5498H218.74C216.702 76.5498 215.05 78.2019 215.05 80.2398V129.13C215.05 131.168 216.702 132.82 218.74 132.82H258.35C260.388 132.82 262.04 131.168 262.04 129.13V80.2398C262.04 78.2019 260.388 76.5498 258.35 76.5498Z" fill="#FFD400" stroke="#1F1A54" stroke-width="0.74" stroke-linecap="round" stroke-linejoin="round"/>
<path d="M224.1 118.79H252.94" stroke="#1F1A54" stroke-width="0.74" stroke-linecap="round" stroke-linejoin="round"/>
<path d="M224.1 123.37H240.73" stroke="#1F1A54" stroke-width="0.74" stroke-linecap="round" stroke-linejoin="round"/>
<path d="M247.14 123.37H253" stroke="#1F1A54" stroke-width="0.74" stroke-linecap="round" stroke-linejoin="round"/>
<path d="M248.09 112.24H229C228.52 112.217 228.051 112.09 227.624 111.868C227.198 111.646 226.825 111.334 226.532 110.954C226.238 110.573 226.03 110.134 225.923 109.665C225.815 109.197 225.811 108.711 225.91 108.24L228.68 94.0002C228.738 93.6423 228.921 93.3161 229.195 93.0786C229.469 92.8411 229.817 92.7072 230.18 92.7002H246.91C247.273 92.7072 247.621 92.8411 247.895 93.0786C248.17 93.3161 248.352 93.6423 248.41 94.0002L251.18 108.23C251.281 108.701 251.278 109.188 251.171 109.658C251.065 110.128 250.857 110.569 250.563 110.95C250.269 111.332 249.896 111.645 249.469 111.868C249.042 112.09 248.571 112.217 248.09 112.24Z" fill="white" stroke="#1F1A54" stroke-width="0.74" stroke-linecap="round" stroke-linejoin="round"/>
<path d="M233.83 100H243.26V101.83C243.26 102.65 242.934 103.435 242.355 104.015C241.776 104.594 240.99 104.92 240.17 104.92H236.89C236.071 104.92 235.285 104.594 234.705 104.015C234.126 103.435 233.8 102.65 233.8 101.83V100H233.83Z" fill="white" stroke="#1F1A54" stroke-width="0.74" stroke-linecap="round" stroke-linejoin="round"/>
<path d="M233.17 95.4201V90.6001C233.121 89.126 233.66 87.6928 234.666 86.6148C235.673 85.5369 237.066 84.9023 238.54 84.8501V84.8501C240.016 84.8997 241.411 85.5332 242.42 86.6114C243.429 87.6896 243.969 89.1243 243.92 90.6001V95.4201" stroke="#1F1A54" stroke-width="1.38" stroke-linecap="round" stroke-linejoin="round"/>
<path d="M226.91 145.74H187.3C185.262 145.74 183.61 147.392 183.61 149.43V198.32C183.61 200.358 185.262 202.01 187.3 202.01H226.91C228.948 202.01 230.6 200.358 230.6 198.32V149.43C230.6 147.392 228.948 145.74 226.91 145.74Z" fill="#FFD400" stroke="#1F1A54" stroke-width="0.74" stroke-linecap="round" stroke-linejoin="round"/>
<path d="M192.65 187.98H221.5" stroke="#1F1A54" stroke-width="0.74" stroke-linecap="round" stroke-linejoin="round"/>
<path d="M192.65 192.56H209.29" stroke="#1F1A54" stroke-width="0.74" stroke-linecap="round" stroke-linejoin="round"/>
<path d="M215.69 192.56H221.55" stroke="#1F1A54" stroke-width="0.74" stroke-linecap="round" stroke-linejoin="round"/>
<path d="M219.07 166C219.07 171.87 215.68 180.07 208.68 179.08C207.68 178.94 207.21 178.78 206.68 179.08C200.95 181.91 194.33 172.83 194.33 166.01C194.33 159.19 199.84 156.15 206.68 158.72C213.88 156.13 219.07 159.17 219.07 166Z" fill="white" stroke="#1F1A54" stroke-width="0.74" stroke-linecap="round" stroke-linejoin="round"/>
<path d="M203.38 160.2C204.502 160.692 205.728 160.902 206.95 160.81C208.21 160.81 210.25 160.86 210.75 160.18" fill="#FFD400"/>
<path d="M203.38 160.2C204.502 160.692 205.728 160.902 206.95 160.81C208.21 160.81 210.25 160.86 210.75 160.18" stroke="#1F1A54" stroke-width="0.74" stroke-linecap="round" stroke-linejoin="round"/>
<path d="M206.75 160.54C206.75 160.54 207.1 156.04 210.3 154.19" stroke="#1F1A54" stroke-width="0.74" stroke-linecap="round" stroke-linejoin="round"/>
<path d="M201.89 154.06H202.36C203.562 154.063 204.715 154.542 205.564 155.393C206.413 156.244 206.89 157.398 206.89 158.6V159.07H206.42C205.216 159.07 204.061 158.592 203.21 157.74C202.358 156.889 201.88 155.734 201.88 154.53V154.06H201.89Z" fill="#1F1A54" stroke="#1F1A54" stroke-width="0.74" stroke-linecap="round" stroke-linejoin="round"/>
<path d="M289.79 147.42H250.18C248.142 147.42 246.49 149.072 246.49 151.11V200C246.49 202.038 248.142 203.69 250.18 203.69H289.79C291.828 203.69 293.48 202.038 293.48 200V151.11C293.48 149.072 291.828 147.42 289.79 147.42Z" fill="#FFD400" stroke="#1F1A54" stroke-width="0.74" stroke-linecap="round" stroke-linejoin="round"/>
<path d="M255.54 189.67H284.39" stroke="#1F1A54" stroke-width="0.74" stroke-linecap="round" stroke-linejoin="round"/>
<path d="M255.54 194.25H272.17" stroke="#1F1A54" stroke-width="0.74" stroke-linecap="round" stroke-linejoin="round"/>
<path d="M278.58 194.25H284.44" stroke="#1F1A54" stroke-width="0.74" stroke-linecap="round" stroke-linejoin="round"/>
<path d="M283.03 173.88C283.03 177.29 277.45 180.3 270.56 180.3C263.67 180.3 258.09 177.3 258.09 173.88C258.09 170.46 263.67 165.6 270.56 165.6C277.45 165.6 283.03 170.48 283.03 173.88Z" fill="white" stroke="#1F1A54" stroke-width="0.74" stroke-linecap="round" stroke-linejoin="round"/>
<path d="M257.75 172.57C257.59 172.73 257.38 172.88 257.36 173.13C257.36 173.212 257.377 173.294 257.41 173.369C257.443 173.445 257.49 173.513 257.55 173.57C257.847 173.873 258.219 174.094 258.627 174.209C259.036 174.325 259.468 174.332 259.88 174.23C260.688 174.012 261.523 173.911 262.36 173.93C262.803 173.981 263.214 174.183 263.526 174.501C263.837 174.82 264.029 175.236 264.07 175.68C264.051 175.845 264.083 176.013 264.16 176.16C264.27 176.249 264.409 176.295 264.55 176.29C265.32 176.36 266.05 176.98 266.82 176.83C267.42 176.71 267.92 176.13 268.53 176.1C268.87 176.139 269.205 176.213 269.53 176.32C271.07 176.59 272.53 174.63 273.99 175.15C274.3 175.26 274.57 175.47 274.87 175.59C275.452 175.775 276.072 175.806 276.67 175.68C276.757 175.449 276.894 175.241 277.071 175.069C277.248 174.898 277.462 174.769 277.695 174.69C277.929 174.612 278.177 174.586 278.422 174.615C278.666 174.645 278.902 174.728 279.11 174.86C279.26 174.96 279.39 175.1 279.56 175.11C280.03 175.17 280.19 174.37 280.56 174.11C280.93 173.85 281.36 174.03 281.76 173.95C282.002 173.87 282.22 173.732 282.394 173.547C282.569 173.362 282.695 173.136 282.76 172.89C282.917 172.371 282.997 171.832 283 171.29C283.025 171.085 283.005 170.876 282.94 170.68C282.857 170.506 282.734 170.355 282.58 170.24C281.67 169.456 280.603 168.877 279.45 168.54C279.266 168.466 279.065 168.445 278.87 168.48C278.605 168.591 278.371 168.767 278.19 168.99C276.8 170.32 274.8 170.18 273.01 169.99C272.257 169.941 271.519 169.758 270.83 169.45C270.672 169.357 270.508 169.273 270.34 169.2C270.151 169.113 269.953 169.046 269.75 169C267.29 168.643 264.918 167.836 262.75 166.62C262.563 166.469 262.334 166.38 262.094 166.363C261.854 166.347 261.616 166.405 261.41 166.53C260.565 166.807 259.779 167.237 259.09 167.8C258.75 168.096 258.483 168.467 258.309 168.883C258.136 169.299 258.061 169.75 258.09 170.2C258.16 171.08 258.54 171.83 257.75 172.57Z" fill="#FFD400" stroke="#1F1A54" stroke-width="0.74" stroke-linecap="round" stroke-linejoin="round"/>
<path d="M283.03 168.3C283.03 172.3 277.45 173.93 270.56 173.93C263.67 173.93 258.09 172.33 258.09 168.3C258.09 164.27 263.67 163.5 270.56 163.5C277.45 163.5 283.03 164.26 283.03 168.3Z" fill="#1F1A54" stroke="#1F1A54" stroke-width="0.74" stroke-linecap="round" stroke-linejoin="round"/>
<path d="M283.03 164.3C283.03 167.7 277.45 169.89 270.56 169.89C263.67 169.89 258.09 167.7 258.09 164.3C258.09 160.9 263.67 156.02 270.56 156.02C277.45 156.02 283.03 160.9 283.03 164.3Z" fill="white" stroke="#1F1A54" stroke-width="0.74" stroke-linecap="round" stroke-linejoin="round"/>
<path d="M271.91 165.43L272.24 165.3" stroke="#1F1A54" stroke-width="0.74" stroke-linecap="round" stroke-linejoin="round"/>
<path d="M274.87 160.92L274.35 160.84" stroke="#1F1A54" stroke-width="0.74" stroke-linecap="round" stroke-linejoin="round"/>
<path d="M270.87 161.25H270.75" stroke="#1F1A54" stroke-width="0.74" stroke-linecap="round" stroke-linejoin="round"/>
<path d="M265.87 161.92L266.02 161.66" stroke="#1F1A54" stroke-width="0.74" stroke-linecap="round" stroke-linejoin="round"/>
<path d="M262.34 162.88L262.56 162.62" stroke="#1F1A54" stroke-width="0.74" stroke-linecap="round" stroke-linejoin="round"/>
<path d="M269.83 158H270.2" stroke="#1F1A54" stroke-width="0.74" stroke-linecap="round" stroke-linejoin="round"/>
<path d="M277.31 163L277.61 162.83" stroke="#1F1A54" stroke-width="0.74" stroke-linecap="round" stroke-linejoin="round"/>
<path d="M267.01 164.25L267.23 164.08" stroke="#1F1A54" stroke-width="0.74" stroke-linecap="round" stroke-linejoin="round"/>
<path d="M265.23 158.34H265.45" stroke="#1F1A54" stroke-width="0.74" stroke-linecap="round" stroke-linejoin="round"/>
<path d="M274.69 158.29L275.03 158.37" stroke="#1F1A54" stroke-width="0.74" stroke-linecap="round" stroke-linejoin="round"/>
<path d="M141.88 133.7L148.88 138.22L167.16 121.09C169.827 118.623 172.573 116.29 175.4 114.09L178.85 111.4C179.184 111.139 179.574 110.961 179.99 110.88L196.86 107.5C197.047 107.751 197.173 108.042 197.227 108.35C197.281 108.658 197.262 108.975 197.172 109.275C197.081 109.574 196.922 109.848 196.706 110.075C196.491 110.302 196.225 110.475 195.93 110.58L187.32 113.24C185.9 113.98 185.73 115.71 187.25 115.92L191.31 116.19C193.24 116.52 193.61 118.8 191.71 118.99C189.81 119.18 182.31 120.37 181.36 120.59C178.749 121.196 176.439 122.709 174.84 124.86C170.14 131.24 162.3 143.55 157.47 149.99C155.82 152.2 153.47 153.74 150.86 152.88L137.19 147.88" fill="white"/>
<path d="M141.88 133.7L148.88 138.22L167.16 121.09C169.827 118.623 172.573 116.29 175.4 114.09L178.85 111.4C179.184 111.139 179.574 110.961 179.99 110.88L196.86 107.5C197.047 107.751 197.173 108.042 197.227 108.35C197.281 108.658 197.262 108.975 197.172 109.275C197.081 109.574 196.922 109.848 196.706 110.075C196.491 110.302 196.225 110.475 195.93 110.58L187.32 113.24C185.9 113.98 185.73 115.71 187.25 115.92L191.31 116.19C193.24 116.52 193.61 118.8 191.71 118.99C189.81 119.18 182.31 120.37 181.36 120.59C178.749 121.196 176.439 122.709 174.84 124.86C170.14 131.24 162.3 143.55 157.47 149.99C155.82 152.2 153.47 153.74 150.86 152.88L137.19 147.88" stroke="#1F1A54" stroke-width="0.74" stroke-linecap="round" stroke-linejoin="round"/>
<path d="M128.4 192.49C128.46 182.65 120.4 170.25 120.4 170.25" stroke="#1F1A54" stroke-width="0.74" stroke-linecap="round" stroke-linejoin="round"/>
<path d="M103.07 215.06L104.75 228.52L87.75 232.16V244.77L118.96 244.2C120.241 244.212 121.48 243.74 122.427 242.878C123.375 242.015 123.962 240.827 124.07 239.55L126.48 215.4" stroke="#1F1A54" stroke-width="0.74" stroke-linecap="round" stroke-linejoin="round"/>
<path d="M86.13 171.67C86.13 171.67 83.43 178.24 82.2 181.67C77.2 195.67 79.76 214.6 99.77 215.05L135.23 215.59L137.96 244L151.14 244.23L151.86 204.52C151.894 202.472 151.199 200.479 149.901 198.895C148.603 197.311 146.785 196.239 144.77 195.87L102.75 188.11" stroke="#1F1A54" stroke-width="0.74" stroke-linecap="round" stroke-linejoin="round"/>
<path d="M169.64 259.34C169.979 259.63 170.211 260.024 170.3 260.46C170.42 261.46 169.3 262.23 167.2 262.7C162.6 263.7 138.13 259.61 138.13 259.61C138.13 259.61 138.55 257.83 139.07 254.74C139.47 254.897 139.886 255.011 140.31 255.08C141.829 255.349 143.391 255.228 144.85 254.73C146.659 254.09 148.387 253.241 150 252.2C150.84 251.66 151.34 251.2 151.26 251.12C151.864 251.827 152.564 252.447 153.34 252.96C154.181 253.562 155.063 254.103 155.98 254.58C156.74 254.98 157.55 255.36 158.39 255.7C158.89 255.91 159.39 256.1 159.94 256.26L161 256.6C162.62 257.09 164.3 257.6 165.53 257.88C167.1 258.3 168.89 258.62 169.64 259.34Z" fill="white"/>
<path d="M144.85 254.73C143.39 255.228 141.829 255.349 140.31 255.08L140.39 254.73L139.68 243.46H149.42L150 252.02V252.2C148.387 253.24 146.659 254.089 144.85 254.73Z" fill="#FFD400"/>
<path d="M170.31 262.35C169.85 264.35 168.04 265.93 162.13 265.86C158.22 265.81 139.6 265.09 137.75 264.86C135.9 264.63 137.45 261.86 138.13 259.59C138.13 259.59 162.6 263.72 167.2 262.68C169.26 262.21 170.42 261.42 170.3 260.44C170.3 260.44 170.64 260.89 170.31 262.35Z" fill="white"/>
<path d="M87.7499 233.08V243.52L78.1299 244.27H78.0699C76.9352 242.559 76.015 240.715 75.3299 238.78C74.8067 237.241 74.7099 235.589 75.0499 234L87.7499 233.08Z" fill="#FFD400"/>
<path d="M78.06 244.31C78.49 244.95 78.83 245.31 78.92 245.24C78.207 245.845 77.584 246.549 77.07 247.33C76.4619 248.179 75.9171 249.071 75.44 250C75.0215 250.78 74.6443 251.581 74.31 252.4C74.1 252.91 73.9 253.4 73.74 253.95L73.41 255C72.91 256.62 72.41 258.29 72.11 259.53C71.68 261.09 71.36 262.88 70.63 263.63C70.3462 263.97 69.9545 264.203 69.52 264.29C68.52 264.41 67.75 263.23 67.29 261.17C66.29 256.57 70.46 232.17 70.46 232.17C70.46 232.17 72.24 232.59 75.34 233.12C75.2152 233.444 75.1182 233.779 75.05 234.12C74.7012 235.718 74.7946 237.381 75.32 238.93C76.0132 240.827 76.9332 242.634 78.06 244.31Z" fill="white"/>
<path d="M70.46 232.09C70.46 232.09 66.26 256.54 67.29 261.09C67.75 263.15 68.55 264.33 69.52 264.21C69.52 264.21 69.08 264.55 67.63 264.21C65.63 263.74 64.04 261.93 64.14 256.02C64.2 252.11 64.97 233.5 65.2 231.64C65.43 229.78 68.21 231.4 70.46 232.09Z" fill="white"/>
<path d="M139.07 254.73C139.47 254.886 139.886 255 140.31 255.07C141.829 255.339 143.391 255.218 144.85 254.72C146.659 254.079 148.387 253.23 150 252.19C150.84 251.65 151.34 251.19 151.26 251.11C151.864 251.817 152.564 252.436 153.34 252.95C154.181 253.551 155.063 254.093 155.98 254.57C156.74 254.97 157.55 255.35 158.39 255.69C158.89 255.9 159.39 256.09 159.94 256.25L161 256.59C162.62 257.08 164.3 257.59 165.53 257.87C167.1 258.29 168.89 258.61 169.64 259.33C169.979 259.619 170.211 260.013 170.3 260.45C170.42 261.45 169.3 262.22 167.2 262.69C162.6 263.69 138.13 259.6 138.13 259.6C138.13 259.6 138.55 257.82 139.07 254.73" stroke="#1F1A54" stroke-width="0.74" stroke-linecap="round" stroke-linejoin="round"/>
<path d="M170.31 260.46C170.31 260.46 170.64 260.89 170.31 262.35C169.85 264.35 168.04 265.93 162.13 265.86C158.22 265.81 139.6 265.09 137.75 264.86C135.9 264.63 137.45 261.86 138.13 259.59" stroke="#1F1A54" stroke-width="0.74" stroke-linecap="round" stroke-linejoin="round"/>
<path d="M152.29 254.15L153.35 252.97L154.42 251.76" stroke="#1F1A54" stroke-width="0.74" stroke-linecap="round" stroke-linejoin="round"/>
<path d="M154.89 256.05L155.98 254.58L156.84 253.43" stroke="#1F1A54" stroke-width="0.74" stroke-linecap="round" stroke-linejoin="round"/>
<path d="M157.46 257.19L158.39 255.7L159.21 254.38" stroke="#1F1A54" stroke-width="0.74" stroke-linecap="round" stroke-linejoin="round"/>
<path d="M160.03 258.15L161.01 256.6L161.79 255.35" stroke="#1F1A54" stroke-width="0.74" stroke-linecap="round" stroke-linejoin="round"/>
<path d="M70.46 232.09C70.46 232.09 72.24 232.51 75.34 233.04C75.2152 233.364 75.1182 233.699 75.0501 234.04C74.7013 235.638 74.7946 237.301 75.3201 238.85C76.0051 240.785 76.9253 242.629 78.06 244.34C78.49 244.98 78.83 245.34 78.92 245.27C78.207 245.875 77.5841 246.579 77.0701 247.36C76.4632 248.199 75.9184 249.081 75.4401 250C75.0215 250.779 74.6443 251.581 74.31 252.4C74.1 252.91 73.9 253.4 73.74 253.95L73.4101 255C72.9101 256.62 72.4101 258.29 72.1101 259.53C71.6801 261.09 71.36 262.88 70.63 263.63C70.3463 263.97 69.9546 264.203 69.52 264.29C68.52 264.41 67.7501 263.23 67.2901 261.17C66.2601 256.54 70.46 232.09 70.46 232.09Z" stroke="#1F1A54" stroke-width="0.74" stroke-linecap="round" stroke-linejoin="round"/>
<path d="M69.52 264.26C69.52 264.26 69.08 264.6 67.63 264.26C65.63 263.79 64.04 261.98 64.14 256.07C64.2 252.16 64.97 233.55 65.2 231.69C65.43 229.83 68.2 231.4 70.46 232.09" stroke="#1F1A54" stroke-width="0.74" stroke-linecap="round" stroke-linejoin="round"/>
<path d="M75.88 246.26L77.07 247.33L78.27 248.41" stroke="#1F1A54" stroke-width="0.74" stroke-linecap="round" stroke-linejoin="round"/>
<path d="M73.97 248.86L75.45 249.96L76.6 250.81" stroke="#1F1A54" stroke-width="0.74" stroke-linecap="round" stroke-linejoin="round"/>
<path d="M72.83 251.42L74.31 252.36L75.62 253.19" stroke="#1F1A54" stroke-width="0.74" stroke-linecap="round" stroke-linejoin="round"/>
<path d="M71.85 254L73.41 254.97L74.65 255.76" stroke="#1F1A54" stroke-width="0.74" stroke-linecap="round" stroke-linejoin="round"/>
<path d="M140.39 254.74L139.68 243.46H149.42L150 252.03" stroke="#1F1A54" stroke-width="0.74" stroke-linecap="round" stroke-linejoin="round"/>
<path d="M75.05 234.01L87.74 233.08V243.52L78.12 244.27" stroke="#1F1A54" stroke-width="0.74" stroke-linecap="round" stroke-linejoin="round"/>
<path d="M141.73 129.28C146.215 129.28 149.85 116.874 149.85 101.57C149.85 86.2661 146.215 73.8599 141.73 73.8599C137.245 73.8599 133.61 86.2661 133.61 101.57C133.61 116.874 137.245 129.28 141.73 129.28Z" fill="#1F1A54" stroke="#1F1A54" stroke-width="0.74" stroke-linecap="round" stroke-linejoin="round"/>
<path d="M141.75 73.8599H136.86C132.37 73.8599 128.74 86.2699 128.74 101.57C128.74 116.87 132.37 129.28 136.86 129.28H141.75" fill="#1F1A54"/>
<path d="M141.75 73.8599H136.86C132.37 73.8599 128.74 86.2699 128.74 101.57C128.74 116.87 132.37 129.28 136.86 129.28H141.75" stroke="#1F1A54" stroke-width="0.74" stroke-linecap="round" stroke-linejoin="round"/>
<path d="M141.73 125.79C144.768 125.79 147.23 114.946 147.23 101.57C147.23 88.1938 144.768 77.3501 141.73 77.3501C138.692 77.3501 136.23 88.1938 136.23 101.57C136.23 114.946 138.692 125.79 141.73 125.79Z" fill="#FFD400" stroke="#1F1A54" stroke-width="0.74" stroke-linecap="round" stroke-linejoin="round"/>
<path d="M139.93 78.75C142.87 82.46 144.46 91.28 144.46 101.57C144.46 111.86 142.87 120.68 139.93 124.39" fill="#FFD400"/>
<path d="M139.93 78.75C142.87 82.46 144.46 91.28 144.46 101.57C144.46 111.86 142.87 120.68 139.93 124.39" stroke="#1F1A54" stroke-width="0.74" stroke-linecap="round" stroke-linejoin="round"/>
<path d="M128.34 192.82L144.77 195.82C146.784 196.189 148.601 197.261 149.897 198.846C151.194 200.43 151.886 202.423 151.85 204.47L151.14 244.18L137.96 244L135.23 215.58L126.47 215.44L103.07 215.08H99.77C79.77 214.62 77.14 195.7 82.2 181.7C83.43 178.32 86.13 171.7 86.13 171.7C97.5324 173.423 109.159 172.941 120.38 170.28C120.38 170.28 128.46 182.68 128.38 192.53L128.34 192.82ZM103.07 215L104.75 228.52L87.75 232.17V244.78L118.96 244.2C120.24 244.207 121.476 243.733 122.422 242.872C123.369 242.011 123.957 240.825 124.07 239.55L126.48 215.4L103.07 215Z" fill="#1F1A54"/>
<mask id="mask0" mask-type="alpha" maskUnits="userSpaceOnUse" x="79" y="170" width="73" height="75">
<path d="M128.34 192.82L144.77 195.82C146.784 196.189 148.601 197.261 149.897 198.846C151.194 200.43 151.886 202.423 151.85 204.47L151.14 244.18L137.96 244L135.23 215.58L126.47 215.44L103.07 215.08H99.7699C79.7699 214.62 77.1399 195.7 82.1999 181.7C83.4299 178.32 86.1299 171.7 86.1299 171.7C97.5322 173.423 109.159 172.941 120.38 170.28C120.38 170.28 128.46 182.68 128.38 192.53L128.34 192.82ZM103.07 215L104.75 228.52L87.7499 232.17V244.78L118.96 244.2C120.24 244.207 121.476 243.733 122.422 242.872C123.369 242.011 123.957 240.825 124.07 239.55L126.48 215.4L103.07 215Z" fill="#1F1A54"/>
</mask>
<g mask="url(#mask0)">
<path d="M81.7501 169.86C82.1128 169.858 82.4667 169.749 82.7675 169.546C83.0684 169.344 83.3026 169.057 83.4409 168.721C83.5792 168.386 83.6154 168.018 83.5449 167.662C83.4744 167.306 83.3003 166.979 83.0446 166.722C82.7889 166.465 82.4629 166.289 82.1075 166.217C81.7522 166.144 81.3834 166.179 81.0474 166.315C80.7115 166.452 80.4233 166.684 80.2192 166.984C80.0151 167.284 79.9041 167.637 79.9001 168C79.8975 168.244 79.9434 168.486 80.0353 168.712C80.1272 168.938 80.2633 169.144 80.4354 169.317C80.6076 169.49 80.8126 169.627 81.0383 169.721C81.264 169.814 81.506 169.861 81.7501 169.86Z" fill="white" stroke="#1F1A54" stroke-width="1.38" stroke-miterlimit="10"/>
<path d="M91.9402 169.86C92.3033 169.86 92.6582 169.752 92.9603 169.551C93.2625 169.35 93.4983 169.063 93.6381 168.728C93.778 168.393 93.8156 168.024 93.7462 167.668C93.6768 167.312 93.5035 166.984 93.2482 166.726C92.9929 166.468 92.6669 166.291 92.3113 166.218C91.9557 166.144 91.5864 166.178 91.2498 166.314C90.9133 166.45 90.6245 166.683 90.42 166.983C90.2154 167.283 90.1042 167.637 90.1002 168C90.0976 168.243 90.1432 168.484 90.2345 168.71C90.3258 168.936 90.4609 169.141 90.632 169.314C90.8031 169.487 91.0069 169.624 91.2314 169.718C91.456 169.811 91.6969 169.86 91.9402 169.86Z" fill="white" stroke="#1F1A54" stroke-width="1.38" stroke-miterlimit="10"/>
<path d="M102.14 169.86C102.504 169.86 102.86 169.752 103.162 169.55C103.465 169.347 103.701 169.06 103.84 168.724C103.979 168.388 104.016 168.018 103.945 167.661C103.874 167.304 103.699 166.976 103.441 166.719C103.184 166.461 102.856 166.286 102.499 166.215C102.142 166.144 101.772 166.18 101.436 166.32C101.1 166.459 100.812 166.695 100.61 166.997C100.408 167.3 100.3 167.656 100.3 168.02C100.3 168.508 100.494 168.976 100.839 169.321C101.184 169.666 101.652 169.86 102.14 169.86Z" fill="white" stroke="#1F1A54" stroke-width="1.38" stroke-miterlimit="10"/>
<path d="M112.35 169.86C112.714 169.86 113.07 169.752 113.372 169.55C113.675 169.347 113.911 169.06 114.05 168.724C114.189 168.388 114.226 168.018 114.155 167.661C114.084 167.304 113.909 166.976 113.651 166.719C113.394 166.461 113.066 166.286 112.709 166.215C112.352 166.144 111.982 166.18 111.646 166.32C111.31 166.459 111.022 166.695 110.82 166.997C110.618 167.3 110.51 167.656 110.51 168.02C110.51 168.261 110.558 168.501 110.65 168.724C110.743 168.947 110.878 169.15 111.049 169.321C111.22 169.492 111.423 169.627 111.646 169.72C111.869 169.812 112.108 169.86 112.35 169.86Z" fill="white" stroke="#1F1A54" stroke-width="1.38" stroke-miterlimit="10"/>
<path d="M122.55 169.86C122.915 169.868 123.274 169.767 123.581 169.571C123.888 169.374 124.13 169.091 124.276 168.757C124.422 168.422 124.466 168.052 124.401 167.693C124.336 167.334 124.166 167.003 123.912 166.741C123.659 166.478 123.333 166.298 122.976 166.221C122.619 166.145 122.248 166.176 121.909 166.311C121.57 166.446 121.279 166.678 121.073 166.979C120.867 167.28 120.754 167.635 120.75 168C120.745 168.484 120.931 168.951 121.268 169.3C121.605 169.648 122.066 169.849 122.55 169.86Z" fill="white" stroke="#1F1A54" stroke-width="1.38" stroke-miterlimit="10"/>
<path d="M132.75 169.86C133.114 169.86 133.47 169.752 133.772 169.55C134.075 169.347 134.311 169.06 134.45 168.724C134.589 168.388 134.626 168.018 134.555 167.661C134.484 167.304 134.309 166.976 134.051 166.719C133.794 166.461 133.466 166.286 133.109 166.215C132.752 166.144 132.382 166.18 132.046 166.32C131.71 166.459 131.422 166.695 131.22 166.997C131.018 167.3 130.91 167.656 130.91 168.02C130.91 168.508 131.104 168.976 131.449 169.321C131.794 169.666 132.262 169.86 132.75 169.86Z" fill="white" stroke="#1F1A54" stroke-width="1.38" stroke-miterlimit="10"/>
<path d="M142.96 169.86C143.324 169.86 143.68 169.752 143.982 169.55C144.285 169.347 144.521 169.06 144.66 168.724C144.799 168.388 144.836 168.018 144.765 167.661C144.694 167.304 144.519 166.976 144.261 166.719C144.004 166.461 143.676 166.286 143.319 166.215C142.962 166.144 142.592 166.18 142.256 166.32C141.92 166.459 141.632 166.695 141.43 166.997C141.228 167.3 141.12 167.656 141.12 168.02C141.119 168.262 141.166 168.502 141.258 168.725C141.35 168.949 141.485 169.153 141.656 169.324C141.827 169.495 142.031 169.63 142.254 169.722C142.478 169.814 142.718 169.861 142.96 169.86Z" fill="white" stroke="#1F1A54" stroke-width="1.38" stroke-miterlimit="10"/>
<path d="M153.16 169.86C153.524 169.86 153.88 169.752 154.182 169.55C154.485 169.347 154.721 169.06 154.86 168.724C154.999 168.388 155.036 168.018 154.965 167.661C154.894 167.304 154.719 166.976 154.461 166.719C154.204 166.461 153.876 166.286 153.519 166.215C153.162 166.144 152.792 166.18 152.456 166.32C152.12 166.459 151.832 166.695 151.63 166.997C151.428 167.3 151.32 167.656 151.32 168.02C151.32 168.508 151.514 168.976 151.859 169.321C152.204 169.666 152.672 169.86 153.16 169.86Z" fill="white" stroke="#1F1A54" stroke-width="1.38" stroke-miterlimit="10"/>
<path d="M86.8401 180.06C87.204 180.06 87.5598 179.952 87.8624 179.75C88.165 179.548 88.4008 179.26 88.5401 178.924C88.6793 178.588 88.7158 178.218 88.6448 177.861C88.5738 177.504 88.3985 177.176 88.1412 176.919C87.8839 176.661 87.556 176.486 87.1991 176.415C86.8422 176.344 86.4722 176.381 86.136 176.52C85.7998 176.659 85.5124 176.895 85.3102 177.198C85.108 177.5 85.0001 177.856 85.0001 178.22C85.0001 178.708 85.194 179.176 85.539 179.521C85.8841 179.866 86.3521 180.06 86.8401 180.06Z" fill="white" stroke="#1F1A54" stroke-width="1.38" stroke-miterlimit="10"/>
<path d="M97.0402 180.06C97.4041 180.06 97.7599 179.952 98.0624 179.75C98.365 179.548 98.6009 179.26 98.7401 178.924C98.8794 178.588 98.9158 178.218 98.8448 177.861C98.7738 177.504 98.5986 177.176 98.3413 176.919C98.0839 176.661 97.7561 176.486 97.3992 176.415C97.0422 176.344 96.6723 176.381 96.3361 176.52C95.9998 176.659 95.7125 176.895 95.5103 177.198C95.3081 177.5 95.2002 177.856 95.2002 178.22C95.2002 178.708 95.3941 179.176 95.7391 179.521C96.0842 179.866 96.5522 180.06 97.0402 180.06Z" fill="white" stroke="#1F1A54" stroke-width="1.38" stroke-miterlimit="10"/>
<path d="M107.25 180.06C107.614 180.06 107.97 179.952 108.272 179.75C108.575 179.548 108.811 179.26 108.95 178.924C109.089 178.588 109.126 178.218 109.055 177.861C108.984 177.504 108.809 177.176 108.551 176.919C108.294 176.661 107.966 176.486 107.609 176.415C107.252 176.344 106.882 176.381 106.546 176.52C106.21 176.659 105.922 176.895 105.72 177.198C105.518 177.5 105.41 177.856 105.41 178.22C105.409 178.462 105.456 178.702 105.548 178.926C105.64 179.149 105.775 179.353 105.946 179.524C106.117 179.695 106.321 179.831 106.544 179.923C106.768 180.015 107.008 180.061 107.25 180.06Z" fill="white" stroke="#1F1A54" stroke-width="1.38" stroke-miterlimit="10"/>
<path d="M117.45 180.06C117.814 180.06 118.17 179.952 118.472 179.75C118.775 179.548 119.011 179.26 119.15 178.924C119.289 178.588 119.326 178.218 119.255 177.861C119.184 177.504 119.009 177.176 118.751 176.919C118.494 176.661 118.166 176.486 117.809 176.415C117.452 176.344 117.082 176.381 116.746 176.52C116.41 176.659 116.122 176.895 115.92 177.198C115.718 177.5 115.61 177.856 115.61 178.22C115.61 178.708 115.804 179.176 116.149 179.521C116.494 179.866 116.962 180.06 117.45 180.06Z" fill="white" stroke="#1F1A54" stroke-width="1.38" stroke-miterlimit="10"/>
<path d="M127.65 180.06C128.014 180.06 128.37 179.952 128.672 179.75C128.975 179.548 129.211 179.26 129.35 178.924C129.489 178.588 129.526 178.218 129.455 177.861C129.384 177.504 129.209 177.176 128.951 176.919C128.694 176.661 128.366 176.486 128.009 176.415C127.652 176.344 127.282 176.381 126.946 176.52C126.61 176.659 126.322 176.895 126.12 177.198C125.918 177.5 125.81 177.856 125.81 178.22C125.81 178.708 126.004 179.176 126.349 179.521C126.694 179.866 127.162 180.06 127.65 180.06Z" fill="white" stroke="#1F1A54" stroke-width="1.38" stroke-miterlimit="10"/>
<path d="M137.85 180.06C138.214 180.06 138.57 179.952 138.872 179.75C139.175 179.548 139.411 179.26 139.55 178.924C139.689 178.588 139.726 178.218 139.655 177.861C139.584 177.504 139.409 177.176 139.151 176.919C138.894 176.661 138.566 176.486 138.209 176.415C137.852 176.344 137.482 176.381 137.146 176.52C136.81 176.659 136.522 176.895 136.32 177.198C136.118 177.5 136.01 177.856 136.01 178.22C136.01 178.708 136.204 179.176 136.549 179.521C136.894 179.866 137.362 180.06 137.85 180.06Z" fill="white" stroke="#1F1A54" stroke-width="1.38" stroke-miterlimit="10"/>
<path d="M148.06 180.06C148.424 180.06 148.78 179.952 149.082 179.75C149.385 179.548 149.621 179.26 149.76 178.924C149.899 178.588 149.936 178.218 149.865 177.861C149.794 177.504 149.619 177.176 149.361 176.919C149.104 176.661 148.776 176.486 148.419 176.415C148.062 176.344 147.692 176.381 147.356 176.52C147.02 176.659 146.732 176.895 146.53 177.198C146.328 177.5 146.22 177.856 146.22 178.22C146.22 178.708 146.414 179.176 146.759 179.521C147.104 179.866 147.572 180.06 148.06 180.06Z" fill="white" stroke="#1F1A54" stroke-width="1.38" stroke-miterlimit="10"/>
<path d="M81.7502 190.27C82.1141 190.27 82.4698 190.162 82.7724 189.96C83.075 189.758 83.3108 189.47 83.4501 189.134C83.5894 188.798 83.6258 188.428 83.5548 188.071C83.4838 187.714 83.3086 187.386 83.0512 187.129C82.7939 186.871 82.466 186.696 82.1091 186.625C81.7522 186.554 81.3822 186.591 81.046 186.73C80.7098 186.869 80.4224 187.105 80.2202 187.408C80.0181 187.71 79.9102 188.066 79.9102 188.43C79.9128 188.917 80.1075 189.384 80.452 189.728C80.7965 190.073 81.263 190.267 81.7502 190.27Z" fill="white" stroke="#1F1A54" stroke-width="1.38" stroke-miterlimit="10"/>
<path d="M91.9401 190.27C92.304 190.27 92.6598 190.162 92.9623 189.96C93.2649 189.758 93.5008 189.47 93.64 189.134C93.7793 188.798 93.8157 188.428 93.7447 188.071C93.6737 187.714 93.4985 187.386 93.2412 187.129C92.9838 186.871 92.656 186.696 92.2991 186.625C91.9421 186.554 91.5722 186.591 91.236 186.73C90.8997 186.869 90.6124 187.105 90.4102 187.408C90.208 187.71 90.1001 188.066 90.1001 188.43C90.1001 188.918 90.294 189.386 90.639 189.731C90.9841 190.076 91.4521 190.27 91.9401 190.27Z" fill="white" stroke="#1F1A54" stroke-width="1.38" stroke-miterlimit="10"/>
<path d="M102.14 190.27C102.504 190.27 102.86 190.162 103.162 189.96C103.465 189.758 103.701 189.47 103.84 189.134C103.979 188.798 104.016 188.428 103.945 188.071C103.874 187.714 103.699 187.386 103.441 187.129C103.184 186.871 102.856 186.696 102.499 186.625C102.142 186.554 101.772 186.591 101.436 186.73C101.1 186.869 100.812 187.105 100.61 187.408C100.408 187.71 100.3 188.066 100.3 188.43C100.3 188.918 100.494 189.386 100.839 189.731C101.184 190.076 101.652 190.27 102.14 190.27Z" fill="white" stroke="#1F1A54" stroke-width="1.38" stroke-miterlimit="10"/>
<path d="M112.35 190.27C112.714 190.27 113.07 190.162 113.372 189.96C113.675 189.758 113.911 189.47 114.05 189.134C114.189 188.798 114.226 188.428 114.155 188.071C114.084 187.714 113.909 187.386 113.651 187.129C113.394 186.871 113.066 186.696 112.709 186.625C112.352 186.554 111.982 186.591 111.646 186.73C111.31 186.869 111.022 187.105 110.82 187.408C110.618 187.71 110.51 188.066 110.51 188.43C110.513 188.917 110.707 189.384 111.052 189.728C111.396 190.073 111.863 190.267 112.35 190.27Z" fill="white" stroke="#1F1A54" stroke-width="1.38" stroke-miterlimit="10"/>
<path d="M122.55 190.27C122.914 190.27 123.27 190.162 123.572 189.96C123.875 189.758 124.111 189.47 124.25 189.134C124.389 188.798 124.426 188.428 124.355 188.071C124.284 187.714 124.109 187.386 123.851 187.129C123.594 186.871 123.266 186.696 122.909 186.625C122.552 186.554 122.182 186.591 121.846 186.73C121.51 186.869 121.222 187.105 121.02 187.408C120.818 187.71 120.71 188.066 120.71 188.43C120.713 188.917 120.908 189.384 121.252 189.728C121.597 190.073 122.063 190.267 122.55 190.27Z" fill="white" stroke="#1F1A54" stroke-width="1.38" stroke-miterlimit="10"/>
<path d="M132.75 190.27C133.114 190.27 133.47 190.162 133.772 189.96C134.075 189.758 134.311 189.47 134.45 189.134C134.589 188.798 134.626 188.428 134.555 188.071C134.484 187.714 134.309 187.386 134.051 187.129C133.794 186.871 133.466 186.696 133.109 186.625C132.752 186.554 132.382 186.591 132.046 186.73C131.71 186.869 131.422 187.105 131.22 187.408C131.018 187.71 130.91 188.066 130.91 188.43C130.91 188.918 131.104 189.386 131.449 189.731C131.794 190.076 132.262 190.27 132.75 190.27Z" fill="white" stroke="#1F1A54" stroke-width="1.38" stroke-miterlimit="10"/>
<path d="M142.96 190.27C143.324 190.27 143.68 190.162 143.982 189.96C144.285 189.758 144.521 189.47 144.66 189.134C144.799 188.798 144.836 188.428 144.765 188.071C144.694 187.714 144.519 187.386 144.261 187.129C144.004 186.871 143.676 186.696 143.319 186.625C142.962 186.554 142.592 186.591 142.256 186.73C141.92 186.869 141.632 187.105 141.43 187.408C141.228 187.71 141.12 188.066 141.12 188.43C141.12 188.918 141.314 189.386 141.659 189.731C142.004 190.076 142.472 190.27 142.96 190.27Z" fill="white" stroke="#1F1A54" stroke-width="1.38" stroke-miterlimit="10"/>
<path d="M153.16 190.27C153.524 190.27 153.88 190.162 154.182 189.96C154.485 189.758 154.721 189.47 154.86 189.134C154.999 188.798 155.036 188.428 154.965 188.071C154.894 187.714 154.719 187.386 154.461 187.129C154.204 186.871 153.876 186.696 153.519 186.625C153.162 186.554 152.792 186.591 152.456 186.73C152.12 186.869 151.832 187.105 151.63 187.408C151.428 187.71 151.32 188.066 151.32 188.43C151.323 188.917 151.518 189.384 151.862 189.728C152.207 190.073 152.673 190.267 153.16 190.27Z" fill="white" stroke="#1F1A54" stroke-width="1.38" stroke-miterlimit="10"/>
<path d="M86.8401 200.47C87.204 200.47 87.5598 200.362 87.8624 200.159C88.165 199.957 88.4008 199.67 88.5401 199.334C88.6793 198.997 88.7158 198.628 88.6448 198.271C88.5738 197.914 88.3985 197.586 88.1412 197.328C87.8839 197.071 87.556 196.896 87.1991 196.825C86.8422 196.754 86.4722 196.79 86.136 196.93C85.7998 197.069 85.5124 197.305 85.3102 197.607C85.108 197.91 85.0001 198.266 85.0001 198.63C85.0001 199.118 85.194 199.586 85.539 199.931C85.8841 200.276 86.3521 200.47 86.8401 200.47Z" fill="white" stroke="#1F1A54" stroke-width="1.38" stroke-miterlimit="10"/>
<path d="M97.0402 200.47C97.4041 200.47 97.7599 200.362 98.0624 200.159C98.365 199.957 98.6009 199.67 98.7401 199.334C98.8794 198.997 98.9158 198.628 98.8448 198.271C98.7738 197.914 98.5986 197.586 98.3413 197.328C98.0839 197.071 97.7561 196.896 97.3992 196.825C97.0422 196.754 96.6723 196.79 96.3361 196.93C95.9998 197.069 95.7125 197.305 95.5103 197.607C95.3081 197.91 95.2002 198.266 95.2002 198.63C95.2002 199.118 95.3941 199.586 95.7391 199.931C96.0842 200.276 96.5522 200.47 97.0402 200.47Z" fill="white" stroke="#1F1A54" stroke-width="1.38" stroke-miterlimit="10"/>
<path d="M107.25 200.47C107.614 200.47 107.97 200.362 108.272 200.159C108.575 199.957 108.811 199.67 108.95 199.334C109.089 198.997 109.126 198.628 109.055 198.271C108.984 197.914 108.809 197.586 108.551 197.328C108.294 197.071 107.966 196.896 107.609 196.825C107.252 196.754 106.882 196.79 106.546 196.93C106.21 197.069 105.922 197.305 105.72 197.607C105.518 197.91 105.41 198.266 105.41 198.63C105.409 198.872 105.456 199.111 105.548 199.335C105.64 199.559 105.775 199.762 105.946 199.934C106.117 200.105 106.321 200.24 106.544 200.332C106.768 200.424 107.008 200.471 107.25 200.47Z" fill="white" stroke="#1F1A54" stroke-width="1.38" stroke-miterlimit="10"/>
<path d="M117.45 200.47C117.814 200.47 118.17 200.362 118.472 200.159C118.775 199.957 119.011 199.67 119.15 199.334C119.289 198.997 119.326 198.628 119.255 198.271C119.184 197.914 119.009 197.586 118.751 197.328C118.494 197.071 118.166 196.896 117.809 196.825C117.452 196.754 117.082 196.79 116.746 196.93C116.41 197.069 116.122 197.305 115.92 197.607C115.718 197.91 115.61 198.266 115.61 198.63C115.61 199.118 115.804 199.586 116.149 199.931C116.494 200.276 116.962 200.47 117.45 200.47Z" fill="white" stroke="#1F1A54" stroke-width="1.38" stroke-miterlimit="10"/>
<path d="M127.65 200.47C128.014 200.47 128.37 200.362 128.672 200.159C128.975 199.957 129.211 199.67 129.35 199.334C129.489 198.997 129.526 198.628 129.455 198.271C129.384 197.914 129.209 197.586 128.951 197.328C128.694 197.071 128.366 196.896 128.009 196.825C127.652 196.754 127.282 196.79 126.946 196.93C126.61 197.069 126.322 197.305 126.12 197.607C125.918 197.91 125.81 198.266 125.81 198.63C125.81 199.118 126.004 199.586 126.349 199.931C126.694 200.276 127.162 200.47 127.65 200.47Z" fill="white" stroke="#1F1A54" stroke-width="1.38" stroke-miterlimit="10"/>
<path d="M137.85 200.47C138.214 200.47 138.57 200.362 138.872 200.159C139.175 199.957 139.411 199.67 139.55 199.334C139.689 198.997 139.726 198.628 139.655 198.271C139.584 197.914 139.409 197.586 139.151 197.328C138.894 197.071 138.566 196.896 138.209 196.825C137.852 196.754 137.482 196.79 137.146 196.93C136.81 197.069 136.522 197.305 136.32 197.607C136.118 197.91 136.01 198.266 136.01 198.63C136.01 199.118 136.204 199.586 136.549 199.931C136.894 200.276 137.362 200.47 137.85 200.47Z" fill="white" stroke="#1F1A54" stroke-width="1.38" stroke-miterlimit="10"/>
<path d="M148.06 200.47C148.424 200.47 148.78 200.362 149.082 200.159C149.385 199.957 149.621 199.67 149.76 199.334C149.899 198.997 149.936 198.628 149.865 198.271C149.794 197.914 149.619 197.586 149.361 197.328C149.104 197.071 148.776 196.896 148.419 196.825C148.062 196.754 147.692 196.79 147.356 196.93C147.02 197.069 146.732 197.305 146.53 197.607C146.328 197.91 146.22 198.266 146.22 198.63C146.22 199.118 146.414 199.586 146.759 199.931C147.104 200.276 147.572 200.47 148.06 200.47Z" fill="white" stroke="#1F1A54" stroke-width="1.38" stroke-miterlimit="10"/>
<path d="M81.7502 210.67C82.1141 210.67 82.4698 210.562 82.7724 210.36C83.075 210.157 83.3108 209.87 83.4501 209.534C83.5894 209.198 83.6258 208.828 83.5548 208.471C83.4838 208.114 83.3086 207.786 83.0512 207.529C82.7939 207.271 82.466 207.096 82.1091 207.025C81.7522 206.954 81.3822 206.991 81.046 207.13C80.7098 207.269 80.4224 207.505 80.2202 207.807C80.0181 208.11 79.9102 208.466 79.9102 208.83C79.9102 209.318 80.104 209.786 80.4491 210.131C80.7941 210.476 81.2622 210.67 81.7502 210.67Z" fill="white" stroke="#1F1A54" stroke-width="1.38" stroke-miterlimit="10"/>
<path d="M91.9401 210.67C92.304 210.67 92.6598 210.562 92.9623 210.36C93.2649 210.157 93.5008 209.87 93.64 209.534C93.7793 209.198 93.8157 208.828 93.7447 208.471C93.6737 208.114 93.4985 207.786 93.2412 207.529C92.9838 207.271 92.656 207.096 92.2991 207.025C91.9421 206.954 91.5722 206.991 91.236 207.13C90.8997 207.269 90.6124 207.505 90.4102 207.807C90.208 208.11 90.1001 208.466 90.1001 208.83C90.1001 209.318 90.294 209.786 90.639 210.131C90.9841 210.476 91.4521 210.67 91.9401 210.67Z" fill="white" stroke="#1F1A54" stroke-width="1.38" stroke-miterlimit="10"/>
<path d="M102.14 210.67C102.504 210.67 102.86 210.562 103.162 210.36C103.465 210.157 103.701 209.87 103.84 209.534C103.979 209.198 104.016 208.828 103.945 208.471C103.874 208.114 103.699 207.786 103.441 207.529C103.184 207.271 102.856 207.096 102.499 207.025C102.142 206.954 101.772 206.991 101.436 207.13C101.1 207.269 100.812 207.505 100.61 207.807C100.408 208.11 100.3 208.466 100.3 208.83C100.3 209.318 100.494 209.786 100.839 210.131C101.184 210.476 101.652 210.67 102.14 210.67Z" fill="white" stroke="#1F1A54" stroke-width="1.38" stroke-miterlimit="10"/>
<path d="M112.35 210.67C112.714 210.67 113.07 210.562 113.372 210.36C113.675 210.157 113.911 209.87 114.05 209.534C114.189 209.198 114.226 208.828 114.155 208.471C114.084 208.114 113.909 207.786 113.651 207.529C113.394 207.271 113.066 207.096 112.709 207.025C112.352 206.954 111.982 206.991 111.646 207.13C111.31 207.269 111.022 207.505 110.82 207.807C110.618 208.11 110.51 208.466 110.51 208.83C110.51 209.071 110.558 209.311 110.65 209.534C110.743 209.757 110.878 209.96 111.049 210.131C111.22 210.302 111.423 210.437 111.646 210.53C111.869 210.622 112.108 210.67 112.35 210.67Z" fill="white" stroke="#1F1A54" stroke-width="1.38" stroke-miterlimit="10"/>
<path d="M122.55 210.67C122.914 210.67 123.27 210.562 123.572 210.36C123.875 210.157 124.111 209.87 124.25 209.534C124.389 209.198 124.426 208.828 124.355 208.471C124.284 208.114 124.109 207.786 123.851 207.529C123.594 207.271 123.266 207.096 122.909 207.025C122.552 206.954 122.182 206.991 121.846 207.13C121.51 207.269 121.222 207.505 121.02 207.807C120.818 208.11 120.71 208.466 120.71 208.83C120.71 209.071 120.758 209.311 120.85 209.534C120.943 209.757 121.078 209.96 121.249 210.131C121.42 210.302 121.623 210.437 121.846 210.53C122.069 210.622 122.309 210.67 122.55 210.67Z" fill="white" stroke="#1F1A54" stroke-width="1.38" stroke-miterlimit="10"/>
<path d="M132.75 210.67C133.114 210.67 133.47 210.562 133.772 210.36C134.075 210.157 134.311 209.87 134.45 209.534C134.589 209.198 134.626 208.828 134.555 208.471C134.484 208.114 134.309 207.786 134.051 207.529C133.794 207.271 133.466 207.096 133.109 207.025C132.752 206.954 132.382 206.991 132.046 207.13C131.71 207.269 131.422 207.505 131.22 207.807C131.018 208.11 130.91 208.466 130.91 208.83C130.91 209.318 131.104 209.786 131.449 210.131C131.794 210.476 132.262 210.67 132.75 210.67Z" fill="white" stroke="#1F1A54" stroke-width="1.38" stroke-miterlimit="10"/>
<path d="M142.96 210.67C143.324 210.67 143.68 210.562 143.982 210.36C144.285 210.157 144.521 209.87 144.66 209.534C144.799 209.198 144.836 208.828 144.765 208.471C144.694 208.114 144.519 207.786 144.261 207.529C144.004 207.271 143.676 207.096 143.319 207.025C142.962 206.954 142.592 206.991 142.256 207.13C141.92 207.269 141.632 207.505 141.43 207.807C141.228 208.11 141.12 208.466 141.12 208.83C141.119 209.072 141.166 209.312 141.258 209.535C141.35 209.759 141.485 209.963 141.656 210.134C141.827 210.305 142.031 210.44 142.254 210.532C142.478 210.624 142.718 210.671 142.96 210.67Z" fill="white" stroke="#1F1A54" stroke-width="1.38" stroke-miterlimit="10"/>
<path d="M153.16 210.67C153.524 210.67 153.88 210.562 154.182 210.36C154.485 210.157 154.721 209.87 154.86 209.534C154.999 209.198 155.036 208.828 154.965 208.471C154.894 208.114 154.719 207.786 154.461 207.529C154.204 207.271 153.876 207.096 153.519 207.025C153.162 206.954 152.792 206.991 152.456 207.13C152.12 207.269 151.832 207.505 151.63 207.807C151.428 208.11 151.32 208.466 151.32 208.83C151.32 209.318 151.514 209.786 151.859 210.131C152.204 210.476 152.672 210.67 153.16 210.67Z" fill="white" stroke="#1F1A54" stroke-width="1.38" stroke-miterlimit="10"/>
<path d="M86.8401 220.88C87.2023 220.88 87.5564 220.773 87.8581 220.572C88.1598 220.372 88.3955 220.087 88.5359 219.753C88.6763 219.419 88.715 219.051 88.6471 218.695C88.5793 218.339 88.408 218.012 88.1547 217.753C87.9013 217.494 87.5772 217.316 87.223 217.24C86.8687 217.165 86.5001 217.195 86.1633 217.329C85.8264 217.462 85.5364 217.691 85.3295 217.989C85.1226 218.286 85.008 218.638 85.0001 219C84.9962 219.244 85.0407 219.487 85.1313 219.715C85.2219 219.942 85.3566 220.149 85.5277 220.324C85.6989 220.499 85.903 220.638 86.1282 220.733C86.3535 220.829 86.5955 220.878 86.8401 220.88Z" fill="white" stroke="#1F1A54" stroke-width="1.38" stroke-miterlimit="10"/>
<path d="M97.0502 220.88C98.0664 220.88 98.8902 220.056 98.8902 219.04C98.8902 218.023 98.0664 217.2 97.0502 217.2C96.034 217.2 95.2102 218.023 95.2102 219.04C95.2102 220.056 96.034 220.88 97.0502 220.88Z" fill="white" stroke="#1F1A54" stroke-width="1.38" stroke-miterlimit="10"/>
<path d="M107.25 220.88C107.614 220.88 107.97 220.772 108.272 220.57C108.575 220.367 108.811 220.08 108.95 219.744C109.089 219.408 109.126 219.038 109.055 218.681C108.984 218.324 108.809 217.996 108.551 217.739C108.294 217.481 107.966 217.306 107.609 217.235C107.252 217.164 106.882 217.201 106.546 217.34C106.21 217.479 105.922 217.715 105.72 218.017C105.518 218.32 105.41 218.676 105.41 219.04C105.41 219.528 105.604 219.996 105.949 220.341C106.294 220.686 106.762 220.88 107.25 220.88Z" fill="white" stroke="#1F1A54" stroke-width="1.38" stroke-miterlimit="10"/>
<path d="M117.45 220.88C117.814 220.88 118.17 220.772 118.472 220.57C118.775 220.367 119.011 220.08 119.15 219.744C119.289 219.408 119.326 219.038 119.255 218.681C119.184 218.324 119.009 217.996 118.751 217.739C118.494 217.481 118.166 217.306 117.809 217.235C117.452 217.164 117.082 217.201 116.746 217.34C116.41 217.479 116.122 217.715 115.92 218.017C115.718 218.32 115.61 218.676 115.61 219.04C115.613 219.527 115.807 219.993 116.152 220.338C116.496 220.682 116.963 220.877 117.45 220.88Z" fill="white" stroke="#1F1A54" stroke-width="1.38" stroke-miterlimit="10"/>
<path d="M127.65 220.88C128.014 220.88 128.37 220.772 128.672 220.57C128.975 220.367 129.211 220.08 129.35 219.744C129.489 219.408 129.526 219.038 129.455 218.681C129.384 218.324 129.209 217.996 128.951 217.739C128.694 217.481 128.366 217.306 128.009 217.235C127.652 217.164 127.282 217.201 126.946 217.34C126.61 217.479 126.322 217.715 126.12 218.017C125.918 218.32 125.81 218.676 125.81 219.04C125.81 219.528 126.004 219.996 126.349 220.341C126.694 220.686 127.162 220.88 127.65 220.88Z" fill="white" stroke="#1F1A54" stroke-width="1.38" stroke-miterlimit="10"/>
<path d="M137.85 220.88C138.214 220.88 138.57 220.772 138.872 220.57C139.175 220.367 139.411 220.08 139.55 219.744C139.689 219.408 139.726 219.038 139.655 218.681C139.584 218.324 139.409 217.996 139.151 217.739C138.894 217.481 138.566 217.306 138.209 217.235C137.852 217.164 137.482 217.201 137.146 217.34C136.81 217.479 136.522 217.715 136.32 218.017C136.118 218.32 136.01 218.676 136.01 219.04C136.01 219.528 136.204 219.996 136.549 220.341C136.894 220.686 137.362 220.88 137.85 220.88Z" fill="white" stroke="#1F1A54" stroke-width="1.38" stroke-miterlimit="10"/>
<path d="M148.06 220.88C148.424 220.88 148.78 220.772 149.082 220.57C149.385 220.367 149.621 220.08 149.76 219.744C149.899 219.408 149.936 219.038 149.865 218.681C149.794 218.324 149.619 217.996 149.361 217.739C149.104 217.481 148.776 217.306 148.419 217.235C148.062 217.164 147.692 217.201 147.356 217.34C147.02 217.479 146.732 217.715 146.53 218.017C146.328 218.32 146.22 218.676 146.22 219.04C146.223 219.527 146.418 219.993 146.762 220.338C147.107 220.682 147.573 220.877 148.06 220.88Z" fill="white" stroke="#1F1A54" stroke-width="1.38" stroke-miterlimit="10"/>
<path d="M81.7502 231.08C82.1141 231.08 82.4698 230.972 82.7724 230.77C83.075 230.568 83.3108 230.28 83.4501 229.944C83.5894 229.608 83.6258 229.238 83.5548 228.881C83.4838 228.524 83.3086 228.196 83.0512 227.939C82.7939 227.682 82.466 227.506 82.1091 227.435C81.7522 227.364 81.3822 227.401 81.046 227.54C80.7098 227.679 80.4224 227.915 80.2202 228.218C80.0181 228.52 79.9102 228.876 79.9102 229.24C79.9128 229.727 80.1075 230.194 80.452 230.538C80.7965 230.883 81.263 231.077 81.7502 231.08Z" fill="white" stroke="#1F1A54" stroke-width="1.38" stroke-miterlimit="10"/>
<path d="M91.9401 231.08C92.304 231.08 92.6598 230.972 92.9623 230.77C93.2649 230.568 93.5008 230.28 93.64 229.944C93.7793 229.608 93.8157 229.238 93.7447 228.881C93.6737 228.524 93.4985 228.196 93.2412 227.939C92.9838 227.682 92.656 227.506 92.2991 227.435C91.9421 227.364 91.5722 227.401 91.236 227.54C90.8997 227.679 90.6124 227.915 90.4102 228.218C90.208 228.52 90.1001 228.876 90.1001 229.24C90.1001 229.728 90.294 230.196 90.639 230.541C90.9841 230.886 91.4521 231.08 91.9401 231.08Z" fill="white" stroke="#1F1A54" stroke-width="1.38" stroke-miterlimit="10"/>
<path d="M102.14 231.08C102.504 231.08 102.86 230.972 103.162 230.77C103.465 230.568 103.701 230.28 103.84 229.944C103.979 229.608 104.016 229.238 103.945 228.881C103.874 228.524 103.699 228.196 103.441 227.939C103.184 227.682 102.856 227.506 102.499 227.435C102.142 227.364 101.772 227.401 101.436 227.54C101.1 227.679 100.812 227.915 100.61 228.218C100.408 228.52 100.3 228.876 100.3 229.24C100.3 229.728 100.494 230.196 100.839 230.541C101.184 230.886 101.652 231.08 102.14 231.08Z" fill="white" stroke="#1F1A54" stroke-width="1.38" stroke-miterlimit="10"/>
<path d="M112.35 231.08C112.714 231.08 113.07 230.972 113.372 230.77C113.675 230.568 113.911 230.28 114.05 229.944C114.189 229.608 114.226 229.238 114.155 228.881C114.084 228.524 113.909 228.196 113.651 227.939C113.394 227.682 113.066 227.506 112.709 227.435C112.352 227.364 111.982 227.401 111.646 227.54C111.31 227.679 111.022 227.915 110.82 228.218C110.618 228.52 110.51 228.876 110.51 229.24C110.513 229.727 110.707 230.194 111.052 230.538C111.396 230.883 111.863 231.077 112.35 231.08Z" fill="white" stroke="#1F1A54" stroke-width="1.38" stroke-miterlimit="10"/>
<path d="M122.55 231.08C122.914 231.08 123.27 230.972 123.572 230.77C123.875 230.568 124.111 230.28 124.25 229.944C124.389 229.608 124.426 229.238 124.355 228.881C124.284 228.524 124.109 228.196 123.851 227.939C123.594 227.682 123.266 227.506 122.909 227.435C122.552 227.364 122.182 227.401 121.846 227.54C121.51 227.679 121.222 227.915 121.02 228.218C120.818 228.52 120.71 228.876 120.71 229.24C120.713 229.727 120.908 230.194 121.252 230.538C121.597 230.883 122.063 231.077 122.55 231.08Z" fill="white" stroke="#1F1A54" stroke-width="1.38" stroke-miterlimit="10"/>
<path d="M132.75 231.08C133.114 231.08 133.47 230.972 133.772 230.77C134.075 230.568 134.311 230.28 134.45 229.944C134.589 229.608 134.626 229.238 134.555 228.881C134.484 228.524 134.309 228.196 134.051 227.939C133.794 227.682 133.466 227.506 133.109 227.435C132.752 227.364 132.382 227.401 132.046 227.54C131.71 227.679 131.422 227.915 131.22 228.218C131.018 228.52 130.91 228.876 130.91 229.24C130.91 229.728 131.104 230.196 131.449 230.541C131.794 230.886 132.262 231.08 132.75 231.08Z" fill="white" stroke="#1F1A54" stroke-width="1.38" stroke-miterlimit="10"/>
<path d="M142.96 231.08C143.324 231.08 143.68 230.972 143.982 230.77C144.285 230.568 144.521 230.28 144.66 229.944C144.799 229.608 144.836 229.238 144.765 228.881C144.694 228.524 144.519 228.196 144.261 227.939C144.004 227.682 143.676 227.506 143.319 227.435C142.962 227.364 142.592 227.401 142.256 227.54C141.92 227.679 141.632 227.915 141.43 228.218C141.228 228.52 141.12 228.876 141.12 229.24C141.12 229.728 141.314 230.196 141.659 230.541C142.004 230.886 142.472 231.08 142.96 231.08Z" fill="white" stroke="#1F1A54" stroke-width="1.38" stroke-miterlimit="10"/>
<path d="M153.16 231.08C153.524 231.08 153.88 230.972 154.182 230.77C154.485 230.568 154.721 230.28 154.86 229.944C154.999 229.608 155.036 229.238 154.965 228.881C154.894 228.524 154.719 228.196 154.461 227.939C154.204 227.682 153.876 227.506 153.519 227.435C153.162 227.364 152.792 227.401 152.456 227.54C152.12 227.679 151.832 227.915 151.63 228.218C151.428 228.52 151.32 228.876 151.32 229.24C151.323 229.727 151.518 230.194 151.862 230.538C152.207 230.883 152.673 231.077 153.16 231.08Z" fill="white" stroke="#1F1A54" stroke-width="1.38" stroke-miterlimit="10"/>
<path d="M86.8401 241.28C87.204 241.28 87.5598 241.172 87.8624 240.97C88.165 240.767 88.4008 240.48 88.5401 240.144C88.6793 239.808 88.7158 239.438 88.6448 239.081C88.5738 238.724 88.3985 238.396 88.1412 238.139C87.8839 237.881 87.556 237.706 87.1991 237.635C86.8422 237.564 86.4722 237.6 86.136 237.74C85.7998 237.879 85.5124 238.115 85.3102 238.417C85.108 238.72 85.0001 239.076 85.0001 239.44C85.0001 239.928 85.194 240.396 85.539 240.741C85.8841 241.086 86.3521 241.28 86.8401 241.28Z" fill="white" stroke="#1F1A54" stroke-width="1.38" stroke-miterlimit="10"/>
<path d="M97.0502 241.28C98.0664 241.28 98.8902 240.456 98.8902 239.44C98.8902 238.423 98.0664 237.6 97.0502 237.6C96.034 237.6 95.2102 238.423 95.2102 239.44C95.2102 240.456 96.034 241.28 97.0502 241.28Z" fill="white" stroke="#1F1A54" stroke-width="1.38" stroke-miterlimit="10"/>
<path d="M107.25 241.28C107.614 241.28 107.97 241.172 108.272 240.97C108.575 240.767 108.811 240.48 108.95 240.144C109.089 239.808 109.126 239.438 109.055 239.081C108.984 238.724 108.809 238.396 108.551 238.139C108.294 237.881 107.966 237.706 107.609 237.635C107.252 237.564 106.882 237.6 106.546 237.74C106.21 237.879 105.922 238.115 105.72 238.417C105.518 238.72 105.41 239.076 105.41 239.44C105.409 239.682 105.456 239.921 105.548 240.145C105.64 240.369 105.775 240.573 105.946 240.744C106.117 240.915 106.321 241.05 106.544 241.142C106.768 241.234 107.008 241.281 107.25 241.28Z" fill="white" stroke="#1F1A54" stroke-width="1.38" stroke-miterlimit="10"/>
<path d="M117.45 241.28C117.814 241.28 118.17 241.172 118.472 240.97C118.775 240.767 119.011 240.48 119.15 240.144C119.289 239.808 119.326 239.438 119.255 239.081C119.184 238.724 119.009 238.396 118.751 238.139C118.494 237.881 118.166 237.706 117.809 237.635C117.452 237.564 117.082 237.6 116.746 237.74C116.41 237.879 116.122 238.115 115.92 238.417C115.718 238.72 115.61 239.076 115.61 239.44C115.61 239.928 115.804 240.396 116.149 240.741C116.494 241.086 116.962 241.28 117.45 241.28Z" fill="white" stroke="#1F1A54" stroke-width="1.38" stroke-miterlimit="10"/>
<path d="M127.65 241.28C128.014 241.28 128.37 241.172 128.672 240.97C128.975 240.767 129.211 240.48 129.35 240.144C129.489 239.808 129.526 239.438 129.455 239.081C129.384 238.724 129.209 238.396 128.951 238.139C128.694 237.881 128.366 237.706 128.009 237.635C127.652 237.564 127.282 237.6 126.946 237.74C126.61 237.879 126.322 238.115 126.12 238.417C125.918 238.72 125.81 239.076 125.81 239.44C125.81 239.928 126.004 240.396 126.349 240.741C126.694 241.086 127.162 241.28 127.65 241.28Z" fill="white" stroke="#1F1A54" stroke-width="1.38" stroke-miterlimit="10"/>
<path d="M137.85 241.28C138.214 241.28 138.57 241.172 138.872 240.97C139.175 240.767 139.411 240.48 139.55 240.144C139.689 239.808 139.726 239.438 139.655 239.081C139.584 238.724 139.409 238.396 139.151 238.139C138.894 237.881 138.566 237.706 138.209 237.635C137.852 237.564 137.482 237.6 137.146 237.74C136.81 237.879 136.522 238.115 136.32 238.417C136.118 238.72 136.01 239.076 136.01 239.44C136.01 239.928 136.204 240.396 136.549 240.741C136.894 241.086 137.362 241.28 137.85 241.28Z" fill="white" stroke="#1F1A54" stroke-width="1.38" stroke-miterlimit="10"/>
<path d="M148.06 241.28C148.424 241.28 148.78 241.172 149.082 240.97C149.385 240.767 149.621 240.48 149.76 240.144C149.899 239.808 149.936 239.438 149.865 239.081C149.794 238.724 149.619 238.396 149.361 238.139C149.104 237.881 148.776 237.706 148.419 237.635C148.062 237.564 147.692 237.6 147.356 237.74C147.02 237.879 146.732 238.115 146.53 238.417C146.328 238.72 146.22 239.076 146.22 239.44C146.22 239.928 146.414 240.396 146.759 240.741C147.104 241.086 147.572 241.28 148.06 241.28Z" fill="white" stroke="#1F1A54" stroke-width="1.38" stroke-miterlimit="10"/>
</g>
<path d="M129.04 192.34L102.82 187.53" stroke="#FFD400" stroke-width="0.46" stroke-linecap="round" stroke-linejoin="round"/>
<path d="M102.35 215.65L127.07 216.01" stroke="#FFD400" stroke-width="0.46" stroke-linecap="round" stroke-linejoin="round"/>
<path d="M138.94 128.55C135.36 125.67 132.69 114.69 132.69 101.55C132.69 88.1599 135.47 76.9899 139.17 74.3999" stroke="#FFD400" stroke-width="0.46" stroke-linecap="round" stroke-linejoin="round"/>
<path d="M140.9 112.62C140.73 113.87 140.54 115.15 140.3 116.46" stroke="white" stroke-width="0.74" stroke-miterlimit="10" stroke-linecap="round"/>
<path d="M140.3 86.4502C141.712 93.7688 142.049 101.254 141.3 108.67" stroke="white" stroke-width="0.74" stroke-miterlimit="10" stroke-linecap="round"/>
<path d="M135.86 146.67C132.86 147.51 138.94 141.41 136.86 139.89C135.76 139.1 133.02 142.22 130.13 145.52L126.86 144.16C127.004 145.439 127.02 146.728 126.91 148.01C126.91 148.41 126.82 148.83 126.74 149.26C125.401 150.354 123.95 151.303 122.41 152.09C117.58 154.98 99.21 161.35 95.69 163.77C95.69 164.4 93.61 151.77 93.61 151.77L79.91 153.53C79.91 153.53 74.03 133.36 78.06 128.47C79.501 127.014 81.1529 125.784 82.96 124.82C86.8803 122.653 90.9201 120.71 95.06 119L96.69 124.2C97.3152 126.194 98.6349 127.897 100.409 129.001C102.184 130.105 104.295 130.535 106.36 130.215C108.425 129.894 110.306 128.843 111.662 127.253C113.018 125.663 113.759 123.64 113.75 121.55C113.75 121.37 113.75 121.18 113.75 121L113.65 119.46L124.44 123.36L128.25 124.73C129.463 125.165 130.603 125.782 131.63 126.56L141.88 133.56L136.27 146.56C136.131 146.586 135.994 146.623 135.86 146.67Z" fill="#FFD400"/>
<path d="M122.38 163C121.162 165.248 120.477 167.745 120.38 170.3C116.069 171.324 111.686 172.023 107.27 172.39C112.62 169.27 118.16 165.54 122.38 163Z" fill="#FFD400"/>
<path d="M114.43 97.6802C114.645 97.6259 114.872 97.6404 115.079 97.7219C115.285 97.8034 115.461 97.9477 115.581 98.1344C115.701 98.3211 115.76 98.5408 115.748 98.7625C115.737 98.9842 115.656 99.1968 115.517 99.3701C115.379 99.5435 115.189 99.6689 114.975 99.7287C114.761 99.7886 114.534 99.7797 114.326 99.7035C114.117 99.6273 113.938 99.4875 113.813 99.3039C113.688 99.1203 113.624 98.9022 113.63 98.6802C113.61 98.4428 113.682 98.2067 113.831 98.0206C113.979 97.8345 114.194 97.7127 114.43 97.6802Z" fill="#1F1A54"/>
<path d="M107.1 97.5498C107.337 97.5822 107.552 97.7037 107.703 97.8895C107.853 98.0752 107.927 98.3114 107.91 98.5498C107.878 98.7035 107.803 98.8448 107.693 98.9575C107.584 99.0702 107.445 99.1497 107.293 99.1865C107.14 99.2234 106.98 99.2163 106.831 99.166C106.683 99.1157 106.551 99.0242 106.453 98.9022C106.354 98.7802 106.292 98.6327 106.273 98.4768C106.255 98.3209 106.281 98.163 106.349 98.0214C106.417 97.8799 106.523 97.7604 106.656 97.6769C106.789 97.5934 106.943 97.5494 107.1 97.5498Z" fill="#1F1A54"/>
<path d="M124.42 123.36L113.63 119.46L111.51 118.57V114.42H110.45C110.811 114.342 111.166 114.235 111.51 114.1C112.321 113.776 113.082 113.339 113.77 112.8C116.02 111.09 117.61 108.1 118.02 103.61C118.261 99.6424 118.221 95.6624 117.9 91.7002C115.49 90.9402 111.78 86.4902 111.78 86.4902C110.342 89.1399 108.236 91.3671 105.67 92.9502C103.003 94.4036 100.558 96.2323 98.41 98.3802C97.7542 96.9311 96.5912 95.7716 95.14 95.1202C93.01 94.2402 90.67 95.9502 90.2 98.8002L87.51 98.3702C87.9994 94.8711 88.7143 91.4072 89.65 88.0002C90.0147 86.8993 90.6369 85.9013 91.4647 85.0891C92.2926 84.2769 93.3023 83.6739 94.41 83.3302C98.88 75.6002 112.41 78.6702 119.57 85.6802C125.36 91.3302 122.18 119.96 124.57 123.01L124.42 123.36Z" fill="#1F1A54"/>
<path d="M90.2 98.7701C90.076 99.5773 90.0963 100.4 90.26 101.2C90.93 104.69 93.73 106.56 97.41 107.09V118.09L95.06 119.01C90.9185 120.743 86.8787 122.71 82.96 124.9L82.85 124.71C85 116.05 86.25 106.26 87.51 98.3901L90.2 98.7701Z" fill="#1F1A54"/>
<path d="M107.27 172.34C101.78 175.49 96.49 177.93 93.05 177.73C90.69 177.59 88.51 175.09 86.62 171.73C93.4555 172.743 100.387 172.948 107.27 172.34Z" fill="white"/>
<path d="M114.43 97.68C114.217 97.63 113.993 97.6479 113.791 97.7311C113.588 97.8144 113.417 97.9588 113.301 98.1443C113.184 98.3298 113.129 98.547 113.142 98.7655C113.155 98.984 113.236 99.193 113.374 99.3631C113.512 99.5332 113.7 99.656 113.911 99.7143C114.122 99.7726 114.346 99.7635 114.551 99.6882C114.757 99.6129 114.934 99.4753 115.057 99.2945C115.181 99.1137 115.245 98.8988 115.24 98.68C115.26 98.441 115.187 98.2036 115.036 98.0172C114.885 97.8309 114.668 97.7101 114.43 97.68ZM107.1 97.55C106.863 97.5824 106.647 97.7038 106.497 97.8896C106.347 98.0754 106.272 98.3115 106.29 98.55C106.263 98.6713 106.263 98.7973 106.291 98.9184C106.319 99.0396 106.374 99.1529 106.452 99.25C106.53 99.3471 106.629 99.4254 106.741 99.4793C106.853 99.5331 106.976 99.5611 107.1 99.5611C107.224 99.5611 107.347 99.5331 107.459 99.4793C107.571 99.4254 107.67 99.3471 107.748 99.25C107.825 99.1529 107.88 99.0396 107.909 98.9184C107.937 98.7973 107.937 98.6713 107.91 98.55C107.927 98.3115 107.853 98.0754 107.703 97.8896C107.552 97.7038 107.337 97.5824 107.1 97.55ZM105.34 130.27C103.428 130.339 101.547 129.778 99.9841 128.674C98.4216 127.571 97.2644 125.985 96.6899 124.16L95.0599 119L97.41 118.08V107.08C93.73 106.55 90.9299 104.68 90.2599 101.19C90.0963 100.39 90.076 99.5671 90.1999 98.76C90.6699 95.91 93.0099 94.2 95.1399 95.08C96.5911 95.7314 97.7541 96.8908 98.41 98.34C100.558 96.192 103.003 94.3634 105.67 92.91C108.223 91.3255 110.319 89.1023 111.75 86.46C111.75 86.46 115.46 90.91 117.87 91.67C118.191 95.6322 118.231 99.6121 117.99 103.58C117.58 108.07 115.99 111.06 113.74 112.77C113.052 113.308 112.291 113.746 111.48 114.07C111.136 114.204 110.781 114.311 110.42 114.39H111.48V118.54L113.6 119.43L113.75 121C113.75 121.18 113.75 121.37 113.75 121.55C113.751 123.81 112.875 125.982 111.306 127.609C109.738 129.236 107.598 130.19 105.34 130.27Z" fill="white"/>
<path d="M122.38 163C121.162 165.248 120.477 167.745 120.38 170.3" stroke="#1F1A54" stroke-width="0.74" stroke-linecap="round" stroke-linejoin="round"/>
<path d="M125.16 138.22C126.109 140.072 126.693 142.088 126.88 144.16C127.024 145.439 127.04 146.728 126.93 148.01C126.93 148.41 126.84 148.83 126.76 149.26" stroke="#1F1A54" stroke-width="0.74" stroke-linecap="round" stroke-linejoin="round"/>
<path d="M105.67 95.5298C106.144 95.2357 106.692 95.083 107.25 95.0898C107.854 95.0795 108.446 95.2616 108.94 95.6098" stroke="#1F1A54" stroke-width="0.74" stroke-linecap="round" stroke-linejoin="round"/>
<path d="M112.65 95.5301C113.131 95.2359 113.686 95.0834 114.25 95.0901C114.854 95.0846 115.444 95.2662 115.94 95.6101" stroke="#1F1A54" stroke-width="0.74" stroke-linecap="round" stroke-linejoin="round"/>
<path d="M104.38 104.69C104.616 105.536 105.083 106.299 105.727 106.896C106.371 107.493 107.169 107.899 108.03 108.07" stroke="#1F1A54" stroke-width="0.74" stroke-linecap="round" stroke-linejoin="round"/>
<path d="M109.64 103.29C109.969 103.465 110.337 103.557 110.71 103.557C111.083 103.557 111.451 103.465 111.78 103.29" stroke="#1F1A54" stroke-width="0.74" stroke-linecap="round" stroke-linejoin="round"/>
<path d="M93.8101 98.7002C93.8101 98.7002 96.0101 99.0402 96.3401 102.5" stroke="#1F1A54" stroke-width="0.74" stroke-miterlimit="10" stroke-linecap="round"/>
<path d="M97.4101 107.09V118.04L95.0601 118.96" stroke="#1F1A54" stroke-width="0.74" stroke-linecap="round" stroke-linejoin="round"/>
<path d="M111.51 114.42V118.57L113.63 119.46" stroke="#1F1A54" stroke-width="0.74" stroke-linecap="round" stroke-linejoin="round"/>
<path d="M130.15 145.52L126.89 144.16" stroke="#1F1A54" stroke-width="0.74" stroke-linecap="round" stroke-linejoin="round"/>
<path d="M79.92 153.56C79.92 153.56 74.04 133.39 78.07 128.5C79.5111 127.044 81.1629 125.814 82.97 124.85C86.8864 122.673 90.9229 120.72 95.06 119L96.69 124.2C97.3152 126.194 98.6349 127.897 100.409 129.001C102.184 130.105 104.295 130.535 106.36 130.215C108.425 129.894 110.306 128.843 111.662 127.253C113.018 125.663 113.759 123.64 113.75 121.55C113.75 121.37 113.75 121.18 113.75 121L113.65 119.46L124.44 123.36L128.25 124.73C129.463 125.165 130.603 125.782 131.63 126.56L141.88 133.56L136.27 146.56" stroke="#1F1A54" stroke-width="0.74" stroke-linecap="round" stroke-linejoin="round"/>
<path d="M92.09 142.48L93.62 151.8" stroke="#1F1A54" stroke-width="0.74" stroke-linecap="round" stroke-linejoin="round"/>
<path d="M98.6799 99.0001C98.606 98.7803 98.5157 98.5664 98.41 98.3601C97.7541 96.9109 96.5911 95.7515 95.1399 95.1001C93.0099 94.2201 90.6699 95.9301 90.1999 98.7801C90.076 99.5873 90.0963 100.41 90.2599 101.21C90.9299 104.7 93.73 106.57 97.41 107.1" stroke="#1F1A54" stroke-width="0.74" stroke-linecap="round" stroke-linejoin="round"/>
<path d="M82.85 124.66C85 116 86.25 106.21 87.51 98.3402C88.0007 94.8512 88.7155 91.3974 89.65 88.0002C90.0147 86.8993 90.6368 85.9013 91.4647 85.0891C92.2926 84.2769 93.3023 83.6739 94.41 83.3302C98.88 75.6002 112.41 78.6702 119.57 85.6802C125.36 91.3302 122.18 119.96 124.57 123.01" stroke="#1F1A54" stroke-width="0.74" stroke-linecap="round" stroke-linejoin="round"/>
<path d="M98.41 98.35C100.558 96.202 103.003 94.3734 105.67 92.92C108.225 91.3328 110.32 89.106 111.75 86.46C111.75 86.46 115.46 90.91 117.87 91.67" stroke="#1F1A54" stroke-width="0.74" stroke-linecap="round" stroke-linejoin="round"/>
<path d="M117.9 91.6699C118.221 95.6321 118.261 99.6121 118.02 103.58C117.61 108.07 116.02 111.06 113.77 112.77C113.082 113.308 112.321 113.746 111.51 114.07C111.166 114.204 110.811 114.311 110.45 114.39C109.461 114.596 108.439 114.596 107.45 114.39L107.11 114.32C105.493 113.982 104.001 113.204 102.8 112.07" stroke="#1F1A54" stroke-width="0.74" stroke-linecap="round" stroke-linejoin="round"/>
<path d="M107.27 172.34C111.686 171.973 116.069 171.274 120.38 170.25" stroke="#1F1A54" stroke-width="0.74" stroke-linecap="round" stroke-linejoin="round"/>
<path d="M86.13 171.66L86.62 171.75" stroke="#1F1A54" stroke-width="0.74" stroke-linecap="round" stroke-linejoin="round"/>
<path d="M141.02 164.79H136.87L137.79 129.28H140.1L141.02 164.79Z" fill="#1F1A54" stroke="#1F1A54" stroke-width="0.74" stroke-linecap="round" stroke-linejoin="round"/>
<path d="M126.75 149.26C126.96 149.06 127.17 148.84 127.38 148.62C128.29 147.62 129.23 146.62 130.14 145.52L135.7 147.83L136.24 146.58C138.017 146.23 139.831 146.102 141.64 146.2C143.28 146.41 143.98 147.27 143.97 148.02C143.965 148.278 143.897 148.53 143.771 148.755C143.646 148.98 143.467 149.171 143.25 149.31C143.25 149.31 144.36 149.86 144.43 150.71C144.472 150.957 144.452 151.211 144.372 151.448C144.292 151.686 144.154 151.899 143.97 152.07C144.205 152.484 144.326 152.954 144.32 153.43C144.336 153.744 144.273 154.056 144.136 154.339C144 154.622 143.795 154.867 143.54 155.05C143.54 155.05 143.73 155.05 143.73 155.96C143.73 159.71 134.9 159.3 134.9 159.3C131.44 159.43 128.39 159.82 128.39 159.82C126.265 160.596 124.249 161.641 122.39 162.93C118.17 165.52 112.63 169.25 107.28 172.32C100.397 172.935 93.4663 172.737 86.6301 171.73C82.6301 164.57 79.9301 153.54 79.9301 153.54L93.6301 151.78C93.6301 151.78 95.7101 164.38 95.7101 163.78C99.2301 161.36 117.6 154.99 122.43 152.1C123.967 151.309 125.415 150.357 126.75 149.26Z" fill="white"/>
<path d="M136.88 139.89C138.94 141.41 132.88 147.51 135.88 146.67C136.008 146.631 136.138 146.601 136.27 146.58L135.73 147.83L130.17 145.52C133.04 142.22 135.75 139.1 136.88 139.89Z" fill="white"/>
<path d="M141.98 152.61C142.689 152.688 143.402 152.499 143.98 152.08C144.164 151.909 144.302 151.695 144.382 151.458C144.462 151.221 144.482 150.967 144.44 150.72C144.37 149.87 143.26 149.32 143.26 149.32" stroke="#1F1A54" stroke-width="0.74" stroke-linecap="round" stroke-linejoin="round"/>
<path d="M141.65 155.68C142.332 155.665 142.996 155.454 143.56 155.07C143.815 154.886 144.02 154.642 144.156 154.359C144.293 154.076 144.356 153.764 144.34 153.45C144.346 152.974 144.225 152.504 143.99 152.09" stroke="#1F1A54" stroke-width="0.74" stroke-linecap="round" stroke-linejoin="round"/>
<path d="M141.65 150C142.226 149.908 142.775 149.693 143.26 149.37V149.37C143.477 149.231 143.656 149.04 143.781 148.815C143.907 148.59 143.975 148.338 143.98 148.08C143.98 147.33 143.29 146.47 141.65 146.26C139.841 146.162 138.027 146.29 136.25 146.64C136.118 146.661 135.988 146.691 135.86 146.73C132.86 147.57 138.94 141.47 136.86 139.95C135.76 139.16 133.02 142.28 130.13 145.58C129.22 146.64 128.28 147.72 127.37 148.68C127.16 148.9 126.95 149.12 126.74 149.32C125.401 150.414 123.95 151.363 122.41 152.15C117.58 155.04 99.21 161.41 95.69 163.83C95.69 164.46 93.61 151.83 93.61 151.83L79.91 153.59C79.91 153.59 82.57 164.59 86.61 171.78C88.5 175.12 90.68 177.62 93.04 177.78C96.48 177.98 101.77 175.54 107.26 172.39C112.75 169.24 118.15 165.59 122.37 163C124.229 161.711 126.245 160.666 128.37 159.89C128.37 159.89 131.42 159.5 134.88 159.37C134.88 159.37 143.71 159.78 143.71 156.03C143.71 155.16 143.55 155.12 143.52 155.12" stroke="#1F1A54" stroke-width="0.74" stroke-linecap="round" stroke-linejoin="round"/>
</g>
<defs>
<clipPath id="clip0">
<rect width="375" height="300" fill="white"/>
</clipPath>
</defs>
</svg>
