<svg width="375" height="300" viewBox="0 0 375 300" fill="none" xmlns="http://www.w3.org/2000/svg">
<g clip-path="url(#clip0)">
<path d="M0 149.37C54.59 149.55 81.81 191.37 106.81 203.05C132.45 215.05 172.31 192.52 170.62 164.27C170.14 156.18 162.98 147.14 155.4 150C153.058 151.01 151.089 152.727 149.77 154.91C142.28 166.17 147.32 182.51 157.89 190.91C168.46 199.31 183.76 201.33 197.27 200.74C238.06 198.96 305.64 168.88 374.97 164.14" stroke="white" stroke-width="1.8" stroke-miterlimit="10" stroke-linecap="round" stroke-dasharray="0 6 6 0"/>
<path d="M77.7701 265.15C105.07 265.15 127.2 263.829 127.2 262.2C127.2 260.571 105.07 259.25 77.7701 259.25C50.4707 259.25 28.3401 260.571 28.3401 262.2C28.3401 263.829 50.4707 265.15 77.7701 265.15Z" fill="#FFEB86" fill-opacity="0.6"/>
<path d="M250.31 265.15C278.035 265.15 300.51 263.829 300.51 262.2C300.51 260.571 278.035 259.25 250.31 259.25C222.585 259.25 200.11 260.571 200.11 262.2C200.11 263.829 222.585 265.15 250.31 265.15Z" fill="#FFEB86" fill-opacity="0.6"/>
<path d="M283.51 172.12L271.54 164.34" stroke="#1F1A54" stroke-width="1.84" stroke-linecap="round" stroke-linejoin="round"/>
<path d="M284.08 171.64L275.12 161.59" stroke="#1F1A54" stroke-width="1.84" stroke-linecap="round" stroke-linejoin="round"/>
<path d="M284.59 171.24L276.74 160.34" stroke="#1F1A54" stroke-width="1.84" stroke-linecap="round" stroke-linejoin="round"/>
<path d="M283.56 172.08L274.7 163.9" stroke="#1F1A54" stroke-width="1.84" stroke-linecap="round" stroke-linejoin="round"/>
<path d="M285.15 170.81L279.29 161.3" stroke="#1F1A54" stroke-width="2.77" stroke-linecap="round" stroke-linejoin="round"/>
<path d="M283.44 178.86C286.2 182.45 299.21 195.65 301.44 193.93C303.67 192.21 294.3 176.23 291.54 172.63C288.78 169.03 286.48 169.79 284.24 171.51C282 173.23 280.68 175.26 283.44 178.86Z" fill="white" stroke="#1F1A54" stroke-width="0.74" stroke-linecap="round" stroke-linejoin="round"/>
<path d="M289 170.42C287.768 171.882 286.372 173.197 284.84 174.34" stroke="#1F1A54" stroke-width="0.74" stroke-linecap="round" stroke-linejoin="round"/>
<path d="M282 174.6C283.024 173.938 283.994 173.196 284.9 172.38" stroke="#1F1A54" stroke-width="0.74" stroke-linecap="round" stroke-linejoin="round"/>
<path d="M282.31 176.75C282.51 176.75 282.72 176.7 282.92 176.66C284.571 176.197 286.088 175.35 287.35 174.19" stroke="#1F1A54" stroke-width="0.74" stroke-linecap="round" stroke-linejoin="round"/>
<path d="M290.86 171.87C290.67 171.99 290.68 172.26 290.58 172.47C290.472 172.629 290.351 172.78 290.22 172.92C290.13 173.04 290.08 173.2 290 173.33C289.866 173.556 289.69 173.753 289.48 173.91L288.6 174.68" stroke="#1F1A54" stroke-width="0.74" stroke-linecap="round" stroke-linejoin="round"/>
<path d="M290.32 174.66C290.465 174.63 290.602 174.569 290.72 174.48C290.802 174.387 290.876 174.286 290.94 174.18C291.056 174.052 291.179 173.932 291.31 173.82C291.472 173.658 291.598 173.464 291.68 173.25" stroke="#1F1A54" stroke-width="0.74" stroke-linecap="round" stroke-linejoin="round"/>
<path d="M306.67 173.84C307.07 173.84 307.53 172.84 307.42 172.44C307.31 172.04 307.03 171.74 306.9 171.35C306.844 171.098 306.852 170.835 306.924 170.587C306.996 170.339 307.129 170.112 307.311 169.929C307.494 169.746 307.719 169.611 307.967 169.538C308.215 169.465 308.477 169.455 308.73 169.51C308.085 168.436 307.679 167.235 307.54 165.99C307.472 165.371 307.534 164.744 307.721 164.15C307.909 163.556 308.218 163.008 308.63 162.54C309.24 161.91 310.13 161.41 310.23 160.54C310.197 160.208 310.197 159.873 310.23 159.54C310.7 158.17 313.61 159.41 313.69 157.54C313.71 157.391 313.71 157.239 313.69 157.09C313.58 156.202 313.757 155.303 314.197 154.523C314.636 153.744 315.313 153.126 316.13 152.76C316.907 152.426 317.744 152.254 318.59 152.254C319.436 152.254 320.273 152.426 321.05 152.76C321.44 152.91 321.87 153.14 321.94 153.55C321.955 153.77 321.955 153.99 321.94 154.21C321.94 154.89 322.68 155.32 323.34 155.44C324.018 155.47 324.69 155.585 325.34 155.78C326.52 156.3 326.87 157.78 327.07 159.06C327.194 159.555 327.176 160.075 327.02 160.56C326.67 161.34 325.64 161.71 325.49 162.56C325.38 163.21 325.88 163.85 325.8 164.5C325.7 165.35 324.8 165.78 324.12 166.31C323.03 167.21 322.53 168.69 321.42 169.56C320.51 170.27 319.28 170.5 318.42 171.28C317.82 171.82 317.42 172.58 316.84 173.1C316.638 173.271 316.4 173.395 316.144 173.465C315.889 173.534 315.621 173.546 315.36 173.5C314.993 173.428 314.614 173.434 314.249 173.516C313.884 173.599 313.541 173.757 313.24 173.98C312.716 174.36 312.219 174.774 311.75 175.22C311.543 175.449 311.291 175.632 311.01 175.76C310.599 175.855 310.171 175.855 309.76 175.76C308.856 175.734 307.963 175.97 307.19 176.44L306.67 173.84Z" fill="white" stroke="#1F1A54" stroke-width="0.74" stroke-linecap="round" stroke-linejoin="round"/>
<path d="M306.82 176.92C309.197 173.632 311.79 170.506 314.58 167.56C318.39 163.73 321.86 157.33 321.86 157.33C319.992 160.499 317.629 163.349 314.86 165.77C311.069 169.107 307.554 172.746 304.35 176.65C302.88 178.52 306.82 176.92 306.82 176.92Z" fill="white" stroke="#1F1A54" stroke-width="0.74" stroke-linecap="round" stroke-linejoin="round"/>
<path d="M310.69 171.92C311.322 171.128 312.087 170.451 312.95 169.92C313.472 169.557 314.065 169.308 314.69 169.19C315.25 169.19 315.36 169.74 315.85 169.8C315.956 169.804 316.061 169.787 316.16 169.75C317.123 169.364 318.131 169.102 319.16 168.97" stroke="#1F1A54" stroke-width="0.74" stroke-linecap="round" stroke-linejoin="round"/>
<path d="M315.19 166.92C315.4 166.62 317.33 167.03 317.67 166.92C318.88 166.44 320.26 166.51 321.45 165.99" stroke="#1F1A54" stroke-width="0.74" stroke-linecap="round" stroke-linejoin="round"/>
<path d="M317.15 163.51C317.322 162.951 317.612 162.437 318 162C318.27 161.769 318.476 161.473 318.6 161.14C318.645 160.8 318.597 160.454 318.46 160.14C318.249 159.47 318.111 158.779 318.05 158.08C318.003 157.866 318.007 157.643 318.062 157.431C318.118 157.219 318.224 157.023 318.37 156.86" stroke="#1F1A54" stroke-width="0.74" stroke-linecap="round" stroke-linejoin="round"/>
<path d="M312.19 168.19C312.6 167.7 313.27 166.7 313.69 166.19C313.823 166.047 313.928 165.881 314 165.7C314.04 165.442 314.04 165.179 314 164.92C314 164.12 314.51 163.39 314.52 162.58" stroke="#1F1A54" stroke-width="0.74" stroke-linecap="round" stroke-linejoin="round"/>
<path d="M310.09 170.26C310.077 169.758 309.996 169.26 309.85 168.78C309.547 168.429 309.263 168.061 309 167.68C308.898 167.324 308.87 166.951 308.92 166.584C308.97 166.217 309.096 165.865 309.29 165.55" stroke="#1F1A54" stroke-width="0.74" stroke-linecap="round" stroke-linejoin="round"/>
<path d="M279.724 178.293L334.221 164.321L344.128 202.961C344.492 204.382 344.277 205.889 343.53 207.151C342.783 208.413 341.565 209.327 340.145 209.691L296.341 220.921C294.921 221.286 293.414 221.071 292.151 220.324C290.889 219.577 289.976 218.359 289.611 216.938L279.705 178.298L279.724 178.293Z" fill="#FFD400" stroke="#1F1A54" stroke-width="0.74" stroke-linecap="round" stroke-linejoin="round"/>
<path d="M287.944 210.342L342.441 196.37L344.143 203.005C344.507 204.426 344.292 205.933 343.545 207.195C342.798 208.457 341.58 209.371 340.159 209.735L296.375 220.961C294.955 221.325 293.447 221.11 292.185 220.363C290.923 219.616 290.009 218.398 289.645 216.977L287.956 210.39L287.944 210.342Z" fill="#1F1A54"/>
<path d="M303.86 206.25L295.58 174C295.1 172.12 294.43 162.86 296.12 157.37C297.53 152.78 301.12 152.26 303.84 151.16C309.48 148.84 317.6 165.61 318.32 168.42L326.54 200.48" stroke="#1F1A54" stroke-width="2.77" stroke-miterlimit="10"/>
<path d="M322.42 168.61C322.35 168.71 322.26 168.81 322.28 168.92C322.306 168.999 322.359 169.066 322.43 169.11C322.639 169.211 322.868 169.263 323.1 169.263C323.332 169.263 323.561 169.211 323.77 169.11C324.179 168.897 324.612 168.736 325.06 168.63C325.285 168.58 325.521 168.609 325.727 168.713C325.933 168.817 326.096 168.989 326.19 169.2C326.19 169.28 326.19 169.37 326.3 169.41C326.371 169.435 326.449 169.435 326.52 169.41C326.95 169.34 327.41 169.53 327.81 169.35C328.21 169.17 328.32 168.87 328.65 168.78C328.836 168.76 329.024 168.76 329.21 168.78C330.07 168.69 330.61 167.58 331.47 167.62C331.65 167.62 331.82 167.69 332 167.7C332.345 167.706 332.687 167.635 333 167.49C333.068 167.236 333.233 167.02 333.46 166.887C333.686 166.754 333.956 166.716 334.21 166.78C334.294 166.82 334.387 166.838 334.48 166.83C334.74 166.83 334.73 166.4 334.92 166.21C335.11 166.02 335.34 166.07 335.54 165.97C335.656 165.908 335.754 165.818 335.826 165.707C335.898 165.597 335.94 165.471 335.95 165.34C335.975 165.078 335.955 164.814 335.89 164.56C335.876 164.464 335.842 164.372 335.79 164.29C335.721 164.216 335.635 164.161 335.54 164.13C334.94 163.89 329.02 161.73 328.25 162.13C326.25 163.13 325.72 165.48 324.38 165.21C324.264 165.189 324.146 165.189 324.03 165.21C323.892 165.242 323.762 165.304 323.65 165.39C323.232 165.625 322.859 165.933 322.55 166.3C322.403 166.468 322.302 166.672 322.256 166.891C322.21 167.11 322.222 167.337 322.29 167.55C322.45 167.87 322.74 168.16 322.42 168.61Z" fill="white" stroke="#1F1A54" stroke-width="0.74" stroke-linecap="round" stroke-linejoin="round"/>
<path d="M326 164.12C326.31 163.83 330.4 163.57 331.29 164.31C331.91 164.725 332.619 164.989 333.36 165.08" fill="white"/>
<path d="M326 164.12C326.31 163.83 330.4 163.57 331.29 164.31C331.91 164.725 332.619 164.989 333.36 165.08" stroke="#1F1A54" stroke-width="0.74" stroke-linecap="round" stroke-linejoin="round"/>
<path d="M327.42 163.88C327.662 164.321 327.932 164.745 328.23 165.15C328.512 165.811 328.704 166.507 328.8 167.22" stroke="#1F1A54" stroke-width="0.74" stroke-linecap="round" stroke-linejoin="round"/>
<path d="M325.63 164.57C325.694 164.73 325.694 164.909 325.63 165.07C325.421 165.655 325.16 166.221 324.85 166.76" stroke="#1F1A54" stroke-width="0.74" stroke-linecap="round" stroke-linejoin="round"/>
<path d="M104.33 108.43L103.6 101.07C103.578 100.851 103.599 100.63 103.663 100.42C103.726 100.209 103.831 100.013 103.97 99.8435C104.109 99.6734 104.281 99.5326 104.475 99.4291C104.669 99.3255 104.881 99.2612 105.1 99.24L113.01 98.45C113.233 98.428 113.458 98.451 113.673 98.5174C113.887 98.5839 114.085 98.6926 114.257 98.837C114.428 98.9815 114.569 99.1588 114.671 99.3585C114.773 99.5582 114.834 99.7763 114.85 100L115.68 108.39" stroke="#1F1A54" stroke-width="0.74" stroke-linecap="round" stroke-linejoin="round"/>
<path d="M116.88 120.46L117.06 122.3C117.102 122.742 116.968 123.183 116.687 123.528C116.407 123.872 116.002 124.092 115.56 124.14L107.65 124.92C107.43 124.942 107.208 124.92 106.996 124.856C106.784 124.792 106.587 124.687 106.416 124.547C106.245 124.407 106.104 124.234 106 124.039C105.896 123.844 105.831 123.63 105.81 123.41L105.67 122.03" stroke="#1F1A54" stroke-width="0.74" stroke-linecap="round" stroke-linejoin="round"/>
<path d="M287.13 241.62C288.97 243.09 288.79 244.14 287.39 245.37C285.99 246.6 273.17 257.21 269.98 259.47C265.17 262.89 262.78 262.62 261.26 261.23C260.21 260.23 260.18 259.74 260.18 259.68C260.62 260.55 262.04 260.54 264 259.75C265.467 259.021 266.858 258.147 268.15 257.14C275.2 252 287.13 241.62 287.13 241.62Z" fill="white"/>
<path d="M282.44 238.32C282.701 238.148 282.951 237.961 283.19 237.76C285.38 240.02 287.13 241.62 287.13 241.62C287.13 241.62 275.2 252.03 268.13 257.14C265.77 253.66 262.61 254.85 262.61 254.85C263.44 253.85 264.55 252.53 265.61 251.21L266.29 250.34C266.62 249.9 266.94 249.44 267.29 248.98C268.333 247.375 269.198 245.662 269.87 243.87C270.208 242.999 270.43 242.088 270.53 241.16C270.28 240.83 270.82 240.77 271.77 240.78C273.34 240.78 276 241.03 277.87 240.49C279.497 240.008 281.039 239.276 282.44 238.32Z" fill="#FFD400"/>
<path d="M278.19 231L282.44 238.37C281.036 239.327 279.49 240.06 277.86 240.54C275.99 241.08 273.33 240.86 271.76 240.83L269.67 236.9L269.52 236.65L278.18 230.99L278.19 231Z" fill="white"/>
<path d="M261.17 102.49V146.65C261.17 146.65 231.12 152.29 217.17 147.83C216.6 147.64 216.06 147.44 215.54 147.22V99.9099L204.72 102.77L201.9 84.6399L230.78 74.4099V71.6099L232.38 73.2399L234.63 75.5199V78.0699L236.32 79.9299L238.38 78.0699V75.5199L246.56 71.7399L248.83 70.6899V73.9099C248.83 73.9099 264.07 78.5899 267.24 82.4299C271.24 87.3099 280.32 97.3399 280.32 97.3399L267.9 108.81L261.17 102.49Z" fill="#FFD400"/>
<path d="M239.64 172.81L234.86 205.16V243.92H220.64L217.16 147.83C231.16 152.29 261.16 146.65 261.16 146.65L261.48 197.11L279.09 230.34L278.17 230.94L269.51 236.6L266.81 238.36L245.47 201.58L239.64 172.81Z" fill="#1F1A54"/>
<path d="M268.16 257.14C266.868 258.147 265.477 259.021 264.01 259.75C262.01 260.54 260.63 260.55 260.19 259.68C260.012 259.273 259.98 258.818 260.1 258.39C260.3 257.39 261.59 256.08 262.64 254.85C262.64 254.85 265.8 253.66 268.16 257.14Z" fill="white"/>
<path d="M257.7 43.8101C259.153 48.8706 258.564 54.2988 256.06 58.9301C255.71 59.1801 250.48 62.8101 246.49 63.8101C246.161 63.8923 245.827 63.9557 245.49 64.0001C242.49 64.4001 242.63 63.4301 243.85 59.8101C246.1 53.0701 244.74 47.8101 238.99 45.1901C234.385 43.1228 229.363 42.154 224.32 42.3601C223.981 42.4362 223.647 42.533 223.32 42.6501V42.4601C223.5 42.1001 227.25 34.5701 235.68 32.0701C244.11 29.5701 254.67 33.4901 257.7 43.8101Z" fill="#FFD400"/>
<path d="M256 59C255.627 59.6998 255.199 60.3686 254.72 61C253.601 62.1659 252.329 63.175 250.94 64C249.531 64.8611 248.014 65.5335 246.43 66V63.83C250.46 62.83 255.69 59.2 256 59Z" fill="#1F1A54"/>
<path d="M246.47 71.5699L246.55 71.7399L238.37 75.5199V78.0699L236.31 79.9299L234.62 78.0699V75.5199L232.37 73.2399V69.3599C232.63 69.4199 232.9 69.4799 233.17 69.5199C234.8 69.7599 238.82 69.2399 241.09 67.0499L241.71 65.8999C242.41 66.2367 243.187 66.3783 243.96 66.3099C244.809 66.2645 245.651 66.127 246.47 65.8999V71.5699Z" fill="white"/>
<path d="M246.47 63.8302V65.9002C245.651 66.1272 244.809 66.2647 243.96 66.3102C243.187 66.3786 242.409 66.2369 241.71 65.9002C239.98 64.9002 240.44 62.3501 241.8 59.5301C242.473 57.8886 242.775 56.1188 242.685 54.3471C242.595 52.5753 242.115 50.8452 241.28 49.2801C241.2 48.7601 237.59 45.1402 230.53 43.9302C228.28 43.5402 224.77 43.2102 222.74 43.7002C222.74 43.7002 221.61 43.7701 221.28 45.4801C221.13 44.1401 221.78 43.2001 223.28 42.6701C223.607 42.553 223.941 42.4562 224.28 42.3802C229.34 42.1662 234.38 43.1352 239 45.2101C244.75 47.8701 246.11 53.0902 243.86 59.8302C242.64 63.4502 242.54 64.4202 245.5 64.0202C245.827 63.9746 246.15 63.9112 246.47 63.8302Z" fill="#1F1A54"/>
<path d="M241.28 49.2799C242.115 50.845 242.595 52.5751 242.685 54.3469C242.775 56.1186 242.473 57.8884 241.8 59.5299C240.44 62.3499 239.98 64.9299 241.71 65.8999L241.09 67.0499C238.82 69.2399 234.8 69.7599 233.17 69.5199C232.9 69.5199 232.63 69.4199 232.37 69.3599C229.48 68.6799 227.75 66.7699 226.76 63.9399C226.7 63.7999 226.66 63.6499 226.61 63.5099C225.71 60.6799 225.61 54.3899 225.86 49.1899C231.47 49.4099 238.34 49.6299 240.56 49.4399C241 49.3999 241.28 49.3499 241.28 49.2799Z" fill="white"/>
<path d="M223.68 49.1C220.92 48.99 218.74 48.88 218.05 48.83C216.52 48.74 218.89 47.4 220.76 45.94C220.98 45.76 221.16 45.62 221.3 45.49C221.86 45.01 221.81 44.93 221.81 44.93C222.02 44.35 223.14 43.93 224.62 43.93C227.353 43.9101 230.076 44.2702 232.71 45C235.625 45.7798 238.31 47.2475 240.54 49.28V49.42C238.32 49.61 231.45 49.42 225.84 49.17L223.68 49.1Z" fill="#1F1A54"/>
<path d="M234.25 257.75C234.93 260 234.19 260.75 232.33 260.97C230.47 261.19 213.9 262.61 209.99 262.65C204.09 262.73 202.28 261.14 201.82 259.14C201.48 257.68 201.82 257.26 201.82 257.26C201.71 258.26 202.88 259.02 204.92 259.49C206.545 259.727 208.19 259.801 209.83 259.71C218.53 259.52 234.25 257.75 234.25 257.75Z" fill="white"/>
<path d="M213.74 252.5C214.57 252.15 215.39 251.78 216.14 251.37C217.055 250.893 217.937 250.355 218.78 249.76C219.556 249.243 220.256 248.621 220.86 247.91C220.77 248.03 221.4 248.54 222.4 249.17C223.936 250.132 225.572 250.924 227.28 251.53C228.836 252.048 230.461 252.328 232.1 252.36C232.47 252.386 232.84 252.386 233.21 252.36C233.73 255.46 234.21 257.78 234.21 257.78C234.21 257.78 218.49 259.55 209.79 259.78C209.79 255.58 206.55 254.78 206.55 254.78C207.78 254.46 209.47 254 211.08 253.5L212.14 253.17C212.7 252.89 213.23 252.7 213.74 252.5Z" fill="#FFD400"/>
<path d="M232.1 243.92V252.36C230.461 252.328 228.835 252.048 227.28 251.53C225.572 250.924 223.936 250.132 222.4 249.17L222.52 248.97L222.41 243.92H232.1Z" fill="white"/>
<path d="M226.6 63.5098C226.65 63.6498 226.69 63.7998 226.75 63.9398C223.54 62.6998 224.47 59.3998 225.26 57.1798C225.91 55.3498 224.7 52.7298 223.88 50.0498C223.787 49.7227 223.724 49.3881 223.69 49.0498L225.86 49.1398C225.63 54.3898 225.7 60.6798 226.6 63.5098Z" fill="#1F1A54"/>
<path d="M209.83 259.7C208.19 259.791 206.545 259.717 204.92 259.48C202.92 259.01 201.71 258.23 201.82 257.25C201.911 256.817 202.143 256.427 202.48 256.14C203.23 255.42 205.03 255.14 206.59 254.67C206.59 254.67 209.86 255.5 209.83 259.7Z" fill="white"/>
<path d="M225.85 49.1899C225.63 54.3899 225.7 60.6799 226.6 63.5099C226.65 63.6499 226.69 63.7999 226.75 63.9399C227.75 66.7699 229.47 68.6799 232.36 69.3599C232.62 69.4199 232.89 69.4799 233.16 69.5199C234.79 69.7599 238.81 69.2399 241.08 67.0499" stroke="#1F1A54" stroke-width="0.74" stroke-linecap="round" stroke-linejoin="round"/>
<path d="M246.48 65.8999V71.5699" stroke="#1F1A54" stroke-width="0.74" stroke-linecap="round" stroke-linejoin="round"/>
<path d="M232.37 69.3599V73.2399" stroke="#1F1A54" stroke-width="0.74" stroke-linecap="round" stroke-linejoin="round"/>
<path d="M215.53 99.9099L204.71 102.77L201.89 84.6399L230.77 74.4099V71.6099L232.37 73.2399L234.62 75.5199V78.0699L236.31 79.9299L238.37 78.0699V75.5199L246.55 71.7399L248.82 70.6899V73.9099C248.82 73.9099 264.06 78.5899 267.23 82.4299C271.23 87.3099 280.31 97.3399 280.31 97.3399L267.9 108.81L261.17 102.49" stroke="#1F1A54" stroke-width="0.74" stroke-linecap="round" stroke-linejoin="round"/>
<path d="M256.06 58.9298C258.564 54.2985 259.153 48.8702 257.7 43.8098C254.7 33.4898 244.23 29.5398 235.7 32.0698C227.17 34.5998 223.52 42.0698 223.34 42.4598" stroke="#1F1A54" stroke-width="0.74" stroke-linecap="round" stroke-linejoin="round"/>
<path d="M241.28 49.2798C242.115 50.8449 242.595 52.575 242.685 54.3467C242.775 56.1184 242.473 57.8882 241.8 59.5298C240.44 62.3498 239.98 64.9298 241.71 65.8998C242.409 66.2366 243.187 66.3782 243.96 66.3098C244.809 66.2643 245.651 66.1269 246.47 65.8998C248.054 65.4333 249.571 64.7608 250.98 63.8998C252.369 63.0748 253.641 62.0656 254.76 60.8998C255.221 60.299 255.636 59.6638 256 58.9998" stroke="#1F1A54" stroke-width="0.74" stroke-linecap="round" stroke-linejoin="round"/>
<path d="M226.74 63.9999C223.53 62.7599 224.46 59.4599 225.25 57.2399C225.9 55.4099 224.69 52.7899 223.87 50.1099C223.777 49.7827 223.714 49.4481 223.68 49.1099V49.1099" stroke="#1F1A54" stroke-width="0.74" stroke-linecap="round" stroke-linejoin="round"/>
<path d="M222.74 43.7002C222.74 43.7002 221.61 43.7702 221.28 45.4802" stroke="#1F1A54" stroke-width="0.74" stroke-linecap="round" stroke-linejoin="round"/>
<path d="M222.74 43.6999C224.74 43.2099 228.28 43.5399 230.53 43.9299C237.59 45.1399 241.2 48.7599 241.28 49.2799C241.28 49.3499 241.02 49.3999 240.55 49.4399C238.33 49.6299 231.46 49.4399 225.85 49.1899L223.68 49.0999C220.92 48.9899 218.74 48.88 218.05 48.83C216.52 48.74 218.89 47.3999 220.76 45.9399C220.98 45.7599 221.16 45.62 221.3 45.49C221.86 45.01 221.81 44.9299 221.81 44.9299" stroke="#1F1A54" stroke-width="0.74" stroke-linecap="round" stroke-linejoin="round"/>
<path d="M256.06 58.9302C255.71 59.1802 250.48 62.8102 246.49 63.8102C246.161 63.8923 245.827 63.9558 245.49 64.0002C242.49 64.4002 242.63 63.4302 243.85 59.8102C246.1 53.0702 244.74 47.8102 238.99 45.1902C234.385 43.1229 229.363 42.1541 224.32 42.3602C223.981 42.4362 223.647 42.5331 223.32 42.6502C221.79 43.1802 221.14 44.1202 221.32 45.4602" stroke="#1F1A54" stroke-width="0.74" stroke-linecap="round" stroke-linejoin="round"/>
<path d="M240.54 49.3002C238.312 47.2605 235.627 45.7858 232.71 45.0002C230.073 44.2941 227.35 43.9575 224.62 44.0002C223.14 44.0002 222.02 44.4002 221.81 45.0002" stroke="#1F1A54" stroke-width="0.74" stroke-linecap="round" stroke-linejoin="round"/>
<path d="M261.17 102.48V146.64C261.17 146.64 231.12 152.28 217.17 147.82C216.6 147.63 216.06 147.43 215.54 147.21V99.9102" stroke="#1F1A54" stroke-width="0.74" stroke-linecap="round" stroke-linejoin="round"/>
<path d="M239.65 172.81L234.86 205.16L234.83 243.92H232.11H222.41H220.64L217.17 147.83V147.81" stroke="#1F1A54" stroke-width="0.74" stroke-linecap="round" stroke-linejoin="round"/>
<path d="M232.01 164.13L239.65 172.81L245.48 201.58L266.83 238.36L269.52 236.6L278.18 230.94L279.1 230.34L261.49 197.11L261.18 146.65" stroke="#1F1A54" stroke-width="0.74" stroke-linecap="round" stroke-linejoin="round"/>
<path d="M201.82 257.26C201.71 258.26 202.88 259.02 204.92 259.49C206.545 259.727 208.19 259.801 209.83 259.71C218.53 259.52 234.25 257.71 234.25 257.71C234.25 257.71 233.73 255.39 233.25 252.29C232.881 252.315 232.51 252.315 232.14 252.29C230.501 252.258 228.876 251.978 227.32 251.46C225.612 250.853 223.976 250.062 222.44 249.1C221.44 248.47 220.81 247.96 220.9 247.84C220.296 248.55 219.596 249.173 218.82 249.69C217.977 250.284 217.095 250.822 216.18 251.3C215.43 251.71 214.61 252.08 213.78 252.43C213.27 252.63 212.78 252.82 212.22 252.99L211.16 253.32C209.55 253.82 207.86 254.32 206.63 254.6C205.07 255.02 203.27 255.35 202.52 256.07C202.183 256.357 201.951 256.747 201.86 257.18" stroke="#1F1A54" stroke-width="0.74" stroke-linecap="round" stroke-linejoin="round"/>
<path d="M209.83 259.7C209.83 255.5 206.59 254.7 206.59 254.7" stroke="#1F1A54" stroke-width="0.74" stroke-linecap="round" stroke-linejoin="round"/>
<path d="M201.82 257.25C201.82 257.25 201.48 257.67 201.82 259.13C202.28 261.13 204.09 262.72 209.99 262.64C213.9 262.64 230.47 261.17 232.33 260.96C234.19 260.75 234.93 259.96 234.25 257.74" stroke="#1F1A54" stroke-width="0.74" stroke-linecap="round" stroke-linejoin="round"/>
<path d="M219.84 250.95L218.78 249.76L217.7 248.55" stroke="#1F1A54" stroke-width="0.74" stroke-linecap="round" stroke-linejoin="round"/>
<path d="M217.23 252.85L216.14 251.37L215.3 250.22" stroke="#1F1A54" stroke-width="0.74" stroke-linecap="round" stroke-linejoin="round"/>
<path d="M214.67 253.99L213.74 252.5L212.92 251.18" stroke="#1F1A54" stroke-width="0.74" stroke-linecap="round" stroke-linejoin="round"/>
<path d="M212.1 254.95L211.12 253.39L210.34 252.15" stroke="#1F1A54" stroke-width="0.74" stroke-linecap="round" stroke-linejoin="round"/>
<path d="M271.76 240.78C270.81 240.78 270.27 240.83 270.52 241.16C270.42 242.088 270.198 242.999 269.86 243.87C269.188 245.662 268.323 247.375 267.28 248.98C266.97 249.44 266.65 249.9 266.28 250.34L265.6 251.21C264.54 252.53 263.43 253.87 262.6 254.85C261.55 256.08 260.26 257.37 260.06 258.39C259.94 258.817 259.972 259.273 260.15 259.68C260.59 260.55 262.01 260.54 263.97 259.75C265.437 259.021 266.828 258.147 268.12 257.14C275.12 252.03 287.12 241.62 287.12 241.62C287.12 241.62 285.37 240.02 283.18 237.76C282.941 237.961 282.691 238.148 282.43 238.32C281.026 239.277 279.48 240.009 277.85 240.49C276 241 273.33 240.81 271.76 240.78Z" stroke="#1F1A54" stroke-width="0.74" stroke-linecap="round" stroke-linejoin="round"/>
<path d="M268.16 257.14C265.8 253.66 262.64 254.85 262.64 254.85" stroke="#1F1A54" stroke-width="0.74" stroke-linecap="round" stroke-linejoin="round"/>
<path d="M260.18 259.68C260.18 259.74 260.18 260.27 261.26 261.23C262.78 262.62 265.17 262.89 269.98 259.47C273.17 257.21 285.98 246.6 287.39 245.37C288.8 244.14 288.97 243.09 287.13 241.62" stroke="#1F1A54" stroke-width="0.74" stroke-linecap="round" stroke-linejoin="round"/>
<path d="M271.41 244.25L269.86 243.87L268.29 243.49" stroke="#1F1A54" stroke-width="0.74" stroke-linecap="round" stroke-linejoin="round"/>
<path d="M270.35 247.28L268.61 246.69L267.25 246.23" stroke="#1F1A54" stroke-width="0.74" stroke-linecap="round" stroke-linejoin="round"/>
<path d="M268.89 249.68L267.28 248.98L265.85 248.38" stroke="#1F1A54" stroke-width="0.74" stroke-linecap="round" stroke-linejoin="round"/>
<path d="M267.32 251.93L265.64 251.21L264.28 250.63" stroke="#1F1A54" stroke-width="0.74" stroke-linecap="round" stroke-linejoin="round"/>
<path d="M278.19 230.95L282.44 238.32V238.33" stroke="#1F1A54" stroke-width="0.74" stroke-linecap="round" stroke-linejoin="round"/>
<path d="M269.67 236.85L271.77 240.78" stroke="#1F1A54" stroke-width="0.74" stroke-linecap="round" stroke-linejoin="round"/>
<path d="M232.11 243.92V252.36" stroke="#1F1A54" stroke-width="0.74" stroke-linecap="round" stroke-linejoin="round"/>
<path d="M222.41 243.92L222.52 248.97" stroke="#1F1A54" stroke-width="0.74" stroke-linecap="round" stroke-linejoin="round"/>
<path d="M121 100L133.72 102.41C136.44 102.86 138.72 101.1 139.83 98.56C143.31 90.17 145.62 72.42 148.59 68.37C149.72 66.83 152.35 63.84 153.35 61.2C153.77 60.09 153.96 59.26 154.71 57.5C155.239 56.3368 155.885 55.231 156.64 54.2C157.11 53.58 158.39 51.87 157.2 51.14C156.67 50.82 155.96 51.24 155.73 51.44C155.219 51.8587 154.763 52.339 154.37 52.87C153.656 53.6907 152.899 54.4719 152.1 55.21C152.1 55.21 153.97 51.87 154.71 50.83C155.2 50.14 156.71 48.37 155.52 47.43C155.251 47.2793 154.943 47.2112 154.635 47.2343C154.328 47.2575 154.034 47.3707 153.79 47.56C153.323 48.0102 152.929 48.5296 152.62 49.1C152.17 49.78 149.82 52.67 149.82 52.67C149.82 52.67 152.05 48.31 152.65 47.24C153.12 46.39 154.65 44.12 153.01 43.18C151.94 42.56 150.63 44.36 149.95 45.42C149.02 46.85 146.51 51.51 146.51 51.51L148.36 46.07C148.36 46.07 149.24 43.84 147.79 43.22C146.34 42.6 145.7 44.27 145.34 45.03C143.62 48.66 141.97 52.53 141.23 54.69C140.23 57.64 137.98 49.95 135.57 50.79C133.16 51.63 140.27 63.71 138.08 68.79L130.09 87L123.33 84.62L121 100Z" fill="white" stroke="#1F1A54" stroke-width="0.74" stroke-linecap="round" stroke-linejoin="round"/>
<path d="M142.9 57.1699C142.9 57.1699 144.79 59.1699 144.56 60.8799C145.29 60.1784 146.241 59.7509 147.25 59.6699" stroke="#1F1A54" stroke-width="0.74" stroke-linecap="round" stroke-linejoin="round"/>
<path d="M123.4 257.26C123.4 257.26 123.74 257.68 123.4 259.14C122.94 261.14 121.13 262.73 115.23 262.65C111.32 262.65 92.6999 261.89 90.8499 261.65C88.9999 261.41 90.5399 258.65 91.2299 256.37C91.2299 256.37 115.7 260.5 120.3 259.46C122.34 259 123.51 258.24 123.4 257.26Z" fill="white"/>
<path d="M106.44 249.76C107.283 250.355 108.165 250.892 109.08 251.37C109.84 251.78 110.65 252.15 111.49 252.5C111.99 252.7 112.49 252.89 113.04 253.06L114.1 253.39C115.72 253.89 117.4 254.39 118.63 254.67C120.19 255.09 121.99 255.42 122.74 256.14C123.077 256.427 123.309 256.817 123.4 257.25C123.51 258.25 122.34 259.01 120.3 259.48C115.7 260.48 91.23 256.39 91.23 256.39C91.23 256.39 91.65 254.61 92.16 251.53C92.4518 251.643 92.753 251.73 93.06 251.79C94.684 252.148 96.3753 252.055 97.95 251.52C99.6539 250.912 101.287 250.12 102.82 249.16C103.82 248.53 104.45 248.02 104.36 247.9C104.965 248.612 105.665 249.237 106.44 249.76Z" fill="white"/>
<path d="M102.82 243.92L102.7 249L102.82 249.2C101.301 250.147 99.6855 250.928 98.0001 251.53C96.4254 252.065 94.7342 252.158 93.1101 251.8L93.1701 251.53V243.92H102.82Z" fill="#FFD400"/>
<path d="M57.73 248.61C58.06 249.05 58.4 249.49 58.73 249.91C59.06 250.33 59.2 250.47 59.45 250.75C60.55 252.03 61.73 253.31 62.61 254.25C63.71 255.43 65.07 256.66 65.31 257.67C65.4596 258.087 65.4596 258.543 65.31 258.96C64.9 259.84 63.49 259.91 61.5 259.21C57.05 257.65 38.5 241.21 38.5 241.21C38.5 241.21 39.81 239.93 41.88 237.57C42.1231 237.896 42.3978 238.197 42.7 238.47C43.8503 239.535 45.2554 240.285 46.78 240.65C48.9874 241.141 51.2534 241.316 53.51 241.17C53.91 241.17 54.14 241.07 54.14 240.99C54.2744 241.909 54.5369 242.804 54.92 243.65C55.3151 244.604 55.7763 245.53 56.3 246.42C56.72 247.12 57.21 247.88 57.73 248.61Z" fill="white"/>
<path d="M65.3199 259C65.3199 259 65.3699 259.54 64.3199 260.6C62.8699 262.05 60.4899 262.43 55.5299 259.24C52.2399 257.12 36.8399 246.63 35.3799 245.47C33.9199 244.31 36.7199 242.76 38.4999 241.2C38.4999 241.2 57.0499 257.68 61.4999 259.2C63.4999 259.9 64.8999 259.83 65.3099 258.95L65.3199 259Z" fill="white"/>
<path d="M55.8299 236.29L53.4599 240.78V241.13C51.2033 241.276 48.9373 241.101 46.7299 240.61C45.2053 240.246 43.8002 239.495 42.6499 238.43L42.7499 238.32L46.9999 230.94L55.8299 236.29Z" fill="#FFD400"/>
<path d="M123.4 257.26C123.51 258.26 122.34 259.02 120.3 259.49C115.7 260.49 91.23 256.4 91.23 256.4C91.23 256.4 91.65 254.62 92.16 251.54" stroke="#1F1A54" stroke-width="0.74" stroke-linecap="round" stroke-linejoin="round"/>
<path d="M92.1599 251.54C92.4517 251.653 92.7529 251.74 93.0599 251.8C94.684 252.159 96.3752 252.065 97.9499 251.53C99.6539 250.922 101.287 250.131 102.82 249.17C103.82 248.54 104.45 248.03 104.36 247.91C104.966 248.618 105.666 249.241 106.44 249.76C107.283 250.355 108.165 250.893 109.08 251.37C109.84 251.78 110.65 252.15 111.49 252.5C111.99 252.7 112.49 252.89 113.04 253.06L114.1 253.39C115.72 253.89 117.4 254.39 118.63 254.67C120.19 255.09 121.99 255.42 122.74 256.14C123.077 256.427 123.309 256.817 123.4 257.25" stroke="#1F1A54" stroke-width="0.74" stroke-linecap="round" stroke-linejoin="round"/>
<path d="M123.4 257.25C123.4 257.25 123.74 257.67 123.4 259.13C122.94 261.13 121.13 262.72 115.23 262.64C111.32 262.64 92.6999 261.88 90.8499 261.64C88.9999 261.4 90.5399 258.64 91.2299 256.36" stroke="#1F1A54" stroke-width="0.74" stroke-linecap="round" stroke-linejoin="round"/>
<path d="M105.39 250.95L106.44 249.76L107.52 248.55" stroke="#1F1A54" stroke-width="0.74" stroke-linecap="round" stroke-linejoin="round"/>
<path d="M107.99 252.85L109.08 251.37L109.93 250.22" stroke="#1F1A54" stroke-width="0.74" stroke-linecap="round" stroke-linejoin="round"/>
<path d="M110.56 253.99L111.49 252.5L112.31 251.18" stroke="#1F1A54" stroke-width="0.74" stroke-linecap="round" stroke-linejoin="round"/>
<path d="M113.13 254.95L114.1 253.39L114.89 252.15" stroke="#1F1A54" stroke-width="0.74" stroke-linecap="round" stroke-linejoin="round"/>
<path d="M54.13 240.94C54.2644 241.859 54.5269 242.754 54.91 243.6C55.3052 244.554 55.7663 245.48 56.29 246.37C56.72 247.11 57.21 247.87 57.73 248.6C58.06 249.04 58.4 249.48 58.73 249.9C59.06 250.32 59.2 250.46 59.45 250.74C60.55 252.02 61.73 253.3 62.61 254.24C63.71 255.42 65.07 256.65 65.31 257.66C65.4596 258.077 65.4596 258.533 65.31 258.95V258.95C64.9 259.83 63.49 259.9 61.5 259.2C57.05 257.64 38.5 241.2 38.5 241.2C38.5 241.2 39.81 239.92 41.88 237.56C42.1231 237.886 42.3978 238.188 42.7 238.46C43.8503 239.525 45.2554 240.276 46.78 240.64C48.9874 241.131 51.2534 241.306 53.51 241.16C53.91 241.16 54.14 241.06 54.14 240.98" stroke="#1F1A54" stroke-width="0.74" stroke-linecap="round" stroke-linejoin="round"/>
<path d="M65.3199 259C65.3199 259 65.3699 259.54 64.3199 260.6C62.8699 262.05 60.4899 262.43 55.5299 259.24C52.2399 257.12 36.8399 246.63 35.3799 245.47C33.9199 244.31 36.7199 242.76 38.4999 241.2" stroke="#1F1A54" stroke-width="0.74" stroke-linecap="round" stroke-linejoin="round"/>
<path d="M53.3799 244.06L54.9099 243.61L56.4699 243.16" stroke="#1F1A54" stroke-width="0.74" stroke-linecap="round" stroke-linejoin="round"/>
<path d="M54.5901 247.05L56.2901 246.38L57.6301 245.85" stroke="#1F1A54" stroke-width="0.74" stroke-linecap="round" stroke-linejoin="round"/>
<path d="M56.1499 249.37L57.7399 248.61L59.1299 247.93" stroke="#1F1A54" stroke-width="0.74" stroke-linecap="round" stroke-linejoin="round"/>
<path d="M57.8301 251.56L59.4901 250.75L60.8001 250.12" stroke="#1F1A54" stroke-width="0.74" stroke-linecap="round" stroke-linejoin="round"/>
<path d="M42.79 238.32L47.04 230.94L55.84 236.29L53.46 240.78" stroke="#1F1A54" stroke-width="0.74" stroke-linecap="round" stroke-linejoin="round"/>
<path d="M93.1201 251.53V243.92H102.82L102.7 248.97" stroke="#1F1A54" stroke-width="0.74" stroke-linecap="round" stroke-linejoin="round"/>
<path d="M236.79 54.54C237.237 54.54 237.6 54.0833 237.6 53.52C237.6 52.9567 237.237 52.5 236.79 52.5C236.343 52.5 235.98 52.9567 235.98 53.52C235.98 54.0833 236.343 54.54 236.79 54.54Z" fill="#1F1A54"/>
<path d="M229.45 54.6699C229.897 54.6699 230.26 54.2132 230.26 53.6499C230.26 53.0866 229.897 52.6299 229.45 52.6299C229.003 52.6299 228.64 53.0866 228.64 53.6499C228.64 54.2132 229.003 54.6699 229.45 54.6699Z" fill="#1F1A54"/>
<path d="M238.22 50.48C237.745 50.1796 237.192 50.0233 236.63 50.03C236.026 50.0219 235.435 50.2038 234.94 50.55" stroke="#1F1A54" stroke-width="0.74" stroke-linecap="round" stroke-linejoin="round"/>
<path d="M231.23 50.48C230.755 50.1796 230.202 50.0233 229.64 50.03C229.036 50.0219 228.445 50.2038 227.95 50.55" stroke="#1F1A54" stroke-width="0.74" stroke-linecap="round" stroke-linejoin="round"/>
<path d="M239.51 59.6299C239.272 60.4738 238.805 61.2353 238.161 61.8301C237.517 62.4249 236.72 62.8298 235.86 62.9999" stroke="#1F1A54" stroke-width="0.74" stroke-linecap="round" stroke-linejoin="round"/>
<path d="M234.25 58.2402C233.92 58.4128 233.553 58.503 233.18 58.503C232.807 58.503 232.44 58.4128 232.11 58.2402" stroke="#1F1A54" stroke-width="0.74" stroke-linecap="round" stroke-linejoin="round"/>
<path d="M232.38 71.6099H230.77" stroke="#1F1A54" stroke-width="0.74" stroke-linecap="round" stroke-linejoin="round"/>
<path d="M248.82 70.6899H246.86" stroke="#1F1A54" stroke-width="0.74" stroke-linecap="round" stroke-linejoin="round"/>
<path d="M236.31 79.9302C235.89 81.5489 235.593 83.1969 235.42 84.8602C235.25 87.0302 234.94 97.3402 234.94 97.3402" stroke="#1F1A54" stroke-width="0.74" stroke-linecap="round" stroke-linejoin="round"/>
<path d="M204.26 100L191.54 102.41C188.82 102.86 186.54 101.1 185.44 98.56C181.95 90.17 179.64 72.42 176.67 68.37C175.55 66.83 172.91 63.84 171.92 61.2C171.49 60.09 171.3 59.26 170.55 57.5C170.025 56.3371 169.381 55.2313 168.63 54.2C168.15 53.58 166.87 51.87 168.06 51.14C168.59 50.82 169.3 51.24 169.54 51.44C170.048 51.8614 170.505 52.3414 170.9 52.87C171.611 53.6932 172.369 54.4745 173.17 55.21C173.17 55.21 171.29 51.87 170.55 50.83C170.06 50.14 168.55 48.37 169.75 47.43C170.02 47.2805 170.327 47.2132 170.634 47.2363C170.942 47.2594 171.236 47.3719 171.48 47.56C171.947 48.0102 172.341 48.5296 172.65 49.1C173.09 49.78 175.45 52.67 175.45 52.67C175.45 52.67 173.22 48.31 172.62 47.24C172.15 46.39 170.62 44.12 172.25 43.18C173.33 42.56 174.63 44.36 175.32 45.42C176.24 46.85 178.76 51.51 178.76 51.51L176.9 46.07C176.9 46.07 176.02 43.84 177.47 43.22C178.92 42.6 179.57 44.27 179.93 45.03C181.65 48.66 183.3 52.53 184.04 54.69C185.04 57.64 187.29 49.95 189.7 50.79C192.11 51.63 184.99 63.71 187.19 68.79L195.13 87L201.89 84.62L204.26 100Z" fill="white" stroke="#1F1A54" stroke-width="0.74" stroke-linecap="round" stroke-linejoin="round"/>
<path d="M182.33 57.1699C182.33 57.1699 180.44 59.1699 180.66 60.8799C179.938 60.1847 178.999 59.7576 178 59.6699" stroke="#1F1A54" stroke-width="0.74" stroke-linecap="round" stroke-linejoin="round"/>
<path d="M234.5 168.13L239.16 173.43L239.76 176.37" stroke="#FFD400" stroke-width="0.46" stroke-linecap="round" stroke-linejoin="round"/>
<path d="M301.24 158.74C301.273 159.001 301.241 159.267 301.147 159.513C301.053 159.759 300.899 159.978 300.7 160.15C300.11 160.64 299.02 160.64 297.8 159.51C296.903 158.721 296.19 157.744 295.71 156.65C294.71 154.33 294 160.21 294 160.21C293.507 160.227 293.022 160.091 292.61 159.82C290.76 158.06 293.37 146.54 290.74 141.64C288.74 137.89 280.89 125.64 278.19 119.29C273.68 111.22 269.19 107.64 269.19 107.64L278.55 99L286 106.42C292.05 112.95 296.47 132.06 298.84 136.91C298.84 136.91 302.13 143.91 304.23 146.7C304.23 146.7 310.15 153.25 307.23 155.63C306.49 156.23 305.96 155.93 305.96 155.93C305.941 156.188 305.868 156.439 305.744 156.666C305.62 156.892 305.449 157.09 305.243 157.246C305.036 157.401 304.799 157.51 304.547 157.566C304.294 157.622 304.033 157.624 303.78 157.57C303.763 157.837 303.675 158.095 303.526 158.318C303.377 158.54 303.172 158.72 302.931 158.837C302.691 158.955 302.423 159.007 302.156 158.988C301.889 158.969 301.632 158.88 301.41 158.73L301.24 158.74Z" fill="white"/>
<path d="M303 155.69C303.504 156.193 303.812 156.86 303.87 157.57C303.853 157.837 303.765 158.095 303.616 158.318C303.467 158.54 303.262 158.719 303.021 158.837C302.781 158.955 302.513 159.007 302.246 158.988C301.979 158.969 301.722 158.88 301.5 158.73" stroke="#1F1A54" stroke-width="0.74" stroke-linecap="round" stroke-linejoin="round"/>
<path d="M305.13 153.49C305.69 154.182 306.003 155.041 306.02 155.93C306.001 156.188 305.928 156.439 305.804 156.666C305.68 156.893 305.509 157.09 305.303 157.246C305.096 157.401 304.859 157.511 304.607 157.567C304.354 157.622 304.093 157.624 303.84 157.57" stroke="#1F1A54" stroke-width="0.74" stroke-linecap="round" stroke-linejoin="round"/>
<path d="M306 155.93C306 155.93 306.53 156.23 307.27 155.63C310.16 153.25 304.27 146.7 304.27 146.7C302.17 143.93 298.88 136.91 298.88 136.91C296.51 132.06 292.09 112.91 286.04 106.42L278.55 99L269.17 107.67C269.17 107.67 273.68 111.25 278.17 119.32C280.87 125.68 288.71 137.92 290.72 141.67C293.35 146.57 290.72 158.09 292.59 159.85C293.002 160.121 293.487 160.257 293.98 160.24C293.98 160.24 294.66 154.36 295.69 156.68C296.17 157.774 296.883 158.751 297.78 159.54C299 160.67 300.09 160.67 300.68 160.18C300.879 160.008 301.032 159.789 301.127 159.543C301.221 159.297 301.253 159.031 301.22 158.77C301.157 158.201 300.973 157.652 300.68 157.16" stroke="#1F1A54" stroke-width="0.74" stroke-linecap="round" stroke-linejoin="round"/>
<path d="M237.22 69.0001C237.15 69.8501 234.59 70.7001 233.22 70.6101C231.55 70.4901 230.22 69.4601 230.22 68.8501C230.22 68.2401 231.28 68.5801 232.63 68.6901C233.98 68.8001 237.26 68.3401 237.22 69.0001Z" fill="#1F1A54"/>
<path d="M243.07 100.42V94.2602L248.4 91.1802L253.74 94.2602V100.42L248.4 103.5L243.07 100.42Z" stroke="#1F1A54" stroke-width="0.74" stroke-linecap="round" stroke-linejoin="round"/>
<path d="M147.25 36.3399V30.6299" stroke="#1F1A54" stroke-width="0.74" stroke-linecap="round" stroke-linejoin="round"/>
<path d="M153.78 37.2002L156.55 32.2002" stroke="#1F1A54" stroke-width="0.74" stroke-linecap="round" stroke-linejoin="round"/>
<path d="M159.17 40.6799L163.46 36.9199" stroke="#1F1A54" stroke-width="0.74" stroke-linecap="round" stroke-linejoin="round"/>
<path d="M254.66 43.8101C254.286 42.7537 253.786 41.7463 253.17 40.8101" stroke="white" stroke-width="0.92" stroke-linecap="round" stroke-linejoin="round"/>
<path d="M255 54.67C255.692 51.9954 255.818 49.206 255.37 46.48" stroke="white" stroke-width="0.92" stroke-linecap="round" stroke-linejoin="round"/>
<path d="M238.2 82.34C238.57 82.34 238.87 82.04 238.87 81.67C238.87 81.3 238.57 81 238.2 81C237.83 81 237.53 81.3 237.53 81.67C237.53 82.04 237.83 82.34 238.2 82.34Z" fill="#1F1A54"/>
<path d="M237.53 88.3102C237.9 88.3102 238.2 88.0102 238.2 87.6402C238.2 87.2702 237.9 86.9702 237.53 86.9702C237.16 86.9702 236.86 87.2702 236.86 87.6402C236.86 88.0102 237.16 88.3102 237.53 88.3102Z" fill="#1F1A54"/>
<path d="M237.32 94.6598C237.69 94.6598 237.99 94.3599 237.99 93.9898C237.99 93.6198 237.69 93.3198 237.32 93.3198C236.95 93.3198 236.65 93.6198 236.65 93.9898C236.65 94.3599 236.95 94.6598 237.32 94.6598Z" fill="#1F1A54"/>
<path d="M118.8 112.84C118.861 113.322 118.751 113.81 118.49 114.22C118.407 114.12 118.313 114.029 118.21 113.95C118.402 113.625 118.48 113.245 118.43 112.87C118.382 112.624 118.282 112.39 118.137 112.185C117.993 111.98 117.806 111.808 117.59 111.68C117.695 111.606 117.786 111.515 117.86 111.41C118.108 111.57 118.32 111.779 118.482 112.026C118.643 112.272 118.752 112.549 118.8 112.84Z" fill="#1F1A54"/>
<path d="M118.63 116.93C118.912 117.264 119.055 117.694 119.03 118.13C119.012 118.679 118.836 119.212 118.522 119.663C118.207 120.113 117.769 120.463 117.26 120.67V120.42C117.27 120.377 117.27 120.333 117.26 120.29C117.681 120.102 118.04 119.8 118.298 119.418C118.556 119.037 118.702 118.591 118.72 118.13C118.743 117.801 118.647 117.475 118.45 117.21C118.517 117.122 118.578 117.028 118.63 116.93Z" fill="#1F1A54"/>
<path d="M119 115.59C119.013 116.068 118.873 116.538 118.6 116.93C118.525 116.829 118.429 116.743 118.32 116.68C118.535 116.358 118.643 115.977 118.63 115.59C118.622 115.187 118.469 114.8 118.2 114.5C118.299 114.419 118.386 114.325 118.46 114.22C118.8 114.596 118.992 115.083 119 115.59Z" fill="#1F1A54"/>
<path d="M118.63 116.93C118.559 117.03 118.478 117.124 118.39 117.21C118.314 117.108 118.215 117.025 118.1 116.97C118.194 116.883 118.278 116.786 118.35 116.68C118.46 116.743 118.555 116.828 118.63 116.93Z" fill="#1F1A54"/>
<path d="M118.39 117.21C118.587 117.475 118.683 117.801 118.66 118.13C118.642 118.591 118.496 119.037 118.238 119.419C117.98 119.8 117.621 120.102 117.2 120.29C117.166 120.226 117.113 120.173 117.049 120.137C116.986 120.102 116.913 120.085 116.84 120.09C116.797 120.085 116.753 120.085 116.71 120.09C117.78 119.59 118.3 118.93 118.3 118.09C118.311 117.846 118.244 117.604 118.11 117.4C118.202 117.345 118.286 117.278 118.36 117.2L118.39 117.21Z" fill="#1F1A54"/>
<path d="M118.43 112.87C118.479 113.244 118.402 113.625 118.21 113.95C118.146 113.892 118.062 113.859 117.975 113.859C117.888 113.859 117.804 113.892 117.74 113.95C117.881 113.815 117.987 113.649 118.05 113.464C118.113 113.28 118.13 113.083 118.1 112.89C118.1 112.45 117.59 112.08 117.29 111.89C117.364 111.853 117.434 111.809 117.5 111.76L117.61 111.67C117.823 111.801 118.007 111.976 118.148 112.182C118.289 112.389 118.385 112.623 118.43 112.87Z" fill="#1F1A54"/>
<path d="M118.66 115.59C118.673 115.977 118.565 116.358 118.35 116.68L118.24 116.63C118.176 116.604 118.106 116.598 118.038 116.612C117.97 116.626 117.908 116.66 117.86 116.71C118.009 116.564 118.125 116.39 118.203 116.197C118.28 116.004 118.317 115.797 118.31 115.59C118.295 115.268 118.172 114.962 117.96 114.72C118.059 114.662 118.15 114.591 118.23 114.51C118.497 114.807 118.65 115.19 118.66 115.59Z" fill="#1F1A54"/>
<path d="M118.39 117.21C118.316 117.288 118.232 117.355 118.14 117.41C118.102 117.355 118.05 117.31 117.99 117.28C117.905 117.237 117.839 117.165 117.804 117.076C117.769 116.988 117.768 116.89 117.8 116.8C117.828 116.758 117.858 116.718 117.89 116.68C117.938 116.631 118 116.597 118.068 116.583C118.136 116.568 118.206 116.575 118.27 116.6L118.38 116.65C118.308 116.756 118.224 116.853 118.13 116.94C118.237 117.008 118.327 117.1 118.39 117.21Z" fill="#1F1A54"/>
<path d="M116 108C117.74 108.34 118.35 109.36 118.33 110.16C118.329 110.613 118.158 111.048 117.85 111.38C117.751 111.307 117.647 111.24 117.54 111.18C117.801 110.911 117.951 110.554 117.96 110.18C117.96 109.48 117.38 108.71 115.96 108.42C115.969 108.384 115.969 108.346 115.96 108.31L116 108Z" fill="#1F1A54"/>
<path d="M118.49 114.22C118.416 114.325 118.329 114.419 118.23 114.5C118.154 114.406 118.071 114.319 117.98 114.24C118.076 114.158 118.157 114.06 118.22 113.95C118.32 114.03 118.41 114.12 118.49 114.22Z" fill="#1F1A54"/>
<path d="M118.23 114.5C118.15 114.582 118.059 114.652 117.96 114.71C117.902 114.645 117.838 114.585 117.77 114.53C117.732 114.5 117.7 114.462 117.677 114.42C117.653 114.378 117.638 114.331 117.632 114.282C117.627 114.234 117.631 114.185 117.644 114.139C117.657 114.092 117.68 114.048 117.71 114.01C117.774 113.952 117.858 113.919 117.945 113.919C118.032 113.919 118.116 113.952 118.18 114.01C118.117 114.12 118.036 114.218 117.94 114.3C118.042 114.358 118.139 114.425 118.23 114.5Z" fill="#1F1A54"/>
<path d="M118.11 117.44C118.244 117.644 118.311 117.886 118.3 118.13C118.3 118.96 117.78 119.62 116.71 120.13C114.25 121.31 109.9 121.13 109.83 121.13C108.432 121.216 107.042 121.4 105.67 121.68H105.6C102.31 122.27 98.7999 123.17 98.7799 123.18C96.1017 123.979 93.468 124.921 90.8899 126C83.4299 128.94 73.2099 133 67.1699 132.59C60.6499 132.19 58.0399 112.15 57.6799 109.15L70.5599 108.05C71.2999 115.05 71.5599 117.67 71.7699 118.6C71.7604 118.643 71.7604 118.687 71.7699 118.73H71.8299C71.9299 119.13 72.0199 119.13 72.1499 119.12C72.2491 119.108 72.341 119.062 72.4099 118.99C74.9199 117.34 84.6599 116.2 91.1099 115.44C93.8499 115.12 96.2199 114.83 97.4399 114.59C99.9799 114.09 102.44 111.31 104.61 108.67C105.17 107.96 105.72 107.24 106.25 106.56C107.88 104.43 109.91 101.79 110.56 102.26C111.37 102.85 110.66 104.67 110.08 106.13C109.5 107.59 109.17 108.49 109.64 109.02C110.11 109.55 110.64 109.25 110.88 109.19C112.426 108.791 114.026 108.636 115.62 108.73H115.69C117.02 108.93 117.61 109.6 117.6 110.17C117.602 110.368 117.554 110.562 117.461 110.737C117.369 110.912 117.234 111.06 117.07 111.17C116.635 111.457 116.144 111.648 115.63 111.73C115.578 111.732 115.528 111.745 115.482 111.768C115.436 111.791 115.395 111.823 115.362 111.863C115.329 111.902 115.305 111.948 115.29 111.998C115.276 112.047 115.272 112.099 115.279 112.15C115.286 112.201 115.304 112.25 115.331 112.294C115.358 112.338 115.394 112.375 115.436 112.404C115.479 112.434 115.527 112.454 115.577 112.463C115.628 112.473 115.68 112.472 115.73 112.46C116.286 112.376 116.82 112.182 117.3 111.89C117.6 112.09 118.07 112.46 118.11 112.89C118.14 113.083 118.123 113.28 118.06 113.464C117.997 113.649 117.891 113.815 117.75 113.95C117.253 114.292 116.65 114.445 116.05 114.38C116.001 114.375 115.952 114.379 115.905 114.393C115.858 114.407 115.815 114.429 115.777 114.46C115.739 114.491 115.707 114.529 115.683 114.571C115.66 114.614 115.645 114.661 115.64 114.71C115.635 114.759 115.639 114.808 115.653 114.855C115.667 114.902 115.689 114.945 115.72 114.983C115.751 115.021 115.789 115.053 115.831 115.077C115.874 115.1 115.921 115.115 115.97 115.12H116.29C116.882 115.134 117.466 114.985 117.98 114.69C118.192 114.932 118.315 115.239 118.33 115.56C118.337 115.768 118.3 115.974 118.223 116.167C118.145 116.36 118.028 116.535 117.88 116.68C117.245 117.166 116.469 117.433 115.67 117.44C115.622 117.44 115.574 117.45 115.53 117.468C115.485 117.487 115.445 117.514 115.412 117.549C115.378 117.583 115.352 117.624 115.334 117.669C115.317 117.714 115.309 117.762 115.31 117.81C115.31 117.906 115.347 117.999 115.415 118.068C115.482 118.137 115.574 118.177 115.67 118.18C116.537 118.17 117.384 117.914 118.11 117.44Z" fill="white"/>
<path d="M118 117.31C118.06 117.34 118.112 117.384 118.15 117.44C117.418 117.93 116.56 118.197 115.68 118.21C115.584 118.207 115.492 118.167 115.425 118.098C115.358 118.029 115.32 117.936 115.32 117.84C115.319 117.792 115.327 117.744 115.344 117.699C115.362 117.654 115.388 117.613 115.422 117.579C115.455 117.544 115.496 117.517 115.54 117.498C115.584 117.48 115.632 117.47 115.68 117.47C116.48 117.463 117.255 117.196 117.89 116.71C117.858 116.748 117.828 116.788 117.8 116.83C117.768 116.921 117.771 117.02 117.808 117.108C117.845 117.197 117.913 117.269 118 117.31Z" fill="#1F1A54"/>
<path d="M116 108.42C117.37 108.71 118 109.48 118 110.18C117.991 110.554 117.841 110.911 117.58 111.18L117.45 111.11C117.397 111.078 117.337 111.061 117.275 111.061C117.213 111.061 117.153 111.078 117.1 111.11C117.264 111 117.399 110.852 117.491 110.677C117.584 110.502 117.632 110.308 117.63 110.11C117.63 109.54 117.05 108.87 115.72 108.67C115.787 108.662 115.849 108.633 115.899 108.589C115.949 108.544 115.984 108.485 116 108.42Z" fill="#1F1A54"/>
<path d="M117.76 114.54C117.828 114.595 117.892 114.655 117.95 114.72C117.437 115.015 116.852 115.164 116.26 115.15H115.94C115.842 115.139 115.752 115.09 115.69 115.013C115.628 114.936 115.599 114.838 115.61 114.74C115.621 114.642 115.67 114.552 115.747 114.49C115.824 114.428 115.922 114.399 116.02 114.41C116.62 114.475 117.223 114.322 117.72 113.98C117.682 114.018 117.653 114.063 117.634 114.113C117.615 114.163 117.608 114.216 117.611 114.269C117.615 114.322 117.63 114.374 117.656 114.421C117.682 114.468 117.717 114.508 117.76 114.54Z" fill="#1F1A54"/>
<path d="M117.86 111.41C117.786 111.514 117.694 111.606 117.59 111.68C117.483 111.6 117.369 111.53 117.25 111.47C117.359 111.394 117.46 111.307 117.55 111.21C117.657 111.27 117.761 111.337 117.86 111.41Z" fill="#1F1A54"/>
<path d="M117.59 111.68L117.48 111.77C117.414 111.819 117.343 111.862 117.27 111.9L117.1 111.8C117.056 111.779 117.016 111.749 116.983 111.712C116.951 111.675 116.926 111.632 116.91 111.586C116.894 111.539 116.888 111.49 116.891 111.441C116.895 111.392 116.908 111.344 116.93 111.3C116.956 111.251 116.994 111.21 117.04 111.18C117.093 111.148 117.153 111.131 117.215 111.131C117.277 111.131 117.337 111.148 117.39 111.18L117.52 111.25C117.43 111.347 117.329 111.434 117.22 111.51C117.348 111.555 117.472 111.612 117.59 111.68Z" fill="#1F1A54"/>
<path d="M117.42 122.26C117.453 122.529 117.432 122.801 117.357 123.061C117.282 123.32 117.155 123.562 116.984 123.772C116.813 123.981 116.601 124.153 116.362 124.279C116.122 124.404 115.859 124.479 115.59 124.5L108.9 125.17V124.8L115.56 124.13C115.779 124.109 115.991 124.045 116.185 123.941C116.379 123.838 116.551 123.697 116.69 123.527C116.829 123.357 116.934 123.161 116.997 122.95C117.061 122.74 117.082 122.519 117.06 122.3L116.91 120.84H117.04L117.27 120.72L117.42 122.26Z" fill="#1F1A54"/>
<path d="M117.24 120.42V120.67L117.01 120.79H116.88V120.41L117.21 120.24C117.24 120.295 117.25 120.359 117.24 120.42Z" fill="#1F1A54"/>
<path d="M117.1 111.8L117.27 111.9C116.79 112.192 116.256 112.386 115.7 112.47C115.65 112.482 115.598 112.483 115.547 112.473C115.497 112.464 115.449 112.444 115.406 112.415C115.364 112.385 115.328 112.348 115.301 112.304C115.274 112.26 115.257 112.211 115.25 112.16C115.243 112.109 115.246 112.057 115.26 112.008C115.275 111.958 115.299 111.912 115.332 111.873C115.365 111.833 115.406 111.801 115.452 111.778C115.498 111.755 115.549 111.742 115.6 111.74C116.114 111.658 116.605 111.467 117.04 111.18C116.994 111.21 116.956 111.251 116.93 111.3C116.908 111.344 116.895 111.392 116.891 111.441C116.888 111.49 116.894 111.539 116.91 111.586C116.926 111.632 116.951 111.675 116.984 111.712C117.016 111.749 117.056 111.779 117.1 111.8Z" fill="#1F1A54"/>
<path d="M117.2 120.29L116.87 120.46L116.52 120.61V120.49C116.512 120.415 116.527 120.34 116.562 120.274C116.598 120.208 116.653 120.154 116.72 120.12C116.763 120.114 116.807 120.114 116.85 120.12C116.918 120.114 116.987 120.127 117.048 120.157C117.11 120.187 117.162 120.233 117.2 120.29Z" fill="#1F1A54"/>
<path d="M117.05 122.3C117.072 122.519 117.051 122.74 116.987 122.95C116.924 123.16 116.819 123.356 116.68 123.526C116.541 123.696 116.369 123.837 116.175 123.941C115.981 124.044 115.769 124.109 115.55 124.13L108.89 124.8L107.63 124.92C107.411 124.942 107.19 124.921 106.98 124.857C106.769 124.794 106.573 124.689 106.403 124.55C106.233 124.411 106.093 124.239 105.989 124.045C105.885 123.851 105.821 123.639 105.8 123.42L105.7 122.42H106.04L106.14 123.42C106.178 123.763 106.349 124.078 106.616 124.297C106.883 124.516 107.226 124.621 107.57 124.59L115.49 123.81C115.833 123.772 116.148 123.601 116.367 123.334C116.586 123.066 116.691 122.724 116.66 122.38L116.52 121.03C116.639 120.986 116.756 120.936 116.87 120.88L117.05 122.3Z" fill="#1F1A54"/>
<path d="M116.87 120.46V120.84C116.756 120.896 116.639 120.946 116.52 120.99V120.61L116.87 120.46Z" fill="#1F1A54"/>
<path d="M116.69 122.34C116.721 122.684 116.616 123.026 116.397 123.294C116.178 123.561 115.863 123.732 115.52 123.77L107.6 124.55C107.256 124.581 106.914 124.475 106.646 124.257C106.379 124.038 106.208 123.723 106.17 123.38L106.07 122.38C107.311 122.133 108.567 121.969 109.83 121.89C112.103 121.992 114.376 121.701 116.55 121.03L116.69 122.34Z" fill="#FFD400"/>
<path d="M116.71 120.12C116.643 120.154 116.588 120.208 116.552 120.274C116.516 120.34 116.502 120.415 116.51 120.49V120.61C114.35 121.282 112.09 121.576 109.83 121.48C108.543 121.569 107.264 121.743 106 122C105.99 121.914 105.949 121.835 105.884 121.778C105.82 121.721 105.736 121.69 105.65 121.69C107.022 121.41 108.412 121.226 109.81 121.14C109.9 121.11 114.25 121.3 116.71 120.12Z" fill="#1F1A54"/>
<path d="M116 108.31C116.009 108.346 116.009 108.384 116 108.42L115.65 108.35V107.98H115.72H116.03L116 108.31Z" fill="#1F1A54"/>
<path d="M115.37 101.52L116 108H115.69H115.62L115 101.42L115.37 101.52Z" fill="#1F1A54"/>
<path d="M115.67 108.35L116.02 108.42C116.011 108.497 115.975 108.568 115.918 108.621C115.861 108.674 115.788 108.706 115.71 108.71C115.616 108.715 115.524 108.684 115.453 108.622C115.382 108.561 115.338 108.474 115.33 108.38V108.32H115.67V108.35Z" fill="#1F1A54"/>
<path d="M115.69 108.71H115.62C114.026 108.616 112.427 108.771 110.88 109.17C110.66 109.23 110.01 109.41 109.64 109C109.27 108.59 109.55 107.49 110.08 106.11C110.61 104.73 111.37 102.83 110.56 102.24C109.91 101.77 107.88 104.41 106.25 106.54C105.72 107.22 105.17 107.94 104.61 108.65C104.644 108.611 104.67 108.564 104.685 108.515C104.701 108.465 104.706 108.412 104.7 108.36V107.97C107.42 104.53 109.7 101.11 110.83 101.97C112.89 103.48 107.83 109.67 110.83 108.83C112.307 108.457 113.828 108.289 115.35 108.33V108.39C115.36 108.475 115.399 108.554 115.461 108.613C115.524 108.671 115.605 108.706 115.69 108.71Z" fill="#1F1A54"/>
<path d="M115.67 108.35H115.33V107.97H115.7L115.67 108.35Z" fill="#1F1A54"/>
<path d="M115 101.42L115.64 107.98H115.27L114.48 99.9999C114.463 99.8243 114.41 99.6539 114.326 99.4989C114.242 99.3438 114.127 99.2073 113.989 99.0973C113.851 98.9873 113.693 98.906 113.523 98.8584C113.353 98.8108 113.175 98.7977 113 98.8199L105.09 99.6099C104.92 99.623 104.754 99.6705 104.603 99.7496C104.451 99.8286 104.318 99.9376 104.21 100.07C103.982 100.351 103.874 100.71 103.91 101.07L104.55 107.52C104.449 107.663 104.338 107.8 104.22 107.93L103.55 101.1C103.527 100.881 103.547 100.659 103.61 100.448C103.673 100.237 103.777 100.041 103.917 99.8707C104.056 99.7004 104.228 99.5596 104.423 99.4564C104.618 99.3533 104.831 99.2899 105.05 99.2699L112.97 98.4899C113.189 98.4678 113.41 98.4891 113.62 98.5526C113.831 98.6161 114.026 98.7205 114.196 98.8599C114.366 98.9992 114.507 99.1708 114.611 99.3647C114.714 99.5586 114.779 99.7711 114.8 99.9899L115 101.42Z" fill="#1F1A54"/>
<path d="M115.21 99.9201L115.37 101.52L114.99 101.42L114.84 100C114.819 99.7813 114.755 99.5689 114.651 99.3749C114.547 99.181 114.407 99.0095 114.237 98.8701C114.067 98.7307 113.871 98.6263 113.66 98.5628C113.45 98.4993 113.229 98.478 113.01 98.5001L105.09 99.2801C104.871 99.3001 104.658 99.3635 104.463 99.4667C104.269 99.5698 104.096 99.7106 103.957 99.881C103.817 100.051 103.713 100.248 103.65 100.459C103.587 100.67 103.567 100.891 103.59 101.11L104.26 107.94L104.03 108.24L103.94 108.35L103.23 101.15C103.2 100.88 103.226 100.607 103.305 100.348C103.384 100.088 103.515 99.8474 103.69 99.6401C103.858 99.4333 104.066 99.2621 104.301 99.1368C104.537 99.0114 104.795 98.9344 105.06 98.9101L112.98 98.1301C113.245 98.0982 113.513 98.1195 113.769 98.1926C114.025 98.2657 114.264 98.3893 114.472 98.556C114.679 98.7228 114.852 98.9293 114.978 99.1636C115.105 99.3978 115.184 99.655 115.21 99.9201Z" fill="#1F1A54"/>
<path d="M115.26 107.94V108.32C113.738 108.278 112.217 108.447 110.74 108.82C107.74 109.66 112.8 103.47 110.74 101.96C109.61 101.14 107.33 104.56 104.61 107.96L104.55 107.45L105.63 106.06C108.01 102.96 109.73 100.73 110.96 101.62C112.19 102.51 111.43 104.56 110.74 106.35C110.46 107.07 109.99 108.27 110.15 108.48H110.26C110.389 108.476 110.516 108.456 110.64 108.42C112.153 108.061 113.706 107.9 115.26 107.94Z" fill="#1F1A54"/>
<path d="M114.48 100L115.26 107.94C113.717 107.92 112.178 108.098 110.68 108.47C110.556 108.506 110.429 108.526 110.3 108.53H110.19C110.03 108.32 110.5 107.12 110.78 106.4C111.47 104.61 112.26 102.6 111 101.67C109.74 100.74 108 103.01 105.67 106.11L104.59 107.5L104 101C103.964 100.64 104.072 100.281 104.3 100C104.408 99.8677 104.541 99.7587 104.693 99.6797C104.844 99.6006 105.01 99.5531 105.18 99.54L113.09 98.75C113.263 98.7406 113.437 98.7654 113.601 98.8232C113.764 98.8809 113.915 98.9704 114.044 99.0865C114.173 99.2027 114.278 99.3431 114.353 99.4999C114.428 99.6566 114.471 99.8266 114.48 100Z" fill="#FFD400"/>
<path d="M70.8598 107.29L57.2398 108.44C57.1899 108.442 57.1412 108.455 57.0976 108.48C57.0541 108.504 57.0171 108.538 56.9898 108.58C56.9564 108.614 56.931 108.655 56.9154 108.7C56.8998 108.745 56.8945 108.793 56.8998 108.84L54.9998 109C54.9998 109 53.9998 87.3102 57.9998 82.4302C61.1698 78.5902 76.4098 73.9102 76.4098 73.9102L78.9198 77.0002C79.9303 78.2355 81.2485 79.1828 82.7417 79.7464C84.2349 80.31 85.8502 80.47 87.425 80.2104C88.9997 79.9509 90.4782 79.2808 91.7115 78.2678C92.9448 77.2547 93.8893 75.9345 94.4498 74.4402L123.33 84.6702L120.51 102.8L115.37 101.55L115.21 99.9501C115.192 99.6808 115.121 99.4178 114.999 99.1769C114.877 98.936 114.708 98.7223 114.502 98.5485C114.295 98.3747 114.056 98.2445 113.798 98.1657C113.54 98.087 113.268 98.0613 113 98.0901L105.08 98.8702C104.814 98.8944 104.556 98.9714 104.321 99.0968C104.086 99.2222 103.878 99.3933 103.71 99.6002C103.535 99.8075 103.404 100.048 103.325 100.308C103.245 100.567 103.22 100.84 103.25 101.11L103.96 108.31C102.06 110.69 99.5898 113.42 97.2998 113.88C96.1098 114.12 93.7498 114.39 91.0298 114.71C84.4398 115.49 75.5498 116.54 72.4198 118.14C72.2098 116.47 71.6498 111.24 71.2698 107.62C71.2677 107.57 71.255 107.522 71.2325 107.477C71.2101 107.433 71.1784 107.394 71.1395 107.362C71.1007 107.331 71.0557 107.308 71.0075 107.296C70.9592 107.284 70.9089 107.282 70.8598 107.29Z" fill="#FFD400"/>
<path d="M108.06 147.83C94.0601 152.29 64.0601 146.65 64.0601 146.65V131.76C64.8486 132.65 65.9459 133.208 67.1301 133.32C67.4001 133.32 67.6801 133.32 67.9601 133.32C74.2301 133.32 83.9601 129.49 91.1601 126.67C93.7047 125.586 96.3089 124.648 98.9601 123.86C98.9601 123.86 102.2 123.03 105.35 122.44L105.45 123.44C105.501 123.939 105.732 124.402 106.101 124.743C106.469 125.083 106.949 125.278 107.45 125.29H107.65L108.88 125.17L109.67 147.17C109.17 147.44 108.63 147.64 108.06 147.83Z" fill="#FFD400"/>
<path d="M108.89 124.8V125.17L107.66 125.29H107.46C106.959 125.278 106.479 125.084 106.111 124.743C105.742 124.402 105.511 123.939 105.46 123.44L105.36 122.44L105.72 122.37L105.82 123.37C105.841 123.589 105.906 123.801 106.009 123.995C106.113 124.189 106.254 124.361 106.424 124.5C106.594 124.639 106.789 124.744 107 124.807C107.21 124.871 107.431 124.892 107.65 124.87L108.89 124.8Z" fill="#1F1A54"/>
<path d="M85.5801 172.81L79.7401 201.58L58.4001 238.36L46.1201 230.36L63.7301 197.13L64.0501 146.67C64.0501 146.67 94.1001 152.31 108.05 147.85L104.57 243.94H90.3901V205.18L85.5801 172.81Z" fill="#1F1A54"/>
<path d="M106 122V122.34H105.66V121.97L106 122Z" fill="#1F1A54"/>
<path d="M106 122L105.64 122.06L105.28 122.13C105.269 122.038 105.293 121.944 105.349 121.87C105.405 121.795 105.488 121.745 105.58 121.73H105.65C105.731 121.728 105.809 121.754 105.873 121.803C105.937 121.852 105.982 121.922 106 122Z" fill="#1F1A54"/>
<path d="M105.66 122V122.37L105.3 122.44V122.07L105.66 122Z" fill="#1F1A54"/>
<path d="M64.0499 131.76C58.8099 126.48 56.9899 109.68 56.8999 108.84H57.2599C57.2599 108.84 59.7399 132.5 67.1399 133C76.0299 133.54 93.5999 124.82 98.8599 123.58C98.8599 123.58 102.09 122.75 105.3 122.15V122.52C102.15 123.11 98.9499 123.93 98.9099 123.94C96.2588 124.728 93.6546 125.666 91.1099 126.75C83.9099 129.57 74.1799 133.4 67.9099 133.4C67.6299 133.4 67.3499 133.4 67.0799 133.4C65.8984 133.257 64.8153 132.671 64.0499 131.76Z" fill="#1F1A54"/>
<path d="M105.6 121.67C105.508 121.685 105.425 121.735 105.369 121.81C105.313 121.884 105.288 121.978 105.3 122.07C102.09 122.67 98.86 123.5 98.86 123.5C93.6 124.74 76.03 133.5 67.14 132.92C59.74 132.47 57.26 108.78 57.26 108.78L70.89 107.62C70.89 107.62 72.11 119.34 72.11 118.7C75.62 116.29 93.18 115.03 97.35 114.21C99.61 113.76 101.96 111.3 104.08 108.68C104.142 108.739 104.225 108.771 104.31 108.77C104.402 108.76 104.487 108.717 104.55 108.65C102.43 111.29 99.92 114.07 97.38 114.57C96.16 114.81 93.79 115.1 91.05 115.42C84.6 116.18 74.86 117.32 72.35 118.97C72.2811 119.042 72.1891 119.088 72.09 119.1C71.96 119.1 71.87 119.1 71.77 118.71H71.71C71.7005 118.667 71.7005 118.623 71.71 118.58C71.51 117.65 71.24 115.08 70.5 108.03L57.62 109.13C57.98 112.13 60.62 132.13 67.11 132.57C73.11 132.93 83.37 128.92 90.83 125.98C93.4079 124.897 96.0416 123.953 98.72 123.15C98.72 123.15 102.31 122.26 105.6 121.67Z" fill="#1F1A54"/>
<path d="M104.68 108.39C104.686 108.442 104.681 108.494 104.665 108.544C104.65 108.594 104.624 108.64 104.59 108.68C104.527 108.747 104.442 108.79 104.35 108.8C104.265 108.801 104.182 108.769 104.12 108.71L104.35 108.43C104.47 108.29 104.58 108.14 104.69 108L104.68 108.39Z" fill="#1F1A54"/>
<path d="M104.59 107.49L104.65 108C104.54 108.14 104.43 108.29 104.31 108.43V107.9C104.411 107.769 104.505 107.632 104.59 107.49Z" fill="#1F1A54"/>
<path d="M104.26 107.9V108.43L104.03 108.71C103.957 108.65 103.91 108.564 103.9 108.47V108.31L103.99 108.2L104.26 107.9Z" fill="#1F1A54"/>
<path d="M104 108.47C104.01 108.564 104.057 108.65 104.13 108.71C102.01 111.33 99.6599 113.79 97.3999 114.24C93.2299 115.06 75.6699 116.32 72.1599 118.73C72.1599 119.37 70.9399 107.65 70.9399 107.65V107.29C70.9875 107.284 71.0357 107.289 71.0816 107.303C71.1274 107.316 71.1699 107.339 71.2065 107.37C71.243 107.401 71.2728 107.439 71.2941 107.482C71.3153 107.525 71.3275 107.572 71.3299 107.62C71.7099 111.24 72.2699 116.47 72.4799 118.14C75.6099 116.54 84.4799 115.49 91.0899 114.71C93.8099 114.39 96.1699 114.12 97.3599 113.88C99.6499 113.42 102.12 110.69 104.02 108.31L104 108.47Z" fill="#1F1A54"/>
<path d="M90 43.0902C90.38 43.4002 95.26 47.2002 92.48 47.1502C89.7 47.1002 82.06 43.3902 81.83 43.2802C82.2162 44.8218 82.3346 46.4184 82.18 48.0002C82.1674 49.0019 81.9456 49.9899 81.5289 50.9008C81.1121 51.8118 80.5096 52.6256 79.76 53.2902C79.0992 51.8338 77.9343 50.6653 76.48 50.0002C75.6932 49.72 74.831 49.7384 74.0568 50.0517C73.2826 50.3651 72.6504 50.9516 72.28 51.7002C72 50.2202 70 47.1502 71 42.9102C71.3704 41.3531 72.3408 40.0053 73.7 39.1602C74.1443 38.8607 74.6248 38.6188 75.13 38.4402C75.3172 38.3569 75.5112 38.29 75.71 38.2402C75.86 38.0002 76 37.7702 76.16 37.5602C81.03 30.7302 93.91 33.8202 100.88 40.6202C106.67 46.2702 103.23 47.9202 100.12 46.9302L99.22 46.6202C96.33 45.5802 90.41 43.2602 90 43.0902Z" fill="#1F1A54"/>
<path d="M92.8499 69.3598V73.5198L94.4499 74.4098C93.8928 75.9063 92.9508 77.2294 91.7191 78.2456C90.4873 79.2619 89.0094 79.9353 87.4343 80.1979C85.8592 80.4606 84.2427 80.3033 82.7478 79.7418C81.253 79.1803 79.9326 78.2345 78.9199 76.9998L76.4 73.9098L78.7499 72.9998V61.9998C75.0599 61.4598 72.2699 59.5898 71.5899 56.1098C71.2579 54.6021 71.5042 53.0247 72.2799 51.6898C72.6504 50.9413 73.2826 50.3548 74.0568 50.0414C74.8309 49.7281 75.6932 49.7097 76.48 49.9898C77.9236 50.6471 79.0838 51.8002 79.7499 53.2398C80.4953 52.5819 81.096 51.7765 81.5143 50.8746C81.9325 49.9727 82.1592 48.9938 82.1799 47.9998C82.3301 46.4208 82.2084 44.8277 81.8199 43.2898C82.0499 43.3998 89.6199 47.0998 92.4699 47.1598C95.32 47.2198 90.3699 43.3998 89.9999 43.0898C90.4199 43.2598 96.34 45.5798 99.26 46.5898C99.61 52.0998 99.7099 60.1598 98.6399 63.4798C97.6399 66.5798 95.8899 68.6398 92.8499 69.3598ZM96.58 53.6498C96.6107 53.5274 96.6131 53.3996 96.587 53.2761C96.5609 53.1527 96.5071 53.0367 96.4294 52.9372C96.3518 52.8377 96.2525 52.7572 96.1391 52.7018C96.0257 52.6464 95.9012 52.6177 95.775 52.6177C95.6487 52.6177 95.5242 52.6464 95.4108 52.7018C95.2974 52.7572 95.1981 52.8377 95.1205 52.9372C95.0428 53.0367 94.9889 53.1527 94.9629 53.2761C94.9368 53.3996 94.9392 53.5274 94.9699 53.6498C94.9392 53.7723 94.9368 53.9001 94.9629 54.0235C94.9889 54.147 95.0428 54.2629 95.1205 54.3625C95.1981 54.462 95.2974 54.5425 95.4108 54.5979C95.5242 54.6532 95.6487 54.682 95.775 54.682C95.9012 54.682 96.0257 54.6532 96.1391 54.5979C96.2525 54.5425 96.3518 54.462 96.4294 54.3625C96.5071 54.2629 96.5609 54.147 96.587 54.0235C96.6131 53.9001 96.6107 53.7723 96.58 53.6498ZM89.2499 53.5198C89.2771 53.3985 89.2766 53.2725 89.2485 53.1514C89.2204 53.0302 89.1655 52.9169 89.0877 52.8198C89.01 52.7227 88.9114 52.6444 88.7992 52.5905C88.6871 52.5367 88.5643 52.5087 88.44 52.5087C88.3156 52.5087 88.1928 52.5367 88.0807 52.5905C87.9685 52.6444 87.8699 52.7227 87.7922 52.8198C87.7144 52.9169 87.6595 53.0302 87.6314 53.1514C87.6033 53.2725 87.6028 53.3985 87.6299 53.5198C87.6028 53.6412 87.6033 53.7672 87.6314 53.8883C87.6595 54.0095 87.7144 54.1228 87.7922 54.2199C87.8699 54.317 87.9685 54.3953 88.0807 54.4492C88.1928 54.503 88.3156 54.531 88.44 54.531C88.5643 54.531 88.6871 54.503 88.7992 54.4492C88.9114 54.3953 89.01 54.317 89.0877 54.2199C89.1655 54.1228 89.2204 54.0095 89.2485 53.8883C89.2766 53.7672 89.2771 53.6412 89.2499 53.5198Z" fill="white"/>
<path d="M95.7801 52.6299C96.0161 52.6623 96.2307 52.7842 96.3796 52.9702C96.5285 53.1563 96.6002 53.3924 96.5801 53.6299C96.6108 53.7523 96.6132 53.8801 96.5872 54.0036C96.5611 54.1271 96.5072 54.243 96.4296 54.3425C96.3519 54.442 96.2526 54.5225 96.1392 54.5779C96.0258 54.6333 95.9013 54.6621 95.7751 54.6621C95.6489 54.6621 95.5243 54.6333 95.4109 54.5779C95.2975 54.5225 95.1982 54.442 95.1206 54.3425C95.043 54.243 94.9891 54.1271 94.963 54.0036C94.9369 53.8801 94.9393 53.7523 94.9701 53.6299C94.9501 53.3909 95.0232 53.1535 95.1742 52.9672C95.3251 52.7808 95.5422 52.66 95.7801 52.6299Z" fill="#1F1A54"/>
<path d="M88.4301 52.5C88.6698 52.5277 88.8894 52.6475 89.0424 52.8341C89.1954 53.0207 89.2699 53.2595 89.2501 53.5C89.2773 53.6214 89.2768 53.7473 89.2487 53.8685C89.2206 53.9897 89.1657 54.103 89.0879 54.2C89.0101 54.2971 88.9115 54.3755 88.7994 54.4293C88.6873 54.4832 88.5645 54.5111 88.4401 54.5111C88.3157 54.5111 88.1929 54.4832 88.0808 54.4293C87.9687 54.3755 87.8701 54.2971 87.7923 54.2C87.7146 54.103 87.6596 53.9897 87.6315 53.8685C87.6035 53.7473 87.603 53.6214 87.6301 53.5C87.61 53.2626 87.6817 53.0264 87.8306 52.8404C87.9794 52.6543 88.194 52.5325 88.4301 52.5Z" fill="#1F1A54"/>
<path d="M74.3099 32.5501C75.0864 33.1007 75.6804 33.8712 76.0155 34.7622C76.3505 35.6533 76.4113 36.6242 76.1899 37.5501C76.0299 37.7601 75.8899 37.9901 75.7399 38.2301C72.5099 37.6601 71.6599 30.8001 74.3099 32.5501Z" fill="#1F1A54"/>
<path d="M75.15 38.4298C74.6448 38.6084 74.1643 38.8503 73.72 39.1498C68.72 40.1498 66.62 37.0198 69.42 36.3498C72.22 35.6798 75.15 38.4298 75.15 38.4298Z" fill="#1F1A54"/>
<path d="M70.8599 107.29V107.65L57.2299 108.81H56.8699C56.8646 108.763 56.87 108.715 56.8855 108.67C56.9011 108.625 56.9265 108.584 56.9599 108.55C56.9872 108.508 57.0242 108.474 57.0678 108.449C57.1113 108.425 57.16 108.412 57.2099 108.41L70.8599 107.29Z" fill="#1F1A54"/>
<path d="M99.2399 46.6201C99.5899 52.1301 99.6899 60.1901 98.6199 63.5101C97.6199 66.5801 95.8899 68.6401 92.8499 69.3601C92.5899 69.4201 92.3199 69.4801 92.0499 69.5201C90.4199 69.7601 86.3999 69.2401 84.1399 67.0501" stroke="#1F1A54" stroke-width="0.74" stroke-linecap="round" stroke-linejoin="round"/>
<path d="M85.72 59.6299C85.9573 60.4725 86.4228 61.2331 87.0651 61.8278C87.7075 62.4225 88.5016 62.8281 89.36 62.9999" stroke="#1F1A54" stroke-width="0.74" stroke-linecap="round" stroke-linejoin="round"/>
<path d="M91 58.23C91.3295 58.4051 91.6969 58.4967 92.07 58.4967C92.4431 58.4967 92.8105 58.4051 93.14 58.23" stroke="#1F1A54" stroke-width="0.74" stroke-linecap="round" stroke-linejoin="round"/>
<path d="M79.9999 53.9398C79.9245 53.7141 79.8343 53.4937 79.73 53.2798C79.0746 51.8323 77.9213 50.6684 76.48 49.9998C75.6932 49.7197 74.8309 49.738 74.0568 50.0514C73.2826 50.3647 72.6504 50.9513 72.2799 51.6998C71.5042 53.0346 71.2579 54.612 71.5899 56.1198C72.2699 59.5998 75.0599 61.4698 78.7499 62.0098" stroke="#1F1A54" stroke-width="0.74" stroke-miterlimit="10" stroke-linecap="round"/>
<path d="M73.69 39.1602C72.3346 40.0072 71.3679 41.3547 71 42.9102C70 47.1502 72 50.2202 72.28 51.7202" stroke="#1F1A54" stroke-width="0.74" stroke-linecap="round" stroke-linejoin="round"/>
<path d="M76.18 37.5498C76.02 37.7598 75.88 37.9898 75.73 38.2298C75.5312 38.2797 75.3372 38.3466 75.15 38.4298C74.6448 38.6084 74.1643 38.8503 73.72 39.1498" stroke="#1F1A54" stroke-width="0.74" stroke-linecap="round" stroke-linejoin="round"/>
<path d="M90 43.0899C90.42 43.2599 96.34 45.5799 99.26 46.5899L100.16 46.8999C103.27 47.8999 106.71 46.2399 100.92 40.5899C93.92 33.7899 81.07 30.6999 76.2 37.5299" stroke="#1F1A54" stroke-width="0.74" stroke-linecap="round" stroke-linejoin="round"/>
<path d="M81.8101 43.2698C82.0401 43.3798 89.6101 47.0798 92.4601 47.1398C95.3101 47.1998 90.3701 43.3998 90.0001 43.0898" stroke="#1F1A54" stroke-width="0.74" stroke-linecap="round" stroke-linejoin="round"/>
<path d="M79.76 53.28C80.5084 52.6166 81.1102 51.8044 81.5269 50.8953C81.9436 49.9861 82.166 49 82.18 48C82.3302 46.421 82.2084 44.8279 81.82 43.29" stroke="#1F1A54" stroke-width="0.74" stroke-linecap="round" stroke-linejoin="round"/>
<path d="M75.1501 38.4301C75.1501 38.4301 72.2201 35.7101 69.3901 36.3601C66.5601 37.0101 68.7201 40.1401 73.6901 39.1601" stroke="#1F1A54" stroke-width="0.74" stroke-linecap="round" stroke-linejoin="round"/>
<path d="M75.1399 53.6499C75.1399 53.6499 77.3499 53.9899 77.6799 57.4499" stroke="#1F1A54" stroke-width="0.74" stroke-miterlimit="10" stroke-linecap="round"/>
<path d="M78.7499 62.0298V62.0398V72.9898L76.3999 73.9098" stroke="#1F1A54" stroke-width="0.74" stroke-linecap="round" stroke-linejoin="round"/>
<path d="M92.8501 69.3599V73.5199L94.4501 74.4099" stroke="#1F1A54" stroke-width="0.74" stroke-linecap="round" stroke-linejoin="round"/>
<path d="M56.9 108.84L55 109C55 109 54 87.3102 58 82.4302C61.17 78.5902 76.41 73.9102 76.41 73.9102L78.92 77.0002C79.9305 78.2355 81.2487 79.1828 82.7419 79.7464C84.2351 80.31 85.8505 80.47 87.4252 80.2104C89 79.9509 90.4785 79.2808 91.7118 78.2678C92.945 77.2547 93.8895 75.9345 94.45 74.4402L123.33 84.6702L120.51 102.8L115.37 101.55" stroke="#1F1A54" stroke-width="0.74" stroke-linecap="round" stroke-linejoin="round"/>
<path d="M69.6599 96.3501L70.8599 107.29" stroke="#1F1A54" stroke-width="0.74" stroke-linecap="round" stroke-linejoin="round"/>
<path d="M64.05 131.76V146.65C64.05 146.65 94.1 152.29 108.05 147.83C108.62 147.64 109.16 147.44 109.68 147.22L108.89 125.22" stroke="#1F1A54" stroke-width="0.74" stroke-linecap="round" stroke-linejoin="round"/>
<path d="M85.5801 172.81L90.3601 205.16L90.3901 243.92H104.58L108.06 147.83V147.81" stroke="#1F1A54" stroke-width="0.74" stroke-linecap="round" stroke-linejoin="round"/>
<path d="M93.2101 164.13L85.5801 172.81L79.7401 201.58L58.4001 238.36L46.1201 230.34L63.7401 197.11L64.0501 146.65" stroke="#1F1A54" stroke-width="0.74" stroke-linecap="round" stroke-linejoin="round"/>
<mask id="mask0" mask-type="alpha" maskUnits="userSpaceOnUse" x="54" y="73" width="70" height="77">
<path d="M70.8598 107.29L57.2398 108.44C57.1899 108.442 57.1412 108.455 57.0976 108.48C57.0541 108.504 57.0171 108.538 56.9898 108.58C56.9564 108.614 56.931 108.655 56.9154 108.7C56.8998 108.745 56.8945 108.793 56.8998 108.84L54.9998 109C54.9998 109 53.9998 87.3102 57.9998 82.4302C61.1698 78.5902 76.4098 73.9102 76.4098 73.9102L78.9198 77.0002C79.9303 78.2355 81.2485 79.1828 82.7417 79.7464C84.2349 80.31 85.8502 80.47 87.425 80.2104C88.9997 79.9509 90.4782 79.2808 91.7115 78.2678C92.9448 77.2547 93.8893 75.9345 94.4498 74.4402L123.33 84.6702L120.51 102.8L115.37 101.55L115.21 99.9501C115.192 99.6808 115.121 99.4178 114.999 99.1769C114.877 98.936 114.708 98.7223 114.502 98.5485C114.295 98.3747 114.056 98.2445 113.798 98.1657C113.54 98.087 113.268 98.0613 113 98.0901L105.08 98.8702C104.814 98.8944 104.556 98.9714 104.321 99.0968C104.086 99.2222 103.878 99.3933 103.71 99.6002C103.535 99.8075 103.404 100.048 103.325 100.308C103.245 100.567 103.22 100.84 103.25 101.11L103.96 108.31C102.06 110.69 99.5898 113.42 97.2998 113.88C96.1098 114.12 93.7498 114.39 91.0298 114.71C84.4398 115.49 75.5498 116.54 72.4198 118.14C72.2098 116.47 71.6498 111.24 71.2698 107.62C71.2677 107.57 71.255 107.522 71.2325 107.477C71.2101 107.433 71.1784 107.394 71.1395 107.362C71.1007 107.331 71.0557 107.308 71.0075 107.296C70.9592 107.284 70.9089 107.282 70.8598 107.29Z" fill="#FFD400"/>
<path d="M108.06 147.83C94.0601 152.29 64.0601 146.65 64.0601 146.65V131.76C64.8486 132.65 65.9459 133.208 67.1301 133.32C67.4001 133.32 67.6801 133.32 67.9601 133.32C74.2301 133.32 83.9601 129.49 91.1601 126.67C93.7047 125.586 96.3089 124.648 98.9601 123.86C98.9601 123.86 102.2 123.03 105.35 122.44L105.45 123.44C105.501 123.939 105.732 124.402 106.101 124.743C106.469 125.083 106.949 125.278 107.45 125.29H107.65L108.88 125.17L109.67 147.17C109.17 147.44 108.63 147.64 108.06 147.83Z" fill="#FFD400"/>
</mask>
<g mask="url(#mask0)">
<path d="M35.9902 79.4404H125.44" stroke="#1F1A54" stroke-width="3.69" stroke-linejoin="round"/>
<path d="M35.9902 87.5903H125.44" stroke="#1F1A54" stroke-width="3.69" stroke-linejoin="round"/>
<path d="M35.9902 95.7505H125.44" stroke="#1F1A54" stroke-width="3.69" stroke-linejoin="round"/>
<path d="M35.9902 103.91H125.44" stroke="#1F1A54" stroke-width="3.69" stroke-linejoin="round"/>
<path d="M35.9902 112.07H125.44" stroke="#1F1A54" stroke-width="3.69" stroke-linejoin="round"/>
<path d="M35.9902 120.22H125.44" stroke="#1F1A54" stroke-width="3.69" stroke-linejoin="round"/>
<path d="M35.9902 128.38H125.44" stroke="#1F1A54" stroke-width="3.69" stroke-linejoin="round"/>
<path d="M35.9902 136.54H125.44" stroke="#1F1A54" stroke-width="3.69" stroke-linejoin="round"/>
<path d="M35.9902 144.7H125.44" stroke="#1F1A54" stroke-width="3.69" stroke-linejoin="round"/>
</g>
<path d="M87 50.4798C87.4934 50.1738 88.0649 50.0176 88.6454 50.03C89.2258 50.0424 89.7902 50.223 90.27 50.5498" stroke="#1F1A54" stroke-width="0.74" stroke-linecap="round" stroke-linejoin="round"/>
<path d="M94 50.4798C94.4716 50.1677 95.0244 50.0008 95.59 49.9998C96.1909 49.991 96.7791 50.1731 97.27 50.5198" stroke="#1F1A54" stroke-width="0.74" stroke-linecap="round" stroke-linejoin="round"/>
<path d="M90.86 167.55L86.11 172.7L85.3 177.36" stroke="#FFD400" stroke-width="0.46" stroke-linecap="round" stroke-linejoin="round"/>
</g>
<defs>
<clipPath id="clip0">
<rect width="375" height="300" fill="white"/>
</clipPath>
</defs>
</svg>
