<svg width="375" height="300" viewBox="0 0 375 300" fill="none" xmlns="http://www.w3.org/2000/svg">
<g clip-path="url(#clip0)">
<path d="M0 153.37C54.59 153.55 81.81 195.37 106.81 207.05C132.45 219.05 172.31 196.52 170.62 168.27C170.14 160.18 162.98 151.14 155.4 154C153.058 155.01 151.089 156.727 149.77 158.91C142.28 170.17 147.32 186.51 157.89 194.91C168.46 203.31 183.76 205.33 197.27 204.74C238.06 202.96 305.64 172.88 374.97 168.14" stroke="white" stroke-width="1.8" stroke-miterlimit="10" stroke-linecap="round" stroke-dasharray="0 6 6 0"/>
<path d="M77.7701 269.15C105.07 269.15 127.2 267.829 127.2 266.2C127.2 264.571 105.07 263.25 77.7701 263.25C50.4707 263.25 28.3401 264.571 28.3401 266.2C28.3401 267.829 50.4707 269.15 77.7701 269.15Z" fill="#FFEB86" fill-opacity="0.6"/>
<path d="M250.31 269.15C278.035 269.15 300.51 267.829 300.51 266.2C300.51 264.571 278.035 263.25 250.31 263.25C222.585 263.25 200.11 264.571 200.11 266.2C200.11 267.829 222.585 269.15 250.31 269.15Z" fill="#FFEB86" fill-opacity="0.6"/>
<path d="M283.51 176.12L271.54 168.34" stroke="#1F1A54" stroke-width="1.84" stroke-linecap="round" stroke-linejoin="round"/>
<path d="M284.08 175.64L275.12 165.59" stroke="#1F1A54" stroke-width="1.84" stroke-linecap="round" stroke-linejoin="round"/>
<path d="M284.59 175.24L276.74 164.34" stroke="#1F1A54" stroke-width="1.84" stroke-linecap="round" stroke-linejoin="round"/>
<path d="M283.56 176.08L274.7 167.9" stroke="#1F1A54" stroke-width="1.84" stroke-linecap="round" stroke-linejoin="round"/>
<path d="M285.15 174.81L279.29 165.3" stroke="#1F1A54" stroke-width="2.77" stroke-linecap="round" stroke-linejoin="round"/>
<path d="M283.44 182.86C286.2 186.45 299.21 199.65 301.44 197.93C303.67 196.21 294.3 180.23 291.54 176.63C288.78 173.03 286.48 173.79 284.24 175.51C282 177.23 280.68 179.26 283.44 182.86Z" fill="white" stroke="#1F1A54" stroke-width="0.74" stroke-linecap="round" stroke-linejoin="round"/>
<path d="M289 174.42C287.768 175.882 286.372 177.197 284.84 178.34" stroke="#1F1A54" stroke-width="0.74" stroke-linecap="round" stroke-linejoin="round"/>
<path d="M282 178.6C283.024 177.938 283.994 177.196 284.9 176.38" stroke="#1F1A54" stroke-width="0.74" stroke-linecap="round" stroke-linejoin="round"/>
<path d="M282.31 180.75C282.51 180.75 282.72 180.7 282.92 180.66C284.571 180.197 286.088 179.35 287.35 178.19" stroke="#1F1A54" stroke-width="0.74" stroke-linecap="round" stroke-linejoin="round"/>
<path d="M290.86 175.87C290.67 175.99 290.68 176.26 290.58 176.47C290.472 176.629 290.351 176.78 290.22 176.92C290.13 177.04 290.08 177.2 290 177.33C289.866 177.556 289.69 177.753 289.48 177.91L288.6 178.68" stroke="#1F1A54" stroke-width="0.74" stroke-linecap="round" stroke-linejoin="round"/>
<path d="M290.32 178.66C290.465 178.63 290.602 178.569 290.72 178.48C290.802 178.387 290.876 178.286 290.94 178.18C291.056 178.052 291.179 177.932 291.31 177.82C291.472 177.658 291.598 177.464 291.68 177.25" stroke="#1F1A54" stroke-width="0.74" stroke-linecap="round" stroke-linejoin="round"/>
<path d="M306.67 177.84C307.07 177.84 307.53 176.84 307.42 176.44C307.31 176.04 307.03 175.74 306.9 175.35C306.844 175.098 306.852 174.835 306.924 174.587C306.996 174.339 307.129 174.112 307.311 173.929C307.494 173.746 307.719 173.611 307.967 173.538C308.215 173.465 308.477 173.455 308.73 173.51C308.085 172.436 307.679 171.235 307.54 169.99C307.472 169.371 307.534 168.744 307.721 168.15C307.909 167.556 308.218 167.008 308.63 166.54C309.24 165.91 310.13 165.41 310.23 164.54C310.197 164.208 310.197 163.873 310.23 163.54C310.7 162.17 313.61 163.41 313.69 161.54C313.71 161.391 313.71 161.239 313.69 161.09C313.58 160.202 313.757 159.303 314.197 158.523C314.636 157.744 315.313 157.126 316.13 156.76C316.907 156.426 317.744 156.254 318.59 156.254C319.436 156.254 320.273 156.426 321.05 156.76C321.44 156.91 321.87 157.14 321.94 157.55C321.955 157.77 321.955 157.99 321.94 158.21C321.94 158.89 322.68 159.32 323.34 159.44C324.018 159.47 324.69 159.585 325.34 159.78C326.52 160.3 326.87 161.78 327.07 163.06C327.194 163.555 327.176 164.075 327.02 164.56C326.67 165.34 325.64 165.71 325.49 166.56C325.38 167.21 325.88 167.85 325.8 168.5C325.7 169.35 324.8 169.78 324.12 170.31C323.03 171.21 322.53 172.69 321.42 173.56C320.51 174.27 319.28 174.5 318.42 175.28C317.82 175.82 317.42 176.58 316.84 177.1C316.638 177.271 316.4 177.395 316.144 177.465C315.889 177.534 315.621 177.546 315.36 177.5C314.993 177.428 314.614 177.434 314.249 177.516C313.884 177.599 313.541 177.757 313.24 177.98C312.716 178.36 312.219 178.774 311.75 179.22C311.543 179.449 311.291 179.632 311.01 179.76C310.599 179.855 310.171 179.855 309.76 179.76C308.856 179.734 307.963 179.97 307.19 180.44L306.67 177.84Z" fill="white" stroke="#1F1A54" stroke-width="0.74" stroke-linecap="round" stroke-linejoin="round"/>
<path d="M306.82 180.92C309.197 177.632 311.79 174.506 314.58 171.56C318.39 167.73 321.86 161.33 321.86 161.33C319.992 164.499 317.629 167.349 314.86 169.77C311.069 173.107 307.554 176.746 304.35 180.65C302.88 182.52 306.82 180.92 306.82 180.92Z" fill="white" stroke="#1F1A54" stroke-width="0.74" stroke-linecap="round" stroke-linejoin="round"/>
<path d="M310.69 175.92C311.322 175.128 312.087 174.451 312.95 173.92C313.472 173.557 314.065 173.308 314.69 173.19C315.25 173.19 315.36 173.74 315.85 173.8C315.956 173.804 316.061 173.787 316.16 173.75C317.123 173.364 318.131 173.102 319.16 172.97" stroke="#1F1A54" stroke-width="0.74" stroke-linecap="round" stroke-linejoin="round"/>
<path d="M315.19 170.92C315.4 170.62 317.33 171.03 317.67 170.92C318.88 170.44 320.26 170.51 321.45 169.99" stroke="#1F1A54" stroke-width="0.74" stroke-linecap="round" stroke-linejoin="round"/>
<path d="M317.15 167.51C317.322 166.951 317.612 166.437 318 166C318.27 165.769 318.476 165.473 318.6 165.14C318.645 164.8 318.597 164.454 318.46 164.14C318.249 163.47 318.111 162.779 318.05 162.08C318.003 161.866 318.007 161.643 318.062 161.431C318.118 161.219 318.224 161.023 318.37 160.86" stroke="#1F1A54" stroke-width="0.74" stroke-linecap="round" stroke-linejoin="round"/>
<path d="M312.19 172.19C312.6 171.7 313.27 170.7 313.69 170.19C313.823 170.047 313.928 169.881 314 169.7C314.04 169.442 314.04 169.179 314 168.92C314 168.12 314.51 167.39 314.52 166.58" stroke="#1F1A54" stroke-width="0.74" stroke-linecap="round" stroke-linejoin="round"/>
<path d="M310.09 174.26C310.077 173.758 309.996 173.26 309.85 172.78C309.547 172.429 309.263 172.061 309 171.68C308.898 171.324 308.87 170.951 308.92 170.584C308.97 170.217 309.096 169.865 309.29 169.55" stroke="#1F1A54" stroke-width="0.74" stroke-linecap="round" stroke-linejoin="round"/>
<path d="M279.724 182.293L334.221 168.321L344.128 206.961C344.492 208.382 344.277 209.889 343.53 211.151C342.783 212.413 341.565 213.327 340.145 213.691L296.341 224.921C294.921 225.286 293.414 225.071 292.151 224.324C290.889 223.577 289.976 222.359 289.611 220.938L279.705 182.298L279.724 182.293Z" fill="#FFD400" stroke="#1F1A54" stroke-width="0.74" stroke-linecap="round" stroke-linejoin="round"/>
<path d="M287.944 214.342L342.441 200.37L344.143 207.005C344.507 208.426 344.292 209.933 343.545 211.195C342.798 212.457 341.58 213.371 340.159 213.735L296.375 224.961C294.955 225.325 293.447 225.11 292.185 224.363C290.923 223.616 290.009 222.398 289.645 220.977L287.956 214.39L287.944 214.342Z" fill="#1F1A54"/>
<path d="M303.86 210.25L295.58 178C295.1 176.12 294.43 166.86 296.12 161.37C297.53 156.78 301.12 156.26 303.84 155.16C309.48 152.84 317.6 169.61 318.32 172.42L326.54 204.48" stroke="#1F1A54" stroke-width="2.77" stroke-miterlimit="10"/>
<path d="M322.42 172.61C322.35 172.71 322.26 172.81 322.28 172.92C322.306 172.999 322.359 173.066 322.43 173.11C322.639 173.211 322.868 173.263 323.1 173.263C323.332 173.263 323.561 173.211 323.77 173.11C324.179 172.897 324.612 172.736 325.06 172.63C325.285 172.58 325.521 172.609 325.727 172.713C325.933 172.817 326.096 172.989 326.19 173.2C326.19 173.28 326.19 173.37 326.3 173.41C326.371 173.435 326.449 173.435 326.52 173.41C326.95 173.34 327.41 173.53 327.81 173.35C328.21 173.17 328.32 172.87 328.65 172.78C328.836 172.76 329.024 172.76 329.21 172.78C330.07 172.69 330.61 171.58 331.47 171.62C331.65 171.62 331.82 171.69 332 171.7C332.345 171.706 332.687 171.635 333 171.49C333.068 171.236 333.233 171.02 333.46 170.887C333.686 170.754 333.956 170.716 334.21 170.78C334.294 170.82 334.387 170.838 334.48 170.83C334.74 170.83 334.73 170.4 334.92 170.21C335.11 170.02 335.34 170.07 335.54 169.97C335.656 169.908 335.754 169.818 335.826 169.707C335.898 169.597 335.94 169.471 335.95 169.34C335.975 169.078 335.955 168.814 335.89 168.56C335.876 168.464 335.842 168.372 335.79 168.29C335.721 168.216 335.635 168.161 335.54 168.13C334.94 167.89 329.02 165.73 328.25 166.13C326.25 167.13 325.72 169.48 324.38 169.21C324.264 169.189 324.146 169.189 324.03 169.21C323.892 169.242 323.762 169.304 323.65 169.39C323.232 169.625 322.859 169.933 322.55 170.3C322.403 170.468 322.302 170.672 322.256 170.891C322.21 171.11 322.222 171.337 322.29 171.55C322.45 171.87 322.74 172.16 322.42 172.61Z" fill="white" stroke="#1F1A54" stroke-width="0.74" stroke-linecap="round" stroke-linejoin="round"/>
<path d="M326 168.12C326.31 167.83 330.4 167.57 331.29 168.31C331.91 168.725 332.619 168.989 333.36 169.08" fill="white"/>
<path d="M326 168.12C326.31 167.83 330.4 167.57 331.29 168.31C331.91 168.725 332.619 168.989 333.36 169.08" stroke="#1F1A54" stroke-width="0.74" stroke-linecap="round" stroke-linejoin="round"/>
<path d="M327.42 167.88C327.662 168.321 327.932 168.745 328.23 169.15C328.512 169.811 328.704 170.507 328.8 171.22" stroke="#1F1A54" stroke-width="0.74" stroke-linecap="round" stroke-linejoin="round"/>
<path d="M325.63 168.57C325.694 168.73 325.694 168.909 325.63 169.07C325.421 169.655 325.16 170.221 324.85 170.76" stroke="#1F1A54" stroke-width="0.74" stroke-linecap="round" stroke-linejoin="round"/>
<path d="M104.33 112.43L103.6 105.07C103.578 104.851 103.599 104.63 103.663 104.42C103.726 104.209 103.831 104.013 103.97 103.843C104.109 103.673 104.281 103.533 104.475 103.429C104.669 103.325 104.881 103.261 105.1 103.24L113.01 102.45C113.233 102.428 113.458 102.451 113.673 102.517C113.887 102.584 114.085 102.693 114.257 102.837C114.428 102.981 114.569 103.159 114.671 103.359C114.773 103.558 114.834 103.776 114.85 104L115.68 112.39" stroke="#1F1A54" stroke-width="0.74" stroke-linecap="round" stroke-linejoin="round"/>
<path d="M116.88 124.46L117.06 126.3C117.102 126.742 116.968 127.183 116.687 127.528C116.407 127.872 116.002 128.092 115.56 128.14L107.65 128.92C107.43 128.942 107.208 128.92 106.996 128.856C106.784 128.792 106.587 128.687 106.416 128.547C106.245 128.407 106.104 128.234 106 128.039C105.896 127.844 105.831 127.63 105.81 127.41L105.67 126.03" stroke="#1F1A54" stroke-width="0.74" stroke-linecap="round" stroke-linejoin="round"/>
<path d="M287.13 245.62C288.97 247.09 288.79 248.14 287.39 249.37C285.99 250.6 273.17 261.21 269.98 263.47C265.17 266.89 262.78 266.62 261.26 265.23C260.21 264.23 260.18 263.74 260.18 263.68C260.62 264.55 262.04 264.54 264 263.75C265.467 263.021 266.858 262.147 268.15 261.14C275.2 256 287.13 245.62 287.13 245.62Z" fill="white"/>
<path d="M282.44 242.32C282.701 242.148 282.951 241.961 283.19 241.76C285.38 244.02 287.13 245.62 287.13 245.62C287.13 245.62 275.2 256.03 268.13 261.14C265.77 257.66 262.61 258.85 262.61 258.85C263.44 257.85 264.55 256.53 265.61 255.21L266.29 254.34C266.62 253.9 266.94 253.44 267.29 252.98C268.333 251.375 269.198 249.662 269.87 247.87C270.208 246.999 270.43 246.088 270.53 245.16C270.28 244.83 270.82 244.77 271.77 244.78C273.34 244.78 276 245.03 277.87 244.49C279.497 244.008 281.039 243.276 282.44 242.32Z" fill="#FFD400"/>
<path d="M278.19 235L282.44 242.37C281.036 243.327 279.49 244.06 277.86 244.54C275.99 245.08 273.33 244.86 271.76 244.83L269.67 240.9L269.52 240.65L278.18 234.99L278.19 235Z" fill="white"/>
<path d="M261.17 106.49V150.65C261.17 150.65 231.12 156.29 217.17 151.83C216.6 151.64 216.06 151.44 215.54 151.22V103.91L204.72 106.77L201.9 88.6399L230.78 78.4099V75.6099L232.38 77.2399L234.63 79.5199V82.0699L236.32 83.9299L238.38 82.0699V79.5199L246.56 75.7399L248.83 74.6899V77.9099C248.83 77.9099 264.07 82.5899 267.24 86.4299C271.24 91.3099 280.32 101.34 280.32 101.34L267.9 112.81L261.17 106.49Z" fill="#FFD400"/>
<path d="M239.64 176.81L234.86 209.16V247.92H220.64L217.16 151.83C231.16 156.29 261.16 150.65 261.16 150.65L261.48 201.11L279.09 234.34L278.17 234.94L269.51 240.6L266.81 242.36L245.47 205.58L239.64 176.81Z" fill="#1F1A54"/>
<path d="M268.16 261.14C266.868 262.147 265.477 263.021 264.01 263.75C262.01 264.54 260.63 264.55 260.19 263.68C260.012 263.273 259.98 262.818 260.1 262.39C260.3 261.39 261.59 260.08 262.64 258.85C262.64 258.85 265.8 257.66 268.16 261.14Z" fill="white"/>
<path d="M257.7 47.8101C259.153 52.8706 258.564 58.2988 256.06 62.9301C255.71 63.1801 250.48 66.8101 246.49 67.8101C246.161 67.8923 245.827 67.9557 245.49 68.0001C242.49 68.4001 242.63 67.4301 243.85 63.8101C246.1 57.0701 244.74 51.8101 238.99 49.1901C234.385 47.1228 229.363 46.154 224.32 46.3601C223.981 46.4362 223.647 46.533 223.32 46.6501V46.4601C223.5 46.1001 227.25 38.5701 235.68 36.0701C244.11 33.5701 254.67 37.4901 257.7 47.8101Z" fill="#FFD400"/>
<path d="M256 63C255.627 63.6998 255.199 64.3686 254.72 65C253.601 66.1659 252.329 67.175 250.94 68C249.531 68.8611 248.014 69.5335 246.43 70V67.83C250.46 66.83 255.69 63.2 256 63Z" fill="#1F1A54"/>
<path d="M246.47 75.5699L246.55 75.7399L238.37 79.5199V82.0699L236.31 83.9299L234.62 82.0699V79.5199L232.37 77.2399V73.3599C232.63 73.4199 232.9 73.4799 233.17 73.5199C234.8 73.7599 238.82 73.2399 241.09 71.0499L241.71 69.8999C242.41 70.2367 243.187 70.3783 243.96 70.3099C244.809 70.2645 245.651 70.127 246.47 69.8999V75.5699Z" fill="white"/>
<path d="M246.47 67.8302V69.9002C245.651 70.1272 244.809 70.2647 243.96 70.3102C243.187 70.3786 242.409 70.2369 241.71 69.9002C239.98 68.9002 240.44 66.3501 241.8 63.5301C242.473 61.8886 242.775 60.1188 242.685 58.3471C242.595 56.5753 242.115 54.8452 241.28 53.2801C241.2 52.7601 237.59 49.1402 230.53 47.9302C228.28 47.5402 224.77 47.2102 222.74 47.7002C222.74 47.7002 221.61 47.7701 221.28 49.4801C221.13 48.1401 221.78 47.2001 223.28 46.6701C223.607 46.553 223.941 46.4562 224.28 46.3802C229.34 46.1662 234.38 47.1352 239 49.2101C244.75 51.8701 246.11 57.0902 243.86 63.8302C242.64 67.4502 242.54 68.4202 245.5 68.0202C245.827 67.9746 246.15 67.9112 246.47 67.8302Z" fill="#1F1A54"/>
<path d="M241.28 53.2799C242.115 54.845 242.595 56.5751 242.685 58.3469C242.775 60.1186 242.473 61.8884 241.8 63.5299C240.44 66.3499 239.98 68.9299 241.71 69.8999L241.09 71.0499C238.82 73.2399 234.8 73.7599 233.17 73.5199C232.9 73.5199 232.63 73.4199 232.37 73.3599C229.48 72.6799 227.75 70.7699 226.76 67.9399C226.7 67.7999 226.66 67.6499 226.61 67.5099C225.71 64.6799 225.61 58.3899 225.86 53.1899C231.47 53.4099 238.34 53.6299 240.56 53.4399C241 53.3999 241.28 53.3499 241.28 53.2799Z" fill="white"/>
<path d="M223.68 53.1C220.92 52.99 218.74 52.88 218.05 52.83C216.52 52.74 218.89 51.4 220.76 49.94C220.98 49.76 221.16 49.62 221.3 49.49C221.86 49.01 221.81 48.93 221.81 48.93C222.02 48.35 223.14 47.93 224.62 47.93C227.353 47.9101 230.076 48.2702 232.71 49C235.625 49.7798 238.31 51.2475 240.54 53.28V53.42C238.32 53.61 231.45 53.42 225.84 53.17L223.68 53.1Z" fill="#1F1A54"/>
<path d="M234.25 261.75C234.93 264 234.19 264.75 232.33 264.97C230.47 265.19 213.9 266.61 209.99 266.65C204.09 266.73 202.28 265.14 201.82 263.14C201.48 261.68 201.82 261.26 201.82 261.26C201.71 262.26 202.88 263.02 204.92 263.49C206.545 263.727 208.19 263.801 209.83 263.71C218.53 263.52 234.25 261.75 234.25 261.75Z" fill="white"/>
<path d="M213.74 256.5C214.57 256.15 215.39 255.78 216.14 255.37C217.055 254.893 217.937 254.355 218.78 253.76C219.556 253.243 220.256 252.621 220.86 251.91C220.77 252.03 221.4 252.54 222.4 253.17C223.936 254.132 225.572 254.924 227.28 255.53C228.836 256.048 230.461 256.328 232.1 256.36C232.47 256.386 232.84 256.386 233.21 256.36C233.73 259.46 234.21 261.78 234.21 261.78C234.21 261.78 218.49 263.55 209.79 263.78C209.79 259.58 206.55 258.78 206.55 258.78C207.78 258.46 209.47 258 211.08 257.5L212.14 257.17C212.7 256.89 213.23 256.7 213.74 256.5Z" fill="#FFD400"/>
<path d="M232.1 247.92V256.36C230.461 256.328 228.835 256.048 227.28 255.53C225.572 254.924 223.936 254.132 222.4 253.17L222.52 252.97L222.41 247.92H232.1Z" fill="white"/>
<path d="M226.6 67.5098C226.65 67.6498 226.69 67.7998 226.75 67.9398C223.54 66.6998 224.47 63.3998 225.26 61.1798C225.91 59.3498 224.7 56.7298 223.88 54.0498C223.787 53.7227 223.724 53.3881 223.69 53.0498L225.86 53.1398C225.63 58.3898 225.7 64.6798 226.6 67.5098Z" fill="#1F1A54"/>
<path d="M209.83 263.7C208.19 263.791 206.545 263.717 204.92 263.48C202.92 263.01 201.71 262.23 201.82 261.25C201.911 260.817 202.143 260.427 202.48 260.14C203.23 259.42 205.03 259.14 206.59 258.67C206.59 258.67 209.86 259.5 209.83 263.7Z" fill="white"/>
<path d="M225.85 53.1899C225.63 58.3899 225.7 64.6799 226.6 67.5099C226.65 67.6499 226.69 67.7999 226.75 67.9399C227.75 70.7699 229.47 72.6799 232.36 73.3599C232.62 73.4199 232.89 73.4799 233.16 73.5199C234.79 73.7599 238.81 73.2399 241.08 71.0499" stroke="#1F1A54" stroke-width="0.74" stroke-linecap="round" stroke-linejoin="round"/>
<path d="M246.48 69.8999V75.5699" stroke="#1F1A54" stroke-width="0.74" stroke-linecap="round" stroke-linejoin="round"/>
<path d="M232.37 73.3599V77.2399" stroke="#1F1A54" stroke-width="0.74" stroke-linecap="round" stroke-linejoin="round"/>
<path d="M215.53 103.91L204.71 106.77L201.89 88.6399L230.77 78.4099V75.6099L232.37 77.2399L234.62 79.5199V82.0699L236.31 83.9299L238.37 82.0699V79.5199L246.55 75.7399L248.82 74.6899V77.9099C248.82 77.9099 264.06 82.5899 267.23 86.4299C271.23 91.3099 280.31 101.34 280.31 101.34L267.9 112.81L261.17 106.49" stroke="#1F1A54" stroke-width="0.74" stroke-linecap="round" stroke-linejoin="round"/>
<path d="M256.06 62.9298C258.564 58.2985 259.153 52.8702 257.7 47.8098C254.7 37.4898 244.23 33.5398 235.7 36.0698C227.17 38.5998 223.52 46.0698 223.34 46.4598" stroke="#1F1A54" stroke-width="0.74" stroke-linecap="round" stroke-linejoin="round"/>
<path d="M241.28 53.2798C242.115 54.8449 242.595 56.575 242.685 58.3467C242.775 60.1184 242.473 61.8882 241.8 63.5298C240.44 66.3498 239.98 68.9298 241.71 69.8998C242.409 70.2366 243.187 70.3782 243.96 70.3098C244.809 70.2643 245.651 70.1269 246.47 69.8998C248.054 69.4333 249.571 68.7608 250.98 67.8998C252.369 67.0748 253.641 66.0656 254.76 64.8998C255.221 64.299 255.636 63.6638 256 62.9998" stroke="#1F1A54" stroke-width="0.74" stroke-linecap="round" stroke-linejoin="round"/>
<path d="M226.74 67.9999C223.53 66.7599 224.46 63.4599 225.25 61.2399C225.9 59.4099 224.69 56.7899 223.87 54.1099C223.777 53.7827 223.714 53.4481 223.68 53.1099V53.1099" stroke="#1F1A54" stroke-width="0.74" stroke-linecap="round" stroke-linejoin="round"/>
<path d="M222.74 47.7002C222.74 47.7002 221.61 47.7702 221.28 49.4802" stroke="#1F1A54" stroke-width="0.74" stroke-linecap="round" stroke-linejoin="round"/>
<path d="M222.74 47.6999C224.74 47.2099 228.28 47.5399 230.53 47.9299C237.59 49.1399 241.2 52.7599 241.28 53.2799C241.28 53.3499 241.02 53.3999 240.55 53.4399C238.33 53.6299 231.46 53.4399 225.85 53.1899L223.68 53.0999C220.92 52.9899 218.74 52.88 218.05 52.83C216.52 52.74 218.89 51.3999 220.76 49.9399C220.98 49.7599 221.16 49.62 221.3 49.49C221.86 49.01 221.81 48.9299 221.81 48.9299" stroke="#1F1A54" stroke-width="0.74" stroke-linecap="round" stroke-linejoin="round"/>
<path d="M256.06 62.9302C255.71 63.1802 250.48 66.8102 246.49 67.8102C246.161 67.8923 245.827 67.9558 245.49 68.0002C242.49 68.4002 242.63 67.4302 243.85 63.8102C246.1 57.0702 244.74 51.8102 238.99 49.1902C234.385 47.1229 229.363 46.1541 224.32 46.3602C223.981 46.4362 223.647 46.5331 223.32 46.6502C221.79 47.1802 221.14 48.1202 221.32 49.4602" stroke="#1F1A54" stroke-width="0.74" stroke-linecap="round" stroke-linejoin="round"/>
<path d="M240.54 53.3002C238.312 51.2605 235.627 49.7858 232.71 49.0002C230.073 48.2941 227.35 47.9575 224.62 48.0002C223.14 48.0002 222.02 48.4002 221.81 49.0002" stroke="#1F1A54" stroke-width="0.74" stroke-linecap="round" stroke-linejoin="round"/>
<path d="M261.17 106.48V150.64C261.17 150.64 231.12 156.28 217.17 151.82C216.6 151.63 216.06 151.43 215.54 151.21V103.91" stroke="#1F1A54" stroke-width="0.74" stroke-linecap="round" stroke-linejoin="round"/>
<path d="M239.65 176.81L234.86 209.16L234.83 247.92H232.11H222.41H220.64L217.17 151.83V151.81" stroke="#1F1A54" stroke-width="0.74" stroke-linecap="round" stroke-linejoin="round"/>
<path d="M232.01 168.13L239.65 176.81L245.48 205.58L266.83 242.36L269.52 240.6L278.18 234.94L279.1 234.34L261.49 201.11L261.18 150.65" stroke="#1F1A54" stroke-width="0.74" stroke-linecap="round" stroke-linejoin="round"/>
<path d="M201.82 261.26C201.71 262.26 202.88 263.02 204.92 263.49C206.545 263.727 208.19 263.801 209.83 263.71C218.53 263.52 234.25 261.71 234.25 261.71C234.25 261.71 233.73 259.39 233.25 256.29C232.881 256.315 232.51 256.315 232.14 256.29C230.501 256.258 228.876 255.978 227.32 255.46C225.612 254.853 223.976 254.062 222.44 253.1C221.44 252.47 220.81 251.96 220.9 251.84C220.296 252.55 219.596 253.173 218.82 253.69C217.977 254.284 217.095 254.822 216.18 255.3C215.43 255.71 214.61 256.08 213.78 256.43C213.27 256.63 212.78 256.82 212.22 256.99L211.16 257.32C209.55 257.82 207.86 258.32 206.63 258.6C205.07 259.02 203.27 259.35 202.52 260.07C202.183 260.357 201.951 260.747 201.86 261.18" stroke="#1F1A54" stroke-width="0.74" stroke-linecap="round" stroke-linejoin="round"/>
<path d="M209.83 263.7C209.83 259.5 206.59 258.7 206.59 258.7" stroke="#1F1A54" stroke-width="0.74" stroke-linecap="round" stroke-linejoin="round"/>
<path d="M201.82 261.25C201.82 261.25 201.48 261.67 201.82 263.13C202.28 265.13 204.09 266.72 209.99 266.64C213.9 266.64 230.47 265.17 232.33 264.96C234.19 264.75 234.93 263.96 234.25 261.74" stroke="#1F1A54" stroke-width="0.74" stroke-linecap="round" stroke-linejoin="round"/>
<path d="M219.84 254.95L218.78 253.76L217.7 252.55" stroke="#1F1A54" stroke-width="0.74" stroke-linecap="round" stroke-linejoin="round"/>
<path d="M217.23 256.85L216.14 255.37L215.3 254.22" stroke="#1F1A54" stroke-width="0.74" stroke-linecap="round" stroke-linejoin="round"/>
<path d="M214.67 257.99L213.74 256.5L212.92 255.18" stroke="#1F1A54" stroke-width="0.74" stroke-linecap="round" stroke-linejoin="round"/>
<path d="M212.1 258.95L211.12 257.39L210.34 256.15" stroke="#1F1A54" stroke-width="0.74" stroke-linecap="round" stroke-linejoin="round"/>
<path d="M271.76 244.78C270.81 244.78 270.27 244.83 270.52 245.16C270.42 246.088 270.198 246.999 269.86 247.87C269.188 249.662 268.323 251.375 267.28 252.98C266.97 253.44 266.65 253.9 266.28 254.34L265.6 255.21C264.54 256.53 263.43 257.87 262.6 258.85C261.55 260.08 260.26 261.37 260.06 262.39C259.94 262.817 259.972 263.273 260.15 263.68C260.59 264.55 262.01 264.54 263.97 263.75C265.437 263.021 266.828 262.147 268.12 261.14C275.12 256.03 287.12 245.62 287.12 245.62C287.12 245.62 285.37 244.02 283.18 241.76C282.941 241.961 282.691 242.148 282.43 242.32C281.026 243.277 279.48 244.009 277.85 244.49C276 245 273.33 244.81 271.76 244.78Z" stroke="#1F1A54" stroke-width="0.74" stroke-linecap="round" stroke-linejoin="round"/>
<path d="M268.16 261.14C265.8 257.66 262.64 258.85 262.64 258.85" stroke="#1F1A54" stroke-width="0.74" stroke-linecap="round" stroke-linejoin="round"/>
<path d="M260.18 263.68C260.18 263.74 260.18 264.27 261.26 265.23C262.78 266.62 265.17 266.89 269.98 263.47C273.17 261.21 285.98 250.6 287.39 249.37C288.8 248.14 288.97 247.09 287.13 245.62" stroke="#1F1A54" stroke-width="0.74" stroke-linecap="round" stroke-linejoin="round"/>
<path d="M271.41 248.25L269.86 247.87L268.29 247.49" stroke="#1F1A54" stroke-width="0.74" stroke-linecap="round" stroke-linejoin="round"/>
<path d="M270.35 251.28L268.61 250.69L267.25 250.23" stroke="#1F1A54" stroke-width="0.74" stroke-linecap="round" stroke-linejoin="round"/>
<path d="M268.89 253.68L267.28 252.98L265.85 252.38" stroke="#1F1A54" stroke-width="0.74" stroke-linecap="round" stroke-linejoin="round"/>
<path d="M267.32 255.93L265.64 255.21L264.28 254.63" stroke="#1F1A54" stroke-width="0.74" stroke-linecap="round" stroke-linejoin="round"/>
<path d="M278.19 234.95L282.44 242.32V242.33" stroke="#1F1A54" stroke-width="0.74" stroke-linecap="round" stroke-linejoin="round"/>
<path d="M269.67 240.85L271.77 244.78" stroke="#1F1A54" stroke-width="0.74" stroke-linecap="round" stroke-linejoin="round"/>
<path d="M232.11 247.92V256.36" stroke="#1F1A54" stroke-width="0.74" stroke-linecap="round" stroke-linejoin="round"/>
<path d="M222.41 247.92L222.52 252.97" stroke="#1F1A54" stroke-width="0.74" stroke-linecap="round" stroke-linejoin="round"/>
<path d="M121 104L133.72 106.41C136.44 106.86 138.72 105.1 139.83 102.56C143.31 94.17 145.62 76.42 148.59 72.37C149.72 70.83 152.35 67.84 153.35 65.2C153.77 64.09 153.96 63.26 154.71 61.5C155.239 60.3368 155.885 59.231 156.64 58.2C157.11 57.58 158.39 55.87 157.2 55.14C156.67 54.82 155.96 55.24 155.73 55.44C155.219 55.8587 154.763 56.339 154.37 56.87C153.656 57.6907 152.899 58.4719 152.1 59.21C152.1 59.21 153.97 55.87 154.71 54.83C155.2 54.14 156.71 52.37 155.52 51.43C155.251 51.2793 154.943 51.2112 154.635 51.2343C154.328 51.2575 154.034 51.3707 153.79 51.56C153.323 52.0102 152.929 52.5296 152.62 53.1C152.17 53.78 149.82 56.67 149.82 56.67C149.82 56.67 152.05 52.31 152.65 51.24C153.12 50.39 154.65 48.12 153.01 47.18C151.94 46.56 150.63 48.36 149.95 49.42C149.02 50.85 146.51 55.51 146.51 55.51L148.36 50.07C148.36 50.07 149.24 47.84 147.79 47.22C146.34 46.6 145.7 48.27 145.34 49.03C143.62 52.66 141.97 56.53 141.23 58.69C140.23 61.64 137.98 53.95 135.57 54.79C133.16 55.63 140.27 67.71 138.08 72.79L130.09 91L123.33 88.62L121 104Z" fill="white" stroke="#1F1A54" stroke-width="0.74" stroke-linecap="round" stroke-linejoin="round"/>
<path d="M142.9 61.1699C142.9 61.1699 144.79 63.1699 144.56 64.8799C145.29 64.1784 146.241 63.7509 147.25 63.6699" stroke="#1F1A54" stroke-width="0.74" stroke-linecap="round" stroke-linejoin="round"/>
<path d="M123.4 261.26C123.4 261.26 123.74 261.68 123.4 263.14C122.94 265.14 121.13 266.73 115.23 266.65C111.32 266.65 92.6999 265.89 90.8499 265.65C88.9999 265.41 90.5399 262.65 91.2299 260.37C91.2299 260.37 115.7 264.5 120.3 263.46C122.34 263 123.51 262.24 123.4 261.26Z" fill="white"/>
<path d="M106.44 253.76C107.283 254.355 108.165 254.892 109.08 255.37C109.84 255.78 110.65 256.15 111.49 256.5C111.99 256.7 112.49 256.89 113.04 257.06L114.1 257.39C115.72 257.89 117.4 258.39 118.63 258.67C120.19 259.09 121.99 259.42 122.74 260.14C123.077 260.427 123.309 260.817 123.4 261.25C123.51 262.25 122.34 263.01 120.3 263.48C115.7 264.48 91.23 260.39 91.23 260.39C91.23 260.39 91.65 258.61 92.16 255.53C92.4518 255.643 92.753 255.73 93.06 255.79C94.684 256.148 96.3753 256.055 97.95 255.52C99.6539 254.912 101.287 254.12 102.82 253.16C103.82 252.53 104.45 252.02 104.36 251.9C104.965 252.612 105.665 253.237 106.44 253.76Z" fill="white"/>
<path d="M102.82 247.92L102.7 253L102.82 253.2C101.301 254.147 99.6855 254.928 98.0001 255.53C96.4254 256.065 94.7342 256.158 93.1101 255.8L93.1701 255.53V247.92H102.82Z" fill="#FFD400"/>
<path d="M57.73 252.61C58.06 253.05 58.4 253.49 58.73 253.91C59.06 254.33 59.2 254.47 59.45 254.75C60.55 256.03 61.73 257.31 62.61 258.25C63.71 259.43 65.07 260.66 65.31 261.67C65.4596 262.087 65.4596 262.543 65.31 262.96C64.9 263.84 63.49 263.91 61.5 263.21C57.05 261.65 38.5 245.21 38.5 245.21C38.5 245.21 39.81 243.93 41.88 241.57C42.1231 241.896 42.3978 242.197 42.7 242.47C43.8503 243.535 45.2554 244.285 46.78 244.65C48.9874 245.141 51.2534 245.316 53.51 245.17C53.91 245.17 54.14 245.07 54.14 244.99C54.2744 245.909 54.5369 246.804 54.92 247.65C55.3151 248.604 55.7763 249.53 56.3 250.42C56.72 251.12 57.21 251.88 57.73 252.61Z" fill="white"/>
<path d="M65.3199 263C65.3199 263 65.3699 263.54 64.3199 264.6C62.8699 266.05 60.4899 266.43 55.5299 263.24C52.2399 261.12 36.8399 250.63 35.3799 249.47C33.9199 248.31 36.7199 246.76 38.4999 245.2C38.4999 245.2 57.0499 261.68 61.4999 263.2C63.4999 263.9 64.8999 263.83 65.3099 262.95L65.3199 263Z" fill="white"/>
<path d="M55.8299 240.29L53.4599 244.78V245.13C51.2033 245.276 48.9373 245.101 46.7299 244.61C45.2053 244.246 43.8002 243.495 42.6499 242.43L42.7499 242.32L46.9999 234.94L55.8299 240.29Z" fill="#FFD400"/>
<path d="M123.4 261.26C123.51 262.26 122.34 263.02 120.3 263.49C115.7 264.49 91.23 260.4 91.23 260.4C91.23 260.4 91.65 258.62 92.16 255.54" stroke="#1F1A54" stroke-width="0.74" stroke-linecap="round" stroke-linejoin="round"/>
<path d="M92.1599 255.54C92.4517 255.653 92.7529 255.74 93.0599 255.8C94.684 256.159 96.3752 256.065 97.9499 255.53C99.6539 254.922 101.287 254.131 102.82 253.17C103.82 252.54 104.45 252.03 104.36 251.91C104.966 252.618 105.666 253.241 106.44 253.76C107.283 254.355 108.165 254.893 109.08 255.37C109.84 255.78 110.65 256.15 111.49 256.5C111.99 256.7 112.49 256.89 113.04 257.06L114.1 257.39C115.72 257.89 117.4 258.39 118.63 258.67C120.19 259.09 121.99 259.42 122.74 260.14C123.077 260.427 123.309 260.817 123.4 261.25" stroke="#1F1A54" stroke-width="0.74" stroke-linecap="round" stroke-linejoin="round"/>
<path d="M123.4 261.25C123.4 261.25 123.74 261.67 123.4 263.13C122.94 265.13 121.13 266.72 115.23 266.64C111.32 266.64 92.6999 265.88 90.8499 265.64C88.9999 265.4 90.5399 262.64 91.2299 260.36" stroke="#1F1A54" stroke-width="0.74" stroke-linecap="round" stroke-linejoin="round"/>
<path d="M105.39 254.95L106.44 253.76L107.52 252.55" stroke="#1F1A54" stroke-width="0.74" stroke-linecap="round" stroke-linejoin="round"/>
<path d="M107.99 256.85L109.08 255.37L109.93 254.22" stroke="#1F1A54" stroke-width="0.74" stroke-linecap="round" stroke-linejoin="round"/>
<path d="M110.56 257.99L111.49 256.5L112.31 255.18" stroke="#1F1A54" stroke-width="0.74" stroke-linecap="round" stroke-linejoin="round"/>
<path d="M113.13 258.95L114.1 257.39L114.89 256.15" stroke="#1F1A54" stroke-width="0.74" stroke-linecap="round" stroke-linejoin="round"/>
<path d="M54.13 244.94C54.2644 245.859 54.5269 246.754 54.91 247.6C55.3052 248.554 55.7663 249.48 56.29 250.37C56.72 251.11 57.21 251.87 57.73 252.6C58.06 253.04 58.4 253.48 58.73 253.9C59.06 254.32 59.2 254.46 59.45 254.74C60.55 256.02 61.73 257.3 62.61 258.24C63.71 259.42 65.07 260.65 65.31 261.66C65.4596 262.077 65.4596 262.533 65.31 262.95V262.95C64.9 263.83 63.49 263.9 61.5 263.2C57.05 261.64 38.5 245.2 38.5 245.2C38.5 245.2 39.81 243.92 41.88 241.56C42.1231 241.886 42.3978 242.188 42.7 242.46C43.8503 243.525 45.2554 244.276 46.78 244.64C48.9874 245.131 51.2534 245.306 53.51 245.16C53.91 245.16 54.14 245.06 54.14 244.98" stroke="#1F1A54" stroke-width="0.74" stroke-linecap="round" stroke-linejoin="round"/>
<path d="M65.3199 263C65.3199 263 65.3699 263.54 64.3199 264.6C62.8699 266.05 60.4899 266.43 55.5299 263.24C52.2399 261.12 36.8399 250.63 35.3799 249.47C33.9199 248.31 36.7199 246.76 38.4999 245.2" stroke="#1F1A54" stroke-width="0.74" stroke-linecap="round" stroke-linejoin="round"/>
<path d="M53.3799 248.06L54.9099 247.61L56.4699 247.16" stroke="#1F1A54" stroke-width="0.74" stroke-linecap="round" stroke-linejoin="round"/>
<path d="M54.5901 251.05L56.2901 250.38L57.6301 249.85" stroke="#1F1A54" stroke-width="0.74" stroke-linecap="round" stroke-linejoin="round"/>
<path d="M56.1499 253.37L57.7399 252.61L59.1299 251.93" stroke="#1F1A54" stroke-width="0.74" stroke-linecap="round" stroke-linejoin="round"/>
<path d="M57.8301 255.56L59.4901 254.75L60.8001 254.12" stroke="#1F1A54" stroke-width="0.74" stroke-linecap="round" stroke-linejoin="round"/>
<path d="M42.79 242.32L47.04 234.94L55.84 240.29L53.46 244.78" stroke="#1F1A54" stroke-width="0.74" stroke-linecap="round" stroke-linejoin="round"/>
<path d="M93.1201 255.53V247.92H102.82L102.7 252.97" stroke="#1F1A54" stroke-width="0.74" stroke-linecap="round" stroke-linejoin="round"/>
<path d="M236.79 58.54C237.237 58.54 237.6 58.0833 237.6 57.52C237.6 56.9567 237.237 56.5 236.79 56.5C236.343 56.5 235.98 56.9567 235.98 57.52C235.98 58.0833 236.343 58.54 236.79 58.54Z" fill="#1F1A54"/>
<path d="M229.45 58.6699C229.897 58.6699 230.26 58.2132 230.26 57.6499C230.26 57.0866 229.897 56.6299 229.45 56.6299C229.003 56.6299 228.64 57.0866 228.64 57.6499C228.64 58.2132 229.003 58.6699 229.45 58.6699Z" fill="#1F1A54"/>
<path d="M238.22 54.48C237.745 54.1796 237.192 54.0233 236.63 54.03C236.026 54.0219 235.435 54.2038 234.94 54.55" stroke="#1F1A54" stroke-width="0.74" stroke-linecap="round" stroke-linejoin="round"/>
<path d="M231.23 54.48C230.755 54.1796 230.202 54.0233 229.64 54.03C229.036 54.0219 228.445 54.2038 227.95 54.55" stroke="#1F1A54" stroke-width="0.74" stroke-linecap="round" stroke-linejoin="round"/>
<path d="M239.51 63.6299C239.272 64.4738 238.805 65.2353 238.161 65.8301C237.517 66.4249 236.72 66.8298 235.86 66.9999" stroke="#1F1A54" stroke-width="0.74" stroke-linecap="round" stroke-linejoin="round"/>
<path d="M234.25 62.2402C233.92 62.4128 233.553 62.503 233.18 62.503C232.807 62.503 232.44 62.4128 232.11 62.2402" stroke="#1F1A54" stroke-width="0.74" stroke-linecap="round" stroke-linejoin="round"/>
<path d="M232.38 75.6099H230.77" stroke="#1F1A54" stroke-width="0.74" stroke-linecap="round" stroke-linejoin="round"/>
<path d="M248.82 74.6899H246.86" stroke="#1F1A54" stroke-width="0.74" stroke-linecap="round" stroke-linejoin="round"/>
<path d="M236.31 83.9302C235.89 85.5489 235.593 87.1969 235.42 88.8602C235.25 91.0302 234.94 101.34 234.94 101.34" stroke="#1F1A54" stroke-width="0.74" stroke-linecap="round" stroke-linejoin="round"/>
<path d="M204.26 104L191.54 106.41C188.82 106.86 186.54 105.1 185.44 102.56C181.95 94.17 179.64 76.42 176.67 72.37C175.55 70.83 172.91 67.84 171.92 65.2C171.49 64.09 171.3 63.26 170.55 61.5C170.025 60.3371 169.381 59.2313 168.63 58.2C168.15 57.58 166.87 55.87 168.06 55.14C168.59 54.82 169.3 55.24 169.54 55.44C170.048 55.8614 170.505 56.3414 170.9 56.87C171.611 57.6932 172.369 58.4745 173.17 59.21C173.17 59.21 171.29 55.87 170.55 54.83C170.06 54.14 168.55 52.37 169.75 51.43C170.02 51.2805 170.327 51.2132 170.634 51.2363C170.942 51.2594 171.236 51.3719 171.48 51.56C171.947 52.0102 172.341 52.5296 172.65 53.1C173.09 53.78 175.45 56.67 175.45 56.67C175.45 56.67 173.22 52.31 172.62 51.24C172.15 50.39 170.62 48.12 172.25 47.18C173.33 46.56 174.63 48.36 175.32 49.42C176.24 50.85 178.76 55.51 178.76 55.51L176.9 50.07C176.9 50.07 176.02 47.84 177.47 47.22C178.92 46.6 179.57 48.27 179.93 49.03C181.65 52.66 183.3 56.53 184.04 58.69C185.04 61.64 187.29 53.95 189.7 54.79C192.11 55.63 184.99 67.71 187.19 72.79L195.13 91L201.89 88.62L204.26 104Z" fill="white" stroke="#1F1A54" stroke-width="0.74" stroke-linecap="round" stroke-linejoin="round"/>
<path d="M182.33 61.1699C182.33 61.1699 180.44 63.1699 180.66 64.8799C179.938 64.1847 178.999 63.7576 178 63.6699" stroke="#1F1A54" stroke-width="0.74" stroke-linecap="round" stroke-linejoin="round"/>
<path d="M234.5 172.13L239.16 177.43L239.76 180.37" stroke="#FFD400" stroke-width="0.46" stroke-linecap="round" stroke-linejoin="round"/>
<path d="M301.24 162.74C301.273 163.001 301.241 163.267 301.147 163.513C301.053 163.759 300.899 163.978 300.7 164.15C300.11 164.64 299.02 164.64 297.8 163.51C296.903 162.721 296.19 161.744 295.71 160.65C294.71 158.33 294 164.21 294 164.21C293.507 164.227 293.022 164.091 292.61 163.82C290.76 162.06 293.37 150.54 290.74 145.64C288.74 141.89 280.89 129.64 278.19 123.29C273.68 115.22 269.19 111.64 269.19 111.64L278.55 103L286 110.42C292.05 116.95 296.47 136.06 298.84 140.91C298.84 140.91 302.13 147.91 304.23 150.7C304.23 150.7 310.15 157.25 307.23 159.63C306.49 160.23 305.96 159.93 305.96 159.93C305.941 160.188 305.868 160.439 305.744 160.666C305.62 160.892 305.449 161.09 305.243 161.246C305.036 161.401 304.799 161.51 304.547 161.566C304.294 161.622 304.033 161.624 303.78 161.57C303.763 161.837 303.675 162.095 303.526 162.318C303.377 162.54 303.172 162.72 302.931 162.837C302.691 162.955 302.423 163.007 302.156 162.988C301.889 162.969 301.632 162.88 301.41 162.73L301.24 162.74Z" fill="white"/>
<path d="M303 159.69C303.504 160.193 303.812 160.86 303.87 161.57C303.853 161.837 303.765 162.095 303.616 162.318C303.467 162.54 303.262 162.719 303.021 162.837C302.781 162.955 302.513 163.007 302.246 162.988C301.979 162.969 301.722 162.88 301.5 162.73" stroke="#1F1A54" stroke-width="0.74" stroke-linecap="round" stroke-linejoin="round"/>
<path d="M305.13 157.49C305.69 158.182 306.003 159.041 306.02 159.93C306.001 160.188 305.928 160.439 305.804 160.666C305.68 160.893 305.509 161.09 305.303 161.246C305.096 161.401 304.859 161.511 304.607 161.567C304.354 161.622 304.093 161.624 303.84 161.57" stroke="#1F1A54" stroke-width="0.74" stroke-linecap="round" stroke-linejoin="round"/>
<path d="M306 159.93C306 159.93 306.53 160.23 307.27 159.63C310.16 157.25 304.27 150.7 304.27 150.7C302.17 147.93 298.88 140.91 298.88 140.91C296.51 136.06 292.09 116.91 286.04 110.42L278.55 103L269.17 111.67C269.17 111.67 273.68 115.25 278.17 123.32C280.87 129.68 288.71 141.92 290.72 145.67C293.35 150.57 290.72 162.09 292.59 163.85C293.002 164.121 293.487 164.257 293.98 164.24C293.98 164.24 294.66 158.36 295.69 160.68C296.17 161.774 296.883 162.751 297.78 163.54C299 164.67 300.09 164.67 300.68 164.18C300.879 164.008 301.032 163.789 301.127 163.543C301.221 163.297 301.253 163.031 301.22 162.77C301.157 162.201 300.973 161.652 300.68 161.16" stroke="#1F1A54" stroke-width="0.74" stroke-linecap="round" stroke-linejoin="round"/>
<path d="M237.22 73.0001C237.15 73.8501 234.59 74.7001 233.22 74.6101C231.55 74.4901 230.22 73.4601 230.22 72.8501C230.22 72.2401 231.28 72.5801 232.63 72.6901C233.98 72.8001 237.26 72.3401 237.22 73.0001Z" fill="#1F1A54"/>
<path d="M243.07 104.42V98.2602L248.4 95.1802L253.74 98.2602V104.42L248.4 107.5L243.07 104.42Z" stroke="#1F1A54" stroke-width="0.74" stroke-linecap="round" stroke-linejoin="round"/>
<path d="M147.25 40.3399V34.6299" stroke="#1F1A54" stroke-width="0.74" stroke-linecap="round" stroke-linejoin="round"/>
<path d="M153.78 41.2002L156.55 36.2002" stroke="#1F1A54" stroke-width="0.74" stroke-linecap="round" stroke-linejoin="round"/>
<path d="M159.17 44.6799L163.46 40.9199" stroke="#1F1A54" stroke-width="0.74" stroke-linecap="round" stroke-linejoin="round"/>
<path d="M254.66 47.8101C254.286 46.7537 253.786 45.7463 253.17 44.8101" stroke="white" stroke-width="0.92" stroke-linecap="round" stroke-linejoin="round"/>
<path d="M255 58.67C255.692 55.9954 255.818 53.206 255.37 50.48" stroke="white" stroke-width="0.92" stroke-linecap="round" stroke-linejoin="round"/>
<path d="M238.2 86.34C238.57 86.34 238.87 86.04 238.87 85.67C238.87 85.3 238.57 85 238.2 85C237.83 85 237.53 85.3 237.53 85.67C237.53 86.04 237.83 86.34 238.2 86.34Z" fill="#1F1A54"/>
<path d="M237.53 92.3102C237.9 92.3102 238.2 92.0102 238.2 91.6402C238.2 91.2702 237.9 90.9702 237.53 90.9702C237.16 90.9702 236.86 91.2702 236.86 91.6402C236.86 92.0102 237.16 92.3102 237.53 92.3102Z" fill="#1F1A54"/>
<path d="M237.32 98.6598C237.69 98.6598 237.99 98.3599 237.99 97.9898C237.99 97.6198 237.69 97.3198 237.32 97.3198C236.95 97.3198 236.65 97.6198 236.65 97.9898C236.65 98.3599 236.95 98.6598 237.32 98.6598Z" fill="#1F1A54"/>
<path d="M118.8 116.84C118.861 117.322 118.751 117.81 118.49 118.22C118.407 118.12 118.313 118.029 118.21 117.95C118.402 117.625 118.48 117.245 118.43 116.87C118.382 116.624 118.282 116.39 118.137 116.185C117.993 115.98 117.806 115.808 117.59 115.68C117.695 115.606 117.786 115.515 117.86 115.41C118.108 115.57 118.32 115.779 118.482 116.026C118.643 116.272 118.752 116.549 118.8 116.84Z" fill="#1F1A54"/>
<path d="M118.63 120.93C118.912 121.264 119.055 121.694 119.03 122.13C119.012 122.679 118.836 123.212 118.522 123.663C118.207 124.113 117.769 124.463 117.26 124.67V124.42C117.27 124.377 117.27 124.333 117.26 124.29C117.681 124.102 118.04 123.8 118.298 123.418C118.556 123.037 118.702 122.591 118.72 122.13C118.743 121.801 118.647 121.475 118.45 121.21C118.517 121.122 118.578 121.028 118.63 120.93Z" fill="#1F1A54"/>
<path d="M119 119.59C119.013 120.068 118.873 120.538 118.6 120.93C118.525 120.829 118.429 120.743 118.32 120.68C118.535 120.358 118.643 119.977 118.63 119.59C118.622 119.187 118.469 118.8 118.2 118.5C118.299 118.419 118.386 118.325 118.46 118.22C118.8 118.596 118.992 119.083 119 119.59Z" fill="#1F1A54"/>
<path d="M118.63 120.93C118.559 121.03 118.478 121.124 118.39 121.21C118.314 121.108 118.215 121.025 118.1 120.97C118.194 120.883 118.278 120.786 118.35 120.68C118.46 120.743 118.555 120.828 118.63 120.93Z" fill="#1F1A54"/>
<path d="M118.39 121.21C118.587 121.475 118.683 121.801 118.66 122.13C118.642 122.591 118.496 123.037 118.238 123.419C117.98 123.8 117.621 124.102 117.2 124.29C117.166 124.226 117.113 124.173 117.049 124.137C116.986 124.102 116.913 124.085 116.84 124.09C116.797 124.085 116.753 124.085 116.71 124.09C117.78 123.59 118.3 122.93 118.3 122.09C118.311 121.846 118.244 121.604 118.11 121.4C118.202 121.345 118.286 121.278 118.36 121.2L118.39 121.21Z" fill="#1F1A54"/>
<path d="M118.43 116.87C118.479 117.244 118.402 117.625 118.21 117.95C118.146 117.892 118.062 117.859 117.975 117.859C117.888 117.859 117.804 117.892 117.74 117.95C117.881 117.815 117.987 117.649 118.05 117.464C118.113 117.28 118.13 117.083 118.1 116.89C118.1 116.45 117.59 116.08 117.29 115.89C117.364 115.853 117.434 115.809 117.5 115.76L117.61 115.67C117.823 115.801 118.007 115.976 118.148 116.182C118.289 116.389 118.385 116.623 118.43 116.87Z" fill="#1F1A54"/>
<path d="M118.66 119.59C118.673 119.977 118.565 120.358 118.35 120.68L118.24 120.63C118.176 120.604 118.106 120.598 118.038 120.612C117.97 120.626 117.908 120.66 117.86 120.71C118.009 120.564 118.125 120.39 118.203 120.197C118.28 120.004 118.317 119.797 118.31 119.59C118.295 119.268 118.172 118.962 117.96 118.72C118.059 118.662 118.15 118.591 118.23 118.51C118.497 118.807 118.65 119.19 118.66 119.59Z" fill="#1F1A54"/>
<path d="M118.39 121.21C118.316 121.288 118.232 121.355 118.14 121.41C118.102 121.355 118.05 121.31 117.99 121.28C117.905 121.237 117.839 121.165 117.804 121.076C117.769 120.988 117.768 120.89 117.8 120.8C117.828 120.758 117.858 120.718 117.89 120.68C117.938 120.631 118 120.597 118.068 120.583C118.136 120.568 118.206 120.575 118.27 120.6L118.38 120.65C118.308 120.756 118.224 120.853 118.13 120.94C118.237 121.008 118.327 121.1 118.39 121.21Z" fill="#1F1A54"/>
<path d="M116 112C117.74 112.34 118.35 113.36 118.33 114.16C118.329 114.613 118.158 115.048 117.85 115.38C117.751 115.307 117.647 115.24 117.54 115.18C117.801 114.911 117.951 114.554 117.96 114.18C117.96 113.48 117.38 112.71 115.96 112.42C115.969 112.384 115.969 112.346 115.96 112.31L116 112Z" fill="#1F1A54"/>
<path d="M118.49 118.22C118.416 118.325 118.329 118.419 118.23 118.5C118.154 118.406 118.071 118.319 117.98 118.24C118.076 118.158 118.157 118.06 118.22 117.95C118.32 118.03 118.41 118.12 118.49 118.22Z" fill="#1F1A54"/>
<path d="M118.23 118.5C118.15 118.582 118.059 118.652 117.96 118.71C117.902 118.645 117.838 118.585 117.77 118.53C117.732 118.5 117.7 118.462 117.677 118.42C117.653 118.378 117.638 118.331 117.632 118.282C117.627 118.234 117.631 118.185 117.644 118.139C117.657 118.092 117.68 118.048 117.71 118.01C117.774 117.952 117.858 117.919 117.945 117.919C118.032 117.919 118.116 117.952 118.18 118.01C118.117 118.12 118.036 118.218 117.94 118.3C118.042 118.358 118.139 118.425 118.23 118.5Z" fill="#1F1A54"/>
<path d="M118.11 121.44C118.244 121.644 118.311 121.886 118.3 122.13C118.3 122.96 117.78 123.62 116.71 124.13C114.25 125.31 109.9 125.13 109.83 125.13C108.432 125.216 107.042 125.4 105.67 125.68H105.6C102.31 126.27 98.7999 127.17 98.7799 127.18C96.1017 127.979 93.468 128.921 90.8899 130C83.4299 132.94 73.2099 137 67.1699 136.59C60.6499 136.19 58.0399 116.15 57.6799 113.15L70.5599 112.05C71.2999 119.05 71.5599 121.67 71.7699 122.6C71.7604 122.643 71.7604 122.687 71.7699 122.73H71.8299C71.9299 123.13 72.0199 123.13 72.1499 123.12C72.2491 123.108 72.341 123.062 72.4099 122.99C74.9199 121.34 84.6599 120.2 91.1099 119.44C93.8499 119.12 96.2199 118.83 97.4399 118.59C99.9799 118.09 102.44 115.31 104.61 112.67C105.17 111.96 105.72 111.24 106.25 110.56C107.88 108.43 109.91 105.79 110.56 106.26C111.37 106.85 110.66 108.67 110.08 110.13C109.5 111.59 109.17 112.49 109.64 113.02C110.11 113.55 110.64 113.25 110.88 113.19C112.426 112.791 114.026 112.636 115.62 112.73H115.69C117.02 112.93 117.61 113.6 117.6 114.17C117.602 114.368 117.554 114.562 117.461 114.737C117.369 114.912 117.234 115.06 117.07 115.17C116.635 115.457 116.144 115.648 115.63 115.73C115.578 115.732 115.528 115.745 115.482 115.768C115.436 115.791 115.395 115.823 115.362 115.863C115.329 115.902 115.305 115.948 115.29 115.998C115.276 116.047 115.272 116.099 115.279 116.15C115.286 116.201 115.304 116.25 115.331 116.294C115.358 116.338 115.394 116.375 115.436 116.404C115.479 116.434 115.527 116.454 115.577 116.463C115.628 116.473 115.68 116.472 115.73 116.46C116.286 116.376 116.82 116.182 117.3 115.89C117.6 116.09 118.07 116.46 118.11 116.89C118.14 117.083 118.123 117.28 118.06 117.464C117.997 117.649 117.891 117.815 117.75 117.95C117.253 118.292 116.65 118.445 116.05 118.38C116.001 118.375 115.952 118.379 115.905 118.393C115.858 118.407 115.815 118.429 115.777 118.46C115.739 118.491 115.707 118.529 115.683 118.571C115.66 118.614 115.645 118.661 115.64 118.71C115.635 118.759 115.639 118.808 115.653 118.855C115.667 118.902 115.689 118.945 115.72 118.983C115.751 119.021 115.789 119.053 115.831 119.077C115.874 119.1 115.921 119.115 115.97 119.12H116.29C116.882 119.134 117.466 118.985 117.98 118.69C118.192 118.932 118.315 119.239 118.33 119.56C118.337 119.768 118.3 119.974 118.223 120.167C118.145 120.36 118.028 120.535 117.88 120.68C117.245 121.166 116.469 121.433 115.67 121.44C115.622 121.44 115.574 121.45 115.53 121.468C115.485 121.487 115.445 121.514 115.412 121.549C115.378 121.583 115.352 121.624 115.334 121.669C115.317 121.714 115.309 121.762 115.31 121.81C115.31 121.906 115.347 121.999 115.415 122.068C115.482 122.137 115.574 122.177 115.67 122.18C116.537 122.17 117.384 121.914 118.11 121.44Z" fill="white"/>
<path d="M118 121.31C118.06 121.34 118.112 121.384 118.15 121.44C117.418 121.93 116.56 122.197 115.68 122.21C115.584 122.207 115.492 122.167 115.425 122.098C115.358 122.029 115.32 121.936 115.32 121.84C115.319 121.792 115.327 121.744 115.344 121.699C115.362 121.654 115.388 121.613 115.422 121.579C115.455 121.544 115.496 121.517 115.54 121.498C115.584 121.48 115.632 121.47 115.68 121.47C116.48 121.463 117.255 121.196 117.89 120.71C117.858 120.748 117.828 120.788 117.8 120.83C117.768 120.921 117.771 121.02 117.808 121.108C117.845 121.197 117.913 121.269 118 121.31Z" fill="#1F1A54"/>
<path d="M116 112.42C117.37 112.71 118 113.48 118 114.18C117.991 114.554 117.841 114.911 117.58 115.18L117.45 115.11C117.397 115.078 117.337 115.061 117.275 115.061C117.213 115.061 117.153 115.078 117.1 115.11C117.264 115 117.399 114.852 117.491 114.677C117.584 114.502 117.632 114.308 117.63 114.11C117.63 113.54 117.05 112.87 115.72 112.67C115.787 112.662 115.849 112.633 115.899 112.589C115.949 112.544 115.984 112.485 116 112.42Z" fill="#1F1A54"/>
<path d="M117.76 118.54C117.828 118.595 117.892 118.655 117.95 118.72C117.437 119.015 116.852 119.164 116.26 119.15H115.94C115.842 119.139 115.752 119.09 115.69 119.013C115.628 118.936 115.599 118.838 115.61 118.74C115.621 118.642 115.67 118.552 115.747 118.49C115.824 118.428 115.922 118.399 116.02 118.41C116.62 118.475 117.223 118.322 117.72 117.98C117.682 118.018 117.653 118.063 117.634 118.113C117.615 118.163 117.608 118.216 117.611 118.269C117.615 118.322 117.63 118.374 117.656 118.421C117.682 118.468 117.717 118.508 117.76 118.54Z" fill="#1F1A54"/>
<path d="M117.86 115.41C117.786 115.514 117.694 115.606 117.59 115.68C117.483 115.6 117.369 115.53 117.25 115.47C117.359 115.394 117.46 115.307 117.55 115.21C117.657 115.27 117.761 115.337 117.86 115.41Z" fill="#1F1A54"/>
<path d="M117.59 115.68L117.48 115.77C117.414 115.819 117.343 115.862 117.27 115.9L117.1 115.8C117.056 115.779 117.016 115.749 116.983 115.712C116.951 115.675 116.926 115.632 116.91 115.586C116.894 115.539 116.888 115.49 116.891 115.441C116.895 115.392 116.908 115.344 116.93 115.3C116.956 115.251 116.994 115.21 117.04 115.18C117.093 115.148 117.153 115.131 117.215 115.131C117.277 115.131 117.337 115.148 117.39 115.18L117.52 115.25C117.43 115.347 117.329 115.434 117.22 115.51C117.348 115.555 117.472 115.612 117.59 115.68Z" fill="#1F1A54"/>
<path d="M117.42 126.26C117.453 126.529 117.432 126.801 117.357 127.061C117.282 127.32 117.155 127.562 116.984 127.772C116.813 127.981 116.601 128.153 116.362 128.279C116.122 128.404 115.859 128.479 115.59 128.5L108.9 129.17V128.8L115.56 128.13C115.779 128.109 115.991 128.045 116.185 127.941C116.379 127.838 116.551 127.697 116.69 127.527C116.829 127.357 116.934 127.161 116.997 126.95C117.061 126.74 117.082 126.519 117.06 126.3L116.91 124.84H117.04L117.27 124.72L117.42 126.26Z" fill="#1F1A54"/>
<path d="M117.24 124.42V124.67L117.01 124.79H116.88V124.41L117.21 124.24C117.24 124.295 117.25 124.359 117.24 124.42Z" fill="#1F1A54"/>
<path d="M117.1 115.8L117.27 115.9C116.79 116.192 116.256 116.386 115.7 116.47C115.65 116.482 115.598 116.483 115.547 116.473C115.497 116.464 115.449 116.444 115.406 116.415C115.364 116.385 115.328 116.348 115.301 116.304C115.274 116.26 115.257 116.211 115.25 116.16C115.243 116.109 115.246 116.057 115.26 116.008C115.275 115.958 115.299 115.912 115.332 115.873C115.365 115.833 115.406 115.801 115.452 115.778C115.498 115.755 115.549 115.742 115.6 115.74C116.114 115.658 116.605 115.467 117.04 115.18C116.994 115.21 116.956 115.251 116.93 115.3C116.908 115.344 116.895 115.392 116.891 115.441C116.888 115.49 116.894 115.539 116.91 115.586C116.926 115.632 116.951 115.675 116.984 115.712C117.016 115.749 117.056 115.779 117.1 115.8Z" fill="#1F1A54"/>
<path d="M117.2 124.29L116.87 124.46L116.52 124.61V124.49C116.512 124.415 116.527 124.34 116.562 124.274C116.598 124.208 116.653 124.154 116.72 124.12C116.763 124.114 116.807 124.114 116.85 124.12C116.918 124.114 116.987 124.127 117.048 124.157C117.11 124.187 117.162 124.233 117.2 124.29Z" fill="#1F1A54"/>
<path d="M117.05 126.3C117.072 126.519 117.051 126.74 116.987 126.95C116.924 127.16 116.819 127.356 116.68 127.526C116.541 127.696 116.369 127.837 116.175 127.941C115.981 128.044 115.769 128.109 115.55 128.13L108.89 128.8L107.63 128.92C107.411 128.942 107.19 128.921 106.98 128.857C106.769 128.794 106.573 128.689 106.403 128.55C106.233 128.411 106.093 128.239 105.989 128.045C105.885 127.851 105.821 127.639 105.8 127.42L105.7 126.42H106.04L106.14 127.42C106.178 127.763 106.349 128.078 106.616 128.297C106.883 128.516 107.226 128.621 107.57 128.59L115.49 127.81C115.833 127.772 116.148 127.601 116.367 127.334C116.586 127.066 116.691 126.724 116.66 126.38L116.52 125.03C116.639 124.986 116.756 124.936 116.87 124.88L117.05 126.3Z" fill="#1F1A54"/>
<path d="M116.87 124.46V124.84C116.756 124.896 116.639 124.946 116.52 124.99V124.61L116.87 124.46Z" fill="#1F1A54"/>
<path d="M116.69 126.34C116.721 126.684 116.616 127.026 116.397 127.294C116.178 127.561 115.863 127.732 115.52 127.77L107.6 128.55C107.256 128.581 106.914 128.475 106.646 128.257C106.379 128.038 106.208 127.723 106.17 127.38L106.07 126.38C107.311 126.133 108.567 125.969 109.83 125.89C112.103 125.992 114.376 125.701 116.55 125.03L116.69 126.34Z" fill="#FFD400"/>
<path d="M116.71 124.12C116.643 124.154 116.588 124.208 116.552 124.274C116.516 124.34 116.502 124.415 116.51 124.49V124.61C114.35 125.282 112.09 125.576 109.83 125.48C108.543 125.569 107.264 125.743 106 126C105.99 125.914 105.949 125.835 105.884 125.778C105.82 125.721 105.736 125.69 105.65 125.69C107.022 125.41 108.412 125.226 109.81 125.14C109.9 125.11 114.25 125.3 116.71 124.12Z" fill="#1F1A54"/>
<path d="M116 112.31C116.009 112.346 116.009 112.384 116 112.42L115.65 112.35V111.98H115.72H116.03L116 112.31Z" fill="#1F1A54"/>
<path d="M115.37 105.52L116 112H115.69H115.62L115 105.42L115.37 105.52Z" fill="#1F1A54"/>
<path d="M115.67 112.35L116.02 112.42C116.011 112.497 115.975 112.568 115.918 112.621C115.861 112.674 115.788 112.706 115.71 112.71C115.616 112.715 115.524 112.684 115.453 112.622C115.382 112.561 115.338 112.474 115.33 112.38V112.32H115.67V112.35Z" fill="#1F1A54"/>
<path d="M115.69 112.71H115.62C114.026 112.616 112.427 112.771 110.88 113.17C110.66 113.23 110.01 113.41 109.64 113C109.27 112.59 109.55 111.49 110.08 110.11C110.61 108.73 111.37 106.83 110.56 106.24C109.91 105.77 107.88 108.41 106.25 110.54C105.72 111.22 105.17 111.94 104.61 112.65C104.644 112.611 104.67 112.564 104.685 112.515C104.701 112.465 104.706 112.412 104.7 112.36V111.97C107.42 108.53 109.7 105.11 110.83 105.97C112.89 107.48 107.83 113.67 110.83 112.83C112.307 112.457 113.828 112.289 115.35 112.33V112.39C115.36 112.475 115.399 112.554 115.461 112.613C115.524 112.671 115.605 112.706 115.69 112.71Z" fill="#1F1A54"/>
<path d="M115.67 112.35H115.33V111.97H115.7L115.67 112.35Z" fill="#1F1A54"/>
<path d="M115 105.42L115.64 111.98H115.27L114.48 104C114.463 103.824 114.41 103.654 114.326 103.499C114.242 103.344 114.127 103.207 113.989 103.097C113.851 102.987 113.693 102.906 113.523 102.858C113.353 102.811 113.175 102.798 113 102.82L105.09 103.61C104.92 103.623 104.754 103.67 104.603 103.75C104.451 103.829 104.318 103.938 104.21 104.07C103.982 104.351 103.874 104.71 103.91 105.07L104.55 111.52C104.449 111.663 104.338 111.8 104.22 111.93L103.55 105.1C103.527 104.881 103.547 104.659 103.61 104.448C103.673 104.237 103.777 104.041 103.917 103.871C104.056 103.7 104.228 103.56 104.423 103.456C104.618 103.353 104.831 103.29 105.05 103.27L112.97 102.49C113.189 102.468 113.41 102.489 113.62 102.553C113.831 102.616 114.026 102.721 114.196 102.86C114.366 102.999 114.507 103.171 114.611 103.365C114.714 103.559 114.779 103.771 114.8 103.99L115 105.42Z" fill="#1F1A54"/>
<path d="M115.21 103.92L115.37 105.52L114.99 105.42L114.84 104C114.819 103.781 114.755 103.569 114.651 103.375C114.547 103.181 114.407 103.009 114.237 102.87C114.067 102.731 113.871 102.626 113.66 102.563C113.45 102.499 113.229 102.478 113.01 102.5L105.09 103.28C104.871 103.3 104.658 103.364 104.463 103.467C104.269 103.57 104.096 103.711 103.957 103.881C103.817 104.051 103.713 104.248 103.65 104.459C103.587 104.67 103.567 104.891 103.59 105.11L104.26 111.94L104.03 112.24L103.94 112.35L103.23 105.15C103.2 104.88 103.226 104.607 103.305 104.348C103.384 104.088 103.515 103.847 103.69 103.64C103.858 103.433 104.066 103.262 104.301 103.137C104.537 103.011 104.795 102.934 105.06 102.91L112.98 102.13C113.245 102.098 113.513 102.119 113.769 102.193C114.025 102.266 114.264 102.389 114.472 102.556C114.679 102.723 114.852 102.929 114.978 103.164C115.105 103.398 115.184 103.655 115.21 103.92Z" fill="#1F1A54"/>
<path d="M115.26 111.94V112.32C113.738 112.278 112.217 112.447 110.74 112.82C107.74 113.66 112.8 107.47 110.74 105.96C109.61 105.14 107.33 108.56 104.61 111.96L104.55 111.45L105.63 110.06C108.01 106.96 109.73 104.73 110.96 105.62C112.19 106.51 111.43 108.56 110.74 110.35C110.46 111.07 109.99 112.27 110.15 112.48H110.26C110.389 112.476 110.516 112.456 110.64 112.42C112.153 112.061 113.706 111.9 115.26 111.94Z" fill="#1F1A54"/>
<path d="M114.48 104L115.26 111.94C113.717 111.92 112.178 112.098 110.68 112.47C110.556 112.506 110.429 112.526 110.3 112.53H110.19C110.03 112.32 110.5 111.12 110.78 110.4C111.47 108.61 112.26 106.6 111 105.67C109.74 104.74 108 107.01 105.67 110.11L104.59 111.5L104 105C103.964 104.64 104.072 104.281 104.3 104C104.408 103.868 104.541 103.759 104.693 103.68C104.844 103.601 105.01 103.553 105.18 103.54L113.09 102.75C113.263 102.741 113.437 102.765 113.601 102.823C113.764 102.881 113.915 102.97 114.044 103.087C114.173 103.203 114.278 103.343 114.353 103.5C114.428 103.657 114.471 103.827 114.48 104Z" fill="#FFD400"/>
<path d="M70.8598 111.29L57.2398 112.44C57.1899 112.442 57.1412 112.455 57.0976 112.48C57.0541 112.504 57.0171 112.538 56.9898 112.58C56.9564 112.614 56.931 112.655 56.9154 112.7C56.8998 112.745 56.8945 112.793 56.8998 112.84L54.9998 113C54.9998 113 53.9998 91.3102 57.9998 86.4302C61.1698 82.5902 76.4098 77.9102 76.4098 77.9102L78.9198 81.0002C79.9303 82.2355 81.2485 83.1828 82.7417 83.7464C84.2349 84.31 85.8502 84.47 87.425 84.2104C88.9997 83.9509 90.4782 83.2808 91.7115 82.2678C92.9448 81.2547 93.8893 79.9345 94.4498 78.4402L123.33 88.6702L120.51 106.8L115.37 105.55L115.21 103.95C115.192 103.681 115.121 103.418 114.999 103.177C114.877 102.936 114.708 102.722 114.502 102.548C114.295 102.375 114.056 102.244 113.798 102.166C113.54 102.087 113.268 102.061 113 102.09L105.08 102.87C104.814 102.894 104.556 102.971 104.321 103.097C104.086 103.222 103.878 103.393 103.71 103.6C103.535 103.807 103.404 104.048 103.325 104.308C103.245 104.567 103.22 104.84 103.25 105.11L103.96 112.31C102.06 114.69 99.5898 117.42 97.2998 117.88C96.1098 118.12 93.7498 118.39 91.0298 118.71C84.4398 119.49 75.5498 120.54 72.4198 122.14C72.2098 120.47 71.6498 115.24 71.2698 111.62C71.2677 111.57 71.255 111.522 71.2325 111.477C71.2101 111.433 71.1784 111.394 71.1395 111.362C71.1007 111.331 71.0557 111.308 71.0075 111.296C70.9592 111.284 70.9089 111.282 70.8598 111.29Z" fill="#FFD400"/>
<path d="M108.06 151.83C94.0601 156.29 64.0601 150.65 64.0601 150.65V135.76C64.8486 136.65 65.9459 137.208 67.1301 137.32C67.4001 137.32 67.6801 137.32 67.9601 137.32C74.2301 137.32 83.9601 133.49 91.1601 130.67C93.7047 129.586 96.3089 128.648 98.9601 127.86C98.9601 127.86 102.2 127.03 105.35 126.44L105.45 127.44C105.501 127.939 105.732 128.402 106.101 128.743C106.469 129.083 106.949 129.278 107.45 129.29H107.65L108.88 129.17L109.67 151.17C109.17 151.44 108.63 151.64 108.06 151.83Z" fill="#FFD400"/>
<path d="M108.89 128.8V129.17L107.66 129.29H107.46C106.959 129.278 106.479 129.084 106.111 128.743C105.742 128.402 105.511 127.939 105.46 127.44L105.36 126.44L105.72 126.37L105.82 127.37C105.841 127.589 105.906 127.801 106.009 127.995C106.113 128.189 106.254 128.361 106.424 128.5C106.594 128.639 106.789 128.744 107 128.807C107.21 128.871 107.431 128.892 107.65 128.87L108.89 128.8Z" fill="#1F1A54"/>
<path d="M85.5801 176.81L79.7401 205.58L58.4001 242.36L46.1201 234.36L63.7301 201.13L64.0501 150.67C64.0501 150.67 94.1001 156.31 108.05 151.85L104.57 247.94H90.3901V209.18L85.5801 176.81Z" fill="#1F1A54"/>
<path d="M106 126V126.34H105.66V125.97L106 126Z" fill="#1F1A54"/>
<path d="M106 126L105.64 126.06L105.28 126.13C105.269 126.038 105.293 125.944 105.349 125.87C105.405 125.795 105.488 125.745 105.58 125.73H105.65C105.731 125.728 105.809 125.754 105.873 125.803C105.937 125.852 105.982 125.922 106 126Z" fill="#1F1A54"/>
<path d="M105.66 126V126.37L105.3 126.44V126.07L105.66 126Z" fill="#1F1A54"/>
<path d="M64.0499 135.76C58.8099 130.48 56.9899 113.68 56.8999 112.84H57.2599C57.2599 112.84 59.7399 136.5 67.1399 137C76.0299 137.54 93.5999 128.82 98.8599 127.58C98.8599 127.58 102.09 126.75 105.3 126.15V126.52C102.15 127.11 98.9499 127.93 98.9099 127.94C96.2588 128.728 93.6546 129.666 91.1099 130.75C83.9099 133.57 74.1799 137.4 67.9099 137.4C67.6299 137.4 67.3499 137.4 67.0799 137.4C65.8984 137.257 64.8153 136.671 64.0499 135.76Z" fill="#1F1A54"/>
<path d="M105.6 125.67C105.508 125.685 105.425 125.735 105.369 125.81C105.313 125.884 105.288 125.978 105.3 126.07C102.09 126.67 98.86 127.5 98.86 127.5C93.6 128.74 76.03 137.5 67.14 136.92C59.74 136.47 57.26 112.78 57.26 112.78L70.89 111.62C70.89 111.62 72.11 123.34 72.11 122.7C75.62 120.29 93.18 119.03 97.35 118.21C99.61 117.76 101.96 115.3 104.08 112.68C104.142 112.739 104.225 112.771 104.31 112.77C104.402 112.76 104.487 112.717 104.55 112.65C102.43 115.29 99.92 118.07 97.38 118.57C96.16 118.81 93.79 119.1 91.05 119.42C84.6 120.18 74.86 121.32 72.35 122.97C72.2811 123.042 72.1891 123.088 72.09 123.1C71.96 123.1 71.87 123.1 71.77 122.71H71.71C71.7005 122.667 71.7005 122.623 71.71 122.58C71.51 121.65 71.24 119.08 70.5 112.03L57.62 113.13C57.98 116.13 60.62 136.13 67.11 136.57C73.11 136.93 83.37 132.92 90.83 129.98C93.4079 128.897 96.0416 127.953 98.72 127.15C98.72 127.15 102.31 126.26 105.6 125.67Z" fill="#1F1A54"/>
<path d="M104.68 112.39C104.686 112.442 104.681 112.494 104.665 112.544C104.65 112.594 104.624 112.64 104.59 112.68C104.527 112.747 104.442 112.79 104.35 112.8C104.265 112.801 104.182 112.769 104.12 112.71L104.35 112.43C104.47 112.29 104.58 112.14 104.69 112L104.68 112.39Z" fill="#1F1A54"/>
<path d="M104.59 111.49L104.65 112C104.54 112.14 104.43 112.29 104.31 112.43V111.9C104.411 111.769 104.505 111.632 104.59 111.49Z" fill="#1F1A54"/>
<path d="M104.26 111.9V112.43L104.03 112.71C103.957 112.65 103.91 112.564 103.9 112.47V112.31L103.99 112.2L104.26 111.9Z" fill="#1F1A54"/>
<path d="M104 112.47C104.01 112.564 104.057 112.65 104.13 112.71C102.01 115.33 99.6599 117.79 97.3999 118.24C93.2299 119.06 75.6699 120.32 72.1599 122.73C72.1599 123.37 70.9399 111.65 70.9399 111.65V111.29C70.9875 111.284 71.0357 111.289 71.0816 111.303C71.1274 111.316 71.1699 111.339 71.2065 111.37C71.243 111.401 71.2728 111.439 71.2941 111.482C71.3153 111.525 71.3275 111.572 71.3299 111.62C71.7099 115.24 72.2699 120.47 72.4799 122.14C75.6099 120.54 84.4799 119.49 91.0899 118.71C93.8099 118.39 96.1699 118.12 97.3599 117.88C99.6499 117.42 102.12 114.69 104.02 112.31L104 112.47Z" fill="#1F1A54"/>
<path d="M90 47.0902C90.38 47.4002 95.26 51.2002 92.48 51.1502C89.7 51.1002 82.06 47.3902 81.83 47.2802C82.2162 48.8218 82.3346 50.4184 82.18 52.0002C82.1674 53.0019 81.9456 53.9899 81.5289 54.9008C81.1121 55.8118 80.5096 56.6256 79.76 57.2902C79.0992 55.8338 77.9343 54.6653 76.48 54.0002C75.6932 53.72 74.831 53.7384 74.0568 54.0517C73.2826 54.3651 72.6504 54.9516 72.28 55.7002C72 54.2202 70 51.1502 71 46.9102C71.3704 45.3531 72.3408 44.0053 73.7 43.1602C74.1443 42.8607 74.6248 42.6188 75.13 42.4402C75.3172 42.3569 75.5112 42.29 75.71 42.2402C75.86 42.0002 76 41.7702 76.16 41.5602C81.03 34.7302 93.91 37.8202 100.88 44.6202C106.67 50.2702 103.23 51.9202 100.12 50.9302L99.22 50.6202C96.33 49.5802 90.41 47.2602 90 47.0902Z" fill="#1F1A54"/>
<path d="M92.8499 73.3598V77.5198L94.4499 78.4098C93.8928 79.9063 92.9508 81.2294 91.7191 82.2456C90.4873 83.2619 89.0094 83.9353 87.4343 84.1979C85.8592 84.4606 84.2427 84.3033 82.7478 83.7418C81.253 83.1803 79.9326 82.2345 78.9199 80.9998L76.4 77.9098L78.7499 76.9998V65.9998C75.0599 65.4598 72.2699 63.5898 71.5899 60.1098C71.2579 58.6021 71.5042 57.0247 72.2799 55.6898C72.6504 54.9413 73.2826 54.3548 74.0568 54.0414C74.8309 53.7281 75.6932 53.7097 76.48 53.9898C77.9236 54.6471 79.0838 55.8002 79.7499 57.2398C80.4953 56.5819 81.096 55.7765 81.5143 54.8746C81.9325 53.9727 82.1592 52.9938 82.1799 51.9998C82.3301 50.4208 82.2084 48.8277 81.8199 47.2898C82.0499 47.3998 89.6199 51.0998 92.4699 51.1598C95.32 51.2198 90.3699 47.3998 89.9999 47.0898C90.4199 47.2598 96.34 49.5798 99.26 50.5898C99.61 56.0998 99.7099 64.1598 98.6399 67.4798C97.6399 70.5798 95.8899 72.6398 92.8499 73.3598ZM96.58 57.6498C96.6107 57.5274 96.6131 57.3996 96.587 57.2761C96.5609 57.1527 96.5071 57.0367 96.4294 56.9372C96.3518 56.8377 96.2525 56.7572 96.1391 56.7018C96.0257 56.6464 95.9012 56.6177 95.775 56.6177C95.6487 56.6177 95.5242 56.6464 95.4108 56.7018C95.2974 56.7572 95.1981 56.8377 95.1205 56.9372C95.0428 57.0367 94.9889 57.1527 94.9629 57.2761C94.9368 57.3996 94.9392 57.5274 94.9699 57.6498C94.9392 57.7723 94.9368 57.9001 94.9629 58.0235C94.9889 58.147 95.0428 58.2629 95.1205 58.3625C95.1981 58.462 95.2974 58.5425 95.4108 58.5979C95.5242 58.6532 95.6487 58.682 95.775 58.682C95.9012 58.682 96.0257 58.6532 96.1391 58.5979C96.2525 58.5425 96.3518 58.462 96.4294 58.3625C96.5071 58.2629 96.5609 58.147 96.587 58.0235C96.6131 57.9001 96.6107 57.7723 96.58 57.6498ZM89.2499 57.5198C89.2771 57.3985 89.2766 57.2725 89.2485 57.1514C89.2204 57.0302 89.1655 56.9169 89.0877 56.8198C89.01 56.7227 88.9114 56.6444 88.7992 56.5905C88.6871 56.5367 88.5643 56.5087 88.44 56.5087C88.3156 56.5087 88.1928 56.5367 88.0807 56.5905C87.9685 56.6444 87.8699 56.7227 87.7922 56.8198C87.7144 56.9169 87.6595 57.0302 87.6314 57.1514C87.6033 57.2725 87.6028 57.3985 87.6299 57.5198C87.6028 57.6412 87.6033 57.7672 87.6314 57.8883C87.6595 58.0095 87.7144 58.1228 87.7922 58.2199C87.8699 58.317 87.9685 58.3953 88.0807 58.4492C88.1928 58.503 88.3156 58.531 88.44 58.531C88.5643 58.531 88.6871 58.503 88.7992 58.4492C88.9114 58.3953 89.01 58.317 89.0877 58.2199C89.1655 58.1228 89.2204 58.0095 89.2485 57.8883C89.2766 57.7672 89.2771 57.6412 89.2499 57.5198Z" fill="white"/>
<path d="M95.7801 56.6299C96.0161 56.6623 96.2307 56.7842 96.3796 56.9702C96.5285 57.1563 96.6002 57.3924 96.5801 57.6299C96.6108 57.7523 96.6132 57.8801 96.5872 58.0036C96.5611 58.1271 96.5072 58.243 96.4296 58.3425C96.3519 58.442 96.2526 58.5225 96.1392 58.5779C96.0258 58.6333 95.9013 58.6621 95.7751 58.6621C95.6489 58.6621 95.5243 58.6333 95.4109 58.5779C95.2975 58.5225 95.1982 58.442 95.1206 58.3425C95.043 58.243 94.9891 58.1271 94.963 58.0036C94.9369 57.8801 94.9393 57.7523 94.9701 57.6299C94.9501 57.3909 95.0232 57.1535 95.1742 56.9672C95.3251 56.7808 95.5422 56.66 95.7801 56.6299Z" fill="#1F1A54"/>
<path d="M88.4301 56.5C88.6698 56.5277 88.8894 56.6475 89.0424 56.8341C89.1954 57.0207 89.2699 57.2595 89.2501 57.5C89.2773 57.6214 89.2768 57.7473 89.2487 57.8685C89.2206 57.9897 89.1657 58.103 89.0879 58.2C89.0101 58.2971 88.9115 58.3755 88.7994 58.4293C88.6873 58.4832 88.5645 58.5111 88.4401 58.5111C88.3157 58.5111 88.1929 58.4832 88.0808 58.4293C87.9687 58.3755 87.8701 58.2971 87.7923 58.2C87.7146 58.103 87.6596 57.9897 87.6315 57.8685C87.6035 57.7473 87.603 57.6214 87.6301 57.5C87.61 57.2626 87.6817 57.0264 87.8306 56.8404C87.9794 56.6543 88.194 56.5325 88.4301 56.5Z" fill="#1F1A54"/>
<path d="M74.3099 36.5501C75.0864 37.1007 75.6804 37.8712 76.0155 38.7622C76.3505 39.6533 76.4113 40.6242 76.1899 41.5501C76.0299 41.7601 75.8899 41.9901 75.7399 42.2301C72.5099 41.6601 71.6599 34.8001 74.3099 36.5501Z" fill="#1F1A54"/>
<path d="M75.15 42.4298C74.6448 42.6084 74.1643 42.8503 73.72 43.1498C68.72 44.1498 66.62 41.0198 69.42 40.3498C72.22 39.6798 75.15 42.4298 75.15 42.4298Z" fill="#1F1A54"/>
<path d="M70.8599 111.29V111.65L57.2299 112.81H56.8699C56.8646 112.763 56.87 112.715 56.8855 112.67C56.9011 112.625 56.9265 112.584 56.9599 112.55C56.9872 112.508 57.0242 112.474 57.0678 112.449C57.1113 112.425 57.16 112.412 57.2099 112.41L70.8599 111.29Z" fill="#1F1A54"/>
<path d="M99.2399 50.6201C99.5899 56.1301 99.6899 64.1901 98.6199 67.5101C97.6199 70.5801 95.8899 72.6401 92.8499 73.3601C92.5899 73.4201 92.3199 73.4801 92.0499 73.5201C90.4199 73.7601 86.3999 73.2401 84.1399 71.0501" stroke="#1F1A54" stroke-width="0.74" stroke-linecap="round" stroke-linejoin="round"/>
<path d="M85.72 63.6299C85.9573 64.4725 86.4228 65.2331 87.0651 65.8278C87.7075 66.4225 88.5016 66.8281 89.36 66.9999" stroke="#1F1A54" stroke-width="0.74" stroke-linecap="round" stroke-linejoin="round"/>
<path d="M91 62.23C91.3295 62.4051 91.6969 62.4967 92.07 62.4967C92.4431 62.4967 92.8105 62.4051 93.14 62.23" stroke="#1F1A54" stroke-width="0.74" stroke-linecap="round" stroke-linejoin="round"/>
<path d="M79.9999 57.9398C79.9245 57.7141 79.8343 57.4937 79.73 57.2798C79.0746 55.8323 77.9213 54.6684 76.48 53.9998C75.6932 53.7197 74.8309 53.738 74.0568 54.0514C73.2826 54.3647 72.6504 54.9513 72.2799 55.6998C71.5042 57.0346 71.2579 58.612 71.5899 60.1198C72.2699 63.5998 75.0599 65.4698 78.7499 66.0098" stroke="#1F1A54" stroke-width="0.74" stroke-miterlimit="10" stroke-linecap="round"/>
<path d="M73.69 43.1602C72.3346 44.0072 71.3679 45.3547 71 46.9102C70 51.1502 72 54.2202 72.28 55.7202" stroke="#1F1A54" stroke-width="0.74" stroke-linecap="round" stroke-linejoin="round"/>
<path d="M76.18 41.5498C76.02 41.7598 75.88 41.9898 75.73 42.2298C75.5312 42.2797 75.3372 42.3466 75.15 42.4298C74.6448 42.6084 74.1643 42.8503 73.72 43.1498" stroke="#1F1A54" stroke-width="0.74" stroke-linecap="round" stroke-linejoin="round"/>
<path d="M90 47.0899C90.42 47.2599 96.34 49.5799 99.26 50.5899L100.16 50.8999C103.27 51.8999 106.71 50.2399 100.92 44.5899C93.92 37.7899 81.07 34.6999 76.2 41.5299" stroke="#1F1A54" stroke-width="0.74" stroke-linecap="round" stroke-linejoin="round"/>
<path d="M81.8101 47.2698C82.0401 47.3798 89.6101 51.0798 92.4601 51.1398C95.3101 51.1998 90.3701 47.3998 90.0001 47.0898" stroke="#1F1A54" stroke-width="0.74" stroke-linecap="round" stroke-linejoin="round"/>
<path d="M79.76 57.28C80.5084 56.6166 81.1102 55.8044 81.5269 54.8953C81.9436 53.9861 82.166 53 82.18 52C82.3302 50.421 82.2084 48.8279 81.82 47.29" stroke="#1F1A54" stroke-width="0.74" stroke-linecap="round" stroke-linejoin="round"/>
<path d="M75.1501 42.4301C75.1501 42.4301 72.2201 39.7101 69.3901 40.3601C66.5601 41.0101 68.7201 44.1401 73.6901 43.1601" stroke="#1F1A54" stroke-width="0.74" stroke-linecap="round" stroke-linejoin="round"/>
<path d="M75.1399 57.6499C75.1399 57.6499 77.3499 57.9899 77.6799 61.4499" stroke="#1F1A54" stroke-width="0.74" stroke-miterlimit="10" stroke-linecap="round"/>
<path d="M78.7499 66.0298V66.0398V76.9898L76.3999 77.9098" stroke="#1F1A54" stroke-width="0.74" stroke-linecap="round" stroke-linejoin="round"/>
<path d="M92.8501 73.3599V77.5199L94.4501 78.4099" stroke="#1F1A54" stroke-width="0.74" stroke-linecap="round" stroke-linejoin="round"/>
<path d="M56.9 112.84L55 113C55 113 54 91.3102 58 86.4302C61.17 82.5902 76.41 77.9102 76.41 77.9102L78.92 81.0002C79.9305 82.2355 81.2487 83.1828 82.7419 83.7464C84.2351 84.31 85.8505 84.47 87.4252 84.2104C89 83.9509 90.4785 83.2808 91.7118 82.2678C92.945 81.2547 93.8895 79.9345 94.45 78.4402L123.33 88.6702L120.51 106.8L115.37 105.55" stroke="#1F1A54" stroke-width="0.74" stroke-linecap="round" stroke-linejoin="round"/>
<path d="M69.6599 100.35L70.8599 111.29" stroke="#1F1A54" stroke-width="0.74" stroke-linecap="round" stroke-linejoin="round"/>
<path d="M64.05 135.76V150.65C64.05 150.65 94.1 156.29 108.05 151.83C108.62 151.64 109.16 151.44 109.68 151.22L108.89 129.22" stroke="#1F1A54" stroke-width="0.74" stroke-linecap="round" stroke-linejoin="round"/>
<path d="M85.5801 176.81L90.3601 209.16L90.3901 247.92H104.58L108.06 151.83V151.81" stroke="#1F1A54" stroke-width="0.74" stroke-linecap="round" stroke-linejoin="round"/>
<path d="M93.2101 168.13L85.5801 176.81L79.7401 205.58L58.4001 242.36L46.1201 234.34L63.7401 201.11L64.0501 150.65" stroke="#1F1A54" stroke-width="0.74" stroke-linecap="round" stroke-linejoin="round"/>
<mask id="mask0" mask-type="alpha" maskUnits="userSpaceOnUse" x="54" y="77" width="70" height="77">
<path d="M70.8598 111.29L57.2398 112.44C57.1899 112.442 57.1412 112.455 57.0976 112.48C57.0541 112.504 57.0171 112.538 56.9898 112.58C56.9564 112.614 56.931 112.655 56.9154 112.7C56.8998 112.745 56.8945 112.793 56.8998 112.84L54.9998 113C54.9998 113 53.9998 91.3102 57.9998 86.4302C61.1698 82.5902 76.4098 77.9102 76.4098 77.9102L78.9198 81.0002C79.9303 82.2355 81.2485 83.1828 82.7417 83.7464C84.2349 84.31 85.8502 84.47 87.425 84.2104C88.9997 83.9509 90.4782 83.2808 91.7115 82.2678C92.9448 81.2547 93.8893 79.9345 94.4498 78.4402L123.33 88.6702L120.51 106.8L115.37 105.55L115.21 103.95C115.192 103.681 115.121 103.418 114.999 103.177C114.877 102.936 114.708 102.722 114.502 102.548C114.295 102.375 114.056 102.244 113.798 102.166C113.54 102.087 113.268 102.061 113 102.09L105.08 102.87C104.814 102.894 104.556 102.971 104.321 103.097C104.086 103.222 103.878 103.393 103.71 103.6C103.535 103.807 103.404 104.048 103.325 104.308C103.245 104.567 103.22 104.84 103.25 105.11L103.96 112.31C102.06 114.69 99.5898 117.42 97.2998 117.88C96.1098 118.12 93.7498 118.39 91.0298 118.71C84.4398 119.49 75.5498 120.54 72.4198 122.14C72.2098 120.47 71.6498 115.24 71.2698 111.62C71.2677 111.57 71.255 111.522 71.2325 111.477C71.2101 111.433 71.1784 111.394 71.1395 111.362C71.1007 111.331 71.0557 111.308 71.0075 111.296C70.9592 111.284 70.9089 111.282 70.8598 111.29Z" fill="#FFD400"/>
<path d="M108.06 151.83C94.0601 156.29 64.0601 150.65 64.0601 150.65V135.76C64.8486 136.65 65.9459 137.208 67.1301 137.32C67.4001 137.32 67.6801 137.32 67.9601 137.32C74.2301 137.32 83.9601 133.49 91.1601 130.67C93.7047 129.586 96.3089 128.648 98.9601 127.86C98.9601 127.86 102.2 127.03 105.35 126.44L105.45 127.44C105.501 127.939 105.732 128.402 106.101 128.743C106.469 129.083 106.949 129.278 107.45 129.29H107.65L108.88 129.17L109.67 151.17C109.17 151.44 108.63 151.64 108.06 151.83Z" fill="#FFD400"/>
</mask>
<g mask="url(#mask0)">
<path d="M35.9902 83.4404H125.44" stroke="#1F1A54" stroke-width="3.69" stroke-linejoin="round"/>
<path d="M35.9902 91.5903H125.44" stroke="#1F1A54" stroke-width="3.69" stroke-linejoin="round"/>
<path d="M35.9902 99.7505H125.44" stroke="#1F1A54" stroke-width="3.69" stroke-linejoin="round"/>
<path d="M35.9902 107.91H125.44" stroke="#1F1A54" stroke-width="3.69" stroke-linejoin="round"/>
<path d="M35.9902 116.07H125.44" stroke="#1F1A54" stroke-width="3.69" stroke-linejoin="round"/>
<path d="M35.9902 124.22H125.44" stroke="#1F1A54" stroke-width="3.69" stroke-linejoin="round"/>
<path d="M35.9902 132.38H125.44" stroke="#1F1A54" stroke-width="3.69" stroke-linejoin="round"/>
<path d="M35.9902 140.54H125.44" stroke="#1F1A54" stroke-width="3.69" stroke-linejoin="round"/>
<path d="M35.9902 148.7H125.44" stroke="#1F1A54" stroke-width="3.69" stroke-linejoin="round"/>
</g>
<path d="M87 54.4798C87.4934 54.1738 88.0649 54.0176 88.6454 54.03C89.2258 54.0424 89.7902 54.223 90.27 54.5498" stroke="#1F1A54" stroke-width="0.74" stroke-linecap="round" stroke-linejoin="round"/>
<path d="M94 54.4798C94.4716 54.1677 95.0244 54.0008 95.59 53.9998C96.1909 53.991 96.7791 54.1731 97.27 54.5198" stroke="#1F1A54" stroke-width="0.74" stroke-linecap="round" stroke-linejoin="round"/>
<path d="M90.86 171.55L86.11 176.7L85.3 181.36" stroke="#FFD400" stroke-width="0.46" stroke-linecap="round" stroke-linejoin="round"/>
</g>
<defs>
<clipPath id="clip0">
<rect width="375" height="300" fill="white"/>
</clipPath>
</defs>
</svg>
