<svg width="375" height="300" viewBox="0 0 375 300" fill="none" xmlns="http://www.w3.org/2000/svg">
<g clip-path="url(#clip0)">
<path d="M0 184.8C0.1 184.8 0.2 184.8 0.3 184.7C0.4 184.7 0.5 184.6 0.6 184.5C0.8 184.3 0.9 184.1 0.9 183.8C0.9 183.6 0.8 183.3 0.6 183.1C0.5 183.1 0.2 183 0 183V184.8Z" fill="white"/>
<path d="M5.50002 181.3C5.20002 181.3 4.90002 181.1 4.70002 180.9C4.60002 180.7 4.50002 180.4 4.60002 180.2C4.70002 180 4.80002 179.7 5.00002 179.6C7.00002 178.4 8.80002 177.3 10.6 176.2C11 176 11.6 176.1 11.8 176.5C11.9 176.7 12 177 11.9 177.2C11.8 177.4 11.7 177.6 11.5 177.8C9.70002 178.8 7.90002 180 6.00002 181.1C5.80002 181.2 5.70002 181.3 5.50002 181.3Z" fill="white"/>
<path d="M54.4 203.8C53.7 203.8 53 203.7 52.4 203.6C52.4 203.6 52.4 203.6 52.3 203.6C51.9 203.5 51.6 203.1 51.6 202.7C51.6 202.6 51.6 202.5 51.6 202.5C51.7 202.1 52.1 201.8 52.6 201.8H52.8C54.5 202.2 56.5 201.9 58.3 200.8C58.7 200.6 59.3 200.7 59.6 201.1C59.7 201.3 59.7 201.4 59.7 201.6C59.7 201.9 59.5 202.2 59.2 202.4C57.7 203.3 56 203.8 54.4 203.8ZM47.9 199.3C47.5 199.3 47.2 199.1 47.1 198.8C46.5 197.5 46.2 196.1 46.2 194.7C46.2 193.7 46.3 192.8 46.6 191.8C46.7 191.3 47.2 191 47.7 191.2C48.1 191.3 48.4 191.7 48.4 192.1C48.4 192.2 48.4 192.3 48.4 192.3C48.2 193.1 48.1 193.9 48.1 194.7C48.1 195.9 48.3 196.9 48.9 198C49 198.1 49 198.3 49 198.4C49 198.7 48.8 199.1 48.5 199.2C48.1 199.3 48 199.3 47.9 199.3ZM63.4 197.9C63.2 197.9 63.1 197.9 62.9 197.8C62.6 197.6 62.4 197.3 62.4 197C62.4 196.8 62.4 196.7 62.5 196.5C62.8 196.1 63 195.6 63.2 195.1C63.7 193.9 64.1 192.4 64.3 190.7V190.6C64.3 190.1 64.8 189.7 65.3 189.8C65.8 189.8 66.1 190.2 66.1 190.7V190.8C65.9 192.7 65.5 194.4 64.9 195.8C64.7 196.3 64.4 196.9 64.1 197.4C64 197.8 63.7 197.9 63.4 197.9ZM205.6 192.8C203.4 192.8 201.2 192.8 199.1 192.7C198.6 192.7 198.2 192.3 198.2 191.8C198.2 191.3 198.6 190.9 199.1 190.9C201.2 191 203.4 191 205.6 191C206.1 191 206.5 191.4 206.5 191.9C206.5 192.4 206.1 192.8 205.6 192.8ZM212.2 192.7C211.7 192.7 211.3 192.3 211.3 191.8C211.3 191.3 211.7 190.9 212.2 190.9C214.3 190.8 216.5 190.8 218.7 190.6C219.2 190.6 219.7 191 219.7 191.5C219.7 192 219.3 192.4 218.8 192.4C216.6 192.5 214.4 192.6 212.2 192.7ZM192.6 192.4C190.4 192.3 188.2 192.1 186 191.9C185.5 191.9 185.2 191.5 185.2 191V190.9C185.2 190.4 185.7 190 186.2 190.1C188.3 190.3 190.5 190.5 192.7 190.6C193.2 190.6 193.6 191 193.6 191.5C193.5 192 193.1 192.4 192.6 192.4ZM225.2 191.9C224.7 191.9 224.3 191.5 224.3 191.1V191C224.3 190.5 224.7 190.1 225.2 190.1C227.3 189.9 229.5 189.7 231.7 189.5C232.2 189.4 232.7 189.8 232.7 190.3V190.4C232.7 190.9 232.3 191.3 231.9 191.3C229.6 191.5 227.4 191.7 225.2 191.9C225.3 191.9 225.2 191.9 225.2 191.9ZM179.6 191.1H179.5C178.8 191 178.2 190.9 177.6 190.8C176.1 190.6 174.6 190.3 173 190C172.6 189.9 172.2 189.5 172.2 189.1C172.2 189 172.2 189 172.2 188.9C172.3 188.4 172.8 188.1 173.3 188.1C174.8 188.4 176.4 188.6 177.8 188.9C178.4 189 179.1 189.1 179.7 189.2C180.2 189.3 180.5 189.6 180.5 190.1V190.2C180.5 190.7 180.1 191.1 179.6 191.1ZM238.2 190.5C237.7 190.5 237.3 190.2 237.3 189.7V189.6C237.3 189.1 237.6 188.8 238.1 188.7C240.2 188.4 242.4 188.1 244.5 187.7C245 187.6 245.5 188 245.6 188.5V188.6C245.6 189 245.3 189.4 244.8 189.5C242.7 189.8 240.5 190.2 238.3 190.5C238.2 190.5 238.2 190.5 238.2 190.5ZM166.8 188.8C166.7 188.8 166.7 188.8 166.6 188.8C164.5 188.3 162.4 187.8 160.3 187.3H160.2C159.8 187.2 159.5 186.8 159.5 186.4C159.5 186.3 159.5 186.2 159.5 186.2C159.6 185.7 160.1 185.4 160.6 185.5C162.8 186.1 164.9 186.5 166.9 187C167.3 187.1 167.6 187.5 167.6 187.9C167.6 188 167.6 188 167.6 188.1C167.6 188.5 167.2 188.8 166.8 188.8ZM251 188.3C250.6 188.3 250.2 188 250.1 187.6C250.1 187.5 250.1 187.5 250.1 187.4C250.1 187 250.4 186.6 250.9 186.5C253.1 186.1 255.2 185.6 257.2 185.2C257.3 185.2 257.3 185.2 257.4 185.2C257.8 185.2 258.2 185.5 258.3 185.9C258.3 186 258.3 186 258.3 186.1C258.3 186.5 258 186.9 257.6 187C255.5 187.5 253.3 187.9 251.2 188.3C251.1 188.3 251.1 188.3 251 188.3ZM50.4 187.3C50.2 187.3 50 187.2 49.8 187.1C49.6 186.9 49.4 186.6 49.4 186.4C49.4 186.2 49.5 186 49.6 185.9C50.8 184.3 52.4 182.7 54.1 181.1L54.2 181C54.6 180.7 55.1 180.8 55.4 181.1C55.5 181.3 55.6 181.5 55.6 181.7C55.6 181.9 55.5 182.2 55.3 182.4C53.6 183.9 52.2 185.5 51 187C51 187.1 50.7 187.3 50.4 187.3ZM154.1 185.7C154 185.7 154 185.7 153.9 185.7H153.8C151.9 185.2 149.8 184.6 147.6 184C147.2 183.9 146.9 183.5 146.9 183.1C146.9 183 146.9 182.9 146.9 182.8C147 182.3 147.6 182 148 182.2C150.4 182.9 152.4 183.4 154.2 183.9C154.6 184 154.9 184.4 154.9 184.8C154.9 184.9 154.9 185 154.9 185C154.9 185.4 154.6 185.7 154.1 185.7ZM263.8 185.5C263.4 185.5 263 185.2 262.9 184.8C262.9 184.7 262.9 184.7 262.9 184.6C262.9 184.2 263.2 183.8 263.6 183.7C265.7 183.2 267.8 182.6 269.9 182C270.4 181.9 270.9 182.2 271 182.6C271 182.7 271 182.8 271 182.8C271 183.2 270.7 183.6 270.3 183.7C268.2 184.3 266.1 184.8 264 185.4C263.9 185.5 263.9 185.5 263.8 185.5ZM65 185.3C64.5 185.3 64.2 185 64.1 184.5C63.7 182.4 63.1 180.3 62.4 178.8C62.3 178.7 62.3 178.6 62.3 178.6C62.2 178.5 62.2 178.3 62.2 178.2C62.2 177.9 62.4 177.6 62.7 177.4C63.1 177.2 63.7 177.4 63.9 177.8C63.9 177.9 64 178 64 178.1C64.8 179.8 65.5 182 65.9 184.3C65.9 184.4 65.9 184.4 65.9 184.4C65.9 184.9 65.6 185.2 65.1 185.3H65ZM141.6 182.1C141.5 182.1 141.4 182.1 141.4 182.1C140.1 181.7 138.7 181.3 137.4 180.9C136.7 180.7 135.9 180.5 135.2 180.2L134.9 180.1H135C134.7 179.9 134.6 179.6 134.6 179.3C134.6 179.2 134.6 179.1 134.6 179C134.7 178.5 135.3 178.2 135.7 178.4C137.7 179 139.6 179.5 141.5 180.1L141.8 180.2L142.2 180.3H142.1C142.4 180.5 142.5 180.8 142.5 181.1C142.5 181.2 142.5 181.3 142.5 181.4C142.4 181.8 142 182.1 141.6 182.1ZM276.4 182.1C276 182.1 275.6 181.8 275.5 181.5C275.5 181.4 275.5 181.3 275.5 181.2C275.5 180.8 275.8 180.4 276.2 180.3C278.2 179.7 280.3 179 282.3 178.3C282.8 178.1 283.3 178.4 283.5 178.9C283.5 179 283.5 179.1 283.5 179.2C283.5 179.6 283.3 179.9 282.9 180.1C280.9 180.8 278.8 181.5 276.7 182.1C276.5 182 276.4 182.1 276.4 182.1ZM60 178.5C59.7 178.5 59.4 178.3 59.2 178.1C59.1 177.9 59 177.8 59 177.6C59 177.3 59.1 177 59.4 176.8C61.2 175.6 63.2 174.4 65.1 173.4C65.5 173.2 66.1 173.4 66.3 173.8C66.4 173.9 66.4 174.1 66.4 174.2C66.4 174.5 66.2 174.9 65.9 175C64 176 62.1 177.1 60.4 178.3C60.4 178.5 60.2 178.5 60 178.5ZM129.1 178.4C129 178.4 128.9 178.4 128.9 178.4C126.5 177.7 124.5 177.2 122.7 176.6C122.3 176.5 122 176.1 122 175.7C122 175.6 122 175.6 122 175.5C122.1 175 122.6 174.7 123.1 174.9C125.1 175.4 127.1 176 129.4 176.7C129.8 176.8 130.1 177.2 130.1 177.6C130.1 177.7 130.1 177.8 130.1 177.9C129.9 178.1 129.5 178.4 129.1 178.4ZM288.7 177.8C288.3 177.8 288 177.6 287.8 177.2C287.8 177.1 287.7 177 287.7 176.9C287.7 176.5 287.9 176.2 288.3 176C290.4 175.2 292.4 174.4 294.3 173.6C294.8 173.4 295.3 173.6 295.5 174.1C295.5 174.2 295.6 174.3 295.6 174.5C295.6 174.9 295.4 175.2 295 175.3C293 176.2 291 177 288.9 177.8C288.9 177.8 288.8 177.8 288.7 177.8ZM116.5 175C116.4 175 116.3 175 116.3 175C113.8 174.3 111.8 173.9 110 173.4C109.6 173.3 109.3 172.9 109.3 172.5C109.3 172.4 109.3 172.4 109.3 172.3C109.4 171.8 109.9 171.5 110.4 171.6C112.3 172.1 114.4 172.6 116.7 173.2C116.7 173.2 116.7 173.2 116.8 173.2C117.2 173.3 117.5 173.7 117.5 174.1C117.5 174.2 117.5 174.3 117.5 174.3C117.3 174.7 116.9 175 116.5 175ZM16.8 174.7C16.5 174.7 16.1 174.5 16 174.2C15.9 174.1 15.9 173.9 15.9 173.8C15.9 173.5 16.1 173.2 16.4 173C18.5 171.9 20.4 170.9 22.3 170C22.8 169.8 23.3 170 23.5 170.4C23.6 170.5 23.6 170.6 23.6 170.8C23.6 171.1 23.4 171.5 23.1 171.6C21.3 172.5 19.3 173.4 17.3 174.5C17.1 174.7 16.9 174.7 16.8 174.7ZM59.2 173.9C59 173.9 58.8 173.8 58.6 173.7L58.5 173.6C57.1 172.2 55.4 171 53.5 170C53.2 169.8 53 169.5 53 169.2C53 169 53 168.9 53.1 168.8C53.3 168.4 53.9 168.2 54.3 168.4C56.4 169.5 58.2 170.8 59.8 172.3C60 172.5 60.1 172.7 60.1 173C60.1 173.2 60 173.5 59.8 173.6C59.6 173.8 59.4 173.9 59.2 173.9ZM300.7 172.6C300.3 172.6 300 172.4 299.9 172.1C299.8 172 299.8 171.8 299.8 171.7C299.8 171.4 300 171 300.3 170.9C302.3 169.9 304.2 168.9 306 167.9C306.4 167.7 307 167.8 307.3 168.2C307.4 168.3 307.4 168.5 307.4 168.6C307.4 168.9 307.2 169.2 306.9 169.4C305.1 170.4 303.1 171.5 301.1 172.5C300.9 172.6 300.8 172.6 300.7 172.6ZM71.6 172.6C71.2 172.6 70.9 172.4 70.7 172C70.7 171.9 70.7 171.8 70.7 171.7C70.7 171.3 70.9 171 71.3 170.8C72.7 170.3 74 169.9 75.2 169.6C76 169.4 76.9 169.2 77.7 169.1C78.2 169 78.7 169.4 78.8 169.9V170C78.8 170.5 78.5 170.9 78 170.9C77.2 171 76.4 171.2 75.6 171.4C74.4 171.7 73.1 172 71.9 172.5H71.8C71.8 172.6 71.7 172.6 71.6 172.6ZM103.8 172C103.7 172 103.7 172 103.6 172C101.3 171.5 99.2 171.2 97.2 170.9C96.7 170.8 96.4 170.4 96.4 170V169.9C96.5 169.4 96.9 169.1 97.4 169.1C99.4 169.4 101.6 169.7 103.9 170.2C104.3 170.3 104.6 170.7 104.6 171.1C104.6 171.2 104.6 171.2 104.6 171.3C104.6 171.7 104.2 172 103.8 172ZM334 171.7C332.6 171.7 331.2 171.7 329.9 171.6C329.4 171.6 329 171.2 329 170.7C329 170.2 329.4 169.8 330 169.8C332.1 169.9 334.4 169.9 336.4 169.9C336.9 169.9 337.3 170.3 337.3 170.8C337.3 171.3 336.9 171.7 336.4 171.7C335.6 171.7 334.8 171.7 334 171.7ZM343 171.3C342.5 171.3 342.1 170.9 342.1 170.5V170.4C342.1 169.9 342.5 169.5 342.9 169.5C345 169.3 347.2 169.1 349.3 168.8C349.8 168.7 350.3 169.1 350.3 169.6C350.3 169.7 350.3 169.7 350.3 169.7C350.3 170.2 350 170.5 349.5 170.6C347.3 170.9 345.1 171.1 343 171.3ZM323.5 171C323.4 171 323.4 171 323.5 171H323.3C323.3 171 323.3 171 323.2 171C320.9 170.6 318.7 170.1 316.8 169.5C316.4 169.4 316.2 169 316.2 168.6C316.2 168.5 316.2 168.4 316.2 168.3C316.4 167.8 316.9 167.5 317.4 167.7C319.3 168.3 321.3 168.8 323.6 169.1C323.6 169.1 323.6 169.1 323.7 169.1H323.8C324.2 169.2 324.5 169.6 324.5 170V170.1C324.3 170.6 323.9 171 323.5 171ZM90.9 170.3C88.7 170.2 86.6 170.2 84.4 170.3C83.9 170.3 83.5 169.9 83.4 169.4C83.4 168.9 83.8 168.5 84.3 168.5C86.5 168.4 88.7 168.4 90.9 168.5V168.6C91.4 168.6 91.8 169 91.8 169.5C91.8 169.9 91.4 170.3 90.9 170.3ZM355.9 169.5C355.4 169.5 355.1 169.2 355 168.7C355 168.6 355 168.6 355 168.5C355 168.1 355.3 167.7 355.8 167.6C358 167.2 360.1 166.8 362.2 166.3C362.7 166.2 363.2 166.5 363.3 167C363.3 167.1 363.3 167.1 363.3 167.2C363.3 167.6 363 168 362.6 168.1C360.5 168.6 358.3 169 356.2 169.4C356 169.5 355.9 169.5 355.9 169.5ZM28.6 169.2C28.2 169.2 27.9 169 27.7 168.6C27.7 168.5 27.7 168.4 27.7 168.3C27.7 167.9 27.9 167.6 28.3 167.4C30.6 166.5 32.8 165.9 34.7 165.5C35.2 165.4 35.7 165.7 35.8 166.2C35.8 166.3 35.8 166.3 35.8 166.4C35.8 166.8 35.5 167.2 35.1 167.3C33.3 167.6 31.2 168.3 29 169.1C28.8 169.2 28.7 169.2 28.6 169.2ZM47.8 167.8C47.7 167.8 47.7 167.8 47.6 167.8C45.6 167.3 43.5 167 41.4 166.9C40.9 166.9 40.5 166.5 40.5 166C40.5 165.5 40.9 165.1 41.4 165.1C43.6 165.2 45.9 165.5 48 166C48.4 166.1 48.7 166.5 48.7 166.9C48.7 167 48.7 167.1 48.7 167.1C48.6 167.5 48.2 167.8 47.8 167.8ZM311.1 166.9C310.9 166.9 310.8 166.9 310.6 166.8C308.5 165.6 306.8 164.2 305.3 162.6C305.2 162.4 305.1 162.2 305.1 162C305.1 161.7 305.2 161.5 305.4 161.3C305.8 161 306.4 161 306.7 161.4C307.9 162.7 309.4 163.9 311.1 165C311.2 164.8 311.3 164.7 311.4 164.6C313.3 163.3 315 162 316.5 160.7C316.9 160.4 317.5 160.4 317.8 160.8C318 161 318 161.2 318 161.4C318 161.7 317.9 161.9 317.7 162.1C316.2 163.4 314.4 164.8 312.4 166.1C312.3 166.2 312.1 166.3 311.9 166.3C311.9 166.4 311.8 166.5 311.8 166.6C311.8 166.7 311.5 166.9 311.1 166.9ZM375 165.2C374 165.4 372.9 165.7 371.9 166C370.8 166.3 369.8 166.5 368.8 166.8H368.7C368.7 166.8 368.6 166.8 368.5 166.8C368.1 166.8 367.7 166.5 367.6 166.1C367.6 166 367.6 166 367.6 165.9C367.6 165.5 367.9 165.1 368.3 165C368.3 165 368.3 165 368.4 165C369.4 164.8 370.3 164.5 371.4 164.2C372.5 163.9 373.6 163.6 374.7 163.4C374.8 163.4 374.9 163.4 375 163.4V165.2ZM321.6 157.5C321.4 157.5 321.2 157.4 321.1 157.3C320.9 157.1 320.7 156.9 320.7 156.6C320.7 156.4 320.8 156.2 320.9 156C322.3 154.1 323.1 152.3 323.3 150.6C323.4 150.1 323.8 149.7 324.3 149.8C324.8 149.8 325.1 150.3 325.1 150.7V150.8C324.8 152.8 323.9 154.9 322.4 157.1C322.2 157.3 321.9 157.5 321.6 157.5ZM303 157.2C302.6 157.2 302.2 156.9 302.1 156.5C302.1 156.5 302.1 156.5 302.1 156.4C301.8 155.2 301.7 153.9 301.7 152.6C301.7 151.6 301.8 150.6 302 149.6C302.1 149.1 302.6 148.8 303.1 148.9C303.5 149 303.9 149.4 303.9 149.8C303.9 149.9 303.9 149.9 303.9 150C303.7 150.9 303.7 151.8 303.7 152.7C303.7 153.9 303.8 155 304.1 156.1C304.1 156.2 304.1 156.3 304.1 156.3C304.1 156.7 303.8 157.1 303.4 157.2C303.2 157.2 303.1 157.2 303 157.2ZM322.6 145.4C322.3 145.4 322.1 145.3 321.9 145.1L321.8 145C320.7 143.3 319.2 142.2 317.3 141.6C317.3 141.6 317.3 141.6 317.2 141.6C316.8 141.5 316.6 141.1 316.6 140.7C316.6 140.6 316.6 140.5 316.6 140.4C316.7 139.9 317.3 139.6 317.8 139.8C320.1 140.5 322.1 142 323.4 144C323.5 144.2 323.6 144.3 323.6 144.5C323.6 144.8 323.4 145.1 323.2 145.3C323 145.4 322.8 145.4 322.6 145.4ZM305.5 144.9C305.3 144.9 305 144.8 304.9 144.7C304.7 144.5 304.6 144.3 304.6 144C304.6 143.8 304.7 143.5 304.8 143.4C305.3 142.9 305.8 142.4 306.3 142.1C307.7 141.1 309.2 140.4 310.8 139.9C311.3 139.8 311.8 140.1 311.9 140.5C311.9 140.6 311.9 140.7 311.9 140.8C311.9 141.2 311.6 141.5 311.3 141.6C309.9 142 308.6 142.6 307.4 143.5C307 143.8 306.6 144.2 306.2 144.6C306 144.8 305.8 144.9 305.5 144.9Z" fill="white"/>
<path d="M109.1 269.4C144.888 269.4 173.9 268.012 173.9 266.3C173.9 264.588 144.888 263.2 109.1 263.2C73.312 263.2 44.3 264.588 44.3 266.3C44.3 268.012 73.312 269.4 109.1 269.4Z" fill="#FFEB86"/>
<path d="M263.8 267.9C299.588 267.9 328.6 266.512 328.6 264.8C328.6 263.088 299.588 261.7 263.8 261.7C228.012 261.7 199 263.088 199 264.8C199 266.512 228.012 267.9 263.8 267.9Z" fill="#FFEB86"/>
<path d="M222.5 128.8L196.6 120.7V76.8999L222.5 84.9999V128.8Z" fill="white"/>
<path d="M222.5 129.2H222.4L196.5 121.1C196.3 121.1 196.2 120.9 196.2 120.7V76.9C196.2 76.8 196.3 76.7 196.4 76.6C196.5 76.5 196.6 76.5 196.7 76.5L222.6 84.6C222.8 84.6 222.9 84.8 222.9 85V128.8C222.9 128.9 222.8 129 222.7 129.1C222.7 129.2 222.6 129.2 222.5 129.2ZM197 120.4L222.1 128.3V85.3L197 77.4V120.4Z" fill="#1F1A54"/>
<path d="M248.4 120.7L222.5 128.8V84.9999L248.4 76.8999V120.7Z" fill="white"/>
<path d="M222.5 129.2C222.4 129.2 222.3 129.2 222.3 129.1C222.2 129 222.1 128.9 222.1 128.8V85C222.1 84.8 222.2 84.7 222.4 84.6L248.3 76.5C248.4 76.5 248.5 76.5 248.6 76.6C248.7 76.7 248.8 76.8 248.8 76.9V120.7C248.8 120.9 248.7 121 248.5 121.1L222.6 129.2H222.5ZM222.9 85.3V128.4L248 120.5V77.4L222.9 85.3Z" fill="#1F1A54"/>
<path d="M274.3 128.8L248.4 120.7V76.8999L274.3 84.9999V128.8Z" fill="white"/>
<path d="M274.3 129.2H274.2L248.3 121.1C248.1 121.1 248 120.9 248 120.7V76.9C248 76.8 248.1 76.7 248.2 76.6C248.3 76.5 248.4 76.5 248.5 76.5L274.4 84.6C274.6 84.6 274.7 84.8 274.7 85V128.8C274.7 128.9 274.6 129 274.5 129.1C274.4 129.2 274.3 129.2 274.3 129.2ZM248.7 120.4L273.8 128.3V85.3L248.7 77.4V120.4Z" fill="#1F1A54"/>
<path d="M84.8999 251.2L71.0999 247.5C70.8999 247.4 70.7999 247.2 70.7999 247.1C70.9999 246.5 85.8999 187.9 89.1999 168.3C92.1999 150.5 96.3999 135.2 96.4999 135C96.5999 134.8 96.7999 134.7 96.9999 134.7C97.1999 134.8 97.2999 135 97.2999 135.2C97.2999 135.4 92.9999 150.7 89.9999 168.4C86.7999 187.3 72.8999 242 71.6999 246.9L84.6999 250.4L97.4999 209.6L108.6 182.9C108.7 182.7 108.9 182.6 109.1 182.7C109.3 182.8 109.4 183 109.3 183.2L98.1999 209.9L85.2999 251C85.1999 251.1 85.0999 251.2 84.8999 251.2Z" fill="#1F1A54"/>
<path d="M147.2 242.2C147.1 242.2 147 242.1 146.9 242.1L117.9 207.6C117.9 207.6 117.9 207.5 117.8 207.5L105.4 173.7L98.5999 160.2C98.4999 160 98.5999 159.8 98.7999 159.7C98.9999 159.6 99.1999 159.7 99.2999 159.9L106.1 173.4L118.5 207.2L147.2 241.4L157.4 231.9L133 200.4C133 200.4 132.9 200.3 132.9 200.2C132.7 199.1 129.1 174.4 130.3 167.9C132.4 157 131 142.3 123.4 134.1C123.3 134 123.3 133.7 123.4 133.6C123.5 133.5 123.8 133.5 123.9 133.6C129.1 139.2 134.1 151.6 131 168.1C129.8 174.2 133.3 198.3 133.6 200L158.3 231.6C158.4 231.8 158.4 232 158.3 232.1L147.5 242C147.4 242.1 147.3 242.2 147.2 242.2Z" fill="#1F1A54"/>
<path d="M167.4 154.1L157.1 160.5C156 159.5 154.8 157.4 154.4 156.4C153.5 154.3 153.9 157.4 153.6 159.9C153.4 162.3 151.9 163 151.2 162.8C150.5 162.6 150.9 160.4 150.8 158.5C150.6 153.9 151.2 146.3 149.9 142.6C147 134.3 142.1 128 139.4 121.7C138.1 119.3 136.6 117.2 135.2 115.5C131.9 111.4 129.1 109.3 129.1 109.3L137.3 100.1L144.4 108.8L146.2 111C152.3 117.5 155.7 133.2 158.1 138C158.1 138 161.4 145 163.5 147.8C163.5 147.7 166.8 151.3 167.4 154.1Z" fill="white"/>
<path d="M121.8 82.3001C120.4 81.1001 119 80.2001 117.6 79.6001V69.8001C121.3 69.3001 124.1 67.4001 124.8 63.9001C125.6 59.7001 122.6 56.7001 119.9 57.8001C118 58.6001 117.1 60.2001 116.6 61.0001C116.4 60.8001 113.9 58.2001 109.4 55.6001C105.4 53.3001 103.3 49.1001 103.3 49.1001C103.3 49.1001 99.5999 53.5001 97.1999 54.3001C96.9999 57.9001 96.6999 62.5001 97.0999 66.2001C97.4999 70.7001 99.0999 73.7001 101.3 75.4001C102.1 76.0001 102.8 76.4001 103.6 76.7001V80.6001C103.2 80.8001 102.7 81.1001 102.3 81.3001C100.6 82.3001 98.8999 84.7001 97.3999 87.6001C90.9999 78.9001 89.5999 54.0001 95.3999 48.4001C102.6 41.4001 116.1 38.3001 120.6 46.0001C120.6 46.0001 124.2 47.0001 125.4 50.7001C126.3 53.7001 131.4 69.8001 139.6 82.3001C146.1 92.2001 156.2 99.0001 156.2 101.1C156.2 107.1 141.4 94.2001 144.6 108.7L137.5 100L121.8 82.3001Z" fill="#1F1A54"/>
<path d="M117.5 79.6003C119 80.2003 120.4 81.1003 121.7 82.3003L137.3 100.1L129.1 109.3L125.3 106.5C125.1 108.4 124.9 110.3 124.7 112.1C124.7 112.3 124.7 112.4 124.6 112.6C123.5 122.4 123.5 127.1 123.5 133.9C123.5 133.9 120.6 136 109.3 136.9C100.4 137.6 96.7 135 96.7 135C96.9 133.9 95.1 122.1 95 121.7C100.5 116 105 109 105 109L90.5 104.1C90.5 104.1 93.6 94.6003 97.3 87.7003C98.9 84.8003 100.6 82.4003 102.2 81.4003C102.6 81.2003 103 80.9003 103.5 80.7003C104.9 80.0003 106.4 79.4003 108 79.0003C111.1 78.2003 114.4 78.3003 117.5 79.6003Z" fill="#FFD400"/>
<path d="M135.3 115.5C127.6 115.9 124.8 112.6 124.8 112.6C124.8 112.4 124.8 112.3 124.9 112.1C125.1 110.2 125.3 108.3 125.5 106.5L129.3 109.3C129.2 109.3 132 111.5 135.3 115.5Z" fill="#1F1A54"/>
<path d="M117.5 69.8001V79.6001C114.3 78.3001 111 78.2001 107.9 78.9001C106.3 79.3001 104.8 79.9001 103.4 80.6001V76.7001C102.7 76.4001 101.9 76.0001 101.1 75.4001C98.8999 73.7001 97.2999 70.7001 96.8999 66.2001C96.5999 62.5001 96.7999 57.8001 96.9999 54.3001C99.3999 53.5001 103.1 49.1001 103.1 49.1001C103.1 49.1001 105.2 53.3001 109.2 55.6001C113.8 58.2001 116.3 60.8001 116.4 61.0001C116.8 60.1001 117.8 58.5001 119.7 57.8001C122.4 56.7001 125.4 59.7001 124.6 63.9001C124 67.4001 121.2 69.3001 117.5 69.8001ZM108.6 61.3001C108.6 60.7001 108.2 60.3001 107.8 60.3001C107.3 60.3001 107 60.8001 107 61.3001C107 61.9001 107.4 62.3001 107.8 62.3001C108.3 62.3001 108.6 61.9001 108.6 61.3001ZM101.3 61.4001C101.3 60.8001 100.9 60.4001 100.5 60.4001C100.1 60.4001 99.6999 60.9001 99.6999 61.4001C99.6999 62.0001 100.1 62.4001 100.5 62.4001C101 62.5001 101.3 62.0001 101.3 61.4001Z" fill="white"/>
<path d="M107.8 60.3003C108.2 60.3003 108.6 60.8003 108.6 61.3003C108.6 61.9003 108.2 62.3003 107.8 62.3003C107.3 62.3003 107 61.8003 107 61.3003C107 60.8003 107.4 60.3003 107.8 60.3003Z" fill="#1F1A54"/>
<path d="M39.9 95.5999C39.5 95.1999 39.3 94.5999 39.5 93.7999C39.7 92.9999 40.2 92.4999 40.2 92.4999C40 92.1999 39.9 91.6999 40.1 91.0999C40.4 90.2999 41.6 89.9999 41.6 89.9999C41.3 89.5999 41.1 89.1999 41.2 88.5999C41.4 87.8999 42.2 87.1999 43.9 87.3999C45.4 87.4999 48.5 88.5999 49.4 89.1999C52.1 90.6999 50.9 80.9999 53.6 81.0999C55.4 81.0999 54.5 88.2999 57.2 92.9999C58.4 95.0999 60 96.2999 61.3 97.4999C65.4 101.4 81.8 111.7 84.7 114.9C84.6 115.5 90.5 104.2 90.5 104.2L105 109C105 109 100.5 116 95.3 121.7C91.4 125.9 87.2 129.5 84.1 129C75.3 127.5 58.5 106 53.7 103.6C53.7 103.6 50.8 102.5 47.5 101.6C47.5 101.6 38.8 99.9999 39.6 96.3999C39.7 95.5999 39.9 95.5999 39.9 95.5999Z" fill="white"/>
<path d="M100.5 60.3999C101 60.3999 101.3 60.8999 101.3 61.3999C101.3 61.9999 100.9 62.3999 100.5 62.3999C100.1 62.3999 99.7 61.8999 99.7 61.3999C99.7 60.8999 100.1 60.3999 100.5 60.3999Z" fill="#1F1A54"/>
<path d="M41.9999 93.9002C41.8999 93.9002 40.4999 93.7002 39.8999 92.8002C39.6999 92.5002 39.3999 91.9002 39.6999 91.0002C39.9999 90.0002 41.3999 89.7002 41.3999 89.7002C41.5999 89.7002 41.7999 89.8002 41.7999 90.0002C41.7999 90.2002 41.6999 90.4002 41.4999 90.4002C41.1999 90.5002 40.4999 90.8002 40.2999 91.3002C40.1999 91.8002 40.1999 92.1002 40.3999 92.4002C40.8999 93.1002 41.9999 93.2002 41.9999 93.2002C42.1999 93.2002 42.2999 93.4002 42.2999 93.6002C42.2999 93.8002 42.1999 93.9002 41.9999 93.9002Z" fill="#1F1A54"/>
<path d="M84.6999 129.4C84.4999 129.4 84.1999 129.4 83.9999 129.3C78.2999 128.4 69.5999 119.5 62.5999 112.3C58.5999 108.3 55.1999 104.8 53.4999 103.9C53.4999 103.9 50.5999 102.8 47.2999 102C47.0999 102 41.1999 100.9 39.5999 98.3C39.1999 97.7 38.9999 97 39.1999 96.3C39.2999 95.7 39.4999 95.2 39.8999 95.2C40.0999 95.2 40.2999 95.4 40.2999 95.6C40.2999 95.7 40.1999 95.9 40.0999 95.9C40.0999 96 39.9999 96.1 39.8999 96.5C39.7999 97 39.8999 97.5 40.1999 97.9C41.6999 100.2 47.3999 101.2 47.4999 101.2C50.8999 102.1 53.7999 103.2 53.7999 103.2C55.6999 104.1 58.9999 107.5 63.1999 111.7C70.0999 118.8 78.7999 127.6 84.1999 128.5C86.6999 128.9 90.4999 126.4 95.0999 121.3C99.4999 116.4 103.5 110.6 104.5 109L90.6999 104.3C84.9999 115.1 84.9999 115.1 84.5999 114.9C84.4999 114.9 84.4999 114.8 84.3999 114.7C82.8999 113.1 77.8999 109.7 73.0999 106.3C68.1999 102.9 63.0999 99.3 60.9999 97.4C60.7999 97.2 60.4999 96.9 60.1999 96.7C59.0999 95.7 57.7999 94.5 56.8999 92.8C55.4999 90.3 54.9999 87.2 54.6999 84.7C54.3999 82.9 54.1999 81.1 53.5999 81.1C52.5999 81.1 52.1999 83.3 51.8999 85.2C51.5999 87.1 51.2999 88.8 50.3999 89.3C49.9999 89.5 49.5999 89.4 49.1999 89.2C48.2999 88.7 45.1999 87.6 43.7999 87.5C42.3999 87.4 41.5999 87.9 41.4999 88.5C41.3999 88.9 41.4999 89.3 41.7999 89.6C42.2999 90.2 43.0999 90.5 43.0999 90.5C43.2999 90.6 43.3999 90.8 43.2999 91C43.1999 91.2 42.9999 91.3 42.7999 91.2C42.7999 91.2 41.7999 90.8 41.1999 90.1C40.6999 89.6 40.5999 89 40.6999 88.4C40.8999 87.5 41.8999 86.7 43.7999 86.9C45.3999 87.1 48.5999 88.2 49.4999 88.7C49.7999 88.9 49.9999 88.8 49.9999 88.8C50.5999 88.5 50.8999 86.8 51.0999 85.3C51.4999 83 51.8999 80.5 53.4999 80.5C54.6999 80.5 54.8999 82.2 55.2999 84.8C55.5999 87.2 56.0999 90.3 57.4999 92.7C58.3999 94.3 59.5999 95.4 60.6999 96.4C60.9999 96.7 61.1999 96.9 61.4999 97.1C63.4999 99 68.5999 102.5 73.4999 105.9C78.2999 109.2 82.8999 112.4 84.5999 114.1C85.3999 112.7 88.2999 107.4 90.1999 103.8C90.2999 103.6 90.4999 103.6 90.6999 103.6L105.2 108.5C105.3 108.5 105.4 108.6 105.4 108.7C105.4 108.8 105.4 108.9 105.4 109C105.4 109.1 100.8 116.1 95.6999 121.8C90.9999 126.9 87.3999 129.4 84.6999 129.4Z" fill="#1F1A54"/>
<path d="M41.6 97.0001C41.5 97.0001 40.3 96.7001 39.6 95.8001C39.1 95.2001 38.9 94.5001 39.1 93.7001C39.3 92.8001 39.8 92.3001 39.9 92.3001C40 92.2001 40.3 92.2001 40.4 92.3001C40.5 92.4001 40.5 92.7001 40.4 92.8001C40.4 92.8001 40 93.2001 39.9 93.9001C39.8 94.5001 39.9 94.9001 40.2 95.3001C40.8 96.0001 41.7 96.2001 41.7 96.2001C41.9 96.2001 42 96.4001 42 96.6001C41.9 96.9001 41.8 97.0001 41.6 97.0001Z" fill="#1F1A54"/>
<path d="M105 109.4C104.9 109.4 104.8 109.4 104.8 109.3C104.6 109.2 104.6 108.9 104.7 108.8L109.2 102.6C109.3 102.4 109.6 102.4 109.7 102.5C109.9 102.6 109.9 102.9 109.8 103L105.3 109.2C105.2 109.3 105.1 109.4 105 109.4Z" fill="#1F1A54"/>
<path d="M106.4 137.4C99.6999 137.4 96.7999 135.4 96.6999 135.3C96.5999 135.2 96.4999 135.1 96.5999 134.9C96.6999 134.2 95.8999 127.8 94.8999 121.8V121.7C94.8999 121.5 95.0999 121.3 95.2999 121.3C95.4999 121.3 95.6999 121.5 95.6999 121.7C96.0999 124.4 97.3999 132.9 97.3999 134.8C98.1999 135.3 101.9 137.1 109.6 136.5C119.2 135.7 122.7 134.1 123.4 133.7V132.6C123.4 126.5 123.5 121.8 124.5 112.6L124.6 112.1C124.8 110.2 125 108.3 125.2 106.5C125.7 101.7 125.9 98.0002 125.9 94.9002C125.9 93.3002 125.8 92.2002 125.8 92.1002C125.8 91.9002 125.9 91.7002 126.1 91.7002C126.3 91.7002 126.5 91.8002 126.5 92.0002C126.5 92.0002 126.6 93.2002 126.6 94.8002C126.6 97.9002 126.4 101.6 125.9 106.5C125.7 108.4 125.5 110.3 125.3 112.1L125.2 112.6C124.2 121.7 124.1 126.5 124.1 132.5V133.8C124.1 133.9 124 134 123.9 134.1C123.8 134.2 120.8 136.2 109.5 137.2C108.4 137.3 107.4 137.4 106.4 137.4Z" fill="#1F1A54"/>
<path d="M151.4 163.3C151.3 163.3 151.2 163.3 151.1 163.3C150.3 163.1 150.4 162 150.4 160.5C150.4 159.9 150.5 159.3 150.4 158.7C150.3 157.3 150.4 155.7 150.4 154C150.4 150 150.5 145.5 149.6 142.9C147.9 138.1 145.6 134 143.3 130.1C141.7 127.3 140.2 124.7 139.1 122C137.9 119.9 136.5 117.8 135 115.9C134.9 115.7 134.9 115.5 135.1 115.4C135.3 115.3 135.5 115.3 135.6 115.5C137.2 117.5 138.6 119.6 139.8 121.8C140.9 124.5 142.4 127.1 144 129.8C146.3 133.8 148.6 137.9 150.3 142.8C151.2 145.5 151.2 150.1 151.1 154.1C151.1 155.8 151.1 157.4 151.1 158.8C151.1 159.4 151.1 160.1 151.1 160.7C151.1 161.4 151 162.6 151.2 162.8C151.4 162.8 151.7 162.8 152 162.6C152.4 162.3 153 161.7 153.1 160.2C153.2 159.5 153.2 158.7 153.2 158C153.2 156.4 153.2 155.8 153.7 155.7C154.1 155.6 154.3 156.1 154.6 156.6C155 157.6 156.1 159.3 157 160.3L166.8 154.2C166.1 151.6 163.1 148.3 163.1 148.2C161 145.4 157.8 138.6 157.6 138.3C156.9 136.8 156 134.2 155.1 131.3C152.9 124.8 150 115.8 145.9 111.4C145.8 111.3 145.8 111 145.9 110.9C146.1 110.8 146.3 110.8 146.4 110.9C150.6 115.5 153.6 124.5 155.8 131.1C156.8 134 157.6 136.5 158.3 138C158.3 138.1 161.6 145 163.7 147.7C163.8 147.8 167 151.4 167.6 154.2C167.6 154.4 167.6 154.5 167.4 154.6L157.1 161C157 161.1 156.8 161.1 156.7 161C155.7 160 154.5 158 153.9 156.9C153.9 157.2 153.9 157.5 153.9 157.9C153.9 158.6 153.9 159.4 153.8 160.2C153.7 162 152.9 162.8 152.4 163.1C152.2 163.2 151.8 163.3 151.4 163.3Z" fill="#1F1A54"/>
<path d="M135.3 115.9C135.2 115.9 135.1 115.9 135 115.8C131.8 111.8 129 109.7 129 109.6C128.8 109.5 128.8 109.2 128.9 109.1C129 108.9 129.3 108.9 129.4 109C129.5 109.1 132.3 111.2 135.6 115.3C135.7 115.5 135.7 115.7 135.5 115.8C135.5 115.9 135.4 115.9 135.3 115.9Z" fill="#1F1A54"/>
<path d="M146.3 111.3C146.2 111.3 146.1 111.3 146 111.2L137.1 100.4C137 100.2 137 100 137.2 99.9002C137.4 99.8002 137.6 99.8002 137.7 100L146.6 110.8C146.7 111 146.7 111.2 146.5 111.3C146.4 111.3 146.4 111.3 146.3 111.3Z" fill="#1F1A54"/>
<path d="M106 77.6998C105.2 77.6998 104.3 77.5998 103.3 77.1998C102.5 76.8998 101.7 76.3998 100.9 75.7998C98.3999 73.8998 96.8999 70.5998 96.4999 66.3998C96.1999 62.5998 96.3999 57.6998 96.5999 54.3998C96.5999 54.1998 96.7999 53.9998 96.9999 54.0998C97.1999 54.0998 97.3999 54.2998 97.2999 54.4998C97.0999 57.7998 96.7999 62.5998 97.1999 66.3998C97.5999 70.4998 98.9999 73.5998 101.3 75.2998C102 75.7998 102.7 76.2998 103.5 76.4998C105.1 77.0998 106.5 76.9998 107.4 76.7998C107.5 76.7998 107.5 76.7998 107.6 76.7998H107.8C109.3 76.4998 110.8 75.6998 111.9 74.5998C112 74.4998 112.3 74.4998 112.4 74.5998C112.5 74.6998 112.5 74.9998 112.4 75.0998C111.2 76.1998 109.6 77.0998 107.9 77.4998H107.8C107.7 77.4998 107.7 77.4998 107.6 77.4998C107.1 77.5998 106.6 77.6998 106 77.6998Z" fill="#1F1A54"/>
<path d="M106 58.7001C105.9 58.7001 105.8 58.6001 105.7 58.6001C105.6 58.4001 105.6 58.2001 105.8 58.1001C106.8 57.4001 108.5 57.3001 109.5 58.0001C109.7 58.1001 109.7 58.3001 109.6 58.5001C109.5 58.7001 109.3 58.7001 109.1 58.6001C108.3 58.1001 107 58.1001 106.3 58.7001C106.2 58.7001 106.1 58.7001 106 58.7001Z" fill="#1F1A54"/>
<path d="M99 58.7001C98.9 58.7001 98.8 58.6001 98.7 58.6001C98.6 58.4001 98.6 58.2001 98.8 58.1001C99.8 57.4001 101.4 57.3001 102.5 58.0001C102.7 58.1001 102.7 58.3001 102.6 58.5001C102.5 58.7001 102.3 58.7001 102.1 58.6001C101.3 58.1001 100 58.1001 99.2 58.7001C99.2 58.7001 99.1 58.7001 99 58.7001Z" fill="#1F1A54"/>
<path d="M106.9 71.2001C106.7 71.2001 106.6 71.1001 106.5 70.9001C106.5 70.7001 106.6 70.5001 106.8 70.5001C109.5 69.9001 110.1 67.5001 110.2 67.4001C110.2 67.2001 110.4 67.1001 110.6 67.1001C110.8 67.1001 110.9 67.3001 110.9 67.5001C110.9 67.6001 110.2 70.5001 106.9 71.2001C107 71.2001 106.9 71.2001 106.9 71.2001Z" fill="#1F1A54"/>
<path d="M104.1 66.7001C103.7 66.7001 103.3 66.6001 102.9 66.4001C102.7 66.3001 102.7 66.1001 102.8 65.9001C102.9 65.7001 103.1 65.7001 103.3 65.8001C104 66.3001 105.1 65.8001 105.1 65.8001C105.3 65.7001 105.5 65.8001 105.6 66.0001C105.7 66.2001 105.6 66.4001 105.4 66.5001C105.4 66.4001 104.8 66.7001 104.1 66.7001Z" fill="#1F1A54"/>
<path d="M118.6 65.6001C118.4 65.6001 118.2 65.4001 118.2 65.2001C118.6 61.5001 120.9 61.1001 121 61.1001C121.2 61.1001 121.4 61.2001 121.4 61.4001C121.4 61.6001 121.3 61.8001 121.1 61.8001C121 61.8001 119.2 62.2001 118.9 65.3001C118.9 65.5001 118.8 65.6001 118.6 65.6001Z" fill="#1F1A54"/>
<path d="M117.5 79.9999C117.3 79.9999 117.1 79.7999 117.1 79.5999V69.7999C117.1 69.5999 117.3 69.3999 117.5 69.3999C117.7 69.3999 117.9 69.5999 117.9 69.7999V79.5999C117.9 79.7999 117.7 79.9999 117.5 79.9999Z" fill="#1F1A54"/>
<path d="M103.4 81.0003C103.2 81.0003 103 80.8003 103 80.6003V76.7003C103 76.5003 103.2 76.3003 103.4 76.3003C103.6 76.3003 103.8 76.5003 103.8 76.7003V80.6003C103.8 80.9003 103.6 81.0003 103.4 81.0003Z" fill="#1F1A54"/>
<path d="M117.6 70.2002C117.4 70.2002 117.2 70.0002 117.2 69.8002C117.2 69.6002 117.3 69.4002 117.5 69.4002C120.2 69.0002 123.5 67.7002 124.3 63.8002C124.8 61.3002 123.8 59.5002 122.8 58.6002C121.9 57.9002 120.9 57.7002 119.9 58.1002C118.2 58.8002 117.2 60.3002 116.8 61.2002C116.6 61.6002 116.6 61.8002 116.6 61.8002C116.5 62.0002 116.3 62.1002 116.1 62.0002C115.9 61.9002 115.8 61.7002 115.9 61.5002C115.9 61.5002 116 61.2002 116.2 60.8002C116.7 59.9002 117.7 58.2002 119.7 57.4002C120.9 56.9002 122.2 57.1002 123.3 58.0002C124.9 59.3002 125.5 61.5002 125.1 63.9002C124.4 67.4002 121.7 69.6002 117.6 70.2002Z" fill="#1F1A54"/>
<path d="M144.5 109.2C144.3 109.2 144.2 109.1 144.1 108.9C143.3 105.4 143.5 103.2 144.7 102.1C146.2 100.7 148.8 101.4 151.2 102C152.9 102.4 154.6 102.9 155.3 102.3C155.6 102.1 155.7 101.7 155.7 101.2C155.7 100.4 153.7 98.5001 151.3 96.3001C147.7 92.9001 142.9 88.3001 139.1 82.6001C131.3 70.7001 126.2 55.3001 124.8 50.9001C123.7 47.4001 120.3 46.5001 120.3 46.5001C120.2 46.5001 120.1 46.4001 120.1 46.3001C118.7 44.0001 116.4 42.5001 113.3 42.1001C107.7 41.3001 100.2 44.1001 95.4999 48.8001C89.8999 54.2001 91.1999 78.9001 97.3999 87.6001C97.4999 87.8001 97.4999 88.0001 97.2999 88.1001C97.0999 88.2001 96.8999 88.2001 96.7999 88.0001C90.2999 78.9001 89.0999 54.0001 94.9999 48.2001C99.9999 43.4001 107.5 40.5001 113.4 41.3001C116.7 41.7001 119.1 43.3001 120.6 45.8001C121.3 46.0001 124.4 47.2001 125.5 50.7001C126.9 55.1001 131.9 70.4001 139.7 82.2001C143.4 87.8001 148.2 92.4001 151.7 95.8001C154.8 98.8001 156.3 100.2 156.3 101.3C156.3 102.1 156.1 102.6 155.6 103C154.6 103.8 152.9 103.3 150.9 102.8C148.7 102.2 146.3 101.6 145.1 102.7C144.1 103.6 144 105.7 144.7 108.8C144.9 108.9 144.8 109.1 144.5 109.2C144.6 109.2 144.5 109.2 144.5 109.2Z" fill="#1F1A54"/>
<path d="M116.3 61.3003C116.2 61.2003 113.8 58.6003 109.1 55.9003C105.8 54.0003 103.8 50.9003 103.1 49.8003C102.1 50.9003 99.2 54.1003 97.2 54.7003C97 54.8003 96.8 54.7003 96.7 54.5003C96.6 54.3003 96.7 54.1003 96.9 54.0003C99.2 53.3003 102.8 49.0003 102.9 48.9003C103 48.8003 103.1 48.8003 103.2 48.8003C103.3 48.8003 103.4 48.9003 103.5 49.0003C103.5 49.0003 105.6 53.1003 109.5 55.3003C114.2 58.0003 116.7 60.7003 116.8 60.8003L116.3 61.3003Z" fill="#1F1A54"/>
<path d="M123 83.9003C122.9 83.9003 122.8 83.9003 122.7 83.8003C122.3 83.4003 121.9 83.0003 121.5 82.7003C121.3 82.6003 121.3 82.3003 121.5 82.2003C121.6 82.0003 121.9 82.0003 122 82.2003C122.4 82.6003 122.8 83.0003 123.2 83.4003C123.3 83.5003 123.3 83.8003 123.2 83.9003C123.2 83.8003 123.1 83.9003 123 83.9003Z" fill="#1F1A54"/>
<path d="M90.3999 104.4H90.2999C90.0999 104.3 89.9999 104.1 90.0999 103.9C90.0999 103.8 93.1999 94.2999 96.9999 87.4999C98.7999 84.1999 100.5 81.9999 102.1 81.0999C102.5 80.7999 102.9 80.5999 103.4 80.3999C104.9 79.5999 106.4 78.9999 108 78.6999C111.4 77.8999 114.8 78.0999 117.8 79.3999C119.4 80.0999 120.8 80.9999 122.1 82.0999C122.3 82.1999 122.3 82.4999 122.1 82.5999C122 82.7999 121.7 82.7999 121.6 82.5999C120.3 81.4999 118.9 80.5999 117.5 79.9999C114.6 78.7999 111.4 78.5999 108.1 79.3999C106.6 79.7999 105.1 80.2999 103.7 81.0999C103.3 81.2999 102.9 81.5999 102.5 81.7999C101.1 82.6999 99.4999 84.7999 97.6999 87.8999C93.9999 94.5999 90.8999 104.1 90.8999 104.2C90.6999 104.3 90.5999 104.4 90.3999 104.4Z" fill="#1F1A54"/>
<path d="M129.2 109.7C129.1 109.7 129 109.7 129 109.6L125.2 106.8C125 106.7 125 106.4 125.1 106.3C125.2 106.1 125.5 106.1 125.6 106.2L129.1 108.8L136.9 100.1L121.5 82.5003C121.4 82.4003 121.4 82.1003 121.5 82.0003C121.6 81.9003 121.9 81.9003 122 82.0003L137.7 99.8003C137.8 99.9003 137.8 100.1 137.7 100.3L129.5 109.5C129.4 109.6 129.3 109.7 129.2 109.7Z" fill="#1F1A54"/>
<path d="M133.9 116C127.2 116 124.6 113 124.4 112.9C124.3 112.7 124.3 112.5 124.4 112.4C124.6 112.3 124.8 112.3 124.9 112.4C124.9 112.4 127.8 115.6 135.1 115.2V115.9C134.8 115.9 134.4 116 133.9 116Z" fill="#1F1A54"/>
<path d="M166.6 240.7C168.7 241.8 171.8 242.6 170.7 244.1C169.6 245.6 157.3 259.6 154.6 262.4C150.6 266.7 148.2 266.9 146.4 265.9C145.1 265.1 145 264.6 145 264.6C145.6 265.3 147 265.1 148.8 263.9C152.7 261.3 166.6 240.7 166.6 240.7Z" fill="white"/>
<path d="M148.6 255.2C148.8 254.9 148.9 254.5 149.1 254.2C149.3 253.7 149.6 253.2 149.8 252.7C150.1 251.9 150.4 251 150.6 250.2C150.9 249.1 151.1 248.1 151.3 247.2C151.5 246.1 151.5 245.1 151.4 244.4C151.4 244.5 152.1 244.5 153.1 244.2C154.6 243.8 156.8 243.1 158.4 242.2C160.6 241 161.7 239.4 162.1 238.6C162.3 238.2 162.4 238 162.4 238C165 239.8 166.6 240.7 166.6 240.7C166.6 240.7 152.7 261.3 148.8 263.9C147 265.1 145.7 265.4 145 264.6C144.8 264.3 144.6 263.9 144.6 263.3C144.6 262.3 145.6 260.7 146.4 259.3C147 258.3 147.9 256.7 148.6 255.2Z" fill="white"/>
<path d="M157.2 232.6L162.1 238.6C161.6 239.4 160.6 241.1 158.4 242.2C156.8 243.1 154.6 243.8 153.1 244.2L149.5 239.5L157.2 232.6Z" fill="#FFD400"/>
<path d="M82.3 250.1L80.4 257C79.5 257 77.5 256.9 75.3 255.6C74 254.8 72.6 253.6 71.6 252.6L71.7 252.5L72.9 247.6L82.3 250.1Z" fill="#FFD400"/>
<path d="M80.4 257C80.8 257 81 257 81 257C80.8 260.1 80.7 262 80.7 262C80.7 262 56 260.2 51.7 258C49.8 257.1 48.9 256 49.2 255.1C49.3 254.8 49.6 254.5 50.1 254.2C51 253.7 52.8 253.8 54.4 253.8C55.7 253.8 57.4 253.7 59.1 253.6C59.5 253.6 59.8 253.6 60.2 253.5C60.7 253.5 61.3 253.4 61.8 253.3C62.7 253.2 63.6 253 64.4 252.8C65.5 252.5 66.5 252.2 67.3 251.9C68.4 251.5 69.2 251 69.8 250.6C69.7 250.7 70.4 251.6 71.4 252.6C72.4 253.6 73.8 254.8 75.1 255.6C77.5 257 79.5 257.1 80.4 257Z" fill="white"/>
<path d="M80.6999 262C80.7999 264.4 81.6999 267.4 79.7999 267.2C77.8999 267 59.6999 263.2 55.8999 262.3C50.0999 261 48.7999 259 48.7999 256.9C48.7999 255.4 49.2999 255.1 49.2999 255.1C48.8999 256 49.8999 257.1 51.7999 258C55.9999 260.1 80.6999 262 80.6999 262Z" fill="white"/>
<path d="M153.1 244.6C153 244.6 152.9 244.6 152.8 244.5L149.2 239.8C149.1 239.6 149.1 239.4 149.2 239.3L156.8 232.4C156.9 232.3 157 232.3 157.1 232.3C157.2 232.3 157.3 232.4 157.4 232.4L162.3 238.4C162.4 238.6 162.4 238.8 162.3 238.9C162.1 239 161.9 239 161.8 238.9L157.1 233.2L150 239.6L153.4 244C153.5 244.2 153.5 244.4 153.3 244.5C153.3 244.5 153.2 244.6 153.1 244.6Z" fill="#1F1A54"/>
<path d="M80.3999 257.4C80.3999 257.4 80.2999 257.4 80.3999 257.4C80.0999 257.3 79.9999 257.1 79.9999 256.9L81.7999 250.3L73.1999 248L72.0999 252.5C72.0999 252.7 71.7999 252.8 71.6999 252.8C71.4999 252.8 71.3999 252.6 71.3999 252.4L72.5999 247.5C72.5999 247.4 72.6999 247.3 72.7999 247.3C72.8999 247.2 72.9999 247.2 73.0999 247.3L82.4999 249.8C82.5999 249.8 82.6999 249.9 82.6999 250C82.6999 250.1 82.7999 250.2 82.6999 250.3L80.7999 257.2C80.6999 257.3 80.5999 257.4 80.3999 257.4Z" fill="#1F1A54"/>
<path d="M146 265.4C145.3 265.4 144.9 265.1 144.7 264.9C144.4 264.5 144.3 264 144.3 263.4C144.3 262.5 145 261.3 145.7 260.1C145.9 259.8 146 259.5 146.2 259.3L146.3 259.2C146.9 258.1 147.7 256.6 148.4 255.2C148.6 254.9 148.7 254.5 148.9 254.2C149.1 253.7 149.4 253.2 149.6 252.7C149.9 251.9 150.2 251.1 150.4 250.2C150.7 249.2 150.9 248.2 151 247.2C151.2 246.1 151.2 245.1 151.1 244.5C151.1 244.3 151.2 244.1 151.4 244.1C151.5 244.1 151.6 244.1 151.7 244.2C151.9 244.2 152.3 244.2 153.1 244C154.6 243.6 156.7 243 158.3 242.1C160.4 241 161.4 239.4 161.9 238.6C162.1 238.3 162.1 238.1 162.1 238.1C162.1 238 162.2 237.9 162.3 237.9C162.4 237.9 162.5 237.9 162.6 237.9C165.2 239.6 166.7 240.6 166.8 240.6C166.9 240.7 167 240.7 167 240.8C167 240.9 167 241 166.9 241.1C166.3 241.9 152.9 261.8 149 264.4C147.6 265.1 146.7 265.4 146 265.4ZM151.8 244.8C151.8 245.5 151.8 246.3 151.7 247.2C151.6 248.1 151.3 249.2 151 250.3C150.8 251.2 150.5 252.1 150.1 252.8C149.9 253.3 149.7 253.8 149.4 254.3C149.2 254.6 149.1 255 148.9 255.3C148.2 256.8 147.3 258.3 146.8 259.4L146.7 259.5C146.5 259.8 146.4 260.1 146.2 260.3C145.6 261.4 144.9 262.5 144.9 263.3C144.9 263.8 145 264.1 145.2 264.3C145.7 264.9 146.9 264.6 148.5 263.5C152 261.1 164.2 243.4 166 240.8C165.4 240.5 164.2 239.7 162.5 238.6C162.5 238.7 162.4 238.7 162.4 238.8C161.9 239.7 160.8 241.4 158.5 242.6C156.8 243.5 154.6 244.2 153.1 244.6C152.5 244.7 152.1 244.8 151.8 244.8Z" fill="#1F1A54"/>
<path d="M148.2 266.8C147.5 266.8 146.8 266.6 146.2 266.2C144.8 265.4 144.7 264.8 144.7 264.6C144.7 264.4 144.8 264.2 145 264.2C145.2 264.2 145.4 264.3 145.4 264.5C145.4 264.5 145.6 265 146.6 265.6C147.9 266.3 150 266.8 154.3 262.2C157 259.3 169.3 245.4 170.4 243.9C170.6 243.7 170.6 243.5 170.6 243.4C170.5 242.8 169.1 242.3 168 241.8C167.5 241.6 167 241.4 166.5 241.1C166.3 241 166.2 240.8 166.3 240.6C166.4 240.4 166.6 240.3 166.8 240.4C167.3 240.6 167.7 240.8 168.2 241.1C169.6 241.7 171 242.3 171.2 243.2C171.3 243.6 171.2 243.9 170.9 244.3C169.8 245.8 157.5 259.7 154.8 262.7C152.2 265.4 150.1 266.8 148.2 266.8Z" fill="#1F1A54"/>
<path d="M152.9 247.6L149.7 247.5C149.5 247.5 149.3 247.3 149.3 247.1C149.3 246.9 149.5 246.8 149.7 246.7L152.9 246.8C153.1 246.8 153.3 247 153.3 247.2C153.2 247.4 153.1 247.6 152.9 247.6Z" fill="#1F1A54"/>
<path d="M152.4 250.8L149.1 250.4C148.9 250.4 148.8 250.2 148.8 250C148.8 249.8 149 249.7 149.2 249.7L152.4 250.1C152.6 250.1 152.7 250.3 152.7 250.5C152.8 250.6 152.6 250.8 152.4 250.8Z" fill="#1F1A54"/>
<path d="M151.5 253.4C151.5 253.4 151.4 253.4 151.5 253.4L148.2 252.7C148 252.7 147.9 252.5 147.9 252.3C147.9 252.1 148.1 252 148.3 252L151.5 252.7C151.7 252.7 151.8 252.9 151.8 253.1C151.8 253.3 151.7 253.4 151.5 253.4Z" fill="#1F1A54"/>
<path d="M150.4 256C150.4 256 150.4 255.9 150.4 256L147.1 255.3C146.9 255.3 146.8 255.1 146.8 254.9C146.8 254.7 147 254.6 147.2 254.6L150.4 255.3C150.6 255.3 150.7 255.5 150.7 255.7C150.7 255.8 150.6 256 150.4 256Z" fill="#1F1A54"/>
<path d="M80.6999 262.3C79.6999 262.2 55.7999 260.4 51.5999 258.3C48.6999 256.8 48.6999 255.6 48.8999 254.9C49.0999 254.5 49.3999 254.1 49.9999 253.8C50.7999 253.3 52.1999 253.3 53.5999 253.3C53.8999 253.3 54.1999 253.3 54.4999 253.3C56.2999 253.3 57.8999 253.2 59.1999 253.1C59.5999 253.1 59.8999 253.1 60.2999 253C60.7999 253 61.3999 252.9 61.8999 252.8C62.7999 252.7 63.6999 252.5 64.4999 252.3C65.4999 252 66.4999 251.7 67.3999 251.4C68.3999 251 69.2999 250.5 69.7999 250.2C69.9999 250.1 70.1999 250.1 70.2999 250.3C70.3999 250.4 70.3999 250.5 70.3999 250.6C70.4999 250.8 70.9999 251.4 71.8999 252.3C73.0999 253.5 74.4999 254.6 75.5999 255.3C77.5999 256.6 79.4999 256.7 80.3999 256.7C80.6999 256.7 80.8999 256.7 80.8999 256.7C80.9999 256.7 81.0999 256.7 81.1999 256.8C81.2999 256.9 81.2999 257 81.2999 257.1C81.0999 260.2 80.9999 262 80.9999 262C80.9999 262.1 80.9999 262.2 80.8999 262.3C80.8999 262.3 80.7999 262.3 80.6999 262.3ZM69.7999 251.1C69.2999 251.5 68.4999 251.8 67.5999 252.2C66.6999 252.6 65.6999 252.9 64.5999 253.1C63.7999 253.3 62.8999 253.5 61.9999 253.6C61.3999 253.7 60.8999 253.7 60.2999 253.8C59.8999 253.8 59.5999 253.8 59.1999 253.9C57.8999 254 56.2999 254 54.4999 254.1C54.1999 254.1 53.8999 254.1 53.5999 254.1C52.2999 254.1 50.9999 254.1 50.2999 254.5C49.8999 254.7 49.6999 255 49.5999 255.2C49.2999 255.9 50.1999 256.8 51.8999 257.7C55.6999 259.6 77.1999 261.3 80.2999 261.6C80.2999 260.9 80.3999 259.5 80.4999 257.4C80.4999 257.4 80.3999 257.4 80.2999 257.4C79.2999 257.4 77.1999 257.3 74.9999 255.9C73.2999 254.8 71.7999 253.4 71.1999 252.8C70.4999 252 69.9999 251.5 69.7999 251.1Z" fill="#1F1A54"/>
<path d="M79.9999 267.6C79.8999 267.6 79.7999 267.6 79.7999 267.6C77.9999 267.4 59.6999 263.6 55.7999 262.7C50.6999 261.5 48.3999 259.7 48.3999 257C48.3999 255.4 48.8999 255 48.9999 254.9C49.1999 254.8 49.3999 254.8 49.4999 255C49.5999 255.2 49.5999 255.4 49.4999 255.5C49.4999 255.5 49.1999 255.9 49.1999 257.1C49.1999 258.6 49.8999 260.7 55.9999 262.1C59.8999 263 78.0999 266.7 79.8999 267C80.1999 267 80.2999 267 80.3999 266.9C80.7999 266.5 80.6999 265 80.4999 263.8C80.3999 263.3 80.3999 262.7 80.3999 262.2C80.3999 262 80.4999 261.8 80.6999 261.8C80.8999 261.8 81.0999 261.9 81.0999 262.1C81.0999 262.6 81.1999 263.1 81.1999 263.6C81.3999 265.2 81.4999 266.7 80.8999 267.3C80.6999 267.4 80.3999 267.6 79.9999 267.6Z" fill="#1F1A54"/>
<path d="M68.2999 253.7C68.1999 253.7 67.9999 253.6 67.9999 253.5L66.4999 250.7C66.3999 250.5 66.4999 250.3 66.6999 250.2C66.8999 250.1 67.0999 250.2 67.1999 250.4L68.6999 253.2C68.7999 253.4 68.6999 253.6 68.4999 253.7C68.3999 253.6 68.2999 253.7 68.2999 253.7Z" fill="#1F1A54"/>
<path d="M65.2999 254.9C65.1999 254.9 64.9999 254.8 64.9999 254.7L63.6999 251.7C63.5999 251.5 63.6999 251.3 63.8999 251.2C64.0999 251.1 64.2999 251.2 64.3999 251.4L65.6999 254.4C65.7999 254.6 65.6999 254.8 65.4999 254.9C65.3999 254.9 65.2999 254.9 65.2999 254.9Z" fill="#1F1A54"/>
<path d="M62.4999 255.4C62.2999 255.4 62.1999 255.3 62.1999 255.1L61.1999 252C61.0999 251.8 61.1999 251.6 61.3999 251.5C61.5999 251.4 61.7999 251.5 61.8999 251.7L62.8999 254.8C62.9999 255 62.8999 255.2 62.6999 255.3C62.5999 255.4 62.5999 255.4 62.4999 255.4Z" fill="#1F1A54"/>
<path d="M59.7999 255.7C59.5999 255.7 59.4999 255.6 59.3999 255.4L58.3999 252.3C58.2999 252.1 58.3999 251.9 58.5999 251.8C58.7999 251.7 58.9999 251.8 59.0999 252L60.0999 255.1C60.1999 255.3 60.0999 255.5 59.8999 255.6C59.8999 255.7 59.7999 255.7 59.7999 255.7Z" fill="#1F1A54"/>
<path d="M109.1 183.6L97.8 209.8L84.9 250.9L71.2 247.2C71.2 247.2 85.7 189.9 89.6 168.3C92.8 150.5 96.9 135 96.9 135C96.9 135 100.5 137.6 109.5 136.9C120.8 136 123.7 133.9 123.7 133.9C129.5 140.2 133.6 153 130.7 168.1C129.5 174.5 133.3 200.2 133.3 200.2L158 231.9L147.2 241.8L118.2 207.3L109.1 183.6Z" fill="#1F1A54"/>
<path d="M130.1 191.6C129.5 191.6 129 192.1 129 192.7C129 193.3 129.5 193.8 130.1 193.8C130.7 193.8 131.2 193.3 131.2 192.7C131.2 192.1 130.7 191.6 130.1 191.6Z" fill="white"/>
<path d="M130.4 171.3C130.3 171.3 130.2 171.2 130 171.2C129.4 171.2 128.9 171.7 128.9 172.3C128.9 172.9 129.4 173.4 130 173.4C130.1 173.4 130.3 173.4 130.4 173.3C130.4 172.6 130.4 171.9 130.4 171.3Z" fill="white"/>
<path d="M130.1 212C129.5 212 129 212.5 129 213.1C129 213.7 129.5 214.2 130.1 214.2C130.7 214.2 131.2 213.7 131.2 213.1C131.2 212.5 130.7 212 130.1 212Z" fill="white"/>
<path d="M119.9 193.9C120.5 193.9 121 193.4 121 192.8C121 192.2 120.5 191.7 119.9 191.7C119.3 191.7 118.8 192.2 118.8 192.8C118.7 193.4 119.2 193.9 119.9 193.9Z" fill="white"/>
<path d="M119.9 171.2C119.3 171.2 118.8 171.7 118.8 172.3C118.8 172.9 119.3 173.4 119.9 173.4C120.5 173.4 121 172.9 121 172.3C121 171.7 120.5 171.2 119.9 171.2Z" fill="white"/>
<path d="M125 163.2C125.607 163.2 126.1 162.708 126.1 162.1C126.1 161.492 125.607 161 125 161C124.392 161 123.9 161.492 123.9 162.1C123.9 162.708 124.392 163.2 125 163.2Z" fill="white"/>
<path d="M125 181.4C124.4 181.4 123.9 181.9 123.9 182.5C123.9 183.1 124.4 183.6 125 183.6C125.6 183.6 126.1 183.1 126.1 182.5C126.1 181.9 125.6 181.4 125 181.4Z" fill="white"/>
<path d="M131.1 151.5C130.9 151.1 130.5 150.7 130 150.7C129.4 150.7 128.9 151.2 128.9 151.8C128.9 152.4 129.4 152.9 130 152.9C130.6 152.9 131.1 152.4 131.1 151.8C131.2 151.8 131.2 151.7 131.1 151.5Z" fill="white"/>
<path d="M125 142.8C125.607 142.8 126.1 142.308 126.1 141.7C126.1 141.093 125.607 140.6 125 140.6C124.392 140.6 123.9 141.093 123.9 141.7C123.9 142.308 124.392 142.8 125 142.8Z" fill="white"/>
<path d="M119.9 150.8C119.3 150.8 118.8 151.3 118.8 151.9C118.8 152.5 119.3 153 119.9 153C120.5 153 121 152.5 121 151.9C121 151.3 120.5 150.8 119.9 150.8Z" fill="white"/>
<path d="M104.6 181.4C104 181.4 103.5 181.9 103.5 182.5C103.5 183.1 104 183.6 104.6 183.6C105.2 183.6 105.7 183.1 105.7 182.5C105.7 181.9 105.2 181.4 104.6 181.4Z" fill="white"/>
<path d="M99.4999 171.2C98.8999 171.2 98.3999 171.7 98.3999 172.3C98.3999 172.9 98.8999 173.4 99.4999 173.4C100.1 173.4 100.6 172.9 100.6 172.3C100.6 171.7 100.1 171.2 99.4999 171.2Z" fill="white"/>
<path d="M99.4999 150.8C98.8999 150.8 98.3999 151.3 98.3999 151.9C98.3999 152.5 98.8999 153 99.4999 153C100.1 153 100.6 152.5 100.6 151.9C100.6 151.3 100.1 150.8 99.4999 150.8Z" fill="white"/>
<path d="M104.6 161C104 161 103.5 161.5 103.5 162.1C103.5 162.7 104 163.2 104.6 163.2C105.2 163.2 105.7 162.7 105.7 162.1C105.7 161.5 105.2 161 104.6 161Z" fill="white"/>
<path d="M99.4999 193.9C100.1 193.9 100.6 193.4 100.6 192.8C100.6 192.2 100.1 191.7 99.4999 191.7C98.8999 191.7 98.3999 192.2 98.3999 192.8C98.2999 193.4 98.7999 193.9 99.4999 193.9Z" fill="white"/>
<path d="M125 204.1C125.6 204.1 126.1 203.6 126.1 203C126.1 202.4 125.6 201.9 125 201.9C124.4 201.9 123.9 202.4 123.9 203C123.8 203.6 124.3 204.1 125 204.1Z" fill="white"/>
<path d="M109.7 153.1C110.3 153.1 110.8 152.6 110.8 152C110.8 151.4 110.3 150.9 109.7 150.9C109.1 150.9 108.6 151.4 108.6 152C108.5 152.6 109 153.1 109.7 153.1Z" fill="white"/>
<path d="M114.8 183.7C115.4 183.7 115.9 183.2 115.9 182.6C115.9 182 115.4 181.5 114.8 181.5C114.2 181.5 113.7 182 113.7 182.6C113.6 183.2 114.1 183.7 114.8 183.7Z" fill="white"/>
<path d="M110.8 172.3C110.8 171.7 110.3 171.2 109.7 171.2C109.1 171.2 108.6 171.7 108.6 172.3C108.6 172.9 109.1 173.4 109.7 173.4C110.3 173.4 110.8 173 110.8 172.3Z" fill="white"/>
<path d="M114.8 163.3C115.4 163.3 115.9 162.8 115.9 162.2C115.9 161.6 115.4 161.1 114.8 161.1C114.2 161.1 113.7 161.6 113.7 162.2C113.7 162.8 114.1 163.3 114.8 163.3Z" fill="white"/>
<path d="M114.8 140.6C114.2 140.6 113.7 141.1 113.7 141.7C113.7 142.3 114.2 142.8 114.8 142.8C115.4 142.8 115.9 142.3 115.9 141.7C115.9 141.1 115.4 140.6 114.8 140.6Z" fill="white"/>
<path d="M104.6 140.6C104 140.6 103.5 141.1 103.5 141.7C103.5 142.3 104 142.8 104.6 142.8C105.2 142.8 105.7 142.3 105.7 141.7C105.7 141.1 105.2 140.6 104.6 140.6Z" fill="white"/>
<path d="M84.0999 222.2C83.4999 222.2 82.9999 222.7 82.9999 223.3C82.9999 223.9 83.4999 224.4 84.0999 224.4C84.6999 224.4 85.1999 223.9 85.1999 223.3C85.2999 222.7 84.7999 222.2 84.0999 222.2Z" fill="white"/>
<path d="M80.1999 213.1C80.1999 212.8 79.9999 212.5 79.7999 212.3C79.5999 212.9 79.4999 213.6 79.2999 214.2C79.7999 214.1 80.1999 213.7 80.1999 213.1Z" fill="white"/>
<path d="M89.3 212C88.7 212 88.2 212.5 88.2 213.1C88.2 213.7 88.7 214.2 89.3 214.2C89.9 214.2 90.4 213.7 90.4 213.1C90.4 212.5 89.9 212 89.3 212Z" fill="white"/>
<path d="M84.0999 201.8C83.4999 201.8 82.9999 202.3 82.9999 202.9C82.9999 203.5 83.4999 204 84.0999 204C84.6999 204 85.1999 203.5 85.1999 202.9C85.2999 202.3 84.7999 201.8 84.0999 201.8Z" fill="white"/>
<path d="M78.9999 232.4C78.3999 232.4 77.8999 232.9 77.8999 233.5C77.8999 234.1 78.3999 234.6 78.9999 234.6C79.5999 234.6 80.0999 234.1 80.0999 233.5C80.0999 232.9 79.6999 232.4 78.9999 232.4Z" fill="white"/>
<path d="M93.2 223.3C93.2 223.5 93.3 223.7 93.4 223.9L93.9 222.3C93.5 222.5 93.2 222.9 93.2 223.3Z" fill="white"/>
<path d="M89.3 191.6C88.7 191.6 88.2 192.1 88.2 192.7C88.2 193.3 88.7 193.8 89.3 193.8C89.9 193.8 90.4 193.3 90.4 192.7C90.4 192.1 89.9 191.6 89.3 191.6Z" fill="white"/>
<path d="M89.3 232.4C88.7 232.4 88.2 232.9 88.2 233.5C88.2 234.1 88.7 234.6 89.3 234.6C89.7 234.6 90 234.4 90.2 234.1L90.4 233.3C90.3 232.9 89.9 232.4 89.3 232.4Z" fill="white"/>
<path d="M85.3 243.8C85.3 243.2 84.8 242.7 84.2 242.7C83.6 242.7 83.1 243.2 83.1 243.8C83.1 244.4 83.6 244.9 84.2 244.9C84.8 244.9 85.3 244.4 85.3 243.8Z" fill="white"/>
<path d="M73.8999 244.9C74.4999 244.9 74.9999 244.4 74.9999 243.8C74.9999 243.2 74.4999 242.7 73.8999 242.7C73.2999 242.7 72.7999 243.2 72.7999 243.8C72.7999 244.4 73.2999 244.9 73.8999 244.9Z" fill="white"/>
<path d="M134 202.9C134 203.5 134.5 204 135.1 204C135.5 204 135.8 203.8 136 203.5L134.6 201.8C134.3 202.1 134 202.5 134 202.9Z" fill="white"/>
<path d="M136.3 223.3C136.3 222.7 135.8 222.2 135.2 222.2C134.6 222.2 134.1 222.7 134.1 223.3C134.1 223.9 134.6 224.4 135.2 224.4C135.8 224.4 136.3 224 136.3 223.3Z" fill="white"/>
<path d="M94.3999 161C93.7999 161 93.2999 161.5 93.2999 162.1C93.2999 162.7 93.7999 163.2 94.3999 163.2C94.9999 163.2 95.4999 162.7 95.4999 162.1C95.4999 161.5 94.9999 161 94.3999 161Z" fill="white"/>
<path d="M145.4 222.2C144.8 222.2 144.3 222.7 144.3 223.3C144.3 223.9 144.8 224.4 145.4 224.4C146 224.4 146.5 223.9 146.5 223.3C146.5 222.7 146 222.2 145.4 222.2Z" fill="white"/>
<path d="M141.4 233.6C141.4 233 140.9 232.5 140.3 232.5C140 232.5 139.8 232.6 139.6 232.8L141.1 234.5C141.3 234.2 141.4 233.9 141.4 233.6Z" fill="white"/>
<path d="M141.4 213.1C141.4 212.5 140.9 212 140.3 212C139.7 212 139.2 212.5 139.2 213.1C139.2 213.7 139.7 214.2 140.3 214.2C140.9 214.2 141.4 213.8 141.4 213.1Z" fill="white"/>
<path d="M150.5 234.7C151.1 234.7 151.6 234.2 151.6 233.6C151.6 233 151.1 232.5 150.5 232.5C149.9 232.5 149.4 233 149.4 233.6C149.4 234.2 149.8 234.7 150.5 234.7Z" fill="white"/>
<path d="M89.3 173.5C89.9 173.5 90.4 173 90.4 172.4C90.4 171.8 89.9 171.3 89.3 171.3C89.2 171.3 89.2 171.3 89.1 171.3C89 172 88.8 172.7 88.7 173.4C88.8 173.4 89 173.5 89.3 173.5Z" fill="white"/>
<path d="M94.3999 181.4C93.7999 181.4 93.2999 181.9 93.2999 182.5C93.2999 183.1 93.7999 183.6 94.3999 183.6C94.9999 183.6 95.4999 183.1 95.4999 182.5C95.4999 181.9 94.9999 181.4 94.3999 181.4Z" fill="white"/>
<path d="M94.3999 201.8C93.7999 201.8 93.2999 202.3 93.2999 202.9C93.2999 203.5 93.7999 204 94.3999 204C94.9999 204 95.4999 203.5 95.4999 202.9C95.4999 202.3 94.9999 201.8 94.3999 201.8Z" fill="white"/>
<path d="M95.5 141.7C95.5 141.5 95.5 141.4 95.4 141.2C95.3 141.6 95.2 142.1 95.1 142.6C95.3 142.4 95.5 142.1 95.5 141.7Z" fill="white"/>
<path d="M109.1 184.5C109 184.5 108.9 184.4 108.9 184.3L105.4 173.5L98.6 160C98.5 159.9 98.6 159.7 98.7 159.7C98.8 159.6 99 159.7 99 159.8L105.8 173.3L109.3 184.1C109.4 184.4 109.3 184.5 109.1 184.5C109.2 184.5 109.1 184.5 109.1 184.5Z" fill="#FFD400"/>
<path d="M303.9 189.9H223.8V242.4H303.9V189.9Z" fill="#FFD400"/>
<path d="M303.9 242.8H223.8C223.6 242.8 223.4 242.6 223.4 242.4V189.9C223.4 189.7 223.6 189.5 223.8 189.5H303.9C304.1 189.5 304.3 189.7 304.3 189.9V242.4C304.3 242.6 304.1 242.8 303.9 242.8ZM224.1 242H303.5V190.3H224.1V242Z" fill="#1F1A54"/>
<path d="M273.5 152.7H223.8V190H273.5V152.7Z" fill="#FFD400"/>
<path d="M273.5 190.3H223.8C223.6 190.3 223.4 190.1 223.4 189.9V152.6C223.4 152.4 223.6 152.2 223.8 152.2H273.5C273.7 152.2 273.9 152.4 273.9 152.6V190C273.8 190.2 273.7 190.3 273.5 190.3ZM224.1 189.6H273V153H224.1V189.6Z" fill="#1F1A54"/>
<path d="M294.1 169.3H273.5V189.9H294.1V169.3Z" fill="#FFD400"/>
<path d="M294 190.3H273.4C273.2 190.3 273 190.1 273 189.9V169.3C273 169.1 273.2 168.9 273.4 168.9H294C294.2 168.9 294.4 169.1 294.4 169.3V189.9C294.4 190.1 294.3 190.3 294 190.3ZM273.8 189.5H293.7V169.6H273.8V189.5Z" fill="#1F1A54"/>
<path d="M314.9 242.4H212.8V246.9H314.9V242.4Z" fill="#1F1A54"/>
<path d="M314.9 247.3H212.8C212.5 247.3 212.3 247.1 212.3 246.8V242.3C212.3 242 212.5 241.8 212.8 241.8H314.9C315.2 241.8 315.4 242 315.4 242.3V246.8C315.3 247.1 315.1 247.3 314.9 247.3ZM213.2 246.4H314.4V242.8H213.2V246.4Z" fill="#1F1A54"/>
<path d="M224.8 257.2H216.9V247.3H234L224.8 257.2Z" fill="#1F1A54"/>
<path d="M224.8 257.7H216.9C216.6 257.7 216.4 257.5 216.4 257.2V247.3C216.4 247 216.6 246.8 216.9 246.8H234C234.2 246.8 234.3 246.9 234.4 247.1C234.5 247.3 234.4 247.5 234.3 247.6L225.1 257.5C225 257.6 224.9 257.7 224.8 257.7ZM217.4 256.7H224.6L233 247.7H217.4V256.7Z" fill="#1F1A54"/>
<path d="M220.8 264.9C225.273 264.9 228.9 261.274 228.9 256.8C228.9 252.327 225.273 248.7 220.8 248.7C216.326 248.7 212.7 252.327 212.7 256.8C212.7 261.274 216.326 264.9 220.8 264.9Z" fill="white"/>
<path d="M220.8 265.2C216.1 265.2 212.4 261.4 212.4 256.8C212.4 252.2 216.2 248.4 220.8 248.4C225.4 248.4 229.2 252.2 229.2 256.8C229.2 261.4 225.5 265.2 220.8 265.2ZM220.8 249.1C216.6 249.1 213.1 252.6 213.1 256.8C213.1 261 216.6 264.5 220.8 264.5C225 264.5 228.5 261 228.5 256.8C228.5 252.6 225.1 249.1 220.8 249.1Z" fill="#1F1A54"/>
<path d="M220.8 261.1C218.4 261.1 216.5 259.2 216.5 256.8C216.5 254.4 218.4 252.5 220.8 252.5C223.2 252.5 225.1 254.4 225.1 256.8C225.1 259.2 223.2 261.1 220.8 261.1ZM220.8 253.2C218.8 253.2 217.2 254.8 217.2 256.8C217.2 258.8 218.8 260.4 220.8 260.4C222.8 260.4 224.4 258.8 224.4 256.8C224.4 254.8 222.8 253.2 220.8 253.2Z" fill="#1F1A54"/>
<path d="M218.2 257.1C218 257.1 217.8 256.9 217.8 256.7C217.8 256.1 218 255.5 218.3 255C218.4 254.8 218.6 254.8 218.8 254.9C219 255 219 255.2 218.9 255.4C218.7 255.8 218.5 256.2 218.5 256.7C218.6 257 218.4 257.1 218.2 257.1Z" fill="#1F1A54"/>
<path d="M220.8 259.8C219.7 259.8 218.7 259.2 218.2 258.2C218.1 258 218.2 257.8 218.4 257.7C218.6 257.6 218.8 257.7 218.9 257.9C219.3 258.7 220.3 259.2 221.2 259.1C221.4 259.1 221.6 259.2 221.6 259.4C221.6 259.6 221.5 259.8 221.3 259.8C221.1 259.7 221 259.8 220.8 259.8Z" fill="#1F1A54"/>
<path d="M302.9 257.2H310.7V247.3H293.7L302.9 257.2Z" fill="#1F1A54"/>
<path d="M310.7 257.7H302.8C302.7 257.7 302.6 257.6 302.5 257.6L293.3 247.7C293.2 247.6 293.1 247.4 293.2 247.2C293.3 247 293.4 246.9 293.6 246.9H310.7C311 246.9 311.2 247.1 311.2 247.4V257.3C311.2 257.4 311 257.7 310.7 257.7ZM303.1 256.7H310.3V247.7H294.7L303.1 256.7Z" fill="#1F1A54"/>
<path d="M306.8 264.9C311.273 264.9 314.9 261.273 314.9 256.8C314.9 252.326 311.273 248.7 306.8 248.7C302.326 248.7 298.7 252.326 298.7 256.8C298.7 261.273 302.326 264.9 306.8 264.9Z" fill="white"/>
<path d="M306.8 265.2C302.1 265.2 298.4 261.4 298.4 256.8C298.4 252.2 302.2 248.4 306.8 248.4C311.4 248.4 315.2 252.2 315.2 256.8C315.2 261.4 311.5 265.2 306.8 265.2ZM306.8 249.1C302.6 249.1 299.1 252.6 299.1 256.8C299.1 261 302.6 264.5 306.8 264.5C311 264.5 314.5 261 314.5 256.8C314.5 252.6 311.1 249.1 306.8 249.1Z" fill="#1F1A54"/>
<path d="M306.8 261.1C304.4 261.1 302.5 259.2 302.5 256.8C302.5 254.4 304.4 252.5 306.8 252.5C309.2 252.5 311.1 254.4 311.1 256.8C311.1 259.2 309.2 261.1 306.8 261.1ZM306.8 253.2C304.8 253.2 303.2 254.8 303.2 256.8C303.2 258.8 304.8 260.4 306.8 260.4C308.8 260.4 310.4 258.8 310.4 256.8C310.4 254.8 308.8 253.2 306.8 253.2Z" fill="#1F1A54"/>
<path d="M304.2 257.1C304 257.1 303.8 256.9 303.8 256.7C303.8 256.1 304 255.5 304.3 255C304.4 254.8 304.6 254.8 304.8 254.9C305 255 305 255.2 304.9 255.4C304.7 255.8 304.5 256.2 304.5 256.7C304.6 257 304.4 257.1 304.2 257.1Z" fill="#1F1A54"/>
<path d="M306.8 259.8C305.7 259.8 304.7 259.2 304.2 258.2C304.1 258 304.2 257.8 304.4 257.7C304.6 257.6 304.8 257.7 304.9 257.9C305.3 258.7 306.3 259.2 307.2 259.1C307.4 259.1 307.6 259.2 307.6 259.4C307.6 259.6 307.5 259.8 307.3 259.8C307.1 259.7 307 259.8 306.8 259.8Z" fill="#1F1A54"/>
<path d="M171.1 152.5C170.4 151 168.5 150.6 167.1 151.5L155.3 159.2C153.9 160.1 153.6 162 154.7 163.3C158.1 167.4 162.7 170.5 167.9 172L170.9 172.9L173.3 171.3L173.7 168.2C174.4 162.7 173.5 157.3 171.1 152.5ZM171 167.7L170.8 169.6L170.5 169.8L168.7 169.3C164.4 168.1 160.6 165.7 157.6 162.4C157.2 162 157.3 161.2 157.8 160.9L167.7 154.5C168.2 154.2 168.9 154.4 169.1 154.9C170.9 158.8 171.6 163.3 171 167.7Z" fill="#1F1A54"/>
<path d="M170.9 173.1H170.8L167.8 172.2C162.5 170.7 157.9 167.6 154.4 163.4C153.8 162.7 153.6 161.8 153.7 161C153.8 160.1 154.3 159.3 155.1 158.8L166.9 151.1C167.7 150.6 168.6 150.5 169.5 150.7C170.4 150.9 171.1 151.5 171.5 152.3C174 157.2 174.9 162.7 174.2 168.1L173.8 171.2C173.8 171.3 173.7 171.4 173.6 171.5L171.2 173.1C171.1 173.1 171 173.1 170.9 173.1ZM168.6 151.4C168.1 151.4 167.7 151.5 167.3 151.8L155.5 159.5C154.9 159.9 154.5 160.5 154.4 161.2C154.3 161.9 154.5 162.5 154.9 163C158.3 167.1 162.8 170.1 167.9 171.5L170.8 172.3L172.9 170.9L173.3 167.9C174 162.6 173.1 157.3 170.7 152.5C170.4 151.9 169.9 151.5 169.2 151.3C169 151.4 168.8 151.4 168.6 151.4ZM170.5 170.1H170.4L168.6 169.6C164.3 168.3 160.4 165.9 157.3 162.6C157 162.3 156.9 161.9 157 161.5C157.1 161.1 157.3 160.7 157.6 160.5L167.5 154.1C167.8 153.9 168.2 153.8 168.6 153.9C169 154 169.3 154.3 169.4 154.6C171.2 158.7 171.9 163.2 171.3 167.7L171.1 169.6C171.1 169.7 171 169.8 170.9 169.9L170.6 170.1H170.5ZM168.2 154.6C168.1 154.6 168 154.6 167.9 154.7L158 161.1C157.8 161.2 157.7 161.4 157.7 161.6C157.7 161.8 157.7 161.9 157.8 162.1C160.8 165.3 164.5 167.7 168.7 168.9L170.3 169.4L170.5 167.7C171.1 163.3 170.4 158.9 168.6 155C168.5 154.8 168.4 154.7 168.2 154.7C168.3 154.6 168.3 154.6 168.2 154.6Z" fill="#1F1A54"/>
<path d="M173.57 171.053L170.642 172.971L214.154 239.389L217.081 237.471L173.57 171.053Z" fill="#FFD400"/>
<path d="M214.2 239.7C214.1 239.7 214.1 239.7 214.2 239.7C214 239.7 213.9 239.6 213.9 239.5L170.4 173.1C170.3 172.9 170.3 172.7 170.5 172.6L173.4 170.7C173.5 170.6 173.6 170.6 173.7 170.6C173.8 170.6 173.9 170.7 173.9 170.8L217.4 237.2C217.5 237.4 217.5 237.6 217.3 237.7L214.4 239.6C214.3 239.7 214.2 239.7 214.2 239.7ZM171.2 173L214.3 238.8L216.6 237.3L173.5 171.5L171.2 173Z" fill="#1F1A54"/>
<path d="M167.323 156.243C168.064 155.762 167.981 154.321 167.139 153.024C166.296 151.727 165.013 151.066 164.272 151.548C163.531 152.029 163.613 153.471 164.456 154.767C165.298 156.064 166.582 156.725 167.323 156.243Z" fill="white"/>
<path d="M166.5 156.8C165.4 156.8 164.5 155.5 164.1 154.9C163.4 153.8 163.1 153 163.3 152.3C163.4 151.9 163.7 151.5 164.1 151.2C164.7 150.8 166 150.5 167.5 152.8L167.7 153.1C168.2 153.9 168.7 154.6 168.5 155.3C168.4 155.7 168.1 156.1 167.5 156.5C167.2 156.7 166.8 156.8 166.5 156.8ZM165 151.7C164.8 151.7 164.7 151.7 164.5 151.9C164.2 152.1 164.1 152.3 164 152.5C163.9 153 164.1 153.6 164.7 154.6C165.8 156.3 166.4 156.4 167 156C167.4 155.8 167.6 155.5 167.6 155.3C167.7 154.9 167.3 154.3 166.9 153.6L166.7 153.3C166.4 152.5 165.7 151.7 165 151.7Z" fill="#1F1A54"/>
<path d="M165.023 158.339C165.765 157.86 165.542 156.192 164.524 154.614C163.507 153.036 162.08 152.145 161.337 152.624C160.594 153.103 160.817 154.77 161.835 156.349C162.853 157.927 164.28 158.818 165.023 158.339Z" fill="white"/>
<path d="M164.3 159C164 159 163.6 158.9 163.1 158.6C162.6 158.2 162.1 157.6 161.5 156.6C160.9 155.6 160.5 154.9 160.4 154.3C160.2 153.2 160.6 152.7 161.1 152.4C161.5 152.1 162.2 152 163.1 152.6C163.6 153 164.2 153.6 164.8 154.6L165 155C165.7 156 166.2 156.9 166.1 157.8C166 158.2 165.7 158.6 165.2 158.9C165 158.9 164.7 159 164.3 159ZM161.9 152.8C161.7 152.8 161.6 152.9 161.5 152.9C161.3 153.1 161 153.3 161.1 154C161.2 154.5 161.5 155.2 162.1 156.1C162.5 156.7 163 157.5 163.6 157.9C164.2 158.3 164.5 158.2 164.8 158C165.1 157.8 165.3 157.6 165.3 157.3C165.4 156.8 164.9 156 164.3 155.1L164.1 154.7C163.6 153.9 163.1 153.3 162.6 152.9C162.3 152.9 162.1 152.8 161.9 152.8Z" fill="#1F1A54"/>
<path d="M161.8 156.3C162.9 157.9 163.9 159.2 162.2 160.2C161 161 159.9 159.8 158.8 158.2C157.7 156.6 156.8 154.5 158 153.7C159.6 152.6 160.7 154.7 161.8 156.3Z" fill="white"/>
<path d="M161.4 160.8C160.1 160.8 159.1 159.2 158.5 158.4C156.9 155.8 156.6 154.2 157.8 153.4C158.3 153.1 158.7 153 159.2 153.1C160.3 153.3 161.1 154.6 161.9 155.8L162.4 156.5C163.1 157.5 163.7 158.4 163.5 159.3C163.4 159.8 163.1 160.2 162.5 160.6C162.1 160.7 161.7 160.8 161.4 160.8ZM158.9 153.8C158.7 153.8 158.5 153.9 158.2 154C157.2 154.7 158.3 156.8 159.1 158C160.3 159.9 161.1 160.4 162 159.9C162.4 159.7 162.6 159.4 162.7 159.1C162.8 158.5 162.3 157.8 161.7 156.9L161.2 156.2C160.5 155.2 159.8 154 159 153.8C159 153.8 159 153.8 158.9 153.8Z" fill="#1F1A54"/>
<path d="M159.049 161.505C159.792 161.026 159.617 159.433 158.659 157.948C157.701 156.463 156.323 155.647 155.58 156.126C154.837 156.605 155.012 158.197 155.97 159.682C156.928 161.168 158.306 161.983 159.049 161.505Z" fill="white"/>
<path d="M158.3 162C157.1 162 156.1 160.5 155.7 159.8C155.1 158.9 154.8 158.2 154.7 157.6C154.5 156.6 155 156 155.4 155.7C156.2 155.2 157.4 155.2 159 157.6L159.2 157.9C159.8 158.8 160.3 159.6 160.2 160.4C160.1 160.8 159.8 161.2 159.3 161.6C158.9 162 158.6 162 158.3 162ZM156.3 156.3C156.1 156.3 156 156.3 155.8 156.4C155.4 156.6 155.3 157 155.4 157.5C155.5 158 155.8 158.6 156.3 159.4C157.4 161.1 158.1 161.5 158.8 161.1C159.1 160.9 159.3 160.6 159.4 160.4C159.5 159.9 159.1 159.2 158.5 158.4L158.3 158.1C157.8 157.2 157 156.3 156.3 156.3Z" fill="#1F1A54"/>
<path d="M219.2 242.4H212.8V236.7C212.8 234.9 214.2 233.5 216 233.5C217.8 233.5 219.2 234.9 219.2 236.7V242.4Z" fill="#FFD400"/>
<path d="M219.2 242.8H212.8C212.6 242.8 212.4 242.6 212.4 242.4V236.7C212.4 234.7 214 233.1 216 233.1C218 233.1 219.6 234.7 219.6 236.7V242.4C219.6 242.6 219.4 242.8 219.2 242.8ZM213.1 242H218.8V236.6C218.8 235 217.5 233.8 216 233.8C214.4 233.8 213.2 235.1 213.2 236.6V242H213.1Z" fill="#1F1A54"/>
<path d="M216 237.5C216.497 237.5 216.9 237.097 216.9 236.6C216.9 236.103 216.497 235.7 216 235.7C215.503 235.7 215.1 236.103 215.1 236.6C215.1 237.097 215.503 237.5 216 237.5Z" fill="#1F1A54"/>
<path d="M216 238C215.3 238 214.7 237.4 214.7 236.7C214.7 236 215.3 235.4 216 235.4C216.7 235.4 217.3 236 217.3 236.7C217.3 237.4 216.7 238 216 238ZM216 236.2C215.8 236.2 215.6 236.4 215.6 236.6C215.6 236.8 215.8 237 216 237C216.2 237 216.4 236.8 216.4 236.6C216.4 236.4 216.2 236.2 216 236.2Z" fill="#1F1A54"/>
<path d="M208.2 101.9L206.3 101.5C206.1 101.5 206 101.3 206 101.1C206 100.9 206.2 100.8 206.4 100.8L208.2 101.2C208.4 101.2 208.5 101.4 208.5 101.6C208.6 101.7 208.4 101.9 208.2 101.9Z" fill="#1F1A54"/>
<path d="M208.2 101.8C208 101.8 207.9 101.6 207.9 101.4C207.9 101.2 208.1 101.1 208.3 101.1C208.5 101.1 208.6 101.3 208.6 101.5C208.6 101.7 208.4 101.8 208.2 101.8Z" fill="#1F1A54"/>
<path d="M221.2 104.7L217.9 104C217.7 104 217.6 103.8 217.6 103.6C217.6 103.6 217.6 103.6 217.6 103.5C217.6 103.3 217.8 103.2 218 103.2L221.2 103.9C221.4 103.9 221.5 104.1 221.5 104.3C221.5 104.3 221.5 104.3 221.5 104.4C221.6 104.6 221.4 104.7 221.2 104.7ZM224.4 104.2C224.3 104.2 224.1 104.1 224.1 104V103.9C224.1 103.7 224.2 103.6 224.3 103.6L227.4 102.4C227.6 102.3 227.8 102.4 227.9 102.6V102.7C227.9 102.9 227.8 103 227.7 103.1L224.6 104.3C224.5 104.2 224.4 104.2 224.4 104.2ZM214.7 103.3L211.4 102.6C211.2 102.6 211.1 102.4 211.1 102.2C211.1 102 211.3 101.9 211.5 101.9L214.7 102.6C214.9 102.6 215 102.8 215 103C215 103 215 103 215 103.1C215.1 103.2 214.9 103.3 214.7 103.3Z" fill="#1F1A54"/>
<path d="M232.3 103.1C232.1 103.1 231.9 102.9 231.9 102.7V101.4L230.7 101.9C230.5 102 230.3 101.9 230.2 101.7C230.1 101.5 230.2 101.3 230.4 101.2L232.1 100.5C232.2 100.5 232.3 100.5 232.4 100.5C232.5 100.5 232.6 100.7 232.6 100.8V102.6C232.7 102.9 232.5 103.1 232.3 103.1Z" fill="#1F1A54"/>
<path d="M232 102.7C232 102.5 232.2 102.3 232.4 102.3C232.6 102.3 232.8 102.5 232.8 102.7C232.8 102.9 232.6 103.1 232.4 103.1C232.1 103.1 232 102.9 232 102.7Z" fill="#1F1A54"/>
<path d="M232.3 120.5C232.1 120.5 231.9 120.3 231.9 120.1C231.9 119.9 232.1 119.7 232.3 119.7C232.5 119.7 232.7 119.9 232.7 120.1C232.7 120.3 232.5 120.5 232.3 120.5ZM232.3 117C232.1 117 231.9 116.8 231.9 116.6V113.1C231.9 112.9 232.1 112.7 232.3 112.7C232.5 112.7 232.7 112.9 232.7 113.1V116.6C232.7 116.8 232.5 117 232.3 117ZM232.3 110C232.1 110 231.9 109.8 231.9 109.6V106.1C231.9 105.9 232.1 105.7 232.3 105.7C232.5 105.7 232.7 105.9 232.7 106.1V109.6C232.7 109.9 232.5 110 232.3 110Z" fill="#1F1A54"/>
<path d="M232.3 122.3C232.2 122.3 232.1 122.3 232.1 122.2C232 122.1 232 122 232 121.9V120.1C232 119.9 232.2 119.7 232.4 119.7C232.6 119.7 232.8 119.9 232.8 120.1V121.5L234.1 121.1C234.3 121 234.5 121.2 234.6 121.4C234.7 121.6 234.5 121.8 234.3 121.9L232.5 122.4C232.4 122.3 232.4 122.3 232.3 122.3Z" fill="#1F1A54"/>
<path d="M233.8 121.6C233.7 121.4 233.9 121.2 234 121.1C234.2 121 234.4 121.2 234.5 121.3C234.5 121.5 234.4 121.7 234.2 121.8H234.1C233.9 121.8 233.8 121.7 233.8 121.6Z" fill="#1F1A54"/>
<path d="M238.3 120.7C238.1 120.7 238 120.6 238 120.4C238 120.2 238.1 120 238.3 119.9L242.5 118.7C242.7 118.7 242.9 118.8 243 119V119.1C243 119.3 242.9 119.4 242.7 119.5L238.5 120.7C238.3 120.7 238.3 120.7 238.3 120.7Z" fill="#1F1A54"/>
<path d="M246.6 118.3C246.4 118.3 246.3 118.2 246.2 118C246.1 117.8 246.3 117.6 246.5 117.5L248.3 117C248.5 116.9 248.7 117.1 248.8 117.3C248.9 117.5 248.7 117.7 248.5 117.8L246.7 118.3H246.6Z" fill="#1F1A54"/>
<path d="M212.4 90.6002C212.4 93.9002 206.5 100.8 206.5 100.8C206.5 100.8 200.6 93.8002 200.6 90.6002C200.6 87.4002 203.2 84.7002 206.5 84.7002C209.8 84.7002 212.4 87.3002 212.4 90.6002Z" fill="#1F1A54"/>
<path d="M206.4 101.2C206.3 101.2 206.2 101.2 206.1 101.1C205.9 100.8 200.1 94.0003 200.1 90.6003C200.1 87.1003 202.9 84.3003 206.4 84.3003C209.9 84.3003 212.7 87.1003 212.7 90.6003C212.7 94.0003 206.9 100.8 206.7 101.1C206.7 101.1 206.6 101.2 206.4 101.2ZM206.4 85.1003C203.3 85.1003 200.9 87.6003 200.9 90.6003C200.9 93.3003 205.3 98.8003 206.4 100.2C207.6 98.8003 211.9 93.3003 211.9 90.6003C212 87.5003 209.5 85.1003 206.4 85.1003Z" fill="#1F1A54"/>
<path d="M206.4 92.6001C207.504 92.6001 208.4 91.7047 208.4 90.6001C208.4 89.4955 207.504 88.6001 206.4 88.6001C205.295 88.6001 204.4 89.4955 204.4 90.6001C204.4 91.7047 205.295 92.6001 206.4 92.6001Z" fill="white"/>
<path d="M206.4 92.9003C205.1 92.9003 204.1 91.9003 204.1 90.6003C204.1 89.3003 205.1 88.3003 206.4 88.3003C207.7 88.3003 208.7 89.3003 208.7 90.6003C208.7 91.9003 207.7 92.9003 206.4 92.9003ZM206.4 89.0003C205.5 89.0003 204.8 89.7003 204.8 90.6003C204.8 91.5003 205.5 92.2003 206.4 92.2003C207.3 92.2003 208 91.5003 208 90.6003C208 89.7003 207.3 89.0003 206.4 89.0003Z" fill="#1F1A54"/>
<path d="M247.7 109.2C247.7 112.5 241.8 119.4 241.8 119.4C241.8 119.4 235.9 112.4 235.9 109.2C235.9 106 238.5 103.3 241.8 103.3C245 103.2 247.7 105.9 247.7 109.2Z" fill="#1F1A54"/>
<path d="M241.8 119.7C241.7 119.7 241.6 119.7 241.5 119.6C241.3 119.3 235.5 112.5 235.5 109.1C235.5 105.6 238.3 102.8 241.8 102.8C245.3 102.8 248.1 105.6 248.1 109.1C248.1 112.5 242.3 119.3 242.1 119.6C242 119.7 241.9 119.7 241.8 119.7ZM241.8 103.6C238.7 103.6 236.3 106.1 236.3 109.1C236.3 111.8 240.7 117.3 241.8 118.7C243 117.3 247.3 111.8 247.3 109.1C247.3 106.1 244.8 103.6 241.8 103.6Z" fill="#1F1A54"/>
<path d="M241.8 111.2C242.905 111.2 243.8 110.305 243.8 109.2C243.8 108.096 242.905 107.2 241.8 107.2C240.695 107.2 239.8 108.096 239.8 109.2C239.8 110.305 240.695 111.2 241.8 111.2Z" fill="white"/>
<path d="M241.8 111.5C240.5 111.5 239.5 110.5 239.5 109.2C239.5 107.9 240.5 106.9 241.8 106.9C243.1 106.9 244.1 107.9 244.1 109.2C244.1 110.5 243.1 111.5 241.8 111.5ZM241.8 107.6C240.9 107.6 240.2 108.3 240.2 109.2C240.2 110.1 240.9 110.8 241.8 110.8C242.7 110.8 243.4 110.1 243.4 109.2C243.4 108.3 242.6 107.6 241.8 107.6Z" fill="#1F1A54"/>
<path d="M271.7 81.9C271.7 85.2 265.8 92.1 265.8 92.1C265.8 92.1 259.9 85.1 259.9 81.9C259.9 78.7 262.5 76 265.8 76C269.1 76 271.7 78.6 271.7 81.9Z" fill="#1F1A54"/>
<path d="M265.8 92.5001C265.7 92.5001 265.6 92.5001 265.5 92.4001C265.3 92.1001 259.5 85.3001 259.5 81.9001C259.5 78.4001 262.3 75.6001 265.8 75.6001C269.3 75.6001 272.1 78.4001 272.1 81.9001C272.1 85.3001 266.3 92.1001 266.1 92.4001C266 92.4001 265.9 92.5001 265.8 92.5001ZM265.8 76.3001C262.7 76.3001 260.3 78.8001 260.3 81.8001C260.3 84.5001 264.7 90.0001 265.8 91.4001C267 90.0001 271.3 84.5001 271.3 81.8001C271.3 78.8001 268.8 76.3001 265.8 76.3001Z" fill="#1F1A54"/>
<path d="M265.8 83.8999C266.905 83.8999 267.8 83.0045 267.8 81.8999C267.8 80.7953 266.905 79.8999 265.8 79.8999C264.695 79.8999 263.8 80.7953 263.8 81.8999C263.8 83.0045 264.695 83.8999 265.8 83.8999Z" fill="white"/>
<path d="M265.8 84.2001C264.5 84.2001 263.5 83.2001 263.5 81.9001C263.5 80.6001 264.5 79.6001 265.8 79.6001C267.1 79.6001 268.1 80.6001 268.1 81.9001C268.1 83.2001 267.1 84.2001 265.8 84.2001ZM265.8 80.3001C264.9 80.3001 264.2 81.0001 264.2 81.9001C264.2 82.8001 264.9 83.5001 265.8 83.5001C266.7 83.5001 267.4 82.8001 267.4 81.9001C267.4 81.0001 266.7 80.3001 265.8 80.3001Z" fill="#1F1A54"/>
<path d="M265.8 123.4H265.7L262.3 122.3C262.2 122.2 262 122.1 262 121.9V121.8C262.1 121.6 262.3 121.5 262.5 121.6L265.6 122.6C265.8 122.5 266.2 122.6 266.2 122.9V123C266.2 123.1 266.1 123.2 266 123.3C265.9 123.3 265.9 123.4 265.8 123.4ZM258.9 121.2H258.8L255.3 120.1C255.1 120 255 119.9 255 119.7V119.6C255.1 119.4 255.3 119.3 255.5 119.4L259 120.5C259.2 120.5 259.3 120.7 259.3 120.9V121C259.2 121.1 259.1 121.2 258.9 121.2ZM265.8 119.5C265.6 119.5 265.4 119.3 265.4 119.1V115.4C265.4 115.2 265.6 115 265.8 115C266 115 266.2 115.2 266.2 115.4V119.1C266.2 119.4 266 119.5 265.8 119.5ZM251.9 118.9H251.8L248.3 117.8C248.2 117.8 248.1 117.7 248.1 117.6C248.1 117.5 248 117.4 248.1 117.3C248.2 117.1 248.4 117 248.6 117.1L252.1 118.2C252.2 118.2 252.4 118.4 252.4 118.5V118.6C252.2 118.8 252 118.9 251.9 118.9ZM265.8 112.2C265.6 112.2 265.4 112 265.4 111.8V108.1C265.4 107.9 265.6 107.7 265.8 107.7C266 107.7 266.2 107.9 266.2 108.1V111.8C266.2 112 266 112.2 265.8 112.2ZM265.8 104.8C265.6 104.8 265.4 104.6 265.4 104.4V100.7C265.4 100.5 265.6 100.3 265.8 100.3C266 100.3 266.2 100.5 266.2 100.7V104.4C266.2 104.6 266 104.8 265.8 104.8ZM265.8 97.3999C265.6 97.3999 265.4 97.1999 265.4 96.9999V93.2999C265.4 93.0999 265.6 92.8999 265.8 92.8999C266 92.8999 266.2 93.0999 266.2 93.2999V96.9999C266.2 97.2999 266 97.3999 265.8 97.3999Z" fill="#1F1A54"/>
<path d="M254.2 170.6L251.3 169.7L248.6 170.6L246.3 169.7L244.6 170.6V152.7H254.2V170.6Z" fill="white"/>
<path d="M254.2 171H254.1L251.4 170.1L248.8 171C248.7 171 248.6 171 248.5 171L246.3 170.1L244.8 170.9C244.7 171 244.5 171 244.4 170.9C244.3 170.8 244.2 170.7 244.2 170.6V152.6C244.2 152.4 244.4 152.2 244.6 152.2H254.2C254.4 152.2 254.6 152.4 254.6 152.6V170.6C254.6 170.7 254.5 170.8 254.4 170.9C254.4 171 254.3 171 254.2 171ZM246.3 169.3H246.4L248.6 170.2L251.2 169.3C251.3 169.3 251.4 169.3 251.4 169.3L253.8 170.1V153H245V170L246.2 169.4C246.2 169.3 246.2 169.3 246.3 169.3Z" fill="#1F1A54"/>
<path d="M273.5 210.3L269.8 208.4L265.2 210.3L260.6 208.4L257.2 210.3L254.2 208.4V190H273.5V210.3Z" fill="white"/>
<path d="M265.2 210.7H265.1L260.7 208.9L257.4 210.7C257.3 210.8 257.1 210.8 257 210.7L254 208.9C253.9 208.8 253.8 208.7 253.8 208.6V190C253.8 189.8 254 189.6 254.2 189.6H273.4C273.6 189.6 273.8 189.8 273.8 190V210.2C273.8 210.3 273.7 210.4 273.6 210.5C273.5 210.6 273.4 210.6 273.2 210.5L269.7 208.7L265.2 210.5C265.3 210.6 265.2 210.7 265.2 210.7ZM260.6 208.1H260.7L265.1 209.9L269.6 208.1C269.7 208.1 269.8 208.1 269.9 208.1L273 209.7V190.4H254.5V208.2L257.1 209.8L260.4 208.1C260.5 208.1 260.6 208.1 260.6 208.1Z" fill="#1F1A54"/>
<path d="M298.7 232.4V223.1L290.7 218.4L282.6 223.1V232.4L290.7 237.1L298.7 232.4Z" fill="#FFD400"/>
<path d="M290.7 237.5C290.6 237.5 290.6 237.5 290.5 237.5L282.4 232.8C282.3 232.7 282.2 232.6 282.2 232.5V223.2C282.2 223.1 282.3 222.9 282.4 222.9L290.5 218.2C290.6 218.1 290.8 218.1 290.9 218.2L299 222.9C299.1 223 299.2 223.1 299.2 223.2V232.5C299.2 232.6 299.1 232.8 299 232.8L290.9 237.5C290.8 237.5 290.7 237.5 290.7 237.5ZM282.9 232.2L290.6 236.7L298.3 232.2V223.3L290.6 218.8L282.9 223.3V232.2Z" fill="#1F1A54"/>
<path d="M269.4 182.1V175.1L263.3 171.6L257.2 175.1V182.1L263.3 185.6L269.4 182.1Z" fill="#FFD400"/>
<path d="M263.3 186C263.2 186 263.2 186 263.1 186L257 182.5C256.9 182.4 256.8 182.3 256.8 182.2V175.2C256.8 175.1 256.9 174.9 257 174.9L263.1 171.4C263.2 171.3 263.4 171.3 263.5 171.4L269.6 174.9C269.7 175 269.8 175.1 269.8 175.2V182.2C269.8 182.3 269.7 182.5 269.6 182.5L263.5 186C263.4 186 263.4 186 263.3 186ZM257.6 181.9L263.3 185.2L269 181.9V175.3L263.3 172L257.6 175.3V181.9Z" fill="#1F1A54"/>
</g>
<defs>
<clipPath id="clip0">
<rect width="375" height="300" fill="white"/>
</clipPath>
</defs>
</svg>
