<svg width="375" height="300" viewBox="0 0 375 300" fill="none" xmlns="http://www.w3.org/2000/svg">
<path d="M0.25 164.23C11.84 161.66 24.81 161.56 33.35 169.49C38.03 173.84 40.3 183.4 38.35 190.17C36.4 196.94 30.25 201 25.48 197.78C13.82 190.01 30.97 169.67 44.14 164.85C57.31 160.03 71.97 162.85 85.36 167C113.77 175.8 140.36 190.38 169.46 196.53C198.56 202.68 307.46 212.04 316.15 183.61C318.43 176.18 304.15 172.01 298.44 180.32C294.07 186.75 296.68 196.05 302.58 201.11C308.48 206.17 316.47 207.88 324.15 209.05C340.82 211.59 358.56 212.05 375.25 209.12" stroke="white" stroke-width="1.8" stroke-miterlimit="10" stroke-linecap="round" stroke-dasharray="0 6 6 0"/>
<path d="M71.61 269.56C99.3347 269.56 121.81 267.81 121.81 265.65C121.81 263.491 99.3347 261.74 71.61 261.74C43.8853 261.74 21.41 263.491 21.41 265.65C21.41 267.81 43.8853 269.56 71.61 269.56Z" fill="#FFEB86" fill-opacity="0.6"/>
<path d="M84.71 51.1402C81.86 51.1402 74.29 47.3802 74.05 47.2702C74.4465 48.8135 74.5717 50.414 74.42 52.0002C74.4044 53.0023 74.1802 53.9902 73.7618 54.9009C73.3435 55.8117 72.7401 56.6254 71.99 57.2902C71.3354 55.8296 70.1686 54.6592 68.71 54.0002C67.926 53.7176 67.0654 53.7337 66.2925 54.0454C65.5196 54.3572 64.8886 54.9427 64.52 55.6902C64.19 54.2102 62.25 51.1402 63.25 46.9102C63.6205 45.3477 64.5949 43.9957 65.96 43.1502C66.4042 42.853 66.8849 42.6144 67.39 42.4402C67.5809 42.3575 67.7783 42.2907 67.98 42.2402C68.12 42.0002 68.27 41.7702 68.42 41.5602C73.3 34.7302 86.18 37.8202 93.14 44.6202C98.94 50.2702 95.49 51.9202 92.39 50.9302C92.14 50.8502 91.83 50.7502 91.48 50.6202C88.57 49.6202 82.65 47.2802 82.22 47.1202C82.61 47.3902 87.49 51.2102 84.71 51.1402Z" fill="#1F1A54"/>
<path d="M74.05 47.2701C74.29 47.3801 81.86 51.0901 84.71 51.1401C87.56 51.1901 82.61 47.3901 82.22 47.1401C82.65 47.3001 88.57 49.6301 91.48 50.6401C91.83 56.1501 91.93 64.2101 90.87 67.5301C89.87 70.5901 88.13 72.6601 85.1 73.3801V77.5201L86.7 78.4201C86.1386 79.9158 85.1934 81.2373 83.9593 82.2518C82.7253 83.2663 81.2459 83.9381 79.6699 84.1996C78.0939 84.461 76.4768 84.303 74.9813 83.7414C73.4857 83.1798 72.1644 82.2343 71.15 81.0001L68.64 77.9301L70.99 77.0001V66.0001C67.29 65.4501 64.51 63.5801 63.82 60.1101C63.4914 58.5979 63.7411 57.0174 64.52 55.6801C64.8903 54.9345 65.522 54.3511 66.2947 54.0413C67.0675 53.7315 67.9272 53.7168 68.71 54.0001C70.1579 54.6514 71.3199 55.8063 71.98 57.2501C72.727 56.5908 73.3294 55.7839 73.7493 54.8804C74.1692 53.9769 74.3976 52.9962 74.42 52.0001C74.5717 50.4139 74.4465 48.8135 74.05 47.2701Z" fill="white"/>
<path d="M67.97 42.2299C64.74 41.6599 63.9 34.7899 66.55 36.5399C67.3237 37.0928 67.9149 37.8639 68.248 38.7546C68.5811 39.6453 68.641 40.6151 68.42 41.5399C68.25 41.7599 68.11 41.9999 67.97 42.2299Z" fill="#1F1A54"/>
<path d="M65.93 43.1498C60.93 44.1498 58.82 41.0198 61.63 40.3598C64.44 39.6998 67.38 42.4298 67.38 42.4298C66.8748 42.604 66.3941 42.8426 65.95 43.1398L65.93 43.1498Z" fill="#1F1A54"/>
<path d="M91.47 50.6201C91.82 56.1301 91.92 64.1901 90.86 67.5101C89.86 70.5701 88.12 72.6401 85.09 73.3601C84.8264 73.4255 84.5593 73.4756 84.29 73.5101C82.66 73.7601 78.64 73.2401 76.37 71.0401" stroke="#1F1A54" stroke-width="0.74" stroke-linecap="round" stroke-linejoin="round"/>
<path d="M72.25 57.9402C72.25 57.9402 72.16 57.6802 71.97 57.2802C71.3183 55.8268 70.1594 54.6608 68.71 54.0002C67.926 53.7176 67.0654 53.7337 66.2925 54.0454C65.5196 54.3572 64.8886 54.9427 64.52 55.6902C63.7411 57.0274 63.4914 58.6079 63.82 60.1202C64.51 63.5902 67.29 65.4602 70.99 66.0102" stroke="#1F1A54" stroke-width="0.74" stroke-miterlimit="10" stroke-linecap="round"/>
<path d="M65.93 43.1499C64.5763 44.0013 63.6132 45.3525 63.25 46.9099C62.25 51.1399 64.25 54.2099 64.54 55.7199" stroke="#1F1A54" stroke-width="0.74" stroke-linecap="round" stroke-linejoin="round"/>
<path d="M68.41 41.5498C68.26 41.7598 68.11 41.9898 67.97 42.2298C67.7682 42.2803 67.5708 42.3472 67.38 42.4298C66.8748 42.6041 66.3941 42.8427 65.95 43.1398" stroke="#1F1A54" stroke-width="0.74" stroke-linecap="round" stroke-linejoin="round"/>
<path d="M82.25 47.0899C82.68 47.2499 88.6 49.5799 91.51 50.5899C91.86 50.7199 92.17 50.8199 92.42 50.8999C95.52 51.8999 98.97 50.2399 93.17 44.5899C86.17 37.7899 73.33 34.6999 68.45 41.5299" stroke="#1F1A54" stroke-width="0.74" stroke-linecap="round" stroke-linejoin="round"/>
<path d="M74.04 47.2599C74.28 47.3699 81.85 51.0799 84.7 51.1299C87.55 51.1799 82.6 47.3799 82.21 47.1299" stroke="#1F1A54" stroke-width="0.74" stroke-linecap="round" stroke-linejoin="round"/>
<path d="M71.99 57.2798C72.7388 56.6161 73.3415 55.8041 73.7598 54.8951C74.1781 53.9862 74.4029 53.0002 74.42 51.9998C74.5705 50.4169 74.4453 48.8199 74.05 47.2798" stroke="#1F1A54" stroke-width="0.74" stroke-linecap="round" stroke-linejoin="round"/>
<path d="M67.38 42.4301C67.38 42.4301 64.4601 39.7101 61.6301 40.3601C58.8001 41.0101 60.9501 44.1401 65.9301 43.1501" stroke="#1F1A54" stroke-width="0.74" stroke-linecap="round" stroke-linejoin="round"/>
<path d="M70.99 66.04V76.99L68.64 77.91" stroke="#1F1A54" stroke-width="0.74" stroke-linecap="round" stroke-linejoin="round"/>
<path d="M85.09 73.3701V77.5101L86.69 78.4101" stroke="#1F1A54" stroke-width="0.74" stroke-linecap="round" stroke-linejoin="round"/>
<path d="M80.67 58.54C81.1173 58.54 81.48 58.0833 81.48 57.52C81.48 56.9567 81.1173 56.5 80.67 56.5C80.2226 56.5 79.86 56.9567 79.86 57.52C79.86 58.0833 80.2226 58.54 80.67 58.54Z" fill="#1F1A54"/>
<path d="M88.0099 58.6699C88.4573 58.6699 88.8199 58.2132 88.8199 57.6499C88.8199 57.0866 88.4573 56.6299 88.0099 56.6299C87.5626 56.6299 87.2 57.0866 87.2 57.6499C87.2 58.2132 87.5626 58.6699 88.0099 58.6699Z" fill="#1F1A54"/>
<path d="M79.25 54.4801C79.7445 54.1721 80.318 54.0146 80.9004 54.0271C81.4829 54.0395 82.0491 54.2212 82.53 54.5501" stroke="#1F1A54" stroke-width="0.74" stroke-linecap="round" stroke-linejoin="round"/>
<path d="M86.25 54.4798C86.7164 54.1724 87.2614 54.0058 87.82 53.9998C88.4239 53.9916 89.0151 54.1735 89.51 54.5198" stroke="#1F1A54" stroke-width="0.74" stroke-linecap="round" stroke-linejoin="round"/>
<path d="M77.95 63.6299C78.188 64.4738 78.6551 65.2353 79.2993 65.8301C79.9435 66.4249 80.7398 66.8298 81.6 66.9999" stroke="#1F1A54" stroke-width="0.74" stroke-linecap="round" stroke-linejoin="round"/>
<path d="M83.25 62.2402C83.5803 62.4128 83.9474 62.503 84.32 62.503C84.6926 62.503 85.0597 62.4128 85.39 62.2402" stroke="#1F1A54" stroke-width="0.74" stroke-linecap="round" stroke-linejoin="round"/>
<path d="M67.38 57.6499C67.38 57.6499 69.58 57.9799 69.91 61.4499" stroke="#1F1A54" stroke-width="0.74" stroke-miterlimit="10" stroke-linecap="round"/>
<path d="M63.13 111.66L49.51 112.81L47.25 113C47.25 113 46.19 91.3102 50.25 86.4202C53.43 82.5902 68.67 77.9102 68.67 77.9102L71.16 81.0002C72.1746 82.2342 73.4965 83.1791 74.9925 83.7396C76.4886 84.3001 78.1059 84.4564 79.6817 84.1928C81.2574 83.9292 82.7358 83.2549 83.9679 82.238C85.2 81.221 86.1424 79.8973 86.7 78.4002L115.56 88.6402L112.74 106.76L107.25 105.43L107.08 104C107.059 103.781 106.994 103.569 106.891 103.375C106.787 103.181 106.646 103.009 106.476 102.87C106.306 102.731 106.111 102.626 105.9 102.563C105.69 102.499 105.469 102.478 105.25 102.5L97.33 103.28C96.8883 103.328 96.4832 103.548 96.2025 103.892C95.9218 104.237 95.788 104.678 95.83 105.12L96.56 112.47C94.37 115.19 91.93 117.82 89.56 118.29C85.39 119.11 67.84 120.36 64.32 122.78C64.35 123.37 63.13 111.66 63.13 111.66ZM98.04 127.42L97.9 126C94.58 126.6 91.1 127.49 91.1 127.49C85.85 128.73 68.27 137.49 59.39 136.92C58.254 136.802 57.2059 136.255 56.46 135.39L56.28 135.56V150.61C56.28 150.61 88.85 156.72 101.92 151.18L101.12 128.76L99.87 128.88C99.4345 128.925 98.9986 128.798 98.6563 128.524C98.314 128.251 98.0927 127.855 98.04 127.42Z" fill="#FFD400"/>
<path d="M61.9 100.35L63.13 111.65L47.25 113C47.25 113 46.19 91.3102 50.25 86.4302C53.43 82.5902 68.67 77.9102 68.67 77.9102L71.15 81.0002C72.1617 82.2352 73.4808 83.182 74.9746 83.7453C76.4684 84.3086 78.0842 84.4686 79.6595 84.2091C81.2347 83.9496 82.7139 83.2798 83.948 82.2671C85.1822 81.2543 86.1279 79.9344 86.69 78.4402V78.4402L115.57 88.6702L112.74 106.79L107.25 105.42" stroke="#1F1A54" stroke-width="0.74" stroke-linecap="round" stroke-linejoin="round"/>
<path d="M96.56 112.43L95.83 105.07C95.8079 104.851 95.8292 104.63 95.8927 104.42C95.9562 104.21 96.0606 104.014 96.2 103.844C96.3393 103.674 96.5109 103.533 96.7048 103.429C96.8987 103.326 97.1112 103.261 97.33 103.24L105.25 102.46C105.469 102.438 105.69 102.459 105.9 102.523C106.111 102.586 106.306 102.691 106.476 102.83C106.647 102.969 106.787 103.141 106.891 103.335C106.994 103.529 107.059 103.741 107.08 103.96L107.91 112.34C106.272 112.241 104.629 112.4 103.04 112.81C100.04 113.65 105.1 107.46 103.04 105.95C101.85 105.1 99.43 108.84 96.56 112.43Z" fill="#FFD400"/>
<path d="M97.9 126C99.2811 125.735 100.677 125.555 102.08 125.46C102.08 125.46 106.53 125.66 109.08 124.46L109.27 126.3C109.292 126.519 109.27 126.741 109.206 126.952C109.142 127.163 109.037 127.36 108.896 127.53C108.756 127.7 108.583 127.841 108.388 127.944C108.193 128.047 107.98 128.11 107.76 128.13L99.85 128.92C99.63 128.942 99.4077 128.92 99.1961 128.856C98.9844 128.792 98.7874 128.687 98.6165 128.547C98.4455 128.407 98.304 128.234 98.1999 128.039C98.0958 127.844 98.0313 127.63 98.01 127.41L97.9 126Z" fill="#FFD400"/>
<path d="M63.13 111.65C63.13 111.65 64.36 123.37 64.36 122.73C67.87 120.32 85.42 119.06 89.59 118.24C91.94 117.77 94.38 115.15 96.59 112.43C99.46 108.84 101.88 105.1 103.05 105.96C105.11 107.47 100.05 113.66 103.05 112.82C104.639 112.41 106.282 112.251 107.92 112.35C109.55 112.58 110.24 113.42 110.23 114.18C110.224 114.438 110.156 114.69 110.03 114.915C109.905 115.139 109.726 115.33 109.51 115.47C109.51 115.47 110.62 116.02 110.69 116.87C110.729 117.117 110.707 117.37 110.627 117.607C110.547 117.844 110.411 118.057 110.23 118.23C110.431 118.396 110.595 118.601 110.712 118.834C110.829 119.066 110.896 119.32 110.91 119.58C110.918 119.837 110.872 120.092 110.776 120.329C110.679 120.567 110.534 120.782 110.35 120.96C110.35 120.96 110.91 121.17 110.91 122.12C110.875 122.643 110.686 123.144 110.365 123.559C110.044 123.974 109.608 124.285 109.11 124.45C106.53 125.67 102.11 125.45 102.11 125.45C100.707 125.545 99.3111 125.725 97.93 125.99C94.62 126.61 91.13 127.49 91.13 127.49C85.88 128.74 68.3 137.49 59.42 136.92C52.02 136.47 49.54 112.78 49.54 112.78L63.13 111.65Z" fill="white"/>
<path d="M96.56 112.43L95.83 105.07C95.8079 104.851 95.8292 104.63 95.8927 104.42C95.9562 104.21 96.0606 104.014 96.2 103.844C96.3393 103.674 96.5109 103.533 96.7048 103.429C96.8987 103.326 97.1112 103.261 97.33 103.24L105.25 102.46C105.469 102.438 105.69 102.459 105.9 102.523C106.111 102.586 106.306 102.691 106.476 102.83C106.647 102.969 106.787 103.141 106.891 103.335C106.994 103.529 107.059 103.741 107.08 103.96L107.91 112.34" stroke="#1F1A54" stroke-width="0.74" stroke-linecap="round" stroke-linejoin="round"/>
<path d="M109.11 124.46L109.3 126.3C109.322 126.519 109.3 126.741 109.236 126.952C109.172 127.163 109.067 127.36 108.926 127.53C108.786 127.7 108.613 127.841 108.418 127.944C108.223 128.047 108.01 128.11 107.79 128.13L99.88 128.92C99.66 128.942 99.4377 128.92 99.2261 128.856C99.0144 128.792 98.8174 128.687 98.6465 128.547C98.4755 128.407 98.334 128.234 98.2299 128.039C98.1258 127.844 98.0613 127.63 98.04 127.41L97.9 126" stroke="#1F1A54" stroke-width="0.74" stroke-linecap="round" stroke-linejoin="round"/>
<path d="M108.25 118.77C108.961 118.847 109.675 118.655 110.25 118.23C110.431 118.057 110.567 117.843 110.647 117.607C110.727 117.37 110.749 117.117 110.71 116.87C110.64 116.02 109.53 115.47 109.53 115.47" stroke="#1F1A54" stroke-width="0.74" stroke-linecap="round" stroke-linejoin="round"/>
<path d="M107.89 116.11C108.467 116.017 109.017 115.799 109.5 115.47C109.716 115.33 109.895 115.139 110.02 114.915C110.146 114.69 110.214 114.438 110.22 114.18C110.22 113.42 109.54 112.58 107.91 112.35C106.272 112.251 104.629 112.41 103.04 112.82C100.04 113.66 105.1 107.47 103.04 105.96C101.87 105.1 99.45 108.84 96.58 112.43C94.4 115.15 91.96 117.77 89.58 118.24C85.41 119.06 67.86 120.32 64.35 122.73C64.35 123.37 63.12 111.65 63.12 111.65L49.5 112.81C49.5 112.81 51.99 136.5 59.39 137C68.27 137.54 85.85 128.82 91.1 127.57C91.1 127.57 94.59 126.69 97.9 126.07C99.281 125.805 100.677 125.625 102.08 125.53C102.08 125.53 106.53 125.73 109.08 124.53C109.578 124.365 110.014 124.054 110.335 123.639C110.656 123.224 110.845 122.723 110.88 122.2C110.88 121.25 110.32 121.04 110.32 121.04" stroke="#1F1A54" stroke-width="0.74" stroke-linecap="round" stroke-linejoin="round"/>
<path d="M107.89 121.84C108.784 121.83 109.648 121.524 110.35 120.97C110.534 120.792 110.679 120.577 110.776 120.339C110.872 120.102 110.918 119.847 110.91 119.59C110.896 119.33 110.829 119.076 110.712 118.844C110.595 118.612 110.431 118.406 110.23 118.24" stroke="#1F1A54" stroke-width="0.74" stroke-linecap="round" stroke-linejoin="round"/>
<path d="M38.36 234.34L55.97 201.11L56.25 150.65C56.25 150.65 86.3 156.29 100.25 151.83L96.77 247.93H82.62V209.16L77.84 176.81L72 205.58L50.63 242.36L38.36 234.34Z" fill="#1F1A54"/>
<path d="M56.25 135.6V150.65C56.25 150.65 86.3 156.29 100.25 151.83C100.807 151.657 101.355 151.453 101.89 151.22L101.08 128.8" stroke="#1F1A54" stroke-width="0.74" stroke-linecap="round" stroke-linejoin="round"/>
<path d="M77.8101 176.81L82.5901 209.16L82.6201 247.93H96.8101L100.29 151.83V151.81" stroke="#1F1A54" stroke-width="0.74" stroke-linecap="round" stroke-linejoin="round"/>
<path d="M85.44 168.13L77.81 176.81L71.97 205.59L50.63 242.36L38.36 234.34L55.97 201.11L56.28 150.65" stroke="#1F1A54" stroke-width="0.74" stroke-linecap="round" stroke-linejoin="round"/>
<mask id="mask0" mask-type="alpha" maskUnits="userSpaceOnUse" x="47" y="77" width="69" height="77">
<path d="M63.1297 111.66L49.5097 112.81L47.2497 113C47.2497 113 46.1897 91.3102 50.2497 86.4202C53.4297 82.5902 68.6697 77.9102 68.6697 77.9102L71.1597 81.0002C72.1743 82.2342 73.4962 83.1791 74.9923 83.7396C76.4883 84.3001 78.1057 84.4564 79.6814 84.1928C81.2571 83.9292 82.7355 83.2549 83.9676 82.238C85.1998 81.221 86.1421 79.8973 86.6997 78.4002L115.56 88.6402L112.74 106.76L107.25 105.43L107.08 104C107.058 103.781 106.994 103.569 106.891 103.375C106.787 103.181 106.646 103.009 106.476 102.87C106.306 102.731 106.11 102.626 105.9 102.563C105.689 102.499 105.468 102.478 105.25 102.5L97.3297 103.28C96.888 103.328 96.483 103.548 96.2023 103.892C95.9215 104.237 95.7877 104.678 95.8297 105.12L96.5597 112.47C94.3697 115.19 91.9297 117.82 89.5597 118.29C85.3897 119.11 67.8397 120.36 64.3197 122.78C64.3497 123.37 63.1297 111.66 63.1297 111.66ZM98.0397 127.42L97.8997 126C94.5797 126.6 91.0997 127.49 91.0997 127.49C85.8497 128.73 68.2697 137.49 59.3897 136.92C58.2538 136.802 57.2057 136.255 56.4597 135.39L56.2797 135.56V150.61C56.2797 150.61 88.8497 156.72 101.92 151.18L101.12 128.76L99.8697 128.88C99.4342 128.925 98.9984 128.798 98.6561 128.524C98.3138 128.251 98.0925 127.855 98.0397 127.42Z" fill="#FFD400"/>
</mask>
<g mask="url(#mask0)">
<path d="M42.9297 83.4404H132.38" stroke="#1F1A54" stroke-width="3.69" stroke-linejoin="round"/>
<path d="M42.9297 91.5903H132.38" stroke="#1F1A54" stroke-width="3.69" stroke-linejoin="round"/>
<path d="M42.9297 99.7505H132.38" stroke="#1F1A54" stroke-width="3.69" stroke-linejoin="round"/>
<path d="M42.9297 107.91H132.38" stroke="#1F1A54" stroke-width="3.69" stroke-linejoin="round"/>
<path d="M42.9297 116.07H132.38" stroke="#1F1A54" stroke-width="3.69" stroke-linejoin="round"/>
<path d="M42.9297 124.22H132.38" stroke="#1F1A54" stroke-width="3.69" stroke-linejoin="round"/>
<path d="M42.9297 132.38H132.38" stroke="#1F1A54" stroke-width="3.69" stroke-linejoin="round"/>
<path d="M42.9297 140.54H132.38" stroke="#1F1A54" stroke-width="3.69" stroke-linejoin="round"/>
<path d="M42.9297 148.7H132.38" stroke="#1F1A54" stroke-width="3.69" stroke-linejoin="round"/>
</g>
<path d="M63.13 111.66L49.51 112.81L47.25 113C47.25 113 46.19 91.3102 50.25 86.4202C53.43 82.5902 68.67 77.9102 68.67 77.9102L71.16 81.0002C72.1746 82.2342 73.4965 83.1791 74.9925 83.7396C76.4886 84.3001 78.1059 84.4564 79.6817 84.1928C81.2574 83.9292 82.7358 83.2549 83.9679 82.238C85.2 81.221 86.1424 79.8973 86.7 78.4002L115.56 88.6402L112.74 106.76L107.25 105.43L107.08 104C107.059 103.781 106.994 103.569 106.891 103.375C106.787 103.181 106.646 103.009 106.476 102.87C106.306 102.731 106.111 102.626 105.9 102.563C105.69 102.499 105.469 102.478 105.25 102.5L97.33 103.28C96.8883 103.328 96.4832 103.548 96.2025 103.892C95.9218 104.237 95.788 104.678 95.83 105.12L96.56 112.47C94.37 115.19 91.93 117.82 89.56 118.29C85.39 119.11 67.84 120.36 64.32 122.78C64.35 123.37 63.13 111.66 63.13 111.66ZM98.04 127.42L97.9 126C94.58 126.6 91.1 127.49 91.1 127.49C85.85 128.73 68.27 137.49 59.39 136.92C58.254 136.802 57.2059 136.255 56.46 135.39L56.28 135.56V150.61C56.28 150.61 88.85 156.72 101.92 151.18L101.12 128.76L99.87 128.88C99.4345 128.925 98.9986 128.798 98.6563 128.524C98.314 128.251 98.0927 127.855 98.04 127.42V127.42Z" stroke="#1F1A54" stroke-width="0.74" stroke-linecap="round" stroke-linejoin="round"/>
<path d="M84.4 255.54C84.6894 255.647 84.9871 255.731 85.29 255.79C86.9127 256.157 88.6053 256.067 90.18 255.53C91.8861 254.92 93.5221 254.129 95.06 253.17C96.06 252.54 96.7 252.03 96.6 251.91C97.2056 252.622 97.9054 253.247 98.68 253.77C99.5224 254.358 100.401 254.892 101.31 255.37C102.097 255.785 102.904 256.159 103.73 256.49C104.24 256.7 104.73 256.89 105.28 257.06L106.34 257.39C107.95 257.89 109.64 258.39 110.87 258.67C112.43 259.09 114.24 259.42 114.97 260.14C115.31 260.425 115.546 260.816 115.64 261.25C115.76 262.25 114.64 263.02 112.53 263.49C107.93 264.49 83.46 260.4 83.46 260.4C83.46 260.4 83.89 258.62 84.4 255.54Z" fill="white"/>
<path d="M90.18 255.53C88.6054 256.067 86.9127 256.157 85.29 255.79L85.35 255.53V247.92H95.06L94.94 253L95.06 253.2C93.5209 254.148 91.885 254.929 90.18 255.53Z" fill="#FFD400"/>
<path d="M83.4601 260.4C83.4601 260.4 107.93 264.53 112.53 263.49C114.6 263.02 115.76 262.23 115.64 261.25C115.64 261.25 115.97 261.68 115.64 263.14C115.18 265.14 113.36 266.73 107.46 266.65C103.54 266.65 84.9401 265.89 83.0701 265.65C81.2001 265.41 82.7801 262.66 83.4601 260.4Z" fill="white"/>
<path d="M56.55 264.57C55.1 266.02 52.72 266.4 47.76 263.2C44.47 261.09 29.07 250.6 27.61 249.43C26.15 248.26 28.95 246.72 30.72 245.17C30.72 245.17 49.28 261.65 53.72 263.17C55.72 263.87 57.12 263.81 57.53 262.93C57.53 262.93 57.61 263.51 56.55 264.57Z" fill="white"/>
<path d="M45.7401 245.13C43.4834 245.276 41.2174 245.101 39.0101 244.61C37.4871 244.247 36.0825 243.5 34.9301 242.44L35.0301 242.33L39.2501 234.94L47.8801 240.59L45.6601 244.78L45.7401 245.13Z" fill="#FFD400"/>
<path d="M49.98 252.61C50.29 253.05 50.63 253.49 50.98 253.91C51.33 254.33 51.45 254.47 51.71 254.75C52.81 256.02 54 257.31 54.86 258.25C55.97 259.43 57.32 260.66 57.57 261.67C57.7257 262.086 57.7257 262.544 57.57 262.96C57.16 263.84 55.75 263.9 53.76 263.2C49.31 261.65 30.76 245.2 30.76 245.2C30.76 245.2 32.07 243.92 34.15 241.56C34.3903 241.892 34.6652 242.197 34.97 242.47C36.1225 243.53 37.5271 244.277 39.05 244.64C41.2574 245.131 43.5234 245.306 45.78 245.16C46.17 245.16 46.4 245.06 46.4 244.98C46.5477 245.898 46.8167 246.793 47.2 247.64C47.5937 248.59 48.0514 249.512 48.57 250.4C48.9976 251.163 49.4684 251.901 49.98 252.61Z" fill="white"/>
<path d="M84.4 255.53C84.6894 255.637 84.9871 255.721 85.29 255.78C86.9127 256.147 88.6053 256.057 90.18 255.52C91.8861 254.91 93.5221 254.118 95.06 253.16C96.06 252.53 96.7 252.02 96.6 251.9C97.2056 252.611 97.9054 253.237 98.68 253.76C99.5224 254.348 100.401 254.882 101.31 255.36C102.097 255.775 102.904 256.149 103.73 256.48C104.24 256.69 104.73 256.88 105.28 257.05L106.34 257.38C107.95 257.88 109.64 258.38 110.87 258.66C112.43 259.08 114.24 259.41 114.97 260.13C115.31 260.415 115.546 260.806 115.64 261.24C115.76 262.24 114.64 263.01 112.53 263.48C107.93 264.48 83.46 260.39 83.46 260.39C83.46 260.39 83.89 258.61 84.4 255.53" stroke="#1F1A54" stroke-width="0.74" stroke-linecap="round" stroke-linejoin="round"/>
<path d="M115.65 261.25C115.65 261.25 115.98 261.68 115.65 263.14C115.19 265.14 113.37 266.73 107.47 266.65C103.55 266.65 84.95 265.89 83.08 265.65C81.21 265.41 82.78 262.65 83.46 260.38" stroke="#1F1A54" stroke-width="0.74" stroke-linecap="round" stroke-linejoin="round"/>
<path d="M97.63 254.95L98.68 253.77L99.77 252.55" stroke="#1F1A54" stroke-width="0.74" stroke-linecap="round" stroke-linejoin="round"/>
<path d="M100.23 256.84L101.32 255.37L102.17 254.22" stroke="#1F1A54" stroke-width="0.74" stroke-linecap="round" stroke-linejoin="round"/>
<path d="M102.79 257.99L103.73 256.5L104.55 255.18" stroke="#1F1A54" stroke-width="0.74" stroke-linecap="round" stroke-linejoin="round"/>
<path d="M105.37 258.95L106.34 257.39L107.12 256.14" stroke="#1F1A54" stroke-width="0.74" stroke-linecap="round" stroke-linejoin="round"/>
<path d="M46.36 244.94C46.5077 245.858 46.7767 246.752 47.16 247.6C47.5537 248.55 48.0114 249.472 48.53 250.36C48.9696 251.134 49.4537 251.882 49.98 252.6C50.29 253.04 50.63 253.48 50.98 253.9C51.33 254.32 51.45 254.46 51.71 254.74C52.81 256.01 54 257.3 54.86 258.24C55.97 259.42 57.32 260.65 57.57 261.66C57.7257 262.076 57.7257 262.534 57.57 262.95V262.95C57.16 263.83 55.75 263.89 53.76 263.19C49.31 261.64 30.76 245.19 30.76 245.19C30.76 245.19 32.07 243.91 34.15 241.55C34.3903 241.881 34.6652 242.186 34.97 242.46C36.1225 243.52 37.5271 244.267 39.05 244.63C41.2574 245.121 43.5234 245.296 45.78 245.15C46.17 245.15 46.4 245.05 46.4 244.97" stroke="#1F1A54" stroke-width="0.74" stroke-linecap="round" stroke-linejoin="round"/>
<path d="M57.55 263C57.55 263 57.61 263.55 56.55 264.61C55.1 266.06 52.72 266.44 47.76 263.24C44.47 261.13 29.07 250.64 27.61 249.47C26.15 248.3 28.95 246.76 30.72 245.21" stroke="#1F1A54" stroke-width="0.74" stroke-linecap="round" stroke-linejoin="round"/>
<path d="M45.63 248.06L47.16 247.61L48.71 247.16" stroke="#1F1A54" stroke-width="0.74" stroke-linecap="round" stroke-linejoin="round"/>
<path d="M46.83 251.05L48.53 250.38L49.87 249.85" stroke="#1F1A54" stroke-width="0.74" stroke-linecap="round" stroke-linejoin="round"/>
<path d="M48.39 253.37L49.98 252.6L51.37 251.93" stroke="#1F1A54" stroke-width="0.74" stroke-linecap="round" stroke-linejoin="round"/>
<path d="M50.0601 255.56L51.7201 254.75L53.0401 254.12" stroke="#1F1A54" stroke-width="0.74" stroke-linecap="round" stroke-linejoin="round"/>
<path d="M45.69 244.78L47.92 240.59L39.28 234.94L35.03 242.33" stroke="#1F1A54" stroke-width="0.74" stroke-linecap="round" stroke-linejoin="round"/>
<path d="M85.35 255.53V247.92H95.06L94.94 252.97" stroke="#1F1A54" stroke-width="0.74" stroke-linecap="round" stroke-linejoin="round"/>
<path d="M82.82 172.78L78.16 178.09L77.72 180.29" stroke="#FFD400" stroke-width="0.46" stroke-linecap="round" stroke-linejoin="round"/>
<path d="M107.88 116.11C107.88 116.11 110.2 115.79 110.22 114.18C110.22 113.42 109.53 112.57 107.88 112.36C106.245 112.251 104.604 112.41 103.02 112.83C100.02 113.67 105.08 107.47 103.02 105.96C100.96 104.45 95.02 117.16 89.59 118.24C85.42 119.07 67.86 120.32 64.35 122.73C64.35 123.37 63.13 111.65 63.13 111.65L49.5 112.81C49.5 112.81 51.99 136.51 59.39 136.96C68.27 137.49 85.85 128.77 91.1 127.53C91.1 127.53 98.62 125.61 102.1 125.53C102.1 125.53 110.92 125.94 110.92 122.19C110.92 121.19 110.36 121.03 110.36 121.03" stroke="#1F1A54" stroke-width="0.74" stroke-linecap="round" stroke-linejoin="round"/>
<path d="M146.82 57.0001C147.67 57.5501 147.74 58.0601 147.5 58.6101C147.401 58.7291 147.317 58.8601 147.25 59.0001L146.8 59.6701C146.11 60.7301 145.23 61.3801 144.3 60.7701C143.37 60.1601 143.61 59.1001 144.3 58.0401C144.368 57.9535 144.431 57.8634 144.49 57.7701C144.512 57.7512 144.529 57.7271 144.54 57.7001C145.18 56.9001 145.88 56.3901 146.82 57.0001Z" fill="white"/>
<path d="M146.81 59.73L147.26 59.06C146.69 60.5 145.91 64.23 145.54 65.21C144.54 67.85 141.91 70.84 140.79 72.37C137.79 76.43 135.51 94.18 132.02 102.57C130.97 105.11 128.64 106.87 125.92 106.42L113.19 104L115.57 88.63L122.33 91L130.25 72.83C132.45 67.72 125.33 55.65 127.74 54.83C130.15 54.01 132.39 61.68 133.4 58.72C134.14 56.58 136.57 50.82 138.29 47.2C138.65 46.44 139.29 44.76 140.75 45.39C142.21 46.02 141.32 48.23 141.32 48.23L138.68 55.55C138.19 56.55 138.03 57.62 138.85 58.15C140.31 59.15 141.24 57.48 142.12 56.15C141.29 57.43 140.85 58.61 141.84 59.26C142.64 59.78 143.5 59.19 144.28 58.15C143.59 59.21 143.28 60.21 144.28 60.88C145.28 61.55 146.12 60.79 146.81 59.73Z" fill="white"/>
<path d="M144.96 54.4598C146.31 55.3398 145.5 56.3198 144.64 57.6298L144.56 57.7498C144.549 57.7768 144.532 57.8009 144.51 57.8198L144.32 58.0898C143.54 59.0898 142.68 59.7198 141.88 59.1998C140.88 58.5498 141.33 57.3698 142.16 56.0898C142.16 56.0898 142.16 56.0898 142.16 56.0298C143.05 54.7298 143.94 53.7898 144.96 54.4598Z" fill="white"/>
<path d="M142.36 52.77C143.85 53.77 143.05 54.72 142.2 56.04C142.2 56.04 142.2 56.09 142.2 56.1C141.32 57.45 140.39 59.1 138.93 58.1C138.11 57.57 138.27 56.54 138.76 55.5C138.964 55.0826 139.195 54.6785 139.45 54.29C140.25 53 141.25 52 142.36 52.77Z" fill="white"/>
<path d="M147.25 58.9998C147.306 58.8544 147.38 58.7167 147.47 58.5898" stroke="#1F1A54" stroke-width="0.74" stroke-linecap="round" stroke-linejoin="round"/>
<path d="M138.7 55.5199L141.34 48.1999C141.34 48.1999 142.21 45.9799 140.77 45.3599C139.33 44.7399 138.67 46.3599 138.31 47.1699C136.59 50.7899 134.16 56.5499 133.42 58.6899C132.42 61.6899 130.18 53.9599 127.76 54.7999C125.34 55.6399 132.47 67.7199 130.27 72.7999L122.33 90.9999L115.57 88.6199L113.19 104L125.92 106.41C128.64 106.86 130.92 105.1 132.02 102.56C135.51 94.1699 137.82 76.4199 140.79 72.3599C141.91 70.8299 144.55 67.8399 145.54 65.1999C145.91 64.1999 146.69 60.4899 147.26 59.0499" stroke="#1F1A54" stroke-width="0.74" stroke-linecap="round" stroke-linejoin="round"/>
<path d="M135.14 61.1699C135.14 61.1699 137.03 63.1699 136.8 64.8799C137.53 64.1784 138.481 63.7509 139.49 63.6699" stroke="#1F1A54" stroke-width="0.74" stroke-linecap="round" stroke-linejoin="round"/>
<path d="M144.51 57.8198L144.32 58.0898" stroke="#1F1A54" stroke-width="0.74" stroke-linecap="round" stroke-linejoin="round"/>
<path d="M144.31 58.1C143.62 59.16 143.31 60.16 144.31 60.83C145.31 61.5 146.12 60.83 146.81 59.73L147.26 59.06C147.343 58.9287 147.416 58.7917 147.48 58.65V58.65C147.72 58.1 147.65 57.59 146.8 57.04C145.95 56.49 145.16 56.94 144.54 57.79" stroke="#1F1A54" stroke-width="0.74" stroke-linecap="round" stroke-linejoin="round"/>
<path d="M142.15 56.0999C141.32 57.3799 140.88 58.5599 141.87 59.2099C142.67 59.7299 143.53 59.1399 144.31 58.0999C144.378 58.0133 144.441 57.9232 144.5 57.8299C144.522 57.811 144.539 57.787 144.55 57.7599L144.63 57.6399C145.49 56.3299 146.3 55.3499 144.95 54.4699C143.95 53.7999 143.04 54.7399 142.19 56.0499" stroke="#1F1A54" stroke-width="0.74" stroke-linecap="round" stroke-linejoin="round"/>
<path d="M142.15 56.0999C142.15 56.0999 142.15 56.0999 142.15 56.0399C143 54.7199 143.8 53.7299 142.31 52.7699C141.15 52.0099 140.23 52.9599 139.31 54.3099C139.055 54.6984 138.824 55.1026 138.62 55.5199C138.13 56.5199 137.97 57.5899 138.79 58.1199C140.34 59.1499 141.25 57.4499 142.15 56.0999Z" stroke="#1F1A54" stroke-width="0.74" stroke-linecap="round" stroke-linejoin="round"/>
<path d="M238.17 133.36V92.28L202.6 71.75L167.03 92.28V133.36L202.6 153.89L238.17 133.36Z" fill="#FFD400" stroke="#1F1A54" stroke-width="0.74" stroke-linecap="round" stroke-linejoin="round"/>
<path d="M219.44 81.5898C220.56 88.5898 221.66 97.1998 223.56 104.85L223.47 105.02C220.005 103.084 216.433 101.348 212.77 99.8198L210.7 98.9998V89.3298C213.95 88.8598 216.42 87.1998 217.02 84.1298C217.139 83.4181 217.139 82.6916 217.02 81.9799L219.44 81.5898Z" fill="#1F1A54"/>
<path d="M202.14 80.9001C202.33 80.8544 202.53 80.869 202.711 80.9421C202.893 81.0151 203.047 81.1429 203.152 81.3077C203.257 81.4724 203.309 81.6659 203.299 81.8612C203.289 82.0565 203.218 82.2439 203.097 82.3973C202.976 82.5506 202.81 82.6623 202.622 82.7168C202.434 82.7713 202.234 82.7658 202.049 82.7012C201.865 82.6366 201.705 82.5161 201.592 82.3563C201.479 82.1966 201.419 82.0057 201.42 81.8101C201.397 81.5944 201.46 81.3785 201.595 81.2084C201.729 81.0383 201.925 80.9277 202.14 80.9001Z" fill="#1F1A54"/>
<path d="M195.65 80.9999C195.446 81.0481 195.265 81.1637 195.135 81.328C195.005 81.4922 194.934 81.6955 194.934 81.9049C194.934 82.1143 195.005 82.3176 195.135 82.4818C195.265 82.6461 195.446 82.7617 195.65 82.8099C195.854 82.7617 196.035 82.6461 196.165 82.4818C196.295 82.3176 196.366 82.1143 196.366 81.9049C196.366 81.6955 196.295 81.4922 196.165 81.328C196.035 81.1637 195.854 81.0481 195.65 80.9999ZM202.14 80.8799C201.95 80.832 201.75 80.8446 201.568 80.9159C201.385 80.9873 201.23 81.1139 201.123 81.278C201.016 81.4421 200.963 81.6355 200.971 81.8312C200.979 82.0269 201.048 82.2151 201.169 82.3696C201.289 82.524 201.455 82.6369 201.643 82.6926C201.831 82.7482 202.031 82.7438 202.216 82.68C202.402 82.6161 202.562 82.496 202.676 82.3364C202.789 82.1769 202.85 81.9858 202.85 81.7899C202.867 81.579 202.804 81.3694 202.672 81.204C202.54 81.0386 202.35 80.9298 202.14 80.8999V80.8799ZM209.8 81.5799C210.388 80.3041 211.418 79.2845 212.7 78.7099C214.57 77.9299 216.7 79.4499 217.07 81.9599C217.189 82.6716 217.189 83.3982 217.07 84.1099C216.47 87.1799 214 88.8399 210.75 89.3099V98.9999L212.82 99.8199L211.37 104.41C210.854 106.212 209.699 107.764 208.122 108.776C206.544 109.789 204.652 110.191 202.798 109.91C200.945 109.628 199.258 108.68 198.053 107.245C196.848 105.809 196.207 103.984 196.25 102.11C196.25 101.95 196.25 101.79 196.25 101.62L196.34 100.26L198.21 99.4699V95.7999L198.31 95.5299H198.21C197.493 95.2466 196.819 94.8627 196.21 94.3899C194.21 92.8699 192.82 90.2299 192.46 86.2699C192.246 82.7651 192.283 79.2495 192.57 75.7499C194.68 75.0699 197.97 71.1499 197.97 71.1499C199.243 73.4878 201.104 75.4527 203.37 76.8499C205.728 78.1192 207.894 79.7186 209.8 81.5999V81.5799Z" fill="white"/>
<path d="M195.65 81C195.838 80.9543 196.035 80.9682 196.214 81.0397C196.394 81.1112 196.546 81.2368 196.651 81.399C196.756 81.5613 196.808 81.7521 196.799 81.945C196.79 82.138 196.722 82.3234 196.603 82.4757C196.484 82.628 196.321 82.7395 196.136 82.7947C195.951 82.85 195.753 82.8463 195.57 82.7841C195.388 82.7219 195.229 82.6043 195.116 82.4477C195.003 82.2911 194.941 82.1032 194.94 81.91C194.917 81.6959 194.978 81.4812 195.111 81.3114C195.243 81.1416 195.437 81.0299 195.65 81Z" fill="#1F1A54"/>
<path d="M190.42 146.86L186.25 144.43V140.57L185.34 136.75L188.68 138.68C189.784 141.268 190.375 144.046 190.42 146.86Z" fill="white"/>
<path d="M219.44 81.5899L217.07 81.9799C216.65 79.4699 214.57 77.9799 212.7 78.7299C211.418 79.3045 210.388 80.3241 209.8 81.5999C207.905 79.7068 205.75 78.0938 203.4 76.8099C201.134 75.4127 199.273 73.4478 198 71.1099C198 71.1099 194.71 75.0299 192.6 75.7099C192.313 79.2094 192.276 82.7251 192.49 86.2299C192.85 90.2299 194.26 92.8299 196.24 94.3499C196.849 94.8227 197.523 95.2065 198.24 95.4899H198.34L198.24 95.7599V99.4299L196.37 100.22L188.25 103.21C187.784 103.351 187.34 103.557 186.93 103.82C188.93 100.92 186.06 75.3599 191.15 70.3799C197.51 64.1799 209.44 61.4699 213.39 68.2999C214.368 68.6053 215.259 69.1392 215.989 69.8574C216.719 70.5756 217.268 71.4574 217.59 72.4299C218.401 75.4408 219.019 78.5003 219.44 81.5899Z" fill="#1F1A54"/>
<path d="M227.78 108.25C231.35 112.56 226.15 130.39 226.15 130.39L214.04 128.84C214.04 128.84 212.25 140 212.25 139.4C209.14 137.27 192.91 131.64 188.64 129.08C187.27 128.399 185.984 127.56 184.81 126.58C184.61 126.4 184.423 126.206 184.25 126L182.55 124.11C181.887 120.118 181.826 116.05 182.37 112.04C182.96 108.54 184.54 105.29 186.93 103.8C187.34 103.537 187.784 103.331 188.25 103.19L196.41 100.24L196.25 101.62C196.25 101.79 196.25 101.95 196.25 102.11C196.257 103.948 196.92 105.723 198.12 107.116C199.321 108.508 200.979 109.426 202.796 109.703C204.613 109.981 206.47 109.6 208.031 108.629C209.592 107.659 210.755 106.162 211.31 104.41L212.76 99.8198C216.423 101.348 219.995 103.084 223.46 105.02C225.058 105.867 226.515 106.957 227.78 108.25Z" fill="#FFD400"/>
<path d="M203.4 79.1298C202.985 78.8565 202.497 78.7169 202 78.7298C201.468 78.7182 200.946 78.8757 200.51 79.1798" stroke="#1F1A54" stroke-width="0.74" stroke-linecap="round" stroke-linejoin="round"/>
<path d="M197.25 79.1298C196.835 78.8565 196.347 78.7169 195.85 78.7298C195.318 78.7195 194.797 78.877 194.36 79.1798" stroke="#1F1A54" stroke-width="0.74" stroke-linecap="round" stroke-linejoin="round"/>
<path d="M204.54 87.2002C204.334 87.9497 203.924 88.6272 203.356 89.157C202.787 89.6868 202.082 90.048 201.32 90.2002" stroke="#1F1A54" stroke-width="0.74" stroke-linecap="round" stroke-linejoin="round"/>
<path d="M199.89 86C199.599 86.1558 199.275 86.2373 198.945 86.2373C198.615 86.2373 198.291 86.1558 198 86" stroke="#1F1A54" stroke-width="0.74" stroke-linecap="round" stroke-linejoin="round"/>
<path d="M213.87 81.9302C213.87 81.9302 211.94 82.2202 211.64 85.2802" stroke="#1F1A54" stroke-width="0.74" stroke-miterlimit="10" stroke-linecap="round"/>
<path d="M210.7 89.3301V99.0001L212.77 99.8201" stroke="#1F1A54" stroke-width="0.74" stroke-linecap="round" stroke-linejoin="round"/>
<path d="M198.24 95.7998V99.4698L196.37 100.26" stroke="#1F1A54" stroke-width="0.74" stroke-linecap="round" stroke-linejoin="round"/>
<path d="M226.15 130.39C226.15 130.39 231.35 112.56 227.78 108.25C226.52 106.95 225.066 105.854 223.47 105C220.005 103.064 216.433 101.328 212.77 99.7998L211.32 104.39C210.771 106.148 209.611 107.652 208.049 108.629C206.488 109.606 204.628 109.992 202.807 109.716C200.985 109.441 199.323 108.522 198.12 107.127C196.917 105.732 196.254 103.952 196.25 102.11C196.25 101.95 196.25 101.79 196.25 101.62L196.34 100.26L188.25 103.21C187.784 103.351 187.34 103.557 186.93 103.82C184.54 105.31 182.93 108.56 182.37 112.06C181.826 116.07 181.887 120.138 182.55 124.13" stroke="#1F1A54" stroke-width="0.74" stroke-linecap="round" stroke-linejoin="round"/>
<path d="M215.39 120.59L214.04 128.84" stroke="#1F1A54" stroke-width="0.74" stroke-linecap="round" stroke-linejoin="round"/>
<path d="M209.57 82.1802C209.635 81.9824 209.712 81.7887 209.8 81.6002C210.388 80.3244 211.418 79.3048 212.7 78.7302C214.57 77.9502 216.7 79.4702 217.07 81.9802C217.189 82.6919 217.189 83.4184 217.07 84.1302C216.47 87.2002 214 88.8602 210.75 89.3302" stroke="#1F1A54" stroke-width="0.74" stroke-linecap="round" stroke-linejoin="round"/>
<path d="M223.56 104.85C221.66 97.1999 220.56 88.5499 219.44 81.5899C219.006 78.4994 218.374 75.4399 217.55 72.4299C217.228 71.4574 216.679 70.5756 215.949 69.8574C215.219 69.1392 214.328 68.6053 213.35 68.2999C209.4 61.4699 197.47 64.1799 191.11 70.3799C186.02 75.3799 188.93 100.92 186.89 103.82" stroke="#1F1A54" stroke-width="0.74" stroke-linecap="round" stroke-linejoin="round"/>
<path d="M209.8 81.5999C207.905 79.7068 205.75 78.0938 203.4 76.8099C201.134 75.4127 199.273 73.4478 198 71.1099C198 71.1099 194.71 75.0299 192.6 75.7099" stroke="#1F1A54" stroke-width="0.74" stroke-linecap="round" stroke-linejoin="round"/>
<path d="M186.17 116.84C184.845 119.519 184.305 122.517 184.61 125.49C184.61 125.83 184.69 126.2 184.76 126.58C185.473 129.562 186.512 132.456 187.86 135.21" stroke="#1F1A54" stroke-width="0.74" stroke-linecap="round" stroke-linejoin="round"/>
<path d="M182.51 124.13L184.25 126C184.421 126.199 184.604 126.386 184.8 126.56C185.974 127.54 187.26 128.379 188.63 129.06C192.9 131.62 209.13 137.25 212.24 139.38C212.24 139.94 214.08 128.82 214.08 128.82L226.19 130.37" stroke="#1F1A54" stroke-width="0.74" stroke-linecap="round" stroke-linejoin="round"/>
<path d="M188.63 138.68L185.25 136.75L186.16 140.57V144.43L190.38 146.86C190.332 144.046 189.737 141.268 188.63 138.68Z" stroke="#1F1A54" stroke-width="0.74" stroke-linecap="round" stroke-linejoin="round"/>
<path d="M192.6 75.71C192.313 79.2095 192.276 82.7252 192.49 86.23C192.85 90.23 194.26 92.83 196.24 94.35C196.849 94.8228 197.523 95.2066 198.24 95.49H198.34C199.455 95.9062 200.664 95.9998 201.83 95.76H202.12C203.551 95.4587 204.87 94.7663 205.93 93.76" stroke="#1F1A54" stroke-width="0.74" stroke-linecap="round" stroke-linejoin="round"/>
<path d="M169.93 131.72C169.93 131.72 169.75 131.72 169.75 132.52C169.75 135.84 177.56 135.52 177.56 135.52C180.62 135.63 183.31 135.97 183.31 135.97C185.84 136.58 192.55 141.35 199.41 145.5C205.14 148.97 210.97 151.99 214.55 151.78C221.09 151.39 226.15 130.43 226.15 130.43L214.04 128.87C214.04 128.87 212.25 140 212.25 139.4C209.14 137.27 192.91 131.64 188.64 129.09C187.027 128.291 185.547 127.248 184.25 126C182.96 124.62 181.72 123.5 181.1 121.9C180.48 120.3 180.78 118.08 180.41 117.4C180.15 116.92 179.62 117.06 179.31 117.24C176.97 118.58 178.88 125.08 176.22 124.33C174.729 123.946 173.188 123.787 171.65 123.86C170.2 124.05 169.58 124.86 169.59 125.47C169.595 125.698 169.656 125.921 169.768 126.12C169.879 126.319 170.038 126.487 170.23 126.61C170.23 126.61 169.23 127.09 169.18 127.84C169.144 128.06 169.163 128.285 169.234 128.496C169.306 128.707 169.428 128.897 169.59 129.05C169.383 129.416 169.276 129.83 169.28 130.25C169.253 130.53 169.299 130.812 169.413 131.07C169.526 131.327 169.705 131.551 169.93 131.72Z" fill="white"/>
<path d="M171.32 129.55C170.692 129.617 170.062 129.45 169.55 129.08C169.388 128.927 169.266 128.737 169.194 128.526C169.123 128.315 169.104 128.09 169.14 127.87C169.21 127.12 170.19 126.64 170.19 126.64" stroke="#1F1A54" stroke-width="0.74" stroke-linecap="round" stroke-linejoin="round"/>
<path d="M171.61 127.2C171.102 127.116 170.618 126.925 170.19 126.64C169.998 126.517 169.839 126.349 169.728 126.15C169.616 125.951 169.555 125.728 169.55 125.5C169.55 124.84 170.16 124.08 171.61 123.89C173.148 123.818 174.689 123.976 176.18 124.36C178.84 125.11 176.93 118.61 179.27 117.27C179.58 117.09 180.11 116.95 180.37 117.43C180.74 118.11 180.45 120.37 181.06 121.93C181.67 123.49 182.92 124.65 184.21 126.03C185.505 127.271 186.982 128.306 188.59 129.1C192.86 131.65 209.09 137.28 212.2 139.41C212.2 139.97 214.04 128.84 214.04 128.84L226.15 130.4C226.15 130.4 221.09 151.4 214.55 151.75C210.97 151.96 205.14 148.94 199.41 145.47C192.55 141.32 185.84 136.55 183.31 135.94C183.31 135.94 180.62 135.6 177.56 135.49C177.56 135.49 169.75 135.85 169.75 132.49C169.75 131.73 169.89 131.69 169.93 131.69" stroke="#1F1A54" stroke-width="0.74" stroke-linecap="round" stroke-linejoin="round"/>
<path d="M171.61 132.26C171.009 132.246 170.426 132.059 169.93 131.72C169.701 131.561 169.517 131.346 169.395 131.095C169.272 130.845 169.216 130.568 169.23 130.29C169.226 129.87 169.333 129.456 169.54 129.09" stroke="#1F1A54" stroke-width="0.74" stroke-linecap="round" stroke-linejoin="round"/>
<path d="M328.45 133.31V92.2402L292.88 71.7002L257.31 92.2402V133.31L292.88 153.85L328.45 133.31Z" fill="#FFD400" stroke="#1F1A54" stroke-width="0.74" stroke-linecap="round" stroke-linejoin="round"/>
<path d="M306.32 78.82C305.995 78.1595 305.438 77.6417 304.756 77.3651C304.073 77.0885 303.313 77.0725 302.62 77.32C301.342 77.9013 300.316 78.9238 299.73 80.2C299.406 80.0942 299.112 79.9129 298.873 79.6713C298.633 79.4296 298.453 79.1344 298.35 78.81C298.22 78.5 298.55 77.72 298.43 77.32C298.31 76.92 297.61 76.21 297.59 75.52C297.59 75.08 297.59 74.68 297.59 74.31C297.545 73.2984 297.66 72.286 297.93 71.31C297.408 71.9975 296.72 72.5411 295.93 72.89C295.34 73.15 295.21 73.99 294.54 74.26C293.54 74.67 291.96 73.26 291.04 73.57C290.32 73.77 290.6 71.27 290.76 71.14C289.513 71.4695 288.323 71.9853 287.23 72.67C286.44 73.18 285.87 74.67 284.94 74.98C284.134 75.0769 283.316 74.9596 282.57 74.64C282.316 74.566 282.054 74.5224 281.79 74.51C281.18 74.51 281.03 73.35 280.7 73.21C279.52 72.73 279.47 72.65 279.89 71.31C280.21 70.31 280 69.07 281.01 68.08C281.62 67.49 283.41 67.46 284.01 66.95C285.18 65.95 286.06 64.76 286.6 64.5C288.73 63.5 290.32 61.76 292.5 61.5C293.206 61.5684 293.889 61.7903 294.5 62.15C295.08 62.41 295.8 62.21 296.3 62.34C296.8 62.47 297.15 62.98 297.59 63.06C298.598 63.258 299.623 63.3552 300.65 63.35C300.869 63.3269 301.091 63.3477 301.302 63.4112C301.513 63.4747 301.71 63.5797 301.88 63.72C302.318 63.9542 302.658 64.3357 302.841 64.797C303.024 65.2583 303.038 65.7695 302.88 66.24C303.02 66.43 303.15 66.64 303.28 66.84C303.455 66.8813 303.625 66.9382 303.79 67.01C304.235 67.1706 304.658 67.3856 305.05 67.65C305.52 67.95 305.47 69.18 305.9 69.73C306.33 70.28 307.24 70.13 307.43 70.97C307.71 72.16 308.05 73.65 307.02 74.24C305.99 74.83 306.95 75.93 307.02 76.8C307.09 77.67 306.39 78.28 306.3 78.74L306.32 78.82Z" fill="#1F1A54"/>
<path d="M288.16 94.3999C285.47 93.7599 283.91 91.9399 283.05 89.2399C282.11 86.2999 282.18 79.5599 282.49 74.6899C283.236 75.0096 284.054 75.1268 284.86 75.0299C285.79 74.7599 286.36 73.2299 287.15 72.7199C288.243 72.0353 289.433 71.5195 290.68 71.1899C290.52 71.3199 290.24 73.8199 290.96 73.6199C291.88 73.3599 293.44 74.7199 294.46 74.3099C295.13 74.0399 295.26 73.1999 295.85 72.9399C296.64 72.591 297.328 72.0474 297.85 71.3599C297.58 72.3359 297.465 73.3483 297.51 74.3599C297.51 74.7299 297.51 75.1299 297.51 75.5699C297.51 76.2599 298.18 76.8399 298.35 77.3699C298.52 77.8999 298.14 78.5499 298.27 78.8599C298.374 79.1844 298.553 79.4796 298.793 79.7212C299.032 79.9629 299.326 80.1441 299.65 80.2499C300.236 78.9737 301.262 77.9513 302.54 77.3699C303.233 77.1224 303.994 77.1385 304.676 77.4151C305.358 77.6917 305.915 78.2095 306.24 78.8699C306.93 80.0495 307.148 81.4463 306.85 82.7799C306.26 85.8499 303.79 87.4999 300.53 87.9799V97.6599L302.61 98.4699L300.38 101.18C299.49 102.277 298.326 103.12 297.005 103.621C295.684 104.122 294.254 104.265 292.86 104.034C291.466 103.804 290.158 103.208 289.069 102.308C287.98 101.408 287.149 100.236 286.66 98.9099L288.08 98.1199V94.4099L288.16 94.3999Z" fill="white"/>
<path d="M282.49 74.6802C282.18 79.5502 282.11 86.2902 283.05 89.2302C283.91 91.9302 285.47 93.7502 288.16 94.3902C288.38 94.4502 288.62 94.4902 288.86 94.5302C291.389 94.7483 293.902 93.9656 295.86 92.3502" stroke="#1F1A54" stroke-width="0.74" stroke-linecap="round" stroke-linejoin="round"/>
<path d="M299.49 80.7801C299.556 80.5814 299.636 80.3876 299.73 80.2001C300.316 78.9239 301.342 77.9015 302.62 77.3201C303.313 77.0726 304.074 77.0887 304.756 77.3653C305.438 77.6419 305.995 78.1597 306.32 78.8201C307.01 79.9997 307.228 81.3966 306.93 82.7302C306.34 85.8002 303.87 87.4501 300.61 87.9301" stroke="#1F1A54" stroke-width="0.74" stroke-miterlimit="10" stroke-linecap="round"/>
<path d="M305.09 67.7202C305.56 68.0202 305.51 69.2502 305.94 69.8002C306.37 70.3502 307.28 70.2002 307.47 71.0402C307.75 72.2302 308.09 73.7202 307.06 74.3102C306.03 74.9002 306.99 76.0002 307.06 76.8702C307.13 77.7402 306.43 78.3502 306.34 78.8102" stroke="#1F1A54" stroke-width="0.74" stroke-linecap="round" stroke-linejoin="round"/>
<path d="M302.88 66.2998C303.02 66.4898 303.15 66.6998 303.28 66.8998C303.455 66.9411 303.625 66.998 303.79 67.0698C304.235 67.2304 304.658 67.4454 305.05 67.7098" stroke="#1F1A54" stroke-width="0.74" stroke-linecap="round" stroke-linejoin="round"/>
<path d="M290.68 71.1898C289.433 71.5193 288.243 72.0351 287.15 72.7198C286.36 73.2298 285.79 74.7198 284.86 75.0298C284.054 75.1267 283.236 75.0094 282.49 74.6898C282.236 74.6158 281.974 74.5722 281.71 74.5598C281.1 74.5598 280.95 73.3998 280.62 73.2598C279.44 72.7798 279.39 72.6998 279.81 71.3598C280.13 70.3598 279.92 69.1198 280.93 68.1298C281.54 67.5398 283.33 67.5098 283.93 66.9998C285.1 65.9998 285.98 64.8098 286.52 64.5498C288.65 63.5498 290.24 61.8098 292.42 61.5498C293.126 61.6182 293.809 61.8401 294.42 62.1998C295 62.4598 295.72 62.2598 296.22 62.3898C296.72 62.5198 297.07 63.0298 297.51 63.1098C298.518 63.3078 299.543 63.405 300.57 63.3998C300.789 63.3767 301.011 63.3975 301.222 63.461C301.433 63.5245 301.63 63.6295 301.8 63.7698C302.238 64.004 302.578 64.3855 302.761 64.8468C302.944 65.3081 302.958 65.8193 302.8 66.2898" stroke="#1F1A54" stroke-width="0.74" stroke-linecap="round" stroke-linejoin="round"/>
<path d="M297.91 71.3502C297.388 72.0376 296.7 72.5813 295.91 72.9302C295.32 73.1902 295.19 74.0302 294.52 74.3002C293.52 74.7102 291.94 73.3002 291.02 73.6102C290.3 73.8102 290.58 71.3102 290.74 71.1802" stroke="#1F1A54" stroke-width="0.74" stroke-linecap="round" stroke-linejoin="round"/>
<path d="M299.72 80.2001C299.396 80.0942 299.102 79.913 298.863 79.6713C298.623 79.4297 298.444 79.1345 298.34 78.8101C298.21 78.5001 298.54 77.7201 298.42 77.3201C298.3 76.9201 297.6 76.2101 297.58 75.5201C297.58 75.0801 297.58 74.6801 297.58 74.3101C297.535 73.2984 297.65 72.2861 297.92 71.3101" stroke="#1F1A54" stroke-width="0.74" stroke-linecap="round" stroke-linejoin="round"/>
<path d="M300.62 87.9302V97.6102L302.69 98.4202" stroke="#1F1A54" stroke-width="0.74" stroke-linecap="round" stroke-linejoin="round"/>
<path d="M288.16 94.4102V98.0702L286.74 98.8602" stroke="#1F1A54" stroke-width="0.74" stroke-linecap="round" stroke-linejoin="round"/>
<path d="M308.64 118.25L307.55 128.25L321.55 129.44C321.55 129.44 322.49 110.28 318.92 105.97C316.12 102.58 302.66 98.4399 302.66 98.4399L300.43 101.15C299.54 102.247 298.376 103.09 297.055 103.591C295.734 104.092 294.304 104.235 292.91 104.004C291.516 103.774 290.208 103.178 289.119 102.278C288.03 101.378 287.199 100.205 286.71 98.8799L261.25 107.9L263.74 123.9" stroke="#1F1A54" stroke-width="0.74" stroke-linecap="round" stroke-linejoin="round"/>
<path d="M292.06 81.32C292.452 81.32 292.77 80.9126 292.77 80.41C292.77 79.9074 292.452 79.5 292.06 79.5C291.668 79.5 291.35 79.9074 291.35 80.41C291.35 80.9126 291.668 81.32 292.06 81.32Z" fill="#1F1A54"/>
<path d="M285.57 81.4299C285.962 81.4299 286.28 81.0224 286.28 80.5199C286.28 80.0173 285.962 79.6099 285.57 79.6099C285.178 79.6099 284.86 80.0173 284.86 80.5199C284.86 81.0224 285.178 81.4299 285.57 81.4299Z" fill="#1F1A54"/>
<path d="M293.32 77.7201C292.899 77.4616 292.414 77.3265 291.92 77.3301C291.388 77.3198 290.867 77.4772 290.43 77.7801" stroke="#1F1A54" stroke-width="0.74" stroke-linecap="round" stroke-linejoin="round"/>
<path d="M287.14 77.7201C286.72 77.4591 286.234 77.3238 285.74 77.3301C285.208 77.3198 284.687 77.4772 284.25 77.7801" stroke="#1F1A54" stroke-width="0.74" stroke-linecap="round" stroke-linejoin="round"/>
<path d="M294.46 85.8101C294.254 86.5595 293.844 87.2371 293.276 87.7669C292.707 88.2967 292.002 88.6578 291.24 88.8101" stroke="#1F1A54" stroke-width="0.74" stroke-linecap="round" stroke-linejoin="round"/>
<path d="M289.81 84.5801C289.519 84.7359 289.195 84.8174 288.865 84.8174C288.535 84.8174 288.211 84.7359 287.92 84.5801" stroke="#1F1A54" stroke-width="0.74" stroke-linecap="round" stroke-linejoin="round"/>
<path d="M303.8 80.52C303.8 80.52 301.85 80.82 301.56 83.88" stroke="#1F1A54" stroke-width="0.74" stroke-miterlimit="10" stroke-linecap="round"/>
<path d="M311.69 143L292.88 153.87L273.56 142.7V121L263.72 123.89L261.23 107.89L286.73 98.8902C287.218 100.218 288.049 101.392 289.139 102.294C290.229 103.196 291.538 103.793 292.934 104.023C294.33 104.254 295.761 104.111 297.083 103.608C298.406 103.105 299.571 102.26 300.46 101.16L302.68 98.4502C302.68 98.4502 316.15 102.59 318.95 105.97C322.52 110.29 321.58 129.46 321.58 129.46L311.69 129.3V143Z" fill="#1F1A54"/>
<mask id="mask1" mask-type="alpha" maskUnits="userSpaceOnUse" x="261" y="98" width="61" height="56">
<path d="M311.69 143L292.88 153.87L273.56 142.7V121L263.72 123.89L261.23 107.89L286.73 98.8902C287.218 100.218 288.05 101.392 289.14 102.294C290.229 103.196 291.539 103.793 292.934 104.023C294.33 104.254 295.762 104.111 297.084 103.608C298.406 103.105 299.571 102.26 300.46 101.16L302.68 98.4502C302.68 98.4502 316.15 102.59 318.95 105.97C322.52 110.29 321.58 129.46 321.58 129.46L311.69 129.3V143Z" fill="#1F1A54"/>
</mask>
<g mask="url(#mask1)">
<path d="M267.68 100.59C268.005 100.592 268.322 100.497 268.593 100.317C268.863 100.137 269.073 99.8812 269.197 99.5812C269.32 99.2812 269.352 98.9511 269.287 98.6332C269.222 98.3153 269.063 98.0241 268.832 97.7968C268.6 97.5695 268.306 97.4165 267.987 97.3574C267.668 97.2982 267.338 97.3357 267.041 97.4649C266.743 97.5942 266.491 97.8093 266.316 98.0828C266.141 98.3563 266.052 98.6757 266.06 99.0001C266.071 99.4237 266.246 99.8266 266.548 100.123C266.85 100.42 267.257 100.588 267.68 100.59Z" fill="white" stroke="#1F1A54" stroke-width="1.38" stroke-miterlimit="10"/>
<path d="M276.7 100.59C277.024 100.59 277.341 100.493 277.61 100.312C277.879 100.131 278.088 99.8744 278.21 99.5743C278.332 99.2741 278.362 98.9443 278.295 98.6271C278.229 98.3099 278.07 98.0196 277.838 97.7933C277.606 97.567 277.312 97.415 276.993 97.3567C276.674 97.2984 276.345 97.3364 276.048 97.4659C275.751 97.5955 275.5 97.8106 275.325 98.0839C275.151 98.3571 275.062 98.6761 275.07 99.0001C275.078 99.4262 275.254 99.8321 275.559 100.13C275.864 100.427 276.274 100.593 276.7 100.59Z" fill="white" stroke="#1F1A54" stroke-width="1.38" stroke-miterlimit="10"/>
<path d="M285.71 100.59C286.035 100.592 286.352 100.497 286.623 100.317C286.893 100.137 287.103 99.8812 287.227 99.5812C287.351 99.2812 287.382 98.9511 287.317 98.6332C287.252 98.3153 287.093 98.0241 286.862 97.7968C286.63 97.5695 286.336 97.4165 286.017 97.3574C285.698 97.2982 285.368 97.3357 285.071 97.4649C284.773 97.5942 284.521 97.8093 284.346 98.0828C284.171 98.3563 284.082 98.6757 284.09 99.0001C284.101 99.4237 284.276 99.8266 284.578 100.123C284.881 100.42 285.287 100.588 285.71 100.59Z" fill="white" stroke="#1F1A54" stroke-width="1.38" stroke-miterlimit="10"/>
<path d="M294.73 100.59C295.054 100.59 295.371 100.493 295.64 100.312C295.909 100.131 296.118 99.8744 296.24 99.5743C296.362 99.2741 296.392 98.9443 296.325 98.6271C296.259 98.3099 296.1 98.0196 295.868 97.7933C295.636 97.567 295.342 97.415 295.023 97.3567C294.704 97.2984 294.375 97.3364 294.078 97.4659C293.781 97.5955 293.53 97.8106 293.355 98.0839C293.181 98.3571 293.092 98.6761 293.1 99.0001C293.111 99.4254 293.287 99.8298 293.592 100.127C293.896 100.424 294.305 100.59 294.73 100.59Z" fill="white" stroke="#1F1A54" stroke-width="1.38" stroke-miterlimit="10"/>
<path d="M303.74 100.59C304.065 100.592 304.382 100.497 304.653 100.317C304.923 100.137 305.133 99.8812 305.257 99.5812C305.38 99.2812 305.412 98.9511 305.347 98.6332C305.282 98.3153 305.123 98.0241 304.892 97.7968C304.66 97.5695 304.366 97.4165 304.047 97.3574C303.728 97.2982 303.398 97.3357 303.101 97.4649C302.803 97.5942 302.551 97.8093 302.376 98.0828C302.201 98.3563 302.112 98.6757 302.12 99.0001C302.131 99.4237 302.306 99.8266 302.608 100.123C302.91 100.42 303.317 100.588 303.74 100.59Z" fill="white" stroke="#1F1A54" stroke-width="1.38" stroke-miterlimit="10"/>
<path d="M312.75 100.59C313.075 100.592 313.392 100.497 313.663 100.317C313.933 100.137 314.143 99.8812 314.267 99.5812C314.39 99.2812 314.422 98.9511 314.357 98.6332C314.292 98.3153 314.133 98.0241 313.902 97.7968C313.67 97.5695 313.376 97.4165 313.057 97.3574C312.738 97.2982 312.408 97.3357 312.111 97.4649C311.813 97.5942 311.561 97.8093 311.386 98.0828C311.211 98.3563 311.122 98.6757 311.13 99.0001C311.141 99.4237 311.316 99.8266 311.618 100.123C311.92 100.42 312.327 100.588 312.75 100.59Z" fill="white" stroke="#1F1A54" stroke-width="1.38" stroke-miterlimit="10"/>
<path d="M321.77 100.59C322.094 100.59 322.411 100.493 322.68 100.312C322.949 100.131 323.158 99.8744 323.28 99.5743C323.402 99.2741 323.432 98.9443 323.365 98.6271C323.299 98.3099 323.14 98.0196 322.908 97.7933C322.676 97.567 322.382 97.415 322.063 97.3567C321.744 97.2984 321.415 97.3364 321.118 97.4659C320.821 97.5955 320.57 97.8106 320.395 98.0839C320.221 98.3571 320.132 98.6761 320.14 99.0001C320.148 99.4262 320.324 99.8321 320.629 100.13C320.934 100.427 321.344 100.593 321.77 100.59Z" fill="white" stroke="#1F1A54" stroke-width="1.38" stroke-miterlimit="10"/>
<path d="M263.18 109.61C263.504 109.61 263.819 109.514 264.088 109.334C264.356 109.154 264.565 108.898 264.688 108.599C264.811 108.3 264.842 107.971 264.777 107.655C264.713 107.338 264.556 107.048 264.326 106.82C264.096 106.593 263.803 106.44 263.486 106.379C263.168 106.318 262.84 106.354 262.543 106.48C262.245 106.606 261.992 106.818 261.815 107.089C261.639 107.36 261.546 107.677 261.55 108C261.552 108.213 261.595 108.423 261.677 108.619C261.76 108.815 261.881 108.993 262.032 109.143C262.183 109.292 262.363 109.41 262.56 109.491C262.757 109.571 262.968 109.611 263.18 109.61Z" fill="white" stroke="#1F1A54" stroke-width="1.38" stroke-miterlimit="10"/>
<path d="M272.19 109.61C272.414 109.628 272.64 109.599 272.852 109.525C273.065 109.451 273.259 109.334 273.424 109.182C273.59 109.029 273.721 108.844 273.811 108.638C273.901 108.432 273.948 108.21 273.948 107.985C273.948 107.76 273.901 107.538 273.811 107.332C273.721 107.126 273.59 106.941 273.424 106.788C273.259 106.636 273.065 106.519 272.852 106.445C272.64 106.371 272.414 106.342 272.19 106.36C271.781 106.392 271.4 106.577 271.121 106.878C270.843 107.18 270.688 107.575 270.688 107.985C270.688 108.395 270.843 108.79 271.121 109.092C271.4 109.393 271.781 109.578 272.19 109.61Z" fill="white" stroke="#1F1A54" stroke-width="1.38" stroke-miterlimit="10"/>
<path d="M281.25 109.61C281.572 109.602 281.884 109.499 282.147 109.315C282.41 109.13 282.613 108.872 282.729 108.572C282.846 108.272 282.871 107.945 282.802 107.631C282.733 107.317 282.573 107.03 282.342 106.807C282.11 106.584 281.818 106.434 281.501 106.377C281.185 106.319 280.859 106.357 280.564 106.484C280.269 106.612 280.018 106.824 279.843 107.093C279.668 107.363 279.576 107.679 279.58 108C279.583 108.216 279.628 108.429 279.714 108.627C279.799 108.825 279.924 109.004 280.079 109.154C280.234 109.304 280.418 109.421 280.619 109.5C280.82 109.578 281.035 109.615 281.25 109.61Z" fill="white" stroke="#1F1A54" stroke-width="1.38" stroke-miterlimit="10"/>
<path d="M290.25 109.61C290.573 109.606 290.887 109.507 291.152 109.324C291.418 109.142 291.624 108.885 291.744 108.585C291.863 108.286 291.892 107.958 291.825 107.642C291.758 107.327 291.599 107.039 291.369 106.813C291.138 106.588 290.846 106.437 290.529 106.378C290.212 106.319 289.884 106.355 289.588 106.482C289.292 106.609 289.04 106.821 288.864 107.091C288.688 107.361 288.596 107.678 288.6 108C288.602 108.214 288.645 108.426 288.729 108.624C288.813 108.821 288.935 109 289.089 109.15C289.242 109.299 289.424 109.417 289.623 109.496C289.823 109.575 290.036 109.614 290.25 109.61Z" fill="white" stroke="#1F1A54" stroke-width="1.38" stroke-miterlimit="10"/>
<path d="M299.25 109.61C299.573 109.608 299.888 109.51 300.155 109.329C300.422 109.148 300.63 108.891 300.751 108.592C300.872 108.293 300.902 107.965 300.836 107.649C300.77 107.333 300.612 107.043 300.382 106.817C300.152 106.591 299.859 106.438 299.542 106.378C299.225 106.319 298.897 106.354 298.6 106.481C298.303 106.608 298.051 106.82 297.875 107.09C297.698 107.361 297.606 107.677 297.61 108C297.616 108.431 297.791 108.842 298.098 109.143C298.406 109.445 298.82 109.613 299.25 109.61Z" fill="white" stroke="#1F1A54" stroke-width="1.38" stroke-miterlimit="10"/>
<path d="M308.25 109.61C308.574 109.61 308.889 109.514 309.158 109.334C309.426 109.154 309.635 108.898 309.758 108.599C309.881 108.3 309.912 107.971 309.847 107.655C309.783 107.338 309.626 107.048 309.396 106.82C309.166 106.593 308.873 106.44 308.556 106.379C308.238 106.318 307.91 106.354 307.613 106.48C307.315 106.606 307.062 106.818 306.885 107.089C306.709 107.36 306.616 107.677 306.62 108C306.622 108.213 306.665 108.423 306.747 108.619C306.83 108.815 306.951 108.993 307.102 109.143C307.253 109.292 307.433 109.41 307.63 109.491C307.827 109.571 308.038 109.611 308.25 109.61Z" fill="white" stroke="#1F1A54" stroke-width="1.38" stroke-miterlimit="10"/>
<path d="M317.26 109.6C318.155 109.6 318.88 108.875 318.88 107.98C318.88 107.085 318.155 106.36 317.26 106.36C316.366 106.36 315.64 107.085 315.64 107.98C315.64 108.875 316.366 109.6 317.26 109.6Z" fill="white" stroke="#1F1A54" stroke-width="1.38" stroke-miterlimit="10"/>
<path d="M267.68 118.62C268.004 118.622 268.32 118.528 268.59 118.35C268.859 118.171 269.07 117.917 269.194 117.619C269.319 117.32 269.352 116.992 269.289 116.675C269.227 116.358 269.071 116.066 268.843 115.838C268.614 115.609 268.323 115.454 268.006 115.391C267.689 115.329 267.36 115.362 267.062 115.486C266.764 115.611 266.509 115.821 266.331 116.091C266.153 116.361 266.058 116.677 266.06 117C266.063 117.429 266.234 117.84 266.538 118.143C266.841 118.446 267.251 118.618 267.68 118.62Z" fill="white" stroke="#1F1A54" stroke-width="1.38" stroke-miterlimit="10"/>
<path d="M276.7 118.62C277.023 118.62 277.339 118.524 277.607 118.344C277.875 118.165 278.084 117.91 278.207 117.611C278.33 117.313 278.362 116.985 278.298 116.668C278.235 116.352 278.078 116.061 277.849 115.834C277.62 115.606 277.329 115.452 277.012 115.39C276.695 115.328 276.367 115.362 276.07 115.487C275.772 115.612 275.518 115.822 275.34 116.092C275.162 116.361 275.068 116.677 275.07 117C275.07 117.213 275.113 117.425 275.195 117.622C275.277 117.819 275.397 117.998 275.548 118.149C275.7 118.299 275.88 118.419 276.077 118.499C276.275 118.58 276.487 118.621 276.7 118.62Z" fill="white" stroke="#1F1A54" stroke-width="1.38" stroke-miterlimit="10"/>
<path d="M285.71 118.62C286.034 118.622 286.35 118.528 286.62 118.35C286.889 118.171 287.1 117.917 287.224 117.619C287.349 117.32 287.382 116.992 287.319 116.675C287.257 116.358 287.101 116.066 286.873 115.838C286.644 115.609 286.353 115.454 286.036 115.391C285.719 115.329 285.39 115.362 285.092 115.486C284.794 115.611 284.539 115.821 284.361 116.091C284.182 116.361 284.088 116.677 284.09 117C284.093 117.429 284.264 117.84 284.568 118.143C284.871 118.446 285.281 118.618 285.71 118.62Z" fill="white" stroke="#1F1A54" stroke-width="1.38" stroke-miterlimit="10"/>
<path d="M294.73 118.62C295.053 118.62 295.369 118.524 295.637 118.344C295.905 118.165 296.114 117.91 296.237 117.611C296.36 117.313 296.392 116.985 296.328 116.668C296.265 116.352 296.108 116.061 295.879 115.834C295.65 115.606 295.359 115.452 295.042 115.39C294.725 115.328 294.397 115.362 294.1 115.487C293.802 115.612 293.548 115.822 293.37 116.092C293.192 116.361 293.098 116.677 293.1 117C293.103 117.43 293.276 117.842 293.581 118.146C293.887 118.45 294.3 118.62 294.73 118.62Z" fill="white" stroke="#1F1A54" stroke-width="1.38" stroke-miterlimit="10"/>
<path d="M303.74 118.62C304.063 118.622 304.38 118.528 304.65 118.35C304.919 118.171 305.13 117.917 305.254 117.619C305.379 117.32 305.412 116.992 305.349 116.675C305.287 116.358 305.131 116.066 304.903 115.838C304.674 115.609 304.383 115.454 304.066 115.391C303.749 115.329 303.42 115.362 303.122 115.486C302.824 115.611 302.569 115.821 302.391 116.091C302.212 116.361 302.118 116.677 302.12 117C302.123 117.429 302.294 117.84 302.598 118.143C302.901 118.446 303.311 118.618 303.74 118.62Z" fill="white" stroke="#1F1A54" stroke-width="1.38" stroke-miterlimit="10"/>
<path d="M312.75 118.62C313.074 118.622 313.39 118.528 313.66 118.35C313.929 118.171 314.14 117.917 314.264 117.619C314.389 117.32 314.422 116.992 314.359 116.675C314.297 116.358 314.141 116.066 313.913 115.838C313.684 115.609 313.393 115.454 313.076 115.391C312.759 115.329 312.43 115.362 312.132 115.486C311.834 115.611 311.579 115.821 311.401 116.091C311.222 116.361 311.128 116.677 311.13 117C311.133 117.429 311.304 117.84 311.608 118.143C311.911 118.446 312.321 118.618 312.75 118.62Z" fill="white" stroke="#1F1A54" stroke-width="1.38" stroke-miterlimit="10"/>
<path d="M321.77 118.62C322.093 118.62 322.409 118.524 322.677 118.344C322.945 118.165 323.154 117.91 323.277 117.611C323.4 117.313 323.432 116.985 323.368 116.668C323.304 116.352 323.148 116.061 322.919 115.834C322.69 115.606 322.399 115.452 322.082 115.39C321.765 115.328 321.437 115.362 321.14 115.487C320.842 115.612 320.588 115.822 320.41 116.092C320.232 116.361 320.138 116.677 320.14 117C320.14 117.213 320.182 117.425 320.265 117.622C320.347 117.819 320.467 117.998 320.618 118.149C320.77 118.299 320.95 118.419 321.147 118.499C321.345 118.58 321.557 118.621 321.77 118.62Z" fill="white" stroke="#1F1A54" stroke-width="1.38" stroke-miterlimit="10"/>
<path d="M263.18 127.63C263.589 127.598 263.971 127.413 264.25 127.112C264.528 126.81 264.683 126.415 264.683 126.005C264.683 125.595 264.528 125.2 264.25 124.898C263.971 124.597 263.589 124.412 263.18 124.38C262.956 124.362 262.731 124.391 262.518 124.465C262.306 124.539 262.111 124.656 261.946 124.808C261.781 124.961 261.649 125.146 261.559 125.352C261.469 125.558 261.423 125.78 261.423 126.005C261.423 126.23 261.469 126.452 261.559 126.658C261.649 126.864 261.781 127.049 261.946 127.202C262.111 127.354 262.306 127.471 262.518 127.545C262.731 127.619 262.956 127.648 263.18 127.63Z" fill="white" stroke="#1F1A54" stroke-width="1.38" stroke-miterlimit="10"/>
<path d="M272.19 127.63C272.514 127.632 272.83 127.538 273.1 127.36C273.369 127.181 273.58 126.927 273.704 126.628C273.829 126.33 273.862 126.002 273.799 125.685C273.737 125.367 273.581 125.076 273.353 124.848C273.124 124.619 272.833 124.464 272.516 124.401C272.199 124.338 271.87 124.372 271.572 124.496C271.274 124.621 271.019 124.831 270.841 125.101C270.663 125.37 270.568 125.687 270.57 126.01C270.57 126.44 270.741 126.852 271.045 127.156C271.349 127.459 271.761 127.63 272.19 127.63Z" fill="white" stroke="#1F1A54" stroke-width="1.38" stroke-miterlimit="10"/>
<path d="M281.25 127.63C281.573 127.63 281.889 127.534 282.157 127.355C282.425 127.175 282.634 126.92 282.757 126.622C282.88 126.323 282.912 125.995 282.848 125.678C282.784 125.362 282.628 125.072 282.399 124.844C282.17 124.616 281.879 124.462 281.562 124.4C281.245 124.338 280.917 124.372 280.62 124.497C280.322 124.622 280.068 124.832 279.89 125.102C279.712 125.371 279.618 125.687 279.62 126.01C279.62 126.224 279.663 126.435 279.745 126.632C279.827 126.83 279.947 127.009 280.098 127.159C280.25 127.31 280.43 127.429 280.627 127.51C280.825 127.591 281.037 127.631 281.25 127.63Z" fill="white" stroke="#1F1A54" stroke-width="1.38" stroke-miterlimit="10"/>
<path d="M290.25 127.63C290.574 127.632 290.89 127.538 291.16 127.36C291.429 127.181 291.64 126.927 291.764 126.628C291.889 126.33 291.922 126.002 291.859 125.685C291.797 125.367 291.641 125.076 291.413 124.848C291.184 124.619 290.893 124.464 290.576 124.401C290.259 124.338 289.93 124.372 289.632 124.496C289.334 124.621 289.079 124.831 288.901 125.101C288.722 125.37 288.628 125.687 288.63 126.01C288.629 126.223 288.67 126.434 288.751 126.632C288.832 126.829 288.951 127.008 289.102 127.159C289.253 127.309 289.432 127.429 289.629 127.509C289.826 127.59 290.037 127.631 290.25 127.63Z" fill="white" stroke="#1F1A54" stroke-width="1.38" stroke-miterlimit="10"/>
<path d="M299.25 127.63C299.574 127.632 299.89 127.538 300.16 127.36C300.429 127.181 300.64 126.927 300.764 126.628C300.889 126.33 300.922 126.002 300.859 125.685C300.797 125.367 300.641 125.076 300.413 124.848C300.184 124.619 299.893 124.464 299.576 124.401C299.259 124.338 298.93 124.372 298.632 124.496C298.334 124.621 298.079 124.831 297.901 125.101C297.722 125.37 297.628 125.687 297.63 126.01C297.63 126.44 297.801 126.852 298.105 127.156C298.409 127.459 298.821 127.63 299.25 127.63Z" fill="white" stroke="#1F1A54" stroke-width="1.38" stroke-miterlimit="10"/>
<path d="M308.25 127.63C308.659 127.598 309.041 127.413 309.32 127.112C309.598 126.81 309.753 126.415 309.753 126.005C309.753 125.595 309.598 125.2 309.32 124.898C309.041 124.597 308.659 124.412 308.25 124.38C308.026 124.362 307.801 124.391 307.588 124.465C307.376 124.539 307.181 124.656 307.016 124.808C306.851 124.961 306.719 125.146 306.629 125.352C306.539 125.558 306.493 125.78 306.493 126.005C306.493 126.23 306.539 126.452 306.629 126.658C306.719 126.864 306.851 127.049 307.016 127.202C307.181 127.354 307.376 127.471 307.588 127.545C307.801 127.619 308.026 127.648 308.25 127.63Z" fill="white" stroke="#1F1A54" stroke-width="1.38" stroke-miterlimit="10"/>
<path d="M317.25 127.63C317.574 127.632 317.89 127.538 318.16 127.36C318.429 127.181 318.64 126.927 318.764 126.628C318.889 126.33 318.922 126.002 318.859 125.685C318.797 125.367 318.641 125.076 318.413 124.848C318.184 124.619 317.893 124.464 317.576 124.401C317.259 124.338 316.93 124.372 316.632 124.496C316.334 124.621 316.079 124.831 315.901 125.101C315.722 125.37 315.628 125.687 315.63 126.01C315.63 126.44 315.801 126.852 316.105 127.156C316.409 127.459 316.821 127.63 317.25 127.63Z" fill="white" stroke="#1F1A54" stroke-width="1.38" stroke-miterlimit="10"/>
<path d="M267.68 136.65C268.003 136.652 268.319 136.558 268.589 136.38C268.858 136.202 269.068 135.949 269.193 135.651C269.318 135.353 269.352 135.025 269.29 134.708C269.228 134.391 269.074 134.1 268.846 133.871C268.619 133.642 268.328 133.486 268.012 133.422C267.696 133.358 267.367 133.39 267.069 133.513C266.77 133.636 266.515 133.845 266.336 134.113C266.156 134.382 266.06 134.697 266.06 135.02C266.06 135.451 266.231 135.864 266.534 136.169C266.838 136.475 267.25 136.647 267.68 136.65Z" fill="white" stroke="#1F1A54" stroke-width="1.38" stroke-miterlimit="10"/>
<path d="M276.7 136.65C277.023 136.65 277.338 136.555 277.606 136.375C277.874 136.196 278.083 135.942 278.206 135.644C278.33 135.346 278.362 135.018 278.299 134.702C278.236 134.386 278.081 134.096 277.853 133.868C277.625 133.64 277.335 133.484 277.018 133.421C276.702 133.359 276.374 133.391 276.077 133.514C275.779 133.638 275.524 133.847 275.345 134.115C275.166 134.383 275.07 134.698 275.07 135.02C275.069 135.235 275.11 135.447 275.192 135.645C275.273 135.844 275.393 136.024 275.545 136.176C275.696 136.327 275.877 136.447 276.075 136.529C276.273 136.61 276.486 136.651 276.7 136.65Z" fill="white" stroke="#1F1A54" stroke-width="1.38" stroke-miterlimit="10"/>
<path d="M285.71 136.65C286.033 136.652 286.349 136.558 286.619 136.38C286.888 136.202 287.098 135.949 287.223 135.651C287.348 135.353 287.382 135.025 287.32 134.708C287.258 134.391 287.104 134.1 286.876 133.871C286.649 133.642 286.358 133.486 286.042 133.422C285.726 133.358 285.397 133.39 285.099 133.513C284.8 133.636 284.545 133.845 284.366 134.113C284.186 134.382 284.09 134.697 284.09 135.02C284.09 135.451 284.261 135.864 284.564 136.169C284.868 136.475 285.28 136.647 285.71 136.65Z" fill="white" stroke="#1F1A54" stroke-width="1.38" stroke-miterlimit="10"/>
<path d="M294.73 136.65C295.053 136.65 295.368 136.555 295.636 136.375C295.904 136.196 296.113 135.942 296.236 135.644C296.36 135.346 296.392 135.018 296.329 134.702C296.266 134.386 296.111 134.096 295.883 133.868C295.655 133.64 295.365 133.484 295.048 133.421C294.732 133.359 294.404 133.391 294.107 133.514C293.809 133.638 293.554 133.847 293.375 134.115C293.196 134.383 293.1 134.698 293.1 135.02C293.1 135.452 293.272 135.867 293.578 136.173C293.883 136.478 294.298 136.65 294.73 136.65Z" fill="white" stroke="#1F1A54" stroke-width="1.38" stroke-miterlimit="10"/>
<path d="M303.74 136.65C304.063 136.652 304.379 136.558 304.649 136.38C304.918 136.202 305.128 135.949 305.253 135.651C305.378 135.353 305.412 135.025 305.35 134.708C305.288 134.391 305.134 134.1 304.906 133.871C304.679 133.642 304.388 133.486 304.072 133.422C303.756 133.358 303.427 133.39 303.129 133.513C302.83 133.636 302.575 133.845 302.396 134.113C302.216 134.382 302.12 134.697 302.12 135.02C302.12 135.451 302.291 135.864 302.594 136.169C302.898 136.475 303.31 136.647 303.74 136.65Z" fill="white" stroke="#1F1A54" stroke-width="1.38" stroke-miterlimit="10"/>
<path d="M312.75 136.65C313.073 136.652 313.389 136.558 313.659 136.38C313.928 136.202 314.138 135.949 314.263 135.651C314.388 135.353 314.422 135.025 314.36 134.708C314.298 134.391 314.144 134.1 313.916 133.871C313.689 133.642 313.398 133.486 313.082 133.422C312.766 133.358 312.437 133.39 312.139 133.513C311.84 133.636 311.585 133.845 311.406 134.113C311.226 134.382 311.13 134.697 311.13 135.02C311.13 135.451 311.301 135.864 311.604 136.169C311.908 136.475 312.32 136.647 312.75 136.65Z" fill="white" stroke="#1F1A54" stroke-width="1.38" stroke-miterlimit="10"/>
<path d="M321.77 136.65C322.093 136.65 322.408 136.555 322.676 136.375C322.944 136.196 323.153 135.942 323.276 135.644C323.4 135.346 323.432 135.018 323.369 134.702C323.306 134.386 323.151 134.096 322.923 133.868C322.695 133.64 322.404 133.484 322.088 133.421C321.772 133.359 321.444 133.391 321.147 133.514C320.849 133.638 320.594 133.847 320.415 134.115C320.236 134.383 320.14 134.698 320.14 135.02C320.139 135.235 320.18 135.447 320.262 135.645C320.343 135.844 320.463 136.024 320.615 136.176C320.766 136.327 320.947 136.447 321.145 136.529C321.343 136.61 321.556 136.651 321.77 136.65Z" fill="white" stroke="#1F1A54" stroke-width="1.38" stroke-miterlimit="10"/>
<path d="M263.18 145.66C263.501 145.66 263.815 145.565 264.083 145.387C264.35 145.209 264.559 144.957 264.683 144.66C264.807 144.364 264.841 144.038 264.781 143.723C264.72 143.407 264.568 143.117 264.343 142.888C264.118 142.659 263.83 142.501 263.516 142.435C263.202 142.369 262.875 142.397 262.577 142.516C262.279 142.634 262.022 142.839 261.839 143.103C261.657 143.367 261.556 143.679 261.55 144C261.545 144.217 261.583 144.433 261.663 144.634C261.742 144.836 261.862 145.02 262.014 145.175C262.166 145.33 262.348 145.453 262.548 145.536C262.748 145.619 262.963 145.661 263.18 145.66Z" fill="white" stroke="#1F1A54" stroke-width="1.38" stroke-miterlimit="10"/>
<path d="M272.19 145.66C272.514 145.662 272.83 145.568 273.1 145.389C273.369 145.211 273.58 144.957 273.704 144.658C273.829 144.36 273.862 144.031 273.799 143.714C273.737 143.397 273.581 143.106 273.353 142.877C273.124 142.649 272.833 142.493 272.516 142.431C272.199 142.368 271.87 142.401 271.572 142.526C271.274 142.651 271.019 142.861 270.841 143.131C270.663 143.4 270.568 143.717 270.57 144.04C270.573 144.469 270.744 144.879 271.048 145.182C271.351 145.486 271.761 145.657 272.19 145.66Z" fill="white" stroke="#1F1A54" stroke-width="1.38" stroke-miterlimit="10"/>
<path d="M281.25 145.66C281.573 145.66 281.889 145.564 282.157 145.384C282.425 145.205 282.634 144.95 282.757 144.651C282.88 144.353 282.912 144.025 282.848 143.708C282.784 143.392 282.628 143.101 282.399 142.874C282.17 142.646 281.879 142.492 281.562 142.43C281.245 142.368 280.917 142.402 280.62 142.527C280.322 142.652 280.068 142.862 279.89 143.132C279.712 143.401 279.618 143.717 279.62 144.04C279.623 144.47 279.796 144.883 280.101 145.186C280.407 145.49 280.82 145.66 281.25 145.66Z" fill="white" stroke="#1F1A54" stroke-width="1.38" stroke-miterlimit="10"/>
<path d="M290.25 145.66C290.574 145.662 290.89 145.568 291.16 145.389C291.429 145.211 291.64 144.957 291.764 144.658C291.889 144.36 291.922 144.031 291.859 143.714C291.797 143.397 291.641 143.106 291.413 142.877C291.184 142.649 290.893 142.493 290.576 142.431C290.259 142.368 289.93 142.401 289.632 142.526C289.334 142.651 289.079 142.861 288.901 143.131C288.722 143.4 288.628 143.717 288.63 144.04C288.63 144.47 288.801 144.882 289.105 145.185C289.409 145.489 289.821 145.66 290.25 145.66Z" fill="white" stroke="#1F1A54" stroke-width="1.38" stroke-miterlimit="10"/>
<path d="M299.25 145.66C299.574 145.662 299.89 145.568 300.16 145.389C300.429 145.211 300.64 144.957 300.764 144.658C300.889 144.36 300.922 144.031 300.859 143.714C300.797 143.397 300.641 143.106 300.413 142.877C300.184 142.649 299.893 142.493 299.576 142.431C299.259 142.368 298.93 142.401 298.632 142.526C298.334 142.651 298.079 142.861 297.901 143.131C297.722 143.4 297.628 143.717 297.63 144.04C297.633 144.469 297.804 144.879 298.108 145.182C298.411 145.486 298.821 145.657 299.25 145.66Z" fill="white" stroke="#1F1A54" stroke-width="1.38" stroke-miterlimit="10"/>
<path d="M308.25 145.66C308.573 145.66 308.889 145.564 309.157 145.384C309.425 145.205 309.634 144.95 309.757 144.651C309.88 144.353 309.912 144.025 309.848 143.708C309.784 143.392 309.628 143.101 309.399 142.874C309.17 142.646 308.879 142.492 308.562 142.43C308.245 142.368 307.917 142.402 307.62 142.527C307.322 142.652 307.068 142.862 306.89 143.132C306.712 143.401 306.618 143.717 306.62 144.04C306.62 144.253 306.663 144.465 306.745 144.662C306.827 144.859 306.947 145.038 307.098 145.189C307.25 145.34 307.43 145.459 307.627 145.539C307.825 145.62 308.037 145.661 308.25 145.66Z" fill="white" stroke="#1F1A54" stroke-width="1.38" stroke-miterlimit="10"/>
<path d="M317.26 145.66C318.155 145.66 318.88 144.935 318.88 144.04C318.88 143.145 318.155 142.42 317.26 142.42C316.366 142.42 315.64 143.145 315.64 144.04C315.64 144.935 316.366 145.66 317.26 145.66Z" fill="white" stroke="#1F1A54" stroke-width="1.38" stroke-miterlimit="10"/>
<path d="M267.68 154.68C268.003 154.682 268.319 154.588 268.589 154.41C268.858 154.232 269.068 153.978 269.193 153.681C269.318 153.383 269.352 153.055 269.29 152.738C269.228 152.421 269.074 152.13 268.846 151.901C268.619 151.672 268.328 151.516 268.012 151.452C267.696 151.388 267.367 151.42 267.069 151.543C266.77 151.666 266.515 151.875 266.336 152.143C266.156 152.412 266.06 152.727 266.06 153.05C266.06 153.48 266.231 153.894 266.534 154.199C266.838 154.504 267.25 154.677 267.68 154.68Z" fill="white" stroke="#1F1A54" stroke-width="1.38" stroke-miterlimit="10"/>
<path d="M276.7 154.68C277.023 154.68 277.338 154.584 277.606 154.405C277.874 154.226 278.083 153.972 278.206 153.674C278.33 153.376 278.362 153.048 278.299 152.732C278.236 152.416 278.081 152.125 277.853 151.897C277.625 151.669 277.335 151.514 277.018 151.451C276.702 151.388 276.374 151.421 276.077 151.544C275.779 151.667 275.524 151.876 275.345 152.144C275.166 152.412 275.07 152.728 275.07 153.05C275.069 153.264 275.11 153.477 275.192 153.675C275.273 153.874 275.393 154.054 275.545 154.205C275.696 154.357 275.877 154.477 276.075 154.559C276.273 154.64 276.486 154.681 276.7 154.68Z" fill="white" stroke="#1F1A54" stroke-width="1.38" stroke-miterlimit="10"/>
<path d="M285.71 154.68C286.033 154.682 286.349 154.588 286.619 154.41C286.888 154.232 287.098 153.978 287.223 153.681C287.348 153.383 287.382 153.055 287.32 152.738C287.258 152.421 287.104 152.13 286.876 151.901C286.649 151.672 286.358 151.516 286.042 151.452C285.726 151.388 285.397 151.42 285.099 151.543C284.8 151.666 284.545 151.875 284.366 152.143C284.186 152.412 284.09 152.727 284.09 153.05C284.09 153.48 284.261 153.894 284.564 154.199C284.868 154.504 285.28 154.677 285.71 154.68Z" fill="white" stroke="#1F1A54" stroke-width="1.38" stroke-miterlimit="10"/>
<path d="M294.73 154.68C295.053 154.68 295.368 154.584 295.636 154.405C295.904 154.226 296.113 153.972 296.236 153.674C296.36 153.376 296.392 153.048 296.329 152.732C296.266 152.416 296.111 152.125 295.883 151.897C295.655 151.669 295.365 151.514 295.048 151.451C294.732 151.388 294.404 151.421 294.107 151.544C293.809 151.667 293.554 151.876 293.375 152.144C293.196 152.412 293.1 152.728 293.1 153.05C293.1 153.482 293.272 153.897 293.578 154.203C293.883 154.508 294.298 154.68 294.73 154.68Z" fill="white" stroke="#1F1A54" stroke-width="1.38" stroke-miterlimit="10"/>
<path d="M303.74 154.68C303.964 154.698 304.19 154.669 304.402 154.595C304.615 154.522 304.809 154.405 304.974 154.252C305.14 154.1 305.271 153.914 305.361 153.708C305.451 153.502 305.498 153.28 305.498 153.055C305.498 152.83 305.451 152.608 305.361 152.402C305.271 152.196 305.14 152.011 304.974 151.858C304.809 151.706 304.615 151.589 304.402 151.515C304.19 151.442 303.964 151.413 303.74 151.43C303.331 151.462 302.95 151.648 302.671 151.949C302.393 152.25 302.238 152.645 302.238 153.055C302.238 153.466 302.393 153.861 302.671 154.162C302.95 154.463 303.331 154.648 303.74 154.68Z" fill="white" stroke="#1F1A54" stroke-width="1.38" stroke-miterlimit="10"/>
<path d="M312.75 154.68C313.073 154.682 313.389 154.588 313.659 154.41C313.928 154.232 314.138 153.978 314.263 153.681C314.388 153.383 314.422 153.055 314.36 152.738C314.298 152.421 314.144 152.13 313.916 151.901C313.689 151.672 313.398 151.516 313.082 151.452C312.766 151.388 312.437 151.42 312.139 151.543C311.84 151.666 311.585 151.875 311.406 152.143C311.226 152.412 311.13 152.727 311.13 153.05C311.13 153.48 311.301 153.894 311.604 154.199C311.908 154.504 312.32 154.677 312.75 154.68Z" fill="white" stroke="#1F1A54" stroke-width="1.38" stroke-miterlimit="10"/>
<path d="M321.77 154.68C322.093 154.68 322.408 154.584 322.676 154.405C322.944 154.226 323.153 153.972 323.276 153.674C323.4 153.376 323.432 153.048 323.369 152.732C323.306 152.416 323.151 152.125 322.923 151.897C322.695 151.669 322.404 151.514 322.088 151.451C321.772 151.388 321.444 151.421 321.147 151.544C320.849 151.667 320.594 151.876 320.415 152.144C320.236 152.412 320.14 152.728 320.14 153.05C320.139 153.264 320.18 153.477 320.262 153.675C320.343 153.874 320.463 154.054 320.615 154.205C320.766 154.357 320.947 154.477 321.145 154.559C321.343 154.64 321.556 154.681 321.77 154.68Z" fill="white" stroke="#1F1A54" stroke-width="1.38" stroke-miterlimit="10"/>
</g>
<path d="M311.69 143L292.88 153.87L273.56 142.7V121L263.72 123.89L261.23 107.89L286.73 98.8902C287.218 100.218 288.049 101.392 289.139 102.294C290.229 103.196 291.538 103.793 292.934 104.023C294.33 104.254 295.761 104.111 297.083 103.608C298.406 103.105 299.571 102.26 300.46 101.16L302.68 98.4502C302.68 98.4502 316.15 102.59 318.95 105.97C322.52 110.29 321.58 129.46 321.58 129.46L311.69 129.3V143Z" stroke="#1F1A54" stroke-width="0.74" stroke-linecap="round" stroke-linejoin="round"/>
<path d="M261.23 107.91L263.32 121.48" stroke="#1F1A54" stroke-width="0.74" stroke-linecap="round" stroke-linejoin="round"/>
<path d="M321.25 129.4L320.71 137.78L311.69 142.98V129.27L321.25 129.4Z" fill="white" stroke="#1F1A54" stroke-width="0.74" stroke-linecap="round" stroke-linejoin="round"/>
<path d="M263.32 121.48L252.08 123.61C250.926 123.759 249.757 123.501 248.773 122.88C247.789 122.26 247.053 121.315 246.69 120.21C243.61 112.79 241.57 97.1202 238.94 93.5302C237.94 92.1702 235.62 89.5302 234.74 87.2102C234.37 86.2102 234.2 85.4902 233.53 83.9302C233.069 82.902 232.499 81.9264 231.83 81.0202C231.42 80.4702 230.29 78.9602 231.34 78.3202C231.81 78.0302 232.43 78.4002 232.64 78.5802C233.092 78.9509 233.495 79.3776 233.84 79.8502C234.468 80.5737 235.135 81.2615 235.84 81.9102C235.84 81.9102 234.18 78.9102 233.53 78.0402C233.09 77.4302 231.8 75.8702 232.81 75.0402C233.048 74.9064 233.319 74.8455 233.592 74.865C233.864 74.8846 234.124 74.9838 234.34 75.1502C234.737 75.5533 235.073 76.0113 235.34 76.5102C235.73 77.1102 237.81 79.6602 237.81 79.6602C237.81 79.6602 235.81 75.8202 235.31 74.8702C234.9 74.1202 233.56 72.1102 234.99 71.2802C235.99 70.7402 237.09 72.2802 237.7 73.2802C238.51 74.5502 240.7 78.6602 240.7 78.6602L239.06 73.8602C239.06 73.8602 238.28 71.8602 239.56 71.3402C240.84 70.8202 241.41 72.2702 241.73 72.9402C243.25 76.1402 244.73 79.5702 245.36 81.4702C246.26 84.0802 248.23 77.2802 250.36 78.0302C252.49 78.7802 246.25 89.4202 248.25 93.9302L255.25 110L261.25 107.9" fill="white"/>
<path d="M263.32 121.48L252.08 123.61C250.926 123.759 249.757 123.501 248.773 122.88C247.789 122.26 247.053 121.315 246.69 120.21C243.61 112.79 241.57 97.1202 238.94 93.5302C237.94 92.1702 235.62 89.5302 234.74 87.2102C234.37 86.2102 234.2 85.4902 233.53 83.9302C233.069 82.902 232.499 81.9264 231.83 81.0202C231.42 80.4702 230.29 78.9602 231.34 78.3202C231.81 78.0302 232.43 78.4002 232.64 78.5802C233.092 78.9509 233.495 79.3776 233.84 79.8502C234.468 80.5737 235.135 81.2615 235.84 81.9102C235.84 81.9102 234.18 78.9102 233.53 78.0402C233.09 77.4302 231.8 75.8702 232.81 75.0402C233.048 74.9064 233.319 74.8455 233.592 74.865C233.864 74.8846 234.124 74.9838 234.34 75.1502C234.737 75.5533 235.073 76.0113 235.34 76.5102C235.73 77.1102 237.81 79.6602 237.81 79.6602C237.81 79.6602 235.81 75.8202 235.31 74.8702C234.9 74.1202 233.56 72.1102 234.99 71.2802C235.99 70.7402 237.09 72.2802 237.7 73.2802C238.51 74.5502 240.7 78.6602 240.7 78.6602L239.06 73.8602C239.06 73.8602 238.28 71.8602 239.56 71.3402C240.84 70.8202 241.41 72.2702 241.73 72.9402C243.25 76.1402 244.73 79.5702 245.36 81.4702C246.26 84.0802 248.23 77.2802 250.36 78.0302C252.49 78.7802 246.25 89.4202 248.25 93.9302L255.25 110L261.25 107.9" stroke="#1F1A54" stroke-width="0.74" stroke-linecap="round" stroke-linejoin="round"/>
<path d="M243.94 83.6401C243.94 83.6401 242.27 85.4401 242.47 86.9101C241.823 86.2901 240.983 85.9121 240.09 85.8401" stroke="#1F1A54" stroke-width="0.74" stroke-linecap="round" stroke-linejoin="round"/>
<path d="M283.5 207.49V166.42L247.93 145.88L212.36 166.42V207.49L247.93 228.03L283.5 207.49Z" fill="#FFD400" stroke="#1F1A54" stroke-width="0.74" stroke-linecap="round" stroke-linejoin="round"/>
<path d="M263.06 195.61L264.15 189.7" stroke="#1F1A54" stroke-width="0.74" stroke-linecap="round" stroke-linejoin="round"/>
<path d="M264.25 143.21C264.25 143.21 267.25 151.16 262.65 157.36C263.187 156.632 263.55 155.79 263.71 154.9C264.43 151.19 261.76 148.52 259.39 149.5C258.87 135.06 249.74 135.06 249.74 135.06C253.93 134.57 258.09 135.71 260.05 139.06C261.03 139.367 261.922 139.904 262.653 140.626C263.383 141.348 263.931 142.234 264.25 143.21Z" fill="#1F1A54"/>
<path d="M256.54 152.38C256.726 151.994 256.947 151.626 257.2 151.28C257.775 150.501 258.544 149.888 259.43 149.5C261.8 148.5 264.43 151.19 263.75 154.9C263.59 155.79 263.227 156.632 262.69 157.36C262.038 158.141 261.237 158.786 260.334 159.256C259.431 159.726 258.444 160.013 257.43 160.1V169.78L259.51 170.59L258.07 175.19C256.54 181.63 250.57 186.89 250.57 186.89C245.89 183.12 242.74 176.72 243.01 172.39L243.1 171.03L244.97 170.24V166.58C242.29 165.94 240.74 164.12 239.88 161.41C239.25 159.41 239.08 155.58 239.13 151.79C239.13 149.93 239.23 148.09 239.33 146.48C241.45 145.81 244.74 141.88 244.74 141.88C246.006 144.223 247.869 146.189 250.14 147.58C252.49 148.868 254.645 150.485 256.54 152.38ZM243.1 152.7C243.068 152.564 242.998 152.44 242.899 152.342C242.799 152.245 242.674 152.177 242.538 152.147C242.402 152.117 242.26 152.127 242.129 152.174C241.997 152.221 241.882 152.305 241.796 152.415C241.711 152.525 241.658 152.657 241.644 152.796C241.63 152.934 241.655 153.074 241.717 153.199C241.779 153.324 241.875 153.429 241.994 153.502C242.113 153.574 242.251 153.612 242.39 153.61C242.603 153.58 242.797 153.468 242.929 153.298C243.062 153.129 243.123 152.914 243.1 152.7Z" fill="white"/>
<path d="M257.04 151.14C256.64 133.96 244.6 136.64 244.04 136.78C245.835 135.875 247.774 135.289 249.77 135.05C249.77 135.05 258.91 135.05 259.42 149.51C258.535 149.891 257.766 150.498 257.19 151.27L257.04 151.14Z" fill="#FFD400"/>
<path d="M257.03 151.14L257.2 151.28C256.947 151.626 256.726 151.994 256.54 152.38C254.645 150.485 252.49 148.869 250.14 147.58C247.869 146.189 246.006 144.223 244.74 141.88C244.74 141.88 241.45 145.81 239.33 146.48C239.23 148.09 239.15 149.93 239.13 151.79C236.18 144.68 239.13 141.03 239.13 141.03C240.354 139.191 242.054 137.718 244.05 136.77C244.61 136.64 256.64 134 257.03 151.14Z" fill="#1F1A54"/>
<path d="M242.39 151.79C242.58 151.744 242.78 151.759 242.961 151.832C243.143 151.905 243.297 152.033 243.402 152.197C243.507 152.362 243.559 152.556 243.549 152.751C243.539 152.946 243.468 153.134 243.347 153.287C243.226 153.44 243.06 153.552 242.872 153.606C242.684 153.661 242.484 153.655 242.299 153.591C242.115 153.526 241.955 153.406 241.842 153.246C241.729 153.086 241.669 152.895 241.67 152.7C241.647 152.484 241.71 152.268 241.845 152.098C241.979 151.928 242.175 151.817 242.39 151.79Z" fill="#1F1A54"/>
<path d="M237.16 218C237.29 220.56 237.23 222.16 237.23 222.16L232.95 219.61V211.32L232.03 207.51L230.25 199.31L235.55 198.88C236.35 206.75 237.07 216.4 237.16 218Z" fill="white"/>
<path d="M235.52 198.88L230.22 199.31L229.22 194.91C229.22 194.91 226.28 188.3 227.22 182.59C227.92 178.47 229.98 174.71 233.1 173.72L243.04 171.03L242.95 172.39C242.68 176.72 245.83 183.12 250.51 186.89C250.51 186.89 256.51 181.63 258.01 175.19L259.45 170.59C259.45 170.59 270.83 173.47 273.63 176.85C277.2 181.17 272.83 201.17 272.83 201.17L263.94 199.7L258.75 222.09L247.93 228L237.25 222.19C237.25 222.19 237.31 220.59 237.18 218.03C237.07 216.4 236.35 206.75 235.52 198.88Z" fill="white"/>
<path d="M239.33 146.48C239.23 148.09 239.15 149.93 239.13 151.79C239.13 155.58 239.25 159.44 239.88 161.41C240.74 164.12 242.29 165.94 244.97 166.58L245.68 166.72C248.21 166.932 250.722 166.146 252.68 164.53" stroke="#1F1A54" stroke-width="0.74" stroke-linecap="round" stroke-linejoin="round"/>
<path d="M250.14 149.9C249.717 149.637 249.228 149.498 248.73 149.5C248.197 149.51 247.68 149.684 247.25 150" stroke="#1F1A54" stroke-width="0.74" stroke-linecap="round" stroke-linejoin="round"/>
<path d="M243.96 149.9C243.537 149.636 243.048 149.497 242.55 149.5C242.018 149.496 241.497 149.657 241.06 149.96" stroke="#1F1A54" stroke-width="0.74" stroke-linecap="round" stroke-linejoin="round"/>
<path d="M251.25 158C251.041 158.75 250.629 159.427 250.059 159.957C249.489 160.486 248.783 160.847 248.02 161" stroke="#1F1A54" stroke-width="0.74" stroke-linecap="round" stroke-linejoin="round"/>
<path d="M246.63 156.75C246.339 156.906 246.015 156.987 245.685 156.987C245.355 156.987 245.031 156.906 244.74 156.75" stroke="#1F1A54" stroke-width="0.74" stroke-linecap="round" stroke-linejoin="round"/>
<path d="M260.62 152.7C260.62 152.7 258.67 153 258.38 156.06" stroke="#1F1A54" stroke-width="0.74" stroke-linecap="round" stroke-linejoin="round"/>
<path d="M257.43 160.1V169.78L259.51 170.59" stroke="#1F1A54" stroke-width="0.74" stroke-linecap="round" stroke-linejoin="round"/>
<path d="M244.97 166.58V170.24L243.1 171.03" stroke="#1F1A54" stroke-width="0.74" stroke-linecap="round" stroke-linejoin="round"/>
<path d="M264 199.7L272.89 201.17C272.89 201.17 277.26 181.17 273.69 176.85C270.89 173.47 259.51 170.59 259.51 170.59L258.07 175.19C256.54 181.63 250.57 186.89 250.57 186.89C245.89 183.12 242.74 176.72 243.01 172.39L243.1 171.03L233.16 173.72C230.04 174.72 227.98 178.47 227.28 182.59C226.28 188.3 229.28 194.91 229.28 194.91L230.28 199.31L232.09 207.54" stroke="#1F1A54" stroke-width="0.74" stroke-linecap="round" stroke-linejoin="round"/>
<path d="M256.31 153C256.376 152.806 256.453 152.615 256.54 152.43C256.726 152.044 256.947 151.676 257.2 151.33C257.775 150.551 258.544 149.937 259.43 149.55C261.8 148.55 264.43 151.24 263.75 154.95C263.59 155.84 263.227 156.682 262.69 157.41C262.038 158.191 261.237 158.836 260.334 159.306C259.431 159.776 258.444 160.063 257.43 160.15" stroke="#1F1A54" stroke-width="0.74" stroke-linecap="round" stroke-linejoin="round"/>
<path d="M244.05 136.77C245.846 135.871 247.785 135.292 249.78 135.06C253.97 134.57 258.13 135.71 260.09 139.06C261.068 139.365 261.959 139.899 262.689 140.617C263.419 141.335 263.968 142.217 264.29 143.19C264.29 143.19 267.29 151.14 262.69 157.34" stroke="#1F1A54" stroke-width="0.74" stroke-linecap="round" stroke-linejoin="round"/>
<path d="M239.13 151.79C236.18 144.68 239.13 141.03 239.13 141.03C240.354 139.19 242.054 137.718 244.05 136.77" stroke="#1F1A54" stroke-width="0.74" stroke-linecap="round" stroke-linejoin="round"/>
<path d="M256.54 152.38C254.645 150.485 252.49 148.868 250.14 147.58C247.869 146.189 246.006 144.223 244.74 141.88C244.74 141.88 241.45 145.81 239.33 146.48" stroke="#1F1A54" stroke-width="0.74" stroke-linecap="round" stroke-linejoin="round"/>
<path d="M232.03 207.54L232.95 211.35V219.35L237.18 221.79C237.258 220.528 237.258 219.262 237.18 218C237.09 216.37 236.37 206.72 235.54 198.85C235.01 193.79 234.44 189.47 233.96 188.48" stroke="#1F1A54" stroke-width="0.74" stroke-linecap="round" stroke-linejoin="round"/>
<path d="M230.22 199.31L235.52 198.88H235.53" stroke="#1F1A54" stroke-width="0.74" stroke-linecap="round" stroke-linejoin="round"/>
<path d="M244.04 136.77C244.6 136.64 256.63 133.96 257.04 151.14" stroke="#1F1A54" stroke-width="0.74" stroke-linecap="round" stroke-linejoin="round"/>
<path d="M249.78 135.06C249.78 135.06 258.91 135.06 259.43 149.5" stroke="#1F1A54" stroke-width="0.74" stroke-linecap="round" stroke-linejoin="round"/>
<path d="M235.52 198.88L230.22 199.31L229.22 194.91C229.22 194.91 226.28 188.3 227.22 182.59C227.92 178.47 229.98 174.71 233.1 173.72L243.04 171.03L242.95 172.39C242.68 176.72 245.83 183.12 250.51 186.89C250.51 186.89 256.51 181.63 258.01 175.19L259.45 170.59C259.45 170.59 270.83 173.47 273.63 176.85C277.2 181.17 272.83 201.17 272.83 201.17L263.94 199.7L258.85 221.7L247.85 228.08L237.1 221.87C237.178 220.608 237.178 219.342 237.1 218.08C237.07 216.4 236.35 206.75 235.52 198.88Z" fill="#1F1A54"/>
<mask id="mask2" mask-type="alpha" maskUnits="userSpaceOnUse" x="227" y="170" width="49" height="59">
<path d="M235.52 198.88L230.22 199.31L229.22 194.91C229.22 194.91 226.28 188.3 227.22 182.59C227.92 178.47 229.98 174.71 233.1 173.72L243.04 171.03L242.95 172.39C242.68 176.72 245.83 183.12 250.51 186.89C250.51 186.89 256.51 181.63 258.01 175.19L259.45 170.59C259.45 170.59 270.83 173.47 273.63 176.85C277.2 181.17 272.83 201.17 272.83 201.17L263.94 199.7L258.85 221.7L247.85 228.08L237.1 221.87C237.178 220.608 237.178 219.342 237.1 218.08C237.07 216.4 236.35 206.75 235.52 198.88Z" fill="#1F1A54"/>
</mask>
<g mask="url(#mask2)">
<path d="M308.97 221.98H192.65" stroke="#FFD400" stroke-width="0.46" stroke-linecap="round" stroke-linejoin="round"/>
<path d="M308.97 215.3H192.65" stroke="#FFD400" stroke-width="0.46" stroke-linecap="round" stroke-linejoin="round"/>
<path d="M308.97 208.62H192.65" stroke="#FFD400" stroke-width="0.46" stroke-linecap="round" stroke-linejoin="round"/>
<path d="M308.97 201.94H192.65" stroke="#FFD400" stroke-width="0.46" stroke-linecap="round" stroke-linejoin="round"/>
<path d="M308.97 195.26H192.65" stroke="#FFD400" stroke-width="0.46" stroke-linecap="round" stroke-linejoin="round"/>
<path d="M308.97 188.58H192.65" stroke="#FFD400" stroke-width="0.46" stroke-linecap="round" stroke-linejoin="round"/>
<path d="M308.97 181.9H192.65" stroke="#FFD400" stroke-width="0.46" stroke-linecap="round" stroke-linejoin="round"/>
<path d="M308.97 175.22H192.65" stroke="#FFD400" stroke-width="0.46" stroke-linecap="round" stroke-linejoin="round"/>
<path d="M270.85 130.42V246.74" stroke="#FFD400" stroke-width="0.46" stroke-linecap="round" stroke-linejoin="round"/>
<path d="M264.17 130.42V246.74" stroke="#FFD400" stroke-width="0.46" stroke-linecap="round" stroke-linejoin="round"/>
<path d="M257.49 130.42V246.74" stroke="#FFD400" stroke-width="0.46" stroke-linecap="round" stroke-linejoin="round"/>
<path d="M250.81 130.42V246.74" stroke="#FFD400" stroke-width="0.46" stroke-linecap="round" stroke-linejoin="round"/>
<path d="M244.13 130.42V246.74" stroke="#FFD400" stroke-width="0.46" stroke-linecap="round" stroke-linejoin="round"/>
<path d="M237.45 130.42V246.74" stroke="#FFD400" stroke-width="0.46" stroke-linecap="round" stroke-linejoin="round"/>
<path d="M230.77 130.42V246.74" stroke="#FFD400" stroke-width="0.46" stroke-linecap="round" stroke-linejoin="round"/>
</g>
<path d="M235.52 198.88L230.22 199.31L229.22 194.91C229.22 194.91 226.28 188.3 227.22 182.59C227.92 178.47 229.98 174.71 233.1 173.72L243.04 171.03L242.95 172.39C242.68 176.72 245.83 183.12 250.51 186.89C250.51 186.89 256.51 181.63 258.01 175.19L259.45 170.59C259.45 170.59 270.83 173.47 273.63 176.85C277.2 181.17 272.83 201.17 272.83 201.17L263.94 199.7L258.85 221.7L247.85 228.08L237.1 221.87C237.178 220.608 237.178 219.342 237.1 218.08C237.07 216.4 236.35 206.75 235.52 198.88Z" stroke="#1F1A54" stroke-width="0.74" stroke-linejoin="round"/>
<path d="M247.99 152.5C248.243 152.352 248.521 152.25 248.81 152.2C248.953 152.176 249.099 152.183 249.239 152.221C249.379 152.259 249.509 152.327 249.62 152.42" stroke="#1F1A54" stroke-width="0.74" stroke-linecap="round" stroke-linejoin="round"/>
<path d="M260.62 174.63C260.658 174.064 260.758 173.504 260.92 172.96C260.99 172.7 261.27 172.09 261.7 172.13C262.7 172.22 262.51 174.07 262.45 174.75C262.355 175.868 262.355 176.992 262.45 178.11C262.62 179.79 262.8 180.51 262.94 181.56C263.28 184.02 262.76 187.43 262.63 189.09C262.46 192.678 262.917 196.269 263.98 199.7L272.86 201.16C272.86 201.16 270.5 211.39 269.69 215.73C269.004 218.579 267.415 221.129 265.16 223C265.16 223 261.71 223.74 260.67 223.31C257.67 222.08 255.94 214.14 255.67 211.31C255.27 206.96 256.47 193.64 256.47 193.64C255.98 188.75 247.47 182.16 248.58 180.53C249.69 178.9 253.79 184.03 253.35 181.3C253.03 179.3 252.64 175.61 252.35 172.08C252.29 171.34 252.07 169.78 253.18 169.68C254.29 169.58 254.53 171.68 254.53 171.68L255.34 176.68C255.34 176.68 255.1 171.21 255.15 169.68C255.15 168.57 255.33 166.68 256.15 166.68C257.45 166.76 257.36 169.15 257.37 170C257.37 171.08 257.71 176.21 257.71 176.21C257.71 176.21 258.09 172.99 258.11 172.28C258.098 171.716 258.152 171.152 258.27 170.6C258.35 170.32 258.77 169.68 259.27 169.81C260.27 170.07 260.04 172.05 260 172.81C259.92 173.92 260 177.3 260 177.3C260 177.3 260.54 175.44 260.62 174.63Z" fill="white"/>
<path d="M264 199.7C262.937 196.269 262.48 192.678 262.65 189.09C262.78 187.43 263.3 184.02 262.96 181.56C262.82 180.51 262.64 179.79 262.47 178.11C262.375 176.992 262.375 175.868 262.47 174.75C262.53 174.07 262.69 172.22 261.72 172.13C261.29 172.13 261.01 172.7 260.94 172.96C260.778 173.504 260.678 174.064 260.64 174.63C260.56 175.44 260.1 177.37 260.1 177.37C260.1 177.37 260.04 173.99 260.1 172.88C260.1 172.14 260.4 170.16 259.37 169.88C258.88 169.75 258.46 170.39 258.37 170.67C258.252 171.222 258.198 171.786 258.21 172.35C258.21 173.06 257.81 176.28 257.81 176.28C257.81 176.28 257.5 171.15 257.47 170.07C257.47 169.22 257.55 166.83 256.25 166.75C255.39 166.69 255.25 168.62 255.25 169.75C255.2 171.25 255.44 176.75 255.44 176.75L254.63 171.75C254.63 171.75 254.37 169.65 253.28 169.75C252.19 169.85 252.39 171.41 252.45 172.15C252.7 175.68 253.09 179.38 253.45 181.37C253.89 184.1 249.82 178.97 248.68 180.6C247.54 182.23 256.08 188.82 256.57 193.71C256.57 193.71 255.37 207.03 255.77 211.38C256.03 214.18 257.77 222.12 260.77 223.38C261.77 223.81 265.26 223.07 265.26 223.07C267.515 221.199 269.104 218.649 269.79 215.8C270.6 211.46 272.96 201.23 272.96 201.23L264 199.7Z" stroke="#1F1A54" stroke-width="0.74" stroke-linecap="round" stroke-linejoin="round"/>
<path d="M266.86 215C266.86 215 267.47 210 266.18 206.44C265.27 203.91 264.55 201.68 264 199.67" stroke="#1F1A54" stroke-width="0.74" stroke-linecap="round" stroke-linejoin="round"/>
<path d="M255.25 182.58C256.26 183.03 257.08 183.819 257.57 184.81C257.742 184.035 258.155 183.335 258.75 182.81" stroke="#1F1A54" stroke-width="0.74" stroke-linecap="round" stroke-linejoin="round"/>
</svg>
