<svg width="81" height="80" viewBox="0 0 81 80" fill="none" xmlns="http://www.w3.org/2000/svg">
<path d="M38.9 11.1001H50C50.7956 11.1001 51.5587 11.4162 52.1213 11.9788C52.6839 12.5414 53 13.3044 53 14.1001V57.5001C53 58.2957 52.6839 59.0588 52.1213 59.6214C51.5587 60.184 50.7956 60.5001 50 60.5001H13.5C12.7044 60.5001 11.9413 60.184 11.3787 59.6214C10.8161 59.0588 10.5 58.2957 10.5 57.5001V14.1001C10.5 13.3044 10.8161 12.5414 11.3787 11.9788C11.9413 11.4162 12.7044 11.1001 13.5 11.1001H24.6" stroke="#1F1A54" stroke-width="2" stroke-linecap="round" stroke-linejoin="round"/>
<path d="M36.9 16.5H26.6C26.0695 16.5 25.5608 16.2893 25.1858 15.9142C24.8107 15.5391 24.6 15.0304 24.6 14.5V11C24.6 10.4696 24.8107 9.96086 25.1858 9.58579C25.5608 9.21071 26.0695 9 26.6 9H36.9C37.4304 9 37.9391 9.21071 38.3142 9.58579C38.6893 9.96086 38.9 10.4696 38.9 11V14.5C38.9 15.0304 38.6893 15.5391 38.3142 15.9142C37.9391 16.2893 37.4304 16.5 36.9 16.5Z" stroke="#1F1A54" stroke-width="2" stroke-linecap="round" stroke-linejoin="round"/>
<path d="M22.7 22.8H45.9" stroke="#1F1A54" stroke-width="2" stroke-linecap="round" stroke-linejoin="round"/>
<path d="M17.1 22.8H17" stroke="#1F1A54" stroke-width="2" stroke-linecap="round" stroke-linejoin="round"/>
<path d="M22.7 31.7H46" stroke="#1F1A54" stroke-width="2" stroke-linecap="round" stroke-linejoin="round"/>
<path d="M17.1 31.7H17" stroke="#1F1A54" stroke-width="2" stroke-linecap="round" stroke-linejoin="round"/>
<path d="M22.8 40.5H46" stroke="#1F1A54" stroke-width="2" stroke-linecap="round" stroke-linejoin="round"/>
<path d="M22.7 49.1001H46" stroke="#1F1A54" stroke-width="2" stroke-linecap="round" stroke-linejoin="round"/>
<path d="M17.1 49.1001H17" stroke="#1F1A54" stroke-width="2" stroke-linecap="round" stroke-linejoin="round"/>
<path d="M17.1 40.5H17" stroke="#1F1A54" stroke-width="2" stroke-linecap="round" stroke-linejoin="round"/>
<g filter="url(#filter0_d)">
<path d="M51.6999 70.4C55.1017 70.4 58.4272 69.3912 61.2557 67.5013C64.0842 65.6113 66.2888 62.9251 67.5906 59.7822C68.8924 56.6393 69.233 53.1809 68.5694 49.8445C67.9057 46.508 66.2676 43.4432 63.8621 41.0378C61.4567 38.6323 58.3919 36.9942 55.0554 36.3305C51.719 35.6668 48.2606 36.0075 45.1177 37.3093C41.9748 38.6111 39.2886 40.8157 37.3986 43.6442C35.5086 46.4727 34.4999 49.7982 34.4999 53.2C34.4999 57.7617 36.312 62.1366 39.5376 65.3622C42.7633 68.5879 47.1382 70.4 51.6999 70.4Z" fill="url(#paint0_linear)"/>
</g>
<path d="M51.5 61.3303V53.3203" stroke="white" stroke-width="3" stroke-linecap="round" stroke-linejoin="round"/>
<circle cx="51.5" cy="47" r="2" fill="white"/>
<path d="M51.7999 37.6001C54.8936 37.5849 57.9219 38.4899 60.4999 40.2001C63.0291 41.9678 65.0332 44.3865 66.2999 47.2001C67.4945 50.0774 67.8077 53.2446 67.1999 56.3001C66.5662 59.325 65.0732 62.1027 62.8999 64.3001C60.7098 66.5013 57.9136 68.0003 54.8681 68.6059C51.8225 69.2114 48.6656 68.8961 45.7999 67.7001C42.9326 66.5212 40.4913 64.4984 38.7999 61.9001C36.8053 58.8732 35.9152 55.2512 36.2795 51.6445C36.6438 48.0378 38.2403 44.667 40.7999 42.1001C42.2446 40.6597 43.9608 39.5202 45.849 38.7478C47.7372 37.9753 49.7599 37.5852 51.7999 37.6001ZM51.7999 34.6001C48.1072 34.6113 44.4961 35.6876 41.3999 37.7001C38.3518 39.7654 35.9853 42.6888 34.5999 46.1001C33.2353 49.5276 32.8544 53.2679 33.4999 56.9001C34.2044 60.5371 35.9806 63.8803 38.6001 66.4999C41.2197 69.1195 44.5629 70.8956 48.1999 71.6001C51.828 72.3406 55.5957 71.9569 58.9999 70.5001C62.9729 68.8298 66.2461 65.837 68.2647 62.0291C70.2833 58.2212 70.9231 53.8325 70.0756 49.6068C69.2281 45.3811 66.9455 41.5785 63.6147 38.8434C60.2839 36.1084 56.1098 34.6092 51.7999 34.6001Z" fill="white"/>
<defs>
<filter id="filter0_d" x="31.4999" y="36" width="40.4" height="40.4" filterUnits="userSpaceOnUse" color-interpolation-filters="sRGB">
<feFlood flood-opacity="0" result="BackgroundImageFix"/>
<feColorMatrix in="SourceAlpha" type="matrix" values="0 0 0 0 0 0 0 0 0 0 0 0 0 0 0 0 0 0 127 0"/>
<feOffset dy="3"/>
<feGaussianBlur stdDeviation="1.5"/>
<feColorMatrix type="matrix" values="0 0 0 0 0.636094 0 0 0 0 0.666281 0 0 0 0 0.8625 0 0 0 0.2 0"/>
<feBlend mode="normal" in2="BackgroundImageFix" result="effect1_dropShadow"/>
<feBlend mode="normal" in="SourceGraphic" in2="effect1_dropShadow" result="shape"/>
</filter>
<linearGradient id="paint0_linear" x1="51.6999" y1="36" x2="51.6999" y2="70.4" gradientUnits="userSpaceOnUse">
<stop stop-color="#FBE100"/>
<stop offset="1" stop-color="#FFD600"/>
</linearGradient>
</defs>
</svg>
