<svg width="255" height="135" viewBox="0 0 255 135" fill="none" xmlns="http://www.w3.org/2000/svg">
<path d="M95.8121 121.668V124.927L101.865 132.842L108.383 132.376L109.314 84.4207H91.1562L95.8121 121.668Z" fill="#FED401"/>
<path d="M81.2112 75.3976C73.4266 76.4406 62.4294 71.5705 66.1541 58.9159C69.0966 48.9431 75.6614 51.3734 78.2593 55.5171C79.7678 57.9661 78.5014 61.6908 75.1213 63.2831C67.7092 66.7471 56.9355 55.6475 63.5748 41.5589C66.2938 35.7763 70.093 33.2808 73.7152 32.3496" stroke="#FED401" stroke-linecap="round" stroke-linejoin="round" stroke-dasharray="4 4"/>
<path d="M86.0157 13.5586L101.538 10.1225C105.012 9.38165 108.637 10.051 111.617 11.9832C114.597 13.9155 116.688 16.9524 117.429 20.4259C118.17 23.8995 117.5 27.525 115.568 30.5051C113.636 33.4851 110.599 35.5755 107.125 36.3164L91.5934 39.7058C88.1053 40.4551 84.4624 39.7895 81.4647 37.855C78.467 35.9206 76.3596 32.8755 75.6052 29.3885C73.9011 22.2929 78.6501 15.095 86.0157 13.5586Z" fill="#FED401"/>
<path d="M93.391 18.5681L93.959 18.1212C94.4201 17.6201 94.7769 17.0325 95.0089 16.3923C95.2409 15.7522 95.3435 15.0724 95.3105 14.3923C95.2776 13.7123 95.1099 13.0455 94.8172 12.4308C94.5244 11.8161 94.1125 11.2656 93.6052 10.8115L87.4781 5.17788C86.4527 4.25566 85.1047 3.77548 83.7272 3.84174C82.3497 3.908 81.054 4.51534 80.1218 5.53173L79.5445 6.10905C79.0835 6.6101 78.7266 7.19775 78.4946 7.83786C78.2626 8.47798 78.1601 9.15782 78.193 9.83789C78.2259 10.518 78.3937 11.1847 78.6864 11.7994C78.9792 12.4141 79.3911 12.9646 79.8984 13.4187L86.0255 19.0058C87.062 19.9205 88.4185 20.3879 89.7985 20.3059C91.1785 20.2239 92.4701 19.5992 93.391 18.5681Z" fill="white" stroke="#221E54" stroke-miterlimit="10" stroke-linecap="round"/>
<path d="M93.3906 19.695H94.0889C95.4779 19.5606 96.7571 18.8817 97.6469 17.8069C98.5368 16.732 98.965 15.3486 98.8379 13.959L98.1395 5.73679C97.9892 4.34695 97.2966 3.07255 96.2121 2.19036C95.1277 1.30816 93.739 0.889417 92.3477 1.02506H91.6679C90.279 1.15954 88.9998 1.83839 88.1099 2.91322C87.22 3.98806 86.7918 5.37147 86.9189 6.76107L87.8501 14.974C87.888 15.6535 88.0635 16.3182 88.3659 16.9279C88.6683 17.5376 89.0913 18.0796 89.6094 18.521C90.1274 18.9624 90.7296 19.294 91.3795 19.4958C92.0295 19.6976 92.7137 19.7654 93.3906 19.695V19.695Z" fill="white" stroke="#221E54" stroke-miterlimit="10" stroke-linecap="round"/>
<path d="M86.0157 13.5586L101.538 10.1225C103.275 9.71061 105.077 9.64998 106.838 9.94421C108.599 10.2384 110.284 10.8816 111.792 11.8359C113.301 12.7902 114.604 14.0364 115.625 15.5013C116.645 16.9662 117.363 18.6202 117.735 20.3663C118.107 22.1124 118.127 23.9152 117.793 25.669C117.458 27.4227 116.777 29.092 115.789 30.5788C114.8 32.0655 113.525 33.3398 112.037 34.3267C110.549 35.3136 108.879 35.9932 107.125 36.3257L91.5934 39.7152C88.104 40.4642 84.4599 39.7973 81.462 37.8609C78.464 35.9246 76.3575 32.8772 75.6052 29.3885C73.9011 22.2929 78.6501 15.095 86.0157 13.5586Z" fill="#FED401"/>
<path fill-rule="evenodd" clip-rule="evenodd" d="M84.2241 39.2174C83.2628 38.8731 82.3365 38.4178 81.4647 37.8552C78.467 35.9208 76.3596 32.8757 75.6052 29.3887C74.4407 24.5399 76.2897 19.6433 79.9277 16.5382C78.4372 20.795 76.2798 30.6963 84.2241 39.2174ZM103.278 37.1563L93.4307 39.3051C91.5612 37.3515 82.3957 26.8276 87.6135 13.2051L97.3017 11.0605C95.7723 14.8812 92.0114 27.3743 103.278 37.1563Z" fill="#221E54"/>
<path d="M110.506 23.606C110.506 23.606 108.876 22.3954 106.995 24.5371" stroke="#221E54" stroke-miterlimit="10" stroke-linecap="round"/>
<path d="M102.116 22.0418C102.218 22.4555 102.475 22.8143 102.833 23.0447C103.192 23.275 103.625 23.3593 104.043 23.2802C104.452 23.1782 104.806 22.9236 105.033 22.5686C105.26 22.2135 105.342 21.7851 105.263 21.3713C105.176 20.9628 104.932 20.6046 104.584 20.3732C104.236 20.1418 103.811 20.0556 103.401 20.1329C103.187 20.1656 102.982 20.2423 102.8 20.3581C102.617 20.4739 102.461 20.6263 102.34 20.8056C102.219 20.985 102.137 21.1875 102.098 21.4002C102.06 21.613 102.066 21.8314 102.116 22.0418V22.0418Z" fill="#221E54"/>
<path d="M102.917 21.7063C102.932 21.7813 102.963 21.8522 103.008 21.9142C103.053 21.9762 103.111 22.0279 103.177 22.066C103.243 22.1041 103.317 22.1276 103.393 22.1349C103.47 22.1423 103.547 22.1334 103.619 22.1088C103.692 22.0842 103.758 22.0444 103.814 21.9922C103.87 21.9399 103.914 21.8764 103.944 21.8057C103.973 21.7351 103.987 21.659 103.985 21.5825C103.983 21.5059 103.965 21.4307 103.931 21.3618C103.933 21.2824 103.912 21.2042 103.87 21.1364C103.829 21.0686 103.769 21.0139 103.698 20.9788C103.627 20.9436 103.547 20.9295 103.468 20.9379C103.389 20.9464 103.314 20.9772 103.252 21.0266C103.14 21.008 102.917 21.3711 102.917 21.7063Z" fill="white"/>
<path d="M110.394 20.347C110.459 20.6618 110.616 20.9502 110.845 21.1756C111.074 21.4009 111.365 21.5531 111.681 21.6126C111.997 21.6721 112.323 21.6364 112.619 21.5099C112.914 21.3834 113.165 21.1719 113.34 20.9022C113.515 20.6326 113.606 20.317 113.601 19.9957C113.596 19.6743 113.496 19.3616 113.313 19.0975C113.13 18.8333 112.872 18.6296 112.573 18.5121C112.274 18.3947 111.946 18.3689 111.632 18.4381C111.424 18.4789 111.226 18.5611 111.05 18.68C110.874 18.7989 110.724 18.9519 110.609 19.13C110.493 19.3081 110.414 19.5076 110.378 19.7167C110.341 19.9258 110.346 20.1401 110.394 20.347V20.347Z" fill="#221E54"/>
<path d="M111.186 20.0115C111.184 20.0909 111.205 20.1691 111.247 20.2369C111.288 20.3047 111.348 20.3594 111.419 20.3946C111.49 20.4297 111.57 20.4438 111.649 20.4354C111.728 20.4269 111.803 20.3962 111.865 20.3467C111.945 20.3505 112.023 20.3312 112.092 20.291C112.16 20.2509 112.216 20.1917 112.251 20.1207C112.287 20.0497 112.301 19.9698 112.292 19.8909C112.283 19.812 112.251 19.7375 112.201 19.6763C112.204 19.5961 112.184 19.5166 112.143 19.4474C112.103 19.3781 112.043 19.322 111.971 19.2857C111.9 19.2495 111.819 19.2345 111.739 19.2426C111.659 19.2508 111.584 19.2817 111.521 19.3317C111.409 19.3317 111.186 19.6763 111.186 20.0115Z" fill="white"/>
<path d="M108.569 11.5753C108.569 11.5753 108.336 4.94535 113.327 6.28624" stroke="#221E54" stroke-miterlimit="10" stroke-linecap="round"/>
<path d="M103.699 12.4785C103.699 12.4785 100.514 6.18379 104.704 4.61011" stroke="#221E54" stroke-miterlimit="10" stroke-linecap="round"/>
<path d="M89.6845 121.332H95.7185V88.741C95.6658 87.5848 95.1695 86.4934 94.3327 85.6938C93.4959 84.8942 92.383 84.448 91.2256 84.448C90.0682 84.448 88.9553 84.8942 88.1185 85.6938C87.2817 86.4934 86.7853 87.5848 86.7327 88.741V118.389C86.7237 118.779 86.794 119.167 86.9393 119.528C87.0846 119.89 87.3019 120.218 87.5779 120.493C87.8539 120.769 88.183 120.985 88.5451 121.129C88.9072 121.273 89.2949 121.342 89.6845 121.332V121.332Z" fill="#221E54" stroke="#221E54"/>
<path d="M107.685 84.3928H91.2959" stroke="#221E54"/>
<path d="M95.7374 121.332V126.677C95.7337 127.509 95.8947 128.332 96.2111 129.101C96.5276 129.87 96.9931 130.568 97.581 131.156C98.1688 131.744 98.8673 132.21 99.6361 132.526C100.405 132.843 101.229 133.004 102.06 133H170.613C171.394 132.995 172.142 132.683 172.695 132.13C173.247 131.577 173.56 130.83 173.565 130.048V49.5205C173.598 48.9674 173.465 48.4171 173.185 47.9394C172.904 47.4617 172.488 47.0782 171.989 46.8376C171.49 46.5971 170.931 46.5103 170.382 46.5885C169.834 46.6666 169.321 46.906 168.909 47.2763L163.173 51.7367L157.409 47.2763C156.912 46.875 156.292 46.656 155.654 46.656C155.015 46.656 154.395 46.875 153.898 47.2763L148.097 51.7367L142.342 47.2391C141.846 46.8377 141.226 46.6188 140.587 46.6188C139.948 46.6188 139.329 46.8377 138.832 47.2391L133.105 51.7367L127.351 47.2391C126.854 46.8377 126.234 46.6188 125.595 46.6188C124.957 46.6188 124.337 46.8377 123.84 47.2391L118.076 51.7367L112.312 47.2391C111.892 46.8947 111.383 46.6775 110.843 46.6131C110.304 46.5487 109.758 46.6398 109.268 46.8756C108.779 47.1115 108.367 47.4822 108.082 47.9442C107.796 48.4062 107.649 48.9402 107.656 49.4832V127.897C107.68 128.57 107.567 129.241 107.325 129.87C107.084 130.499 106.718 131.072 106.25 131.557C105.81 132.003 105.285 132.357 104.706 132.598C104.127 132.84 103.506 132.963 102.879 132.963" fill="#FED401"/>
<path d="M95.7374 121.332V126.677C95.7337 127.509 95.8947 128.332 96.2111 129.101C96.5276 129.87 96.9931 130.568 97.581 131.156C98.1688 131.744 98.8673 132.21 99.6361 132.526C100.405 132.843 101.229 133.004 102.06 133H170.613C171.394 132.995 172.142 132.683 172.695 132.13C173.247 131.577 173.56 130.83 173.565 130.048V49.5205C173.598 48.9674 173.465 48.4171 173.185 47.9394C172.904 47.4617 172.488 47.0782 171.989 46.8376C171.49 46.5971 170.931 46.5103 170.382 46.5885C169.834 46.6666 169.321 46.906 168.909 47.2763L163.173 51.7367L157.409 47.2763C156.912 46.875 156.292 46.656 155.654 46.656C155.015 46.656 154.395 46.875 153.898 47.2763L148.097 51.7367L142.342 47.2391C141.846 46.8377 141.226 46.6188 140.587 46.6188C139.948 46.6188 139.329 46.8377 138.832 47.2391L133.105 51.7367L127.351 47.2391C126.854 46.8377 126.234 46.6188 125.595 46.6188C124.957 46.6188 124.337 46.8377 123.84 47.2391L118.076 51.7367L112.312 47.2391C111.892 46.8947 111.383 46.6775 110.843 46.6131C110.304 46.5487 109.758 46.6398 109.268 46.8756C108.779 47.1115 108.367 47.4822 108.082 47.9442C107.796 48.4062 107.649 48.9402 107.656 49.4832V88.6902V127.897C107.68 128.57 107.567 129.241 107.325 129.87C107.084 130.499 106.718 131.072 106.25 131.557C105.81 132.003 105.285 132.357 104.706 132.598C104.127 132.84 103.506 132.963 102.879 132.963" stroke="#221E54"/>
<path d="M118.477 119.181H145.778M118.477 92.0935H138.422H118.477ZM118.477 100.474H164.681H118.477ZM118.477 109.469H164.681H118.477Z" stroke="#221E54" stroke-linecap="round" stroke-linejoin="round"/>
<path d="M173.565 66.0953C184.313 66.0953 193.026 57.3821 193.026 46.6338C193.026 35.8856 184.313 27.1724 173.565 27.1724C162.817 27.1724 154.104 35.8856 154.104 46.6338C154.104 57.3821 162.817 66.0953 173.565 66.0953Z" fill="white" stroke="#221E54"/>
<path d="M174.03 37.769V50.8986" stroke="#221E54" stroke-width="3" stroke-linecap="round" stroke-linejoin="round"/>
<path d="M174.03 56.7183C174.694 56.7183 175.232 56.1805 175.232 55.5171C175.232 54.8537 174.694 54.3159 174.03 54.3159C173.367 54.3159 172.829 54.8537 172.829 55.5171C172.829 56.1805 173.367 56.7183 174.03 56.7183Z" fill="#221E54" stroke="#221E54" stroke-width="0.8"/>
<path d="M141.594 75.5029C141.584 74.5174 141.889 73.9633 142.374 73.1062C142.858 72.249 143.56 71.5356 144.408 71.0384C145.251 70.5421 145.949 69.8327 146.433 68.9808C146.918 68.129 147.171 67.1646 147.168 66.1839C147.164 65.2032 146.905 64.2405 146.415 63.3919C145.926 62.5432 145.223 61.8383 144.377 61.3476C143.53 60.8568 142.571 60.5973 141.594 60.595C140.617 60.5927 139.656 60.8476 138.808 61.3344C137.959 61.8211 137.253 62.5227 136.759 63.369C136.265 64.2153 136.001 65.1768 135.994 66.1574" stroke="#1F1A54" stroke-width="2" stroke-linecap="round" stroke-linejoin="round"/>
<path d="M142.834 80.0956C142.893 79.4554 142.422 78.8889 141.781 78.8303C141.141 78.7717 140.575 79.2432 140.516 79.8834C140.458 80.5235 140.929 81.09 141.569 81.1486C142.209 81.2072 142.776 80.7357 142.834 80.0956Z" fill="#221E54"/>
</svg>
