<svg width="113" height="137" viewBox="0 0 113 137" fill="none" xmlns="http://www.w3.org/2000/svg">
<path d="M35.0437 124.304V127.538L40.996 135.395L47.4643 134.929L48.4564 87.3096H30.4207L35.0437 124.304Z" fill="#FDD407"/>
<path d="M28.9921 124.016H34.9445V91.6449C34.9445 90.4609 34.4741 89.3254 33.6369 88.4882C32.7997 87.651 31.6642 87.1807 30.4802 87.1807C29.2962 87.1807 28.1607 87.651 27.3234 88.4882C26.4862 89.3254 26.0159 90.4609 26.0159 91.6449V121.04C26.0004 121.428 26.0715 121.814 26.2242 122.171C26.359 122.542 26.5722 122.881 26.8492 123.163C27.1331 123.437 27.4709 123.65 27.8413 123.788C28.2047 123.943 28.5967 124.021 28.9921 124.016Z" fill="#221F54" stroke="#221F54"/>
<path d="M46.8491 87.3096H30.5594" stroke="#221F54"/>
<path d="M34.9444 124.016V129.314C34.9382 130.141 35.1003 130.961 35.4206 131.724C35.7339 132.471 36.1964 133.146 36.7797 133.708C37.3426 134.291 38.0175 134.753 38.7638 135.067C39.528 135.384 40.3474 135.546 41.1745 135.544H109.2C109.978 135.527 110.719 135.207 111.264 134.651C111.814 134.096 112.124 133.348 112.127 132.567V52.7361C112.155 52.1838 112.02 51.6354 111.74 51.1587C111.465 50.6847 111.054 50.3044 110.559 50.0675C110.065 49.8273 109.509 49.7405 108.965 49.8182C108.42 49.896 107.912 50.1348 107.504 50.504L101.819 54.9286L96.1448 50.504C95.6549 50.1039 95.0412 49.8865 94.4087 49.8889C93.7734 49.8883 93.1572 50.1053 92.6626 50.504L86.9087 54.9286L81.2043 50.4742C80.7123 50.0699 80.0951 49.8489 79.4583 49.8492C78.8234 49.8427 78.2072 50.0645 77.7222 50.4742L72.0376 54.9286L66.3333 50.4742C65.8413 50.0699 65.2241 49.8489 64.5872 49.8492C63.9523 49.8427 63.3362 50.0645 62.8511 50.4742L57.1269 54.9286L51.4126 50.4742C50.9982 50.1275 50.4911 49.9102 49.9543 49.8492C49.4189 49.7811 48.8751 49.8672 48.3868 50.0972C47.9044 50.3381 47.4991 50.7092 47.2169 51.1686C46.9346 51.628 46.7866 52.1573 46.7896 52.6964V130.484C46.8102 131.16 46.699 131.834 46.4622 132.468C46.2148 133.085 45.8548 133.65 45.4007 134.135C44.9554 134.56 44.4337 134.896 43.863 135.127C43.291 135.366 42.6776 135.491 42.0575 135.494" fill="#FDD407"/>
<path d="M34.9444 124.016V129.314C34.9382 130.141 35.1003 130.961 35.4206 131.724C35.7339 132.471 36.1964 133.146 36.7797 133.708C37.3426 134.291 38.0175 134.753 38.7638 135.067C39.528 135.384 40.3474 135.546 41.1745 135.544H109.2C109.978 135.527 110.719 135.207 111.264 134.651C111.814 134.096 112.124 133.348 112.127 132.567V52.7361C112.155 52.1838 112.02 51.6354 111.74 51.1587C111.465 50.6847 111.054 50.3044 110.559 50.0675C110.065 49.8273 109.509 49.7405 108.965 49.8182C108.42 49.896 107.912 50.1348 107.504 50.504L101.819 54.9286L96.1448 50.504C95.6549 50.1039 95.0412 49.8865 94.4087 49.8889C93.7734 49.8883 93.1572 50.1053 92.6626 50.504L86.9087 54.9286L81.2043 50.4742C80.7123 50.0699 80.0951 49.8489 79.4583 49.8492C78.8234 49.8427 78.2072 50.0645 77.7222 50.4742L72.0376 54.9286L66.3333 50.4742C65.8413 50.0699 65.2241 49.8489 64.5872 49.8492C63.9523 49.8427 63.3362 50.0645 62.8511 50.4742L57.1269 54.9286L51.4126 50.4742C50.9982 50.1275 50.4911 49.9102 49.9543 49.8492C49.4189 49.7811 48.8751 49.8672 48.3868 50.0972C47.9044 50.3381 47.4991 50.7092 47.2169 51.1686C46.9346 51.628 46.7866 52.1573 46.7896 52.6964V130.484C46.8102 131.16 46.699 131.834 46.4622 132.468C46.2148 133.085 45.8548 133.65 45.4007 134.135C44.9554 134.56 44.4337 134.896 43.863 135.127C43.291 135.366 42.6776 135.491 42.0575 135.494" stroke="#221F54"/>
<path d="M88.3175 67.6864V66.6943H70.6091V67.6864C70.6762 69.6579 71.2396 71.5806 72.2471 73.2766C73.2546 74.9725 74.6737 76.3869 76.373 77.3888C76.7338 77.6144 77.0313 77.9281 77.2376 78.3004C77.4438 78.6726 77.552 79.0912 77.552 79.5168C77.552 79.9423 77.4438 80.3609 77.2376 80.7331C77.0313 81.1054 76.7338 81.4191 76.373 81.6447C74.6701 82.6301 73.2469 84.0338 72.2383 85.723C71.2296 87.4122 70.6689 89.331 70.6091 91.2975V92.2896H88.3175V91.2975C88.2496 89.3275 87.6858 87.4064 86.6783 85.7122C85.6708 84.018 84.2521 82.6053 82.5536 81.605C82.1928 81.3794 81.8953 81.0657 81.689 80.6934C81.4828 80.3212 81.3746 79.9026 81.3746 79.4771C81.3746 79.0515 81.4828 78.6329 81.689 78.2607C81.8953 77.8885 82.1928 77.5748 82.5536 77.3491C84.256 76.3607 85.6786 74.9549 86.687 73.2643C87.6955 71.5737 88.2566 69.654 88.3175 67.6864Z" fill="white" stroke="#1F1A54" stroke-width="0.8" stroke-linecap="round" stroke-linejoin="round"/>
<path d="M79.9841 83.7284C80.0588 84.3452 80.2772 84.9358 80.6218 85.4528C80.9664 85.9697 81.4276 86.3985 81.9682 86.7046C83.8217 87.8294 85.3261 89.4471 86.3135 91.3772V91.8634H72.5734V91.3772C73.5621 89.4549 75.0535 87.8367 76.8889 86.6947C77.4295 86.3886 77.8907 85.9598 78.2353 85.4429C78.5799 84.9259 78.7983 84.3353 78.873 83.7185V79.2741C78.7983 78.6573 78.5799 78.0667 78.2353 77.5497C77.8907 77.0328 77.4295 76.604 76.8889 76.2979C75.0411 75.181 73.5428 73.5693 72.5635 71.6451L74.3194 72.0915C75.6144 72.4104 76.981 72.2519 78.1686 71.6451L78.8532 71.288C79.778 70.8146 80.7948 70.5482 81.8329 70.5071C82.871 70.466 83.9057 70.6512 84.8651 71.0499L86.3036 71.6451C85.3273 73.5944 83.8345 75.2381 81.9881 76.3971C81.4475 76.7032 80.9863 77.132 80.6417 77.649C80.297 78.1659 80.0786 78.7565 80.004 79.3733L79.9841 83.7284Z" fill="#FFD400"/>
<path d="M89.3294 93.8274H69.6072V92.4186C69.6116 92.1522 69.7161 91.8971 69.8999 91.7041C70.0836 91.5111 70.3333 91.3944 70.5992 91.377H88.3175C88.5806 91.377 88.8329 91.4815 89.019 91.6675C89.205 91.8536 89.3095 92.1059 89.3095 92.369L89.3294 93.8274Z" fill="#1F1A54" stroke="#1F1A54" stroke-width="0.8" stroke-linecap="round" stroke-linejoin="round"/>
<path d="M89.3294 65.2461H69.6072V66.6449C69.6214 66.9034 69.7305 67.1475 69.9136 67.3306C70.0966 67.5136 70.3408 67.6227 70.5992 67.637H88.3175C88.5806 67.637 88.8329 67.5324 89.019 67.3464C89.205 67.1603 89.3095 66.908 89.3095 66.6449L89.3294 65.2461Z" fill="#1F1A54" stroke="#1F1A54" stroke-width="0.8" stroke-linecap="round" stroke-linejoin="round"/>
<path d="M83.625 123.024H56.5417C56.4101 123.024 56.284 122.972 56.1909 122.879C56.0979 122.786 56.0457 122.659 56.0457 122.528C56.0482 122.397 56.1013 122.272 56.1937 122.18C56.2862 122.087 56.4109 122.034 56.5417 122.032H83.625C83.7566 122.032 83.8827 122.084 83.9758 122.177C84.0688 122.27 84.121 122.396 84.121 122.528C84.121 122.659 84.0688 122.786 83.9758 122.879C83.8827 122.972 83.7566 123.024 83.625 123.024ZM102.385 113.391H56.5417C56.4109 113.388 56.2862 113.335 56.1937 113.243C56.1013 113.15 56.0482 113.026 56.0457 112.895C56.0457 112.763 56.0979 112.637 56.1909 112.544C56.284 112.451 56.4101 112.399 56.5417 112.399H102.385C102.516 112.399 102.643 112.451 102.736 112.544C102.829 112.637 102.881 112.763 102.881 112.895C102.873 113.022 102.818 113.142 102.726 113.23C102.634 113.319 102.512 113.369 102.385 113.371V113.391Z" fill="#221E54"/>
<path d="M76.3333 104.443H56.5417C56.4101 104.443 56.284 104.39 56.1909 104.297C56.0979 104.204 56.0457 104.078 56.0457 103.947C56.0482 103.816 56.1013 103.691 56.1937 103.599C56.2862 103.506 56.4109 103.453 56.5417 103.451H76.3333C76.4649 103.451 76.5911 103.503 76.6841 103.596C76.7771 103.689 76.8294 103.815 76.8294 103.947C76.8294 104.078 76.7771 104.204 76.6841 104.297C76.5911 104.39 76.4649 104.443 76.3333 104.443Z" fill="#221E54"/>
<path d="M32.6526 18.9168L33.228 18.4802C33.6885 17.9852 34.0489 17.4057 34.2896 16.7739C34.518 16.1381 34.6256 15.4651 34.607 14.7898C34.5804 14.1126 34.4184 13.4477 34.1304 12.8343C33.8424 12.2208 33.4344 11.6714 32.9304 11.2183L26.8788 5.59334C25.8695 4.68436 24.5444 4.20655 23.1872 4.26218C21.83 4.3178 20.5485 4.90243 19.6169 5.89096L19.0415 6.45644C18.5775 6.95259 18.2167 7.53597 17.98 8.17271C17.7416 8.80593 17.6336 9.48082 17.6626 10.1568C17.6939 10.8326 17.8591 11.4954 18.1486 12.1067C18.4381 12.7181 18.8462 13.2659 19.3491 13.7183L25.3808 19.3136C26.4105 20.2263 27.7565 20.6998 29.1308 20.633C30.4839 20.5432 31.7481 19.9271 32.6526 18.9168Z" fill="white" stroke="#221F54" stroke-miterlimit="10" stroke-linecap="round"/>
<path d="M32.6528 20.0278H33.3373C34.7176 19.9067 35.9936 19.2437 36.8861 18.1838C37.7785 17.124 38.2147 15.7538 38.0992 14.3731L37.4643 6.2084C37.3244 4.83479 36.6468 3.57231 35.5794 2.69649C34.5154 1.83027 33.1569 1.41061 31.7897 1.52586L31.0556 1.49609C30.3629 1.54209 29.6873 1.73126 29.0715 2.05165C28.4645 2.37143 27.9254 2.80607 27.4842 3.33141C26.6061 4.38986 26.1786 5.75068 26.2937 7.12109L27.1865 15.2858C27.219 15.9746 27.3912 16.6496 27.6925 17.2699C27.9862 17.8803 28.4018 18.424 28.9136 18.8676C29.4255 19.3112 30.0228 19.6453 30.6687 19.8493C31.3112 20.0424 31.9862 20.1031 32.6528 20.0278Z" fill="white" stroke="#221F54" stroke-miterlimit="10" stroke-linecap="round"/>
<path d="M56.0555 28.6986C55.1908 30.7485 53.8266 32.5493 52.0872 33.9367C50.8807 34.9096 49.5099 35.6588 48.0396 36.149C47.9038 36.2041 47.7646 36.2505 47.6229 36.2879C47.1315 36.4405 46.6312 36.5631 46.1249 36.6549L42.3352 37.4486L34.2301 39.145L32.5634 39.4922L30.738 39.8791C29.6456 40.1052 28.5285 40.1886 27.4146 40.1271C27.2063 40.1271 26.9979 40.1271 26.7896 40.1271C26.363 40.1271 25.9463 40.0279 25.5297 39.9486L24.8848 39.8097C24.4568 39.7128 24.0358 39.5869 23.6249 39.4327C23.5528 39.4186 23.4827 39.3953 23.4166 39.3632C23.2795 39.3233 23.1466 39.2701 23.0197 39.2045C22.6102 39.0478 22.2124 38.8621 21.8293 38.649L21.3332 38.3811L21.0951 38.2323C20.9586 38.1603 20.8261 38.0808 20.6983 37.9942C20.1383 37.6117 19.6107 37.1836 19.1209 36.7144C18.9622 36.5756 18.8035 36.4267 18.6447 36.268C18.0183 35.6668 17.4564 35.0018 16.9682 34.2839C15.9997 32.8282 15.3257 31.197 14.984 29.4823C14.9344 29.2541 14.8947 29.026 14.865 28.8077C14.7298 27.9417 14.6833 27.0641 14.7261 26.1886V26.1291C14.7261 25.7521 14.7856 25.3652 14.8352 24.9883C14.8848 24.6113 14.9047 24.522 14.9543 24.2938C15.0018 24.0193 15.0648 23.7477 15.1428 23.4803C15.1428 23.3216 15.2221 23.1629 15.2717 23.014C15.4519 22.3859 15.6876 21.775 15.9761 21.1886C16.2574 20.5957 16.5893 20.0281 16.9682 19.4922C17.3327 18.9502 17.7373 18.4362 18.1785 17.9545C18.8962 17.1732 19.7018 16.4775 20.5793 15.8811C20.7909 15.7422 20.9992 15.6133 21.2043 15.4942C21.933 15.0717 22.7004 14.7196 23.4959 14.4426C23.9126 14.3037 24.3293 14.1748 24.7559 14.0756L25.3908 13.9367L26.9682 13.5994L33.6943 12.1609L36.5713 11.5458L37.8412 11.2779L40.8174 10.643C41.2241 10.5537 41.6309 10.4843 42.0376 10.4248C43.3975 10.2259 44.7802 10.2426 46.1348 10.4744C46.7086 10.5814 47.2751 10.7239 47.8313 10.9009C48.9617 11.2498 50.0397 11.7504 51.0356 12.389C52.5072 13.3533 53.7719 14.6012 54.7559 16.0597C56.0069 17.8919 56.781 20.0074 57.0079 22.2144C57.2348 24.4214 56.9075 26.6501 56.0555 28.6986Z" fill="#FDD407"/>
<path d="M42.3651 37.4682L34.2302 39.1448L32.5635 39.492C30.7183 37.5078 21.7203 27.0217 26.9881 13.5594L33.7143 12.1209L36.5913 11.5059C35.0338 15.3451 31.254 27.7063 42.3651 37.4682Z" fill="#221F54"/>
<path d="M23.3967 39.3234C23.2596 39.2834 23.1267 39.2302 22.9999 39.1646C22.5904 39.0079 22.1926 38.8223 21.8094 38.6091L21.3134 38.3412L21.0753 38.1924C20.9387 38.1204 20.8063 38.0409 20.6785 37.9543C20.1267 37.5836 19.6059 37.1689 19.1209 36.7142C18.9622 36.5754 18.8035 36.4265 18.6447 36.2678C18.0183 35.6666 17.4564 35.0016 16.9682 34.2837C15.9997 32.828 15.3257 31.1968 14.984 29.4821C14.9344 29.2539 14.8947 29.0258 14.865 28.8075C14.7298 27.9415 14.6833 27.0639 14.7261 26.1885V26.1289C14.7261 25.7519 14.7856 25.365 14.8352 24.9881C14.8848 24.6111 14.9047 24.5218 14.9543 24.2936C15.0018 24.0191 15.0648 23.7475 15.1428 23.4801C15.1428 23.3214 15.2221 23.1627 15.2717 23.0138C15.4519 22.3857 15.6876 21.7748 15.9761 21.1885C16.2574 20.5955 16.5893 20.0279 16.9682 19.492C17.3327 18.95 17.7373 18.436 18.1785 17.9543C18.54 17.5365 18.9313 17.1452 19.3491 16.7837C17.8114 20.9801 15.5892 30.7619 23.3868 39.3134L23.3967 39.3234Z" fill="#221F54"/>
<path d="M46.1349 24.5914C46.1349 24.5914 47.7321 25.8117 49.6269 23.7085" stroke="#221F54" stroke-miterlimit="10" stroke-linecap="round"/>
<path d="M41.2837 22.4288C41.3414 22.6386 41.4354 22.8367 41.5615 23.0141C41.6943 23.1865 41.8594 23.3314 42.0476 23.4407C42.2168 23.5598 42.4096 23.641 42.6131 23.6788C42.8162 23.7184 43.025 23.7184 43.2281 23.6788C43.4305 23.6374 43.6227 23.5565 43.7936 23.4407C43.9624 23.3197 44.1071 23.1683 44.2202 22.9942C44.4401 22.65 44.5217 22.2354 44.4484 21.8335C44.3644 21.4284 44.1256 21.0721 43.7828 20.8404C43.44 20.6088 43.0203 20.5202 42.6131 20.5934C42.4028 20.6286 42.201 20.7026 42.0178 20.8117C41.8356 20.9262 41.68 21.0785 41.5615 21.2581C41.4351 21.428 41.3502 21.625 41.3135 21.8335C41.2676 22.0285 41.2576 22.2302 41.2837 22.4288Z" fill="#221F54"/>
<path d="M42.7421 23.0435C42.7597 23.1176 42.7899 23.188 42.8313 23.2519C42.8755 23.314 42.9334 23.3651 43.0005 23.4012C43.0676 23.4373 43.1421 23.4575 43.2183 23.4602C43.2931 23.4795 43.3716 23.4795 43.4464 23.4602C43.5163 23.4376 43.5806 23.4004 43.6349 23.3511C43.6918 23.303 43.7361 23.2416 43.7639 23.1725C43.8017 23.1059 43.8222 23.0308 43.8234 22.9542C43.8234 22.8787 43.8064 22.8041 43.7738 22.736C43.7743 22.656 43.7538 22.5773 43.7143 22.5078C43.6761 22.4385 43.6171 22.383 43.5456 22.3491C43.479 22.3112 43.404 22.2908 43.3274 22.2896C43.2477 22.2982 43.172 22.3292 43.1091 22.3788C42.9901 22.3491 42.7619 22.7062 42.7421 23.0435Z" fill="white"/>
<path d="M49.5079 20.8411C49.5634 21.1546 49.7161 21.4426 49.9444 21.6645C50.169 21.8892 50.4558 22.0412 50.7678 22.1011C51.0808 22.1611 51.4044 22.1301 51.7003 22.0118C51.9935 21.8817 52.2444 21.672 52.4245 21.4066C52.5956 21.138 52.684 20.8251 52.6789 20.5067C52.6738 20.1883 52.5754 19.8784 52.3958 19.6154C52.2163 19.3524 51.9635 19.1478 51.6688 19.0271C51.3741 18.9065 51.0505 18.8749 50.738 18.9364C50.5289 18.9757 50.3299 19.0567 50.1527 19.1745C49.9808 19.295 49.8328 19.4464 49.7162 19.6209C49.6026 19.7967 49.5219 19.9916 49.4781 20.1963C49.4485 20.4113 49.4586 20.6298 49.5079 20.8411Z" fill="#221F54"/>
<path d="M50.7777 21.5854C50.7744 21.6662 50.7953 21.7462 50.8377 21.8152C50.8801 21.8841 50.9421 21.9388 51.0158 21.9723C51.0812 22.0129 51.157 22.0335 51.234 22.0318C51.3137 22.0231 51.3894 21.9922 51.4523 21.9425C51.5286 21.9513 51.6056 21.9338 51.6705 21.8929C51.7377 21.852 51.7925 21.7937 51.8293 21.7243C51.8688 21.6547 51.8893 21.576 51.8888 21.4961C51.8888 21.4571 51.8809 21.4186 51.8655 21.3827C51.8502 21.3469 51.8277 21.3146 51.7995 21.2877C51.8059 21.2088 51.7885 21.1298 51.7496 21.0609C51.7107 20.9919 51.6521 20.9362 51.5813 20.9008C51.5117 20.8614 51.433 20.8408 51.3531 20.8413C51.2713 20.849 51.1944 20.884 51.1348 20.9405C51.0059 20.9108 50.7876 21.2481 50.7777 21.5854Z" fill="white"/>
<path d="M47.7222 12.1211C47.7222 12.1211 47.5833 5.51399 52.5337 6.88304" stroke="#221F54" stroke-miterlimit="10" stroke-linecap="round"/>
<path d="M42.9305 12.9544C42.9305 12.9544 39.8155 6.6746 43.992 5.15674" stroke="#221F54" stroke-miterlimit="10" stroke-linecap="round"/>
<path d="M20.5496 75.3454C12.8313 76.397 1.91862 71.5557 5.6091 58.9962C8.53568 49.0755 15.0436 51.516 17.623 55.6232C19.121 58.0537 17.8611 61.7541 14.5079 63.3315C7.15672 66.764 -3.52781 55.7521 3.04957 41.774C5.74799 36.0398 9.51783 33.5696 13.119 32.647" stroke="#FED401" stroke-linecap="round" stroke-linejoin="round" stroke-dasharray="4 4"/>
</svg>
