<svg width="149" height="136" viewBox="0 0 149 136" fill="none" xmlns="http://www.w3.org/2000/svg">
<g id="V3">
<g id="Layer 2">
<g id="Layer 25">
<path id="Vector" d="M50.6 123.834V127.094L56.6 135.014L63.12 134.544L64.05 86.5941H45.94L50.6 123.834Z" fill="#FDD407"/>
<path id="Vector_2" d="M48.21 15.0241L62.37 7.79406C65.5526 6.20276 69.237 5.94092 72.6126 7.06614C75.9883 8.19136 78.7787 10.6115 80.37 13.7941C81.9613 16.9767 82.2231 20.661 81.0979 24.0367C79.9727 27.4124 77.5526 30.2028 74.37 31.7941L60.18 38.9241C58.5996 39.717 56.8785 40.1909 55.1149 40.3185C53.3514 40.4461 51.58 40.225 49.9019 39.6678C48.2238 39.1106 46.672 38.2283 45.335 37.0711C43.998 35.914 42.9022 34.5048 42.11 32.9241C41.3186 31.3513 40.8485 29.6366 40.7273 27.8801C40.6062 26.1237 40.8363 24.3607 41.4042 22.6942C41.9721 21.0276 42.8665 19.491 44.035 18.174C45.2036 16.8571 46.6229 15.7862 48.21 15.0241Z" fill="#FDD407"/>
<path id="Vector_3" d="M56.6 18.0141L57.04 17.4441C57.3625 16.8426 57.5619 16.1829 57.6268 15.5035C57.6916 14.8241 57.6204 14.1386 57.4175 13.487C57.2146 12.8354 56.8839 12.2308 56.4448 11.7083C56.0057 11.1859 55.467 10.7561 54.86 10.4441L47.5 6.54406C46.2787 5.9206 44.8617 5.80073 43.553 6.21016C42.2443 6.61959 41.1482 7.52571 40.5 8.73406L40.09 9.43406C39.7675 10.0355 39.5681 10.6952 39.5033 11.3746C39.4385 12.054 39.5096 12.7395 39.7125 13.3911C39.9154 14.0427 40.2461 14.6474 40.6852 15.1698C41.1243 15.6923 41.6631 16.122 42.27 16.4341L49.6 20.3041C50.8409 20.9286 52.2777 21.04 53.6 20.6141C54.9029 20.1754 55.9806 19.2413 56.6 18.0141Z" fill="white" stroke="#221F54" stroke-miterlimit="10" stroke-linecap="round"/>
<path id="Vector_4" d="M56.89 19.1041L57.56 18.9341C58.8692 18.4514 59.9352 17.472 60.5268 16.2083C61.1184 14.9446 61.1878 13.4986 60.72 12.1841L57.97 4.40406C57.4753 3.10312 56.487 2.0501 55.22 1.47406C53.9581 0.90302 52.5235 0.845635 51.22 1.31406L50.5 1.47406C49.8434 1.70375 49.2396 2.06283 48.7243 2.53003C48.209 2.99724 47.7927 3.56308 47.5 4.19406C46.9096 5.44966 46.8412 6.88816 47.31 8.19406L50.31 15.9141C50.5198 16.5628 50.8601 17.1617 51.31 17.6741C51.7557 18.1869 52.2997 18.6052 52.91 18.9041C53.5375 19.2 54.217 19.3699 54.91 19.4041C55.5834 19.437 56.2566 19.335 56.89 19.1041Z" fill="white" stroke="#221F54" stroke-miterlimit="10" stroke-linecap="round"/>
<path id="Vector_5" d="M48.21 15.0241L62.37 7.79406C63.96 6.94834 65.7054 6.4346 67.5 6.28406C69.2784 6.13354 71.069 6.33401 72.77 6.87406C74.4548 7.42653 76.0121 8.31055 77.35 9.47406C79.0471 10.9303 80.3531 12.7877 81.1491 14.8774C81.9451 16.9672 82.2059 19.2228 81.9078 21.439C81.6096 23.6552 80.762 25.7617 79.442 27.5668C78.122 29.3718 76.3716 30.8181 74.35 31.7741L60.18 38.9341C56.9878 40.5328 53.2915 40.7989 49.9032 39.6739C46.515 38.5488 43.7119 36.1247 42.11 32.9341C41.317 31.3608 40.8457 29.6453 40.7237 27.8877C40.6017 26.1302 40.8314 24.3659 41.3994 22.6982C41.9674 21.0305 42.8623 19.4928 44.0317 18.1751C45.2011 16.8574 46.6216 15.7862 48.21 15.0241Z" fill="#FDD407"/>
<path id="Intersect" d="M48.21 15.0241L62.37 7.79406C63.96 6.94834 65.7054 6.4346 67.5 6.28406C69.2784 6.13354 71.069 6.33401 72.77 6.87406C74.4548 7.42653 76.0121 8.31055 77.35 9.47406C79.0471 10.9303 80.3531 12.7877 81.1491 14.8774C81.9451 16.9672 82.2059 19.2228 81.9078 21.439C81.6096 23.6552 80.762 25.7617 79.442 27.5668C78.122 29.3718 76.3716 30.8181 74.35 31.7741L60.18 38.9341C56.9878 40.5328 53.2915 40.7989 49.9032 39.6739C46.515 38.5488 43.7119 36.1247 42.11 32.9341C41.317 31.3608 40.8457 29.6453 40.7237 27.8877C40.6017 26.1302 40.8314 24.3659 41.3994 22.6982C41.9674 21.0305 42.8623 19.4928 44.0317 18.1751C45.2011 16.8574 46.6216 15.7862 48.21 15.0241Z" fill="#221F54"/>
<path id="Subtract" fill-rule="evenodd" clip-rule="evenodd" d="M49.6668 14.2802L48.21 15.0241C46.6216 15.7862 45.2011 16.8574 44.0317 18.1751C43.6829 18.5682 43.3585 18.9808 43.0599 19.4106C42.6825 23.89 43.0628 34.04 52.9111 40.3033C55.3944 40.5322 57.9142 40.0689 60.18 38.9341L61.8678 38.0812C59.5728 36.665 48.0408 28.7822 49.6668 14.2802ZM58.4912 9.77455C57.9751 13.918 57.5325 26.9243 70.868 33.5335L74.35 31.7741C76.3716 30.8181 78.122 29.3718 79.442 27.5668C80.762 25.7617 81.6096 23.6552 81.9078 21.439C82.2059 19.2228 81.9451 16.9672 81.1491 14.8774C80.3531 12.7877 79.0471 10.9303 77.35 9.47406C76.012 8.31055 74.4548 7.42653 72.77 6.87406C71.0689 6.33401 69.2783 6.13354 67.5 6.28406C65.7053 6.4346 63.96 6.94834 62.37 7.79406L58.4912 9.77455Z" fill="#FDD407"/>
<path id="Vector_6" d="M71.18 20.0341C71.18 20.0341 73.06 20.8041 74.35 18.2641" stroke="#221F54" stroke-miterlimit="10" stroke-linecap="round"/>
<path id="Vector_7" d="M65.92 19.1841C66.0246 19.3765 66.1672 19.5457 66.339 19.6815C66.5109 19.8173 66.7086 19.9168 66.92 19.9741C67.1168 20.0427 67.3254 20.0711 67.5334 20.0578C67.7414 20.0444 67.9447 19.9895 68.1311 19.8963C68.3175 19.8031 68.4834 19.6734 68.6189 19.515C68.7544 19.3566 68.8568 19.1727 68.92 18.9741C69.0495 18.572 69.0209 18.1357 68.84 17.7541C68.6528 17.3788 68.3257 17.0921 67.9292 16.9556C67.5328 16.8191 67.0985 16.8437 66.72 17.0241C66.525 17.1137 66.3486 17.2392 66.2 17.3941C66.0508 17.5509 65.9382 17.7387 65.87 17.9441C65.7956 18.1453 65.7649 18.36 65.78 18.5741C65.7873 18.7845 65.8348 18.9915 65.92 19.1841Z" fill="#221F54"/>
<path id="Vector_8" d="M67.65 19.1741C67.6818 19.2442 67.7298 19.3059 67.79 19.3541C67.8495 19.4024 67.9173 19.4397 67.99 19.4641C68.0659 19.4791 68.1441 19.4791 68.22 19.4641C68.2944 19.4509 68.3656 19.4237 68.43 19.3841C68.4907 19.3348 68.5445 19.2777 68.59 19.2141C68.6294 19.1505 68.6533 19.0786 68.66 19.0041C68.6799 18.9287 68.6799 18.8494 68.66 18.7741C68.6374 18.7005 68.6 18.6325 68.55 18.5741C68.5274 18.4984 68.4862 18.4296 68.43 18.3741C68.3744 18.32 68.3053 18.282 68.23 18.2641C68.1547 18.2437 68.0753 18.2437 68 18.2641C67.9253 18.293 67.8597 18.3413 67.81 18.4041C67.69 18.4741 67.56 18.8541 67.65 19.1741Z" fill="white"/>
<path id="Vector_9" d="M73.5 15.4741C73.6383 15.7637 73.8615 16.0044 74.14 16.1641C74.4189 16.3222 74.7381 16.3951 75.058 16.3738C75.3779 16.3525 75.6845 16.2378 75.94 16.0441C76.1968 15.8457 76.3877 15.5744 76.4876 15.2657C76.5875 14.957 76.5918 14.6253 76.5 14.3141C76.4143 14.0047 76.2381 13.728 75.994 13.5195C75.7498 13.311 75.449 13.1803 75.13 13.1441C74.8142 13.1015 74.4929 13.1574 74.21 13.3041C74.0145 13.3923 73.8404 13.5219 73.7 13.6841C73.5624 13.8459 73.4572 14.0326 73.39 14.2341C73.3236 14.4336 73.2964 14.6442 73.31 14.8541C73.3317 15.0713 73.3963 15.282 73.5 15.4741Z" fill="#221F54"/>
<path id="Vector_10" d="M75.13 15.4741C75.1526 15.5497 75.1938 15.6185 75.25 15.6741C75.3108 15.7261 75.3826 15.7637 75.46 15.7841C75.5354 15.804 75.6146 15.804 75.69 15.7841C75.7632 15.7526 75.8282 15.7047 75.88 15.6441C75.9554 15.6261 76.0245 15.5881 76.08 15.5341C76.1393 15.4785 76.1781 15.4045 76.19 15.3241C76.2099 15.2487 76.2099 15.1694 76.19 15.0941C76.1602 15.0198 76.1077 14.9568 76.04 14.9141C76.0263 14.8564 76.0008 14.8021 75.9652 14.7548C75.9295 14.7074 75.8844 14.6679 75.8328 14.6388C75.7811 14.6097 75.724 14.5916 75.665 14.5856C75.606 14.5796 75.5465 14.5859 75.49 14.6041C75.4154 14.633 75.3498 14.6813 75.3 14.7441C75.18 14.7941 75.05 15.1841 75.13 15.4741Z" fill="white"/>
<path id="Vector_11" d="M69.5 7.47406C69.5 7.47406 67.64 1.07406 72.81 1.11406" stroke="#221F54" stroke-miterlimit="10" stroke-linecap="round"/>
<path id="Vector_12" d="M65.05 9.53406C65.05 9.53406 60.38 4.23406 64.05 1.66406" stroke="#221F54" stroke-miterlimit="10" stroke-linecap="round"/>
<path id="Vector_13" d="M44.5 123.474H50.5V90.9141C50.5 89.7206 50.0259 88.576 49.182 87.7321C48.3381 86.8882 47.1935 86.4141 46 86.4141C44.8065 86.4141 43.6619 86.8882 42.818 87.7321C41.9741 88.576 41.5 89.7206 41.5 90.9141V120.564C41.4893 120.951 41.5609 121.336 41.71 121.694C41.8478 122.068 42.0624 122.408 42.34 122.694C42.6274 122.972 42.9674 123.189 43.34 123.334C43.7138 123.456 44.1079 123.504 44.5 123.474Z" fill="#221F54" stroke="#221F54"/>
<path id="Vector_14" d="M62.5 86.5641H46.08" stroke="#221F54"/>
<path id="Vector_15" d="M50.5 123.474V128.814C50.4979 129.648 50.661 130.474 50.98 131.244C51.2995 131.995 51.7652 132.675 52.35 133.244C52.9321 133.837 53.6299 134.303 54.4 134.614C55.1704 134.933 55.9963 135.096 56.83 135.094H125.4C126.187 135.081 126.937 134.759 127.489 134.198C128.041 133.637 128.35 132.881 128.35 132.094V51.6941C128.383 51.1414 128.251 50.5914 127.97 50.1141C127.687 49.6352 127.269 49.2494 126.77 49.0041C126.269 48.7698 125.712 48.6866 125.164 48.7648C124.617 48.8429 124.105 49.079 123.69 49.4441L117.96 53.9041L112.19 49.4741C111.695 49.0722 111.077 48.8533 110.44 48.8541C109.8 48.855 109.179 49.0737 108.68 49.4741L102.88 53.9341L97.13 49.4441C96.6331 49.0393 96.0109 48.8201 95.37 48.8241C94.7319 48.8182 94.1122 49.0378 93.62 49.4441L87.89 53.9341L82.14 49.4441C81.6431 49.0393 81.0209 48.8201 80.38 48.8241C79.7419 48.8182 79.1222 49.0378 78.63 49.4441L72.86 53.9341L67.1 49.4141C66.6823 49.0646 66.1711 48.8455 65.63 48.7841C65.0895 48.726 64.5434 48.8158 64.05 49.0441C63.5627 49.2809 63.1532 49.6521 62.87 50.1141C62.5801 50.5747 62.4306 51.1098 62.44 51.6541V130.064C62.4694 130.746 62.3571 131.427 62.11 132.064C61.8696 132.69 61.5057 133.261 61.04 133.744C60.5953 134.178 60.0683 134.518 59.49 134.744C58.9149 134.99 58.2956 135.116 57.67 135.114" fill="#FDD407"/>
<path id="&#226;&#130;&#177;" d="M89.8982 69.64L89.8979 69.6397L89.8916 69.6463C89.7809 69.7628 89.7278 69.9131 89.7254 70.0878C89.7231 70.2664 89.7648 70.4195 89.8684 70.5282C89.9725 70.6373 90.1224 70.6845 90.2987 70.6869L91.7156 70.7059C91.7783 70.7067 91.8073 70.7237 91.8222 70.7402C91.8384 70.7583 91.855 70.7947 91.854 70.8678L91.8211 73.3244C91.8203 73.385 91.8044 73.4122 91.7903 73.4253C91.7755 73.4392 91.7445 73.4546 91.6787 73.4537L90.2619 73.4347C90.1023 73.4326 89.9605 73.5059 89.8382 73.6346C89.7299 73.7485 89.6745 73.8879 89.6724 74.0471C89.6703 74.206 89.7213 74.353 89.821 74.486L89.8264 74.4932L89.8331 74.4994C89.9539 74.6112 90.092 74.6731 90.2453 74.6751L91.6621 74.6941C91.7248 74.695 91.7538 74.7119 91.7687 74.7285C91.785 74.7465 91.8015 74.783 91.8006 74.8561L91.6499 86.0984C91.6468 86.3314 91.7134 86.5313 91.8557 86.6894L91.8556 86.6896L91.8604 86.6942C92.0174 86.8468 92.2007 86.9285 92.4072 86.9312C92.6131 86.934 92.7912 86.8574 92.9359 86.7063C93.1006 86.5535 93.1834 86.3548 93.1865 86.119L93.2837 78.865C93.2844 78.8144 93.2978 78.7947 93.307 78.7862C93.317 78.777 93.3403 78.7642 93.394 78.7642C94.4818 78.8944 95.6322 78.9676 96.8452 78.9838C98.6655 79.0082 100.164 78.6963 101.333 78.0405C102.504 77.3839 103.338 76.3864 103.836 75.0534C103.868 74.9784 103.905 74.9303 103.941 74.9014C103.977 74.8735 104.017 74.8597 104.066 74.8604L105.323 74.8772C105.477 74.8793 105.611 74.8201 105.719 74.7059C105.842 74.5767 105.91 74.429 105.912 74.2648C105.914 74.1025 105.852 73.9618 105.731 73.8473C105.629 73.7149 105.498 73.6389 105.339 73.6368L104.323 73.6232C104.255 73.6223 104.237 73.6051 104.234 73.6013C104.232 73.598 104.219 73.5781 104.235 73.5133L104.236 73.5134L104.237 73.5028C104.297 73.0564 104.33 72.6096 104.336 72.1625C104.342 71.7535 104.32 71.3723 104.27 71.019L104.269 71.0118L104.267 71.0047C104.263 70.9913 104.261 70.9693 104.299 70.9291C104.343 70.8826 104.372 70.8755 104.387 70.8757L105.376 70.8889C105.552 70.8913 105.704 70.8482 105.81 70.7419C105.917 70.636 105.963 70.4841 105.965 70.3054C105.968 70.1268 105.907 69.974 105.781 69.8559C105.676 69.7411 105.545 69.6795 105.392 69.6774L104.163 69.661C104.098 69.6601 104.027 69.6192 103.965 69.4628C103.529 68.1356 102.73 67.1303 101.568 66.4523C100.407 65.7751 98.8914 65.4279 97.0272 65.4029C95.9176 65.388 94.7451 65.4497 93.5097 65.5878L93.5092 65.5878C93.0358 65.6428 92.6441 65.8637 92.3381 66.2458L92.3378 66.2462C92.0507 66.6085 91.9053 67.0429 91.8986 67.5443L91.8745 69.3361C91.8736 69.4093 91.856 69.4453 91.8393 69.4629C91.8239 69.479 91.7945 69.4952 91.7318 69.4944L90.3149 69.4754C90.1617 69.4733 90.022 69.5315 89.8982 69.64ZM93.3577 73.345L93.3906 70.8884C93.3916 70.8153 93.4092 70.7793 93.4259 70.7617C93.4413 70.7456 93.4707 70.7294 93.5334 70.7302L102.569 70.8513C102.619 70.852 102.65 70.8666 102.673 70.8894C102.697 70.914 102.721 70.9574 102.736 71.0309C102.8 71.5292 102.829 71.928 102.825 72.2289C102.821 72.5298 102.781 72.9277 102.703 73.4241C102.687 73.4972 102.662 73.5399 102.637 73.5639C102.613 73.5861 102.582 73.5998 102.532 73.5992L93.4966 73.4781C93.4308 73.4772 93.4002 73.4609 93.3858 73.4467C93.3721 73.4332 93.3569 73.4056 93.3577 73.345ZM93.4112 69.3567L93.4394 67.247C93.4403 67.1852 93.455 67.1454 93.475 67.1191C93.4943 67.0937 93.5257 67.0714 93.5785 67.0573C94.5888 66.88 95.6963 66.7991 96.9014 66.8153C99.7329 66.8532 101.527 67.7749 102.336 69.5475C102.35 69.5805 102.356 69.6035 102.358 69.6182C102.358 69.6223 102.358 69.6253 102.358 69.6274C102.357 69.6278 102.356 69.6282 102.355 69.6287C102.344 69.6325 102.324 69.6363 102.291 69.6359L93.5496 69.5187C93.4869 69.5179 93.4579 69.5009 93.443 69.4843C93.4268 69.4663 93.4102 69.4299 93.4112 69.3567ZM102.237 74.9249C101.362 76.7342 99.5505 77.6349 96.7568 77.5975C95.6766 77.583 94.5705 77.4917 93.4385 77.3236C93.3848 77.3074 93.3538 77.2853 93.3359 77.2629C93.3181 77.2407 93.3059 77.209 93.3066 77.1599L93.3372 74.8767C93.3382 74.8036 93.3557 74.7676 93.3725 74.75C93.3878 74.7338 93.4172 74.7177 93.4799 74.7185L102.222 74.8356C102.244 74.8359 102.257 74.8386 102.264 74.8408C102.264 74.8434 102.264 74.8467 102.263 74.851C102.26 74.8675 102.253 74.8917 102.237 74.9249Z" fill="#1F1A54" stroke="#1F1A54" stroke-width="0.2"/>
<path id="Vector_16" d="M50.5 123.474V128.814C50.4979 129.648 50.661 130.474 50.98 131.244C51.2995 131.995 51.7652 132.675 52.35 133.244C52.9321 133.837 53.6299 134.303 54.4 134.614C55.1704 134.933 55.9963 135.096 56.83 135.094H125.4C126.187 135.081 126.937 134.759 127.489 134.198C128.041 133.637 128.35 132.881 128.35 132.094V51.6941C128.383 51.1414 128.251 50.5914 127.97 50.1141C127.687 49.6352 127.269 49.2494 126.77 49.0041C126.269 48.7698 125.711 48.6866 125.164 48.7648C124.617 48.8429 124.105 49.079 123.69 49.4441L117.96 53.9041L112.19 49.4741C111.695 49.0722 111.077 48.8533 110.44 48.8541C109.8 48.855 109.179 49.0737 108.68 49.4741L102.88 53.9341L97.13 49.4441C96.6331 49.0393 96.0109 48.8201 95.37 48.8241C94.7319 48.8182 94.1122 49.0378 93.62 49.4441L87.89 53.9341L82.14 49.4441C81.6431 49.0393 81.0209 48.8201 80.38 48.8241C79.7419 48.8182 79.1222 49.0378 78.63 49.4441L72.86 53.9341L67.1 49.4141C66.6823 49.0646 66.1711 48.8455 65.63 48.7841C65.0895 48.726 64.5434 48.8158 64.05 49.0441C63.5627 49.2809 63.1532 49.6521 62.87 50.1141C62.5801 50.5747 62.4306 51.1098 62.44 51.6541V130.064C62.4694 130.746 62.3571 131.427 62.11 132.064C61.8696 132.69 61.5057 133.261 61.04 133.744C60.5953 134.178 60.0683 134.518 59.49 134.744C58.9149 134.99 58.2956 135.116 57.67 135.114" stroke="#221F54"/>
<path id="Vector_17" d="M147.86 52.8041C147.863 57.3179 146.3 61.6931 143.438 65.184C140.577 68.6748 136.593 71.0654 132.166 71.9484C127.74 72.8314 123.144 72.1522 119.162 70.0264C115.18 67.9006 112.058 64.4599 110.329 60.2904C108.599 56.121 108.369 51.4809 109.677 47.1608C110.986 42.8406 113.751 39.1078 117.503 36.5983C121.255 34.0888 125.762 32.958 130.254 33.3985C134.746 33.839 138.947 35.8236 142.14 39.0141C143.953 40.8239 145.391 42.9735 146.373 45.3397C147.354 47.7059 147.86 50.2424 147.86 52.8041Z" fill="white" stroke="#221E54" stroke-linecap="round" stroke-linejoin="round"/>
<path id="Vector_18" d="M137.95 46.4741L124.95 59.1741L118.76 52.1741" stroke="#221E54" stroke-width="3" stroke-linecap="round" stroke-linejoin="round"/>
<path id="Vector_19" d="M40.71 36.8841C38.32 40.6041 31.85 47.5541 25.08 45.5941C16.62 43.1441 18.08 35.7941 22.54 35.7941C27 35.7941 32.98 45.8641 21.5 53.4741C10.02 61.0841 2.9 54.8441 1 51.8441" stroke="#FDD407" stroke-linecap="round" stroke-linejoin="round" stroke-dasharray="4 4"/>
<path id="Vector_20" d="M74 122.088H101.302M74 95H93.9457H74ZM74 103.381H120.205H74ZM74 112.376H120.205H74Z" stroke="#221E54" stroke-linecap="round" stroke-linejoin="round"/>
</g>
</g>
</g>
</svg>
