<svg width="56" height="56" viewBox="0 0 56 56" fill="none" xmlns="http://www.w3.org/2000/svg">
<ellipse opacity="0.5" cx="28.4998" cy="42.5" rx="8.5" ry="2.5" fill="#FFEB86"/>
<path d="M43 23.1001C43 19.3855 41.5294 15.7422 38.9102 13.1101C37.6157 11.8075 36.0768 10.7738 34.3817 10.0685C32.6867 9.36312 30.8691 9 29.0333 9C27.1976 9 25.3799 9.36312 23.6849 10.0685C21.9899 10.7738 20.4509 11.8075 19.1565 13.1101L19.0898 13.1901C16.4706 15.8222 15 19.3855 15 23.1001C15 26.8146 16.4706 30.3779 19.0898 33.01L28.9667 43L38.9102 33.01C41.5294 30.3779 43 26.8146 43 23.1001Z" fill="#1F1A54"/>
<path d="M31.6648 15.1113L31.2319 15.534M26.3355 15.1113L26.7683 15.534M31.6016 19.0025C30.1679 17.6026 27.8324 17.6026 26.3987 19.0025M31.6016 19.0025C33.0354 20.4025 33.0354 22.6829 31.6016 24.074L26.3896 29.1632C24.9559 30.5631 22.6204 30.5631 21.1866 29.1632C19.7529 27.7632 19.7529 25.4828 21.1866 24.0828L23.7926 21.5471L26.3987 19.0025M31.6016 19.0025C30.1679 17.5937 27.8324 17.5937 26.3987 19.0025M31.6016 19.0025L36.8138 24.0921C38.2475 25.4921 38.2475 27.7725 36.8138 29.1725C35.38 30.5724 33.0446 30.5724 31.6108 29.1725L26.3988 24.0833C24.965 22.6834 24.9649 20.4025 26.3987 19.0025" stroke="url(#paint0_linear)" stroke-width="1.4" stroke-miterlimit="10" stroke-linecap="round"/>
<defs>
<linearGradient id="paint0_linear" x1="29.0002" y1="15.1113" x2="29.0002" y2="30.2224" gradientUnits="userSpaceOnUse">
<stop stop-color="#FBE100"/>
<stop offset="1" stop-color="#FFD600"/>
</linearGradient>
</defs>
</svg>
