<svg width="40" height="40" viewBox="0 0 40 40" fill="none" xmlns="http://www.w3.org/2000/svg">
<path d="M15.1823 20.2975L15.4673 20.0026C15.8939 19.3569 16.0495 18.5693 15.9005 17.8099C15.7516 17.0505 15.31 16.38 14.6712 15.9432L10.8182 13.3483C10.1736 12.9208 9.38687 12.7637 8.62753 12.9108C7.86819 13.0578 7.19705 13.4974 6.75874 14.1347L6.49335 14.4885C6.06584 15.1331 5.90869 15.9198 6.05578 16.6791C6.20286 17.4385 6.64241 18.1096 7.27968 18.5479L11.1327 21.2018C11.7907 21.615 12.5852 21.7518 13.3435 21.5825C14.1018 21.4131 14.7626 20.9514 15.1823 20.2975Z" fill="white" stroke="#1F1A54" stroke-width="0.8" stroke-miterlimit="10" stroke-linecap="round"/>
<path fill-rule="evenodd" clip-rule="evenodd" d="M8.55108 12.5191C9.41342 12.3521 10.3069 12.5306 11.0389 13.0161C11.223 13.1382 11.2732 13.3864 11.1511 13.5705C11.029 13.7546 10.7808 13.8049 10.5967 13.6828C10.0396 13.3132 9.35954 13.1774 8.70321 13.3045C8.04688 13.4317 7.46677 13.8116 7.08792 14.3624L7.08327 14.3692L6.82016 14.72C6.45528 15.2754 6.32166 15.9515 6.44809 16.6041C6.57522 17.2605 6.95514 17.8406 7.50597 18.2194L11.3592 20.8735C11.5411 20.9988 11.587 21.2478 11.4617 21.4298C11.3364 21.6117 11.0873 21.6576 10.9054 21.5323L7.05262 18.8786C6.3289 18.3808 5.82973 17.6186 5.66269 16.7563C5.49565 15.8939 5.67411 15.0005 6.15962 14.2685L6.16602 14.2588L6.43358 13.9021C6.93144 13.1821 7.6915 12.6856 8.55108 12.5191Z" fill="#1F1A54"/>
<path d="M15.27 20.9261L15.6435 20.8769C16.0248 20.7872 16.3844 20.6224 16.7013 20.3921C17.0182 20.1619 17.286 19.8708 17.4891 19.5359C17.6923 19.201 17.8267 18.8289 17.8844 18.4415C17.9422 18.0541 17.9222 17.6591 17.8256 17.2795L16.7739 12.7482C16.6831 12.3678 16.5175 12.0093 16.2867 11.6935C16.056 11.3777 15.7648 11.111 15.43 10.9089C15.0952 10.7067 14.7235 10.5732 14.3367 10.516C13.9498 10.4589 13.5554 10.4793 13.1764 10.576L12.8029 10.6251C12.4225 10.716 12.064 10.8816 11.7482 11.1123C11.4324 11.343 11.1657 11.6342 10.9635 11.969C10.7614 12.3038 10.6279 12.6755 10.5707 13.0624C10.5136 13.4493 10.534 13.8437 10.6307 14.2226L11.8102 18.744C11.8851 19.1192 12.0356 19.4753 12.2524 19.7905C12.4693 20.1058 12.7481 20.3736 13.0717 20.5777C13.3953 20.7818 13.7571 20.918 14.1351 20.9779C14.513 21.0378 14.8991 21.0201 15.27 20.9261Z" fill="white" stroke="#1F1A54" stroke-width="0.8" stroke-miterlimit="10" stroke-linecap="round"/>
<path fill-rule="evenodd" clip-rule="evenodd" d="M15.6011 10.4834C16.3475 10.9464 16.8822 11.6842 17.0898 12.5377L17.0904 12.5404L18.1572 17.0645C18.3529 17.9213 18.2039 18.8207 17.7423 19.5687C17.2808 20.3167 16.5437 20.8532 15.6901 21.0625L15.6541 21.0713L15.246 21.0941C14.4035 21.3015 13.5128 21.1739 12.7619 20.7371C11.9991 20.2935 11.4423 19.5667 11.2125 18.7148L11.2103 18.7066L10.1824 14.1339C9.98924 13.2771 10.1404 12.3786 10.6034 11.6322C11.0664 10.8857 11.8042 10.3511 12.6577 10.1435L12.6689 10.1408L13.1076 10.0606C13.962 9.87021 14.8571 10.0219 15.6011 10.4834ZM16.3121 12.7254C16.1539 12.0764 15.7471 11.5154 15.1794 11.1633C14.6113 10.8109 13.9275 10.6958 13.2753 10.8429L13.2673 10.8447L12.8359 10.9235C12.1909 11.0834 11.6337 11.4889 11.2833 12.0539C10.9309 12.622 10.8158 13.3058 10.9629 13.958L11.987 18.5143C12.1633 19.1593 12.586 19.7093 13.1641 20.0456C13.7446 20.3833 14.4349 20.4782 15.085 20.3097L15.1234 20.2997L15.5342 20.2768C16.1692 20.1116 16.7165 19.7077 17.0615 19.1486C17.4126 18.5797 17.526 17.8957 17.3775 17.244C17.3774 17.2435 17.3773 17.2431 17.3772 17.2426L16.3124 12.7268C16.3123 12.7263 16.3122 12.7259 16.3121 12.7254Z" fill="#1F1A54"/>
<path d="M12.3213 18.6066L20.6564 15.4514C22.5315 14.7934 24.5903 14.8992 26.3881 15.7461C28.1859 16.593 29.5784 18.1131 30.265 19.978C30.9516 21.8429 30.8772 23.903 30.0577 25.7135C29.2383 27.524 27.7397 28.9396 25.8855 29.6545L17.5504 32.7998C16.1985 33.2979 14.7443 33.3956 13.3574 33.0996C12.8133 32.9835 12.2796 32.8069 11.7665 32.5701C10.4998 31.001 9.19342 29.8831 8.5 28.001C8.16481 27.0912 7.35014 26.4518 7.37558 25.501C7.40277 24.4848 7.63474 23.4748 8.06897 22.5339C8.90953 20.7127 10.4391 19.3 12.3213 18.6066Z" fill="#FFD400"/>
<path fill-rule="evenodd" clip-rule="evenodd" d="M13.3625 33.1011C13.2414 33.0753 13.1208 33.0466 13.0008 33.0149C12.7483 32.9481 12.5832 32.8432 12.4051 32.73C12.2861 32.6545 12.1613 32.5752 12.0008 32.5011C10.6961 31.5225 10.2426 30.7568 9.66847 29.7873C9.36255 29.2707 9.02239 28.6963 8.50098 28.0011C8.37155 27.6498 8.17035 27.3388 7.97356 27.0347C7.66069 26.5511 7.35899 26.0848 7.3746 25.5011C7.40179 24.485 7.63376 23.4749 8.068 22.5341C8.36176 21.8976 8.73968 21.311 9.1874 20.7876C8.70642 23.281 8.31159 28.9685 13.3625 33.1011ZM23.8162 30.4352L18.5698 32.4149C17.4933 31.5817 11.3646 26.4244 13.1747 18.2833L18.3733 16.3154C17.8366 18.5753 16.7609 25.8904 23.8162 30.4352Z" fill="#1F1A54"/>
<path d="M26.9379 22.5586C26.4409 23.0589 25.7658 23.3417 25.0605 23.3449" stroke="#1F1A54" stroke-width="0.8" stroke-miterlimit="10" stroke-linecap="round"/>
<path d="M21.9449 22.0666C22.0413 22.2751 22.2127 22.4396 22.4249 22.5275C22.6371 22.6154 22.8746 22.6202 23.0902 22.5409C23.3058 22.4616 23.4836 22.3041 23.5883 22.0996C23.693 21.8951 23.7169 21.6588 23.6552 21.4375C23.6158 21.3238 23.5539 21.2193 23.4731 21.1301C23.3924 21.0409 23.2945 20.9689 23.1853 20.9185C23.0761 20.868 22.9579 20.8401 22.8376 20.8364C22.7174 20.8327 22.5976 20.8532 22.4855 20.8969C22.371 20.9351 22.2656 20.9963 22.1756 21.0768C22.0856 21.1573 22.0131 21.2553 21.9625 21.3649C21.9118 21.4745 21.8842 21.5932 21.8811 21.7139C21.8781 21.8346 21.8998 21.9546 21.9449 22.0666Z" fill="#1F1A54"/>
<path d="M22.358 21.8217C22.3632 21.8673 22.3815 21.9103 22.4107 21.9456C22.44 21.9809 22.4789 22.007 22.5227 22.0205C22.5665 22.0341 22.6133 22.0346 22.6573 22.022C22.7014 22.0093 22.7409 21.9842 22.7708 21.9495C22.8167 21.9469 22.8606 21.9305 22.8969 21.9024C22.9331 21.8743 22.96 21.8358 22.9738 21.7921C22.9877 21.7484 22.9879 21.7014 22.9745 21.6576C22.9611 21.6137 22.9346 21.575 22.8986 21.5465C22.8935 21.5022 22.8759 21.4603 22.8479 21.4257C22.8199 21.391 22.7827 21.3649 22.7405 21.3505C22.6984 21.3361 22.653 21.334 22.6097 21.3443C22.5663 21.3546 22.5268 21.377 22.4956 21.4089C22.4367 21.4187 22.3384 21.6251 22.358 21.8217Z" fill="white"/>
<path d="M26.396 20.4552C26.4932 20.6711 26.665 20.8446 26.8799 20.9439C27.0948 21.0432 27.3383 21.0617 27.5657 20.9958C27.7977 20.9124 27.9871 20.7402 28.0921 20.5172C28.1972 20.2941 28.2094 20.0385 28.1259 19.8065C28.0425 19.5745 27.8703 19.3851 27.6473 19.28C27.4243 19.175 27.1686 19.1628 26.9366 19.2462C26.819 19.2863 26.7109 19.3503 26.6191 19.434C26.5273 19.5178 26.4537 19.6195 26.403 19.733C26.3523 19.8464 26.3255 19.9691 26.3243 20.0934C26.3231 20.2176 26.3475 20.3408 26.396 20.4552Z" fill="#1F1A54"/>
<path d="M26.8101 20.229C26.8256 20.2685 26.8493 20.3043 26.8795 20.3342C26.9097 20.364 26.9459 20.3872 26.9856 20.4022C27.0253 20.4173 27.0677 20.4239 27.1101 20.4216C27.1525 20.4193 27.1939 20.4081 27.2318 20.3888C27.2696 20.3696 27.303 20.3426 27.3298 20.3097C27.3567 20.2768 27.3763 20.2386 27.3875 20.1976C27.3987 20.1567 27.4012 20.1138 27.3948 20.0718C27.3885 20.0298 27.3735 19.9896 27.3507 19.9538C27.3481 19.908 27.3317 19.864 27.3036 19.8278C27.2755 19.7915 27.237 19.7647 27.1933 19.7508C27.1495 19.7369 27.1026 19.7367 27.0588 19.7501C27.0149 19.7636 26.9761 19.79 26.9477 19.826C26.8789 19.8064 26.7806 20.0128 26.8101 20.229Z" fill="white"/>
<path d="M17.6879 15.4416L18.376 16.3164L26.082 15.3139L26.4457 13.1711C26.4885 12.8982 26.4381 12.6187 26.3025 12.378C26.167 12.1372 25.9542 11.9492 25.6987 11.8442L23.32 10.8613C23.1419 10.789 22.9492 10.7602 22.7577 10.7773C22.5662 10.7943 22.3816 10.8568 22.2192 10.9596L17.9926 13.6331C17.8435 13.7231 17.7156 13.8442 17.6176 13.9882C17.5196 14.1322 17.4539 14.2956 17.425 14.4674C17.3961 14.6391 17.4046 14.8151 17.45 14.9833C17.4953 15.1514 17.5765 15.3078 17.6879 15.4416Z" fill="#3057BA"/>
<path d="M27.0648 14.4395C27.1729 14.9113 27.3891 15.8549 23.0447 16.828C18.7002 17.8011 18.2972 16.7297 18.3463 16.3169C18.425 15.7173 20.3122 15.9532 22.7203 15.4126C25.1284 14.872 26.996 13.9677 27.0648 14.4395Z" fill="#1F1A54"/>
<path d="M24.0577 14.1049C23.9303 14.2814 23.7701 14.4316 23.5859 14.5473H23.5269C23.3144 14.521 23.1082 14.4578 22.9175 14.3605C22.6518 14.2186 22.4239 14.0152 22.2529 13.7673C22.082 13.5193 21.9728 13.234 21.9346 12.9353C21.9346 12.9058 21.9346 12.9058 21.9346 12.8763H21.9346C22.1466 12.8565 22.3498 12.782 22.5243 12.6601C22.6625 12.5665 22.777 12.442 22.8585 12.2964H22.9077C23.0449 12.3853 23.1987 12.4455 23.3598 12.4733C23.5702 12.5111 23.7868 12.4941 23.9889 12.4242H24.0773C24.2049 12.6866 24.2695 12.9751 24.2661 13.2669C24.2627 13.5586 24.1913 13.8456 24.0577 14.1049Z" fill="#FFD400"/>
<path d="M20.2223 37.179C20.2153 37.1819 20.2083 37.1849 20.2015 37.1881C20.1356 37.2186 20.064 37.2343 19.9915 37.2343C19.9189 37.2343 19.8473 37.2186 19.7815 37.1881C19.7746 37.1849 19.7677 37.1819 19.7608 37.1791C17.0709 36.0788 14.596 34.5131 12.4497 32.5536C4.15689 24.8856 4.28186 13.7385 4.60923 9.70956C4.62821 9.54474 4.71049 9.39364 4.83881 9.28824L4.83886 9.28829L4.84526 9.28286C4.90028 9.23609 4.96378 9.20045 5.03223 9.17784C5.10454 9.1655 5.17858 9.16674 5.25054 9.18157C5.26275 9.18409 5.27505 9.18615 5.28742 9.18775C8.25305 9.57072 11.267 9.13557 14.0031 7.92939L14.0053 7.92843C16.1512 6.97037 18.0473 5.53056 19.5465 3.72083L19.5465 3.72086L19.5505 3.71597C19.6307 3.61656 19.7426 3.54759 19.8675 3.5205C19.8739 3.5191 19.8803 3.51758 19.8867 3.51593C20.0059 3.48509 20.1323 3.49934 20.2417 3.55593C20.2556 3.56317 20.27 3.56974 20.2846 3.57562C20.3514 3.60258 20.4098 3.64711 20.4535 3.70451C20.4577 3.71007 20.462 3.71553 20.4665 3.7209C21.9638 5.52782 23.8558 6.96712 25.9967 7.92804L25.9999 7.92944C28.7337 9.13369 31.7463 9.56202 34.7075 9.16748C34.7184 9.16603 34.7293 9.16421 34.7401 9.16203C34.8189 9.14616 34.9 9.14529 34.9791 9.15942C35.0458 9.17857 35.1079 9.21143 35.1613 9.25596L35.1612 9.25608L35.171 9.26377C35.2303 9.31075 35.2781 9.37059 35.311 9.43877C35.3145 9.44624 35.3183 9.45362 35.3223 9.46091C35.3575 9.52564 35.378 9.59735 35.3823 9.67091L35.3821 9.67092L35.3833 9.6847C35.7308 13.7255 35.8607 24.8811 27.5434 32.5434C25.3955 34.5083 22.917 36.0777 20.2223 37.179Z" stroke="#1F1A54" stroke-linecap="round" stroke-linejoin="round"/>
</svg>
