<svg width="375" height="277" viewBox="0 0 375 277" fill="none" xmlns="http://www.w3.org/2000/svg">
<path d="M109.1 257.4C144.888 257.4 173.9 256.012 173.9 254.3C173.9 252.588 144.888 251.2 109.1 251.2C73.312 251.2 44.3 252.588 44.3 254.3C44.3 256.012 73.312 257.4 109.1 257.4Z" fill="#FFEB86"/>
<path d="M263.8 255.9C299.588 255.9 328.6 254.512 328.6 252.8C328.6 251.088 299.588 249.7 263.8 249.7C228.012 249.7 199 251.088 199 252.8C199 254.512 228.012 255.9 263.8 255.9Z" fill="#FFEB86"/>
<path d="M222.5 116.8L196.6 108.7V64.8999L222.5 72.9999V116.8Z" fill="white"/>
<path d="M222.5 117.2H222.4L196.5 109.1C196.3 109.1 196.2 108.9 196.2 108.7V64.9C196.2 64.8 196.3 64.7 196.4 64.6C196.5 64.5 196.6 64.5 196.7 64.5L222.6 72.6C222.8 72.6 222.9 72.8 222.9 73V116.8C222.9 116.9 222.8 117 222.7 117.1C222.7 117.2 222.6 117.2 222.5 117.2ZM197 108.4L222.1 116.3V73.3L197 65.4V108.4Z" fill="#1F1A54"/>
<path d="M248.4 108.7L222.5 116.8V72.9999L248.4 64.8999V108.7Z" fill="white"/>
<path d="M222.5 117.2C222.4 117.2 222.3 117.2 222.3 117.1C222.2 117 222.1 116.9 222.1 116.8V73C222.1 72.8 222.2 72.7 222.4 72.6L248.3 64.5C248.4 64.5 248.5 64.5 248.6 64.6C248.7 64.7 248.8 64.8 248.8 64.9V108.7C248.8 108.9 248.7 109 248.5 109.1L222.6 117.2H222.5ZM222.9 73.3V116.4L248 108.5V65.4L222.9 73.3Z" fill="#1F1A54"/>
<path d="M274.3 116.8L248.4 108.7V64.8999L274.3 72.9999V116.8Z" fill="white"/>
<path d="M274.3 117.2H274.2L248.3 109.1C248.1 109.1 248 108.9 248 108.7V64.9C248 64.8 248.1 64.7 248.2 64.6C248.3 64.5 248.4 64.5 248.5 64.5L274.4 72.6C274.6 72.6 274.7 72.8 274.7 73V116.8C274.7 116.9 274.6 117 274.5 117.1C274.4 117.2 274.3 117.2 274.3 117.2ZM248.7 108.4L273.8 116.3V73.3L248.7 65.4V108.4Z" fill="#1F1A54"/>
<path d="M84.9 239.2L71.1 235.5C70.9 235.4 70.8 235.2 70.8 235.1C71 234.5 85.9 175.9 89.2 156.3C92.2 138.5 96.4 123.2 96.5 123C96.6 122.8 96.8 122.7 97 122.7C97.2 122.8 97.3 123 97.3 123.2C97.3 123.4 93 138.7 90 156.4C86.8 175.3 72.9 230 71.7 234.9L84.7 238.4L97.5 197.6L108.6 170.9C108.7 170.7 108.9 170.6 109.1 170.7C109.3 170.8 109.4 171 109.3 171.2L98.2 197.9L85.3 239C85.2 239.1 85.1 239.2 84.9 239.2Z" fill="#1F1A54"/>
<path d="M147.2 230.2C147.1 230.2 147 230.1 146.9 230.1L117.9 195.6C117.9 195.6 117.9 195.5 117.8 195.5L105.4 161.7L98.6 148.2C98.5 148 98.6 147.8 98.8 147.7C99 147.6 99.2 147.7 99.3 147.9L106.1 161.4L118.5 195.2L147.2 229.4L157.4 219.9L133 188.4C133 188.4 132.9 188.3 132.9 188.2C132.7 187.1 129.1 162.4 130.3 155.9C132.4 145 131 130.3 123.4 122.1C123.3 122 123.3 121.7 123.4 121.6C123.5 121.5 123.8 121.5 123.9 121.6C129.1 127.2 134.1 139.6 131 156.1C129.8 162.2 133.3 186.3 133.6 188L158.3 219.6C158.4 219.8 158.4 220 158.3 220.1L147.5 230C147.4 230.1 147.3 230.2 147.2 230.2Z" fill="#1F1A54"/>
<path d="M167.4 142.1L157.1 148.5C156 147.5 154.8 145.4 154.4 144.4C153.5 142.3 153.9 145.4 153.6 147.9C153.4 150.3 151.9 151 151.2 150.8C150.5 150.6 150.9 148.4 150.8 146.5C150.6 141.9 151.2 134.3 149.9 130.6C147 122.3 142.1 116 139.4 109.7C138.1 107.3 136.6 105.2 135.2 103.5C131.9 99.4001 129.1 97.3001 129.1 97.3001L137.3 88.1001L144.4 96.8001L146.2 99.0001C152.3 105.5 155.7 121.2 158.1 126C158.1 126 161.4 133 163.5 135.8C163.5 135.7 166.8 139.3 167.4 142.1Z" fill="white"/>
<path d="M121.8 70.3001C120.4 69.1001 119 68.2001 117.6 67.6001V57.8001C121.3 57.3001 124.1 55.4001 124.8 51.9001C125.6 47.7001 122.6 44.7001 119.9 45.8001C118 46.6001 117.1 48.2001 116.6 49.0001C116.4 48.8001 113.9 46.2001 109.4 43.6001C105.4 41.3001 103.3 37.1001 103.3 37.1001C103.3 37.1001 99.6002 41.5001 97.2002 42.3001C97.0002 45.9001 96.7002 50.5001 97.1002 54.2001C97.5002 58.7001 99.1002 61.7001 101.3 63.4001C102.1 64.0001 102.8 64.4001 103.6 64.7001V68.6001C103.2 68.8001 102.7 69.1001 102.3 69.3001C100.6 70.3001 98.9002 72.7001 97.4002 75.6001C91.0002 66.9001 89.6002 42.0001 95.4002 36.4001C102.6 29.4001 116.1 26.3001 120.6 34.0001C120.6 34.0001 124.2 35.0001 125.4 38.7001C126.3 41.7001 131.4 57.8001 139.6 70.3001C146.1 80.2001 156.2 87.0001 156.2 89.1001C156.2 95.1001 141.4 82.2001 144.6 96.7001L137.5 88.0001L121.8 70.3001Z" fill="#1F1A54"/>
<path d="M117.5 67.6C119 68.2 120.4 69.1 121.7 70.3L137.3 88.1L129.1 97.3L125.3 94.5C125.1 96.4 124.9 98.3 124.7 100.1C124.7 100.3 124.7 100.4 124.6 100.6C123.5 110.4 123.5 115.1 123.5 121.9C123.5 121.9 120.6 124 109.3 124.9C100.4 125.6 96.7 123 96.7 123C96.9 121.9 95.1 110.1 95 109.7C100.5 104 105 97 105 97L90.5 92.1C90.5 92.1 93.6 82.6 97.3 75.7C98.9 72.8 100.6 70.4 102.2 69.4C102.6 69.2 103 68.9 103.5 68.7C104.9 68 106.4 67.4 108 67C111.1 66.2 114.4 66.3 117.5 67.6Z" fill="#FFD400"/>
<path d="M135.3 103.5C127.6 103.9 124.8 100.6 124.8 100.6C124.8 100.4 124.8 100.3 124.9 100.1C125.1 98.2 125.3 96.3 125.5 94.5L129.3 97.3C129.2 97.3 132 99.5 135.3 103.5Z" fill="#1F1A54"/>
<path d="M117.5 57.8001V67.6001C114.3 66.3001 111 66.2001 107.9 66.9001C106.3 67.3001 104.8 67.9001 103.4 68.6001V64.7001C102.7 64.4001 101.9 64.0001 101.1 63.4001C98.9 61.7001 97.3001 58.7001 96.9001 54.2001C96.6001 50.5001 96.8001 45.8001 97.0001 42.3001C99.4001 41.5001 103.1 37.1001 103.1 37.1001C103.1 37.1001 105.2 41.3001 109.2 43.6001C113.8 46.2001 116.3 48.8001 116.4 49.0001C116.8 48.1001 117.8 46.5001 119.7 45.8001C122.4 44.7001 125.4 47.7001 124.6 51.9001C124 55.4001 121.2 57.3001 117.5 57.8001ZM108.6 49.3001C108.6 48.7001 108.2 48.3001 107.8 48.3001C107.3 48.3001 107 48.8001 107 49.3001C107 49.9001 107.4 50.3001 107.8 50.3001C108.3 50.3001 108.6 49.9001 108.6 49.3001ZM101.3 49.4001C101.3 48.8001 100.9 48.4001 100.5 48.4001C100.1 48.4001 99.7 48.9001 99.7 49.4001C99.7 50.0001 100.1 50.4001 100.5 50.4001C101 50.5001 101.3 50.0001 101.3 49.4001Z" fill="white"/>
<path d="M107.8 48.3C108.2 48.3 108.6 48.8 108.6 49.3C108.6 49.9 108.2 50.3 107.8 50.3C107.3 50.3 107 49.8 107 49.3C107 48.8 107.4 48.3 107.8 48.3Z" fill="#1F1A54"/>
<path d="M39.9001 83.6001C39.5001 83.2001 39.3001 82.6001 39.5001 81.8001C39.7001 81.0001 40.2001 80.5001 40.2001 80.5001C40.0001 80.2001 39.9001 79.7001 40.1001 79.1001C40.4001 78.3001 41.6001 78.0001 41.6001 78.0001C41.3001 77.6001 41.1001 77.2001 41.2001 76.6001C41.4001 75.9001 42.2001 75.2001 43.9001 75.4001C45.4001 75.5001 48.5001 76.6001 49.4001 77.2001C52.1001 78.7001 50.9001 69.0001 53.6001 69.1001C55.4001 69.1001 54.5001 76.3001 57.2001 81.0001C58.4001 83.1001 60.0001 84.3001 61.3001 85.5001C65.4001 89.4001 81.8001 99.7001 84.7001 102.9C84.6001 103.5 90.5001 92.2001 90.5001 92.2001L105 97.0001C105 97.0001 100.5 104 95.3001 109.7C91.4001 113.9 87.2001 117.5 84.1001 117C75.3001 115.5 58.5001 94.0001 53.7001 91.6001C53.7001 91.6001 50.8001 90.5001 47.5001 89.6001C47.5001 89.6001 38.8001 88.0001 39.6001 84.4001C39.7001 83.6001 39.9001 83.6001 39.9001 83.6001Z" fill="white"/>
<path d="M100.5 48.4001C101 48.4001 101.3 48.9001 101.3 49.4001C101.3 50.0001 100.9 50.4001 100.5 50.4001C100.1 50.4001 99.7002 49.9001 99.7002 49.4001C99.7002 48.9001 100.1 48.4001 100.5 48.4001Z" fill="#1F1A54"/>
<path d="M42.0002 81.9C41.9002 81.9 40.5002 81.7 39.9002 80.8C39.7002 80.5 39.4002 79.9 39.7002 79C40.0002 78 41.4002 77.7 41.4002 77.7C41.6002 77.7 41.8002 77.8 41.8002 78C41.8002 78.2 41.7002 78.4 41.5002 78.4C41.2002 78.5 40.5002 78.8 40.3002 79.3C40.2002 79.8 40.2002 80.1 40.4002 80.4C40.9002 81.1 42.0002 81.2 42.0002 81.2C42.2002 81.2 42.3002 81.4 42.3002 81.6C42.3002 81.8 42.2002 81.9 42.0002 81.9Z" fill="#1F1A54"/>
<path d="M84.7 117.4C84.5 117.4 84.2 117.4 84 117.3C78.3 116.4 69.6 107.5 62.6 100.3C58.6 96.3 55.2 92.8 53.5 91.9C53.5 91.9 50.6 90.8 47.3 90C47.1 90 41.2 88.9 39.6 86.3C39.2 85.7 39 85 39.2 84.3C39.3 83.7 39.5 83.2 39.9 83.2C40.1 83.2 40.3 83.4 40.3 83.6C40.3 83.7 40.2 83.9 40.1 83.9C40.1 84 40 84.1 39.9 84.5C39.8 85 39.9 85.5 40.2 85.9C41.7 88.2 47.4 89.2 47.5 89.2C50.9 90.1 53.8 91.2 53.8 91.2C55.7 92.1 59 95.5 63.2 99.7C70.1 106.8 78.8 115.6 84.2 116.5C86.7 116.9 90.5 114.4 95.1 109.3C99.5 104.4 103.5 98.6 104.5 97L90.7 92.3C85 103.1 85 103.1 84.6 102.9C84.5 102.9 84.5 102.8 84.4 102.7C82.9 101.1 77.9 97.7 73.1 94.3C68.2 90.9 63.1 87.3 61 85.4C60.8 85.2 60.5 84.9 60.2 84.7C59.1 83.7 57.8 82.5 56.9 80.8C55.5 78.3 55 75.2 54.7 72.7C54.4 70.9 54.2 69.1 53.6 69.1C52.6 69.1 52.2 71.3 51.9 73.2C51.6 75.1 51.3 76.8 50.4 77.3C50 77.5 49.6 77.4 49.2 77.2C48.3 76.7 45.2 75.6 43.8 75.5C42.4 75.4 41.6 75.9 41.5 76.5C41.4 76.9 41.5 77.3 41.8 77.6C42.3 78.2 43.1 78.5 43.1 78.5C43.3 78.6 43.4 78.8 43.3 79C43.2 79.2 43 79.3 42.8 79.2C42.8 79.2 41.8 78.8 41.2 78.1C40.7 77.6 40.6 77 40.7 76.4C40.9 75.5 41.9 74.7 43.8 74.9C45.4 75.1 48.6 76.2 49.5 76.7C49.8 76.9 50 76.8 50 76.8C50.6 76.5 50.9 74.8 51.1 73.3C51.5 71 51.9 68.5 53.5 68.5C54.7 68.5 54.9 70.2 55.3 72.8C55.6 75.2 56.1 78.3 57.5 80.7C58.4 82.3 59.6 83.4 60.7 84.4C61 84.7 61.2 84.9 61.5 85.1C63.5 87 68.6 90.5 73.5 93.9C78.3 97.2 82.9 100.4 84.6 102.1C85.4 100.7 88.3 95.4 90.2 91.8C90.3 91.6 90.5 91.6 90.7 91.6L105.2 96.5C105.3 96.5 105.4 96.6 105.4 96.7C105.4 96.8 105.4 96.9 105.4 97C105.4 97.1 100.8 104.1 95.7 109.8C91 114.9 87.4 117.4 84.7 117.4Z" fill="#1F1A54"/>
<path d="M41.6001 85.0001C41.5001 85.0001 40.3001 84.7001 39.6001 83.8001C39.1001 83.2001 38.9001 82.5001 39.1001 81.7001C39.3001 80.8001 39.8001 80.3001 39.9001 80.3001C40.0001 80.2001 40.3001 80.2001 40.4001 80.3001C40.5001 80.4001 40.5001 80.7001 40.4001 80.8001C40.4001 80.8001 40.0001 81.2001 39.9001 81.9001C39.8001 82.5001 39.9001 82.9001 40.2001 83.3001C40.8001 84.0001 41.7001 84.2001 41.7001 84.2001C41.9001 84.2001 42.0001 84.4001 42.0001 84.6001C41.9001 84.9001 41.8001 85.0001 41.6001 85.0001Z" fill="#1F1A54"/>
<path d="M105 97.4C104.9 97.4 104.8 97.4 104.8 97.3C104.6 97.2 104.6 96.9 104.7 96.8L109.2 90.6C109.3 90.4 109.6 90.4 109.7 90.5C109.9 90.6 109.9 90.9 109.8 91L105.3 97.2C105.2 97.3 105.1 97.4 105 97.4Z" fill="#1F1A54"/>
<path d="M106.4 125.4C99.7001 125.4 96.8001 123.4 96.7001 123.3C96.6001 123.2 96.5001 123.1 96.6001 122.9C96.7001 122.2 95.9001 115.8 94.9001 109.8V109.7C94.9001 109.5 95.1001 109.3 95.3001 109.3C95.5001 109.3 95.7001 109.5 95.7001 109.7C96.1001 112.4 97.4001 120.9 97.4001 122.8C98.2001 123.3 101.9 125.1 109.6 124.5C119.2 123.7 122.7 122.1 123.4 121.7V120.6C123.4 114.5 123.5 109.8 124.5 100.6L124.6 100.1C124.8 98.2 125 96.3 125.2 94.5C125.7 89.7 125.9 86 125.9 82.9C125.9 81.3 125.8 80.2 125.8 80.1C125.8 79.9 125.9 79.7 126.1 79.7C126.3 79.7 126.5 79.8 126.5 80C126.5 80 126.6 81.2 126.6 82.8C126.6 85.9 126.4 89.6 125.9 94.5C125.7 96.4 125.5 98.3 125.3 100.1L125.2 100.6C124.2 109.7 124.1 114.5 124.1 120.5V121.8C124.1 121.9 124 122 123.9 122.1C123.8 122.2 120.8 124.2 109.5 125.2C108.4 125.3 107.4 125.4 106.4 125.4Z" fill="#1F1A54"/>
<path d="M151.4 151.3C151.3 151.3 151.2 151.3 151.1 151.3C150.3 151.1 150.4 150 150.4 148.5C150.4 147.9 150.5 147.3 150.4 146.7C150.3 145.3 150.4 143.7 150.4 142C150.4 138 150.5 133.5 149.6 130.9C147.9 126.1 145.6 122 143.3 118.1C141.7 115.3 140.2 112.7 139.1 110C137.9 107.9 136.5 105.8 135 103.9C134.9 103.7 134.9 103.5 135.1 103.4C135.3 103.3 135.5 103.3 135.6 103.5C137.2 105.5 138.6 107.6 139.8 109.8C140.9 112.5 142.4 115.1 144 117.8C146.3 121.8 148.6 125.9 150.3 130.8C151.2 133.5 151.2 138.1 151.1 142.1C151.1 143.8 151.1 145.4 151.1 146.8C151.1 147.4 151.1 148.1 151.1 148.7C151.1 149.4 151 150.6 151.2 150.8C151.4 150.8 151.7 150.8 152 150.6C152.4 150.3 153 149.7 153.1 148.2C153.2 147.5 153.2 146.7 153.2 146C153.2 144.4 153.2 143.8 153.7 143.7C154.1 143.6 154.3 144.1 154.6 144.6C155 145.6 156.1 147.3 157 148.3L166.8 142.2C166.1 139.6 163.1 136.3 163.1 136.2C161 133.4 157.8 126.6 157.6 126.3C156.9 124.8 156 122.2 155.1 119.3C152.9 112.8 150 103.8 145.9 99.4002C145.8 99.3002 145.8 99.0002 145.9 98.9002C146.1 98.8002 146.3 98.8002 146.4 98.9002C150.6 103.5 153.6 112.5 155.8 119.1C156.8 122 157.6 124.5 158.3 126C158.3 126.1 161.6 133 163.7 135.7C163.8 135.8 167 139.4 167.6 142.2C167.6 142.4 167.6 142.5 167.4 142.6L157.1 149C157 149.1 156.8 149.1 156.7 149C155.7 148 154.5 146 153.9 144.9C153.9 145.2 153.9 145.5 153.9 145.9C153.9 146.6 153.9 147.4 153.8 148.2C153.7 150 152.9 150.8 152.4 151.1C152.2 151.2 151.8 151.3 151.4 151.3Z" fill="#1F1A54"/>
<path d="M135.3 103.9C135.2 103.9 135.1 103.9 135 103.8C131.8 99.8 129 97.7 129 97.6C128.8 97.5 128.8 97.2 128.9 97.1C129 96.9 129.3 96.9 129.4 97C129.5 97.1 132.3 99.2 135.6 103.3C135.7 103.5 135.7 103.7 135.5 103.8C135.5 103.9 135.4 103.9 135.3 103.9Z" fill="#1F1A54"/>
<path d="M146.3 99.3002C146.2 99.3002 146.1 99.3002 146 99.2002L137.1 88.4002C137 88.2002 137 88.0002 137.2 87.9002C137.4 87.8002 137.6 87.8002 137.7 88.0002L146.6 98.8002C146.7 99.0002 146.7 99.2002 146.5 99.3002C146.4 99.3002 146.4 99.3002 146.3 99.3002Z" fill="#1F1A54"/>
<path d="M106 65.7001C105.2 65.7001 104.3 65.6001 103.3 65.2001C102.5 64.9001 101.7 64.4001 100.9 63.8001C98.4002 61.9001 96.9002 58.6001 96.5002 54.4001C96.2002 50.6001 96.4001 45.7001 96.6001 42.4001C96.6001 42.2001 96.8002 42.0001 97.0002 42.1001C97.2002 42.1001 97.4002 42.3001 97.3002 42.5001C97.1002 45.8001 96.8001 50.6001 97.2001 54.4001C97.6001 58.5001 99.0002 61.6001 101.3 63.3001C102 63.8001 102.7 64.3001 103.5 64.5001C105.1 65.1001 106.5 65.0001 107.4 64.8001C107.5 64.8001 107.5 64.8001 107.6 64.8001H107.8C109.3 64.5001 110.8 63.7001 111.9 62.6001C112 62.5001 112.3 62.5001 112.4 62.6001C112.5 62.7001 112.5 63.0001 112.4 63.1001C111.2 64.2001 109.6 65.1001 107.9 65.5001H107.8C107.7 65.5001 107.7 65.5001 107.6 65.5001C107.1 65.6001 106.6 65.7001 106 65.7001Z" fill="#1F1A54"/>
<path d="M106 46.7001C105.9 46.7001 105.8 46.6001 105.7 46.6001C105.6 46.4001 105.6 46.2001 105.8 46.1001C106.8 45.4001 108.5 45.3001 109.5 46.0001C109.7 46.1001 109.7 46.3001 109.6 46.5001C109.5 46.7001 109.3 46.7001 109.1 46.6001C108.3 46.1001 107 46.1001 106.3 46.7001C106.2 46.7001 106.1 46.7001 106 46.7001Z" fill="#1F1A54"/>
<path d="M99 46.7001C98.9 46.7001 98.8 46.6001 98.7 46.6001C98.6 46.4001 98.6 46.2001 98.8 46.1001C99.8 45.4001 101.4 45.3001 102.5 46.0001C102.7 46.1001 102.7 46.3001 102.6 46.5001C102.5 46.7001 102.3 46.7001 102.1 46.6001C101.3 46.1001 100 46.1001 99.2 46.7001C99.2 46.7001 99.1 46.7001 99 46.7001Z" fill="#1F1A54"/>
<path d="M106.9 59.2001C106.7 59.2001 106.6 59.1001 106.5 58.9001C106.5 58.7001 106.6 58.5001 106.8 58.5001C109.5 57.9001 110.1 55.5001 110.2 55.4001C110.2 55.2001 110.4 55.1001 110.6 55.1001C110.8 55.1001 110.9 55.3001 110.9 55.5001C110.9 55.6001 110.2 58.5001 106.9 59.2001C107 59.2001 106.9 59.2001 106.9 59.2001Z" fill="#1F1A54"/>
<path d="M104.1 54.7001C103.7 54.7001 103.3 54.6001 102.9 54.4001C102.7 54.3001 102.7 54.1001 102.8 53.9001C102.9 53.7001 103.1 53.7001 103.3 53.8001C104 54.3001 105.1 53.8001 105.1 53.8001C105.3 53.7001 105.5 53.8001 105.6 54.0001C105.7 54.2001 105.6 54.4001 105.4 54.5001C105.4 54.4001 104.8 54.7001 104.1 54.7001Z" fill="#1F1A54"/>
<path d="M118.6 53.6001C118.4 53.6001 118.2 53.4001 118.2 53.2001C118.6 49.5001 120.9 49.1001 121 49.1001C121.2 49.1001 121.4 49.2001 121.4 49.4001C121.4 49.6001 121.3 49.8001 121.1 49.8001C121 49.8001 119.2 50.2001 118.9 53.3001C118.9 53.5001 118.8 53.6001 118.6 53.6001Z" fill="#1F1A54"/>
<path d="M117.5 68.0001C117.3 68.0001 117.1 67.8001 117.1 67.6001V57.8001C117.1 57.6001 117.3 57.4001 117.5 57.4001C117.7 57.4001 117.9 57.6001 117.9 57.8001V67.6001C117.9 67.8001 117.7 68.0001 117.5 68.0001Z" fill="#1F1A54"/>
<path d="M103.4 69C103.2 69 103 68.8 103 68.6V64.7C103 64.5 103.2 64.3 103.4 64.3C103.6 64.3 103.8 64.5 103.8 64.7V68.6C103.8 68.9 103.6 69 103.4 69Z" fill="#1F1A54"/>
<path d="M117.6 58.2002C117.4 58.2002 117.2 58.0002 117.2 57.8002C117.2 57.6002 117.3 57.4002 117.5 57.4002C120.2 57.0002 123.5 55.7002 124.3 51.8002C124.8 49.3002 123.8 47.5002 122.8 46.6002C121.9 45.9002 120.9 45.7002 119.9 46.1002C118.2 46.8002 117.2 48.3002 116.8 49.2002C116.6 49.6002 116.6 49.8002 116.6 49.8002C116.5 50.0002 116.3 50.1002 116.1 50.0002C115.9 49.9002 115.8 49.7002 115.9 49.5002C115.9 49.5002 116 49.2002 116.2 48.8002C116.7 47.9002 117.7 46.2002 119.7 45.4002C120.9 44.9002 122.2 45.1002 123.3 46.0002C124.9 47.3002 125.5 49.5002 125.1 51.9002C124.4 55.4002 121.7 57.6002 117.6 58.2002Z" fill="#1F1A54"/>
<path d="M144.5 97.2001C144.3 97.2001 144.2 97.1001 144.1 96.9001C143.3 93.4001 143.5 91.2001 144.7 90.1001C146.2 88.7001 148.8 89.4001 151.2 90.0001C152.9 90.4001 154.6 90.9001 155.3 90.3001C155.6 90.1001 155.7 89.7001 155.7 89.2001C155.7 88.4001 153.7 86.5001 151.3 84.3001C147.7 80.9001 142.9 76.3001 139.1 70.6001C131.3 58.7001 126.2 43.3001 124.8 38.9001C123.7 35.4001 120.3 34.5001 120.3 34.5001C120.2 34.5001 120.1 34.4001 120.1 34.3001C118.7 32.0001 116.4 30.5001 113.3 30.1001C107.7 29.3001 100.2 32.1001 95.5 36.8001C89.9 42.2001 91.2 66.9001 97.4 75.6001C97.5 75.8001 97.5 76.0001 97.3 76.1001C97.1 76.2001 96.9 76.2001 96.8 76.0001C90.3 66.9001 89.1 42.0001 95 36.2001C100 31.4001 107.5 28.5001 113.4 29.3001C116.7 29.7001 119.1 31.3001 120.6 33.8001C121.3 34.0001 124.4 35.2001 125.5 38.7001C126.9 43.1001 131.9 58.4001 139.7 70.2001C143.4 75.8001 148.2 80.4001 151.7 83.8001C154.8 86.8001 156.3 88.2001 156.3 89.3001C156.3 90.1001 156.1 90.6001 155.6 91.0001C154.6 91.8001 152.9 91.3001 150.9 90.8001C148.7 90.2001 146.3 89.6001 145.1 90.7001C144.1 91.6001 144 93.7001 144.7 96.8001C144.9 96.9001 144.8 97.1001 144.5 97.2001C144.6 97.2001 144.5 97.2001 144.5 97.2001Z" fill="#1F1A54"/>
<path d="M116.3 49.3C116.2 49.2 113.8 46.6001 109.1 43.9001C105.8 42.0001 103.8 38.9 103.1 37.8C102.1 38.9 99.2001 42.1001 97.2001 42.7001C97.0001 42.8001 96.8001 42.7 96.7001 42.5C96.6001 42.3 96.7001 42.1 96.9001 42C99.2001 41.3 102.8 37.0001 102.9 36.9001C103 36.8001 103.1 36.8 103.2 36.8C103.3 36.8 103.4 36.9 103.5 37C103.5 37 105.6 41.1 109.5 43.3C114.2 46 116.7 48.7 116.8 48.8L116.3 49.3Z" fill="#1F1A54"/>
<path d="M123 71.9001C122.9 71.9001 122.8 71.9001 122.7 71.8001C122.3 71.4001 121.9 71 121.5 70.7C121.3 70.6 121.3 70.3 121.5 70.2C121.6 70 121.9 70 122 70.2C122.4 70.6 122.8 71.0001 123.2 71.4001C123.3 71.5001 123.3 71.8001 123.2 71.9001C123.2 71.8001 123.1 71.9001 123 71.9001Z" fill="#1F1A54"/>
<path d="M90.4 92.4001H90.3C90.1 92.3001 90 92.1001 90.1 91.9001C90.1 91.8001 93.2 82.3001 97 75.5001C98.8 72.2001 100.5 70.0001 102.1 69.1001C102.5 68.8001 102.9 68.6001 103.4 68.4001C104.9 67.6001 106.4 67.0001 108 66.7001C111.4 65.9001 114.8 66.1001 117.8 67.4001C119.4 68.1001 120.8 69.0001 122.1 70.1001C122.3 70.2001 122.3 70.5001 122.1 70.6001C122 70.8001 121.7 70.8001 121.6 70.6001C120.3 69.5001 118.9 68.6001 117.5 68.0001C114.6 66.8001 111.4 66.6001 108.1 67.4001C106.6 67.8001 105.1 68.3001 103.7 69.1001C103.3 69.3001 102.9 69.6001 102.5 69.8001C101.1 70.7001 99.5 72.8001 97.7 75.9001C94 82.6001 90.9 92.1001 90.9 92.2001C90.7 92.3001 90.6 92.4001 90.4 92.4001Z" fill="#1F1A54"/>
<path d="M129.2 97.7C129.1 97.7 129 97.7 129 97.6L125.2 94.8001C125 94.7001 125 94.4001 125.1 94.3001C125.2 94.1001 125.5 94.1 125.6 94.2L129.1 96.8001L136.9 88.1L121.5 70.5C121.4 70.4 121.4 70.1 121.5 70C121.6 69.9 121.9 69.9 122 70L137.7 87.8001C137.8 87.9001 137.8 88.1001 137.7 88.3001L129.5 97.5C129.4 97.6 129.3 97.7 129.2 97.7Z" fill="#1F1A54"/>
<path d="M133.9 104C127.2 104 124.6 101 124.4 100.9C124.3 100.7 124.3 100.5 124.4 100.4C124.6 100.3 124.8 100.3 124.9 100.4C124.9 100.4 127.8 103.6 135.1 103.2V103.9C134.8 103.9 134.4 104 133.9 104Z" fill="#1F1A54"/>
<path d="M166.6 228.7C168.7 229.8 171.8 230.6 170.7 232.1C169.6 233.6 157.3 247.6 154.6 250.4C150.6 254.7 148.2 254.9 146.4 253.9C145.1 253.1 145 252.6 145 252.6C145.6 253.3 147 253.1 148.8 251.9C152.7 249.3 166.6 228.7 166.6 228.7Z" fill="white"/>
<path d="M148.6 243.2C148.8 242.9 148.9 242.5 149.1 242.2C149.3 241.7 149.6 241.2 149.8 240.7C150.1 239.9 150.4 239 150.6 238.2C150.9 237.1 151.1 236.1 151.3 235.2C151.5 234.1 151.5 233.1 151.4 232.4C151.4 232.5 152.1 232.5 153.1 232.2C154.6 231.8 156.8 231.1 158.4 230.2C160.6 229 161.7 227.4 162.1 226.6C162.3 226.2 162.4 226 162.4 226C165 227.8 166.6 228.7 166.6 228.7C166.6 228.7 152.7 249.3 148.8 251.9C147 253.1 145.7 253.4 145 252.6C144.8 252.3 144.6 251.9 144.6 251.3C144.6 250.3 145.6 248.7 146.4 247.3C147 246.3 147.9 244.7 148.6 243.2Z" fill="white"/>
<path d="M157.2 220.6L162.1 226.6C161.6 227.4 160.6 229.1 158.4 230.2C156.8 231.1 154.6 231.8 153.1 232.2L149.5 227.5L157.2 220.6Z" fill="#FFD400"/>
<path d="M82.3001 238.1L80.4001 245C79.5001 245 77.5001 244.9 75.3001 243.6C74.0001 242.8 72.6001 241.6 71.6001 240.6L71.7001 240.5L72.9001 235.6L82.3001 238.1Z" fill="#FFD400"/>
<path d="M80.4 245C80.8 245 81 245 81 245C80.8 248.1 80.7 250 80.7 250C80.7 250 56 248.2 51.7 246C49.8 245.1 48.9 244 49.2 243.1C49.3 242.8 49.6 242.5 50.1 242.2C51 241.7 52.8 241.8 54.4 241.8C55.7 241.8 57.4 241.7 59.1 241.6C59.5 241.6 59.8 241.6 60.2 241.5C60.7 241.5 61.3 241.4 61.8 241.3C62.7 241.2 63.6 241 64.4 240.8C65.5 240.5 66.5 240.2 67.3 239.9C68.4 239.5 69.2 239 69.8 238.6C69.7 238.7 70.4 239.6 71.4 240.6C72.4 241.6 73.8 242.8 75.1 243.6C77.5 245 79.5 245.1 80.4 245Z" fill="white"/>
<path d="M80.7 250C80.8 252.4 81.7001 255.4 79.8001 255.2C77.9001 255 59.7001 251.2 55.9001 250.3C50.1001 249 48.8 247 48.8 244.9C48.8 243.4 49.3 243.1 49.3 243.1C48.9 244 49.9 245.1 51.8 246C56 248.1 80.7 250 80.7 250Z" fill="white"/>
<path d="M153.1 232.6C153 232.6 152.9 232.6 152.8 232.5L149.2 227.8C149.1 227.6 149.1 227.4 149.2 227.3L156.8 220.4C156.9 220.3 157 220.3 157.1 220.3C157.2 220.3 157.3 220.4 157.4 220.4L162.3 226.4C162.4 226.6 162.4 226.8 162.3 226.9C162.1 227 161.9 227 161.8 226.9L157.1 221.2L150 227.6L153.4 232C153.5 232.2 153.5 232.4 153.3 232.5C153.3 232.5 153.2 232.6 153.1 232.6Z" fill="#1F1A54"/>
<path d="M80.4001 245.4C80.4001 245.4 80.3001 245.4 80.4001 245.4C80.1001 245.3 80.0001 245.1 80.0001 244.9L81.8001 238.3L73.2001 236L72.1001 240.5C72.1001 240.7 71.8001 240.8 71.7001 240.8C71.5001 240.8 71.4001 240.6 71.4001 240.4L72.6001 235.5C72.6001 235.4 72.7001 235.3 72.8001 235.3C72.9001 235.2 73.0001 235.2 73.1001 235.3L82.5001 237.8C82.6001 237.8 82.7001 237.9 82.7001 238C82.7001 238.1 82.8001 238.2 82.7001 238.3L80.8001 245.2C80.7001 245.3 80.6001 245.4 80.4001 245.4Z" fill="#1F1A54"/>
<path d="M146 253.4C145.3 253.4 144.9 253.1 144.7 252.9C144.4 252.5 144.3 252 144.3 251.4C144.3 250.5 145 249.3 145.7 248.1C145.9 247.8 146 247.5 146.2 247.3L146.3 247.2C146.9 246.1 147.7 244.6 148.4 243.2C148.6 242.9 148.7 242.5 148.9 242.2C149.1 241.7 149.4 241.2 149.6 240.7C149.9 239.9 150.2 239.1 150.4 238.2C150.7 237.2 150.9 236.2 151 235.2C151.2 234.1 151.2 233.1 151.1 232.5C151.1 232.3 151.2 232.1 151.4 232.1C151.5 232.1 151.6 232.1 151.7 232.2C151.9 232.2 152.3 232.2 153.1 232C154.6 231.6 156.7 231 158.3 230.1C160.4 229 161.4 227.4 161.9 226.6C162.1 226.3 162.1 226.1 162.1 226.1C162.1 226 162.2 225.9 162.3 225.9C162.4 225.9 162.5 225.9 162.6 225.9C165.2 227.6 166.7 228.6 166.8 228.6C166.9 228.7 167 228.7 167 228.8C167 228.9 167 229 166.9 229.1C166.3 229.9 152.9 249.8 149 252.4C147.6 253.1 146.7 253.4 146 253.4ZM151.8 232.8C151.8 233.5 151.8 234.3 151.7 235.2C151.6 236.1 151.3 237.2 151 238.3C150.8 239.2 150.5 240.1 150.1 240.8C149.9 241.3 149.7 241.8 149.4 242.3C149.2 242.6 149.1 243 148.9 243.3C148.2 244.8 147.3 246.3 146.8 247.4L146.7 247.5C146.5 247.8 146.4 248.1 146.2 248.3C145.6 249.4 144.9 250.5 144.9 251.3C144.9 251.8 145 252.1 145.2 252.3C145.7 252.9 146.9 252.6 148.5 251.5C152 249.1 164.2 231.4 166 228.8C165.4 228.5 164.2 227.7 162.5 226.6C162.5 226.7 162.4 226.7 162.4 226.8C161.9 227.7 160.8 229.4 158.5 230.6C156.8 231.5 154.6 232.2 153.1 232.6C152.5 232.7 152.1 232.8 151.8 232.8Z" fill="#1F1A54"/>
<path d="M148.2 254.8C147.5 254.8 146.8 254.6 146.2 254.2C144.8 253.4 144.7 252.8 144.7 252.6C144.7 252.4 144.8 252.2 145 252.2C145.2 252.2 145.4 252.3 145.4 252.5C145.4 252.5 145.6 253 146.6 253.6C147.9 254.3 150 254.8 154.3 250.2C157 247.3 169.3 233.4 170.4 231.9C170.6 231.7 170.6 231.5 170.6 231.4C170.5 230.8 169.1 230.3 168 229.8C167.5 229.6 167 229.4 166.5 229.1C166.3 229 166.2 228.8 166.3 228.6C166.4 228.4 166.6 228.3 166.8 228.4C167.3 228.6 167.7 228.8 168.2 229.1C169.6 229.7 171 230.3 171.2 231.2C171.3 231.6 171.2 231.9 170.9 232.3C169.8 233.8 157.5 247.7 154.8 250.7C152.2 253.4 150.1 254.8 148.2 254.8Z" fill="#1F1A54"/>
<path d="M152.9 235.6L149.7 235.5C149.5 235.5 149.3 235.3 149.3 235.1C149.3 234.9 149.5 234.8 149.7 234.7L152.9 234.8C153.1 234.8 153.3 235 153.3 235.2C153.2 235.4 153.1 235.6 152.9 235.6Z" fill="#1F1A54"/>
<path d="M152.4 238.8L149.1 238.4C148.9 238.4 148.8 238.2 148.8 238C148.8 237.8 149 237.7 149.2 237.7L152.4 238.1C152.6 238.1 152.7 238.3 152.7 238.5C152.8 238.6 152.6 238.8 152.4 238.8Z" fill="#1F1A54"/>
<path d="M151.5 241.4C151.5 241.4 151.4 241.4 151.5 241.4L148.2 240.7C148 240.7 147.9 240.5 147.9 240.3C147.9 240.1 148.1 240 148.3 240L151.5 240.7C151.7 240.7 151.8 240.9 151.8 241.1C151.8 241.3 151.7 241.4 151.5 241.4Z" fill="#1F1A54"/>
<path d="M150.4 244C150.4 244 150.4 243.9 150.4 244L147.1 243.3C146.9 243.3 146.8 243.1 146.8 242.9C146.8 242.7 147 242.6 147.2 242.6L150.4 243.3C150.6 243.3 150.7 243.5 150.7 243.7C150.7 243.8 150.6 244 150.4 244Z" fill="#1F1A54"/>
<path d="M80.7002 250.3C79.7002 250.2 55.8002 248.4 51.6002 246.3C48.7002 244.8 48.7002 243.6 48.9002 242.9C49.1002 242.5 49.4002 242.1 50.0002 241.8C50.8002 241.3 52.2002 241.3 53.6002 241.3C53.9002 241.3 54.2002 241.3 54.5002 241.3C56.3002 241.3 57.9002 241.2 59.2002 241.1C59.6002 241.1 59.9002 241.1 60.3002 241C60.8002 241 61.4002 240.9 61.9002 240.8C62.8002 240.7 63.7002 240.5 64.5002 240.3C65.5002 240 66.5002 239.7 67.4002 239.4C68.4002 239 69.3002 238.5 69.8002 238.2C70.0002 238.1 70.2002 238.1 70.3002 238.3C70.4002 238.4 70.4002 238.5 70.4002 238.6C70.5002 238.8 71.0002 239.4 71.9002 240.3C73.1002 241.5 74.5002 242.6 75.6002 243.3C77.6002 244.6 79.5002 244.7 80.4002 244.7C80.7002 244.7 80.9002 244.7 80.9002 244.7C81.0002 244.7 81.1002 244.7 81.2002 244.8C81.3002 244.9 81.3002 245 81.3002 245.1C81.1002 248.2 81.0002 250 81.0002 250C81.0002 250.1 81.0002 250.2 80.9002 250.3C80.9002 250.3 80.8002 250.3 80.7002 250.3ZM69.8002 239.1C69.3002 239.5 68.5002 239.8 67.6002 240.2C66.7002 240.6 65.7002 240.9 64.6002 241.1C63.8002 241.3 62.9002 241.5 62.0002 241.6C61.4002 241.7 60.9002 241.7 60.3002 241.8C59.9002 241.8 59.6002 241.8 59.2002 241.9C57.9002 242 56.3002 242 54.5002 242.1C54.2002 242.1 53.9002 242.1 53.6002 242.1C52.3002 242.1 51.0002 242.1 50.3002 242.5C49.9002 242.7 49.7002 243 49.6002 243.2C49.3002 243.9 50.2002 244.8 51.9002 245.7C55.7002 247.6 77.2002 249.3 80.3002 249.6C80.3002 248.9 80.4002 247.5 80.5002 245.4C80.5002 245.4 80.4002 245.4 80.3002 245.4C79.3002 245.4 77.2002 245.3 75.0002 243.9C73.3002 242.8 71.8002 241.4 71.2002 240.8C70.5002 240 70.0002 239.5 69.8002 239.1Z" fill="#1F1A54"/>
<path d="M80.0001 255.6C79.9001 255.6 79.8001 255.6 79.8001 255.6C78.0001 255.4 59.7001 251.6 55.8001 250.7C50.7001 249.5 48.4001 247.7 48.4001 245C48.4001 243.4 48.9001 243 49.0001 242.9C49.2001 242.8 49.4001 242.8 49.5001 243C49.6001 243.2 49.6001 243.4 49.5001 243.5C49.5001 243.5 49.2001 243.9 49.2001 245.1C49.2001 246.6 49.9001 248.7 56.0001 250.1C59.9001 251 78.1001 254.7 79.9001 255C80.2001 255 80.3001 255 80.4001 254.9C80.8001 254.5 80.7001 253 80.5001 251.8C80.4001 251.3 80.4001 250.7 80.4001 250.2C80.4001 250 80.5001 249.8 80.7001 249.8C80.9001 249.8 81.1001 249.9 81.1001 250.1C81.1001 250.6 81.2001 251.1 81.2001 251.6C81.4001 253.2 81.5001 254.7 80.9001 255.3C80.7001 255.4 80.4001 255.6 80.0001 255.6Z" fill="#1F1A54"/>
<path d="M68.3002 241.7C68.2002 241.7 68.0002 241.6 68.0002 241.5L66.5002 238.7C66.4002 238.5 66.5002 238.3 66.7002 238.2C66.9002 238.1 67.1002 238.2 67.2002 238.4L68.7002 241.2C68.8002 241.4 68.7002 241.6 68.5002 241.7C68.4002 241.6 68.3002 241.7 68.3002 241.7Z" fill="#1F1A54"/>
<path d="M65.3001 242.9C65.2001 242.9 65.0001 242.8 65.0001 242.7L63.7001 239.7C63.6001 239.5 63.7001 239.3 63.9001 239.2C64.1001 239.1 64.3001 239.2 64.4001 239.4L65.7001 242.4C65.8001 242.6 65.7001 242.8 65.5001 242.9C65.4001 242.9 65.3001 242.9 65.3001 242.9Z" fill="#1F1A54"/>
<path d="M62.5001 243.4C62.3001 243.4 62.2001 243.3 62.2001 243.1L61.2001 240C61.1001 239.8 61.2001 239.6 61.4001 239.5C61.6001 239.4 61.8001 239.5 61.9001 239.7L62.9001 242.8C63.0001 243 62.9001 243.2 62.7001 243.3C62.6001 243.4 62.6001 243.4 62.5001 243.4Z" fill="#1F1A54"/>
<path d="M59.8001 243.7C59.6001 243.7 59.5001 243.6 59.4001 243.4L58.4001 240.3C58.3001 240.1 58.4001 239.9 58.6001 239.8C58.8001 239.7 59.0001 239.8 59.1001 240L60.1001 243.1C60.2001 243.3 60.1001 243.5 59.9001 243.6C59.9001 243.7 59.8001 243.7 59.8001 243.7Z" fill="#1F1A54"/>
<path d="M109.1 171.6L97.8002 197.8L84.9002 238.9L71.2002 235.2C71.2002 235.2 85.7002 177.9 89.6002 156.3C92.8002 138.5 96.9002 123 96.9002 123C96.9002 123 100.5 125.6 109.5 124.9C120.8 124 123.7 121.9 123.7 121.9C129.5 128.2 133.6 141 130.7 156.1C129.5 162.5 133.3 188.2 133.3 188.2L158 219.9L147.2 229.8L118.2 195.3L109.1 171.6Z" fill="#1F1A54"/>
<path d="M130.1 179.6C129.5 179.6 129 180.1 129 180.7C129 181.3 129.5 181.8 130.1 181.8C130.7 181.8 131.2 181.3 131.2 180.7C131.2 180.1 130.7 179.6 130.1 179.6Z" fill="white"/>
<path d="M130.4 159.3C130.3 159.3 130.2 159.2 130 159.2C129.4 159.2 128.9 159.7 128.9 160.3C128.9 160.9 129.4 161.4 130 161.4C130.1 161.4 130.3 161.4 130.4 161.3C130.4 160.6 130.4 159.9 130.4 159.3Z" fill="white"/>
<path d="M130.1 200C129.5 200 129 200.5 129 201.1C129 201.7 129.5 202.2 130.1 202.2C130.7 202.2 131.2 201.7 131.2 201.1C131.2 200.5 130.7 200 130.1 200Z" fill="white"/>
<path d="M119.9 181.9C120.5 181.9 121 181.4 121 180.8C121 180.2 120.5 179.7 119.9 179.7C119.3 179.7 118.8 180.2 118.8 180.8C118.7 181.4 119.2 181.9 119.9 181.9Z" fill="white"/>
<path d="M119.9 159.2C119.3 159.2 118.8 159.7 118.8 160.3C118.8 160.9 119.3 161.4 119.9 161.4C120.5 161.4 121 160.9 121 160.3C121 159.7 120.5 159.2 119.9 159.2Z" fill="white"/>
<path d="M125 151.2C125.608 151.2 126.1 150.708 126.1 150.1C126.1 149.492 125.608 149 125 149C124.393 149 123.9 149.492 123.9 150.1C123.9 150.708 124.393 151.2 125 151.2Z" fill="white"/>
<path d="M125 169.4C124.4 169.4 123.9 169.9 123.9 170.5C123.9 171.1 124.4 171.6 125 171.6C125.6 171.6 126.1 171.1 126.1 170.5C126.1 169.9 125.6 169.4 125 169.4Z" fill="white"/>
<path d="M131.1 139.5C130.9 139.1 130.5 138.7 130 138.7C129.4 138.7 128.9 139.2 128.9 139.8C128.9 140.4 129.4 140.9 130 140.9C130.6 140.9 131.1 140.4 131.1 139.8C131.2 139.8 131.2 139.7 131.1 139.5Z" fill="white"/>
<path d="M125 130.8C125.608 130.8 126.1 130.308 126.1 129.7C126.1 129.093 125.608 128.6 125 128.6C124.393 128.6 123.9 129.093 123.9 129.7C123.9 130.308 124.393 130.8 125 130.8Z" fill="white"/>
<path d="M119.9 138.8C119.3 138.8 118.8 139.3 118.8 139.9C118.8 140.5 119.3 141 119.9 141C120.5 141 121 140.5 121 139.9C121 139.3 120.5 138.8 119.9 138.8Z" fill="white"/>
<path d="M104.6 169.4C104 169.4 103.5 169.9 103.5 170.5C103.5 171.1 104 171.6 104.6 171.6C105.2 171.6 105.7 171.1 105.7 170.5C105.7 169.9 105.2 169.4 104.6 169.4Z" fill="white"/>
<path d="M99.5001 159.2C98.9001 159.2 98.4001 159.7 98.4001 160.3C98.4001 160.9 98.9001 161.4 99.5001 161.4C100.1 161.4 100.6 160.9 100.6 160.3C100.6 159.7 100.1 159.2 99.5001 159.2Z" fill="white"/>
<path d="M99.5001 138.8C98.9001 138.8 98.4001 139.3 98.4001 139.9C98.4001 140.5 98.9001 141 99.5001 141C100.1 141 100.6 140.5 100.6 139.9C100.6 139.3 100.1 138.8 99.5001 138.8Z" fill="white"/>
<path d="M104.6 149C104 149 103.5 149.5 103.5 150.1C103.5 150.7 104 151.2 104.6 151.2C105.2 151.2 105.7 150.7 105.7 150.1C105.7 149.5 105.2 149 104.6 149Z" fill="white"/>
<path d="M99.4999 181.9C100.1 181.9 100.6 181.4 100.6 180.8C100.6 180.2 100.1 179.7 99.4999 179.7C98.8999 179.7 98.3999 180.2 98.3999 180.8C98.2999 181.4 98.7999 181.9 99.4999 181.9Z" fill="white"/>
<path d="M125 192.1C125.6 192.1 126.1 191.6 126.1 191C126.1 190.4 125.6 189.9 125 189.9C124.4 189.9 123.9 190.4 123.9 191C123.8 191.6 124.3 192.1 125 192.1Z" fill="white"/>
<path d="M109.7 141.1C110.3 141.1 110.8 140.6 110.8 140C110.8 139.4 110.3 138.9 109.7 138.9C109.1 138.9 108.6 139.4 108.6 140C108.5 140.6 109 141.1 109.7 141.1Z" fill="white"/>
<path d="M114.8 171.7C115.4 171.7 115.9 171.2 115.9 170.6C115.9 170 115.4 169.5 114.8 169.5C114.2 169.5 113.7 170 113.7 170.6C113.6 171.2 114.1 171.7 114.8 171.7Z" fill="white"/>
<path d="M110.8 160.3C110.8 159.7 110.3 159.2 109.7 159.2C109.1 159.2 108.6 159.7 108.6 160.3C108.6 160.9 109.1 161.4 109.7 161.4C110.3 161.4 110.8 161 110.8 160.3Z" fill="white"/>
<path d="M114.8 151.3C115.4 151.3 115.9 150.8 115.9 150.2C115.9 149.6 115.4 149.1 114.8 149.1C114.2 149.1 113.7 149.6 113.7 150.2C113.7 150.8 114.1 151.3 114.8 151.3Z" fill="white"/>
<path d="M114.8 128.6C114.2 128.6 113.7 129.1 113.7 129.7C113.7 130.3 114.2 130.8 114.8 130.8C115.4 130.8 115.9 130.3 115.9 129.7C115.9 129.1 115.4 128.6 114.8 128.6Z" fill="white"/>
<path d="M104.6 128.6C104 128.6 103.5 129.1 103.5 129.7C103.5 130.3 104 130.8 104.6 130.8C105.2 130.8 105.7 130.3 105.7 129.7C105.7 129.1 105.2 128.6 104.6 128.6Z" fill="white"/>
<path d="M84.1 210.2C83.5 210.2 83 210.7 83 211.3C83 211.9 83.5 212.4 84.1 212.4C84.7 212.4 85.2 211.9 85.2 211.3C85.3 210.7 84.8 210.2 84.1 210.2Z" fill="white"/>
<path d="M80.2 201.1C80.2 200.8 80 200.5 79.8 200.3C79.6 200.9 79.5 201.6 79.3 202.2C79.8 202.1 80.2 201.7 80.2 201.1Z" fill="white"/>
<path d="M89.3 200C88.7 200 88.2 200.5 88.2 201.1C88.2 201.7 88.7 202.2 89.3 202.2C89.9 202.2 90.4 201.7 90.4 201.1C90.4 200.5 89.9 200 89.3 200Z" fill="white"/>
<path d="M84.1 189.8C83.5 189.8 83 190.3 83 190.9C83 191.5 83.5 192 84.1 192C84.7 192 85.2 191.5 85.2 190.9C85.3 190.3 84.8 189.8 84.1 189.8Z" fill="white"/>
<path d="M79.0001 220.4C78.4001 220.4 77.9001 220.9 77.9001 221.5C77.9001 222.1 78.4001 222.6 79.0001 222.6C79.6001 222.6 80.1001 222.1 80.1001 221.5C80.1001 220.9 79.7001 220.4 79.0001 220.4Z" fill="white"/>
<path d="M93.2 211.3C93.2 211.5 93.3 211.7 93.4 211.9L93.9 210.3C93.5 210.5 93.2 210.9 93.2 211.3Z" fill="white"/>
<path d="M89.3 179.6C88.7 179.6 88.2 180.1 88.2 180.7C88.2 181.3 88.7 181.8 89.3 181.8C89.9 181.8 90.4 181.3 90.4 180.7C90.4 180.1 89.9 179.6 89.3 179.6Z" fill="white"/>
<path d="M89.3 220.4C88.7 220.4 88.2 220.9 88.2 221.5C88.2 222.1 88.7 222.6 89.3 222.6C89.7 222.6 90 222.4 90.2 222.1L90.4 221.3C90.3 220.9 89.9 220.4 89.3 220.4Z" fill="white"/>
<path d="M85.3001 231.8C85.3001 231.2 84.8001 230.7 84.2001 230.7C83.6001 230.7 83.1001 231.2 83.1001 231.8C83.1001 232.4 83.6001 232.9 84.2001 232.9C84.8001 232.9 85.3001 232.4 85.3001 231.8Z" fill="white"/>
<path d="M73.9 232.9C74.5 232.9 75 232.4 75 231.8C75 231.2 74.5 230.7 73.9 230.7C73.3 230.7 72.8 231.2 72.8 231.8C72.8 232.4 73.3 232.9 73.9 232.9Z" fill="white"/>
<path d="M134 190.9C134 191.5 134.5 192 135.1 192C135.5 192 135.8 191.8 136 191.5L134.6 189.8C134.3 190.1 134 190.5 134 190.9Z" fill="white"/>
<path d="M136.3 211.3C136.3 210.7 135.8 210.2 135.2 210.2C134.6 210.2 134.1 210.7 134.1 211.3C134.1 211.9 134.6 212.4 135.2 212.4C135.8 212.4 136.3 212 136.3 211.3Z" fill="white"/>
<path d="M94.4 149C93.8 149 93.3 149.5 93.3 150.1C93.3 150.7 93.8 151.2 94.4 151.2C95 151.2 95.5 150.7 95.5 150.1C95.5 149.5 95 149 94.4 149Z" fill="white"/>
<path d="M145.4 210.2C144.8 210.2 144.3 210.7 144.3 211.3C144.3 211.9 144.8 212.4 145.4 212.4C146 212.4 146.5 211.9 146.5 211.3C146.5 210.7 146 210.2 145.4 210.2Z" fill="white"/>
<path d="M141.4 221.6C141.4 221 140.9 220.5 140.3 220.5C140 220.5 139.8 220.6 139.6 220.8L141.1 222.5C141.3 222.2 141.4 221.9 141.4 221.6Z" fill="white"/>
<path d="M141.4 201.1C141.4 200.5 140.9 200 140.3 200C139.7 200 139.2 200.5 139.2 201.1C139.2 201.7 139.7 202.2 140.3 202.2C140.9 202.2 141.4 201.8 141.4 201.1Z" fill="white"/>
<path d="M150.5 222.7C151.1 222.7 151.6 222.2 151.6 221.6C151.6 221 151.1 220.5 150.5 220.5C149.9 220.5 149.4 221 149.4 221.6C149.4 222.2 149.8 222.7 150.5 222.7Z" fill="white"/>
<path d="M89.3 161.5C89.9 161.5 90.4 161 90.4 160.4C90.4 159.8 89.9 159.3 89.3 159.3C89.2 159.3 89.2 159.3 89.1 159.3C89 160 88.8 160.7 88.7 161.4C88.8 161.4 89 161.5 89.3 161.5Z" fill="white"/>
<path d="M94.4 169.4C93.8 169.4 93.3 169.9 93.3 170.5C93.3 171.1 93.8 171.6 94.4 171.6C95 171.6 95.5 171.1 95.5 170.5C95.5 169.9 95 169.4 94.4 169.4Z" fill="white"/>
<path d="M94.4 189.8C93.8 189.8 93.3 190.3 93.3 190.9C93.3 191.5 93.8 192 94.4 192C95 192 95.5 191.5 95.5 190.9C95.5 190.3 95 189.8 94.4 189.8Z" fill="white"/>
<path d="M95.5001 129.7C95.5001 129.5 95.5001 129.4 95.4001 129.2C95.3001 129.6 95.2001 130.1 95.1001 130.6C95.3001 130.4 95.5001 130.1 95.5001 129.7Z" fill="white"/>
<path d="M109.1 172.5C109 172.5 108.9 172.4 108.9 172.3L105.4 161.5L98.6 148C98.5 147.9 98.6 147.7 98.7 147.7C98.8 147.6 99 147.7 99 147.8L105.8 161.3L109.3 172.1C109.4 172.4 109.3 172.5 109.1 172.5C109.2 172.5 109.1 172.5 109.1 172.5Z" fill="#FFD400"/>
<path d="M303.9 177.9H223.8V230.4H303.9V177.9Z" fill="#FFD400"/>
<path d="M303.9 230.8H223.8C223.6 230.8 223.4 230.6 223.4 230.4V177.9C223.4 177.7 223.6 177.5 223.8 177.5H303.9C304.1 177.5 304.3 177.7 304.3 177.9V230.4C304.3 230.6 304.1 230.8 303.9 230.8ZM224.1 230H303.5V178.3H224.1V230Z" fill="#1F1A54"/>
<path d="M273.5 140.7H223.8V178H273.5V140.7Z" fill="#FFD400"/>
<path d="M273.5 178.3H223.8C223.6 178.3 223.4 178.1 223.4 177.9V140.6C223.4 140.4 223.6 140.2 223.8 140.2H273.5C273.7 140.2 273.9 140.4 273.9 140.6V178C273.8 178.2 273.7 178.3 273.5 178.3ZM224.1 177.6H273V141H224.1V177.6Z" fill="#1F1A54"/>
<path d="M294.1 157.3H273.5V177.9H294.1V157.3Z" fill="#FFD400"/>
<path d="M294 178.3H273.4C273.2 178.3 273 178.1 273 177.9V157.3C273 157.1 273.2 156.9 273.4 156.9H294C294.2 156.9 294.4 157.1 294.4 157.3V177.9C294.4 178.1 294.3 178.3 294 178.3ZM273.8 177.5H293.7V157.6H273.8V177.5Z" fill="#1F1A54"/>
<path d="M314.9 230.4H212.8V234.9H314.9V230.4Z" fill="#1F1A54"/>
<path d="M314.9 235.3H212.8C212.5 235.3 212.3 235.1 212.3 234.8V230.3C212.3 230 212.5 229.8 212.8 229.8H314.9C315.2 229.8 315.4 230 315.4 230.3V234.8C315.3 235.1 315.1 235.3 314.9 235.3ZM213.2 234.4H314.4V230.8H213.2V234.4Z" fill="#1F1A54"/>
<path d="M224.8 245.2H216.9V235.3H234L224.8 245.2Z" fill="#1F1A54"/>
<path d="M224.8 245.7H216.9C216.6 245.7 216.4 245.5 216.4 245.2V235.3C216.4 235 216.6 234.8 216.9 234.8H234C234.2 234.8 234.3 234.9 234.4 235.1C234.5 235.3 234.4 235.5 234.3 235.6L225.1 245.5C225 245.6 224.9 245.7 224.8 245.7ZM217.4 244.7H224.6L233 235.7H217.4V244.7Z" fill="#1F1A54"/>
<path d="M220.8 252.9C225.274 252.9 228.9 249.274 228.9 244.8C228.9 240.327 225.274 236.7 220.8 236.7C216.327 236.7 212.7 240.327 212.7 244.8C212.7 249.274 216.327 252.9 220.8 252.9Z" fill="white"/>
<path d="M220.8 253.2C216.1 253.2 212.4 249.4 212.4 244.8C212.4 240.2 216.2 236.4 220.8 236.4C225.4 236.4 229.2 240.2 229.2 244.8C229.2 249.4 225.5 253.2 220.8 253.2ZM220.8 237.1C216.6 237.1 213.1 240.6 213.1 244.8C213.1 249 216.6 252.5 220.8 252.5C225 252.5 228.5 249 228.5 244.8C228.5 240.6 225.1 237.1 220.8 237.1Z" fill="#1F1A54"/>
<path d="M220.8 249.1C218.4 249.1 216.5 247.2 216.5 244.8C216.5 242.4 218.4 240.5 220.8 240.5C223.2 240.5 225.1 242.4 225.1 244.8C225.1 247.2 223.2 249.1 220.8 249.1ZM220.8 241.2C218.8 241.2 217.2 242.8 217.2 244.8C217.2 246.8 218.8 248.4 220.8 248.4C222.8 248.4 224.4 246.8 224.4 244.8C224.4 242.8 222.8 241.2 220.8 241.2Z" fill="#1F1A54"/>
<path d="M218.2 245.1C218 245.1 217.8 244.9 217.8 244.7C217.8 244.1 218 243.5 218.3 243C218.4 242.8 218.6 242.8 218.8 242.9C219 243 219 243.2 218.9 243.4C218.7 243.8 218.5 244.2 218.5 244.7C218.6 245 218.4 245.1 218.2 245.1Z" fill="#1F1A54"/>
<path d="M220.8 247.8C219.7 247.8 218.7 247.2 218.2 246.2C218.1 246 218.2 245.8 218.4 245.7C218.6 245.6 218.8 245.7 218.9 245.9C219.3 246.7 220.3 247.2 221.2 247.1C221.4 247.1 221.6 247.2 221.6 247.4C221.6 247.6 221.5 247.8 221.3 247.8C221.1 247.7 221 247.8 220.8 247.8Z" fill="#1F1A54"/>
<path d="M302.9 245.2H310.7V235.3H293.7L302.9 245.2Z" fill="#1F1A54"/>
<path d="M310.7 245.7H302.8C302.7 245.7 302.6 245.6 302.5 245.6L293.3 235.7C293.2 235.6 293.1 235.4 293.2 235.2C293.3 235 293.4 234.9 293.6 234.9H310.7C311 234.9 311.2 235.1 311.2 235.4V245.3C311.2 245.4 311 245.7 310.7 245.7ZM303.1 244.7H310.3V235.7H294.7L303.1 244.7Z" fill="#1F1A54"/>
<path d="M306.8 252.9C311.274 252.9 314.9 249.274 314.9 244.8C314.9 240.327 311.274 236.7 306.8 236.7C302.327 236.7 298.7 240.327 298.7 244.8C298.7 249.274 302.327 252.9 306.8 252.9Z" fill="white"/>
<path d="M306.8 253.2C302.1 253.2 298.4 249.4 298.4 244.8C298.4 240.2 302.2 236.4 306.8 236.4C311.4 236.4 315.2 240.2 315.2 244.8C315.2 249.4 311.5 253.2 306.8 253.2ZM306.8 237.1C302.6 237.1 299.1 240.6 299.1 244.8C299.1 249 302.6 252.5 306.8 252.5C311 252.5 314.5 249 314.5 244.8C314.5 240.6 311.1 237.1 306.8 237.1Z" fill="#1F1A54"/>
<path d="M306.8 249.1C304.4 249.1 302.5 247.2 302.5 244.8C302.5 242.4 304.4 240.5 306.8 240.5C309.2 240.5 311.1 242.4 311.1 244.8C311.1 247.2 309.2 249.1 306.8 249.1ZM306.8 241.2C304.8 241.2 303.2 242.8 303.2 244.8C303.2 246.8 304.8 248.4 306.8 248.4C308.8 248.4 310.4 246.8 310.4 244.8C310.4 242.8 308.8 241.2 306.8 241.2Z" fill="#1F1A54"/>
<path d="M304.2 245.1C304 245.1 303.8 244.9 303.8 244.7C303.8 244.1 304 243.5 304.3 243C304.4 242.8 304.6 242.8 304.8 242.9C305 243 305 243.2 304.9 243.4C304.7 243.8 304.5 244.2 304.5 244.7C304.6 245 304.4 245.1 304.2 245.1Z" fill="#1F1A54"/>
<path d="M306.8 247.8C305.7 247.8 304.7 247.2 304.2 246.2C304.1 246 304.2 245.8 304.4 245.7C304.6 245.6 304.8 245.7 304.9 245.9C305.3 246.7 306.3 247.2 307.2 247.1C307.4 247.1 307.6 247.2 307.6 247.4C307.6 247.6 307.5 247.8 307.3 247.8C307.1 247.7 307 247.8 306.8 247.8Z" fill="#1F1A54"/>
<path d="M171.1 140.5C170.4 139 168.5 138.6 167.1 139.5L155.3 147.2C153.9 148.1 153.6 150 154.7 151.3C158.1 155.4 162.7 158.5 167.9 160L170.9 160.9L173.3 159.3L173.7 156.2C174.4 150.7 173.5 145.3 171.1 140.5ZM171 155.7L170.8 157.6L170.5 157.8L168.7 157.3C164.4 156.1 160.6 153.7 157.6 150.4C157.2 150 157.3 149.2 157.8 148.9L167.7 142.5C168.2 142.2 168.9 142.4 169.1 142.9C170.9 146.8 171.6 151.3 171 155.7Z" fill="#1F1A54"/>
<path d="M170.9 161.1H170.8L167.8 160.2C162.5 158.7 157.9 155.6 154.4 151.4C153.8 150.7 153.6 149.8 153.7 149C153.8 148.1 154.3 147.3 155.1 146.8L166.9 139.1C167.7 138.6 168.6 138.5 169.5 138.7C170.4 138.9 171.1 139.5 171.5 140.3C174 145.2 174.9 150.7 174.2 156.1L173.8 159.2C173.8 159.3 173.7 159.4 173.6 159.5L171.2 161.1C171.1 161.1 171 161.1 170.9 161.1ZM168.6 139.4C168.1 139.4 167.7 139.5 167.3 139.8L155.5 147.5C154.9 147.9 154.5 148.5 154.4 149.2C154.3 149.9 154.5 150.5 154.9 151C158.3 155.1 162.8 158.1 167.9 159.5L170.8 160.3L172.9 158.9L173.3 155.9C174 150.6 173.1 145.3 170.7 140.5C170.4 139.9 169.9 139.5 169.2 139.3C169 139.4 168.8 139.4 168.6 139.4ZM170.5 158.1H170.4L168.6 157.6C164.3 156.3 160.4 153.9 157.3 150.6C157 150.3 156.9 149.9 157 149.5C157.1 149.1 157.3 148.7 157.6 148.5L167.5 142.1C167.8 141.9 168.2 141.8 168.6 141.9C169 142 169.3 142.3 169.4 142.6C171.2 146.7 171.9 151.2 171.3 155.7L171.1 157.6C171.1 157.7 171 157.8 170.9 157.9L170.6 158.1H170.5ZM168.2 142.6C168.1 142.6 168 142.6 167.9 142.7L158 149.1C157.8 149.2 157.7 149.4 157.7 149.6C157.7 149.8 157.7 149.9 157.8 150.1C160.8 153.3 164.5 155.7 168.7 156.9L170.3 157.4L170.5 155.7C171.1 151.3 170.4 146.9 168.6 143C168.5 142.8 168.4 142.7 168.2 142.7C168.3 142.6 168.3 142.6 168.2 142.6Z" fill="#1F1A54"/>
<path d="M173.57 159.053L170.642 160.971L214.154 227.389L217.081 225.471L173.57 159.053Z" fill="#FFD400"/>
<path d="M214.2 227.7C214.1 227.7 214.1 227.7 214.2 227.7C214 227.7 213.9 227.6 213.9 227.5L170.4 161.1C170.3 160.9 170.3 160.7 170.5 160.6L173.4 158.7C173.5 158.6 173.6 158.6 173.7 158.6C173.8 158.6 173.9 158.7 173.9 158.8L217.4 225.2C217.5 225.4 217.5 225.6 217.3 225.7L214.4 227.6C214.3 227.7 214.2 227.7 214.2 227.7ZM171.2 161L214.3 226.8L216.6 225.3L173.5 159.5L171.2 161Z" fill="#1F1A54"/>
<path d="M167.323 144.244C168.064 143.762 167.982 142.321 167.139 141.024C166.297 139.728 165.013 139.067 164.272 139.548C163.531 140.03 163.613 141.471 164.456 142.768C165.298 144.064 166.582 144.725 167.323 144.244Z" fill="white"/>
<path d="M166.5 144.8C165.4 144.8 164.5 143.5 164.1 142.9C163.4 141.8 163.1 141 163.3 140.3C163.4 139.9 163.7 139.5 164.1 139.2C164.7 138.8 166 138.5 167.5 140.8L167.7 141.1C168.2 141.9 168.7 142.6 168.5 143.3C168.4 143.7 168.1 144.1 167.5 144.5C167.2 144.7 166.8 144.8 166.5 144.8ZM165 139.7C164.8 139.7 164.7 139.7 164.5 139.9C164.2 140.1 164.1 140.3 164 140.5C163.9 141 164.1 141.6 164.7 142.6C165.8 144.3 166.4 144.4 167 144C167.4 143.8 167.6 143.5 167.6 143.3C167.7 142.9 167.3 142.3 166.9 141.6L166.7 141.3C166.4 140.5 165.7 139.7 165 139.7Z" fill="#1F1A54"/>
<path d="M165.023 146.338C165.765 145.86 165.542 144.192 164.525 142.614C163.507 141.036 162.08 140.145 161.337 140.624C160.594 141.103 160.817 142.77 161.835 144.348C162.853 145.926 164.28 146.817 165.023 146.338Z" fill="white"/>
<path d="M164.3 147C164 147 163.6 146.9 163.1 146.6C162.6 146.2 162.1 145.6 161.5 144.6C160.9 143.6 160.5 142.9 160.4 142.3C160.2 141.2 160.6 140.7 161.1 140.4C161.5 140.1 162.2 140 163.1 140.6C163.6 141 164.2 141.6 164.8 142.6L165 143C165.7 144 166.2 144.9 166.1 145.8C166 146.2 165.7 146.6 165.2 146.9C165 146.9 164.7 147 164.3 147ZM161.9 140.8C161.7 140.8 161.6 140.9 161.5 140.9C161.3 141.1 161 141.3 161.1 142C161.2 142.5 161.5 143.2 162.1 144.1C162.5 144.7 163 145.5 163.6 145.9C164.2 146.3 164.5 146.2 164.8 146C165.1 145.8 165.3 145.6 165.3 145.3C165.4 144.8 164.9 144 164.3 143.1L164.1 142.7C163.6 141.9 163.1 141.3 162.6 140.9C162.3 140.9 162.1 140.8 161.9 140.8Z" fill="#1F1A54"/>
<path d="M161.8 144.3C162.9 145.9 163.9 147.2 162.2 148.2C161 149 159.9 147.8 158.8 146.2C157.7 144.6 156.8 142.5 158 141.7C159.6 140.6 160.7 142.7 161.8 144.3Z" fill="white"/>
<path d="M161.4 148.8C160.1 148.8 159.1 147.2 158.5 146.4C156.9 143.8 156.6 142.2 157.8 141.4C158.3 141.1 158.7 141 159.2 141.1C160.3 141.3 161.1 142.6 161.9 143.8L162.4 144.5C163.1 145.5 163.7 146.4 163.5 147.3C163.4 147.8 163.1 148.2 162.5 148.6C162.1 148.7 161.7 148.8 161.4 148.8ZM158.9 141.8C158.7 141.8 158.5 141.9 158.2 142C157.2 142.7 158.3 144.8 159.1 146C160.3 147.9 161.1 148.4 162 147.9C162.4 147.7 162.6 147.4 162.7 147.1C162.8 146.5 162.3 145.8 161.7 144.9L161.2 144.2C160.5 143.2 159.8 142 159 141.8C159 141.8 159 141.8 158.9 141.8Z" fill="#1F1A54"/>
<path d="M159.049 149.505C159.792 149.026 159.617 147.433 158.659 145.948C157.701 144.463 156.323 143.647 155.58 144.126C154.838 144.605 155.012 146.197 155.97 147.682C156.928 149.168 158.306 149.983 159.049 149.505Z" fill="white"/>
<path d="M158.3 150C157.1 150 156.1 148.5 155.7 147.8C155.1 146.9 154.8 146.2 154.7 145.6C154.5 144.6 155 144 155.4 143.7C156.2 143.2 157.4 143.2 159 145.6L159.2 145.9C159.8 146.8 160.3 147.6 160.2 148.4C160.1 148.8 159.8 149.2 159.3 149.6C158.9 150 158.6 150 158.3 150ZM156.3 144.3C156.1 144.3 156 144.3 155.8 144.4C155.4 144.6 155.3 145 155.4 145.5C155.5 146 155.8 146.6 156.3 147.4C157.4 149.1 158.1 149.5 158.8 149.1C159.1 148.9 159.3 148.6 159.4 148.4C159.5 147.9 159.1 147.2 158.5 146.4L158.3 146.1C157.8 145.2 157 144.3 156.3 144.3Z" fill="#1F1A54"/>
<path d="M219.2 230.4H212.8V224.7C212.8 222.9 214.2 221.5 216 221.5C217.8 221.5 219.2 222.9 219.2 224.7V230.4Z" fill="#FFD400"/>
<path d="M219.2 230.8H212.8C212.6 230.8 212.4 230.6 212.4 230.4V224.7C212.4 222.7 214 221.1 216 221.1C218 221.1 219.6 222.7 219.6 224.7V230.4C219.6 230.6 219.4 230.8 219.2 230.8ZM213.1 230H218.8V224.6C218.8 223 217.5 221.8 216 221.8C214.4 221.8 213.2 223.1 213.2 224.6V230H213.1Z" fill="#1F1A54"/>
<path d="M216 225.5C216.497 225.5 216.9 225.097 216.9 224.6C216.9 224.103 216.497 223.7 216 223.7C215.503 223.7 215.1 224.103 215.1 224.6C215.1 225.097 215.503 225.5 216 225.5Z" fill="#1F1A54"/>
<path d="M216 226C215.3 226 214.7 225.4 214.7 224.7C214.7 224 215.3 223.4 216 223.4C216.7 223.4 217.3 224 217.3 224.7C217.3 225.4 216.7 226 216 226ZM216 224.2C215.8 224.2 215.6 224.4 215.6 224.6C215.6 224.8 215.8 225 216 225C216.2 225 216.4 224.8 216.4 224.6C216.4 224.4 216.2 224.2 216 224.2Z" fill="#1F1A54"/>
<path d="M208.2 89.9L206.3 89.5C206.1 89.5 206 89.3 206 89.1C206 88.9 206.2 88.8 206.4 88.8L208.2 89.2C208.4 89.2 208.5 89.4 208.5 89.6C208.6 89.7 208.4 89.9 208.2 89.9Z" fill="#1F1A54"/>
<path d="M208.2 89.8001C208 89.8001 207.9 89.6001 207.9 89.4001C207.9 89.2001 208.1 89.1001 208.3 89.1001C208.5 89.1001 208.6 89.3001 208.6 89.5001C208.6 89.7001 208.4 89.8001 208.2 89.8001Z" fill="#1F1A54"/>
<path d="M221.2 92.6999L217.9 91.9999C217.7 91.9999 217.6 91.7999 217.6 91.5999C217.6 91.5999 217.6 91.5999 217.6 91.4999C217.6 91.2999 217.8 91.1999 218 91.1999L221.2 91.8999C221.4 91.8999 221.5 92.0999 221.5 92.2999C221.5 92.2999 221.5 92.2999 221.5 92.3999C221.6 92.5999 221.4 92.6999 221.2 92.6999ZM224.4 92.1999C224.3 92.1999 224.1 92.0999 224.1 91.9999V91.8999C224.1 91.6999 224.2 91.5999 224.3 91.5999L227.4 90.3999C227.6 90.2999 227.8 90.3999 227.9 90.5999V90.6999C227.9 90.8999 227.8 90.9999 227.7 91.0999L224.6 92.2999C224.5 92.1999 224.4 92.1999 224.4 92.1999ZM214.7 91.2999L211.4 90.5999C211.2 90.5999 211.1 90.3999 211.1 90.1999C211.1 89.9999 211.3 89.8999 211.5 89.8999L214.7 90.5999C214.9 90.5999 215 90.7999 215 90.9999C215 90.9999 215 90.9999 215 91.0999C215.1 91.1999 214.9 91.2999 214.7 91.2999Z" fill="#1F1A54"/>
<path d="M232.3 91.1C232.1 91.1 231.9 90.9 231.9 90.7V89.4L230.7 89.9C230.5 90 230.3 89.9 230.2 89.7C230.1 89.5 230.2 89.3 230.4 89.2L232.1 88.5C232.2 88.5 232.3 88.5 232.4 88.5C232.5 88.5 232.6 88.7 232.6 88.8V90.6C232.7 90.9 232.5 91.1 232.3 91.1Z" fill="#1F1A54"/>
<path d="M232 90.7C232 90.5 232.2 90.3 232.4 90.3C232.6 90.3 232.8 90.5 232.8 90.7C232.8 90.9 232.6 91.1 232.4 91.1C232.1 91.1 232 90.9 232 90.7Z" fill="#1F1A54"/>
<path d="M232.3 108.5C232.1 108.5 231.9 108.3 231.9 108.1C231.9 107.9 232.1 107.7 232.3 107.7C232.5 107.7 232.7 107.9 232.7 108.1C232.7 108.3 232.5 108.5 232.3 108.5ZM232.3 105C232.1 105 231.9 104.8 231.9 104.6V101.1C231.9 100.9 232.1 100.7 232.3 100.7C232.5 100.7 232.7 100.9 232.7 101.1V104.6C232.7 104.8 232.5 105 232.3 105ZM232.3 98C232.1 98 231.9 97.8 231.9 97.6V94.1C231.9 93.9 232.1 93.7 232.3 93.7C232.5 93.7 232.7 93.9 232.7 94.1V97.6C232.7 97.9 232.5 98 232.3 98Z" fill="#1F1A54"/>
<path d="M232.3 110.3C232.2 110.3 232.1 110.3 232.1 110.2C232 110.1 232 110 232 109.9V108.1C232 107.9 232.2 107.7 232.4 107.7C232.6 107.7 232.8 107.9 232.8 108.1V109.5L234.1 109.1C234.3 109 234.5 109.2 234.6 109.4C234.7 109.6 234.5 109.8 234.3 109.9L232.5 110.4C232.4 110.3 232.4 110.3 232.3 110.3Z" fill="#1F1A54"/>
<path d="M233.8 109.6C233.7 109.4 233.9 109.2 234 109.1C234.2 109 234.4 109.2 234.5 109.3C234.5 109.5 234.4 109.7 234.2 109.8H234.1C233.9 109.8 233.8 109.7 233.8 109.6Z" fill="#1F1A54"/>
<path d="M238.3 108.7C238.1 108.7 238 108.6 238 108.4C238 108.2 238.1 108 238.3 107.9L242.5 106.7C242.7 106.7 242.9 106.8 243 107V107.1C243 107.3 242.9 107.4 242.7 107.5L238.5 108.7C238.3 108.7 238.3 108.7 238.3 108.7Z" fill="#1F1A54"/>
<path d="M246.6 106.3C246.4 106.3 246.3 106.2 246.2 106C246.1 105.8 246.3 105.6 246.5 105.5L248.3 105C248.5 104.9 248.7 105.1 248.8 105.3C248.9 105.5 248.7 105.7 248.5 105.8L246.7 106.3H246.6Z" fill="#1F1A54"/>
<path d="M212.4 78.6C212.4 81.9 206.5 88.8 206.5 88.8C206.5 88.8 200.6 81.8 200.6 78.6C200.6 75.4 203.2 72.7 206.5 72.7C209.8 72.7 212.4 75.3 212.4 78.6Z" fill="#1F1A54"/>
<path d="M206.4 89.2C206.3 89.2 206.2 89.2 206.1 89.1C205.9 88.8 200.1 82 200.1 78.6C200.1 75.1 202.9 72.3 206.4 72.3C209.9 72.3 212.7 75.1 212.7 78.6C212.7 82 206.9 88.8 206.7 89.1C206.7 89.1 206.6 89.2 206.4 89.2ZM206.4 73.1C203.3 73.1 200.9 75.6 200.9 78.6C200.9 81.3 205.3 86.8 206.4 88.2C207.6 86.8 211.9 81.3 211.9 78.6C212 75.5 209.5 73.1 206.4 73.1Z" fill="#1F1A54"/>
<path d="M206.4 80.6001C207.505 80.6001 208.4 79.7047 208.4 78.6001C208.4 77.4955 207.505 76.6001 206.4 76.6001C205.296 76.6001 204.4 77.4955 204.4 78.6001C204.4 79.7047 205.296 80.6001 206.4 80.6001Z" fill="white"/>
<path d="M206.4 80.9C205.1 80.9 204.1 79.9 204.1 78.6C204.1 77.3 205.1 76.3 206.4 76.3C207.7 76.3 208.7 77.3 208.7 78.6C208.7 79.9 207.7 80.9 206.4 80.9ZM206.4 77C205.5 77 204.8 77.7 204.8 78.6C204.8 79.5 205.5 80.2 206.4 80.2C207.3 80.2 208 79.5 208 78.6C208 77.7 207.3 77 206.4 77Z" fill="#1F1A54"/>
<path d="M247.7 97.2C247.7 100.5 241.8 107.4 241.8 107.4C241.8 107.4 235.9 100.4 235.9 97.2C235.9 94 238.5 91.3001 241.8 91.3001C245 91.2001 247.7 93.9 247.7 97.2Z" fill="#1F1A54"/>
<path d="M241.8 107.7C241.7 107.7 241.6 107.7 241.5 107.6C241.3 107.3 235.5 100.5 235.5 97.1C235.5 93.6 238.3 90.8 241.8 90.8C245.3 90.8 248.1 93.6 248.1 97.1C248.1 100.5 242.3 107.3 242.1 107.6C242 107.7 241.9 107.7 241.8 107.7ZM241.8 91.6C238.7 91.6 236.3 94.1 236.3 97.1C236.3 99.8 240.7 105.3 241.8 106.7C243 105.3 247.3 99.8 247.3 97.1C247.3 94.1 244.8 91.6 241.8 91.6Z" fill="#1F1A54"/>
<path d="M241.8 99.2002C242.905 99.2002 243.8 98.3048 243.8 97.2002C243.8 96.0956 242.905 95.2002 241.8 95.2002C240.696 95.2002 239.8 96.0956 239.8 97.2002C239.8 98.3048 240.696 99.2002 241.8 99.2002Z" fill="white"/>
<path d="M241.8 99.5001C240.5 99.5001 239.5 98.5001 239.5 97.2001C239.5 95.9001 240.5 94.9001 241.8 94.9001C243.1 94.9001 244.1 95.9001 244.1 97.2001C244.1 98.5001 243.1 99.5001 241.8 99.5001ZM241.8 95.6001C240.9 95.6001 240.2 96.3001 240.2 97.2001C240.2 98.1001 240.9 98.8001 241.8 98.8001C242.7 98.8001 243.4 98.1001 243.4 97.2001C243.4 96.3001 242.6 95.6001 241.8 95.6001Z" fill="#1F1A54"/>
<path d="M271.7 69.9C271.7 73.2 265.8 80.1 265.8 80.1C265.8 80.1 259.9 73.1 259.9 69.9C259.9 66.7 262.5 64 265.8 64C269.1 64 271.7 66.6 271.7 69.9Z" fill="#1F1A54"/>
<path d="M265.8 80.5001C265.7 80.5001 265.6 80.5001 265.5 80.4001C265.3 80.1001 259.5 73.3001 259.5 69.9001C259.5 66.4001 262.3 63.6001 265.8 63.6001C269.3 63.6001 272.1 66.4001 272.1 69.9001C272.1 73.3001 266.3 80.1001 266.1 80.4001C266 80.4001 265.9 80.5001 265.8 80.5001ZM265.8 64.3001C262.7 64.3001 260.3 66.8001 260.3 69.8001C260.3 72.5001 264.7 78.0001 265.8 79.4001C267 78.0001 271.3 72.5001 271.3 69.8001C271.3 66.8001 268.8 64.3001 265.8 64.3001Z" fill="#1F1A54"/>
<path d="M265.8 71.9001C266.905 71.9001 267.8 71.0047 267.8 69.9001C267.8 68.7956 266.905 67.9001 265.8 67.9001C264.695 67.9001 263.8 68.7956 263.8 69.9001C263.8 71.0047 264.695 71.9001 265.8 71.9001Z" fill="white"/>
<path d="M265.8 72.2001C264.5 72.2001 263.5 71.2001 263.5 69.9001C263.5 68.6001 264.5 67.6001 265.8 67.6001C267.1 67.6001 268.1 68.6001 268.1 69.9001C268.1 71.2001 267.1 72.2001 265.8 72.2001ZM265.8 68.3001C264.9 68.3001 264.2 69.0001 264.2 69.9001C264.2 70.8001 264.9 71.5001 265.8 71.5001C266.7 71.5001 267.4 70.8001 267.4 69.9001C267.4 69.0001 266.7 68.3001 265.8 68.3001Z" fill="#1F1A54"/>
<path d="M265.8 111.4H265.7L262.3 110.3C262.2 110.2 262 110.1 262 109.9V109.8C262.1 109.6 262.3 109.5 262.5 109.6L265.6 110.6C265.8 110.5 266.2 110.6 266.2 110.9V111C266.2 111.1 266.1 111.2 266 111.3C265.9 111.3 265.9 111.4 265.8 111.4ZM258.9 109.2H258.8L255.3 108.1C255.1 108 255 107.9 255 107.7V107.6C255.1 107.4 255.3 107.3 255.5 107.4L259 108.5C259.2 108.5 259.3 108.7 259.3 108.9V109C259.2 109.1 259.1 109.2 258.9 109.2ZM265.8 107.5C265.6 107.5 265.4 107.3 265.4 107.1V103.4C265.4 103.2 265.6 103 265.8 103C266 103 266.2 103.2 266.2 103.4V107.1C266.2 107.4 266 107.5 265.8 107.5ZM251.9 106.9H251.8L248.3 105.8C248.2 105.8 248.1 105.7 248.1 105.6C248.1 105.5 248 105.4 248.1 105.3C248.2 105.1 248.4 105 248.6 105.1L252.1 106.2C252.2 106.2 252.4 106.4 252.4 106.5V106.6C252.2 106.8 252 106.9 251.9 106.9ZM265.8 100.2C265.6 100.2 265.4 100 265.4 99.8001V96.1001C265.4 95.9001 265.6 95.7001 265.8 95.7001C266 95.7001 266.2 95.9001 266.2 96.1001V99.8001C266.2 100 266 100.2 265.8 100.2ZM265.8 92.8001C265.6 92.8001 265.4 92.6001 265.4 92.4001V88.7001C265.4 88.5001 265.6 88.3001 265.8 88.3001C266 88.3001 266.2 88.5001 266.2 88.7001V92.4001C266.2 92.6001 266 92.8001 265.8 92.8001ZM265.8 85.4001C265.6 85.4001 265.4 85.2001 265.4 85.0001V81.3001C265.4 81.1001 265.6 80.9001 265.8 80.9001C266 80.9001 266.2 81.1001 266.2 81.3001V85.0001C266.2 85.3001 266 85.4001 265.8 85.4001Z" fill="#1F1A54"/>
<path d="M254.2 158.6L251.3 157.7L248.6 158.6L246.3 157.7L244.6 158.6V140.7H254.2V158.6Z" fill="white"/>
<path d="M254.2 159H254.1L251.4 158.1L248.8 159C248.7 159 248.6 159 248.5 159L246.3 158.1L244.8 158.9C244.7 159 244.5 159 244.4 158.9C244.3 158.8 244.2 158.7 244.2 158.6V140.6C244.2 140.4 244.4 140.2 244.6 140.2H254.2C254.4 140.2 254.6 140.4 254.6 140.6V158.6C254.6 158.7 254.5 158.8 254.4 158.9C254.4 159 254.3 159 254.2 159ZM246.3 157.3H246.4L248.6 158.2L251.2 157.3C251.3 157.3 251.4 157.3 251.4 157.3L253.8 158.1V141H245V158L246.2 157.4C246.2 157.3 246.2 157.3 246.3 157.3Z" fill="#1F1A54"/>
<path d="M273.5 198.3L269.8 196.4L265.2 198.3L260.6 196.4L257.2 198.3L254.2 196.4V178H273.5V198.3Z" fill="white"/>
<path d="M265.2 198.7H265.1L260.7 196.9L257.4 198.7C257.3 198.8 257.1 198.8 257 198.7L254 196.9C253.9 196.8 253.8 196.7 253.8 196.6V178C253.8 177.8 254 177.6 254.2 177.6H273.4C273.6 177.6 273.8 177.8 273.8 178V198.2C273.8 198.3 273.7 198.4 273.6 198.5C273.5 198.6 273.4 198.6 273.2 198.5L269.7 196.7L265.2 198.5C265.3 198.6 265.2 198.7 265.2 198.7ZM260.6 196.1H260.7L265.1 197.9L269.6 196.1C269.7 196.1 269.8 196.1 269.9 196.1L273 197.7V178.4H254.5V196.2L257.1 197.8L260.4 196.1C260.5 196.1 260.6 196.1 260.6 196.1Z" fill="#1F1A54"/>
<path d="M298.7 220.4V211.1L290.7 206.4L282.6 211.1V220.4L290.7 225.1L298.7 220.4Z" fill="#FFD400"/>
<path d="M290.7 225.5C290.6 225.5 290.6 225.5 290.5 225.5L282.4 220.8C282.3 220.7 282.2 220.6 282.2 220.5V211.2C282.2 211.1 282.3 210.9 282.4 210.9L290.5 206.2C290.6 206.1 290.8 206.1 290.9 206.2L299 210.9C299.1 211 299.2 211.1 299.2 211.2V220.5C299.2 220.6 299.1 220.8 299 220.8L290.9 225.5C290.8 225.5 290.7 225.5 290.7 225.5ZM282.9 220.2L290.6 224.7L298.3 220.2V211.3L290.6 206.8L282.9 211.3V220.2Z" fill="#1F1A54"/>
<path d="M269.4 170.1V163.1L263.3 159.6L257.2 163.1V170.1L263.3 173.6L269.4 170.1Z" fill="#FFD400"/>
<path d="M263.3 174C263.2 174 263.2 174 263.1 174L257 170.5C256.9 170.4 256.8 170.3 256.8 170.2V163.2C256.8 163.1 256.9 162.9 257 162.9L263.1 159.4C263.2 159.3 263.4 159.3 263.5 159.4L269.6 162.9C269.7 163 269.8 163.1 269.8 163.2V170.2C269.8 170.3 269.7 170.5 269.6 170.5L263.5 174C263.4 174 263.4 174 263.3 174ZM257.6 169.9L263.3 173.2L269 169.9V163.3L263.3 160L257.6 163.3V169.9Z" fill="#1F1A54"/>
</svg>
