<svg width="64" height="64" viewBox="0 0 64 64" fill="none" xmlns="http://www.w3.org/2000/svg">
<path d="M10.0003 16.9354C8.76254 17.6498 8 18.9705 8 20.3997V43.9603C8 45.3895 8.76254 46.7102 10.0003 47.4246L30.4099 59.2055C31.6476 59.9199 33.1723 59.9198 34.4099 59.2052L54.8103 47.4248C56.0477 46.7102 56.81 45.3898 56.81 43.9608V20.3992C56.81 18.9702 56.0477 17.6498 54.8103 16.9352L34.4099 5.15484C33.1723 4.44022 31.6476 4.44009 30.4099 5.15449L10.0003 16.9354Z" fill="url(#paint0_linear)"/>
<path opacity="0.25" fill-rule="evenodd" clip-rule="evenodd" d="M38.4827 7.5068L37.482 6.92896L36.4547 7.52026L36.4487 7.52398C36.1529 7.70558 35.9098 7.96135 35.7435 8.26592C35.578 8.56889 35.4942 8.90968 35.5003 9.25478V29.7353C35.4942 30.0804 35.578 30.4212 35.7435 30.7242C35.9098 31.0288 36.1528 31.2847 36.4486 31.4663L54.2507 41.7233L54.2552 41.7259C54.5575 41.8959 54.8985 41.9852 55.2453 41.9852C55.5921 41.9852 55.9331 41.8959 56.2354 41.7259L56.81 41.3935V40.2383L55.7452 40.8542L55.7429 40.8556C55.5908 40.9405 55.4195 40.9852 55.2453 40.9852C55.071 40.9852 54.8995 40.9405 54.7474 40.8554L54.7454 40.8542L36.9666 30.6107C36.8219 30.5205 36.7029 30.3945 36.6211 30.2449C36.5384 30.0934 36.4967 29.9228 36.5002 29.7502L36.0003 29.7401H36.5003L36.5004 9.25006L36.5002 9.2399C36.4967 9.06729 36.5384 8.89676 36.6211 8.74524C36.7029 8.59559 36.8219 8.46962 36.9665 8.37949L38.4827 7.5068ZM40.0535 8.41388L54.8103 16.9353C56.0477 17.6499 56.81 18.9703 56.81 20.3993V38.21L56.29 38.5101C55.9605 38.7015 55.5861 38.8023 55.205 38.8023C54.8239 38.8023 54.4495 38.7015 54.12 38.5101L39.21 29.9001C38.8781 29.7096 38.603 29.4341 38.4131 29.1018C38.2233 28.7696 38.1255 28.3927 38.13 28.0101V10.7701C38.1301 10.391 38.23 10.0186 38.4195 9.6904C38.6091 9.36215 38.8817 9.08958 39.21 8.90005L40.0535 8.41388ZM26.23 56.7928V46.4004C26.2302 46.0491 26.1379 45.7039 25.9624 45.3996C25.7868 45.0954 25.5342 44.8427 25.23 44.667L14.1202 38.2471L14.1135 38.2433C13.8098 38.074 13.4678 37.9851 13.12 37.9851C12.7722 37.9851 12.4302 38.074 12.1265 38.2433L8 40.6257V41.7803L12.6135 39.1167L12.37 38.68L12.62 39.1131L12.6165 39.1151C12.7706 39.0298 12.9438 38.9851 13.12 38.9851C13.2961 38.9851 13.4694 39.0298 13.6235 39.1151L13.6198 39.113L13.87 38.68L13.6265 39.1167L24.73 45.5331C24.8821 45.6209 25.0084 45.7472 25.0962 45.8994C25.184 46.0515 25.2301 46.2244 25.23 46.4V56.2156L26.23 56.7928ZM24.36 55.7134V47.5801C24.3606 47.1995 24.2612 46.8255 24.0716 46.4955C23.8821 46.1655 23.6091 45.8912 23.28 45.7001L13.87 40.2701C13.6423 40.1374 13.3835 40.0675 13.12 40.0675C12.8565 40.0675 12.5977 40.1374 12.37 40.2701L8 42.7917V43.9604C8 45.3896 8.76254 46.7102 10.0003 47.4247L24.36 55.7134ZM17.7127 18.8403C17.5473 18.8308 17.4055 18.9572 17.3961 19.1226C17.3866 19.288 17.513 19.4298 17.6784 19.4393C17.968 19.4559 18.2149 19.5448 18.3983 19.7038C18.4552 19.7684 18.5098 19.8528 18.5602 19.9553C18.6333 20.1041 18.813 20.1654 18.9617 20.0923C19.1105 20.0193 19.1718 19.8395 19.0987 19.6908C19.0277 19.5462 18.9398 19.4063 18.8308 19.2874C18.8241 19.2802 18.8171 19.2733 18.8098 19.2667C18.502 18.9911 18.111 18.8631 17.7127 18.8403ZM16.0502 20.0198C16.1764 19.9125 16.1918 19.7232 16.0845 19.597C15.9771 19.4707 15.7878 19.4554 15.6616 19.5627C15.3687 19.8117 15.1255 20.1218 14.9894 20.4796C14.9848 20.4917 14.981 20.5041 14.9779 20.5166C14.9507 20.6309 14.9278 20.7598 14.9105 20.8942C14.8893 21.0585 15.0054 21.2089 15.1697 21.2301C15.334 21.2513 15.4844 21.1352 15.5056 20.9709C15.5196 20.8619 15.5374 20.7612 15.5571 20.6752C15.6515 20.4375 15.8228 20.2131 16.0502 20.0198ZM19.3634 20.5297C19.3331 20.3668 19.1764 20.2594 19.0136 20.2897C18.8507 20.3201 18.7432 20.4767 18.7736 20.6396C18.7976 20.7683 18.8136 20.893 18.8227 21.0053C18.831 21.1072 18.8307 21.209 18.8222 21.3097C18.8082 21.4748 18.9307 21.62 19.0958 21.634C19.2609 21.648 19.4061 21.5255 19.42 21.3604C19.4313 21.2268 19.4317 21.0919 19.4208 20.9569C19.41 20.8243 19.3913 20.679 19.3634 20.5297ZM28.5595 21.4511C28.6925 21.3523 28.7202 21.1644 28.6214 21.0314C28.5226 20.8984 28.3347 20.8707 28.2017 20.9695C27.6935 21.347 27.1072 21.7356 26.4668 22.1033C26.3231 22.1858 26.2735 22.3691 26.356 22.5128C26.4385 22.6565 26.6218 22.7061 26.7655 22.6236C27.4266 22.244 28.0327 21.8425 28.5595 21.4511ZM15.4771 21.6193C15.4684 21.4538 15.3272 21.3268 15.1618 21.3355C14.9963 21.3442 14.8692 21.4854 14.8779 21.6508C14.8852 21.7892 14.9014 21.9269 14.9308 22.0521C14.9562 22.1605 14.9879 22.267 15.0255 22.3712C15.0814 22.5257 15.251 22.6064 15.4058 22.5527C15.2699 22.6442 15.2323 22.8282 15.3222 22.9658C15.3823 23.0577 15.4478 23.1464 15.5184 23.2312C15.7383 23.5042 16.0724 23.8227 16.671 24.0832C16.8229 24.1493 16.9997 24.0798 17.0658 23.9278C17.1319 23.7759 17.0623 23.5991 16.9104 23.533C16.4107 23.3156 16.1517 23.0613 15.9844 22.8531L15.9809 22.849C15.9246 22.7814 15.8723 22.7108 15.8244 22.6375C15.7476 22.52 15.6025 22.4741 15.4756 22.5179C15.5869 22.4429 15.6375 22.2993 15.5898 22.1673C15.5601 22.085 15.5351 22.0007 15.5149 21.915C15.4961 21.8346 15.4831 21.7342 15.4771 21.6193ZM19.2212 22.1396C19.288 21.988 19.2193 21.8109 19.0677 21.7441C18.9161 21.6773 18.739 21.746 18.6722 21.8976C18.6314 21.9901 18.5829 22.0796 18.5268 22.1651C18.5228 22.1712 18.519 22.1774 18.5155 22.1838C18.2502 22.6609 17.9637 23.1249 17.6572 23.5745C17.5638 23.7114 17.5992 23.8981 17.736 23.9914C17.8729 24.0847 18.0596 24.0494 18.1529 23.9125C18.4677 23.4508 18.762 22.9744 19.0347 22.4847C19.1064 22.3743 19.1686 22.2589 19.2212 22.1396ZM22.8068 24.2718C22.9674 24.2312 23.0647 24.0681 23.0241 23.9075C22.9835 23.7468 22.8204 23.6495 22.6597 23.6901C21.9862 23.8604 21.3076 23.9677 20.6405 23.9914C20.1655 24.0076 19.7391 24.0058 19.356 23.9896C19.1905 23.9826 19.0506 24.1111 19.0436 24.2766C19.0365 24.4422 19.1651 24.5821 19.3306 24.5891C19.7306 24.606 20.1728 24.6077 20.6614 24.5911C21.3779 24.5656 22.0991 24.4507 22.8068 24.2718ZM16.0072 26.5163C16.1237 26.3986 16.1227 26.2086 16.0049 26.0921C15.8872 25.9755 15.6972 25.9766 15.5807 26.0943C15.2015 26.4776 14.8047 26.8441 14.3913 27.1928C14.0361 27.4344 13.6734 27.6633 13.304 27.8792C13.161 27.9628 13.1128 28.1465 13.1964 28.2896C13.2801 28.4326 13.4638 28.4808 13.6068 28.3972C13.9925 28.1717 14.3711 27.9326 14.7418 27.68C14.7468 27.6767 14.7516 27.6731 14.7564 27.6695L14.7661 27.6616C15.1976 27.2983 15.6117 26.9161 16.0072 26.5163ZM11.2023 29.5883C11.3555 29.5252 11.4285 29.3498 11.3653 29.1966C11.3022 29.0435 11.1268 28.9704 10.9737 29.0336C10.1712 29.3643 9.34686 29.6391 8.50654 29.8562C8.34612 29.8977 8.24967 30.0613 8.29111 30.2217C8.33256 30.3822 8.4962 30.4786 8.65662 30.4372C9.52369 30.2132 10.3743 29.9295 11.2023 29.5883Z" fill="white"/>
<path d="M31.4879 17.6871C32.0616 17.9284 32.7222 17.6589 32.9635 17.0852C33.2048 16.5115 32.9353 15.8508 32.3616 15.6095L30.9806 15.0287C30.4069 14.7874 29.7463 15.0569 29.505 15.6306C29.2637 16.2043 29.5332 16.865 30.1069 17.1063L31.4879 17.6871Z" fill="#E8EFF7"/>
<path d="M31.5911 16.8024C31.8569 17.3652 32.5286 17.6059 33.0914 17.3401C33.6541 17.0743 33.8949 16.4027 33.6291 15.8399L32.9893 14.4852C32.7236 13.9225 32.0519 13.6817 31.4891 13.9475C30.9263 14.2133 30.6856 14.8849 30.9514 15.4477L31.5911 16.8024Z" fill="white"/>
<path d="M34.0363 21.3074L36.7151 19.64C37.977 18.8545 38.3633 17.1948 37.5778 15.9329C36.7923 14.671 35.1326 14.2848 33.8707 15.0702L31.1919 16.7377C29.93 17.5231 29.5438 19.1828 30.3292 20.4447C31.1147 21.7066 32.7744 22.0929 34.0363 21.3074Z" fill="url(#paint1_linear)"/>
<path d="M36.1937 15C36.1937 15 35.4085 13.14 37 13" stroke="#000A64" stroke-width="0.7" stroke-miterlimit="10" stroke-linecap="round"/>
<path d="M34.8936 15.3996C34.8936 15.3996 33.4972 13.9414 34.9344 13.2436" stroke="#000A64" stroke-width="0.7" stroke-miterlimit="10" stroke-linecap="round"/>
<path opacity="0.5" d="M18.1796 49.1199C20.687 49.1199 22.7196 48.7841 22.7196 48.3699C22.7196 47.9557 20.687 47.6199 18.1796 47.6199C15.6723 47.6199 13.6396 47.9557 13.6396 48.3699C13.6396 48.7841 15.6723 49.1199 18.1796 49.1199Z" fill="#875AFF"/>
<path opacity="0.5" d="M36.7802 49C39.2876 49 41.3202 48.6642 41.3202 48.25C41.3202 47.8358 39.2876 47.5 36.7802 47.5C34.2729 47.5 32.2402 47.8358 32.2402 48.25C32.2402 48.6642 34.2729 49 36.7802 49Z" fill="#875AFF"/>
<path opacity="0.5" d="M27.4804 49.1199C29.9878 49.1199 32.0204 48.7841 32.0204 48.3699C32.0204 47.9557 29.9878 47.6199 27.4804 47.6199C24.9731 47.6199 22.9404 47.9557 22.9404 48.3699C22.9404 48.7841 24.9731 49.1199 27.4804 49.1199Z" fill="#875AFF"/>
<path d="M39.2284 40.8788C39.0496 40.57 38.7198 40.3799 38.363 40.3799H34.9061C34.5492 40.3799 34.2194 40.57 34.0407 40.8788L32.3092 43.8695C32.13 44.1791 32.1298 44.5608 32.3087 44.8706L34.0408 47.87C34.2195 48.1793 34.5496 48.3699 34.9068 48.3699H38.3623C38.7195 48.3699 39.0496 48.1793 39.2282 47.87L40.9604 44.8706C41.1393 44.5608 41.1391 44.1791 40.9598 43.8695L39.2284 40.8788Z" fill="url(#paint2_linear)"/>
<path d="M30.1093 40.8788C29.9305 40.57 29.6007 40.3799 29.2438 40.3799H25.7869C25.4301 40.3799 25.1003 40.57 24.9215 40.8788L23.1901 43.8695C23.0109 44.1791 23.0107 44.5608 23.1896 44.8706L24.9217 47.87C25.1003 48.1793 25.4304 48.3699 25.7877 48.3699H29.2431C29.6003 48.3699 29.9304 48.1793 30.1091 47.87L31.8412 44.8706C32.0201 44.5608 32.0199 44.1791 31.8407 43.8695L30.1093 40.8788Z" fill="url(#paint3_linear)"/>
<path d="M21.0087 40.8788C20.8299 40.57 20.5001 40.3799 20.1433 40.3799H16.6864C16.3295 40.3799 15.9997 40.57 15.8209 40.8788L14.0895 43.8695C13.9103 44.1791 13.9101 44.5608 14.089 44.8706L15.8211 47.87C15.9998 48.1793 16.3299 48.3699 16.6871 48.3699H20.1425C20.4998 48.3699 20.8298 48.1793 21.0085 47.87L22.7406 44.8706C22.9195 44.5608 22.9193 44.1791 22.7401 43.8695L21.0087 40.8788Z" fill="url(#paint4_linear)"/>
<path d="M30.1093 32.8989C29.9305 32.59 29.6007 32.3999 29.2438 32.3999H25.7869C25.4301 32.3999 25.1003 32.59 24.9215 32.8989L23.1901 35.8895C23.0109 36.1991 23.0107 36.5808 23.1896 36.8906L24.9217 39.89C25.1003 40.1993 25.4304 40.3899 25.7877 40.3899H29.2431C29.6003 40.3899 29.9304 40.1993 30.1091 39.89L31.8412 36.8906C32.0201 36.5808 32.0199 36.1991 31.8407 35.8895L30.1093 32.8989Z" fill="url(#paint5_linear)"/>
<path d="M39.2089 32.8989C39.0301 32.59 38.7003 32.3999 38.3434 32.3999H34.8866C34.5297 32.3999 34.1999 32.59 34.0211 32.8989L32.2897 35.8895C32.1105 36.1991 32.1103 36.5808 32.2892 36.8906L34.0213 39.89C34.2 40.1993 34.5301 40.3899 34.8873 40.3899H38.3427C38.6999 40.3899 39.03 40.1993 39.2087 39.89L40.9408 36.8906C41.1197 36.5808 41.1195 36.1991 40.9403 35.8895L39.2089 32.8989Z" fill="url(#paint6_linear)"/>
<path d="M39.2089 24.9189C39.0301 24.6101 38.7003 24.4199 38.3434 24.4199H34.8866C34.5297 24.4199 34.1999 24.6101 34.0211 24.9189L32.2897 27.9095C32.1105 28.2191 32.1103 28.6009 32.2892 28.9106L34.0213 31.91C34.2 32.2194 34.5301 32.4099 34.8873 32.4099H38.3427C38.6999 32.4099 39.03 32.2194 39.2087 31.91L40.9408 28.9106C41.1197 28.6009 41.1195 28.2191 40.9403 27.9095L39.2089 24.9189Z" fill="url(#paint7_linear)"/>
<path opacity="0.5" fill-rule="evenodd" clip-rule="evenodd" d="M35.6298 41.0141C36.1081 41.2904 36.2718 41.902 35.9955 42.3803L34.8055 44.4403C34.5293 44.9185 33.9176 45.0822 33.4394 44.806C32.9612 44.5297 32.7975 43.9181 33.0737 43.4398L34.2637 41.3798C34.54 40.9016 35.1516 40.7379 35.6298 41.0141Z" fill="white"/>
<path opacity="0.5" fill-rule="evenodd" clip-rule="evenodd" d="M34.1299 41.8799C34.1299 41.3276 34.5776 40.8799 35.1299 40.8799H36.6799C37.2322 40.8799 37.6799 41.3276 37.6799 41.8799C37.6799 42.4322 37.2322 42.8799 36.6799 42.8799H35.1299C34.5776 42.8799 34.1299 42.4322 34.1299 41.8799Z" fill="white"/>
<path opacity="0.5" fill-rule="evenodd" clip-rule="evenodd" d="M35.6298 33.0242C36.1081 33.3004 36.2718 33.912 35.9955 34.3903L34.8055 36.4503C34.5293 36.9285 33.9176 37.0922 33.4394 36.816C32.9612 36.5397 32.7975 35.9281 33.0737 35.4499L34.2637 33.3899C34.54 32.9116 35.1516 32.7479 35.6298 33.0242Z" fill="white"/>
<path opacity="0.5" fill-rule="evenodd" clip-rule="evenodd" d="M34.1299 33.8899C34.1299 33.3376 34.5776 32.8899 35.1299 32.8899H36.6799C37.2322 32.8899 37.6799 33.3376 37.6799 33.8899C37.6799 34.4422 37.2322 34.8899 36.6799 34.8899H35.1299C34.5776 34.8899 34.1299 34.4422 34.1299 33.8899Z" fill="white"/>
<path opacity="0.5" fill-rule="evenodd" clip-rule="evenodd" d="M35.6699 25.0342C36.1481 25.3104 36.3118 25.922 36.0356 26.4003L34.8456 28.4603C34.5693 28.9385 33.9577 29.1022 33.4795 28.826C33.0012 28.5497 32.8375 27.9381 33.1138 27.4599L34.3038 25.3999C34.58 24.9216 35.1916 24.7579 35.6699 25.0342Z" fill="white"/>
<path opacity="0.5" fill-rule="evenodd" clip-rule="evenodd" d="M34.1699 25.8999C34.1699 25.3476 34.6176 24.8999 35.1699 24.8999H36.7099C37.2622 24.8999 37.7099 25.3476 37.7099 25.8999C37.7099 26.4522 37.2622 26.8999 36.7099 26.8999H35.1699C34.6176 26.8999 34.1699 26.4522 34.1699 25.8999Z" fill="white"/>
<path opacity="0.5" fill-rule="evenodd" clip-rule="evenodd" d="M26.4003 41.0141C26.8786 41.2904 27.0423 41.902 26.766 42.3803L25.576 44.4403C25.2998 44.9185 24.6881 45.0822 24.2099 44.806C23.7317 44.5297 23.568 43.9181 23.8442 43.4398L25.0342 41.3798C25.3105 40.9016 25.9221 40.7379 26.4003 41.0141Z" fill="white"/>
<path opacity="0.5" fill-rule="evenodd" clip-rule="evenodd" d="M24.9004 41.8799C24.9004 41.3276 25.3481 40.8799 25.9004 40.8799H27.4404C27.9927 40.8799 28.4404 41.3276 28.4404 41.8799C28.4404 42.4322 27.9927 42.8799 27.4404 42.8799H25.9004C25.3481 42.8799 24.9004 42.4322 24.9004 41.8799Z" fill="white"/>
<path opacity="0.5" fill-rule="evenodd" clip-rule="evenodd" d="M26.4003 33.0242C26.8786 33.3004 27.0423 33.912 26.766 34.3903L25.576 36.4503C25.2998 36.9285 24.6881 37.0922 24.2099 36.816C23.7317 36.5397 23.568 35.9281 23.8442 35.4499L25.0342 33.3899C25.3105 32.9116 25.9221 32.7479 26.4003 33.0242Z" fill="white"/>
<path opacity="0.5" d="M27.4404 33.8899H25.9004" stroke="white" stroke-width="2" stroke-linecap="round" stroke-linejoin="round"/>
<path opacity="0.5" fill-rule="evenodd" clip-rule="evenodd" d="M17.1699 41.0141C17.6481 41.2904 17.8118 41.902 17.5356 42.3803L16.3456 44.4403C16.0693 44.9185 15.4577 45.0822 14.9795 44.806C14.5012 44.5297 14.3375 43.9181 14.6138 43.4398L15.8038 41.3798C16.08 40.9016 16.6916 40.7379 17.1699 41.0141Z" fill="white"/>
<path opacity="0.5" fill-rule="evenodd" clip-rule="evenodd" d="M15.6699 41.8799C15.6699 41.3276 16.1176 40.8799 16.6699 40.8799H18.2199C18.7722 40.8799 19.2199 41.3276 19.2199 41.8799C19.2199 42.4322 18.7722 42.8799 18.2199 42.8799H16.6699C16.1176 42.8799 15.6699 42.4322 15.6699 41.8799Z" fill="white"/>
<path opacity="0.5" d="M46.25 49C48.7573 49 50.79 48.6642 50.79 48.25C50.79 47.8358 48.7573 47.5 46.25 47.5C43.7426 47.5 41.71 47.8358 41.71 48.25C41.71 48.6642 43.7426 49 46.25 49Z" fill="#875AFF"/>
<path d="M48.3085 40.8788C48.1297 40.57 47.7999 40.3799 47.4431 40.3799H43.9862C43.6293 40.3799 43.2995 40.57 43.1207 40.8788L41.3893 43.8695C41.2101 44.1791 41.2099 44.5608 41.3888 44.8706L43.1209 47.87C43.2996 48.1793 43.6297 48.3699 43.9869 48.3699H47.4423C47.7996 48.3699 48.1297 48.1793 48.3083 47.87L50.0404 44.8706C50.2193 44.5608 50.2191 44.1791 50.0399 43.8695L48.3085 40.8788Z" fill="url(#paint8_linear)"/>
<path opacity="0.5" fill-rule="evenodd" clip-rule="evenodd" d="M44.6762 41.0123C45.1555 41.2868 45.3214 41.8979 45.0469 42.3771L43.8669 44.4371C43.5924 44.9163 42.9814 45.0823 42.5021 44.8078C42.0229 44.5333 41.857 43.9222 42.1315 43.443L43.3115 41.383C43.586 40.9038 44.197 40.7378 44.6762 41.0123Z" fill="white"/>
<path opacity="0.5" fill-rule="evenodd" clip-rule="evenodd" d="M43.1787 41.8801C43.1787 41.3278 43.6264 40.8801 44.1787 40.8801H45.7287C46.281 40.8801 46.7287 41.3278 46.7287 41.8801C46.7287 42.4324 46.281 42.8801 45.7287 42.8801H44.1787C43.6264 42.8801 43.1787 42.4324 43.1787 41.8801Z" fill="white"/>
<path d="M48.3085 32.8989C48.1297 32.59 47.7999 32.3999 47.4431 32.3999H43.9862C43.6293 32.3999 43.2995 32.59 43.1207 32.8989L41.3893 35.8895C41.2101 36.1991 41.2099 36.5808 41.3888 36.8906L43.1209 39.89C43.2996 40.1993 43.6297 40.3899 43.9869 40.3899H47.4423C47.7996 40.3899 48.1297 40.1993 48.3083 39.89L50.0404 36.8906C50.2193 36.5808 50.2191 36.1991 50.0399 35.8895L48.3085 32.8989Z" fill="url(#paint9_linear)"/>
<path opacity="0.5" fill-rule="evenodd" clip-rule="evenodd" d="M44.6762 33.0323C45.1555 33.3069 45.3214 33.9179 45.0469 34.3971L43.8669 36.4571C43.5924 36.9363 42.9814 37.1023 42.5021 36.8278C42.0229 36.5533 41.857 35.9423 42.1315 35.463L43.3115 33.403C43.586 32.9238 44.197 32.7578 44.6762 33.0323Z" fill="white"/>
<path opacity="0.5" fill-rule="evenodd" clip-rule="evenodd" d="M43.1787 33.9001C43.1787 33.3479 43.6264 32.9001 44.1787 32.9001H45.7287C46.281 32.9001 46.7287 33.3479 46.7287 33.9001C46.7287 34.4524 46.281 34.9001 45.7287 34.9001H44.1787C43.6264 34.9001 43.1787 34.4524 43.1787 33.9001Z" fill="white"/>
<path d="M48.2089 24.9289C48.0301 24.6201 47.7003 24.4299 47.3434 24.4299H43.8866C43.5297 24.4299 43.1999 24.6201 43.0211 24.9289L41.2897 27.9195C41.1105 28.2291 41.1103 28.6109 41.2892 28.9207L43.0213 31.92C43.2 32.2294 43.5301 32.4199 43.8873 32.4199H47.3427C47.6999 32.4199 48.03 32.2294 48.2087 31.92L49.9408 28.9207C50.1197 28.6109 50.1195 28.2291 49.9403 27.9195L48.2089 24.9289Z" fill="url(#paint10_linear)"/>
<path opacity="0.5" fill-rule="evenodd" clip-rule="evenodd" d="M44.5766 25.0624C45.0559 25.3369 45.2218 25.9479 44.9473 26.4271L43.7673 28.4871C43.4928 28.9664 42.8818 29.1323 42.4025 28.8578C41.9233 28.5833 41.7573 27.9723 42.0319 27.4931L43.2119 25.4331C43.4864 24.9538 44.0974 24.7879 44.5766 25.0624Z" fill="white"/>
<path opacity="0.5" fill-rule="evenodd" clip-rule="evenodd" d="M43.0791 25.9302C43.0791 25.3779 43.5268 24.9302 44.0791 24.9302H45.6291C46.1814 24.9302 46.6291 25.3779 46.6291 25.9302C46.6291 26.4825 46.1814 26.9302 45.6291 26.9302H44.0791C43.5268 26.9302 43.0791 26.4825 43.0791 25.9302Z" fill="white"/>
<path d="M48.2089 16.9489C48.0301 16.6401 47.7003 16.45 47.3434 16.45H43.8866C43.5297 16.45 43.1999 16.6401 43.0211 16.9489L41.2897 19.9395C41.1105 20.2491 41.1103 20.6309 41.2892 20.9407L43.0213 23.94C43.2 24.2494 43.5301 24.4399 43.8873 24.4399H47.3427C47.6999 24.4399 48.03 24.2494 48.2087 23.94L49.9408 20.9407C50.1197 20.6309 50.1195 20.2491 49.9403 19.9395L48.2089 16.9489Z" fill="url(#paint11_linear)"/>
<path opacity="0.5" fill-rule="evenodd" clip-rule="evenodd" d="M44.5766 17.0824C45.0559 17.3569 45.2218 17.9679 44.9473 18.4472L43.7673 20.5072C43.4928 20.9864 42.8818 21.1524 42.4025 20.8778C41.9233 20.6033 41.7573 19.9923 42.0319 19.5131L43.2119 17.4531C43.4864 16.9738 44.0974 16.8079 44.5766 17.0824Z" fill="white"/>
<path opacity="0.5" fill-rule="evenodd" clip-rule="evenodd" d="M43.0791 17.9502C43.0791 17.3979 43.5268 16.9502 44.0791 16.9502H45.6291C46.1814 16.9502 46.6291 17.3979 46.6291 17.9502C46.6291 18.5025 46.1814 18.9502 45.6291 18.9502H44.0791C43.5268 18.9502 43.0791 18.5025 43.0791 17.9502Z" fill="white"/>
<path fill-rule="evenodd" clip-rule="evenodd" d="M32.6904 21.7157C31.9713 21.3504 31.3617 20.7942 30.9316 20.1033C30.4844 19.3849 30.2535 18.5567 30.2608 17.7171C29.8023 18.5438 29.7937 19.5878 30.3287 20.4473C30.8527 21.2891 31.7659 21.7413 32.6904 21.7157ZM31.4976 16.5496C31.474 17.5233 31.7362 18.4827 32.2518 19.3091C32.7468 20.1024 33.4545 20.7399 34.2934 21.1496L35.9703 20.1058C35.076 19.7583 34.3169 19.1299 33.8086 18.3133C33.2882 17.4773 33.0607 16.4927 33.1607 15.5144L31.4976 16.5496Z" fill="#000A64"/>
<path opacity="0.25" d="M18.0604 34.35L18.4204 35.08L19.0804 35.48C19.0908 35.4862 19.0993 35.495 19.1053 35.5055C19.1112 35.516 19.1144 35.5279 19.1144 35.54C19.1144 35.5521 19.1112 35.564 19.1053 35.5745C19.0993 35.585 19.0908 35.5938 19.0804 35.6L18.4204 36L18.0604 36.73C18.0539 36.7383 18.0455 36.745 18.036 36.7497C18.0264 36.7543 18.016 36.7567 18.0054 36.7567C17.9948 36.7567 17.9844 36.7543 17.9748 36.7497C17.9653 36.745 17.957 36.7383 17.9504 36.73L17.5904 36L16.9304 35.6C16.9219 35.5925 16.9151 35.5833 16.9104 35.5729C16.9057 35.5626 16.9033 35.5513 16.9033 35.54C16.9033 35.5286 16.9057 35.5174 16.9104 35.5071C16.9151 35.4967 16.9219 35.4875 16.9304 35.48L17.5904 35.08L17.9504 34.35C17.9304 34.3 17.9904 34.3 18.0604 34.35Z" fill="url(#paint12_linear)"/>
<path opacity="0.25" d="M21.7501 11.96L22.1201 12.69L22.7901 13.09C22.8005 13.0962 22.809 13.105 22.815 13.1155C22.8209 13.1261 22.8241 13.1379 22.8241 13.15C22.8241 13.1621 22.8209 13.174 22.815 13.1845C22.809 13.195 22.8005 13.2038 22.7901 13.21L22.1201 13.61L21.7501 14.35C21.7501 14.4 21.6701 14.4 21.6401 14.35L21.2801 13.61L20.6101 13.21C20.5998 13.2038 20.5912 13.195 20.5852 13.1845C20.5793 13.174 20.5762 13.1621 20.5762 13.15C20.5762 13.1379 20.5793 13.1261 20.5852 13.1155C20.5912 13.105 20.5998 13.0962 20.6101 13.09L21.2801 12.69L21.6401 11.96C21.6401 11.96 21.7301 11.9 21.7501 11.96Z" fill="url(#paint13_linear)"/>
<path opacity="0.25" d="M42.4597 22.34L42.8297 23.08L43.4997 23.49C43.5104 23.4947 43.5195 23.5023 43.5259 23.5121C43.5323 23.5219 43.5357 23.5333 43.5357 23.545C43.5357 23.5567 43.5323 23.5681 43.5259 23.5779C43.5195 23.5876 43.5104 23.5953 43.4997 23.6L42.8297 24.01L42.4597 24.75C42.4597 24.8 42.3797 24.8 42.3497 24.75L41.9897 24.01L41.3197 23.6C41.3113 23.5934 41.3046 23.5851 41.3 23.5756C41.2954 23.566 41.293 23.5556 41.293 23.545C41.293 23.5344 41.2954 23.5239 41.3 23.5144C41.3046 23.5049 41.3113 23.4965 41.3197 23.49L41.9897 23.08L42.3497 22.34C42.3797 22.29 42.4397 22.29 42.4597 22.34Z" fill="url(#paint14_linear)"/>
<path d="M40.0601 24.0999L40.6101 25.1999L41.6101 25.7999C41.627 25.8081 41.6413 25.8209 41.6513 25.8368C41.6612 25.8527 41.6665 25.8711 41.6665 25.8899C41.6665 25.9087 41.6612 25.9271 41.6513 25.943C41.6413 25.9589 41.627 25.9717 41.6101 25.9799L40.6101 26.5799L40.0601 27.7599C40.0526 27.7746 40.0411 27.7869 40.027 27.7955C40.0129 27.8041 39.9966 27.8087 39.9801 27.8087C39.9636 27.8087 39.9474 27.8041 39.9333 27.7955C39.9192 27.7869 39.9077 27.7746 39.9001 27.7599L39.3601 26.6599L38.3601 26.0599C38.3432 26.0517 38.329 26.0389 38.319 26.023C38.309 26.0071 38.3037 25.9887 38.3037 25.9699C38.3037 25.9511 38.309 25.9327 38.319 25.9168C38.329 25.9009 38.3432 25.8881 38.3601 25.8799L39.3601 25.2799L39.9001 24.1799C39.8925 24.1591 39.8928 24.1363 39.9009 24.1157C39.9091 24.0951 39.9245 24.0782 39.9443 24.0683C39.9641 24.0584 39.9869 24.0562 40.0083 24.062C40.0296 24.0678 40.0481 24.0813 40.0601 24.0999Z" fill="url(#paint15_linear)"/>
<defs>
<linearGradient id="paint0_linear" x1="32.4" y1="60.14" x2="32.4" y2="11.33" gradientUnits="userSpaceOnUse">
<stop stop-color="#F19AFF"/>
<stop offset="1" stop-color="#FF6374"/>
</linearGradient>
<linearGradient id="paint1_linear" x1="35.3757" y1="20.4737" x2="32.5243" y2="15.8927" gradientUnits="userSpaceOnUse">
<stop stop-color="#FFB500"/>
<stop offset="0.96" stop-color="#FFD271"/>
</linearGradient>
<linearGradient id="paint2_linear" x1="36.6395" y1="39.8499" x2="36.6395" y2="49.0699" gradientUnits="userSpaceOnUse">
<stop offset="0.11" stop-color="#FFE492"/>
<stop offset="0.88" stop-color="#FFB500"/>
</linearGradient>
<linearGradient id="paint3_linear" x1="27.5204" y1="39.8499" x2="27.5204" y2="49.0699" gradientUnits="userSpaceOnUse">
<stop offset="0.11" stop-color="#FFE492"/>
<stop offset="0.88" stop-color="#FFB500"/>
</linearGradient>
<linearGradient id="paint4_linear" x1="18.4198" y1="39.8499" x2="18.4198" y2="49.0699" gradientUnits="userSpaceOnUse">
<stop offset="0.11" stop-color="#FFE492"/>
<stop offset="0.88" stop-color="#FFB500"/>
</linearGradient>
<linearGradient id="paint5_linear" x1="27.5204" y1="31.8699" x2="27.5204" y2="41.0899" gradientUnits="userSpaceOnUse">
<stop offset="0.11" stop-color="#FFE492"/>
<stop offset="0.88" stop-color="#FFB500"/>
</linearGradient>
<linearGradient id="paint6_linear" x1="36.62" y1="31.8699" x2="36.62" y2="41.0899" gradientUnits="userSpaceOnUse">
<stop offset="0.11" stop-color="#FFE492"/>
<stop offset="0.88" stop-color="#FFB500"/>
</linearGradient>
<linearGradient id="paint7_linear" x1="36.62" y1="23.8899" x2="36.62" y2="33.1099" gradientUnits="userSpaceOnUse">
<stop offset="0.11" stop-color="#FFE492"/>
<stop offset="0.88" stop-color="#FFB500"/>
</linearGradient>
<linearGradient id="paint8_linear" x1="45.7196" y1="39.8499" x2="45.7196" y2="49.0699" gradientUnits="userSpaceOnUse">
<stop offset="0.11" stop-color="#FFE492"/>
<stop offset="0.88" stop-color="#FFB500"/>
</linearGradient>
<linearGradient id="paint9_linear" x1="45.7196" y1="31.8699" x2="45.7196" y2="41.0899" gradientUnits="userSpaceOnUse">
<stop offset="0.11" stop-color="#FFE492"/>
<stop offset="0.88" stop-color="#FFB500"/>
</linearGradient>
<linearGradient id="paint10_linear" x1="45.62" y1="23.8999" x2="45.62" y2="33.1199" gradientUnits="userSpaceOnUse">
<stop offset="0.11" stop-color="#FFE492"/>
<stop offset="0.88" stop-color="#FFB500"/>
</linearGradient>
<linearGradient id="paint11_linear" x1="45.62" y1="15.92" x2="45.62" y2="25.1399" gradientUnits="userSpaceOnUse">
<stop offset="0.11" stop-color="#FFE492"/>
<stop offset="0.88" stop-color="#FFB500"/>
</linearGradient>
<linearGradient id="paint12_linear" x1="16.8204" y1="35.56" x2="19.0904" y2="35.56" gradientUnits="userSpaceOnUse">
<stop stop-color="white"/>
<stop offset="1" stop-color="#E7EFF7"/>
</linearGradient>
<linearGradient id="paint13_linear" x1="55.396" y1="32.2538" x2="60.5661" y2="32.2538" gradientUnits="userSpaceOnUse">
<stop stop-color="white"/>
<stop offset="1" stop-color="#E7EFF7"/>
</linearGradient>
<linearGradient id="paint14_linear" x1="122.479" y1="68.6726" x2="127.638" y2="68.6726" gradientUnits="userSpaceOnUse">
<stop stop-color="white"/>
<stop offset="1" stop-color="#E7EFF7"/>
</linearGradient>
<linearGradient id="paint15_linear" x1="149.815" y1="102.918" x2="161.349" y2="102.918" gradientUnits="userSpaceOnUse">
<stop stop-color="white"/>
<stop offset="1" stop-color="#E7EFF7"/>
</linearGradient>
</defs>
</svg>
