<svg width="140" height="140" viewBox="0 0 140 140" fill="none" xmlns="http://www.w3.org/2000/svg">
<g clip-path="url(#clip0)">
<path d="M140 69.9666C140.004 57.6677 136.767 45.5848 130.614 34.9355C124.461 24.2863 115.61 15.4469 104.953 9.30806C94.3153 3.19349 82.257 -0.0164977 69.9874 6.3761e-05C57.7177 0.0166252 45.6681 3.25915 35.0472 9.40242C24.3907 15.5423 15.5404 24.3819 9.38764 35.0309C3.23487 45.68 -0.00305115 57.7623 2.15742e-06 70.061C-0.000313546 82.3592 3.23876 94.4404 9.39125 105.089C15.5437 115.738 24.3926 124.578 35.0472 130.72C45.6916 136.854 57.7615 140.083 70.0472 140.083C82.3328 140.083 94.4027 136.854 105.047 130.72C115.699 124.559 124.539 115.699 130.675 105.033C136.811 94.3669 140.028 82.2718 140 69.9666Z" fill="#F2F4F6"/>
<path d="M69.9537 106.304C90.3627 106.304 106.907 104.669 106.907 102.652C106.907 100.635 90.3627 99 69.9537 99C49.5447 99 33 100.635 33 102.652C33 104.669 49.5447 106.304 69.9537 106.304Z" fill="#9DAFED"/>
<path d="M81.6999 102.124L51.272 49.4216L50.2723 42.4429L56.0433 46.6669L86.4711 99.3695C87.1909 100.616 86.8229 102.34 85.4597 103.127C84.1446 103.735 82.4197 103.371 81.6999 102.124Z" fill="#1F1A54" stroke="#1F1A54" stroke-width="0.8" stroke-miterlimit="10" stroke-linecap="round" stroke-linejoin="round"/>
<path d="M79.9521 90.4397L84.9907 99.1668" stroke="white" stroke-width="0.5" stroke-miterlimit="10" stroke-linecap="round" stroke-linejoin="round"/>
<path d="M75.6333 82.9592L79.036 88.8528" stroke="white" stroke-width="0.5" stroke-miterlimit="10" stroke-linecap="round" stroke-linejoin="round"/>
<path d="M55.5444 48.1641L74.4555 80.919" stroke="white" stroke-width="0.5" stroke-miterlimit="10" stroke-linecap="round" stroke-linejoin="round"/>
<circle cx="59" cy="58" r="23.6" fill="#FFD400" stroke="#1F1A54" stroke-width="0.8"/>
<circle cx="59" cy="58" r="19.4" fill="white" stroke="#1F1A54" stroke-width="0.8"/>
<path d="M64.6667 74.0327C66.5782 73.357 68.3328 72.3493 69.8611 71.0787C71.5412 69.6819 72.9478 67.9676 73.9889 66.0278C75.2721 63.6369 76 60.9034 76 58C76 48.6112 68.3888 41 59 41C54.8702 41 51.0843 42.4726 48.1389 44.9213C44.388 48.0397 42 52.741 42 58C42 61.1579 42.861 64.1146 44.3611 66.6483" stroke="#1F1A54" stroke-width="0.8" stroke-linecap="round" stroke-linejoin="round"/>
<path d="M59 75.0002C55.5053 75.0002 52.2568 73.9456 49.5555 72.1375" stroke="#1F1A54" stroke-width="0.8" stroke-linecap="round" stroke-linejoin="round"/>
<path d="M50.4972 48.5284V48.5284C52.1711 49.3002 52.1323 51.4361 51.1585 53.0011C50.5607 53.962 50.0103 55.1845 49.7418 56.6651C49.5311 57.8265 49.6606 58.9349 49.9569 59.9296C50.4049 61.4334 49.0563 63.707 47.5008 63.5009V63.5009C46.1871 63.3268 44.4298 62.3315 44.8409 57.0001C44.8769 56.5342 44.9293 56.0352 45.0001 55.5008" stroke="#1F1A54" stroke-width="0.8" stroke-linecap="round"/>
<path d="M45.5008 53.5001C45.5008 53.5001 45.9988 49.0001 49 48.5" stroke="#1F1A54" stroke-width="0.8" stroke-linecap="round"/>
</g>
<defs>
<clipPath id="clip0">
<rect width="140" height="140" fill="white"/>
</clipPath>
</defs>
</svg>
