<svg width="64" height="64" viewBox="0 0 64 64" fill="none" xmlns="http://www.w3.org/2000/svg">
<path d="M10.3001 16.9354C9.06234 17.6498 8.2998 18.9705 8.2998 20.3997V43.9603C8.2998 45.3895 9.06235 46.7102 10.3001 47.4246L30.7097 59.2055C31.9474 59.9199 33.4721 59.9198 34.7097 59.2052L55.1101 47.4248C56.3475 46.7102 57.1098 45.3898 57.1098 43.9608V20.3992C57.1098 18.9702 56.3475 17.6498 55.1101 16.9352L34.7097 5.15484C33.4721 4.44022 31.9474 4.44009 30.7097 5.15449L10.3001 16.9354Z" fill="url(#paint0_linear)"/>
<path opacity="0.25" fill-rule="evenodd" clip-rule="evenodd" d="M21.0488 10.7386L21.1336 10.7899L21.4936 11.5099C21.4991 11.5182 21.5065 11.525 21.5152 11.5296C21.524 11.5343 21.5337 11.5368 21.5436 11.5368C21.5535 11.5368 21.5632 11.5343 21.572 11.5296C21.5807 11.525 21.5881 11.5182 21.5936 11.5099L21.9536 10.7299L22.6136 10.3299C22.6219 10.3234 22.6286 10.315 22.6333 10.3055C22.6379 10.296 22.6403 10.2855 22.6403 10.2749C22.6403 10.2643 22.6379 10.2539 22.6333 10.2444C22.6286 10.2348 22.6219 10.2265 22.6136 10.2199L22.2886 10.0229L21.0488 10.7386ZM57.1231 35.1799L49.438 32.0702L49.0291 33.0806L57.1231 36.3557V35.1799ZM57.1231 41.7606L48.7305 38.3647L48.3217 39.3751L57.1231 42.9364V41.7606ZM55.5558 47.136L45.7625 43.1732L45.3536 44.1837L54.3982 47.8434L55.1234 47.4247C55.2748 47.3372 55.4192 47.2407 55.5558 47.136ZM49.2872 50.7948L41.7325 47.7379L41.3237 48.7484L48.0899 51.4862L49.2872 50.7948Z" fill="white"/>
<path d="M50.4219 20.9328L50.0494 20.352C48.6597 18.1858 45.7771 17.5562 43.6109 18.9458L37.4244 22.9144C35.2581 24.3041 34.6286 27.1867 36.0182 29.3529L36.3908 29.9337C37.7804 32.0999 40.663 32.7295 42.8293 31.3398L49.0158 27.3712C51.182 25.9816 51.8116 23.099 50.4219 20.9328Z" fill="#E8EFF7"/>
<path d="M40.6293 14.8506L39.9641 14.6672C37.483 13.9833 34.9173 15.4403 34.2334 17.9214L32.2803 25.0072C31.5964 27.4883 33.0534 30.054 35.5345 30.7379L36.1997 30.9213C38.6808 31.6052 41.2466 30.1482 41.9305 27.6671L43.8835 20.5813C44.5674 18.1002 43.1105 15.5345 40.6293 14.8506Z" fill="white"/>
<path d="M43.9653 26.8369L30.4405 21.3643C24.471 18.9488 17.6737 21.8299 15.2583 27.7994L15.037 28.3463C12.6215 34.3158 15.5026 41.1131 21.4721 43.5286L34.9968 49.0012C40.9663 51.4166 47.7636 48.5355 50.1791 42.5661L50.4004 42.0191C52.8158 36.0497 49.9347 29.2523 43.9653 26.8369Z" fill="url(#paint1_linear)"/>
<path d="M48.4477 30.0587C49.1415 33.9941 49.6854 43.4535 40.8045 49.7663C44.8635 49.2593 48.5349 46.6275 50.1781 42.5664L50.3994 42.0195C52.0894 37.843 51.1867 33.2614 48.4477 30.0587Z" fill="#000A64"/>
<path d="M33.503 48.3974C35.707 46.7483 45.1311 38.8404 42.1925 26.13C42.1925 26.13 41.1484 25.7086 39.8094 25.156L34.1626 22.8711C34.7141 24.9253 37.5759 37.7515 25.3604 45.1026L33.503 48.3974Z" fill="#000A64"/>
<path fill-rule="evenodd" clip-rule="evenodd" d="M24.5533 30.0783C25.2102 29.8731 25.9184 29.9058 26.5537 30.1705C27.1889 30.4351 27.7107 30.915 28.0276 31.5259C28.1294 31.722 28.0529 31.9634 27.8568 32.0652C27.6607 32.1669 27.4192 32.0904 27.3175 31.8943C27.0871 31.4502 26.7078 31.1013 26.246 30.9089C25.7842 30.7165 25.2694 30.6928 24.7918 30.8419C24.5809 30.9078 24.3566 30.7902 24.2908 30.5793C24.2249 30.3685 24.3425 30.1441 24.5533 30.0783Z" fill="#000A64"/>
<path fill-rule="evenodd" clip-rule="evenodd" d="M18.2062 27.3674C18.8626 27.1672 19.5683 27.202 20.2017 27.4659C20.8352 27.7299 21.3568 28.2064 21.6768 28.8135C21.7798 29.0089 21.7049 29.2509 21.5095 29.3539C21.314 29.4569 21.0721 29.382 20.9691 29.1865C20.7359 28.7441 20.3557 28.3968 19.894 28.2044C19.4324 28.012 18.9181 27.9866 18.4397 28.1326C18.2284 28.1971 18.0048 28.078 17.9404 27.8667C17.8759 27.6554 17.9949 27.4319 18.2062 27.3674Z" fill="#000A64"/>
<path d="M22.3861 36.1404C22.844 35.009 22.551 33.8231 21.7319 33.4916C20.9128 33.1602 19.8776 33.8087 19.4198 34.9401C18.962 36.0716 19.2549 37.2575 20.074 37.5889C20.8931 37.9204 21.9283 37.2719 22.3861 36.1404Z" fill="#000A64"/>
<path d="M29.5556 35.746C29.829 35.0702 29.2082 34.1815 28.1689 33.761C27.1296 33.3404 26.0654 33.5474 25.792 34.2232C25.5185 34.8989 26.1394 35.7877 27.1787 36.2082C28.2179 36.6287 29.2821 36.4218 29.5556 35.746Z" fill="url(#paint2_linear)"/>
<path d="M18.3026 31.2385C18.5719 30.573 18.1345 29.7681 17.3256 29.4408C16.5167 29.1135 15.6427 29.3877 15.3734 30.0532C15.1041 30.7188 15.5415 31.5236 16.3504 31.8509C17.1593 32.1783 18.0333 31.9041 18.3026 31.2385Z" fill="url(#paint3_linear)"/>
<path fill-rule="evenodd" clip-rule="evenodd" d="M24.7933 21.6019C24.7933 21.6021 24.7932 21.6023 24.3426 21.51L24.7932 21.6023C24.7423 21.8512 24.4992 22.0116 24.2503 21.9606C24.0015 21.9097 23.8411 21.6668 23.8919 21.418C23.8919 21.4179 23.8919 21.4178 23.892 21.4177M23.892 21.4177L23.8923 21.4161L23.8942 21.4065C23.8959 21.3974 23.8986 21.3831 23.902 21.3641C23.9089 21.3259 23.9187 21.2685 23.9298 21.1947C23.9521 21.047 23.9795 20.8346 23.9993 20.5805C24.0392 20.0685 24.0465 19.4047 23.9278 18.7638C23.8083 18.1186 23.5699 17.5434 23.1573 17.1528C22.7599 16.7766 22.1439 16.5176 21.1441 16.6081C20.891 16.631 20.6674 16.4445 20.6445 16.1915C20.6216 15.9384 20.8081 15.7148 21.0611 15.6919C22.2713 15.5824 23.1653 15.8934 23.7898 16.4847C24.3991 17.0616 24.6944 17.8514 24.8324 18.5962C24.9712 19.3453 24.9598 20.0965 24.9165 20.652C24.8948 20.9316 24.8645 21.1662 24.8395 21.3319C24.827 21.4148 24.8158 21.4808 24.8075 21.5268C24.8034 21.5498 24.8 21.5678 24.7975 21.5805L24.7946 21.5956L24.7937 21.6L24.7934 21.6014L24.7933 21.6019" fill="#000A64"/>
<path fill-rule="evenodd" clip-rule="evenodd" d="M28.4314 15.729C28.5646 15.5126 28.8479 15.4452 29.0643 15.5783C30.0277 16.1712 30.5011 16.9924 30.6454 17.88C30.7861 18.7458 30.6107 19.6479 30.3411 20.4386C30.0697 21.2343 29.6898 21.9545 29.3815 22.4718C29.2266 22.7316 29.0882 22.943 28.9878 23.0902C28.9376 23.1639 28.8969 23.2217 28.8682 23.2616C28.8539 23.2816 28.8426 23.2971 28.8346 23.3079L28.8253 23.3206L28.8226 23.3242L28.8217 23.3254L28.8214 23.3258C28.8213 23.3259 28.8212 23.3261 28.4532 23.0501L28.8212 23.3261C28.6688 23.5293 28.3804 23.5705 28.1772 23.4181C27.974 23.2657 27.9328 22.9775 28.085 22.7743C28.0851 22.7742 28.0851 22.7741 28.0852 22.7741M28.0852 22.7741L28.0865 22.7723L28.093 22.7634C28.0991 22.7552 28.1084 22.7424 28.1207 22.7252C28.1454 22.6909 28.1819 22.6392 28.2276 22.5721C28.3191 22.4378 28.4473 22.2423 28.5912 22.0008C28.8803 21.5157 29.2267 20.8558 29.4703 20.1416C29.7156 19.4223 29.844 18.6843 29.7373 18.0276C29.6341 17.3928 29.3087 16.8089 28.5821 16.3618C28.3657 16.2287 28.2983 15.9454 28.4314 15.729" fill="#000A64"/>
<path opacity="0.25" d="M32.7827 52.49C36.9359 52.49 40.3027 51.9348 40.3027 51.25C40.3027 50.5652 36.9359 50.01 32.7827 50.01C28.6295 50.01 25.2627 50.5652 25.2627 51.25C25.2627 51.9348 28.6295 52.49 32.7827 52.49Z" fill="#875AFF"/>
<path opacity="0.5" d="M9.41256 38.5501L9.77256 39.2701L10.4326 39.6701C10.4409 39.6766 10.4476 39.685 10.4522 39.6945C10.4569 39.7041 10.4593 39.7145 10.4593 39.7251C10.4593 39.7357 10.4569 39.7461 10.4522 39.7557C10.4476 39.7652 10.4409 39.7735 10.4326 39.7801L9.77256 40.1801L9.41256 41.0001C9.40601 41.0084 9.39765 41.0151 9.38813 41.0198C9.3786 41.0244 9.36815 41.0268 9.35756 41.0268C9.34697 41.0268 9.33652 41.0244 9.32699 41.0198C9.31746 41.0151 9.30911 41.0084 9.30256 41.0001L8.94256 40.2701L8.28256 39.8701C8.27424 39.8635 8.26751 39.8552 8.26289 39.8457C8.25826 39.8361 8.25586 39.8257 8.25586 39.8151C8.25586 39.8045 8.25826 39.7941 8.26289 39.7845C8.26751 39.775 8.27424 39.7666 8.28256 39.7601L8.94256 39.3601L9.30256 38.6401C9.30256 38.6401 9.38256 38.5001 9.41256 38.5501Z" fill="white"/>
<path opacity="0.5" d="M56.063 24.94L56.423 25.67L57.0729 26.07C57.0837 26.0746 57.0928 26.0823 57.0992 26.0921C57.1056 26.1019 57.109 26.1133 57.109 26.125C57.109 26.1366 57.1056 26.1481 57.0992 26.1578C57.0928 26.1676 57.0837 26.1753 57.0729 26.18L56.423 26.58L56.063 27.3C56.063 27.3132 56.0577 27.3259 56.0483 27.3353C56.0389 27.3447 56.0262 27.35 56.0129 27.35C55.9997 27.35 55.987 27.3447 55.9776 27.3353C55.9682 27.3259 55.9629 27.3132 55.9629 27.3L55.5929 26.63L54.9329 26.23C54.9246 26.2234 54.9179 26.2151 54.9133 26.2055C54.9087 26.196 54.9062 26.1855 54.9062 26.175C54.9062 26.1644 54.9087 26.1539 54.9133 26.1444C54.9179 26.1349 54.9246 26.1265 54.9329 26.12L55.5929 25.72L55.9529 24.99C55.9463 24.9754 55.9458 24.9587 55.9514 24.9437C55.957 24.9287 55.9684 24.9166 55.9829 24.91C55.9975 24.9033 56.0142 24.9028 56.0292 24.9084C56.0442 24.914 56.0563 24.9254 56.063 24.94Z" fill="white"/>
<path d="M44.4426 9.28995L45.0627 10.53L46.1827 11.2C46.2018 11.2087 46.218 11.2228 46.2294 11.2405C46.2408 11.2583 46.2468 11.2789 46.2468 11.3C46.2468 11.321 46.2408 11.3416 46.2294 11.3594C46.218 11.3771 46.2018 11.3912 46.1827 11.4L45.0627 12.08L44.4426 13.32C44.4345 13.3369 44.4217 13.3511 44.4058 13.3611C44.3898 13.3711 44.3714 13.3764 44.3526 13.3764C44.3339 13.3764 44.3155 13.3711 44.2995 13.3611C44.2836 13.3511 44.2708 13.3369 44.2626 13.32L43.6427 12.08L42.5126 11.4C42.4961 11.389 42.4826 11.3741 42.4732 11.3567C42.4639 11.3392 42.459 11.3198 42.459 11.3C42.459 11.2802 42.4639 11.2607 42.4732 11.2432C42.4826 11.2258 42.4961 11.2109 42.5126 11.2L43.5927 10.58L44.2127 9.33995C44.206 9.30945 44.2118 9.27757 44.2287 9.25131C44.2455 9.22506 44.2722 9.20658 44.3027 9.19995C44.3332 9.19332 44.365 9.19908 44.3913 9.21596C44.4175 9.23284 44.436 9.25945 44.4426 9.28995Z" fill="url(#paint4_linear)"/>
<path d="M8.33344 16.64L9.02344 18C9.0347 18.0213 9.05213 18.0387 9.07344 18.05L10.3434 18.81C10.362 18.8229 10.3772 18.8401 10.3876 18.8601C10.3981 18.8801 10.4036 18.9024 10.4036 18.925C10.4036 18.9476 10.3981 18.9699 10.3876 18.9899C10.3772 19.0099 10.362 19.0271 10.3434 19.04L9.07344 19.8C9.05213 19.8113 9.0347 19.8287 9.02344 19.85L8.33344 21.24C8.32306 21.2587 8.30785 21.2744 8.28938 21.2853C8.27092 21.2961 8.24987 21.3019 8.22844 21.3019C8.207 21.3019 8.18596 21.2961 8.16749 21.2853C8.14903 21.2744 8.13382 21.2587 8.12344 21.24L7.43344 19.85C7.43695 19.8335 7.43695 19.8165 7.43344 19.8L6.17344 19.04C6.15487 19.0271 6.1397 19.0099 6.12923 18.9899C6.11875 18.9699 6.11328 18.9476 6.11328 18.925C6.11328 18.9024 6.11875 18.8801 6.12923 18.8601C6.1397 18.8401 6.15487 18.8229 6.17344 18.81L7.43344 18.05C7.43695 18.0335 7.43695 18.0165 7.43344 18L8.12344 16.61C8.13627 16.5923 8.15366 16.5785 8.17375 16.57C8.19385 16.5615 8.21587 16.5587 8.23747 16.5618C8.25907 16.5648 8.27941 16.5738 8.29632 16.5875C8.31323 16.6013 8.32606 16.6195 8.33344 16.64Z" fill="url(#paint5_linear)"/>
<path d="M48.9027 51L49.8427 52.89C49.8535 52.9198 49.8748 52.9447 49.9027 52.96L51.5927 54C51.6175 54.0164 51.6378 54.0387 51.6518 54.0648C51.6659 54.091 51.6732 54.1203 51.6732 54.15C51.6732 54.1797 51.6659 54.2089 51.6518 54.2351C51.6378 54.2613 51.6175 54.2835 51.5927 54.3L49.8727 55.3C49.8583 55.3066 49.8454 55.3163 49.835 55.3284C49.8247 55.3405 49.8171 55.3547 49.8127 55.37L48.8727 57.25C48.8618 57.2783 48.8426 57.3026 48.8176 57.3198C48.7927 57.3369 48.763 57.3461 48.7327 57.3461C48.7024 57.3461 48.6728 57.3369 48.6478 57.3198C48.6228 57.3026 48.6036 57.2783 48.5927 57.25L47.6527 55.37C47.6374 55.3398 47.6129 55.3153 47.5827 55.3L45.8627 54.3C45.838 54.2835 45.8177 54.2613 45.8036 54.2351C45.7896 54.2089 45.7822 54.1797 45.7822 54.15C45.7822 54.1203 45.7896 54.091 45.8036 54.0648C45.8177 54.0387 45.838 54.0164 45.8627 54L47.5927 53L47.6627 52.93L48.5927 51C48.5927 50.9589 48.6091 50.9194 48.6381 50.8904C48.6672 50.8613 48.7066 50.845 48.7477 50.845C48.7888 50.845 48.8283 50.8613 48.8573 50.8904C48.8864 50.9194 48.9027 50.9589 48.9027 51Z" fill="url(#paint6_linear)"/>
<path d="M12.2131 37.8785L4.55469 39.1436L4.87576 41.0872L12.5342 39.8221L12.2131 37.8785Z" fill="#000A64"/>
<path d="M5.49266 44.79L4.72266 40.11L5.38266 40L6.16266 44.68" fill="#000A64"/>
<path d="M12.643 44.6201L11.873 39.9301L12.543 39.8201L13.313 44.5101" fill="#000A64"/>
<path d="M4.90052 46.3222C5.72332 46.1863 6.29839 45.5195 6.18498 44.833C6.07156 44.1464 5.31261 43.7 4.48981 43.8359C3.66701 43.9718 3.09194 44.6386 3.20536 45.3252C3.31877 46.0118 4.07772 46.4582 4.90052 46.3222Z" fill="#000A64"/>
<path d="M12.0568 46.144C12.8796 46.0081 13.4546 45.3413 13.3412 44.6548C13.2278 43.9682 12.4689 43.5218 11.6461 43.6577C10.8233 43.7936 10.2482 44.4604 10.3616 45.147C10.475 45.8335 11.234 46.2799 12.0568 46.144Z" fill="#000A64"/>
<path d="M57.9025 36.7799L56.5625 32.0699L57.2325 31.8799L58.5725 36.5899" fill="#000A64"/>
<path d="M57.4821 38.4184C58.3107 38.1823 58.823 37.4312 58.6263 36.7407C58.4296 36.0502 57.5984 35.6818 56.7698 35.9178C55.9412 36.1539 55.429 36.905 55.6257 37.5955C55.8224 38.286 56.6535 38.6544 57.4821 38.4184Z" fill="#000A64"/>
<path d="M30.3232 10.6401L32.7932 6.57007L33.3732 6.92007L30.9132 11.0001" fill="#000A64"/>
<path d="M30.8297 11.1218C31.1928 10.5217 30.9048 9.68291 30.1865 9.24842C29.4682 8.81392 28.5916 8.94821 28.2286 9.54835C27.8656 10.1485 28.1536 10.9872 28.8719 11.4217C29.5901 11.8562 30.4667 11.7219 30.8297 11.1218Z" fill="#000A64"/>
<path d="M32.8231 6.50996C32.8231 6.50996 34.0831 6.13996 34.0131 7.22996C33.9431 8.31996 35.1531 7.91996 35.1531 7.91996C34.6983 8.15664 34.1794 8.24078 33.6731 8.15996C32.7631 8.04996 32.8231 6.50996 32.8231 6.50996Z" fill="#000A64"/>
<defs>
<linearGradient id="paint0_linear" x1="32.6998" y1="60.14" x2="32.6998" y2="11.33" gradientUnits="userSpaceOnUse">
<stop stop-color="#9858FF"/>
<stop offset="1" stop-color="#40338F"/>
</linearGradient>
<linearGradient id="paint1_linear" x1="28.2391" y1="46.2667" x2="37.2038" y2="24.1117" gradientUnits="userSpaceOnUse">
<stop stop-color="#FFB500"/>
<stop offset="0.96" stop-color="#FFD271"/>
</linearGradient>
<linearGradient id="paint2_linear" x1="26.5594" y1="38.2985" x2="28.465" y2="32.6294" gradientUnits="userSpaceOnUse">
<stop stop-color="#FF952D"/>
<stop offset="1" stop-color="#FF782D"/>
</linearGradient>
<linearGradient id="paint3_linear" x1="12.9225" y1="162.469" x2="18.7431" y2="144.506" gradientUnits="userSpaceOnUse">
<stop stop-color="#FF952D"/>
<stop offset="1" stop-color="#FF782D"/>
</linearGradient>
<linearGradient id="paint4_linear" x1="42.4227" y1="11.35" x2="46.2827" y2="11.35" gradientUnits="userSpaceOnUse">
<stop stop-color="white"/>
<stop offset="1" stop-color="#E7EFF7"/>
</linearGradient>
<linearGradient id="paint5_linear" x1="25.291" y1="87.4911" x2="43.9109" y2="87.4911" gradientUnits="userSpaceOnUse">
<stop stop-color="#FFB500"/>
<stop offset="0.96" stop-color="#FFD271"/>
</linearGradient>
<linearGradient id="paint6_linear" x1="306.282" y1="376.943" x2="340.98" y2="376.943" gradientUnits="userSpaceOnUse">
<stop stop-color="#FFB500"/>
<stop offset="0.96" stop-color="#FFD271"/>
</linearGradient>
</defs>
</svg>
