<svg width="253" height="136" viewBox="0 0 253 136" fill="none" xmlns="http://www.w3.org/2000/svg">
<path d="M191.051 47.3902C190.947 46.3348 190.429 45.3637 189.609 44.6905C188.79 44.0173 187.737 43.6971 186.681 43.8002L71.9811 55.0002C70.9256 55.1039 69.9545 55.6225 69.2813 56.442C68.6081 57.2614 68.2879 58.3147 68.3911 59.3702L74.8111 125.05C74.8612 125.574 75.014 126.082 75.2608 126.547C75.5077 127.011 75.8436 127.422 76.2495 127.756C76.6554 128.091 77.1233 128.342 77.6263 128.495C78.1293 128.649 78.6577 128.701 79.1811 128.65L193.871 117.44C194.927 117.337 195.898 116.818 196.571 115.999C197.244 115.179 197.564 114.126 197.461 113.07L191.051 47.3902Z" fill="#221E54"/>
<path d="M94.311 52.8303L92.131 30.5303C92.0279 29.4748 92.3481 28.4215 93.0213 27.602C93.6945 26.7826 94.6656 26.264 95.7211 26.1603L145.211 21.3203L210.311 15.0003C211.367 14.8971 212.42 15.2173 213.239 15.8906C214.059 16.5638 214.577 17.5348 214.681 18.5903L221.101 84.2703C221.204 85.3258 220.884 86.3791 220.211 87.1986C219.538 88.0181 218.567 88.5366 217.511 88.6403L195.311 90.7703" fill="#221E54"/>
<path d="M134.701 104.66C138.346 104.305 141.803 102.878 144.637 100.558C147.471 98.2388 149.553 95.1312 150.621 91.6284C151.689 88.1256 151.694 84.3849 150.637 80.8789C149.579 77.373 147.506 74.2593 144.679 71.9314C141.853 69.6035 138.399 68.1658 134.755 67.8001C131.112 67.4344 127.441 68.1571 124.208 69.8769C120.975 71.5967 118.325 74.2363 116.592 77.4621C114.858 80.6879 114.121 84.3552 114.471 88.0003C114.703 90.4236 115.41 92.7774 116.553 94.9269C117.695 97.0764 119.251 98.9794 121.13 100.527C123.009 102.074 125.175 103.236 127.504 103.945C129.833 104.655 132.278 104.898 134.701 104.66Z" fill="#221E54"/>
<path d="M94.3111 52.8303L92.1311 30.5303C92.0279 29.4748 92.3481 28.4215 93.0213 27.602C93.6945 26.7826 94.6656 26.264 95.7211 26.1603L145.211 21.3203L210.311 15.0003C211.367 14.8971 212.42 15.2173 213.239 15.8906C214.059 16.5638 214.577 17.5348 214.681 18.5903L221.101 84.2703C221.204 85.3258 220.884 86.3791 220.211 87.1986C219.538 88.0181 218.567 88.5366 217.511 88.6403L195.311 90.7703L94.3111 52.8303ZM151.311 84.4203C151.666 88.0638 150.932 91.7307 149.202 94.9572C147.473 98.1837 144.826 100.825 141.595 102.547C138.365 104.269 134.696 104.995 131.054 104.632C127.411 104.269 123.958 102.834 121.13 100.509C118.303 98.1835 116.229 95.072 115.17 91.5678C114.111 88.0636 114.114 84.3241 115.18 80.822C116.247 77.32 118.327 74.2127 121.159 71.8931C123.991 69.5735 127.448 68.1457 131.091 67.7903C133.511 67.5543 135.953 67.7972 138.279 68.5053C140.605 69.2133 142.768 70.3726 144.646 71.9169C146.524 73.4612 148.079 75.3602 149.222 77.5056C150.366 79.651 151.076 82.0006 151.311 84.4203V84.4203ZM79.1811 128.65L193.871 117.44C194.927 117.337 195.898 116.818 196.571 115.999C197.244 115.179 197.564 114.126 197.461 113.07L191.051 47.3903C190.947 46.3348 190.429 45.3638 189.609 44.6906C188.79 44.0173 187.737 43.6971 186.681 43.8003L71.9811 55.0003C70.9256 55.104 69.9545 55.6226 69.2813 56.442C68.6081 57.2615 68.2879 58.3148 68.3911 59.3703L74.8111 125.05C74.8612 125.574 75.014 126.082 75.2608 126.547C75.5077 127.011 75.8436 127.422 76.2495 127.757C76.6554 128.091 77.1233 128.342 77.6263 128.495C78.1293 128.649 78.6577 128.701 79.1811 128.65V128.65Z" stroke="#221E54" stroke-linecap="round" stroke-linejoin="round"/>
<path d="M191.051 47.3902C190.947 46.3348 190.429 45.3637 189.609 44.6905C188.79 44.0173 187.737 43.6971 186.681 43.8002L71.9811 55.0002C70.9256 55.1039 69.9545 55.6225 69.2813 56.442C68.6081 57.2614 68.2879 58.3147 68.3911 59.3702L74.8011 125.05C74.8512 125.574 75.004 126.082 75.2508 126.547C75.4977 127.011 75.8336 127.422 76.2395 127.756C76.6454 128.091 77.1133 128.342 77.6163 128.495C78.1193 128.649 78.6477 128.701 79.1711 128.65L193.871 117.44C194.927 117.337 195.898 116.818 196.571 115.999C197.244 115.179 197.564 114.126 197.461 113.07L191.051 47.3902Z" fill="#FED401" stroke="#221E54" stroke-linecap="round" stroke-linejoin="round"/>
<path d="M134.941 111.6C139.936 111.112 144.675 109.153 148.557 105.972C152.44 102.791 155.292 98.53 156.753 93.728C158.214 88.9261 158.218 83.7988 156.765 78.9944C155.312 74.19 152.467 69.9242 148.59 66.7365C144.713 63.5487 139.978 61.5821 134.984 61.0853C129.989 60.5885 124.959 61.5839 120.53 63.9454C116.101 66.307 112.472 69.9288 110.101 74.3529C107.73 78.7769 106.725 83.8046 107.211 88.8003C107.534 92.1184 108.508 95.3403 110.076 98.282C111.645 101.224 113.778 103.828 116.353 105.945C118.928 108.062 121.895 109.651 125.084 110.622C128.274 111.592 131.623 111.925 134.941 111.6Z" fill="white" stroke="#221E54" stroke-linecap="round" stroke-linejoin="round"/>
<path d="M124.191 80.6403L134.561 77.3703C135.721 76.9741 136.949 76.8146 138.172 76.9012C139.395 76.9879 140.589 77.3189 141.682 77.8747C142.774 78.4306 143.745 79.2 144.535 80.1373C145.325 81.0747 145.92 82.1611 146.283 83.3322C146.646 84.5033 146.771 85.7353 146.649 86.9554C146.528 88.1755 146.163 89.3589 145.577 90.4356C144.99 91.5123 144.194 92.4604 143.234 93.2238C142.275 93.9873 141.172 94.5505 139.991 94.8803L129.621 98.1503C127.295 98.8787 124.775 98.6563 122.613 97.532C120.45 96.4076 118.821 94.4727 118.081 92.1503C117.713 90.9937 117.58 89.7754 117.689 88.5667C117.799 87.358 118.148 86.1832 118.717 85.1112C119.286 84.0393 120.063 83.0917 121.003 82.324C121.943 81.5562 123.027 80.9839 124.191 80.6403Z" fill="#FED401"/>
<path d="M129.531 83.6303L129.891 83.2903C130.18 82.9192 130.392 82.4939 130.515 82.0394C130.637 81.585 130.667 81.1107 130.602 80.6445C130.538 80.1784 130.381 79.7299 130.14 79.3255C129.899 78.9211 129.58 78.5691 129.201 78.2903L124.671 74.8403C123.913 74.2752 122.963 74.0318 122.027 74.1629C121.091 74.2939 120.245 74.7889 119.671 75.5403L119.311 76.0003C119.022 76.3714 118.81 76.7967 118.688 77.2511C118.565 77.7056 118.536 78.1799 118.6 78.646C118.664 79.1122 118.821 79.5607 119.062 79.9651C119.303 80.3694 119.622 80.7214 120.001 81.0003L124.531 84.4403C124.912 84.7156 125.344 84.9131 125.802 85.0214C126.26 85.1297 126.735 85.1467 127.199 85.0715C127.663 84.9962 128.108 84.8302 128.508 84.583C128.909 84.3357 129.256 84.0119 129.531 83.6303Z" fill="white" stroke="#221E54" stroke-miterlimit="10" stroke-linecap="round"/>
<path d="M129.601 84.4003H130.061C131 84.2205 131.83 83.6776 132.371 82.8893C132.913 82.1011 133.121 81.1312 132.951 80.1903L131.951 74.6402C131.762 73.7018 131.212 72.8754 130.418 72.3401C129.624 71.8048 128.652 71.6037 127.711 71.7802H127.251C126.314 71.9643 125.488 72.5111 124.952 73.3014C124.417 74.0918 124.215 75.0618 124.391 76.0002L125.521 81.5402C125.59 82.001 125.753 82.4428 125.998 82.8389C126.243 83.2351 126.567 83.5772 126.948 83.8447C127.33 84.1121 127.761 84.2993 128.218 84.3948C128.674 84.4903 129.144 84.4921 129.601 84.4003Z" fill="white" stroke="#221E54" stroke-miterlimit="10" stroke-linecap="round"/>
<path d="M124.191 80.6403L134.561 77.3703C135.721 76.9741 136.949 76.8146 138.172 76.9012C139.395 76.9879 140.589 77.3189 141.682 77.8747C142.774 78.4306 143.745 79.2 144.535 80.1373C145.325 81.0747 145.92 82.1611 146.283 83.3322C146.646 84.5033 146.771 85.7353 146.649 86.9554C146.528 88.1755 146.163 89.3589 145.577 90.4356C144.99 91.5123 144.194 92.4604 143.234 93.2238C142.275 93.9873 141.172 94.5505 139.991 94.8803L129.621 98.1503C127.295 98.8787 124.775 98.6563 122.613 97.532C120.45 96.4076 118.821 94.4727 118.081 92.1503C117.713 90.9937 117.58 89.7754 117.689 88.5667C117.799 87.358 118.148 86.1832 118.717 85.1112C119.286 84.0393 120.063 83.0917 121.003 82.324C121.943 81.5562 123.027 80.9839 124.191 80.6403Z" fill="#FED401"/>
<mask id="mask0" mask-type="alpha" maskUnits="userSpaceOnUse" x="117" y="76" width="30" height="23">
<path d="M124.191 80.64L134.561 77.37C135.721 76.9737 136.949 76.8142 138.172 76.9009C139.395 76.9875 140.589 77.3185 141.682 77.8744C142.774 78.4302 143.745 79.1996 144.535 80.137C145.325 81.0744 145.92 82.1607 146.283 83.3318C146.646 84.5029 146.771 85.735 146.649 86.9551C146.528 88.1752 146.163 89.3586 145.577 90.4352C144.99 91.5119 144.194 92.46 143.234 93.2234C142.275 93.9869 141.172 94.5502 139.991 94.88L129.621 98.15C127.295 98.8783 124.775 98.656 122.613 97.5316C120.45 96.4072 118.821 94.4723 118.081 92.15C117.713 90.9934 117.58 89.775 117.689 88.5663C117.799 87.3576 118.148 86.1828 118.717 85.1109C119.286 84.0389 120.063 83.0913 121.003 82.3236C121.943 81.5559 123.027 80.9835 124.191 80.64Z" fill="#FED401"/>
</mask>
<g mask="url(#mask0)">
<path d="M132.001 77.4502C132.001 77.4502 127.431 88.7702 137.671 95.8702L131.081 97.9402C131.081 97.9402 121.931 90.7502 125.431 79.7602C125.571 79.5902 132.001 77.5302 132.001 77.4502Z" fill="#221E54"/>
<path d="M120.691 81.5902C120.691 81.5902 116.191 92.6702 126.341 99.6902L119.751 101.77C119.751 101.77 110.611 94.6502 114.131 83.8902C114.191 83.7302 120.791 81.8102 120.691 81.5902Z" fill="#221E54"/>
</g>
<path d="M141.511 86.0002C141.273 86.3838 140.912 86.6755 140.488 86.828C140.063 86.9805 139.599 86.9848 139.171 86.8402" stroke="#221E54" stroke-width="0.8" stroke-miterlimit="10" stroke-linecap="round"/>
<path d="M135.691 85.4603C135.787 85.7373 135.986 85.9667 136.247 86.1008C136.507 86.2349 136.81 86.2633 137.091 86.1803C137.366 86.0885 137.595 85.8933 137.73 85.6358C137.864 85.3784 137.893 85.0788 137.811 84.8003C137.768 84.6613 137.697 84.5321 137.604 84.4205C137.51 84.3088 137.396 84.2168 137.266 84.1499C137.137 84.0829 136.996 84.0423 136.851 84.0303C136.705 84.0184 136.559 84.0354 136.421 84.0803C136.28 84.1189 136.148 84.186 136.034 84.2774C135.92 84.3689 135.825 84.4829 135.757 84.6122C135.689 84.7415 135.647 84.8835 135.636 85.0294C135.625 85.1753 135.643 85.3219 135.691 85.4603Z" fill="#221E54"/>
<path d="M136.211 85.1803C136.215 85.2353 136.234 85.2882 136.267 85.3326C136.299 85.3771 136.344 85.4113 136.395 85.4313C136.447 85.4512 136.503 85.4561 136.557 85.4453C136.611 85.4345 136.661 85.4084 136.701 85.3703C136.756 85.3691 136.81 85.3517 136.855 85.3202C136.9 85.2888 136.935 85.2446 136.955 85.1934C136.976 85.1421 136.98 85.086 136.969 85.0321C136.957 84.9782 136.93 84.9288 136.891 84.8903C136.887 84.8352 136.868 84.7823 136.835 84.7379C136.803 84.6934 136.758 84.6592 136.706 84.6392C136.655 84.6193 136.599 84.6144 136.545 84.6252C136.491 84.636 136.441 84.6621 136.401 84.7002C136.311 84.7102 136.191 85.0003 136.211 85.1803Z" fill="white"/>
<path d="M141.231 83.7902C141.295 84.0009 141.419 84.1879 141.59 84.3274C141.76 84.467 141.967 84.5528 142.187 84.5741C142.406 84.5953 142.626 84.5509 142.82 84.4466C143.013 84.3423 143.172 84.1828 143.275 83.9883C143.378 83.7938 143.42 83.5731 143.398 83.3542C143.375 83.1353 143.287 82.9282 143.147 82.7591C143.006 82.5899 142.818 82.4665 142.607 82.4044C142.396 82.3423 142.171 82.3443 141.961 82.4102C141.821 82.4513 141.691 82.5199 141.579 82.6119C141.466 82.704 141.373 82.8177 141.305 82.9463C141.237 83.0749 141.195 83.2158 141.183 83.3608C141.17 83.5057 141.186 83.6518 141.231 83.7902Z" fill="#221E54"/>
<path d="M141.751 83.5102C141.779 83.5782 141.827 83.6361 141.889 83.6766C141.95 83.7172 142.022 83.7385 142.096 83.7378C142.169 83.7371 142.241 83.7145 142.302 83.6729C142.363 83.6312 142.409 83.5724 142.436 83.504C142.464 83.4355 142.47 83.3606 142.454 83.2887C142.438 83.2168 142.401 83.1512 142.348 83.1004C142.295 83.0495 142.228 83.0157 142.155 83.0032C142.083 82.9907 142.008 83.0001 141.941 83.0302C141.861 83.0002 141.721 83.2802 141.751 83.5102Z" fill="white"/>
<path d="M139.441 77.9302C139.441 77.9302 138.871 73.4202 142.351 74.0302" stroke="#221E54" stroke-miterlimit="10" stroke-linecap="round"/>
<path d="M136.171 78.8503C136.171 78.8503 133.621 74.7503 136.371 73.4203" stroke="#221E54" stroke-miterlimit="10" stroke-linecap="round"/>
<path d="M234.431 23.5003C234.433 28.4772 232.71 33.3008 229.554 37.1493C226.398 40.9977 222.006 43.6327 217.125 44.6053C212.244 45.5779 207.177 44.8279 202.787 42.483C198.397 40.1381 194.956 36.3436 193.05 31.746C191.145 27.1484 190.892 22.0322 192.336 17.2694C193.78 12.5066 196.831 8.39184 200.969 5.6264C205.107 2.86095 210.075 1.61593 215.028 2.10351C219.981 2.59108 224.612 4.78108 228.131 8.3003C230.128 10.2959 231.712 12.6654 232.793 15.2735C233.874 17.8815 234.431 20.6771 234.431 23.5003Z" fill="white" stroke="#221E54" stroke-width="2" stroke-linecap="round" stroke-linejoin="round"/>
<path d="M202.401 23.0003L209.231 30.7203L223.561 16.7203M234.431 23.5503C234.433 28.5272 232.71 33.3509 229.554 37.1993C226.398 41.0477 222.006 43.6828 217.125 44.6554C212.244 45.6279 207.177 44.8779 202.787 42.533C198.397 40.1882 194.956 36.3936 193.05 31.796C191.145 27.1984 190.892 22.0823 192.336 17.3194C193.78 12.5566 196.831 8.44189 200.969 5.67645C205.107 2.911 210.075 1.66598 215.028 2.15356C219.981 2.64113 224.612 4.83113 228.131 8.35035C232.152 12.3684 234.418 17.8159 234.431 23.5003V23.5503Z" stroke="#221E54" stroke-width="3" stroke-linecap="round" stroke-linejoin="round"/>
<path d="M239.411 43.4403L242.141 48.8903C242.182 48.9779 242.248 49.051 242.331 49.1003L247.331 52.1003C247.405 52.1483 247.467 52.2135 247.511 52.2903C247.551 52.3641 247.571 52.4466 247.571 52.5303C247.571 52.6173 247.551 52.7031 247.511 52.7803C247.471 52.8742 247.401 52.9518 247.311 53.0003L242.311 56.0003C242.228 56.0496 242.162 56.1228 242.121 56.2103L239.411 61.6003C239.371 61.6768 239.313 61.7421 239.241 61.7903C239.169 61.8345 239.086 61.8586 239.001 61.8603C238.917 61.8557 238.835 61.8318 238.761 61.7903C238.692 61.7418 238.637 61.6764 238.601 61.6003L235.871 56.1503C235.83 56.0628 235.764 55.9896 235.681 55.9403L230.681 52.9403C230.603 52.9022 230.539 52.8388 230.501 52.7603C230.454 52.6857 230.429 52.5987 230.431 52.5103C230.429 52.4251 230.454 52.3414 230.501 52.2703C230.542 52.1912 230.604 52.1254 230.681 52.0803L235.591 49.0803C235.676 49.0338 235.743 48.9598 235.781 48.8703L238.521 43.4203C238.519 43.3623 238.529 43.3046 238.552 43.251C238.574 43.1975 238.608 43.1495 238.651 43.1103C238.733 43.0277 238.845 42.9809 238.961 42.9803C239.08 42.9825 239.194 43.0288 239.281 43.1103C239.324 43.1533 239.358 43.2049 239.381 43.2617C239.403 43.3185 239.413 43.3793 239.411 43.4403Z" fill="#FED401"/>
<path d="M247.821 18.2802L249.461 21.7502C249.481 21.8056 249.52 21.8518 249.571 21.8802L252.571 23.7902C252.619 23.813 252.658 23.8519 252.681 23.9002C252.691 23.9531 252.691 24.0074 252.681 24.0602C252.69 24.1132 252.69 24.1673 252.681 24.2202C252.658 24.2686 252.619 24.3075 252.571 24.3302L249.571 26.2402C249.52 26.2687 249.481 26.3149 249.461 26.3702L247.821 29.8402C247.796 29.8864 247.762 29.9272 247.721 29.9602C247.671 29.9705 247.62 29.9705 247.571 29.9602C247.525 29.9703 247.477 29.9703 247.431 29.9602C247.387 29.9301 247.353 29.8886 247.331 29.8402L245.691 26.3702C245.671 26.3149 245.632 26.2687 245.581 26.2402L242.581 24.3302C242.533 24.3075 242.494 24.2686 242.471 24.2202C242.457 24.1678 242.457 24.1127 242.471 24.0602C242.456 24.008 242.456 23.9525 242.471 23.9002C242.494 23.8519 242.533 23.813 242.581 23.7902L245.531 21.8802C245.582 21.8518 245.621 21.8056 245.641 21.7502L247.311 18.2802C247.314 18.2063 247.342 18.1357 247.391 18.0802C247.442 18.0302 247.51 18.0021 247.581 18.0021C247.652 18.0021 247.72 18.0302 247.771 18.0802C247.809 18.1396 247.827 18.2099 247.821 18.2802Z" fill="#FED401"/>
<path d="M68.461 119.39C64.4187 122.876 59.7051 125.496 54.611 127.09C50.791 128.28 45.831 129.78 39.991 128.22C25.501 124.34 28.731 114.75 34.621 110.9C38.101 108.62 43.531 110.3 45.961 115.12C51.261 125.65 35.631 141.66 15.011 132.61C12.211 131.38 6.26103 128.51 2.93104 122.31C2.2551 121.036 1.71224 119.696 1.31104 118.31" stroke="#FED401" stroke-linecap="round" stroke-dasharray="4 4"/>
</svg>
