<svg width="64" height="64" viewBox="0 0 64 64" fill="none" xmlns="http://www.w3.org/2000/svg">
<path d="M10.0003 16.9354C8.76254 17.6498 8 18.9705 8 20.3997V43.9603C8 45.3895 8.76254 46.7102 10.0003 47.4246L30.4099 59.2055C31.6476 59.9199 33.1723 59.9198 34.4099 59.2052L54.8103 47.4248C56.0477 46.7102 56.81 45.3898 56.81 43.9608V20.3992C56.81 18.9702 56.0477 17.6498 54.8103 16.9352L34.4099 5.15484C33.1723 4.44022 31.6476 4.44009 30.4099 5.15449L10.0003 16.9354Z" fill="url(#paint0_linear)"/>
<path opacity="0.25" fill-rule="evenodd" clip-rule="evenodd" d="M7.99902 31.8432V20.3998C7.99902 18.9706 8.76156 17.65 9.99935 16.9355L25.8996 7.75755V21.15C25.8993 21.5304 25.7994 21.904 25.6099 22.2338C25.4205 22.5636 25.148 22.8381 24.8196 23.03L9.81963 31.68C9.49008 31.8715 9.11575 31.9723 8.73463 31.9723C8.48281 31.9723 8.23396 31.9283 7.99902 31.8432ZM7.99902 33.7127L8.2444 33.8541L8.24641 33.8552C8.39855 33.9403 8.56998 33.985 8.74433 33.985C8.91855 33.985 9.08986 33.9404 9.24191 33.8554L9.24427 33.8541L26.9577 23.6079L26.9587 23.6073C27.1104 23.5186 27.2364 23.392 27.3242 23.2398C27.412 23.0876 27.4586 22.9151 27.4593 22.7394L27.4593 22.7383V6.85725L28.4593 6.28003L28.4593 22.7399L28.4593 22.7415C28.4582 23.0919 28.3655 23.436 28.1904 23.7396C28.0152 24.0431 27.7638 24.2956 27.461 24.472L27.4597 24.4727L9.73442 34.7258C9.43213 34.8958 9.09114 34.985 8.74433 34.985C8.48831 34.985 8.23547 34.9364 7.99902 34.8425V33.7127ZM56.7615 44.5762L54.6513 43.358L54.6503 43.3574C54.3465 43.1806 54.0012 43.0875 53.6496 43.0875C53.2981 43.0875 52.9528 43.1806 52.649 43.3574L52.648 43.358L41.2697 49.927L41.268 49.9279C40.9652 50.1043 40.7137 50.3568 40.5386 50.6604C40.3635 50.9639 40.2708 51.308 40.2697 51.6584L40.2696 51.66V55.821L41.2696 55.2435V51.6609C41.2703 51.485 41.3169 51.3124 41.4048 51.1601C41.4926 51.0078 41.6195 50.8807 41.7713 50.792L53.1496 44.223L53.1513 44.222C53.3026 44.1339 53.4746 44.0875 53.6496 44.0875C53.8247 44.0875 53.9967 44.1339 54.148 44.222L54.1497 44.223L56.4735 45.5646C56.6107 45.2513 56.7081 44.9193 56.7615 44.5762ZM56.0093 46.3606L54.3596 45.4101C54.1319 45.2775 53.8731 45.2076 53.6096 45.2076C53.3461 45.2076 53.0873 45.2775 52.8596 45.4101L43.2096 50.9701C42.8946 51.1727 42.6371 51.453 42.462 51.7841C42.2868 52.1151 42.1999 52.4857 42.2096 52.8601V54.7007L54.8093 47.4249C55.285 47.1503 55.6904 46.7861 56.0093 46.3606Z" fill="white"/>
<path opacity="0.25" d="M32.79 54.4901C36.7941 54.4901 40.04 53.9573 40.04 53.3001C40.04 52.6429 36.7941 52.1101 32.79 52.1101C28.786 52.1101 25.54 52.6429 25.54 53.3001C25.54 53.9573 28.786 54.4901 32.79 54.4901Z" fill="#875AFF"/>
<path d="M51.45 34.5899C51.3775 34.984 51.2168 35.3566 50.98 35.6799C50.9744 35.6863 50.9675 35.6914 50.9597 35.6949C50.952 35.6984 50.9435 35.7002 50.935 35.7002C50.9265 35.7002 50.9181 35.6984 50.9103 35.6949C50.9026 35.6914 50.8957 35.6863 50.89 35.6799C50.6958 35.346 50.4532 35.0427 50.17 34.7799C49.9291 34.631 49.7323 34.4204 49.6 34.1699L34.77 30.7399L41.77 17.5899C41.7494 17.5401 41.7225 17.493 41.69 17.4499C41.641 17.3907 41.5975 17.3271 41.56 17.2599C41.48 17.1399 41.41 17.0199 41.34 16.8999L41.21 16.5599C41.1551 16.4506 41.0805 16.3523 40.99 16.2699C40.9834 16.2634 40.9781 16.2556 40.9745 16.2471C40.9709 16.2385 40.969 16.2292 40.969 16.2199C40.969 16.2106 40.9709 16.2014 40.9745 16.1928C40.9781 16.1842 40.9834 16.1765 40.99 16.1699C41.2819 16.1447 41.5722 16.1046 41.86 16.0499L42.69 15.9399L42.75 15.8399L33.41 10.4399C33.223 10.332 33.0109 10.2751 32.795 10.2751C32.5791 10.2751 32.367 10.332 32.18 10.4399L14.61 20.5799C14.4233 20.6889 14.2685 20.8452 14.1614 21.0331C14.0544 21.2209 13.9987 21.4337 14 21.6499V41.9299C13.9987 42.1462 14.0544 42.3589 14.1614 42.5468C14.2685 42.7346 14.4233 42.8909 14.61 42.9999L32.21 53.1399C32.397 53.2479 32.6091 53.3047 32.825 53.3047C33.0409 53.3047 33.253 53.2479 33.44 53.1399L50.97 42.9999C51.158 42.8914 51.3141 42.7355 51.4229 42.5477C51.5317 42.36 51.5893 42.1469 51.59 41.9299V34.6199L51.45 34.5899Z" fill="url(#paint1_linear)"/>
<path d="M49.04 40.2301V23.4601C49.043 23.1597 48.968 22.8636 48.8226 22.6007C48.6771 22.3379 48.4661 22.1172 48.21 21.9601L33.32 13.3901C33.1589 13.297 32.9761 13.248 32.79 13.248C32.604 13.248 32.4212 13.297 32.26 13.3901L17.41 21.9601C17.1459 22.1114 16.9263 22.3298 16.7735 22.5932C16.6208 22.8566 16.5402 23.1556 16.54 23.4601V40.2301C16.541 40.533 16.6219 40.8304 16.7747 41.092C16.9275 41.3537 17.1466 41.5703 17.41 41.7201L31.93 50.1101C32.193 50.2619 32.4914 50.3418 32.795 50.3418C33.0987 50.3418 33.397 50.2619 33.66 50.1101L48.21 41.7201C48.4653 41.5646 48.676 41.3456 48.8214 41.0845C48.9669 40.8233 49.0422 40.529 49.04 40.2301Z" fill="#221E53"/>
<path d="M45.6596 16.7901L48.3296 17.3101L47.7096 16.2801L48.5396 15.5501L45.5196 14.8501L44.0996 15.6101" fill="url(#paint2_linear)"/>
<path d="M50 11.3616V16L51.1511 14.0346L52 16V11L50.9928 12.4937L50 11.3616Z" fill="url(#paint3_linear)"/>
<path d="M52.0195 30L54.1695 28.46L54.4595 29.48L54.9795 29.55V30L53.3195 31.59L53.0095 30.61L52.0195 30Z" fill="url(#paint4_linear)"/>
<path d="M55.6898 31.1101L53.7998 33.1501L54.8598 32.8401L55.5198 31.5901L55.6898 31.1101Z" fill="url(#paint5_linear)"/>
<path d="M45.6094 12.4399L47.0294 14.2899L45.8894 13.7899L45.7694 13.2199L45.6094 12.4399Z" fill="url(#paint6_linear)"/>
<path d="M53.3097 12.8599L54.3097 13.9599C54.3793 14.0386 54.4177 14.1399 54.4177 14.2449C54.4177 14.3499 54.3793 14.4513 54.3097 14.5299L40.5697 30.0899C40.5005 30.1672 40.4057 30.2168 40.3028 30.2297C40.1999 30.2425 40.0958 30.2178 40.0097 30.1599L36.0097 27.3599C35.9291 27.3011 35.8297 27.2737 35.7303 27.2829C35.6309 27.2921 35.5382 27.3373 35.4697 27.4099L29.2097 33.7999C29.1294 33.8781 29.0218 33.9219 28.9097 33.9219C28.7977 33.9219 28.69 33.8781 28.6097 33.7999L23.7097 29.2199C23.3597 28.8799 23.2797 28.8799 22.9097 29.2199L5.35973 47.1799C5.2972 47.2566 5.26234 47.3522 5.2608 47.4511C5.25925 47.5501 5.29111 47.6467 5.35122 47.7253C5.41134 47.8039 5.4962 47.8599 5.5921 47.8844C5.68799 47.9088 5.78933 47.9002 5.87973 47.8599L22.6497 33.1299C22.7325 33.0805 22.8291 33.0596 22.9249 33.0705C23.0206 33.0813 23.1101 33.1233 23.1797 33.1899L29.0497 38.8599C29.1273 38.9316 29.2291 38.9714 29.3347 38.9714C29.4404 38.9714 29.5421 38.9316 29.6197 38.8599L36.4197 32.6299C36.4961 32.5638 36.5937 32.5274 36.6947 32.5274C36.7958 32.5274 36.8934 32.5638 36.9697 32.6299L41.0997 36.0699C41.1786 36.135 41.2775 36.1705 41.3797 36.1705C41.4819 36.1705 41.5809 36.135 41.6597 36.0699L59.6097 19.5499C59.6478 19.5118 59.693 19.4816 59.7428 19.461C59.7925 19.4404 59.8459 19.4298 59.8997 19.4298C59.9536 19.4298 60.0069 19.4404 60.0567 19.461C60.1064 19.4816 60.1517 19.5118 60.1897 19.5499L61.2697 20.6299C61.3254 20.6876 61.3964 20.7281 61.4743 20.7467C61.5523 20.7653 61.6339 20.7612 61.7096 20.7349C61.7853 20.7086 61.8519 20.6612 61.9015 20.5983C61.9511 20.5354 61.9818 20.4597 61.9897 20.3799L62.9897 11.6199C62.9976 11.5572 62.9912 11.4935 62.971 11.4336C62.9508 11.3737 62.9174 11.3191 62.8732 11.2739C62.8289 11.2287 62.7751 11.1941 62.7156 11.1727C62.6562 11.1512 62.5926 11.1434 62.5297 11.1499L53.5297 12.0899C53.4405 12.0925 53.3545 12.1233 53.284 12.1781C53.2135 12.2328 53.1623 12.3086 53.1378 12.3944C53.1133 12.4802 53.1167 12.5716 53.1477 12.6553C53.1786 12.739 53.2353 12.8107 53.3097 12.8599Z" fill="url(#paint7_linear)"/>
<path d="M23.3696 13.54L23.8396 14.54L24.6996 15.06C24.7149 15.0657 24.7281 15.076 24.7375 15.0894C24.7468 15.1028 24.7518 15.1187 24.7518 15.135C24.7518 15.1514 24.7468 15.1673 24.7375 15.1807C24.7281 15.1941 24.7149 15.2044 24.6996 15.21L23.8396 15.72L23.3696 16.66C23.3627 16.6726 23.3526 16.683 23.3403 16.6902C23.3279 16.6975 23.3139 16.7013 23.2996 16.7013C23.2853 16.7013 23.2713 16.6975 23.259 16.6902C23.2467 16.683 23.2365 16.6726 23.2296 16.66L22.7596 15.72L21.8996 15.21C21.8872 15.2018 21.8771 15.1907 21.8701 15.1776C21.8631 15.1645 21.8594 15.1499 21.8594 15.135C21.8594 15.1202 21.8631 15.1056 21.8701 15.0925C21.8771 15.0794 21.8872 15.0683 21.8996 15.06L22.7596 14.54L23.2296 13.54C23.2365 13.5275 23.2467 13.5171 23.259 13.5099C23.2713 13.5026 23.2853 13.4988 23.2996 13.4988C23.3139 13.4988 23.3279 13.5026 23.3403 13.5099C23.3526 13.5171 23.3627 13.5275 23.3696 13.54Z" fill="white"/>
<path d="M54.2897 35.98L54.7597 36.98L55.6197 37.5C55.6321 37.5082 55.6423 37.5193 55.6493 37.5324C55.6563 37.5455 55.66 37.5601 55.66 37.575C55.66 37.5898 55.6563 37.6045 55.6493 37.6175C55.6423 37.6306 55.6321 37.6418 55.6197 37.65L54.7597 38.16L54.2897 39.1C54.2828 39.1125 54.2727 39.1229 54.2604 39.1302C54.2481 39.1374 54.234 39.1413 54.2197 39.1413C54.2054 39.1413 54.1914 39.1374 54.1791 39.1302C54.1668 39.1229 54.1567 39.1125 54.1497 39.1L53.6797 38.16L52.8197 37.65C52.8044 37.6443 52.7912 37.6341 52.7819 37.6207C52.7726 37.6073 52.7676 37.5913 52.7676 37.575C52.7676 37.5587 52.7726 37.5427 52.7819 37.5293C52.7912 37.5159 52.8044 37.5057 52.8197 37.5L53.6797 36.98L54.1497 35.98C54.1567 35.9675 54.1668 35.9571 54.1791 35.9498C54.1914 35.9425 54.2054 35.9387 54.2197 35.9387C54.234 35.9387 54.2481 35.9425 54.2604 35.9498C54.2727 35.9571 54.2828 35.9675 54.2897 35.98Z" fill="white"/>
<path d="M17.2101 47.7601L17.8701 49.0801C17.8658 49.0965 17.8658 49.1137 17.8701 49.1301L19.0701 49.8501C19.0886 49.8618 19.104 49.878 19.1146 49.8973C19.1252 49.9165 19.1308 49.9381 19.1308 49.9601C19.1308 49.9821 19.1252 50.0037 19.1146 50.0229C19.104 50.0422 19.0886 50.0584 19.0701 50.0701L17.8701 50.7901L17.2101 52.1601C17.2004 52.1767 17.1865 52.1905 17.1698 52.2C17.1532 52.2096 17.1343 52.2146 17.1151 52.2146C17.0958 52.2146 17.0769 52.2096 17.0603 52.2C17.0436 52.1905 17.0297 52.1767 17.0201 52.1601L16.3801 50.8601C16.3636 50.8566 16.3465 50.8566 16.3301 50.8601L15.1301 50.1401C15.1115 50.1284 15.0961 50.1122 15.0855 50.0929C15.0749 50.0737 15.0693 50.0521 15.0693 50.0301C15.0693 50.0081 15.0749 49.9865 15.0855 49.9673C15.0961 49.948 15.1115 49.9318 15.1301 49.9201L16.3301 49.2001C16.3514 49.1888 16.3688 49.1714 16.3801 49.1501L17.0401 47.8301C17.0435 47.8122 17.0514 47.7954 17.0629 47.7813C17.0744 47.7672 17.0893 47.7562 17.1062 47.7493C17.123 47.7423 17.1414 47.7397 17.1595 47.7416C17.1776 47.7435 17.195 47.7498 17.2101 47.7601Z" fill="white"/>
<path opacity="0.5" d="M10.2895 25.8601L10.6495 26.5901L11.3095 26.9901C11.3202 26.9948 11.3293 27.0025 11.3357 27.0122C11.3421 27.022 11.3455 27.0334 11.3455 27.0451C11.3455 27.0568 11.3421 27.0682 11.3357 27.078C11.3293 27.0877 11.3202 27.0954 11.3095 27.1001L10.6495 27.5001L10.2895 28.2301C10.2895 28.2801 10.2095 28.2801 10.1795 28.2301L9.81951 27.5001L9.15951 27.1001C9.15119 27.0936 9.14446 27.0852 9.13984 27.0757C9.13522 27.0661 9.13281 27.0557 9.13281 27.0451C9.13281 27.0345 9.13522 27.0241 9.13984 27.0145C9.14446 27.005 9.15119 26.9967 9.15951 26.9901L9.81951 26.5901L10.2095 25.8601C10.2095 25.8601 10.2695 25.8601 10.2895 25.8601Z" fill="white"/>
<path opacity="0.5" d="M52.7993 44.93L53.1593 45.66L53.8193 46.06C53.83 46.0647 53.8391 46.0724 53.8455 46.0822C53.8519 46.0919 53.8553 46.1034 53.8553 46.115C53.8553 46.1267 53.8519 46.1381 53.8455 46.1479C53.8391 46.1577 53.83 46.1654 53.8193 46.17L53.1593 46.57L52.7993 47.3C52.7993 47.3 52.7193 47.3 52.6893 47.3L52.3293 46.57L51.6693 46.17C51.661 46.1635 51.6542 46.1551 51.6496 46.1456C51.645 46.1361 51.6426 46.1256 51.6426 46.115C51.6426 46.1044 51.645 46.094 51.6496 46.0845C51.6542 46.0749 51.661 46.0666 51.6693 46.06L52.3293 45.66L52.6893 44.93C52.6893 44.93 52.7793 44.86 52.7993 44.93Z" fill="white"/>
<defs>
<linearGradient id="paint0_linear" x1="32.4" y1="60.14" x2="32.4" y2="11.33" gradientUnits="userSpaceOnUse">
<stop stop-color="#75CDFF"/>
<stop offset="1" stop-color="#00F5C8"/>
</linearGradient>
<linearGradient id="paint1_linear" x1="32.79" y1="58.0899" x2="32.79" y2="20.4999" gradientUnits="userSpaceOnUse">
<stop stop-color="#FFE492"/>
<stop offset="1" stop-color="#FFB500"/>
</linearGradient>
<linearGradient id="paint2_linear" x1="247.107" y1="192.526" x2="252.94" y2="175.803" gradientUnits="userSpaceOnUse">
<stop stop-color="#FFE492"/>
<stop offset="1" stop-color="#FFB500"/>
</linearGradient>
<linearGradient id="paint3_linear" x1="49.2086" y1="16.5346" x2="52.752" y2="11.7965" gradientUnits="userSpaceOnUse">
<stop stop-color="#FFE492"/>
<stop offset="0.65" stop-color="#FFB500"/>
</linearGradient>
<linearGradient id="paint4_linear" x1="240.809" y1="157.886" x2="246.228" y2="148.246" gradientUnits="userSpaceOnUse">
<stop stop-color="#FFE492"/>
<stop offset="1" stop-color="#FFB500"/>
</linearGradient>
<linearGradient id="paint5_linear" x1="176.65" y1="120.034" x2="180.298" y2="113.863" gradientUnits="userSpaceOnUse">
<stop stop-color="#FFE492"/>
<stop offset="1" stop-color="#FFB500"/>
</linearGradient>
<linearGradient id="paint6_linear" x1="126.393" y1="56.8215" x2="127.379" y2="55.7169" gradientUnits="userSpaceOnUse">
<stop stop-color="#FFE492"/>
<stop offset="1" stop-color="#FFB500"/>
</linearGradient>
<linearGradient id="paint7_linear" x1="34.1197" y1="66.8699" x2="34.1197" y2="5.00994" gradientUnits="userSpaceOnUse">
<stop offset="0.39" stop-color="#71C4FF"/>
<stop offset="0.58" stop-color="#318BFF"/>
</linearGradient>
</defs>
</svg>
