<svg width="49" height="42" viewBox="0 0 49 42" fill="none" xmlns="http://www.w3.org/2000/svg">
<rect x="0.602309" y="0.370534" width="40.4032" height="32.315" rx="1.5" transform="matrix(0.97279 -0.231688 0.231829 0.972757 0.555488 9.74229)" fill="white" stroke="#CACBCC"/>
<rect x="4.42285" y="4.84277" width="40.4039" height="32.3144" rx="1.5" fill="white" stroke="#CACBCC"/>
<rect x="9.125" y="9.89044" width="31" height="22.2191" rx="1.5" stroke="#CACBCC"/>
<mask id="mask0" mask-type="alpha" maskUnits="userSpaceOnUse" x="9" y="10" width="31" height="22">
<rect x="10.125" y="10.9" width="29" height="20.2" rx="0.5" fill="white" stroke="#CACBCC"/>
</mask>
<g mask="url(#mask0)">
<path d="M17.1249 21.5048L9.62488 32.6096H24.6249L17.1249 21.5048Z" fill="#FFF5C6" stroke="#CACBCC" stroke-linecap="round" stroke-linejoin="round"/>
<path d="M29.6251 13.4296L18.6251 32.6106H40.6251L29.6251 13.4296Z" fill="#FFF5C6" stroke="#CACBCC" stroke-linecap="round" stroke-linejoin="round"/>
<path d="M21.1249 15.4483C21.1249 16.8492 20.0011 17.9768 18.6249 17.9768C17.2486 17.9768 16.1249 16.8492 16.1249 15.4483C16.1249 14.0473 17.2486 12.9197 18.6249 12.9197C20.0011 12.9197 21.1249 14.0473 21.1249 15.4483Z" fill="#FFF5C6" stroke="#CACBCC"/>
</g>
</svg>
