<svg width="375" height="300" viewBox="0 0 375 300" fill="none" xmlns="http://www.w3.org/2000/svg">
<g clip-path="url(#clip0)">
<path d="M99.69 269.599C127.133 269.599 149.38 268.26 149.38 266.609C149.38 264.958 127.133 263.619 99.69 263.619C72.247 263.619 50 264.958 50 266.609C50 268.26 72.247 269.599 99.69 269.599Z" fill="#9DAFED"/>
<path d="M220.47 104.85L209.19 106.98C206.78 107.39 204.72 105.83 203.78 103.57C200.69 96.1301 198.64 80.4001 196.01 76.8001C195.01 75.4401 192.68 72.8001 191.79 70.4501C191.42 69.4501 191.25 68.7301 190.58 67.1701C190.118 66.1342 189.545 65.1517 188.87 64.2401C188.46 63.6901 187.32 62.1701 188.38 61.5301C188.85 61.2401 189.47 61.6101 189.68 61.8001C190.134 62.1679 190.541 62.5912 190.89 63.0601C191.516 63.7912 192.184 64.4857 192.89 65.1401C192.89 65.1401 191.23 62.1401 190.58 61.2501C190.14 60.6401 188.84 59.0701 189.86 58.2501C190.098 58.1176 190.37 58.0574 190.641 58.0769C190.913 58.0965 191.173 58.1949 191.39 58.3601C191.792 58.7628 192.129 59.2249 192.39 59.7301C192.79 60.3301 194.87 62.8901 194.87 62.8901C194.87 62.8901 192.87 59.0301 192.37 58.0801C191.95 57.3301 190.61 55.3101 192.04 54.4801C192.99 53.9301 194.15 55.4801 194.76 56.4801C195.58 57.7601 197.81 61.8801 197.81 61.8801L196.16 57.0601C196.16 57.0601 195.38 55.0601 196.67 54.5401C197.96 54.0201 198.53 55.4701 198.85 56.1401C200.37 59.3601 201.85 62.7901 202.49 64.7001C203.39 67.3201 205.37 60.5001 207.49 61.2501C209.61 62.0001 203.31 72.7001 205.26 77.2501L212.26 93.3801L218.26 91.2701L220.47 104.85Z" fill="white" stroke="#1F1A54" stroke-width="0.74" stroke-linecap="round" stroke-linejoin="round"/>
<path d="M201 66.8691C201 66.8691 199.33 68.6791 199.53 70.1491C198.879 69.5297 198.036 69.1521 197.14 69.0791" stroke="#1F1A54" stroke-width="0.74" stroke-linecap="round" stroke-linejoin="round"/>
<path d="M250.5 270.03C267.582 270.03 281.43 268.794 281.43 267.27C281.43 265.745 267.582 264.51 250.5 264.51C233.418 264.51 219.57 265.745 219.57 267.27C219.57 268.794 233.418 270.03 250.5 270.03Z" fill="#9DAFED"/>
<path d="M224.39 261.749C224.39 261.749 224.07 262.139 224.39 263.499C224.82 265.369 226.51 266.859 232.03 266.789C235.69 266.789 253.09 266.069 254.83 265.869C256.57 265.669 255.11 263.059 254.47 260.939C254.47 260.939 231.59 264.809 227.29 263.829C225.38 263.359 224.29 262.629 224.39 261.749Z" fill="white"/>
<path d="M237.78 256.21C237.048 256.583 236.297 256.916 235.53 257.21C235.06 257.4 234.53 257.58 234.08 257.74L233.08 258.05C231.58 258.51 230 258.94 228.85 259.24C227.39 259.64 225.71 259.94 225.01 260.61C224.694 260.882 224.476 261.251 224.39 261.66C224.29 262.57 225.39 263.3 227.29 263.74C231.59 264.74 254.47 260.85 254.47 260.85C254.47 260.85 254.08 259.19 253.6 256.3C253.327 256.405 253.046 256.489 252.76 256.55C251.243 256.887 249.662 256.8 248.19 256.3C246.593 255.733 245.064 254.992 243.63 254.09C242.7 253.5 242.11 253.03 242.19 252.92C241.626 253.58 240.973 254.159 240.25 254.64C239.465 255.221 238.639 255.746 237.78 256.21Z" fill="white"/>
<path d="M243.63 248.311L243.74 253.961L243.63 254.151C245.064 255.053 246.593 255.794 248.19 256.361C249.662 256.861 251.242 256.947 252.76 256.611V256.351V248.351L243.63 248.311Z" fill="#FFD400"/>
<path d="M224.39 261.751C224.29 262.661 225.39 263.391 227.29 263.831C231.59 264.831 254.47 260.941 254.47 260.941C254.47 260.941 254.08 259.281 253.6 256.391" stroke="#1F1A54" stroke-width="0.8" stroke-linecap="round" stroke-linejoin="round"/>
<path d="M253.6 256.36C253.327 256.466 253.046 256.549 252.76 256.61C251.243 256.947 249.662 256.861 248.19 256.36C246.593 255.794 245.064 255.053 243.63 254.15C242.7 253.56 242.11 253.09 242.19 252.98C241.626 253.641 240.973 254.219 240.25 254.7C239.463 255.261 238.638 255.766 237.78 256.21C237.048 256.583 236.297 256.917 235.53 257.21C235.06 257.4 234.53 257.58 234.08 257.74L233.08 258.05C231.58 258.51 230 258.94 228.85 259.24C227.39 259.64 225.71 259.94 225.01 260.61C224.694 260.883 224.476 261.252 224.39 261.66" stroke="#1F1A54" stroke-width="0.8" stroke-linecap="round" stroke-linejoin="round"/>
<path d="M224.39 261.749C224.39 261.749 224.07 262.139 224.39 263.499C224.82 265.369 226.51 266.859 232.03 266.789C235.69 266.789 253.09 266.069 254.83 265.869C256.57 265.669 255.11 263.059 254.47 260.939" stroke="#1F1A54" stroke-width="0.8" stroke-linecap="round" stroke-linejoin="round"/>
<path d="M241.24 255.82L240.25 254.71L239.24 253.58" stroke="#1F1A54" stroke-width="0.8" stroke-linecap="round" stroke-linejoin="round"/>
<path d="M238.8 257.591L237.78 256.211L236.99 255.141" stroke="#1F1A54" stroke-width="0.8" stroke-linecap="round" stroke-linejoin="round"/>
<path d="M236.4 258.659L235.53 257.259L234.76 256.029" stroke="#1F1A54" stroke-width="0.8" stroke-linecap="round" stroke-linejoin="round"/>
<path d="M234 259.559L233.08 258.099L232.35 256.939" stroke="#1F1A54" stroke-width="0.8" stroke-linecap="round" stroke-linejoin="round"/>
<path d="M252.71 256.351V248.311H243.63L243.74 253.961" stroke="#1F1A54" stroke-width="0.8" stroke-linecap="round" stroke-linejoin="round"/>
<path d="M245.87 263.441C245.87 263.441 245.55 263.841 245.87 265.201C246.3 267.071 247.99 268.551 253.52 268.481C257.17 268.481 274.58 267.771 276.31 267.571C278.04 267.371 276.59 264.751 275.96 262.641C275.96 262.641 253.08 266.501 248.78 265.521C246.86 265.091 245.77 264.351 245.87 263.441Z" fill="white"/>
<path d="M259.26 257.93C258.531 258.308 257.779 258.642 257.01 258.93C256.54 259.12 256.01 259.31 255.56 259.46L254.56 259.77C253.05 260.24 251.47 260.67 250.33 260.97C248.86 261.36 247.18 261.67 246.48 262.34C246.173 262.599 245.956 262.949 245.86 263.34C245.76 264.25 246.86 264.99 248.77 265.42C253.07 266.42 275.95 262.54 275.95 262.54C275.95 262.54 275.55 260.88 275.07 257.99C274.797 258.095 274.516 258.178 274.23 258.24C272.711 258.566 271.132 258.477 269.66 257.98C268.064 257.411 266.535 256.67 265.1 255.77C264.17 255.19 263.58 254.71 263.67 254.6C263.084 255.264 262.411 255.846 261.67 256.33C260.904 256.917 260.099 257.452 259.26 257.93Z" fill="white"/>
<path d="M265.11 250.029L265.23 255.679L265.11 255.869C266.545 256.77 268.074 257.511 269.67 258.079C271.142 258.576 272.721 258.666 274.24 258.339L274.19 258.069V250.069L265.11 250.029Z" fill="#FFD400"/>
<path d="M245.87 263.44C245.77 264.35 246.87 265.09 248.78 265.52C253.08 266.52 275.96 262.64 275.96 262.64C275.96 262.64 275.56 260.98 275.08 258.09" stroke="#1F1A54" stroke-width="0.8" stroke-linecap="round" stroke-linejoin="round"/>
<path d="M275.08 258.089C274.807 258.194 274.526 258.278 274.24 258.339C272.721 258.666 271.142 258.576 269.67 258.079C268.074 257.511 266.545 256.77 265.11 255.869C264.18 255.289 263.59 254.809 263.68 254.699C263.095 255.364 262.422 255.945 261.68 256.429C260.892 256.985 260.067 257.486 259.21 257.929C258.481 258.308 257.73 258.642 256.96 258.929C256.49 259.119 255.96 259.309 255.51 259.459L254.51 259.769C253 260.239 251.42 260.669 250.28 260.969C248.81 261.359 247.13 261.669 246.43 262.339C246.123 262.599 245.906 262.949 245.81 263.339" stroke="#1F1A54" stroke-width="0.8" stroke-linecap="round" stroke-linejoin="round"/>
<path d="M245.87 263.431C245.87 263.431 245.55 263.831 245.87 265.191C246.3 267.061 247.99 268.541 253.52 268.471C257.17 268.471 274.58 267.761 276.31 267.561C278.04 267.361 276.59 264.741 275.96 262.631" stroke="#1F1A54" stroke-width="0.8" stroke-linecap="round" stroke-linejoin="round"/>
<path d="M262.72 257.541L261.73 256.431L260.72 255.301" stroke="#1F1A54" stroke-width="0.8" stroke-linecap="round" stroke-linejoin="round"/>
<path d="M260.28 259.319L259.26 257.939L258.47 256.859" stroke="#1F1A54" stroke-width="0.8" stroke-linecap="round" stroke-linejoin="round"/>
<path d="M257.88 260.38L257.01 258.99L256.25 257.76" stroke="#1F1A54" stroke-width="0.8" stroke-linecap="round" stroke-linejoin="round"/>
<path d="M255.48 261.28L254.57 259.82L253.84 258.66" stroke="#1F1A54" stroke-width="0.8" stroke-linecap="round" stroke-linejoin="round"/>
<path d="M274.19 258.069V250.029H265.12L265.23 255.689" stroke="#1F1A54" stroke-width="0.8" stroke-linecap="round" stroke-linejoin="round"/>
<path d="M256.14 186.75L254.48 204.86L256.2 248.31H242C240.84 229.07 240 216.54 239.33 206.31C237.99 185.58 236.46 178.44 235.59 164.08C234.77 150.59 240.37 128.08 240.37 128.08C240.37 128.08 243.8 129.18 251.1 129.5C257.156 129.802 263.225 129.324 269.16 128.08C269.16 128.08 276.02 145.88 276.66 152.03C278.11 165.9 273.54 205.45 273.54 205.45L276 250.03H262.72L257.98 205.03L256.14 186.75Z" fill="#1F1A54"/>
<path d="M256.15 186.741L254.64 171.771L252.53 165.891" stroke="#1F1A54" stroke-width="0.8" stroke-linecap="round" stroke-linejoin="round"/>
<path d="M256.14 186.75L254.48 204.86L256.2 248.31H242C240.84 229.07 240 216.54 239.33 206.31C237.99 185.58 236.46 178.44 235.59 164.08C234.77 150.59 240.37 128.08 240.37 128.08C240.37 128.08 243.8 129.18 251.1 129.5C257.156 129.802 263.225 129.324 269.16 128.08C269.16 128.08 276.02 145.88 276.66 152.03C278.11 165.9 273.54 205.45 273.54 205.45L276 250.03H262.72L257.98 205.03L256.14 186.75Z" stroke="#1F1A54" stroke-width="0.8" stroke-linecap="round" stroke-linejoin="round"/>
<path d="M256.14 186.75V186.74" stroke="#1F1A54" stroke-width="0.8" stroke-linecap="round" stroke-linejoin="round"/>
<path d="M238.63 81.539C239.4 76.669 236.31 53.299 241.84 47.909C248.69 41.219 261.58 38.299 265.84 45.669C266.893 46.0022 267.853 46.58 268.64 47.3552C269.428 48.1303 270.02 49.0809 270.37 50.129C272.61 57.409 272.02 71.299 275.16 83.889L238.63 81.539Z" fill="#1F1A54" stroke="#1F1A54" stroke-width="0.8" stroke-linecap="round" stroke-linejoin="round"/>
<path d="M262 60.0309C262.63 58.6476 263.743 57.5417 265.13 56.9209C267.68 55.8609 270.56 58.7409 269.78 62.7409C269.14 66.0709 266.47 67.8509 262.96 68.3609V78.8009L265.2 79.6909C264.983 80.9821 264.648 82.2508 264.2 83.4809C261.2 90.1209 254.39 91.2009 251.95 90.5809C251.039 90.3745 250.179 89.9881 249.42 89.4444C248.661 88.9007 248.019 88.2106 247.531 87.4149C247.042 86.6191 246.718 85.7337 246.577 84.8108C246.436 83.8879 246.481 82.9461 246.71 82.0409C246.78 81.7209 246.9 81.2209 247.01 80.8109L247.19 80.0409L249.49 79.3009V75.0209C248.718 74.7049 247.997 74.277 247.35 73.7509C245.19 72.1109 243.67 69.2509 243.28 64.9609C243.049 61.1862 243.089 57.3998 243.4 53.6309C245.69 52.9009 249.24 48.6309 249.24 48.6309C250.612 51.1551 252.622 53.2755 255.07 54.7809C257.621 56.1877 259.955 57.956 262 60.0309ZM254.49 60.2409C254.451 60.0993 254.373 59.9714 254.265 59.8716C254.158 59.7717 254.024 59.7039 253.88 59.6757C253.736 59.6474 253.587 59.6599 253.45 59.7117C253.312 59.7635 253.192 59.8526 253.102 59.9689C253.013 60.0853 252.957 60.2243 252.942 60.3704C252.927 60.5165 252.953 60.6638 253.018 60.7959C253.082 60.928 253.181 61.0396 253.305 61.1182C253.429 61.1968 253.573 61.2393 253.72 61.2409C253.837 61.2273 253.95 61.1905 254.053 61.1327C254.156 61.0749 254.247 60.9972 254.319 60.9042C254.392 60.8111 254.445 60.7045 254.476 60.5907C254.507 60.4768 254.515 60.3579 254.5 60.2409H254.49ZM247.49 60.3609C247.516 60.2451 247.516 60.1249 247.49 60.0091C247.464 59.8933 247.412 59.7849 247.338 59.692C247.264 59.5991 247.17 59.5241 247.063 59.4726C246.956 59.421 246.839 59.3942 246.72 59.3942C246.601 59.3942 246.484 59.421 246.377 59.4726C246.27 59.5241 246.176 59.5991 246.102 59.692C246.028 59.7849 245.976 59.8933 245.949 60.0091C245.923 60.1249 245.923 60.2451 245.95 60.3609C245.923 60.4766 245.923 60.5969 245.949 60.7127C245.976 60.8285 246.028 60.9368 246.102 61.0297C246.176 61.1226 246.27 61.1976 246.377 61.2492C246.484 61.3007 246.601 61.3275 246.72 61.3275C246.839 61.3275 246.956 61.3007 247.063 61.2492C247.17 61.1976 247.264 61.1226 247.338 61.0297C247.412 60.9368 247.464 60.8285 247.49 60.7127C247.516 60.5969 247.516 60.4766 247.49 60.3609Z" fill="white"/>
<path d="M253.73 59.2709C253.931 59.2234 254.142 59.2394 254.333 59.3166C254.525 59.3937 254.688 59.5283 254.8 59.7018C254.912 59.8754 254.967 60.0793 254.959 60.2856C254.95 60.492 254.878 60.6906 254.752 60.8542C254.626 61.0179 254.452 61.1385 254.255 61.1995C254.058 61.2605 253.846 61.259 253.65 61.195C253.454 61.1311 253.282 61.0079 253.158 60.8425C253.035 60.677 252.965 60.4773 252.96 60.2709C252.944 60.1546 252.952 60.0364 252.983 59.9231C253.013 59.8099 253.065 59.7037 253.137 59.6108C253.209 59.5178 253.298 59.44 253.399 59.3816C253.501 59.3233 253.614 59.2857 253.73 59.2709Z" fill="#1F1A54"/>
<path d="M246.74 59.4004C246.956 59.4546 247.148 59.5795 247.285 59.7552C247.422 59.931 247.497 60.1475 247.497 60.3704C247.497 60.5933 247.422 60.8098 247.285 60.9856C247.148 61.1613 246.956 61.2862 246.74 61.3404C246.524 61.2862 246.332 61.1613 246.195 60.9856C246.057 60.8098 245.983 60.5933 245.983 60.3704C245.983 60.1475 246.057 59.931 246.195 59.7552C246.332 59.5795 246.524 59.4546 246.74 59.4004Z" fill="#1F1A54"/>
<path d="M255.1 57.3402C254.643 57.0591 254.116 56.9134 253.58 56.9202C253.008 56.9114 252.449 57.0828 251.98 57.4102" stroke="#1F1A54" stroke-width="0.8" stroke-linecap="round" stroke-linejoin="round"/>
<path d="M248.43 57.3402C247.973 57.059 247.446 56.9133 246.91 56.9202C246.339 56.9127 245.779 57.084 245.31 57.4102" stroke="#1F1A54" stroke-width="0.8" stroke-linecap="round" stroke-linejoin="round"/>
<path d="M256.33 66.0703C256.104 66.8769 255.659 67.6053 255.045 68.1752C254.431 68.7452 253.671 69.1345 252.85 69.3003" stroke="#1F1A54" stroke-width="0.8" stroke-linecap="round" stroke-linejoin="round"/>
<path d="M251.31 64.75C251.001 64.9096 250.658 64.9929 250.31 64.9929C249.962 64.9929 249.619 64.9096 249.31 64.75" stroke="#1F1A54" stroke-width="0.8" stroke-linecap="round" stroke-linejoin="round"/>
<path d="M266.41 60.3594C266.41 60.3594 264.31 60.6794 263.99 63.9994" stroke="#1F1A54" stroke-width="0.8" stroke-miterlimit="10" stroke-linecap="round"/>
<path d="M249.5 75.0194V79.2994L247.2 80.0394L247.02 80.8094C246.91 81.2194 246.79 81.7194 246.72 82.0394C246.492 82.9473 246.449 83.8918 246.592 84.8169C246.735 85.742 247.063 86.6289 247.555 87.4251C248.048 88.2214 248.695 88.9108 249.458 89.4526C250.222 89.9944 251.086 90.3775 252 90.5794C254.44 91.1994 261.21 90.1194 264.25 83.4794C264.699 82.2493 265.033 80.9807 265.25 79.6894L263 78.7994V68.3594" stroke="#1F1A54" stroke-width="0.8" stroke-linecap="round" stroke-linejoin="round"/>
<path d="M261.75 60.6505C261.818 60.4364 261.905 60.2289 262.01 60.0305C262.64 58.6473 263.753 57.5414 265.14 56.9205C267.69 55.8605 270.57 58.7405 269.79 62.7405C269.15 66.0705 266.48 67.8505 262.97 68.3605" stroke="#1F1A54" stroke-width="0.8" stroke-linecap="round" stroke-linejoin="round"/>
<path d="M262 60.0295C259.957 57.9773 257.63 56.2295 255.09 54.8395C252.643 53.3341 250.632 51.2137 249.26 48.6895C249.26 48.6895 245.71 52.9295 243.42 53.6895" stroke="#1F1A54" stroke-width="0.8" stroke-linecap="round" stroke-linejoin="round"/>
<path d="M243.4 53.6094V53.6594C243.089 57.4283 243.049 61.2147 243.28 64.9894C243.67 69.2794 245.19 72.1394 247.35 73.7794C248.002 74.2958 248.726 74.7136 249.5 75.0194C250.736 75.5066 252.088 75.6247 253.39 75.3594L253.71 75.2894C255.258 74.9671 256.688 74.223 257.84 73.1394" stroke="#1F1A54" stroke-width="0.8" stroke-linecap="round" stroke-linejoin="round"/>
<path d="M268 100.75L270.88 110.46L283.88 107.04C283.88 107.04 281 90.7497 278.77 87.0197C276.31 82.9697 265.21 79.6797 265.21 79.6797C264.995 80.9746 264.66 82.2467 264.21 83.4797C261.21 90.1197 254.4 91.1997 251.95 90.5797C251.039 90.3733 250.179 89.9869 249.42 89.4432C248.661 88.8995 248.019 88.2094 247.531 87.4137C247.042 86.6179 246.718 85.7325 246.577 84.8096C246.436 83.8867 246.481 82.9449 246.71 82.0397C246.86 81.3997 247.21 80.0397 247.21 80.0397C247.21 80.0397 240.79 80.8797 238.61 81.5397C233.91 82.9697 217.86 90.1697 217.86 90.1697L220.45 105.9C220.45 105.9 231.53 99.8997 233.19 101.64C234.85 103.38 238.39 115.48 239.28 119.74C239.931 122.497 240.287 125.317 240.34 128.15C240.34 128.15 243.06 129.15 249.88 129.49C256.327 129.775 262.785 129.326 269.13 128.15L272.87 110.89" fill="#FFD400"/>
<path d="M268 100.75L270.88 110.46L283.88 107.04C283.88 107.04 281 90.7497 278.77 87.0197C276.31 82.9697 265.21 79.6797 265.21 79.6797C264.995 80.9746 264.66 82.2467 264.21 83.4797C261.21 90.1197 254.4 91.1997 251.95 90.5797C251.039 90.3733 250.179 89.9869 249.42 89.4432C248.661 88.8995 248.019 88.2094 247.531 87.4137C247.042 86.6179 246.718 85.7325 246.577 84.8096C246.436 83.8867 246.481 82.9449 246.71 82.0397C246.86 81.3997 247.21 80.0397 247.21 80.0397C247.21 80.0397 240.79 80.8797 238.61 81.5397C233.91 82.9697 217.86 90.1697 217.86 90.1697L220.45 105.9C220.45 105.9 231.53 99.8997 233.19 101.64C234.85 103.38 238.39 115.48 239.28 119.74C239.931 122.497 240.287 125.317 240.34 128.15C240.34 128.15 243.06 129.15 249.88 129.49C256.327 129.775 262.785 129.326 269.13 128.15L272.87 110.89" stroke="#1F1A54" stroke-width="0.8" stroke-linecap="round" stroke-linejoin="round"/>
<path d="M236.89 111.43C237.32 112.82 237.71 114.2 238.06 115.43H271.72L272.59 111.43H236.89Z" fill="#1F1A54"/>
<path d="M239.25 120.369C239.56 121.939 239.77 123.289 239.91 124.369H269.79L270.66 120.369H239.25Z" fill="#1F1A54"/>
<path d="M259.69 88.6709H279.36C279.149 88.1024 278.895 87.5509 278.6 87.0209C277.944 86.068 277.104 85.2556 276.13 84.6309H263.45C262.525 86.2496 261.238 87.6324 259.69 88.6709Z" fill="#1F1A54"/>
<path d="M246.8 129.301C247.68 129.381 248.65 129.441 249.72 129.491C253.27 129.635 256.827 129.571 260.37 129.301H246.8Z" fill="#1F1A54"/>
<path d="M230.89 102.5L231.54 102.94C231.54 102.94 231.54 102.75 231.54 102.5H230.89Z" fill="#1F1A54"/>
<path d="M248.35 88.6699C247.283 87.5857 246.605 86.1795 246.42 84.6699H230C229.12 85.8399 222.63 87.2399 221.8 88.6699H248.35Z" fill="#1F1A54"/>
<path d="M233.61 102.5C234.265 103.792 234.826 105.128 235.29 106.5H283.68C283.55 105.77 283.27 104.3 282.9 102.5H233.61Z" fill="#1F1A54"/>
<path d="M218.4 93.5605C218.51 95.1805 219.11 96.2005 219.19 98.0705L281.85 97.6005C281.47 96.2505 281.06 94.8705 280.64 93.6005L218.4 93.5605Z" fill="#1F1A54"/>
<path d="M256.32 194.569L254.06 172.079L251.95 166.189" stroke="#F2F4F6" stroke-width="0.5" stroke-linecap="round" stroke-linejoin="round"/>
<path d="M245.72 120.97L246.84 125.97L228.26 124.53L221.94 99.9004H240.9L244.64 114.36" fill="white"/>
<path d="M245.72 120.97L246.84 125.97L228.26 124.53L221.94 99.9004H240.9L244.64 114.36" stroke="#1F1A54" stroke-width="0.8" stroke-linecap="round" stroke-linejoin="round"/>
<path d="M245.85 110.471C247.839 110.599 249.786 111.101 251.59 111.951C254.467 113.319 257.485 114.368 260.59 115.081C267.07 116.081 270.33 116.161 274.49 116.891L272.65 110.081L283.23 107.221C283.23 107.221 289.04 128.151 278.23 127.001C270.37 126.181 260.02 122.321 254.72 121.271C254.469 121.223 254.215 121.189 253.96 121.171C252.011 120.912 250.041 120.851 248.08 120.991C247.298 121.116 246.502 121.116 245.72 120.991C243.58 120.631 239.4 119.851 238.38 119.231C236.91 118.321 233.92 114.041 233.92 114.041C233.92 114.041 233.79 111.561 236.71 113.171C239.63 114.781 243.44 115.051 244.63 114.391C245.3 114.021 245.71 113.561 244.41 113.161L243.61 110.441C243.61 110.441 245.2 110.441 245.85 110.471Z" fill="white" stroke="#1F1A54" stroke-width="0.8" stroke-linecap="round" stroke-linejoin="round"/>
<path d="M241.62 117.31C239.759 116.815 237.937 116.183 236.17 115.42L233.93 114.01" fill="white"/>
<path d="M241.62 117.31C239.759 116.815 237.937 116.183 236.17 115.42L233.93 114.01" stroke="#1F1A54" stroke-width="0.8" stroke-linecap="round" stroke-linejoin="round"/>
<path d="M242.08 118.852C239.995 118.471 237.975 117.798 236.08 116.852L242.08 118.852Z" fill="white"/>
<path d="M242.08 118.852C239.995 118.471 237.975 117.798 236.08 116.852" stroke="#1F1A54" stroke-width="0.8" stroke-linecap="round" stroke-linejoin="round"/>
<path d="M143.56 260.13C143.56 260.13 143.9 260.56 143.56 262.01C143.1 264.01 141.29 265.6 135.38 265.52C131.47 265.52 112.86 264.76 111 264.52C109.14 264.28 110.7 261.52 111.38 259.24C111.38 259.24 135.85 263.37 140.45 262.33C142.5 261.89 143.67 261.11 143.56 260.13Z" fill="white"/>
<path d="M126.6 252.629C127.437 253.227 128.316 253.765 129.23 254.239C130.012 254.66 130.816 255.037 131.64 255.369C132.15 255.569 132.64 255.759 133.2 255.929L134.26 256.259C135.87 256.759 137.56 257.259 138.78 257.539C140.35 257.969 142.15 258.289 142.89 259.009C143.23 259.294 143.466 259.685 143.56 260.119C143.67 261.119 142.5 261.879 140.45 262.349C135.85 263.349 111.38 259.259 111.38 259.259C111.38 259.259 111.8 257.489 112.31 254.399C112.601 254.514 112.902 254.601 113.21 254.659C114.834 255.023 116.526 254.929 118.1 254.389C119.815 253.79 121.459 253.002 123 252.039C124 251.409 124.64 250.909 124.54 250.789C125.142 251.491 125.834 252.11 126.6 252.629Z" fill="white"/>
<path d="M123 246.8L122.88 251.8L123 252C121.469 252.964 119.836 253.756 118.13 254.36C116.557 254.9 114.864 254.994 113.24 254.63L113.3 254.35V246.76L123 246.8Z" fill="#FFD400"/>
<path d="M76.4399 249.25C76.8855 250.018 77.3695 250.762 77.8899 251.48C78.2099 251.92 78.5499 252.36 78.8899 252.79C79.1199 253.06 79.3599 253.34 79.6199 253.62C80.7199 254.9 81.8899 256.18 82.7699 257.12C83.8799 258.3 85.2299 259.53 85.4699 260.54C85.6195 260.957 85.6195 261.413 85.4699 261.83C85.0699 262.71 83.6599 262.78 81.6699 262.08C77.2199 260.52 58.6699 244.08 58.6699 244.08C58.6699 244.08 59.9999 242.75 61.9999 240.4C62.2333 240.731 62.5052 241.034 62.8099 241.3C63.9664 242.362 65.3738 243.112 66.8999 243.48C69.1046 243.967 71.3666 244.142 73.6199 244C74.0199 244 74.2499 243.9 74.2499 243.82C74.3884 244.739 74.6543 245.635 75.0399 246.48C75.4452 247.433 75.9129 248.359 76.4399 249.25Z" fill="white"/>
<path d="M85.47 261.839C85.47 261.839 85.53 262.379 84.47 263.439C83.01 264.889 80.63 265.269 75.68 262.079C72.38 259.969 56.98 249.469 55.53 248.309C54.08 247.149 56.86 245.599 58.64 244.039C58.64 244.039 77.2 260.519 81.64 262.039C83.64 262.739 85.04 262.669 85.44 261.789L85.47 261.839Z" fill="white"/>
<path d="M76 239.161L73.6 243.651V244.001C71.3467 244.142 69.0847 243.967 66.88 243.481C65.354 243.112 63.9465 242.362 62.79 241.301L62.89 241.191L67.14 233.811L76 239.161Z" fill="#FFD400"/>
<path d="M143.56 260.13C143.67 261.13 142.5 261.89 140.45 262.36C135.85 263.36 111.38 259.27 111.38 259.27C111.38 259.27 111.8 257.5 112.31 254.41" stroke="#1F1A54" stroke-width="0.74" stroke-linecap="round" stroke-linejoin="round"/>
<path d="M112.31 254.409C112.601 254.524 112.903 254.611 113.21 254.669C114.834 255.033 116.526 254.939 118.1 254.399C119.816 253.797 121.459 253.005 123 252.039C124 251.409 124.64 250.909 124.54 250.789C125.151 251.493 125.854 252.112 126.63 252.629C127.468 253.227 128.346 253.765 129.26 254.239C130.042 254.66 130.847 255.037 131.67 255.369C132.18 255.569 132.67 255.759 133.23 255.929L134.29 256.259C135.9 256.759 137.59 257.259 138.81 257.539C140.38 257.969 142.18 258.289 142.92 259.009C143.26 259.294 143.496 259.685 143.59 260.119" stroke="#1F1A54" stroke-width="0.74" stroke-linecap="round" stroke-linejoin="round"/>
<path d="M143.56 260.12C143.56 260.12 143.9 260.55 143.56 262C143.1 264 141.29 265.59 135.38 265.51C131.47 265.51 112.86 264.75 111 264.51C109.14 264.27 110.7 261.51 111.38 259.23" stroke="#1F1A54" stroke-width="0.74" stroke-linecap="round" stroke-linejoin="round"/>
<path d="M125.54 253.82L126.6 252.63L127.68 251.43" stroke="#1F1A54" stroke-width="0.74" stroke-linecap="round" stroke-linejoin="round"/>
<path d="M128.15 255.72L129.23 254.25L130.08 253.09" stroke="#1F1A54" stroke-width="0.74" stroke-linecap="round" stroke-linejoin="round"/>
<path d="M130.71 256.861L131.64 255.371L132.46 254.051" stroke="#1F1A54" stroke-width="0.74" stroke-linecap="round" stroke-linejoin="round"/>
<path d="M133.28 257.82L134.26 256.26L135.04 255.02" stroke="#1F1A54" stroke-width="0.74" stroke-linecap="round" stroke-linejoin="round"/>
<path d="M74.2799 243.81C74.4184 244.729 74.6843 245.625 75.0699 246.47C75.4655 247.423 75.9232 248.348 76.4399 249.24C76.8855 250.008 77.3695 250.752 77.8899 251.47C78.2099 251.91 78.5499 252.35 78.8899 252.78C79.1199 253.05 79.3599 253.33 79.6199 253.61C80.7199 254.89 81.8899 256.17 82.7699 257.11C83.8799 258.29 85.2299 259.52 85.4699 260.53C85.6195 260.947 85.6195 261.403 85.4699 261.82V261.82C85.0699 262.7 83.6599 262.77 81.6699 262.07C77.2199 260.51 58.6699 244.07 58.6699 244.07C58.6699 244.07 59.9999 242.75 61.9999 240.4C62.2333 240.731 62.5052 241.034 62.8099 241.3C63.9664 242.362 65.3738 243.112 66.8999 243.48C69.1046 243.967 71.3666 244.142 73.6199 244C74.0199 244 74.2499 243.9 74.2499 243.82" stroke="#1F1A54" stroke-width="0.74" stroke-linecap="round" stroke-linejoin="round"/>
<path d="M85.47 261.839C85.47 261.839 85.53 262.379 84.47 263.439C83.01 264.889 80.63 265.269 75.68 262.079C72.38 259.969 56.98 249.469 55.53 248.309C54.08 247.149 56.86 245.599 58.64 244.039" stroke="#1F1A54" stroke-width="0.74" stroke-linecap="round" stroke-linejoin="round"/>
<path d="M73.54 246.939L75.07 246.489L76.62 246.029" stroke="#1F1A54" stroke-width="0.74" stroke-linecap="round" stroke-linejoin="round"/>
<path d="M74.7402 249.921L76.4402 249.251L77.7902 248.721" stroke="#1F1A54" stroke-width="0.74" stroke-linecap="round" stroke-linejoin="round"/>
<path d="M76.2998 252.251L77.8898 251.481L79.2798 250.811" stroke="#1F1A54" stroke-width="0.74" stroke-linecap="round" stroke-linejoin="round"/>
<path d="M77.98 254.43L79.64 253.63L80.96 252.99" stroke="#1F1A54" stroke-width="0.74" stroke-linecap="round" stroke-linejoin="round"/>
<path d="M62.9399 241.191L67.1899 233.811L75.9899 239.171L73.5999 243.661" stroke="#1F1A54" stroke-width="0.74" stroke-linecap="round" stroke-linejoin="round"/>
<path d="M113.27 254.391V246.801H122.97L122.85 251.841" stroke="#1F1A54" stroke-width="0.74" stroke-linecap="round" stroke-linejoin="round"/>
<path d="M105.72 175.679L99.89 204.449L78.54 241.229L66.27 233.229L83.88 199.999L84.19 149.539C84.19 149.539 114.25 155.179 128.19 150.719L124.72 246.819H110.53V208.049L105.72 175.679Z" fill="#1F1A54" stroke="#1F1A54" stroke-width="0.46" stroke-linecap="round" stroke-linejoin="round"/>
<path d="M105.72 175.679L110.51 208.029L110.53 246.799H124.73L128.2 150.699V150.689" fill="#1F1A54"/>
<path d="M105.72 175.679L110.51 208.029L110.53 246.799H124.73L128.2 150.699V150.689" stroke="#1F1A54" stroke-width="0.46" stroke-linecap="round" stroke-linejoin="round"/>
<path d="M113.35 166.999L105.72 175.679L99.89 204.459L78.54 241.229L66.27 233.209L83.88 199.989L84.19 149.529" fill="#1F1A54"/>
<path d="M113.35 166.999L105.72 175.679L99.89 204.459L78.54 241.229L66.27 233.209L83.88 199.989L84.19 149.529" stroke="#1F1A54" stroke-width="0.46" stroke-linecap="round" stroke-linejoin="round"/>
<path d="M111.01 170.43L106.26 175.57L105.45 180.23" stroke="#F2F4F6" stroke-width="0.5" stroke-linecap="round" stroke-linejoin="round"/>
<path d="M127.67 109.161C127.52 111.041 127.34 113.611 127.34 115.011C127.34 120.531 128.04 150.731 128.04 150.731C113.89 155.251 83.4299 149.531 83.4299 149.531V112.301L73.6199 112.441C73.6199 112.441 73.1899 90.3208 77.2899 85.3708C80.4999 81.4808 95.9399 75.8008 95.9399 75.8008L98.4999 78.9008C99.5251 80.1532 100.862 81.1133 102.377 81.6844C103.891 82.2554 105.53 82.4173 107.126 82.1537C108.723 81.8901 110.223 81.2102 111.473 80.1827C112.724 79.1552 113.681 77.8163 114.25 76.3008C114.25 76.3008 116.9 76.5908 122.87 79.1908C123.52 79.4708 124.21 79.3208 125.27 79.7308L143 86.5708L141.8 93.7508L140.36 104.381L136 104.841L131.38 105.371L129.17 106.461L127.63 109.461" fill="#FFD400"/>
<path d="M79.3501 93.25C79.1523 93.25 78.959 93.3086 78.7945 93.4185C78.6301 93.5284 78.5019 93.6846 78.4262 93.8673C78.3505 94.05 78.3307 94.2511 78.3693 94.4451C78.4079 94.6391 78.5031 94.8173 78.643 94.9571C78.7828 95.097 78.961 95.1922 79.155 95.2308C79.349 95.2694 79.5501 95.2496 79.7328 95.1739C79.9155 95.0982 80.0717 94.97 80.1816 94.8056C80.2914 94.6411 80.3501 94.4478 80.3501 94.25C80.3501 93.9848 80.2447 93.7304 80.0572 93.5429C79.8697 93.3554 79.6153 93.25 79.3501 93.25Z" fill="white"/>
<path d="M83.3896 84.75C83.1919 84.75 82.9985 84.8086 82.8341 84.9185C82.6696 85.0284 82.5415 85.1846 82.4658 85.3673C82.3901 85.55 82.3703 85.7511 82.4089 85.9451C82.4474 86.1391 82.5427 86.3173 82.6825 86.4571C82.8224 86.597 83.0006 86.6922 83.1946 86.7308C83.3885 86.7694 83.5896 86.7496 83.7723 86.6739C83.9551 86.5982 84.1112 86.47 84.2211 86.3056C84.331 86.1411 84.3896 85.9478 84.3896 85.75C84.3896 85.4848 84.2843 85.2304 84.0968 85.0429C83.9092 84.8554 83.6549 84.75 83.3896 84.75Z" fill="white"/>
<path d="M83.8599 102.291C83.6621 102.291 83.4687 102.35 83.3043 102.46C83.1398 102.569 83.0117 102.726 82.936 102.908C82.8603 103.091 82.8405 103.292 82.8791 103.486C82.9177 103.68 83.0129 103.858 83.1528 103.998C83.2926 104.138 83.4708 104.233 83.6648 104.272C83.8588 104.31 84.0598 104.291 84.2425 104.215C84.4253 104.139 84.5815 104.011 84.6913 103.847C84.8012 103.682 84.8599 103.489 84.8599 103.291C84.8599 103.026 84.7545 102.771 84.567 102.584C84.3794 102.396 84.1251 102.291 83.8599 102.291Z" fill="white"/>
<path d="M78.3599 106.57C78.1621 106.57 77.9687 106.629 77.8043 106.739C77.6398 106.849 77.5117 107.005 77.436 107.188C77.3603 107.37 77.3405 107.571 77.3791 107.765C77.4177 107.959 77.5129 108.138 77.6528 108.277C77.7926 108.417 77.9708 108.513 78.1648 108.551C78.3588 108.59 78.5598 108.57 78.7425 108.494C78.9253 108.419 79.0815 108.29 79.1913 108.126C79.3012 107.961 79.3599 107.768 79.3599 107.57C79.3599 107.305 79.2545 107.051 79.067 106.863C78.8794 106.676 78.6251 106.57 78.3599 106.57Z" fill="white"/>
<path d="M88.3799 93.25C88.1821 93.25 87.9888 93.3086 87.8243 93.4185C87.6599 93.5284 87.5317 93.6846 87.456 93.8673C87.3803 94.05 87.3605 94.2511 87.3991 94.4451C87.4377 94.6391 87.5329 94.8173 87.6728 94.9571C87.8126 95.097 87.9908 95.1922 88.1848 95.2308C88.3788 95.2694 88.5798 95.2496 88.7626 95.1739C88.9453 95.0982 89.1015 94.97 89.2114 94.8056C89.3212 94.6411 89.3799 94.4478 89.3799 94.25C89.3799 93.9848 89.2745 93.7304 89.087 93.5429C88.8995 93.3554 88.6451 93.25 88.3799 93.25Z" fill="white"/>
<path d="M88.3799 129.391C88.1821 129.391 87.9888 129.449 87.8243 129.559C87.6599 129.669 87.5317 129.825 87.456 130.008C87.3803 130.191 87.3605 130.392 87.3991 130.586C87.4377 130.78 87.5329 130.958 87.6728 131.098C87.8126 131.238 87.9908 131.333 88.1848 131.371C88.3788 131.41 88.5798 131.39 88.7626 131.315C88.9453 131.239 89.1015 131.111 89.2114 130.946C89.3212 130.782 89.3799 130.588 89.3799 130.391C89.3799 130.125 89.2745 129.871 89.087 129.684C88.8995 129.496 88.6451 129.391 88.3799 129.391Z" fill="white"/>
<path d="M92.8999 120.352C92.7021 120.352 92.5088 120.41 92.3443 120.52C92.1799 120.63 92.0517 120.786 91.976 120.969C91.9003 121.152 91.8805 121.353 91.9191 121.547C91.9577 121.741 92.0529 121.919 92.1928 122.059C92.3326 122.199 92.5108 122.294 92.7048 122.332C92.8988 122.371 93.0999 122.351 93.2826 122.275C93.4653 122.2 93.6215 122.072 93.7314 121.907C93.8413 121.743 93.8999 121.549 93.8999 121.352C93.8999 121.086 93.7945 120.832 93.607 120.644C93.4195 120.457 93.1651 120.352 92.8999 120.352Z" fill="white"/>
<path d="M92.8999 138.42C92.7021 138.42 92.5088 138.479 92.3443 138.588C92.1799 138.698 92.0517 138.855 91.976 139.037C91.9003 139.22 91.8805 139.421 91.9191 139.615C91.9577 139.809 92.0529 139.987 92.1928 140.127C92.3326 140.267 92.5108 140.362 92.7048 140.401C92.8988 140.439 93.0999 140.419 93.2826 140.344C93.4653 140.268 93.6215 140.14 93.7314 139.975C93.8413 139.811 93.8999 139.618 93.8999 139.42C93.8999 139.155 93.7945 138.9 93.607 138.713C93.4195 138.525 93.1651 138.42 92.8999 138.42Z" fill="white"/>
<path d="M97.4199 93.25C97.2221 93.25 97.0288 93.3086 96.8644 93.4185C96.6999 93.5284 96.5717 93.6846 96.496 93.8673C96.4204 94.05 96.4006 94.2511 96.4391 94.4451C96.4777 94.6391 96.573 94.8173 96.7128 94.9571C96.8527 95.097 97.0309 95.1922 97.2248 95.2308C97.4188 95.2694 97.6199 95.2496 97.8026 95.1739C97.9853 95.0982 98.1415 94.97 98.2514 94.8056C98.3613 94.6411 98.4199 94.4478 98.4199 94.25C98.4199 93.9848 98.3146 93.7304 98.127 93.5429C97.9395 93.3554 97.6851 93.25 97.4199 93.25Z" fill="white"/>
<path d="M97.4199 111.32C97.2221 111.32 97.0288 111.379 96.8644 111.489C96.6999 111.599 96.5717 111.755 96.496 111.938C96.4204 112.12 96.4006 112.321 96.4391 112.515C96.4777 112.709 96.573 112.888 96.7128 113.027C96.8527 113.167 97.0309 113.263 97.2248 113.301C97.4188 113.34 97.6199 113.32 97.8026 113.244C97.9853 113.169 98.1415 113.04 98.2514 112.876C98.3613 112.711 98.4199 112.518 98.4199 112.32C98.4199 112.055 98.3146 111.801 98.127 111.613C97.9395 111.426 97.6851 111.32 97.4199 111.32Z" fill="white"/>
<path d="M92.8999 102.291C92.7021 102.291 92.5088 102.35 92.3443 102.46C92.1799 102.569 92.0517 102.726 91.976 102.908C91.9003 103.091 91.8805 103.292 91.9191 103.486C91.9577 103.68 92.0529 103.858 92.1928 103.998C92.3326 104.138 92.5108 104.233 92.7048 104.272C92.8988 104.31 93.0999 104.291 93.2826 104.215C93.4653 104.139 93.6215 104.011 93.7314 103.847C93.8413 103.682 93.8999 103.489 93.8999 103.291C93.8999 103.026 93.7945 102.771 93.607 102.584C93.4195 102.396 93.1651 102.291 92.8999 102.291Z" fill="white"/>
<path d="M97.4199 129.391C97.2221 129.391 97.0288 129.449 96.8644 129.559C96.6999 129.669 96.5717 129.825 96.496 130.008C96.4204 130.191 96.4006 130.392 96.4391 130.586C96.4777 130.78 96.573 130.958 96.7128 131.098C96.8527 131.238 97.0309 131.333 97.2248 131.371C97.4188 131.41 97.6199 131.39 97.8026 131.315C97.9853 131.239 98.1415 131.111 98.2514 130.946C98.3613 130.782 98.4199 130.588 98.4199 130.391C98.4199 130.125 98.3146 129.871 98.127 129.684C97.9395 129.496 97.6851 129.391 97.4199 129.391Z" fill="white"/>
<path d="M92.8999 84.2207C92.7021 84.2207 92.5088 84.2794 92.3443 84.3892C92.1799 84.4991 92.0517 84.6553 91.976 84.838C91.9003 85.0207 91.8805 85.2218 91.9191 85.4158C91.9577 85.6098 92.0529 85.788 92.1928 85.9278C92.3326 86.0677 92.5108 86.1629 92.7048 86.2015C92.8988 86.2401 93.0999 86.2203 93.2826 86.1446C93.4653 86.0689 93.6215 85.9407 93.7314 85.7763C93.8413 85.6118 93.8999 85.4185 93.8999 85.2207C93.8999 84.9555 93.7945 84.7011 93.607 84.5136C93.4195 84.3261 93.1651 84.2207 92.8999 84.2207Z" fill="white"/>
<path d="M102.49 84.2207C102.292 84.2207 102.099 84.2794 101.934 84.3892C101.77 84.4991 101.642 84.6553 101.566 84.838C101.49 85.0207 101.47 85.2218 101.509 85.4158C101.548 85.6098 101.643 85.788 101.783 85.9278C101.922 86.0677 102.101 86.1629 102.295 86.2015C102.489 86.2401 102.69 86.2203 102.872 86.1446C103.055 86.0689 103.211 85.9407 103.321 85.7763C103.431 85.6118 103.49 85.4185 103.49 85.2207C103.49 84.9555 103.384 84.7011 103.197 84.5136C103.009 84.3261 102.755 84.2207 102.49 84.2207Z" fill="white"/>
<path d="M111.12 84.2207C110.922 84.2207 110.729 84.2794 110.564 84.3892C110.4 84.4991 110.271 84.6553 110.196 84.838C110.12 85.0207 110.1 85.2218 110.139 85.4158C110.177 85.6098 110.273 85.788 110.413 85.9278C110.552 86.0677 110.731 86.1629 110.925 86.2015C111.119 86.2401 111.32 86.2203 111.502 86.1446C111.685 86.0689 111.841 85.9407 111.951 85.7763C112.061 85.6118 112.12 85.4185 112.12 85.2207C112.12 84.9555 112.014 84.7011 111.827 84.5136C111.639 84.3261 111.385 84.2207 111.12 84.2207Z" fill="white"/>
<path d="M120.72 84.2207C120.522 84.2207 120.329 84.2794 120.164 84.3892C120 84.4991 119.872 84.6553 119.796 84.838C119.72 85.0207 119.7 85.2218 119.739 85.4158C119.778 85.6098 119.873 85.788 120.013 85.9278C120.152 86.0677 120.331 86.1629 120.525 86.2015C120.719 86.2401 120.92 86.2203 121.102 86.1446C121.285 86.0689 121.441 85.9407 121.551 85.7763C121.661 85.6118 121.72 85.4185 121.72 85.2207C121.72 84.9555 121.614 84.7011 121.427 84.5136C121.239 84.3261 120.985 84.2207 120.72 84.2207Z" fill="white"/>
<path d="M129.19 85.2012C128.992 85.2012 128.799 85.2598 128.634 85.3697C128.47 85.4796 128.342 85.6358 128.266 85.8185C128.19 86.0012 128.171 86.2023 128.209 86.3963C128.248 86.5902 128.343 86.7684 128.483 86.9083C128.623 87.0481 128.801 87.1434 128.995 87.182C129.189 87.2205 129.39 87.2007 129.573 87.125C129.755 87.0494 129.912 86.9212 130.021 86.7567C130.131 86.5923 130.19 86.399 130.19 86.2012C130.19 85.936 130.085 85.6816 129.897 85.4941C129.71 85.3065 129.455 85.2012 129.19 85.2012Z" fill="white"/>
<path d="M116.62 77.75C116.422 77.75 116.229 77.8086 116.064 77.9185C115.9 78.0284 115.771 78.1846 115.696 78.3673C115.62 78.55 115.6 78.7511 115.639 78.9451C115.677 79.1391 115.773 79.3173 115.913 79.4571C116.052 79.597 116.231 79.6922 116.425 79.7308C116.619 79.7694 116.82 79.7496 117.002 79.6739C117.185 79.5982 117.341 79.47 117.451 79.3056C117.561 79.1411 117.62 78.9478 117.62 78.75C117.62 78.4848 117.514 78.2304 117.327 78.0429C117.139 77.8554 116.885 77.75 116.62 77.75Z" fill="white"/>
<path d="M95.4497 77.75C95.2519 77.75 95.0586 77.8086 94.8941 77.9185C94.7297 78.0284 94.6015 78.1846 94.5258 78.3673C94.4501 78.55 94.4303 78.7511 94.4689 78.9451C94.5075 79.1391 94.6027 79.3173 94.7426 79.4571C94.8825 79.597 95.0606 79.6922 95.2546 79.7308C95.4486 79.7694 95.6497 79.7496 95.8324 79.6739C96.0151 79.5982 96.1713 79.47 96.2812 79.3056C96.3911 79.1411 96.4497 78.9478 96.4497 78.75C96.4497 78.4848 96.3444 78.2304 96.1568 78.0429C95.9693 77.8554 95.7149 77.75 95.4497 77.75Z" fill="white"/>
<path d="M101.93 122.32C102.127 122.32 102.321 122.262 102.485 122.152C102.65 122.042 102.778 121.886 102.854 121.703C102.929 121.52 102.949 121.319 102.91 121.125C102.872 120.931 102.777 120.753 102.637 120.613C102.497 120.473 102.319 120.378 102.125 120.34C101.931 120.301 101.73 120.321 101.547 120.396C101.364 120.472 101.208 120.6 101.098 120.765C100.988 120.929 100.93 121.123 100.93 121.32C100.93 121.586 101.035 121.84 101.223 122.027C101.41 122.215 101.664 122.32 101.93 122.32Z" fill="white"/>
<path d="M101.93 104.25C102.127 104.25 102.321 104.191 102.485 104.081C102.65 103.972 102.778 103.815 102.854 103.633C102.929 103.45 102.949 103.249 102.91 103.055C102.872 102.861 102.777 102.683 102.637 102.543C102.497 102.403 102.319 102.308 102.125 102.269C101.931 102.231 101.73 102.25 101.547 102.326C101.364 102.402 101.208 102.53 101.098 102.694C100.988 102.859 100.93 103.052 100.93 103.25C100.93 103.515 101.035 103.77 101.223 103.957C101.41 104.145 101.664 104.25 101.93 104.25Z" fill="white"/>
<path d="M111.12 120.23C110.922 120.23 110.729 120.289 110.564 120.399C110.4 120.509 110.271 120.665 110.196 120.848C110.12 121.031 110.1 121.232 110.139 121.426C110.177 121.62 110.273 121.798 110.413 121.938C110.552 122.077 110.731 122.173 110.925 122.211C111.119 122.25 111.32 122.23 111.502 122.154C111.685 122.079 111.841 121.95 111.951 121.786C112.061 121.622 112.12 121.428 112.12 121.23C112.12 120.965 112.014 120.711 111.827 120.523C111.639 120.336 111.385 120.23 111.12 120.23Z" fill="white"/>
<path d="M106.61 93.1309C106.412 93.1309 106.219 93.1895 106.054 93.2994C105.89 93.4093 105.762 93.5655 105.686 93.7482C105.61 93.9309 105.59 94.132 105.629 94.3259C105.668 94.5199 105.763 94.6981 105.903 94.838C106.043 94.9778 106.221 95.0731 106.415 95.1116C106.609 95.1502 106.81 95.1304 106.993 95.0547C107.175 94.979 107.331 94.8509 107.441 94.6864C107.551 94.522 107.61 94.3286 107.61 94.1309C107.61 93.8656 107.505 93.6113 107.317 93.4238C107.129 93.2362 106.875 93.1309 106.61 93.1309Z" fill="white"/>
<path d="M111.12 102.16C110.922 102.16 110.729 102.219 110.564 102.329C110.4 102.439 110.271 102.595 110.196 102.777C110.12 102.96 110.1 103.161 110.139 103.355C110.177 103.549 110.273 103.727 110.413 103.867C110.552 104.007 110.731 104.102 110.925 104.141C111.119 104.18 111.32 104.16 111.502 104.084C111.685 104.008 111.841 103.88 111.951 103.716C112.061 103.551 112.12 103.358 112.12 103.16C112.12 102.895 112.014 102.641 111.827 102.453C111.639 102.266 111.385 102.16 111.12 102.16Z" fill="white"/>
<path d="M106.61 111.201C106.412 111.201 106.219 111.26 106.054 111.37C105.89 111.48 105.762 111.636 105.686 111.818C105.61 112.001 105.59 112.202 105.629 112.396C105.668 112.59 105.763 112.768 105.903 112.908C106.043 113.048 106.221 113.143 106.415 113.182C106.609 113.221 106.81 113.201 106.993 113.125C107.175 113.049 107.331 112.921 107.441 112.757C107.551 112.592 107.61 112.399 107.61 112.201C107.61 111.936 107.505 111.682 107.317 111.494C107.129 111.307 106.875 111.201 106.61 111.201Z" fill="white"/>
<path d="M106.61 129.262C106.412 129.262 106.219 129.32 106.054 129.43C105.89 129.54 105.762 129.696 105.686 129.879C105.61 130.062 105.59 130.263 105.629 130.457C105.668 130.651 105.763 130.829 105.903 130.969C106.043 131.109 106.221 131.204 106.415 131.243C106.609 131.281 106.81 131.261 106.993 131.186C107.175 131.11 107.331 130.982 107.441 130.817C107.551 130.653 107.61 130.46 107.61 130.262C107.61 129.997 107.505 129.742 107.317 129.555C107.129 129.367 106.875 129.262 106.61 129.262Z" fill="white"/>
<path d="M102.05 138.75C101.852 138.75 101.659 138.809 101.494 138.919C101.33 139.028 101.202 139.185 101.126 139.367C101.05 139.55 101.03 139.751 101.069 139.945C101.108 140.139 101.203 140.317 101.343 140.457C101.483 140.597 101.661 140.692 101.855 140.731C102.049 140.769 102.25 140.75 102.432 140.674C102.615 140.598 102.771 140.47 102.881 140.306C102.991 140.141 103.05 139.948 103.05 139.75C103.05 139.485 102.944 139.23 102.757 139.043C102.569 138.855 102.315 138.75 102.05 138.75Z" fill="white"/>
<path d="M115.64 95.0898C115.837 95.0898 116.031 95.0312 116.195 94.9213C116.36 94.8114 116.488 94.6553 116.564 94.4725C116.639 94.2898 116.659 94.0887 116.62 93.8948C116.582 93.7008 116.487 93.5226 116.347 93.3827C116.207 93.2429 116.029 93.1476 115.835 93.1091C115.641 93.0705 115.44 93.0903 115.257 93.166C115.074 93.2417 114.918 93.3698 114.808 93.5343C114.698 93.6987 114.64 93.8921 114.64 94.0898C114.64 94.3551 114.745 94.6094 114.933 94.797C115.12 94.9845 115.374 95.0898 115.64 95.0898Z" fill="white"/>
<path d="M115.64 113.16C115.837 113.16 116.031 113.102 116.195 112.992C116.36 112.882 116.488 112.726 116.564 112.543C116.639 112.36 116.659 112.159 116.62 111.965C116.582 111.771 116.487 111.593 116.347 111.453C116.207 111.313 116.029 111.218 115.835 111.179C115.641 111.141 115.44 111.161 115.257 111.236C115.074 111.312 114.918 111.44 114.808 111.605C114.698 111.769 114.64 111.962 114.64 112.16C114.64 112.425 114.745 112.68 114.933 112.867C115.12 113.055 115.374 113.16 115.64 113.16Z" fill="white"/>
<path d="M116.62 130.25C116.62 130.052 116.561 129.859 116.451 129.694C116.341 129.53 116.185 129.402 116.002 129.326C115.82 129.25 115.619 129.231 115.425 129.269C115.231 129.308 115.052 129.403 114.913 129.543C114.773 129.683 114.677 129.861 114.639 130.055C114.6 130.249 114.62 130.45 114.696 130.633C114.771 130.815 114.9 130.972 115.064 131.081C115.229 131.191 115.422 131.25 115.62 131.25C115.885 131.25 116.139 131.145 116.327 130.957C116.514 130.77 116.62 130.515 116.62 130.25Z" fill="white"/>
<path d="M120.16 120.23C119.962 120.23 119.769 120.289 119.604 120.399C119.44 120.509 119.311 120.665 119.236 120.848C119.16 121.031 119.14 121.232 119.179 121.426C119.217 121.62 119.313 121.798 119.453 121.938C119.592 122.077 119.771 122.173 119.965 122.211C120.159 122.25 120.36 122.23 120.542 122.154C120.725 122.079 120.881 121.95 120.991 121.786C121.101 121.622 121.16 121.428 121.16 121.23C121.16 120.965 121.054 120.711 120.867 120.523C120.679 120.336 120.425 120.23 120.16 120.23Z" fill="white"/>
<path d="M120.16 138.75C119.894 138.75 119.64 138.855 119.453 139.043C119.265 139.23 119.16 139.485 119.16 139.75C119.16 140.015 119.265 140.27 119.453 140.457C119.64 140.645 119.894 140.75 120.16 140.75C120.425 140.75 120.679 140.645 120.867 140.457C121.054 140.27 121.16 140.015 121.16 139.75C121.16 139.485 121.054 139.23 120.867 139.043C120.679 138.855 120.425 138.75 120.16 138.75Z" fill="white"/>
<path d="M111.07 138.75C110.872 138.75 110.679 138.809 110.514 138.919C110.35 139.028 110.222 139.185 110.146 139.367C110.07 139.55 110.05 139.751 110.089 139.945C110.128 140.139 110.223 140.317 110.363 140.457C110.503 140.597 110.681 140.692 110.875 140.731C111.069 140.769 111.27 140.75 111.453 140.674C111.635 140.598 111.791 140.47 111.901 140.306C112.011 140.141 112.07 139.948 112.07 139.75C112.07 139.485 111.964 139.23 111.777 139.043C111.589 138.855 111.335 138.75 111.07 138.75Z" fill="white"/>
<path d="M88.3599 144.262C88.1621 144.262 87.9687 144.32 87.8043 144.43C87.6398 144.54 87.5117 144.696 87.436 144.879C87.3603 145.062 87.3405 145.263 87.3791 145.457C87.4177 145.651 87.5129 145.829 87.6528 145.969C87.7926 146.109 87.9708 146.204 88.1648 146.243C88.3588 146.281 88.5598 146.261 88.7425 146.186C88.9253 146.11 89.0815 145.982 89.1913 145.817C89.3012 145.653 89.3599 145.46 89.3599 145.262C89.3599 144.997 89.2545 144.742 89.067 144.555C88.8794 144.367 88.6251 144.262 88.3599 144.262Z" fill="white"/>
<path d="M106.47 147.061C106.272 147.061 106.079 147.119 105.914 147.229C105.75 147.339 105.622 147.495 105.546 147.678C105.47 147.861 105.45 148.062 105.489 148.256C105.528 148.45 105.623 148.628 105.763 148.768C105.902 148.908 106.081 149.003 106.275 149.041C106.469 149.08 106.67 149.06 106.852 148.984C107.035 148.909 107.191 148.781 107.301 148.616C107.411 148.452 107.47 148.258 107.47 148.061C107.47 147.795 107.364 147.541 107.177 147.353C106.989 147.166 106.735 147.061 106.47 147.061Z" fill="white"/>
<path d="M116.62 147.061C116.422 147.061 116.229 147.119 116.064 147.229C115.9 147.339 115.771 147.495 115.696 147.678C115.62 147.861 115.6 148.062 115.639 148.256C115.677 148.45 115.773 148.628 115.913 148.768C116.052 148.908 116.231 149.003 116.425 149.041C116.619 149.08 116.82 149.06 117.002 148.984C117.185 148.909 117.341 148.781 117.451 148.616C117.561 148.452 117.62 148.258 117.62 148.061C117.62 147.795 117.514 147.541 117.327 147.353C117.139 147.166 116.885 147.061 116.62 147.061Z" fill="white"/>
<path d="M126.11 146.221C125.912 146.221 125.719 146.279 125.554 146.389C125.39 146.499 125.262 146.655 125.186 146.838C125.11 147.021 125.09 147.222 125.129 147.416C125.168 147.61 125.263 147.788 125.403 147.928C125.543 148.068 125.721 148.163 125.915 148.201C126.109 148.24 126.31 148.22 126.493 148.145C126.675 148.069 126.831 147.941 126.941 147.776C127.051 147.612 127.11 147.418 127.11 147.221C127.11 146.955 127.005 146.701 126.817 146.514C126.629 146.326 126.375 146.221 126.11 146.221Z" fill="white"/>
<path d="M97.3896 146.121C97.1919 146.121 96.9985 146.18 96.8341 146.29C96.6696 146.4 96.5415 146.556 96.4658 146.738C96.3901 146.921 96.3703 147.122 96.4089 147.316C96.4474 147.51 96.5427 147.688 96.6825 147.828C96.8224 147.968 97.0006 148.063 97.1946 148.102C97.3885 148.14 97.5896 148.121 97.7723 148.045C97.9551 147.969 98.1112 147.841 98.2211 147.677C98.331 147.512 98.3896 147.319 98.3896 147.121C98.3896 146.856 98.2843 146.602 98.0968 146.414C97.9092 146.226 97.6549 146.121 97.3896 146.121Z" fill="white"/>
<path d="M124.67 95.0898C124.868 95.0898 125.061 95.0312 125.225 94.9213C125.39 94.8114 125.518 94.6553 125.594 94.4725C125.669 94.2898 125.689 94.0887 125.651 93.8948C125.612 93.7008 125.517 93.5226 125.377 93.3827C125.237 93.2429 125.059 93.1476 124.865 93.1091C124.671 93.0705 124.47 93.0903 124.287 93.166C124.105 93.2417 123.948 93.3698 123.838 93.5343C123.729 93.6987 123.67 93.8921 123.67 94.0898C123.67 94.3551 123.775 94.6094 123.963 94.797C124.15 94.9845 124.405 95.0898 124.67 95.0898Z" fill="white"/>
<path d="M129.72 103.271C129.918 103.271 130.111 103.213 130.275 103.103C130.44 102.993 130.568 102.837 130.644 102.654C130.719 102.471 130.739 102.27 130.701 102.076C130.662 101.882 130.567 101.704 130.427 101.564C130.287 101.425 130.109 101.329 129.915 101.291C129.721 101.252 129.52 101.272 129.337 101.348C129.154 101.423 128.998 101.551 128.888 101.716C128.778 101.88 128.72 102.074 128.72 102.271C128.72 102.537 128.825 102.791 129.013 102.979C129.2 103.166 129.455 103.271 129.72 103.271Z" fill="white"/>
<path d="M132.91 95.0898C133.107 95.0898 133.301 95.0312 133.465 94.9213C133.63 94.8114 133.758 94.6553 133.834 94.4725C133.909 94.2898 133.929 94.0887 133.89 93.8948C133.852 93.7008 133.757 93.5226 133.617 93.3827C133.477 93.2429 133.299 93.1476 133.105 93.1091C132.911 93.0705 132.71 93.0903 132.527 93.166C132.344 93.2417 132.188 93.3698 132.078 93.5343C131.968 93.6987 131.91 93.8921 131.91 94.0898C131.91 94.3551 132.015 94.6094 132.203 94.797C132.39 94.9845 132.644 95.0898 132.91 95.0898Z" fill="white"/>
<path d="M138.12 88.1309C138.385 88.1309 138.639 88.0255 138.827 87.838C139.014 87.6504 139.12 87.3961 139.12 87.1309C139.12 86.8656 139.014 86.6113 138.827 86.4238C138.639 86.2362 138.385 86.1309 138.12 86.1309C137.854 86.1309 137.6 86.2362 137.413 86.4238C137.225 86.6113 137.12 86.8656 137.12 87.1309C137.12 87.3961 137.225 87.6504 137.413 87.838C137.6 88.0255 137.854 88.1309 138.12 88.1309Z" fill="white"/>
<path d="M137.7 101.291C137.897 101.291 138.091 101.232 138.255 101.122C138.42 101.013 138.548 100.856 138.624 100.674C138.699 100.491 138.719 100.29 138.68 100.096C138.642 99.9019 138.547 99.7238 138.407 99.5839C138.267 99.4441 138.089 99.3488 137.895 99.3102C137.701 99.2716 137.5 99.2915 137.317 99.3671C137.134 99.4428 136.978 99.571 136.868 99.7354C136.758 99.8999 136.7 100.093 136.7 100.291C136.7 100.556 136.805 100.811 136.993 100.998C137.18 101.186 137.434 101.291 137.7 101.291Z" fill="white"/>
<path d="M124.67 113.16C124.868 113.16 125.061 113.102 125.225 112.992C125.39 112.882 125.518 112.726 125.594 112.543C125.669 112.36 125.689 112.159 125.651 111.965C125.612 111.771 125.517 111.593 125.377 111.453C125.237 111.313 125.059 111.218 124.865 111.179C124.671 111.141 124.47 111.161 124.287 111.236C124.105 111.312 123.948 111.44 123.838 111.605C123.729 111.769 123.67 111.962 123.67 112.16C123.67 112.425 123.775 112.68 123.963 112.867C124.15 113.055 124.405 113.16 124.67 113.16Z" fill="white"/>
<path d="M120.16 102.16C119.962 102.16 119.769 102.219 119.604 102.329C119.44 102.439 119.311 102.595 119.236 102.777C119.16 102.96 119.14 103.161 119.179 103.355C119.217 103.549 119.313 103.727 119.453 103.867C119.592 104.007 119.771 104.102 119.965 104.141C120.159 104.18 120.36 104.16 120.542 104.084C120.725 104.008 120.881 103.88 120.991 103.716C121.101 103.551 121.16 103.358 121.16 103.16C121.16 102.895 121.054 102.641 120.867 102.453C120.679 102.266 120.425 102.16 120.16 102.16Z" fill="white"/>
<path d="M125.66 130.25C125.66 130.052 125.601 129.859 125.491 129.694C125.381 129.53 125.225 129.402 125.042 129.326C124.86 129.25 124.659 129.231 124.465 129.269C124.271 129.308 124.092 129.403 123.953 129.543C123.813 129.683 123.717 129.861 123.679 130.055C123.64 130.249 123.66 130.45 123.736 130.633C123.811 130.815 123.94 130.972 124.104 131.081C124.269 131.191 124.462 131.25 124.66 131.25C124.925 131.25 125.179 131.145 125.367 130.957C125.554 130.77 125.66 130.515 125.66 130.25Z" fill="white"/>
<path d="M83.4299 112.301L73.6199 112.441C73.6199 112.441 73.1899 90.3208 77.2899 85.3708C80.4999 81.4808 95.9399 75.8008 95.9399 75.8008L98.4999 78.9008C99.5251 80.1532 100.862 81.1133 102.377 81.6844C103.891 82.2554 105.53 82.4173 107.126 82.1537C108.723 81.8901 110.223 81.2102 111.473 80.1827C112.724 79.1552 113.681 77.8163 114.25 76.3008L123.69 79.0508L125.91 79.9208L142.91 86.5708L140.31 104.381C140.31 104.381 128.16 102.481 127.54 109.961C127.38 111.841 127.29 113.611 127.29 115.011C127.29 120.531 127.99 150.731 127.99 150.731C113.84 155.251 83.3799 149.531 83.3799 149.531L83.4299 112.301Z" stroke="#1F1A54" stroke-width="0.8" stroke-linecap="round" stroke-linejoin="round"/>
<path d="M88.6099 99.2207L90.7799 112.181L83.4199 112.311" stroke="#1F1A54" stroke-width="0.8" stroke-linecap="round" stroke-linejoin="round"/>
<path d="M91.9998 173.311C92.1751 173.494 92.3924 173.631 92.6329 173.711C92.8733 173.792 93.1297 173.812 93.3798 173.771C94.2398 173.711 94.7998 172.581 94.7998 172.581C94.9425 172.8 95.1364 172.98 95.3646 173.108C95.5928 173.235 95.8486 173.305 96.1098 173.311C96.8798 173.311 97.7398 172.611 97.9598 170.941C98.0627 169.285 97.8972 167.624 97.4698 166.021C96.6298 162.961 101.37 168.601 102.89 166.511C104.08 164.891 98.4798 160.191 94.2698 156.211C92.3498 154.391 90.8598 150.211 90.1698 146.461C88.9298 139.831 87.6398 129.391 86.4298 125.061C87.1598 117.971 87.3798 112.301 87.3798 112.301L75.2798 112.501L75.6598 125.961C77.2298 139.291 81.2298 147.851 82.4098 153.191C82.4098 153.191 82.4698 153.471 82.5898 153.951C82.5898 153.951 84.5198 161.551 84.6598 165.071C84.6598 165.071 84.2398 174.011 88.0398 174.011C89.0398 174.011 89.2198 173.441 89.2198 173.441C89.4028 173.625 89.6211 173.771 89.8617 173.869C90.1022 173.966 90.3601 174.015 90.6198 174.011C90.8823 173.992 91.1385 173.921 91.3736 173.802C91.6087 173.684 91.8181 173.52 91.9898 173.321L91.9998 173.311Z" fill="white"/>
<path d="M91.4702 171.279C91.4099 171.99 91.6049 172.699 92.0202 173.279C92.1956 173.462 92.4129 173.6 92.6533 173.68C92.8938 173.76 93.1501 173.781 93.4002 173.739C94.2602 173.679 94.8202 172.549 94.8202 172.549" stroke="#1F1A54" stroke-width="0.8" stroke-linecap="round" stroke-linejoin="round"/>
<path d="M88.3701 170.939C88.3802 171.845 88.6857 172.723 89.2401 173.439C89.4231 173.624 89.6414 173.769 89.882 173.867C90.1226 173.965 90.3804 174.014 90.6401 174.009C90.9026 173.99 91.1588 173.919 91.3939 173.801C91.629 173.683 91.8384 173.519 92.0101 173.319" stroke="#1F1A54" stroke-width="0.8" stroke-linecap="round" stroke-linejoin="round"/>
<path d="M94.1798 170.951C94.2701 171.535 94.4887 172.091 94.8198 172.581C94.9625 172.8 95.1564 172.98 95.3846 173.108C95.6129 173.235 95.8686 173.305 96.1298 173.311C96.8998 173.311 97.7598 172.611 97.9798 170.941C98.0827 169.285 97.9172 167.624 97.4898 166.021C96.6498 162.961 101.39 168.601 102.91 166.511C104.1 164.891 98.4998 160.191 94.2898 156.211C92.3698 154.391 90.8798 150.211 90.1898 146.461C88.9498 139.831 87.6598 129.391 86.4498 125.061C87.1798 117.971 87.3998 112.301 87.3998 112.301L75.2998 112.501L75.6798 125.961C77.2498 139.291 81.2498 147.851 82.4298 153.191C82.4298 153.191 82.4898 153.471 82.6098 153.951C82.6098 153.951 84.5398 161.551 84.6798 165.071C84.6798 165.071 84.2598 174.011 88.0598 174.011C89.0598 174.011 89.2398 173.441 89.2398 173.441" stroke="#1F1A54" stroke-width="0.8" stroke-linecap="round" stroke-linejoin="round"/>
<path d="M119.15 49.03C118.295 49.4035 117.355 49.5382 116.43 49.42C115.36 49.12 114.71 47.42 113.81 46.79C113.344 46.44 112.807 46.196 112.237 46.0751C111.667 45.9542 111.078 45.9593 110.51 46.09C110.69 46.24 110.25 48.67 109.44 48.43C108.44 48.14 106.61 49.07 105.44 48.6C104.68 48.29 104.52 47.33 103.85 47.03C102.16 46.3 102.45 46.55 102.36 46.5C102.36 46.61 101.88 46.27 101.89 48.6C101.89 49.02 101.89 49.48 101.89 49.99C101.879 50.1334 101.849 50.2747 101.8 50.41C101.61 51.02 101.07 51.55 100.92 52.05C100.877 52.3642 100.898 52.6837 100.98 52.99C100.594 53.7537 100.06 54.4334 99.41 54.99C98.7131 53.5432 97.5211 52.3938 96.05 51.75C95.2525 51.4658 94.3784 51.484 93.5933 51.8009C92.8083 52.1179 92.1667 52.7118 91.79 53.47C91.67 52.94 91.37 52.23 91.05 51.33C91.24 50.39 91.95 49.2 91.05 48.67C90.8072 48.5263 90.6064 48.3214 90.4678 48.0757C90.3291 47.8299 90.2575 47.5521 90.26 47.27C90.2545 47.1667 90.2545 47.0633 90.26 46.96C90.2987 46.2835 90.4094 45.6131 90.59 44.96C90.8 43.96 91.84 44.17 92.33 43.55C92.82 42.93 92.77 41.55 93.33 41.16C93.7776 40.854 94.2656 40.6116 94.78 40.44C94.9665 40.3551 95.1608 40.2881 95.36 40.24C95.51 40.01 95.65 39.76 95.81 39.55C95.7741 39.4553 95.744 39.3584 95.72 39.26C95.6078 38.7291 95.6722 38.176 95.9032 37.685C96.1343 37.194 96.5194 36.792 97 36.54C97.3941 36.2228 97.8964 36.0721 98.4 36.12C99.5662 36.1149 100.729 35.9909 101.87 35.75C102.37 35.66 102.72 35.1 103.35 34.93C103.98 34.76 104.75 35 105.41 34.7C106.12 34.3006 106.908 34.0617 107.72 34C110.21 34.31 112 36.26 114.47 37.44C115.534 38.1088 116.537 38.8683 117.47 39.71C118.19 40.3 120.21 40.86 120.92 41.54C122.08 42.67 121.84 44.06 122.2 45.23C122.69 46.77 122.62 46.87 121.27 47.42C120.89 47.58 120.72 48.87 120.02 48.9C119.726 48.9101 119.434 48.9537 119.15 49.03Z" fill="#1F1A54"/>
<path d="M98.34 63.8805C94.61 63.3305 91.78 61.4405 91.1 57.8805C90.7688 56.3925 90.9929 54.8348 91.73 53.5005C91.77 53.5754 91.7971 53.6565 91.81 53.7405C92.1795 52.9807 92.8171 52.3846 93.6 52.067C94.3829 51.7494 95.2556 51.7328 96.05 52.0205C97.5135 52.6828 98.6888 53.851 99.36 55.3105H99.46C99.8141 55.1771 100.135 54.9686 100.401 54.6993C100.667 54.43 100.871 54.1063 101 53.7505C101.063 53.4977 101.063 53.2332 101 52.9805C101.424 52.1758 101.702 51.3022 101.82 50.4005C101.869 50.2652 101.899 50.1239 101.91 49.9805C101.91 49.4705 101.91 48.9805 101.91 48.5905C101.91 46.2605 102.42 46.5905 102.38 46.4905C102.47 46.5405 102.18 46.2905 103.87 47.0205C104.54 47.3205 104.7 48.2805 105.46 48.5905C106.62 49.0605 108.4 48.1305 109.46 48.4205C110.27 48.6605 110.71 46.2305 110.53 46.0805C111.098 45.9498 111.687 45.9447 112.257 46.0656C112.827 46.1865 113.364 46.4305 113.83 46.7805C114.73 47.3605 115.38 49.1105 116.45 49.4105C117.375 49.5287 118.315 49.3939 119.17 49.0205C119.49 54.5605 119.54 62.1505 118.5 65.3605C117.46 68.5705 115.74 70.5605 112.65 71.2905V75.5005L114.28 76.4105C113.712 77.9253 112.755 79.2636 111.505 80.2904C110.254 81.3172 108.756 81.9962 107.159 82.2588C105.563 82.5215 103.926 82.3586 102.412 81.7865C100.899 81.2145 99.5633 80.2535 98.54 79.0005L96 75.9105L98.38 74.9805L98.34 63.8805ZM116.42 55.3805C116.447 55.2577 116.447 55.1303 116.418 55.0078C116.39 54.8853 116.334 54.7708 116.255 54.6727C116.176 54.5745 116.077 54.4953 115.963 54.4409C115.85 54.3865 115.726 54.3583 115.6 54.3583C115.474 54.3583 115.35 54.3865 115.237 54.4409C115.123 54.4953 115.023 54.5745 114.945 54.6727C114.866 54.7708 114.81 54.8853 114.782 55.0078C114.753 55.1303 114.753 55.2577 114.78 55.3805C114.753 55.5033 114.753 55.6306 114.782 55.7531C114.81 55.8756 114.866 55.9902 114.945 56.0883C115.023 56.1864 115.123 56.2656 115.237 56.32C115.35 56.3744 115.474 56.4027 115.6 56.4027C115.726 56.4027 115.85 56.3744 115.963 56.32C116.077 56.2656 116.176 56.1864 116.255 56.0883C116.334 55.9902 116.39 55.8756 116.418 55.7531C116.447 55.6306 116.447 55.5033 116.42 55.3805ZM109 55.2505C109.031 55.1267 109.033 54.9974 109.007 54.8726C108.98 54.7477 108.926 54.6306 108.847 54.53C108.768 54.4294 108.668 54.3481 108.553 54.2921C108.439 54.2361 108.313 54.2071 108.185 54.2071C108.057 54.2071 107.931 54.2361 107.817 54.2921C107.702 54.3481 107.602 54.4294 107.523 54.53C107.444 54.6306 107.39 54.7477 107.363 54.8726C107.337 54.9974 107.339 55.1267 107.37 55.2505C107.339 55.3743 107.337 55.5035 107.363 55.6284C107.39 55.7532 107.444 55.8704 107.523 55.971C107.602 56.0715 107.702 56.1529 107.817 56.2089C107.931 56.2648 108.057 56.2939 108.185 56.2939C108.313 56.2939 108.439 56.2648 108.553 56.2089C108.668 56.1529 108.768 56.0715 108.847 55.971C108.926 55.8704 108.98 55.7532 109.007 55.6284C109.033 55.5035 109.031 55.3743 109 55.2505Z" fill="white"/>
<path d="M115.6 54.3496C115.838 54.3797 116.057 54.5002 116.209 54.6862C116.362 54.8722 116.437 55.1097 116.42 55.3496C116.447 55.4724 116.446 55.5998 116.418 55.7223C116.389 55.8448 116.334 55.9593 116.255 56.0574C116.176 56.1556 116.077 56.2347 115.963 56.2892C115.85 56.3436 115.726 56.3718 115.6 56.3718C115.474 56.3718 115.35 56.3436 115.236 56.2892C115.123 56.2347 115.023 56.1556 114.945 56.0574C114.866 55.9593 114.81 55.8448 114.782 55.7223C114.753 55.5998 114.752 55.4724 114.78 55.3496C114.763 55.1097 114.838 54.8722 114.99 54.6862C115.143 54.5002 115.361 54.3797 115.6 54.3496Z" fill="#1F1A54"/>
<path d="M108.16 54.2207C108.4 54.2484 108.619 54.3683 108.772 54.5548C108.925 54.7414 109 54.9802 108.98 55.2207C109.011 55.3445 109.013 55.4738 108.987 55.5986C108.96 55.7235 108.906 55.8406 108.827 55.9412C108.749 56.0418 108.648 56.1231 108.533 56.1791C108.419 56.235 108.293 56.2641 108.165 56.2641C108.038 56.2641 107.912 56.235 107.797 56.1791C107.682 56.1231 107.582 56.0418 107.503 55.9412C107.425 55.8406 107.37 55.7235 107.344 55.5986C107.317 55.4738 107.319 55.3445 107.35 55.2207C107.33 54.9817 107.403 54.7443 107.554 54.558C107.705 54.3716 107.922 54.2508 108.16 54.2207Z" fill="#1F1A54"/>
<path d="M100.94 53C101.02 53.2415 101.041 53.4988 101 53.75C100.877 54.0971 100.683 54.4146 100.43 54.6816C100.177 54.9487 99.8701 55.1594 99.5299 55.3C99.4941 55.1937 99.4506 55.0901 99.3999 54.99C100.038 54.4335 100.561 53.7574 100.94 53Z" fill="#1F1A54"/>
<path d="M101.76 50.4199C101.642 51.3217 101.364 52.1953 100.94 52.9999C100.858 52.6937 100.837 52.3741 100.88 52.0599C101 51.5599 101.57 51.0299 101.76 50.4199Z" fill="#1F1A54"/>
<path d="M99.49 55.3207H99.39C98.7188 53.8613 97.5435 52.693 96.08 52.0308C95.2844 51.7403 94.4092 51.7554 93.6241 52.0731C92.839 52.3909 92.1997 52.9887 91.83 53.7507C91.8171 53.6668 91.7901 53.5856 91.75 53.5107L91.81 53.4107C92.1963 52.6679 92.8388 52.0902 93.6185 51.785C94.3981 51.4798 95.262 51.4676 96.05 51.7507C97.5127 52.4193 98.6871 53.5901 99.36 55.0507C99.4091 55.1379 99.4525 55.2281 99.49 55.3207Z" fill="#1F1A54"/>
<path d="M95.78 39.4309C95.62 39.6409 95.48 39.8909 95.33 40.1209C95.1307 40.169 94.9365 40.2359 94.75 40.3209C94.2356 40.4925 93.7476 40.7348 93.3 41.0409C92.76 41.3909 92.82 42.8009 92.3 43.4309C91.78 44.0609 90.77 43.8809 90.56 44.8409C90.3793 45.4939 90.2687 46.1644 90.23 46.8409C90.23 46.0294 90.3239 45.2207 90.51 44.4309C90.8872 42.8528 91.8718 41.4872 93.25 40.6309C93.7035 40.3455 94.1905 40.1171 94.7 39.9509C94.8894 39.8645 95.0871 39.7975 95.29 39.7509C95.42 39.5309 95.55 39.3309 95.69 39.1309C95.7136 39.2327 95.7436 39.3329 95.78 39.4309Z" fill="#1F1A54"/>
<path d="M91.7902 53.4295L91.7302 53.5295C91.3042 52.9445 91.0512 52.2515 91.0002 51.5295C90.9954 51.4429 90.9954 51.3561 91.0002 51.2695C91.3202 52.1695 91.6202 52.8795 91.7402 53.4095L91.7902 53.4295Z" fill="#1F1A54"/>
<path d="M90.9999 48.6109C91.9399 49.1409 91.2299 50.3309 90.9999 51.2709C90.5068 49.971 90.2265 48.6001 90.1699 47.2109C90.1714 47.497 90.2491 47.7775 90.395 48.0235C90.5409 48.2696 90.7497 48.4724 90.9999 48.6109Z" fill="#1F1A54"/>
<path d="M119.11 48.2598C119.11 48.5098 119.11 48.7698 119.11 49.0298C119.43 54.5698 119.48 62.1598 118.44 65.3698C117.4 68.5798 115.68 70.5698 112.59 71.2998C112.33 71.3598 112.06 71.4198 111.78 71.4598C110.14 71.7098 106.06 71.1798 103.78 68.9498" stroke="#1F1A54" stroke-width="0.8" stroke-linecap="round" stroke-linejoin="round"/>
<path d="M105.4 61.4395C105.64 62.2972 106.112 63.0718 106.765 63.6772C107.418 64.2827 108.226 64.6954 109.1 64.8695" stroke="#1F1A54" stroke-width="0.8" stroke-linecap="round" stroke-linejoin="round"/>
<path d="M110.74 60.0293C111.073 60.2045 111.444 60.296 111.82 60.296C112.197 60.296 112.567 60.2045 112.9 60.0293" stroke="#1F1A54" stroke-width="0.8" stroke-linecap="round" stroke-linejoin="round"/>
<path d="M99.36 55.0095C98.6793 53.5639 97.5058 52.4081 96.05 51.7495C95.2524 51.4654 94.3784 51.4835 93.5933 51.8005C92.8082 52.1174 92.1666 52.7113 91.79 53.4695L91.73 53.5695C90.9929 54.9038 90.7688 56.4616 91.1 57.9495C91.78 61.4795 94.61 63.3695 98.34 63.9495" stroke="#1F1A54" stroke-width="0.8" stroke-miterlimit="10" stroke-linecap="round"/>
<path d="M99.63 55.6703C99.63 55.6703 99.63 55.5403 99.5 55.3203" stroke="#1F1A54" stroke-width="0.8" stroke-miterlimit="10" stroke-linecap="round"/>
<path d="M91 51.2793C91.32 52.1793 91.62 52.8893 91.74 53.4193" stroke="#1F1A54" stroke-width="0.8" stroke-linecap="round" stroke-linejoin="round"/>
<path d="M90.21 47.2109C90.2537 48.5979 90.5205 49.9688 91 51.2709" stroke="#1F1A54" stroke-width="0.8" stroke-linecap="round" stroke-linejoin="round"/>
<path d="M93.2202 40.6895C91.842 41.5458 90.8574 42.9114 90.4802 44.4895C90.2941 45.2793 90.2002 46.088 90.2002 46.8995" stroke="#1F1A54" stroke-width="0.8" stroke-linecap="round" stroke-linejoin="round"/>
<path d="M95.75 39.0703L95.69 39.1403C95.55 39.3403 95.42 39.5403 95.29 39.7603C95.0875 39.8037 94.8898 39.8674 94.7 39.9503C94.1881 40.1323 93.701 40.3775 93.25 40.6803" stroke="#1F1A54" stroke-width="0.8" stroke-linecap="round" stroke-linejoin="round"/>
<path d="M99.3701 55.0109C100.02 54.4542 100.554 53.7745 100.94 53.0109C101.364 52.2062 101.642 51.3326 101.76 50.4309C101.799 50.1759 101.823 49.9187 101.83 49.6609C101.988 48.0576 101.86 46.439 101.45 44.8809" stroke="#1F1A54" stroke-width="0.8" stroke-linecap="round" stroke-linejoin="round"/>
<path d="M94.6899 55.3809C94.6899 55.3809 96.9199 55.7209 97.2599 59.2309" stroke="#1F1A54" stroke-width="0.8" stroke-miterlimit="10" stroke-linecap="round"/>
<path d="M106.71 52.17C107.209 51.8535 107.79 51.6913 108.381 51.7038C108.971 51.7162 109.545 51.9028 110.03 52.24" stroke="#1F1A54" stroke-width="0.8" stroke-linecap="round" stroke-linejoin="round"/>
<path d="M113.79 52.1693C114.292 51.8569 114.874 51.6972 115.465 51.7097C116.057 51.7221 116.632 51.9061 117.12 52.2393" stroke="#1F1A54" stroke-width="0.8" stroke-linecap="round" stroke-linejoin="round"/>
<path d="M112.63 71.3009V75.5109L114.26 76.4209C113.692 77.9357 112.735 79.274 111.485 80.3008C110.234 81.3276 108.736 82.0065 107.139 82.2692C105.543 82.5319 103.906 82.369 102.392 81.7969C100.879 81.2248 99.5434 80.2639 98.52 79.0109L96 75.9109L98.38 74.9809V63.8809" stroke="#1F1A54" stroke-width="0.8" stroke-linecap="round" stroke-linejoin="round"/>
<path d="M140.6 102.62L152.68 104.91C155.26 105.34 157.47 103.67 158.47 101.25C161.78 93.2499 163.98 76.4399 166.79 72.5899C167.86 71.1299 170.37 68.2899 171.31 65.7899C171.71 64.7299 171.89 63.9399 172.61 62.2699C173.104 61.1651 173.714 60.1159 174.43 59.1399C174.88 58.5499 176.1 56.9299 174.97 56.2299C174.47 55.9299 173.79 56.3299 173.57 56.5199C173.085 56.9179 172.652 57.3748 172.28 57.8799C171.601 58.6589 170.88 59.4 170.12 60.0999C170.12 60.0999 171.9 56.9299 172.6 55.9399C173.07 55.2799 174.46 53.5999 173.37 52.7099C173.115 52.5643 172.823 52.4988 172.53 52.522C172.237 52.5451 171.959 52.656 171.73 52.8399C171.287 53.2624 170.912 53.7517 170.62 54.2899C170.19 54.9399 167.96 57.6799 167.96 57.6799C167.96 57.6799 170.07 53.5499 170.64 52.5299C171.09 51.7299 172.52 49.5299 170.99 48.6799C169.99 48.0899 168.73 49.7899 168.08 50.7999C167.2 52.1599 164.81 56.5799 164.81 56.5799L166.58 51.4199C166.58 51.4199 167.41 49.3099 166.04 48.7199C164.67 48.1299 164.04 49.7199 163.7 50.4399C162.07 53.8799 160.51 57.5599 159.8 59.5999C158.8 62.4099 156.72 55.0999 154.43 55.9099C152.14 56.7199 158.9 68.1599 156.81 73.0199L149.27 90.2899L142.85 88.0299L140.6 102.62Z" fill="white" stroke="#1F1A54" stroke-width="0.74" stroke-linecap="round" stroke-linejoin="round"/>
<path d="M161.43 61.9492C161.43 61.9492 163.22 63.8892 163.01 65.4692C163.702 64.8037 164.603 64.3975 165.56 64.3192" stroke="#1F1A54" stroke-width="0.74" stroke-linecap="round" stroke-linejoin="round"/>
<path d="M107.48 113.77H111.12L114.06 116.11V128.66H104.59V116.3L107.48 113.77Z" fill="white" stroke="#1F1A54" stroke-width="0.8" stroke-linecap="round" stroke-linejoin="round"/>
<path d="M107.79 115.48H110.7" stroke="#1F1A54" stroke-width="0.8" stroke-linecap="round" stroke-linejoin="round"/>
<path d="M93.21 76.8602L108.28 115.33H111.12L120.16 78.0802L118.29 77.4602L109.62 113.16L95.02 76.2402L93.21 76.8602Z" fill="white" stroke="#1F1A54" stroke-width="0.8" stroke-linecap="round" stroke-linejoin="round"/>
</g>
<path d="M183.92 11.417C183.462 11.1582 182.903 11.158 182.445 11.4165L169.763 18.575C169.291 18.841 169 19.3401 169 19.8812L169 34.1188C169 34.6599 169.291 35.159 169.763 35.425L182.445 42.5835C182.903 42.842 183.462 42.8418 183.92 42.583L196.581 35.4252C197.052 35.1591 197.343 34.6602 197.343 34.1194L197.343 19.8806C197.343 19.3398 197.052 18.8409 196.581 18.5748L183.92 11.417Z" fill="#3781FC"/>
<path d="M180 27.526L181.629 29.3346L185 26" stroke="white" stroke-width="3" stroke-linecap="round" stroke-linejoin="round"/>
<defs>
<clipPath id="clip0">
<rect width="235.23" height="236.04" fill="white" transform="translate(50 34)"/>
</clipPath>
</defs>
</svg>
