<svg width="80" height="80" viewBox="0 0 80 80" fill="none" xmlns="http://www.w3.org/2000/svg">
<path d="M12 58.7062H51.4933M16.1186 8H47.3747C49.6493 8 51.4933 9.84396 51.4933 12.1186V67.8814C51.4933 70.156 49.6493 72 47.3747 72H16.1186C13.844 72 12 70.156 12 67.8814V12.1186C12 9.84396 13.844 8 16.1186 8ZM34.5121 65.3585C34.5121 66.8412 33.2764 68.0431 31.752 68.0431C30.2277 68.0431 28.9919 66.8412 28.9919 65.3585C28.9919 63.8758 30.2277 62.6739 31.752 62.6739C33.2764 62.6739 34.5121 63.8758 34.5121 65.3585Z" stroke="#1F1A54" stroke-width="2" stroke-linecap="round" stroke-linejoin="round"/>
<path d="M42.6175 45.4906C40.7496 45.4906 38.9583 44.7486 37.6375 43.4279C36.3167 42.1071 35.5747 40.3157 35.5747 38.4479V19.7229C35.5747 19.3726 35.7138 19.0368 35.9615 18.7891C36.2091 18.5415 36.545 18.4023 36.8952 18.4023H69.9083C70.2585 18.4023 70.5944 18.5415 70.842 18.7891C71.0897 19.0368 71.2288 19.3726 71.2288 19.7229V38.4214C71.2288 40.2893 70.4868 42.0807 69.166 43.4014C67.8452 44.7222 66.0539 45.4642 64.186 45.4642L42.6175 45.4906Z" fill="#F8CB45"/>
<path d="M69.9083 19.7231V38.4217C69.9083 39.1773 69.7593 39.9256 69.4699 40.6236C69.1804 41.3216 68.7562 41.9558 68.2215 42.4897C67.6867 43.0236 67.0519 43.4469 66.3535 43.7353C65.655 44.0236 64.9065 44.1715 64.1508 44.1703H42.6175C41.0929 44.1703 39.6307 43.5647 38.5526 42.4866C37.4745 41.4085 36.8689 39.9463 36.8689 38.4217V19.7231H69.9083ZM69.9083 17.082H36.8425C36.142 17.082 35.4703 17.3603 34.975 17.8556C34.4797 18.3509 34.2014 19.0226 34.2014 19.7231V38.4217C34.2061 40.6499 35.0951 42.7851 36.6732 44.3583C38.2513 45.9314 40.3893 46.8137 42.6175 46.8114H64.186C66.4051 46.7997 68.5296 45.9113 70.0963 44.3397C71.663 42.768 72.5447 40.6408 72.5494 38.4217V19.7231C72.5494 19.0226 72.2711 18.3509 71.7758 17.8556C71.2805 17.3603 70.6088 17.082 69.9083 17.082Z" fill="white"/>
<path d="M40.6454 24.0108L53.3752 35.5433L66.1843 23.9844" stroke="white" stroke-width="2" stroke-linecap="round" stroke-linejoin="round"/>
</svg>
