<svg width="80" height="80" viewBox="0 0 80 80" fill="none" xmlns="http://www.w3.org/2000/svg">
<path d="M43.5968 18.7079C43.8388 13.2579 39.2045 9 33.7903 9C28.3761 9 23.661 13.3027 23.9748 18.7079C24.0375 19.8015 25.0684 25.1888 25.0684 25.1888C25.911 29.859 28.9677 33.8211 33.7903 33.8211C38.6128 33.8211 41.5978 29.9218 42.5122 25.1888C42.5122 25.1888 43.552 19.8015 43.5968 18.7079Z" stroke="#1F1A54" stroke-width="2" stroke-linecap="round" stroke-linejoin="round"/>
<path d="M57.5715 56.5713H10L11.1384 48.0914C11.6225 45.3216 14.1324 43.6095 16.8753 43.0089L33.7813 40.0239L50.6872 42.9999C53.475 43.6274 55.949 45.2857 56.4241 48.0825L57.5715 56.5713Z" stroke="#1F1A54" stroke-width="2" stroke-linecap="round" stroke-linejoin="round"/>
<path d="M54.8847 69.0058C64.6085 69.0058 72.4912 61.1232 72.4912 51.3994C72.4912 41.6756 64.6085 33.793 54.8847 33.793C45.161 33.793 37.2783 41.6756 37.2783 51.3994C37.2783 61.1232 45.161 69.0058 54.8847 69.0058Z" fill="#FFD400"/>
<path d="M54.8846 35.3019C58.0683 35.3019 61.1806 36.246 63.8278 38.0148C66.475 39.7836 68.5382 42.2977 69.7566 45.2391C70.9749 48.1805 71.2937 51.4171 70.6726 54.5397C70.0515 57.6622 68.5184 60.5305 66.2671 62.7817C64.0159 65.033 61.1476 66.5661 58.025 67.1872C54.9025 67.8084 51.6658 67.4896 48.7244 66.2712C45.783 65.0528 43.269 62.9896 41.5002 60.3424C39.7314 57.6952 38.7873 54.583 38.7873 51.3992C38.7873 47.13 40.4833 43.0356 43.5021 40.0167C46.5209 36.9979 50.6153 35.3019 54.8846 35.3019ZM54.8846 32.2837C51.1039 32.2837 47.4081 33.4048 44.2646 35.5052C41.121 37.6057 38.6709 40.5911 37.2241 44.084C35.7773 47.5769 35.3988 51.4204 36.1364 55.1285C36.8739 58.8366 38.6945 62.2426 41.3679 64.916C44.0412 67.5893 47.4473 69.4099 51.1553 70.1475C54.8634 70.8851 58.7069 70.5065 62.1998 69.0597C65.6927 67.6129 68.6782 65.1628 70.7786 62.0193C72.879 58.8757 74.0002 55.1799 74.0002 51.3992C74.0002 46.3295 71.9862 41.4674 68.4013 37.8825C64.8165 34.2976 59.9544 32.2837 54.8846 32.2837Z" fill="white"/>
<path d="M47.4399 50.5743L53.9191 57.0635L61.4345 44.0649" stroke="white" stroke-width="2.3" stroke-linecap="round" stroke-linejoin="round"/>
</svg>
