<svg width="24" height="24" viewBox="0 0 24 24" fill="none" xmlns="http://www.w3.org/2000/svg">
<path d="M15.5202 3H3V15.5273L6.91212 12.3919H12.3919C12.8027 12.3919 13.2095 12.311 13.5891 12.1538C13.9686 11.9966 14.3135 11.7662 14.604 11.4757C14.8944 11.1852 15.1249 10.8403 15.2821 10.4608C15.4393 10.0812 15.5202 9.67445 15.5202 9.26363V3Z" fill="#FFD400"/>
<path d="M8.4798 12.3919V14.7434C8.4798 15.5731 8.80938 16.3688 9.39605 16.9555C9.98272 17.5421 10.7784 17.8717 11.6081 17.8717H17.0879L21 21V8.4798H15.5202" fill="#FFD400"/>
<path d="M8.4798 12.3919V14.7434C8.4798 15.5731 8.80938 16.3688 9.39605 16.9555C9.98272 17.5421 10.7784 17.8717 11.6081 17.8717H17.0879L21 21V8.4798H15.5202M15.5202 3H3V15.5273L6.91212 12.3919H12.3919C12.8027 12.3919 13.2095 12.311 13.5891 12.1538C13.9686 11.9966 14.3135 11.7662 14.604 11.4757C14.8944 11.1852 15.1249 10.8403 15.2821 10.4608C15.4393 10.0812 15.5202 9.67445 15.5202 9.26363V3Z" stroke="#1F1A54" stroke-width="1.8" stroke-linecap="round" stroke-linejoin="round"/>
</svg>
