<svg width="24" height="25" viewBox="0 0 24 25" fill="none" xmlns="http://www.w3.org/2000/svg">
  <path d="M14.7434 9.2599H21M17.8717 12.3952V6.13161M13.1616 8.25715C13.1684 7.87203 13.0973 7.48951 12.9526 7.13255C12.8079 6.77558 12.5925 6.45153 12.3195 6.17983C12.0465 5.90812 11.7214 5.69437 11.3637 5.55139C11.0061 5.40841 10.6232 5.33915 10.2381 5.34777C9.85056 5.33207 9.4639 5.39637 9.10227 5.53665C8.74063 5.67693 8.41176 5.8902 8.13616 6.16315C7.86055 6.4361 7.64412 6.7629 7.50035 7.12316C7.35658 7.48343 7.28856 7.86944 7.30051 8.25715C7.30051 8.58198 7.62534 10.1991 7.62534 10.1991C7.87956 11.5973 8.82581 12.7836 10.2381 12.7836C11.6505 12.7836 12.5685 11.6185 12.8439 10.1991C12.8368 10.1991 13.1475 8.58198 13.1616 8.25715ZM17.4621 20.2195H3L3.24716 17.3949C3.38133 16.3286 4.44763 15.5941 5.54924 15.3823L10.2381 14.775L14.9694 15.4105C16.1911 15.6295 17.222 16.3074 17.3068 17.529L17.4621 20.2195Z" stroke="currentColor" stroke-width="1.2" stroke-linecap="round" stroke-linejoin="round" />
</svg>
