<svg width="17" height="18" viewBox="0 0 17 18" fill="none" xmlns="http://www.w3.org/2000/svg">
<path d="M6.21616 14.2193V14.916C6.21616 15.1902 6.27027 15.4617 6.37539 15.715C6.48051 15.9682 6.63458 16.1982 6.82875 16.3918C7.02293 16.5854 7.25341 16.7388 7.50697 16.8432C7.76053 16.9475 8.0322 17.0008 8.30639 17C8.58029 17.0008 8.85165 16.9475 9.10487 16.843C9.35808 16.7386 9.58814 16.5851 9.78182 16.3915C9.97549 16.1978 10.129 15.9677 10.2334 15.7145C10.3378 15.4613 10.3912 15.1899 10.3903 14.916V14.2193M15.5939 12.876V14.2193H1V12.876C0.999568 12.4192 1.08915 11.9668 1.26363 11.5446C1.43811 11.1224 1.69406 10.7387 2.01687 10.4155L3.46057 8.97803C3.78338 8.65478 4.03934 8.27111 4.21381 7.84891C4.38829 7.42672 4.47787 6.97428 4.47744 6.51745V4.82895C4.47744 3.81345 4.88085 2.83954 5.59891 2.12147C6.31698 1.40341 7.29089 1 8.30639 1C9.32189 1 10.2958 1.40341 11.0139 2.12147C11.7319 2.83954 12.1353 3.81345 12.1353 4.82895V6.51745C12.1349 6.97428 12.2245 7.42672 12.399 7.84891C12.5734 8.27111 12.8294 8.65478 13.1522 8.97803L14.5896 10.4155C15.2364 11.0707 15.5975 11.9553 15.5939 12.876Z" stroke="#3781FC" stroke-width="1.2" stroke-linecap="round" stroke-linejoin="round"/>
</svg>
