<svg width="49" height="48" viewBox="0 0 49 48" fill="none" xmlns="http://www.w3.org/2000/svg">
<mask id="mask0" mask-type="alpha" maskUnits="userSpaceOnUse" x="0" y="0" width="49" height="48">
<circle cx="24.5" cy="24" r="24" fill="#2E3034"/>
</mask>
<g mask="url(#mask0)">
<circle cx="24.5" cy="24" r="24" fill="#2E3034"/>
<path d="M24.442 16.0769C25.4054 16.0769 26.6131 15.4056 27.3322 14.5105C27.9836 13.6993 28.4585 12.5664 28.4585 11.4336C28.4585 11.2797 28.4449 11.1259 28.4178 11C27.3458 11.042 26.0567 11.7413 25.2833 12.6783C24.6727 13.3916 24.1164 14.5105 24.1164 15.6573C24.1164 15.8252 24.1435 15.993 24.1571 16.049C24.2249 16.0629 24.3335 16.0769 24.442 16.0769ZM21.0498 33C22.366 33 22.9494 32.0909 24.5913 32.0909C26.2603 32.0909 26.6266 32.972 28.0921 32.972C29.5304 32.972 30.4938 31.6014 31.403 30.2587C32.4206 28.7203 32.8413 27.2098 32.8684 27.1399C32.7734 27.1119 30.0189 25.951 30.0189 22.6923C30.0189 19.8671 32.19 18.5944 32.3121 18.4965C30.8738 16.3706 28.6891 16.3147 28.0921 16.3147C26.4774 16.3147 25.1612 17.3217 24.3335 17.3217C23.4379 17.3217 22.2574 16.3706 20.8598 16.3706C18.2002 16.3706 15.5 18.6364 15.5 22.9161C15.5 25.5734 16.5041 28.3846 17.7389 30.2028C18.7973 31.7413 19.72 33 21.0498 33Z" fill="white"/>
</g>
</svg>
