<svg width="24" height="24" viewBox="0 0 24 24" fill="none" xmlns="http://www.w3.org/2000/svg">
  <path d="M12.3303 3V10.9644M12.3303 10.9644L9.07005 7.71071M12.3303 10.9644L15.584 7.71071M17.7597 9.15463L20.6541 13.4995L20.0007 17.596C19.888 18.2723 19.5394 18.8868 19.0167 19.3305C18.4941 19.7742 17.8311 20.0185 17.1455 20.02H7.54118C6.85445 20.02 6.18997 19.7765 5.66596 19.3326C5.14194 18.8888 4.79239 18.2734 4.67948 17.596L4.02612 13.4995L6.9205 9.15463M4 13.4995H9.79528L10.0436 14.2704C10.1969 14.7567 10.5014 15.1814 10.9126 15.4829C11.3238 15.7844 11.8204 15.9469 12.3303 15.9469C12.8402 15.9469 13.3368 15.7844 13.748 15.4829C14.1593 15.1814 14.4637 14.7567 14.6171 14.2704L14.8457 13.4733H20.6345" stroke="currentColor" stroke-width="1.2" stroke-linecap="round" stroke-linejoin="round" />
</svg>
