<svg width="19" height="19" viewBox="0 0 19 19" fill="none" xmlns="http://www.w3.org/2000/svg">
<path d="M9.33034 1V8.96443M9.33034 8.96443L6.07008 5.71071M9.33034 8.96443L12.5841 5.71071M14.7597 7.15463L17.6541 11.4995L17.0007 15.596C16.888 16.2723 16.5394 16.8868 16.0168 17.3305C15.4941 17.7742 14.8312 18.0185 14.1456 18.02H4.54122C3.85449 18.02 3.19 17.7765 2.66599 17.3326C2.14197 16.8888 1.79242 16.2734 1.67951 15.596L1.02615 11.4995L3.92053 7.15463M1.00003 11.4995H6.79531L7.04359 12.2704C7.19698 12.7567 7.50139 13.1814 7.91261 13.4829C8.32383 13.7844 8.82045 13.9469 9.33034 13.9469C9.84023 13.9469 10.3369 13.7844 10.7481 13.4829C11.1593 13.1814 11.4637 12.7567 11.6171 12.2704L11.8458 11.4733H17.6345" stroke="#3057BA" stroke-width="1.2" stroke-linecap="round" stroke-linejoin="round"/>
</svg>
