<svg width="20" height="16" viewBox="0 0 20 16" fill="none" xmlns="http://www.w3.org/2000/svg">
<path d="M3.7399 15.1172L8.3723 6.89748L11.2958 12.1442L13.1318 9.63738L16.2601 15.1172M1 1.0293H19V15.1172H1V1.0293ZM16.6556 5.52753C16.6555 5.79908 16.5748 6.0645 16.4237 6.29008C16.2725 6.51566 16.0577 6.69123 15.8065 6.79449C15.5554 6.89775 15.2792 6.92405 15.0131 6.87003C14.747 6.81602 14.5029 6.68413 14.3119 6.49113C14.1209 6.29812 13.9915 6.0527 13.9403 5.78603C13.889 5.51937 13.9182 5.24348 14.024 4.99341C14.1299 4.74335 14.3077 4.53038 14.5348 4.38156C14.762 4.23274 15.0282 4.15478 15.2997 4.15758C15.6606 4.1613 16.0054 4.30728 16.2593 4.56379C16.5132 4.8203 16.6556 5.16663 16.6556 5.52753Z" stroke="#3781FC" stroke-width="1.2" stroke-linecap="round" stroke-linejoin="round"/>
</svg>
