<svg width="16" height="16" viewBox="0 0 16 16" fill="none" xmlns="http://www.w3.org/2000/svg">
<path d="M2 5.38477C2 4.2802 2.89543 3.38477 4 3.38477H12.0003C13.1048 3.38477 14.0003 4.2802 14.0003 5.38477V12.0004C14.0003 13.1049 13.1048 14.0004 12.0003 14.0004H4C2.89543 14.0004 2 13.1049 2 12.0004V5.38477Z" stroke="#91919C" stroke-width="1.2" stroke-linecap="round"/>
<path d="M2 6.61554H14.0003" stroke="#91919C" stroke-width="1.2" stroke-linecap="round"/>
<path d="M5.4361 2V4.76929" stroke="#91919C" stroke-width="1.2" stroke-linecap="round"/>
<path d="M10.5643 2V4.76929" stroke="#91919C" stroke-width="1.2" stroke-linecap="round"/>
<path d="M5.75419 11.3421C6.44679 11.3421 7.00826 10.7807 7.00826 10.0881H6.00826C6.00826 10.2284 5.89451 10.3421 5.75419 10.3421V11.3421ZM7.00826 10.0881C7.00826 9.39545 6.44679 8.83398 5.75419 8.83398V9.83398C5.89451 9.83398 6.00826 9.94773 6.00826 10.0881H7.00826ZM5.75419 8.83398C5.06159 8.83398 4.50012 9.39545 4.50012 10.0881H5.50012C5.50012 9.94773 5.61387 9.83398 5.75419 9.83398V8.83398ZM4.50012 10.0881C4.50012 10.7807 5.06159 11.3421 5.75419 11.3421V10.3421C5.61387 10.3421 5.50012 10.2284 5.50012 10.0881H4.50012Z" fill="#91919C"/>
<path d="M11.0002 10.25H8.7502" stroke="#91919C" stroke-width="1.2" stroke-linecap="round"/>
</svg>
