<svg width="16" height="16" viewBox="0 0 16 16" fill="none" xmlns="http://www.w3.org/2000/svg">
<path d="M4.23434 5.56735V4.33301C4.23434 3.78072 4.68206 3.33301 5.23434 3.33301H8.78384H13.6667C14.219 3.33301 14.6667 3.78072 14.6667 4.33301V8.59429C14.6667 9.14657 14.219 9.59429 13.6667 9.59429H12.437M8.78384 8.69799C8.78384 9.56379 8.08197 10.2657 7.21616 10.2657C6.35036 10.2657 5.64849 9.56379 5.64849 8.69799C5.64849 7.83219 6.35036 7.13031 7.21616 7.13031C8.08197 7.13031 8.78384 7.83219 8.78384 8.69799ZM3 11.8286H11.437C11.9893 11.8286 12.437 11.3809 12.437 10.8286V6.56735C12.437 6.01506 11.9893 5.56735 11.437 5.56735H3C2.44772 5.56735 2 6.01506 2 6.56735V10.8286C2 11.3809 2.44771 11.8286 3 11.8286Z" stroke="#A8AAB7" stroke-width="1.2" stroke-linecap="round" stroke-linejoin="round"/>
</svg>
