<svg width="16" height="17" viewBox="0 0 16 17" fill="none" xmlns="http://www.w3.org/2000/svg">
<path d="M13.065 7.48464L13.1591 7.39523C13.6971 6.8579 13.9996 6.12887 14 5.36853C14.0004 4.60819 13.6988 3.87882 13.1615 3.34086C12.6242 2.80291 11.8951 2.50044 11.1348 2.5C10.3745 2.49956 9.64508 2.80118 9.10713 3.33851L2.83851 9.60713C2.30118 10.1451 1.99956 10.8745 2 11.6348C2.00044 12.3951 2.30291 13.1242 2.84086 13.6615C3.37882 14.1988 4.10819 14.5004 4.86853 14.5C5.62887 14.4996 6.3579 14.1971 6.89523 13.6591L11.1308 9.42359C11.4192 9.12938 11.5797 8.73319 11.5774 8.32122C11.5751 7.90925 11.4103 7.51485 11.1186 7.22385C10.827 6.93285 10.4323 6.7688 10.0203 6.7674C9.60832 6.76601 9.21247 6.92738 8.91888 7.21639L4.49979 11.6308" stroke="#A8AAB7" stroke-width="1.2" stroke-linecap="round" stroke-linejoin="round"/>
</svg>
