<svg width="16" height="16" viewBox="0 0 16 16" fill="none" xmlns="http://www.w3.org/2000/svg">
<path d="M6.96819 3.6108V3.10961C6.95864 2.9675 6.97838 2.82494 7.02619 2.69077C7.07401 2.55661 7.14888 2.43369 7.24615 2.32966C7.34343 2.22562 7.46105 2.14267 7.5917 2.08597C7.72236 2.02926 7.86327 2 8.0057 2C8.14814 2 8.28905 2.02926 8.41971 2.08597C8.55036 2.14267 8.66798 2.22562 8.76525 2.32966C8.86253 2.43369 8.9374 2.55661 8.98522 2.69077C9.03303 2.82494 9.05277 2.9675 9.04322 3.10961V3.62485M10.3407 3.6108V4.65066C10.3407 4.78855 10.2859 4.9208 10.1884 5.0183C10.0909 5.11581 9.95866 5.17059 9.82077 5.17059H6.19064C6.05274 5.17059 5.9205 5.11581 5.82299 5.0183C5.72549 4.9208 5.67071 4.78855 5.67071 4.65066V3.6108M4.33337 14H11.678C12.2303 14 12.678 13.5523 12.678 13V4.61548C12.678 4.0632 12.2303 3.61548 11.678 3.61548H4.33337C3.78109 3.61548 3.33337 4.0632 3.33337 4.61548V13C3.33337 13.5523 3.78109 14 4.33337 14Z" stroke="#A8AAB7" stroke-width="1.2" stroke-linecap="round" stroke-linejoin="round"/>
<path d="M6 8.08594H10.171M6 10.4671H9.13064" stroke="#A8AAB7" stroke-width="1.2" stroke-linecap="round" stroke-linejoin="round"/>
</svg>
