<svg width="16" height="16" viewBox="0 0 16 16" fill="none" xmlns="http://www.w3.org/2000/svg">
<path d="M4.66668 8.24967V4.17392C4.66668 3.95089 4.75528 3.73701 4.91298 3.5793C5.07068 3.4216 5.28457 3.33301 5.50759 3.33301H11.5152C11.7382 3.33301 11.9521 3.4216 12.1098 3.5793C12.2675 3.73701 12.3561 3.95089 12.3561 4.17392V9.69664M2 9.76482C2.88636 9.18906 3.68182 8.74967 4.33333 8.40876C5.17865 7.97609 6.08185 7.66736 7.01515 7.49209H7.31818C7.69697 7.49209 7.97727 7.62845 9.19697 7.69664C9.95455 7.74209 10.3788 7.74967 10.5 8.00724C10.6212 8.26482 10.4015 8.6133 10.2273 8.81785C9.4697 9.63603 7.65909 9.09815 7.51515 9.57542C7.51515 9.67391 7.51515 9.84058 7.75 10.1209C8.86364 10.1739 9.62121 10.386 10.7803 10.4391C11.0758 10.3103 11.5379 10.1057 12.1136 9.833C12.8712 9.48452 13.1061 9.34815 13.3788 9.44664C13.7727 9.59058 13.9318 10.1209 14 10.4694C13.5619 10.8533 13.0988 11.2076 12.6136 11.53C12.0988 11.8655 11.5594 12.1618 11 12.4163H4.90152L2 11.9694V9.76482Z" stroke="#A8AAB7" stroke-width="1.2" stroke-linecap="round" stroke-linejoin="round"/>
</svg>
