<svg width="16" height="16" viewBox="0 0 16 16" fill="none" xmlns="http://www.w3.org/2000/svg">
<path fill-rule="evenodd" clip-rule="evenodd" d="M4.76914 13.9997C5.53384 13.9997 6.15375 13.3798 6.15375 12.6151C6.15375 11.8504 5.53384 11.2305 4.76914 11.2305C4.00443 11.2305 3.38452 11.8504 3.38452 12.6151C3.38452 13.3798 4.00443 13.9997 4.76914 13.9997Z" stroke="#A8AAB7" stroke-width="1.2" stroke-linecap="round"/>
<path fill-rule="evenodd" clip-rule="evenodd" d="M11.2307 13.9997C11.9954 13.9997 12.6153 13.3798 12.6153 12.6151C12.6153 11.8504 11.9954 11.2305 11.2307 11.2305C10.466 11.2305 9.84607 11.8504 9.84607 12.6151C9.84607 13.3798 10.466 13.9997 11.2307 13.9997Z" stroke="#A8AAB7" stroke-width="1.2" stroke-linecap="round"/>
<path d="M10.7692 5.69238H12.3998C12.8087 5.69238 13.1764 5.94133 13.3283 6.32099L13.8569 7.64246C13.9514 7.8787 13.9999 8.1308 13.9999 8.38524V10.7693C13.9999 11.534 13.38 12.1539 12.6153 12.1539V12.1539" stroke="#A8AAB7" stroke-width="1.2" stroke-linecap="round"/>
<path d="M2 9.38462V4C2 2.89543 2.89543 2 4 2H8.76923C9.8738 2 10.7692 2.89543 10.7692 4V6.38461C10.7692 8.04147 9.42608 9.38462 7.76923 9.38462H2ZM2 9.38462V10.7692C2 11.5339 2.61991 12.1538 3.38462 12.1538V12.1538" stroke="#A8AAB7" stroke-width="1.2" stroke-linecap="round"/>
<path d="M6.15386 12.1536H9.84617" stroke="#A8AAB7" stroke-width="1.2" stroke-linecap="round"/>
</svg>
