<svg width="16" height="16" viewBox="0 0 16 16" fill="none" xmlns="http://www.w3.org/2000/svg">
<path d="M13.2511 7.75872V11.5076C13.2511 12.0376 13.0406 12.5459 12.6658 12.9207C12.291 13.2955 11.7827 13.5061 11.2526 13.5061H4.75188C4.48905 13.5067 4.22869 13.4554 3.9857 13.3553C3.74271 13.2551 3.52187 13.108 3.33581 12.9223C3.14976 12.7367 3.00214 12.5162 2.90143 12.2734C2.80071 12.0307 2.74887 11.7704 2.74887 11.5076V7.75872M13.003 2.00684H3.01504C3.01504 2.00684 2 6.28353 2 6.50909C2.02104 6.89269 2.18825 7.25365 2.46725 7.51776C2.74624 7.78187 3.11582 7.92906 3.5 7.92906C3.88418 7.92906 4.25376 7.78187 4.53275 7.51776C4.81175 7.25365 4.97896 6.89269 5 6.50909C5.02104 6.89269 5.18825 7.25365 5.46725 7.51776C5.74624 7.78187 6.11582 7.92906 6.5 7.92906C6.88418 7.92906 7.25376 7.78187 7.53275 7.51776C7.81175 7.25365 7.97896 6.89269 8 6.50909C8.02105 6.89269 8.18825 7.25365 8.46725 7.51776C8.74625 7.78187 9.11582 7.92906 9.5 7.92906C9.88418 7.92906 10.2538 7.78187 10.5328 7.51776C10.8117 7.25365 10.979 6.89269 11 6.50909C11.021 6.89269 11.1883 7.25365 11.4672 7.51776C11.7462 7.78187 12.1158 7.92906 12.5 7.92906C12.8842 7.92906 13.2538 7.78187 13.5328 7.51776C13.8117 7.25365 13.979 6.89269 14 6.50909C14 6.28353 13.003 2.00684 13.003 2.00684ZM6.9985 10.5061H8.99699V13.5061H6.9985V10.5061Z" stroke="#A8AAB7" stroke-width="1.2" stroke-linecap="round" stroke-linejoin="round"/>
</svg>
