<svg width="16" height="16" viewBox="0 0 16 16" fill="none" xmlns="http://www.w3.org/2000/svg">
<path d="M10.6668 5.33268C10.6668 3.85992 9.47292 2.66602 8.00016 2.66602C6.5274 2.66602 5.3335 3.85992 5.3335 5.33268" stroke="#F7A80F" stroke-linecap="round"/>
<path d="M5.36084 11.1104C5.55828 12.7113 6.77904 13.7774 7.99979 13.7774C9.22054 13.7774 10.4413 12.7113 10.6387 11.1104" stroke="#F7A80F" stroke-linecap="round"/>
<path d="M6 11.333L10 11.333" stroke="#F7A80F" stroke-linecap="round"/>
<path fill-rule="evenodd" clip-rule="evenodd" d="M14.2223 11.1109C14.2223 7.67446 11.4365 4.88867 8.00005 4.88867C4.56362 4.88867 1.77783 7.67446 1.77783 11.1109C1.77783 11.1109 8.00005 11.9998 8.00005 7.11089C8.00005 11.9998 14.2223 11.1109 14.2223 11.1109Z" stroke="#F7A80F" stroke-linecap="round"/>
<path d="M8.00005 6.44336V7.99891" stroke="#F7A80F" stroke-linecap="round"/>
</svg>
