<svg width="28" height="23" viewBox="0 0 28 23" fill="none" xmlns="http://www.w3.org/2000/svg">
<path d="M3.7107 14.4038L3.67906 15.0029L3.70088 15.0041L3.72272 15.0036L3.7107 14.4038ZM0.670066 11.0461L1.26942 11.0738L1.27071 11.0461L1.26942 11.0183L0.670066 11.0461ZM3.7107 7.68841V7.08841H3.69487L3.67906 7.08925L3.7107 7.68841ZM14.2737 7.68841L14.8118 7.95384L15.2387 7.08841H14.2737V7.68841ZM24.3466 14.4038L24.3346 15.0036L24.3619 15.0042L24.389 15.0023L24.3466 14.4038ZM27.3296 11.0461L26.7303 11.0183L26.729 11.0464L26.7303 11.0745L27.3296 11.0461ZM24.289 7.68841L24.3206 7.08925L24.3048 7.08841H24.289V7.68841ZM13.7837 7.68841V7.08841H12.8187L13.2456 7.95384L13.7837 7.68841ZM10.527 6.52118H9.92701H10.527ZM14.0288 3.01941V2.41941V3.01941ZM17.5306 6.52118H18.1306H17.5306ZM17.5306 7.68844V8.28844H18.1306V7.68844H17.5306ZM10.527 7.68844H9.92701V8.28844H10.527V7.68844ZM11.4138 3.55646C11.5194 3.87055 11.8596 4.03956 12.1737 3.93395C12.4878 3.82835 12.6568 3.48811 12.5512 3.17402L11.4138 3.55646ZM10.4205 0.789626C10.1202 0.649503 9.76318 0.779342 9.62305 1.07963C9.48293 1.37992 9.61277 1.73694 9.91306 1.87706L10.4205 0.789626ZM15.2326 3.17402C15.127 3.48811 15.296 3.82835 15.6101 3.93395C15.9242 4.03956 16.2645 3.87055 16.3701 3.55646L15.2326 3.17402ZM17.8708 1.87706C18.1711 1.73694 18.3009 1.37992 18.1608 1.07963C18.0207 0.779342 17.6637 0.649503 17.3634 0.789626L17.8708 1.87706ZM9.61367 13.1642C9.62146 12.8329 9.35922 12.558 9.02794 12.5502C8.69666 12.5425 8.42179 12.8047 8.414 13.136L9.61367 13.1642ZM13.337 22.1279L13.7318 21.676L13.7163 21.6625L13.7 21.6501L13.337 22.1279ZM14.7781 22.1279L15.1728 22.5798L15.1822 22.5715L15.1913 22.5629L14.7781 22.1279ZM19.6984 13.0488C19.6664 12.719 19.373 12.4776 19.0432 12.5097C18.7134 12.5417 18.472 12.8351 18.5041 13.1649L19.6984 13.0488ZM3.74235 13.8046C3.0531 13.7682 2.40623 13.4606 1.94293 12.949L1.05345 13.7545C1.72947 14.501 2.67334 14.9498 3.67906 15.0029L3.74235 13.8046ZM1.94293 12.949C1.47963 12.4374 1.23751 11.7633 1.26942 11.0738L0.0707076 11.0183C0.0241437 12.0244 0.377426 13.008 1.05345 13.7545L1.94293 12.949ZM1.26942 11.0183C1.23751 10.3289 1.47963 9.65477 1.94293 9.14316L1.05345 8.33766C0.377426 9.08417 0.0241437 10.0678 0.0707076 11.0738L1.26942 11.0183ZM1.94293 9.14316C2.40623 8.63155 3.0531 8.32398 3.74235 8.28758L3.67906 7.08925C2.67334 7.14237 1.72947 7.59116 1.05345 8.33766L1.94293 9.14316ZM3.7107 8.28841H14.2737V7.08841H3.7107V8.28841ZM13.7356 7.42298C12.8077 9.30401 11.3809 10.894 9.61087 12.0192L10.2547 13.0319C12.2102 11.7887 13.7866 10.0321 14.8118 7.95384L13.7356 7.42298ZM9.61087 12.0192C7.84085 13.1445 5.79569 13.7619 3.69868 13.8039L3.72272 15.0036C6.03956 14.9572 8.2991 14.2752 10.2547 13.0319L9.61087 12.0192ZM24.389 15.0023C25.3825 14.9319 26.3091 14.4757 26.9706 13.7311L26.0735 12.9341C25.6202 13.4444 24.9852 13.757 24.3043 13.8053L24.389 15.0023ZM26.9706 13.7311C27.6322 12.9864 27.9761 12.0126 27.929 11.0177L26.7303 11.0745C26.7626 11.7563 26.5269 12.4238 26.0735 12.9341L26.9706 13.7311ZM27.929 11.0738C27.9756 10.0678 27.6223 9.08417 26.9463 8.33766L26.0568 9.14316C26.5201 9.65477 26.7622 10.3289 26.7303 11.0183L27.929 11.0738ZM26.9463 8.33766C26.2702 7.59116 25.3264 7.14237 24.3206 7.08925L24.2574 8.28758C24.9466 8.32398 25.5935 8.63155 26.0568 9.14316L26.9463 8.33766ZM24.289 7.08841H13.7837V8.28841H24.289V7.08841ZM13.2456 7.95384C14.2707 10.0321 15.8471 11.7887 17.8027 13.0319L18.4465 12.0192C16.6765 10.894 15.2496 9.30401 14.3218 7.42298L13.2456 7.95384ZM17.8027 13.0319C19.7582 14.2752 22.0178 14.9572 24.3346 15.0036L24.3587 13.8039C22.2617 13.7619 20.2165 13.1445 18.4465 12.0192L17.8027 13.0319ZM11.127 6.52118C11.127 5.75158 11.4327 5.01351 11.9769 4.46932L11.1284 3.62079C10.3592 4.39002 9.92701 5.43332 9.92701 6.52118H11.127ZM11.9769 4.46932C12.5211 3.92513 13.2592 3.61941 14.0288 3.61941V2.41941C12.9409 2.41941 11.8976 2.85156 11.1284 3.62079L11.9769 4.46932ZM14.0288 3.61941C14.7984 3.61941 15.5365 3.92513 16.0807 4.46932L16.9292 3.62079C16.16 2.85156 15.1166 2.41941 14.0288 2.41941V3.61941ZM16.0807 4.46932C16.6248 5.01351 16.9306 5.75158 16.9306 6.52118H18.1306C18.1306 5.43332 17.6984 4.39002 16.9292 3.62079L16.0807 4.46932ZM16.9306 6.52118V7.68844H18.1306V6.52118H16.9306ZM17.5306 7.08844H10.527V8.28844H17.5306V7.08844ZM11.127 7.68844V6.52118H9.92701V7.68844H11.127ZM12.5512 3.17402C12.376 2.653 12.0968 2.173 11.7306 1.76313L10.8358 2.56273C11.0938 2.85141 11.2904 3.18949 11.4138 3.55646L12.5512 3.17402ZM11.7306 1.76313C11.3643 1.35326 10.9186 1.02206 10.4205 0.789626L9.91306 1.87706C10.2639 2.04077 10.5778 2.27404 10.8358 2.56273L11.7306 1.76313ZM16.3701 3.55646C16.4935 3.18949 16.6901 2.85141 16.9481 2.56273L16.0533 1.76313C15.687 2.173 15.4078 2.653 15.2326 3.17402L16.3701 3.55646ZM16.9481 2.56273C17.206 2.27404 17.52 2.04077 17.8708 1.87706L17.3634 0.789626C16.8653 1.02206 16.4196 1.35326 16.0533 1.76313L16.9481 2.56273ZM8.414 13.136C8.37106 14.9626 8.76199 16.7733 9.55469 18.4194L10.6359 17.8988C9.92551 16.4236 9.57519 14.801 9.61367 13.1642L8.414 13.136ZM9.55469 18.4194C10.3474 20.0656 11.5192 21.5003 12.974 22.6056L13.7 21.6501C12.3963 20.6596 11.3462 19.374 10.6359 17.8988L9.55469 18.4194ZM12.9423 22.5798C13.2512 22.8496 13.6474 22.9983 14.0575 22.9983V21.7983C13.9377 21.7983 13.822 21.7548 13.7318 21.676L12.9423 22.5798ZM14.0575 22.9983C14.4677 22.9983 14.8639 22.8496 15.1728 22.5798L14.3833 21.676C14.2931 21.7548 14.1774 21.7983 14.0575 21.7983V22.9983ZM15.1913 22.5629C15.929 21.862 17.1535 20.6023 18.1441 18.9719C19.1335 17.3435 19.9172 15.2994 19.6984 13.0488L18.5041 13.1649C18.6888 15.0646 18.0314 16.8465 17.1186 18.3488C16.207 19.8491 15.0682 21.0247 14.3648 21.6929L15.1913 22.5629Z" fill="#F6A80F"/>
</svg>
