<svg width="16" height="17" viewBox="0 0 16 17" fill="none" xmlns="http://www.w3.org/2000/svg">
<path d="M10.6667 5.83268C10.6667 4.35992 9.47275 3.16602 7.99999 3.16602C6.52724 3.16602 5.33333 4.35992 5.33333 5.83268" stroke="#F7A80F" stroke-width="1.2" stroke-linecap="round"/>
<path d="M5.36101 11.6104C5.55845 13.2113 6.77921 14.2774 7.99996 14.2774C9.22071 14.2774 10.4415 13.2113 10.6389 11.6104" stroke="#F7A80F" stroke-width="1.2" stroke-linecap="round"/>
<path d="M6 11.833L10 11.833" stroke="#F7A80F" stroke-width="1.2" stroke-linecap="round"/>
<path fill-rule="evenodd" clip-rule="evenodd" d="M14.2223 11.6109C14.2223 8.17446 11.4365 5.38867 8.00005 5.38867C4.56362 5.38867 1.77783 8.17446 1.77783 11.6109C1.77783 11.6109 8.00005 12.4998 8.00005 7.61089C8.00005 12.4998 14.2223 11.6109 14.2223 11.6109Z" stroke="#F7A80F" stroke-width="1.2" stroke-linecap="round"/>
<path d="M8.00005 6.94336V8.49891" stroke="#F7A80F" stroke-width="1.2" stroke-linecap="round"/>
</svg>
