<svg width="24" height="24" viewBox="0 0 24 24" fill="none" xmlns="http://www.w3.org/2000/svg">
<path d="M20.4182 16.3605V17.8717H4V16.3605C3.99951 15.8466 4.10029 15.3376 4.29658 14.8626C4.49287 14.3877 4.78082 13.956 5.14398 13.5924L6.76814 11.9753C7.1313 11.6116 7.41925 11.18 7.61554 10.705C7.81183 10.2301 7.91261 9.72107 7.91212 9.20714V7.30757C7.91212 6.16513 8.36595 5.06948 9.17378 4.26166C9.98161 3.45383 11.0773 3 12.2197 3C13.3621 3 14.4578 3.45383 15.2656 4.26166C16.0734 5.06948 16.5273 6.16513 16.5273 7.30757V9.20714C16.5268 9.72107 16.6276 10.2301 16.8238 10.705C17.0201 11.18 17.3081 11.6116 17.6712 11.9753L19.2883 13.5924C20.0159 14.3295 20.4222 15.3248 20.4182 16.3605Z" fill="#FFD400"/>
<path d="M9.86818 17.8717V18.6555C9.86818 18.964 9.92905 19.2695 10.0473 19.5544C10.1656 19.8393 10.3389 20.098 10.5573 20.3158C10.7758 20.5336 11.0351 20.7062 11.3203 20.8236C11.6056 20.941 11.9112 21.0009 12.2197 21C12.5278 21.0009 12.8331 20.9409 13.118 20.8234C13.4028 20.7059 13.6617 20.5333 13.8795 20.3154C14.0974 20.0975 14.2701 19.8387 14.3876 19.5538C14.5051 19.269 14.5651 18.9637 14.5641 18.6555V17.8717" fill="#FFD400"/>
<path d="M9.86818 17.8717V18.6555C9.86818 18.964 9.92905 19.2695 10.0473 19.5544C10.1656 19.8393 10.3389 20.098 10.5573 20.3158C10.7758 20.5336 11.0351 20.7062 11.3203 20.8236C11.6056 20.941 11.9112 21.0009 12.2197 21C12.5278 21.0009 12.8331 20.9409 13.118 20.8234C13.4028 20.7059 13.6617 20.5333 13.8795 20.3154C14.0974 20.0975 14.2701 19.8387 14.3876 19.5538C14.5051 19.269 14.5651 18.9637 14.5641 18.6555V17.8717M20.4182 16.3605V17.8717H4V16.3605C3.99951 15.8466 4.10029 15.3376 4.29658 14.8626C4.49287 14.3877 4.78082 13.956 5.14398 13.5924L6.76814 11.9753C7.1313 11.6116 7.41925 11.18 7.61554 10.705C7.81183 10.2301 7.91261 9.72107 7.91212 9.20714V7.30757C7.91212 6.16513 8.36595 5.06948 9.17378 4.26166C9.98161 3.45383 11.0773 3 12.2197 3C13.3621 3 14.4578 3.45383 15.2656 4.26166C16.0734 5.06948 16.5273 6.16513 16.5273 7.30757V9.20714C16.5268 9.72107 16.6276 10.2301 16.8238 10.705C17.0201 11.18 17.3081 11.6116 17.6712 11.9753L19.2883 13.5924C20.0159 14.3295 20.4222 15.3248 20.4182 16.3605Z" stroke="#1F1A54" stroke-width="1.8" stroke-linecap="round" stroke-linejoin="round"/>
</svg>
