<svg width="20" height="20" viewBox="0 0 20 20" fill="none" xmlns="http://www.w3.org/2000/svg">
<path d="M13.7168 5.05431C13.7295 4.56345 13.642 4.07515 13.4597 3.61921C13.2775 3.16327 13.0042 2.74923 12.6567 2.40236C12.3092 2.05548 11.8946 1.78304 11.4383 1.60164C10.982 1.42025 10.4936 1.33371 10.0027 1.3473C9.51163 1.33269 9.02272 1.41853 8.56596 1.59956C8.10921 1.78059 7.69424 2.053 7.3465 2.40008C6.99875 2.74717 6.72556 3.16161 6.54366 3.61802C6.36176 4.07443 6.27499 4.56318 6.28866 5.05431C6.28866 5.4709 6.6982 7.50446 6.6982 7.50446C7.023 9.27677 8.181 10.7737 10.0027 10.7737C11.8245 10.7737 12.9613 9.29089 13.3002 7.46916C13.3002 7.46916 13.6956 5.4356 13.7168 5.05431Z" stroke="#7C4FF6" stroke-width="1.2" stroke-linecap="round" stroke-linejoin="round"/>
<path d="M18.9984 19.3457H1L1.43072 16.14C1.56181 15.6416 1.83892 15.1938 2.22645 14.8541C2.61398 14.5144 3.09423 14.2983 3.6055 14.2336L10.0027 13.1038L16.3929 14.2336C16.9063 14.2984 17.3883 14.5162 17.7762 14.8587C18.1641 15.2013 18.4399 15.6527 18.5677 16.1541L18.9984 19.3457Z" stroke="#7C4FF6" stroke-width="1.2" stroke-linecap="round" stroke-linejoin="round"/>
</svg>
