<svg width="24" height="25" viewBox="0 0 24 25" fill="none" xmlns="http://www.w3.org/2000/svg">
<path d="M15.7168 7.05431C15.7295 6.56345 15.642 6.07515 15.4597 5.61921C15.2775 5.16327 15.0042 4.74923 14.6567 4.40236C14.3092 4.05548 13.8946 3.78304 13.4383 3.60164C12.982 3.42025 12.4936 3.33371 12.0027 3.3473C11.5116 3.33269 11.0227 3.41853 10.566 3.59956C10.1092 3.78059 9.69424 4.053 9.3465 4.40008C8.99875 4.74717 8.72556 5.16161 8.54366 5.61802C8.36176 6.07443 8.27499 6.56318 8.28866 7.05431C8.28866 7.4709 8.6982 9.50446 8.6982 9.50446C9.023 11.2768 10.181 12.7737 12.0027 12.7737C13.8245 12.7737 14.9613 11.2909 15.3002 9.46916C15.3002 9.46916 15.6956 7.4356 15.7168 7.05431Z" stroke="#7C4FF6" stroke-width="1.2" stroke-linecap="round" stroke-linejoin="round"/>
<path d="M20.9984 21.3457H3L3.43072 18.14C3.56181 17.6416 3.83892 17.1938 4.22645 16.8541C4.61398 16.5144 5.09423 16.2983 5.6055 16.2336L12.0027 15.1038L18.3929 16.2336C18.9063 16.2984 19.3883 16.5162 19.7762 16.8587C20.1641 17.2013 20.4399 17.6527 20.5677 18.1541L20.9984 21.3457Z" stroke="#7C4FF6" stroke-width="1.2" stroke-linecap="round" stroke-linejoin="round"/>
</svg>
