<svg width="24" height="24" viewBox="0 0 24 24" fill="none" xmlns="http://www.w3.org/2000/svg">
<path d="M4 7.8457C4 6.74113 4.89543 5.8457 6 5.8457H18C19.1046 5.8457 20 6.74113 20 7.8457V17.9995C20 19.1041 19.1046 19.9995 18 19.9995H6C4.89543 19.9995 4 19.1041 4 17.9995V7.8457Z" stroke="#CACBCC" stroke-width="1.2" stroke-linecap="round"/>
<path d="M4 10.1534H20" stroke="#CACBCC" stroke-width="1.2" stroke-linecap="round"/>
<path d="M8.58137 4V7.69231" stroke="#CACBCC" stroke-width="1.2" stroke-linecap="round"/>
<path d="M15.4189 4V7.69231" stroke="#CACBCC" stroke-width="1.2" stroke-linecap="round"/>
<path d="M9.0054 16.2886C9.83681 16.2886 10.5108 15.6146 10.5108 14.7832H9.51081C9.51081 15.0624 9.28453 15.2886 9.0054 15.2886V16.2886ZM10.5108 14.7832C10.5108 13.9518 9.83681 13.2778 9.0054 13.2778V14.2778C9.28453 14.2778 9.51081 14.5041 9.51081 14.7832H10.5108ZM9.0054 13.2778C8.17399 13.2778 7.5 13.9518 7.5 14.7832H8.5C8.5 14.5041 8.72628 14.2778 9.0054 14.2778V13.2778ZM7.5 14.7832C7.5 15.6146 8.17399 16.2886 9.0054 16.2886V15.2886C8.72628 15.2886 8.5 15.0624 8.5 14.7832H7.5Z" fill="#CACBCC"/>
<path d="M16 15H13" stroke="#91919C" stroke-width="1.2" stroke-linecap="round"/>
</svg>
