<svg width="48" height="48" viewBox="0 0 48 48" fill="none" xmlns="http://www.w3.org/2000/svg">
<circle cx="24" cy="24" r="24" fill="white"/>
<path d="M33.3994 21.1363L33.3994 21.1364C33.4924 21.3026 33.5393 21.4906 33.5354 21.681C33.5315 21.8714 33.4769 22.0573 33.3772 22.2196L24.0567 37.3895L24.1419 37.4419L24.0567 37.3895C23.929 37.5975 23.7341 37.7555 23.5043 37.8376C23.2745 37.9197 23.0235 37.9208 22.793 37.8408C22.5625 37.7609 22.3661 37.6046 22.2365 37.3978C22.1069 37.1911 22.0518 36.9463 22.0803 36.7039L21.981 36.6922L22.0803 36.7039L23.1581 27.5255L23.1712 27.4139H23.0588H16.1711C15.9806 27.4139 15.7935 27.3631 15.6291 27.2667C15.4648 27.1703 15.3292 27.0318 15.2362 26.8655C15.1432 26.6992 15.0963 26.5111 15.1002 26.3206C15.1042 26.1301 15.1589 25.9441 15.2587 25.7818L24.5875 10.6102L24.5875 10.6102C24.7159 10.4012 24.9122 10.2427 25.1434 10.1611C25.3747 10.0794 25.627 10.0796 25.8581 10.1616C26.0892 10.2436 26.2852 10.4025 26.4133 10.6116C26.5414 10.8207 26.5939 11.0675 26.5619 11.3106L26.5619 11.3107L25.3626 20.4744L25.3478 20.5874H25.4617H32.4645C32.655 20.5874 32.8422 20.6383 33.0065 20.7348C33.1709 20.8313 33.3065 20.9699 33.3994 21.1363ZM24.8274 31.679L25.0119 31.743L30.4558 22.8819L30.5494 22.7295H30.3706H24.1274C23.975 22.7295 23.8244 22.697 23.6856 22.6341C23.5468 22.5713 23.423 22.4795 23.3224 22.365C23.2219 22.2504 23.147 22.1158 23.1027 21.97C23.0584 21.8242 23.0457 21.6706 23.0654 21.5195L23.727 16.4647L23.5426 16.3993L18.1808 25.1193L18.0871 25.2717H18.266H24.3755C24.5268 25.2717 24.6763 25.3037 24.8143 25.3657C24.9523 25.4277 25.0756 25.5181 25.1761 25.6312C25.2766 25.7443 25.352 25.8773 25.3974 26.0216C25.4427 26.1659 25.457 26.3182 25.4393 26.4684L25.4393 26.4684L24.8274 31.679Z" fill="#1F1A54" stroke="white" stroke-width="0.2"/>
</svg>
