<svg width="48" height="48" viewBox="0 0 48 48" fill="none" xmlns="http://www.w3.org/2000/svg">
<circle cx="24" cy="24" r="24" fill="white"/>
<path d="M10.5834 25C10.2613 25 10 24.7014 10 24.3333C10 19.1868 13.6634 15 18.1666 15H29.8334C33.0954 15 36.0387 17.2119 37.3339 20.6348C37.461 20.9719 37.3256 21.3652 37.0293 21.5107C36.7341 21.656 36.3899 21.5012 36.2628 21.1626C35.1533 18.2292 32.6287 16.3333 29.8334 16.3333H18.1666C14.3062 16.3333 11.1666 19.9214 11.1666 24.3333C11.1666 24.7014 10.9053 25 10.5834 25Z" fill="#1F1A54" stroke="#1F1A54" stroke-width="0.7"/>
<path d="M10.5834 25.0001C10.4317 25.0001 10.2801 24.9335 10.175 24.8002C10.1166 24.7467 10.0701 24.6669 10.0466 24.5868C10.0117 24.5067 10 24.4269 10 24.3334C10 24.16 10.0583 23.9867 10.175 23.8668C10.3849 23.6134 10.7699 23.6134 10.9916 23.8668C11.1083 23.9867 11.1666 24.16 11.1666 24.3334C11.1666 24.4269 11.1551 24.5067 11.12 24.5868C11.0967 24.6669 11.05 24.7467 10.9916 24.8002C10.8867 24.9335 10.7351 25.0001 10.5834 25.0001Z" fill="#1F1A54" stroke="#1F1A54" stroke-width="0.7"/>
<path d="M37.416 21.6667H32.7494C32.4275 21.6667 32.166 21.3679 32.166 21C32.166 20.6321 32.4275 20.3333 32.7494 20.3333H36.8328V15.6667C36.8328 15.2986 37.0941 15 37.416 15C37.7382 15 37.9994 15.2986 37.9994 15.6667V21C37.9994 21.3679 37.7382 21.6667 37.416 21.6667Z" fill="#1F1A54" stroke="#1F1A54" stroke-width="0.7"/>
<path d="M29.8342 33.6667H18.1674C14.9053 33.6667 11.962 31.4546 10.6668 28.032C10.5397 27.6946 10.6752 27.3013 10.9715 27.156C11.2644 27.0107 11.6096 27.1653 11.738 27.5039C12.8475 30.4373 15.3721 32.3333 18.1674 32.3333H29.8342C33.6946 32.3333 36.8342 28.7454 36.8342 24.3333C36.8342 23.9653 37.0954 23.6667 37.4174 23.6667C37.7395 23.6667 38.0008 23.9653 38.0008 24.3333C38.0008 29.48 34.3374 33.6667 29.8342 33.6667Z" fill="#1F1A54" stroke="#1F1A54" stroke-width="0.7"/>
<path d="M10.5834 33.6667C10.2613 33.6667 10 33.3679 10 33V27.6667C10 27.2986 10.2613 27 10.5834 27H15.25C15.5719 27 15.8334 27.2986 15.8334 27.6667C15.8334 28.0347 15.5719 28.3333 15.25 28.3333H11.1666V33C11.1666 33.3679 10.9053 33.6667 10.5834 33.6667Z" fill="#1F1A54" stroke="#1F1A54" stroke-width="0.7"/>
</svg>
