<svg width="24" height="24" viewBox="0 0 24 24" fill="none" xmlns="http://www.w3.org/2000/svg">
  <path d="M3 5.79628H6.06104M16.3981 7.32335L14.6775 5.0293H9.50902L8.0096 7.32335H3.38004V15.7533C3.38004 16.1559 3.45944 16.5545 3.61371 16.9263C3.76797 17.2981 3.99406 17.6359 4.27904 17.9202C4.56401 18.2046 4.90227 18.4299 5.27445 18.5833C5.64663 18.7367 6.04542 18.8152 6.44798 18.8143H17.9321C18.3346 18.8152 18.7334 18.7367 19.1056 18.5833C19.4778 18.4299 19.816 18.2046 20.101 17.9202C20.386 17.6359 20.6121 17.2981 20.7663 16.9263C20.9206 16.5545 21 16.1559 21 15.7533V7.32335H16.3981ZM15.6104 13.0723C15.6104 13.7556 15.4077 14.4236 15.0281 14.9917C14.6485 15.5599 14.1089 16.0027 13.4776 16.2642C12.8463 16.5257 12.1516 16.5941 11.4815 16.4608C10.8113 16.3275 10.1957 15.9984 9.71249 15.5153C9.22932 15.0321 8.90027 14.4165 8.76696 13.7463C8.63365 13.0761 8.70207 12.3815 8.96356 11.7502C9.22506 11.1189 9.66788 10.5793 10.236 10.1997C10.8042 9.82002 11.4722 9.6174 12.1555 9.6174C13.0718 9.6174 13.9505 9.98139 14.5984 10.6293C15.2464 11.2772 15.6104 12.156 15.6104 13.0723ZM19.466 9.62431C19.466 9.776 19.421 9.92429 19.3368 10.0504C19.2525 10.1766 19.1327 10.2749 18.9926 10.3329C18.8524 10.391 18.6982 10.4062 18.5494 10.3766C18.4006 10.347 18.264 10.2739 18.1567 10.1666C18.0494 10.0594 17.9764 9.92272 17.9468 9.77394C17.9172 9.62516 17.9324 9.47094 17.9904 9.33079C18.0485 9.19065 18.1468 9.07086 18.2729 8.98658C18.3991 8.9023 18.5473 8.85732 18.699 8.85732C18.9025 8.85732 19.0975 8.93813 19.2414 9.08197C19.3852 9.2258 19.466 9.42089 19.466 9.62431Z" stroke="white" stroke-width="1.2" stroke-linecap="round" stroke-linejoin="round" />
</svg>
