<svg width="21" height="21" viewBox="0 0 21 21" fill="none" xmlns="http://www.w3.org/2000/svg">
<path fill-rule="evenodd" clip-rule="evenodd" d="M6.17736 8.74903C5.84222 9.08417 5.30051 9.08417 4.96536 8.74903L2.39394 6.1776C2.05879 5.84245 2.05879 5.30074 2.39394 4.9656L4.96536 2.39417C5.13251 2.22703 5.35193 2.14303 5.57136 2.14303C5.79079 2.14303 6.01022 2.22703 6.17736 2.39417C6.51251 2.72931 6.51251 3.27102 6.17736 3.60617L5.06908 4.71445H15.3514C17.0485 4.71445 18.4285 6.07131 18.4285 7.73931V9.85731C18.4285 10.3313 18.0454 10.7145 17.5714 10.7145C17.0974 10.7145 16.7142 10.3313 16.7142 9.85731V7.73931C16.7142 7.01674 16.1031 6.42874 15.3514 6.42874H5.06908L6.17736 7.53703C6.51251 7.87217 6.51251 8.41388 6.17736 8.74903ZM15.5021 16.7145H5.21977C3.52349 16.7145 2.14263 15.3576 2.14263 13.6896V11.5716C2.14263 11.0976 2.52577 10.7145 2.99977 10.7145C3.47377 10.7145 3.85691 11.0976 3.85691 11.5716V13.6896C3.85691 14.4113 4.46806 15.0002 5.21977 15.0002H15.5021L14.3938 13.8919C14.0595 13.5568 14.0595 13.0151 14.3938 12.6799C14.5609 12.5128 14.7803 12.4288 14.9998 12.4288C15.2192 12.4288 15.4386 12.5128 15.6058 12.6799L18.1772 15.2513C18.5123 15.5865 18.5123 16.1282 18.1772 16.4633L15.6058 19.0348C15.2715 19.3699 14.7289 19.3699 14.3938 19.0348C14.0595 18.6996 14.0595 18.1579 14.3938 17.8228L15.5021 16.7145Z" fill="white"/>
<mask id="mask0" mask-type="alpha" maskUnits="userSpaceOnUse" x="2" y="2" width="17" height="18">
<path fill-rule="evenodd" clip-rule="evenodd" d="M6.17736 8.74903C5.84222 9.08417 5.30051 9.08417 4.96536 8.74903L2.39394 6.1776C2.05879 5.84245 2.05879 5.30074 2.39394 4.9656L4.96536 2.39417C5.13251 2.22703 5.35193 2.14303 5.57136 2.14303C5.79079 2.14303 6.01022 2.22703 6.17736 2.39417C6.51251 2.72931 6.51251 3.27102 6.17736 3.60617L5.06908 4.71445H15.3514C17.0485 4.71445 18.4285 6.07131 18.4285 7.73931V9.85731C18.4285 10.3313 18.0454 10.7145 17.5714 10.7145C17.0974 10.7145 16.7142 10.3313 16.7142 9.85731V7.73931C16.7142 7.01674 16.1031 6.42874 15.3514 6.42874H5.06908L6.17736 7.53703C6.51251 7.87217 6.51251 8.41388 6.17736 8.74903ZM15.5021 16.7145H5.21977C3.52349 16.7145 2.14263 15.3576 2.14263 13.6896V11.5716C2.14263 11.0976 2.52577 10.7145 2.99977 10.7145C3.47377 10.7145 3.85691 11.0976 3.85691 11.5716V13.6896C3.85691 14.4113 4.46806 15.0002 5.21977 15.0002H15.5021L14.3938 13.8919C14.0595 13.5568 14.0595 13.0151 14.3938 12.6799C14.5609 12.5128 14.7803 12.4288 14.9998 12.4288C15.2192 12.4288 15.4386 12.5128 15.6058 12.6799L18.1772 15.2513C18.5123 15.5865 18.5123 16.1282 18.1772 16.4633L15.6058 19.0348C15.2715 19.3699 14.7289 19.3699 14.3938 19.0348C14.0595 18.6996 14.0595 18.1579 14.3938 17.8228L15.5021 16.7145Z" fill="white"/>
</mask>
<g mask="url(#mask0)">
</g>
</svg>
