<svg width="48" height="48" viewBox="0 0 48 48" fill="none" xmlns="http://www.w3.org/2000/svg">
<path d="M46.716 24C46.716 36.7082 36.4765 47 23.858 47C11.2395 47 1 36.7082 1 24C1 11.2918 11.2395 1 23.858 1C36.4765 1 46.716 11.2918 46.716 24Z" stroke="white" stroke-width="2"/>
<path d="M10.5208 25C10.2005 25 9.94083 24.7014 9.94083 24.3333C9.94083 19.1868 13.5826 15 18.0591 15H29.6569C32.8996 15 35.8255 17.2119 37.113 20.6348C37.2394 20.9719 37.1047 21.3652 36.8102 21.5107C36.5167 21.656 36.1746 21.5012 36.0482 21.1626C34.9453 18.2292 32.4356 16.3333 29.6569 16.3333H18.0591C14.2216 16.3333 11.1005 19.9214 11.1005 24.3333C11.1005 24.7014 10.8408 25 10.5208 25Z" fill="white" stroke="white" stroke-width="0.7"/>
<path d="M10.5208 25.0001C10.37 25.0001 10.2192 24.9335 10.1147 24.8002C10.0568 24.7467 10.0105 24.6669 9.98712 24.5868C9.95251 24.5067 9.94083 24.4269 9.94083 24.3334C9.94083 24.16 9.9988 23.9867 10.1147 23.8668C10.3235 23.6134 10.7062 23.6134 10.9266 23.8668C11.0425 23.9867 11.1005 24.16 11.1005 24.3334C11.1005 24.4269 11.0891 24.5067 11.0542 24.5868C11.0311 24.6669 10.9846 24.7467 10.9266 24.8002C10.8223 24.9335 10.6716 25.0001 10.5208 25.0001Z" fill="white" stroke="white" stroke-width="0.7"/>
<path d="M37.1946 21.6667H32.5556C32.2356 21.6667 31.9757 21.3679 31.9757 21C31.9757 20.6321 32.2356 20.3333 32.5556 20.3333H36.6149V15.6667C36.6149 15.2986 36.8746 15 37.1946 15C37.5148 15 37.7746 15.2986 37.7746 15.6667V21C37.7746 21.3679 37.5148 21.6667 37.1946 21.6667Z" fill="white" stroke="white" stroke-width="0.7"/>
<path d="M29.6576 33.667H18.0599C14.8171 33.667 11.8913 31.4548 10.6037 28.0322C10.4774 27.6948 10.612 27.3015 10.9066 27.1562C11.1977 27.011 11.5409 27.1655 11.6685 27.5042C12.7715 30.4375 15.2811 32.3335 18.0599 32.3335H29.6576C33.4952 32.3335 36.6162 28.7456 36.6162 24.3335C36.6162 23.9656 36.8759 23.667 37.196 23.667C37.5162 23.667 37.7759 23.9656 37.7759 24.3335C37.7759 29.4802 34.1342 33.667 29.6576 33.667Z" fill="white" stroke="white" stroke-width="0.7"/>
<path d="M10.5208 33.6667C10.2005 33.6667 9.94083 33.3679 9.94083 33V27.6667C9.94083 27.2986 10.2005 27 10.5208 27H15.1598C15.4798 27 15.7397 27.2986 15.7397 27.6667C15.7397 28.0347 15.4798 28.3333 15.1598 28.3333H11.1005V33C11.1005 33.3679 10.8408 33.6667 10.5208 33.6667Z" fill="white" stroke="white" stroke-width="0.7"/>
</svg>
