<svg width="48" height="48" viewBox="0 0 48 48" fill="none" xmlns="http://www.w3.org/2000/svg">
<circle cx="24" cy="24" r="23" stroke="white" stroke-width="2"/>
<path d="M18.0734 20.9404C17.6733 20.6721 17.1297 20.7772 16.859 21.1773L14.9619 23.997C14.7718 24.2478 14.668 24.5593 14.668 24.8744C14.668 25.6782 15.3225 26.3327 16.1263 26.3327H21.2793L20.2153 36.3901C20.2106 36.4204 20.2093 36.5101 20.2093 36.5405C20.2093 37.3443 20.8639 37.9988 21.6677 37.9988C22.125 37.9988 22.5614 37.7794 22.8507 37.3921L27.2488 31.1157C27.5265 30.7203 27.4297 30.1743 27.0341 29.8979C26.6398 29.6213 26.0938 29.7159 25.8163 30.1124L22.0738 35.4545L23.1213 25.5511C23.147 25.3048 23.0677 25.0574 22.9019 24.8733C22.7364 24.6877 22.4995 24.5828 22.2511 24.5828H16.6757L18.3101 22.155C18.5807 21.7537 18.4746 21.21 18.0734 20.9404Z" fill="white" stroke="white" stroke-width="0.4"/>
<path d="M29.3511 28.1117L33.0411 22.8352C33.2312 22.5842 33.335 22.2728 33.335 21.9579C33.335 21.1541 32.6807 20.4996 31.8769 20.4996H25.5702L26.6201 11.6309C26.6235 11.5972 26.6258 11.4921 26.6258 11.4583C26.6271 10.6545 25.9726 10 25.1688 10C24.7114 10 24.2752 10.2194 23.9766 10.6195L19.0989 17.8584L11.496 10.2566C11.1542 9.91477 10.6001 9.91477 10.2583 10.2566C9.91651 10.5985 9.91651 11.1527 10.2583 11.4944L36.5072 37.7434C36.6774 37.9136 36.9015 37.9999 37.1254 37.9999C37.3495 37.9999 37.5736 37.9149 37.7438 37.7434C38.0856 37.4016 38.0856 36.8475 37.7438 36.5055L29.3511 28.1117ZM24.743 12.6131L23.7175 21.2718C23.6884 21.5204 23.7666 21.7689 23.9322 21.9556C24.0979 22.1423 24.3359 22.2495 24.5867 22.2495H31.3181L28.0959 26.8542L20.3612 19.1194L24.743 12.6131Z" fill="white" stroke="white" stroke-width="0.4"/>
</svg>
