<svg width="20" height="20" viewBox="0 0 20 20" fill="none" xmlns="http://www.w3.org/2000/svg">
<path d="M17.853 14.395H8.37274C7.64929 14.3953 6.94909 14.1395 6.39634 13.6727C5.84359 13.206 5.47401 12.5586 5.35317 11.8453L3.48752 0.98999H1M4.06101 4.05103H19L18.0672 8.48711C17.8964 9.30745 17.4613 10.0491 16.8285 10.5983C16.1956 11.1475 15.4001 11.4739 14.5639 11.5274L5.40842 12.1217M8.27606 17.2625C8.27606 18.0029 7.67589 18.603 6.93556 18.603C6.19522 18.603 5.59506 18.0029 5.59506 17.2625C5.59506 16.5222 6.19522 15.922 6.93556 15.922C7.67589 15.922 8.27606 16.5222 8.27606 17.2625ZM17.4661 17.2625C17.4661 18.0029 16.8659 18.603 16.1256 18.603C15.3852 18.603 14.7851 18.0029 14.7851 17.2625C14.7851 16.5222 15.3852 15.922 16.1256 15.922C16.8659 15.922 17.4661 16.5222 17.4661 17.2625Z" stroke="#91919C" stroke-width="1.5" stroke-linecap="round" stroke-linejoin="round"/>
</svg>
