<svg width="16" height="16" viewBox="0 0 16 16" fill="none" xmlns="http://www.w3.org/2000/svg">
  <path d="M4.23255 5.56759V4.33325C4.23255 3.78097 4.68027 3.33325 5.23255 3.33325H8.78039H13.6611C14.2134 3.33325 14.6611 3.78097 14.6611 4.33325V8.59453C14.6611 9.14682 14.2134 9.59453 13.6611 9.59453H12.4323M8.78039 8.69823C8.78039 9.56403 8.07878 10.2659 7.21329 10.2659C6.3478 10.2659 5.64618 9.56403 5.64618 8.69823C5.64618 7.83243 6.3478 7.13056 7.21329 7.13056C8.07878 7.13056 8.78039 7.83243 8.78039 8.69823ZM2.99902 11.8289H11.4323C11.9845 11.8289 12.4323 11.3812 12.4323 10.8289V6.56759C12.4323 6.01531 11.9845 5.56759 11.4323 5.56759H2.99902C2.44674 5.56759 1.99902 6.01531 1.99902 6.56759V10.8289C1.99902 11.3812 2.44674 11.8289 2.99902 11.8289Z" stroke="currentColor" stroke-width="1.2" stroke-linecap="round" stroke-linejoin="round" />
</svg>
