<svg width="24" height="25" viewBox="0 0 24 25" fill="none" xmlns="http://www.w3.org/2000/svg">
<path d="M15.5162 7.67469C15.5148 7.44122 15.5828 7.2126 15.7114 7.01781C15.8401 6.82301 16.0238 6.67081 16.239 6.5805C16.4543 6.49018 16.6916 6.46583 16.9207 6.51052C17.1499 6.5552 17.3606 6.66692 17.5262 6.83151C17.6918 6.9961 17.8048 7.20615 17.8508 7.43502C17.8969 7.6639 17.874 7.9013 17.7849 8.11713C17.6959 8.33296 17.5448 8.5175 17.3508 8.64735C17.1568 8.77721 16.9286 8.84653 16.6951 8.84653C16.3837 8.84654 16.0849 8.7233 15.864 8.50374C15.6431 8.28418 15.5181 7.98613 15.5162 7.67469Z" stroke="#EA646C" stroke-width="1.2" stroke-linecap="round" stroke-linejoin="round"/>
<path d="M19.3071 13.1951C20.0582 12.4453 20.5879 11.5028 20.8378 10.4714C21.0877 9.43993 21.0482 8.35952 20.7236 7.34909C20.399 6.33866 19.8018 5.43739 18.9979 4.7445C18.1941 4.05161 17.2146 3.59397 16.1673 3.42196C15.12 3.24995 14.0456 3.37024 13.0623 3.76959C12.079 4.16894 11.225 4.83186 10.5942 5.68537C9.96346 6.53888 9.58043 7.54989 9.4873 8.60709C9.39417 9.66429 9.59455 10.7267 10.0664 11.6773L8.54864 13.1951L8.28744 15.0235L6.45907 15.2846L6.19788 17.113L4.36951 17.3742L3 18.7437L4.2848 20.0285C4.45807 20.2033 4.66424 20.3421 4.89142 20.4368C5.11861 20.5315 5.3623 20.5802 5.60842 20.5802C5.85455 20.5802 6.09824 20.5315 6.32542 20.4368C6.55261 20.3421 6.75878 20.2033 6.93205 20.0285L12.6713 14.2893C13.7526 14.8249 14.9748 15.0074 16.1654 14.8111C17.3561 14.6148 18.455 14.0495 19.3071 13.1951Z" stroke="#EA646C" stroke-width="1.2" stroke-linecap="round" stroke-linejoin="round"/>
</svg>
