<svg width="20" height="20" viewBox="0 0 20 20" fill="none" xmlns="http://www.w3.org/2000/svg">
<path d="M13.5162 5.67469C13.5148 5.44122 13.5828 5.2126 13.7114 5.01781C13.8401 4.82301 14.0238 4.67081 14.239 4.5805C14.4543 4.49018 14.6916 4.46583 14.9207 4.51052C15.1499 4.5552 15.3606 4.66692 15.5262 4.83151C15.6918 4.9961 15.8048 5.20615 15.8508 5.43502C15.8969 5.6639 15.874 5.9013 15.7849 6.11713C15.6959 6.33296 15.5448 6.5175 15.3508 6.64735C15.1568 6.77721 14.9286 6.84653 14.6951 6.84653C14.3837 6.84654 14.0849 6.7233 13.864 6.50374C13.6431 6.28418 13.5181 5.98613 13.5162 5.67469Z" stroke="#7C4FF6" stroke-width="1.2" stroke-linecap="round" stroke-linejoin="round"/>
<path d="M17.3071 11.1951C18.0582 10.4453 18.5879 9.50283 18.8378 8.47138C19.0877 7.43993 19.0482 6.35952 18.7236 5.34909C18.399 4.33866 17.8018 3.43739 16.9979 2.7445C16.1941 2.05161 15.2146 1.59397 14.1673 1.42196C13.12 1.24995 12.0456 1.37024 11.0623 1.76959C10.079 2.16894 9.22498 2.83186 8.59422 3.68537C7.96346 4.53888 7.58043 5.54989 7.4873 6.60709C7.39417 7.66429 7.59455 8.72669 8.06639 9.67733L6.54864 11.1951L6.28744 13.0235L4.45907 13.2846L4.19788 15.113L2.36951 15.3742L1 16.7437L2.2848 18.0285C2.45807 18.2033 2.66424 18.3421 2.89142 18.4368C3.11861 18.5315 3.3623 18.5802 3.60842 18.5802C3.85455 18.5802 4.09824 18.5315 4.32542 18.4368C4.55261 18.3421 4.75878 18.2033 4.93205 18.0285L10.6713 12.2893C11.7526 12.8249 12.9748 13.0074 14.1654 12.8111C15.3561 12.6148 16.455 12.0495 17.3071 11.1951Z" stroke="#7C4FF6" stroke-width="1.2" stroke-linecap="round" stroke-linejoin="round"/>
</svg>
