<svg width="17" height="17" viewBox="0 0 17 17" fill="none" xmlns="http://www.w3.org/2000/svg">
<circle opacity="0.2" cx="8.5" cy="8.5" r="8.5" fill="#3781FC"/>
<path d="M8.50324 4.375C7.77975 4.37511 7.06898 4.56536 6.44217 4.92668C5.81536 5.28801 5.29452 5.80772 4.93183 6.43374C4.56914 7.05976 4.37734 7.7701 4.37564 8.49359C4.37395 9.21709 4.56243 9.92832 4.92219 10.556L4.375 12.5959L6.39865 12.0519C6.94468 12.3744 7.55771 12.5666 8.1901 12.6136C8.82249 12.6607 9.45721 12.5613 10.045 12.3232C10.6327 12.0851 11.1576 11.7147 11.579 11.2408C12.0003 10.7669 12.3067 10.2022 12.4744 9.59061C12.642 8.97904 12.6664 8.33704 12.5457 7.71451C12.4249 7.09197 12.1623 6.50566 11.7781 6.00113C11.394 5.49659 10.8987 5.08741 10.3307 4.80539C9.76273 4.52337 9.13738 4.37609 8.50324 4.375Z" stroke="#3781FC" stroke-width="0.8" stroke-linecap="round" stroke-linejoin="round"/>
</svg>
