<svg width="24" height="24" viewBox="0 0 24 24" fill="none" xmlns="http://www.w3.org/2000/svg">
<g opacity="0.91">
<path d="M20.9999 12C20.9999 13.78 20.4721 15.5201 19.4831 17.0001C18.4942 18.4802 17.0886 19.6337 15.4441 20.3149C13.7995 20.9961 11.9899 21.1743 10.2441 20.8271C8.49827 20.4798 6.89462 19.6226 5.63595 18.364C4.37728 17.1053 3.52011 15.5016 3.17284 13.7558C2.82558 12.01 3.00381 10.2004 3.685 8.55585C4.36619 6.91131 5.51974 5.50571 6.99978 4.51677C8.47982 3.52784 10.2199 3 11.9999 3C14.3869 3 16.676 3.94821 18.3639 5.63604C20.0517 7.32387 20.9999 9.61305 20.9999 12Z" fill="#EAFFFB"/>
<path d="M7.58991 11.77L10.4499 15L16.4499 9.14M20.9999 12C20.9999 13.78 20.4721 15.5201 19.4831 17.0001C18.4942 18.4802 17.0886 19.6337 15.4441 20.3149C13.7995 20.9961 11.9899 21.1743 10.2441 20.8271C8.49827 20.4798 6.89462 19.6226 5.63595 18.364C4.37728 17.1053 3.52011 15.5016 3.17284 13.7558C2.82558 12.01 3.00381 10.2004 3.685 8.55585C4.36619 6.91131 5.51974 5.50571 6.99978 4.51677C8.47982 3.52784 10.2199 3 11.9999 3C14.3869 3 16.676 3.94821 18.3639 5.63604C20.0517 7.32387 20.9999 9.61305 20.9999 12Z" stroke="#00BB94" stroke-width="1.2" stroke-linecap="round" stroke-linejoin="round"/>
</g>
</svg>
