<svg width="20" height="20" viewBox="0 0 20 20" fill="none" xmlns="http://www.w3.org/2000/svg">
<path opacity="0.91" d="M5.58988 9.77L8.44988 13L14.4499 7.14M18.9999 10C18.9999 11.78 18.472 13.5201 17.4831 15.0001C16.4942 16.4802 15.0886 17.6337 13.444 18.3149C11.7995 18.9961 9.9899 19.1743 8.24407 18.8271C6.49824 18.4798 4.89459 17.6226 3.63592 16.364C2.37725 15.1053 1.52008 13.5016 1.17281 11.7558C0.825547 10.01 1.00378 8.20038 1.68497 6.55585C2.36615 4.91131 3.51971 3.50571 4.99975 2.51677C6.47979 1.52784 8.21985 1 9.99988 1C12.3868 1 14.676 1.94821 16.3638 3.63604C18.0517 5.32387 18.9999 7.61305 18.9999 10Z" stroke="#91919C" stroke-width="1.2" stroke-linecap="round" stroke-linejoin="round"/>
</svg>
