<svg width="24" height="24" viewBox="0 0 24 24" fill="none" xmlns="http://www.w3.org/2000/svg">
  <path opacity="0.91" d="M7.59 11.77L10.45 15L16.45 9.14003M21 12C21 13.7801 20.4722 15.5201 19.4832 17.0002C18.4943 18.4802 17.0887 19.6338 15.4442 20.3149C13.7996 20.9961 11.99 21.1744 10.2442 20.8271C8.49836 20.4798 6.89472 19.6227 5.63604 18.364C4.37737 17.1053 3.5202 15.5017 3.17294 13.7558C2.82567 12.01 3.0039 10.2004 3.68509 8.55588C4.36628 6.91134 5.51983 5.50574 6.99987 4.5168C8.47991 3.52787 10.22 3.00003 12 3.00003C14.387 3.00003 16.6761 3.94824 18.364 5.63607C20.0518 7.3239 21 9.61308 21 12Z" stroke="currentColor" stroke-width="1.2" stroke-linecap="round" stroke-linejoin="round" />
</svg>
