<svg width="24" height="24" viewBox="0 0 24 24" fill="none" xmlns="http://www.w3.org/2000/svg">
<path d="M12.9632 19.1907C12.3936 19.2437 11.8197 19.231 11.253 19.1527C11.0944 19.1338 10.9347 19.178 10.8082 19.2756C10.6818 19.3733 10.5987 19.5167 10.5768 19.6749C10.5661 19.7537 10.5712 19.8338 10.5918 19.9106C10.6123 19.9874 10.6479 20.0593 10.6965 20.1223C10.7451 20.1852 10.8057 20.2378 10.8748 20.2771C10.9439 20.3164 11.0201 20.3416 11.099 20.3511C12.4371 20.5258 13.7972 20.4044 15.0832 19.9953C15.212 19.952 15.3223 19.8662 15.396 19.752C15.4697 19.6378 15.5024 19.502 15.4889 19.3667L15.4711 19.1675C15.4466 19.0926 15.4076 19.0232 15.3563 18.9633C15.3051 18.9034 15.2425 18.8542 15.1721 18.8185C15.1018 18.7828 15.0251 18.7614 14.9465 18.7553C14.8679 18.7493 14.7888 18.7588 14.7139 18.7834C14.1473 18.9839 13.5601 19.1206 12.9632 19.1907Z" fill="#CACBCC"/>
<path d="M8.27376 18.3942C8.26465 18.3042 8.23561 18.2173 8.18875 18.1399C8.1419 18.0624 8.0784 17.9964 8.00287 17.9466C7.02381 17.3069 6.20267 16.4533 5.60129 15.4503C5.56104 15.3827 5.50769 15.3238 5.44436 15.2772C5.38103 15.2305 5.309 15.1969 5.23252 15.1785C5.15604 15.1601 5.07664 15.1572 4.999 15.1699C4.92137 15.1826 4.84706 15.2107 4.78044 15.2525C4.64406 15.3341 4.5456 15.4664 4.50666 15.6204C4.46772 15.7745 4.49147 15.9377 4.57272 16.0743C5.27168 17.225 6.21649 18.2068 7.33946 18.9496C7.40347 18.9962 7.47609 19.0298 7.55312 19.0482C7.63016 19.0667 7.7101 19.0697 7.78831 19.0571C7.86652 19.0446 7.94147 19.0166 8.00883 18.9749C8.07619 18.9332 8.13462 18.8786 8.18075 18.8142C8.25706 18.6882 8.28975 18.5406 8.27376 18.3942Z" fill="#CACBCC"/>
<path d="M9.85005 4.0071C9.97989 3.96398 10.0915 3.87847 10.1668 3.76431C10.2422 3.65015 10.277 3.51396 10.2657 3.37763L10.2541 3.24814C10.2297 3.17317 10.1907 3.10376 10.1394 3.04387C10.0881 2.98397 10.0255 2.93478 9.95519 2.8991C9.88487 2.86342 9.8082 2.84196 9.72957 2.83593C9.65095 2.8299 9.57191 2.83943 9.49697 2.86397C8.20475 3.28942 7.02581 4.00229 6.04877 4.94898C5.99144 5.00294 5.9455 5.06783 5.91363 5.13982C5.88177 5.21181 5.86464 5.28945 5.86325 5.36817C5.86186 5.44689 5.87624 5.52508 5.90554 5.59816C5.93484 5.67123 5.97846 5.7377 6.03385 5.79365C6.14293 5.90864 6.29308 5.9758 6.4515 5.98046C6.60993 5.98512 6.76376 5.92691 6.87941 5.81853C7.72103 4.9993 8.73637 4.38016 9.85005 4.0071Z" fill="#CACBCC"/>
<path d="M4.50022 12.1152C4.40197 10.9465 4.57166 9.77071 4.99638 8.67744C5.02896 8.59338 5.04151 8.50289 5.03301 8.41313C5.0217 8.30107 4.97959 8.19433 4.91134 8.10473C4.84308 8.01513 4.75136 7.94618 4.64632 7.90552C4.57277 7.87652 4.49414 7.86259 4.4151 7.86458C4.33606 7.86656 4.25823 7.88441 4.18622 7.91706C4.11422 7.94971 4.04951 7.99651 3.99594 8.05466C3.94238 8.11281 3.90104 8.18114 3.8744 8.25558C3.38556 9.51723 3.19082 10.8737 3.30498 12.222C3.31311 12.2986 3.33642 12.3728 3.37355 12.4403C3.41069 12.5078 3.4609 12.5672 3.52125 12.6151C3.58161 12.663 3.6509 12.6984 3.72508 12.7192C3.79926 12.74 3.87685 12.7458 3.9533 12.7363C4.10496 12.7183 4.24464 12.645 4.34556 12.5304C4.44649 12.4158 4.50156 12.2679 4.50022 12.1152Z" fill="#CACBCC"/>
<path d="M19.5405 14.1451C19.1294 15.2404 18.4806 16.231 17.641 17.0456C17.526 17.1547 17.4589 17.3048 17.4542 17.4633C17.4496 17.6217 17.5078 17.7755 17.6161 17.8912C17.7271 18.0067 17.8789 18.0739 18.039 18.0784C18.199 18.0829 18.3545 18.0243 18.4717 17.9152C19.4405 16.9748 20.1888 15.8313 20.6625 14.567C20.6938 14.4826 20.7063 14.3924 20.6991 14.3027C20.6901 14.1899 20.6489 14.0821 20.5803 13.9921C20.5118 13.9021 20.4188 13.8337 20.3125 13.7951C20.1637 13.7393 19.9988 13.7449 19.8541 13.8105C19.7094 13.8761 19.5966 13.9965 19.5405 14.1451Z" fill="#CACBCC"/>
<path d="M12.2793 3.02285C16.9185 3.02285 20.6793 6.78366 20.6793 11.4229" stroke="#91919C" stroke-width="1.2" stroke-linecap="round"/>
<path d="M16 12.5H12V7" stroke="#91919C" stroke-width="1.2" stroke-linecap="round" stroke-linejoin="round"/>
</svg>
