<svg width="40" height="40" viewBox="0 0 40 40" fill="none" xmlns="http://www.w3.org/2000/svg">
<circle cx="20" cy="20" r="19.5" stroke="#DADCE0"/>
<path d="M21.1275 21.1275L26 26M22.3515 18.1758C22.3515 19.0016 22.1066 19.809 21.6478 20.4957C21.1889 21.1824 20.5368 21.7176 19.7737 22.0337C19.0107 22.3497 18.1711 22.4324 17.3611 22.2713C16.5511 22.1102 15.807 21.7125 15.2231 21.1285C14.6391 20.5445 14.2414 19.8004 14.0802 18.9904C13.9191 18.1804 14.0018 17.3408 14.3179 16.5778C14.6339 15.8147 15.1691 15.1626 15.8558 14.7037C16.5425 14.2449 17.3499 14 18.1758 14C19.2832 14 20.3454 14.4399 21.1285 15.2231C21.9116 16.0062 22.3515 17.0683 22.3515 18.1758Z" stroke="#91919C" stroke-width="1.2" stroke-linecap="round" stroke-linejoin="round"/>
</svg>
