<svg width="24" height="24" viewBox="0 0 24 24" fill="none" xmlns="http://www.w3.org/2000/svg">
<path d="M7.80005 16.2C8.80005 17.3 10.3 18 12 18C15.3 18 18 15.3 18 12C18 8.7 15.3 6 12 6V12L7.80005 16.2Z" fill="#A8AAB7"/>
<path d="M12 21C10.6 21 9.3 20.7 8.1 20.1L8.6 19C9.7 19.5 10.8 19.8 12 19.8L12.1 21H12ZM5.7 18.4C4.7 17.5 4 16.3 3.6 15L4.7 14.6C5.1 15.7 5.7 16.7 6.6 17.5L5.7 18.4ZM3.2 12H3C3 10.6 3.3 9.3 3.9 8.1L5 8.6C4.5 9.7 4.2 10.8 4.2 12H3.2ZM19.4 9.4C19 8.3 18.4 7.3 17.5 6.5L18.3 5.6C19.3 6.5 20 7.7 20.5 9L19.4 9.4ZM6.5 6.5L5.6 5.7C6.6 4.7 7.7 4 9 3.5L9.4 4.6C8.3 5 7.3 5.7 6.5 6.5ZM15.3 5C14.3 4.5 13.1 4.2 12 4.2V3.3V3C13.4 3 14.7 3.3 15.9 3.9L15.3 5Z" fill="#DADCE0"/>
<path d="M19.6999 11.7996C19.6999 11.8996 19.6999 11.8996 19.6999 11.9996C19.6999 15.3996 17.4999 18.2996 14.3999 19.2996L14.5999 20.5996C18.2999 19.4996 20.9999 15.9996 20.9999 11.9996C20.9999 11.8996 20.9999 11.6996 20.9999 11.5996L19.6999 11.7996Z" fill="#91919C"/>
</svg>
