<svg width="16" height="16" viewBox="0 0 16 16" fill="none" xmlns="http://www.w3.org/2000/svg">
  <path d="M13.06 6.98464L13.1541 6.89523C13.6919 6.3579 13.9942 5.62887 13.9947 4.86853C13.9951 4.10819 13.6936 3.37882 13.1564 2.84086C12.6193 2.30291 11.8906 2.00044 11.1305 2C10.3704 1.99956 9.64132 2.30118 9.10356 2.83851L2.83723 9.10713C2.30009 9.64508 1.99858 10.3745 1.99902 11.1348C1.99947 11.8951 2.30182 12.6242 2.83958 13.1615C3.37734 13.6988 4.10645 14.0004 4.86651 14C5.62658 13.9996 6.35533 13.6971 6.89247 13.1591L11.1265 8.92359C11.4148 8.62938 11.5752 8.23319 11.573 7.82122C11.5707 7.40925 11.4059 7.01485 11.1143 6.72385C10.8228 6.43285 10.4282 6.2688 10.0164 6.2674C9.60457 6.26601 9.20886 6.42738 8.91538 6.71639L4.4979 11.1308" stroke="currentColor" stroke-width="1.2" stroke-linecap="round" stroke-linejoin="round" />
</svg>
