<svg width="17" height="16" viewBox="0 0 17 16" fill="none" xmlns="http://www.w3.org/2000/svg">
<path fill-rule="evenodd" clip-rule="evenodd" d="M5.73789 14.0001C6.50259 14.0001 7.1225 13.3802 7.1225 12.6155C7.1225 11.8507 6.50259 11.2308 5.73789 11.2308C4.97318 11.2308 4.35327 11.8507 4.35327 12.6155C4.35327 13.3802 4.97318 14.0001 5.73789 14.0001Z" stroke="#6E98EB" stroke-width="1.2" stroke-linecap="round"/>
<path fill-rule="evenodd" clip-rule="evenodd" d="M12.1996 14.0001C12.9643 14.0001 13.5842 13.3802 13.5842 12.6155C13.5842 11.8507 12.9643 11.2308 12.1996 11.2308C11.4349 11.2308 10.8149 11.8507 10.8149 12.6155C10.8149 13.3802 11.4349 14.0001 12.1996 14.0001Z" stroke="#6E98EB" stroke-width="1.2" stroke-linecap="round"/>
<path d="M11.7378 5.69238H13.3685C13.7774 5.69238 14.1451 5.94133 14.2969 6.32099L14.8255 7.64246C14.92 7.8787 14.9686 8.1308 14.9686 8.38524V10.7693C14.9686 11.534 14.3486 12.1539 13.5839 12.1539V12.1539" stroke="#6E98EB" stroke-width="1.2" stroke-linecap="round"/>
<path d="M2.96875 9.38462V4C2.96875 2.89543 3.86418 2 4.96875 2H9.73798C10.8425 2 11.738 2.89543 11.738 4V6.38461C11.738 8.04147 10.3948 9.38462 8.73798 9.38462H2.96875ZM2.96875 9.38462V10.7692C2.96875 11.5339 3.58866 12.1538 4.35337 12.1538V12.1538" stroke="#6E98EB" stroke-width="1.2" stroke-linecap="round"/>
<path d="M7.12261 12.1539H10.8149" stroke="#6E98EB" stroke-width="1.2" stroke-linecap="round"/>
</svg>
