<svg width="14" height="14" viewBox="0 0 14 14" fill="none" xmlns="http://www.w3.org/2000/svg">
<path fill-rule="evenodd" clip-rule="evenodd" d="M3.76938 13.0002C4.53408 13.0002 5.154 12.3803 5.154 11.6156C5.154 10.8509 4.53408 10.231 3.76938 10.231C3.00468 10.231 2.38477 10.8509 2.38477 11.6156C2.38477 12.3803 3.00468 13.0002 3.76938 13.0002Z" stroke="#91919C" stroke-width="1.2" stroke-linecap="round"/>
<path fill-rule="evenodd" clip-rule="evenodd" d="M10.2303 13.0002C10.995 13.0002 11.6149 12.3803 11.6149 11.6156C11.6149 10.8509 10.995 10.231 10.2303 10.231C9.46562 10.231 8.8457 10.8509 8.8457 11.6156C8.8457 12.3803 9.46562 13.0002 10.2303 13.0002Z" stroke="#91919C" stroke-width="1.2" stroke-linecap="round"/>
<path d="M9.76953 4.69238H10.7232C11.541 4.69238 12.2764 5.19028 12.5801 5.9496L12.8573 6.64246C12.9517 6.8787 13.0003 7.1308 13.0003 7.38524V9.76931C13.0003 10.534 12.3804 11.1539 11.6157 11.1539V11.1539" stroke="#91919C" stroke-width="1.2" stroke-linecap="round"/>
<path d="M1 8.38462V4C1 2.34315 2.34315 1 4 1H6.76923C8.42608 1 9.76923 2.34315 9.76923 4V5.38461C9.76923 7.04147 8.42608 8.38462 6.76923 8.38462H1V9.76923C1 10.5339 1.61991 11.1538 2.38462 11.1538V11.1538" stroke="#91919C" stroke-width="1.2" stroke-linecap="round"/>
<path d="M5.15362 11.1536H8.84593" stroke="#91919C" stroke-width="1.2" stroke-linecap="round"/>
</svg>
