<svg width="40" height="40" viewBox="0 0 40 40" fill="none" xmlns="http://www.w3.org/2000/svg">
<path d="M20 35C28.2843 35 35 34.3284 35 33.5C35 32.6716 28.2843 32 20 32C11.7157 32 5 32.6716 5 33.5C5 34.3284 11.7157 35 20 35Z" fill="#9DAFED"/>
<path d="M29.6273 6H7.3727C6.06229 6 5 7.07472 5 8.40045V22.5995C5 23.9253 6.06229 25 7.3727 25H29.6273C30.9377 25 32 23.9253 32 22.5995V8.40045C32 7.07472 30.9377 6 29.6273 6Z" fill="white"/>
<path d="M5 11.9368H32M7.93409 16.6949H13.8023M7.3727 6H29.6273C30.9377 6 32 7.07472 32 8.40045V22.5995C32 23.9253 30.9377 25 29.6273 25H7.3727C6.06229 25 5 23.9253 5 22.5995V8.40045C5 7.07472 6.06229 6 7.3727 6Z" stroke="#1F1A54" stroke-width="0.8" stroke-linecap="round" stroke-linejoin="round"/>
<path d="M30 30C33.866 30 37 26.866 37 23C37 19.134 33.866 16 30 16C26.134 16 23 19.134 23 23C23 26.866 26.134 30 30 30Z" fill="#FFD400"/>
<path fill-rule="evenodd" clip-rule="evenodd" d="M30.1 24.2C29.7686 24.2 29.5 23.9072 29.5 23.5461V19.054C29.5 18.6928 29.7686 18.4 30.1 18.4C30.4314 18.4 30.7 18.6928 30.7 19.054V23.5461C30.7 23.9072 30.4314 24.2 30.1 24.2Z" fill="#1F1A54"/>
<path d="M29.5 26C29.5 25.6687 29.7686 25.4 30.1 25.4C30.4314 25.4 30.7 25.6687 30.7 26C30.7 26.3314 30.4314 26.6 30.1 26.6C29.7686 26.6 29.5 26.3314 29.5 26Z" fill="#1F1A54"/>
<rect x="5" y="10" width="27" height="4" fill="#1F1A54"/>
</svg>
