<svg width="24" height="25" viewBox="0 0 24 25" fill="none" xmlns="http://www.w3.org/2000/svg">
  <path d="M14.9596 15.0889V19.001C14.9596 19.3095 14.8987 19.6149 14.7805 19.8998C14.6622 20.1847 14.4889 20.4435 14.2704 20.6613C14.052 20.8791 13.7927 21.0516 13.5074 21.169C13.2222 21.2864 12.9165 21.3464 12.6081 21.3454H4V3.34546H12.6081C12.9169 3.34546 13.2227 3.40628 13.508 3.52446C13.7933 3.64263 14.0525 3.81584 14.2708 4.0342C14.4892 4.25256 14.6624 4.51179 14.7806 4.79708C14.8988 5.08238 14.9596 5.38816 14.9596 5.69697V9.60909M10.2636 12.349H20.4394M20.4394 12.349L17.1204 15.6679M20.4394 12.349L17.1204 9.02298" stroke="currentColor" stroke-width="1.2" stroke-linecap="round" stroke-linejoin="round" />
</svg>
