<svg width="20" height="6" viewBox="0 0 20 6" fill="none" xmlns="http://www.w3.org/2000/svg">
<path d="M4.91059 2.95529C4.91059 3.34201 4.79591 3.72005 4.58106 4.04159C4.36621 4.36314 4.06083 4.61376 3.70355 4.76175C3.34627 4.90974 2.95312 4.94846 2.57383 4.87301C2.19455 4.79757 1.84615 4.61135 1.57269 4.33789C1.29924 4.06444 1.11302 3.71604 1.03757 3.33675C0.962126 2.95746 1.00085 2.56432 1.14884 2.20703C1.29683 1.84975 1.54744 1.54438 1.86899 1.32953C2.19054 1.11468 2.56857 1 2.95529 1C3.21207 1 3.46632 1.05058 3.70355 1.14884C3.94078 1.2471 4.15633 1.39113 4.33789 1.57269C4.51946 1.75426 4.66349 1.96981 4.76175 2.20703C4.86001 2.44426 4.91059 2.69852 4.91059 2.95529Z" stroke="white" stroke-width="1.2" stroke-linecap="round" stroke-linejoin="round"/>
<path d="M11.9553 2.95529C11.9553 3.34201 11.8406 3.72005 11.6258 4.04159C11.4109 4.36314 11.1055 4.61376 10.7483 4.76175C10.391 4.90974 9.99782 4.94846 9.61853 4.87301C9.23924 4.79757 8.89085 4.61135 8.61739 4.33789C8.34394 4.06444 8.15772 3.71604 8.08227 3.33675C8.00683 2.95746 8.04555 2.56432 8.19354 2.20703C8.34153 1.84975 8.59214 1.54438 8.91369 1.32953C9.23524 1.11468 9.61327 1 9.99999 1C10.5186 1 11.0159 1.206 11.3826 1.57269C11.7493 1.93938 11.9553 2.43672 11.9553 2.95529Z" stroke="white" stroke-width="1.2" stroke-linecap="round" stroke-linejoin="round"/>
<path d="M19 2.95529C19.0014 3.34371 18.8875 3.7238 18.6727 4.04743C18.4579 4.37107 18.1519 4.62369 17.7935 4.77329C17.4351 4.9229 17.0403 4.96277 16.6591 4.88785C16.278 4.81293 15.9277 4.6266 15.6526 4.35244C15.3774 4.07828 15.1898 3.72864 15.1135 3.34779C15.0372 2.96694 15.0757 2.57202 15.224 2.21303C15.3723 1.85405 15.6238 1.54715 15.9467 1.33121C16.2695 1.11527 16.6492 1 17.0376 1C17.5569 0.999997 18.0549 1.20577 18.4227 1.57226C18.7905 1.93875 18.9981 2.43607 19 2.95529Z" stroke="white" stroke-width="1.2" stroke-linecap="round" stroke-linejoin="round"/>
</svg>
