<svg width="130" height="149" viewBox="0 0 130 149" fill="none" xmlns="http://www.w3.org/2000/svg">
<path d="M126.104 111.534C126.533 111.278 126.884 110.917 127.122 110.508C127.37 110.067 127.5 109.594 127.5 109.096V39.8926C127.5 38.8848 126.967 37.9678 126.115 37.4726L126.104 111.534ZM126.104 111.534C126.101 111.535 126.098 111.537 126.096 111.538L66.3951 146.126C66.3943 146.127 66.3935 146.127 66.3927 146.128C65.5296 146.624 64.4812 146.624 63.6182 146.128C63.6174 146.127 63.6167 146.127 63.6159 146.126L3.88689 111.517C3.88662 111.517 3.88596 111.517 3.88568 111.516C3.03296 111.021 2.5 110.104 2.5 109.096V39.8926C2.5 39.3989 2.63343 38.9175 2.87462 38.4984C3.11177 38.0864 3.46451 37.7233 3.89654 37.4661L63.6049 2.87354C63.6056 2.87315 63.6062 2.87276 63.6069 2.87238C64.4704 2.37575 65.5193 2.37587 66.3827 2.87275C66.3831 2.87302 66.3836 2.87328 66.3841 2.87354L126.113 37.4717L126.104 111.534Z" fill="#E8E8E8" stroke="white" stroke-width="5"/>
<mask id="mask0" mask-type="alpha" maskUnits="userSpaceOnUse" x="5" y="6" width="120" height="138">
<path fill-rule="evenodd" clip-rule="evenodd" d="M124.128 109.42C123.711 110.148 123.1 110.773 122.357 111.214L67.4002 143.173C65.894 144.044 64.0519 144.044 62.5457 143.173L7.57837 111.204C6.08232 110.332 5.15619 108.723 5.15619 106.971V43.0532C5.15619 42.182 5.39027 41.3415 5.80753 40.6138C6.2248 39.8861 6.83543 39.2608 7.57837 38.8201L62.5355 6.86143C64.0417 5.9902 65.8838 5.9902 67.3901 6.86143L122.357 38.8201C123.853 39.6913 124.78 41.3005 124.78 43.0532V106.971C124.78 107.852 124.545 108.682 124.128 109.42Z" fill="black"/>
</mask>
<g mask="url(#mask0)">
<path opacity="0.5" d="M122.672 144.104L122.296 143.137C118.444 131.236 113.042 122.606 101.92 120.642L79.2518 113.898V103.971C83.8644 99.8689 86.5415 95.6407 89.0741 88.1037C93.4459 88.9648 97.8563 81.0213 98.9444 75.0904C100.033 69.1594 98.4244 65.6956 94.1296 64.641C94.1296 64.2927 94.1296 63.9347 94.1296 63.5961C94.1296 46.7707 90.3355 28.0586 65.4237 28.0586C40.5118 28.0586 36.7755 46.7707 36.7755 63.5961C36.7755 63.9347 36.7755 64.2927 36.7755 64.641C32.5192 65.6956 30.9207 69.2368 31.9607 75.0904C33.0007 80.9439 37.5555 88.9551 41.8889 88.1037C44.4215 95.6407 47.0985 99.8689 51.7111 103.971V113.898L28.0703 120.593C16.9481 122.557 11.5555 131.188 7.70368 143.137L7.32812 144.104" fill="#CACBCC"/>
</g>
</svg>
