<svg width="24" height="24" viewBox="0 0 24 24" fill="none" xmlns="http://www.w3.org/2000/svg">
<circle cx="12" cy="12" r="6" fill="#EA646C"/>
<path fill-rule="evenodd" clip-rule="evenodd" d="M10.2732 9.22088C9.98195 8.92637 9.50971 8.92637 9.21845 9.22088C8.92718 9.5154 8.92718 9.9929 9.21845 10.2874L10.8844 11.9719L9.24645 13.6256C8.95497 13.9198 8.95497 14.397 9.24645 14.6913C9.53794 14.9856 10.0105 14.9856 10.302 14.6913L11.9391 13.0384L13.5774 14.695C13.8687 14.9895 14.3409 14.9895 14.6322 14.695C14.9234 14.4005 14.9234 13.923 14.6322 13.6285L12.9947 11.9727L14.6643 10.287C14.9558 9.99271 14.9558 9.51557 14.6643 9.22128C14.3729 8.92699 13.9003 8.92699 13.6088 9.22128L11.9399 10.9062L10.2732 9.22088Z" fill="white"/>
</svg>