<svg width="24" height="25" viewBox="0 0 24 25" fill="none" xmlns="http://www.w3.org/2000/svg">
<path d="M12.0071 3.3457C10.4285 3.34595 8.87778 3.76103 7.5102 4.54938C6.14261 5.33772 5.00622 6.47163 4.2149 7.83749C3.42357 9.20335 3.0051 10.7532 3.00141 12.3317C2.99772 13.9103 3.40894 15.462 4.19388 16.8316L3 21.2821L7.41523 20.0953C8.60658 20.7989 9.9441 21.2182 11.3239 21.3209C12.7036 21.4236 14.0885 21.2067 15.3708 20.6872C16.6532 20.1677 17.7985 19.3596 18.7178 18.3256C19.6371 17.2916 20.3056 16.0596 20.6714 14.7252C21.0372 13.3909 21.0904 11.9902 20.827 10.6319C20.5635 9.27365 19.9904 7.99442 19.1523 6.89361C18.3141 5.7928 17.2335 4.90006 15.9943 4.28473C14.755 3.66941 13.3906 3.34808 12.0071 3.3457Z" fill="white" stroke="#3057BA" stroke-width="1.2" stroke-linecap="round" stroke-linejoin="round"/>
<path d="M8.63071 10.2692C8.63071 10.6006 8.89934 10.8692 9.23071 10.8692C9.56208 10.8692 9.83071 10.6006 9.83071 10.2692H8.63071ZM11.9999 13.7308L11.5508 13.3329C11.4536 13.4427 11.3999 13.5842 11.3999 13.7308H11.9999ZM11.3999 13.9615C11.3999 14.2929 11.6686 14.5615 11.9999 14.5615C12.3313 14.5615 12.5999 14.2929 12.5999 13.9615H11.3999ZM11.3999 17.2522C11.3999 17.5836 11.6686 17.8522 11.9999 17.8522C12.3313 17.8522 12.5999 17.5836 12.5999 17.2522H11.3999ZM12.5999 16.5C12.5999 16.1686 12.3313 15.9 11.9999 15.9C11.6686 15.9 11.3999 16.1686 11.3999 16.5H12.5999ZM9.83071 10.2692C9.83071 9.0712 10.8019 8.1 11.9999 8.1V6.9C10.1392 6.9 8.63071 8.40846 8.63071 10.2692H9.83071ZM11.9999 8.1C13.198 8.1 14.1692 9.0712 14.1692 10.2692H15.3692C15.3692 8.40846 13.8607 6.9 11.9999 6.9V8.1ZM11.3999 13.7308V13.9615H12.5999V13.7308H11.3999ZM14.1692 10.2692C14.1692 10.7328 13.8655 11.1982 13.2969 11.744C13.0216 12.0083 12.7214 12.2579 12.4117 12.5224C12.1131 12.7776 11.8006 13.0509 11.5508 13.3329L12.4491 14.1286C12.6364 13.9171 12.8887 13.6933 13.1912 13.4348C13.4828 13.1857 13.8203 12.905 14.1279 12.6097C14.7254 12.0361 15.3692 11.2643 15.3692 10.2692H14.1692ZM12.5999 17.2522V16.5H11.3999V17.2522H12.5999Z" fill="#6E98EB"/>
</svg>
