<svg width="20" height="20" viewBox="0 0 20 20" fill="none" xmlns="http://www.w3.org/2000/svg">
  <path d="M10.0071 1.3457C8.42853 1.34595 6.87778 1.76103 5.5102 2.54938C4.14261 3.33772 3.00622 4.47163 2.2149 5.83749C1.42357 7.20335 1.0051 8.7532 1.00141 10.3317C0.997719 11.9103 1.40894 13.462 2.19388 14.8316L1 19.2821L5.41523 18.0953C6.60658 18.7989 7.9441 19.2182 9.32386 19.3209C10.7036 19.4236 12.0885 19.2067 13.3708 18.6872C14.6532 18.1677 15.7985 17.3596 16.7178 16.3256C17.6371 15.2916 18.3056 14.0596 18.6714 12.7252C19.0372 11.3909 19.0904 9.99016 18.827 8.63191C18.5635 7.27365 17.9904 5.99442 17.1523 4.89361C16.3141 3.7928 15.2335 2.90006 13.9943 2.28473C12.755 1.66941 11.3906 1.34808 10.0071 1.3457Z" fill="white" stroke="#F7A80F" stroke-width="1.2" stroke-linecap="round" stroke-linejoin="round" />
  <path d="M6.63071 8.26874C6.63071 8.60011 6.89934 8.86874 7.23071 8.86874C7.56208 8.86874 7.83071 8.60011 7.83071 8.26874H6.63071ZM9.99994 11.7303L9.55081 11.3324C9.45361 11.4422 9.39994 11.5837 9.39994 11.7303H9.99994ZM9.39994 11.961C9.39994 12.2924 9.66857 12.561 9.99994 12.561C10.3313 12.561 10.5999 12.2924 10.5999 11.961H9.39994ZM9.39994 15.2517C9.39994 15.5831 9.66857 15.8517 9.99994 15.8517C10.3313 15.8517 10.5999 15.5831 10.5999 15.2517H9.39994ZM10.5999 14.4995C10.5999 14.1681 10.3313 13.8995 9.99994 13.8995C9.66857 13.8995 9.39994 14.1681 9.39994 14.4995H10.5999ZM7.83071 8.26874C7.83071 7.07071 8.80191 6.09951 9.99994 6.09951V4.89951C8.13917 4.89951 6.63071 6.40797 6.63071 8.26874H7.83071ZM9.99994 6.09951C11.198 6.09951 12.1692 7.07071 12.1692 8.26874H13.3692C13.3692 6.40797 11.8607 4.89951 9.99994 4.89951V6.09951ZM9.39994 11.7303V11.961H10.5999V11.7303H9.39994ZM12.1692 8.26874C12.1692 8.73226 11.8655 9.19771 11.2969 9.74352C11.0216 10.0078 10.7214 10.2574 10.4117 10.522C10.1131 10.7771 9.8006 11.0504 9.55081 11.3324L10.4491 12.1281C10.6364 11.9166 10.8887 11.6928 11.1912 11.4343C11.4828 11.1852 11.8203 10.9045 12.1279 10.6092C12.7254 10.0357 13.3692 9.26386 13.3692 8.26874H12.1692ZM10.5999 15.2517V14.4995H9.39994V15.2517H10.5999Z" fill="#FFD400" />
</svg>
