<svg width="32" height="32" viewBox="0 0 32 32" fill="none" xmlns="http://www.w3.org/2000/svg">
<g clip-path="url(#clip0)">
<path d="M20.3124 2.50977H3.30438C2.31324 2.50977 1.50977 3.31324 1.50977 4.30438V27.6955C1.50977 28.6866 2.31324 29.4901 3.30438 29.4901H20.3124C21.3035 29.4901 22.107 28.6866 22.107 27.6955V4.30438C22.107 3.31324 21.3035 2.50977 20.3124 2.50977Z" stroke="#1F1A54" stroke-miterlimit="10"/>
<path d="M11.6553 7.7207H18.2729" stroke="#1F1A54" stroke-linecap="round" stroke-linejoin="round"/>
<path d="M8.51465 5.83398H5.69018C5.4255 5.83398 5.21094 6.04855 5.21094 6.31323V9.11731C5.21094 9.38198 5.4255 9.59655 5.69018 9.59655H8.51465C8.77933 9.59655 8.99389 9.38198 8.99389 9.11731V6.31323C8.99389 6.04855 8.77933 5.83398 8.51465 5.83398Z" fill="#FFD400"/>
<path d="M6.04736 7.70005L7.07723 8.56677L9.44285 6.10938" stroke="#1F1A54" stroke-linecap="round" stroke-linejoin="round"/>
<path d="M11.6553 14.1133H18.2729" stroke="#1F1A54" stroke-linecap="round" stroke-linejoin="round"/>
<path d="M8.51465 12.2383H5.69018C5.4255 12.2383 5.21094 12.4528 5.21094 12.7175V15.5216C5.21094 15.7863 5.4255 16.0008 5.69018 16.0008H8.51465C8.77933 16.0008 8.99389 15.7863 8.99389 15.5216V12.7175C8.99389 12.4528 8.77933 12.2383 8.51465 12.2383Z" fill="#FFD400"/>
<path d="M6.04736 14.1028L7.07723 14.9695L9.44285 12.502" stroke="#1F1A54" stroke-linecap="round" stroke-linejoin="round"/>
<path d="M11.5942 20.5176H18.2221" stroke="#1F1A54" stroke-linecap="round" stroke-linejoin="round"/>
<path d="M8.46387 18.6309H5.6394C5.37472 18.6309 5.16016 18.8454 5.16016 19.1101V21.9142C5.16016 22.1789 5.37472 22.3934 5.6394 22.3934H8.46387C8.72855 22.3934 8.94311 22.1789 8.94311 21.9142V19.1101C8.94311 18.8454 8.72855 18.6309 8.46387 18.6309Z" fill="#FFD400"/>
<path d="M15.9789 19.151C15.8895 19.1498 15.8016 19.1281 15.722 19.0874C15.6425 19.0467 15.5733 18.9882 15.52 18.9165C15.4681 18.8475 15.4328 18.7674 15.4168 18.6825C15.4009 18.5976 15.4048 18.5102 15.4282 18.427L16.142 15.8677L27.3583 3.63171C27.5057 3.45175 27.6881 3.30368 27.8946 3.19652C28.101 3.08937 28.3271 3.02538 28.5591 3.00845C28.7911 2.99152 29.024 3.02201 29.2439 3.09806C29.4637 3.17411 29.6657 3.29412 29.8376 3.45079C30.0095 3.60745 30.1477 3.79748 30.2438 4.0093C30.3399 4.22112 30.3918 4.45029 30.3965 4.68283C30.4011 4.91538 30.3583 5.14643 30.2707 5.3619C30.1832 5.57738 30.0526 5.77277 29.8871 5.93615L18.6708 18.1721L16.1828 19.1102C16.1169 19.1326 16.0483 19.1463 15.9789 19.151Z" fill="#FFD400"/>
<path d="M28.6024 3.34515C28.9787 3.33148 29.3452 3.46709 29.6221 3.72242C29.7634 3.84918 29.8782 4.00268 29.9598 4.17404C30.0415 4.3454 30.0885 4.53124 30.0979 4.72084C30.1074 4.91044 30.0793 5.10003 30.0151 5.27869C29.9509 5.45735 29.852 5.62153 29.724 5.76175L18.5179 17.9467L16.0911 18.8746H15.9789C15.9304 18.8747 15.8826 18.8636 15.839 18.8422C15.7955 18.8208 15.7575 18.7897 15.7279 18.7513C15.6983 18.7128 15.678 18.6681 15.6685 18.6205C15.659 18.573 15.6605 18.5238 15.673 18.477L16.3766 15.9788L27.5113 3.81419C27.647 3.66539 27.8124 3.54675 27.9969 3.46595C28.1813 3.38515 28.3806 3.34399 28.582 3.34515H28.6024ZM28.582 2.83531C28.3099 2.83369 28.0404 2.8891 27.791 2.99799C27.5417 3.10688 27.3179 3.26682 27.1341 3.46751L15.9789 15.7035L15.8974 15.7953V15.9074L15.1836 18.3138C15.1483 18.4349 15.1419 18.5625 15.1649 18.6865C15.1879 18.8105 15.2397 18.9273 15.3162 19.0276C15.3932 19.131 15.4931 19.2152 15.6081 19.2735C15.7231 19.3319 15.85 19.3629 15.9789 19.3641C16.0853 19.3774 16.1932 19.367 16.295 19.3335L18.732 18.4158H18.8442L18.9258 18.324L30.0605 6.07785C30.2343 5.88823 30.3688 5.66607 30.4563 5.42419C30.5438 5.18231 30.5824 4.92549 30.5701 4.66858C30.5578 4.41166 30.4947 4.15973 30.3845 3.92733C30.2743 3.69493 30.1191 3.48666 29.928 3.31456C29.566 2.98382 29.0927 2.80176 28.6024 2.80472L28.582 2.83531Z" fill="white"/>
<path d="M26.3693 5.05859L28.531 7.09792C28.6542 7.20819 28.7542 7.34192 28.8252 7.4913C28.8961 7.64068 28.9366 7.80271 28.9442 7.96791C28.9518 8.13311 28.9264 8.29817 28.8694 8.45343C28.8125 8.60869 28.7251 8.75103 28.6125 8.87214L24.3911 13.5218" stroke="#1F1A54" stroke-linecap="round" stroke-linejoin="round"/>
</g>
<defs>
<clipPath id="clip0">
<rect width="29.5703" height="28" fill="white" transform="translate(1 2)"/>
</clipPath>
</defs>
</svg>
