<svg width="16" height="16" viewBox="0 0 16 16" fill="none" xmlns="http://www.w3.org/2000/svg">
<path d="M9.28186 8.49098L9.28186 7.33341M9.28186 7.33341L9.28186 6.15765M9.28186 7.33341L8.10598 7.33341M9.28186 7.33341L10.4393 7.33341M9.28186 2.66674C11.7742 2.66674 13.7947 4.6872 13.7947 7.17956C13.7947 9.67192 11.7742 11.6924 9.28186 11.6924C6.7895 11.6924 4.76905 9.67192 4.76905 7.17956C4.76905 4.6872 6.7895 2.66674 9.28186 2.66674Z" stroke="white" stroke-width="1.2" stroke-linecap="round"/>
<path d="M11.9485 10.872L13.7946 13.3335" stroke="white" stroke-width="1.2" stroke-linecap="round"/>
<path d="M3.53829 8.82075L2.71777 8.82075" stroke="white" stroke-width="1.2" stroke-linecap="round"/>
<path d="M3.53829 3.0771L2.71777 3.0771" stroke="white" stroke-width="1.2" stroke-linecap="round"/>
<path d="M3.53829 5.94873L2.71777 5.94873" stroke="white" stroke-width="1.2" stroke-linecap="round"/>
</svg>
