<svg width="24" height="24" viewBox="0 0 24 24" fill="none" xmlns="http://www.w3.org/2000/svg">
<path d="M18.388 5.37218V3M18.388 9.12782V21M18.388 9.12782C18.0153 9.12916 17.6507 9.01979 17.3403 8.8136C17.0299 8.60741 16.7877 8.31367 16.6445 7.96965C16.5013 7.62563 16.4634 7.24683 16.5358 6.88128C16.6082 6.51573 16.7875 6.17992 17.051 5.91642C17.3145 5.65292 17.6503 5.47361 18.0159 5.40124C18.3814 5.32887 18.7602 5.3667 19.1042 5.50992C19.4482 5.65314 19.742 5.89531 19.9482 6.2057C20.1544 6.5161 20.2637 6.88074 20.2624 7.25338C20.2624 7.75051 20.0649 8.22728 19.7134 8.57881C19.3619 8.93033 18.8851 9.12782 18.388 9.12782ZM11.6413 3V12.7511M11.6413 16.5V21M11.6413 16.5C11.2706 16.5 10.9082 16.3901 10.6 16.1841C10.2917 15.9781 10.0515 15.6854 9.90959 15.3429C9.76772 15.0004 9.7306 14.6235 9.80292 14.2599C9.87525 13.8963 10.0538 13.5623 10.3159 13.3001C10.5781 13.038 10.9121 12.8595 11.2757 12.7871C11.6393 12.7148 12.0161 12.7519 12.3587 12.8938C12.7012 13.0357 12.9939 13.2759 13.1999 13.5842C13.4058 13.8924 13.5158 14.2548 13.5158 14.6256C13.5158 15.1227 13.3183 15.5995 12.9668 15.951C12.6152 16.3025 12.1385 16.5 11.6413 16.5ZM4.88796 3V6.88128M4.88796 11.1278V21M4.88796 11.1278C4.51532 11.1292 4.15068 11.0198 3.84028 10.8136C3.52988 10.6074 3.28772 10.3137 3.14449 9.96965C3.00127 9.62563 2.96345 9.24683 3.03582 8.88128C3.10819 8.51573 3.28749 8.17991 3.55099 7.91642C3.81449 7.65292 4.15031 7.47361 4.51586 7.40124C4.8814 7.32887 5.26021 7.3667 5.60423 7.50992C5.94825 7.65314 6.24198 7.89531 6.44818 8.2057C6.65437 8.5161 6.76373 8.88074 6.76239 9.25338C6.76239 9.49954 6.71391 9.74328 6.61971 9.9707C6.52551 10.1981 6.38744 10.4048 6.21339 10.5788C6.03933 10.7529 5.83269 10.8909 5.60527 10.9851C5.37786 11.0793 5.13411 11.1278 4.88796 11.1278Z" stroke="#91919C" stroke-width="1.2" stroke-linecap="round" stroke-linejoin="round"/>
</svg>
