<svg width="14" height="12" viewBox="0 0 14 12" fill="none" xmlns="http://www.w3.org/2000/svg">
<path d="M13.0105 6.66675V4.04655C13.0105 3.30528 12.6014 2.62355 11.9155 2.3426C10.7389 1.86075 8.80162 1.22213 7.04959 1.35691C5.17767 1.5009 4.18728 2.82027 3.74529 3.64935C3.53809 4.03802 3.68652 4.49643 4.03943 4.75996V4.75996C4.37082 5.00743 4.8172 5.03549 5.17698 4.83148L7.33992 3.60499C7.41836 3.5605 7.51692 3.57433 7.5801 3.63869L12.2479 8.39361C12.5712 8.72293 12.5858 9.24583 12.2814 9.5927V9.5927C11.9629 9.95567 11.4117 9.99486 11.045 9.68059L8.74307 7.70748" stroke="#91919C" stroke-width="1.2" stroke-linecap="round"/>
<path d="M4.95405 1.99197L2.23226 1.69123C1.6401 1.6258 1.12244 2.08941 1.12244 2.68518V6.47144C1.12244 7.4069 1.44314 8.31903 2.10969 8.97538C3.3549 10.2015 5.5037 11.9526 6.91683 11.0945" stroke="#91919C" stroke-width="1.2" stroke-linecap="round"/>
<path d="M8.74314 7.70752L10.3243 9.09414C10.6545 9.38368 10.6968 9.88239 10.42 10.2234V10.2234C10.1279 10.5834 9.59506 10.6284 9.2466 10.3226L7.47302 8.76595" stroke="#91919C" stroke-width="1.2" stroke-linecap="round"/>
<path d="M7.47301 8.76587L8.54565 9.70442C8.89093 10.0065 8.93208 10.529 8.63837 10.8814V10.8814C8.34379 11.2349 7.82054 11.2878 7.46123 11.0003L5.99121 9.8243" stroke="#91919C" stroke-width="1.2" stroke-linecap="round"/>
</svg>
