<svg width="16" height="16" viewBox="0 0 16 16" fill="none" xmlns="http://www.w3.org/2000/svg">
<path fill-rule="evenodd" clip-rule="evenodd" d="M2.54199 5.61742C2.54199 5.24953 2.74398 4.91136 3.06789 4.73695L7.77467 2.20253C8.07065 2.04315 8.4269 2.04315 8.72287 2.20253L13.4297 4.73695C13.7536 4.91136 13.9556 5.24954 13.9556 5.61742V10.5686C13.9556 10.9365 13.7536 11.2747 13.4297 11.4491L8.72287 13.9835C8.4269 14.1429 8.07065 14.1429 7.77467 13.9835L3.06789 11.4491C2.74398 11.2747 2.54199 10.9365 2.54199 10.5686L2.54199 5.61742Z" stroke="white" stroke-width="1.2" stroke-linecap="round"/>
<path d="M2.98096 5.45898L7.80154 7.86928C8.08307 8.01004 8.41444 8.01004 8.69597 7.86928L13.5166 5.45898" stroke="white" stroke-width="1.2" stroke-linecap="round"/>
<path d="M8.24879 13.5801V8.09277" stroke="white" stroke-width="1.2" stroke-linecap="round"/>
<path d="M7.66667 5.34033L5.67636 6.48767C5.36663 6.66622 5.17578 6.99653 5.17578 7.35403V9.67367" stroke="white" stroke-width="1.2" stroke-linecap="round"/>
<path d="M10.3333 11.3403L11.9999 10.3403" stroke="white" stroke-width="1.2" stroke-linecap="round"/>
</svg>
