<svg width="14" height="14" viewBox="0 0 14 14" fill="none" xmlns="http://www.w3.org/2000/svg">
<path fill-rule="evenodd" clip-rule="evenodd" d="M1.54199 4.61717C1.54199 4.24929 1.74398 3.91112 2.06789 3.7367L6.77467 1.20228C7.07065 1.04291 7.4269 1.04291 7.72287 1.20228L12.4297 3.7367C12.7536 3.91112 12.9556 4.24929 12.9556 4.61717V9.56835C12.9556 9.93623 12.7536 10.2744 12.4297 10.4488L7.72287 12.9832C7.4269 13.1426 7.07065 13.1426 6.77467 12.9832L2.06789 10.4488C1.74398 10.2744 1.54199 9.93623 1.54199 9.56835V4.61717Z" stroke="#91919C" stroke-width="1.2" stroke-linecap="round"/>
<path d="M1.98096 4.45898L6.80154 6.86928C7.08307 7.01004 7.41444 7.01004 7.69597 6.86928L12.5166 4.45898" stroke="#91919C" stroke-width="1.2" stroke-linecap="round"/>
<path d="M7.24867 12.5801V7.09277" stroke="#91919C" stroke-width="1.2" stroke-linecap="round"/>
<path d="M6.66667 4.33984L4.67636 5.48718C4.36663 5.66573 4.17578 5.99604 4.17578 6.35354V8.67318" stroke="#91919C" stroke-width="1.2" stroke-linecap="round"/>
<path d="M9.33325 10.3398L10.9999 9.33984" stroke="#91919C" stroke-width="1.2" stroke-linecap="round"/>
</svg>
