<svg width="24" height="24" viewBox="0 0 24 24" fill="none" xmlns="http://www.w3.org/2000/svg">
<path d="M13.9227 12.736L13.9227 10.9996M13.9227 10.9996L13.9227 9.23598M13.9227 10.9996L12.1588 10.9996M13.9227 10.9996L15.6588 10.9996M13.9227 3.99962C17.6612 3.99962 20.6919 7.03031 20.6919 10.7689C20.6919 14.5074 17.6612 17.5381 13.9227 17.5381C10.1841 17.5381 7.15345 14.5074 7.15345 10.7689C7.15345 7.03031 10.1841 3.99962 13.9227 3.99962Z" stroke="#00BB94" stroke-width="1.2" stroke-linecap="round"/>
<path d="M17.9229 16.3077L20.6921 20" stroke="#00BB94" stroke-width="1.2" stroke-linecap="round"/>
<path d="M5.30743 13.2304L4.07666 13.2304" stroke="#00BB94" stroke-width="1.2" stroke-linecap="round"/>
<path d="M5.30743 4.61516L4.07666 4.61516" stroke="#00BB94" stroke-width="1.2" stroke-linecap="round"/>
<path d="M5.30743 8.92285L4.07666 8.92285" stroke="#00BB94" stroke-width="1.2" stroke-linecap="round"/>
</svg>
