<svg width="16" height="16" viewBox="0 0 16 16" fill="none" xmlns="http://www.w3.org/2000/svg">
<path d="M14.0103 8.6665V6.0463C14.0103 5.30503 13.6012 4.6233 12.9152 4.34236C11.7387 3.8605 9.80138 3.22189 8.04934 3.35666C6.17742 3.50066 5.18703 4.82003 4.74505 5.64911C4.53785 6.03778 4.68627 6.49619 5.03918 6.75972V6.75972C5.37058 7.00718 5.81695 7.03525 6.17673 6.83124L8.33967 5.60474C8.41812 5.56026 8.51668 5.57409 8.57985 5.63844L13.2477 10.3934C13.5709 10.7227 13.5856 11.2456 13.2812 11.5924V11.5924C12.9627 11.9554 12.4114 11.9946 12.0448 11.6803L9.74283 9.70723" stroke="white" stroke-width="1.2" stroke-linecap="round"/>
<path d="M5.95393 3.99173L3.23214 3.69099C2.63998 3.62555 2.12231 4.08917 2.12231 4.68494V8.4712C2.12231 9.40666 2.44302 10.3188 3.10957 10.9751C4.35478 12.2013 6.50358 13.9524 7.91671 13.0942" stroke="white" stroke-width="1.2" stroke-linecap="round"/>
<path d="M9.74301 9.70703L11.3242 11.0937C11.6544 11.3832 11.6966 11.8819 11.4199 12.2229V12.2229C11.1278 12.5829 10.5949 12.6279 10.2465 12.3221L8.4729 10.7655" stroke="white" stroke-width="1.2" stroke-linecap="round"/>
<path d="M8.47301 10.7656L9.54565 11.7042C9.89093 12.0063 9.93208 12.5287 9.63837 12.8812V12.8812C9.34379 13.2347 8.82054 13.2875 8.46123 13.0001L6.99121 11.8241" stroke="white" stroke-width="1.2" stroke-linecap="round"/>
</svg>
