<svg width="13" height="12" viewBox="0 0 13 12" fill="none" xmlns="http://www.w3.org/2000/svg">
<path d="M7.28186 6.49074L7.28186 5.33317M7.28186 5.33317L7.28186 4.1574M7.28186 5.33317L6.10598 5.33317M7.28186 5.33317L8.43931 5.33317M7.28186 0.666498C9.77423 0.666497 11.7947 2.68696 11.7947 5.17932C11.7947 7.67168 9.77423 9.69214 7.28187 9.69214C4.7895 9.69214 2.76905 7.67168 2.76905 5.17932C2.76905 2.68696 4.7895 0.666498 7.28186 0.666498Z" stroke="#91919C" stroke-width="1.2" stroke-linecap="round"/>
<path d="M9.94849 8.87171L11.7946 11.3333" stroke="#91919C" stroke-width="1.2" stroke-linecap="round"/>
<path d="M1.53829 6.82051L0.717773 6.82051" stroke="#91919C" stroke-width="1.2" stroke-linecap="round"/>
<path d="M1.53829 1.07685L0.717773 1.07685" stroke="#91919C" stroke-width="1.2" stroke-linecap="round"/>
<path d="M1.53829 3.94873L0.717773 3.94873" stroke="#91919C" stroke-width="1.2" stroke-linecap="round"/>
</svg>
