<svg width="12" height="14" viewBox="0 0 12 14" fill="none" xmlns="http://www.w3.org/2000/svg">
<path fill-rule="evenodd" clip-rule="evenodd" d="M2.08326 4.00966C1.15171 5.03094 0.645357 6.36944 0.667701 7.75158C0.690045 9.13372 1.23939 10.4551 2.20347 11.4458C2.6792 11.9386 3.24956 12.3303 3.88033 12.5974C4.51111 12.8644 5.18933 13.0014 5.87431 13C6.5612 13.0014 7.24135 12.8645 7.87422 12.5975C8.5071 12.3305 9.07974 11.9388 9.55803 11.4458C10.5418 10.435 11.0922 9.08023 11.0922 7.66976C11.0922 6.25929 10.5418 4.90451 9.55803 3.89374L6.7244 1C6.43674 3.35277 6.52261 6.20787 4.42315 6.20357C3.18666 6.20357 2.7058 5.20322 2.08326 4.00966Z" stroke="#91919C" stroke-width="1.2" stroke-linecap="round" stroke-linejoin="round"/>
</svg>
