<svg width="19" height="20" viewBox="0 0 19 20" fill="none" xmlns="http://www.w3.org/2000/svg">
<path d="M16.388 3.37218V1M16.388 7.12782V19M16.388 7.12782C16.0153 7.12916 15.6507 7.01979 15.3403 6.8136C15.0299 6.60741 14.7877 6.31367 14.6445 5.96965C14.5013 5.62563 14.4634 5.24683 14.5358 4.88128C14.6082 4.51573 14.7875 4.17992 15.051 3.91642C15.3145 3.65292 15.6503 3.47361 16.0159 3.40124C16.3814 3.32887 16.7602 3.3667 17.1042 3.50992C17.4482 3.65314 17.742 3.89531 17.9482 4.2057C18.1544 4.5161 18.2637 4.88074 18.2624 5.25338C18.2624 5.75051 18.0649 6.22728 17.7134 6.57881C17.3619 6.93033 16.8851 7.12782 16.388 7.12782ZM9.64134 1V10.7511M9.64134 14.5V19M9.64134 14.5C9.27061 14.5 8.90821 14.3901 8.59996 14.1841C8.29171 13.9781 8.05146 13.6854 7.90959 13.3429C7.76772 13.0004 7.7306 12.6235 7.80292 12.2599C7.87525 11.8963 8.05377 11.5623 8.31591 11.3001C8.57806 11.038 8.91205 10.8595 9.27566 10.7871C9.63926 10.7148 10.0161 10.7519 10.3587 10.8938C10.7012 11.0357 10.9939 11.2759 11.1999 11.5842C11.4058 11.8924 11.5158 12.2548 11.5158 12.6256C11.5158 13.1227 11.3183 13.5995 10.9668 13.951C10.6152 14.3025 10.1385 14.5 9.64134 14.5ZM2.88796 1V4.88128M2.88796 9.12782V19M2.88796 9.12782C2.51532 9.12916 2.15068 9.01979 1.84028 8.8136C1.52988 8.60741 1.28772 8.31367 1.14449 7.96965C1.00127 7.62563 0.963448 7.24683 1.03582 6.88128C1.10819 6.51573 1.28749 6.17991 1.55099 5.91642C1.81449 5.65292 2.15031 5.47361 2.51586 5.40124C2.8814 5.32887 3.26021 5.3667 3.60423 5.50992C3.94825 5.65314 4.24198 5.89531 4.44818 6.2057C4.65437 6.5161 4.76373 6.88074 4.76239 7.25338C4.76239 7.49954 4.71391 7.74328 4.61971 7.9707C4.52551 8.19812 4.38744 8.40475 4.21339 8.57881C4.03933 8.75287 3.83269 8.89094 3.60527 8.98514C3.37786 9.07934 3.13411 9.12782 2.88796 9.12782Z" stroke="#1F1A54" stroke-width="1.2" stroke-linecap="round" stroke-linejoin="round"/>
</svg>
