<svg width="20" height="20" viewBox="0 0 20 20" fill="none" xmlns="http://www.w3.org/2000/svg">
<path d="M16.888 3.37218V1M16.888 7.12782V19M16.888 7.12782C16.5153 7.12916 16.1507 7.01979 15.8403 6.8136C15.5299 6.60741 15.2877 6.31367 15.1445 5.96965C15.0013 5.62563 14.9634 5.24683 15.0358 4.88128C15.1082 4.51573 15.2875 4.17992 15.551 3.91642C15.8145 3.65292 16.1503 3.47361 16.5159 3.40124C16.8814 3.32887 17.2602 3.3667 17.6042 3.50992C17.9482 3.65314 18.242 3.89531 18.4482 4.2057C18.6544 4.5161 18.7637 4.88074 18.7624 5.25338C18.7624 5.75051 18.5649 6.22728 18.2134 6.57881C17.8619 6.93033 17.3851 7.12782 16.888 7.12782ZM10.1413 1V10.7511M10.1413 14.5V19M10.1413 14.5C9.77061 14.5 9.40821 14.3901 9.09996 14.1841C8.79171 13.9781 8.55146 13.6854 8.40959 13.3429C8.26772 13.0004 8.2306 12.6235 8.30292 12.2599C8.37525 11.8963 8.55377 11.5623 8.81591 11.3001C9.07806 11.038 9.41205 10.8595 9.77566 10.7871C10.1393 10.7148 10.5161 10.7519 10.8587 10.8938C11.2012 11.0357 11.4939 11.2759 11.6999 11.5842C11.9058 11.8924 12.0158 12.2548 12.0158 12.6256C12.0158 13.1227 11.8183 13.5995 11.4668 13.951C11.1152 14.3025 10.6385 14.5 10.1413 14.5ZM3.38796 1V4.88128M3.38796 9.12782V19M3.38796 9.12782C3.01532 9.12916 2.65068 9.01979 2.34028 8.8136C2.02988 8.60741 1.78772 8.31367 1.64449 7.96965C1.50127 7.62563 1.46345 7.24683 1.53582 6.88128C1.60819 6.51573 1.78749 6.17991 2.05099 5.91642C2.31449 5.65292 2.65031 5.47361 3.01586 5.40124C3.3814 5.32887 3.76021 5.3667 4.10423 5.50992C4.44825 5.65314 4.74198 5.89531 4.94818 6.2057C5.15437 6.5161 5.26373 6.88074 5.26239 7.25338C5.26239 7.49954 5.21391 7.74328 5.11971 7.9707C5.02551 8.19812 4.88744 8.40475 4.71339 8.57881C4.53933 8.75287 4.33269 8.89094 4.10527 8.98514C3.87786 9.07934 3.63411 9.12782 3.38796 9.12782Z" stroke="#515057" stroke-width="1.2" stroke-linecap="round" stroke-linejoin="round"/>
</svg>
