<svg width="24" height="24" viewBox="0 0 24 24" fill="none" xmlns="http://www.w3.org/2000/svg">
<path fill-rule="evenodd" clip-rule="evenodd" d="M3.81299 8.12699C3.81299 7.75911 4.01498 7.42093 4.33889 7.24652L11.8991 3.17566C12.195 3.01629 12.5513 3.01629 12.8473 3.17566L20.4074 7.24652C20.7313 7.42093 20.9333 7.75911 20.9333 8.12699V16.151C20.9333 16.5189 20.7313 16.8571 20.4074 17.0315L12.8473 21.1024C12.5513 21.2618 12.195 21.2618 11.8991 21.1024L4.33889 17.0315C4.01498 16.8571 3.81299 16.5189 3.81299 16.151V8.12699Z" stroke="#3057BA" stroke-width="1.2" stroke-linecap="round"/>
<path d="M4.47156 8.18848L11.926 11.9157C12.2076 12.0565 12.5389 12.0565 12.8205 11.9157L20.275 8.18848" stroke="#3057BA" stroke-width="1.2" stroke-linecap="round"/>
<path d="M12.3731 20.3696V12.1387" stroke="#3057BA" stroke-width="1.2" stroke-linecap="round"/>
<path d="M11.4999 8.00977L8.26413 9.87506C7.9544 10.0536 7.76355 10.3839 7.76355 10.7414V14.5098" stroke="#3057BA" stroke-width="1.2" stroke-linecap="round"/>
<path d="M15.5 17.0098L18 15.5098" stroke="#3057BA" stroke-width="1.2" stroke-linecap="round"/>
</svg>
