<svg width="24" height="24" viewBox="0 0 24 24" fill="none" xmlns="http://www.w3.org/2000/svg">
<path d="M6.6001 7.7999H19.4001C19.9524 7.7999 20.4001 8.24761 20.4001 8.7999V16.1999" stroke="#91919C" stroke-width="1.2" stroke-linecap="round"/>
<path d="M12.6001 18.6H4.6001C4.04781 18.6 3.6001 18.1523 3.6001 17.6V5.8C3.6001 5.24771 4.04781 4.8 4.6001 4.8H11.2561C11.6977 4.8 12.087 5.08966 12.2139 5.51265L12.9001 7.8" stroke="#91919C" stroke-width="1.2" stroke-linecap="round"/>
<path fill-rule="evenodd" clip-rule="evenodd" d="M16.2 20.3999C18.5196 20.3999 20.4 18.5195 20.4 16.1999C20.4 13.8803 18.5196 11.9999 16.2 11.9999C13.8804 11.9999 12 13.8803 12 16.1999C12 18.5195 13.8804 20.3999 16.2 20.3999Z" stroke="#91919C" stroke-width="1.2" stroke-linecap="round"/>
<path d="M15 16.1999H17.4" stroke="#91919C" stroke-width="1.2" stroke-linecap="round"/>
<path d="M16.2 14.9999V17.3999" stroke="#91919C" stroke-width="1.2" stroke-linecap="round"/>
</svg>
