<svg width="24" height="24" viewBox="0 0 24 24" fill="none" xmlns="http://www.w3.org/2000/svg">
<path d="M14.7434 8.91444H21M17.8717 12.0498V5.78615M13.1616 7.91169C13.1684 7.52657 13.0973 7.14405 12.9526 6.78709C12.8079 6.43012 12.5925 6.10607 12.3195 5.83437C12.0465 5.56266 11.7214 5.34891 11.3637 5.20593C11.0061 5.06295 10.6232 4.9937 10.2381 5.00231C9.85056 4.98661 9.4639 5.05091 9.10227 5.19119C8.74063 5.33147 8.41176 5.54474 8.13616 5.81769C7.86055 6.09065 7.64412 6.41744 7.50035 6.7777C7.35658 7.13797 7.28856 7.52398 7.30051 7.91169C7.30051 8.23652 7.62534 9.85363 7.62534 9.85363C7.87956 11.2518 8.82581 12.4382 10.2381 12.4382C11.6505 12.4382 12.5685 11.273 12.8439 9.85363C12.8368 9.85363 13.1475 8.23652 13.1616 7.91169ZM17.4621 19.874H3L3.24716 17.0494C3.38133 15.9831 4.44763 15.2487 5.54924 15.0368L10.2381 14.4295L14.9694 15.0651C16.1911 15.284 17.222 15.9619 17.3068 17.1836L17.4621 19.874Z" stroke="#91919C" stroke-width="1.2" stroke-linecap="round" stroke-linejoin="round"/>
</svg>
