<svg width="24" height="24" viewBox="0 0 24 24" fill="none" xmlns="http://www.w3.org/2000/svg">
<path d="M11.9561 6.91212C13.0364 6.91212 13.9121 6.03636 13.9121 4.95606C13.9121 3.87576 13.0364 3 11.9561 3C10.8758 3 10 3.87576 10 4.95606C10 6.03636 10.8758 6.91212 11.9561 6.91212Z" stroke="#91919C" stroke-width="1.2" stroke-linecap="round" stroke-linejoin="round"/>
<path d="M11.9561 13.9596C13.0364 13.9596 13.9121 13.0838 13.9121 12.0035C13.9121 10.9232 13.0364 10.0475 11.9561 10.0475C10.8758 10.0475 10 10.9232 10 12.0035C10 13.0838 10.8758 13.9596 11.9561 13.9596Z" stroke="#91919C" stroke-width="1.2" stroke-linecap="round" stroke-linejoin="round"/>
<path d="M11.9561 21C13.0364 21 13.9121 20.1242 13.9121 19.0439C13.9121 17.9636 13.0364 17.0879 11.9561 17.0879C10.8758 17.0879 10 17.9636 10 19.0439C10 20.1242 10.8758 21 11.9561 21Z" stroke="#91919C" stroke-width="1.2" stroke-linecap="round" stroke-linejoin="round"/>
</svg>
