<svg width="14" height="10" viewBox="0 0 14 10" fill="none" xmlns="http://www.w3.org/2000/svg">
<path d="M9.69692 6.72903L11.8711 6.99137C12.1301 7.00741 12.3758 7.11157 12.5675 7.28655C12.7591 7.46153 12.8851 7.6968 12.9245 7.95327L13 9.37229H10.468M6.71978 2.63893C6.72358 2.42215 6.68355 2.20684 6.6021 2.00592C6.52064 1.80499 6.39944 1.62258 6.24576 1.46965C6.09208 1.31671 5.90909 1.19639 5.70777 1.11591C5.50645 1.03544 5.29095 0.996452 5.0742 1.0013C4.85604 0.992466 4.6384 1.02866 4.43484 1.10762C4.23128 1.18658 4.04617 1.30662 3.89104 1.46026C3.73591 1.6139 3.61408 1.79785 3.53316 2.00063C3.45223 2.20342 3.41394 2.4207 3.42067 2.63893C3.42067 2.82177 3.60351 3.73201 3.60351 3.73201C3.7466 4.51902 4.27923 5.18679 5.0742 5.18679C5.86916 5.18679 6.38986 4.53095 6.54091 3.73201C6.53693 3.73201 6.71183 2.82177 6.71978 2.63893ZM9.14044 9.37229H1L1.13912 7.78236C1.21464 7.18216 1.81484 6.76878 2.43491 6.64953L5.0742 6.3077L7.73733 6.66543C8.42498 6.78865 9.0053 7.17023 9.053 7.85788L9.14044 9.37229ZM11.0364 3.72803C11.0364 3.37804 10.8974 3.04239 10.6499 2.79491C10.4024 2.54742 10.0668 2.40839 9.71679 2.40839C9.3668 2.40839 9.03115 2.54742 8.78367 2.79491C8.53618 3.04239 8.39715 3.37804 8.39715 3.72803C8.39715 3.87113 8.54422 4.5866 8.54422 4.5866C8.56765 4.88789 8.69926 5.17054 8.91477 5.3824C9.13028 5.59426 9.41514 5.72102 9.71679 5.7393C10.3647 5.7393 10.7661 5.21859 10.8894 4.5866C10.8695 4.5866 11.0086 3.88305 11.0364 3.72803Z" stroke="#F7A80F" stroke-width="0.8" stroke-linecap="round" stroke-linejoin="round"/>
</svg>
