<svg width="36" height="24" viewBox="0 0 36 24" fill="none" xmlns="http://www.w3.org/2000/svg">
<rect width="36" height="24" rx="2" fill="#E8E8E8"/>
<path d="M25.7037 11.7999C25.7037 13.2206 25.3698 14.596 24.7471 15.83C24.5377 16.2432 24.6735 16.7469 25.0641 16.996C25.5056 17.2733 26.0999 17.1148 26.3377 16.645C27.0791 15.1904 27.498 13.5432 27.498 11.7999C27.498 10.0565 27.0791 8.41507 26.3433 6.9604C26.1056 6.4906 25.5169 6.33211 25.0698 6.60946C24.6792 6.85851 24.5434 7.36227 24.7528 7.77547C25.3754 9.0094 25.7037 10.3792 25.7037 11.7999Z" fill="#91919C"/>
<path d="M22.8115 11.7999C22.8115 12.6829 22.6247 13.5376 22.2624 14.313C22.0756 14.7206 22.2171 15.2073 22.5964 15.4451C23.0549 15.7337 23.6605 15.5526 23.8869 15.0602C24.351 14.0527 24.5944 12.9433 24.5944 11.7999C24.5944 10.6565 24.351 9.55278 23.8869 8.54526C23.6605 8.05282 23.0549 7.8717 22.5964 8.16037C22.2171 8.3981 22.07 8.88487 22.2568 9.29241C22.6247 10.0679 22.8115 10.9226 22.8115 11.7999Z" fill="#91919C"/>
<path d="M16.8001 17.8109C15.1926 17.8109 13.687 17.1883 12.5493 16.0506C11.4116 14.9129 10.789 13.4073 10.789 11.7998C10.789 10.1923 11.4116 8.68666 12.5493 7.54896C13.687 6.41125 15.1926 5.78863 16.8001 5.78863C18.5322 5.78863 19.7661 6.49616 20.4736 7.03954C20.8302 7.31689 21.334 7.28859 21.651 6.96595C22.0302 6.58672 21.9906 5.95844 21.5661 5.63014C20.6095 4.89431 19.002 4 16.8001 4C14.7172 4 12.7588 4.80941 11.2871 6.28673C9.80978 7.75839 9.00037 9.71682 9.00037 11.7998C9.00037 13.8714 9.8211 15.8525 11.2871 17.3128C12.7588 18.7845 14.7172 19.5996 16.8001 19.5996C18.5548 19.5996 20.2189 19.0279 21.5774 17.9694C21.9962 17.6468 22.0302 17.0242 21.6566 16.6506C21.651 16.6449 21.6453 16.6393 21.6396 16.6336C21.3283 16.3223 20.8302 16.2883 20.4793 16.56C19.7887 17.0864 18.5435 17.8109 16.8001 17.8109Z" fill="#91919C"/>
<path d="M21.4752 11.1602C21.3054 10.9904 21.079 10.8942 20.8413 10.8942L17.7112 10.8998C17.2131 10.8998 16.8112 11.3017 16.8112 11.7998C16.8112 12.2979 17.2131 12.6998 17.7112 12.6998H17.7169H19.8111C19.4149 14.0243 18.1584 14.9809 16.6924 14.9299C15 14.8677 13.6528 13.4469 13.6755 11.7545C13.6981 10.0452 15.0905 8.66406 16.8112 8.66406C17.4112 8.66406 17.9829 8.83387 18.481 9.14518C18.8376 9.37159 19.3017 9.30933 19.6017 9.01499C20.0093 8.60746 19.9357 7.92823 19.4489 7.62258C18.3791 6.94335 17.0716 6.69997 15.7471 6.97732C13.8509 7.37353 12.3736 8.86783 11.9887 10.764C11.3265 13.9337 13.7434 16.7355 16.8056 16.7355C19.5281 16.7355 21.7413 14.5224 21.7413 11.7998C21.7413 11.5621 21.6451 11.33 21.4752 11.1602Z" fill="#91919C"/>
</svg>
