<svg width="36" height="24" viewBox="0 0 36 24" fill="none" xmlns="http://www.w3.org/2000/svg">
<rect width="36" height="24" rx="2" fill="#F2F4F6"/>
<path d="M25.7037 11.8C25.7037 13.2207 25.3698 14.5962 24.7471 15.8301C24.5377 16.2433 24.6735 16.747 25.0641 16.9961C25.5056 17.2734 26.0999 17.115 26.3377 16.6452C27.0791 15.1905 27.498 13.5434 27.498 11.8C27.498 10.0567 27.0791 8.41519 26.3433 6.96052C26.1056 6.49072 25.5169 6.33223 25.0698 6.60958C24.6792 6.85863 24.5434 7.36239 24.7528 7.77559C25.3754 9.00952 25.7037 10.3793 25.7037 11.8Z" fill="#6FBAF7"/>
<path d="M22.8115 11.7998C22.8115 12.6828 22.6247 13.5375 22.2624 14.3129C22.0756 14.7204 22.2171 15.2072 22.5964 15.4449C23.0549 15.7336 23.6605 15.5525 23.8869 15.0601C24.351 14.0525 24.5944 12.9431 24.5944 11.7998C24.5944 10.6564 24.351 9.55266 23.8869 8.54514C23.6605 8.0527 23.0549 7.87157 22.5964 8.16024C22.2171 8.39797 22.07 8.88475 22.2568 9.29229C22.6247 10.0677 22.8115 10.9224 22.8115 11.7998Z" fill="#6FBAF7"/>
<path d="M16.8003 17.8109C15.1928 17.8109 13.6871 17.1883 12.5494 16.0506C11.4117 14.9129 10.7891 13.4073 10.7891 11.7998C10.7891 10.1923 11.4117 8.68666 12.5494 7.54896C13.6871 6.41125 15.1928 5.78863 16.8003 5.78863C18.5323 5.78863 19.7662 6.49616 20.4738 7.03954C20.8303 7.31689 21.3341 7.28859 21.6511 6.96595C22.0303 6.58672 21.9907 5.95844 21.5662 5.63014C20.6096 4.89431 19.0021 4 16.8003 4C14.7173 4 12.7589 4.80941 11.2872 6.28673C9.8099 7.75839 9.00049 9.71682 9.00049 11.7998C9.00049 13.8714 9.82122 15.8525 11.2872 17.3128C12.7589 18.7845 14.7173 19.5996 16.8003 19.5996C18.5549 19.5996 20.219 19.0279 21.5775 17.9694C21.9964 17.6468 22.0303 17.0242 21.6567 16.6506C21.6511 16.6449 21.6454 16.6393 21.6398 16.6336C21.3284 16.3223 20.8303 16.2883 20.4794 16.56C19.7889 17.0864 18.5436 17.8109 16.8003 17.8109Z" fill="#007CFF"/>
<path d="M21.4755 11.1601C21.3057 10.9903 21.0793 10.8941 20.8415 10.8941L17.7114 10.8997C17.2133 10.8997 16.8115 11.3016 16.8115 11.7997C16.8115 12.2978 17.2133 12.6997 17.7114 12.6997H17.7171H19.8114C19.4152 14.0242 18.1586 14.9807 16.6926 14.9298C15.0002 14.8675 13.6531 13.4468 13.6757 11.7544C13.6984 10.045 15.0908 8.66394 16.8115 8.66394C17.4115 8.66394 17.9831 8.83375 18.4812 9.14506C18.8378 9.37147 19.302 9.3092 19.602 9.01487C20.0095 8.60734 19.9359 7.92811 19.4491 7.62246C18.3794 6.94323 17.0718 6.69984 15.7474 6.97719C13.8512 7.37341 12.3739 8.86771 11.989 10.7639C11.3267 13.9336 13.7436 16.7354 16.8058 16.7354C19.5284 16.7354 21.7415 14.5223 21.7415 11.7997C21.7415 11.562 21.6453 11.3299 21.4755 11.1601Z" fill="#002CB8"/>
</svg>
