<svg width="25" height="24" viewBox="0 0 25 24" fill="none" xmlns="http://www.w3.org/2000/svg">
<path d="M12.5 21.02C17.4706 21.02 21.5 16.9906 21.5 12.02C21.5 7.04946 17.4706 3.02002 12.5 3.02002C7.52944 3.02002 3.5 7.04946 3.5 12.02C3.5 16.9906 7.52944 21.02 12.5 21.02Z" stroke="#91919C" stroke-width="1.2" stroke-miterlimit="10" stroke-linecap="round" stroke-linejoin="round"/>
<path d="M5.4082 6.48496C6.2542 6.39496 7.1182 6.43997 7.9102 6.64697C9.0802 6.95297 10.2502 7.85296 10.5832 9.05897C10.8622 10.094 10.5652 11.093 9.9712 11.957C9.1792 13.1 7.8652 14.162 8.6842 15.701C9.3142 16.862 10.5832 17.006 11.7172 17.393C13.3102 17.942 13.8592 19.373 14.1562 20.867" stroke="#91919C" stroke-width="1.2" stroke-miterlimit="10" stroke-linecap="round" stroke-linejoin="round"/>
<path d="M18.8907 5.68408C18.0087 6.19708 17.2257 6.89908 16.6947 7.70908C15.2727 9.86008 16.3167 12.7581 19.0437 12.8661C19.7007 12.8931 20.3667 12.8301 21.0237 12.9111C21.1677 12.9291 21.3117 12.9561 21.4467 13.0011" stroke="#91919C" stroke-width="1.2" stroke-miterlimit="10" stroke-linecap="round" stroke-linejoin="round"/>
</svg>
