<svg width="14" height="14" viewBox="0 0 14 14" fill="none" xmlns="http://www.w3.org/2000/svg">
<g opacity="0.91">
<path d="M12.9999 7C12.9999 8.18669 12.648 9.34673 11.9887 10.3334C11.3294 11.3201 10.3923 12.0892 9.29598 12.5433C8.19963 12.9974 6.99323 13.1162 5.82934 12.8847C4.66545 12.6532 3.59636 12.0818 2.75724 11.2426C1.91812 10.4035 1.34668 9.33443 1.11517 8.17054C0.883658 7.00666 1.00248 5.80026 1.4566 4.7039C1.91073 3.60754 2.67976 2.67047 3.66646 2.01118C4.65315 1.35189 5.81319 1 6.99988 1C8.59118 1 10.1173 1.63214 11.2425 2.75736C12.3677 3.88258 12.9999 5.4087 12.9999 7Z" fill="#EAFFFB"/>
<path d="M4.05988 6.84667L5.96655 9L9.96655 5.09333M12.9999 7C12.9999 8.18669 12.648 9.34673 11.9887 10.3334C11.3294 11.3201 10.3923 12.0892 9.29598 12.5433C8.19963 12.9974 6.99322 13.1162 5.82934 12.8847C4.66545 12.6532 3.59636 12.0818 2.75724 11.2426C1.91812 10.4035 1.34668 9.33443 1.11517 8.17054C0.883658 7.00666 1.00248 5.80026 1.4566 4.7039C1.91073 3.60754 2.67976 2.67047 3.66646 2.01118C4.65315 1.35189 5.81319 1 6.99988 1C8.59118 1 10.1173 1.63214 11.2425 2.75736C12.3677 3.88258 12.9999 5.4087 12.9999 7Z" stroke="#00BB94" stroke-width="1.2" stroke-linecap="round" stroke-linejoin="round"/>
</g>
</svg>
