<svg width="4" height="14" viewBox="0 0 4 14" fill="none" xmlns="http://www.w3.org/2000/svg">
<path d="M1.97067 3.60808C2.69087 3.60808 3.27471 3.02424 3.27471 2.30404C3.27471 1.58384 2.69087 1 1.97067 1C1.25047 1 0.666626 1.58384 0.666626 2.30404C0.666626 3.02424 1.25047 3.60808 1.97067 3.60808Z" stroke="#91919C" stroke-width="1.2" stroke-linecap="round" stroke-linejoin="round"/>
<path d="M1.97067 8.3064C2.69087 8.3064 3.27471 7.72256 3.27471 7.00235C3.27471 6.28215 2.69087 5.69831 1.97067 5.69831C1.25047 5.69831 0.666626 6.28215 0.666626 7.00235C0.666626 7.72256 1.25047 8.3064 1.97067 8.3064Z" stroke="#91919C" stroke-width="1.2" stroke-linecap="round" stroke-linejoin="round"/>
<path d="M1.97067 13C2.69087 13 3.27471 12.4162 3.27471 11.696C3.27471 10.9758 2.69087 10.3919 1.97067 10.3919C1.25047 10.3919 0.666626 10.9758 0.666626 11.696C0.666626 12.4162 1.25047 13 1.97067 13Z" stroke="#91919C" stroke-width="1.2" stroke-linecap="round" stroke-linejoin="round"/>
</svg>
