<svg width="16" height="16" viewBox="0 0 16 16" fill="none" xmlns="http://www.w3.org/2000/svg">
<path d="M7.97055 4.60808C8.69075 4.60808 9.27459 4.02424 9.27459 3.30404C9.27459 2.58384 8.69075 2 7.97055 2C7.25034 2 6.6665 2.58384 6.6665 3.30404C6.6665 4.02424 7.25034 4.60808 7.97055 4.60808Z" stroke="white" stroke-width="1.2" stroke-linecap="round" stroke-linejoin="round"/>
<path d="M7.97055 9.3064C8.69075 9.3064 9.27459 8.72256 9.27459 8.00235C9.27459 7.28215 8.69075 6.69831 7.97055 6.69831C7.25034 6.69831 6.6665 7.28215 6.6665 8.00235C6.6665 8.72256 7.25034 9.3064 7.97055 9.3064Z" stroke="white" stroke-width="1.2" stroke-linecap="round" stroke-linejoin="round"/>
<path d="M7.97055 14C8.69075 14 9.27459 13.4162 9.27459 12.696C9.27459 11.9758 8.69075 11.3919 7.97055 11.3919C7.25034 11.3919 6.6665 11.9758 6.6665 12.696C6.6665 13.4162 7.25034 14 7.97055 14Z" stroke="white" stroke-width="1.2" stroke-linecap="round" stroke-linejoin="round"/>
</svg>
