<svg width="24" height="24" viewBox="0 0 24 24" fill="none" xmlns="http://www.w3.org/2000/svg">
<path d="M12 13.2867L15.7588 11.1389C16.2202 10.8752 16.7868 10.8754 17.2481 11.1394L20.2451 12.8547C20.712 13.1219 21 13.6186 21 14.1565L21 17.5568C21 18.0947 20.712 18.5914 20.2451 18.8586L17.2481 20.5739C16.7868 20.8379 16.2202 20.8381 15.7588 20.5744L12 18.4266M12 13.2867L12 18.4266M12 13.2867L8.24124 11.1389C7.77978 10.8752 7.21323 10.8754 6.75195 11.1394L3.75491 12.8547C3.28804 13.1219 3 13.6186 3 14.1565L3 17.5568C3 18.0947 3.28804 18.5914 3.75491 18.8586L6.75195 20.5739C7.21323 20.8379 7.77978 20.8381 8.24124 20.5744L12 18.4266M16.5106 6.44392L16.5106 9.84279C16.5106 10.3811 16.2222 10.8781 15.7548 11.1452L12.7519 12.8611C12.2904 13.1248 11.7239 13.1246 11.2626 12.8606L8.26555 11.1453C7.79868 10.8781 7.51064 10.3814 7.51064 9.84348L7.51064 6.44324C7.51064 5.90532 7.79868 5.40858 8.26555 5.14138L11.2626 3.4261C11.7239 3.16209 12.2904 3.1619 12.7519 3.42559L15.7548 5.14156C16.2222 5.40862 16.5106 5.90564 16.5106 6.44392Z" stroke="#91919C" stroke-width="1.8" stroke-linecap="round" stroke-linejoin="round"/>
</svg>
