<svg width="36" height="24" viewBox="0 0 36 24" fill="none" xmlns="http://www.w3.org/2000/svg">
<rect width="36" height="24" rx="2" fill="#00B041"/>
<path fill-rule="evenodd" clip-rule="evenodd" d="M23.7603 11.704C22.1859 11.704 20.6333 11.704 19.037 11.704C19.037 11.6384 19.037 11.5947 19.037 11.5291C19.037 11.2885 19.037 11.0261 19.037 10.7856C19.037 10.5888 19.037 10.5888 19.2557 10.5888C20.524 10.5888 21.7923 10.5888 23.0825 10.5888C23.6291 10.5888 24.1758 10.5888 24.7444 10.5888C24.8756 10.5888 24.9193 10.6325 24.9193 10.7637C24.9193 12.7318 24.9193 14.678 24.9193 16.646C24.9193 16.7335 24.8756 16.8209 24.8318 16.8865C24.2414 17.5207 23.5198 17.9799 22.7107 18.3298C21.9672 18.6578 21.18 18.8546 20.3491 18.9421C18.9496 19.0951 17.6157 18.9639 16.3255 18.3735C14.095 17.3458 12.6955 15.6182 12.1926 13.191C11.8864 11.7696 11.9302 10.3482 12.4331 8.97061C13.111 7.15563 14.3574 5.82174 16.0631 4.92519C16.9596 4.44411 17.9218 4.15984 18.9496 4.0505C19.693 3.96303 20.4365 4.00677 21.18 4.0505C21.9016 4.1161 22.6232 4.24731 23.323 4.48784C23.4542 4.53158 23.5198 4.59718 23.5198 4.77212C23.4979 5.12199 23.5198 5.45 23.5198 5.82174C23.3886 5.75614 23.2574 5.69054 23.1481 5.62494C22.5139 5.3188 21.8579 5.16573 21.18 5.10013C20.6552 5.07826 20.1522 5.03452 19.6493 5.05639C18.1623 5.07826 16.8284 5.55934 15.6476 6.45588C14.5324 7.30871 13.7451 8.40207 13.3515 9.7797C13.1547 10.4795 13.111 11.1792 13.1547 11.879C13.1985 12.7974 13.3734 13.6502 13.7889 14.4593C14.6854 16.2305 16.1068 17.3239 18.053 17.7394C18.8402 17.9143 19.6274 17.8924 20.4365 17.805C21.3768 17.6956 22.2515 17.4551 23.0606 16.9303C23.2793 16.7991 23.4761 16.6241 23.6729 16.4492C23.7385 16.4055 23.7822 16.2961 23.7822 16.2087C23.7822 14.7436 23.7822 13.2785 23.7822 11.8134C23.7822 11.8134 23.7822 11.7477 23.7603 11.704Z" fill="white"/>
<path fill-rule="evenodd" clip-rule="evenodd" d="M22.9074 12.5786C22.9074 12.6442 22.9074 12.6879 22.9074 12.7317C22.9074 13.7813 22.9074 14.809 22.9074 15.8587C22.9074 15.968 22.8636 16.0336 22.7762 16.1211C22.2951 16.5147 21.7265 16.7115 21.1361 16.8427C20.4582 16.9958 19.7804 17.0613 19.1025 17.0176C17.0907 16.8864 15.6037 15.9024 14.6416 14.1312C14.2042 13.3658 14.0293 12.513 14.0074 11.6383C13.9856 10.7855 14.0949 9.95452 14.4666 9.18917C15.1445 7.7678 16.2597 6.82751 17.7248 6.28083C18.5995 5.95281 19.518 5.86534 20.4582 5.93094C21.2673 5.97467 22.0545 6.10588 22.798 6.39016C23.0167 6.47763 23.2135 6.5651 23.4103 6.67444C23.454 6.6963 23.4978 6.76191 23.4978 6.80564C23.4978 7.19925 23.4978 7.61473 23.4978 8.0302C23.4322 7.98647 23.3884 7.9646 23.3447 7.92087C22.7324 7.46166 22.0108 7.19925 21.2455 7.11178C20.7425 7.04618 20.2177 7.00244 19.7148 7.02431C17.8998 7.11178 16.5003 7.87713 15.5819 9.47344C15.2757 10.0201 15.1226 10.6324 15.1226 11.2666C15.1008 12.01 15.1882 12.7316 15.4944 13.4095C16.1285 14.7434 17.1782 15.5962 18.6433 15.8149C19.6929 15.9898 20.6988 15.8368 21.7047 15.4651C21.814 15.4213 21.8359 15.3776 21.8359 15.2682C21.8359 14.7871 21.8359 14.3279 21.8359 13.8469C21.8359 13.6938 21.7921 13.6501 21.6391 13.6501C20.83 13.6501 19.999 13.6501 19.1899 13.6501C19.0587 13.6501 19.015 13.6282 19.015 13.4751C19.0369 13.169 19.015 12.8629 19.015 12.5348C20.327 12.5786 21.5953 12.5786 22.9074 12.5786Z" fill="white"/>
</svg>
