<svg width="36" height="24" viewBox="0 0 36 24" fill="none" xmlns="http://www.w3.org/2000/svg">
<rect width="36" height="24" rx="2" fill="#FFD400"/>
<path d="M27 7.70597H9V6.1383L18.0035 3.01001L27 6.1383V7.70597Z" stroke="#1F1A54" stroke-width="1.2" stroke-linecap="round" stroke-linejoin="round"/>
<path d="M27 21.01H9V19.4282C9.00183 19.2221 9.04449 19.0183 9.12551 18.8288C9.20653 18.6392 9.32431 18.4675 9.47204 18.3237C9.61977 18.18 9.79453 18.0669 9.98622 17.991C10.1779 17.9151 10.3827 17.878 10.5889 17.8817H25.4182C25.6237 17.8789 25.8278 17.9168 26.0187 17.9931C26.2095 18.0693 26.3835 18.1826 26.5304 18.3263C26.6774 18.47 26.7946 18.6413 26.8752 18.8304C26.9557 19.0195 26.9982 19.2227 27 19.4282V21.01Z" stroke="#1F1A54" stroke-width="1.2" stroke-linecap="round" stroke-linejoin="round"/>
<path d="M13.696 7.70597H11.3444V17.8817H13.696V7.70597Z" stroke="#1F1A54" stroke-width="1.2" stroke-linecap="round" stroke-linejoin="round"/>
<path d="M19.1758 7.70597H16.8242V17.8817H19.1758V7.70597Z" stroke="#1F1A54" stroke-width="1.2" stroke-linecap="round" stroke-linejoin="round"/>
<path d="M24.6556 7.70597H22.304V17.8817H24.6556V7.70597Z" stroke="#1F1A54" stroke-width="1.2" stroke-linecap="round" stroke-linejoin="round"/>
</svg>
