<svg width="36" height="24" viewBox="0 0 36 24" fill="none" xmlns="http://www.w3.org/2000/svg">
<rect width="36" height="24" rx="2" fill="#F2F4F6"/>
<path d="M25.7037 11.7999C25.7037 13.2206 25.3698 14.5961 24.7471 15.83C24.5377 16.2432 24.6735 16.747 25.0641 16.996C25.5056 17.2734 26.0999 17.1149 26.3377 16.6451C27.0791 15.1904 27.498 13.5433 27.498 11.7999C27.498 10.0566 27.0791 8.41512 26.3433 6.96044C26.1056 6.49064 25.5169 6.33216 25.0698 6.60951C24.6792 6.85856 24.5434 7.36232 24.7528 7.77551C25.3754 9.00944 25.7037 10.3792 25.7037 11.7999Z" fill="#6FBAF7"/>
<path d="M22.8115 11.7999C22.8115 12.6829 22.6247 13.5376 22.2624 14.313C22.0756 14.7206 22.2171 15.2073 22.5964 15.4451C23.0549 15.7337 23.6605 15.5526 23.8869 15.0602C24.351 14.0527 24.5944 12.9433 24.5944 11.7999C24.5944 10.6565 24.351 9.55278 23.8869 8.54526C23.6605 8.05282 23.0549 7.8717 22.5964 8.16037C22.2171 8.3981 22.07 8.88487 22.2568 9.29241C22.6247 10.0679 22.8115 10.9226 22.8115 11.7999Z" fill="#6FBAF7"/>
<path d="M16.8001 17.811C15.1926 17.811 13.687 17.1883 12.5493 16.0506C11.4116 14.9129 10.789 13.4073 10.789 11.7998C10.789 10.1923 11.4116 8.68669 12.5493 7.54899C13.687 6.41128 15.1926 5.78866 16.8001 5.78866C18.5322 5.78866 19.7661 6.49619 20.4736 7.03957C20.8302 7.31692 21.334 7.28862 21.651 6.96599C22.0302 6.58675 21.9906 5.95847 21.5661 5.63017C20.6095 4.89435 19.002 4.00003 16.8001 4.00003C14.7172 4.00003 12.7588 4.80944 11.2871 6.28676C9.80978 7.75842 9.00037 9.71685 9.00037 11.7998C9.00037 13.8715 9.8211 15.8525 11.2871 17.3129C12.7588 18.7845 14.7172 19.5996 16.8001 19.5996C18.5548 19.5996 20.2189 19.0279 21.5774 17.9695C21.9962 17.6468 22.0302 17.0242 21.6566 16.6506C21.651 16.645 21.6453 16.6393 21.6396 16.6336C21.3283 16.3223 20.8302 16.2884 20.4793 16.5601C19.7887 17.0865 18.5435 17.811 16.8001 17.811Z" fill="#007CFF"/>
<path d="M21.4752 11.1602C21.3054 10.9904 21.079 10.8942 20.8413 10.8942L17.7112 10.8999C17.2131 10.8999 16.8112 11.3017 16.8112 11.7998C16.8112 12.2979 17.2131 12.6998 17.7112 12.6998H17.7169H19.8111C19.4149 14.0243 18.1584 14.9809 16.6924 14.9299C15 14.8677 13.6528 13.447 13.6755 11.7546C13.6981 10.0452 15.0905 8.66408 16.8112 8.66408C17.4112 8.66408 17.9829 8.83388 18.481 9.1452C18.8376 9.3716 19.3017 9.30934 19.6017 9.01501C20.0093 8.60747 19.9357 7.92825 19.4489 7.6226C18.3791 6.94337 17.0716 6.69998 15.7471 6.97733C13.8509 7.37355 12.3736 8.86784 11.9887 10.764C11.3265 13.9337 13.7434 16.7355 16.8056 16.7355C19.5281 16.7355 21.7413 14.5224 21.7413 11.7998C21.7413 11.5621 21.6451 11.33 21.4752 11.1602Z" fill="#002CB8"/>
</svg>
