<svg width="36" height="24" viewBox="0 0 36 24" fill="none" xmlns="http://www.w3.org/2000/svg">
<rect width="36" height="24" rx="2" fill="#F2F4F6"/>
<path d="M12.3515 8.35151V6C12.3515 5.44772 12.7992 5 13.3515 5H19.1758H27C27.5523 5 28 5.44772 28 6V13.3919C28 13.9442 27.5523 14.3919 27 14.3919H24.6556M19.1758 13.0475C19.1758 14.3462 18.1229 15.399 16.8242 15.399C15.5255 15.399 14.4727 14.3462 14.4727 13.0475C14.4727 11.7488 15.5255 10.696 16.8242 10.696C18.1229 10.696 19.1758 11.7488 19.1758 13.0475ZM10 17.7434H23.6556C24.2078 17.7434 24.6556 17.2957 24.6556 16.7434V9.35151C24.6556 8.79923 24.2078 8.35151 23.6556 8.35151H10C9.44772 8.35151 9 8.79923 9 9.35151V16.7434C9 17.2957 9.44772 17.7434 10 17.7434Z" stroke="#1F1A54" stroke-width="1.2" stroke-linecap="round" stroke-linejoin="round"/>
</svg>
