<svg width="16" height="16" viewBox="0 0 16 16" fill="none" xmlns="http://www.w3.org/2000/svg">
<path d="M7.99999 10.8659V7.88077H6.95529M6.95529 10.8659H9.03999M14 8C14 11.3137 11.3137 14 8 14C4.68629 14 2 11.3137 2 8C2 4.68629 4.68629 2 8 2C11.3137 2 14 4.68629 14 8ZM8.52235 5.38821C8.52235 5.6767 8.28848 5.91057 8 5.91057C7.71151 5.91057 7.47764 5.6767 7.47764 5.38821C7.47764 5.09973 7.71151 4.86586 8 4.86586C8.28848 4.86586 8.52235 5.09973 8.52235 5.38821Z" stroke="#91919C" stroke-linecap="round" stroke-linejoin="round"/>
</svg>
