<svg width="24" height="25" viewBox="0 0 24 25" fill="none" xmlns="http://www.w3.org/2000/svg">
<path d="M12 16.6445V12.1669H10.4329M10.4329 16.6445H13.56M21 12.3457C21 17.3163 16.9706 21.3457 12 21.3457C7.02944 21.3457 3 17.3163 3 12.3457C3 7.37514 7.02944 3.3457 12 3.3457C16.9706 3.3457 21 7.37514 21 12.3457ZM12.7835 8.42802C12.7835 8.86076 12.4327 9.21155 12 9.21155C11.5673 9.21155 11.2165 8.86076 11.2165 8.42802C11.2165 7.99529 11.5673 7.6445 12 7.6445C12.4327 7.6445 12.7835 7.99529 12.7835 8.42802Z" stroke="#EA646C" stroke-width="1.2" stroke-linecap="round" stroke-linejoin="round"/>
</svg>
