<svg width="18" height="18" viewBox="0 0 18 18" fill="none" xmlns="http://www.w3.org/2000/svg">
  <path d="M9 12.6728V8.60284M15.75 9C15.75 10.335 15.3541 11.6401 14.6124 12.7501C13.8707 13.8601 12.8165 14.7253 11.5831 15.2362C10.3497 15.7471 8.99251 15.8807 7.68314 15.6203C6.37377 15.3598 5.17104 14.717 4.22703 13.773C3.28303 12.829 2.64015 11.6262 2.3797 10.3169C2.11925 9.00749 2.25292 7.65029 2.76382 6.41689C3.27471 5.18349 4.13987 4.12928 5.2499 3.38758C6.35993 2.64588 7.66498 2.25 9 2.25C10.7846 2.26809 12.491 2.98506 13.753 4.24703C15.0149 5.509 15.7319 7.2154 15.75 9Z" stroke="currentColor" stroke-width="1.2" stroke-linecap="round" stroke-linejoin="round" />
  <circle cx="8.99995" cy="6.07715" r="0.75" fill="currentColor" />
</svg>
