<svg width="20" height="20" viewBox="0 0 20 20" fill="none" xmlns="http://www.w3.org/2000/svg">
<path d="M9.99999 14.6445V10.1669H8.43293M8.43293 14.6445H11.56M19 10.3457C19 15.3163 14.9706 19.3457 10 19.3457C5.02944 19.3457 1 15.3163 1 10.3457C1 5.37514 5.02944 1.3457 10 1.3457C14.9706 1.3457 19 5.37514 19 10.3457ZM10.7835 6.42802C10.7835 6.86076 10.4327 7.21155 10 7.21155C9.56726 7.21155 9.21646 6.86076 9.21646 6.42802C9.21646 5.99529 9.56726 5.6445 10 5.6445C10.4327 5.6445 10.7835 5.99529 10.7835 6.42802Z" stroke="#7C4FF6" stroke-width="1.2" stroke-linecap="round" stroke-linejoin="round"/>
</svg>
