<svg width="14" height="14" viewBox="0 0 14 14" fill="none" xmlns="http://www.w3.org/2000/svg">
<path d="M6.99999 9.86586V6.88077H5.95529M5.95529 9.86586H8.03999M13 7C13 10.3137 10.3137 13 7 13C3.68629 13 1 10.3137 1 7C1 3.68629 3.68629 1 7 1C10.3137 1 13 3.68629 13 7ZM7.52235 4.38821C7.52235 4.6767 7.28848 4.91057 7 4.91057C6.71151 4.91057 6.47764 4.6767 6.47764 4.38821C6.47764 4.09973 6.71151 3.86586 7 3.86586C7.28848 3.86586 7.52235 4.09973 7.52235 4.38821Z" stroke="#91919C" stroke-linecap="round" stroke-linejoin="round"/>
</svg>
