<svg width="24" height="25" viewBox="0 0 24 25" fill="none" xmlns="http://www.w3.org/2000/svg">
<path d="M14.7434 9.26014H21M17.8717 12.3955V6.13185M13.1616 8.25739C13.1684 7.87227 13.0973 7.48976 12.9526 7.13279C12.8079 6.77583 12.5925 6.45177 12.3195 6.18007C12.0465 5.90837 11.7214 5.69461 11.3637 5.55163C11.0061 5.40866 10.6232 5.3394 10.2381 5.34802C9.85056 5.33232 9.4639 5.39661 9.10227 5.5369C8.74063 5.67718 8.41176 5.89044 8.13616 6.16339C7.86055 6.43635 7.64412 6.76314 7.50035 7.12341C7.35658 7.48367 7.28856 7.86969 7.30051 8.25739C7.30051 8.58223 7.62534 10.1993 7.62534 10.1993C7.87956 11.5975 8.82581 12.7839 10.2381 12.7839C11.6505 12.7839 12.5685 11.6187 12.8439 10.1993C12.8368 10.1993 13.1475 8.58223 13.1616 8.25739ZM17.4621 20.2197H3L3.24716 17.3951C3.38133 16.3288 4.44763 15.5944 5.54924 15.3825L10.2381 14.7752L14.9694 15.4108C16.1911 15.6297 17.222 16.3076 17.3068 17.5293L17.4621 20.2197Z" stroke="#3057BA" stroke-width="1.2" stroke-linecap="round" stroke-linejoin="round"/>
</svg>
