<svg width="20" height="17" viewBox="0 0 20 17" fill="none" xmlns="http://www.w3.org/2000/svg">
<path d="M12.7434 5.26014H19M15.8717 8.39549V2.13185M11.1616 4.25739C11.1684 3.87227 11.0973 3.48976 10.9526 3.13279C10.8079 2.77583 10.5925 2.45177 10.3195 2.18007C10.0465 1.90837 9.7214 1.69461 9.36373 1.55163C9.00607 1.40866 8.62322 1.3394 8.23813 1.34802C7.85056 1.33232 7.4639 1.39661 7.10227 1.5369C6.74063 1.67718 6.41176 1.89044 6.13616 2.16339C5.86055 2.43635 5.64412 2.76314 5.50035 3.12341C5.35658 3.48367 5.28856 3.86969 5.30051 4.25739C5.30051 4.58223 5.62534 6.19933 5.62534 6.19933C5.87956 7.59753 6.82581 8.78387 8.23813 8.78387C9.65045 8.78387 10.5685 7.61871 10.8439 6.19933C10.8368 6.19933 11.1475 4.58223 11.1616 4.25739ZM15.4621 16.2197H1L1.24716 13.3951C1.38133 12.3288 2.44763 11.5944 3.54924 11.3825L8.23813 10.7752L12.9694 11.4108C14.1911 11.6297 15.222 12.3076 15.3068 13.5293L15.4621 16.2197Z" stroke="#F7A80F" stroke-width="1.2" stroke-linecap="round" stroke-linejoin="round"/>
</svg>
