<svg width="21" height="22" viewBox="0 0 21 22" fill="none" xmlns="http://www.w3.org/2000/svg">
<path d="M17.4247 4.45625V4.84028C17.4242 5.09379 17.4813 5.34487 17.5925 5.57903C17.7037 5.81319 17.8669 6.0258 18.0726 6.20459L18.7206 6.77053C18.9998 7.01483 19.2212 7.30479 19.3721 7.62386C19.5229 7.94292 19.6004 8.28482 19.5999 8.63003V19.3424C19.5999 19.8392 19.3748 20.3158 18.9737 20.668C18.5726 21.0202 18.0282 21.2194 17.4594 21.2221H3.57511C3.29056 21.2248 3.00822 21.1781 2.74444 21.0849C2.48067 20.9916 2.24068 20.8536 2.03839 20.6788C1.83609 20.5039 1.6755 20.2958 1.56591 20.0664C1.45631 19.837 1.39989 19.591 1.3999 19.3424V8.63003C1.39944 8.28482 1.47686 7.94292 1.62774 7.62386C1.77863 7.30479 2.00001 7.01483 2.27924 6.77053L2.92718 6.20459C3.13294 6.0258 3.29614 5.81319 3.40734 5.57903C3.51855 5.34487 3.57557 5.09379 3.57511 4.84028" fill="#FFF5C6"/>
<path d="M17.4247 4.45625C17.8682 4.37109 18.2632 4.15223 18.5403 3.83806C18.8175 3.5239 18.9591 3.13451 18.9404 2.73823C18.9529 2.52052 18.916 2.3028 18.832 2.09754C18.748 1.89229 18.6184 1.70352 18.4508 1.54206C18.2831 1.38059 18.0806 1.2496 17.8549 1.15659C17.6292 1.06357 17.3847 1.01036 17.1354 1H3.82966C3.33346 1.03116 2.87079 1.23027 2.54015 1.55493C2.20951 1.87959 2.03702 2.30415 2.05941 2.73823C2.04461 3.13222 2.18631 3.51855 2.46046 3.83169C2.73462 4.14483 3.12435 4.36549 3.56354 4.45625V4.84028" fill="#FFF5C6"/>
<path d="M3.57511 4.84028C3.57557 5.09379 3.51855 5.34487 3.40734 5.57903C3.29614 5.81319 3.13294 6.0258 2.92718 6.20459L2.27924 6.77053C2.00001 7.01483 1.77863 7.30479 1.62774 7.62386C1.47686 7.94292 1.39944 8.28482 1.3999 8.63003V19.3424C1.39989 19.591 1.45631 19.837 1.56591 20.0664C1.6755 20.2958 1.83609 20.5039 2.03839 20.6788C2.24068 20.8536 2.48067 20.9916 2.74444 21.0849C3.00822 21.1781 3.29056 21.2248 3.57511 21.2221H17.4594C18.0282 21.2194 18.5726 21.0202 18.9737 20.668C19.3748 20.3158 19.5999 19.8392 19.5999 19.3424V8.63003C19.6004 8.28482 19.5229 7.94292 19.3721 7.62386C19.2212 7.30479 18.9998 7.01483 18.7206 6.77053L18.0726 6.20459C17.8669 6.0258 17.7037 5.81319 17.5925 5.57903C17.4813 5.34487 17.4242 5.09379 17.4247 4.84028V4.45625C17.8682 4.37109 18.2632 4.15223 18.5403 3.83806C18.8175 3.5239 18.9591 3.13451 18.9404 2.73823C18.9528 2.52052 18.916 2.3028 18.832 2.09754C18.748 1.89229 18.6184 1.70352 18.4508 1.54206C18.2831 1.38059 18.0806 1.2496 17.8549 1.15659C17.6292 1.06357 17.3847 1.01036 17.1354 1H3.82966C3.33346 1.03116 2.87079 1.23027 2.54015 1.55493C2.20951 1.87959 2.03702 2.30415 2.05941 2.73823C2.04461 3.13222 2.18631 3.51855 2.46046 3.83169C2.73462 4.14483 3.12435 4.36549 3.56354 4.45625V4.84028" stroke="#FFD400" stroke-width="1.5" stroke-linecap="round" stroke-linejoin="round"/>
<path d="M12.9281 8.07764C11.8932 8.07764 10.9776 8.6925 10.5397 9.55331C10.1018 8.65151 9.18624 8.07764 8.15125 8.07764C6.67837 8.07764 5.44434 9.30737 5.44434 10.865C5.44434 12.4227 6.35991 13.7754 7.55413 14.9231C8.78817 16.1119 10.4999 17.1776 10.4999 17.1776C10.4999 17.1776 12.2116 16.1119 13.4456 14.9231C14.7991 13.6934 15.5554 12.3817 15.5554 10.865C15.5554 9.34836 14.401 8.07764 12.9281 8.07764Z" fill="white" stroke="#EA646C" stroke-width="1.5" stroke-linecap="round" stroke-linejoin="round"/>
</svg>
