<svg width="24" height="24" viewBox="0 0 24 24" fill="none" xmlns="http://www.w3.org/2000/svg">
<path d="M5.07511 5.84028C5.07557 6.09379 5.01855 6.34487 4.90734 6.57903C4.79614 6.81319 4.63294 7.0258 4.42718 7.20459L3.77924 7.77053C3.50001 8.01483 3.27863 8.30479 3.12774 8.62386C2.97686 8.94292 2.89944 9.28482 2.8999 9.63003V20.3424C2.89989 20.591 2.95631 20.837 3.06591 21.0664C3.1755 21.2958 3.33609 21.5039 3.53839 21.6788C3.74068 21.8536 3.98067 21.9916 4.24444 22.0849C4.50822 22.1781 4.79056 22.2248 5.07511 22.2221H18.9594C19.5282 22.2194 20.0726 22.0202 20.4737 21.668C20.8748 21.3158 21.0999 20.8392 21.0999 20.3424V9.63003C21.1004 9.28482 21.0229 8.94292 20.8721 8.62386C20.7212 8.30479 20.4998 8.01483 20.2206 7.77053L19.5726 7.20459C19.3669 7.0258 19.2037 6.81319 19.0925 6.57903C18.9813 6.34487 18.9242 6.09379 18.9247 5.84028V5.45625C19.3682 5.37109 19.7632 5.15223 20.0403 4.83806C20.3175 4.5239 20.4591 4.13451 20.4404 3.73823C20.4528 3.52052 20.416 3.3028 20.332 3.09754C20.248 2.89229 20.1184 2.70352 19.9508 2.54206C19.7831 2.38059 19.5806 2.2496 19.3549 2.15659C19.1292 2.06357 18.8847 2.01036 18.6354 2H5.32966C4.83346 2.03116 4.37079 2.23027 4.04015 2.55493C3.70951 2.87959 3.53702 3.30415 3.55941 3.73823C3.54461 4.13222 3.68631 4.51855 3.96046 4.83169C4.23462 5.14483 4.62435 5.36549 5.06354 5.45625V5.84028" stroke="#91919C" stroke-width="1.2" stroke-linecap="round" stroke-linejoin="round"/>
<path d="M14.4281 9.07812C13.3932 9.07812 12.4776 9.69299 12.0397 10.5538C11.6018 9.652 10.6862 9.07812 9.65125 9.07812C8.17837 9.07812 6.94434 10.3079 6.94434 11.8655C6.94434 13.4232 7.85991 14.7759 9.05413 15.9236C10.2882 17.1124 11.9999 18.1781 11.9999 18.1781C11.9999 18.1781 13.7116 17.1124 14.9456 15.9236C16.2991 14.6939 17.0554 13.3822 17.0554 11.8655C17.0554 10.3488 15.901 9.07812 14.4281 9.07812Z" stroke="#91919C" stroke-width="1.2" stroke-linecap="round" stroke-linejoin="round"/>
</svg>
