<svg width="16" height="16" viewBox="0 0 16 16" fill="none" xmlns="http://www.w3.org/2000/svg">
<path d="M3.38337 3.89344C3.38367 4.06244 3.34566 4.22983 3.27152 4.38594C3.19738 4.54205 3.08859 4.68379 2.95141 4.80298L2.51945 5.18027C2.3333 5.34314 2.18571 5.53645 2.08512 5.74916C1.98453 5.96187 1.93292 6.1898 1.93323 6.41994V13.5615C1.93322 13.7272 1.97083 13.8913 2.0439 14.0442C2.11696 14.1971 2.22402 14.3359 2.35889 14.4524C2.49375 14.569 2.65374 14.661 2.82959 14.7232C3.00544 14.7853 3.19366 14.8164 3.38337 14.8147H12.6396C13.0187 14.8129 13.3817 14.6801 13.6491 14.4452C13.9165 14.2104 14.0666 13.8927 14.0666 13.5615V6.41994C14.0669 6.1898 14.0153 5.96187 13.9147 5.74916C13.8141 5.53645 13.6665 5.34314 13.4803 5.18027L13.0484 4.80298C12.9112 4.68379 12.8024 4.54205 12.7283 4.38594C12.6541 4.22983 12.6161 4.06244 12.6164 3.89344V3.63742C12.9121 3.58065 13.1754 3.43474 13.3602 3.22529C13.545 3.01585 13.6394 2.75626 13.6269 2.49207C13.6352 2.34693 13.6106 2.20179 13.5546 2.06495C13.4986 1.92811 13.4122 1.80226 13.3005 1.69462C13.1887 1.58698 13.0537 1.49965 12.9032 1.43764C12.7528 1.37563 12.5898 1.34016 12.4236 1.33325H3.55306C3.22227 1.35403 2.91382 1.48676 2.69339 1.7032C2.47297 1.91964 2.35797 2.20269 2.3729 2.49207C2.36303 2.75473 2.4575 3.01229 2.64027 3.22105C2.82304 3.42981 3.08286 3.57692 3.37565 3.63742V3.89344" stroke="white" stroke-width="1.2" stroke-linecap="round" stroke-linejoin="round"/>
<path d="M9.61872 6.05176C8.92873 6.05176 8.31835 6.46167 8.02642 7.03554C7.7345 6.43434 7.12412 6.05176 6.43412 6.05176C5.45221 6.05176 4.62952 6.87158 4.62952 7.91002C4.62952 8.94845 5.2399 9.85026 6.03605 10.6154C6.85874 11.4079 7.99989 12.1184 7.99989 12.1184C7.99989 12.1184 9.14103 11.4079 9.96372 10.6154C10.866 9.7956 11.3703 8.92113 11.3703 7.91002C11.3703 6.8989 10.6006 6.05176 9.61872 6.05176Z" stroke="white" stroke-width="1.2" stroke-linecap="round" stroke-linejoin="round"/>
</svg>
