<svg width="24" height="25" viewBox="0 0 24 25" fill="none" xmlns="http://www.w3.org/2000/svg">
  <path d="M15.5162 7.67444C15.5148 7.44098 15.5828 7.21236 15.7114 7.01756C15.8401 6.82277 16.0238 6.67056 16.239 6.58025C16.4543 6.48994 16.6916 6.46558 16.9207 6.51027C17.1499 6.55496 17.3606 6.66668 17.5262 6.83127C17.6918 6.99586 17.8048 7.2059 17.8508 7.43478C17.8969 7.66366 17.874 7.90106 17.7849 8.11688C17.6959 8.33271 17.5448 8.51725 17.3508 8.64711C17.1568 8.77696 16.9286 8.84629 16.6951 8.84629C16.3837 8.8463 16.0849 8.72306 15.864 8.5035C15.6431 8.28393 15.5181 7.98588 15.5162 7.67444Z" stroke="currentColor" stroke-width="1.2" stroke-linecap="round" stroke-linejoin="round" />
  <path d="M19.3071 13.1948C20.0582 12.4451 20.5879 11.5026 20.8378 10.4711C21.0877 9.43969 21.0482 8.35928 20.7236 7.34885C20.399 6.33842 19.8018 5.43715 18.9979 4.74426C18.1941 4.05137 17.2146 3.59373 16.1673 3.42172C15.12 3.24971 14.0456 3.37 13.0623 3.76934C12.079 4.16869 11.225 4.83161 10.5942 5.68512C9.96346 6.53864 9.58043 7.54964 9.4873 8.60684C9.39417 9.66404 9.59455 10.7264 10.0664 11.6771L8.54864 13.1948L8.28744 15.0232L6.45907 15.2844L6.19788 17.1128L4.36951 17.374L3 18.7435L4.2848 20.0283C4.45807 20.2031 4.66424 20.3418 4.89142 20.4365C5.11861 20.5312 5.3623 20.58 5.60842 20.58C5.85455 20.58 6.09824 20.5312 6.32542 20.4365C6.55261 20.3418 6.75878 20.2031 6.93205 20.0283L12.6713 14.289C13.7526 14.8247 14.9748 15.0072 16.1654 14.8109C17.3561 14.6146 18.455 14.0493 19.3071 13.1948Z" stroke="currentColor" stroke-width="1.2" stroke-linecap="round" stroke-linejoin="round" />
</svg>
