<svg width="20" height="20" viewBox="0 0 20 20" fill="none" xmlns="http://www.w3.org/2000/svg">
<path d="M6.13084 18.3271C3.1028 16.8972 1 13.785 1 10.2523C1 7.8972 1.92523 5.79439 3.35514 4.19626L3.7757 3.85981C3.52336 3.7757 3.35514 3.60748 3.18692 3.43925C2.93458 3.18692 2.85047 2.85047 2.85047 2.51402C2.85047 2.17757 3.01869 1.75701 3.27103 1.50467C3.52336 1.25234 3.94393 1.08411 4.36449 1H15.5514C15.7196 1 15.972 1.08411 16.1402 1.16822C16.3084 1.25234 16.4766 1.33645 16.6449 1.50467C16.8131 1.6729 16.8972 1.84112 16.9813 2.00935C17.0654 2.17757 17.0654 2.34579 17.0654 2.51402C17.0654 2.85047 16.9813 3.18692 16.729 3.43925C16.5607 3.60748 16.3925 3.69159 16.2243 3.7757L16.3084 3.85981C17.9907 5.45794 19 7.72897 19 10.2523C19 13.8692 16.8972 16.9813 13.785 18.4112H6.29907L6.13084 18.3271Z" stroke="#3057BA" stroke-width="1.2" stroke-linecap="round" stroke-linejoin="round"/>
<path d="M12.3847 6.04688C11.46 6.04688 10.5353 6.60146 10.1654 7.43334C9.79556 6.50903 8.96333 6.04688 8.03864 6.04688C6.6516 6.04688 5.54196 7.15605 5.54196 8.54251C5.54196 10.0214 6.37419 11.223 7.48382 12.3322C8.59345 13.4413 10.1654 14.4581 10.1654 14.4581C10.1654 14.4581 11.7374 13.4413 12.847 12.3322C14.1416 11.223 14.7889 10.0214 14.7889 8.54251C14.8814 7.15605 13.7717 6.04688 12.3847 6.04688Z" stroke="#3057BA" stroke-width="1.2" stroke-linecap="round" stroke-linejoin="round"/>
</svg>
