<svg width="20" height="19" viewBox="0 0 20 19" fill="none" xmlns="http://www.w3.org/2000/svg">
<path d="M6.41741 17.7104C3.61367 16.3864 1.66663 13.5048 1.66663 10.2337C1.66663 8.05304 2.52332 6.106 3.84731 4.62625L4.23672 4.31472C4.00307 4.23684 3.84731 4.08108 3.69155 3.92531C3.4579 3.69167 3.38002 3.38014 3.38002 3.06862C3.38002 2.75709 3.53579 2.36768 3.76943 2.13404C4.00307 1.90039 4.39248 1.74463 4.78189 1.66675H15.1401C15.2959 1.66675 15.5296 1.74463 15.6853 1.82251C15.8411 1.90039 15.9968 1.97827 16.1526 2.13404C16.3084 2.2898 16.3863 2.44556 16.4641 2.60133C16.542 2.75709 16.542 2.91285 16.542 3.06862C16.542 3.38014 16.4641 3.69167 16.2305 3.92531C16.0747 4.08108 15.919 4.15896 15.7632 4.23684L15.8411 4.31472C17.3987 5.79447 18.3333 7.89728 18.3333 10.2337C18.3333 13.5826 16.3863 16.4643 13.5046 17.7882H6.57317L6.41741 17.7104Z" stroke="#F7A80F" stroke-width="1.5" stroke-linecap="round" stroke-linejoin="round"/>
<path d="M12.2081 6.3396C11.3519 6.3396 10.4957 6.8531 10.1532 7.62336C9.81071 6.76752 9.04013 6.3396 8.18393 6.3396C6.89963 6.3396 5.87219 7.36661 5.87219 8.65037C5.87219 10.0197 6.64277 11.1323 7.67021 12.1593C8.69765 13.1863 10.1532 14.1278 10.1532 14.1278C10.1532 14.1278 11.6087 13.1863 12.6362 12.1593C13.8348 11.1323 14.4342 10.0197 14.4342 8.65037C14.5198 7.36661 13.4924 6.3396 12.2081 6.3396Z" fill="#EA646C" stroke="#EA646C" stroke-width="1.5" stroke-linecap="round" stroke-linejoin="round"/>
</svg>
