<svg width="24" height="24" viewBox="0 0 24 24" fill="none" xmlns="http://www.w3.org/2000/svg">
<path d="M8.13084 20.3271C5.1028 18.8972 3 15.785 3 12.2523C3 9.8972 3.92523 7.79439 5.35514 6.19626L5.7757 5.85981C5.52336 5.7757 5.35514 5.60748 5.18692 5.43925C4.93458 5.18692 4.85047 4.85047 4.85047 4.51402C4.85047 4.17757 5.01869 3.75701 5.27103 3.50467C5.52336 3.25234 5.94393 3.08411 6.36449 3H17.5514C17.7196 3 17.972 3.08411 18.1402 3.16822C18.3084 3.25234 18.4766 3.33645 18.6449 3.50467C18.8131 3.6729 18.8972 3.84112 18.9813 4.00935C19.0654 4.17757 19.0654 4.34579 19.0654 4.51402C19.0654 4.85047 18.9813 5.18692 18.729 5.43925C18.5607 5.60748 18.3925 5.69159 18.2243 5.7757L18.3084 5.85981C19.9907 7.45794 21 9.72897 21 12.2523C21 15.8692 18.8972 18.9813 15.785 20.4112H8.29907L8.13084 20.3271Z" stroke="#1F1A54" stroke-width="1.2" stroke-linecap="round" stroke-linejoin="round"/>
<path d="M14.3847 8.04675C13.46 8.04675 12.5353 8.60134 12.1655 9.43322C11.7956 8.50891 10.9634 8.04675 10.0387 8.04675C8.65163 8.04675 7.54199 9.15592 7.54199 10.5424C7.54199 12.0213 8.37422 13.2229 9.48385 14.3321C10.5935 15.4412 12.1655 16.458 12.1655 16.458C12.1655 16.458 13.7374 15.4412 14.8471 14.3321C16.1417 13.2229 16.7889 12.0213 16.7889 10.5424C16.8814 9.15592 15.7718 8.04675 14.3847 8.04675Z" stroke="#1F1A54" stroke-width="1.2" stroke-linecap="round" stroke-linejoin="round"/>
</svg>
