<svg width="22" height="22" viewBox="0 0 22 22" fill="none" xmlns="http://www.w3.org/2000/svg">
<path d="M6.70093 20.2523C3.33645 18.6635 1 15.2056 1 11.2804C1 8.66355 2.02804 6.3271 3.61682 4.5514L4.08411 4.17757C3.80374 4.08411 3.61682 3.8972 3.42991 3.71028C3.14953 3.42991 3.05607 3.05607 3.05607 2.68224C3.05607 2.30841 3.24299 1.84112 3.52336 1.56075C3.80374 1.28037 4.27103 1.09346 4.73832 1H17.1682C17.3551 1 17.6355 1.09346 17.8224 1.18692C18.0093 1.28037 18.1963 1.37383 18.3832 1.56075C18.5701 1.74766 18.6636 1.93458 18.757 2.1215C18.8505 2.30841 18.8505 2.49533 18.8505 2.68224C18.8505 3.05607 18.757 3.42991 18.4766 3.71028C18.2897 3.8972 18.1028 3.99065 17.9159 4.08411L18.0093 4.17757C19.8785 5.95327 21 8.47664 21 11.2804C21 15.2991 18.6636 18.757 15.2056 20.3458H6.88785L6.70093 20.2523Z" stroke="#91919C" stroke-width="1.5" stroke-linecap="round" stroke-linejoin="round"/>
<path d="M13.6497 6.60742C12.6222 6.60742 11.5948 7.22363 11.1838 8.14794C10.7728 7.12093 9.84815 6.60742 8.82071 6.60742C7.27956 6.60742 6.04663 7.83983 6.04663 9.38035C6.04663 11.0236 6.97133 12.3587 8.20425 13.5911C9.43718 14.8235 11.1838 15.9532 11.1838 15.9532C11.1838 15.9532 12.9305 14.8235 14.1634 13.5911C15.6018 12.3587 16.321 11.0236 16.321 9.38035C16.4238 7.83983 15.1908 6.60742 13.6497 6.60742Z" stroke="#91919C" stroke-width="1.5" stroke-linecap="round" stroke-linejoin="round"/>
</svg>
