<svg width="24" height="24" viewBox="0 0 24 24" fill="none" xmlns="http://www.w3.org/2000/svg">
<path d="M17.6666 5.21829V5.17592C16.9809 4.48633 16.1656 3.93908 15.2676 3.56566C14.3697 3.19224 13.4068 3 12.4343 3C11.4618 3 10.4988 3.19224 9.60089 3.56566C8.70294 3.93908 7.88766 4.48633 7.20193 5.17592L7.16662 5.21829C5.77904 6.61178 5 8.49821 5 10.4647C5 12.4313 5.77904 14.3177 7.16662 15.7112L12.399 21L17.6666 15.7112C19.0542 14.3177 19.8332 12.4313 19.8332 10.4647C19.8332 8.49821 19.0542 6.61178 17.6666 5.21829Z" stroke="#91919C" stroke-width="1.2" stroke-linecap="round" stroke-linejoin="round"/>
<path d="M12.4343 12.3924C13.5106 12.3924 14.3831 11.5167 14.3831 10.4365C14.3831 9.35625 13.5106 8.48055 12.4343 8.48055C11.3579 8.48055 10.4854 9.35625 10.4854 10.4365C10.4854 11.5167 11.3579 12.3924 12.4343 12.3924Z" stroke="#91919C" stroke-width="1.2" stroke-linecap="round" stroke-linejoin="round"/>
</svg>
