<svg width="24" height="24" viewBox="0 0 24 24" fill="none" xmlns="http://www.w3.org/2000/svg">
<path d="M7.7399 10.0475V6.91212C7.7399 5.87456 8.15207 4.8795 8.88573 4.14583C9.6194 3.41217 10.6145 3 11.652 3C12.6896 3 13.6846 3.41217 14.4183 4.14583C15.152 4.8795 15.5641 5.87456 15.5641 6.91212V10.0475M15.1758 21H8.11416C7.28694 20.9963 6.49487 20.665 5.91125 20.0788C5.32764 19.4925 4.99999 18.6989 5 17.8717V10.0475H18.304V17.8717C18.304 18.7014 17.9745 19.4971 17.3878 20.0837C16.8011 20.6704 16.0054 21 15.1758 21Z" stroke="#91919C" stroke-width="1.5" stroke-linecap="round" stroke-linejoin="round"/>
<path d="M11.652 17.4833C11.5334 17.4836 11.4181 17.4441 11.3247 17.3711C11.2312 17.2982 11.1649 17.1959 11.1365 17.0808L10.508 14.9623C10.4697 14.7909 10.4703 14.613 10.51 14.4419C10.5497 14.2708 10.6273 14.1108 10.7371 13.9737C10.8469 13.8366 10.9862 13.7259 11.1445 13.6499C11.3029 13.5738 11.4763 13.5343 11.652 13.5343C11.8276 13.5343 12.001 13.5738 12.1594 13.6499C12.3178 13.7259 12.457 13.8366 12.5668 13.9737C12.6767 14.1108 12.7543 14.2708 12.7939 14.4419C12.8336 14.613 12.8343 14.7909 12.7959 14.9623L12.1675 17.0808C12.139 17.1959 12.0727 17.2982 11.9793 17.3711C11.8858 17.4441 11.7705 17.4836 11.652 17.4833Z" fill="#91919C"/>
</svg>
