<svg width="48" height="48" viewBox="0 0 48 48" fill="none" xmlns="http://www.w3.org/2000/svg">
<path d="M24 48C37.2548 48 48 37.2548 48 24C48 10.7452 37.2548 0 24 0C10.7452 0 0 10.7452 0 24C0 37.2548 10.7452 48 24 48Z" fill="black"/>
<path d="M27.1499 14.51C27.8693 13.6407 28.2807 12.5577 28.3199 11.43C28.3299 11.2868 28.3299 11.1432 28.3199 11C27.0911 11.1281 25.9609 11.7309 25.1699 12.68C24.4576 13.5207 24.0521 14.5785 24.0199 15.68C23.9999 15.8092 23.9999 15.9408 24.0199 16.07H24.2599C24.8223 16.0197 25.3686 15.8555 25.8654 15.5873C26.3623 15.3191 26.7993 14.9525 27.1499 14.51V14.51Z" fill="white"/>
<path d="M29.8403 22.6901C29.8412 21.8571 30.0503 21.0374 30.4484 20.3057C30.8466 19.574 31.4213 18.9533 32.1203 18.5001C31.6549 17.8149 31.0265 17.2561 30.2917 16.8738C29.5568 16.4916 28.7385 16.2979 27.9103 16.3101C26.2903 16.3101 24.9703 17.3101 24.1503 17.3101C23.3303 17.3101 22.0803 16.3601 20.6703 16.3601C18.0203 16.3601 15.3203 18.6301 15.3203 22.9101C15.3636 25.4983 16.1365 28.0217 17.5503 30.1901C18.6103 31.7401 19.5503 33.0001 20.8603 33.0001C22.1703 33.0001 22.7703 32.0901 24.4103 32.0901C26.0503 32.0901 26.4103 32.9701 27.9103 32.9701C29.4103 32.9701 30.3203 31.6001 31.2203 30.2601C31.8446 29.2902 32.3357 28.2408 32.6803 27.1401C31.823 26.7582 31.0969 26.1328 30.592 25.3417C30.0871 24.5505 29.8257 23.6285 29.8403 22.6901V22.6901Z" fill="white"/>
</svg>
