<svg width="60" height="60" viewBox="0 0 60 60" fill="none" xmlns="http://www.w3.org/2000/svg">
<g clip-path="url(#clip0)">
<ellipse opacity="0.5" cx="30" cy="56" rx="14" ry="4" fill="#1F1A54"/>
<g filter="url(#filter0_d)">
<path d="M53 24.2236C53 18.1056 50.5841 12.1048 46.281 7.76952C44.1544 5.62412 41.6261 3.92159 38.8414 2.75983C36.0568 1.59807 33.0706 1 30.0547 1C27.0389 1 24.0527 1.59807 21.268 2.75983C18.4834 3.92159 15.9551 5.62412 13.8285 7.76952L13.719 7.90133C9.41592 12.2366 7 18.1056 7 24.2236C7 30.3417 9.41592 36.2106 13.719 40.5459L29.9453 57L46.281 40.5459C50.5841 36.2106 53 30.3417 53 24.2236Z" fill="url(#paint0_linear)" stroke="url(#paint1_linear)" stroke-width="2" stroke-linecap="round" stroke-linejoin="round"/>
<circle cx="30" cy="25" r="18" fill="url(#paint2_linear)"/>
</g>
</g>
<defs>
<filter id="filter0_d" x="-9" y="-10" width="78" height="88" filterUnits="userSpaceOnUse" color-interpolation-filters="sRGB">
<feFlood flood-opacity="0" result="BackgroundImageFix"/>
<feColorMatrix in="SourceAlpha" type="matrix" values="0 0 0 0 0 0 0 0 0 0 0 0 0 0 0 0 0 0 127 0"/>
<feOffset dy="5"/>
<feGaussianBlur stdDeviation="7.5"/>
<feColorMatrix type="matrix" values="0 0 0 0 0.121569 0 0 0 0 0.101961 0 0 0 0 0.329412 0 0 0 0.06 0"/>
<feBlend mode="normal" in2="BackgroundImageFix" result="effect1_dropShadow"/>
<feBlend mode="normal" in="SourceGraphic" in2="effect1_dropShadow" result="shape"/>
</filter>
<linearGradient id="paint0_linear" x1="16.5" y1="4.5" x2="43.5" y2="53" gradientUnits="userSpaceOnUse">
<stop stop-color="#F3F6FF"/>
<stop offset="1" stop-color="white"/>
</linearGradient>
<linearGradient id="paint1_linear" x1="19.5" y1="3.5" x2="32" y2="58.5" gradientUnits="userSpaceOnUse">
<stop stop-color="white"/>
<stop offset="0.666667" stop-color="#E2E8F9"/>
</linearGradient>
<linearGradient id="paint2_linear" x1="30" y1="7" x2="30" y2="43" gradientUnits="userSpaceOnUse">
<stop stop-color="#ECEFF8"/>
<stop offset="1" stop-color="#F8F9FC"/>
</linearGradient>
<clipPath id="clip0">
<rect width="60" height="60" fill="white"/>
</clipPath>
</defs>
</svg>
