<svg width="34" height="34" viewBox="0 0 34 34" fill="none" xmlns="http://www.w3.org/2000/svg">
<circle opacity="0.2" cx="17" cy="17" r="17" fill="#EA646C"/>
<circle cx="17" cy="17" r="12" fill="#EA646C"/>
<path d="M23.7623 17.75V14.6516C23.7623 13.9104 23.3525 13.229 22.6688 12.9426C21.3626 12.3956 19.0977 11.6194 17.0563 11.7764C14.9504 11.9384 13.8362 13.4227 13.339 14.3554C13.1059 14.7927 13.2728 15.3084 13.6699 15.6049V15.6049C14.0427 15.8833 14.5449 15.9148 14.9496 15.6853L17.3829 14.3055C17.4712 14.2555 17.5821 14.271 17.6531 14.3434L22.9044 19.6927C23.2681 20.0632 23.2846 20.6515 22.9421 21.0417V21.0417C22.5838 21.45 21.9637 21.4941 21.5512 21.1406L18.9615 18.9208" stroke="white" stroke-linecap="round"/>
<path d="M14.6973 12.4906L11.4965 12.137C10.9044 12.0715 10.3867 12.5352 10.3867 13.1309V17.711C10.3867 18.6465 10.7084 19.5571 11.369 20.2194C12.7462 21.6003 15.2659 23.7266 16.9054 22.7309" stroke="white" stroke-linecap="round"/>
<path d="M18.9601 18.9209L20.739 20.4808C21.1104 20.8066 21.158 21.3676 20.8467 21.7512V21.7512C20.518 22.1562 19.9185 22.2069 19.5265 21.8629L17.5312 20.1116" stroke="white" stroke-linecap="round"/>
<path d="M17.5303 20.1113L18.737 21.1672C19.1255 21.5071 19.1718 22.0948 18.8413 22.4913V22.4913C18.5099 22.889 17.9213 22.9485 17.5171 22.6251L15.8633 21.3021" stroke="white" stroke-linecap="round"/>
</svg>
