<svg width="34" height="34" viewBox="0 0 34 34" fill="none" xmlns="http://www.w3.org/2000/svg">
<circle opacity="0.2" cx="17" cy="17" r="17" fill="#00BB94"/>
<circle cx="17" cy="17" r="12" fill="#00BB94"/>
<path d="M18.4441 17.5522L18.4441 16.25M18.4441 16.25L18.4441 14.9272M18.4441 16.25L17.1212 16.25M18.4441 16.25L19.7462 16.25M18.4441 11C21.248 11 23.521 13.273 23.521 16.0769C23.521 18.8808 21.248 21.1538 18.4441 21.1538C15.6402 21.1538 13.3672 18.8808 13.3672 16.0769C13.3672 13.273 15.6402 11 18.4441 11Z" stroke="white" stroke-linecap="round"/>
<path d="M21.4414 20.2308L23.5183 23" stroke="white" stroke-linecap="round"/>
<path d="M11.9817 17.923L11.0586 17.923" stroke="white" stroke-linecap="round"/>
<path d="M11.9817 11.4616L11.0586 11.4616" stroke="white" stroke-linecap="round"/>
<path d="M11.9817 14.6924L11.0586 14.6924" stroke="white" stroke-linecap="round"/>
</svg>
