<svg width="24" height="16" viewBox="0 0 24 16" fill="none" xmlns="http://www.w3.org/2000/svg">
<rect width="24" height="16" rx="2" fill="#2E3034"/>
<g clip-path="url(#clip0)">
<path d="M13.9413 10.9035H10.5584V4.82544H13.9413V10.9035Z" fill="#FF5F00"/>
<path d="M10.7758 7.86697C10.7758 6.63198 11.3542 5.53768 12.2531 4.82639C11.5965 4.31051 10.768 3.99785 9.8613 3.99785C7.72742 3.99785 6 5.72527 6 7.85915C6 9.99303 7.72742 11.7205 9.8613 11.7205C10.7602 11.7205 11.5887 11.4078 12.2531 10.8919C11.3542 10.1963 10.7758 9.09415 10.7758 7.86697Z" fill="#EB001B"/>
<path d="M18.5018 7.86697C18.5018 10.0008 16.7744 11.7283 14.6405 11.7283C13.7416 11.7283 12.9131 11.4156 12.2487 10.8997C13.1475 10.1884 13.726 9.09414 13.726 7.85915C13.726 6.62416 13.1475 5.52986 12.2487 4.81856C12.9052 4.30268 13.7338 3.99003 14.6405 3.99003C16.7744 3.99784 18.5018 5.73309 18.5018 7.86697Z" fill="#F79E1B"/>
</g>
<defs>
<clipPath id="clip0">
<rect width="12.5" height="7.72886" fill="white" transform="translate(6 4)"/>
</clipPath>
</defs>
</svg>
