<svg width="22" height="14" viewBox="0 0 22 14" fill="none" xmlns="http://www.w3.org/2000/svg">
<g clip-path="url(#clip0)">
<path d="M13.9767 12.1502H8.02271V1.45288H13.9767V12.1502Z" fill="#FF5F00"/>
<path d="M8.40544 6.806C8.40544 4.63241 9.42346 2.70645 11.0055 1.45457C9.84992 0.546617 8.39169 -0.00366402 6.79589 -0.00366402C3.04026 -0.00366402 0 3.03661 0 6.79224C0 10.5479 3.04026 13.5881 6.79589 13.5881C8.37793 13.5881 9.83616 13.0379 11.0055 12.1299C9.42346 10.9055 8.40544 8.96583 8.40544 6.806Z" fill="#EB001B"/>
<path d="M22.0031 6.80567C22.0031 10.5613 18.9628 13.6016 15.2072 13.6016C13.6251 13.6016 12.1669 13.0513 10.9976 12.1433C12.5796 10.8915 13.5976 8.96549 13.5976 6.79191C13.5976 4.61832 12.5796 2.69235 10.9976 1.44048C12.1531 0.532524 13.6114 -0.0177469 15.2072 -0.0177469C18.9628 -0.00399017 22.0031 3.05004 22.0031 6.80567Z" fill="#F79E1B"/>
</g>
<defs>
<clipPath id="clip0">
<rect width="22" height="13.6028" fill="white"/>
</clipPath>
</defs>
</svg>
