<svg width="24" height="24" viewBox="0 0 24 24" fill="none" xmlns="http://www.w3.org/2000/svg">
<path d="M6.12829 13.7874L21 19.6556V4L6.12829 9.86818M6.12829 13.7874V9.86818M6.12829 13.7874H4.95606C4.43663 13.7855 3.93912 13.5778 3.57249 13.2099C3.20586 12.8419 3 12.3437 3 11.8242C3 11.3055 3.20608 10.8079 3.57292 10.4411C3.93975 10.0743 4.43728 9.86818 4.95606 9.86818H6.12829M14.9129 17.2546L14.3762 18.6669C14.225 19.0514 13.9275 19.3603 13.5489 19.5258C13.1703 19.6912 12.7415 19.6998 12.3566 19.5496L8.69871 18.1373C8.50705 18.0638 8.33178 17.9532 8.18293 17.8118C8.03409 17.6705 7.91459 17.5012 7.83128 17.3136C7.74798 17.126 7.7025 16.9238 7.69745 16.7186C7.69241 16.5134 7.7279 16.3092 7.80188 16.1177L8.36681 14.6559" stroke="#1F1A54" stroke-width="1.2" stroke-linecap="round" stroke-linejoin="round"/>
</svg>
