<svg width="20" height="18" viewBox="0 0 20 18" fill="none" xmlns="http://www.w3.org/2000/svg">
<path d="M4.12829 10.7874L19 16.6556V1L4.12829 6.86818M4.12829 10.7874V6.86818M4.12829 10.7874H2.95606C2.43663 10.7855 1.93912 10.5778 1.57249 10.2099C1.20586 9.84194 0.999997 9.34368 1 8.82424C1 8.30547 1.20608 7.80793 1.57292 7.4411C1.93975 7.07427 2.43728 6.86818 2.95606 6.86818H4.12829M12.9129 14.2546L12.3762 15.6669C12.225 16.0514 11.9275 16.3603 11.5489 16.5258C11.1703 16.6912 10.7415 16.6998 10.3566 16.5496L6.69871 15.1373C6.50705 15.0638 6.33178 14.9532 6.18293 14.8118C6.03409 14.6705 5.91459 14.5012 5.83128 14.3136C5.74798 14.126 5.7025 13.9238 5.69745 13.7186C5.69241 13.5134 5.7279 13.3092 5.80188 13.1177L6.36681 11.6559" stroke="#91919C" stroke-width="1.2" stroke-linecap="round" stroke-linejoin="round"/>
</svg>
