<svg width="24" height="24" viewBox="0 0 24 24" fill="none" xmlns="http://www.w3.org/2000/svg">
<path d="M15.5162 7.32898C15.5148 7.09552 15.5828 6.8669 15.7114 6.6721C15.8401 6.47731 16.0238 6.3251 16.239 6.23479C16.4543 6.14448 16.6916 6.12012 16.9207 6.16481C17.1499 6.2095 17.3606 6.32122 17.5262 6.48581C17.6918 6.6504 17.8048 6.86044 17.8508 7.08932C17.8969 7.3182 17.874 7.5556 17.7849 7.77143C17.6959 7.98725 17.5448 8.17179 17.3508 8.30165C17.1568 8.4315 16.9286 8.50083 16.6951 8.50083C16.3837 8.50084 16.0849 8.3776 15.864 8.15804C15.6431 7.93847 15.5181 7.64042 15.5162 7.32898Z" stroke="#7C4FF6" stroke-width="1.2" stroke-linecap="round" stroke-linejoin="round"/>
<path d="M19.3071 12.8494C20.0582 12.0996 20.5879 11.1571 20.8378 10.1257C21.0877 9.09423 21.0482 8.01382 20.7236 7.00339C20.399 5.99296 19.8018 5.09169 18.9979 4.3988C18.1941 3.70591 17.2146 3.24827 16.1673 3.07626C15.12 2.90425 14.0456 3.02454 13.0623 3.42389C12.079 3.82323 11.225 4.48615 10.5942 5.33967C9.96346 6.19318 9.58043 7.20418 9.4873 8.26138C9.39417 9.31859 9.59455 10.381 10.0664 11.3316L8.54864 12.8494L8.28744 14.6777L6.45907 14.9389L6.19788 16.7673L4.36951 17.0285L3 18.398L4.2848 19.6828C4.45807 19.8576 4.66424 19.9964 4.89142 20.0911C5.11861 20.1858 5.3623 20.2345 5.60842 20.2345C5.85455 20.2345 6.09824 20.1858 6.32542 20.0911C6.55261 19.9964 6.75878 19.8576 6.93205 19.6828L12.6713 13.9436C13.7526 14.4792 14.9748 14.6617 16.1654 14.4654C17.3561 14.2691 18.455 13.7038 19.3071 12.8494Z" stroke="#7C4FF6" stroke-width="1.2" stroke-linecap="round" stroke-linejoin="round"/>
</svg>
