<svg width="24" height="25" viewBox="0 0 24 25" fill="none" xmlns="http://www.w3.org/2000/svg">
  <path d="M12 17.2425V11.8159M21 12.3455C21 14.1255 20.4722 15.8655 19.4832 17.3456C18.4943 18.8256 17.0887 19.9792 15.4442 20.6604C13.7996 21.3416 11.99 21.5198 10.2442 21.1725C8.49836 20.8253 6.89471 19.9681 5.63604 18.7094C4.37737 17.4507 3.5202 15.8471 3.17294 14.1013C2.82567 12.3554 3.0039 10.5458 3.68509 8.90131C4.36628 7.25677 5.51983 5.85116 6.99987 4.86223C8.47991 3.8733 10.22 3.34546 12 3.34546C14.3795 3.36958 16.6547 4.32554 18.3373 6.00817C20.0199 7.69079 20.9759 9.96599 21 12.3455Z" stroke="currentColor" stroke-width="1.2" stroke-linecap="round" stroke-linejoin="round" />
  <circle cx="12" cy="8.44824" r="1" fill="currentColor" />
</svg>
