<svg width="24" height="24" viewBox="0 0 24 24" fill="none" xmlns="http://www.w3.org/2000/svg">
<path d="M12.0071 3C10.4285 3.00024 8.87778 3.41533 7.5102 4.20367C6.14261 4.99202 5.00622 6.12593 4.2149 7.49179C3.42357 8.85765 3.0051 10.4075 3.00141 11.986C2.99772 13.5646 3.40894 15.1163 4.19388 16.4859L3 20.9364L7.41523 19.7496C8.60658 20.4531 9.9441 20.8725 11.3239 20.9752C12.7036 21.0778 14.0885 20.861 15.3708 20.3415C16.6532 19.822 17.7985 19.0139 18.7178 17.9799C19.6371 16.9459 20.3056 15.7139 20.6714 14.3795C21.0372 13.0452 21.0904 11.6445 20.827 10.2862C20.5635 8.92795 19.9904 7.64872 19.1523 6.54791C18.3141 5.4471 17.2335 4.55435 15.9943 3.93903C14.755 3.32371 13.3906 3.00237 12.0071 3Z" fill="white" stroke="#9DAFED" stroke-width="1.2" stroke-linecap="round" stroke-linejoin="round"/>
<path d="M8.63071 9.92353C8.63071 10.2549 8.89934 10.5235 9.23071 10.5235C9.56208 10.5235 9.83071 10.2549 9.83071 9.92353H8.63071ZM11.9999 13.3851L11.5508 12.9872C11.4536 13.097 11.3999 13.2385 11.3999 13.3851H11.9999ZM11.3999 13.6158C11.3999 13.9472 11.6686 14.2158 11.9999 14.2158C12.3313 14.2158 12.5999 13.9472 12.5999 13.6158H11.3999ZM11.3999 16.9065C11.3999 17.2379 11.6686 17.5065 11.9999 17.5065C12.3313 17.5065 12.5999 17.2379 12.5999 16.9065H11.3999ZM12.5999 16.1543C12.5999 15.8229 12.3313 15.5543 11.9999 15.5543C11.6686 15.5543 11.3999 15.8229 11.3999 16.1543H12.5999ZM9.83071 9.92353C9.83071 8.72549 10.8019 7.7543 11.9999 7.7543V6.5543C10.1392 6.5543 8.63071 8.06275 8.63071 9.92353H9.83071ZM11.9999 7.7543C13.198 7.7543 14.1692 8.72549 14.1692 9.92353H15.3692C15.3692 8.06275 13.8607 6.5543 11.9999 6.5543V7.7543ZM11.3999 13.3851V13.6158H12.5999V13.3851H11.3999ZM14.1692 9.92353C14.1692 10.387 13.8655 10.8525 13.2969 11.3983C13.0216 11.6626 12.7214 11.9122 12.4117 12.1767C12.1131 12.4319 11.8006 12.7052 11.5508 12.9872L12.4491 13.7829C12.6364 13.5714 12.8887 13.3476 13.1912 13.0891C13.4828 12.84 13.8203 12.5593 14.1279 12.264C14.7254 11.6904 15.3692 10.9186 15.3692 9.92353H14.1692ZM12.5999 16.9065V16.1543H11.3999V16.9065H12.5999Z" fill="#9DAFED"/>
</svg>
