<svg width="19" height="20" viewBox="0 0 19 20" fill="none" xmlns="http://www.w3.org/2000/svg">
<path d="M11.9596 13.0891V17.0012C11.9596 17.3097 11.8987 17.6152 11.7805 17.9001C11.6622 18.185 11.4889 18.4437 11.2704 18.6615C11.052 18.8793 10.7927 19.0519 10.5074 19.1693C10.2222 19.2867 9.91655 19.3466 9.60808 19.3457H1V1.3457H9.60808C9.91688 1.3457 10.2227 1.40653 10.508 1.5247C10.7933 1.64288 11.0525 1.81609 11.2708 2.03444C11.4892 2.2528 11.6624 2.51203 11.7806 2.79733C11.8988 3.08263 11.9596 3.38841 11.9596 3.69721V7.60933M7.26363 10.3492H17.4394M17.4394 10.3492L14.1204 13.6682M17.4394 10.3492L14.1204 7.02322" stroke="#7C4FF6" stroke-width="1.2" stroke-linecap="round" stroke-linejoin="round"/>
</svg>
