<svg width="24" height="25" viewBox="0 0 24 25" fill="none" xmlns="http://www.w3.org/2000/svg">
<path d="M14.9596 15.0891V19.0012C14.9596 19.3097 14.8987 19.6152 14.7805 19.9001C14.6622 20.185 14.4889 20.4437 14.2704 20.6615C14.052 20.8793 13.7927 21.0519 13.5074 21.1693C13.2222 21.2867 12.9165 21.3466 12.6081 21.3457H4V3.3457H12.6081C12.9169 3.3457 13.2227 3.40653 13.508 3.5247C13.7933 3.64288 14.0525 3.81609 14.2708 4.03444C14.4892 4.2528 14.6624 4.51203 14.7806 4.79733C14.8988 5.08263 14.9596 5.38841 14.9596 5.69721V9.60933M10.2636 12.3492H20.4394M20.4394 12.3492L17.1204 15.6682M20.4394 12.3492L17.1204 9.02322" stroke="#7C4FF6" stroke-width="1.2" stroke-linecap="round" stroke-linejoin="round"/>
</svg>
