<svg width="24" height="24" viewBox="0 0 24 24" fill="none" xmlns="http://www.w3.org/2000/svg">
<path d="M12 16.2988V11.8211H10.4329M10.4329 16.2988H13.56M21 12C21 16.9706 16.9706 21 12 21C7.02944 21 3 16.9706 3 12C3 7.02944 7.02944 3 12 3C16.9706 3 21 7.02944 21 12ZM12.7835 8.08232C12.7835 8.51505 12.4327 8.86585 12 8.86585C11.5673 8.86585 11.2165 8.51505 11.2165 8.08232C11.2165 7.64959 11.5673 7.29879 12 7.29879C12.4327 7.29879 12.7835 7.64959 12.7835 8.08232Z" stroke="#3057BA" stroke-width="1.2" stroke-linecap="round" stroke-linejoin="round"/>
</svg>
