<svg width="24" height="24" viewBox="0 0 24 24" fill="none" xmlns="http://www.w3.org/2000/svg">
<path d="M14.9596 14.7434V18.6555C14.9596 18.964 14.8987 19.2695 14.7805 19.5544C14.6622 19.8393 14.4889 20.098 14.2704 20.3158C14.052 20.5336 13.7927 20.7062 13.5074 20.8236C13.2222 20.941 12.9165 21.0009 12.6081 21H4V3H12.6081C12.9169 3 13.2227 3.06082 13.508 3.179C13.7933 3.29717 14.0525 3.47038 14.2708 3.68874C14.4892 3.9071 14.6624 4.16633 14.7806 4.45163C14.8988 4.73692 14.9596 5.0427 14.9596 5.35151V9.26363M10.2636 12.0035H20.4394M20.4394 12.0035L17.1204 15.3225M20.4394 12.0035L17.1204 8.67752" stroke="#EA646C" stroke-width="1.2" stroke-linecap="round" stroke-linejoin="round"/>
</svg>
