<svg width="18" height="18" viewBox="0 0 18 18" fill="none" xmlns="http://www.w3.org/2000/svg">
  <path d="M13.2499 3.91371V3.88194C12.7356 3.36474 12.1242 2.95431 11.4507 2.67425C10.7773 2.39418 10.0551 2.25 9.32569 2.25C8.59632 2.25 7.87413 2.39418 7.20067 2.67425C6.5272 2.95431 5.91574 3.36474 5.40145 3.88194L5.37497 3.91371C4.33428 4.95883 3.75 6.37366 3.75 7.84855C3.75 9.32344 4.33428 10.7383 5.37497 11.7834L9.29921 15.75L13.2499 11.7834C14.2906 10.7383 14.8749 9.32344 14.8749 7.84855C14.8749 6.37366 14.2906 4.95883 13.2499 3.91371Z" stroke="currentColor" stroke-width="1.2" stroke-linecap="round" stroke-linejoin="round" />
  <path d="M9.32569 9.29433C10.1329 9.29433 10.7874 8.63755 10.7874 7.82737C10.7874 7.01719 10.1329 6.36041 9.32569 6.36041C8.51844 6.36041 7.86403 7.01719 7.86403 7.82737C7.86403 8.63755 8.51844 9.29433 9.32569 9.29433Z" stroke="currentColor" stroke-width="1.2" stroke-linecap="round" stroke-linejoin="round" />
</svg>
