<svg width="17" height="20" viewBox="0 0 17 20" fill="none" xmlns="http://www.w3.org/2000/svg">
<path d="M13.6666 3.21829V3.17592C12.9809 2.48633 12.1656 1.93908 11.2676 1.56566C10.3697 1.19224 9.40676 1 8.43426 1C7.46175 1 6.49884 1.19224 5.60089 1.56566C4.70294 1.93908 3.88766 2.48633 3.20193 3.17592L3.16662 3.21829C1.77904 4.61178 1 6.49821 1 8.46474C1 10.4313 1.77904 12.3177 3.16662 13.7112L8.39895 19L13.6666 13.7112C15.0542 12.3177 15.8332 10.4313 15.8332 8.46474C15.8332 6.49821 15.0542 4.61178 13.6666 3.21829Z" stroke="#91919C" stroke-width="1.2" stroke-linecap="round" stroke-linejoin="round"/>
<path d="M8.43426 10.3924C9.5106 10.3924 10.3831 9.51673 10.3831 8.43649C10.3831 7.35625 9.5106 6.48055 8.43426 6.48055C7.35792 6.48055 6.48537 7.35625 6.48537 8.43649C6.48537 9.51673 7.35792 10.3924 8.43426 10.3924Z" stroke="#91919C" stroke-width="1.2" stroke-linecap="round" stroke-linejoin="round"/>
</svg>
