<svg width="17" height="17" viewBox="0 0 17 17" fill="none" xmlns="http://www.w3.org/2000/svg">
<path d="M12.7464 3.97886V3.95061C12.2892 3.49088 11.7457 3.12606 11.1471 2.87711C10.5485 2.62816 9.90651 2.5 9.25817 2.5C8.60984 2.5 7.9679 2.62816 7.36926 2.87711C6.77063 3.12606 6.22711 3.49088 5.76996 3.95061L5.74642 3.97886C4.82136 4.90785 4.302 6.16548 4.302 7.47649C4.302 8.7875 4.82136 10.0451 5.74642 10.9741L9.23464 14.5L12.7464 10.9741C13.6714 10.0451 14.1908 8.7875 14.1908 7.47649C14.1908 6.16548 13.6714 4.90785 12.7464 3.97886Z" stroke="#F56770" stroke-linecap="round" stroke-linejoin="round"/>
<path d="M9.25824 8.76125C9.9758 8.76125 10.5575 8.17744 10.5575 7.45728C10.5575 6.73712 9.9758 6.15332 9.25824 6.15332C8.54068 6.15332 7.95898 6.73712 7.95898 7.45728C7.95898 8.17744 8.54068 8.76125 9.25824 8.76125Z" stroke="#F56770" stroke-width="1.2" stroke-linecap="round" stroke-linejoin="round"/>
</svg>
