<svg width="20" height="20" viewBox="0 0 20 20" fill="none" xmlns="http://www.w3.org/2000/svg">
<path d="M11.6023 10.6136L11.6023 9.16667M11.6023 9.16667L11.6023 7.69697M11.6023 9.16667L10.1324 9.16667M11.6023 9.16667L13.0491 9.16667M11.6023 3.33334C14.7177 3.33334 17.2433 5.85891 17.2433 8.97436C17.2433 12.0898 14.7177 14.6154 11.6023 14.6154C8.48682 14.6154 5.96125 12.0898 5.96125 8.97436C5.96125 5.85891 8.48682 3.33334 11.6023 3.33334Z" stroke="#00BB94" stroke-width="1.2" stroke-linecap="round"/>
<path d="M14.9357 13.5897L17.2434 16.6667" stroke="#00BB94" stroke-width="1.2" stroke-linecap="round"/>
<path d="M4.42286 11.0256L3.39722 11.0256" stroke="#00BB94" stroke-width="1.2" stroke-linecap="round"/>
<path d="M4.42286 3.84616L3.39722 3.84616" stroke="#00BB94" stroke-width="1.2" stroke-linecap="round"/>
<path d="M4.42286 7.4359L3.39722 7.4359" stroke="#00BB94" stroke-width="1.2" stroke-linecap="round"/>
</svg>
