<svg width="49" height="48" viewBox="0 0 49 48" fill="none" xmlns="http://www.w3.org/2000/svg">
<circle cx="24.5" cy="24" r="23.5" fill="white" stroke="#DBDBDB"/>
<path d="M35.0654 24.2537C35.0654 23.5059 35.0047 22.7542 34.8754 22.0186H24.5V26.2544H30.4415C30.1949 27.6205 29.4027 28.829 28.2427 29.597V32.3454H31.7874C33.869 30.4296 35.0654 27.6003 35.0654 24.2537Z" fill="#4285F4"/>
<path d="M24.4987 35.0004C27.4654 35.0004 29.9672 34.0263 31.7901 32.3449L28.2454 29.5965C27.2592 30.2674 25.986 30.6474 24.5027 30.6474C21.633 30.6474 19.1998 28.7113 18.3268 26.1084H14.6689V28.9417C16.5363 32.6562 20.3396 35.0004 24.4987 35.0004Z" fill="#34A853"/>
<path d="M18.3239 26.1084C17.8631 24.7422 17.8631 23.2629 18.3239 21.8968V19.0635H14.6701C13.11 22.1716 13.11 25.8335 14.6701 28.9417L18.3239 26.1084Z" fill="#FBBC04"/>
<path d="M24.4987 17.3538C26.0669 17.3295 27.5826 17.9196 28.7183 19.0028L31.8588 15.8624C29.8702 13.995 27.2309 12.9684 24.4987 13.0007C20.3396 13.0007 16.5363 15.345 14.6689 19.0635L18.3228 21.8968C19.1917 19.2898 21.629 17.3538 24.4987 17.3538Z" fill="#EA4335"/>
</svg>
