<svg width="11" height="13" viewBox="0 0 11 13" fill="none" xmlns="http://www.w3.org/2000/svg">
<path d="M6.23998 0.414407C5.78325 0.157118 5.22533 0.156929 4.76843 0.413911L0.76467 2.66579C0.292322 2.93145 2.68924e-06 3.43125 2.64186e-06 3.97318L2.25469e-06 8.40182C2.20732e-06 8.94375 0.292321 9.44355 0.76467 9.70922L4.76843 11.9611C5.22533 12.2181 5.78325 12.2179 6.23998 11.9606L10.2362 9.7094C10.7081 9.44359 11 8.94407 11 8.4025L11 3.9725C11 3.43093 10.7081 2.93141 10.2362 2.66561L6.23998 0.414407Z" fill="#EF5350"/>
<path fill-rule="evenodd" clip-rule="evenodd" d="M3.79107 3.59467C3.49818 3.30178 3.02331 3.30178 2.73041 3.59467C2.43752 3.88756 2.43752 4.36244 2.73041 4.65533L4.43942 6.36434L2.76976 8.03401C2.47686 8.3269 2.47686 8.80178 2.76976 9.09467C3.06265 9.38756 3.53752 9.38756 3.83042 9.09467L5.50008 7.425L7.16975 9.09467C7.46265 9.38756 7.93752 9.38756 8.23041 9.09467C8.52331 8.80178 8.52331 8.3269 8.23041 8.03401L6.56074 6.36434L8.26976 4.65533C8.56265 4.36244 8.56265 3.88756 8.26976 3.59467C7.97686 3.30178 7.50199 3.30178 7.2091 3.59467L5.50008 5.30368L3.79107 3.59467Z" fill="white"/>
</svg>
