<svg width="19" height="20" viewBox="0 0 19 20" fill="none" xmlns="http://www.w3.org/2000/svg">
<path d="M6.86818 16.2174V17.0012C6.86818 17.3097 6.92905 17.6152 7.04732 17.9001C7.16558 18.185 7.3389 18.4437 7.55735 18.6615C7.7758 18.8793 8.03508 19.0519 8.32034 19.1693C8.6056 19.2867 8.91122 19.3466 9.21969 19.3457C9.52783 19.3466 9.83311 19.2866 10.118 19.1691C10.4028 19.0516 10.6617 18.879 10.8795 18.6611C11.0974 18.4432 11.2701 18.1844 11.3876 17.8995C11.5051 17.6147 11.5651 17.3094 11.5641 17.0012V16.2174M17.4182 14.7062V16.2174H1V14.7062C0.999514 14.1923 1.10029 13.6833 1.29658 13.2083C1.49287 12.7334 1.78082 12.3017 2.14398 11.9381L3.76814 10.321C4.1313 9.95734 4.41925 9.5257 4.61554 9.05073C4.81183 8.57576 4.91261 8.06677 4.91212 7.55284V5.65327C4.91212 4.51083 5.36595 3.41519 6.17378 2.60736C6.98161 1.79954 8.07725 1.3457 9.21969 1.3457C10.3621 1.3457 11.4578 1.79954 12.2656 2.60736C13.0734 3.41519 13.5273 4.51083 13.5273 5.65327V7.55284C13.5268 8.06677 13.6276 8.57576 13.8238 9.05073C14.0201 9.5257 14.3081 9.95734 14.6712 10.321L16.2883 11.9381C17.0159 12.6752 17.4222 13.6705 17.4182 14.7062Z" stroke="#EA646C" stroke-width="1.2" stroke-linecap="round" stroke-linejoin="round"/>
</svg>
