<svg width="24" height="25" viewBox="0 0 24 25" fill="none" xmlns="http://www.w3.org/2000/svg">
<path d="M9.86818 18.2174V19.0012C9.86818 19.3097 9.92905 19.6152 10.0473 19.9001C10.1656 20.185 10.3389 20.4437 10.5573 20.6615C10.7758 20.8793 11.0351 21.0519 11.3203 21.1693C11.6056 21.2867 11.9112 21.3466 12.2197 21.3457C12.5278 21.3466 12.8331 21.2866 13.118 21.1691C13.4028 21.0516 13.6617 20.879 13.8795 20.6611C14.0974 20.4432 14.2701 20.1844 14.3876 19.8995C14.5051 19.6147 14.5651 19.3094 14.5641 19.0012V18.2174M20.4182 16.7062V18.2174H4V16.7062C3.99951 16.1923 4.10029 15.6833 4.29658 15.2083C4.49287 14.7334 4.78082 14.3017 5.14398 13.9381L6.76814 12.321C7.1313 11.9573 7.41925 11.5257 7.61554 11.0507C7.81183 10.5758 7.91261 10.0668 7.91212 9.55284V7.65327C7.91212 6.51083 8.36595 5.41519 9.17378 4.60736C9.98161 3.79954 11.0773 3.3457 12.2197 3.3457C13.3621 3.3457 14.4578 3.79954 15.2656 4.60736C16.0734 5.41519 16.5273 6.51083 16.5273 7.65327V9.55284C16.5268 10.0668 16.6276 10.5758 16.8238 11.0507C17.0201 11.5257 17.3081 11.9573 17.6712 12.321L19.2883 13.9381C20.0159 14.6752 20.4222 15.6705 20.4182 16.7062Z" stroke="#7C4FF6" stroke-width="1.2" stroke-linecap="round" stroke-linejoin="round"/>
</svg>
