<svg width="20" height="20" viewBox="0 0 20 20" fill="none" xmlns="http://www.w3.org/2000/svg">
<path d="M17.853 14.405H8.37274C7.64929 14.4054 6.94909 14.1495 6.39634 13.6827C5.84359 13.216 5.47401 12.5686 5.35317 11.8553L3.48752 1H1M4.06101 4.06104H19L18.0672 8.49712C17.8964 9.31746 17.4613 10.0591 16.8285 10.6083C16.1956 11.1575 15.4001 11.4839 14.5639 11.5374L5.40842 12.1317M8.27606 17.2725C8.27606 18.0129 7.67589 18.613 6.93556 18.613C6.19522 18.613 5.59506 18.0129 5.59506 17.2725C5.59506 16.5322 6.19522 15.932 6.93556 15.932C7.67589 15.932 8.27606 16.5322 8.27606 17.2725ZM17.4661 17.2725C17.4661 18.0129 16.8659 18.613 16.1256 18.613C15.3852 18.613 14.7851 18.0129 14.7851 17.2725C14.7851 16.5322 15.3852 15.932 16.1256 15.932C16.8659 15.932 17.4661 16.5322 17.4661 17.2725Z" stroke="#3781FC" stroke-width="1.2" stroke-linecap="round" stroke-linejoin="round"/>
</svg>
