<svg width="20" height="16" viewBox="0 0 20 16" fill="none" xmlns="http://www.w3.org/2000/svg">
<path d="M5.00002 8.375V2.26136C5.00002 1.92683 5.13292 1.606 5.36947 1.36944C5.60602 1.13289 5.92685 1 6.26139 1H15.2727C15.6073 1 15.9281 1.13289 16.1647 1.36944C16.4012 1.606 16.5341 1.92683 16.5341 2.26136V10.5455M1 10.6477C2.32955 9.78408 3.52273 9.12499 4.5 8.61363C5.76797 7.96462 7.12278 7.50153 8.52273 7.23863H8.97727C9.54545 7.23863 9.96591 7.44317 11.7955 7.54544C12.9318 7.61362 13.5682 7.62499 13.75 8.01135C13.9318 8.39772 13.6023 8.92044 13.3409 9.22726C12.2045 10.4545 9.48864 9.64772 9.27273 10.3636C9.27273 10.5114 9.27273 10.7614 9.625 11.1818C11.2955 11.2614 12.4318 11.5795 14.1705 11.6591C14.6136 11.4659 15.3068 11.1591 16.1705 10.75C17.3068 10.2273 17.6591 10.0227 18.0682 10.1704C18.6591 10.3864 18.8977 11.1818 19 11.7045C18.3429 12.2804 17.6482 12.8119 16.9205 13.2954C16.1482 13.7987 15.339 14.2432 14.5 14.625H5.35227L1 13.9545V10.6477Z" stroke="#3781FC" stroke-width="1.2" stroke-linecap="round" stroke-linejoin="round"/>
</svg>
