<svg width="20" height="19" viewBox="0 0 20 19" fill="none" xmlns="http://www.w3.org/2000/svg">
<path d="M1.00012 4.09543V14.6878C1.01126 15.5101 1.34576 16.295 1.93122 16.8725C2.51669 17.45 3.30602 17.7738 4.12841 17.7737H15.8718C16.2832 17.7737 16.6906 17.6926 17.0706 17.5349C17.4506 17.3773 17.7958 17.1462 18.0864 16.855C18.3769 16.5637 18.6072 16.218 18.764 15.8377C18.9208 15.4573 19.001 15.0498 19.0001 14.6384V5.26765H2.2359C2.07395 5.26858 1.91341 5.23749 1.76352 5.17615C1.61363 5.11482 1.47734 5.02446 1.3625 4.91027C1.24765 4.79608 1.15651 4.66032 1.09432 4.51078C1.03213 4.36124 1.00012 4.20089 1.00012 4.03893C1.00042 3.73218 1.11481 3.4365 1.32102 3.2094C1.52724 2.9823 1.81055 2.84002 2.11585 2.81022L17.4183 1.35553V5.26765M19.0001 13.4873H15.088C14.4875 13.4544 13.9225 13.1927 13.5091 12.7559C13.0957 12.3192 12.8653 11.7407 12.8653 11.1394C12.8653 10.538 13.0957 9.95949 13.5091 9.52278C13.9225 9.08606 14.4875 8.82433 15.088 8.79138H19.0001V13.4873ZM16.2673 11.1429C16.2673 11.2979 16.2213 11.4495 16.1352 11.5784C16.0491 11.7073 15.9266 11.8077 15.7834 11.8671C15.6402 11.9264 15.4826 11.9419 15.3305 11.9117C15.1785 11.8814 15.0388 11.8068 14.9292 11.6971C14.8196 11.5875 14.7449 11.4479 14.7147 11.2958C14.6844 11.1438 14.6999 10.9862 14.7593 10.8429C14.8186 10.6997 14.9191 10.5773 15.048 10.4912C15.1769 10.405 15.3284 10.3591 15.4834 10.3591C15.6913 10.3591 15.8907 10.4416 16.0377 10.5886C16.1847 10.7356 16.2673 10.935 16.2673 11.1429Z" stroke="#00BB94" stroke-width="1.2" stroke-linecap="round" stroke-linejoin="round"/>
</svg>
