<svg width="36" height="24" viewBox="0 0 36 24" fill="none" xmlns="http://www.w3.org/2000/svg">
<rect width="36" height="24" rx="2" fill="#002F87"/>
<path d="M23.2291 8.06857C23.4272 6.81905 23.2291 5.98095 22.5586 5.20381C21.8119 4.36571 20.471 4 18.7643 4H13.7814C13.431 4 13.1414 4.24381 13.0805 4.59429L11.0081 17.7448C10.9624 17.9733 11.1148 18.1867 11.3433 18.2324C11.3738 18.2324 11.4043 18.2324 11.4348 18.2324H14.5129L14.2995 19.5733C14.2691 19.7714 14.4062 19.9695 14.6043 20C14.6195 20 14.65 20 14.6653 20H17.2557C17.5605 20 17.8195 19.7867 17.8653 19.4819L17.8957 19.3448L18.3833 16.2514L18.4138 16.0838C18.4595 15.779 18.7186 15.5657 19.0233 15.5657H19.4043C21.9186 15.5657 23.8691 14.5448 24.4481 11.6038C24.6919 10.3695 24.57 9.34857 23.93 8.61714C23.7319 8.38857 23.5033 8.20571 23.2291 8.06857Z" fill="#C6D2EA"/>
<path d="M23.2291 8.06857C23.4272 6.81905 23.2291 5.98095 22.5586 5.20381C21.8119 4.36571 20.471 4 18.7643 4H13.7814C13.431 4 13.1414 4.24381 13.0805 4.59429L11.0081 17.7448C10.9624 17.9733 11.1148 18.1867 11.3433 18.2324C11.3738 18.2324 11.4043 18.2324 11.4348 18.2324H14.5129L15.2748 13.341L15.2443 13.4933C15.3053 13.1429 15.5948 12.899 15.9453 12.899H17.4081C20.2729 12.899 22.5129 11.741 23.1833 8.3581C23.1986 8.25143 23.2138 8.16 23.2291 8.06857Z" fill="#DBE6F8"/>
<path d="M16.1129 8.08381C16.1433 7.88571 16.2805 7.70286 16.4633 7.62667C16.5548 7.58095 16.6462 7.56571 16.7376 7.56571H20.6386C21.0653 7.56571 21.4919 7.59619 21.9186 7.65714C22.0253 7.67238 22.1472 7.70286 22.2538 7.7181C22.3605 7.74857 22.4672 7.76381 22.5586 7.79429C22.6043 7.80952 22.6653 7.82476 22.711 7.84C22.8938 7.90095 23.0767 7.97714 23.2443 8.06857C23.4424 6.81905 23.2443 5.98095 22.5738 5.20381C21.8119 4.36571 20.471 4 18.7643 4H13.7814C13.431 4 13.1414 4.24381 13.0805 4.59429L11.0081 17.7448C10.9624 17.9733 11.1148 18.1867 11.3433 18.2324C11.3738 18.2324 11.4043 18.2324 11.4348 18.2324H14.5129L15.2748 13.341L16.1129 8.08381Z" fill="white"/>
</svg>
