<svg width="17" height="16" viewBox="0 0 17 16" fill="none" xmlns="http://www.w3.org/2000/svg">
  <path d="M5.63543 8.25004V4.17428C5.63543 3.95126 5.72403 3.73737 5.88173 3.57967C6.03943 3.42197 6.25332 3.33337 6.47634 3.33337H12.4839C12.7069 3.33337 12.9208 3.42197 13.0785 3.57967C13.2362 3.73737 13.3248 3.95126 13.3248 4.17428V9.69701M2.96875 9.76518C3.85511 9.18943 4.65057 8.75003 5.30208 8.40912C6.1474 7.97645 7.0506 7.66773 7.9839 7.49246H8.28693C8.66572 7.49246 8.94602 7.62882 10.1657 7.697C10.9233 7.74246 11.3475 7.75003 11.4687 8.00761C11.59 8.26518 11.3703 8.61367 11.196 8.81822C10.4384 9.6364 8.62784 9.09852 8.4839 9.57579C8.4839 9.67428 8.4839 9.84094 8.71875 10.1212C9.83239 10.1743 10.59 10.3864 11.7491 10.4394C12.0445 10.3106 12.5066 10.1061 13.0824 9.83337C13.84 9.48488 14.0748 9.34852 14.3475 9.447C14.7415 9.59094 14.9006 10.1212 14.9688 10.4697C14.5307 10.8537 14.0676 11.208 13.5824 11.5303C13.0675 11.8659 12.5281 12.1622 11.9687 12.4167H5.87027L2.96875 11.9697V9.76518Z" stroke="currentColor" stroke-width="1.2" stroke-linecap="round" stroke-linejoin="round" />
</svg>
