<svg width="24" height="30" viewBox="0 0 24 30" fill="none" xmlns="http://www.w3.org/2000/svg">
<ellipse opacity="0.5" cx="11.9683" cy="27.8422" rx="7.30159" ry="1.5873" fill="#FFEB86"/>
<path d="M23.7143 12.1796C23.7143 9.19686 22.5139 6.27134 20.3757 4.15776C19.319 3.11181 18.0627 2.28178 16.679 1.71539C15.2953 1.149 13.8115 0.857422 12.313 0.857422C10.8144 0.857422 9.33059 1.149 7.94689 1.71539C6.5632 2.28178 5.3069 3.11181 4.25023 4.15776L4.19582 4.22202C2.05764 6.3356 0.857178 9.19686 0.857178 12.1796C0.857178 15.1623 2.05764 18.0236 4.19582 20.1372L12.2585 28.159L20.3757 20.1372C22.5139 18.0236 23.7143 15.1623 23.7143 12.1796Z" fill="#1F1A54"/>
<path d="M14.189 5.93652L13.8798 6.2384M10.3824 5.93652L10.6915 6.2384M14.1439 8.71593C13.1198 7.71597 11.4516 7.71597 10.4275 8.71593M14.1439 8.71593C15.168 9.7159 15.168 11.3448 14.1439 12.3385L10.421 15.9735C9.39692 16.9735 7.72872 16.9735 6.70461 15.9735C5.6805 14.9736 5.6805 13.3447 6.70461 12.3447L8.56604 10.5335L10.4275 8.71593M14.1439 8.71593C13.1198 7.70968 11.4516 7.70968 10.4275 8.71593M14.1439 8.71593L17.8669 12.3514C18.891 13.3514 18.891 14.9802 17.8669 15.9802C16.8427 16.9802 15.1745 16.9802 14.1504 15.9802L10.4276 12.3451C9.40345 11.3451 9.40336 9.7159 10.4275 8.71593" stroke="url(#paint0_linear)" stroke-width="1.8" stroke-miterlimit="10" stroke-linecap="round"/>
<defs>
<linearGradient id="paint0_linear" x1="12.2857" y1="5.93652" x2="12.2857" y2="16.7302" gradientUnits="userSpaceOnUse">
<stop stop-color="#FBE100"/>
<stop offset="1" stop-color="#FFD600"/>
</linearGradient>
</defs>
</svg>
