<svg width="28" height="36" viewBox="0 0 28 36" fill="none" xmlns="http://www.w3.org/2000/svg">
<ellipse opacity="0.5" cx="13.4998" cy="33.5" rx="8.5" ry="2.5" fill="#FFEB86"/>
<path d="M28 14.1001C28 10.3855 26.5294 6.74222 23.9102 4.11007C22.6157 2.8075 21.0768 1.77383 19.3817 1.06847C17.6867 0.363117 15.8691 0 14.0333 0C12.1976 0 10.3799 0.363117 8.6849 1.06847C6.98987 1.77383 5.45091 2.8075 4.15649 4.11007L4.08984 4.19009C1.47056 6.82225 0 10.3855 0 14.1001C0 17.8146 1.47056 21.3779 4.08984 24.01L13.9667 34L23.9102 24.01C26.5294 21.3779 28 17.8146 28 14.1001Z" fill="#1F1A54"/>
<path d="M16.6648 6.11133L16.2319 6.53396M11.3355 6.11133L11.7683 6.53396M16.6016 10.0025C15.1679 8.60255 12.8324 8.60255 11.3987 10.0025M16.6016 10.0025C18.0354 11.4025 18.0354 13.6829 16.6016 15.074L11.3896 20.1632C9.95588 21.5631 7.6204 21.5631 6.18664 20.1632C4.75289 18.7632 4.75289 16.4828 6.18664 15.0828L8.79265 12.5471L11.3987 10.0025M16.6016 10.0025C15.1679 8.59375 12.8324 8.59375 11.3987 10.0025M16.6016 10.0025L21.8138 15.0921C23.2475 16.4921 23.2475 18.7725 21.8138 20.1725C20.38 21.5724 18.0446 21.5724 16.6108 20.1725L11.3988 15.0833C9.96503 13.6834 9.9649 11.4025 11.3987 10.0025" stroke="url(#paint0_linear)" stroke-width="1.4" stroke-miterlimit="10" stroke-linecap="round"/>
<defs>
<linearGradient id="paint0_linear" x1="14.0002" y1="6.11133" x2="14.0002" y2="21.2224" gradientUnits="userSpaceOnUse">
<stop stop-color="#FBE100"/>
<stop offset="1" stop-color="#FFD600"/>
</linearGradient>
</defs>
</svg>
