<svg width="56" height="56" viewBox="0 0 56 56" fill="none" xmlns="http://www.w3.org/2000/svg">
<path d="M35.3712 23.2222V23.1558C34.2971 22.0757 33.0201 21.2185 31.6136 20.6336C30.2071 20.0487 28.6989 19.7476 27.1756 19.7476C25.6523 19.7476 24.1441 20.0487 22.7376 20.6336C21.3311 21.2185 20.0541 22.0757 18.98 23.1558L18.9247 23.2222C16.7513 25.4048 15.531 28.3596 15.531 31.4399C15.531 34.5201 16.7513 37.4749 18.9247 39.6576L27.1203 47.9417L35.3712 39.6576C37.5447 37.4749 38.7649 34.5201 38.7649 31.4399C38.7649 28.3596 37.5447 25.4048 35.3712 23.2222Z" fill="#FFD400" stroke="#1F1A54" stroke-width="1.8" stroke-linecap="round" stroke-linejoin="round"/>
<path d="M27.1752 34.4593C28.8611 34.4593 30.2278 33.0877 30.2278 31.3957C30.2278 29.7036 28.8611 28.332 27.1752 28.332C25.4893 28.332 24.1226 29.7036 24.1226 31.3957C24.1226 33.0877 25.4893 34.4593 27.1752 34.4593Z" fill="white" stroke="#1F1A54" stroke-width="1.8" stroke-linecap="round" stroke-linejoin="round"/>
<path d="M8.63229 31.4951C7.06424 31.4147 5.59261 30.7349 4.5386 29.6041C3.48458 28.4733 2.93377 26.9834 3.00636 25.4595C2.93377 23.9355 3.48458 22.4456 4.5386 21.3148C5.59261 20.184 7.06424 19.5042 8.63229 19.4238H28.1764C26.3696 22.9823 23.5913 25.9902 20.1446 28.119C16.698 30.2478 12.7156 31.4157 8.63229 31.4951Z" fill="#FFD400"/>
<path d="M46.8139 31.4951C48.3629 31.3886 49.8076 30.6975 50.839 29.5696C51.8704 28.4417 52.4066 26.9665 52.3331 25.4595C52.4057 23.9355 51.8549 22.4456 50.8009 21.3148C49.7469 20.184 48.2753 19.5042 46.7072 19.4238H27.2698C29.0765 22.9823 31.8549 25.9902 35.3015 28.119C38.7481 30.2478 42.7305 31.4157 46.8139 31.4951Z" fill="#FFD400"/>
<path d="M21.2441 17.3256C21.2441 15.6561 21.9268 14.055 23.1418 12.8745C24.3569 11.694 26.0049 11.0308 27.7233 11.0308C29.4417 11.0308 31.0897 11.694 32.3047 12.8745C33.5198 14.055 34.2024 15.6561 34.2024 17.3256V19.4238H21.2441V17.3256Z" fill="#FFD400"/>
<path d="M23.9372 11.6525C23.661 10.8544 23.2207 10.1191 22.6432 9.49125C22.0658 8.86339 21.363 8.35605 20.5776 8" fill="#FFD400"/>
<path d="M31.003 11.6525C31.2792 10.8544 31.7194 10.1191 32.2969 9.49125C32.8744 8.86339 33.5771 8.35605 34.3625 8" fill="#FFD400"/>
<path d="M8.63229 31.4951L8.58617 32.394L8.61797 32.3956L8.64981 32.395L8.63229 31.4951ZM3.00636 25.4595L3.90535 25.5023L3.90739 25.4595L3.90535 25.4166L3.00636 25.4595ZM8.63229 19.4238V18.5238H8.60922L8.58617 18.5249L8.63229 19.4238ZM28.1764 19.4238L28.9789 19.8312L29.6427 18.5238H28.1764V19.4238ZM46.8139 31.4951L46.7963 32.395L46.836 32.3957L46.8756 32.393L46.8139 31.4951ZM52.3331 25.4595L51.4342 25.4166L51.4321 25.46L51.4342 25.5033L52.3331 25.4595ZM46.7072 19.4238L46.7533 18.5249L46.7303 18.5238H46.7072V19.4238ZM27.2698 19.4238V18.5238H25.8034L26.4673 19.8312L27.2698 19.4238ZM21.2441 17.3256L20.3441 17.3256V17.3256H21.2441ZM27.7233 11.0308V10.1308V11.0308ZM34.2024 17.3256L35.1024 17.3256V17.3256L34.2024 17.3256ZM34.2024 19.4238V20.3238H35.1024V19.4238H34.2024ZM21.2441 19.4238H20.3441V20.3238H21.2441V19.4238ZM23.0867 11.9468C23.2492 12.4166 23.7618 12.6656 24.2315 12.503C24.7012 12.3404 24.9502 11.8279 24.7877 11.3582L23.0867 11.9468ZM20.9492 7.1803C20.4965 6.97507 19.9631 7.17568 19.7579 7.62839C19.5527 8.0811 19.7533 8.61447 20.206 8.8197L20.9492 7.1803ZM30.1525 11.3582C29.9899 11.8279 30.2389 12.3404 30.7086 12.503C31.1784 12.6656 31.6909 12.4166 31.8535 11.9468L30.1525 11.3582ZM34.7341 8.8197C35.1868 8.61447 35.3875 8.0811 35.1822 7.62839C34.977 7.17568 34.4436 6.97507 33.9909 7.1803L34.7341 8.8197ZM8.67841 30.5963C7.33963 30.5276 6.08887 29.9473 5.19695 28.9904L3.88025 30.2178C5.09636 31.5224 6.78886 32.3017 8.58617 32.394L8.67841 30.5963ZM5.19695 28.9904C4.30587 28.0345 3.84446 26.7803 3.90535 25.5023L2.10738 25.4166C2.02307 27.1864 2.66329 28.9122 3.88025 30.2178L5.19695 28.9904ZM3.90535 25.4166C3.84446 24.1386 4.30587 22.8845 5.19695 21.9285L3.88025 20.7012C2.66329 22.0068 2.02307 23.7325 2.10738 25.5023L3.90535 25.4166ZM5.19695 21.9285C6.08887 20.9716 7.33963 20.3913 8.67841 20.3226L8.58617 18.5249C6.78886 18.6172 5.09636 19.3965 3.88025 20.7012L5.19695 21.9285ZM8.63229 20.3238H28.1764V18.5238H8.63229V20.3238ZM27.3739 19.0163C25.6432 22.4251 22.9799 25.31 19.6717 27.3532L20.6176 28.8847C24.2026 26.6704 27.0961 23.5395 28.9789 19.8312L27.3739 19.0163ZM19.6717 27.3532C16.3633 29.3967 12.5384 30.5189 8.61478 30.5953L8.64981 32.395C12.8928 32.3124 17.0327 31.0989 20.6176 28.8847L19.6717 27.3532ZM46.8756 32.393C48.6512 32.2709 50.313 31.4785 51.5031 30.1769L50.1748 28.9622C49.3022 29.9165 48.0746 30.5063 46.7521 30.5973L46.8756 32.393ZM51.5031 30.1769C52.6941 28.8745 53.3174 27.1658 53.2321 25.4156L51.4342 25.5033C51.4959 26.7672 51.0466 28.0088 50.1748 28.9622L51.5031 30.1769ZM53.2321 25.5023C53.3164 23.7325 52.6762 22.0068 51.4592 20.7012L50.1425 21.9285C51.0336 22.8845 51.495 24.1386 51.4342 25.4166L53.2321 25.5023ZM51.4592 20.7012C50.2431 19.3965 48.5506 18.6172 46.7533 18.5249L46.6611 20.3226C47.9999 20.3913 49.2506 20.9716 50.1425 21.9285L51.4592 20.7012ZM46.7072 18.5238H27.2698V20.3238H46.7072V18.5238ZM26.4673 19.8312C28.3501 23.5395 31.2435 26.6704 34.8286 28.8847L35.7745 27.3532C32.4663 25.31 29.803 22.4251 28.0722 19.0163L26.4673 19.8312ZM34.8286 28.8847C38.4134 31.0989 42.5533 32.3124 46.7963 32.395L46.8314 30.5953C42.9077 30.5189 39.0828 29.3967 35.7745 27.3532L34.8286 28.8847ZM22.1441 17.3256C22.1441 15.9033 22.7254 14.5339 23.769 13.52L22.5147 12.229C21.1281 13.5761 20.3441 15.4089 20.3441 17.3256L22.1441 17.3256ZM23.769 13.52C24.8134 12.5053 26.2354 11.9308 27.7233 11.9308V10.1308C25.7745 10.1308 23.9004 10.8827 22.5147 12.229L23.769 13.52ZM27.7233 11.9308C29.2112 11.9308 30.6332 12.5053 31.6776 13.52L32.9319 12.229C31.5462 10.8827 29.6721 10.1308 27.7233 10.1308V11.9308ZM31.6776 13.52C32.7211 14.5339 33.3024 15.9033 33.3024 17.3256L35.1024 17.3256C35.1024 15.4089 34.3185 13.5761 32.9319 12.229L31.6776 13.52ZM33.3024 17.3256V19.4238H35.1024V17.3256H33.3024ZM34.2024 18.5238H21.2441V20.3238H34.2024V18.5238ZM22.1441 19.4238V17.3256H20.3441V19.4238H22.1441ZM24.7877 11.3582C24.4706 10.4421 23.9659 9.59983 23.3057 8.88197L21.9808 10.1005C22.4756 10.6384 22.8513 11.2667 23.0867 11.9468L24.7877 11.3582ZM23.3057 8.88197C22.6454 8.16417 21.8434 7.5857 20.9492 7.1803L20.206 8.8197C20.8825 9.12641 21.4861 9.56261 21.9808 10.1005L23.3057 8.88197ZM31.8535 11.9468C32.0889 11.2667 32.4646 10.6384 32.9593 10.1005L31.6345 8.88197C30.9742 9.59983 30.4695 10.4421 30.1525 11.3582L31.8535 11.9468ZM32.9593 10.1005C33.4541 9.56261 34.0576 9.12641 34.7341 8.8197L33.9909 7.1803C33.0967 7.5857 32.2947 8.16417 31.6345 8.88197L32.9593 10.1005Z" fill="#1F1A54"/>
</svg>
