<svg width="21" height="20" viewBox="0 0 21 20" fill="none" xmlns="http://www.w3.org/2000/svg">
<circle cx="10.5" cy="10" r="10" fill="#00BB94"/>
<path d="M11.7817 10.4908L11.7817 9.33323M11.7817 9.33323L11.7817 8.15747M11.7817 9.33323L10.6059 9.33323M11.7817 9.33323L12.9392 9.33323M11.7817 4.66656C14.2741 4.66656 16.2946 6.68702 16.2946 9.17938C16.2946 11.6717 14.2741 13.6922 11.7817 13.6922C9.28938 13.6922 7.26892 11.6717 7.26892 9.17938C7.26892 6.68702 9.28938 4.66656 11.7817 4.66656Z" stroke="white" stroke-width="1.2" stroke-linecap="round"/>
<path d="M14.4485 12.8717L16.2946 15.3333" stroke="white" stroke-width="1.2" stroke-linecap="round"/>
<path d="M6.03823 10.8204L5.21771 10.8204" stroke="white" stroke-width="1.2" stroke-linecap="round"/>
<path d="M6.03823 5.07685L5.21771 5.07685" stroke="white" stroke-width="1.2" stroke-linecap="round"/>
<path d="M6.03823 7.94861L5.21771 7.94861" stroke="white" stroke-width="1.2" stroke-linecap="round"/>
</svg>
