<svg width="15" height="16" viewBox="0 0 15 16" fill="none" xmlns="http://www.w3.org/2000/svg">
<path fill-rule="evenodd" clip-rule="evenodd" d="M0.859741 5.24481C0.859741 4.87693 1.06173 4.53875 1.38564 4.36434L6.80577 1.44581C7.10175 1.28644 7.45799 1.28644 7.75397 1.44581L13.1741 4.36434C13.498 4.53875 13.7 4.87693 13.7 5.24481V10.9642C13.7 11.3321 13.498 11.6703 13.1741 11.8447L7.75397 14.7632C7.45799 14.9226 7.10175 14.9226 6.80577 14.7632L1.38564 11.8447C1.06173 11.6703 0.859741 11.3321 0.859741 10.9642L0.859741 5.24481Z" stroke="#91919C" stroke-linecap="round"/>
<path d="M1.35364 5.14136L6.8327 7.88089C7.11422 8.02165 7.4456 8.02165 7.72712 7.88089L13.2062 5.14136" stroke="#91919C" stroke-linecap="round"/>
<path d="M7.27983 14.2777V8.10449" stroke="#91919C" stroke-linecap="round"/>
<path d="M6.62494 5.00757L4.32327 6.3344C4.01354 6.51294 3.82269 6.84325 3.82269 7.20076V9.88257" stroke="#91919C" stroke-linecap="round"/>
<path d="M9.62494 11.7576L11.4999 10.6326" stroke="#91919C" stroke-linecap="round"/>
</svg>
