<svg width="13" height="16" viewBox="0 0 13 16" fill="none" xmlns="http://www.w3.org/2000/svg">
<path d="M10.2499 2.91371V2.88194C9.73564 2.36474 9.12418 1.95431 8.45072 1.67425C7.77725 1.39418 7.05507 1.25 6.32569 1.25C5.59632 1.25 4.87413 1.39418 4.20067 1.67425C3.5272 1.95431 2.91574 2.36474 2.40145 2.88194L2.37497 2.91371C1.33428 3.95883 0.75 5.37366 0.75 6.84855C0.75 8.32344 1.33428 9.73827 2.37497 10.7834L6.29921 14.75L10.2499 10.7834C11.2906 9.73827 11.8749 8.32344 11.8749 6.84855C11.8749 5.37366 11.2906 3.95883 10.2499 2.91371Z" stroke="#91919C" stroke-width="1.2" stroke-linecap="round" stroke-linejoin="round"/>
<path d="M6.32569 8.29433C7.13295 8.29433 7.78736 7.63755 7.78736 6.82737C7.78736 6.01719 7.13295 5.36041 6.32569 5.36041C5.51844 5.36041 4.86403 6.01719 4.86403 6.82737C4.86403 7.63755 5.51844 8.29433 6.32569 8.29433Z" stroke="#91919C" stroke-width="1.2" stroke-linecap="round" stroke-linejoin="round"/>
</svg>
