<svg width="24" height="24" viewBox="0 0 24 24" fill="none" xmlns="http://www.w3.org/2000/svg">
<path d="M21.0156 13V8.46719C21.0156 7.72592 20.607 7.04622 19.928 6.74884C18.2718 6.02348 15.0007 4.81013 12.0743 5.03524C9.26637 5.25123 7.7808 7.23029 7.11782 8.47391C6.80701 9.05691 7.02965 9.74452 7.55902 10.1398V10.1398C8.05611 10.511 8.72567 10.5531 9.26534 10.2471L12.5098 8.40736C12.6274 8.34063 12.7753 8.36138 12.87 8.45791L19.8717 15.5903C20.3567 16.0843 20.3786 16.8686 19.922 17.3889V17.3889C19.4443 17.9334 18.6174 17.9922 18.0674 17.5208L14.6145 14.5611" stroke="white" stroke-width="1.2" stroke-linecap="round"/>
<path d="M8.93102 5.98784L4.29342 5.47541C3.70125 5.40998 3.18359 5.87359 3.18359 6.46936V13.4309C3.18359 14.3664 3.50677 15.2741 4.1555 15.9481C5.88826 17.7482 9.54722 21.0553 11.8752 19.6416" stroke="white" stroke-width="1.2" stroke-linecap="round"/>
<path d="M14.6146 14.5615L16.9864 16.6415C17.4817 17.0758 17.5451 17.8238 17.13 18.3353V18.3353C16.6918 18.8753 15.8925 18.9429 15.3698 18.4841L12.7095 16.1492" stroke="white" stroke-width="1.2" stroke-linecap="round"/>
<path d="M12.7095 16.1484L14.3185 17.5563C14.8364 18.0094 14.8981 18.7931 14.4575 19.3218V19.3218C14.0157 19.852 13.2308 19.9313 12.6919 19.5001L10.4868 17.7361" stroke="white" stroke-width="1.2" stroke-linecap="round"/>
</svg>
