<svg width="24" height="24" viewBox="0 0 24 24" fill="none" xmlns="http://www.w3.org/2000/svg">
<path d="M13.9225 12.736L13.9225 10.9996M13.9225 10.9996L13.9225 9.23598M13.9225 10.9996L12.1587 10.9996M13.9225 10.9996L15.6587 10.9996M13.9226 3.99962C17.6611 3.99962 20.6918 7.03031 20.6918 10.7689C20.6918 14.5074 17.6611 17.5381 13.9226 17.5381C10.184 17.5381 7.15333 14.5074 7.15333 10.7689C7.15332 7.03031 10.184 3.99962 13.9226 3.99962Z" stroke="white" stroke-width="1.2" stroke-linecap="round"/>
<path d="M17.9229 16.3077L20.6921 20" stroke="white" stroke-width="1.2" stroke-linecap="round"/>
<path d="M5.30743 13.2304L4.07666 13.2304" stroke="white" stroke-width="1.2" stroke-linecap="round"/>
<path d="M5.30743 4.61516L4.07666 4.61516" stroke="white" stroke-width="1.2" stroke-linecap="round"/>
<path d="M5.30743 8.92285L4.07666 8.92285" stroke="white" stroke-width="1.2" stroke-linecap="round"/>
</svg>
