<svg width="17" height="11" viewBox="0 0 17 11" fill="none" xmlns="http://www.w3.org/2000/svg">
<path d="M3.76363 3.26363V1.75C3.76363 1.19771 4.21135 0.75 4.76363 0.75H8.88182H14.5C15.0523 0.75 15.5 1.19772 15.5 1.75V6.79394C15.5 7.34623 15.0523 7.79394 14.5 7.79394H12.9917M8.88182 6.7856C8.88182 7.75963 8.09221 8.54924 7.11818 8.54924C6.14416 8.54924 5.35455 7.75963 5.35455 6.7856C5.35455 5.81158 6.14416 5.02197 7.11818 5.02197C8.09221 5.02197 8.88182 5.81158 8.88182 6.7856ZM2.25 10.3076H11.9917C12.5439 10.3076 12.9917 9.85986 12.9917 9.30757V4.26363C12.9917 3.71135 12.5439 3.26363 11.9917 3.26363H2.25C1.69772 3.26363 1.25 3.71135 1.25 4.26363V9.30757C1.25 9.85986 1.69771 10.3076 2.25 10.3076Z" stroke="#91919C" stroke-width="1.2" stroke-linecap="round" stroke-linejoin="round"/>
</svg>
