<svg width="18" height="18" viewBox="0 0 18 18" fill="none" xmlns="http://www.w3.org/2000/svg">
<path d="M15.7617 9.75V6.65165C15.7617 5.91038 15.3519 5.22899 14.6682 4.94264C13.362 4.39563 11.0971 3.6194 9.05569 3.77643C6.94978 3.93842 5.8356 5.42271 5.33836 6.35543C5.10526 6.79268 5.27224 7.30839 5.66926 7.60487V7.60487C6.04208 7.88327 6.54425 7.91484 6.94901 7.68532L9.38231 6.30552C9.47057 6.25548 9.58144 6.27103 9.65252 6.34343L14.9038 11.6927C15.2675 12.0632 15.2839 12.6515 14.9415 13.0417V13.0417C14.5832 13.45 13.963 13.4941 13.5506 13.1406L10.9609 10.9208" stroke="#91919C" stroke-width="1.2" stroke-linecap="round"/>
<path d="M6.69827 4.49088L3.49752 4.13721C2.90536 4.07178 2.3877 4.5354 2.3877 5.13116V9.71125C2.3877 10.6467 2.70939 11.5573 3.36998 12.2196C4.74722 13.6006 7.26691 15.7268 8.90639 14.7312" stroke="#91919C" stroke-width="1.2" stroke-linecap="round"/>
<path d="M10.961 10.9209L12.7398 12.4808C13.1113 12.8066 13.1588 13.3676 12.8475 13.7512V13.7512C12.5188 14.1562 11.9194 14.2069 11.5274 13.8629L9.5321 12.1116" stroke="#91919C" stroke-width="1.2" stroke-linecap="round"/>
<path d="M9.53214 12.1116L10.7389 13.1674C11.1273 13.5073 11.1736 14.0951 10.8432 14.4916V14.4916C10.5118 14.8892 9.92311 14.9487 9.51889 14.6253L7.86511 13.3023" stroke="#91919C" stroke-width="1.2" stroke-linecap="round"/>
</svg>
