<svg width="22" height="22" viewBox="0 0 22 22" fill="none" xmlns="http://www.w3.org/2000/svg">
<rect width="22" height="22" rx="11" fill="#3057BA"/>
<path fill-rule="evenodd" clip-rule="evenodd" d="M6.22424 8.98978C6.22424 8.6219 6.42623 8.28372 6.75014 8.10931L10.7436 5.959C11.0396 5.79963 11.3958 5.79963 11.6918 5.959L15.6852 8.10931C16.0091 8.28372 16.2111 8.6219 16.2111 8.98978V13.1727C16.2111 13.5406 16.0091 13.8788 15.6852 14.0532L11.6918 16.2035C11.3958 16.3629 11.0396 16.3629 10.7436 16.2035L6.75014 14.0532C6.42623 13.8788 6.22424 13.5406 6.22424 13.1727V8.98978Z" stroke="white" stroke-linecap="round"/>
<path d="M6.6084 8.77637L10.7705 10.8574C11.052 10.9982 11.3834 10.9982 11.6649 10.8574L15.827 8.77637" stroke="white" stroke-linecap="round"/>
<path d="M11.2176 15.8824V11.0811" stroke="white" stroke-linecap="round"/>
<path d="M10.7083 8.67236L9.02932 9.64022C8.7196 9.81876 8.52875 10.1491 8.52875 10.5066V12.464" stroke="white" stroke-linecap="round"/>
<path d="M13.0416 13.9224L14.5 13.0474" stroke="white" stroke-linecap="round"/>
</svg>
