<svg width="21" height="20" viewBox="0 0 21 20" fill="none" xmlns="http://www.w3.org/2000/svg">
<circle cx="10.5" cy="10" r="10" fill="#EA646C"/>
<path d="M16.5104 10.6666V8.04643C16.5104 7.30516 16.1013 6.62343 15.4153 6.34248C14.2388 5.86062 12.3015 5.22201 10.5494 5.35678C8.67753 5.50078 7.68714 6.82015 7.24515 7.64923C7.03795 8.0379 7.18638 8.49631 7.53929 8.75984V8.75984C7.87068 9.00731 8.31706 9.03537 8.67684 8.83136L10.8398 7.60487C10.9182 7.56038 11.0168 7.57421 11.08 7.63857L15.7478 12.3935C16.0711 12.7228 16.0857 13.2457 15.7813 13.5926V13.5926C15.4628 13.9556 14.9115 13.9947 14.5449 13.6805L12.2429 11.7074" stroke="white" stroke-width="1.2" stroke-linecap="round"/>
<path d="M8.45393 5.99185L5.73214 5.69111C5.13998 5.62568 4.62231 6.08929 4.62231 6.68506V10.4713C4.62231 11.4068 4.94302 12.3189 5.60957 12.9753C6.85478 14.2014 9.00358 15.9525 10.4167 15.0943" stroke="white" stroke-width="1.2" stroke-linecap="round"/>
<path d="M12.243 11.7073L13.8242 13.094C14.1544 13.3835 14.1966 13.8822 13.9199 14.2232V14.2232C13.6278 14.5832 13.0949 14.6282 12.7465 14.3224L10.9729 12.7658" stroke="white" stroke-width="1.2" stroke-linecap="round"/>
<path d="M10.9729 12.7657L12.0456 13.7043C12.3908 14.0064 12.432 14.5288 12.1383 14.8813V14.8813C11.8437 15.2348 11.3205 15.2876 10.9612 15.0002L9.49113 13.8242" stroke="white" stroke-width="1.2" stroke-linecap="round"/>
</svg>
