<svg width="14" height="14" viewBox="0 0 14 14" fill="none" xmlns="http://www.w3.org/2000/svg">
<path d="M1 4.38428C1 3.27971 1.89543 2.38428 3 2.38428H11C12.1046 2.38428 13 3.27971 13 4.38428V10.9997C13 12.1042 12.1046 12.9997 11 12.9997H3C1.89543 12.9997 1 12.1042 1 10.9997V4.38428Z" stroke="#91919C" stroke-width="1.2" stroke-linecap="round"/>
<path d="M1 5.61505H13" stroke="#91919C" stroke-width="1.2" stroke-linecap="round"/>
<path d="M4.43603 1V3.76923" stroke="#91919C" stroke-width="1.2" stroke-linecap="round"/>
<path d="M9.56421 1V3.76923" stroke="#91919C" stroke-width="1.2" stroke-linecap="round"/>
<path d="M4.75405 10.3416C5.44665 10.3416 6.0081 9.78014 6.0081 9.08755H5.0081C5.0081 9.22786 4.89436 9.3416 4.75405 9.3416V10.3416ZM6.0081 9.08755C6.0081 8.39495 5.44665 7.8335 4.75405 7.8335V8.8335C4.89436 8.8335 5.0081 8.94724 5.0081 9.08755H6.0081ZM4.75405 7.8335C4.06146 7.8335 3.5 8.39495 3.5 9.08755H4.5C4.5 8.94724 4.61374 8.8335 4.75405 8.8335V7.8335ZM3.5 9.08755C3.5 9.78014 4.06146 10.3416 4.75405 10.3416V9.3416C4.61374 9.3416 4.5 9.22786 4.5 9.08755H3.5Z" fill="#91919C"/>
</svg>
