<svg width="18" height="18" viewBox="0 0 18 18" fill="none" xmlns="http://www.w3.org/2000/svg">
<path d="M10.442 9.55223L10.442 8.24996M10.442 8.24996L10.442 6.92723M10.442 8.24996L9.11916 8.24996M10.442 8.24996L11.7442 8.24996M10.442 2.99996C13.2459 2.99996 15.519 5.27298 15.519 8.07688C15.519 10.8808 13.2459 13.1538 10.442 13.1538C7.63813 13.1538 5.36512 10.8808 5.36512 8.07689C5.36512 5.27298 7.63813 2.99996 10.442 2.99996Z" stroke="#91919C" stroke-width="1.2" stroke-linecap="round"/>
<path d="M13.4421 12.2308L15.5191 15" stroke="#91919C" stroke-width="1.2" stroke-linecap="round"/>
<path d="M3.98057 9.92304L3.0575 9.92304" stroke="#91919C" stroke-width="1.2" stroke-linecap="round"/>
<path d="M3.98057 3.46161L3.0575 3.46161" stroke="#91919C" stroke-width="1.2" stroke-linecap="round"/>
<path d="M3.98057 6.69238L3.0575 6.69238" stroke="#91919C" stroke-width="1.2" stroke-linecap="round"/>
</svg>
