<svg width="21" height="20" viewBox="0 0 21 20" fill="none" xmlns="http://www.w3.org/2000/svg">
<circle cx="10.5" cy="10" r="10" fill="#3057BA"/>
<path fill-rule="evenodd" clip-rule="evenodd" d="M5.04199 7.61742C5.04199 7.24953 5.24398 6.91136 5.56789 6.73695L10.2747 4.20253C10.5706 4.04315 10.9269 4.04315 11.2229 4.20253L15.9297 6.73695C16.2536 6.91136 16.4556 7.24954 16.4556 7.61742V12.5686C16.4556 12.9365 16.2536 13.2747 15.9297 13.4491L11.2229 15.9835C10.9269 16.1429 10.5706 16.1429 10.2747 15.9835L5.56789 13.4491C5.24398 13.2747 5.04199 12.9365 5.04199 12.5686V7.61742Z" stroke="white" stroke-linecap="round"/>
<path d="M5.48096 7.45898L10.3015 9.86928C10.5831 10.01 10.9144 10.01 11.196 9.86928L16.0166 7.45898" stroke="white" stroke-linecap="round"/>
<path d="M10.7488 15.5801V10.0928" stroke="white" stroke-linecap="round"/>
<path d="M10.1667 7.34033L8.17636 8.48767C7.86663 8.66622 7.67578 8.99653 7.67578 9.35403V11.6737" stroke="white" stroke-linecap="round"/>
<path d="M12.8333 13.3403L14.4999 12.3403" stroke="white" stroke-linecap="round"/>
</svg>
