<svg width="18" height="18" viewBox="0 0 18 18" fill="none" xmlns="http://www.w3.org/2000/svg">
<path d="M15.0634 6.7665L16.4992 4.2833L15.8578 3.63602L14.1219 5.40133L12.7332 4.00085L14.4691 2.23554L13.7159 1.5L11.2915 3.0064C11 3.18767 10.7612 3.44235 10.5991 3.74493C10.4369 4.04752 10.3571 4.38739 10.3677 4.73051L10.403 5.84854L1.96481 14.2691C1.84347 14.3904 1.74721 14.5344 1.68154 14.6929C1.61587 14.8514 1.58206 15.0213 1.58206 15.1929C1.58206 15.3645 1.61587 15.5344 1.68154 15.6929C1.74721 15.8514 1.84347 15.9954 1.96481 16.1167C2.21081 16.3622 2.54411 16.5 2.8916 16.5C3.23908 16.5 3.57238 16.3622 3.81838 16.1167L12.2389 7.69623L13.2569 7.7433C13.6189 7.76356 13.9794 7.68298 14.2984 7.51052C14.6173 7.33807 14.8821 7.08051 15.0634 6.7665Z" stroke="#91919C" stroke-width="1.2" stroke-linecap="round" stroke-linejoin="round"/>
<path d="M14.0042 16.0697L10.7796 12.8804L12.8274 10.8032L16.0697 14.0043C16.2065 14.1404 16.315 14.3023 16.3891 14.4805C16.4632 14.6587 16.5013 14.8498 16.5013 15.0429C16.5013 15.2359 16.4632 15.427 16.3891 15.6052C16.315 15.7835 16.2065 15.9453 16.0697 16.0814C15.7929 16.3512 15.421 16.5012 15.0345 16.499C14.648 16.4968 14.2779 16.3426 14.0042 16.0697Z" stroke="#91919C" stroke-width="1.2" stroke-linecap="round" stroke-linejoin="round"/>
<path d="M8.67892 7.56677L7.5197 8.72011L4.16561 5.37191L2.31204 4.90704L1.5 2.2532L2.19435 1.55884L4.97177 2.2532L5.31895 4.21857L8.67892 7.56677Z" stroke="#91919C" stroke-width="1.2" stroke-linecap="round" stroke-linejoin="round"/>
<path d="M11.2269 12.4214L9.37329 10.5737L10.6443 9.30266L12.4979 11.1504L11.2269 12.4214Z" stroke="#91919C" stroke-width="1.2" stroke-linecap="round" stroke-linejoin="round"/>
</svg>
