<svg width="14" height="14" viewBox="0 0 14 14" fill="none" xmlns="http://www.w3.org/2000/svg">
<path fill-rule="evenodd" clip-rule="evenodd" d="M12.2502 5.25H8.75018V1.75C8.75018 0.7875 7.96268 0 7.00018 0C6.03768 0 5.25018 0.7875 5.25018 1.75V5.25H1.75018C0.787683 5.25 0.000183105 6.0375 0.000183105 7C0.000183105 7.9625 0.787683 8.75 1.75018 8.75H5.25018V12.25C5.25018 13.2125 6.03768 14 7.00018 14C7.96268 14 8.75018 13.2125 8.75018 12.25V8.75H12.2502C13.2127 8.75 14.0002 7.9625 14.0002 7C14.0002 6.0375 13.2127 5.25 12.2502 5.25Z" fill="#1F1A54"/>
</svg>
