<svg width="18" height="18" viewBox="0 0 18 18" fill="none" xmlns="http://www.w3.org/2000/svg">
<path fill-rule="evenodd" clip-rule="evenodd" d="M2.85986 6.24481C2.85986 5.87693 3.06185 5.53875 3.38576 5.36434L8.80589 2.44581C9.10187 2.28644 9.45811 2.28644 9.75409 2.44581L15.1742 5.36434C15.4981 5.53875 15.7001 5.87693 15.7001 6.24481V11.9642C15.7001 12.3321 15.4981 12.6703 15.1742 12.8447L9.75409 15.7632C9.45811 15.9226 9.10187 15.9226 8.80589 15.7632L3.38576 12.8447C3.06185 12.6703 2.85986 12.3321 2.85986 11.9642L2.85986 6.24481Z" stroke="#91919C" stroke-width="1.2" stroke-linecap="round"/>
<path d="M3.35376 6.14136L8.83282 8.88089C9.11435 9.02165 9.44572 9.02165 9.72725 8.88089L15.2063 6.14136" stroke="#91919C" stroke-width="1.2" stroke-linecap="round"/>
<path d="M9.27989 15.2777V9.10449" stroke="#91919C" stroke-width="1.2" stroke-linecap="round"/>
<path d="M8.625 6.00757L6.32333 7.3344C6.0136 7.51294 5.82275 7.84325 5.82275 8.20076V10.8826" stroke="#91919C" stroke-width="1.2" stroke-linecap="round"/>
<path d="M11.625 12.7576L13.5 11.6326" stroke="#91919C" stroke-width="1.2" stroke-linecap="round"/>
</svg>
