<svg width="57" height="56" viewBox="0 0 57 56" fill="none" xmlns="http://www.w3.org/2000/svg">
<rect x="0.602309" y="0.370534" width="40.4032" height="32.315" rx="1.5" transform="matrix(0.97279 -0.231688 0.231829 0.972757 4.43049 16.7422)" fill="white" stroke="#CACBCC"/>
<rect x="8.29785" y="11.8428" width="40.4039" height="32.3144" rx="1.5" fill="white" stroke="#CACBCC"/>
<rect x="13" y="16.8904" width="31" height="22.2191" rx="1.5" stroke="#CACBCC"/>
<mask id="mask0" mask-type="alpha" maskUnits="userSpaceOnUse" x="13" y="17" width="31" height="22">
<rect x="14" y="17.8999" width="29" height="20.2" rx="0.5" fill="white" stroke="#CACBCC"/>
</mask>
<g mask="url(#mask0)">
<path d="M20.9999 28.5046L13.4999 39.6094H28.4999L20.9999 28.5046Z" fill="#FFF5C6" stroke="#CACBCC" stroke-linecap="round" stroke-linejoin="round"/>
<path d="M33.5001 20.4294L22.5001 39.6105H44.5001L33.5001 20.4294Z" fill="#FFF5C6" stroke="#CACBCC" stroke-linecap="round" stroke-linejoin="round"/>
<path d="M24.9999 22.4483C24.9999 23.8492 23.8761 24.9768 22.4999 24.9768C21.1236 24.9768 19.9999 23.8492 19.9999 22.4483C19.9999 21.0473 21.1236 19.9197 22.4999 19.9197C23.8761 19.9197 24.9999 21.0473 24.9999 22.4483Z" fill="#FFF5C6" stroke="#CACBCC"/>
</g>
</svg>
