<svg width="18" height="18" viewBox="0 0 18 18" fill="none" xmlns="http://www.w3.org/2000/svg">
<path d="M2.25 5.80737C2.25 4.7028 3.14543 3.80737 4.25 3.80737H13.7503C14.8549 3.80737 15.7503 4.7028 15.7503 5.80737V13.7499C15.7503 14.8545 14.8549 15.7499 13.7503 15.7499H4.25C3.14543 15.7499 2.25 14.8545 2.25 13.7499V5.80737Z" stroke="#91919C" stroke-width="1.2" stroke-linecap="round"/>
<path d="M2.25 7.44199H15.7503" stroke="#91919C" stroke-width="1.2" stroke-linecap="round"/>
<path d="M6.11561 2.25V5.36545" stroke="#91919C" stroke-width="1.2" stroke-linecap="round"/>
<path d="M11.8849 2.25V5.36545" stroke="#91919C" stroke-width="1.2" stroke-linecap="round"/>
<path d="M6.47339 12.6969C7.21805 12.6969 7.82171 12.0932 7.82171 11.3486H6.82171C6.82171 11.5409 6.66576 11.6969 6.47339 11.6969V12.6969ZM7.82171 11.3486C7.82171 10.6039 7.21805 10.0002 6.47339 10.0002V11.0002C6.66576 11.0002 6.82171 11.1562 6.82171 11.3486H7.82171ZM6.47339 10.0002C5.72873 10.0002 5.12506 10.6039 5.12506 11.3486H6.12506C6.12506 11.1562 6.28101 11.0002 6.47339 11.0002V10.0002ZM5.12506 11.3486C5.12506 12.0932 5.72873 12.6969 6.47339 12.6969V11.6969C6.28101 11.6969 6.12506 11.5409 6.12506 11.3486H5.12506Z" fill="#91919C"/>
<path d="M12.3752 11.5315H9.84391" stroke="#91919C" stroke-width="1.2" stroke-linecap="round"/>
</svg>
