<svg width="24" height="24" viewBox="0 0 24 24" fill="none" xmlns="http://www.w3.org/2000/svg">
<path d="M6.35151 8.35151V6C6.35151 5.44772 6.79923 5 7.35151 5H13.1758H21C21.5523 5 22 5.44772 22 6V13.3919C22 13.9442 21.5523 14.3919 21 14.3919H18.6556M13.1758 13.0475C13.1758 14.3462 12.1229 15.399 10.8242 15.399C9.52554 15.399 8.47273 14.3462 8.47273 13.0475C8.47273 11.7488 9.52554 10.696 10.8242 10.696C12.1229 10.696 13.1758 11.7488 13.1758 13.0475ZM4 17.7434H17.6556C18.2078 17.7434 18.6556 17.2957 18.6556 16.7434V9.35151C18.6556 8.79923 18.2078 8.35151 17.6556 8.35151H4C3.44772 8.35151 3 8.79923 3 9.35151V16.7434C3 17.2957 3.44772 17.7434 4 17.7434Z" stroke="#91919C" stroke-width="1.2" stroke-linecap="round" stroke-linejoin="round"/>
</svg>
