<svg width="18" height="18" viewBox="0 0 18 18" fill="none" xmlns="http://www.w3.org/2000/svg">
<path d="M15.7619 9.75V6.65165C15.7619 5.91038 15.352 5.22899 14.6683 4.94264C13.3622 4.39563 11.0972 3.6194 9.05581 3.77643C6.9499 3.93842 5.83572 5.42271 5.33848 6.35543C5.10538 6.79268 5.27236 7.30839 5.66938 7.60487V7.60487C6.0422 7.88327 6.54438 7.91484 6.94913 7.68532L9.38244 6.30552C9.47069 6.25548 9.58157 6.27103 9.65264 6.34343L14.9039 11.6927C15.2676 12.0632 15.2841 12.6515 14.9416 13.0417V13.0417C14.5833 13.45 13.9632 13.4941 13.5507 13.1406L10.961 10.9208" stroke="#91919C" stroke-width="1.2" stroke-linecap="round"/>
<path d="M6.69827 4.49088L3.49752 4.13721C2.90536 4.07178 2.3877 4.5354 2.3877 5.13116V9.71125C2.3877 10.6467 2.70939 11.5573 3.36998 12.2196C4.74722 13.6006 7.26691 15.7268 8.90639 14.7312" stroke="#91919C" stroke-width="1.2" stroke-linecap="round"/>
<path d="M10.9611 10.9208L12.74 12.4808C13.1114 12.8065 13.1589 13.3676 12.8476 13.7512V13.7512C12.519 14.1562 11.9195 14.2069 11.5275 13.8628L9.53223 12.1116" stroke="#91919C" stroke-width="1.2" stroke-linecap="round"/>
<path d="M9.53226 12.1116L10.739 13.1674C11.1274 13.5073 11.1737 14.0951 10.8433 14.4916V14.4916C10.5119 14.8892 9.92323 14.9487 9.51901 14.6253L7.86523 13.3023" stroke="#91919C" stroke-width="1.2" stroke-linecap="round"/>
</svg>
