<svg width="18" height="18" viewBox="0 0 18 18" fill="none" xmlns="http://www.w3.org/2000/svg">
<path d="M10.4422 9.55223L10.4422 8.24996M10.4422 8.24996L10.4422 6.92723M10.4422 8.24996L9.11929 8.24996M10.4422 8.24996L11.7443 8.24996M10.4422 2.99996C13.2461 2.99996 15.5191 5.27298 15.5191 8.07688C15.5191 10.8808 13.2461 13.1538 10.4422 13.1538C7.63825 13.1538 5.36524 10.8808 5.36524 8.07689C5.36524 5.27298 7.63825 2.99996 10.4422 2.99996Z" stroke="#91919C" stroke-width="1.2" stroke-linecap="round"/>
<path d="M13.4424 12.2308L15.5193 15" stroke="#91919C" stroke-width="1.2" stroke-linecap="round"/>
<path d="M3.98069 9.92304L3.05762 9.92304" stroke="#91919C" stroke-width="1.2" stroke-linecap="round"/>
<path d="M3.98069 3.46155L3.05762 3.46155" stroke="#91919C" stroke-width="1.2" stroke-linecap="round"/>
<path d="M3.98069 6.69232L3.05762 6.69232" stroke="#91919C" stroke-width="1.2" stroke-linecap="round"/>
</svg>
