<svg width="40" height="40" viewBox="0 0 40 40" fill="none" xmlns="http://www.w3.org/2000/svg">
<path d="M1.82006 11.432C1.81711 10.9587 1.94409 10.5021 2.17631 10.1044C2.40852 9.70676 2.74654 9.36755 3.1654 9.12813L18.5215 0.363251C19.3597 -0.115363 20.3965 -0.121272 21.2406 0.34704L36.8106 8.93111C37.6549 9.39975 38.1784 10.2719 38.1845 11.2191V28.5681C38.1879 29.0416 38.0608 29.4979 37.8286 29.8956C37.5965 30.2936 37.2584 30.6328 36.8392 30.872L21.4834 39.6368C20.6448 40.1151 19.6085 40.1216 18.7642 39.6526L3.3011 31.0686C2.45688 30.5999 1.93332 29.7278 1.92724 28.7806L1.82006 11.432Z" fill="#FBE100"/>
</svg>
