<svg width="16" height="16" viewBox="0 0 16 16" fill="none" xmlns="http://www.w3.org/2000/svg">
<path d="M7.99999 11.2241V7.86586H6.8247M6.8247 11.2241H9.16999M14.75 8C14.75 11.7279 11.7279 14.75 8 14.75C4.27208 14.75 1.25 11.7279 1.25 8C1.25 4.27208 4.27208 1.25 8 1.25C11.7279 1.25 14.75 4.27208 14.75 8ZM8.58764 5.06174C8.58764 5.38629 8.32455 5.64939 8 5.64939C7.67545 5.64939 7.41235 5.38629 7.41235 5.06174C7.41235 4.73719 7.67545 4.47409 8 4.47409C8.32455 4.47409 8.58764 4.73719 8.58764 5.06174Z" stroke="#91919C" stroke-width="1.2" stroke-linecap="round" stroke-linejoin="round"/>
</svg>
