<svg width="15" height="16" viewBox="0 0 15 16" fill="none" xmlns="http://www.w3.org/2000/svg">
<path fill-rule="evenodd" clip-rule="evenodd" d="M0.859741 5.24457C0.859741 4.87668 1.06173 4.53851 1.38564 4.3641L6.80577 1.44556C7.10175 1.28619 7.45799 1.28619 7.75397 1.44557L13.1741 4.3641C13.498 4.53851 13.7 4.87668 13.7 5.24457V10.964C13.7 11.3318 13.498 11.67 13.1741 11.8444L7.75397 14.763C7.45799 14.9223 7.10175 14.9223 6.80577 14.763L1.38564 11.8444C1.06173 11.67 0.859741 11.3318 0.859741 10.964L0.859741 5.24457Z" stroke="#91919C" stroke-linecap="round"/>
<path d="M1.35364 5.14111L6.8327 7.88064C7.11422 8.02141 7.4456 8.02141 7.72712 7.88064L13.2062 5.14111" stroke="#91919C" stroke-linecap="round"/>
<path d="M7.27977 14.2777V8.10449" stroke="#91919C" stroke-linecap="round"/>
<path d="M6.625 5.00732L4.32333 6.33415C4.0136 6.5127 3.82275 6.84301 3.82275 7.20051V9.88232" stroke="#91919C" stroke-linecap="round"/>
<path d="M9.625 11.7573L11.5 10.6323" stroke="#91919C" stroke-linecap="round"/>
</svg>
