<svg width="11" height="14" viewBox="0 0 11 14" fill="none" xmlns="http://www.w3.org/2000/svg">
<path d="M2.66009 5.87116V3.78093C2.66009 3.08923 2.93487 2.42585 3.42398 1.93674C3.91309 1.44763 4.57647 1.17285 5.26818 1.17285C5.95988 1.17285 6.62326 1.44763 7.11237 1.93674C7.60148 2.42585 7.87626 3.08923 7.87626 3.78093V5.87116M7.61733 13.1729H2.9096C2.35812 13.1704 1.83008 12.9495 1.441 12.5587C1.05192 12.1679 0.83349 11.6388 0.833496 11.0873V5.87116H9.70286V11.0873C9.70286 11.6404 9.48313 12.1709 9.09202 12.562C8.70091 12.9531 8.17045 13.1729 7.61733 13.1729Z" stroke="#1F1A54" stroke-linecap="round" stroke-linejoin="round"/>
</svg>
