<svg width="16" height="16" viewBox="0 0 16 16" fill="none" xmlns="http://www.w3.org/2000/svg">
<path d="M8 14.0134C11.3137 14.0134 14 11.3271 14 8.01335C14 4.69964 11.3137 2.01335 8 2.01335C4.68629 2.01335 2 4.69964 2 8.01335C2 11.3271 4.68629 14.0134 8 14.0134Z" stroke="#91919C" stroke-width="1.2" stroke-miterlimit="10" stroke-linecap="round" stroke-linejoin="round"/>
<path d="M3.27197 4.32336C3.83597 4.26336 4.41197 4.29336 4.93997 4.43136C5.71997 4.63536 6.49997 5.23536 6.72197 6.03936C6.90797 6.72936 6.70997 7.39536 6.31397 7.97136C5.78597 8.73336 4.90997 9.44136 5.45597 10.4674C5.87597 11.2414 6.72197 11.3374 7.47797 11.5954C8.53997 11.9614 8.90597 12.9154 9.10397 13.9114" stroke="#91919C" stroke-width="1.2" stroke-miterlimit="10" stroke-linecap="round" stroke-linejoin="round"/>
<path d="M12.26 3.78935C11.672 4.13135 11.15 4.59935 10.796 5.13935C9.84801 6.57335 10.544 8.50535 12.362 8.57735C12.8 8.59535 13.244 8.55335 13.682 8.60735C13.778 8.61935 13.874 8.63735 13.964 8.66735" stroke="#91919C" stroke-width="1.2" stroke-miterlimit="10" stroke-linecap="round" stroke-linejoin="round"/>
</svg>
