<svg width="14" height="20" viewBox="0 0 14 20" fill="none" xmlns="http://www.w3.org/2000/svg">
<path d="M6.74203 19.0195V12.5105M10.577 3.3136H2.91401V2.57425C2.91032 2.37082 2.94733 2.1687 3.02286 1.97977C3.09838 1.79084 3.2109 1.6189 3.3538 1.47407C3.49671 1.32923 3.66711 1.21442 3.85501 1.13636C4.04291 1.05831 4.24452 1.01859 4.44798 1.01955H9.04299C9.24619 1.01953 9.44737 1.05988 9.63484 1.13827C9.82231 1.21665 9.99235 1.3315 10.1351 1.47614C10.2778 1.62079 10.3903 1.79235 10.4662 1.98086C10.5421 2.16936 10.5797 2.37107 10.577 2.57425V3.3136ZM9.80997 9.44257H3.681L4.44798 3.32051H9.04299L9.80997 9.44257ZM12.491 12.5105H1V11.7435C1 11.1333 1.24242 10.548 1.67393 10.1165C2.10545 9.68499 2.69071 9.44257 3.30096 9.44257H10.2107C10.821 9.44257 11.4063 9.68499 11.8378 10.1165C12.2693 10.548 12.5117 11.1333 12.5117 11.7435L12.491 12.5105Z" stroke="#FFF5C6" stroke-width="1.2" stroke-linecap="round" stroke-linejoin="round"/>
</svg>
