<svg width="24" height="24" viewBox="0 0 24 24" fill="none" xmlns="http://www.w3.org/2000/svg">
<path d="M17.2197 12.2995L19.9232 9.37011C20.6126 8.66568 20.9987 7.71926 20.9987 6.73362C20.9987 5.74799 20.6126 4.80156 19.9232 4.09714C19.5869 3.75004 19.1843 3.47406 18.7393 3.28559C18.2943 3.09712 17.8159 3 17.3326 3C16.8493 3 16.371 3.09712 15.9259 3.28559C15.4809 3.47406 15.0783 3.75004 14.742 4.09714L10.6902 8.21951C10.0617 8.8654 9.68428 9.71446 9.62605 10.6138C9.56781 11.5132 9.83254 12.4039 10.3726 13.1254C10.4708 13.2542 10.5769 13.3768 10.6902 13.4925M13.1679 10.6478C13.8577 11.3534 14.244 12.301 14.244 13.2878C14.244 14.2746 13.8577 15.2222 13.1679 15.9278L9.25729 19.909C8.91999 20.2543 8.51706 20.5288 8.07217 20.7161C7.62728 20.9035 7.14942 21 6.66668 21C6.18395 21 5.70609 20.9035 5.2612 20.7161C4.81631 20.5288 4.41337 20.2543 4.07608 19.909C3.38625 19.2034 3 18.2558 3 17.269C3 16.2822 3.38625 15.3346 4.07608 14.629L6.70904 11.8901" stroke="#1F1A54" stroke-width="1.2" stroke-linecap="round" stroke-linejoin="round"/>
</svg>
