<svg width="20" height="20" viewBox="0 0 20 20" fill="none" xmlns="http://www.w3.org/2000/svg">
<path d="M11.6913 11.6913L19 19M13.5273 7.26363C13.5273 8.50246 13.1599 9.71347 12.4717 10.7435C11.7834 11.7736 10.8052 12.5764 9.66062 13.0505C8.51609 13.5246 7.25669 13.6486 6.04166 13.4069C4.82664 13.1652 3.71056 12.5687 2.83458 11.6927C1.95859 10.8167 1.36204 9.70063 1.12036 8.48561C0.878673 7.27058 1.00271 6.01117 1.47679 4.86664C1.95087 3.72212 2.7537 2.74387 3.78375 2.05561C4.8138 1.36736 6.02481 1 7.26364 1C8.92485 1 10.518 1.65992 11.6927 2.83458C12.8674 4.00923 13.5273 5.60241 13.5273 7.26363Z" stroke="#1F1A54" stroke-width="1.2" stroke-linecap="round" stroke-linejoin="round"/>
</svg>
