<svg width="16" height="16" viewBox="0 0 16 16" fill="none" xmlns="http://www.w3.org/2000/svg">
<path d="M9.1275 9.1275L14 14M10.3515 6.17576C10.3515 7.00164 10.1066 7.80898 9.64777 8.49568C9.18893 9.18238 8.53677 9.7176 7.77375 10.0337C7.01073 10.3497 6.17112 10.4324 5.36111 10.2713C4.55109 10.1102 3.80704 9.71245 3.22305 9.12846C2.63906 8.54447 2.24136 7.80042 2.08024 6.9904C1.91912 6.18039 2.00181 5.34078 2.31786 4.57776C2.63392 3.81474 3.16913 3.16258 3.85583 2.70374C4.54253 2.2449 5.34987 2 6.17576 2C7.28324 2 8.34536 2.43994 9.12846 3.22305C9.91157 4.00616 10.3515 5.06828 10.3515 6.17576Z" stroke="#91919C" stroke-width="1.2" stroke-linecap="round" stroke-linejoin="round"/>
</svg>
