<svg width="20" height="20" viewBox="0 0 20 20" fill="none" xmlns="http://www.w3.org/2000/svg">
<path fill-rule="evenodd" clip-rule="evenodd" d="M3.17749 6.87225C3.17749 6.50437 3.37948 6.16619 3.70339 5.99178L9.83687 2.68914C10.1328 2.52977 10.4891 2.52977 10.7851 2.68914L16.9185 5.99178C17.2425 6.16619 17.4444 6.50437 17.4444 6.87225V13.3599C17.4444 13.7278 17.2425 14.0659 16.9185 14.2403L10.7851 17.543C10.4891 17.7024 10.1328 17.7024 9.83687 17.543L3.70339 14.2403C3.37948 14.0659 3.17749 13.7278 3.17749 13.3599L3.17749 6.87225Z" stroke="#3057BA" stroke-width="1.2" stroke-linecap="round"/>
<path d="M3.72626 6.8237L9.86379 9.89247C10.1453 10.0332 10.4767 10.0332 10.7582 9.89247L16.8958 6.8237" stroke="#3057BA" stroke-width="1.2" stroke-linecap="round"/>
<path d="M10.3109 16.9752V10.1161" stroke="#3057BA" stroke-width="1.2" stroke-linecap="round"/>
<path d="M9.58327 6.67502L6.97024 8.18134C6.66052 8.35988 6.46967 8.69019 6.46967 9.04769V12.0917" stroke="#3057BA" stroke-width="1.2" stroke-linecap="round"/>
<path d="M12.9166 14.175L15 12.925" stroke="#3057BA" stroke-width="1.2" stroke-linecap="round"/>
</svg>
