<svg width="20" height="20" viewBox="0 0 20 20" fill="none" xmlns="http://www.w3.org/2000/svg">
<path d="M17.5131 10.8333V7.25682C17.5131 6.51555 17.104 5.83502 16.4221 5.54428C14.9936 4.93517 12.3962 4.01647 10.0619 4.19603C7.722 4.37602 6.48402 6.02523 5.93154 7.06159C5.67254 7.54742 5.85807 8.12043 6.29921 8.44985V8.44985C6.71345 8.75918 7.27142 8.79426 7.72114 8.53924L10.4248 7.00613C10.5229 6.95052 10.6461 6.96781 10.725 7.04825L16.5598 12.9919C16.9639 13.4036 16.9822 14.0572 16.6017 14.4908V14.4908C16.2036 14.9445 15.5145 14.9935 15.0562 14.6006L12.1788 12.1342" stroke="#EA646C" stroke-width="1.2" stroke-linecap="round"/>
<path d="M7.44251 4.98984L3.76282 4.58326C3.17066 4.51783 2.65299 4.98144 2.65299 5.57721V10.9511C2.65299 11.8866 2.97589 12.7966 3.63176 13.4636C5.13371 14.9911 8.02867 17.5019 9.89598 16.3679" stroke="#EA646C" stroke-width="1.2" stroke-linecap="round"/>
<path d="M12.1789 12.1342L14.1554 13.8675C14.5681 14.2294 14.6209 14.8528 14.275 15.2791V15.2791C13.9098 15.7291 13.2438 15.7854 12.8082 15.4031L10.5912 13.4573" stroke="#EA646C" stroke-width="1.2" stroke-linecap="round"/>
<path d="M10.5913 13.4573L11.9321 14.6305C12.3637 15.0081 12.4151 15.6611 12.048 16.1017V16.1017C11.6797 16.5436 11.0257 16.6096 10.5765 16.2503L8.73901 14.7803" stroke="#EA646C" stroke-width="1.2" stroke-linecap="round"/>
</svg>
