<svg width="24" height="24" viewBox="0 0 24 24" fill="none" xmlns="http://www.w3.org/2000/svg">
<path d="M14.7527 4.00952L14.2892 4.45674M9.04602 4.00952L9.50951 4.45674M14.6851 8.12711C13.1498 6.6457 10.6489 6.6457 9.11363 8.12711M14.6851 8.12711C16.2204 9.60852 16.2204 12.0216 14.6851 13.4937L9.10398 18.879C7.56869 20.3604 5.0678 20.3604 3.53251 18.879C1.99722 17.3976 1.99722 14.9845 3.53251 13.503L6.32307 10.8197L9.11363 8.12711M14.6851 8.12711C13.1498 6.63638 10.6489 6.63638 9.11363 8.12711M14.6851 8.12711L20.2664 13.5129C21.8017 14.9943 21.8017 17.4074 20.2664 18.8888C18.7311 20.3703 16.2302 20.3703 14.6949 18.8888L9.11377 13.5036C7.57848 12.0222 7.57834 9.60852 9.11363 8.12711" stroke="#91919C" stroke-width="1.8" stroke-miterlimit="10" stroke-linecap="round"/>
</svg>
