<svg width="24" height="24" viewBox="0 0 24 24" fill="none" xmlns="http://www.w3.org/2000/svg">
<path fill-rule="evenodd" clip-rule="evenodd" d="M6.1244 7.51449C4.72707 9.04641 3.96755 11.0542 4.00106 13.1274C4.03458 15.2006 4.8586 17.1827 6.30472 18.6687C7.01832 19.4079 7.87385 19.9955 8.82001 20.3961C9.76618 20.7967 10.7835 21.0021 11.811 21C12.8413 21.0021 13.8615 20.7968 14.8108 20.3963C15.7602 19.9957 16.6191 19.4082 17.3366 18.6687C18.8122 17.1525 19.6378 15.1203 19.6378 13.0046C19.6378 10.8889 18.8122 8.85676 17.3366 7.3406L13.0861 3C12.6546 6.52916 12.7834 10.8118 9.63423 10.8054C7.7795 10.8054 7.05821 9.30482 6.1244 7.51449Z" stroke="#CACBCC" stroke-width="1.2" stroke-linecap="round" stroke-linejoin="round"/>
</svg>
