<svg width="18" height="18" viewBox="0 0 18 18" fill="none" xmlns="http://www.w3.org/2000/svg">
  <path d="M14.9075 8.72868V12.9462C14.9075 13.5424 14.6706 14.1143 14.249 14.536C13.8274 14.9576 13.2555 15.1945 12.6592 15.1945H5.34586C5.05019 15.1951 4.75728 15.1375 4.48392 15.0248C4.21055 14.9121 3.9621 14.7466 3.75279 14.5378C3.54348 14.3289 3.37741 14.0808 3.26411 13.8077C3.1508 13.5346 3.09248 13.2418 3.09248 12.9462V8.72868M14.6284 2.25781H3.39192C3.39192 2.25781 2.25 7.06909 2.25 7.32285C2.27368 7.7544 2.46179 8.16048 2.77566 8.4576C3.08953 8.75473 3.5053 8.92031 3.9375 8.92031C4.3697 8.92031 4.78547 8.75473 5.09934 8.4576C5.41321 8.16048 5.60132 7.7544 5.625 7.32285C5.64868 7.7544 5.83679 8.16048 6.15066 8.4576C6.46452 8.75473 6.8803 8.92031 7.3125 8.92031C7.7447 8.92031 8.16047 8.75473 8.47434 8.4576C8.78821 8.16048 8.97632 7.7544 9 7.32285C9.02368 7.7544 9.21179 8.16048 9.52566 8.4576C9.83953 8.75473 10.2553 8.92031 10.6875 8.92031C11.1197 8.92031 11.5355 8.75473 11.8493 8.4576C12.1632 8.16048 12.3513 7.7544 12.375 7.32285C12.3987 7.7544 12.5868 8.16048 12.9007 8.4576C13.2145 8.75473 13.6303 8.92031 14.0625 8.92031C14.4947 8.92031 14.9105 8.75473 15.2243 8.4576C15.5382 8.16048 15.7263 7.7544 15.75 7.32285C15.75 7.06909 14.6284 2.25781 14.6284 2.25781ZM7.87331 11.8195H10.1216V15.1945H7.87331V11.8195Z" stroke="currentColor" stroke-width="1.2" stroke-linecap="round" stroke-linejoin="round" />
</svg>
