<svg width="16" height="16" viewBox="0 0 16 16" fill="none" xmlns="http://www.w3.org/2000/svg">
<path d="M6.96552 3.6108V3.10961C6.95597 2.9675 6.97571 2.82494 7.0235 2.69077C7.0713 2.55661 7.14614 2.43369 7.24339 2.32966C7.34063 2.22562 7.4582 2.14267 7.58881 2.08597C7.71942 2.02926 7.86028 2 8.00266 2C8.14504 2 8.2859 2.02926 8.41651 2.08597C8.54712 2.14267 8.66469 2.22562 8.76193 2.32966C8.85918 2.43369 8.93402 2.55661 8.98181 2.69077C9.02961 2.82494 9.04935 2.9675 9.0398 3.10961V3.62485M10.3368 3.6108V4.65066C10.3368 4.78855 10.282 4.9208 10.1846 5.0183C10.0871 5.11581 9.95491 5.17059 9.81706 5.17059H6.18826C6.05041 5.17059 5.91821 5.11581 5.82074 5.0183C5.72327 4.9208 5.66852 4.78855 5.66852 4.65066V3.6108M4.33203 14H11.6733C12.2256 14 12.6733 13.5523 12.6733 13V4.61548C12.6733 4.0632 12.2256 3.61548 11.6733 3.61548H4.33203C3.77975 3.61548 3.33203 4.0632 3.33203 4.61548V13C3.33203 13.5523 3.77975 14 4.33203 14Z" stroke="#A8AAB7" stroke-width="1.2" stroke-linecap="round" stroke-linejoin="round"/>
<path d="M5.99805 8.08552H10.1676M5.99805 10.4667H9.12755" stroke="#91919C" stroke-width="1.2" stroke-linecap="round" stroke-linejoin="round"/>
</svg>
