<svg width="18" height="20" viewBox="0 0 18 20" fill="none" xmlns="http://www.w3.org/2000/svg">
<path d="M15.0658 3.34078L14.4383 16.0317C14.3968 16.8323 14.0497 17.5865 13.4686 18.1387C12.8874 18.691 12.1166 18.9993 11.3149 19H6.3161C5.50642 19.0004 4.72836 18.6857 4.14669 18.1224C3.56503 17.5592 3.22541 16.7916 3.19976 15.9824L2.58637 3.34078M1 3.34078H16.631M6.66862 6.47121L7.0564 15.0658M10.9624 6.47121L10.5746 15.0658M5.6886 3.34078L6.11163 2.07168C6.21635 1.75989 6.41621 1.48879 6.68308 1.29655C6.94995 1.1043 7.27039 1.00058 7.59929 1H10.0317C10.3606 1.00058 10.6811 1.1043 10.9479 1.29655C11.2148 1.48879 11.4147 1.75989 11.5194 2.07168L11.9424 3.34078" stroke="white" stroke-width="1.2" stroke-linecap="round" stroke-linejoin="round"/>
</svg>
