<svg width="24" height="24" viewBox="0 0 24 24" fill="none" xmlns="http://www.w3.org/2000/svg">
<path d="M18.0658 5.34078L17.4383 18.0317C17.3968 18.8323 17.0497 19.5865 16.4686 20.1387C15.8874 20.691 15.1166 20.9993 14.3149 21H9.3161C8.50642 21.0004 7.72836 20.6857 7.14669 20.1224C6.56503 19.5592 6.22541 18.7916 6.19976 17.9824L5.58637 5.34078M4 5.34078H19.631M9.66862 8.47121L10.0564 17.0658M13.9624 8.47121L13.5746 17.0658M8.6886 5.34078L9.11163 4.07168C9.21635 3.75989 9.41621 3.48879 9.68308 3.29655C9.94995 3.1043 10.2704 3.00058 10.5993 3H13.0317C13.3606 3.00058 13.6811 3.1043 13.9479 3.29655C14.2148 3.48879 14.4147 3.75989 14.5194 4.07168L14.9424 5.34078" stroke="#EF5350" stroke-width="1.2" stroke-linecap="round" stroke-linejoin="round"/>
</svg>
