<svg width="18" height="18" viewBox="0 0 18 18" fill="none" xmlns="http://www.w3.org/2000/svg">
  <path fill-rule="evenodd" clip-rule="evenodd" d="M5.36531 15.7502C6.2256 15.7502 6.923 15.0527 6.923 14.1925C6.923 13.3322 6.2256 12.6348 5.36531 12.6348C4.50502 12.6348 3.80762 13.3322 3.80762 14.1925C3.80762 15.0527 4.50502 15.7502 5.36531 15.7502Z" stroke="currentColor" stroke-width="1.2" stroke-linecap="round" />
  <path fill-rule="evenodd" clip-rule="evenodd" d="M12.6346 15.7502C13.4949 15.7502 14.1923 15.0527 14.1923 14.1925C14.1923 13.3322 13.4949 12.6348 12.6346 12.6348C11.7743 12.6348 11.0769 13.3322 11.0769 14.1925C11.0769 15.0527 11.7743 15.7502 12.6346 15.7502Z" stroke="currentColor" stroke-width="1.2" stroke-linecap="round" />
  <path d="M12.1152 6.40393H14.0344C14.4433 6.40393 14.811 6.65288 14.9628 7.03254L15.6068 8.64247C15.7013 8.87871 15.7498 9.13081 15.7498 9.38525V12.1155C15.7498 12.9758 15.0524 13.6732 14.1922 13.6732V13.6732" stroke="currentColor" stroke-width="1.2" stroke-linecap="round" />
  <path d="M2.25 10.5577V4.25C2.25 3.14543 3.14543 2.25 4.25 2.25H10.1154C11.22 2.25 12.1154 3.14543 12.1154 4.25V7.55769C12.1154 9.21455 10.7722 10.5577 9.11538 10.5577H2.25ZM2.25 10.5577V12.1154C2.25 12.9757 2.9474 13.6731 3.80769 13.6731V13.6731" stroke="currentColor" stroke-width="1.2" stroke-linecap="round" />
  <path d="M6.92307 13.6731H11.0769" stroke="currentColor" stroke-width="1.2" stroke-linecap="round" />
</svg>
