<svg width="32" height="32" viewBox="0 0 32 32" fill="none" xmlns="http://www.w3.org/2000/svg">
<g clip-path="url(#clip0)">
<path d="M11.8194 13.9944C11.8194 13.4535 11.6045 12.9348 11.2221 12.5524C10.8396 12.1699 10.3209 11.9551 9.78005 11.9551C9.23919 11.9551 8.72048 12.1699 8.33803 12.5524C7.95558 12.9348 7.74072 13.4535 7.74072 13.9944C7.74072 14.2187 7.97525 15.3404 7.97525 15.3404C8.0087 15.807 8.20987 16.2458 8.54161 16.5756C8.87335 16.9055 9.31324 17.1042 9.78005 17.135C10.2479 17.1044 10.6891 16.9061 11.0225 16.5764C11.3559 16.2468 11.5592 15.8079 11.5951 15.3404C11.5951 15.3404 11.8092 14.1779 11.8194 13.9944Z" fill="#FFD400"/>
<path d="M14.7253 21.8545H4.84473L5.05886 20.1006C5.13517 19.8321 5.28911 19.592 5.50135 19.4106C5.71359 19.2292 5.97469 19.1145 6.25186 19.081L9.75951 18.459L13.2774 19.081C13.5536 19.1171 13.8135 19.2327 14.0253 19.4137C14.2371 19.5947 14.3917 19.8334 14.4704 20.1006L14.7253 21.8545Z" fill="#FFD400"/>
<path d="M2.50977 9.24181L2.50977 24.598C2.50977 25.5891 3.31324 26.3926 4.30438 26.3926H27.6955C28.6866 26.3926 29.4901 25.5891 29.4901 24.598V9.24181C29.4901 8.25068 28.6866 7.4472 27.6955 7.4472H4.30438C3.31324 7.4472 2.50977 8.25068 2.50977 9.24181Z" stroke="#1F1A54" stroke-miterlimit="10"/>
<path d="M18.9161 5H13.0837C12.4755 5 11.9824 5.49304 11.9824 6.10124V8.16096C11.9824 8.76916 12.4755 9.2622 13.0837 9.2622H18.9161C19.5243 9.2622 20.0174 8.76916 20.0174 8.16096V6.10124C20.0174 5.49304 19.5243 5 18.9161 5Z" fill="#FFD400"/>
<path d="M16.938 13.2695H24.0552" stroke="#1F1A54" stroke-linecap="round" stroke-linejoin="round"/>
<path d="M16.938 20.998H24.0552" stroke="#1F1A54" stroke-linecap="round" stroke-linejoin="round"/>
<path d="M16.938 16.9922H26.3699" stroke="#1F1A54" stroke-linecap="round" stroke-linejoin="round"/>
</g>
<defs>
<clipPath id="clip0">
<rect width="28" height="21.9024" fill="white" transform="translate(2 5)"/>
</clipPath>
</defs>
</svg>
