<svg width="20" height="20" viewBox="0 0 20 20" fill="none" xmlns="http://www.w3.org/2000/svg">
<path d="M3.35059 16.0635V15.7953C3.37359 15.2127 3.5968 14.6559 3.98256 14.2187C4.36832 13.7815 4.89304 13.4907 5.46824 13.3953L10 12.5412L14.5882 13.3882C15.76 13.7553 16.7059 14.5741 16.7059 15.7953V16.0635M19 10C19 14.9706 14.9706 19 10 19C5.02944 19 1 14.9706 1 10C1 5.02944 5.02944 1 10 1C14.9706 1 19 5.02944 19 10ZM12.7318 6.11765C12.7414 5.7553 12.6774 5.39477 12.5438 5.05782C12.4102 4.72088 12.2097 4.41451 11.9544 4.15721C11.6991 3.89992 11.3942 3.69704 11.0583 3.56083C10.7224 3.42462 10.3624 3.3579 10 3.36471C9.63701 3.35693 9.27621 3.42294 8.93948 3.55872C8.60274 3.69449 8.29708 3.89722 8.041 4.15462C7.78493 4.41201 7.58378 4.71871 7.44973 5.05614C7.31569 5.39357 7.25154 5.7547 7.26118 6.11765C7.26118 6.42824 7.56471 7.95294 7.56471 7.95294C7.80471 9.28 8.65882 10.4024 10 10.4024C11.3412 10.4024 12.1741 9.30118 12.4282 7.95294C12.4282 7.93882 12.7176 6.41412 12.7318 6.11765Z" stroke="#91919C" stroke-width="1.2" stroke-linecap="round" stroke-linejoin="round"/>
</svg>
