<svg width="16" height="16" viewBox="0 0 16 16" fill="none" xmlns="http://www.w3.org/2000/svg">
  <path d="M10.6969 9.72903L12.8711 9.99137C13.1301 10.0074 13.3758 10.1116 13.5675 10.2865C13.7591 10.4615 13.8851 10.6968 13.9245 10.9533L14 12.3723H11.468M7.71978 5.63893C7.72358 5.42215 7.68355 5.20684 7.6021 5.00592C7.52064 4.80499 7.39944 4.62258 7.24576 4.46965C7.09208 4.31671 6.90909 4.19639 6.70777 4.11591C6.50645 4.03544 6.29095 3.99645 6.0742 4.0013C5.85604 3.99247 5.6384 4.02866 5.43484 4.10762C5.23128 4.18658 5.04617 4.30662 4.89104 4.46026C4.73591 4.6139 4.61408 4.79785 4.53316 5.00063C4.45223 5.20342 4.41394 5.4207 4.42067 5.63893C4.42067 5.82177 4.60351 6.73201 4.60351 6.73201C4.7466 7.51902 5.27923 8.18679 6.0742 8.18679C6.86916 8.18679 7.38986 7.53095 7.54091 6.73201C7.53693 6.73201 7.71183 5.82177 7.71978 5.63893ZM10.1404 12.3723H2L2.13912 10.7824C2.21464 10.1822 2.81484 9.76878 3.43491 9.64953L6.0742 9.3077L8.73733 9.66543C9.42498 9.78865 10.0053 10.1702 10.053 10.8579L10.1404 12.3723ZM12.0364 6.72803C12.0364 6.37804 11.8974 6.04239 11.6499 5.79491C11.4024 5.54742 11.0668 5.40839 10.7168 5.40839C10.3668 5.40839 10.0311 5.54742 9.78367 5.79491C9.53618 6.04239 9.39715 6.37804 9.39715 6.72803C9.39715 6.87113 9.54422 7.5866 9.54422 7.5866C9.56765 7.88789 9.69926 8.17054 9.91477 8.3824C10.1303 8.59426 10.4151 8.72102 10.7168 8.7393C11.3647 8.7393 11.7661 8.21859 11.8894 7.5866C11.8695 7.5866 12.0086 6.88305 12.0364 6.72803Z" stroke="currentColor" stroke-width="0.8" stroke-linecap="round" stroke-linejoin="round" />
</svg>
