<svg width="24" height="25" viewBox="0 0 24 25" fill="none" xmlns="http://www.w3.org/2000/svg">
  <path d="M15.7168 7.05406C15.7295 6.5632 15.642 6.07491 15.4597 5.61897C15.2775 5.16302 15.0042 4.74899 14.6567 4.40211C14.3092 4.05524 13.8946 3.78279 13.4383 3.6014C12.982 3.42001 12.4936 3.33347 12.0027 3.34706C11.5116 3.33244 11.0227 3.41828 10.566 3.59931C10.1092 3.78034 9.69424 4.05275 9.3465 4.39984C8.99875 4.74692 8.72556 5.16137 8.54366 5.61778C8.36176 6.07418 8.27499 6.56293 8.28866 7.05406C8.28866 7.47066 8.6982 9.50422 8.6982 9.50422C9.023 11.2765 10.181 12.7734 12.0027 12.7734C13.8245 12.7734 14.9613 11.2906 15.3002 9.46891C15.3002 9.46891 15.6956 7.43535 15.7168 7.05406Z" stroke="currentColor" stroke-width="1.2" stroke-linecap="round" stroke-linejoin="round" />
  <path d="M20.9984 21.3455H3L3.43072 18.1398C3.56181 17.6414 3.83892 17.1936 4.22645 16.8538C4.61398 16.5141 5.09423 16.298 5.6055 16.2333L12.0027 15.1036L18.3929 16.2333C18.9063 16.2981 19.3883 16.516 19.7762 16.8585C20.1641 17.2011 20.4399 17.6524 20.5677 18.1539L20.9984 21.3455Z" stroke="currentColor" stroke-width="1.2" stroke-linecap="round" stroke-linejoin="round" />
</svg>
