<svg width="24" height="24" viewBox="0 0 24 24" fill="none" xmlns="http://www.w3.org/2000/svg">
  <path d="M15.7168 6.7086C15.7295 6.21774 15.642 5.72945 15.4597 5.27351C15.2775 4.81756 15.0042 4.40353 14.6567 4.05665C14.3092 3.70978 13.8946 3.43733 13.4383 3.25594C12.982 3.07455 12.4936 2.98801 12.0027 3.0016C11.5116 2.98698 11.0227 3.07282 10.566 3.25385C10.1092 3.43489 9.69424 3.70729 9.3465 4.05438C8.99875 4.40146 8.72556 4.81591 8.54366 5.27232C8.36176 5.72873 8.27499 6.21747 8.28866 6.7086C8.28866 7.1252 8.6982 9.15876 8.6982 9.15876C9.023 10.9311 10.181 12.428 12.0027 12.428C13.8245 12.428 14.9613 10.9452 15.3002 9.12345C15.3002 9.12345 15.6956 7.0899 15.7168 6.7086Z" stroke="currentColor" stroke-width="1.8" stroke-linecap="round" stroke-linejoin="round" />
  <path d="M20.9984 21H3L3.43072 17.7943C3.56181 17.2959 3.83892 16.8481 4.22645 16.5084C4.61398 16.1687 5.09423 15.9526 5.6055 15.8879L12.0027 14.7581L18.3929 15.8879C18.9063 15.9526 19.3883 16.1705 19.7762 16.513C20.1641 16.8556 20.4399 17.307 20.5677 17.8084L20.9984 21Z" stroke="currentColor" stroke-width="1.8" stroke-linecap="round" stroke-linejoin="round" />
</svg>
