<svg width="24" height="27" viewBox="0 0 24 27" fill="none" xmlns="http://www.w3.org/2000/svg">
<path d="M16.0454 16.0198L19.3067 16.4518C19.6952 16.4782 20.0638 16.6497 20.3512 16.9378C20.6386 17.2259 20.8276 17.6133 20.8867 18.0357L21 20.3722H17.2021M11.5797 9.28508C11.5854 8.92814 11.5253 8.57361 11.4031 8.24276C11.281 7.91191 11.0992 7.61157 10.8686 7.35975C10.6381 7.10792 10.3636 6.90981 10.0617 6.77729C9.75968 6.64477 9.43643 6.58058 9.11129 6.58857C8.78406 6.57402 8.4576 6.63361 8.15226 6.76363C7.84692 6.89365 7.56925 7.09131 7.33656 7.34429C7.10386 7.59727 6.92112 7.90016 6.79973 8.23406C6.67835 8.56797 6.62091 8.92574 6.631 9.28508C6.631 9.58615 6.90527 11.0849 6.90527 11.0849C7.11991 12.3808 7.91885 13.4804 9.11129 13.4804C10.3037 13.4804 11.0848 12.4005 11.3114 11.0849C11.3054 11.0849 11.5677 9.58615 11.5797 9.28508ZM15.2107 20.3722H3L3.20868 17.7542C3.32196 16.7659 4.22226 16.0853 5.15237 15.8889L9.11129 15.3261L13.106 15.9151C14.1375 16.118 15.0079 16.7463 15.0795 17.8786L15.2107 20.3722ZM18.0547 11.0784C18.0547 10.5021 17.8461 9.94941 17.4749 9.54191C17.1037 9.13441 16.6002 8.90548 16.0752 8.90548C15.5502 8.90548 15.0467 9.13441 14.6755 9.54191C14.3043 9.94941 14.0957 10.5021 14.0957 11.0784C14.0957 11.314 14.3163 12.4921 14.3163 12.4921C14.3515 12.9882 14.5489 13.4536 14.8722 13.8025C15.1954 14.1513 15.6227 14.36 16.0752 14.3901C17.047 14.3901 17.6492 13.5327 17.834 12.4921C17.8042 12.4921 18.0129 11.3336 18.0547 11.0784Z" stroke="#91919C" stroke-width="1.2" stroke-linecap="round" stroke-linejoin="round"/>
</svg>
