<svg width="32" height="32" viewBox="0 0 32 32" fill="none" xmlns="http://www.w3.org/2000/svg">
<g clip-path="url(#clip0)">
<path d="M17.6369 2.48242H5.18173C4.24323 2.48242 3.48242 3.24323 3.48242 4.18173V27.8176C3.48242 28.7561 4.24323 29.5169 5.18173 29.5169H17.6369C18.5754 29.5169 19.3362 28.7561 19.3362 27.8176V4.18173C19.3362 3.24323 18.5754 2.48242 17.6369 2.48242Z" stroke="#1F1A54" stroke-miterlimit="10"/>
<path d="M3.11572 24.8535H18.9695" stroke="#1F1A54" stroke-miterlimit="10"/>
<path d="M14.9144 20.7593C14.7889 20.7609 14.6642 20.7379 14.5475 20.6918C14.373 20.6178 14.2241 20.4942 14.1193 20.3362C14.0146 20.1783 13.9587 19.993 13.9585 19.8035V17.94H12.0951C11.3448 17.94 10.6252 17.642 10.0947 17.1114C9.56416 16.5809 9.26611 15.8613 9.26611 15.1111V8.53589C9.26611 7.78471 9.56385 7.06415 10.0941 6.53208C10.6244 6.00002 11.3439 5.69982 12.0951 5.69727H24.3089C25.06 5.69982 25.7796 6.00002 26.3098 6.53208C26.8401 7.06415 27.1378 7.78471 27.1378 8.53589V15.1111C27.1378 15.4826 27.0647 15.8504 26.9225 16.1937C26.7803 16.5369 26.5719 16.8487 26.3093 17.1114C26.0466 17.3741 25.7347 17.5825 25.3915 17.7247C25.0482 17.8669 24.6804 17.94 24.3089 17.94H18.1296L15.5516 20.4793C15.3814 20.6487 15.1542 20.7485 14.9144 20.7593Z" fill="#FFD400"/>
<path d="M24.3088 6.18036C24.6178 6.18036 24.9236 6.24136 25.2089 6.35987C25.4942 6.47839 25.7533 6.65207 25.9713 6.87096C26.1893 7.08985 26.3619 7.34963 26.4792 7.6354C26.5966 7.92117 26.6563 8.2273 26.655 8.53622V15.1114C26.6525 15.732 26.4042 16.3263 25.9644 16.7642C25.5247 17.2021 24.9294 17.448 24.3088 17.4479H17.9268L15.2426 20.1321C15.1995 20.1751 15.1483 20.2092 15.0919 20.2324C15.0356 20.2555 14.9753 20.2674 14.9143 20.2673C14.854 20.2809 14.7913 20.2809 14.7309 20.2673C14.6445 20.2323 14.5707 20.1722 14.5191 20.0947C14.4674 20.0172 14.4403 19.9259 14.4412 19.8328V17.4479H12.095C11.4761 17.4454 10.8833 17.1984 10.4457 16.7608C10.008 16.3231 9.76103 15.7303 9.75849 15.1114V8.53622C9.75722 8.22811 9.81664 7.92277 9.93338 7.63763C10.0501 7.35249 10.2219 7.09313 10.4388 6.87437C10.6558 6.65561 10.9137 6.48172 11.1979 6.36264C11.4821 6.24357 11.7869 6.18163 12.095 6.18036H24.3088ZM24.3088 5.21484H12.095C11.2175 5.21995 10.3777 5.57213 9.75894 6.19445C9.14023 6.81678 8.79295 7.65867 8.79297 8.53622V15.1114C8.79804 15.9856 9.14756 16.8225 9.76572 17.4407C10.3839 18.0589 11.2208 18.4084 12.095 18.4135H13.4757V19.7942C13.4738 20.0796 13.5574 20.359 13.7157 20.5965C13.874 20.834 14.0998 21.0186 14.364 21.1266C14.5392 21.1961 14.7259 21.2321 14.9143 21.2328C15.1024 21.2342 15.2889 21.1982 15.4629 21.1269C15.637 21.0557 15.7951 20.9505 15.9281 20.8176L18.3226 18.4135H24.3088C25.1864 18.4109 26.0272 18.0612 26.6478 17.4407C27.2683 16.8202 27.618 15.9793 27.6206 15.1017V8.53622C27.6206 7.65701 27.272 6.81366 26.6512 6.19106C26.0304 5.56846 25.188 5.2174 24.3088 5.21484Z" fill="white"/>
<path d="M15.0884 12.0997L16.9518 13.6638L21.2387 9.20312" stroke="#1F1A54" stroke-linecap="round" stroke-linejoin="round"/>
<path d="M11.448 28.232C12.0719 28.232 12.5777 27.7262 12.5777 27.1023C12.5777 26.4784 12.0719 25.9727 11.448 25.9727C10.8241 25.9727 10.3184 26.4784 10.3184 27.1023C10.3184 27.7262 10.8241 28.232 11.448 28.232Z" fill="#FFD400"/>
</g>
<defs>
<clipPath id="clip0">
<rect width="24.6207" height="28" fill="white" transform="translate(3 2)"/>
</clipPath>
</defs>
</svg>
