<svg width="80" height="80" viewBox="0 0 80 80" fill="none" xmlns="http://www.w3.org/2000/svg">
<path d="M43.5968 18.7079C43.8388 13.2579 39.2045 9 33.7903 9C28.3761 9 23.661 13.3027 23.9748 18.7079C24.0375 19.8015 25.0684 25.1888 25.0684 25.1888C25.911 29.859 28.9677 33.8211 33.7903 33.8211C38.6128 33.8211 41.5978 29.9218 42.5122 25.1888C42.5122 25.1888 43.552 19.8015 43.5968 18.7079Z" stroke="#1F1A54" stroke-width="2" stroke-linecap="round" stroke-linejoin="round"/>
<path d="M57.5715 56.5715H10L11.1384 48.0916C11.6225 45.3218 14.1324 43.6097 16.8753 43.0091L33.7813 40.0241L50.6872 43.0001C53.475 43.6276 55.949 45.2859 56.4241 48.0827L57.5715 56.5715Z" stroke="#1F1A54" stroke-width="2" stroke-linecap="round" stroke-linejoin="round"/>
<path d="M47.4397 50.5743L53.9189 57.0635L61.4343 44.065" stroke="white" stroke-width="2.3" stroke-linecap="round" stroke-linejoin="round"/>
<g filter="url(#filter0_d)">
<path d="M40.7842 40.8322L41.6955 42.4525L40.7842 40.8322ZM40.7842 40.8322C39.6821 41.4521 39 42.6183 39 43.8828V58.1172C39 59.3817 39.6821 60.5479 40.7842 61.1678L53.5171 68.3293C54.5832 68.9289 55.885 68.9285 56.9507 68.3281L69.6623 61.1673C70.7633 60.5471 71.4444 59.3816 71.4444 58.1179V43.8821C71.4444 42.6184 70.7633 41.4529 69.6623 40.8327L56.9507 33.6719C55.885 33.0715 54.5832 33.0711 53.5171 33.6707L54.4975 35.4139L53.5171 33.6707L40.7842 40.8322Z" stroke="white" stroke-width="4" stroke-linecap="round" stroke-linejoin="round"/>
<path d="M55.9691 35.4144C55.5124 35.1571 54.9544 35.1569 54.4975 35.4139L41.7647 42.5754C41.2923 42.8411 41 43.3409 41 43.8828V58.1172C41 58.6592 41.2923 59.159 41.7647 59.4246L54.4975 66.5861C54.9544 66.8431 55.5124 66.8429 55.9691 66.5856L68.6807 59.4248C69.1525 59.159 69.4444 58.6595 69.4444 58.1179V43.8821C69.4444 43.3405 69.1525 42.841 68.6807 42.5752L55.9691 35.4144Z" fill="url(#paint0_linear)"/>
</g>
<path d="M48 51.1186L52.5618 56L62 47" stroke="white" stroke-width="3" stroke-linecap="round" stroke-linejoin="round"/>
<defs>
<filter id="filter0_d" x="34" y="31.2213" width="42.4444" height="45.5574" filterUnits="userSpaceOnUse" color-interpolation-filters="sRGB">
<feFlood flood-opacity="0" result="BackgroundImageFix"/>
<feColorMatrix in="SourceAlpha" type="matrix" values="0 0 0 0 0 0 0 0 0 0 0 0 0 0 0 0 0 0 127 0"/>
<feOffset dy="3"/>
<feGaussianBlur stdDeviation="1.5"/>
<feColorMatrix type="matrix" values="0 0 0 0 0.636094 0 0 0 0 0.666281 0 0 0 0 0.8625 0 0 0 0.2 0"/>
<feBlend mode="normal" in2="BackgroundImageFix" result="effect1_dropShadow"/>
<feBlend mode="normal" in="SourceGraphic" in2="effect1_dropShadow" result="shape"/>
</filter>
<linearGradient id="paint0_linear" x1="55.2222" y1="67" x2="55.2222" y2="35" gradientUnits="userSpaceOnUse">
<stop stop-color="#1D59F1"/>
<stop offset="1" stop-color="#3781FC"/>
</linearGradient>
</defs>
</svg>
