<svg width="32" height="32" viewBox="0 0 32 32" fill="none" xmlns="http://www.w3.org/2000/svg">
<path d="M22.7738 31.5H8.88138C8.11476 31.5 7.5 30.8852 7.5 30.1186V1.88138C7.5 1.11476 8.11476 0.5 8.88138 0.5H22.7793C23.5395 0.5 24.1552 1.11381 24.1552 1.88138V30.1241C24.1552 30.8843 23.5414 31.5 22.7738 31.5Z" fill="white" stroke="#3057BA" stroke-miterlimit="10" stroke-linecap="round"/>
<path d="M15.8275 30.345C16.7417 30.345 17.4827 29.604 17.4827 28.6898C17.4827 27.7757 16.7417 27.0347 15.8275 27.0347C14.9134 27.0347 14.1724 27.7757 14.1724 28.6898C14.1724 29.604 14.9134 30.345 15.8275 30.345Z" fill="#E5EBFF" stroke="#3057BA" stroke-width="0.7" stroke-miterlimit="10" stroke-linecap="round"/>
<path d="M7.5 25.3794H24" stroke="#3057BA" stroke-width="0.7" stroke-miterlimit="10" stroke-linecap="round"/>
<path d="M8 3.31055H24" stroke="#3057BA" stroke-width="0.7" stroke-miterlimit="10" stroke-linecap="round"/>
<path d="M13.6206 2H15.8275" stroke="#3057BA" stroke-width="0.7" stroke-miterlimit="10" stroke-linecap="round"/>
<path d="M17.4829 2H18.0346" stroke="#3057BA" stroke-width="0.7" stroke-miterlimit="10" stroke-linecap="round"/>
<path d="M12.5 11.4141H9V14.9141H12.5V11.4141Z" fill="white" stroke="#3057BA" stroke-width="0.7" stroke-miterlimit="10"/>
<path d="M17.5 11.4141H14V14.9141H17.5V11.4141Z" fill="white" stroke="#3057BA" stroke-width="0.7" stroke-miterlimit="10"/>
<path d="M22.5 11.4141H19V14.9141H22.5V11.4141Z" fill="white" stroke="#3057BA" stroke-width="0.7" stroke-miterlimit="10"/>
</svg>
