<svg width="9" height="12" viewBox="0 0 9 12" fill="none" xmlns="http://www.w3.org/2000/svg">
<path d="M5.23919 1.35191C4.78246 1.09462 4.22454 1.09443 3.76764 1.35141L0.76467 3.0404C0.292321 3.30607 2.54174e-06 3.80586 2.49437e-06 4.3478L2.20549e-06 7.6522C2.15811e-06 8.19414 0.29232 8.69393 0.76467 8.9596L3.76764 10.6486C4.22454 10.9056 4.78246 10.9054 5.23919 10.6481L8.23621 8.95978C8.70807 8.69397 9 8.19446 9 7.65288L9 4.34712C9 3.80555 8.70807 3.30603 8.23622 3.04022L5.23919 1.35191Z" fill="#36C9AA"/>
<path d="M3.6352 8.48164C3.67739 8.54492 3.74067 8.56601 3.82505 8.56601C3.89888 8.56601 3.96216 8.54492 4.01489 8.48164L7.12622 5.38086C7.16841 5.33867 7.20005 5.27539 7.20005 5.19102C7.20005 5.11719 7.16841 5.05391 7.12622 5.00117L6.73599 4.62148C6.68325 4.56875 6.61997 4.53711 6.54614 4.53711C6.47231 4.53711 6.40903 4.56875 6.3563 4.62148L3.82505 7.15273L2.6438 5.97148C2.58052 5.91875 2.51724 5.88711 2.44341 5.88711C2.36958 5.88711 2.3063 5.91875 2.26411 5.97148L1.87388 6.35117C1.82114 6.40391 1.80005 6.46719 1.80005 6.54101C1.80005 6.62539 1.82114 6.68867 1.87388 6.73086L3.6352 8.48164Z" fill="white"/>
</svg>
