<svg width="22" height="24" viewBox="0 0 22 24" fill="none" xmlns="http://www.w3.org/2000/svg">
<path d="M11.9108 0.414403C11.454 0.157113 10.8961 0.156924 10.4392 0.413905L1.26471 5.57402C0.792358 5.83969 0.50004 6.33948 0.50004 6.88142L0.500039 17.1186C0.500039 17.6605 0.792357 18.1603 1.2647 18.426L10.4392 23.5861C10.8961 23.8431 11.454 23.8429 11.9108 23.5856L21.0696 18.4262C21.5414 18.1604 21.8334 17.6608 21.8334 17.1193L21.8334 6.88074C21.8334 6.33917 21.5414 5.83965 21.0696 5.57384L11.9108 0.414403Z" fill="white"/>
<path d="M9.1166 17.8834C9.2166 18.0334 9.3666 18.0834 9.5666 18.0834C9.7416 18.0834 9.8916 18.0334 10.0166 17.8834L17.3916 10.5334C17.4916 10.4334 17.5666 10.2834 17.5666 10.0834C17.5666 9.90845 17.4916 9.75845 17.3916 9.63345L16.4666 8.73345C16.3416 8.60845 16.1916 8.53345 16.0166 8.53345C15.8416 8.53345 15.6916 8.60845 15.5666 8.73345L9.5666 14.7334L6.7666 11.9334C6.6166 11.8084 6.4666 11.7334 6.2916 11.7334C6.1166 11.7334 5.9666 11.8084 5.8666 11.9334L4.9416 12.8334C4.8166 12.9584 4.7666 13.1084 4.7666 13.2834C4.7666 13.4834 4.8166 13.6334 4.9416 13.7334L9.1166 17.8834Z" fill="#3781FC"/>
</svg>
