<svg width="32" height="32" viewBox="0 0 32 32" fill="none" xmlns="http://www.w3.org/2000/svg">
<path d="M5 16.5V3.5C5 2.94772 5.44772 2.5 6 2.5H25.8316C26.3839 2.5 26.8316 2.94772 26.8316 3.5V16.5" stroke="#1F1A54" stroke-linecap="round" stroke-linejoin="round"/>
<path d="M29.9918 14.3813V27.483C29.9918 27.7115 29.9468 27.9379 29.8593 28.149C29.7719 28.3602 29.6437 28.5521 29.4821 28.7137C29.3204 28.8753 29.1286 29.0035 28.9174 29.091C28.7062 29.1784 28.4799 29.2235 28.2513 29.2235H3.75326C3.52411 29.2244 3.29704 29.18 3.08508 29.093C2.87311 29.0059 2.68043 28.8778 2.51808 28.7161C2.35572 28.5544 2.2269 28.3622 2.139 28.1506C2.0511 27.939 2.00586 27.7121 2.00586 27.483L2.00586 14.1894" stroke="#1F1A54" stroke-linecap="round" stroke-linejoin="round"/>
<path d="M26.8349 11.3965L28.9161 12.4463C29.2508 12.5913 29.5335 12.834 29.7267 13.1423C29.9199 13.4506 30.0146 13.81 29.9984 14.173C30.011 14.5274 29.9183 14.8776 29.732 15.1798C29.5457 15.482 29.2739 15.7228 28.9508 15.872L19.2178 20.831" stroke="#1F1A54" stroke-linecap="round" stroke-linejoin="round"/>
<path d="M12.7804 20.7064L3.11101 15.92C2.75823 15.7692 2.46174 15.5114 2.26344 15.183C2.06515 14.8546 1.97507 14.4721 2.00593 14.0897C2.00566 13.7441 2.10438 13.4056 2.29042 13.1143C2.47647 12.823 2.74205 12.5911 3.05575 12.4459L4.9577 11.4766" stroke="#1F1A54" stroke-linecap="round" stroke-linejoin="round"/>
<path d="M3.06974 25.6598L14.9216 19.6164C15.21 19.4718 15.528 19.3965 15.8506 19.3965C16.1731 19.3965 16.4912 19.4718 16.7795 19.6164L28.9146 25.6598C29.2983 25.852 29.6046 26.1697 29.7826 26.5601C29.9606 26.9506 29.9995 27.3902 29.893 27.8058C29.7864 28.2215 29.5408 28.5882 29.197 28.8448C28.8531 29.1015 28.4317 29.2328 28.0029 29.2167H4.00905C3.57769 29.2399 3.15155 29.1136 2.80237 28.8593C2.4532 28.605 2.20235 28.2381 2.09205 27.8204C1.98176 27.4028 2.01877 26.9599 2.19685 26.5663C2.37493 26.1728 2.6832 25.8526 3.06974 25.6598V25.6598Z" stroke="#1F1A54" stroke-linecap="round" stroke-linejoin="round"/>
<path d="M16 17C19.3137 17 22 14.3137 22 11C22 7.68629 19.3137 5 16 5C12.6863 5 10 7.68629 10 11C10 14.3137 12.6863 17 16 17Z" fill="#FFD400"/>
<path d="M13 11.8966L14.8634 13.4607L19.1503 9" stroke="#1F1A54" stroke-linecap="round" stroke-linejoin="round"/>
</svg>
