<svg width="32" height="32" viewBox="0 0 32 32" fill="none" xmlns="http://www.w3.org/2000/svg">
<path d="M29.7492 26.9H2.25054C1.3012 26.9 0.533203 26.132 0.533203 25.1827V6.21733C0.533203 5.268 1.3012 4.5 2.25054 4.5H29.7545C30.6985 4.5 31.4665 5.268 31.4665 6.21733V25.188C31.4665 26.132 30.6985 26.9 29.7492 26.9Z" fill="white" stroke="#3057BA" stroke-miterlimit="10"/>
<path d="M11.8349 19.5079L9.8242 18.4839C9.68553 18.4145 9.6002 18.2705 9.6002 18.1212V17.5079C10.6295 17.0652 11.2215 16.2012 11.5095 15.1239C11.9469 14.9799 12.2669 14.5799 12.2669 14.0999V13.5665C12.2669 13.1559 12.0322 12.8039 11.6909 12.6279C11.4562 10.6225 10.1335 9.80654 8.0002 9.80654C7.89886 9.80654 7.80286 9.81187 7.70153 9.81721C6.9762 9.87587 6.24553 9.73721 5.64286 9.33187C5.3922 9.16121 5.17886 8.98521 5.03486 8.79321C4.96553 8.71321 4.8322 8.76654 4.84286 8.87854C4.8642 9.06521 4.8962 9.28387 4.9442 9.51854C5.1202 10.4039 5.01353 10.2759 4.6722 11.1079C4.48553 11.5719 4.36286 12.0839 4.3042 12.6279C3.9682 12.8092 3.73353 13.1612 3.73353 13.5665V14.0999C3.73353 14.5799 4.05353 14.9799 4.49086 15.1132C4.77886 16.1905 5.37086 17.0545 6.4002 17.4972V18.1105C6.4002 18.2652 6.30953 18.4092 6.17086 18.4785L4.1122 19.4919C3.5522 19.8012 3.2002 20.3879 3.2002 21.0279V21.5185C3.2002 21.5185 3.2002 21.6625 3.2002 21.7372C3.2002 22.3399 5.34953 22.6332 8.0002 22.6332C10.6509 22.6332 12.8002 22.3399 12.8002 21.7372C12.8002 21.6625 12.8002 21.5185 12.8002 21.5185V21.0705C12.8002 20.4092 12.4269 19.8012 11.8349 19.5079Z" fill="#DEE5FF" stroke="#3057BA" stroke-miterlimit="10" stroke-linecap="round"/>
<path d="M16 11.4336H21.3333" stroke="#3057BA" stroke-miterlimit="10" stroke-linecap="round"/>
<path d="M23.4668 11.4336H24.0001" stroke="#3057BA" stroke-miterlimit="10" stroke-linecap="round"/>
<path d="M16 20.5H16.5333" stroke="#3057BA" stroke-miterlimit="10" stroke-linecap="round"/>
<path d="M18.6665 20.5H19.7332" stroke="#3057BA" stroke-miterlimit="10" stroke-linecap="round"/>
<path d="M21.8667 20.5H22.4" stroke="#3057BA" stroke-miterlimit="10" stroke-linecap="round"/>
<path d="M24.5332 20.5H25.5999" stroke="#3057BA" stroke-miterlimit="10" stroke-linecap="round"/>
<path d="M16 14.6338H27.7333" stroke="#3057BA" stroke-miterlimit="10" stroke-linecap="round"/>
<path d="M16 17.833H27.7333" stroke="#3057BA" stroke-miterlimit="10" stroke-linecap="round"/>
</svg>
