<svg width="375" height="300" viewBox="0 0 375 300" fill="none" xmlns="http://www.w3.org/2000/svg">
<rect width="13.9442" height="5.9761" transform="matrix(-0.746496 -0.66539 0.746496 -0.66539 285.264 122.381)" fill="#FFD400"/>
<rect width="13.9442" height="5.9761" transform="matrix(-0.761739 0.647884 -0.556393 -0.830919 300.828 173.477)" fill="#36C9AA"/>
<path d="M308.232 115.352C308.556 115.276 308.891 115.355 309.129 115.567L311.51 117.679C311.782 117.921 311.886 118.296 311.778 118.654L310.963 121.367C310.855 121.724 310.555 122.003 310.183 122.091L306.937 122.859C306.612 122.936 306.277 122.856 306.039 122.645L303.658 120.533C303.386 120.291 303.282 119.915 303.39 119.558L304.205 116.845C304.313 116.488 304.613 116.208 304.985 116.12L308.232 115.352Z" fill="#36C9AA"/>
<path d="M290.207 86.8502C290.531 86.7734 290.866 86.8534 291.104 87.0645L293.94 89.5804C294.212 89.8222 294.316 90.198 294.208 90.5553L293.227 93.8189C293.12 94.1762 292.819 94.4555 292.448 94.5434L288.581 95.4584C288.256 95.5352 287.921 95.4552 287.683 95.2441L284.847 92.7281C284.575 92.4864 284.471 92.1106 284.579 91.7533L285.56 88.4897C285.667 88.1324 285.968 87.8531 286.339 87.7652L290.207 86.8502Z" fill="#DEE5FF"/>
<path d="M286.418 143.387L287.039 137.627L293.319 138.165L292.699 143.925L286.418 143.387Z" fill="#EA646C"/>
<rect x="105.204" y="165.953" width="12.3139" height="5.2774" transform="rotate(-159.441 105.204 165.953)" fill="#7C4FF6"/>
<rect x="80.6514" y="112.316" width="12.3139" height="5.2774" transform="rotate(-22.1474 80.6514 112.316)" fill="#36C9AA"/>
<path d="M98.22 134.513C98.5636 134.421 98.9299 134.519 99.1819 134.77L101.425 137.003C101.679 137.256 101.778 137.625 101.686 137.971L100.872 141.006C100.78 141.352 100.509 141.622 100.163 141.714L97.1038 142.526C96.7601 142.617 96.3938 142.519 96.1418 142.268L93.8984 140.036C93.6446 139.783 93.5452 139.414 93.6379 139.068L94.4513 136.032C94.544 135.686 94.8146 135.416 95.1607 135.325L98.22 134.513Z" fill="#FFD400"/>
<path d="M113.209 90.5449L117.178 86.8383L120.78 90.695L116.812 94.4015L113.209 90.5449Z" fill="#FFD400"/>
<path d="M54.6045 143.939L58.5726 140.233L62.175 144.089L58.2069 147.796L54.6045 143.939Z" fill="#EA646C"/>
<path d="M52 121.801L55.9681 118.094L59.5705 121.951L55.6024 125.657L52 121.801Z" fill="#DEE5FF"/>
<rect x="268.94" y="154.559" width="12.3139" height="5.2774" transform="rotate(22.936 268.94 154.559)" fill="#F7A80F"/>
<path d="M187.69 242.98C215.133 242.98 237.38 241.641 237.38 239.99C237.38 238.339 215.133 237 187.69 237C160.247 237 138 238.339 138 239.99C138 241.641 160.247 242.98 187.69 242.98Z" fill="#FFEB86"/>
<path d="M126.875 112.049C125.638 112.763 124.875 114.084 124.875 115.513V184.426C124.875 185.855 125.638 187.176 126.875 187.89L186.57 222.347C187.807 223.062 189.332 223.062 190.57 222.347L250.239 187.891C251.476 187.176 252.239 185.856 252.239 184.427V115.513C252.239 114.084 251.476 112.763 250.239 112.049L190.57 77.5923C189.332 76.8777 187.807 76.8776 186.57 77.592L126.875 112.049Z" fill="url(#paint0_linear)"/>
<mask id="mask0" mask-type="alpha" maskUnits="userSpaceOnUse" x="125" y="77" width="127" height="146">
<path d="M127.397 112.335C126.159 113.05 125.397 114.37 125.397 115.799V184.244C125.397 185.673 126.159 186.993 127.397 187.707L186.659 221.929C187.896 222.644 189.422 222.644 190.659 221.929L249.921 187.707C251.159 186.993 251.921 185.673 251.921 184.244V115.799C251.921 114.37 251.159 113.05 249.921 112.335L190.659 78.1141C189.422 77.3993 187.896 77.3993 186.659 78.1141L127.397 112.335Z" fill="url(#paint1_linear)"/>
</mask>
<g mask="url(#mask0)">
<path opacity="0.25" fill-rule="evenodd" clip-rule="evenodd" d="M143.109 153.252C143.12 152.819 143.479 152.478 143.911 152.489C146.267 152.547 148.716 152.713 151.245 152.987C151.674 153.033 151.985 153.419 151.939 153.849C151.892 154.279 151.506 154.59 151.076 154.543C148.588 154.274 146.182 154.111 143.872 154.054C143.44 154.043 143.099 153.684 143.109 153.252ZM139.815 153.275C139.833 153.707 139.498 154.072 139.066 154.09C136.532 154.197 134.144 154.446 131.923 154.832C131.497 154.907 131.092 154.621 131.018 154.195C130.944 153.769 131.229 153.364 131.655 153.29C133.95 152.891 136.406 152.636 139 152.526C139.432 152.508 139.797 152.843 139.815 153.275ZM155.203 154.283C155.27 153.855 155.67 153.563 156.097 153.63C157.289 153.816 158.495 154.025 159.715 154.256C160.14 154.336 160.419 154.746 160.338 155.171C160.258 155.595 159.848 155.874 159.423 155.794C158.22 155.566 157.03 155.36 155.856 155.177C155.428 155.11 155.136 154.71 155.203 154.283ZM127.809 154.938C127.933 155.352 127.698 155.788 127.284 155.912C126.102 156.266 124.987 156.668 123.944 157.118C123.547 157.289 123.086 157.106 122.915 156.709C122.744 156.312 122.927 155.851 123.324 155.68C124.428 155.205 125.6 154.782 126.835 154.412C127.249 154.288 127.685 154.524 127.809 154.938Z" fill="white"/>
<path opacity="0.25" fill-rule="evenodd" clip-rule="evenodd" d="M256.783 161.472C256.99 161.852 256.849 162.327 256.469 162.533C255.25 163.196 254.024 163.845 252.792 164.48C252.408 164.679 251.936 164.528 251.737 164.144C251.539 163.759 251.69 163.287 252.074 163.089C253.296 162.458 254.512 161.815 255.722 161.158C256.102 160.951 256.577 161.092 256.783 161.472ZM248.193 165.909C248.38 166.299 248.216 166.767 247.827 166.954C245.325 168.156 242.8 169.304 240.252 170.398C239.855 170.569 239.395 170.385 239.224 169.988C239.054 169.59 239.237 169.13 239.635 168.959C242.162 167.874 244.667 166.735 247.148 165.543C247.538 165.355 248.006 165.52 248.193 165.909ZM235.564 171.498C235.723 171.9 235.526 172.355 235.125 172.514C232.545 173.536 229.945 174.503 227.326 175.414C226.917 175.556 226.471 175.34 226.329 174.932C226.187 174.523 226.403 174.077 226.811 173.935C229.41 173.031 231.989 172.072 234.548 171.058C234.95 170.899 235.405 171.096 235.564 171.498ZM222.571 176.179C222.701 176.591 222.473 177.031 222.061 177.162C219.417 177.998 216.754 178.779 214.076 179.502C213.659 179.615 213.229 179.368 213.116 178.951C213.003 178.533 213.25 178.104 213.668 177.991C216.325 177.273 218.966 176.499 221.589 175.669C222.001 175.539 222.441 175.767 222.571 176.179ZM209.279 179.929C209.38 180.35 209.121 180.772 208.701 180.873C206.005 181.52 203.295 182.111 200.571 182.643C200.146 182.726 199.735 182.449 199.652 182.025C199.569 181.601 199.846 181.19 200.27 181.107C202.972 180.578 205.661 179.993 208.336 179.351C208.756 179.25 209.179 179.509 209.279 179.929ZM123.517 181.265C123.661 180.857 124.107 180.642 124.515 180.785C125.701 181.201 126.966 181.583 128.301 181.93C128.72 182.039 128.97 182.467 128.861 182.885C128.752 183.304 128.325 183.555 127.907 183.446C126.536 183.088 125.229 182.695 123.997 182.263C123.589 182.12 123.374 181.673 123.517 181.265ZM195.756 182.73C195.827 183.156 195.538 183.56 195.112 183.63C193.744 183.858 192.374 184.071 191.001 184.269L190.997 184.27C189.702 184.45 188.364 184.623 186.988 184.787C186.559 184.838 186.169 184.532 186.118 184.102C186.067 183.673 186.374 183.283 186.803 183.232C188.168 183.07 189.495 182.898 190.779 182.72C192.14 182.523 193.499 182.312 194.855 182.086C195.282 182.015 195.685 182.303 195.756 182.73ZM132.582 183.691C132.659 183.265 133.066 182.982 133.491 183.059C135.989 183.509 138.645 183.869 141.412 184.148C141.842 184.191 142.155 184.575 142.112 185.006C142.068 185.436 141.684 185.749 141.254 185.706C138.454 185.423 135.758 185.058 133.214 184.6C132.788 184.523 132.506 184.116 132.582 183.691ZM182.338 184.507C182.379 184.937 182.063 185.32 181.633 185.361C179.027 185.61 176.329 185.825 173.576 185.999C173.144 186.026 172.773 185.699 172.745 185.267C172.718 184.836 173.046 184.464 173.477 184.437C176.213 184.264 178.895 184.05 181.484 183.802C181.914 183.761 182.297 184.077 182.338 184.507ZM145.905 185.313C145.932 184.881 146.304 184.553 146.735 184.58C149.353 184.745 152.036 184.848 154.75 184.895C155.182 184.903 155.527 185.259 155.519 185.691C155.512 186.124 155.155 186.468 154.723 186.46C151.988 186.413 149.281 186.309 146.637 186.143C146.206 186.116 145.878 185.744 145.905 185.313ZM168.944 185.467C168.962 185.899 168.627 186.264 168.195 186.282C165.518 186.394 162.813 186.464 160.114 186.485C159.682 186.489 159.328 186.141 159.325 185.709C159.322 185.276 159.669 184.923 160.102 184.92C162.782 184.899 165.469 184.829 168.129 184.718C168.561 184.7 168.926 185.035 168.944 185.467Z" fill="white"/>
<path opacity="0.25" fill-rule="evenodd" clip-rule="evenodd" d="M202.523 202.858C202.527 203.29 202.18 203.644 201.748 203.648C199.138 203.671 196.545 203.768 193.859 203.973C193.428 204.006 193.052 203.683 193.019 203.252C192.986 202.821 193.309 202.445 193.74 202.412C196.465 202.204 199.093 202.106 201.733 202.082C202.166 202.078 202.519 202.425 202.523 202.858ZM206.258 202.888C206.267 202.456 206.625 202.113 207.057 202.122C209.605 202.177 212.228 202.277 215.017 202.39C215.449 202.408 215.785 202.772 215.767 203.204C215.75 203.636 215.385 203.972 214.953 203.954C212.166 203.841 209.555 203.742 207.024 203.687C206.591 203.678 206.248 203.32 206.258 202.888ZM219.499 203.357C219.516 202.925 219.88 202.588 220.312 202.605C221.593 202.656 222.915 202.706 224.284 202.752C224.716 202.767 225.054 203.129 225.039 203.561C225.025 203.993 224.663 204.332 224.23 204.317C222.858 204.27 221.534 204.22 220.25 204.17C219.818 204.153 219.482 203.789 219.499 203.357ZM189.302 203.628C189.355 204.057 189.051 204.448 188.622 204.502C187.355 204.661 186.056 204.845 184.713 205.059C183.664 205.231 182.617 205.416 181.572 205.613C181.148 205.694 180.738 205.414 180.658 204.99C180.577 204.565 180.857 204.155 181.281 204.075C182.339 203.875 183.399 203.688 184.462 203.514L184.465 203.513C185.825 203.297 187.142 203.109 188.428 202.948C188.857 202.895 189.248 203.199 189.302 203.628ZM177.998 205.538C178.093 205.96 177.827 206.379 177.405 206.473C175.329 206.938 173.265 207.454 171.214 208.021C170.798 208.136 170.366 207.892 170.251 207.475C170.136 207.059 170.38 206.627 170.797 206.512C172.872 205.938 174.962 205.416 177.064 204.945C177.486 204.851 177.904 205.117 177.998 205.538ZM167.646 208.242C167.775 208.655 167.545 209.094 167.133 209.223C166.118 209.54 165.106 209.87 164.099 210.213C163.69 210.352 163.245 210.133 163.106 209.724C162.967 209.315 163.186 208.87 163.595 208.731C164.615 208.384 165.638 208.05 166.666 207.729C167.078 207.6 167.517 207.83 167.646 208.242Z" fill="white"/>
</g>
<path d="M167.71 152.017L182.981 167.288L212.642 137.602" stroke="white" stroke-width="6" stroke-linecap="round" stroke-linejoin="round"/>
<path d="M229.157 188.988L232.501 195.703C232.55 195.812 232.632 195.902 232.735 195.962L238.854 199.644C238.945 199.699 239.02 199.777 239.073 199.871C239.125 199.964 239.152 200.069 239.152 200.175C239.152 200.282 239.125 200.387 239.073 200.48C239.02 200.573 238.945 200.651 238.854 200.707L232.735 204.389C232.632 204.448 232.55 204.539 232.501 204.648L229.157 211.363C229.113 211.456 229.043 211.535 228.956 211.591C228.869 211.646 228.768 211.675 228.664 211.675C228.561 211.675 228.46 211.646 228.373 211.591C228.285 211.535 228.216 211.456 228.172 211.363L224.827 204.648C224.778 204.539 224.697 204.448 224.594 204.389L218.475 200.707C218.384 200.651 218.308 200.573 218.256 200.48C218.204 200.387 218.176 200.282 218.176 200.175C218.176 200.069 218.204 199.964 218.256 199.871C218.308 199.777 218.384 199.699 218.475 199.644L224.49 195.962C224.593 195.902 224.675 195.812 224.723 195.703L228.068 188.988C228.068 188.843 228.125 188.705 228.227 188.603C228.33 188.501 228.468 188.443 228.612 188.443C228.757 188.443 228.895 188.501 228.997 188.603C229.1 188.705 229.157 188.843 229.157 188.988Z" fill="url(#paint2_linear)"/>
<path d="M236.054 122.747L237.921 126.507V126.662L241.369 128.71C241.417 128.747 241.456 128.794 241.483 128.848C241.51 128.902 241.524 128.961 241.524 129.022C241.524 129.082 241.51 129.141 241.483 129.195C241.456 129.249 241.417 129.296 241.369 129.333L238.05 131.407C238.05 131.407 238.05 131.407 238.05 131.562L236.183 135.322C236.157 135.37 236.117 135.411 236.069 135.439C236.021 135.467 235.967 135.482 235.911 135.482C235.856 135.482 235.801 135.467 235.753 135.439C235.705 135.411 235.666 135.37 235.639 135.322L233.746 131.562C233.762 131.512 233.762 131.457 233.746 131.407L230.324 129.359C230.27 129.326 230.226 129.281 230.195 129.226C230.164 129.172 230.148 129.11 230.148 129.048C230.148 128.985 230.164 128.923 230.195 128.869C230.226 128.814 230.27 128.769 230.324 128.736L233.746 126.688C233.746 126.688 233.746 126.688 233.746 126.533L235.639 122.773C235.664 122.743 235.695 122.719 235.729 122.701C235.764 122.683 235.802 122.673 235.841 122.67C235.88 122.668 235.919 122.674 235.955 122.687C235.992 122.7 236.025 122.721 236.054 122.747Z" fill="url(#paint3_linear)"/>
<path d="M142.638 169.286L144.142 172.267L146.735 173.901C146.778 173.926 146.813 173.962 146.838 174.005C146.863 174.048 146.876 174.097 146.876 174.147C146.876 174.197 146.863 174.246 146.838 174.289C146.813 174.332 146.778 174.368 146.735 174.393L144.142 176.027L142.638 179.008C142.622 179.054 142.593 179.094 142.553 179.122C142.514 179.15 142.466 179.165 142.418 179.165C142.369 179.165 142.322 179.15 142.283 179.122C142.243 179.094 142.213 179.054 142.197 179.008L140.72 176.027L138.127 174.393C138.089 174.364 138.059 174.327 138.038 174.284C138.017 174.241 138.006 174.194 138.006 174.147C138.006 174.099 138.017 174.052 138.038 174.01C138.059 173.967 138.089 173.93 138.127 173.901L140.72 172.267L142.197 169.286C142.213 169.24 142.243 169.2 142.283 169.172C142.322 169.144 142.369 169.129 142.418 169.129C142.466 169.129 142.514 169.144 142.553 169.172C142.593 169.2 142.622 169.24 142.638 169.286Z" fill="url(#paint4_linear)"/>
<path opacity="0.5" d="M162.706 116.548L163.873 118.934L166.025 120.23C166.064 120.245 166.099 120.271 166.123 120.306C166.147 120.341 166.16 120.382 166.16 120.425C166.16 120.467 166.147 120.508 166.123 120.543C166.099 120.578 166.064 120.604 166.025 120.619L163.873 121.915L162.706 124.301C162.688 124.333 162.662 124.36 162.63 124.379C162.598 124.398 162.562 124.408 162.525 124.408C162.487 124.408 162.451 124.398 162.419 124.379C162.387 124.36 162.361 124.333 162.343 124.301L161.15 121.915L158.973 120.619C158.94 120.598 158.914 120.569 158.896 120.535C158.878 120.501 158.868 120.463 158.868 120.425C158.868 120.386 158.878 120.348 158.896 120.314C158.914 120.28 158.94 120.251 158.973 120.23L161.15 118.934L162.343 116.548C162.361 116.516 162.387 116.489 162.419 116.47C162.451 116.451 162.487 116.441 162.525 116.441C162.562 116.441 162.598 116.451 162.63 116.47C162.662 116.489 162.688 116.516 162.706 116.548Z" fill="url(#paint5_linear)"/>
<defs>
<linearGradient id="paint0_linear" x1="188.557" y1="222.928" x2="188.557" y2="95.5642" gradientUnits="userSpaceOnUse">
<stop stop-color="#61D3F7"/>
<stop offset="1" stop-color="#318BFF"/>
</linearGradient>
<linearGradient id="paint1_linear" x1="188.659" y1="222.514" x2="188.659" y2="95.9635" gradientUnits="userSpaceOnUse">
<stop stop-color="#71C4FF"/>
<stop offset="1" stop-color="#318BFF"/>
</linearGradient>
<linearGradient id="paint2_linear" x1="218.06" y1="200.162" x2="239.035" y2="200.162" gradientUnits="userSpaceOnUse">
<stop stop-color="#FFB500"/>
<stop offset="0.96" stop-color="#FFD271"/>
</linearGradient>
<linearGradient id="paint3_linear" x1="229.883" y1="129.022" x2="241.654" y2="129.022" gradientUnits="userSpaceOnUse">
<stop stop-color="white"/>
<stop offset="1" stop-color="#E7EFF7"/>
</linearGradient>
<linearGradient id="paint4_linear" x1="189.01" y1="545.678" x2="220.854" y2="545.678" gradientUnits="userSpaceOnUse">
<stop stop-color="white"/>
<stop offset="1" stop-color="#E7EFF7"/>
</linearGradient>
<linearGradient id="paint5_linear" x1="259.932" y1="250.274" x2="280.859" y2="250.274" gradientUnits="userSpaceOnUse">
<stop stop-color="white"/>
<stop offset="1" stop-color="#E7EFF7"/>
</linearGradient>
</defs>
</svg>
