<svg width="375" height="300" viewBox="0 0 375 300" fill="none" xmlns="http://www.w3.org/2000/svg">
<g clip-path="url(#clip0)">
<path d="M99.69 269.6C127.133 269.6 149.38 268.261 149.38 266.61C149.38 264.959 127.133 263.62 99.69 263.62C72.247 263.62 50 264.959 50 266.61C50 268.261 72.247 269.6 99.69 269.6Z" fill="#9DAFED"/>
<path d="M220.47 104.85L209.19 106.98C206.78 107.39 204.72 105.83 203.78 103.57C200.69 96.1301 198.64 80.4001 196.01 76.8001C195.01 75.4401 192.68 72.8001 191.79 70.4501C191.42 69.4501 191.25 68.7301 190.58 67.1701C190.118 66.1342 189.545 65.1517 188.87 64.2401C188.46 63.6901 187.32 62.1701 188.38 61.5301C188.85 61.2401 189.47 61.6101 189.68 61.8001C190.134 62.1679 190.541 62.5912 190.89 63.0601C191.516 63.7912 192.184 64.4857 192.89 65.1401C192.89 65.1401 191.23 62.1401 190.58 61.2501C190.14 60.6401 188.84 59.0701 189.86 58.2501C190.098 58.1176 190.37 58.0574 190.641 58.0769C190.913 58.0965 191.173 58.1949 191.39 58.3601C191.792 58.7628 192.129 59.2249 192.39 59.7301C192.79 60.3301 194.87 62.8901 194.87 62.8901C194.87 62.8901 192.87 59.0301 192.37 58.0801C191.95 57.3301 190.61 55.3101 192.04 54.4801C192.99 53.9301 194.15 55.4801 194.76 56.4801C195.58 57.7601 197.81 61.8801 197.81 61.8801L196.16 57.0601C196.16 57.0601 195.38 55.0601 196.67 54.5401C197.96 54.0201 198.53 55.4701 198.85 56.1401C200.37 59.3601 201.85 62.7901 202.49 64.7001C203.39 67.3201 205.37 60.5001 207.49 61.2501C209.61 62.0001 203.31 72.7001 205.26 77.2501L212.26 93.3801L218.26 91.2701L220.47 104.85Z" fill="white" stroke="#1F1A54" stroke-width="0.74" stroke-linecap="round" stroke-linejoin="round"/>
<path d="M201 66.8701C201 66.8701 199.33 68.6801 199.53 70.1501C198.879 69.5307 198.036 69.1531 197.14 69.0801" stroke="#1F1A54" stroke-width="0.74" stroke-linecap="round" stroke-linejoin="round"/>
<path d="M250.5 270.03C267.582 270.03 281.43 268.794 281.43 267.27C281.43 265.746 267.582 264.51 250.5 264.51C233.418 264.51 219.57 265.746 219.57 267.27C219.57 268.794 233.418 270.03 250.5 270.03Z" fill="#9DAFED"/>
<path d="M224.39 261.75C224.39 261.75 224.07 262.14 224.39 263.5C224.82 265.37 226.51 266.86 232.03 266.79C235.69 266.79 253.09 266.07 254.83 265.87C256.57 265.67 255.11 263.06 254.47 260.94C254.47 260.94 231.59 264.81 227.29 263.83C225.38 263.36 224.29 262.63 224.39 261.75Z" fill="white"/>
<path d="M237.78 256.21C237.048 256.583 236.297 256.916 235.53 257.21C235.06 257.4 234.53 257.58 234.08 257.74L233.08 258.05C231.58 258.51 230 258.94 228.85 259.24C227.39 259.64 225.71 259.94 225.01 260.61C224.694 260.882 224.476 261.251 224.39 261.66C224.29 262.57 225.39 263.3 227.29 263.74C231.59 264.74 254.47 260.85 254.47 260.85C254.47 260.85 254.08 259.19 253.6 256.3C253.327 256.405 253.046 256.489 252.76 256.55C251.243 256.887 249.662 256.8 248.19 256.3C246.593 255.733 245.064 254.992 243.63 254.09C242.7 253.5 242.11 253.03 242.19 252.92C241.626 253.58 240.973 254.159 240.25 254.64C239.465 255.221 238.639 255.746 237.78 256.21Z" fill="white"/>
<path d="M243.63 248.31L243.74 253.96L243.63 254.15C245.064 255.052 246.593 255.794 248.19 256.36C249.662 256.86 251.242 256.947 252.76 256.61V256.35V248.35L243.63 248.31Z" fill="#FFD400"/>
<path d="M224.39 261.75C224.29 262.66 225.39 263.39 227.29 263.83C231.59 264.83 254.47 260.94 254.47 260.94C254.47 260.94 254.08 259.28 253.6 256.39" stroke="#1F1A54" stroke-width="0.8" stroke-linecap="round" stroke-linejoin="round"/>
<path d="M253.6 256.36C253.327 256.465 253.046 256.549 252.76 256.61C251.243 256.947 249.662 256.86 248.19 256.36C246.593 255.794 245.064 255.052 243.63 254.15C242.7 253.56 242.11 253.09 242.19 252.98C241.626 253.64 240.973 254.219 240.25 254.7C239.463 255.26 238.638 255.765 237.78 256.21C237.048 256.583 236.297 256.917 235.53 257.21C235.06 257.4 234.53 257.58 234.08 257.74L233.08 258.05C231.58 258.51 230 258.94 228.85 259.24C227.39 259.64 225.71 259.94 225.01 260.61C224.694 260.882 224.476 261.251 224.39 261.66" stroke="#1F1A54" stroke-width="0.8" stroke-linecap="round" stroke-linejoin="round"/>
<path d="M224.39 261.75C224.39 261.75 224.07 262.14 224.39 263.5C224.82 265.37 226.51 266.86 232.03 266.79C235.69 266.79 253.09 266.07 254.83 265.87C256.57 265.67 255.11 263.06 254.47 260.94" stroke="#1F1A54" stroke-width="0.8" stroke-linecap="round" stroke-linejoin="round"/>
<path d="M241.24 255.82L240.25 254.71L239.24 253.58" stroke="#1F1A54" stroke-width="0.8" stroke-linecap="round" stroke-linejoin="round"/>
<path d="M238.8 257.59L237.78 256.21L236.99 255.14" stroke="#1F1A54" stroke-width="0.8" stroke-linecap="round" stroke-linejoin="round"/>
<path d="M236.4 258.66L235.53 257.26L234.76 256.03" stroke="#1F1A54" stroke-width="0.8" stroke-linecap="round" stroke-linejoin="round"/>
<path d="M234 259.56L233.08 258.1L232.35 256.94" stroke="#1F1A54" stroke-width="0.8" stroke-linecap="round" stroke-linejoin="round"/>
<path d="M252.71 256.35V248.31H243.63L243.74 253.96" stroke="#1F1A54" stroke-width="0.8" stroke-linecap="round" stroke-linejoin="round"/>
<path d="M245.87 263.44C245.87 263.44 245.55 263.84 245.87 265.2C246.3 267.07 247.99 268.55 253.52 268.48C257.17 268.48 274.58 267.77 276.31 267.57C278.04 267.37 276.59 264.75 275.96 262.64C275.96 262.64 253.08 266.5 248.78 265.52C246.86 265.09 245.77 264.35 245.87 263.44Z" fill="white"/>
<path d="M259.26 257.93C258.531 258.309 257.779 258.643 257.01 258.93C256.54 259.12 256.01 259.31 255.56 259.46L254.56 259.77C253.05 260.24 251.47 260.67 250.33 260.97C248.86 261.36 247.18 261.67 246.48 262.34C246.173 262.6 245.956 262.95 245.86 263.34C245.76 264.25 246.86 264.99 248.77 265.42C253.07 266.42 275.95 262.54 275.95 262.54C275.95 262.54 275.55 260.88 275.07 257.99C274.797 258.095 274.516 258.179 274.23 258.24C272.711 258.567 271.132 258.477 269.66 257.98C268.064 257.412 266.535 256.671 265.1 255.77C264.17 255.19 263.58 254.71 263.67 254.6C263.084 255.264 262.411 255.846 261.67 256.33C260.904 256.918 260.099 257.452 259.26 257.93Z" fill="white"/>
<path d="M265.11 250.03L265.23 255.68L265.11 255.87C266.545 256.77 268.074 257.512 269.67 258.08C271.142 258.577 272.721 258.667 274.24 258.34L274.19 258.07V250.07L265.11 250.03Z" fill="#FFD400"/>
<path d="M245.87 263.44C245.77 264.35 246.87 265.09 248.78 265.52C253.08 266.52 275.96 262.64 275.96 262.64C275.96 262.64 275.56 260.98 275.08 258.09" stroke="#1F1A54" stroke-width="0.8" stroke-linecap="round" stroke-linejoin="round"/>
<path d="M275.08 258.09C274.807 258.195 274.526 258.279 274.24 258.34C272.721 258.667 271.142 258.577 269.67 258.08C268.074 257.511 266.545 256.77 265.11 255.87C264.18 255.29 263.59 254.81 263.68 254.7C263.095 255.364 262.422 255.946 261.68 256.43C260.892 256.986 260.067 257.487 259.21 257.93C258.481 258.309 257.73 258.643 256.96 258.93C256.49 259.12 255.96 259.31 255.51 259.46L254.51 259.77C253 260.24 251.42 260.67 250.28 260.97C248.81 261.36 247.13 261.67 246.43 262.34C246.123 262.6 245.906 262.95 245.81 263.34" stroke="#1F1A54" stroke-width="0.8" stroke-linecap="round" stroke-linejoin="round"/>
<path d="M245.87 263.43C245.87 263.43 245.55 263.83 245.87 265.19C246.3 267.06 247.99 268.54 253.52 268.47C257.17 268.47 274.58 267.76 276.31 267.56C278.04 267.36 276.59 264.74 275.96 262.63" stroke="#1F1A54" stroke-width="0.8" stroke-linecap="round" stroke-linejoin="round"/>
<path d="M262.72 257.54L261.73 256.43L260.72 255.3" stroke="#1F1A54" stroke-width="0.8" stroke-linecap="round" stroke-linejoin="round"/>
<path d="M260.28 259.32L259.26 257.94L258.47 256.86" stroke="#1F1A54" stroke-width="0.8" stroke-linecap="round" stroke-linejoin="round"/>
<path d="M257.88 260.38L257.01 258.99L256.25 257.76" stroke="#1F1A54" stroke-width="0.8" stroke-linecap="round" stroke-linejoin="round"/>
<path d="M255.48 261.28L254.57 259.82L253.84 258.66" stroke="#1F1A54" stroke-width="0.8" stroke-linecap="round" stroke-linejoin="round"/>
<path d="M274.19 258.07V250.03H265.12L265.23 255.69" stroke="#1F1A54" stroke-width="0.8" stroke-linecap="round" stroke-linejoin="round"/>
<path d="M256.14 186.75L254.48 204.86L256.2 248.31H242C240.84 229.07 240 216.54 239.33 206.31C237.99 185.58 236.46 178.44 235.59 164.08C234.77 150.59 240.37 128.08 240.37 128.08C240.37 128.08 243.8 129.18 251.1 129.5C257.156 129.802 263.225 129.324 269.16 128.08C269.16 128.08 276.02 145.88 276.66 152.03C278.11 165.9 273.54 205.45 273.54 205.45L276 250.03H262.72L257.98 205.03L256.14 186.75Z" fill="#1F1A54"/>
<path d="M256.15 186.74L254.64 171.77L252.53 165.89" stroke="#1F1A54" stroke-width="0.8" stroke-linecap="round" stroke-linejoin="round"/>
<path d="M256.14 186.75L254.48 204.86L256.2 248.31H242C240.84 229.07 240 216.54 239.33 206.31C237.99 185.58 236.46 178.44 235.59 164.08C234.77 150.59 240.37 128.08 240.37 128.08C240.37 128.08 243.8 129.18 251.1 129.5C257.156 129.802 263.225 129.324 269.16 128.08C269.16 128.08 276.02 145.88 276.66 152.03C278.11 165.9 273.54 205.45 273.54 205.45L276 250.03H262.72L257.98 205.03L256.14 186.75Z" stroke="#1F1A54" stroke-width="0.8" stroke-linecap="round" stroke-linejoin="round"/>
<path d="M256.14 186.75V186.74" stroke="#1F1A54" stroke-width="0.8" stroke-linecap="round" stroke-linejoin="round"/>
<path d="M238.63 81.54C239.4 76.67 236.31 53.3 241.84 47.91C248.69 41.22 261.58 38.3 265.84 45.67C266.893 46.0032 267.853 46.5809 268.64 47.3561C269.428 48.1313 270.02 49.0819 270.37 50.13C272.61 57.41 272.02 71.3 275.16 83.89L238.63 81.54Z" fill="#1F1A54" stroke="#1F1A54" stroke-width="0.8" stroke-linecap="round" stroke-linejoin="round"/>
<path d="M262 60.0299C262.63 58.6466 263.743 57.5408 265.13 56.9199C267.68 55.8599 270.56 58.7399 269.78 62.7399C269.14 66.0699 266.47 67.8499 262.96 68.3599V78.7999L265.2 79.6899C264.983 80.9812 264.648 82.2498 264.2 83.4799C261.2 90.1199 254.39 91.1999 251.95 90.5799C251.039 90.3735 250.179 89.9871 249.42 89.4434C248.661 88.8997 248.019 88.2096 247.531 87.4139C247.042 86.6181 246.718 85.7327 246.577 84.8098C246.436 83.8869 246.481 82.9451 246.71 82.0399C246.78 81.7199 246.9 81.2199 247.01 80.8099L247.19 80.0399L249.49 79.2999V75.0199C248.718 74.704 247.997 74.276 247.35 73.7499C245.19 72.1099 243.67 69.2499 243.28 64.9599C243.049 61.1852 243.089 57.3988 243.4 53.6299C245.69 52.8999 249.24 48.6299 249.24 48.6299C250.612 51.1541 252.622 53.2746 255.07 54.7799C257.621 56.1867 259.955 57.955 262 60.0299ZM254.49 60.2399C254.451 60.0983 254.373 59.9704 254.265 59.8706C254.158 59.7708 254.024 59.7029 253.88 59.6747C253.736 59.6464 253.587 59.6589 253.45 59.7107C253.312 59.7625 253.192 59.8516 253.102 59.968C253.013 60.0843 252.957 60.2233 252.942 60.3694C252.927 60.5155 252.953 60.6628 253.018 60.795C253.082 60.9271 253.181 61.0387 253.305 61.1173C253.429 61.1959 253.573 61.2383 253.72 61.2399C253.837 61.2263 253.95 61.1895 254.053 61.1317C254.156 61.0739 254.247 60.9962 254.319 60.9032C254.392 60.8101 254.445 60.7035 254.476 60.5897C254.507 60.4758 254.515 60.3569 254.5 60.2399H254.49ZM247.49 60.3599C247.516 60.2441 247.516 60.1239 247.49 60.0081C247.464 59.8923 247.412 59.7839 247.338 59.691C247.264 59.5981 247.17 59.5231 247.063 59.4716C246.956 59.42 246.839 59.3932 246.72 59.3932C246.601 59.3932 246.484 59.42 246.377 59.4716C246.27 59.5231 246.176 59.5981 246.102 59.691C246.028 59.7839 245.976 59.8923 245.949 60.0081C245.923 60.1239 245.923 60.2441 245.95 60.3599C245.923 60.4756 245.923 60.5959 245.949 60.7117C245.976 60.8275 246.028 60.9359 246.102 61.0287C246.176 61.1216 246.27 61.1966 246.377 61.2482C246.484 61.2997 246.601 61.3265 246.72 61.3265C246.839 61.3265 246.956 61.2997 247.063 61.2482C247.17 61.1966 247.264 61.1216 247.338 61.0287C247.412 60.9359 247.464 60.8275 247.49 60.7117C247.516 60.5959 247.516 60.4756 247.49 60.3599Z" fill="white"/>
<path d="M253.73 59.2699C253.931 59.2225 254.142 59.2384 254.333 59.3156C254.525 59.3928 254.688 59.5274 254.8 59.7009C254.912 59.8744 254.967 60.0783 254.959 60.2847C254.95 60.491 254.878 60.6896 254.752 60.8533C254.626 61.0169 254.452 61.1375 254.255 61.1985C254.058 61.2595 253.846 61.258 253.65 61.194C253.454 61.1301 253.282 61.007 253.158 60.8415C253.035 60.676 252.965 60.4763 252.96 60.2699C252.944 60.1536 252.952 60.0354 252.983 59.9222C253.013 59.8089 253.065 59.7027 253.137 59.6098C253.209 59.5169 253.298 59.439 253.399 59.3807C253.501 59.3223 253.614 59.2847 253.73 59.2699Z" fill="#1F1A54"/>
<path d="M246.74 59.3999C246.956 59.4541 247.148 59.579 247.285 59.7547C247.422 59.9305 247.497 60.147 247.497 60.3699C247.497 60.5928 247.422 60.8093 247.285 60.9851C247.148 61.1608 246.956 61.2857 246.74 61.3399C246.524 61.2857 246.332 61.1608 246.195 60.9851C246.057 60.8093 245.983 60.5928 245.983 60.3699C245.983 60.147 246.057 59.9305 246.195 59.7547C246.332 59.579 246.524 59.4541 246.74 59.3999Z" fill="#1F1A54"/>
<path d="M255.1 57.34C254.643 57.0588 254.116 56.9132 253.58 56.92C253.008 56.9111 252.449 57.0826 251.98 57.41" stroke="#1F1A54" stroke-width="0.8" stroke-linecap="round" stroke-linejoin="round"/>
<path d="M248.43 57.3399C247.973 57.0587 247.446 56.9131 246.91 56.9199C246.339 56.9124 245.779 57.0837 245.31 57.4099" stroke="#1F1A54" stroke-width="0.8" stroke-linecap="round" stroke-linejoin="round"/>
<path d="M256.33 66.0701C256.104 66.8767 255.659 67.6051 255.045 68.175C254.431 68.7449 253.671 69.1342 252.85 69.3001" stroke="#1F1A54" stroke-width="0.8" stroke-linecap="round" stroke-linejoin="round"/>
<path d="M251.31 64.75C251.001 64.9096 250.658 64.9929 250.31 64.9929C249.962 64.9929 249.619 64.9096 249.31 64.75" stroke="#1F1A54" stroke-width="0.8" stroke-linecap="round" stroke-linejoin="round"/>
<path d="M266.41 60.3601C266.41 60.3601 264.31 60.6801 263.99 64.0001" stroke="#1F1A54" stroke-width="0.8" stroke-miterlimit="10" stroke-linecap="round"/>
<path d="M249.5 75.0201V79.3001L247.2 80.0401L247.02 80.8101C246.91 81.2201 246.79 81.7201 246.72 82.0401C246.492 82.9481 246.449 83.8925 246.592 84.8176C246.735 85.7427 247.063 86.6296 247.555 87.4259C248.048 88.2221 248.695 88.9115 249.458 89.4533C250.222 89.9951 251.086 90.3783 252 90.5801C254.44 91.2001 261.21 90.1201 264.25 83.4801C264.699 82.2501 265.033 80.9814 265.25 79.6901L263 78.8001V68.3601" stroke="#1F1A54" stroke-width="0.8" stroke-linecap="round" stroke-linejoin="round"/>
<path d="M261.75 60.65C261.818 60.4359 261.905 60.2284 262.01 60.03C262.64 58.6468 263.753 57.5409 265.14 56.92C267.69 55.86 270.57 58.74 269.79 62.74C269.15 66.07 266.48 67.85 262.97 68.36" stroke="#1F1A54" stroke-width="0.8" stroke-linecap="round" stroke-linejoin="round"/>
<path d="M262 60.0299C259.957 57.9778 257.63 56.23 255.09 54.8399C252.643 53.3346 250.632 51.2142 249.26 48.6899C249.26 48.6899 245.71 52.9299 243.42 53.6899" stroke="#1F1A54" stroke-width="0.8" stroke-linecap="round" stroke-linejoin="round"/>
<path d="M243.4 53.6101V53.6601C243.089 57.4291 243.049 61.2154 243.28 64.9901C243.67 69.2801 245.19 72.1401 247.35 73.7801C248.002 74.2965 248.726 74.7143 249.5 75.0201C250.736 75.5073 252.088 75.6254 253.39 75.3601L253.71 75.2901C255.258 74.9678 256.688 74.2238 257.84 73.1401" stroke="#1F1A54" stroke-width="0.8" stroke-linecap="round" stroke-linejoin="round"/>
<path d="M268 100.75L270.88 110.46L283.88 107.04C283.88 107.04 281 90.7499 278.77 87.0199C276.31 82.9699 265.21 79.6799 265.21 79.6799C264.995 80.9748 264.66 82.247 264.21 83.4799C261.21 90.1199 254.4 91.1999 251.95 90.5799C251.039 90.3736 250.179 89.9872 249.42 89.4435C248.661 88.8997 248.019 88.2097 247.531 87.4139C247.042 86.6182 246.718 85.7328 246.577 84.8099C246.436 83.8869 246.481 82.9452 246.71 82.0399C246.86 81.3999 247.21 80.0399 247.21 80.0399C247.21 80.0399 240.79 80.8799 238.61 81.5399C233.91 82.9699 217.86 90.1699 217.86 90.1699L220.45 105.9C220.45 105.9 231.53 99.8999 233.19 101.64C234.85 103.38 238.39 115.48 239.28 119.74C239.931 122.498 240.287 125.317 240.34 128.15C240.34 128.15 243.06 129.15 249.88 129.49C256.327 129.775 262.785 129.326 269.13 128.15L272.87 110.89" fill="#FFD400"/>
<path d="M268 100.75L270.88 110.46L283.88 107.04C283.88 107.04 281 90.7499 278.77 87.0199C276.31 82.9699 265.21 79.6799 265.21 79.6799C264.995 80.9748 264.66 82.247 264.21 83.4799C261.21 90.1199 254.4 91.1999 251.95 90.5799C251.039 90.3736 250.179 89.9872 249.42 89.4435C248.661 88.8997 248.019 88.2097 247.531 87.4139C247.042 86.6182 246.718 85.7328 246.577 84.8099C246.436 83.8869 246.481 82.9452 246.71 82.0399C246.86 81.3999 247.21 80.0399 247.21 80.0399C247.21 80.0399 240.79 80.8799 238.61 81.5399C233.91 82.9699 217.86 90.1699 217.86 90.1699L220.45 105.9C220.45 105.9 231.53 99.8999 233.19 101.64C234.85 103.38 238.39 115.48 239.28 119.74C239.931 122.498 240.287 125.317 240.34 128.15C240.34 128.15 243.06 129.15 249.88 129.49C256.327 129.775 262.785 129.326 269.13 128.15L272.87 110.89" stroke="#1F1A54" stroke-width="0.8" stroke-linecap="round" stroke-linejoin="round"/>
<path d="M236.89 111.43C237.32 112.82 237.71 114.2 238.06 115.43H271.72L272.59 111.43H236.89Z" fill="#1F1A54"/>
<path d="M239.25 120.37C239.56 121.94 239.77 123.29 239.91 124.37H269.79L270.66 120.37H239.25Z" fill="#1F1A54"/>
<path d="M259.69 88.6699H279.36C279.149 88.1015 278.895 87.5499 278.6 87.0199C277.944 86.0671 277.104 85.2546 276.13 84.6299H263.45C262.525 86.2486 261.238 87.6314 259.69 88.6699Z" fill="#1F1A54"/>
<path d="M246.8 129.3C247.68 129.38 248.65 129.44 249.72 129.49C253.27 129.634 256.827 129.571 260.37 129.3H246.8Z" fill="#1F1A54"/>
<path d="M230.89 102.5L231.54 102.94C231.54 102.94 231.54 102.75 231.54 102.5H230.89Z" fill="#1F1A54"/>
<path d="M248.35 88.6699C247.283 87.5857 246.605 86.1795 246.42 84.6699H230C229.12 85.8399 222.63 87.2399 221.8 88.6699H248.35Z" fill="#1F1A54"/>
<path d="M233.61 102.5C234.265 103.792 234.826 105.128 235.29 106.5H283.68C283.55 105.77 283.27 104.3 282.9 102.5H233.61Z" fill="#1F1A54"/>
<path d="M218.4 93.5601C218.51 95.1801 219.11 96.2001 219.19 98.0701L281.85 97.6001C281.47 96.2501 281.06 94.8701 280.64 93.6001L218.4 93.5601Z" fill="#1F1A54"/>
<path d="M256.32 194.57L254.06 172.08L251.95 166.19" stroke="#F2F4F6" stroke-width="0.5" stroke-linecap="round" stroke-linejoin="round"/>
<path d="M245.72 120.97L246.84 125.97L228.26 124.53L221.94 99.8999H240.9L244.64 114.36" fill="white"/>
<path d="M245.72 120.97L246.84 125.97L228.26 124.53L221.94 99.8999H240.9L244.64 114.36" stroke="#1F1A54" stroke-width="0.8" stroke-linecap="round" stroke-linejoin="round"/>
<path d="M245.85 110.47C247.839 110.598 249.786 111.101 251.59 111.95C254.467 113.318 257.485 114.368 260.59 115.08C267.07 116.08 270.33 116.16 274.49 116.89L272.65 110.08L283.23 107.22C283.23 107.22 289.04 128.15 278.23 127C270.37 126.18 260.02 122.32 254.72 121.27C254.469 121.222 254.215 121.189 253.96 121.17C252.011 120.911 250.041 120.851 248.08 120.99C247.298 121.115 246.502 121.115 245.72 120.99C243.58 120.63 239.4 119.85 238.38 119.23C236.91 118.32 233.92 114.04 233.92 114.04C233.92 114.04 233.79 111.56 236.71 113.17C239.63 114.78 243.44 115.05 244.63 114.39C245.3 114.02 245.71 113.56 244.41 113.16L243.61 110.44C243.61 110.44 245.2 110.44 245.85 110.47Z" fill="white" stroke="#1F1A54" stroke-width="0.8" stroke-linecap="round" stroke-linejoin="round"/>
<path d="M241.62 117.31C239.759 116.815 237.937 116.184 236.17 115.42L233.93 114.01" fill="white"/>
<path d="M241.62 117.31C239.759 116.815 237.937 116.184 236.17 115.42L233.93 114.01" stroke="#1F1A54" stroke-width="0.8" stroke-linecap="round" stroke-linejoin="round"/>
<path d="M242.08 118.85C239.995 118.469 237.975 117.796 236.08 116.85L242.08 118.85Z" fill="white"/>
<path d="M242.08 118.85C239.995 118.469 237.975 117.796 236.08 116.85" stroke="#1F1A54" stroke-width="0.8" stroke-linecap="round" stroke-linejoin="round"/>
<path d="M143.56 260.13C143.56 260.13 143.9 260.56 143.56 262.01C143.1 264.01 141.29 265.6 135.38 265.52C131.47 265.52 112.86 264.76 111 264.52C109.14 264.28 110.7 261.52 111.38 259.24C111.38 259.24 135.85 263.37 140.45 262.33C142.5 261.89 143.67 261.11 143.56 260.13Z" fill="white"/>
<path d="M126.6 252.63C127.437 253.228 128.316 253.766 129.23 254.24C130.012 254.661 130.816 255.038 131.64 255.37C132.15 255.57 132.64 255.76 133.2 255.93L134.26 256.26C135.87 256.76 137.56 257.26 138.78 257.54C140.35 257.97 142.15 258.29 142.89 259.01C143.23 259.295 143.466 259.686 143.56 260.12C143.67 261.12 142.5 261.88 140.45 262.35C135.85 263.35 111.38 259.26 111.38 259.26C111.38 259.26 111.8 257.49 112.31 254.4C112.601 254.515 112.902 254.602 113.21 254.66C114.834 255.024 116.526 254.93 118.1 254.39C119.815 253.791 121.459 253.003 123 252.04C124 251.41 124.64 250.91 124.54 250.79C125.142 251.492 125.834 252.111 126.6 252.63Z" fill="white"/>
<path d="M123 246.8L122.88 251.8L123 252C121.469 252.964 119.836 253.756 118.13 254.36C116.557 254.9 114.864 254.994 113.24 254.63L113.3 254.35V246.76L123 246.8Z" fill="#FFD400"/>
<path d="M76.4399 249.25C76.8855 250.017 77.3695 250.761 77.8899 251.48C78.2099 251.92 78.5499 252.36 78.8899 252.79C79.1199 253.06 79.3599 253.34 79.6199 253.62C80.7199 254.9 81.8899 256.18 82.7699 257.12C83.8799 258.3 85.2299 259.53 85.4699 260.54C85.6195 260.957 85.6195 261.413 85.4699 261.83C85.0699 262.71 83.6599 262.78 81.6699 262.08C77.2199 260.52 58.6699 244.08 58.6699 244.08C58.6699 244.08 59.9999 242.75 61.9999 240.4C62.2333 240.731 62.5052 241.033 62.8099 241.3C63.9664 242.362 65.3738 243.112 66.8999 243.48C69.1046 243.966 71.3666 244.141 73.6199 244C74.0199 244 74.2499 243.9 74.2499 243.82C74.3884 244.739 74.6543 245.634 75.0399 246.48C75.4452 247.433 75.9129 248.358 76.4399 249.25Z" fill="white"/>
<path d="M85.47 261.84C85.47 261.84 85.53 262.38 84.47 263.44C83.01 264.89 80.63 265.27 75.68 262.08C72.38 259.97 56.98 249.47 55.53 248.31C54.08 247.15 56.86 245.6 58.64 244.04C58.64 244.04 77.2 260.52 81.64 262.04C83.64 262.74 85.04 262.67 85.44 261.79L85.47 261.84Z" fill="white"/>
<path d="M76 239.16L73.6 243.65V244C71.3467 244.142 69.0847 243.967 66.88 243.48C65.354 243.112 63.9465 242.362 62.79 241.3L62.89 241.19L67.14 233.81L76 239.16Z" fill="#FFD400"/>
<path d="M143.56 260.13C143.67 261.13 142.5 261.89 140.45 262.36C135.85 263.36 111.38 259.27 111.38 259.27C111.38 259.27 111.8 257.5 112.31 254.41" stroke="#1F1A54" stroke-width="0.74" stroke-linecap="round" stroke-linejoin="round"/>
<path d="M112.31 254.41C112.601 254.525 112.903 254.612 113.21 254.67C114.834 255.034 116.526 254.94 118.1 254.4C119.816 253.798 121.459 253.006 123 252.04C124 251.41 124.64 250.91 124.54 250.79C125.151 251.494 125.854 252.113 126.63 252.63C127.468 253.228 128.346 253.766 129.26 254.24C130.042 254.661 130.847 255.038 131.67 255.37C132.18 255.57 132.67 255.76 133.23 255.93L134.29 256.26C135.9 256.76 137.59 257.26 138.81 257.54C140.38 257.97 142.18 258.29 142.92 259.01C143.26 259.295 143.496 259.686 143.59 260.12" stroke="#1F1A54" stroke-width="0.74" stroke-linecap="round" stroke-linejoin="round"/>
<path d="M143.56 260.12C143.56 260.12 143.9 260.55 143.56 262C143.1 264 141.29 265.59 135.38 265.51C131.47 265.51 112.86 264.75 111 264.51C109.14 264.27 110.7 261.51 111.38 259.23" stroke="#1F1A54" stroke-width="0.74" stroke-linecap="round" stroke-linejoin="round"/>
<path d="M125.54 253.82L126.6 252.63L127.68 251.43" stroke="#1F1A54" stroke-width="0.74" stroke-linecap="round" stroke-linejoin="round"/>
<path d="M128.15 255.72L129.23 254.25L130.08 253.09" stroke="#1F1A54" stroke-width="0.74" stroke-linecap="round" stroke-linejoin="round"/>
<path d="M130.71 256.86L131.64 255.37L132.46 254.05" stroke="#1F1A54" stroke-width="0.74" stroke-linecap="round" stroke-linejoin="round"/>
<path d="M133.28 257.82L134.26 256.26L135.04 255.02" stroke="#1F1A54" stroke-width="0.74" stroke-linecap="round" stroke-linejoin="round"/>
<path d="M74.2799 243.81C74.4184 244.729 74.6843 245.624 75.0699 246.47C75.4655 247.422 75.9232 248.348 76.4399 249.24C76.8855 250.007 77.3695 250.751 77.8899 251.47C78.2099 251.91 78.5499 252.35 78.8899 252.78C79.1199 253.05 79.3599 253.33 79.6199 253.61C80.7199 254.89 81.8899 256.17 82.7699 257.11C83.8799 258.29 85.2299 259.52 85.4699 260.53C85.6195 260.947 85.6195 261.403 85.4699 261.82V261.82C85.0699 262.7 83.6599 262.77 81.6699 262.07C77.2199 260.51 58.6699 244.07 58.6699 244.07C58.6699 244.07 59.9999 242.75 61.9999 240.4C62.2333 240.731 62.5052 241.033 62.8099 241.3C63.9664 242.362 65.3738 243.112 66.8999 243.48C69.1046 243.966 71.3666 244.141 73.6199 244C74.0199 244 74.2499 243.9 74.2499 243.82" stroke="#1F1A54" stroke-width="0.74" stroke-linecap="round" stroke-linejoin="round"/>
<path d="M85.47 261.84C85.47 261.84 85.53 262.38 84.47 263.44C83.01 264.89 80.63 265.27 75.68 262.08C72.38 259.97 56.98 249.47 55.53 248.31C54.08 247.15 56.86 245.6 58.64 244.04" stroke="#1F1A54" stroke-width="0.74" stroke-linecap="round" stroke-linejoin="round"/>
<path d="M73.54 246.94L75.07 246.49L76.62 246.03" stroke="#1F1A54" stroke-width="0.74" stroke-linecap="round" stroke-linejoin="round"/>
<path d="M74.7402 249.92L76.4402 249.25L77.7902 248.72" stroke="#1F1A54" stroke-width="0.74" stroke-linecap="round" stroke-linejoin="round"/>
<path d="M76.2998 252.25L77.8898 251.48L79.2798 250.81" stroke="#1F1A54" stroke-width="0.74" stroke-linecap="round" stroke-linejoin="round"/>
<path d="M77.98 254.43L79.64 253.63L80.96 252.99" stroke="#1F1A54" stroke-width="0.74" stroke-linecap="round" stroke-linejoin="round"/>
<path d="M62.9399 241.19L67.1899 233.81L75.9899 239.17L73.5999 243.66" stroke="#1F1A54" stroke-width="0.74" stroke-linecap="round" stroke-linejoin="round"/>
<path d="M113.27 254.39V246.8H122.97L122.85 251.84" stroke="#1F1A54" stroke-width="0.74" stroke-linecap="round" stroke-linejoin="round"/>
<path d="M105.72 175.68L99.89 204.45L78.54 241.23L66.27 233.23L83.88 200L84.19 149.54C84.19 149.54 114.25 155.18 128.19 150.72L124.72 246.82H110.53V208.05L105.72 175.68Z" fill="#1F1A54" stroke="#1F1A54" stroke-width="0.46" stroke-linecap="round" stroke-linejoin="round"/>
<path d="M105.72 175.68L110.51 208.03L110.53 246.8H124.73L128.2 150.7V150.69" fill="#1F1A54"/>
<path d="M105.72 175.68L110.51 208.03L110.53 246.8H124.73L128.2 150.7V150.69" stroke="#1F1A54" stroke-width="0.46" stroke-linecap="round" stroke-linejoin="round"/>
<path d="M113.35 167L105.72 175.68L99.89 204.46L78.54 241.23L66.27 233.21L83.88 199.99L84.19 149.53" fill="#1F1A54"/>
<path d="M113.35 167L105.72 175.68L99.89 204.46L78.54 241.23L66.27 233.21L83.88 199.99L84.19 149.53" stroke="#1F1A54" stroke-width="0.46" stroke-linecap="round" stroke-linejoin="round"/>
<path d="M111.01 170.43L106.26 175.57L105.45 180.23" stroke="#F2F4F6" stroke-width="0.5" stroke-linecap="round" stroke-linejoin="round"/>
<path d="M127.67 109.16C127.52 111.04 127.34 113.61 127.34 115.01C127.34 120.53 128.04 150.73 128.04 150.73C113.89 155.25 83.4299 149.53 83.4299 149.53V112.3L73.6199 112.44C73.6199 112.44 73.1899 90.32 77.2899 85.37C80.4999 81.48 95.9399 75.8 95.9399 75.8L98.4999 78.9001C99.5251 80.1525 100.862 81.1125 102.377 81.6836C103.891 82.2547 105.53 82.4166 107.126 82.1529C108.723 81.8893 110.223 81.2095 111.473 80.182C112.724 79.1545 113.681 77.8155 114.25 76.3C114.25 76.3 116.9 76.59 122.87 79.19C123.52 79.47 124.21 79.32 125.27 79.73L143 86.57L141.8 93.75L140.36 104.38L136 104.84L131.38 105.37L129.17 106.46L127.63 109.46" fill="#FFD400"/>
<path d="M79.3501 93.25C79.1523 93.25 78.959 93.3086 78.7945 93.4185C78.6301 93.5284 78.5019 93.6846 78.4262 93.8673C78.3505 94.05 78.3307 94.2511 78.3693 94.4451C78.4079 94.6391 78.5031 94.8173 78.643 94.9571C78.7828 95.097 78.961 95.1922 79.155 95.2308C79.349 95.2694 79.5501 95.2496 79.7328 95.1739C79.9155 95.0982 80.0717 94.97 80.1816 94.8056C80.2914 94.6411 80.3501 94.4478 80.3501 94.25C80.3501 93.9848 80.2447 93.7304 80.0572 93.5429C79.8697 93.3554 79.6153 93.25 79.3501 93.25Z" fill="white"/>
<path d="M83.3896 84.75C83.1919 84.75 82.9985 84.8086 82.8341 84.9185C82.6696 85.0284 82.5415 85.1846 82.4658 85.3673C82.3901 85.55 82.3703 85.7511 82.4089 85.9451C82.4474 86.1391 82.5427 86.3173 82.6825 86.4571C82.8224 86.597 83.0006 86.6922 83.1946 86.7308C83.3885 86.7694 83.5896 86.7496 83.7723 86.6739C83.9551 86.5982 84.1112 86.47 84.2211 86.3056C84.331 86.1411 84.3896 85.9478 84.3896 85.75C84.3896 85.4848 84.2843 85.2304 84.0968 85.0429C83.9092 84.8554 83.6549 84.75 83.3896 84.75Z" fill="white"/>
<path d="M83.8599 102.29C83.6621 102.29 83.4687 102.349 83.3043 102.459C83.1398 102.568 83.0117 102.725 82.936 102.907C82.8603 103.09 82.8405 103.291 82.8791 103.485C82.9177 103.679 83.0129 103.857 83.1528 103.997C83.2926 104.137 83.4708 104.232 83.6648 104.271C83.8588 104.309 84.0598 104.29 84.2425 104.214C84.4253 104.138 84.5815 104.01 84.6913 103.846C84.8012 103.681 84.8599 103.488 84.8599 103.29C84.8599 103.025 84.7545 102.77 84.567 102.583C84.3794 102.395 84.1251 102.29 83.8599 102.29Z" fill="white"/>
<path d="M78.3599 106.57C78.1621 106.57 77.9687 106.629 77.8043 106.739C77.6398 106.848 77.5117 107.005 77.436 107.187C77.3603 107.37 77.3405 107.571 77.3791 107.765C77.4177 107.959 77.5129 108.137 77.6528 108.277C77.7926 108.417 77.9708 108.512 78.1648 108.551C78.3588 108.589 78.5598 108.57 78.7425 108.494C78.9253 108.418 79.0815 108.29 79.1913 108.126C79.3012 107.961 79.3599 107.768 79.3599 107.57C79.3599 107.305 79.2545 107.05 79.067 106.863C78.8794 106.675 78.6251 106.57 78.3599 106.57Z" fill="white"/>
<path d="M88.3799 93.25C88.1821 93.25 87.9888 93.3086 87.8243 93.4185C87.6599 93.5284 87.5317 93.6846 87.456 93.8673C87.3803 94.05 87.3605 94.2511 87.3991 94.4451C87.4377 94.6391 87.5329 94.8173 87.6728 94.9571C87.8126 95.097 87.9908 95.1922 88.1848 95.2308C88.3788 95.2694 88.5798 95.2496 88.7626 95.1739C88.9453 95.0982 89.1015 94.97 89.2114 94.8056C89.3212 94.6411 89.3799 94.4478 89.3799 94.25C89.3799 93.9848 89.2745 93.7304 89.087 93.5429C88.8995 93.3554 88.6451 93.25 88.3799 93.25Z" fill="white"/>
<path d="M88.3799 129.39C88.1821 129.39 87.9888 129.449 87.8243 129.559C87.6599 129.669 87.5317 129.825 87.456 130.007C87.3803 130.19 87.3605 130.391 87.3991 130.585C87.4377 130.779 87.5329 130.957 87.6728 131.097C87.8126 131.237 87.9908 131.332 88.1848 131.371C88.3788 131.41 88.5798 131.39 88.7626 131.314C88.9453 131.238 89.1015 131.11 89.2114 130.946C89.3212 130.781 89.3799 130.588 89.3799 130.39C89.3799 130.125 89.2745 129.871 89.087 129.683C88.8995 129.495 88.6451 129.39 88.3799 129.39Z" fill="white"/>
<path d="M92.8999 120.35C92.7021 120.35 92.5088 120.409 92.3443 120.519C92.1799 120.629 92.0517 120.785 91.976 120.967C91.9003 121.15 91.8805 121.351 91.9191 121.545C91.9577 121.739 92.0529 121.917 92.1928 122.057C92.3326 122.197 92.5108 122.292 92.7048 122.331C92.8988 122.369 93.0999 122.35 93.2826 122.274C93.4653 122.198 93.6215 122.07 93.7314 121.906C93.8413 121.741 93.8999 121.548 93.8999 121.35C93.8999 121.085 93.7945 120.831 93.607 120.643C93.4195 120.455 93.1651 120.35 92.8999 120.35Z" fill="white"/>
<path d="M92.8999 138.42C92.7021 138.42 92.5088 138.479 92.3443 138.589C92.1799 138.699 92.0517 138.855 91.976 139.037C91.9003 139.22 91.8805 139.421 91.9191 139.615C91.9577 139.809 92.0529 139.987 92.1928 140.127C92.3326 140.267 92.5108 140.362 92.7048 140.401C92.8988 140.44 93.0999 140.42 93.2826 140.344C93.4653 140.268 93.6215 140.14 93.7314 139.976C93.8413 139.811 93.8999 139.618 93.8999 139.42C93.8999 139.155 93.7945 138.901 93.607 138.713C93.4195 138.526 93.1651 138.42 92.8999 138.42Z" fill="white"/>
<path d="M97.4199 93.25C97.2221 93.25 97.0288 93.3086 96.8644 93.4185C96.6999 93.5284 96.5717 93.6846 96.496 93.8673C96.4204 94.05 96.4006 94.2511 96.4391 94.4451C96.4777 94.6391 96.573 94.8173 96.7128 94.9571C96.8527 95.097 97.0309 95.1922 97.2248 95.2308C97.4188 95.2694 97.6199 95.2496 97.8026 95.1739C97.9853 95.0982 98.1415 94.97 98.2514 94.8056C98.3613 94.6411 98.4199 94.4478 98.4199 94.25C98.4199 93.9848 98.3146 93.7304 98.127 93.5429C97.9395 93.3554 97.6851 93.25 97.4199 93.25Z" fill="white"/>
<path d="M97.4199 111.32C97.2221 111.32 97.0288 111.379 96.8644 111.489C96.6999 111.598 96.5717 111.755 96.496 111.937C96.4204 112.12 96.4006 112.321 96.4391 112.515C96.4777 112.709 96.573 112.887 96.7128 113.027C96.8527 113.167 97.0309 113.262 97.2248 113.301C97.4188 113.339 97.6199 113.32 97.8026 113.244C97.9853 113.168 98.1415 113.04 98.2514 112.876C98.3613 112.711 98.4199 112.518 98.4199 112.32C98.4199 112.055 98.3146 111.8 98.127 111.613C97.9395 111.425 97.6851 111.32 97.4199 111.32Z" fill="white"/>
<path d="M92.8999 102.29C92.7021 102.29 92.5088 102.349 92.3443 102.459C92.1799 102.568 92.0517 102.725 91.976 102.907C91.9003 103.09 91.8805 103.291 91.9191 103.485C91.9577 103.679 92.0529 103.857 92.1928 103.997C92.3326 104.137 92.5108 104.232 92.7048 104.271C92.8988 104.309 93.0999 104.29 93.2826 104.214C93.4653 104.138 93.6215 104.01 93.7314 103.846C93.8413 103.681 93.8999 103.488 93.8999 103.29C93.8999 103.025 93.7945 102.77 93.607 102.583C93.4195 102.395 93.1651 102.29 92.8999 102.29Z" fill="white"/>
<path d="M97.4199 129.39C97.2221 129.39 97.0288 129.449 96.8644 129.559C96.6999 129.669 96.5717 129.825 96.496 130.007C96.4204 130.19 96.4006 130.391 96.4391 130.585C96.4777 130.779 96.573 130.957 96.7128 131.097C96.8527 131.237 97.0309 131.332 97.2248 131.371C97.4188 131.41 97.6199 131.39 97.8026 131.314C97.9853 131.238 98.1415 131.11 98.2514 130.946C98.3613 130.781 98.4199 130.588 98.4199 130.39C98.4199 130.125 98.3146 129.871 98.127 129.683C97.9395 129.495 97.6851 129.39 97.4199 129.39Z" fill="white"/>
<path d="M92.8999 84.22C92.7021 84.22 92.5088 84.2786 92.3443 84.3885C92.1799 84.4984 92.0517 84.6546 91.976 84.8373C91.9003 85.02 91.8805 85.2211 91.9191 85.4151C91.9577 85.609 92.0529 85.7872 92.1928 85.9271C92.3326 86.0669 92.5108 86.1622 92.7048 86.2008C92.8988 86.2393 93.0999 86.2195 93.2826 86.1438C93.4653 86.0682 93.6215 85.94 93.7314 85.7755C93.8413 85.6111 93.8999 85.4178 93.8999 85.22C93.8999 84.9548 93.7945 84.7004 93.607 84.5129C93.4195 84.3253 93.1651 84.22 92.8999 84.22Z" fill="white"/>
<path d="M102.49 84.22C102.292 84.22 102.099 84.2786 101.934 84.3885C101.77 84.4984 101.642 84.6546 101.566 84.8373C101.49 85.02 101.47 85.2211 101.509 85.4151C101.548 85.609 101.643 85.7872 101.783 85.9271C101.922 86.0669 102.101 86.1622 102.295 86.2008C102.489 86.2393 102.69 86.2195 102.872 86.1438C103.055 86.0682 103.211 85.94 103.321 85.7755C103.431 85.6111 103.49 85.4178 103.49 85.22C103.49 84.9548 103.384 84.7004 103.197 84.5129C103.009 84.3253 102.755 84.22 102.49 84.22Z" fill="white"/>
<path d="M111.12 84.22C110.922 84.22 110.729 84.2786 110.564 84.3885C110.4 84.4984 110.271 84.6546 110.196 84.8373C110.12 85.02 110.1 85.2211 110.139 85.4151C110.177 85.609 110.273 85.7872 110.413 85.9271C110.552 86.0669 110.731 86.1622 110.925 86.2008C111.119 86.2393 111.32 86.2195 111.502 86.1438C111.685 86.0682 111.841 85.94 111.951 85.7755C112.061 85.6111 112.12 85.4178 112.12 85.22C112.12 84.9548 112.014 84.7004 111.827 84.5129C111.639 84.3253 111.385 84.22 111.12 84.22Z" fill="white"/>
<path d="M120.72 84.22C120.522 84.22 120.329 84.2786 120.164 84.3885C120 84.4984 119.872 84.6546 119.796 84.8373C119.72 85.02 119.7 85.2211 119.739 85.4151C119.778 85.609 119.873 85.7872 120.013 85.9271C120.152 86.0669 120.331 86.1622 120.525 86.2008C120.719 86.2393 120.92 86.2195 121.102 86.1438C121.285 86.0682 121.441 85.94 121.551 85.7755C121.661 85.6111 121.72 85.4178 121.72 85.22C121.72 84.9548 121.614 84.7004 121.427 84.5129C121.239 84.3253 120.985 84.22 120.72 84.22Z" fill="white"/>
<path d="M129.19 85.2C128.992 85.2 128.799 85.2586 128.634 85.3685C128.47 85.4784 128.342 85.6345 128.266 85.8173C128.19 86 128.171 86.2011 128.209 86.395C128.248 86.589 128.343 86.7672 128.483 86.9071C128.623 87.0469 128.801 87.1422 128.995 87.1807C129.189 87.2193 129.39 87.1995 129.573 87.1238C129.755 87.0481 129.912 86.92 130.021 86.7555C130.131 86.5911 130.19 86.3977 130.19 86.2C130.19 85.9347 130.085 85.6804 129.897 85.4928C129.71 85.3053 129.455 85.2 129.19 85.2Z" fill="white"/>
<path d="M116.62 77.75C116.422 77.75 116.229 77.8086 116.064 77.9185C115.9 78.0284 115.771 78.1846 115.696 78.3673C115.62 78.55 115.6 78.7511 115.639 78.9451C115.677 79.1391 115.773 79.3173 115.913 79.4571C116.052 79.597 116.231 79.6922 116.425 79.7308C116.619 79.7694 116.82 79.7496 117.002 79.6739C117.185 79.5982 117.341 79.47 117.451 79.3056C117.561 79.1411 117.62 78.9478 117.62 78.75C117.62 78.4848 117.514 78.2304 117.327 78.0429C117.139 77.8554 116.885 77.75 116.62 77.75Z" fill="white"/>
<path d="M95.4497 77.75C95.2519 77.75 95.0586 77.8086 94.8941 77.9185C94.7297 78.0284 94.6015 78.1846 94.5258 78.3673C94.4501 78.55 94.4303 78.7511 94.4689 78.9451C94.5075 79.1391 94.6027 79.3173 94.7426 79.4571C94.8825 79.597 95.0606 79.6922 95.2546 79.7308C95.4486 79.7694 95.6497 79.7496 95.8324 79.6739C96.0151 79.5982 96.1713 79.47 96.2812 79.3056C96.3911 79.1411 96.4497 78.9478 96.4497 78.75C96.4497 78.4848 96.3444 78.2304 96.1568 78.0429C95.9693 77.8554 95.7149 77.75 95.4497 77.75Z" fill="white"/>
<path d="M101.93 122.32C102.127 122.32 102.321 122.261 102.485 122.152C102.65 122.042 102.778 121.885 102.854 121.703C102.929 121.52 102.949 121.319 102.91 121.125C102.872 120.931 102.777 120.753 102.637 120.613C102.497 120.473 102.319 120.378 102.125 120.339C101.931 120.301 101.73 120.32 101.547 120.396C101.364 120.472 101.208 120.6 101.098 120.764C100.988 120.929 100.93 121.122 100.93 121.32C100.93 121.585 101.035 121.84 101.223 122.027C101.41 122.215 101.664 122.32 101.93 122.32Z" fill="white"/>
<path d="M101.93 104.25C102.127 104.25 102.321 104.191 102.485 104.081C102.65 103.972 102.778 103.815 102.854 103.633C102.929 103.45 102.949 103.249 102.91 103.055C102.872 102.861 102.777 102.683 102.637 102.543C102.497 102.403 102.319 102.308 102.125 102.269C101.931 102.231 101.73 102.25 101.547 102.326C101.364 102.402 101.208 102.53 101.098 102.694C100.988 102.859 100.93 103.052 100.93 103.25C100.93 103.515 101.035 103.77 101.223 103.957C101.41 104.145 101.664 104.25 101.93 104.25Z" fill="white"/>
<path d="M111.12 120.23C110.922 120.23 110.729 120.289 110.564 120.399C110.4 120.508 110.271 120.665 110.196 120.847C110.12 121.03 110.1 121.231 110.139 121.425C110.177 121.619 110.273 121.797 110.413 121.937C110.552 122.077 110.731 122.172 110.925 122.211C111.119 122.249 111.32 122.23 111.502 122.154C111.685 122.078 111.841 121.95 111.951 121.786C112.061 121.621 112.12 121.428 112.12 121.23C112.12 120.965 112.014 120.71 111.827 120.523C111.639 120.335 111.385 120.23 111.12 120.23Z" fill="white"/>
<path d="M106.61 93.1301C106.412 93.1301 106.219 93.1888 106.054 93.2987C105.89 93.4085 105.762 93.5647 105.686 93.7474C105.61 93.9302 105.59 94.1312 105.629 94.3252C105.668 94.5192 105.763 94.6974 105.903 94.8372C106.043 94.9771 106.221 95.0723 106.415 95.1109C106.609 95.1495 106.81 95.1297 106.993 95.054C107.175 94.9783 107.331 94.8501 107.441 94.6857C107.551 94.5212 107.61 94.3279 107.61 94.1301C107.61 93.8649 107.505 93.6106 107.317 93.423C107.129 93.2355 106.875 93.1301 106.61 93.1301Z" fill="white"/>
<path d="M111.12 102.16C110.922 102.16 110.729 102.219 110.564 102.329C110.4 102.439 110.271 102.595 110.196 102.777C110.12 102.96 110.1 103.161 110.139 103.355C110.177 103.549 110.273 103.727 110.413 103.867C110.552 104.007 110.731 104.102 110.925 104.141C111.119 104.18 111.32 104.16 111.502 104.084C111.685 104.008 111.841 103.88 111.951 103.716C112.061 103.551 112.12 103.358 112.12 103.16C112.12 102.895 112.014 102.641 111.827 102.453C111.639 102.266 111.385 102.16 111.12 102.16Z" fill="white"/>
<path d="M106.61 111.2C106.412 111.2 106.219 111.259 106.054 111.368C105.89 111.478 105.762 111.635 105.686 111.817C105.61 112 105.59 112.201 105.629 112.395C105.668 112.589 105.763 112.767 105.903 112.907C106.043 113.047 106.221 113.142 106.415 113.181C106.609 113.219 106.81 113.2 106.993 113.124C107.175 113.048 107.331 112.92 107.441 112.756C107.551 112.591 107.61 112.398 107.61 112.2C107.61 111.935 107.505 111.68 107.317 111.493C107.129 111.305 106.875 111.2 106.61 111.2Z" fill="white"/>
<path d="M106.61 129.26C106.412 129.26 106.219 129.319 106.054 129.429C105.89 129.538 105.762 129.695 105.686 129.877C105.61 130.06 105.59 130.261 105.629 130.455C105.668 130.649 105.763 130.827 105.903 130.967C106.043 131.107 106.221 131.202 106.415 131.241C106.609 131.279 106.81 131.26 106.993 131.184C107.175 131.108 107.331 130.98 107.441 130.816C107.551 130.651 107.61 130.458 107.61 130.26C107.61 129.995 107.505 129.74 107.317 129.553C107.129 129.365 106.875 129.26 106.61 129.26Z" fill="white"/>
<path d="M102.05 138.75C101.852 138.75 101.659 138.809 101.494 138.919C101.33 139.028 101.202 139.185 101.126 139.367C101.05 139.55 101.03 139.751 101.069 139.945C101.108 140.139 101.203 140.317 101.343 140.457C101.483 140.597 101.661 140.692 101.855 140.731C102.049 140.769 102.25 140.75 102.432 140.674C102.615 140.598 102.771 140.47 102.881 140.306C102.991 140.141 103.05 139.948 103.05 139.75C103.05 139.485 102.944 139.23 102.757 139.043C102.569 138.855 102.315 138.75 102.05 138.75Z" fill="white"/>
<path d="M115.64 95.0901C115.837 95.0901 116.031 95.0314 116.195 94.9216C116.36 94.8117 116.488 94.6555 116.564 94.4728C116.639 94.29 116.659 94.089 116.62 93.895C116.582 93.701 116.487 93.5228 116.347 93.383C116.207 93.2431 116.029 93.1479 115.835 93.1093C115.641 93.0707 115.44 93.0905 115.257 93.1662C115.074 93.2419 114.918 93.3701 114.808 93.5345C114.698 93.699 114.64 93.8923 114.64 94.0901C114.64 94.3553 114.745 94.6097 114.933 94.7972C115.12 94.9847 115.374 95.0901 115.64 95.0901Z" fill="white"/>
<path d="M115.64 113.16C115.837 113.16 116.031 113.102 116.195 112.992C116.36 112.882 116.488 112.726 116.564 112.543C116.639 112.36 116.659 112.159 116.62 111.965C116.582 111.771 116.487 111.593 116.347 111.453C116.207 111.313 116.029 111.218 115.835 111.179C115.641 111.141 115.44 111.161 115.257 111.236C115.074 111.312 114.918 111.44 114.808 111.605C114.698 111.769 114.64 111.962 114.64 112.16C114.64 112.425 114.745 112.68 114.933 112.867C115.12 113.055 115.374 113.16 115.64 113.16Z" fill="white"/>
<path d="M116.62 130.25C116.62 130.052 116.561 129.859 116.451 129.694C116.341 129.53 116.185 129.402 116.002 129.326C115.82 129.25 115.619 129.231 115.425 129.269C115.231 129.308 115.052 129.403 114.913 129.543C114.773 129.683 114.677 129.861 114.639 130.055C114.6 130.249 114.62 130.45 114.696 130.633C114.771 130.815 114.9 130.972 115.064 131.081C115.229 131.191 115.422 131.25 115.62 131.25C115.885 131.25 116.139 131.145 116.327 130.957C116.514 130.77 116.62 130.515 116.62 130.25Z" fill="white"/>
<path d="M120.16 120.23C119.962 120.23 119.769 120.289 119.604 120.399C119.44 120.508 119.311 120.665 119.236 120.847C119.16 121.03 119.14 121.231 119.179 121.425C119.217 121.619 119.313 121.797 119.453 121.937C119.592 122.077 119.771 122.172 119.965 122.211C120.159 122.249 120.36 122.23 120.542 122.154C120.725 122.078 120.881 121.95 120.991 121.786C121.101 121.621 121.16 121.428 121.16 121.23C121.16 120.965 121.054 120.71 120.867 120.523C120.679 120.335 120.425 120.23 120.16 120.23Z" fill="white"/>
<path d="M120.16 138.75C119.894 138.75 119.64 138.855 119.453 139.043C119.265 139.23 119.16 139.485 119.16 139.75C119.16 140.015 119.265 140.27 119.453 140.457C119.64 140.645 119.894 140.75 120.16 140.75C120.425 140.75 120.679 140.645 120.867 140.457C121.054 140.27 121.16 140.015 121.16 139.75C121.16 139.485 121.054 139.23 120.867 139.043C120.679 138.855 120.425 138.75 120.16 138.75Z" fill="white"/>
<path d="M111.07 138.75C110.872 138.75 110.679 138.809 110.514 138.919C110.35 139.028 110.222 139.185 110.146 139.367C110.07 139.55 110.05 139.751 110.089 139.945C110.128 140.139 110.223 140.317 110.363 140.457C110.503 140.597 110.681 140.692 110.875 140.731C111.069 140.769 111.27 140.75 111.453 140.674C111.635 140.598 111.791 140.47 111.901 140.306C112.011 140.141 112.07 139.948 112.07 139.75C112.07 139.485 111.964 139.23 111.777 139.043C111.589 138.855 111.335 138.75 111.07 138.75Z" fill="white"/>
<path d="M88.3599 144.26C88.1621 144.26 87.9687 144.319 87.8043 144.429C87.6398 144.538 87.5117 144.695 87.436 144.877C87.3603 145.06 87.3405 145.261 87.3791 145.455C87.4177 145.649 87.5129 145.827 87.6528 145.967C87.7926 146.107 87.9708 146.202 88.1648 146.241C88.3588 146.279 88.5598 146.26 88.7425 146.184C88.9253 146.108 89.0815 145.98 89.1913 145.816C89.3012 145.651 89.3599 145.458 89.3599 145.26C89.3599 144.995 89.2545 144.74 89.067 144.553C88.8794 144.365 88.6251 144.26 88.3599 144.26Z" fill="white"/>
<path d="M106.47 147.06C106.272 147.06 106.079 147.119 105.914 147.229C105.75 147.338 105.622 147.495 105.546 147.677C105.47 147.86 105.45 148.061 105.489 148.255C105.528 148.449 105.623 148.627 105.763 148.767C105.902 148.907 106.081 149.002 106.275 149.041C106.469 149.079 106.67 149.06 106.852 148.984C107.035 148.908 107.191 148.78 107.301 148.616C107.411 148.451 107.47 148.258 107.47 148.06C107.47 147.795 107.364 147.54 107.177 147.353C106.989 147.165 106.735 147.06 106.47 147.06Z" fill="white"/>
<path d="M116.62 147.06C116.422 147.06 116.229 147.119 116.064 147.229C115.9 147.338 115.771 147.495 115.696 147.677C115.62 147.86 115.6 148.061 115.639 148.255C115.677 148.449 115.773 148.627 115.913 148.767C116.052 148.907 116.231 149.002 116.425 149.041C116.619 149.079 116.82 149.06 117.002 148.984C117.185 148.908 117.341 148.78 117.451 148.616C117.561 148.451 117.62 148.258 117.62 148.06C117.62 147.795 117.514 147.54 117.327 147.353C117.139 147.165 116.885 147.06 116.62 147.06Z" fill="white"/>
<path d="M126.11 146.22C125.912 146.22 125.719 146.279 125.554 146.388C125.39 146.498 125.262 146.655 125.186 146.837C125.11 147.02 125.09 147.221 125.129 147.415C125.168 147.609 125.263 147.787 125.403 147.927C125.543 148.067 125.721 148.162 125.915 148.201C126.109 148.239 126.31 148.22 126.493 148.144C126.675 148.068 126.831 147.94 126.941 147.776C127.051 147.611 127.11 147.418 127.11 147.22C127.11 146.955 127.005 146.7 126.817 146.513C126.629 146.325 126.375 146.22 126.11 146.22Z" fill="white"/>
<path d="M97.3896 146.12C97.1919 146.12 96.9985 146.179 96.8341 146.289C96.6696 146.399 96.5415 146.555 96.4658 146.737C96.3901 146.92 96.3703 147.121 96.4089 147.315C96.4474 147.509 96.5427 147.687 96.6825 147.827C96.8224 147.967 97.0006 148.062 97.1946 148.101C97.3885 148.139 97.5896 148.12 97.7723 148.044C97.9551 147.968 98.1112 147.84 98.2211 147.676C98.331 147.511 98.3896 147.318 98.3896 147.12C98.3896 146.855 98.2843 146.601 98.0968 146.413C97.9092 146.225 97.6549 146.12 97.3896 146.12Z" fill="white"/>
<path d="M124.67 95.0901C124.868 95.0901 125.061 95.0314 125.225 94.9216C125.39 94.8117 125.518 94.6555 125.594 94.4728C125.669 94.29 125.689 94.089 125.651 93.895C125.612 93.701 125.517 93.5228 125.377 93.383C125.237 93.2431 125.059 93.1479 124.865 93.1093C124.671 93.0707 124.47 93.0905 124.287 93.1662C124.105 93.2419 123.948 93.3701 123.838 93.5345C123.729 93.699 123.67 93.8923 123.67 94.0901C123.67 94.3553 123.775 94.6097 123.963 94.7972C124.15 94.9847 124.405 95.0901 124.67 95.0901Z" fill="white"/>
<path d="M129.72 103.27C129.918 103.27 130.111 103.211 130.275 103.101C130.44 102.992 130.568 102.835 130.644 102.653C130.719 102.47 130.739 102.269 130.701 102.075C130.662 101.881 130.567 101.703 130.427 101.563C130.287 101.423 130.109 101.328 129.915 101.289C129.721 101.251 129.52 101.27 129.337 101.346C129.154 101.422 128.998 101.55 128.888 101.714C128.778 101.879 128.72 102.072 128.72 102.27C128.72 102.535 128.825 102.79 129.013 102.977C129.2 103.165 129.455 103.27 129.72 103.27Z" fill="white"/>
<path d="M132.91 95.0901C133.107 95.0901 133.301 95.0314 133.465 94.9216C133.63 94.8117 133.758 94.6555 133.834 94.4728C133.909 94.29 133.929 94.089 133.89 93.895C133.852 93.701 133.757 93.5228 133.617 93.383C133.477 93.2431 133.299 93.1479 133.105 93.1093C132.911 93.0707 132.71 93.0905 132.527 93.1662C132.344 93.2419 132.188 93.3701 132.078 93.5345C131.968 93.699 131.91 93.8923 131.91 94.0901C131.91 94.3553 132.015 94.6097 132.203 94.7972C132.39 94.9847 132.644 95.0901 132.91 95.0901Z" fill="white"/>
<path d="M138.12 88.1301C138.385 88.1301 138.639 88.0248 138.827 87.8372C139.014 87.6497 139.12 87.3953 139.12 87.1301C139.12 86.8649 139.014 86.6106 138.827 86.423C138.639 86.2355 138.385 86.1301 138.12 86.1301C137.854 86.1301 137.6 86.2355 137.413 86.423C137.225 86.6106 137.12 86.8649 137.12 87.1301C137.12 87.3953 137.225 87.6497 137.413 87.8372C137.6 88.0248 137.854 88.1301 138.12 88.1301Z" fill="white"/>
<path d="M137.7 101.29C137.897 101.29 138.091 101.231 138.255 101.122C138.42 101.012 138.548 100.855 138.624 100.673C138.699 100.49 138.719 100.289 138.68 100.095C138.642 99.901 138.547 99.7228 138.407 99.5829C138.267 99.4431 138.089 99.3478 137.895 99.3093C137.701 99.2707 137.5 99.2905 137.317 99.3662C137.134 99.4418 136.978 99.57 136.868 99.7345C136.758 99.8989 136.7 100.092 136.7 100.29C136.7 100.555 136.805 100.81 136.993 100.997C137.18 101.185 137.434 101.29 137.7 101.29Z" fill="white"/>
<path d="M124.67 113.16C124.868 113.16 125.061 113.102 125.225 112.992C125.39 112.882 125.518 112.726 125.594 112.543C125.669 112.36 125.689 112.159 125.651 111.965C125.612 111.771 125.517 111.593 125.377 111.453C125.237 111.313 125.059 111.218 124.865 111.179C124.671 111.141 124.47 111.161 124.287 111.236C124.105 111.312 123.948 111.44 123.838 111.605C123.729 111.769 123.67 111.962 123.67 112.16C123.67 112.425 123.775 112.68 123.963 112.867C124.15 113.055 124.405 113.16 124.67 113.16Z" fill="white"/>
<path d="M120.16 102.16C119.962 102.16 119.769 102.219 119.604 102.329C119.44 102.439 119.311 102.595 119.236 102.777C119.16 102.96 119.14 103.161 119.179 103.355C119.217 103.549 119.313 103.727 119.453 103.867C119.592 104.007 119.771 104.102 119.965 104.141C120.159 104.18 120.36 104.16 120.542 104.084C120.725 104.008 120.881 103.88 120.991 103.716C121.101 103.551 121.16 103.358 121.16 103.16C121.16 102.895 121.054 102.641 120.867 102.453C120.679 102.266 120.425 102.16 120.16 102.16Z" fill="white"/>
<path d="M125.66 130.25C125.66 130.052 125.601 129.859 125.491 129.694C125.381 129.53 125.225 129.402 125.042 129.326C124.86 129.25 124.659 129.231 124.465 129.269C124.271 129.308 124.092 129.403 123.953 129.543C123.813 129.683 123.717 129.861 123.679 130.055C123.64 130.249 123.66 130.45 123.736 130.633C123.811 130.815 123.94 130.972 124.104 131.081C124.269 131.191 124.462 131.25 124.66 131.25C124.925 131.25 125.179 131.145 125.367 130.957C125.554 130.77 125.66 130.515 125.66 130.25Z" fill="white"/>
<path d="M83.4299 112.3L73.6199 112.44C73.6199 112.44 73.1899 90.32 77.2899 85.37C80.4999 81.48 95.9399 75.8 95.9399 75.8L98.4999 78.9001C99.5251 80.1525 100.862 81.1125 102.377 81.6836C103.891 82.2547 105.53 82.4166 107.126 82.1529C108.723 81.8893 110.223 81.2095 111.473 80.182C112.724 79.1545 113.681 77.8155 114.25 76.3L123.69 79.05L125.91 79.92L142.91 86.57L140.31 104.38C140.31 104.38 128.16 102.48 127.54 109.96C127.38 111.84 127.29 113.61 127.29 115.01C127.29 120.53 127.99 150.73 127.99 150.73C113.84 155.25 83.3799 149.53 83.3799 149.53L83.4299 112.3Z" stroke="#1F1A54" stroke-width="0.8" stroke-linecap="round" stroke-linejoin="round"/>
<path d="M88.6099 99.22L90.7799 112.18L83.4199 112.31" stroke="#1F1A54" stroke-width="0.8" stroke-linecap="round" stroke-linejoin="round"/>
<path d="M91.9998 173.31C92.1751 173.493 92.3924 173.631 92.6329 173.711C92.8733 173.791 93.1297 173.811 93.3798 173.77C94.2398 173.71 94.7998 172.58 94.7998 172.58C94.9425 172.799 95.1364 172.98 95.3646 173.107C95.5928 173.234 95.8486 173.304 96.1098 173.31C96.8798 173.31 97.7398 172.61 97.9598 170.94C98.0627 169.284 97.8972 167.623 97.4698 166.02C96.6298 162.96 101.37 168.6 102.89 166.51C104.08 164.89 98.4798 160.19 94.2698 156.21C92.3498 154.39 90.8598 150.21 90.1698 146.46C88.9298 139.83 87.6398 129.39 86.4298 125.06C87.1598 117.97 87.3798 112.3 87.3798 112.3L75.2798 112.5L75.6598 125.96C77.2298 139.29 81.2298 147.85 82.4098 153.19C82.4098 153.19 82.4698 153.47 82.5898 153.95C82.5898 153.95 84.5198 161.55 84.6598 165.07C84.6598 165.07 84.2398 174.01 88.0398 174.01C89.0398 174.01 89.2198 173.44 89.2198 173.44C89.4028 173.624 89.6211 173.77 89.8617 173.868C90.1022 173.966 90.3601 174.014 90.6198 174.01C90.8823 173.991 91.1385 173.92 91.3736 173.802C91.6087 173.683 91.8181 173.52 91.9898 173.32L91.9998 173.31Z" fill="white"/>
<path d="M91.4702 171.28C91.4099 171.991 91.6049 172.7 92.0202 173.28C92.1956 173.463 92.4129 173.601 92.6533 173.681C92.8938 173.761 93.1501 173.781 93.4002 173.74C94.2602 173.68 94.8202 172.55 94.8202 172.55" stroke="#1F1A54" stroke-width="0.8" stroke-linecap="round" stroke-linejoin="round"/>
<path d="M88.3701 170.94C88.3802 171.846 88.6857 172.724 89.2401 173.44C89.4231 173.624 89.6414 173.77 89.882 173.868C90.1226 173.966 90.3804 174.014 90.6401 174.01C90.9026 173.991 91.1588 173.92 91.3939 173.801C91.629 173.683 91.8384 173.519 92.0101 173.32" stroke="#1F1A54" stroke-width="0.8" stroke-linecap="round" stroke-linejoin="round"/>
<path d="M94.1798 170.95C94.2701 171.534 94.4887 172.091 94.8198 172.58C94.9625 172.799 95.1564 172.98 95.3846 173.107C95.6129 173.234 95.8686 173.304 96.1298 173.31C96.8998 173.31 97.7598 172.61 97.9798 170.94C98.0827 169.284 97.9172 167.623 97.4898 166.02C96.6498 162.96 101.39 168.6 102.91 166.51C104.1 164.89 98.4998 160.19 94.2898 156.21C92.3698 154.39 90.8798 150.21 90.1898 146.46C88.9498 139.83 87.6598 129.39 86.4498 125.06C87.1798 117.97 87.3998 112.3 87.3998 112.3L75.2998 112.5L75.6798 125.96C77.2498 139.29 81.2498 147.85 82.4298 153.19C82.4298 153.19 82.4898 153.47 82.6098 153.95C82.6098 153.95 84.5398 161.55 84.6798 165.07C84.6798 165.07 84.2598 174.01 88.0598 174.01C89.0598 174.01 89.2398 173.44 89.2398 173.44" stroke="#1F1A54" stroke-width="0.8" stroke-linecap="round" stroke-linejoin="round"/>
<path d="M119.15 49.03C118.295 49.4035 117.355 49.5382 116.43 49.42C115.36 49.12 114.71 47.42 113.81 46.79C113.344 46.44 112.807 46.196 112.237 46.0751C111.667 45.9542 111.078 45.9593 110.51 46.09C110.69 46.24 110.25 48.67 109.44 48.43C108.44 48.14 106.61 49.07 105.44 48.6C104.68 48.29 104.52 47.33 103.85 47.03C102.16 46.3 102.45 46.55 102.36 46.5C102.36 46.61 101.88 46.27 101.89 48.6C101.89 49.02 101.89 49.48 101.89 49.99C101.879 50.1334 101.849 50.2747 101.8 50.41C101.61 51.02 101.07 51.55 100.92 52.05C100.877 52.3642 100.898 52.6837 100.98 52.99C100.594 53.7537 100.06 54.4334 99.41 54.99C98.7131 53.5432 97.5211 52.3938 96.05 51.75C95.2525 51.4658 94.3784 51.484 93.5933 51.8009C92.8083 52.1179 92.1667 52.7118 91.79 53.47C91.67 52.94 91.37 52.23 91.05 51.33C91.24 50.39 91.95 49.2 91.05 48.67C90.8072 48.5263 90.6064 48.3214 90.4678 48.0757C90.3291 47.8299 90.2575 47.5521 90.26 47.27C90.2545 47.1667 90.2545 47.0633 90.26 46.96C90.2987 46.2835 90.4094 45.6131 90.59 44.96C90.8 43.96 91.84 44.17 92.33 43.55C92.82 42.93 92.77 41.55 93.33 41.16C93.7776 40.854 94.2656 40.6116 94.78 40.44C94.9665 40.3551 95.1608 40.2881 95.36 40.24C95.51 40.01 95.65 39.76 95.81 39.55C95.7741 39.4553 95.744 39.3584 95.72 39.26C95.6078 38.7291 95.6722 38.176 95.9032 37.685C96.1343 37.194 96.5194 36.792 97 36.54C97.3941 36.2228 97.8964 36.0721 98.4 36.12C99.5662 36.1149 100.729 35.9909 101.87 35.75C102.37 35.66 102.72 35.1 103.35 34.93C103.98 34.76 104.75 35 105.41 34.7C106.12 34.3006 106.908 34.0617 107.72 34C110.21 34.31 112 36.26 114.47 37.44C115.534 38.1088 116.537 38.8683 117.47 39.71C118.19 40.3 120.21 40.86 120.92 41.54C122.08 42.67 121.84 44.06 122.2 45.23C122.69 46.77 122.62 46.87 121.27 47.42C120.89 47.58 120.72 48.87 120.02 48.9C119.726 48.9101 119.434 48.9537 119.15 49.03Z" fill="#1F1A54"/>
<path d="M98.34 63.88C94.61 63.33 91.78 61.44 91.1 57.88C90.7688 56.392 90.9929 54.8343 91.73 53.5C91.77 53.5749 91.7971 53.656 91.81 53.74C92.1795 52.9802 92.8171 52.3841 93.6 52.0665C94.3829 51.7489 95.2556 51.7323 96.05 52.02C97.5135 52.6823 98.6888 53.8505 99.36 55.31H99.46C99.8141 55.1766 100.135 54.9681 100.401 54.6988C100.667 54.4295 100.871 54.1058 101 53.75C101.063 53.4973 101.063 53.2327 101 52.98C101.424 52.1753 101.702 51.3018 101.82 50.4C101.869 50.2647 101.899 50.1234 101.91 49.98C101.91 49.47 101.91 48.98 101.91 48.59C101.91 46.26 102.42 46.59 102.38 46.49C102.47 46.54 102.18 46.29 103.87 47.02C104.54 47.32 104.7 48.28 105.46 48.59C106.62 49.06 108.4 48.13 109.46 48.42C110.27 48.66 110.71 46.23 110.53 46.08C111.098 45.9493 111.687 45.9442 112.257 46.0651C112.827 46.186 113.364 46.43 113.83 46.78C114.73 47.36 115.38 49.11 116.45 49.41C117.375 49.5282 118.315 49.3934 119.17 49.02C119.49 54.56 119.54 62.15 118.5 65.36C117.46 68.57 115.74 70.56 112.65 71.29V75.5L114.28 76.41C113.712 77.9248 112.755 79.2631 111.505 80.2899C110.254 81.3167 108.756 81.9957 107.159 82.2583C105.563 82.521 103.926 82.3581 102.412 81.786C100.899 81.214 99.5633 80.253 98.54 79L96 75.91L98.38 74.98L98.34 63.88ZM116.42 55.38C116.447 55.2572 116.447 55.1298 116.418 55.0073C116.39 54.8848 116.334 54.7703 116.255 54.6722C116.176 54.574 116.077 54.4949 115.963 54.4404C115.85 54.386 115.726 54.3578 115.6 54.3578C115.474 54.3578 115.35 54.386 115.237 54.4404C115.123 54.4949 115.023 54.574 114.945 54.6722C114.866 54.7703 114.81 54.8848 114.782 55.0073C114.753 55.1298 114.753 55.2572 114.78 55.38C114.753 55.5028 114.753 55.6301 114.782 55.7526C114.81 55.8752 114.866 55.9897 114.945 56.0878C115.023 56.1859 115.123 56.2651 115.237 56.3195C115.35 56.3739 115.474 56.4022 115.6 56.4022C115.726 56.4022 115.85 56.3739 115.963 56.3195C116.077 56.2651 116.176 56.1859 116.255 56.0878C116.334 55.9897 116.39 55.8752 116.418 55.7526C116.447 55.6301 116.447 55.5028 116.42 55.38ZM109 55.25C109.031 55.1262 109.033 54.9969 109.007 54.8721C108.98 54.7472 108.926 54.6301 108.847 54.5295C108.768 54.4289 108.668 54.3476 108.553 54.2916C108.439 54.2357 108.313 54.2066 108.185 54.2066C108.057 54.2066 107.931 54.2357 107.817 54.2916C107.702 54.3476 107.602 54.4289 107.523 54.5295C107.444 54.6301 107.39 54.7472 107.363 54.8721C107.337 54.9969 107.339 55.1262 107.37 55.25C107.339 55.3738 107.337 55.5031 107.363 55.6279C107.39 55.7527 107.444 55.8699 107.523 55.9705C107.602 56.0711 107.702 56.1524 107.817 56.2084C107.931 56.2643 108.057 56.2934 108.185 56.2934C108.313 56.2934 108.439 56.2643 108.553 56.2084C108.668 56.1524 108.768 56.0711 108.847 55.9705C108.926 55.8699 108.98 55.7527 109.007 55.6279C109.033 55.5031 109.031 55.3738 109 55.25Z" fill="white"/>
<path d="M115.6 54.3501C115.838 54.3802 116.057 54.5007 116.209 54.6867C116.362 54.8727 116.437 55.1101 116.42 55.3501C116.447 55.4729 116.446 55.6002 116.418 55.7228C116.389 55.8453 116.334 55.9598 116.255 56.0579C116.176 56.156 116.077 56.2352 115.963 56.2896C115.85 56.3441 115.726 56.3723 115.6 56.3723C115.474 56.3723 115.35 56.3441 115.236 56.2896C115.123 56.2352 115.023 56.156 114.945 56.0579C114.866 55.9598 114.81 55.8453 114.782 55.7228C114.753 55.6002 114.752 55.4729 114.78 55.3501C114.763 55.1101 114.838 54.8727 114.99 54.6867C115.143 54.5007 115.361 54.3802 115.6 54.3501Z" fill="#1F1A54"/>
<path d="M108.16 54.22C108.4 54.2477 108.619 54.3675 108.772 54.5541C108.925 54.7407 109 54.9795 108.98 55.22C109.011 55.3438 109.013 55.473 108.987 55.5979C108.96 55.7227 108.906 55.8399 108.827 55.9405C108.749 56.041 108.648 56.1224 108.533 56.1783C108.419 56.2343 108.293 56.2634 108.165 56.2634C108.038 56.2634 107.912 56.2343 107.797 56.1783C107.682 56.1224 107.582 56.041 107.503 55.9405C107.425 55.8399 107.37 55.7227 107.344 55.5979C107.317 55.473 107.319 55.3438 107.35 55.22C107.33 54.981 107.403 54.7436 107.554 54.5572C107.705 54.3709 107.922 54.2501 108.16 54.22Z" fill="#1F1A54"/>
<path d="M100.94 53C101.02 53.2415 101.041 53.4988 101 53.75C100.877 54.0971 100.683 54.4146 100.43 54.6816C100.177 54.9487 99.8701 55.1594 99.5299 55.3C99.4941 55.1937 99.4506 55.0901 99.3999 54.99C100.038 54.4335 100.561 53.7574 100.94 53Z" fill="#1F1A54"/>
<path d="M101.76 50.4199C101.642 51.3217 101.364 52.1953 100.94 52.9999C100.858 52.6937 100.837 52.3741 100.88 52.0599C101 51.5599 101.57 51.0299 101.76 50.4199Z" fill="#1F1A54"/>
<path d="M99.49 55.32H99.39C98.7188 53.8605 97.5435 52.6923 96.08 52.03C95.2844 51.7395 94.4092 51.7546 93.6241 52.0724C92.839 52.3901 92.1997 52.9879 91.83 53.75C91.8171 53.6661 91.7901 53.5849 91.75 53.51L91.81 53.41C92.1963 52.6671 92.8388 52.0895 93.6185 51.7843C94.3981 51.479 95.262 51.4668 96.05 51.75C97.5127 52.4185 98.6871 53.5894 99.36 55.05C99.4091 55.1371 99.4525 55.2273 99.49 55.32Z" fill="#1F1A54"/>
<path d="M95.78 39.4299C95.62 39.6399 95.48 39.8899 95.33 40.1199C95.1307 40.168 94.9365 40.235 94.75 40.3199C94.2356 40.4915 93.7476 40.7338 93.3 41.0399C92.76 41.3899 92.82 42.7999 92.3 43.4299C91.78 44.0599 90.77 43.8799 90.56 44.8399C90.3793 45.493 90.2687 46.1634 90.23 46.8399C90.23 46.0284 90.3239 45.2197 90.51 44.4299C90.8872 42.8518 91.8718 41.4863 93.25 40.6299C93.7035 40.3445 94.1905 40.1161 94.7 39.9499C94.8894 39.8635 95.0871 39.7965 95.29 39.7499C95.42 39.5299 95.55 39.3299 95.69 39.1299C95.7136 39.2317 95.7436 39.3319 95.78 39.4299Z" fill="#1F1A54"/>
<path d="M91.7902 53.43L91.7302 53.53C91.3042 52.945 91.0512 52.2519 91.0002 51.53C90.9954 51.4434 90.9954 51.3566 91.0002 51.27C91.3202 52.17 91.6202 52.88 91.7402 53.41L91.7902 53.43Z" fill="#1F1A54"/>
<path d="M90.9999 48.61C91.9399 49.14 91.2299 50.33 90.9999 51.27C90.5068 49.9701 90.2265 48.5991 90.1699 47.21C90.1714 47.496 90.2491 47.7765 90.395 48.0226C90.5409 48.2686 90.7497 48.4714 90.9999 48.61Z" fill="#1F1A54"/>
<path d="M119.11 48.26C119.11 48.51 119.11 48.77 119.11 49.03C119.43 54.57 119.48 62.16 118.44 65.37C117.4 68.58 115.68 70.57 112.59 71.3C112.33 71.36 112.06 71.42 111.78 71.46C110.14 71.71 106.06 71.18 103.78 68.95" stroke="#1F1A54" stroke-width="0.8" stroke-linecap="round" stroke-linejoin="round"/>
<path d="M105.4 61.4399C105.64 62.2977 106.112 63.0723 106.765 63.6777C107.418 64.2832 108.226 64.6958 109.1 64.8699" stroke="#1F1A54" stroke-width="0.8" stroke-linecap="round" stroke-linejoin="round"/>
<path d="M110.74 60.03C111.073 60.2052 111.444 60.2967 111.82 60.2967C112.197 60.2967 112.567 60.2052 112.9 60.03" stroke="#1F1A54" stroke-width="0.8" stroke-linecap="round" stroke-linejoin="round"/>
<path d="M99.36 55.01C98.6793 53.5644 97.5058 52.4086 96.05 51.75C95.2524 51.4659 94.3784 51.484 93.5933 51.801C92.8082 52.1179 92.1666 52.7118 91.79 53.47L91.73 53.57C90.9929 54.9043 90.7688 56.462 91.1 57.95C91.78 61.48 94.61 63.37 98.34 63.95" stroke="#1F1A54" stroke-width="0.8" stroke-miterlimit="10" stroke-linecap="round"/>
<path d="M99.63 55.6701C99.63 55.6701 99.63 55.5401 99.5 55.3201" stroke="#1F1A54" stroke-width="0.8" stroke-miterlimit="10" stroke-linecap="round"/>
<path d="M91 51.28C91.32 52.18 91.62 52.89 91.74 53.42" stroke="#1F1A54" stroke-width="0.8" stroke-linecap="round" stroke-linejoin="round"/>
<path d="M90.21 47.21C90.2537 48.5969 90.5205 49.9678 91 51.27" stroke="#1F1A54" stroke-width="0.8" stroke-linecap="round" stroke-linejoin="round"/>
<path d="M93.2202 40.6899C91.842 41.5463 90.8574 42.9118 90.4802 44.4899C90.2941 45.2798 90.2002 46.0885 90.2002 46.8999" stroke="#1F1A54" stroke-width="0.8" stroke-linecap="round" stroke-linejoin="round"/>
<path d="M95.75 39.0701L95.69 39.1401C95.55 39.3401 95.42 39.5401 95.29 39.7601C95.0875 39.8035 94.8898 39.8671 94.7 39.9501C94.1881 40.132 93.701 40.3773 93.25 40.6801" stroke="#1F1A54" stroke-width="0.8" stroke-linecap="round" stroke-linejoin="round"/>
<path d="M99.3701 55.0099C100.02 54.4533 100.554 53.7735 100.94 53.0099C101.364 52.2052 101.642 51.3317 101.76 50.4299C101.799 50.1749 101.823 49.9177 101.83 49.6599C101.988 48.0566 101.86 46.438 101.45 44.8799" stroke="#1F1A54" stroke-width="0.8" stroke-linecap="round" stroke-linejoin="round"/>
<path d="M94.6899 55.3799C94.6899 55.3799 96.9199 55.7199 97.2599 59.2299" stroke="#1F1A54" stroke-width="0.8" stroke-miterlimit="10" stroke-linecap="round"/>
<path d="M106.71 52.17C107.209 51.8535 107.79 51.6913 108.381 51.7038C108.971 51.7162 109.545 51.9028 110.03 52.24" stroke="#1F1A54" stroke-width="0.8" stroke-linecap="round" stroke-linejoin="round"/>
<path d="M113.79 52.1701C114.292 51.8577 114.874 51.698 115.465 51.7104C116.057 51.7228 116.632 51.9068 117.12 52.2401" stroke="#1F1A54" stroke-width="0.8" stroke-linecap="round" stroke-linejoin="round"/>
<path d="M112.63 71.2999V75.5099L114.26 76.4199C113.692 77.9347 112.735 79.273 111.485 80.2998C110.234 81.3266 108.736 82.0056 107.139 82.2682C105.543 82.5309 103.906 82.368 102.392 81.7959C100.879 81.2239 99.5434 80.2629 98.52 79.0099L96 75.9099L98.38 74.9799V63.8799" stroke="#1F1A54" stroke-width="0.8" stroke-linecap="round" stroke-linejoin="round"/>
<path d="M140.6 102.62L152.68 104.91C155.26 105.34 157.47 103.67 158.47 101.25C161.78 93.2499 163.98 76.4399 166.79 72.5899C167.86 71.1299 170.37 68.2899 171.31 65.7899C171.71 64.7299 171.89 63.9399 172.61 62.2699C173.104 61.1651 173.714 60.1159 174.43 59.1399C174.88 58.5499 176.1 56.9299 174.97 56.2299C174.47 55.9299 173.79 56.3299 173.57 56.5199C173.085 56.9179 172.652 57.3748 172.28 57.8799C171.601 58.6589 170.88 59.4 170.12 60.0999C170.12 60.0999 171.9 56.9299 172.6 55.9399C173.07 55.2799 174.46 53.5999 173.37 52.7099C173.115 52.5643 172.823 52.4988 172.53 52.522C172.237 52.5451 171.959 52.656 171.73 52.8399C171.287 53.2624 170.912 53.7517 170.62 54.2899C170.19 54.9399 167.96 57.6799 167.96 57.6799C167.96 57.6799 170.07 53.5499 170.64 52.5299C171.09 51.7299 172.52 49.5299 170.99 48.6799C169.99 48.0899 168.73 49.7899 168.08 50.7999C167.2 52.1599 164.81 56.5799 164.81 56.5799L166.58 51.4199C166.58 51.4199 167.41 49.3099 166.04 48.7199C164.67 48.1299 164.04 49.7199 163.7 50.4399C162.07 53.8799 160.51 57.5599 159.8 59.5999C158.8 62.4099 156.72 55.0999 154.43 55.9099C152.14 56.7199 158.9 68.1599 156.81 73.0199L149.27 90.2899L142.85 88.0299L140.6 102.62Z" fill="white" stroke="#1F1A54" stroke-width="0.74" stroke-linecap="round" stroke-linejoin="round"/>
<path d="M161.43 61.95C161.43 61.95 163.22 63.8899 163.01 65.4699C163.702 64.8044 164.603 64.3982 165.56 64.32" stroke="#1F1A54" stroke-width="0.74" stroke-linecap="round" stroke-linejoin="round"/>
<path d="M107.48 113.77H111.12L114.06 116.11V128.66H104.59V116.3L107.48 113.77Z" fill="white" stroke="#1F1A54" stroke-width="0.8" stroke-linecap="round" stroke-linejoin="round"/>
<path d="M107.79 115.48H110.7" stroke="#1F1A54" stroke-width="0.8" stroke-linecap="round" stroke-linejoin="round"/>
<path d="M93.21 76.86L108.28 115.33H111.12L120.16 78.08L118.29 77.46L109.62 113.16L95.02 76.24L93.21 76.86Z" fill="white" stroke="#1F1A54" stroke-width="0.8" stroke-linecap="round" stroke-linejoin="round"/>
</g>
<path d="M183.92 11.417C183.462 11.1582 182.903 11.158 182.445 11.4165L169.763 18.575C169.291 18.841 169 19.3401 169 19.8812L169 34.1188C169 34.6599 169.291 35.159 169.763 35.425L182.445 42.5835C182.903 42.842 183.462 42.8418 183.92 42.583L196.581 35.4252C197.052 35.1591 197.343 34.6602 197.343 34.1194L197.343 19.8806C197.343 19.3398 197.052 18.8409 196.581 18.5748L183.92 11.417Z" fill="#3781FC"/>
<path d="M180 27.526L181.629 29.3346L185 26" stroke="white" stroke-width="3" stroke-linecap="round" stroke-linejoin="round"/>
<defs>
<clipPath id="clip0">
<rect width="235.23" height="236.04" fill="white" transform="translate(50 34)"/>
</clipPath>
</defs>
</svg>
