<svg width="32" height="32" viewBox="0 0 32 32" fill="none" xmlns="http://www.w3.org/2000/svg">
<path d="M18.5874 10.8276H13.4177C13.015 10.8276 12.6895 10.5021 12.6895 10.1048V2.72276C12.6895 2.32552 13.015 2 13.4122 2H18.5819C18.9846 2 19.3101 2.32552 19.3101 2.72276V10.0993C19.3101 10.5021 18.9846 10.8276 18.5874 10.8276Z" fill="white" stroke="#3057BA" stroke-miterlimit="10"/>
<path d="M19.8103 10.1047V8.01709H29.9697C30.8135 8.01709 31.5 8.70358 31.5 9.54743V27.5557C31.5 28.3996 30.8135 29.0861 29.9697 29.0861H2.03034C1.18649 29.0861 0.5 28.3996 0.5 27.5557V9.54743C0.5 8.70358 1.18649 8.01709 2.03034 8.01709H12.1897V10.1047C12.1897 10.7805 12.7415 11.3274 13.4179 11.3274H18.5876C19.261 11.3274 19.8103 10.7781 19.8103 10.1047Z" fill="white" stroke="#3057BA" stroke-miterlimit="10"/>
<path d="M15.9999 6.96562C16.914 6.96562 17.6551 6.22457 17.6551 5.31045C17.6551 4.39632 16.914 3.65527 15.9999 3.65527C15.0858 3.65527 14.3447 4.39632 14.3447 5.31045C14.3447 6.22457 15.0858 6.96562 15.9999 6.96562Z" fill="#E5EBFF" stroke="#3057BA" stroke-miterlimit="10"/>
<path d="M12.243 23.054L10.163 21.9946C10.0195 21.9174 9.93124 21.774 9.93124 21.614V20.9795C10.9961 20.5215 11.6085 19.6277 11.9064 18.5133C12.3533 18.3753 12.6899 17.956 12.6899 17.465V16.9133C12.6899 16.4884 12.4471 16.1243 12.094 15.9422C11.8512 13.8567 10.483 13.0181 8.27606 13.0181C8.17124 13.0181 8.07193 13.0236 7.9671 13.0291C7.21675 13.0898 6.46089 12.9464 5.83744 12.5271C5.57813 12.3505 5.35744 12.1684 5.20848 11.9698C5.13675 11.8815 4.99882 11.9367 5.00986 12.0526C5.03193 12.2457 5.06503 12.4719 5.11469 12.7146C5.29675 13.6305 5.18641 13.4981 4.83331 14.3588C4.6402 14.8388 4.51331 15.3684 4.45262 15.9312C4.10503 16.1243 3.86227 16.4829 3.86227 16.9077V17.4595C3.86227 17.956 4.19331 18.3698 4.64572 18.5077C4.94365 19.6222 5.55606 20.516 6.62089 20.974V21.6084C6.62089 21.7684 6.5271 21.9174 6.38365 21.9891L4.254 23.0374C3.67468 23.3519 3.31055 23.9643 3.31055 24.6264V25.134C3.31055 25.134 3.31055 25.2829 3.31055 25.3602C3.31055 25.9836 5.534 26.2871 8.27606 26.2871C11.0181 26.2871 13.2416 25.9836 13.2416 25.3602C13.2416 25.2829 13.2416 25.134 13.2416 25.134V24.6705C13.2416 23.9864 12.8554 23.3574 12.243 23.054Z" fill="#E5EBFF" stroke="#3057BA" stroke-miterlimit="10" stroke-linecap="round"/>
<path d="M16.5518 14.7007H22.069" stroke="#3057BA" stroke-miterlimit="10" stroke-linecap="round"/>
<path d="M16.5518 24.0801H17.1035" stroke="#3057BA" stroke-miterlimit="10" stroke-linecap="round"/>
<path d="M19.3105 24.0801H20.414" stroke="#3057BA" stroke-miterlimit="10" stroke-linecap="round"/>
<path d="M22.6206 24.0801H23.1723" stroke="#3057BA" stroke-miterlimit="10" stroke-linecap="round"/>
<path d="M25.3794 24.0801H26.4828" stroke="#3057BA" stroke-miterlimit="10" stroke-linecap="round"/>
<path d="M16.5518 18.0112H28.6897" stroke="#3057BA" stroke-miterlimit="10" stroke-linecap="round"/>
<path d="M16.5518 21.3213H28.6897" stroke="#3057BA" stroke-miterlimit="10" stroke-linecap="round"/>
</svg>
