<svg width="22" height="22" viewBox="0 0 22 22" fill="none" xmlns="http://www.w3.org/2000/svg">
  <path d="M10.9597 6.33611C11.95 6.33611 12.7528 5.53333 12.7528 4.54306C12.7528 3.55278 11.95 2.75 10.9597 2.75C9.96944 2.75 9.16666 3.55278 9.16666 4.54306C9.16666 5.53333 9.96944 6.33611 10.9597 6.33611Z" stroke="currentColor" stroke-width="1.2" stroke-linecap="round" stroke-linejoin="round" />
  <path d="M10.9597 12.7963C11.95 12.7963 12.7528 11.9935 12.7528 11.0032C12.7528 10.013 11.95 9.21018 10.9597 9.21018C9.96944 9.21018 9.16666 10.013 9.16666 11.0032C9.16666 11.9935 9.96944 12.7963 10.9597 12.7963Z" stroke="currentColor" stroke-width="1.2" stroke-linecap="round" stroke-linejoin="round" />
  <path d="M10.9597 19.25C11.95 19.25 12.7528 18.4472 12.7528 17.4569C12.7528 16.4667 11.95 15.6639 10.9597 15.6639C9.96944 15.6639 9.16666 16.4667 9.16666 17.4569C9.16666 18.4472 9.96944 19.25 10.9597 19.25Z" stroke="currentColor" stroke-width="1.2" stroke-linecap="round" stroke-linejoin="round" />
</svg>
