<svg width="32" height="32" viewBox="0 0 32 32" fill="none" xmlns="http://www.w3.org/2000/svg">
<path d="M15.9411 9.21616C17.3815 9.21616 18.5492 8.04849 18.5492 6.60808C18.5492 5.16768 17.3815 4 15.9411 4C14.5007 4 13.333 5.16768 13.333 6.60808C13.333 8.04849 14.5007 9.21616 15.9411 9.21616Z" stroke="#91919C" stroke-width="1.2" stroke-linecap="round" stroke-linejoin="round"/>
<path d="M15.9411 18.6128C17.3815 18.6128 18.5492 17.4451 18.5492 16.0047C18.5492 14.5643 17.3815 13.3966 15.9411 13.3966C14.5007 13.3966 13.333 14.5643 13.333 16.0047C13.333 17.4451 14.5007 18.6128 15.9411 18.6128Z" stroke="#91919C" stroke-width="1.2" stroke-linecap="round" stroke-linejoin="round"/>
<path d="M15.9411 28C17.3815 28 18.5492 26.8323 18.5492 25.3919C18.5492 23.9515 17.3815 22.7838 15.9411 22.7838C14.5007 22.7838 13.333 23.9515 13.333 25.3919C13.333 26.8323 14.5007 28 15.9411 28Z" stroke="#91919C" stroke-width="1.2" stroke-linecap="round" stroke-linejoin="round"/>
</svg>
