<svg width="24" height="16" viewBox="0 0 24 16" fill="none" xmlns="http://www.w3.org/2000/svg">
<rect width="24" height="16" rx="2" fill="#10357F"/>
<g clip-path="url(#clip0)">
<path d="M10.3086 6.08364L8.46651 10.4498H7.26077L6.38995 6.95353C6.37321 6.78624 6.27273 6.63568 6.12201 6.56877C5.75359 6.40148 5.38517 6.28438 5 6.20074L5.03349 6.06691H6.95933C7.21053 6.06691 7.44498 6.25092 7.47847 6.50185L7.94737 9.02788L9.11962 6.05018L10.3086 6.08364ZM14.9976 9.02788C15.0144 7.8736 13.4067 7.80669 13.4234 7.30483C13.4234 7.15427 13.5742 6.98698 13.8923 6.9368C14.2775 6.90334 14.6627 6.97026 14.9976 7.13754L15.1986 6.21747C14.8636 6.08364 14.4952 6.01672 14.1435 6.01672C13.0215 6.01672 12.2344 6.60223 12.2344 7.45539C12.2177 8.09107 12.7871 8.42565 13.2225 8.64312C13.6579 8.86059 13.8086 8.99442 13.8086 9.17843C13.8086 9.47955 13.4569 9.59665 13.122 9.59665C12.7201 9.61338 12.3182 9.51301 11.9665 9.31226L11.7656 10.2658C12.1675 10.4164 12.5861 10.5 13.0215 10.5C14.2105 10.5167 14.9976 9.93122 14.9976 9.02788ZM17.945 10.4498H18.9833L18.0789 6.08364H17.1077C16.89 6.08364 16.7057 6.21747 16.622 6.40148L14.9306 10.4498H16.1196L16.3541 9.79739H17.811L17.945 10.4498ZM16.689 8.89405L17.2751 7.25464L17.61 8.89405H16.689ZM11.933 6.08364L10.9952 10.4498H9.87321L10.811 6.08364H11.933Z" fill="white"/>
</g>
<defs>
<clipPath id="clip0">
<rect width="14" height="4.5" fill="white" transform="translate(5 6)"/>
</clipPath>
</defs>
</svg>
