<svg width="26" height="9" viewBox="0 0 26 9" fill="none" xmlns="http://www.w3.org/2000/svg">
<path d="M9.85885 0.155276L6.4378 8.26388H4.19856L2.58134 1.77078C2.55024 1.46011 2.36364 1.1805 2.08373 1.05623C1.39952 0.745557 0.715311 0.528085 0 0.372748L0.062201 0.124208H3.63876C4.10526 0.124208 4.54067 0.46595 4.60287 0.931962L5.47368 5.62315L7.65072 0.0931408L9.85885 0.155276ZM18.567 5.62315C18.5981 3.47949 15.6124 3.35522 15.6435 2.4232C15.6435 2.14359 15.9234 1.83292 16.5144 1.73972C17.2297 1.67758 17.945 1.80185 18.567 2.11252L18.9402 0.403815C18.3182 0.155276 17.634 0.0310059 16.9809 0.0310059C14.8971 0.0310059 13.4354 1.11837 13.4354 2.70281C13.4043 3.88337 14.4617 4.50472 15.2703 4.90859C16.0789 5.31247 16.3589 5.56101 16.3589 5.90275C16.3589 6.46197 15.7057 6.67944 15.0837 6.67944C14.3373 6.71051 13.5909 6.5241 12.9378 6.15129L12.5646 7.92214C13.311 8.20174 14.0885 8.35708 14.8971 8.35708C17.1053 8.38815 18.567 7.30079 18.567 5.62315ZM24.0407 8.26388H25.9689L24.2895 0.155276H22.4856C22.0813 0.155276 21.7392 0.403815 21.5837 0.745557L18.4426 8.26388H20.6507L21.0861 7.05225H23.7919L24.0407 8.26388ZM21.7081 5.37461L22.7967 2.33L23.4187 5.37461H21.7081ZM12.8756 0.155276L11.134 8.26388H9.05024L10.7919 0.155276H12.8756Z" fill="#10357F"/>
</svg>
