<svg width="14" height="14" viewBox="0 0 14 14" fill="none" xmlns="http://www.w3.org/2000/svg">
<path d="M12.2511 6.75859V10.5075C12.2511 11.0375 12.0406 11.5458 11.6658 11.9206C11.291 12.2954 10.7827 12.506 10.2526 12.506H3.75188C3.48905 12.5066 3.22869 12.4553 2.9857 12.3551C2.74271 12.255 2.52187 12.1079 2.33581 11.9222C2.14976 11.7366 2.00214 11.5161 1.90143 11.2733C1.80071 11.0305 1.74887 10.7703 1.74887 10.5075V6.75859M12.003 1.00671H2.01504C2.01504 1.00671 1 5.28341 1 5.50897C1.02104 5.89257 1.18825 6.25353 1.46725 6.51764C1.74624 6.78175 2.11582 6.92893 2.5 6.92893C2.88418 6.92893 3.25376 6.78175 3.53275 6.51764C3.81175 6.25353 3.97896 5.89257 4 5.50897C4.02104 5.89257 4.18825 6.25353 4.46725 6.51764C4.74624 6.78175 5.11582 6.92893 5.5 6.92893C5.88418 6.92893 6.25376 6.78175 6.53275 6.51764C6.81175 6.25353 6.97896 5.89257 7 5.50897C7.02105 5.89257 7.18825 6.25353 7.46725 6.51764C7.74625 6.78175 8.11582 6.92893 8.5 6.92893C8.88418 6.92893 9.25376 6.78175 9.53275 6.51764C9.81175 6.25353 9.97896 5.89257 10 5.50897C10.021 5.89257 10.1883 6.25353 10.4672 6.51764C10.7462 6.78175 11.1158 6.92893 11.5 6.92893C11.8842 6.92893 12.2538 6.78175 12.5328 6.51764C12.8117 6.25353 12.979 5.89257 13 5.50897C13 5.28341 12.003 1.00671 12.003 1.00671ZM5.9985 9.50596H7.99699V12.506H5.9985V9.50596Z" stroke="#6E98EB" stroke-width="1.2" stroke-linecap="round" stroke-linejoin="round"/>
</svg>
