<svg width="14" height="13" viewBox="0 0 14 13" fill="none" xmlns="http://www.w3.org/2000/svg">
<path d="M1 2.83343V9.89502C1.00743 10.4432 1.23042 10.9665 1.62073 11.3515C2.01104 11.7365 2.53727 11.9524 3.08552 11.9523H10.9145C11.1887 11.9523 11.4603 11.8982 11.7137 11.7931C11.967 11.688 12.1971 11.534 12.3908 11.3398C12.5845 11.1456 12.7381 10.9152 12.8426 10.6616C12.9471 10.408 13.0006 10.1363 13 9.86207V3.61492H1.82385C1.71589 3.61554 1.60886 3.59481 1.50893 3.55392C1.40901 3.51303 1.31815 3.45279 1.24158 3.37667C1.16502 3.30054 1.10426 3.21003 1.0628 3.11034C1.02134 3.01064 0.999998 2.90374 1 2.79577C1.0002 2.59127 1.07646 2.39415 1.21393 2.24275C1.35141 2.09135 1.54028 1.99649 1.74382 1.97663L11.9455 1.00684V3.61492M13 9.09471H10.3919C9.99161 9.07275 9.61493 8.89826 9.33932 8.60711C9.06371 8.31597 8.91012 7.9303 8.91012 7.52939C8.91012 7.12848 9.06371 6.74281 9.33932 6.45167C9.61493 6.16052 9.99161 5.98603 10.3919 5.96407H13V9.09471ZM11.1781 7.53174C11.1781 7.6351 11.1475 7.73613 11.09 7.82206C11.0326 7.908 10.951 7.97497 10.8555 8.01453C10.76 8.05408 10.655 8.06442 10.5536 8.04426C10.4522 8.0241 10.3591 7.97433 10.286 7.90125C10.213 7.82817 10.1632 7.73506 10.143 7.63369C10.1229 7.53232 10.1332 7.42726 10.1728 7.33177C10.2123 7.23629 10.2793 7.15467 10.3652 7.09725C10.4512 7.03983 10.5522 7.00919 10.6555 7.00919C10.7941 7.00919 10.9271 7.06424 11.0251 7.16224C11.1231 7.26024 11.1781 7.39315 11.1781 7.53174Z" stroke="#91919C" stroke-width="1.2" stroke-linecap="round" stroke-linejoin="round"/>
</svg>
