<svg width="33" height="32" viewBox="0 0 33 32" fill="none" xmlns="http://www.w3.org/2000/svg">
<path d="M16.5 32C25.3366 32 32.5 24.8366 32.5 16C32.5 7.16344 25.3366 0 16.5 0C7.66344 0 0.5 7.16344 0.5 16C0.5 24.8366 7.66344 32 16.5 32Z" fill="#221E54"/>
<path d="M26.6333 15.2109L20.3933 8.81091C19.8868 8.29326 19.2819 7.88198 18.6143 7.6012C17.9466 7.32041 17.2296 7.17578 16.5053 7.17578C15.781 7.17578 15.0641 7.32041 14.3964 7.6012C13.7288 7.88198 13.1239 8.29326 12.6173 8.81091L6.37733 15.2109C5.34517 16.2739 4.76782 17.6972 4.76782 19.1789C4.76782 20.6606 5.34517 22.0839 6.37733 23.1469C6.88241 23.6672 7.48677 24.0808 8.15462 24.3633C8.82247 24.6457 9.54021 24.7913 10.2653 24.7913C10.9905 24.7913 11.7082 24.6457 12.376 24.3633C13.0439 24.0808 13.6483 23.6672 14.1533 23.1469L16.5 20.7362L18.8573 23.1469C19.3615 23.6669 19.9649 24.0803 20.6319 24.3626C21.2989 24.6449 22.0157 24.7904 22.74 24.7904C23.4643 24.7904 24.1811 24.6449 24.8481 24.3626C25.5151 24.0803 26.1185 23.6669 26.6227 23.1469C27.6563 22.0853 28.2355 20.6627 28.2375 19.1811C28.2395 17.6994 27.6641 16.2753 26.6333 15.2109ZM14.1533 10.4109C14.4594 10.0971 14.8252 9.84768 15.2291 9.67739C15.633 9.5071 16.067 9.41937 16.5053 9.41937C16.9437 9.41937 17.3776 9.5071 17.7816 9.67739C18.1855 9.84768 18.5513 10.0971 18.8573 10.4109C19.4841 11.0526 19.835 11.9139 19.835 12.8109C19.835 13.7079 19.4841 14.5693 18.8573 15.2109L16.5 17.6216L14.1533 15.2109C13.5266 14.5693 13.1757 13.7079 13.1757 12.8109C13.1757 11.9139 13.5266 11.0526 14.1533 10.4109ZM12.6173 21.5896C12.3104 21.9037 11.9437 22.1533 11.5389 22.3238C11.134 22.4942 10.6992 22.582 10.26 22.582C9.82077 22.582 9.38597 22.4942 8.98115 22.3238C8.57633 22.1533 8.20965 21.9037 7.90267 21.5896C7.28266 20.9423 6.93655 20.0806 6.93655 19.1842C6.93655 18.2879 7.28266 17.4262 7.90267 16.7789L11.1027 13.5789C11.257 14.7874 11.8042 15.9118 12.66 16.7789L14.9747 19.2002L12.6173 21.5896ZM25.108 21.5896C24.4781 22.2059 23.6319 22.551 22.7507 22.551C21.8694 22.551 21.0232 22.2059 20.3933 21.5896L18.036 19.2002L20.3933 16.8002C21.2382 15.9267 21.7804 14.805 21.94 13.6002L25.14 16.8002C25.7543 17.4481 26.0941 18.3086 26.0881 19.2014C26.0822 20.0941 25.7309 20.95 25.108 21.5896Z" fill="#FBE100"/>
<path d="M13.0867 6.14366C13.1862 6.24689 13.3055 6.32901 13.4375 6.38509C13.5694 6.44118 13.7113 6.47008 13.8547 6.47008C13.9981 6.47008 14.14 6.44118 14.2719 6.38509C14.4039 6.32901 14.5232 6.24689 14.6227 6.14366C14.8223 5.93353 14.9336 5.65479 14.9336 5.36499C14.9336 5.07519 14.8223 4.79645 14.6227 4.58632L14.1 4.05299C14.0005 3.94976 13.8812 3.86764 13.7493 3.81156C13.6173 3.75547 13.4754 3.72656 13.332 3.72656C13.1887 3.72656 13.0467 3.75547 12.9148 3.81156C12.7828 3.86764 12.6635 3.94976 12.564 4.05299C12.3645 4.26312 12.2532 4.54185 12.2532 4.83166C12.2532 5.12146 12.3645 5.4002 12.564 5.61032L13.0867 6.14366Z" fill="#FBE100"/>
<path d="M19.1881 6.46456C19.331 6.46539 19.4726 6.4375 19.6046 6.38253C19.7365 6.32755 19.856 6.24663 19.9561 6.14456L20.4788 5.61123C20.684 5.40186 20.7989 5.12039 20.7989 4.82722C20.7989 4.53406 20.684 4.25258 20.4788 4.04322C20.3793 3.93999 20.26 3.85788 20.128 3.80179C19.996 3.7457 19.8541 3.7168 19.7108 3.7168C19.5674 3.7168 19.4255 3.7457 19.2935 3.80179C19.1616 3.85788 19.0423 3.93999 18.9428 4.04322L18.4308 4.57656C18.2255 4.78592 18.1106 5.0674 18.1106 5.36056C18.1106 5.65372 18.2255 5.9352 18.4308 6.14456C18.5295 6.24535 18.6474 6.32553 18.7774 6.38046C18.9074 6.43539 19.047 6.46397 19.1881 6.46456Z" fill="#FBE100"/>
<path d="M26.6333 15.2421L20.3933 8.84209C19.8853 8.3258 19.2792 7.91639 18.6105 7.63794C17.9419 7.35949 17.2243 7.21765 16.5 7.22075V9.42875C16.9392 9.4287 17.374 9.51643 17.7788 9.68678C18.1836 9.85714 18.5503 10.1067 18.8573 10.4208C19.478 11.0698 19.8245 11.9333 19.8245 12.8314C19.8245 13.7295 19.478 14.593 18.8573 15.2421L16.5 17.6421V20.7674L18.8573 23.1781C19.3624 23.6984 19.9668 24.112 20.6346 24.3945C21.3025 24.6769 22.0202 24.8224 22.7453 24.8224C23.4705 24.8224 24.1882 24.6769 24.856 24.3945C25.5239 24.112 26.1283 23.6984 26.6333 23.1781C27.6655 22.1151 28.2428 20.6917 28.2428 19.2101C28.2428 17.7284 27.6655 16.3051 26.6333 15.2421ZM25.0973 21.6421C24.4719 22.2628 23.6265 22.6112 22.7453 22.6112C21.8642 22.6112 21.0187 22.2628 20.3933 21.6421L18.0253 19.1994L20.3827 16.7994C21.2346 15.9296 21.7811 14.8066 21.94 13.5994L25.14 16.7994C25.7568 17.451 26.0969 18.3162 26.089 19.2134C26.081 20.1105 25.7256 20.9696 25.0973 21.6101V21.6421Z" fill="url(#paint0_radial)"/>
<path d="M6.36676 23.178C6.87183 23.6983 7.4762 24.1119 8.14404 24.3944C8.81189 24.6769 9.52964 24.8224 10.2548 24.8224C10.9799 24.8224 11.6976 24.6769 12.3655 24.3944C13.0333 24.1119 13.6377 23.6983 14.1428 23.178L16.5001 20.7674V17.642L14.1428 15.242C13.5221 14.593 13.1756 13.7295 13.1756 12.8314C13.1756 11.9333 13.5221 11.0698 14.1428 10.4207C14.4498 10.1066 14.8165 9.85709 15.2213 9.68673C15.6261 9.51638 16.0609 9.42865 16.5001 9.4287V7.2207C15.7743 7.22037 15.0558 7.36557 14.3871 7.64772C13.7183 7.92987 13.113 8.34323 12.6068 8.86337L6.36676 15.2634C5.34093 16.3254 4.76758 17.7442 4.76758 19.2207C4.76758 20.6972 5.34093 22.1161 6.36676 23.178ZM7.90276 16.778L11.1028 13.578C11.2616 14.7852 11.8081 15.9082 12.6601 16.778L14.9748 19.1994L12.6068 21.61C11.9814 22.2308 11.1359 22.5791 10.2548 22.5791C9.37359 22.5791 8.52815 22.2308 7.90276 21.61C7.27782 20.9653 6.92835 20.1026 6.92835 19.2047C6.92835 18.3068 7.27782 17.4441 7.90276 16.7994V16.778Z" fill="url(#paint1_radial)"/>
<path d="M20.3825 8.86442C20.2545 8.73642 20.1265 8.60842 19.9879 8.49109C19.0894 7.72974 17.9643 7.28718 16.7879 7.23242H15.7745H15.6465H15.5292H15.4225H15.2839H15.1879H15.0385H14.9639L14.7932 7.46709L14.5905 7.54176L14.3665 7.68042C13.9138 7.88201 13.4904 8.14394 13.1079 8.45909C12.9544 8.5857 12.8084 8.72103 12.6705 8.86442C11.6384 9.92741 11.061 11.3508 11.061 12.8324C11.061 14.3141 11.6384 15.7374 12.6705 16.8004L16.4999 20.7684L20.3825 16.8004C21.4147 15.7374 21.9921 14.3141 21.9921 12.8324C21.9921 11.3508 21.4147 9.92741 20.3825 8.86442ZM18.8572 15.2644L16.4999 17.6431L14.1425 15.2431C13.5218 14.594 13.1754 13.7305 13.1754 12.8324C13.1754 11.9343 13.5218 11.0708 14.1425 10.4218C14.4495 10.1076 14.8162 9.858 15.221 9.68757C15.6258 9.51715 16.0606 9.42936 16.4999 9.42936C16.9391 9.42936 17.3739 9.51715 17.7787 9.68757C18.1836 9.858 18.5502 10.1076 18.8572 10.4218C19.4772 11.0691 19.8233 11.9308 19.8233 12.8271C19.8233 13.7234 19.4772 14.5851 18.8572 15.2324V15.2644Z" fill="#FAE100"/>
<defs>
<radialGradient id="paint0_radial" cx="0" cy="0" r="1" gradientUnits="userSpaceOnUse" gradientTransform="translate(16.5192 11.689) scale(13.8133 14.112)">
<stop stop-color="#EABE1E"/>
<stop offset="0.21" stop-color="#EEC71A"/>
<stop offset="0.56" stop-color="#F9DF00"/>
<stop offset="0.58" stop-color="#FAE100"/>
</radialGradient>
<radialGradient id="paint1_radial" cx="0" cy="0" r="1" gradientUnits="userSpaceOnUse" gradientTransform="translate(13384 87220.3) rotate(180) scale(75.968 116.435)">
<stop stop-color="#EABE1E"/>
<stop offset="0.21" stop-color="#EEC71A"/>
<stop offset="0.56" stop-color="#F9DF00"/>
<stop offset="0.58" stop-color="#FAE100"/>
</radialGradient>
</defs>
</svg>
