<svg width="32" height="32" viewBox="0 0 32 32" fill="none" xmlns="http://www.w3.org/2000/svg">
<path d="M16 32C24.8366 32 32 24.8366 32 16C32 7.16344 24.8366 0 16 0C7.16344 0 0 7.16344 0 16C0 24.8366 7.16344 32 16 32Z" fill="#221E54"/>
<path d="M26.1331 15.2107L19.8931 8.81073C19.3865 8.29308 18.7817 7.8818 18.114 7.60101C17.4464 7.32023 16.7294 7.1756 16.0051 7.1756C15.2808 7.1756 14.5638 7.32023 13.8962 7.60101C13.2285 7.8818 12.6237 8.29308 12.1171 8.81073L5.87709 15.2107C4.84492 16.2737 4.26758 17.6971 4.26758 19.1787C4.26758 20.6604 4.84492 22.0837 5.87709 23.1467C6.38216 23.667 6.98653 24.0806 7.65438 24.3631C8.32222 24.6455 9.03997 24.7911 9.76509 24.7911C10.4902 24.7911 11.208 24.6455 11.8758 24.3631C12.5437 24.0806 13.148 23.667 13.6531 23.1467L15.9998 20.7361L18.3571 23.1467C18.8612 23.6667 19.4647 24.0801 20.1317 24.3624C20.7986 24.6448 21.5155 24.7902 22.2398 24.7902C22.964 24.7902 23.6809 24.6448 24.3479 24.3624C25.0148 24.0801 25.6183 23.6667 26.1224 23.1467C27.156 22.0851 27.7353 20.6625 27.7373 19.1809C27.7393 17.6992 27.1638 16.2751 26.1331 15.2107ZM13.6531 10.4107C13.9592 10.0969 14.3249 9.84749 14.7289 9.67721C15.1328 9.50692 15.5667 9.41919 16.0051 9.41919C16.4435 9.41919 16.8774 9.50692 17.2813 9.67721C17.6853 9.84749 18.051 10.0969 18.3571 10.4107C18.9839 11.0524 19.3347 11.9138 19.3347 12.8107C19.3347 13.7077 18.9839 14.5691 18.3571 15.2107L15.9998 17.6214L13.6531 15.2107C13.0263 14.5691 12.6754 13.7077 12.6754 12.8107C12.6754 11.9138 13.0263 11.0524 13.6531 10.4107ZM12.1171 21.5894C11.8101 21.9035 11.4434 22.1532 11.0386 22.3236C10.6338 22.494 10.199 22.5818 9.75976 22.5818C9.32052 22.5818 8.88572 22.494 8.4809 22.3236C8.07608 22.1532 7.70941 21.9035 7.40242 21.5894C6.78242 20.9421 6.43631 20.0804 6.43631 19.1841C6.43631 18.2877 6.78242 17.426 7.40242 16.7787L10.6024 13.5787C10.7567 14.7873 11.3039 15.9116 12.1598 16.7787L14.4744 19.2001L12.1171 21.5894ZM24.6078 21.5894C23.9779 22.2057 23.1317 22.5508 22.2504 22.5508C21.3692 22.5508 20.523 22.2057 19.8931 21.5894L17.5358 19.2001L19.8931 16.8001C20.738 15.9265 21.2802 14.8048 21.4398 13.6001L24.6398 16.8001C25.2541 17.4479 25.5939 18.3084 25.5879 19.2012C25.5819 20.094 25.2307 20.9498 24.6078 21.5894Z" fill="#FBE100"/>
<path d="M12.5865 6.14402C12.686 6.24726 12.8053 6.32937 12.9372 6.38546C13.0692 6.44154 13.2111 6.47045 13.3545 6.47045C13.4978 6.47045 13.6397 6.44154 13.7717 6.38546C13.9037 6.32937 14.023 6.24726 14.1225 6.14402C14.322 5.9339 14.4333 5.65516 14.4333 5.36536C14.4333 5.07555 14.322 4.79682 14.1225 4.58669L13.5998 4.05336C13.5003 3.95012 13.381 3.86801 13.249 3.81192C13.1171 3.75584 12.9752 3.72693 12.8318 3.72693C12.6884 3.72693 12.5465 3.75584 12.4145 3.81192C12.2826 3.86801 12.1633 3.95012 12.0638 4.05336C11.8642 4.26348 11.7529 4.54222 11.7529 4.83202C11.7529 5.12183 11.8642 5.40056 12.0638 5.61069L12.5865 6.14402Z" fill="#FBE100"/>
<path d="M18.6878 6.46401C18.8308 6.46484 18.9724 6.43695 19.1043 6.38198C19.2363 6.327 19.3558 6.24608 19.4558 6.14401L19.9785 5.61068C20.1837 5.40132 20.2987 5.11984 20.2987 4.82668C20.2987 4.53351 20.1837 4.25204 19.9785 4.04268C19.879 3.93944 19.7597 3.85733 19.6278 3.80124C19.4958 3.74515 19.3539 3.71625 19.2105 3.71625C19.0671 3.71625 18.9252 3.74515 18.7933 3.80124C18.6613 3.85733 18.542 3.93944 18.4425 4.04268L17.9305 4.57601C17.7253 4.78537 17.6104 5.06685 17.6104 5.36001C17.6104 5.65317 17.7253 5.93465 17.9305 6.14401C18.0293 6.2448 18.1471 6.32498 18.2771 6.37991C18.4071 6.43484 18.5467 6.46342 18.6878 6.46401Z" fill="#FBE100"/>
<path d="M26.1333 15.2426L19.8933 8.84264C19.3853 8.32635 18.7792 7.91693 18.1105 7.63849C17.4419 7.36004 16.7243 7.21819 16 7.2213V9.4293C16.4392 9.42925 16.874 9.51698 17.2788 9.68733C17.6836 9.85769 18.0503 10.1072 18.3573 10.4213C18.978 11.0704 19.3245 11.9339 19.3245 12.832C19.3245 13.7301 18.978 14.5936 18.3573 15.2426L16 17.6426V20.768L18.3573 23.1786C18.8624 23.6989 19.4668 24.1126 20.1346 24.395C20.8025 24.6775 21.5202 24.823 22.2453 24.823C22.9705 24.823 23.6882 24.6775 24.356 24.395C25.0239 24.1126 25.6283 23.6989 26.1333 23.1786C27.1655 22.1156 27.7428 20.6923 27.7428 19.2106C27.7428 17.729 27.1655 16.3056 26.1333 15.2426ZM24.5973 21.6426C23.9719 22.2634 23.1265 22.6117 22.2453 22.6117C21.3642 22.6117 20.5187 22.2634 19.8933 21.6426L17.5253 19.2L19.8827 16.8C20.7346 15.9301 21.2811 14.8071 21.44 13.6L24.64 16.8C25.2568 17.4515 25.5969 18.3168 25.589 19.2139C25.581 20.111 25.2256 20.9701 24.5973 21.6106V21.6426Z" fill="url(#paint0_radial)"/>
<path d="M5.86676 23.1786C6.37183 23.6989 6.9762 24.1126 7.64404 24.395C8.31189 24.6775 9.02964 24.823 9.75476 24.823C10.4799 24.823 11.1976 24.6775 11.8655 24.395C12.5333 24.1126 13.1377 23.6989 13.6428 23.1786L16.0001 20.768V17.6426L13.6428 15.2426C13.0221 14.5936 12.6756 13.7301 12.6756 12.832C12.6756 11.9339 13.0221 11.0704 13.6428 10.4213C13.9498 10.1072 14.3165 9.8577 14.7213 9.68735C15.1261 9.51699 15.5609 9.42926 16.0001 9.42931V7.22131C15.2743 7.22098 14.5558 7.36618 13.8871 7.64833C13.2183 7.93048 12.613 8.34384 12.1068 8.86398L5.86676 15.264C4.84093 16.326 4.26758 17.7448 4.26758 19.2213C4.26758 20.6978 4.84093 22.1167 5.86676 23.1786ZM7.40276 16.7786L10.6028 13.5786C10.7616 14.7858 11.3081 15.9088 12.1601 16.7786L14.4748 19.2L12.1068 21.6106C11.4814 22.2314 10.6359 22.5798 9.75476 22.5798C8.87359 22.5798 8.02815 22.2314 7.40276 21.6106C6.77782 20.9659 6.42835 20.1032 6.42835 19.2053C6.42835 18.3074 6.77782 17.4447 7.40276 16.8V16.7786Z" fill="url(#paint1_radial)"/>
<path d="M19.883 8.86399C19.755 8.73599 19.627 8.60799 19.4884 8.49066C18.5899 7.72932 17.4647 7.28675 16.2884 7.23199H15.275H15.147H15.0297H14.923H14.7844H14.6884H14.539H14.4644L14.2937 7.46666L14.091 7.54133L13.867 7.67999C13.4143 7.88158 12.9909 8.14351 12.6084 8.45866C12.4549 8.58527 12.3089 8.7206 12.171 8.86399C11.1389 9.92698 10.5615 11.3503 10.5615 12.832C10.5615 14.3137 11.1389 15.737 12.171 16.8L16.0004 20.768L19.883 16.8C20.9152 15.737 21.4925 14.3137 21.4925 12.832C21.4925 11.3503 20.9152 9.92698 19.883 8.86399ZM18.3577 15.264L16.0004 17.6427L13.643 15.2427C13.0223 14.5936 12.6759 13.7301 12.6759 12.832C12.6759 11.9339 13.0223 11.0704 13.643 10.4213C13.95 10.1072 14.3167 9.85757 14.7215 9.68715C15.1263 9.51672 15.5611 9.42893 16.0004 9.42893C16.4396 9.42893 16.8744 9.51672 17.2792 9.68715C17.684 9.85757 18.0507 10.1072 18.3577 10.4213C18.9777 11.0686 19.3238 11.9303 19.3238 12.8267C19.3238 13.723 18.9777 14.5847 18.3577 15.232V15.264Z" fill="#FAE100"/>
<defs>
<radialGradient id="paint0_radial" cx="0" cy="0" r="1" gradientUnits="userSpaceOnUse" gradientTransform="translate(16.0192 11.6896) scale(13.8133 14.112)">
<stop stop-color="#EABE1E"/>
<stop offset="0.21" stop-color="#EEC71A"/>
<stop offset="0.56" stop-color="#F9DF00"/>
<stop offset="0.58" stop-color="#FAE100"/>
</radialGradient>
<radialGradient id="paint1_radial" cx="0" cy="0" r="1" gradientUnits="userSpaceOnUse" gradientTransform="translate(13383.5 87220.3) rotate(180) scale(75.968 116.435)">
<stop stop-color="#EABE1E"/>
<stop offset="0.21" stop-color="#EEC71A"/>
<stop offset="0.56" stop-color="#F9DF00"/>
<stop offset="0.58" stop-color="#FAE100"/>
</radialGradient>
</defs>
</svg>
