<svg width="80" height="80" viewBox="0 0 80 80" fill="none" xmlns="http://www.w3.org/2000/svg">
<path d="M18.5094 27.2775V18.7224C18.5094 15.8787 19.6391 13.1514 21.6499 11.1405C23.6608 9.12968 26.3881 8 29.2318 8C32.0756 8 34.8029 9.12968 36.8137 11.1405C38.8245 13.1514 39.9542 15.8787 39.9542 18.7224V27.2775M38.8897 57.306H19.5551C17.2862 57.306 15.1101 56.4046 13.5057 54.8002C11.9013 53.1958 11 51.0198 11 48.7509V27.2775H47.4638V48.7223C47.4676 49.8498 47.2484 50.9669 46.819 52.0094C46.3895 53.0519 45.7583 53.9992 44.9615 54.7969C44.1647 55.5946 43.218 56.2269 42.176 56.6575C41.134 57.0881 40.0171 57.3085 38.8897 57.306ZM29.2321 47.6577C28.9079 47.6584 28.5929 47.55 28.3377 47.35C28.0825 47.15 27.902 46.87 27.8252 46.5551L26.0952 40.7851C25.9987 40.3192 26.0073 39.8377 26.1202 39.3755C26.2331 38.9133 26.4475 38.482 26.7479 38.1131C27.0483 37.7441 27.4271 37.4467 27.8568 37.2424C28.2865 37.0381 28.7563 36.9322 29.2321 36.9322C29.7079 36.9322 30.1777 37.0381 30.6074 37.2424C31.0371 37.4467 31.4159 37.7441 31.7163 38.1131C32.0167 38.482 32.2311 38.9133 32.344 39.3755C32.4569 39.8377 32.4654 40.3192 32.369 40.7851L30.6389 46.5551C30.5621 46.87 30.3817 47.15 30.1265 47.35C29.8713 47.55 29.5563 47.6584 29.2321 47.6577Z" stroke="#1F1A54" stroke-width="2" stroke-linecap="round" stroke-linejoin="round"/>
<path d="M52.5011 70.4191C62.6871 70.4191 70.9445 62.1617 70.9445 51.9757C70.9445 41.7896 62.6871 33.5322 52.5011 33.5322C42.315 33.5322 34.0576 41.7896 34.0576 51.9757C34.0576 62.1617 42.315 70.4191 52.5011 70.4191Z" fill="#F6A80F"/>
<path d="M52.5014 35.1131C55.8365 35.1131 59.0967 36.1021 61.8697 37.955C64.6428 39.8079 66.8041 42.4415 68.0804 45.5227C69.3567 48.6039 69.6906 51.9944 69.0399 55.2655C68.3893 58.5365 66.7833 61.5411 64.425 63.8994C62.0667 66.2576 59.0621 67.8637 55.7911 68.5143C52.5201 69.1649 49.1296 68.831 46.0483 67.5547C42.9671 66.2784 40.3335 64.1171 38.4807 61.3441C36.6278 58.571 35.6388 55.3108 35.6388 51.9757C35.6388 47.5035 37.4154 43.2144 40.5777 40.0521C43.7401 36.8897 48.0291 35.1131 52.5014 35.1131ZM52.5014 31.9514C48.5409 31.9514 44.6694 33.1258 41.3765 35.3261C38.0835 37.5264 35.5169 40.6538 34.0013 44.3128C32.4857 47.9717 32.0892 51.9979 32.8618 55.8823C33.6345 59.7666 35.5416 63.3346 38.342 66.1351C41.1425 68.9355 44.7105 70.8426 48.5948 71.6153C52.4792 72.3879 56.5054 71.9914 60.1643 70.4758C63.8233 68.9602 66.9507 66.3936 69.151 63.1006C71.3513 59.8077 72.5257 55.9362 72.5257 51.9757C72.5257 46.665 70.416 41.5717 66.6607 37.8164C62.9054 34.0611 57.8122 31.9514 52.5014 31.9514Z" fill="white"/>
<path d="M52.5008 41.0361L55.8839 44.4192M55.8839 44.4192L52.5008 47.7917M55.8839 44.4192L52.5007 44.4192C50.9149 44.4192 49.3647 44.8893 48.046 45.7701C46.7273 46.6509 45.6993 47.9029 45.092 49.3678C44.4846 50.8327 44.3252 52.4448 44.6338 54.0003C44.9424 55.5557 45.7052 56.9848 46.8258 58.1069C47.9464 59.229 49.3745 59.9937 50.9296 60.3043C52.4847 60.615 54.097 60.4577 55.5627 59.8522C57.0284 59.2468 58.2817 58.2205 59.1642 56.9029C60.0468 55.5854 60.5189 54.0358 60.521 52.45" stroke="white" stroke-width="2" stroke-linecap="round" stroke-linejoin="round"/>
</svg>
