<svg width="24" height="24" viewBox="0 0 24 24" fill="none" xmlns="http://www.w3.org/2000/svg">
  <path d="M15.0576 13.269C15.8913 15.3783 16.5104 17.5498 16.9127 19.7683C17.4866 19.4184 18.0231 18.9979 18.5106 18.5105C19.777 17.244 20.5942 15.6482 20.8829 13.9162C19.6389 13.4015 18.2764 13.1167 16.8485 13.1167C16.2381 13.1167 15.64 13.1694 15.0576 13.269Z" fill="currentColor" />
  <path d="M18.5179 6.49685C18.5155 6.49451 18.5131 6.49192 18.5108 6.48959C16.9052 4.88416 14.7708 4 12.5004 4C11.6126 4 10.7455 4.1358 9.92285 4.39649C11.2415 6.04861 12.4015 7.81174 13.3957 9.67514C15.2686 8.87995 16.9937 7.80254 18.5179 6.49685Z" fill="currentColor" />
  <path d="M19.1855 7.24902C17.5865 8.62241 15.7998 9.73537 13.8555 10.5671C14.1421 11.1442 14.4128 11.7304 14.6683 12.3253C15.3818 12.1895 16.1098 12.1203 16.8484 12.1203C18.2791 12.1203 19.6707 12.3776 20.9912 12.8841C20.9969 12.7565 21.0001 12.6284 21.0001 12.4999C21.0001 10.571 20.3617 8.74057 19.1855 7.24902Z" fill="currentColor" />
  <path d="M7.26758 19.2002C8.75562 20.367 10.5789 20.9998 12.4995 20.9998C13.7203 20.9998 14.9016 20.7438 15.9826 20.2579C15.5774 17.9101 14.9287 15.6448 14.0631 13.4888C11.0549 14.3098 8.57664 16.4267 7.26758 19.2002Z" fill="currentColor" />
  <path d="M12.3393 13.0309C12.7765 12.846 13.2222 12.6893 13.6748 12.5604C13.4359 12.0133 13.1825 11.474 12.9158 10.9424C10.6195 11.795 8.20486 12.2271 5.72449 12.2271C5.14823 12.2271 4.57574 12.2033 4.00739 12.1569C4.00285 12.2709 4 12.3853 4 12.5001C4 14.7705 4.88416 16.9049 6.48959 18.5104C6.4901 18.5109 6.49075 18.5114 6.49127 18.5119C7.04652 17.4045 7.77271 16.3981 8.65752 15.5131C9.72118 14.4496 10.9598 13.6145 12.3393 13.0309Z" fill="currentColor" />
  <path d="M12.4501 10.0478C11.4415 8.17977 10.2613 6.41728 8.93127 4.78125C8.03491 5.19642 7.20911 5.77034 6.4898 6.48965C5.2037 7.77576 4.38101 9.40154 4.10449 11.1647C4.63885 11.2084 5.17918 11.2311 5.7247 11.2311C8.08549 11.2311 10.3507 10.8132 12.4501 10.0478Z" fill="currentColor" />
</svg>
