<svg width="24" height="24" viewBox="0 0 24 24" fill="none" xmlns="http://www.w3.org/2000/svg">
  <path d="M19.5284 8.17559C19.7231 7.59129 19.8206 6.98557 19.8206 6.35822C19.8206 5.52166 19.6365 4.73556 19.2688 4C18.4973 4 17.8159 4.14075 17.2244 4.42192C16.6331 4.70316 15.9589 5.13944 15.2019 5.73076C14.2501 5.50002 13.2402 5.38465 12.1731 5.38465C11.0048 5.38465 9.89057 5.51093 8.83054 5.76331C8.05899 5.15748 7.3775 4.71229 6.78614 4.42738C6.19479 4.14246 5.50974 4.00004 4.73084 4.00004C4.36306 4.73559 4.17919 5.52173 4.17919 6.35826C4.17919 6.99292 4.27648 7.60591 4.47123 8.19715C3.49035 9.34387 3 10.7717 3 12.4808C3 13.981 3.22346 15.1744 3.67065 16.0615C3.9087 16.5301 4.2187 16.9448 4.60096 17.3055C4.98306 17.6659 5.41937 17.9582 5.9098 18.1818C6.40029 18.4052 6.89416 18.591 7.39182 18.7387C7.88944 18.8865 8.43927 18.9948 9.04146 19.063C9.64362 19.1318 10.1754 19.1768 10.637 19.1986C11.0985 19.22 11.6104 19.2309 12.1731 19.2309C12.8364 19.2309 13.4384 19.2146 13.9795 19.1823C14.5204 19.1499 15.1387 19.0704 15.8347 18.9445C16.5305 18.8182 17.1436 18.6468 17.6737 18.4306C18.2038 18.2143 18.7123 17.9041 19.1991 17.5004C19.6858 17.0964 20.0661 16.6169 20.3403 16.0616C20.7799 15.1673 21 13.9737 21 12.4809C20.9997 10.7645 20.5093 9.32943 19.5284 8.17559ZM18.2308 16.045C18 16.5175 17.7078 16.8886 17.3545 17.1593C17.0011 17.4298 16.5612 17.6461 16.0349 17.8085C15.5082 17.9707 15.0037 18.077 14.5204 18.1274C14.0371 18.1779 13.5 18.2031 12.9085 18.2031H11.0912C10.4998 18.2031 9.96248 18.1779 9.47937 18.1274C8.99622 18.077 8.49144 17.9707 7.96495 17.8085C7.43865 17.6461 6.99881 17.4298 6.64535 17.1593C6.29189 16.8886 5.99985 16.5175 5.76908 16.045C5.53834 15.5725 5.42293 15.0192 5.42293 14.3846C5.42293 13.519 5.67175 12.7833 6.1694 12.1779C6.66702 11.572 7.34124 11.2692 8.19213 11.2692C8.50235 11.2692 9.20548 11.3449 10.3016 11.4964C10.8136 11.5757 11.3798 11.6153 11.9999 11.6153C12.6202 11.6153 13.1863 11.5758 13.6982 11.4964C14.8089 11.3448 15.5118 11.2692 15.8077 11.2692C16.6585 11.2692 17.3327 11.5722 17.8304 12.1779C18.328 12.7836 18.5767 13.519 18.5767 14.3846C18.5767 15.0193 18.4613 15.573 18.2308 16.045Z" fill="currentColor" />
  <path d="M9.32225 12.6756C9.10228 12.4303 8.84096 12.3076 8.53801 12.3076C8.23498 12.3076 7.97363 12.4304 7.75369 12.6756C7.53387 12.9206 7.37872 13.1948 7.28862 13.4973C7.19833 13.8005 7.15332 14.0961 7.15332 14.3847C7.15332 14.6731 7.19844 14.9687 7.28862 15.2719C7.3786 15.5746 7.53368 15.8486 7.75369 16.0936C7.97375 16.3389 8.23498 16.4616 8.53801 16.4616C8.84096 16.4616 9.10239 16.3387 9.32225 16.0936C9.54216 15.8486 9.69723 15.5746 9.78733 15.2719C9.8775 14.9687 9.92263 14.6731 9.92263 14.3847C9.92263 14.0964 9.87762 13.8005 9.78733 13.4973C9.69719 13.1949 9.54227 12.9209 9.32225 12.6756Z" fill="currentColor" />
  <path d="M16.246 12.6756C16.0261 12.4303 15.7648 12.3076 15.4619 12.3076C15.1591 12.3076 14.8976 12.4304 14.6776 12.6756C14.4577 12.9206 14.3026 13.1948 14.2126 13.4973C14.1223 13.8005 14.0771 14.0961 14.0771 14.3847C14.0771 14.6731 14.1223 14.9687 14.2126 15.2719C14.3026 15.5746 14.4577 15.8486 14.6776 16.0936C14.8976 16.3389 15.1591 16.4616 15.4619 16.4616C15.7648 16.4616 16.0262 16.3387 16.246 16.0936C16.4658 15.8486 16.621 15.5746 16.7112 15.2719C16.8014 14.9687 16.8465 14.6731 16.8465 14.3847C16.8465 14.0964 16.8014 13.8005 16.7112 13.4973C16.621 13.1949 16.4658 12.9209 16.246 12.6756Z" fill="currentColor" />
</svg>
