<svg width="24" height="24" viewBox="0 0 24 24" fill="none" xmlns="http://www.w3.org/2000/svg">
  <path fill-rule="evenodd" clip-rule="evenodd" d="M20.9508 8.29207C20.9087 7.33565 20.754 6.67813 20.5324 6.10837C20.3039 5.50359 19.9522 4.96214 19.4916 4.51202C19.0414 4.0549 18.4964 3.69969 17.8986 3.4747C17.3256 3.25315 16.6715 3.09848 15.7151 3.05632C14.7515 3.01058 14.4456 3 12.0018 3C9.55794 3 9.25205 3.01058 8.29207 3.05274C7.33565 3.09491 6.67813 3.24971 6.10851 3.47113C5.50359 3.69969 4.96214 4.05133 4.51202 4.51202C4.0549 4.96214 3.69983 5.50717 3.4747 6.10494C3.25315 6.67813 3.09848 7.33208 3.05632 8.28849C3.01058 9.25205 3 9.55794 3 12.0018C3 14.4456 3.01058 14.7515 3.05274 15.7115C3.09491 16.6679 3.24971 17.3254 3.47127 17.8952C3.69983 18.5 4.0549 19.0414 4.51202 19.4916C4.96214 19.9487 5.50717 20.3039 6.10494 20.5289C6.67813 20.7504 7.33208 20.9051 8.28863 20.9473C9.24848 20.9896 9.55451 21 11.9984 21C14.4422 21 14.7481 20.9896 15.7081 20.9473C16.6645 20.9051 17.322 20.7504 17.8916 20.5289C19.1013 20.0612 20.0577 19.1048 20.5254 17.8952C20.7469 17.322 20.9017 16.6679 20.9438 15.7115C20.986 14.7515 20.9966 14.4456 20.9966 12.0018C20.9966 9.55794 20.993 9.25205 20.9508 8.29207ZM12.0018 7.37781C9.44902 7.37781 7.37782 9.44887 7.37782 12.0018C7.37782 14.5547 9.44902 16.6257 12.0018 16.6257C14.5547 16.6257 16.6258 14.5547 16.6258 12.0018C16.6258 9.44887 14.5547 7.37781 12.0018 7.37781ZM16.8086 8.27448C17.4048 8.27448 17.8882 7.79112 17.8882 7.19499C17.8882 6.59873 17.4048 6.11551 16.8086 6.11551C16.2124 6.11551 15.7291 6.59873 15.7291 7.19499C15.7291 7.79112 16.2124 8.27448 16.8086 8.27448Z" fill="currentColor" />
  <circle cx="12" cy="12" r="3" fill="currentColor" />
</svg>
