<svg width="24" height="24" viewBox="0 0 24 24" fill="none" xmlns="http://www.w3.org/2000/svg">
  <path d="M19.6435 6.58171L21 5.28404V5H16.3009L12.9519 13.3357L9.14179 5H4.21463V5.28404L5.79917 7.19158C5.95358 7.33254 6.03433 7.53867 6.01379 7.74621V15.2425C6.06267 15.5124 5.97483 15.79 5.785 15.9862L4 18.1495V18.43H9.06104V18.146L7.27604 15.9862C7.08267 15.7893 6.99129 15.5166 7.03025 15.2425V8.75842L11.4729 18.4335H11.9893L15.8093 8.75842V16.4658C15.8093 16.6691 15.8093 16.7109 15.6762 16.844L14.302 18.1736V18.4583H20.9688V18.1743L19.6442 16.8773C19.5281 16.7895 19.4679 16.6422 19.4927 16.4991V6.95996C19.4679 6.81617 19.5274 6.66883 19.6435 6.58171Z" fill="currentColor" />
</svg>
