<svg width="24" height="24" viewBox="0 0 24 24" fill="none" xmlns="http://www.w3.org/2000/svg">
  <path d="M19.8059 7.50695C18.7771 7.50695 17.8278 7.16612 17.0655 6.59113C16.1912 5.93198 15.5631 4.9651 15.3412 3.85069C15.2863 3.57534 15.2567 3.29119 15.2539 3H12.3149V11.0308L12.3114 15.4297C12.3114 16.6057 11.5455 17.6029 10.4839 17.9536C10.1758 18.0553 9.8431 18.1036 9.49663 18.0846C9.05438 18.0603 8.63996 17.9268 8.27975 17.7113C7.51322 17.2529 6.99351 16.4212 6.97942 15.4698C6.95724 13.9829 8.15933 12.7706 9.64522 12.7706C9.93852 12.7706 10.2202 12.8185 10.4839 12.9054V10.7104V9.92134C10.2058 9.88015 9.92268 9.85867 9.63641 9.85867C8.01004 9.85867 6.48894 10.5347 5.40164 11.7526C4.57982 12.6731 4.08687 13.8473 4.01082 15.0786C3.91117 16.6962 4.50306 18.2339 5.65093 19.3683C5.81959 19.5349 5.9967 19.6895 6.1819 19.8321C7.16604 20.5894 8.36919 21 9.63641 21C9.92268 21 10.2058 20.9789 10.4839 20.9377C11.6677 20.7623 12.7599 20.2204 13.6219 19.3683C14.681 18.3215 15.2662 16.9318 15.2726 15.4526L15.2574 8.88369C15.7627 9.27347 16.3152 9.596 16.9081 9.84635C17.8303 10.2354 18.8081 10.4326 19.8144 10.4322V8.29814V7.50625C19.8151 7.50695 19.8066 7.50695 19.8059 7.50695Z" fill="currentColor" />
</svg>
