<svg width="24" height="24" viewBox="0 0 24 24" fill="none" xmlns="http://www.w3.org/2000/svg">
  <path d="M21 6.73137C20.3306 7.025 19.6174 7.21962 18.8737 7.31412C19.6388 6.85737 20.2226 6.13962 20.4971 5.2745C19.7839 5.69975 18.9964 6.00013 18.1571 6.16775C17.4799 5.44663 16.5146 5 15.4616 5C13.4186 5 11.7739 6.65825 11.7739 8.69113C11.7739 8.98363 11.7986 9.26487 11.8594 9.53262C8.7915 9.383 6.07687 7.91263 4.25325 5.67275C3.93487 6.22513 3.74813 6.85738 3.74813 7.538C3.74813 8.816 4.40625 9.94887 5.38725 10.6047C4.79437 10.5935 4.21275 10.4214 3.72 10.1502C3.72 10.1615 3.72 10.1761 3.72 10.1907C3.72 11.984 4.99912 13.4735 6.6765 13.8166C6.37612 13.8988 6.04875 13.9381 5.709 13.9381C5.47275 13.9381 5.23425 13.9246 5.01038 13.8751C5.4885 15.3365 6.84525 16.4109 8.4585 16.4457C7.203 17.4279 5.60888 18.0196 3.88313 18.0196C3.5805 18.0196 3.29025 18.0061 3 17.969C4.63462 19.0231 6.57188 19.625 8.661 19.625C15.4515 19.625 19.164 14 19.164 9.12425C19.164 8.96112 19.1584 8.80363 19.1505 8.64725C19.8829 8.1275 20.4982 7.47837 21 6.73137Z" fill="currentColor" />
</svg>
