<svg width="24" height="24" viewBox="0 0 24 24" fill="none" xmlns="http://www.w3.org/2000/svg">
  <path d="M13.3284 8.22806C15.3781 6.99734 16.4828 8.73205 15.4321 10.6929C14.3791 12.6616 13.4128 13.9452 12.9122 13.9452C12.4205 13.9452 12.0313 12.6245 11.4553 10.3318C10.8647 7.95694 10.8647 3.67529 8.39426 4.16128C6.05881 4.62252 3 8.27869 3 8.27869L3.72673 9.23604C3.72673 9.23604 5.2342 8.04694 5.73594 8.63868C6.24443 9.23604 8.16926 16.4089 8.806 17.7352C9.36174 18.8973 10.9041 20.4307 12.5893 19.3372C14.2903 18.237 19.905 13.4423 20.9107 7.76907C21.9142 2.10595 14.1429 3.29167 13.3284 8.22806Z" fill="currentColor" />
</svg>
