<svg width="24" height="24" viewBox="0 0 24 24" fill="none" xmlns="http://www.w3.org/2000/svg">
  <path d="M20.6018 7.82174L20.6243 7.96874C20.4068 7.197 19.8195 6.6015 19.0733 6.38476L19.0575 6.38101C17.6543 6.00001 12.0076 6.00001 12.0076 6.00001C12.0076 6.00001 6.37518 5.99251 4.9577 6.38101C4.19721 6.6015 3.60921 7.197 3.39547 7.95299L3.39172 7.96874C2.86747 10.707 2.86372 13.9972 3.41497 16.9289L3.39172 16.7804C3.60921 17.5521 4.19646 18.1476 4.9427 18.3644L4.95845 18.3681C6.36018 18.7499 12.0084 18.7499 12.0084 18.7499C12.0084 18.7499 17.64 18.7499 19.0583 18.3681C19.8195 18.1476 20.4075 17.5521 20.6213 16.7961L20.625 16.7804C20.8635 15.5069 21 14.0414 21 12.5444C21 12.4897 21 12.4342 20.9993 12.3787C21 12.3277 21 12.2669 21 12.2062C21 10.7085 20.8635 9.24297 20.6018 7.82174ZM10.2061 15.1131V9.64347L14.9056 12.3824L10.2061 15.1131Z" fill="currentColor" />
</svg>
