<svg width="24" height="24" viewBox="0 0 24 24" fill="none" xmlns="http://www.w3.org/2000/svg">
<path d="M10.2162 17.2193V17.916C10.2162 18.1902 10.2703 18.4617 10.3754 18.715C10.4805 18.9682 10.6346 19.1982 10.8288 19.3918C11.0229 19.5854 11.2534 19.7388 11.507 19.8432C11.7605 19.9475 12.0322 20.0008 12.3064 20C12.5803 20.0008 12.8517 19.9475 13.1049 19.843C13.3581 19.7386 13.5881 19.5851 13.7818 19.3915C13.9755 19.1978 14.129 18.9677 14.2334 18.7145C14.3378 18.4613 14.3912 18.1899 14.3903 17.916V17.2193M19.5939 15.876V17.2193H5V15.876C4.99957 15.4192 5.08915 14.9668 5.26363 14.5446C5.43811 14.1224 5.69406 13.7387 6.01687 13.4155L7.46057 11.978C7.78338 11.6548 8.03934 11.2711 8.21381 10.8489C8.38829 10.4267 8.47787 9.97428 8.47744 9.51745V7.82895C8.47744 6.81345 8.88085 5.83954 9.59891 5.12147C10.317 4.40341 11.2909 4 12.3064 4C13.3219 4 14.2958 4.40341 15.0139 5.12147C15.7319 5.83954 16.1353 6.81345 16.1353 7.82895V9.51745C16.1349 9.97428 16.2245 10.4267 16.399 10.8489C16.5734 11.2711 16.8294 11.6548 17.1522 11.978L18.5896 13.4155C19.2364 14.0707 19.5975 14.9553 19.5939 15.876Z" stroke="#3781FC" stroke-width="1.2" stroke-linecap="round" stroke-linejoin="round"/>
</svg>
