<svg width="24" height="24" viewBox="0 0 24 24" fill="none" xmlns="http://www.w3.org/2000/svg">
<path d="M19.853 16.405H10.3727C9.64929 16.4054 8.94909 16.1495 8.39634 15.6827C7.84359 15.216 7.47401 14.5686 7.35317 13.8553L5.48752 3H3M6.06101 6.06104H21L20.0672 10.4971C19.8964 11.3175 19.4613 12.0591 18.8285 12.6083C18.1956 13.1575 17.4001 13.4839 16.5639 13.5374L7.40842 14.1317M10.2761 19.2725C10.2761 20.0129 9.67589 20.613 8.93556 20.613C8.19522 20.613 7.59506 20.0129 7.59506 19.2725C7.59506 18.5322 8.19522 17.932 8.93556 17.932C9.67589 17.932 10.2761 18.5322 10.2761 19.2725ZM19.4661 19.2725C19.4661 20.0129 18.8659 20.613 18.1256 20.613C17.3852 20.613 16.7851 20.0129 16.7851 19.2725C16.7851 18.5322 17.3852 17.932 18.1256 17.932C18.8659 17.932 19.4661 18.5322 19.4661 19.2725Z" stroke="#3781FC" stroke-width="1.2" stroke-linecap="round" stroke-linejoin="round"/>
</svg>
