<svg width="24" height="24" viewBox="0 0 24 24" fill="none" xmlns="http://www.w3.org/2000/svg">
<path d="M7.00002 12.375V6.26136C7.00002 5.92683 7.13292 5.606 7.36947 5.36944C7.60602 5.13289 7.92685 5 8.26139 5H17.2727C17.6073 5 17.9281 5.13289 18.1647 5.36944C18.4012 5.606 18.5341 5.92683 18.5341 6.26136V14.5455M3 14.6477C4.32955 13.7841 5.52273 13.125 6.5 12.6136C7.76797 11.9646 9.12278 11.5015 10.5227 11.2386H10.9773C11.5455 11.2386 11.9659 11.4432 13.7955 11.5454C14.9318 11.6136 15.5682 11.625 15.75 12.0114C15.9318 12.3977 15.6023 12.9204 15.3409 13.2273C14.2045 14.4545 11.4886 13.6477 11.2727 14.3636C11.2727 14.5114 11.2727 14.7614 11.625 15.1818C13.2955 15.2614 14.4318 15.5795 16.1705 15.6591C16.6136 15.4659 17.3068 15.1591 18.1705 14.75C19.3068 14.2273 19.6591 14.0227 20.0682 14.1704C20.6591 14.3864 20.8977 15.1818 21 15.7045C20.3429 16.2804 19.6482 16.8119 18.9205 17.2954C18.1482 17.7987 17.339 18.2432 16.5 18.625H7.35227L3 17.9545V14.6477Z" stroke="#3781FC" stroke-width="1.2" stroke-linecap="round" stroke-linejoin="round"/>
</svg>
