<svg width="102" height="49" viewBox="0 0 102 49" fill="none" xmlns="http://www.w3.org/2000/svg">
<path d="M3.62891 42.3481H101" stroke="#221E54" stroke-width="0.8" stroke-linecap="round"/>
<path d="M19.866 36.2624V40.2303C19.8653 40.51 19.809 40.7867 19.7003 41.0444C19.5916 41.3022 19.4328 41.5357 19.2331 41.7315C18.8202 42.1265 18.271 42.3473 17.6995 42.3481H10.6645C10.3862 42.3449 10.1111 42.2899 9.85303 42.1859C9.57819 42.0869 9.3268 41.9322 9.11463 41.7315C8.71048 41.3358 8.47992 40.7959 8.47361 40.2303V36.2624H19.866ZM19.5739 30.1768H8.79006C8.79006 30.1768 7.68652 34.7045 7.68652 34.9398C7.71558 35.3486 7.8982 35.7312 8.19772 36.0109C8.49912 36.2963 8.89839 36.4553 9.31343 36.4553C9.72847 36.4553 10.1277 36.2963 10.4291 36.0109C10.7305 35.7334 10.9111 35.3489 10.9322 34.9398C10.9613 35.3486 11.1439 35.7312 11.4434 36.0109C11.7448 36.2963 12.1441 36.4553 12.5591 36.4553C12.9742 36.4553 13.3734 36.2963 13.6748 36.0109C13.9762 35.7334 14.1568 35.3489 14.1779 34.9398C14.207 35.3486 14.3896 35.7312 14.6891 36.0109C14.9905 36.2963 15.3898 36.4553 15.8048 36.4553C16.2199 36.4553 16.6191 36.2963 16.9205 36.0109C17.2219 35.7334 17.4025 35.3489 17.4236 34.9398C17.4527 35.3486 17.6353 35.7312 17.9348 36.0109C18.2362 36.2963 18.6355 36.4553 19.0505 36.4553C19.4656 36.4553 19.8649 36.2963 20.1662 36.0109C20.4676 35.7334 20.6482 35.3489 20.6693 34.9398C20.6693 34.7045 19.5983 30.1768 19.5983 30.1768H19.5739ZM13.0825 39.1755H15.2409V42.3481H13.0987L13.0825 39.1755Z" stroke="#221E54" stroke-width="0.8" stroke-linecap="round" stroke-linejoin="round"/>
<path d="M19.5983 30.1768H8.79006C8.79006 30.1768 7.68652 34.7045 7.68652 34.9398C7.71558 35.3486 7.8982 35.7312 8.19772 36.0109C8.49912 36.2963 8.89839 36.4553 9.31343 36.4553C9.72847 36.4553 10.1277 36.2963 10.4291 36.0109C10.7305 35.7334 10.9111 35.3489 10.9322 34.9398C10.9613 35.3486 11.1439 35.7312 11.4434 36.0109C11.7448 36.2963 12.1441 36.4553 12.5591 36.4553C12.9742 36.4553 13.3734 36.2963 13.6748 36.0109C13.9762 35.7334 14.1568 35.3489 14.1779 34.9398C14.207 35.3486 14.3896 35.7312 14.6891 36.0109C14.9905 36.2963 15.3898 36.4553 15.8048 36.4553C16.2199 36.4553 16.6191 36.2963 16.9205 36.0109C17.2219 35.7334 17.4025 35.3489 17.4236 34.9398C17.4527 35.3486 17.6353 35.7312 17.9348 36.0109C18.2362 36.2963 18.6355 36.4553 19.0505 36.4553C19.4656 36.4553 19.8649 36.2963 20.1662 36.0109C20.4676 35.7334 20.6482 35.3489 20.6693 34.9398C20.6693 34.7045 19.5983 30.1768 19.5983 30.1768Z" fill="#FED401"/>
<path d="M19.866 36.2624V40.2303V36.2624ZM8.50606 40.2303V36.2624V40.2303ZM19.6064 30.1768H8.79006C8.79006 30.1768 7.68652 34.7045 7.68652 34.9398C7.71558 35.3486 7.8982 35.7312 8.19772 36.0109C8.49912 36.2963 8.89839 36.4553 9.31343 36.4553C9.72847 36.4553 10.1277 36.2963 10.4291 36.0109C10.7305 35.7334 10.9111 35.3489 10.9322 34.9398C10.9613 35.3486 11.1439 35.7312 11.4434 36.0109C11.7448 36.2963 12.1441 36.4553 12.5591 36.4553C12.9742 36.4553 13.3734 36.2963 13.6748 36.0109C13.9762 35.7334 14.1568 35.3489 14.1779 34.9398C14.207 35.3486 14.3896 35.7312 14.6891 36.0109C14.9905 36.2963 15.3898 36.4553 15.8048 36.4553C16.2199 36.4553 16.6191 36.2963 16.9205 36.0109C17.2219 35.7334 17.4025 35.3489 17.4236 34.9398C17.4527 35.3486 17.6353 35.7312 17.9348 36.0109C18.2362 36.2963 18.6355 36.4553 19.0505 36.4553C19.4656 36.4553 19.8649 36.2963 20.1662 36.0109C20.4676 35.7334 20.6482 35.3489 20.6693 34.9398C20.6693 34.7045 19.5983 30.1768 19.5983 30.1768H19.6064Z" stroke="#221E54" stroke-width="0.8" stroke-linecap="round" stroke-linejoin="round"/>
<path d="M57.4835 48.4335C70.4663 48.4335 81.0148 47.3462 81.0148 45.9992C81.0148 44.6523 70.4663 43.5649 57.4835 43.5649C44.5007 43.5649 33.9521 44.6523 33.9521 45.9992C33.9521 47.3462 44.4845 48.4335 57.4835 48.4335Z" fill="#A1AED9"/>
<path d="M52.7906 19.4151L51.7119 18.3364L49.3939 20.6544L50.4726 21.7331L52.7906 19.4151Z" fill="#FED401"/>
<path d="M63.6817 20.5587L63.4678 19.0483L60.222 19.508L60.4359 21.0184L63.6817 20.5587Z" fill="#FED401"/>
<path d="M38.415 20.0337H76.552V44.3765C76.552 44.8069 76.3811 45.2196 76.0767 45.524C75.7724 45.8283 75.3596 45.9993 74.9292 45.9993H40.0379C39.6075 45.9993 39.1947 45.8283 38.8904 45.524C38.586 45.2196 38.415 44.8069 38.415 44.3765V20.0337Z" fill="white" stroke="#221E54" stroke-width="0.8" stroke-linecap="round" stroke-linejoin="round"/>
<path d="M42.4717 36.2622H51.089" stroke="#221E54" stroke-width="0.8" stroke-linecap="round"/>
<path d="M42.4717 40.3193H56.2659" stroke="#221E54" stroke-width="0.8" stroke-linecap="round"/>
<path d="M24.6201 33.8279L38.4144 20.0337V25.7137L30.3001 33.8279H24.6201Z" fill="#FED401" stroke="#221E54" stroke-width="0.8" stroke-linecap="round" stroke-linejoin="round"/>
<path d="M90.346 33.8279L76.5518 20.0337V25.7137L84.666 33.8279H90.346Z" fill="#FED401" stroke="#221E54" stroke-width="0.8" stroke-linecap="round" stroke-linejoin="round"/>
<path d="M44.2254 13.697L42.8359 14.3267L44.1891 17.3125L45.5786 16.6828L44.2254 13.697Z" fill="#FED401"/>
<path d="M73.415 15.2113L72.0332 14.5649L70.6442 17.5343L72.0259 18.1807L73.415 15.2113Z" fill="#221E53"/>
<path d="M77.3885 9.14423L75.999 9.77393L77.3522 12.7598L78.7417 12.1301L77.3885 9.14423Z" fill="#FED401"/>
<path d="M69.5745 10.0681L68.6172 8.88037L66.0649 10.9376L67.0222 12.1253L69.5745 10.0681Z" fill="#FED401"/>
<path d="M38.9579 11.1063L37.5762 10.46L36.1871 13.4293L37.5689 14.0757L38.9579 11.1063Z" fill="#221E53"/>
<path d="M44.0854 6.72109L43.2168 7.9751L45.9116 9.84176L46.7802 8.58775L44.0854 6.72109Z" fill="#221E53"/>
<path d="M29.8464 10.8404C30.0688 11.4157 30.1755 12.0293 30.1604 12.6459C30.1453 13.2626 30.0087 13.8702 29.7585 14.434C29.5083 14.9978 29.1493 15.5066 28.7021 15.9315C28.2549 16.3563 27.7283 16.6888 27.1524 16.9098L21.9999 18.9709C21.4277 19.193 20.8173 19.3003 20.2036 19.2866C19.5899 19.2729 18.985 19.1384 18.4232 18.8909C17.8615 18.6434 17.3541 18.2877 16.9298 17.844C16.5056 17.4004 16.1729 16.8776 15.9507 16.3053C15.7285 15.7331 15.6212 15.1227 15.635 14.5091C15.6487 13.8954 15.7831 13.2904 16.0306 12.7287C16.2782 12.167 16.6339 11.6595 17.0775 11.2353C17.5212 10.811 18.044 10.4783 18.6162 10.2562L23.7688 8.19514C24.3412 7.96687 24.9532 7.85427 25.5695 7.86384C26.1857 7.87342 26.7939 8.00498 27.359 8.25093C27.924 8.49688 28.4348 8.85235 28.8617 9.2968C29.2887 9.74125 29.6233 10.2659 29.8464 10.8404Z" fill="#FED401"/>
<path d="M21.432 11.5384L21.6024 11.3518C21.7346 11.1539 21.826 10.9316 21.8711 10.698C21.9161 10.4643 21.9141 10.224 21.8649 9.99112C21.8158 9.75827 21.7206 9.5376 21.5849 9.34207C21.4492 9.14655 21.2758 8.98013 21.0749 8.85259L18.6569 7.30277C18.2485 7.04322 17.7542 6.95558 17.2815 7.05893C16.8088 7.16228 16.3961 7.44826 16.1333 7.85454L15.9711 8.08174C15.7135 8.47792 15.6236 8.96004 15.7209 9.42243C15.8183 9.88482 16.095 10.2898 16.4904 10.5485L18.9247 12.1308C19.3371 12.3794 19.8304 12.4566 20.2991 12.3459C20.7677 12.2352 21.1744 11.9453 21.432 11.5384Z" fill="white" stroke="#221E54" stroke-width="0.8" stroke-miterlimit="10" stroke-linecap="round"/>
<path d="M21.4804 11.944L21.7157 11.9034C22.1887 11.7738 22.5925 11.4647 22.841 11.0418C23.0896 10.619 23.1633 10.1159 23.0465 9.63955L22.3486 6.84825C22.2857 6.61516 22.1773 6.3968 22.0297 6.2057C21.8822 6.0146 21.6983 5.85452 21.4887 5.73465C21.2791 5.61478 21.0479 5.53747 20.8084 5.50717C20.5689 5.47687 20.3257 5.49417 20.0929 5.55808L19.8576 5.59865C19.3846 5.7283 18.9808 6.03743 18.7323 6.46024C18.4837 6.88306 18.41 7.38619 18.5268 7.86253L19.2977 10.6376C19.3484 10.8705 19.4464 11.0906 19.5854 11.2841C19.7245 11.4777 19.9018 11.6408 20.1063 11.7632C20.3109 11.8856 20.5383 11.9648 20.7746 11.9959C21.011 12.027 21.2512 12.0093 21.4804 11.944Z" fill="white" stroke="#221E54" stroke-width="0.8" stroke-miterlimit="10" stroke-linecap="round"/>
<path d="M29.862 10.8242C30.3029 11.9887 30.2643 13.2803 29.7549 14.4164C29.2454 15.5524 28.3065 16.4403 27.1438 16.8856L21.9831 18.9628C21.4081 19.2087 20.7895 19.3363 20.1642 19.338C19.5389 19.3397 18.9196 19.2154 18.3433 18.9726C17.767 18.7298 17.2456 18.3734 16.81 17.9248C16.3744 17.4761 16.0336 16.9443 15.8079 16.3611C15.5823 15.7779 15.4764 15.1552 15.4966 14.5302C15.5167 13.9052 15.6626 13.2906 15.9253 12.7232C16.1881 12.1558 16.5625 11.647 17.0261 11.2274C17.4897 10.8077 18.0331 10.4857 18.6238 10.2806L23.7845 8.20334C24.3553 7.97329 24.9661 7.85866 25.5814 7.86606C26.1968 7.87346 26.8047 8.00275 27.3698 8.24646C27.9349 8.49016 28.4461 8.84345 28.8739 9.28591C29.3017 9.72837 29.6375 10.2512 29.862 10.8242Z" fill="#FED401"/>
<path d="M14.9646 18.1119C14.0153 19.2722 11.5648 21.3576 9.35768 20.4488C6.59884 19.2965 7.36969 16.8704 8.87894 17.0489C10.3882 17.2274 12.0354 20.8382 7.86466 22.9723C3.69393 25.1063 1.52743 22.7126 1 21.6334" stroke="#221E54" stroke-width="0.8" stroke-linecap="round" stroke-dasharray="3.5 3.5"/>
<mask id="mask0" mask-type="alpha" maskUnits="userSpaceOnUse" x="15" y="7" width="16" height="13">
<path d="M29.8464 10.8404C30.0688 11.4157 30.1755 12.0293 30.1604 12.6459C30.1453 13.2626 30.0087 13.8702 29.7585 14.434C29.5083 14.9978 29.1493 15.5066 28.7021 15.9315C28.2549 16.3563 27.7283 16.6888 27.1524 16.9098L21.9999 18.9709C21.4277 19.193 20.8173 19.3003 20.2036 19.2866C19.5899 19.2729 18.985 19.1384 18.4232 18.8909C17.8615 18.6434 17.3541 18.2877 16.9298 17.844C16.5056 17.4004 16.1729 16.8776 15.9507 16.3053C15.7285 15.7331 15.6212 15.1227 15.635 14.5091C15.6487 13.8954 15.7831 13.2904 16.0306 12.7287C16.2782 12.167 16.6339 11.6595 17.0775 11.2353C17.5212 10.811 18.044 10.4783 18.6162 10.2562L23.7688 8.19514C24.3412 7.96687 24.9532 7.85427 25.5695 7.86384C26.1857 7.87342 26.7939 8.00498 27.359 8.25093C27.924 8.49688 28.4348 8.85235 28.8617 9.2968C29.2887 9.74125 29.6233 10.2659 29.8464 10.8404Z" fill="#FED401"/>
</mask>
<g mask="url(#mask0)">
<path d="M22.5114 8.33301C22.5114 8.33301 20.5396 14.2889 26.0168 17.4615L22.7061 18.8004C22.7061 18.8004 17.7727 15.5547 19.217 9.78546C19.29 9.73677 22.5195 8.37358 22.5114 8.33301Z" fill="#221E54"/>
<path d="M16.9284 10.8564C16.9284 10.8564 14.9729 16.6906 20.4094 19.8308L17.0988 21.1697C17.0988 21.1697 12.1734 17.924 13.634 12.317C13.6665 12.2278 16.9852 10.9619 16.9284 10.8564Z" fill="#221E54"/>
</g>
<path d="M27.6066 12.3413C27.4981 12.5442 27.3252 12.7052 27.1152 12.7992C26.9052 12.8932 26.6699 12.9148 26.4463 12.8606" stroke="#221E54" stroke-width="0.8" stroke-miterlimit="10" stroke-linecap="round"/>
<path d="M24.6284 12.2769C24.686 12.4135 24.7941 12.5225 24.9301 12.5815C25.0661 12.6404 25.2196 12.6447 25.3587 12.5933C25.4954 12.5356 25.605 12.428 25.6653 12.2924C25.7256 12.1567 25.732 12.0032 25.6832 11.8631C25.6214 11.7334 25.5127 11.632 25.3791 11.5792C25.2455 11.5265 25.0968 11.5263 24.9631 11.5788C24.8294 11.6312 24.7205 11.7324 24.6584 11.862C24.5963 11.9915 24.5855 12.1398 24.6284 12.2769Z" fill="#221E54"/>
<path d="M24.8798 12.1145C24.8809 12.1435 24.891 12.1714 24.9089 12.1942C24.9267 12.2171 24.9513 12.2338 24.9792 12.2419C25.007 12.25 25.0367 12.2491 25.0641 12.2393C25.0914 12.2295 25.1149 12.2114 25.1313 12.1875C25.1576 12.1795 25.1819 12.1659 25.2023 12.1475C25.2227 12.129 25.2388 12.1063 25.2494 12.081C25.26 12.0556 25.2649 12.0283 25.2637 12.0008C25.2625 11.9733 25.2553 11.9465 25.2425 11.9221C25.2297 11.8978 25.2117 11.8766 25.1898 11.86C25.1679 11.8434 25.1425 11.8319 25.1156 11.8263C25.0888 11.8206 25.0609 11.821 25.0342 11.8273C25.0074 11.8336 24.9824 11.8458 24.9609 11.8629C24.9204 11.8711 24.8636 12.0009 24.8798 12.1145Z" fill="white"/>
<path d="M27.3713 11.2218C27.4331 11.3515 27.5418 11.4529 27.6754 11.5056C27.809 11.5584 27.9576 11.5585 28.0914 11.5061C28.2251 11.4536 28.334 11.3524 28.3961 11.2229C28.4582 11.0933 28.4689 10.9451 28.4261 10.808C28.3701 10.6701 28.2622 10.5596 28.1257 10.5004C27.9891 10.4413 27.8347 10.4381 27.6958 10.4915C27.6261 10.5176 27.5623 10.5573 27.5082 10.6083C27.454 10.6593 27.4105 10.7205 27.3803 10.7885C27.3501 10.8565 27.3337 10.9299 27.3322 11.0043C27.3306 11.0786 27.3439 11.1526 27.3713 11.2218Z" fill="#221E54"/>
<path d="M27.6312 11.0595C27.6347 11.087 27.646 11.113 27.6637 11.1343C27.6814 11.1556 27.7048 11.1714 27.7312 11.1799C27.7576 11.1884 27.7858 11.1893 27.8127 11.1823C27.8395 11.1754 27.8638 11.1609 27.8827 11.1407C27.9102 11.1355 27.9357 11.1229 27.9566 11.1043C27.9774 11.0858 27.9928 11.0619 28.0012 11.0352C28.0095 11.0085 28.0104 10.9801 28.0039 10.953C27.9973 10.9258 27.9835 10.9009 27.9639 10.881C27.9604 10.8524 27.9486 10.8254 27.9298 10.8035C27.911 10.7816 27.8862 10.7657 27.8584 10.7579C27.8306 10.7501 27.8012 10.7507 27.7737 10.7596C27.7463 10.7685 27.7221 10.7854 27.7042 10.808C27.6721 10.8406 27.6487 10.8807 27.6359 10.9246C27.6232 10.9685 27.6216 11.0149 27.6312 11.0595Z" fill="white"/>
<path d="M26.2436 8.28455C26.2436 8.28455 25.7973 6.01256 27.5906 6.18296" stroke="#221E54" stroke-width="0.8" stroke-miterlimit="10" stroke-linecap="round"/>
<path d="M24.6201 8.87694C24.6201 8.87694 23.1676 6.88895 24.5308 6.09375" stroke="#221E54" stroke-width="0.8" stroke-miterlimit="10" stroke-linecap="round"/>
<g clip-path="url(#clip0)">
<path d="M64.6154 7.62717C64.6094 9.31539 64.0186 10.9494 62.9437 12.2512C61.8687 13.5529 60.3759 14.442 58.7193 14.7672C57.0627 15.0924 55.3446 14.8336 53.8573 14.0348C52.37 13.2361 51.2054 11.9466 50.5616 10.386C49.9178 8.82531 49.8346 7.08979 50.3262 5.47471C50.8178 3.85964 51.8538 2.46476 53.2579 1.52741C54.662 0.590063 56.3475 0.168144 58.0276 0.333439C59.7077 0.498735 61.2787 1.24103 62.4732 2.43404C63.1554 3.11538 63.6959 3.92507 64.0636 4.81639C64.4313 5.7077 64.6188 6.663 64.6154 7.62717Z" fill="#FED401"/>
<path d="M53.9375 7.62727L56.1202 10.0859L60.6886 5.62305" stroke="#221E54" stroke-width="2" stroke-linecap="round" stroke-linejoin="round"/>
<path d="M64.6154 7.62717C64.6094 9.31539 64.0186 10.9494 62.9437 12.2512C61.8687 13.5529 60.3759 14.442 58.7193 14.7672C57.0627 15.0924 55.3446 14.8336 53.8573 14.0348C52.37 13.2361 51.2054 11.9466 50.5616 10.386C49.9178 8.82531 49.8346 7.08979 50.3262 5.47471C50.8178 3.85964 51.8538 2.46476 53.2579 1.52741C54.662 0.590063 56.3475 0.168144 58.0276 0.333439C59.7077 0.498735 61.2787 1.24103 62.4732 2.43404C63.1554 3.11538 63.6959 3.92507 64.0636 4.81639C64.4313 5.7077 64.6188 6.663 64.6154 7.62717Z" stroke="#221E54" stroke-width="0.8" stroke-linecap="round" stroke-linejoin="round"/>
</g>
<path d="M93.0114 12.17C92.9549 11.5065 92.6401 10.8877 92.1297 10.437C91.6194 9.98622 90.9508 9.73648 90.2572 9.73752C89.9011 9.73312 89.5477 9.79712 89.2177 9.92576C88.8877 10.0544 88.5879 10.2451 88.3358 10.4865C88.0838 10.728 87.8846 11.0155 87.7499 11.3319C87.6153 11.6484 87.548 11.9875 87.5519 12.3293V12.7183H87.1466C86.6854 12.7335 86.2474 12.9161 85.9211 13.2293C85.5948 13.5425 85.4045 13.9629 85.3887 14.4056V16.2287H93.0114C93.5721 16.2287 94.1099 16.0149 94.5065 15.6343C94.903 15.2537 95.1258 14.7376 95.1258 14.1993C95.1258 13.6611 94.903 13.1449 94.5065 12.7643C94.1099 12.3838 93.5721 12.17 93.0114 12.17Z" stroke="#1F1A54" stroke-width="0.8" stroke-linecap="round" stroke-linejoin="round"/>
<defs>
<clipPath id="clip0">
<rect width="15.2548" height="15.2548" fill="white" transform="translate(49.6855)"/>
</clipPath>
</defs>
</svg>
