<svg width="100" height="51" viewBox="0 0 100 51" fill="none" xmlns="http://www.w3.org/2000/svg">
<path d="M94.3833 40.1583C94.4333 40.5333 94.2832 40.8917 94.0666 40.8917H89.7083C89.4999 40.8917 89.3416 40.5333 89.3999 40.1583L91.5749 25.7167C91.6582 25.1417 92.1166 25.1417 92.2083 25.7167L94.3833 40.1583Z" fill="#FED401" stroke="#221E54" stroke-width="0.8" stroke-linecap="round" stroke-linejoin="round"/>
<path d="M92.5996 38.4084C92.64 38.5065 92.652 38.614 92.6343 38.7186C92.6167 38.8232 92.57 38.9207 92.4996 39.0001L89.6746 40.8501C89.5329 40.9418 89.3829 40.7751 89.3746 40.5084L88.8496 30.2168C88.8496 29.8084 89.1246 29.6168 89.2579 29.9501L92.5996 38.4084Z" fill="#FED401" stroke="#221E54" stroke-width="0.8" stroke-linecap="round" stroke-linejoin="round"/>
<path d="M90.8336 38.5417C90.8666 38.5971 90.884 38.6604 90.884 38.725C90.884 38.7895 90.8666 38.8529 90.8336 38.9083L89.4753 40.825C89.4086 40.9166 89.3169 40.875 89.2836 40.7333L87.9586 35.2916C87.9086 35.075 88.0503 34.875 88.1586 35.0083L90.8336 38.5417Z" fill="#FED401" stroke="#221E54" stroke-width="0.8" stroke-linecap="round" stroke-linejoin="round"/>
<path d="M91.1913 38.4084C91.1486 38.5094 91.136 38.6206 91.1553 38.7286C91.1745 38.8366 91.2246 38.9367 91.2996 39.0167L94.1163 40.8667C94.258 40.9584 94.408 40.7917 94.4246 40.525L94.9413 30.2334C94.9413 29.825 94.6663 29.6334 94.533 29.9667L91.1913 38.4084Z" fill="#FED401" stroke="#221E54" stroke-width="0.8" stroke-linecap="round" stroke-linejoin="round"/>
<path d="M92.8415 38.5417C92.8085 38.5971 92.791 38.6604 92.791 38.725C92.791 38.7895 92.8085 38.8529 92.8415 38.9083L94.1998 40.825C94.2665 40.9166 94.3581 40.875 94.3915 40.7333L95.7165 35.2916C95.7665 35.075 95.6248 34.875 95.5165 35.0083L92.8415 38.5417Z" fill="#FED401" stroke="#221E54" stroke-width="0.8" stroke-linecap="round" stroke-linejoin="round"/>
<path d="M0 43.9248H100" stroke="#221E54" stroke-width="0.8"/>
<path d="M96.9583 38.7998H86.7666L89.0666 48.0165H94.8333L96.9583 38.7998Z" fill="white" stroke="#221E54" stroke-width="0.8" stroke-linecap="round" stroke-linejoin="round"/>
<path d="M94.817 48.0999H89.0587C89.0587 48.0999 89.0087 48.0999 88.9837 48.0999C88.9784 48.0881 88.9756 48.0753 88.9756 48.0624C88.9756 48.0495 88.9784 48.0367 88.9837 48.0249L86.667 38.8249C86.6695 38.7997 86.6796 38.7758 86.696 38.7565C86.7123 38.7371 86.7342 38.7232 86.7587 38.7166H96.967C96.967 38.7166 97.017 38.7166 97.042 38.7166C97.0483 38.7411 97.0483 38.767 97.042 38.7916L94.917 47.9582C94.9219 47.9902 94.9142 48.0228 94.8955 48.0492C94.8769 48.0756 94.8487 48.0938 94.817 48.0999ZM89.167 47.9416H94.7253L96.842 38.9249H86.842L89.167 47.9416Z" fill="#221E54"/>
<path d="M49.6417 50.6082C62.4251 50.6082 72.8001 49.4832 72.8001 48.1082C72.8001 46.7332 62.4251 45.6082 49.6417 45.6082C36.8584 45.6082 26.4834 46.7248 26.4834 48.1082C26.4834 49.4915 36.8501 50.6082 49.6417 50.6082Z" fill="#A1AED9"/>
<path d="M68.8834 43.6334C76.3834 43.6334 81.775 35.8834 76.3834 30.9584C66.3834 21.8417 47.575 29.125 26.7917 35.8834C20.7167 37.8667 11.3417 36.7167 7.91671 31.7667C6.58904 29.9033 5.99559 27.6155 6.25004 25.3417C6.65828 23.3324 7.78389 21.5403 9.41671 20.3" stroke="#221E54" stroke-width="0.8" stroke-linecap="round" stroke-dasharray="4 4"/>
<path d="M13.0584 12.7082L18.4 11.3998C19.5968 11.1203 20.8557 11.3275 21.8996 11.9761C22.9436 12.6247 23.6871 13.6614 23.9667 14.8582C24.2463 16.055 24.039 17.3138 23.3904 18.3577C22.7419 19.4017 21.7052 20.1452 20.5084 20.4248L15.1667 21.7332C13.9699 22.0127 12.7111 21.8055 11.6671 21.1569C10.6232 20.5083 9.87961 19.4716 9.60003 18.2748C9.32045 17.078 9.52774 15.8192 10.1763 14.7753C10.8249 13.7313 11.8616 12.9877 13.0584 12.7082Z" fill="#FED401"/>
<path d="M15.6421 14.3581L15.8338 14.1998C16.1423 13.8458 16.2981 13.3839 16.2668 12.9153C16.2356 12.4468 16.0199 12.0097 15.6671 11.6998L13.5087 9.83311C13.1443 9.52251 12.6719 9.36839 12.1943 9.40428C11.7168 9.44018 11.2727 9.66318 10.9587 10.0248L10.7671 10.2248C10.4585 10.5788 10.3028 11.0406 10.334 11.5092C10.3653 11.9778 10.5809 12.4149 10.9337 12.7248L13.0921 14.6081C13.4648 14.9097 13.9412 15.0526 14.4183 15.0058C14.8955 14.9591 15.3351 14.7264 15.6421 14.3581Z" fill="white" stroke="#221E54" stroke-width="0.8" stroke-miterlimit="10" stroke-linecap="round"/>
<path d="M15.6338 14.7665H15.8754C16.3611 14.71 16.8047 14.4635 17.1092 14.0809C17.4137 13.6983 17.5544 13.2108 17.5004 12.7248L17.2171 9.89146C17.1547 9.41149 16.9051 8.97565 16.5226 8.67904C16.1401 8.38242 15.6558 8.24909 15.1754 8.30813H14.9421C14.4595 8.36865 14.02 8.61683 13.719 8.99895C13.418 9.38107 13.2796 9.86638 13.3338 10.3498L13.7004 13.1831C13.719 13.4157 13.7843 13.6422 13.8925 13.849C14.0007 14.0557 14.1495 14.2385 14.3301 14.3864C14.5106 14.5342 14.7191 14.6441 14.9431 14.7094C15.1672 14.7747 15.4021 14.7941 15.6338 14.7665Z" fill="white" stroke="#221E54" stroke-width="0.8" stroke-miterlimit="10" stroke-linecap="round"/>
<path d="M13.067 12.7334L18.417 11.4167C19.0086 11.2704 19.6234 11.2429 20.2257 11.3358C20.828 11.4288 21.4059 11.6402 21.9259 11.958C22.446 12.2757 22.8978 12.6935 23.2553 13.187C23.6128 13.6806 23.8689 14.2402 24.0086 14.8334C24.2803 16.0355 24.0645 17.2963 23.4085 18.3397C22.7525 19.383 21.7098 20.1239 20.5086 20.4L15.1586 21.7167C13.9674 21.9941 12.7147 21.7869 11.6762 21.1407C10.6378 20.4944 9.89851 19.4621 9.62114 18.2709C9.34377 17.0796 9.55098 15.827 10.1972 14.7885C10.8434 13.75 11.8757 13.0108 13.067 12.7334Z" fill="#FED401"/>
<mask id="mask0" mask-type="alpha" maskUnits="userSpaceOnUse" x="9" y="11" width="16" height="11">
<path d="M13.0584 12.7082L18.4 11.3998C19.5968 11.1203 20.8557 11.3275 21.8996 11.9761C22.9436 12.6247 23.6871 13.6614 23.9667 14.8582C24.2463 16.055 24.039 17.3138 23.3904 18.3577C22.7419 19.4017 21.7052 20.1452 20.5084 20.4248L15.1667 21.7332C13.9699 22.0127 12.7111 21.8055 11.6671 21.1569C10.6232 20.5083 9.87961 19.4716 9.60003 18.2748C9.32045 17.078 9.52774 15.8192 10.1763 14.7753C10.8249 13.7313 11.8616 12.9877 13.0584 12.7082Z" fill="#FED401"/>
</mask>
<g mask="url(#mask0)">
<path d="M17.1501 11.3669C17.1501 11.3669 14.3834 16.9336 19.3167 20.8086L15.8834 21.6419C15.8834 21.6419 11.5001 17.7753 13.7167 12.3336C13.7917 12.2586 17.1501 11.4003 17.1501 11.3669Z" fill="#221E54"/>
<path d="M11.3164 13.0669C11.3164 13.0669 8.59144 18.5169 13.4831 22.3336L10.0498 23.1669C10.0498 23.1669 5.67477 19.3586 7.89144 14.0002C7.92477 14.0002 11.3581 13.1669 11.3164 13.0669Z" fill="#221E54"/>
</g>
<path d="M21.5833 16.0081C21.4483 16.1909 21.2563 16.3237 21.0376 16.3856C20.8189 16.4474 20.5858 16.4348 20.375 16.3497" stroke="#221E54" stroke-width="0.8" stroke-miterlimit="10" stroke-linecap="round"/>
<path d="M18.6752 15.5336C18.7145 15.6749 18.8062 15.7959 18.9317 15.8718C19.0571 15.9477 19.2069 15.9728 19.3502 15.9419C19.492 15.9027 19.6137 15.8113 19.691 15.6862C19.7682 15.561 19.7953 15.4112 19.7669 15.2669C19.7315 15.1222 19.6401 14.9974 19.5127 14.92C19.3854 14.8427 19.2325 14.8191 19.0877 14.8544C18.943 14.8898 18.8182 14.9812 18.7408 15.1086C18.6635 15.236 18.6399 15.3888 18.6752 15.5336Z" fill="#221E54"/>
<path d="M18.9499 15.4085C18.9498 15.4355 18.9575 15.462 18.972 15.4849C18.9866 15.5077 19.0073 15.5259 19.0319 15.5373C19.0564 15.5487 19.0837 15.5528 19.1105 15.5492C19.1373 15.5455 19.1626 15.5343 19.1832 15.5168C19.2111 15.5164 19.2383 15.5083 19.2618 15.4933C19.2852 15.4783 19.3041 15.4571 19.3162 15.432C19.3283 15.4069 19.3332 15.379 19.3303 15.3512C19.3274 15.3235 19.3169 15.2972 19.2999 15.2751C19.298 15.248 19.2888 15.2218 19.2733 15.1995C19.2577 15.1772 19.2364 15.1595 19.2116 15.1484C19.1867 15.1372 19.1593 15.1331 19.1323 15.1363C19.1053 15.1396 19.0797 15.1501 19.0582 15.1668C19.0165 15.1668 18.9415 15.2918 18.9499 15.4085Z" fill="white"/>
<path d="M21.5163 14.8748C21.5537 15.0173 21.6451 15.1395 21.7711 15.2158C21.8971 15.292 22.0478 15.3162 22.1913 15.2832C22.2619 15.2662 22.3285 15.2355 22.3872 15.1928C22.4459 15.1501 22.4956 15.0963 22.5336 15.0344C22.5715 14.9725 22.5968 14.9037 22.6082 14.832C22.6195 14.7603 22.6166 14.6871 22.5997 14.6165C22.5827 14.5459 22.552 14.4794 22.5093 14.4206C22.4666 14.3619 22.4128 14.3122 22.3509 14.2743C22.289 14.2364 22.2202 14.211 22.1485 14.1997C22.0768 14.1883 22.0036 14.1912 21.933 14.2082C21.8609 14.2228 21.7925 14.252 21.7321 14.2939C21.6716 14.3358 21.6203 14.3896 21.5814 14.4519C21.5424 14.5143 21.5165 14.584 21.5053 14.6567C21.4941 14.7294 21.4979 14.8036 21.5163 14.8748Z" fill="#221E54"/>
<path d="M21.7832 14.7501C21.7836 14.778 21.7917 14.8052 21.8067 14.8287C21.8217 14.8522 21.8429 14.8711 21.868 14.8832C21.8931 14.8953 21.921 14.9002 21.9487 14.8973C21.9765 14.8944 22.0028 14.8838 22.0249 14.8668C22.0536 14.8685 22.0821 14.8614 22.1066 14.8465C22.1312 14.8316 22.1506 14.8095 22.1624 14.7833C22.1741 14.7571 22.1776 14.7279 22.1724 14.6997C22.1672 14.6714 22.1535 14.6454 22.1332 14.6251C22.1333 14.5981 22.1256 14.5716 22.111 14.5487C22.0965 14.5259 22.0757 14.5077 22.0512 14.4963C22.0266 14.4849 21.9994 14.4808 21.9725 14.4844C21.9457 14.4881 21.9205 14.4993 21.8999 14.5168C21.8582 14.5168 21.7832 14.6335 21.7832 14.7501Z" fill="white"/>
<path d="M20.8337 11.8417C20.8337 11.8417 20.717 9.54999 22.4503 9.96665" stroke="#221E54" stroke-width="0.8" stroke-miterlimit="10" stroke-linecap="round"/>
<path d="M19.167 12.1919C19.167 12.1919 18.017 10.0335 19.4753 9.4502" stroke="#221E54" stroke-width="0.8" stroke-miterlimit="10" stroke-linecap="round"/>
<path d="M67.4246 1H31.8579C30.7488 1 29.8496 1.89916 29.8496 3.00833V46.1C29.8496 47.2092 30.7488 48.1083 31.8579 48.1083H67.4246C68.5338 48.1083 69.4329 47.2092 69.4329 46.1V3.00833C69.4329 1.89916 68.5338 1 67.4246 1Z" fill="white" stroke="#221E54" stroke-width="0.8" stroke-linecap="round" stroke-linejoin="round"/>
<path d="M43.3915 7.32495H36.0498V14.6666H43.3915V7.32495Z" fill="#FED401" stroke="#221E54" stroke-width="0.8" stroke-linecap="round" stroke-linejoin="round"/>
<path d="M43.3915 20.8833H36.0498V28.225H43.3915V20.8833Z" fill="#FED401" stroke="#221E54" stroke-width="0.8" stroke-linecap="round" stroke-linejoin="round"/>
<path d="M43.3915 34.4417H36.0498V41.7833H43.3915V34.4417Z" fill="#FED401" stroke="#221E54" stroke-width="0.8" stroke-linecap="round" stroke-linejoin="round"/>
<path d="M48.3584 9.58325H61.6417" stroke="#221E54" stroke-width="0.8" stroke-linecap="round" stroke-linejoin="round"/>
<path d="M48.3584 12.4001H56.2167" stroke="#221E54" stroke-width="0.8" stroke-linecap="round" stroke-linejoin="round"/>
<path d="M48.3584 23.1416H61.6417" stroke="#221E54" stroke-width="0.8" stroke-linecap="round" stroke-linejoin="round"/>
<path d="M48.3584 25.9585H56.2167" stroke="#221E54" stroke-width="0.8" stroke-linecap="round" stroke-linejoin="round"/>
<path d="M48.3584 36.7H61.6417" stroke="#221E54" stroke-width="0.8" stroke-linecap="round" stroke-linejoin="round"/>
<path d="M48.3584 39.5249H56.2167" stroke="#221E54" stroke-width="0.8" stroke-linecap="round" stroke-linejoin="round"/>
<path d="M37.3418 10.9916L38.8835 12.7249L42.1001 9.58325" stroke="#221E54" stroke-width="0.8" stroke-linecap="round" stroke-linejoin="round"/>
</svg>
