<svg width="102" height="55" viewBox="0 0 102 55" fill="none" xmlns="http://www.w3.org/2000/svg">
<path d="M1 47.6118H101" stroke="#221E54" stroke-width="0.8" stroke-linecap="round"/>
<path d="M95.3977 44.7448C95.4142 44.8064 95.4165 44.8709 95.4042 44.9335C95.3919 44.996 95.3654 45.0549 95.3268 45.1057C95.2881 45.1564 95.2384 45.1975 95.1813 45.226C95.1242 45.2545 95.0614 45.2694 94.9977 45.2698H89.4143C89.3506 45.2694 89.2877 45.2545 89.2307 45.226C89.1736 45.1975 89.1239 45.1564 89.0852 45.1057C89.0466 45.0549 89.0201 44.996 89.0078 44.9335C88.9955 44.8709 88.9978 44.8064 89.0143 44.7448L91.806 34.3698C91.806 34.2593 91.8499 34.1533 91.928 34.0752C92.0062 33.997 92.1122 33.9531 92.2227 33.9531C92.3332 33.9531 92.4391 33.997 92.5173 34.0752C92.5954 34.1533 92.6393 34.2593 92.6393 34.3698L95.3977 44.7448Z" fill="#FED401"/>
<path d="M92.206 43.1446V47.0362V43.1446ZM91.806 34.3696L89.0143 44.7446C88.9978 44.8061 88.9955 44.8707 89.0078 44.9332C89.0201 44.9958 89.0466 45.0547 89.0852 45.1054C89.1239 45.1561 89.1736 45.1973 89.2307 45.2258C89.2877 45.2542 89.3506 45.2692 89.4143 45.2696H94.9977C95.0614 45.2692 95.1242 45.2542 95.1813 45.2258C95.2384 45.1973 95.2881 45.1561 95.3268 45.1054C95.3654 45.0547 95.3919 44.9958 95.4042 44.9332C95.4165 44.8707 95.4142 44.8061 95.3977 44.7446L92.6143 34.3696C92.5917 34.2795 92.5397 34.1995 92.4665 34.1424C92.3933 34.0852 92.303 34.0542 92.2102 34.0542C92.1173 34.0542 92.0271 34.0852 91.9538 34.1424C91.8806 34.1995 91.8286 34.2795 91.806 34.3696Z" stroke="#221E54" stroke-width="0.8" stroke-linecap="round" stroke-linejoin="round"/>
<path d="M17.667 41.3618V45.4368C17.6662 45.724 17.6084 46.0083 17.4968 46.2729C17.3852 46.5376 17.2221 46.7774 17.017 46.9785C16.5974 47.3859 16.0352 47.6132 15.4503 47.6118H8.22533C7.93954 47.6091 7.65684 47.5526 7.39199 47.4451C7.12201 47.3387 6.87565 47.1802 6.66699 46.9785C6.46064 46.7766 6.29636 46.5359 6.18366 46.2701C6.07342 46.0062 6.01677 45.7229 6.01699 45.4368V41.3618H17.667ZM17.4087 35.1118H6.29199C6.29199 35.1118 5.16699 39.7868 5.16699 40.0035C5.1902 40.4198 5.3686 40.8123 5.66699 41.1035C5.97695 41.399 6.38876 41.5638 6.81699 41.5638C7.24523 41.5638 7.65703 41.399 7.96699 41.1035C8.27152 40.8149 8.45602 40.4221 8.48366 40.0035C8.5113 40.4221 8.69579 40.8149 9.00033 41.1035C9.31029 41.399 9.72209 41.5638 10.1503 41.5638C10.5786 41.5638 10.9904 41.399 11.3003 41.1035C11.6049 40.8149 11.7894 40.4221 11.817 40.0035C11.8446 40.4221 12.0291 40.8149 12.3337 41.1035C12.6436 41.399 13.0554 41.5638 13.4837 41.5638C13.9119 41.5638 14.3237 41.399 14.6337 41.1035C14.9382 40.8149 15.1227 40.4221 15.1503 40.0035C15.178 40.4221 15.3625 40.8149 15.667 41.1035C15.977 41.399 16.3888 41.5638 16.817 41.5638C17.2452 41.5638 17.657 41.399 17.967 41.1035C18.2715 40.8149 18.456 40.4221 18.4837 40.0035C18.5003 39.7868 17.392 35.1118 17.392 35.1118H17.4087ZM10.742 44.3535H12.967V47.6118H10.717L10.742 44.3535Z" stroke="#221E54" stroke-width="0.8" stroke-linecap="round" stroke-linejoin="round"/>
<path d="M17.392 35.1118H6.29199C6.29199 35.1118 5.16699 39.7868 5.16699 40.0035C5.1902 40.4198 5.3686 40.8123 5.66699 41.1035C5.97695 41.399 6.38876 41.5638 6.81699 41.5638C7.24523 41.5638 7.65703 41.399 7.96699 41.1035C8.27152 40.8149 8.45602 40.4221 8.48366 40.0035C8.5113 40.4221 8.69579 40.8149 9.00033 41.1035C9.31029 41.399 9.72209 41.5638 10.1503 41.5638C10.5786 41.5638 10.9904 41.399 11.3003 41.1035C11.6049 40.8149 11.7894 40.4221 11.817 40.0035C11.8446 40.4221 12.0291 40.8149 12.3337 41.1035C12.6436 41.399 13.0554 41.5638 13.4837 41.5638C13.9119 41.5638 14.3237 41.399 14.6337 41.1035C14.9382 40.8149 15.1227 40.4221 15.1503 40.0035C15.178 40.4221 15.3625 40.8149 15.667 41.1035C15.977 41.399 16.3888 41.5638 16.817 41.5638C17.2452 41.5638 17.657 41.399 17.967 41.1035C18.2715 40.8149 18.456 40.4221 18.4837 40.0035C18.5003 39.7868 17.392 35.1118 17.392 35.1118Z" fill="#FED401"/>
<path d="M17.667 41.3618V45.4368V41.3618ZM6.00033 45.4368V41.3618V45.4368ZM17.392 35.1118H6.29199C6.29199 35.1118 5.16699 39.7868 5.16699 40.0035C5.1902 40.4198 5.3686 40.8123 5.66699 41.1035C5.97695 41.399 6.38876 41.5638 6.81699 41.5638C7.24523 41.5638 7.65703 41.399 7.96699 41.1035C8.27152 40.8149 8.45602 40.4221 8.48366 40.0035C8.5113 40.4221 8.69579 40.8149 9.00033 41.1035C9.31029 41.399 9.72209 41.5638 10.1503 41.5638C10.5786 41.5638 10.9904 41.399 11.3003 41.1035C11.6049 40.8149 11.7894 40.4221 11.817 40.0035C11.8446 40.4221 12.0291 40.8149 12.3337 41.1035C12.6436 41.399 13.0554 41.5638 13.4837 41.5638C13.9119 41.5638 14.3237 41.399 14.6337 41.1035C14.9382 40.8149 15.1227 40.4221 15.1503 40.0035C15.178 40.4221 15.3625 40.8149 15.667 41.1035C15.977 41.399 16.3888 41.5638 16.817 41.5638C17.2452 41.5638 17.657 41.399 17.967 41.1035C18.2715 40.8149 18.456 40.4221 18.4837 40.0035C18.5003 39.7868 17.392 35.1118 17.392 35.1118Z" stroke="#221E54" stroke-width="0.8" stroke-linecap="round" stroke-linejoin="round"/>
<path d="M50.9997 54.2783C64.333 54.2783 75.1663 53.1617 75.1663 51.7783C75.1663 50.395 64.333 49.2783 50.9997 49.2783C37.6663 49.2783 26.833 50.395 26.833 51.7783C26.833 53.1617 37.6497 54.2783 50.9997 54.2783Z" fill="#A1AED9"/>
<path d="M31 26.7785C31 26.3365 31.1756 25.9125 31.4882 25.6C31.8007 25.2874 32.2246 25.1118 32.6667 25.1118H68.5C68.942 25.1118 69.366 25.2874 69.6785 25.6C69.9911 25.9125 70.1667 26.3365 70.1667 26.7785V50.1118C70.1667 50.5538 69.9911 50.9778 69.6785 51.2903C69.366 51.6029 68.942 51.7785 68.5 51.7785H32.6667C32.2246 51.7785 31.8007 51.6029 31.4882 51.2903C31.1756 50.9778 31 50.5538 31 50.1118V26.7785Z" fill="white" stroke="#221E54" stroke-width="0.8" stroke-linecap="round" stroke-linejoin="round"/>
<path d="M47.667 35.1118V25.1118H54.3337V35.1118L51.0003 33.2951L47.667 35.1118Z" fill="#FED401" stroke="#221E54" stroke-width="0.8" stroke-linecap="round" stroke-linejoin="round"/>
<path d="M35.1416 45.945H49.3083M35.1666 41.7783H43.9999H35.1666Z" stroke="#221E54" stroke-width="0.8" stroke-linecap="round"/>
<path d="M37.667 25.1116C37.6627 26.8458 37.0576 28.5249 35.9547 29.8632C34.8518 31.2014 33.3192 32.1161 31.6178 32.4516C29.9164 32.7871 28.1513 32.5226 26.6229 31.7031C25.0946 30.8836 23.8975 29.5598 23.2353 27.9571C22.5731 26.3543 22.4868 24.5716 22.9911 22.9124C23.4954 21.2531 24.5591 19.8199 26.0011 18.8567C27.4432 17.8934 29.1745 17.4596 30.9003 17.6292C32.6262 17.7988 34.24 18.5612 35.467 19.7867C36.1666 20.4854 36.7211 21.3156 37.0987 22.2295C37.4763 23.1433 37.6694 24.1229 37.667 25.1116Z" fill="#FED401"/>
<path d="M37.667 25.1116C37.6627 26.8458 37.0576 28.5249 35.9547 29.8632C34.8518 31.2014 33.3192 32.1161 31.6178 32.4516C29.9164 32.7871 28.1513 32.5226 26.6229 31.7031C25.0946 30.8836 23.8975 29.5598 23.2353 27.9571C22.5731 26.3543 22.4868 24.5716 22.9911 22.9124C23.4954 21.2531 24.5591 19.8199 26.0011 18.8567C27.4432 17.8934 29.1745 17.4596 30.9003 17.6292C32.6262 17.7988 34.24 18.5612 35.467 19.7867C36.1666 20.4854 36.7211 21.3156 37.0987 22.2295C37.4763 23.1433 37.6694 24.1229 37.667 25.1116V25.1116Z" stroke="#221E54" stroke-width="0.8" stroke-linecap="round" stroke-linejoin="round"/>
<path d="M66.6752 4.96199L60.8419 7.13699C59.5243 7.62819 58.4544 8.62062 57.8659 9.8977C57.2773 11.1748 57.2177 12.6328 57.7002 13.9537C57.9409 14.605 58.3085 15.2019 58.7818 15.71C59.2551 16.218 59.8246 16.6269 60.4573 16.913C61.0899 17.1991 61.7731 17.3566 62.4671 17.3765C63.1612 17.3964 63.8523 17.2781 64.5002 17.0287L70.3336 14.8537C71.6498 14.3607 72.7182 13.368 73.3065 12.0915C73.8948 10.815 73.9554 9.35794 73.4752 8.03699C73.2374 7.38363 72.8714 6.78439 72.3987 6.27451C71.926 5.76463 71.3561 5.35439 70.7226 5.0679C70.0891 4.78141 69.4047 4.62446 68.7096 4.60628C68.0146 4.58809 67.3229 4.70903 66.6752 4.96199Z" fill="#FED401"/>
<path d="M65.275 8.17853H64.9917C64.7325 8.11 64.4895 7.99069 64.2768 7.82752C64.0641 7.66436 63.886 7.46059 63.7526 7.22803C63.6193 6.99547 63.5335 6.73875 63.5001 6.47276C63.4668 6.20677 63.4866 5.93681 63.5583 5.67853L64.3917 2.51186C64.5381 1.99259 64.881 1.55076 65.3477 1.28007C65.8144 1.00937 66.3682 0.931109 66.8917 1.06186L67.2 1.12853C67.4592 1.19706 67.7021 1.31637 67.9148 1.47954C68.1275 1.6427 68.3057 1.84647 68.4391 2.07903C68.5724 2.31159 68.6582 2.56831 68.6916 2.8343C68.7249 3.10029 68.7051 3.37025 68.6333 3.62853L67.8 6.7952C67.6381 7.30644 67.2852 7.73554 66.8149 7.99321C66.3446 8.25088 65.793 8.31725 65.275 8.17853Z" fill="white" stroke="#221E54" stroke-width="0.8" stroke-miterlimit="10" stroke-linecap="round"/>
<path d="M65.5412 8.56199L65.3079 8.70365C64.8181 8.95523 64.2486 9.00266 63.7239 8.83557C63.1992 8.66849 62.762 8.30048 62.5079 7.81199L60.9912 4.92865C60.7449 4.43337 60.7049 3.86071 60.8798 3.33596C61.0547 2.81122 61.4304 2.37712 61.9245 2.12865L62.1495 1.97865C62.6424 1.73177 63.2123 1.68773 63.7372 1.85596C64.2622 2.02418 64.7003 2.3913 64.9579 2.87865L66.3912 5.80365C66.5234 6.03905 66.6063 6.29885 66.6349 6.56728C66.6635 6.8357 66.6373 7.10715 66.5578 7.36513C66.4783 7.62311 66.3472 7.86224 66.1725 8.06798C65.9977 8.27373 65.7829 8.4418 65.5412 8.56199Z" fill="white" stroke="#221E54" stroke-width="0.8" stroke-miterlimit="10" stroke-linecap="round"/>
<path d="M66.6837 4.98678L60.8504 7.16178C59.5299 7.64294 58.4541 8.62812 57.8589 9.90128C57.2637 11.1745 57.1977 12.6317 57.6754 13.9534C57.9202 14.6031 58.2913 15.1979 58.7672 15.7034C59.2432 16.2089 59.8145 16.6151 60.4482 16.8987C61.082 17.1823 61.7656 17.3375 62.4596 17.3555C63.1537 17.3735 63.8444 17.2538 64.492 17.0034L70.3254 14.8284C71.6458 14.3473 72.7216 13.3621 73.3168 12.0889C73.912 10.8158 73.978 9.35854 73.5004 8.03678C73.2583 7.38504 72.8888 6.78806 72.4135 6.2807C71.9381 5.77335 71.3664 5.3658 70.7318 5.08185C70.0972 4.79791 69.4124 4.64325 68.7173 4.62693C68.0223 4.61061 67.3309 4.73294 66.6837 4.98678Z" fill="#FED401"/>
<mask id="mask0" mask-type="alpha" maskUnits="userSpaceOnUse" x="57" y="4" width="17" height="14">
<path d="M66.6752 4.96199L60.8419 7.13699C59.5243 7.62819 58.4544 8.62062 57.8659 9.8977C57.2773 11.1748 57.2177 12.6328 57.7002 13.9537C57.9409 14.605 58.3085 15.2019 58.7818 15.71C59.2551 16.218 59.8246 16.6269 60.4573 16.913C61.0899 17.1991 61.7731 17.3566 62.4671 17.3765C63.1612 17.3964 63.8523 17.2781 64.5002 17.0287L70.3336 14.8537C71.6498 14.3607 72.7182 13.368 73.3065 12.0915C73.8948 10.815 73.9554 9.35794 73.4752 8.03699C73.2374 7.38363 72.8714 6.78439 72.3987 6.27451C71.926 5.76463 71.3561 5.35439 70.7226 5.0679C70.0891 4.78141 69.4047 4.62446 68.7096 4.60628C68.0146 4.58809 67.3229 4.70903 66.6752 4.96199Z" fill="#FED401"/>
</mask>
<g mask="url(#mask0)">
<path d="M61.9668 6.29582C61.9668 6.29582 68.0835 9.78749 65.8668 16.6542L69.6501 15.2708C69.6501 15.2708 71.3168 8.77916 65.8251 5.02916C65.6668 5.00416 61.9918 6.33749 61.9668 6.29582Z" fill="#221E54"/>
<path d="M68.542 4.18739C68.542 4.18739 74.542 7.62072 72.3337 14.3874L76.1087 13.0041C76.1087 13.0041 77.7753 6.55406 72.3837 2.91239C72.3337 2.86239 68.5753 4.32072 68.542 4.18739Z" fill="#221E54"/>
</g>
<path d="M62.1332 13.2534C61.8903 13.1661 61.6251 13.1629 61.3802 13.2446C61.1354 13.3262 60.9251 13.4878 60.7832 13.7034" stroke="#221E54" stroke-width="0.8" stroke-miterlimit="10" stroke-linecap="round"/>
<path d="M63.1671 11.2289C63.2168 11.3856 63.2044 11.5554 63.1325 11.7033C63.0606 11.8511 62.9346 11.9657 62.7807 12.0235C62.6268 12.0812 62.4565 12.0776 62.3051 12.0135C62.1538 11.9494 62.0328 11.8296 61.9671 11.6789C61.9366 11.599 61.9223 11.514 61.9252 11.4286C61.928 11.3432 61.9478 11.2592 61.9835 11.1816C62.0192 11.104 62.0701 11.0342 62.1331 10.9765C62.1961 10.9188 62.27 10.8743 62.3504 10.8455C62.4288 10.8127 62.5133 10.7967 62.5982 10.7985C62.6832 10.8003 62.7669 10.8199 62.8438 10.856C62.9208 10.8921 62.9893 10.9439 63.045 11.0082C63.1007 11.0724 63.1423 11.1476 63.1671 11.2289Z" fill="#221E54"/>
<path d="M62.7163 11.5952C62.7341 11.6217 62.7439 11.6527 62.7446 11.6846C62.7452 11.7165 62.7367 11.7479 62.72 11.7751C62.7033 11.8024 62.6792 11.8242 62.6505 11.8381C62.6218 11.852 62.5897 11.8573 62.558 11.8535C62.5329 11.8718 62.5029 11.8823 62.4718 11.8837C62.4408 11.8851 62.41 11.8773 62.3833 11.8613C62.3567 11.8453 62.3353 11.8218 62.3219 11.7938C62.3085 11.7657 62.3037 11.7343 62.308 11.7035C62.2908 11.6776 62.2813 11.6475 62.2803 11.6164C62.2794 11.5854 62.2872 11.5547 62.3028 11.5278C62.3184 11.5009 62.3412 11.479 62.3686 11.4644C62.396 11.4498 62.427 11.4431 62.458 11.4452C62.458 11.4452 62.6497 11.4535 62.7163 11.5952Z" fill="white"/>
<path d="M60.0587 12.4283C60.1012 12.5833 60.084 12.7486 60.0104 12.8916C59.9369 13.0345 59.8123 13.1446 59.6615 13.2001C59.5106 13.2557 59.3444 13.2525 59.1958 13.1914C59.0471 13.1302 58.9268 13.0155 58.8587 12.8699C58.8038 12.7084 58.8129 12.5319 58.8842 12.3769C58.9556 12.2218 59.0836 12.1 59.242 12.0366C59.3211 12.0052 59.4058 11.9906 59.4908 11.9935C59.5758 11.9965 59.6593 12.017 59.736 12.0538C59.8127 12.0906 59.881 12.1428 59.9365 12.2073C59.992 12.2717 60.0336 12.347 60.0587 12.4283Z" fill="#221E54"/>
<path d="M59.5916 12.795C59.602 12.8351 59.6003 12.8773 59.5866 12.9164C59.573 12.9555 59.548 12.9896 59.5149 13.0144C59.4817 13.0392 59.442 13.0536 59.4006 13.0557C59.3593 13.0578 59.3183 13.0476 59.2828 13.0263C59.2473 13.005 59.219 12.9736 59.2014 12.9361C59.1838 12.8987 59.1778 12.8568 59.1841 12.8159C59.1904 12.775 59.2087 12.7369 59.2368 12.7065C59.2648 12.676 59.3013 12.6546 59.3416 12.645C59.3416 12.645 59.5249 12.6867 59.5916 12.795Z" fill="white"/>
<path d="M58.6414 9.50326C58.6414 9.50326 56.0497 9.16992 56.3997 11.1699" stroke="#221E54" stroke-width="0.8" stroke-miterlimit="10" stroke-linecap="round"/>
<path d="M60.4087 8.35362C60.4087 8.35362 58.0254 6.90362 57.2754 8.52029" stroke="#221E54" stroke-width="0.8" stroke-miterlimit="10" stroke-linecap="round"/>
<path d="M27.1416 22.0869L33.1916 28.1369" stroke="#221E54" stroke-width="0.8" stroke-linecap="round" stroke-linejoin="round"/>
<path d="M33.1916 22.0869L27.1416 28.1369" stroke="#221E54" stroke-width="0.8" stroke-linecap="round" stroke-linejoin="round"/>
<path d="M75.6084 8.54506C77.5834 8.17006 81.8917 8.12006 83.3667 10.9617C85.2084 14.5117 82.3417 16.3367 80.9417 14.8701C79.5417 13.4034 80.9417 8.27839 87.0751 9.65339C93.2084 11.0284 93.3584 15.3701 92.9667 16.9284" stroke="#221E54" stroke-width="0.8" stroke-linecap="round" stroke-dasharray="3.5 3.5"/>
<path d="M59.4998 13.5786C58.9082 14.2286 58.6665 14.9369 58.9332 15.3203C58.9924 15.418 59.0755 15.4991 59.1746 15.5559C59.2737 15.6127 59.3856 15.6435 59.4998 15.6453C59.5961 15.6329 59.6884 15.5996 59.7705 15.5478C59.8525 15.4959 59.9223 15.4268 59.9748 15.3453C60.2332 14.9619 60.0332 14.2536 59.4998 13.5786Z" fill="#A1AED9"/>
</svg>
