<svg width="100" height="61" viewBox="0 0 100 61" fill="none" xmlns="http://www.w3.org/2000/svg">
<path d="M94.3833 49.6702C94.4333 50.0368 94.2832 50.3952 94.0666 50.3952H89.7083C89.4999 50.3952 89.3416 50.0368 89.3999 49.6702L91.5749 35.2202C91.6582 34.6535 92.1166 34.6535 92.2083 35.2202L94.3833 49.6702Z" fill="#FED401" stroke="#221E54" stroke-width="0.8" stroke-linecap="round" stroke-linejoin="round"/>
<path d="M92.5996 47.912C92.6434 48.0122 92.6573 48.123 92.6396 48.2309C92.6218 48.3389 92.5732 48.4394 92.4996 48.5203L89.6746 50.3703C89.5329 50.462 89.3829 50.2953 89.3746 50.037L88.8496 39.787C88.8496 39.3786 89.1246 39.1786 89.2579 39.5203L92.5996 47.912Z" fill="#FED401" stroke="#221E54" stroke-width="0.8" stroke-linecap="round" stroke-linejoin="round"/>
<path d="M90.833 48.0452C90.866 48.1006 90.8835 48.164 90.8835 48.2285C90.8835 48.2931 90.866 48.3564 90.833 48.4118L89.4747 50.3285C89.408 50.4202 89.3163 50.3785 89.283 50.2368L87.983 44.7868C87.933 44.5702 88.0747 44.3702 88.183 44.5118L90.833 48.0452Z" fill="#FED401" stroke="#221E54" stroke-width="0.8" stroke-linecap="round" stroke-linejoin="round"/>
<path d="M91.1913 47.912C91.1486 48.013 91.136 48.1242 91.1553 48.2322C91.1745 48.3402 91.2246 48.4403 91.2996 48.5203L94.1163 50.3703C94.258 50.462 94.408 50.2953 94.4246 50.037L94.9413 39.787C94.9413 39.3786 94.6663 39.1786 94.533 39.5203L91.1913 47.912Z" fill="#FED401" stroke="#221E54" stroke-width="0.8" stroke-linecap="round" stroke-linejoin="round"/>
<path d="M92.8415 48.0452C92.8085 48.1006 92.791 48.164 92.791 48.2285C92.791 48.2931 92.8085 48.3564 92.8415 48.4118L94.1998 50.3285C94.2665 50.4202 94.3581 50.3785 94.3915 50.2368L95.7081 44.7868C95.7581 44.5702 95.6165 44.3702 95.5081 44.5118L92.8415 48.0452Z" fill="#FED401" stroke="#221E54" stroke-width="0.8" stroke-linecap="round" stroke-linejoin="round"/>
<path d="M0 53.4369H100" stroke="#221E54" stroke-width="0.8"/>
<path d="M14.5166 48.6453H7.7666L8.7666 56.8869H13.6083L14.5166 48.6453Z" fill="#221E54"/>
<path d="M96.9583 48.3035H86.7666L89.0666 57.5285H94.8333L96.9583 48.3035Z" fill="white" stroke="#221E54" stroke-width="0.8" stroke-linecap="round" stroke-linejoin="round"/>
<path d="M94.817 57.6036H89.0587H88.9837C88.9778 57.5935 88.9747 57.582 88.9747 57.5703C88.9747 57.5586 88.9778 57.5471 88.9837 57.537L86.667 48.337C86.6667 48.3109 86.6758 48.2856 86.6926 48.2657C86.7095 48.2458 86.7329 48.2326 86.7587 48.2286H96.967C96.967 48.2286 97.017 48.2286 97.042 48.2286C97.067 48.2286 97.042 48.2703 97.042 48.2953L94.917 57.462C94.9087 57.5703 94.867 57.6036 94.817 57.6036ZM89.167 57.4453H94.7253L96.842 48.437H86.842L89.167 57.4453Z" fill="#221E54"/>
<path d="M11.1334 46.2619L10.0001 45.1786C9.46853 44.6717 9.04109 44.0659 8.74173 43.3953C8.46362 42.7276 8.32468 42.0102 8.33339 41.2869C8.33355 40.5612 8.48393 39.8434 8.77506 39.1786C9.06245 38.5095 9.47869 37.9036 10.0001 37.3953L11.1334 36.3036L12.2751 37.3953C12.8101 37.8991 13.2381 38.5056 13.5334 39.1786C13.8249 39.8433 13.9753 40.5612 13.9753 41.2869C13.9753 42.0127 13.8249 42.7306 13.5334 43.3953C13.2361 44.0671 12.8084 44.6733 12.2751 45.1786L11.1334 46.2619Z" fill="#FED401"/>
<path d="M11.1334 41.1703V48.6703V41.1703ZM11.1334 47.9953L13.4167 45.8119L11.1334 47.9953ZM11.1334 46.2453L10.0001 45.1786C9.46853 44.6717 9.04109 44.0659 8.74173 43.3953C8.46362 42.7276 8.32468 42.0102 8.33339 41.2869C8.33355 40.5612 8.48393 39.8434 8.77506 39.1786C9.06245 38.5095 9.47869 37.9036 10.0001 37.3953L11.1334 36.3036L12.2751 37.3953C12.8101 37.8991 13.2381 38.5056 13.5334 39.1786C13.8249 39.8433 13.9753 40.5612 13.9753 41.2869C13.9753 42.0127 13.8249 42.7306 13.5334 43.3953C13.2361 44.0671 12.8084 44.6733 12.2751 45.1786L11.1334 46.2453Z" stroke="#221E54" stroke-width="0.8" stroke-linecap="round" stroke-linejoin="round"/>
<path d="M13.417 45.8367L13.642 45.1117C13.7482 44.7768 13.918 44.4656 14.142 44.195C14.3674 43.9283 14.6447 43.7103 14.957 43.5541C15.2693 43.398 15.6101 43.307 15.9587 43.2867C16.3128 43.272 16.6665 43.3258 17.0003 43.445L17.7087 43.7033L17.4837 44.4283C17.3869 44.7679 17.2194 45.0832 16.992 45.3533C16.7597 45.6206 16.4764 45.8387 16.1587 45.995C15.8444 46.1509 15.5008 46.2389 15.1503 46.2533C14.8154 46.2648 14.4814 46.2111 14.167 46.095L13.4503 45.8367" fill="#FED401"/>
<path d="M13.417 45.8367L13.642 45.1117C13.7482 44.7768 13.918 44.4656 14.142 44.195C14.3674 43.9283 14.6447 43.7103 14.957 43.5541C15.2693 43.398 15.6101 43.307 15.9587 43.2867C16.3128 43.272 16.6665 43.3258 17.0003 43.445L17.7087 43.7033L17.4837 44.4283C17.3869 44.7679 17.2194 45.0832 16.992 45.3533C16.7597 45.6206 16.4764 45.8387 16.1587 45.995C15.8444 46.1509 15.5008 46.2389 15.1503 46.2533C14.8154 46.2648 14.4814 46.2111 14.167 46.095L13.4503 45.8367" stroke="#221E54" stroke-width="0.8" stroke-linecap="round" stroke-linejoin="round"/>
<path d="M51.5003 60.6203C66.8669 60.6203 79.3253 59.3286 79.3253 57.7453C79.3253 56.1619 66.8253 54.8619 51.5003 54.8619C36.1753 54.8619 23.6836 56.1536 23.6836 57.7453C23.6836 59.3369 36.1336 60.6203 51.5003 60.6203Z" fill="#A1AED9"/>
<path d="M73.458 24.2784H29.558C28.5363 24.2784 27.708 25.1067 27.708 26.1284V55.9201C27.708 56.9418 28.5363 57.7701 29.558 57.7701H73.458C74.4797 57.7701 75.308 56.9418 75.308 55.9201V26.1284C75.308 25.1067 74.4797 24.2784 73.458 24.2784Z" fill="white" stroke="#221E54" stroke-width="0.8" stroke-linecap="round" stroke-linejoin="round"/>
<path d="M29.558 24.2784H73.4497C73.9403 24.2784 74.4109 24.4734 74.7578 24.8203C75.1048 25.1672 75.2997 25.6378 75.2997 26.1284V32.0951H27.708V26.1284C27.708 25.6378 27.9029 25.1672 28.2499 24.8203C28.5968 24.4734 29.0674 24.2784 29.558 24.2784Z" fill="#FED401" stroke="#221E54" stroke-width="0.8" stroke-linecap="round" stroke-linejoin="round"/>
<path d="M49.4667 36.2535H43.125V42.5952H49.4667V36.2535Z" fill="white" stroke="#221E54" stroke-width="0.8" stroke-linecap="round" stroke-linejoin="round"/>
<path d="M70.2997 35.8702H63.958V42.2119H70.2997V35.8702Z" fill="white" stroke="#221E54" stroke-width="0.8" stroke-linecap="round" stroke-linejoin="round"/>
<path d="M39.0497 36.2535H32.708V42.5952H39.0497V36.2535Z" fill="white" stroke="#221E54" stroke-width="0.8" stroke-linecap="round" stroke-linejoin="round"/>
<path d="M49.4667 46.4785H43.125V52.8202H49.4667V46.4785Z" fill="white" stroke="#221E54" stroke-width="0.8" stroke-linecap="round" stroke-linejoin="round"/>
<path d="M59.8837 46.4785H53.542V52.8202H59.8837V46.4785Z" fill="white" stroke="#221E54" stroke-width="0.8" stroke-linecap="round" stroke-linejoin="round"/>
<path d="M70.2997 46.4785H63.958V52.8202H70.2997V46.4785Z" fill="white" stroke="#221E54" stroke-width="0.8" stroke-linecap="round" stroke-linejoin="round"/>
<path d="M39.0497 46.4785H32.708V52.8202H39.0497V46.4785Z" fill="white" stroke="#221E54" stroke-width="0.8" stroke-linecap="round" stroke-linejoin="round"/>
<path d="M35.625 22.9369V25.6119" stroke="#221E54" stroke-width="0.8" stroke-linecap="round" stroke-linejoin="round"/>
<path d="M42.8164 22.9369V25.6119" stroke="#221E54" stroke-width="0.8" stroke-linecap="round" stroke-linejoin="round"/>
<path d="M50 22.9369V25.6119" stroke="#221E54" stroke-width="0.8" stroke-linecap="round" stroke-linejoin="round"/>
<path d="M56.5088 22.9369V25.6119" stroke="#221E54" stroke-width="0.8" stroke-linecap="round" stroke-linejoin="round"/>
<path d="M63.6914 22.9369V25.6119" stroke="#221E54" stroke-width="0.8" stroke-linecap="round" stroke-linejoin="round"/>
<path d="M70.8838 22.9369V25.6119" stroke="#221E54" stroke-width="0.8" stroke-linecap="round" stroke-linejoin="round"/>
<path d="M32.125 22.9369V25.6119" stroke="#221E54" stroke-width="0.8" stroke-linecap="round" stroke-linejoin="round"/>
<path d="M39.3086 22.9369V25.6119" stroke="#221E54" stroke-width="0.8" stroke-linecap="round" stroke-linejoin="round"/>
<path d="M46.5 22.9369V25.6119" stroke="#221E54" stroke-width="0.8" stroke-linecap="round" stroke-linejoin="round"/>
<path d="M53.0088 22.9369V25.6119" stroke="#221E54" stroke-width="0.8" stroke-linecap="round" stroke-linejoin="round"/>
<path d="M60.1914 22.9369V25.6119" stroke="#221E54" stroke-width="0.8" stroke-linecap="round" stroke-linejoin="round"/>
<path d="M67.3838 22.9369V25.6119" stroke="#221E54" stroke-width="0.8" stroke-linecap="round" stroke-linejoin="round"/>
<path d="M59.8837 36.2539H53.542V42.5956H59.8837V36.2539Z" stroke="#EA646C" stroke-width="0.8" stroke-linecap="round" stroke-linejoin="round"/>
<path d="M55.0752 37.7871L58.3502 41.0621" stroke="#EA646C" stroke-width="0.8" stroke-linecap="round" stroke-linejoin="round"/>
<path d="M58.3502 37.7871L55.0752 41.0621" stroke="#EA646C" stroke-width="0.8" stroke-linecap="round" stroke-linejoin="round"/>
<path d="M67.9667 4.9617L62.1334 7.1367C60.8173 7.62953 59.7494 8.62264 59.1624 9.89955C58.5755 11.1765 58.5171 12.6336 59.0001 13.9534C59.238 14.6109 59.605 15.2141 60.0796 15.7276C60.5542 16.2411 61.1267 16.6545 61.7635 16.9433C62.4002 17.2322 63.0883 17.3907 63.7873 17.4096C64.4863 17.4285 65.1819 17.3074 65.8334 17.0534L71.6667 14.8784C72.9829 14.379 74.0482 13.3796 74.6305 12.0979C75.2127 10.8163 75.2647 9.35648 74.7751 8.0367C74.5364 7.38303 74.1695 6.78363 73.696 6.27367C73.2225 5.76371 72.6519 5.35348 72.0177 5.06704C71.3835 4.7806 70.6985 4.62374 70.0028 4.60565C69.3072 4.58756 68.6149 4.70861 67.9667 4.9617Z" fill="#FED401"/>
<path d="M66.5748 8.17853H66.2915C66.0323 8.11 65.7893 7.99069 65.5766 7.82752C65.3639 7.66436 65.1858 7.46059 65.0524 7.22803C64.9191 6.99547 64.8333 6.73875 64.7999 6.47276C64.7666 6.20677 64.7864 5.93681 64.8581 5.67853L65.6915 2.51186C65.8379 1.99259 66.1808 1.55076 66.6475 1.28007C67.1142 1.00937 67.668 0.931109 68.1915 1.06186L68.4998 1.12853C68.759 1.19706 69.0019 1.31637 69.2146 1.47954C69.4273 1.6427 69.6055 1.84647 69.7389 2.07903C69.8722 2.31159 69.958 2.56831 69.9914 2.8343C70.0247 3.10029 70.0049 3.37025 69.9331 3.62853L69.0998 6.7952C68.9379 7.30644 68.585 7.73554 68.1147 7.99321C67.6444 8.25088 67.0928 8.31725 66.5748 8.17853Z" fill="white" stroke="#221E54" stroke-width="0.8" stroke-miterlimit="10" stroke-linecap="round"/>
<path d="M66.8336 8.56206L66.6087 8.70373C66.1188 8.9553 65.5493 9.00273 65.0247 8.83565C64.5 8.66856 64.0628 8.30055 63.8087 7.81206L62.292 4.92873C62.0457 4.43344 62.0057 3.86078 62.1806 3.33604C62.3555 2.81129 62.7311 2.3772 63.2253 2.12873L63.4503 1.97873C63.9415 1.73002 64.511 1.68503 65.0352 1.85352C65.5594 2.022 65.996 2.39038 66.2503 2.87873L67.692 5.80373C67.8238 6.03963 67.9063 6.2999 67.9344 6.56869C67.9624 6.83749 67.9355 7.10918 67.8552 7.36722C67.7749 7.62527 67.6429 7.86428 67.4673 8.06969C67.2917 8.2751 67.0761 8.44263 66.8336 8.56206Z" fill="white" stroke="#221E54" stroke-width="0.8" stroke-miterlimit="10" stroke-linecap="round"/>
<path d="M67.9835 4.98678L62.1502 7.16178C60.8297 7.64294 59.7539 8.62812 59.1587 9.90128C58.5635 11.1745 58.4975 12.6317 58.9752 13.9534C59.2173 14.6103 59.5881 15.2122 60.0659 15.7239C60.5438 16.2356 61.1189 16.6466 61.7578 16.9331C62.3966 17.2195 63.0861 17.3754 63.786 17.3918C64.4859 17.4082 65.182 17.2847 65.8335 17.0284L71.6668 14.8534C72.9843 14.3624 74.0537 13.3695 74.6409 12.092C75.2281 10.8145 75.2854 9.35642 74.8002 8.03678C74.5581 7.38504 74.1886 6.78805 73.7133 6.2807C73.2379 5.77335 72.6662 5.3658 72.0316 5.08185C71.397 4.79791 70.7122 4.64325 70.0171 4.62693C69.3221 4.61061 68.6307 4.73294 67.9835 4.98678Z" fill="#FED401"/>
<mask id="mask0" mask-type="alpha" maskUnits="userSpaceOnUse" x="58" y="4" width="18" height="14">
<path d="M67.9667 4.96219L62.1334 7.13719C60.8173 7.63002 59.7494 8.62313 59.1624 9.90004C58.5755 11.1769 58.5171 12.6341 59.0001 13.9539C59.238 14.6114 59.605 15.2146 60.0796 15.7281C60.5542 16.2416 61.1267 16.6549 61.7635 16.9438C62.4002 17.2327 63.0883 17.3912 63.7873 17.4101C64.4863 17.429 65.1819 17.3079 65.8334 17.0539L71.6667 14.8789C72.9829 14.3795 74.0482 13.38 74.6305 12.0984C75.2127 10.8168 75.2647 9.35697 74.7751 8.03719C74.5364 7.38352 74.1695 6.78412 73.696 6.27416C73.2225 5.7642 72.6519 5.35397 72.0177 5.06753C71.3835 4.78109 70.6985 4.62423 70.0028 4.60614C69.3072 4.58805 68.6149 4.7091 67.9667 4.96219Z" fill="#FED401"/>
</mask>
<g mask="url(#mask0)">
<path d="M63.2666 6.29546C63.2666 6.29546 69.3833 9.78712 67.1666 16.6538L70.9416 15.2705C70.9416 15.2705 72.6083 8.77879 67.1166 5.02879C66.9916 5.00379 63.3333 6.33712 63.2666 6.29546Z" fill="#221E54"/>
<path d="M69.8418 4.18715C69.8418 4.18715 75.8335 7.62048 73.6418 14.3871L77.4168 13.0038C77.4168 13.0038 79.0835 6.55381 73.6835 2.91215C73.6001 2.86215 69.8751 4.32048 69.8418 4.18715Z" fill="#221E54"/>
</g>
<path d="M63.433 13.2533C63.1901 13.1659 62.9249 13.1628 62.68 13.2444C62.4352 13.3261 62.2249 13.4877 62.083 13.7033" stroke="#221E54" stroke-width="0.8" stroke-miterlimit="10" stroke-linecap="round"/>
<path d="M64.4503 11.2287C64.5 11.3855 64.4876 11.5553 64.4157 11.7031C64.3438 11.851 64.2179 11.9656 64.0639 12.0233C63.91 12.0811 63.7397 12.0775 63.5884 12.0134C63.437 11.9493 63.316 11.8295 63.2503 11.6787C63.2198 11.5989 63.2055 11.5138 63.2084 11.4284C63.2112 11.343 63.231 11.2591 63.2667 11.1815C63.3024 11.1038 63.3533 11.0341 63.4163 10.9764C63.4793 10.9187 63.5532 10.8742 63.6336 10.8454C63.7121 10.8126 63.7965 10.7966 63.8814 10.7984C63.9664 10.8002 64.0501 10.8197 64.127 10.8559C64.204 10.892 64.2725 10.9438 64.3282 11.008C64.3839 11.0723 64.4255 11.1474 64.4503 11.2287Z" fill="#221E54"/>
<path d="M64.0171 11.5951C64.0349 11.6216 64.0447 11.6526 64.0453 11.6845C64.046 11.7164 64.0375 11.7478 64.0208 11.775C64.0041 11.8022 63.98 11.8241 63.9513 11.838C63.9226 11.8519 63.8904 11.8572 63.8588 11.8534C63.8336 11.8717 63.8037 11.8822 63.7726 11.8836C63.7415 11.885 63.7108 11.8772 63.6841 11.8612C63.6574 11.8452 63.6361 11.8217 63.6227 11.7936C63.6093 11.7656 63.6044 11.7342 63.6088 11.7034C63.5916 11.6775 63.582 11.6473 63.5811 11.6163C63.5802 11.5852 63.588 11.5545 63.6036 11.5277C63.6192 11.5008 63.642 11.4788 63.6694 11.4643C63.6968 11.4497 63.7278 11.443 63.7588 11.4451C63.7588 11.4451 63.9421 11.4534 64.0171 11.5951Z" fill="white"/>
<path d="M61.3584 12.4286C61.4025 12.5472 61.4105 12.6762 61.3814 12.7994C61.3523 12.9225 61.2875 13.0343 61.1951 13.1207C61.1027 13.2071 60.9868 13.2643 60.8619 13.285C60.7371 13.3057 60.609 13.289 60.4936 13.2371C60.3782 13.1852 60.2807 13.1003 60.2135 12.9932C60.1462 12.886 60.1121 12.7613 60.1155 12.6349C60.1188 12.5084 60.1595 12.3857 60.2324 12.2823C60.3053 12.1789 60.4071 12.0993 60.5251 12.0536C60.6041 12.0205 60.6892 12.0039 60.7749 12.0051C60.8605 12.0062 60.9451 12.0249 61.0233 12.0601C61.1014 12.0952 61.1715 12.1461 61.2292 12.2095C61.2868 12.2729 61.3308 12.3475 61.3584 12.4286Z" fill="#221E54"/>
<path d="M60.8915 12.795C60.9093 12.8215 60.9191 12.8525 60.9198 12.8844C60.9204 12.9163 60.9119 12.9477 60.8952 12.975C60.8786 13.0022 60.8544 13.024 60.8257 13.0379C60.797 13.0518 60.7649 13.0571 60.7332 13.0533C60.7081 13.0716 60.6781 13.0821 60.647 13.0835C60.616 13.0849 60.5852 13.0771 60.5585 13.0611C60.5319 13.0451 60.5105 13.0216 60.4971 12.9936C60.4837 12.9655 60.4789 12.9341 60.4832 12.9033C60.4619 12.8784 60.4489 12.8475 60.446 12.8148C60.443 12.7822 60.4503 12.7494 60.4667 12.721C60.4832 12.6927 60.508 12.6701 60.5379 12.6565C60.5677 12.6429 60.601 12.6389 60.6332 12.645C60.6332 12.645 60.8332 12.6867 60.8915 12.795Z" fill="white"/>
<path d="M59.9421 9.5035C59.9421 9.5035 57.3505 9.17017 57.7005 11.1702" stroke="#221E54" stroke-width="0.8" stroke-miterlimit="10" stroke-linecap="round"/>
<path d="M61.7085 8.3535C61.7085 8.3535 59.3169 6.9035 58.5752 8.52017" stroke="#221E54" stroke-width="0.8" stroke-miterlimit="10" stroke-linecap="round"/>
<path d="M76.9082 8.54518C78.8832 8.17018 83.1915 8.12018 84.6665 10.9618C86.5082 14.5118 83.6415 16.3368 82.2415 14.8702C80.8415 13.4035 82.2415 8.27851 88.3749 9.65351C94.5082 11.0285 94.6582 15.3702 94.2665 16.9285" stroke="#221E54" stroke-width="0.8" stroke-linecap="round" stroke-dasharray="3.5 3.5"/>
<path d="M60.8328 13.7035C60.2412 14.3535 59.9995 15.0618 60.2662 15.4452C60.3301 15.5385 60.4123 15.6179 60.5078 15.6785C60.6064 15.7368 60.7184 15.7684 60.8328 15.7702C60.93 15.7546 61.0234 15.7207 61.1078 15.6702C61.1901 15.6212 61.2589 15.5524 61.3078 15.4702C61.5328 15.0868 61.3328 14.3785 60.8328 13.7035Z" fill="#A1AED9"/>
</svg>
