<svg width="100" height="71" viewBox="0 0 100 71" fill="none" xmlns="http://www.w3.org/2000/svg">
<path d="M0 57L100 57" stroke="#1F1A54" stroke-width="0.5"/>
<path d="M11.8181 53.8639C11.9093 54.1833 11.6694 54.5011 11.3373 54.5011H2.663C2.33077 54.5011 2.09093 54.1831 2.18227 53.8637L6.52297 38.6827C6.66122 38.1992 7.34646 38.1993 7.4845 38.6829L11.8181 53.8639Z" fill="#FFD400"/>
<path d="M7.0041 51.5061V57M6.52297 38.6827L2.18227 53.8637C2.09093 54.1831 2.33077 54.5011 2.663 54.5011H11.3373C11.6694 54.5011 11.9093 54.1833 11.8181 53.8639L7.4845 38.6829C7.34646 38.1993 6.66122 38.1992 6.52297 38.6827Z" stroke="#1F1A54" stroke-width="0.5" stroke-linecap="round" stroke-linejoin="round"/>
<path d="M95.497 54.0618L94.0959 52.7472C93.4318 52.1299 92.9047 51.3953 92.545 50.5858C92.1852 49.7763 92 48.9079 92 48.0309C92 47.1539 92.1852 46.2855 92.545 45.476C92.9047 44.6665 93.4318 43.9319 94.0959 43.3146L95.497 42L96.8982 43.3146C97.564 43.931 98.0926 44.6653 98.4534 45.4749C98.8142 46.2845 99 47.1534 99 48.0309C99 48.9084 98.8142 49.7772 98.4534 50.5869C98.0926 51.3965 97.564 52.1308 96.8982 52.7472L95.497 54.0618Z" fill="#FFD400"/>
<path d="M95.497 47.8961V57M95.497 56.1849L98.3134 53.5425M95.497 54.0618L94.0959 52.7472C93.4318 52.1299 92.9047 51.3953 92.545 50.5858C92.1852 49.7763 92 48.9079 92 48.0309C92 47.1539 92.1852 46.2855 92.545 45.476C92.9047 44.6665 93.4318 43.9319 94.0959 43.3146L95.497 42L96.8982 43.3146C97.564 43.931 98.0926 44.6653 98.4534 45.4749C98.8142 46.2845 99 47.1534 99 48.0309C99 48.9084 98.8142 49.7772 98.4534 50.5869C98.0926 51.3965 97.564 52.1308 96.8982 52.7472L95.497 54.0618Z" stroke="#1F1A54" stroke-width="0.5" stroke-linecap="round" stroke-linejoin="round"/>
<path fill-rule="evenodd" clip-rule="evenodd" d="M17.1793 38.0327L22.725 62.6142L21.0467 62.9928L15.501 38.4113L17.1793 38.0327Z" fill="#1F1A54"/>
<path fill-rule="evenodd" clip-rule="evenodd" d="M34.0392 62.4382L28.6211 38.4112L30.2994 38.0327L35.7175 62.0597L34.0392 62.4382Z" fill="#1F1A54"/>
<path d="M53.338 71C70.9902 71 85.3001 70.2661 85.3001 69.3609C85.3001 68.4556 70.9902 67.7218 53.338 67.7218C35.6859 67.7218 21.376 68.4556 21.376 69.3609C21.376 70.2661 35.6859 71 53.338 71Z" fill="#DEE5FF"/>
<path d="M65.9964 55.8081H48.8203V60.4429H65.9964V55.8081Z" fill="#9DAFED" stroke="#1F1A54" stroke-width="0.5" stroke-miterlimit="10" stroke-linecap="round" stroke-linejoin="round"/>
<path d="M63.8974 56.4047C63.8974 56.4047 63.9967 56.5042 63.94 56.9023C63.8549 57.4283 63.4152 57.8833 61.8834 57.997C60.8622 58.0681 56.5078 58.0396 56.0256 58.0254C55.5434 58.0112 55.3306 57.8264 55.4583 57.2293" fill="white"/>
<path d="M63.8974 56.4047C63.8974 56.4047 63.9967 56.5042 63.94 56.9023C63.8549 57.4283 63.4152 57.8833 61.8834 57.997C60.8622 58.0681 56.5078 58.0396 56.0256 58.0254C55.5434 58.0112 55.3306 57.8264 55.4583 57.2293" stroke="#1F1A54" stroke-width="0.5" stroke-miterlimit="10" stroke-linecap="round" stroke-linejoin="round"/>
<path d="M63.1327 57.0586C62.8916 57.1296 62.4377 57.1865 61.8562 57.2149C59.5869 57.3429 55.4453 57.2149 55.4453 57.2149C55.4453 57.2149 55.4737 56.9733 55.5162 56.6036C55.5446 56.3761 55.573 56.0918 55.6013 55.7648C55.6013 55.7648 55.7999 55.7648 56.1261 55.7221C56.3956 55.6795 56.7502 55.5942 57.1331 55.4378C57.6296 55.2245 58.1969 54.8549 58.5089 54.599C58.6649 54.471 58.7642 54.3715 58.7359 54.3573C58.8493 54.4853 59.0621 54.6416 59.3174 54.798C59.5301 54.926 59.7712 55.0539 60.0407 55.1677C60.2535 55.253 60.4662 55.3383 60.6932 55.4094C60.835 55.452 60.9768 55.4947 61.1187 55.5231C61.218 55.5515 61.3031 55.5658 61.4023 55.5942C61.8278 55.6937 62.2817 55.779 62.6079 55.8359C63.0192 55.907 63.5015 55.9638 63.7142 56.1344C63.8277 56.234 63.8844 56.3193 63.9128 56.4188C63.9553 56.6605 63.6575 56.888 63.1327 57.0586Z" fill="white" stroke="#1F1A54" stroke-width="0.5" stroke-miterlimit="10" stroke-linecap="round" stroke-linejoin="round"/>
<path d="M61.8549 57.2155C61.7556 56.1208 62.5924 55.8364 62.5924 55.8364L61.8549 57.2155Z" fill="white"/>
<path d="M61.8549 57.2155C61.7556 56.1208 62.5924 55.8364 62.5924 55.8364" stroke="#1F1A54" stroke-width="0.5" stroke-miterlimit="10" stroke-linecap="round" stroke-linejoin="round"/>
<path d="M59.0605 55.1247L59.5712 54.4565" stroke="#1F1A54" stroke-width="0.5" stroke-miterlimit="10" stroke-linecap="round" stroke-linejoin="round"/>
<path d="M59.7842 55.5658L60.238 54.8407" stroke="#1F1A54" stroke-width="0.5" stroke-miterlimit="10" stroke-linecap="round" stroke-linejoin="round"/>
<path d="M60.4795 55.8213L60.8766 55.0536" stroke="#1F1A54" stroke-width="0.5" stroke-miterlimit="10" stroke-linecap="round" stroke-linejoin="round"/>
<path d="M61.1738 56.0214L61.571 55.2537" stroke="#1F1A54" stroke-width="0.5" stroke-miterlimit="10" stroke-linecap="round" stroke-linejoin="round"/>
<path d="M60.5082 57.444C60.5082 57.444 59.9834 57.6146 59.7991 58.2402C59.7423 58.4108 59.714 58.624 59.7423 58.88C57.3879 59.0221 53.1045 58.88 53.1045 58.88C53.1045 58.88 53.2038 58.2402 53.2747 57.3872C53.2747 57.3872 53.3598 57.3872 53.4874 57.3729C53.7569 57.3587 54.2675 57.2876 54.8491 57.0317C55.3597 56.8185 55.9412 56.4204 56.2674 56.1645C56.4376 56.0365 56.5227 55.937 56.5085 55.9086C56.6362 56.0365 56.8489 56.2071 57.1184 56.3635C57.3311 56.4915 57.5864 56.6194 57.8701 56.7474C58.0829 56.8469 58.3098 56.9322 58.5509 57.0033C58.6928 57.0459 58.8346 57.0886 58.9764 57.117C59.0757 57.1455 59.175 57.1597 59.2743 57.1881C59.6998 57.3018 60.1678 57.3872 60.5082 57.444Z" fill="white" stroke="#1F1A54" stroke-width="0.5" stroke-miterlimit="10" stroke-linecap="round" stroke-linejoin="round"/>
<path d="M61.8972 58.5526C61.8121 59.1071 61.3583 59.5762 59.7697 59.6757C58.7201 59.7468 54.2098 59.7184 53.7134 59.7042C53.2028 59.69 52.99 59.5051 53.1319 58.8796C53.1319 58.8796 57.4153 59.0218 59.7697 58.8796C60.3654 58.8511 60.8477 58.7943 61.0888 58.709C61.6277 58.5384 61.9256 58.2967 61.883 58.0408C61.8547 58.0408 61.954 58.1545 61.8972 58.5526Z" fill="white" stroke="#1F1A54" stroke-width="0.5" stroke-miterlimit="10" stroke-linecap="round" stroke-linejoin="round"/>
<path d="M59.7981 58.2398L61.8547 58.0408C61.9114 58.2967 61.6136 58.5384 61.0604 58.709C60.8193 58.78 60.3371 58.8369 59.7414 58.8796C57.3869 59.0217 53.1035 58.8796 53.1035 58.8796" fill="white"/>
<path d="M59.7981 58.2398L61.8547 58.0408C61.9114 58.2967 61.6136 58.5384 61.0604 58.709C60.8193 58.78 60.3371 58.8369 59.7414 58.8796C57.3869 59.0217 53.1035 58.8796 53.1035 58.8796" stroke="#1F1A54" stroke-width="0.5" stroke-miterlimit="10" stroke-linecap="round" stroke-linejoin="round"/>
<path d="M61.0607 58.7091C60.8195 58.7801 60.3373 58.837 59.7416 58.8797C59.7132 58.6238 59.7416 58.4105 59.7983 58.2399C59.9827 57.6286 60.5075 57.4437 60.5075 57.4437C60.933 57.529 61.4294 57.5717 61.6422 57.7565C61.7556 57.856 61.8266 57.9555 61.8407 58.0409C61.8975 58.2968 61.5996 58.5385 61.0607 58.7091Z" fill="white" stroke="#1F1A54" stroke-width="0.5" stroke-miterlimit="10" stroke-linecap="round" stroke-linejoin="round"/>
<path d="M56.8477 56.7206L57.3724 56.0382" stroke="#1F1A54" stroke-width="0.5" stroke-miterlimit="10" stroke-linecap="round" stroke-linejoin="round"/>
<path d="M57.5996 57.1729L58.0677 56.4336" stroke="#1F1A54" stroke-width="0.5" stroke-miterlimit="10" stroke-linecap="round" stroke-linejoin="round"/>
<path d="M58.3086 57.4298L58.7199 56.6337" stroke="#1F1A54" stroke-width="0.5" stroke-miterlimit="10" stroke-linecap="round" stroke-linejoin="round"/>
<path d="M59.0322 57.6427L59.4435 56.8466" stroke="#1F1A54" stroke-width="0.5" stroke-miterlimit="10" stroke-linecap="round" stroke-linejoin="round"/>
<path d="M56.2809 56.1785C55.9689 56.4344 55.3732 56.8182 54.8626 57.0457C54.2811 57.2874 53.7705 57.3585 53.501 57.3869V55.0553L56.054 54.8989C56.0965 55.0695 56.0682 55.9652 56.2809 56.1785Z" fill="#FFD400" stroke="#1F1A54" stroke-width="0.5" stroke-miterlimit="10" stroke-linecap="round" stroke-linejoin="round"/>
<path d="M56.5078 52.7509V54.6275" stroke="#1F1A54" stroke-width="0.5" stroke-miterlimit="10" stroke-linecap="round" stroke-linejoin="round"/>
<path d="M58.5078 54.6009C58.1958 54.8568 57.6284 55.2264 57.132 55.4397C56.7491 55.5961 56.3945 55.6814 56.125 55.724L56.2526 53.5062L58.2809 53.4919C58.3092 53.6768 58.3092 54.4018 58.5078 54.6009Z" fill="#FFD400" stroke="#1F1A54" stroke-width="0.5" stroke-miterlimit="10" stroke-linecap="round" stroke-linejoin="round"/>
<path d="M57.6568 39.2305L56.8767 52.751L56.7632 54.6276L56.7207 55.3811H56.2526H56.1533L54.2102 55.3527L53.2174 55.3385C53.2174 55.3385 52.7919 53.4903 52.7919 49.4242C52.7919 44.4624 52.7919 40.9934 52.7919 40.9934C52.7919 40.9934 43.601 40.382 40.2112 40.382C36.8213 40.382 37.0766 35.9036 37.0766 35.9036V33.3588H43.0762L43.1046 34.9227C48.5368 34.9227 54.3946 35.733 56.0115 36.1027C57.6568 36.4581 57.6568 39.2305 57.6568 39.2305Z" fill="#1F1A54"/>
<path d="M59.6 37.8665L58.678 54.0172L57.8838 54.003L56.3236 53.9745H55.9548L55.1889 53.9603C55.1889 53.9603 54.7634 52.1121 54.7634 48.046C54.7634 43.0842 54.7634 39.6152 54.7634 39.6152C54.7634 39.6152 45.5726 39.0039 42.1827 39.0039C38.9915 39.0039 39.034 35.0231 39.0482 34.5681C39.0482 34.5397 39.0482 34.5255 39.0482 34.5255V31.9806H45.0478L45.0761 33.5445C50.5084 33.5445 56.3661 34.3549 57.983 34.7245C59.5858 35.0941 59.6 37.8665 59.6 37.8665Z" fill="#1F1A54"/>
<path d="M57.6564 39.2316L56.9521 54.1016" stroke="#FFD400" stroke-width="0.5" stroke-linecap="round" stroke-linejoin="round"/>
<path d="M56.0254 36.0895C57.6565 36.4591 57.6565 39.2315 57.6565 39.2315" stroke="#FFD400" stroke-width="0.5" stroke-linecap="round" stroke-linejoin="round"/>
<path d="M56.0258 36.0887C55.1318 35.8884 52.9508 35.5473 50.2637 35.2859" stroke="#FFD400" stroke-width="0.5" stroke-linecap="round" stroke-linejoin="round"/>
<path d="M40.9063 8.59356C40.3673 10.1859 40.7361 11.636 41.19 12.5317C41.2751 12.6028 42.6225 13.598 43.6721 13.8966C43.7572 13.925 43.8423 13.9392 43.9274 13.9534C44.7074 14.0814 44.6933 13.8397 44.4096 12.8871C43.8848 11.1242 44.2961 9.77358 45.8421 9.14803C47.5867 8.43717 49.4731 8.50825 49.7425 8.57934C49.8418 8.60777 49.9269 8.63621 50.012 8.66464V8.62199C49.9695 8.52247 49.0476 6.53207 46.8491 5.79278C44.6223 5.03927 41.814 5.94917 40.9063 8.59356Z" fill="#FFD400"/>
<path d="M41.2041 12.532C41.3034 12.7452 41.4169 12.9158 41.5161 13.058C41.658 13.2571 42.1118 13.6267 42.4806 13.8684C42.7926 14.0674 43.204 14.2949 43.6578 14.4371L43.672 13.8968C42.6366 13.5983 41.2892 12.6031 41.2041 12.532Z" fill="#1F1A54"/>
<path d="M43.6011 15.9009L43.5869 15.9436L45.7144 17.0099L45.6861 17.6639L46.2108 18.1615L46.6789 17.6923L47.2179 17.5928L47.3172 16.4696L47.3597 15.4602C47.2888 15.4744 47.2179 15.4886 47.147 15.4886C46.7215 15.5313 45.6577 15.3607 45.0762 14.7636L44.9202 14.465C44.7783 14.5361 44.5798 14.5645 44.3245 14.5503C44.0975 14.5361 43.8706 14.4792 43.6578 14.4224L43.6011 15.9009Z" fill="white"/>
<path d="M43.6724 13.896L43.6582 14.4362C43.871 14.5073 44.0979 14.5499 44.3248 14.5642C44.5801 14.5784 44.7787 14.55 44.9205 14.4789C45.3886 14.2514 45.2893 13.569 44.9631 12.8297C44.6794 12.2041 44.651 11.0383 45.2042 10.1853C45.2326 10.0573 46.2254 9.14743 48.0976 8.91996C48.6933 8.84887 49.6294 8.792 50.1542 8.94839C50.1542 8.94839 50.4521 8.97683 50.523 9.43177C50.5797 9.09056 50.4095 8.83465 50.0124 8.67827C49.9273 8.64983 49.8422 8.6214 49.7429 8.59296C49.4734 8.52188 47.587 8.46501 45.8425 9.16165C44.2965 9.7872 43.8851 11.1236 44.4099 12.9008C44.6936 13.8533 44.7078 14.1092 43.9277 13.967C43.8426 13.9386 43.7575 13.9244 43.6724 13.896Z" fill="#1F1A54"/>
<path d="M45.2042 10.187C44.651 11.04 44.6794 12.2058 44.9631 12.8314C45.2893 13.5707 45.3886 14.2531 44.9205 14.4806L45.0765 14.7791C45.658 15.3763 46.7076 15.5469 47.1473 15.5042C47.2182 15.5042 47.2891 15.49 47.3601 15.4758C48.126 15.3336 48.6082 14.8502 48.906 14.1394C48.9202 14.1109 48.9344 14.0683 48.9486 14.0256C49.2181 13.3006 49.3032 11.6798 49.289 10.3292C47.7997 10.3292 45.9843 10.3007 45.4027 10.2297C45.2609 10.2154 45.2042 10.2012 45.2042 10.187Z" fill="white"/>
<path d="M49.8564 10.3282C50.594 10.3282 51.1613 10.3282 51.3457 10.3139C51.757 10.2997 51.133 9.93008 50.6649 9.532C50.6082 9.48935 50.5656 9.4467 50.5231 9.40405C50.3812 9.2761 50.3954 9.24766 50.3954 9.24766C50.3387 9.09127 50.055 8.97754 49.6579 8.96332C49.048 8.9491 48.2963 8.96332 47.502 9.14814C46.1262 9.47514 45.3887 10.1718 45.3887 10.1718V10.2144C45.9702 10.2855 47.7857 10.2997 49.2749 10.3139C49.4735 10.3282 49.6721 10.3282 49.8564 10.3282Z" fill="#1F1A54"/>
<path d="M48.9342 14.0242C48.92 14.0669 48.9058 14.0953 48.8916 14.138C49.7568 13.8536 49.544 12.9864 49.3597 12.4035C49.2036 11.9201 49.5582 11.2519 49.7993 10.5695C49.8277 10.5126 49.8419 10.4273 49.8561 10.3278C49.6717 10.3278 49.4731 10.3278 49.2887 10.3278C49.2887 11.6784 49.2036 13.2991 48.9342 14.0242Z" fill="#1F1A54"/>
<path d="M49.274 10.3284C49.274 11.679 49.1889 13.2998 48.9336 14.0248C48.9194 14.0675 48.9052 14.0959 48.891 14.1386C48.5932 14.8636 48.1251 15.3328 47.3451 15.475C47.2741 15.4892 47.2032 15.5034 47.1323 15.5034C46.7068 15.5461 45.643 15.3755 45.0615 14.7783" stroke="#1F1A54" stroke-width="0.5" stroke-miterlimit="10" stroke-linecap="round" stroke-linejoin="round"/>
<path d="M43.6573 14.4358L43.6006 15.9002" stroke="#1F1A54" stroke-width="0.5" stroke-miterlimit="10" stroke-linecap="round" stroke-linejoin="round"/>
<path d="M47.345 15.4745L47.2031 17.6071" stroke="#1F1A54" stroke-width="0.5" stroke-miterlimit="10" stroke-linecap="round" stroke-linejoin="round"/>
<path d="M41.19 12.5174C40.7361 11.6217 40.3673 10.1716 40.9063 8.57927C41.814 5.93488 44.6082 5.02499 46.8491 5.7785C49.0476 6.51779 49.9695 8.50819 50.012 8.60771" stroke="#1F1A54" stroke-width="0.5" stroke-miterlimit="10" stroke-linecap="round" stroke-linejoin="round"/>
<path d="M45.2038 10.1859C44.6507 11.0389 44.679 12.2047 44.9627 12.8303C45.2889 13.5696 45.3882 14.252 44.9202 14.4795C44.7783 14.5506 44.5797 14.579 44.3244 14.5648C44.0975 14.5506 43.8706 14.4937 43.6578 14.4368C43.204 14.2947 42.7926 14.0672 42.4806 13.8682C42.1118 13.6265 41.658 13.2568 41.5161 13.0578C41.4169 12.9156 41.3034 12.745 41.2041 12.5317" stroke="#1F1A54" stroke-width="0.5" stroke-miterlimit="10" stroke-linecap="round" stroke-linejoin="round"/>
<path d="M48.8916 14.1386C49.7568 13.8542 49.544 12.987 49.3597 12.4041C49.2036 11.9207 49.5582 11.2525 49.7993 10.5701C49.8277 10.5132 49.8419 10.4279 49.8561 10.3284" stroke="#1F1A54" stroke-width="0.5" stroke-miterlimit="10" stroke-linecap="round" stroke-linejoin="round"/>
<path d="M50.1533 8.9342C50.1533 8.9342 50.4512 8.96264 50.5221 9.41759" stroke="#1F1A54" stroke-width="0.5" stroke-miterlimit="10" stroke-linecap="round" stroke-linejoin="round"/>
<path d="M50.1531 8.934C49.6283 8.79183 48.6922 8.83448 48.0965 8.90556C46.2243 9.14726 45.2315 10.0429 45.2031 10.1709C45.2031 10.1851 45.274 10.1993 45.3875 10.2135C45.969 10.2846 47.7845 10.2988 49.2738 10.3131C49.4723 10.3131 49.6709 10.3131 49.8411 10.3131C50.5786 10.3131 51.146 10.3131 51.3304 10.2988C51.7417 10.2846 51.1176 9.91498 50.6495 9.5169C50.5928 9.47425 50.5503 9.4316 50.5077 9.38895C50.3659 9.26099 50.3801 9.23256 50.3801 9.23256" stroke="#1F1A54" stroke-width="0.5" stroke-miterlimit="10" stroke-linecap="round" stroke-linejoin="round"/>
<path d="M41.1895 12.5181C41.1895 12.5323 41.1895 12.5323 41.1895 12.5181C41.2887 12.5891 42.622 13.5843 43.6715 13.8829C43.7566 13.9113 43.8418 13.9256 43.9269 13.9398C44.7069 14.0677 44.6928 13.826 44.4091 12.8735C43.8843 11.1106 44.2956 9.75993 45.8416 9.13438C47.5862 8.42352 49.4726 8.49461 49.742 8.56569C49.8413 8.59413 49.9264 8.62256 50.0115 8.651C50.4087 8.80739 50.5789 9.06329 50.5221 9.40451" stroke="#1F1A54" stroke-width="0.5" stroke-miterlimit="10" stroke-linecap="round" stroke-linejoin="round"/>
<path d="M45.3877 10.2002C45.3877 10.2002 46.1252 9.50358 47.501 9.17659C48.2811 8.99177 49.0328 8.96333 49.6569 8.99177C50.054 9.00599 50.3377 9.11972 50.3944 9.27611" stroke="#1F1A54" stroke-width="0.5" stroke-miterlimit="10" stroke-linecap="round" stroke-linejoin="round"/>
<path d="M46.5505 11.342C46.556 11.1929 46.4653 11.0685 46.3479 11.0641C46.2305 11.0598 46.1308 11.1771 46.1253 11.3261C46.1197 11.4752 46.2104 11.5996 46.3278 11.604C46.4453 11.6084 46.5449 11.4911 46.5505 11.342Z" fill="#1F1A54"/>
<path d="M48.4909 11.4509C48.4964 11.3018 48.4057 11.1774 48.2883 11.173C48.1709 11.1686 48.0712 11.2859 48.0657 11.435C48.0602 11.5841 48.1508 11.7085 48.2683 11.7129C48.3857 11.7173 48.4854 11.6 48.4909 11.4509Z" fill="#1F1A54"/>
<path d="M45.998 10.5271C46.1115 10.456 46.2675 10.4276 46.4235 10.4276C46.5937 10.4276 46.7498 10.4987 46.8632 10.584" stroke="#1F1A54" stroke-width="0.5" stroke-miterlimit="10" stroke-linecap="round" stroke-linejoin="round"/>
<path d="M47.8418 10.5992C47.9553 10.5281 48.1113 10.4996 48.2673 10.4996C48.4375 10.4996 48.5935 10.5707 48.707 10.656" stroke="#1F1A54" stroke-width="0.5" stroke-miterlimit="10" stroke-linecap="round" stroke-linejoin="round"/>
<path d="M45.5576 12.8878C45.5576 12.8878 45.6995 13.6129 46.4937 13.8119" stroke="#1F1A54" stroke-width="0.5" stroke-miterlimit="10" stroke-linecap="round" stroke-linejoin="round"/>
<path d="M46.9619 12.5742C46.9619 12.5742 47.2739 12.759 47.5292 12.6027" stroke="#1F1A54" stroke-width="0.5" stroke-miterlimit="10" stroke-linecap="round" stroke-linejoin="round"/>
<path d="M46.0684 15.3172C46.0825 15.5446 46.7492 15.7863 47.1037 15.7721C47.5434 15.7579 47.9122 15.502 47.9122 15.3456C47.898 15.1892 47.6285 15.2603 47.2739 15.2745C46.9194 15.303 46.0684 15.1608 46.0684 15.3172Z" fill="#1F1A54"/>
<path d="M41.7148 8.6218C41.8141 8.36589 41.956 8.10998 42.1403 7.86829" stroke="white" stroke-width="0.5" stroke-linecap="round" stroke-linejoin="round"/>
<path d="M41.5162 11.4367C41.5162 11.4367 41.2609 10.4415 41.502 9.31836" stroke="white" stroke-width="0.5" stroke-linecap="round" stroke-linejoin="round"/>
<path d="M68.5212 28.0142C68.5637 28.3696 68.4928 28.526 68.4928 28.526C68.4644 28.6539 68.0815 28.7392 67.9255 28.7819C67.8829 28.7961 67.8404 28.8103 67.7836 28.8245C67.6702 28.853 67.4149 28.9241 67.0035 28.9809H66.9894C66.4362 29.052 66.0816 28.6539 66.0391 28.6113L66.649 28.2416C66.8759 28.3838 67.0461 28.4265 67.1454 28.4549C67.1879 28.4691 67.2163 28.4691 67.2163 28.4691C67.8262 28.3412 68.2942 28.1563 68.4644 28.071C68.4786 28.0426 68.507 28.0284 68.5212 28.0142Z" fill="white" stroke="#1F1A54" stroke-width="0.5" stroke-miterlimit="10" stroke-linecap="round" stroke-linejoin="round"/>
<path d="M66.6767 28.4409L66.0668 28.8106L65.9533 28.8817C65.4427 29.1944 64.5917 28.4552 64.5917 28.4552L51.7699 26.2088L50.6494 25.5122L51.0607 24.6592L51.9117 25.171L63.7407 27.4315L64.4215 27.531C64.7903 27.9007 65.1165 28.0855 65.386 28.1566C65.5136 28.1992 65.6271 28.2135 65.7122 28.2277C65.7973 28.2419 65.8824 28.2277 65.9675 28.1992C66.0384 28.1708 66.1235 28.1282 66.1803 28.0713C66.1803 28.0713 66.1944 28.0571 66.2086 28.0571L66.237 28.0997C66.4072 28.2561 66.549 28.3556 66.6767 28.4409Z" fill="white" stroke="#1F1A54" stroke-width="0.5" stroke-miterlimit="10" stroke-linecap="round" stroke-linejoin="round"/>
<path d="M75.4564 52.3827C75.4422 52.3827 75.4281 52.3827 75.4139 52.3969C75.1586 52.4396 74.9175 52.5106 74.6622 52.5817C71.244 53.5343 68.7193 56.1218 67.6697 60.458H65.9961V29.3651C66.5351 30.2892 67.4286 30.9716 68.5066 31.1991C68.5066 31.1991 68.6626 33.5876 70.0525 35.9334C71.0879 37.6679 72.8183 38.7626 74.0523 40.3265C75.2579 41.8478 76.1372 43.6391 76.4776 45.5585C76.8889 47.8901 76.4493 50.2643 75.4564 52.3827Z" fill="#FFD400" stroke="#1F1A54" stroke-width="0.5" stroke-miterlimit="10" stroke-linecap="round" stroke-linejoin="round"/>
<path d="M48.8203 46.0264V62.8026H21.886C21.8718 62.76 21.8718 62.7031 21.8718 62.6462C21.7867 62.0349 21.7441 61.3951 21.7441 60.7696C21.7441 53.2771 27.8005 46.0264 35.2893 46.0264H48.8203Z" fill="#FFD400" stroke="#1F1A54" stroke-width="0.5" stroke-miterlimit="10" stroke-linecap="round" stroke-linejoin="round"/>
<path d="M35.2755 69.3574C39.5995 69.3574 43.1048 65.8437 43.1048 61.5095C43.1048 57.1752 39.5995 53.6616 35.2755 53.6616C30.9516 53.6616 27.4463 57.1752 27.4463 61.5095C27.4463 65.8437 30.9516 69.3574 35.2755 69.3574Z" fill="#1F1A54"/>
<path d="M35.275 66.3574C37.9462 66.3574 40.1116 64.1868 40.1116 61.5093C40.1116 58.8318 37.9462 56.6613 35.275 56.6613C32.6039 56.6613 30.4385 58.8318 30.4385 61.5093C30.4385 64.1868 32.6039 66.3574 35.275 66.3574Z" fill="#A8AAB7" stroke="#1F1A54" stroke-width="0.5" stroke-miterlimit="10"/>
<path d="M35.2747 63.4712C36.3557 63.4712 37.232 62.5928 37.232 61.5092C37.232 60.4256 36.3557 59.5472 35.2747 59.5472C34.1937 59.5472 33.3174 60.4256 33.3174 61.5092C33.3174 62.5928 34.1937 63.4712 35.2747 63.4712Z" fill="#1F1A54"/>
<path d="M44.9345 61.5092H25.6309C25.6309 56.1636 29.9426 51.8416 35.2756 51.8416C40.6085 51.8416 44.9345 56.1636 44.9345 61.5092Z" fill="#FFD400" stroke="#1F1A54" stroke-width="0.5" stroke-miterlimit="10" stroke-linecap="round" stroke-linejoin="round"/>
<path d="M47.3593 46.0282H36.3388C35.5304 46.0282 34.8779 45.3743 34.8779 44.5639V41.8484C34.8779 41.038 35.5304 40.384 36.3388 40.384H47.3593C48.1678 40.384 48.8202 41.038 48.8202 41.8484V44.5639C48.8202 45.3743 48.1678 46.0282 47.3593 46.0282Z" fill="#FFD400" stroke="#1F1A54" stroke-width="0.5" stroke-miterlimit="10" stroke-linecap="round" stroke-linejoin="round"/>
<path d="M69.7692 60.4436H48.8203V62.8037H69.7692V60.4436Z" fill="#FFD400" stroke="#1F1A54" stroke-width="0.5" stroke-miterlimit="10" stroke-linecap="round" stroke-linejoin="round"/>
<path d="M69.415 31.2981C71.2447 31.2981 72.734 29.8053 72.734 27.9713C72.734 26.1373 71.2589 24.6302 69.415 24.6302" fill="#FFEB86"/>
<path d="M69.415 31.2981C71.2447 31.2981 72.734 29.8053 72.734 27.9713C72.734 26.1373 71.2589 24.6302 69.415 24.6302" stroke="#1F1A54" stroke-width="0.5" stroke-miterlimit="10" stroke-linecap="round" stroke-linejoin="round"/>
<path d="M69.4145 23.5355V32.3928C69.0883 32.3928 68.7621 32.3502 68.45 32.2933C67.2302 32.0232 66.1949 31.2412 65.585 30.1891C65.202 29.5352 64.9893 28.7816 64.9893 27.9713C64.9893 27.1609 65.202 26.4074 65.585 25.7534C66.3651 24.417 67.7834 23.5355 69.4145 23.5355Z" fill="#FFD400" stroke="#1F1A54" stroke-width="0.5" stroke-miterlimit="10" stroke-linecap="round" stroke-linejoin="round"/>
<path d="M51.0475 24.7023L50.6362 25.5695L50.5369 25.7828L48.2959 24.6454L48.4377 23.4654L48.8774 23.3943L51.0475 24.7023Z" fill="#FFD400" stroke="#1F1A54" stroke-width="0.5" stroke-miterlimit="10" stroke-linecap="round" stroke-linejoin="round"/>
<path d="M50.3096 24.7323L50.437 24.7181" stroke="#1F1A54" stroke-width="0.5" stroke-miterlimit="10" stroke-linecap="round" stroke-linejoin="round"/>
<path d="M43.2324 16.7836L43.2466 15.2197L46.7357 16.5704L46.8066 17.5656" fill="#FFD400"/>
<path d="M43.2324 16.7836L43.2466 15.2197L46.7357 16.5704L46.8066 17.5656" stroke="#1F1A54" stroke-width="0.5" stroke-miterlimit="10" stroke-linecap="round" stroke-linejoin="round"/>
<path d="M48.9624 18.7312C48.9624 18.7312 48.0547 27.3041 46.9626 35.0383C46.9626 35.0383 38.2681 34.5264 36.7363 34.9956L37.2611 32.3228C37.5164 30.9153 38.7646 25.0863 40.8353 18.3331C41.275 16.8972 42.665 16.0015 44.1117 16.1437C44.2819 16.1579 44.4521 16.1863 44.6223 16.2432C45.4449 16.4849 46.2676 16.9825 47.2037 17.5938C47.3881 17.7218 47.5866 17.8355 47.7852 17.9777C48.154 18.2336 48.5511 18.4895 48.9624 18.7312Z" fill="#FFD400" stroke="#1F1A54" stroke-width="0.5" stroke-miterlimit="10" stroke-linecap="round" stroke-linejoin="round"/>
<path d="M48.9627 18.7317L51.7285 20.4662L50.5371 24.4043L50.4378 24.7171L50.4236 24.7882L50.3101 24.7313L44.9062 21.6746" fill="#FFD400"/>
<path d="M48.9627 18.7317L51.7285 20.4662L50.5371 24.4043L50.4378 24.7171L50.4236 24.7882L50.3101 24.7313L44.9062 21.6746" stroke="#1F1A54" stroke-width="0.5" stroke-miterlimit="10" stroke-linecap="round" stroke-linejoin="round"/>
<path d="M68.1529 26.9482L68.1387 27.5738H68.6918L68.8337 27.261V26.8629L68.1529 26.9482Z" fill="white"/>
<path d="M68.8476 27.0182C68.8334 27.1604 68.805 27.3452 68.7908 27.5016C68.7625 27.729 68.7483 27.9139 68.7483 27.9139C68.7483 27.9139 68.6774 28.1129 68.5497 28.2266C68.5355 28.2409 68.5072 28.2551 68.493 28.2693C68.3228 28.3404 67.8547 28.5252 67.2448 28.6674C67.2448 28.6674 67.2165 28.6674 67.1739 28.6532C67.0888 28.6389 66.9044 28.5821 66.6775 28.4399C66.5498 28.3546 66.408 28.2551 66.252 28.1129L66.2236 28.0703C66.252 28.056 66.2804 28.0276 66.3087 27.9992C66.3371 27.9707 66.3796 27.9423 66.4222 27.9139C66.5499 27.8001 66.6917 27.6864 66.8193 27.5869C66.8761 27.6864 66.947 27.7717 67.0321 27.8286C67.1881 27.9423 67.3867 27.9992 67.5852 27.9707C67.798 27.9423 67.9824 27.8286 68.0958 27.6722" fill="white"/>
<path d="M68.8476 27.0182C68.8334 27.1604 68.805 27.3452 68.7908 27.5016C68.7625 27.729 68.7483 27.9139 68.7483 27.9139C68.7483 27.9139 68.6774 28.1129 68.5497 28.2266C68.5355 28.2409 68.5072 28.2551 68.493 28.2693C68.3228 28.3404 67.8547 28.5252 67.2448 28.6674C67.2448 28.6674 67.2165 28.6674 67.1739 28.6532C67.0888 28.6389 66.9044 28.5821 66.6775 28.4399C66.5498 28.3546 66.408 28.2551 66.252 28.1129L66.2236 28.0703C66.252 28.056 66.2804 28.0276 66.3087 27.9992C66.3371 27.9707 66.3796 27.9423 66.4222 27.9139C66.5499 27.8001 66.6917 27.6864 66.8193 27.5869C66.8761 27.6864 66.947 27.7717 67.0321 27.8286C67.1881 27.9423 67.3867 27.9992 67.5852 27.9707C67.798 27.9423 67.9824 27.8286 68.0958 27.6722" stroke="#1F1A54" stroke-width="0.5" stroke-miterlimit="10" stroke-linecap="round" stroke-linejoin="round"/>
<path d="M68.082 27.6591C68.1955 27.5027 68.2522 27.3037 68.2239 27.1046L68.082 27.6591Z" fill="white"/>
<path d="M68.082 27.6591C68.1955 27.5027 68.2522 27.3037 68.2239 27.1046" stroke="#1F1A54" stroke-width="0.5" stroke-miterlimit="10" stroke-linecap="round" stroke-linejoin="round"/>
<path d="M68.2238 27.1043C68.1671 26.6778 67.7841 26.3935 67.3586 26.4503C67.3161 26.4503 67.2593 26.4645 67.2168 26.4788C66.8764 26.5925 66.6494 26.9337 66.7062 27.3033C66.7204 27.4029 66.7487 27.4882 66.7913 27.5735C66.6636 27.673 66.5218 27.8009 66.3941 27.9005C66.3516 27.9289 66.3232 27.9573 66.2807 27.9858C66.2523 28.0142 66.2239 28.0284 66.1956 28.0569C66.1814 28.0569 66.1814 28.0711 66.1672 28.0711C66.1105 28.1279 66.0254 28.1706 65.9545 28.199C65.8694 28.2275 65.7843 28.2417 65.6992 28.2275C65.6141 28.2275 65.5006 28.199 65.3729 28.1564C65.1035 28.0711 64.7631 27.8863 64.4085 27.5308L63.7277 27.4313L51.8987 25.1708L51.0477 24.659L50.5371 24.3604L51.7001 20.4507L53.3596 21.5454L64.295 25.5831L64.8765 25.7395L67.4154 25.2845C67.4154 25.2845 67.9969 25.1992 68.2238 25.5546C68.4507 25.9101 68.7911 26.4503 68.7911 26.4503C68.7911 26.4503 68.8904 26.5925 68.8621 26.7204C68.8621 26.7489 68.8479 26.8626 68.8195 27.0048" fill="white"/>
<path d="M68.2238 27.1043C68.1671 26.6778 67.7841 26.3935 67.3586 26.4503C67.3161 26.4503 67.2593 26.4645 67.2168 26.4788C66.8764 26.5925 66.6494 26.9337 66.7062 27.3033C66.7204 27.4029 66.7487 27.4882 66.7913 27.5735C66.6636 27.673 66.5218 27.8009 66.3941 27.9005C66.3516 27.9289 66.3232 27.9573 66.2807 27.9858C66.2523 28.0142 66.2239 28.0284 66.1956 28.0569C66.1814 28.0569 66.1814 28.0711 66.1672 28.0711C66.1105 28.1279 66.0254 28.1706 65.9545 28.199C65.8694 28.2275 65.7843 28.2417 65.6992 28.2275C65.6141 28.2275 65.5006 28.199 65.3729 28.1564C65.1035 28.0711 64.7631 27.8863 64.4085 27.5308L63.7277 27.4313L51.8987 25.1708L51.0477 24.659L50.5371 24.3604L51.7001 20.4507L53.3596 21.5454L64.295 25.5831L64.8765 25.7395L67.4154 25.2845C67.4154 25.2845 67.9969 25.1992 68.2238 25.5546C68.4507 25.9101 68.7911 26.4503 68.7911 26.4503C68.7911 26.4503 68.8904 26.5925 68.8621 26.7204C68.8621 26.7489 68.8479 26.8626 68.8195 27.0048" stroke="#1F1A54" stroke-width="0.5" stroke-miterlimit="10" stroke-linecap="round" stroke-linejoin="round"/>
<path d="M67.4299 26.5072C67.4299 26.5072 67.3164 27.1754 66.9902 27.4171C66.9335 27.4597 66.8626 27.5166 66.7917 27.5735C66.7491 27.4882 66.7208 27.4029 66.7066 27.3034C66.664 26.9337 66.8768 26.5925 67.2172 26.4788L67.4299 26.5072Z" fill="white" stroke="#1F1A54" stroke-width="0.5" stroke-miterlimit="10" stroke-linecap="round" stroke-linejoin="round"/>
<path d="M68.0818 27.659C67.9684 27.8154 67.784 27.9291 67.5712 27.9576C67.3727 27.986 67.1741 27.9291 67.0181 27.8154C66.933 27.7585 66.8621 27.6732 66.8053 27.5737C66.7628 27.4884 66.7344 27.4031 66.7202 27.3036C66.6777 26.9339 66.8904 26.5927 67.2308 26.479C67.2734 26.4648 67.3159 26.4506 67.3727 26.4506C67.7982 26.3937 68.1811 26.6922 68.2378 27.1045C68.252 27.3036 68.1953 27.5026 68.0818 27.659Z" fill="#1F1A54"/>
<path d="M47.445 23.1095C47.445 23.1095 47.3883 23.9625 47.3174 24.318L47.445 23.1095Z" fill="#FFD400"/>
<path d="M47.445 23.1095C47.445 23.1095 47.3883 23.9625 47.3174 24.318" stroke="#1F1A54" stroke-width="0.5" stroke-miterlimit="10" stroke-linecap="round" stroke-linejoin="round"/>
<path d="M75.6554 69.3574C79.9794 69.3574 83.4847 65.8437 83.4847 61.5095C83.4847 57.1752 79.9794 53.6616 75.6554 53.6616C71.3314 53.6616 67.8262 57.1752 67.8262 61.5095C67.8262 65.8437 71.3314 69.3574 75.6554 69.3574Z" fill="#1F1A54"/>
<path d="M75.6549 66.3574C78.326 66.3574 80.4914 64.1868 80.4914 61.5093C80.4914 58.8318 78.326 56.6613 75.6549 56.6613C72.9837 56.6613 70.8184 58.8318 70.8184 61.5093C70.8184 64.1868 72.9837 66.3574 75.6549 66.3574Z" fill="#A8AAB7" stroke="#1F1A54" stroke-width="0.5" stroke-miterlimit="10"/>
<path d="M75.6556 63.4712C76.7366 63.4712 77.6129 62.5928 77.6129 61.5092C77.6129 60.4256 76.7366 59.5472 75.6556 59.5472C74.5746 59.5472 73.6982 60.4256 73.6982 61.5092C73.6982 62.5928 74.5746 63.4712 75.6556 63.4712Z" fill="#1F1A54"/>
<path d="M85.3002 61.5092H66.0107C66.0107 56.1636 70.3225 51.8416 75.6555 51.8416C80.9742 51.8416 85.3002 56.1636 85.3002 61.5092Z" fill="#FFD400" stroke="#1F1A54" stroke-width="0.5" stroke-miterlimit="10" stroke-linecap="round" stroke-linejoin="round"/>
<path d="M31.9983 35.4908V35.9316C31.9983 37.0263 31.1047 37.922 30.0126 37.922H16.2689C15.1768 37.922 14.2832 37.0263 14.2832 35.9316V35.4908H31.9983Z" fill="#1F1A54" stroke="#1F1A54" stroke-width="0.5" stroke-miterlimit="10" stroke-linecap="round" stroke-linejoin="round"/>
<path d="M31.9983 21.5595V35.4923H14.2832V21.5595C14.2832 20.4648 15.1768 19.5691 16.2689 19.5691H30.0126C31.1047 19.5691 31.9983 20.4648 31.9983 21.5595Z" fill="#FFD400" stroke="#1F1A54" stroke-width="0.5" stroke-miterlimit="10" stroke-linecap="round" stroke-linejoin="round"/>
<path d="M31.9983 38.2216H14.2832" stroke="#1F1A54" stroke-width="0.5" stroke-miterlimit="10" stroke-linecap="round"/>
<path d="M30.2963 26.4786H15.9852C15.0491 26.4786 14.2832 25.7109 14.2832 24.7726V21.2751C14.2832 20.3368 15.0491 19.5691 15.9852 19.5691H30.2963C31.2324 19.5691 31.9983 20.3368 31.9983 21.2751V24.7726C31.9983 25.7109 31.2324 26.4786 30.2963 26.4786Z" fill="#FFD400" stroke="#1F1A54" stroke-width="0.5" stroke-miterlimit="10" stroke-linecap="round" stroke-linejoin="round"/>
<path d="M88.0913 5.497C87.9869 4.27049 87.405 3.12671 86.4615 2.29342C85.518 1.46014 84.2822 0.998485 83 1.00039C82.3417 0.992267 81.6883 1.11058 81.0783 1.34837C80.4683 1.58617 79.9141 1.93864 79.4481 2.38505C78.9821 2.83147 78.6139 3.36281 78.365 3.94782C78.1162 4.53284 77.9917 5.15971 77.999 5.79157V6.51068H77.2497C76.3972 6.53874 75.5874 6.87635 74.9842 7.45532C74.381 8.03428 74.0292 8.81142 74 9.62971V13H88.0913C89.1279 13 90.1221 12.6048 90.8552 11.9012C91.5882 11.1977 92 10.2435 92 9.2485C92 8.25354 91.5882 7.29933 90.8552 6.59578C90.1221 5.89224 89.1279 5.497 88.0913 5.497Z" stroke="#1F1A54" stroke-width="0.5" stroke-linecap="round" stroke-linejoin="round"/>
</svg>
