<svg width="100" height="66" viewBox="0 0 100 66" fill="none" xmlns="http://www.w3.org/2000/svg">
<path d="M0 54.3335L100 54.3335" stroke="#1F1A54" stroke-width="0.8"/>
<path d="M31.4975 51.9338C31.5828 52.2514 31.3435 52.5635 31.0146 52.5635H25.6523C25.3234 52.5635 25.084 52.2513 25.1695 51.9336L27.8528 41.9625C27.9857 41.469 28.6859 41.4691 28.8185 41.9627L31.4975 51.9338Z" fill="#FFD400"/>
<path d="M28.3361 50.442V54.3335M27.8528 41.9625L25.1695 51.9336C25.084 52.2513 25.3234 52.5635 25.6523 52.5635H31.0146C31.3435 52.5635 31.5828 52.2514 31.4975 51.9338L28.8185 41.9627C28.6859 41.4691 27.9857 41.469 27.8528 41.9625Z" stroke="#1F1A54" stroke-width="0.8" stroke-linecap="round" stroke-linejoin="round"/>
<path d="M12.0795 50.4159L10.2446 48.663C9.37499 47.84 8.68471 46.8605 8.21363 45.7812C7.74255 44.7019 7.5 43.5441 7.5 42.3747C7.5 41.2053 7.74255 40.0475 8.21363 38.9682C8.68471 37.8888 9.37499 36.9094 10.2446 36.0863L12.0795 34.3335L13.9143 36.0863C14.7861 36.9082 15.4784 37.8872 15.9509 38.9667C16.4234 40.0462 16.6667 41.2046 16.6667 42.3747C16.6667 43.5447 16.4234 44.7031 15.9509 45.7826C15.4784 46.8621 14.7861 47.8412 13.9143 48.663L12.0795 50.4159Z" fill="#FFD400"/>
<path d="M12.0795 42.195V54.3335M12.0795 53.2467L15.7675 49.7235M12.0795 50.4159L10.2446 48.663C9.37499 47.84 8.68471 46.8605 8.21363 45.7812C7.74255 44.7019 7.5 43.5441 7.5 42.3747C7.5 41.2053 7.74255 40.0475 8.21363 38.9682C8.68471 37.8888 9.37499 36.9094 10.2446 36.0863L12.0795 34.3335L13.9143 36.0863C14.7862 36.9082 15.4784 37.8872 15.9509 38.9667C16.4234 40.0462 16.6667 41.2046 16.6667 42.3747C16.6667 43.5447 16.4234 44.7031 15.9509 45.7826C15.4784 46.8621 14.7862 47.8412 13.9143 48.663L12.0795 50.4159Z" stroke="#1F1A54" stroke-width="0.8" stroke-linecap="round" stroke-linejoin="round"/>
<path d="M91.1615 15.1652C91.1035 14.4838 90.7802 13.8484 90.2561 13.3854C89.7319 12.9225 89.0453 12.666 88.333 12.6671C87.9673 12.6626 87.6043 12.7283 87.2654 12.8604C86.9265 12.9925 86.6186 13.1883 86.3597 13.4363C86.1009 13.6844 85.8963 13.9795 85.758 14.3046C85.6198 14.6296 85.5506 14.9778 85.5547 15.3289V15.7284H85.1384C84.6648 15.7439 84.2149 15.9315 83.8798 16.2532C83.5447 16.5748 83.3492 17.0065 83.333 17.4612V19.3335H91.1615C91.7374 19.3335 92.2897 19.114 92.697 18.7231C93.1042 18.3322 93.333 17.8021 93.333 17.2494C93.333 16.6966 93.1042 16.1665 92.697 15.7756C92.2897 15.3848 91.7374 15.1652 91.1615 15.1652Z" stroke="#1F1A54" stroke-width="0.8" stroke-linecap="round" stroke-linejoin="round"/>
<path d="M65.8333 61.8331C74.5778 61.8331 81.6667 61.0869 81.6667 60.1664C81.6667 59.2459 74.5778 58.4998 65.8333 58.4998C57.0888 58.4998 50 59.2459 50 60.1664C50 61.0869 57.0888 61.8331 65.8333 61.8331Z" fill="#9DAFED"/>
<path d="M81.1607 52.7095H57.5381C55.7355 52.7104 53.9907 52.0739 52.6134 50.913C51.2361 49.7521 50.3152 48.1417 50.0141 46.3676L45.3653 19.3674H39.167M46.7943 26.9811H84.0187L81.6943 38.0149C81.269 40.0553 80.1847 41.9001 78.6078 43.2661C77.0309 44.6321 75.0486 45.4439 72.965 45.577L50.1517 47.0551" stroke="#1F1A54" stroke-width="0.8" stroke-linecap="round" stroke-linejoin="round"/>
<path d="M46.7942 26.981H84.0186L81.6943 38.0148C81.2689 40.0552 80.1846 41.8999 78.6077 43.2659C77.0309 44.632 75.0485 45.4438 72.9649 45.5769L50.1517 47.0549" fill="#FFD400"/>
<path d="M50.1191 47.0085L45.3652 19.3673M46.7942 26.981H84.0186L81.6943 38.0148C81.2689 40.0552 80.1846 41.8999 78.6077 43.2659C77.0309 44.632 75.0486 45.4438 72.9649 45.5769L50.1517 47.0549" stroke="#1F1A54" stroke-width="0.8" stroke-linecap="round" stroke-linejoin="round"/>
<path d="M58.75 27.2498L60.4167 45.9998" stroke="#1F1A54" stroke-width="0.8" stroke-linecap="round"/>
<path d="M48.334 36.4165L82.084 35.5831" stroke="#1F1A54" stroke-width="0.8"/>
<path d="M71.667 27.2498L70.8337 45.5831" stroke="#1F1A54" stroke-width="0.8" stroke-linecap="round"/>
<path d="M54.8136 59.8312C55.9663 59.8312 56.9007 58.8985 56.9007 57.7479C56.9007 56.5973 55.9663 55.6646 54.8136 55.6646C53.661 55.6646 52.7266 56.5973 52.7266 57.7479C52.7266 58.8985 53.661 59.8312 54.8136 59.8312Z" fill="#1F1A54"/>
<path d="M76.622 59.8312C77.7747 59.8312 78.7091 58.8985 78.7091 57.7479C78.7091 56.5973 77.7747 55.6646 76.622 55.6646C75.4693 55.6646 74.5349 56.5973 74.5349 57.7479C74.5349 58.8985 75.4693 59.8312 76.622 59.8312Z" fill="#1F1A54"/>
<path d="M54.8136 59.8312C55.9663 59.8312 56.9007 58.8985 56.9007 57.7479C56.9007 56.5973 55.9663 55.6646 54.8136 55.6646C53.661 55.6646 52.7266 56.5973 52.7266 57.7479C52.7266 58.8985 53.661 59.8312 54.8136 59.8312Z" stroke="#1F1A54" stroke-width="0.8" stroke-linecap="round" stroke-linejoin="round"/>
<path d="M76.622 59.8312C77.7747 59.8312 78.7091 58.8985 78.7091 57.7479C78.7091 56.5973 77.7747 55.6646 76.622 55.6646C75.4693 55.6646 74.5349 56.5973 74.5349 57.7479C74.5349 58.8985 75.4693 59.8312 76.622 59.8312Z" stroke="#1F1A54" stroke-width="0.8" stroke-linecap="round" stroke-linejoin="round"/>
<path d="M1.66699 16.4873C2.15845 18.0205 4.61571 21.5949 10.5131 19.5516C16.4106 17.5083 14.9362 12.4007 12.9704 11.8899C11.0046 11.3791 9.53024 14.444 12.9704 16.4873C14.6598 17.4907 16.6824 17.0057 18.3337 16.1663" stroke="#1F1A54" stroke-width="0.8" stroke-linecap="round" stroke-dasharray="3.5 3.5"/>
<path d="M25.059 6.92401L32.3513 5.32719C35.8112 4.58201 39.1113 6.81756 39.8565 10.2241C40.6017 13.6839 38.3661 16.984 34.9595 17.7292L27.6672 19.326C24.2073 20.0712 20.9072 17.8356 20.162 14.4291C19.3635 11.0757 21.5991 7.66919 25.059 6.92401Z" fill="#FFD400"/>
<path d="M28.5187 9.31936L28.7848 9.10645C29.6897 8.09513 29.6365 6.55154 28.6251 5.64667L25.7508 2.98531C24.7395 2.08044 23.1958 2.13367 22.2909 3.14499L22.0248 3.41112C21.1199 4.42244 21.1731 5.96604 22.1845 6.8709L25.0588 9.53226C26.0702 10.4371 27.6138 10.3307 28.5187 9.31936Z" fill="white" stroke="#1F1A54" stroke-width="0.8" stroke-miterlimit="10" stroke-linecap="round"/>
<path d="M28.519 9.85163H28.8383C30.1691 9.69195 31.2336 8.52095 31.0739 7.13704L30.7546 3.25144C30.5949 1.92076 29.4239 0.856216 28.0399 1.0159H27.7205C26.3898 1.17558 25.3253 2.34658 25.485 3.73049L25.9108 7.61608C25.964 8.99999 27.2415 10.0113 28.519 9.85163Z" fill="white" stroke="#1F1A54" stroke-width="0.8" stroke-miterlimit="10" stroke-linecap="round"/>
<path d="M25.059 6.92401L32.3513 5.32719C35.8112 4.58201 39.1113 6.81756 39.8565 10.2241C40.6017 13.6839 38.3661 16.984 34.9595 17.7292L27.6672 19.326C24.2073 20.0712 20.9072 17.8356 20.162 14.4291C19.3635 11.0757 21.5991 7.66919 25.059 6.92401Z" fill="#FFD400"/>
<path d="M25.059 6.92401L32.3513 5.32719C35.8112 4.58201 39.1113 6.81756 39.8565 10.2241C40.6017 13.6839 38.3661 16.984 34.9595 17.7292L27.6672 19.326C24.2073 20.0712 20.9072 17.8356 20.162 14.4291C19.3635 11.0757 21.5991 7.66919 25.059 6.92401Z" fill="#FFD400"/>
<mask id="mask0" mask-type="alpha" maskUnits="userSpaceOnUse" x="20" y="5" width="20" height="15">
<path d="M25.059 6.92401L32.3513 5.32719C35.8112 4.58201 39.1113 6.81756 39.8565 10.2241C40.6017 13.6839 38.3661 16.984 34.9595 17.7292L27.6672 19.326C24.2073 20.0712 20.9072 17.8356 20.162 14.4291C19.3635 11.0757 21.5991 7.66919 25.059 6.92401Z" fill="#FFD400"/>
</mask>
<g mask="url(#mask0)">
<path d="M30.5949 5.21973C30.5949 5.21973 26.7625 12.7248 33.3096 18.2604L28.6787 19.2717C28.6787 19.2717 22.8768 13.7361 25.964 6.39073C26.0705 6.28427 30.5949 5.27295 30.5949 5.21973Z" fill="#1F1A54"/>
<path d="M22.6105 7.34973C22.6105 7.34973 18.8313 14.6951 25.3252 20.1775L20.6943 21.1888C20.6943 21.1888 14.8924 15.7064 17.9797 8.52073C18.0329 8.41428 22.6638 7.50941 22.6105 7.34973Z" fill="#1F1A54"/>
</g>
<path d="M36.5566 11.7144C36.5566 11.7144 35.9711 12.566 34.9066 12.1402" stroke="#1F1A54" stroke-width="0.8" stroke-miterlimit="10" stroke-linecap="round"/>
<path d="M32.6178 10.9695C32.7242 11.3954 33.0968 11.6083 33.5227 11.555C33.9485 11.4486 34.1614 11.076 34.1082 10.6502C34.0549 10.2244 33.6291 10.0115 33.2033 10.0647C32.7775 10.1179 32.5113 10.597 32.6178 10.9695Z" fill="#1F1A54"/>
<path d="M32.9908 10.8091C32.9908 10.9688 33.1505 11.0753 33.3102 10.9688C33.4698 10.9688 33.5763 10.8091 33.4698 10.6494C33.4698 10.4898 33.3102 10.3833 33.1505 10.4898C33.0972 10.4898 32.9908 10.6494 32.9908 10.8091Z" fill="white"/>
<path d="M36.5035 10.171C36.61 10.5968 36.9826 10.8097 37.4084 10.7565C37.8342 10.65 38.0471 10.2774 37.9939 9.85159C37.8875 9.42578 37.5149 9.21287 37.089 9.26609C36.7164 9.31932 36.3971 9.74514 36.5035 10.171Z" fill="#1F1A54"/>
<path d="M36.8765 10.0108C36.8765 10.1705 37.0362 10.2769 37.1959 10.1705C37.3556 10.1705 37.462 10.0108 37.3556 9.85109C37.3556 9.69141 37.1959 9.58496 37.0362 9.69141C36.983 9.69141 36.8765 9.85109 36.8765 10.0108Z" fill="white"/>
<path d="M35.6511 6.01929C35.6511 6.01929 35.5447 2.87888 37.8867 3.5176" stroke="#1F1A54" stroke-width="0.8" stroke-miterlimit="10" stroke-linecap="round"/>
<path d="M33.3627 6.44527C33.3627 6.44527 31.8723 3.46454 33.8418 2.71936" stroke="#1F1A54" stroke-width="0.8" stroke-miterlimit="10" stroke-linecap="round"/>
</svg>
