<svg width="102" height="60" viewBox="0 0 102 60" fill="none" xmlns="http://www.w3.org/2000/svg">
<path d="M1.33203 45.1831H101" stroke="#221E54" stroke-width="0.8" stroke-linecap="round"/>
<path d="M17.9428 38.9538V43.0153C17.9421 43.3016 17.8844 43.5848 17.7732 43.8486C17.662 44.1124 17.4994 44.3515 17.295 44.5518C16.8768 44.9579 16.3164 45.1844 15.7335 45.1831H8.53255C8.24772 45.1804 7.96595 45.124 7.70198 45.017C7.4329 44.9109 7.18736 44.7529 6.97939 44.5518C6.77373 44.3507 6.60999 44.1107 6.49766 43.8459C6.3878 43.5828 6.33133 43.3004 6.33155 43.0153V38.9538M17.6854 32.7246H6.60564C6.60564 32.7246 5.48438 37.3758 5.48438 37.6C5.5075 38.0149 5.68531 38.4061 5.98271 38.6964C6.29164 38.9909 6.70208 39.1552 7.12889 39.1552C7.55571 39.1552 7.96614 38.9909 8.27507 38.6964C8.57859 38.4088 8.76248 38.0173 8.79002 37.6C8.81757 38.0173 9.00145 38.4088 9.30497 38.6964C9.6139 38.9909 10.0243 39.1552 10.4512 39.1552C10.878 39.1552 11.2884 38.9909 11.5973 38.6964C11.9009 38.4088 12.0847 38.0173 12.1123 37.6C12.1398 38.0173 12.3237 38.4088 12.6272 38.6964C12.9362 38.9909 13.3466 39.1552 13.7734 39.1552C14.2002 39.1552 14.6107 38.9909 14.9196 38.6964C15.2231 38.4088 15.407 38.0173 15.4345 37.6C15.4621 38.0173 15.646 38.4088 15.9495 38.6964C16.2584 38.9909 16.6689 39.1552 17.0957 39.1552C17.5225 39.1552 17.9329 38.9909 18.2418 38.6964C18.5454 38.4088 18.7293 38.0173 18.7568 37.6C18.7734 37.3758 17.6688 32.7246 17.6688 32.7246H17.6854ZM11.0409 41.9356H13.2585V45.1831H11.0159L11.0409 41.9356Z" stroke="#221E54" stroke-width="0.8" stroke-linecap="round" stroke-linejoin="round"/>
<path d="M17.6688 32.7246H6.60564C6.60564 32.7246 5.48438 37.3758 5.48438 37.6C5.5075 38.0149 5.68531 38.4061 5.98271 38.6964C6.29164 38.9909 6.70208 39.1552 7.12889 39.1552C7.55571 39.1552 7.96614 38.9909 8.27507 38.6964C8.57859 38.4088 8.76248 38.0173 8.79002 37.6C8.81757 38.0173 9.00145 38.4088 9.30497 38.6964C9.6139 38.9909 10.0243 39.1552 10.4512 39.1552C10.878 39.1552 11.2884 38.9909 11.5973 38.6964C11.9008 38.4088 12.0847 38.0173 12.1123 37.6C12.1398 38.0173 12.3237 38.4088 12.6272 38.6964C12.9362 38.9909 13.3466 39.1552 13.7734 39.1552C14.2002 39.1552 14.6107 38.9909 14.9196 38.6964C15.2231 38.4088 15.407 38.0173 15.4345 37.6C15.4621 38.0173 15.646 38.4088 15.9495 38.6964C16.2584 38.9909 16.6689 39.1552 17.0957 39.1552C17.5225 39.1552 17.9329 38.9909 18.2418 38.6964C18.5454 38.4088 18.7293 38.0173 18.7568 37.6C18.7734 37.3758 17.6688 32.7246 17.6688 32.7246Z" fill="#FED401"/>
<path d="M17.9428 38.9538V43.0153V38.9538ZM6.31494 43.0153V38.9538V43.0153ZM17.6688 32.7246H6.60564C6.60564 32.7246 5.48438 37.3758 5.48438 37.6C5.5075 38.0149 5.68531 38.4061 5.98271 38.6964C6.29164 38.9909 6.70208 39.1552 7.12889 39.1552C7.55571 39.1552 7.96614 38.9909 8.27507 38.6964C8.57859 38.4088 8.76248 38.0173 8.79002 37.6C8.81757 38.0173 9.00145 38.4088 9.30497 38.6964C9.6139 38.9909 10.0243 39.1552 10.4512 39.1552C10.878 39.1552 11.2884 38.9909 11.5973 38.6964C11.9009 38.4088 12.0847 38.0173 12.1123 37.6C12.1398 38.0173 12.3237 38.4088 12.6272 38.6964C12.9362 38.9909 13.3466 39.1552 13.7734 39.1552C14.2002 39.1552 14.6107 38.9909 14.9196 38.6964C15.2231 38.4088 15.407 38.0173 15.4345 37.6C15.4621 38.0173 15.646 38.4088 15.9495 38.6964C16.2584 38.9909 16.6689 39.1552 17.0957 39.1552C17.5225 39.1552 17.9329 38.9909 18.2418 38.6964C18.5454 38.4088 18.7293 38.0173 18.7568 37.6C18.7734 37.3758 17.6688 32.7246 17.6688 32.7246Z" stroke="#221E54" stroke-width="0.8" stroke-linecap="round" stroke-linejoin="round"/>
<path d="M88.5368 9.96513C88.479 9.286 88.1569 8.65268 87.6344 8.19128C87.112 7.72988 86.4277 7.47426 85.7178 7.47531C85.3532 7.47082 84.9915 7.53633 84.6537 7.668C84.316 7.79966 84.0091 7.99483 83.751 8.24201C83.493 8.4892 83.2891 8.78341 83.1513 9.10734C83.0135 9.43127 82.9446 9.77837 82.9487 10.1282V10.5264H82.5338C82.0617 10.542 81.6134 10.7289 81.2793 11.0495C80.9453 11.37 80.7506 11.8004 80.7344 12.2535V14.1196H88.5368C89.1109 14.1196 89.6614 13.9008 90.0672 13.5112C90.4731 13.1216 90.7011 12.5933 90.7011 12.0424C90.7011 11.4915 90.4731 10.9631 90.0672 10.5735C89.6614 10.184 89.1109 9.96513 88.5368 9.96513Z" stroke="#1F1A54" stroke-width="0.8" stroke-linecap="round" stroke-linejoin="round"/>
<path d="M61.9633 51.8276C75.2524 51.8276 86.0497 50.7147 86.0497 49.3359C86.0497 47.9572 75.2524 46.8442 61.9633 46.8442C48.6743 46.8442 37.877 47.9572 37.877 49.3359C37.877 50.7147 48.6577 51.8276 61.9633 51.8276Z" fill="#A1AED9"/>
<path d="M42.0293 22.7578H81.0658V47.6748C81.0658 48.1153 80.8908 48.5378 80.5793 48.8493C80.2678 49.1609 79.8453 49.3359 79.4047 49.3359H43.6904C43.2499 49.3359 42.8274 49.1609 42.5158 48.8493C42.2043 48.5378 42.0293 48.1153 42.0293 47.6748V22.7578Z" fill="white" stroke="#221E54" stroke-width="0.8" stroke-linecap="round" stroke-linejoin="round"/>
<path d="M46.1572 43.522H60.2768M46.1821 39.3691H54.9861H46.1821Z" stroke="#221E54" stroke-width="0.8" stroke-linecap="round" stroke-linejoin="round"/>
<path d="M27.9102 36.8774L42.0298 22.7578V28.5718L33.7241 36.8774H27.9102Z" fill="#FED401" stroke="#221E54" stroke-width="0.8" stroke-linecap="round" stroke-linejoin="round"/>
<path d="M95.186 36.8774L81.0664 22.7578V28.5718L89.3721 36.8774H95.186Z" fill="#FED401" stroke="#221E54" stroke-width="0.8" stroke-linecap="round" stroke-linejoin="round"/>
<path d="M30.9004 9.96677C40.6346 5.65614 54.1562 12.6579 58.6413 21.0965" stroke="#221E54" stroke-width="0.8" stroke-linecap="round" stroke-dasharray="4 4"/>
<path d="M26.1075 28.023L22.7354 27.3253C22.5428 27.2804 22.3651 27.1865 22.2195 27.0526C22.074 26.9187 21.9656 26.7494 21.9048 26.5612L20.8251 23.2971C20.7623 23.1049 20.7507 22.8995 20.7915 22.7015C20.8322 22.5034 20.924 22.3193 21.0576 22.1675L23.35 19.6011C23.4841 19.4514 23.6553 19.3396 23.8462 19.2769C24.0372 19.2142 24.2413 19.2028 24.438 19.2439L27.8101 19.9416C28.0024 19.9873 28.1797 20.0815 28.3252 20.2153C28.4706 20.3491 28.5792 20.5179 28.6407 20.7057L29.7204 23.9699C29.7833 24.1621 29.7948 24.3674 29.7541 24.5655C29.7133 24.7636 29.6215 24.9476 29.4879 25.0994L27.1955 27.6659C27.0614 27.8156 26.8903 27.9274 26.6993 27.9901C26.5083 28.0527 26.3042 28.0641 26.1075 28.023Z" fill="#FED401" stroke="#221E54" stroke-width="0.8" stroke-linecap="round" stroke-linejoin="round"/>
<path d="M22.0042 18.5796C21.9081 18.9089 21.9062 19.2585 21.9986 19.5888C22.0911 19.9191 22.2743 20.2169 22.5274 20.4484" stroke="#221E54" stroke-width="0.8" stroke-miterlimit="10" stroke-linecap="round"/>
<path d="M23.4912 17.9067C23.4912 17.9067 24.2719 18.0729 24.5793 19.2855" stroke="#221E54" stroke-width="0.8" stroke-miterlimit="10" stroke-linecap="round"/>
<path d="M16.6585 10.0744L22.3248 7.82227C25.0148 6.76374 27.9707 8.12883 29.0221 10.7759C30.0807 13.4659 28.7155 16.4217 26.0684 17.4731L20.4021 19.7253C17.712 20.7838 14.7562 19.4187 13.7047 16.7717C12.6174 14.1745 13.9684 11.133 16.6585 10.0744Z" fill="#FFD400"/>
<path d="M19.7643 11.5476L19.9506 11.3408C20.5461 10.4059 20.2989 9.16879 19.364 8.57331L16.695 6.80865C15.7601 6.21317 14.523 6.46037 13.9275 7.39525L13.7482 7.64499C13.1527 8.57987 13.3999 9.81697 14.3348 10.4125L17.0038 12.1771C17.9387 12.7726 19.1688 12.4825 19.7643 11.5476Z" fill="white" stroke="#1F1A54" stroke-width="0.8" stroke-miterlimit="10" stroke-linecap="round"/>
<path d="M19.8347 11.9762L20.0921 11.9339C21.1436 11.6291 21.8466 10.5444 21.5348 9.45006L20.7631 6.36051C20.4583 5.30911 19.3735 4.60606 18.2792 4.91793L18.0218 4.9602C16.9704 5.26502 16.2673 6.34975 16.5791 7.44405L17.4366 10.5195C17.6627 11.6279 18.8262 12.274 19.8347 11.9762Z" fill="white" stroke="#1F1A54" stroke-width="0.8" stroke-miterlimit="10" stroke-linecap="round"/>
<path d="M16.6585 10.0744L22.3248 7.82227C25.0148 6.76374 27.9707 8.12883 29.0221 10.7759C30.0807 13.4659 28.7155 16.4217 26.0684 17.4731L20.4021 19.7253C17.712 20.7838 14.7562 19.4187 13.7047 16.7717C12.6174 14.1745 13.9684 11.133 16.6585 10.0744Z" fill="#FFD400"/>
<path d="M16.6585 10.0744L22.3248 7.82227C25.0148 6.76374 27.9707 8.12883 29.0221 10.7759C30.0807 13.4659 28.7155 16.4217 26.0684 17.4731L20.4021 19.7253C17.712 20.7838 14.7562 19.4187 13.7047 16.7717C12.6174 14.1745 13.9684 11.133 16.6585 10.0744Z" fill="#FFD400"/>
<mask id="mask0" mask-type="alpha" maskUnits="userSpaceOnUse" x="13" y="7" width="17" height="14">
<path d="M16.6585 10.0744L22.3248 7.82227C25.0148 6.76374 27.9707 8.12883 29.0221 10.7759C30.0807 13.4659 28.7155 16.4217 26.0684 17.4731L20.4021 19.7253C17.712 20.7838 14.7562 19.4187 13.7047 16.7717C12.6174 14.1745 13.9684 11.133 16.6585 10.0744Z" fill="#FFD400"/>
</mask>
<g mask="url(#mask0)">
<path d="M20.895 7.96817C20.895 7.96817 18.7993 14.5245 24.8089 18.1198L21.2102 19.5478C21.2102 19.5478 15.8012 15.8539 17.3174 9.52489C17.3892 9.42499 20.902 8.01107 20.895 7.96817Z" fill="#1F1A54"/>
<path d="M14.7417 10.7416C14.7417 10.7416 12.6677 17.1622 18.6274 20.7216L15.0287 22.1496C15.0287 22.1496 9.62678 18.4986 11.1641 12.2983C11.1929 12.2055 14.8057 10.8633 14.7417 10.7416Z" fill="#1F1A54"/>
</g>
<path d="M26.5596 12.4131C26.5596 12.4131 26.2004 13.177 25.2859 12.9747" stroke="#1F1A54" stroke-width="0.8" stroke-miterlimit="10" stroke-linecap="round"/>
<path d="M23.2861 12.334C23.4283 12.6631 23.7568 12.7854 24.093 12.6862C24.4221 12.544 24.5444 12.2155 24.4451 11.8794C24.3459 11.5432 23.9745 11.4279 23.6383 11.5272C23.3021 11.6265 23.151 12.0478 23.2861 12.334Z" fill="#1F1A54"/>
<path d="M23.5658 12.1559C23.5869 12.2846 23.7297 12.3493 23.8443 12.2424C23.973 12.2212 24.0377 12.0785 23.9307 11.9638C23.9096 11.8351 23.7668 11.7705 23.6522 11.8774C23.6093 11.8844 23.5446 12.0272 23.5658 12.1559Z" fill="white"/>
<path d="M26.3125 11.1768C26.4546 11.5059 26.7831 11.6282 27.1193 11.529C27.4484 11.3868 27.5707 11.0583 27.4715 10.7221C27.3293 10.393 27.0008 10.2707 26.6647 10.37C26.3714 10.4622 26.1703 10.8477 26.3125 11.1768Z" fill="#1F1A54"/>
<path d="M26.5911 10.9982C26.6123 11.1269 26.7551 11.1916 26.8697 11.0847C26.9984 11.0635 27.0631 10.9207 26.9561 10.8061C26.935 10.6774 26.7922 10.6127 26.6776 10.7197C26.6347 10.7267 26.57 10.8695 26.5911 10.9982Z" fill="white"/>
<path d="M25.0767 7.94384C25.0767 7.94384 24.5752 5.42674 26.5475 5.63159" stroke="#1F1A54" stroke-width="0.8" stroke-miterlimit="10" stroke-linecap="round"/>
<path d="M23.2877 8.58946C23.2877 8.58946 21.6919 6.38422 23.1807 5.52295" stroke="#1F1A54" stroke-width="0.8" stroke-miterlimit="10" stroke-linecap="round"/>
</svg>
