<svg width="102" height="60" viewBox="0 0 102 60" fill="none" xmlns="http://www.w3.org/2000/svg">
<path d="M1 49.167L101 49.167" stroke="#1F1A54" stroke-width="0.8" stroke-linecap="round"/>
<path d="M98.3305 46.7674C98.4158 47.085 98.1765 47.3971 97.8476 47.3971H92.4854C92.1564 47.3971 91.917 47.0849 92.0025 46.7672L94.6859 36.7961C94.8187 36.3026 95.5189 36.3027 95.6516 36.7963L98.3305 46.7674Z" fill="#FFD400"/>
<path d="M95.1691 45.2756V49.1672M94.6859 36.7961L92.0025 46.7672C91.917 47.0849 92.1564 47.3971 92.4854 47.3971H97.8476C98.1765 47.3971 98.4158 47.085 98.3305 46.7674L95.6516 36.7963C95.5189 36.3027 94.8187 36.3026 94.6859 36.7961Z" stroke="#1F1A54" stroke-width="0.8" stroke-linecap="round" stroke-linejoin="round"/>
<path d="M7.24721 46.7185L6.07957 45.623C5.52618 45.1086 5.08691 44.4964 4.78713 43.8218C4.48736 43.1472 4.33301 42.4236 4.33301 41.6927C4.33301 40.9619 4.48736 40.2382 4.78713 39.5637C5.08691 38.8891 5.52618 38.2769 6.07957 37.7625L7.24721 36.667L8.41485 37.7625C8.96965 38.2762 9.41017 38.8881 9.71084 39.5628C10.0115 40.2374 10.1663 40.9615 10.1663 41.6927C10.1663 42.424 10.0115 43.148 9.71084 43.8227C9.41017 44.4974 8.96965 45.1093 8.41485 45.623L7.24721 46.7185Z" fill="#FFD400"/>
<path d="M7.24721 41.5804V49.167M7.24721 48.4878L9.59417 46.2857M7.24721 46.7185L6.07957 45.623C5.52618 45.1086 5.08691 44.4964 4.78713 43.8218C4.48736 43.1472 4.33301 42.4236 4.33301 41.6927C4.33301 40.9619 4.48736 40.2382 4.78713 39.5637C5.08691 38.8891 5.52618 38.2769 6.07957 37.7625L7.24721 36.667L8.41485 37.7625C8.96965 38.2762 9.41017 38.8881 9.71084 39.5628C10.0115 40.2374 10.1663 40.9615 10.1663 41.6927C10.1663 42.424 10.0115 43.148 9.71084 43.8227C9.41017 44.4974 8.96965 45.1093 8.41485 45.623L7.24721 46.7185Z" stroke="#1F1A54" stroke-width="0.8" stroke-linecap="round" stroke-linejoin="round"/>
<path d="M93.8285 16.6653C93.7705 15.9839 93.4472 15.3485 92.9231 14.8856C92.3989 14.4226 91.7123 14.1662 91 14.1672C90.6343 14.1627 90.2713 14.2284 89.9324 14.3605C89.5935 14.4926 89.2856 14.6885 89.0267 14.9365C88.7679 15.1845 88.5633 15.4797 88.425 15.8047C88.2868 16.1297 88.2176 16.4779 88.2217 16.829V17.2285H87.8054C87.3318 17.2441 86.8819 17.4316 86.5468 17.7533C86.2117 18.0749 86.0162 18.5067 86 18.9613V20.8337H93.8285C94.4044 20.8337 94.9567 20.6141 95.364 20.2232C95.7712 19.8324 96 19.3022 96 18.7495C96 18.1967 95.7712 17.6666 95.364 17.2758C94.9567 16.8849 94.4044 16.6653 93.8285 16.6653Z" stroke="#1F1A54" stroke-width="0.8" stroke-linecap="round" stroke-linejoin="round"/>
<path d="M63.4997 57.9165C76.8466 57.9165 87.6663 56.7972 87.6663 55.4165C87.6663 54.0358 76.8466 52.9165 63.4997 52.9165C50.1528 52.9165 39.333 54.0358 39.333 55.4165C39.333 56.7972 50.1528 57.9165 63.4997 57.9165Z" fill="#9DAFED"/>
<path d="M78.3317 9.27776V7.59473H47.3359V9.34788C47.3359 16.2203 51.3331 22.3914 57.4341 26.3184C60.169 28.0716 60.169 31.9987 57.4341 33.7518C51.263 37.6789 47.3359 43.7799 47.3359 50.6522V52.4054H78.3317V50.6522C78.3317 43.7799 74.3345 37.6088 68.2336 33.6817C65.4986 31.9285 65.4986 28.0015 68.2336 26.2483C74.4047 22.3212 78.3317 16.2203 78.3317 9.27776Z" fill="white" stroke="#1F1A54" stroke-width="0.8" stroke-linecap="round" stroke-linejoin="round"/>
<path d="M63.7458 37.3281C63.7458 39.4319 65.499 41.3954 67.2521 42.5174C70.6883 44.6913 73.283 47.5665 74.8258 50.7222V51.5637H50.7725V50.7222C52.3152 47.5665 54.9099 44.7614 58.3461 42.5174C60.0992 41.3954 61.8524 39.4319 61.8524 37.3281V29.5441C61.8524 27.4403 60.0992 25.4767 58.3461 24.3547C54.9099 22.1808 52.3152 19.3758 50.7725 16.2201L53.858 16.9915C56.1021 17.5525 58.5565 17.272 60.5901 16.2201L61.7823 15.5889C65.0782 13.9059 68.9352 13.7657 72.3012 15.1682L74.8258 16.2201C73.283 19.3758 70.6883 22.1808 67.2521 24.4248C65.499 25.5469 63.7458 27.5104 63.7458 29.6142V37.3281Z" fill="#FFD400" stroke="#1F1A54" stroke-width="0.8" stroke-miterlimit="10" stroke-linecap="round" stroke-linejoin="round"/>
<path d="M80.0851 54.9999H45.583V52.5455C45.583 51.5637 46.4245 50.7222 47.4063 50.7222H78.332C79.3137 50.7222 80.0851 51.4936 80.0851 52.4753V54.9999Z" fill="#1F1A54" stroke="#1F1A54" stroke-width="0.8" stroke-linecap="round" stroke-linejoin="round"/>
<path d="M80.0851 5H45.583V7.45442C45.583 8.43619 46.4245 9.2777 47.4063 9.2777H78.332C79.3137 9.2777 80.0851 8.50631 80.0851 7.52454V5Z" fill="#1F1A54" stroke="#1F1A54" stroke-width="0.8" stroke-linecap="round" stroke-linejoin="round"/>
<path d="M18.5195 21.6665C7.25006 28.7498 19.2618 42.6587 35.8857 37.2481C56.6655 30.4848 75.474 23.2024 85.4759 32.3187C90.8842 37.2481 85.4759 44.9998 77.9875 44.9998" stroke="#1F1A54" stroke-width="0.8" stroke-linecap="round" stroke-dasharray="4 4"/>
<path d="M21.5183 13.9623L29.4729 12.2205C33.2471 11.4076 36.847 13.8462 37.6599 17.5622C38.4728 21.3362 36.0341 24.9361 32.3181 25.7489L24.3634 27.4908C20.5892 28.3037 16.9893 25.8651 16.1764 22.1491C15.3055 18.4912 17.7441 14.7752 21.5183 13.9623Z" fill="#FFD400"/>
<path d="M25.2927 16.5754L25.583 16.3431C26.5701 15.2399 26.5121 13.5561 25.4089 12.5691L22.2734 9.66596C21.1702 8.67891 19.4864 8.73697 18.4993 9.84015L18.209 10.1305C17.2219 11.2336 17.28 12.9174 18.3832 13.9045L21.5186 16.8076C22.6218 17.7947 24.3057 17.6785 25.2927 16.5754Z" fill="white" stroke="#1F1A54" stroke-width="0.8" stroke-miterlimit="10" stroke-linecap="round"/>
<path d="M25.2923 17.1557H25.6407C27.0923 16.9815 28.2535 15.7041 28.0793 14.1945L27.731 9.95595C27.5568 8.5044 26.2794 7.34316 24.7697 7.51734H24.4213C22.9698 7.69153 21.8085 8.96889 21.9827 10.4785L22.4472 14.717C22.5052 16.2267 23.8988 17.3298 25.2923 17.1557Z" fill="white" stroke="#1F1A54" stroke-width="0.8" stroke-miterlimit="10" stroke-linecap="round"/>
<path d="M21.5183 13.9623L29.4729 12.2205C33.2471 11.4076 36.847 13.8462 37.6599 17.5622C38.4728 21.3362 36.0341 24.9361 32.3181 25.7489L24.3634 27.4908C20.5892 28.3037 16.9893 25.8651 16.1764 22.1491C15.3055 18.4912 17.7441 14.7752 21.5183 13.9623Z" fill="#FFD400"/>
<path d="M21.5183 13.9623L29.4729 12.2205C33.2471 11.4076 36.847 13.8462 37.6599 17.5622C38.4728 21.3362 36.0341 24.9361 32.3181 25.7489L24.3634 27.4908C20.5892 28.3037 16.9893 25.8651 16.1764 22.1491C15.3055 18.4912 17.7441 14.7752 21.5183 13.9623Z" fill="#FFD400"/>
<mask id="mask0" mask-type="alpha" maskUnits="userSpaceOnUse" x="16" y="12" width="22" height="16">
<path d="M21.5183 13.9623L29.4729 12.2205C33.2471 11.4076 36.847 13.8462 37.6599 17.5622C38.4728 21.3362 36.0341 24.9361 32.3181 25.7489L24.3634 27.4908C20.5892 28.3037 16.9893 25.8651 16.1764 22.1491C15.3055 18.4912 17.7441 14.7752 21.5183 13.9623Z" fill="#FFD400"/>
</mask>
<g mask="url(#mask0)">
<path d="M27.5573 12.103C27.5573 12.103 23.3767 20.2898 30.5186 26.3282L25.467 27.4314C25.467 27.4314 19.1381 21.393 22.5058 13.3804C22.6219 13.2643 27.5573 12.1611 27.5573 12.103Z" fill="#1F1A54"/>
<path d="M18.8474 14.4258C18.8474 14.4258 14.7249 22.4384 21.8086 28.4188L16.7571 29.5219C16.7571 29.5219 10.4282 23.5415 13.7958 15.7031C13.8539 15.587 18.9054 14.6 18.8474 14.4258Z" fill="#1F1A54"/>
</g>
<path d="M34.0605 19.187C34.0605 19.187 33.4218 20.116 32.2606 19.6515" stroke="#1F1A54" stroke-width="0.8" stroke-miterlimit="10" stroke-linecap="round"/>
<path d="M29.7639 18.3747C29.88 18.8392 30.2865 19.0715 30.751 19.0134C31.2155 18.8973 31.4477 18.4909 31.3897 18.0264C31.3316 17.5619 30.8671 17.3296 30.4026 17.3877C29.9381 17.4457 29.6478 17.9683 29.7639 18.3747Z" fill="#1F1A54"/>
<path d="M30.1699 18.1993C30.1699 18.3735 30.3441 18.4896 30.5183 18.3735C30.6925 18.3735 30.8086 18.1993 30.6925 18.0251C30.6925 17.8509 30.5183 17.7348 30.3441 17.8509C30.2861 17.8509 30.1699 18.0251 30.1699 18.1993Z" fill="white"/>
<path d="M34.0022 17.5036C34.1183 17.9681 34.5247 18.2004 34.9893 18.1423C35.4538 18.0262 35.686 17.6198 35.628 17.1553C35.5118 16.6908 35.1054 16.4585 34.6409 16.5166C34.2344 16.5746 33.886 17.0391 34.0022 17.5036Z" fill="#1F1A54"/>
<path d="M34.4082 17.3287C34.4082 17.5029 34.5824 17.619 34.7566 17.5029C34.9308 17.5029 35.0469 17.3287 34.9308 17.1545C34.9308 16.9803 34.7566 16.8642 34.5824 16.9803C34.5244 16.9803 34.4082 17.1545 34.4082 17.3287Z" fill="white"/>
<path d="M33.0731 12.9748C33.0731 12.9748 32.9569 9.5491 35.5117 10.2458" stroke="#1F1A54" stroke-width="0.8" stroke-miterlimit="10" stroke-linecap="round"/>
<path d="M30.5761 13.4398C30.5761 13.4398 28.9503 10.1884 31.0986 9.37549" stroke="#1F1A54" stroke-width="0.8" stroke-miterlimit="10" stroke-linecap="round"/>
</svg>
