<svg width="100" height="59" viewBox="0 0 100 59" fill="none" xmlns="http://www.w3.org/2000/svg">
<path d="M0 54.4707H100" stroke="#221E54" stroke-width="0.8"/>
<path d="M90.8332 51.9621C90.8498 52.0236 90.852 52.0882 90.8397 52.1508C90.8274 52.2133 90.801 52.2722 90.7623 52.3229C90.7237 52.3737 90.6739 52.4148 90.6169 52.4433C90.5598 52.4717 90.497 52.4867 90.4332 52.4871H84.8499C84.7861 52.4867 84.7233 52.4717 84.6662 52.4433C84.6092 52.4148 84.5594 52.3737 84.5208 52.3229C84.4821 52.2722 84.4557 52.2133 84.4434 52.1508C84.4311 52.0882 84.4333 52.0236 84.4499 51.9621L87.2415 41.5871C87.2415 41.4766 87.2854 41.3706 87.3636 41.2924C87.4417 41.2143 87.5477 41.1704 87.6582 41.1704C87.7687 41.1704 87.8747 41.2143 87.9528 41.2924C88.031 41.3706 88.0749 41.4766 88.0749 41.5871L90.8332 51.9621Z" fill="#FED401"/>
<path d="M87.6337 50.3707V54.2623V50.3707ZM87.2337 41.5873L84.4421 51.9623C84.4255 52.0239 84.4233 52.0885 84.4356 52.151C84.4478 52.2136 84.4743 52.2725 84.513 52.3232C84.5516 52.3739 84.6014 52.4151 84.6584 52.4435C84.7155 52.472 84.7783 52.487 84.8421 52.4873H90.4254C90.4892 52.487 90.552 52.472 90.609 52.4435C90.6661 52.4151 90.7159 52.3739 90.7545 52.3232C90.7931 52.2725 90.8196 52.2136 90.8319 52.151C90.8442 52.0885 90.842 52.0239 90.8254 51.9623L88.0421 41.5873C88.0195 41.4973 87.9674 41.4173 87.8942 41.3601C87.821 41.303 87.7308 41.272 87.6379 41.272C87.545 41.272 87.4548 41.303 87.3816 41.3601C87.3083 41.4173 87.2563 41.4973 87.2337 41.5873V41.5873Z" stroke="#221E54" stroke-width="0.8" stroke-linecap="round" stroke-linejoin="round"/>
<path d="M12.083 50.554L10.2413 48.804C9.38042 47.9879 8.69185 47.0075 8.21633 45.9207C7.74394 44.8465 7.5 43.6858 7.5 42.5124C7.5 41.3389 7.74394 40.1782 8.21633 39.104C8.69185 38.0173 9.38042 37.0368 10.2413 36.2207L12.083 34.4707L13.9163 36.2207C14.7772 37.0387 15.4682 38.0185 15.9497 39.104C16.4221 40.1782 16.666 41.3389 16.666 42.5124C16.666 43.6858 16.4221 44.8465 15.9497 45.9207C15.4703 47.0074 14.779 47.9877 13.9163 48.804L12.083 50.554Z" fill="#FED401"/>
<path d="M12.083 42.3292V54.4708V42.3292ZM12.083 53.3875L15.7663 49.8292L12.083 53.3875ZM12.083 50.5208L10.2413 48.7708C9.38042 47.9547 8.69185 46.9743 8.21633 45.8875C7.74394 44.8133 7.5 43.6526 7.5 42.4792C7.5 41.3057 7.74394 40.145 8.21633 39.0708C8.69185 37.984 9.38042 37.0036 10.2413 36.1875L12.083 34.4375L13.9163 36.1875C14.7772 37.0055 15.4682 37.9853 15.9497 39.0708C16.4221 40.145 16.666 41.3057 16.666 42.4792C16.666 43.6526 16.4221 44.8133 15.9497 45.8875C15.4703 46.9742 14.779 47.9545 13.9163 48.7708L12.083 50.5208Z" stroke="#221E54" stroke-width="0.8" stroke-linecap="round" stroke-linejoin="round"/>
<path d="M33.3942 29.6601C33.3246 28.8424 32.9367 28.0799 32.3077 27.5244C31.6787 26.9689 30.8548 26.6611 30 26.6624C29.5611 26.657 29.1255 26.7358 28.7189 26.8944C28.3122 27.0529 27.9427 27.2879 27.6321 27.5855C27.3214 27.8831 27.0759 28.2373 26.91 28.6273C26.7441 29.0173 26.6611 29.4353 26.666 29.8565V30.3359H26.1665C25.5981 30.3546 25.0583 30.5797 24.6561 30.9657C24.254 31.3516 24.0195 31.8697 24 32.4153V34.6621H33.3942C34.0853 34.6621 34.7481 34.3986 35.2368 33.9296C35.7255 33.4606 36 32.8244 36 32.1611C36 31.4978 35.7255 30.8617 35.2368 30.3926C34.7481 29.9236 34.0853 29.6601 33.3942 29.6601Z" stroke="#1F1A54" stroke-width="0.8" stroke-linecap="round" stroke-linejoin="round"/>
<path d="M39.8751 14.229C39.8751 14.229 38.3585 21.8457 40.6335 25.8957" stroke="#221E54" stroke-width="0.8" stroke-linecap="round" stroke-linejoin="round"/>
<path d="M87.6337 20.9873C87.6337 20.9873 82.8504 30.804 77.4004 32.329" stroke="#221E54" stroke-width="0.8" stroke-linecap="round" stroke-linejoin="round"/>
<path d="M39.6246 27.6371C39.6982 27.2053 39.9388 26.8199 40.2943 26.5642C40.6499 26.3084 41.0918 26.2029 41.5246 26.2704L76.7329 32.0371C77.1663 32.1106 77.5532 32.3524 77.8091 32.7099C78.0651 33.0673 78.1695 33.5114 78.0996 33.9454L74.3412 56.8621C74.2696 57.2954 74.0298 57.6829 73.674 57.9403C73.3182 58.1978 72.8752 58.3045 72.4412 58.2371L37.2329 52.4704C37.0153 52.4379 36.8063 52.3626 36.6179 52.2489C36.4295 52.1352 36.2655 51.9853 36.1353 51.8079C36.0052 51.6305 35.9115 51.4291 35.8595 51.2153C35.8076 51.0014 35.7986 50.7794 35.8329 50.5621L39.6246 27.6371Z" fill="white" stroke="#221E54" stroke-width="0.8" stroke-linecap="round" stroke-linejoin="round"/>
<path d="M54.6582 38.5125L56.2665 28.6875L62.8165 29.7542L61.1999 39.5792L58.2249 37.2625L54.6582 38.5125Z" fill="#FED401" stroke="#221E54" stroke-width="0.8" stroke-linecap="round" stroke-linejoin="round"/>
<path d="M40.6338 47.1371L54.5505 49.4204M41.3005 43.0454L50.0005 44.4704L41.3005 43.0454Z" stroke="#221E54" stroke-width="0.8" stroke-linecap="round"/>
<path d="M84.3418 11.8872L89.9251 10.9705C91.175 10.7782 92.45 11.0903 93.4697 11.8381C94.4894 12.5859 95.1703 13.7082 95.3626 14.958C95.5549 16.2078 95.2428 17.4829 94.495 18.5026C93.7472 19.5223 92.625 20.2032 91.3751 20.3955L85.7918 21.3122C84.542 21.5045 83.2669 21.1924 82.2472 20.4446C81.2275 19.6968 80.5466 18.5745 80.3543 17.3247C80.162 16.0748 80.4741 14.7998 81.2219 13.7801C81.9697 12.7604 83.092 12.0795 84.3418 11.8872Z" fill="#FED401"/>
<path d="M86.8581 13.779L87.0747 13.629C87.2471 13.4592 87.3839 13.2568 87.4773 13.0336C87.5707 12.8105 87.6189 12.5709 87.6189 12.329C87.6189 12.0871 87.5707 11.8475 87.4773 11.6244C87.3839 11.4012 87.2471 11.1988 87.0747 11.029L84.9997 8.92899C84.6503 8.58345 84.1787 8.38965 83.6872 8.38965C83.1958 8.38965 82.7242 8.58345 82.3747 8.92899L82.158 9.12066C81.9847 9.28988 81.8469 9.49207 81.7529 9.71533C81.6588 9.93858 81.6104 10.1784 81.6104 10.4207C81.6104 10.6629 81.6588 10.9027 81.7529 11.126C81.8469 11.3492 81.9847 11.5514 82.158 11.7207L84.2247 13.8207C84.58 14.1633 85.0565 14.3512 85.55 14.3434C86.0435 14.3356 86.5138 14.1327 86.8581 13.779Z" fill="white" stroke="#221E54" stroke-width="0.8" stroke-miterlimit="10" stroke-linecap="round"/>
<path d="M86.8254 14.1954H87.0671C87.5659 14.1716 88.0355 13.9532 88.3751 13.5871C88.7148 13.2209 88.8974 12.7363 88.8837 12.2371L88.8171 9.29538C88.8043 9.04904 88.743 8.80764 88.6368 8.58501C88.5305 8.36239 88.3814 8.16291 88.1979 7.99802C88.0144 7.83313 87.8002 7.70607 87.5676 7.62411C87.3349 7.54214 87.0884 7.5069 86.8421 7.52038H86.6004C86.1023 7.54627 85.6339 7.7653 85.2947 8.13096C84.9555 8.49661 84.7722 8.98009 84.7837 9.47872L84.9337 12.4204C84.9332 12.6636 84.9827 12.9044 85.0791 13.1277C85.1755 13.351 85.3168 13.5522 85.4941 13.7186C85.6715 13.8851 85.8812 14.0133 86.1102 14.0953C86.3392 14.1773 86.5827 14.2114 86.8254 14.1954Z" fill="white" stroke="#221E54" stroke-width="0.8" stroke-miterlimit="10" stroke-linecap="round"/>
<path d="M84.3413 11.9124L89.9413 10.9874C90.56 10.884 91.1929 10.9041 91.8038 11.0465C92.4146 11.189 92.9911 11.451 93.5001 11.8175C94.0092 12.1839 94.4406 12.6476 94.7695 13.1816C95.0983 13.7157 95.3182 14.3096 95.4163 14.9291C95.5978 16.186 95.2747 17.4637 94.5175 18.4832C93.7602 19.5028 92.6304 20.1813 91.3747 20.3708L85.783 21.2958C85.1558 21.4161 84.5108 21.4088 83.8865 21.2742C83.2622 21.1396 82.6715 20.8805 82.1496 20.5123C81.6278 20.1442 81.1855 19.6746 80.8493 19.1316C80.513 18.5887 80.2898 17.9835 80.1928 17.3522C80.0958 16.721 80.1271 16.0767 80.2848 15.4578C80.4425 14.839 80.7234 14.2583 81.1107 13.7505C81.498 13.2426 81.9837 12.8181 82.5388 12.5023C83.0939 12.1865 83.7069 11.9859 84.3413 11.9124Z" fill="#FED401"/>
<mask id="mask0" mask-type="alpha" maskUnits="userSpaceOnUse" x="80" y="10" width="16" height="12">
<path d="M84.3418 11.8877L89.9251 10.971C91.175 10.7787 92.45 11.0908 93.4697 11.8386C94.4894 12.5864 95.1703 13.7087 95.3626 14.9585C95.5549 16.2083 95.2428 17.4834 94.495 18.5031C93.7472 19.5228 92.6249 20.2037 91.3751 20.396L85.7918 21.3127C84.542 21.5049 83.2669 21.1929 82.2472 20.4451C81.2275 19.6973 80.5466 18.575 80.3543 17.3252C80.162 16.0753 80.4741 14.8003 81.2219 13.7806C81.9697 12.7608 83.092 12.0799 84.3418 11.8877Z" fill="#FED401"/>
</mask>
<g mask="url(#mask0)">
<path d="M88.6416 10.8291C88.6416 10.8291 85.3666 16.3291 90.1249 20.6874L86.5332 21.2958C86.5332 21.2958 82.3666 16.9624 85.0416 11.5541C85.1332 11.4958 88.6416 10.8708 88.6416 10.8291Z" fill="#221E54"/>
<path d="M82.5001 12.1123C82.5001 12.1123 79.2751 17.4956 83.9918 21.8123L80.4001 22.4206C80.4001 22.4206 76.2335 18.1206 78.9001 12.8373C78.9751 12.7623 82.5585 12.2373 82.5001 12.1123Z" fill="#221E54"/>
</g>
<path d="M92.8331 15.9458C92.6802 16.1228 92.4729 16.2441 92.2438 16.2908C92.0146 16.3376 91.7764 16.3071 91.5664 16.2041" stroke="#221E54" stroke-width="0.8" stroke-miterlimit="10" stroke-linecap="round"/>
<path d="M89.883 15.2289C89.9084 15.3802 89.9929 15.5153 90.1179 15.6044C90.243 15.6935 90.3983 15.7293 90.5497 15.7039C90.7011 15.6784 90.8361 15.5939 90.9252 15.4689C91.0143 15.3439 91.0501 15.1886 91.0247 15.0372C91.0121 14.9622 90.9848 14.8905 90.9445 14.826C90.9042 14.7616 90.8516 14.7057 90.7897 14.6616C90.7278 14.6175 90.6578 14.586 90.5837 14.569C90.5097 14.5519 90.433 14.5496 90.358 14.5622C90.283 14.5748 90.2113 14.602 90.1468 14.6423C90.0824 14.6826 90.0265 14.7352 89.9824 14.7971C89.9383 14.8591 89.9068 14.929 89.8898 15.0031C89.8727 15.0772 89.8704 15.1539 89.883 15.2289Z" fill="#221E54"/>
<path d="M90.175 15.1205C90.1713 15.149 90.1764 15.1779 90.1896 15.2034C90.2027 15.2289 90.2233 15.2498 90.2486 15.2634C90.2739 15.2769 90.3027 15.2825 90.3312 15.2793C90.3597 15.2761 90.3866 15.2643 90.4083 15.2455C90.4362 15.2471 90.464 15.241 90.4885 15.2277C90.5131 15.2143 90.5335 15.1944 90.5473 15.1702C90.5612 15.1459 90.568 15.1183 90.567 15.0904C90.566 15.0625 90.5572 15.0354 90.5416 15.0122C90.5453 14.9837 90.5402 14.9548 90.527 14.9293C90.5139 14.9038 90.4933 14.8829 90.468 14.8693C90.4427 14.8558 90.4139 14.8502 90.3854 14.8534C90.3569 14.8566 90.33 14.8684 90.3083 14.8872C90.2666 14.8788 90.175 14.9955 90.175 15.1205Z" fill="white"/>
<path d="M92.8501 14.7792C92.8767 14.9283 92.9602 15.0613 93.0831 15.15C93.206 15.2386 93.3585 15.276 93.5084 15.2542C93.6582 15.2276 93.7919 15.1444 93.8819 15.0218C93.9719 14.8992 94.0112 14.7467 93.9918 14.5958C93.9652 14.4467 93.8817 14.3137 93.7588 14.225C93.6359 14.1364 93.4834 14.099 93.3334 14.1208C93.2578 14.1309 93.1851 14.1562 93.1195 14.1951C93.0539 14.234 92.9968 14.2857 92.9517 14.3472C92.9066 14.4086 92.8743 14.4786 92.8568 14.5528C92.8394 14.627 92.8371 14.704 92.8501 14.7792Z" fill="#221E54"/>
<path d="M93.1414 14.6707C93.1356 14.6999 93.1391 14.7301 93.1514 14.7572C93.1637 14.7842 93.1842 14.8067 93.2101 14.8214C93.2359 14.8362 93.2656 14.8424 93.2952 14.8393C93.3248 14.8362 93.3526 14.8239 93.3747 14.8041C93.4026 14.8057 93.4304 14.7995 93.455 14.7862C93.4795 14.7729 93.4999 14.753 93.5138 14.7287C93.5276 14.7045 93.5344 14.6768 93.5334 14.6489C93.5324 14.621 93.5236 14.5939 93.5081 14.5707C93.5139 14.5416 93.5104 14.5114 93.4981 14.4843C93.4857 14.4573 93.4652 14.4348 93.4394 14.42C93.4136 14.4053 93.3838 14.399 93.3543 14.4021C93.3247 14.4053 93.2969 14.4176 93.2747 14.4374C93.2331 14.4374 93.1414 14.5541 93.1414 14.6707Z" fill="white"/>
<path d="M92.3662 11.6041C92.3662 11.6041 92.4245 9.24577 94.1662 9.8291" stroke="#221E54" stroke-width="0.8" stroke-miterlimit="10" stroke-linecap="round"/>
<path d="M90.6247 11.8287C90.6247 11.8287 89.6163 9.52874 91.158 9.04541" stroke="#221E54" stroke-width="0.8" stroke-miterlimit="10" stroke-linecap="round"/>
<path d="M35.3086 5.54573L40.8336 4.19573C41.4532 4.02514 42.1008 3.98137 42.7377 4.06703C43.3746 4.1527 43.9877 4.36604 44.5401 4.69428C45.0926 5.02252 45.5732 5.4589 45.953 5.97729C46.3328 6.49567 46.604 7.08538 46.7505 7.7111C46.897 8.33681 46.9156 8.98566 46.8054 9.61876C46.6951 10.2519 46.4582 10.8562 46.1088 11.3955C45.7594 11.9349 45.3047 12.3982 44.772 12.7576C44.2393 13.1171 43.6395 13.3653 43.0086 13.4874L37.5003 14.8291C36.8902 14.9713 36.258 14.992 35.6399 14.89C35.0218 14.788 34.4299 14.5652 33.8979 14.2344C33.3659 13.9036 32.9042 13.4712 32.5393 12.962C32.1744 12.4528 31.9134 11.8767 31.7711 11.2666C31.6289 10.6565 31.6082 10.0243 31.7102 9.40622C31.8122 8.78812 32.035 8.19617 32.3658 7.66416C32.6966 7.13216 33.129 6.67053 33.6382 6.30562C34.1474 5.9407 34.7235 5.67966 35.3336 5.5374L35.3086 5.54573Z" fill="#FED401"/>
<path d="M37.958 7.24577L38.158 7.0791C38.3199 6.89848 38.4442 6.68739 38.5236 6.45817C38.603 6.22895 38.6359 5.9862 38.6204 5.74412C38.6049 5.50203 38.5412 5.26547 38.4332 5.04827C38.3252 4.83106 38.175 4.63757 37.9913 4.4791L35.7663 2.54577C35.3913 2.22657 34.9057 2.06775 34.4146 2.10361C33.9234 2.13948 33.466 2.36715 33.1413 2.73743L32.9413 2.94577C32.7801 3.12622 32.6566 3.33706 32.578 3.56591C32.4994 3.79475 32.4673 4.03699 32.4836 4.27841C32.4999 4.51983 32.5643 4.75556 32.6729 4.97177C32.7816 5.18797 32.9323 5.38029 33.1163 5.53743L35.333 7.4791C35.7141 7.79126 36.2024 7.94166 36.6931 7.89804C37.1838 7.85442 37.6379 7.62026 37.958 7.24577Z" fill="white" stroke="#221E54" stroke-width="0.8" stroke-miterlimit="10" stroke-linecap="round"/>
<path d="M37.958 7.66227H38.1996C38.6961 7.60161 39.149 7.34844 39.4607 6.95724C39.7724 6.56605 39.918 6.06811 39.8663 5.5706L39.5746 2.6456C39.5141 2.15471 39.2621 1.70761 38.8734 1.40169C38.4848 1.09576 37.991 0.955795 37.4996 1.01227H37.258C36.7615 1.07293 36.3086 1.3261 35.9969 1.71729C35.6852 2.10849 35.5396 2.60643 35.5913 3.10394L35.9746 6.0206C35.991 6.26091 36.0561 6.49537 36.166 6.70971C36.2758 6.92406 36.4282 7.1138 36.6137 7.26738C36.7993 7.42096 37.0141 7.53517 37.2452 7.60306C37.4763 7.67095 37.7188 7.6911 37.958 7.66227Z" fill="white" stroke="#221E54" stroke-width="0.8" stroke-miterlimit="10" stroke-linecap="round"/>
<path d="M35.3083 5.5708L40.8333 4.21246C41.4424 4.06123 42.0755 4.03243 42.6959 4.12775C43.3163 4.22306 43.9115 4.44059 44.4472 4.76772C44.9828 5.09485 45.4482 5.52506 45.8163 6.03342C46.1844 6.54177 46.448 7.11815 46.5916 7.72913C46.873 8.96788 46.651 10.2677 45.9743 11.3428C45.2977 12.4179 44.2219 13.1803 42.9833 13.4625L37.4999 14.8291C36.886 14.9893 36.2462 15.0249 35.6182 14.9337C34.9903 14.8425 34.387 14.6265 33.844 14.2983C33.3009 13.9701 32.8291 13.5365 32.4565 13.0229C32.0838 12.5094 31.8178 11.9264 31.6741 11.3084C31.5305 10.6903 31.5121 10.0498 31.6201 9.42455C31.7281 8.79929 31.9602 8.20202 32.3029 7.66798C32.6455 7.13393 33.0917 6.67395 33.615 6.31519C34.1384 5.95642 34.7283 5.70614 35.3499 5.57913L35.3083 5.5708Z" fill="#FED401"/>
<mask id="mask1" mask-type="alpha" maskUnits="userSpaceOnUse" x="31" y="4" width="16" height="11">
<path d="M35.3086 5.54524L40.8336 4.19524C41.4532 4.02465 42.1008 3.98088 42.7377 4.06654C43.3746 4.15221 43.9877 4.36555 44.5401 4.69379C45.0926 5.02203 45.5732 5.45842 45.953 5.9768C46.3328 6.49518 46.604 7.08489 46.7505 7.71061C46.897 8.33633 46.9156 8.98517 46.8054 9.61827C46.6951 10.2514 46.4582 10.8557 46.1088 11.395C45.7594 11.9344 45.3047 12.3977 44.772 12.7571C44.2393 13.1166 43.6395 13.3648 43.0086 13.4869L37.5003 14.8286C36.8902 14.9708 36.258 14.9915 35.6399 14.8895C35.0218 14.7875 34.4299 14.5647 33.8979 14.2339C33.3659 13.9031 32.9042 13.4707 32.5393 12.9615C32.1744 12.4523 31.9134 11.8762 31.7711 11.2661C31.6289 10.656 31.6082 10.0238 31.7102 9.40573C31.8122 8.78763 32.035 8.19568 32.3658 7.66368C32.6966 7.13167 33.129 6.67004 33.6382 6.30513C34.1474 5.94022 34.7235 5.67918 35.3336 5.53691L35.3086 5.54524Z" fill="#FED401"/>
</mask>
<g mask="url(#mask1)">
<path d="M39.5087 4.16211C39.5087 4.16211 36.667 9.89544 41.742 13.8788L38.2087 14.7621C38.2087 14.7621 33.7003 10.7621 35.9753 5.16211C36.0587 5.07878 39.5087 4.19544 39.5087 4.16211Z" fill="#221E54"/>
<path d="M33.5087 5.91211C33.5087 5.91211 30.7087 11.4954 35.742 15.4704L32.2087 16.3538C32.2087 16.3538 27.7004 12.3871 30.0004 6.91211C30.0004 6.82878 33.5587 6.02878 33.5087 5.91211Z" fill="#221E54"/>
</g>
<path d="M44.083 8.93701C43.9442 9.12732 43.7459 9.26589 43.5195 9.3308C43.2931 9.3957 43.0515 9.38322 42.833 9.29534" stroke="#221E54" stroke-width="0.8" stroke-miterlimit="10" stroke-linecap="round"/>
<path d="M41.0835 8.44579C41.1211 8.59497 41.2164 8.72312 41.3484 8.80204C41.4805 8.88096 41.6385 8.90419 41.7877 8.86662C41.9369 8.82905 42.065 8.73375 42.1439 8.60169C42.2229 8.46964 42.2461 8.31164 42.2085 8.16245C42.193 8.08805 42.1624 8.01761 42.1187 7.95544C42.075 7.89327 42.019 7.84068 41.9543 7.80089C41.8895 7.7611 41.8173 7.73495 41.7421 7.72404C41.6669 7.71313 41.5902 7.7177 41.5169 7.73745C41.4405 7.7529 41.3681 7.78393 41.3042 7.82862C41.2404 7.87331 41.1865 7.93068 41.1458 7.99716C41.1051 8.06364 41.0786 8.13779 41.0679 8.21498C41.0572 8.29217 41.0625 8.37075 41.0835 8.44579Z" fill="#221E54"/>
<path d="M41.3668 8.32043C41.3651 8.34911 41.3722 8.37762 41.3871 8.40218C41.402 8.42673 41.4241 8.44618 41.4503 8.45793C41.4765 8.46968 41.5057 8.47319 41.5339 8.46798C41.5622 8.46277 41.5882 8.44909 41.6085 8.42877C41.6438 8.44424 41.6839 8.44503 41.7198 8.43096C41.7558 8.4169 41.7847 8.38913 41.8001 8.35377C41.8156 8.3184 41.8164 8.27834 41.8023 8.2424C41.7883 8.20646 41.7605 8.17757 41.7251 8.1621C41.7268 8.13342 41.7197 8.10491 41.7048 8.08035C41.6899 8.0558 41.6679 8.03635 41.6416 8.0246C41.6154 8.01285 41.5863 8.00935 41.558 8.01455C41.5298 8.01976 41.5038 8.03344 41.4835 8.05377C41.4418 8.07877 41.3585 8.1621 41.3668 8.32043Z" fill="white"/>
<path d="M44.0082 7.77901C44.0475 7.92426 44.1414 8.04871 44.2703 8.12636C44.3992 8.20401 44.5531 8.22884 44.6999 8.19567C44.7785 8.18415 44.8539 8.15644 44.9212 8.11432C44.9886 8.07219 45.0465 8.01655 45.0913 7.95092C45.1361 7.88528 45.1669 7.81108 45.1815 7.73298C45.1962 7.65488 45.1945 7.57458 45.1766 7.49716C45.1587 7.41974 45.125 7.34687 45.0775 7.28315C45.03 7.21943 44.9698 7.16625 44.9007 7.12696C44.8317 7.08767 44.7552 7.06312 44.6761 7.05487C44.5971 7.04661 44.5172 7.05483 44.4415 7.07901C44.3666 7.09564 44.2958 7.1271 44.2333 7.17152C44.1707 7.21595 44.1177 7.27244 44.0773 7.33767C44.0369 7.4029 44.01 7.47556 43.9981 7.55135C43.9863 7.62715 43.9897 7.70455 44.0082 7.77901Z" fill="#221E54"/>
<path d="M44.2914 7.6454C44.3126 7.6864 44.3479 7.71838 44.3908 7.73546C44.4336 7.75254 44.4812 7.75357 44.5248 7.73837C44.5684 7.72317 44.605 7.69275 44.628 7.65271C44.6509 7.61266 44.6587 7.56568 44.6497 7.52039C44.6534 7.491 44.6477 7.46121 44.6335 7.43521C44.6194 7.4092 44.5974 7.38829 44.5707 7.37542C44.5441 7.36254 44.514 7.35835 44.4849 7.36343C44.4557 7.3685 44.4288 7.3826 44.4081 7.40373C44.4081 7.40373 44.2831 7.52873 44.2914 7.6454Z" fill="white"/>
<path d="M43.2831 4.64564C43.2831 4.64564 43.1581 2.28731 44.9498 2.72064" stroke="#221E54" stroke-width="0.8" stroke-miterlimit="10" stroke-linecap="round"/>
<path d="M41.5671 5.01201C41.5671 5.01201 40.3754 2.79535 41.8837 2.18701" stroke="#221E54" stroke-width="0.8" stroke-miterlimit="10" stroke-linecap="round"/>
</svg>
