<svg width="102" height="60" viewBox="0 0 102 60" fill="none" xmlns="http://www.w3.org/2000/svg">
<path d="M1 49.1665L101 49.1665" stroke="#1F1A54" stroke-width="0.8" stroke-linecap="round"/>
<path d="M95.8305 46.7669C95.9158 47.0845 95.6765 47.3966 95.3476 47.3966H89.9854C89.6564 47.3966 89.417 47.0844 89.5025 46.7667L92.1859 36.7956C92.3187 36.3021 93.0189 36.3022 93.1516 36.7958L95.8305 46.7669Z" fill="#FFD400"/>
<path d="M92.6691 45.2751V49.1667M92.1859 36.7956L89.5025 46.7667C89.417 47.0844 89.6564 47.3966 89.9854 47.3966H95.3476C95.6765 47.3966 95.9158 47.0845 95.8305 46.7669L93.1516 36.7958C93.0189 36.3022 92.3187 36.3021 92.1859 36.7956Z" stroke="#1F1A54" stroke-width="0.8" stroke-linecap="round" stroke-linejoin="round"/>
<path d="M17.6682 42.919V46.9941C17.6682 47.5702 17.4343 48.1228 17.0179 48.5302C16.6014 48.9376 16.0366 49.1665 15.4477 49.1665H8.22464C7.93261 49.1671 7.64332 49.1114 7.37333 49.0025C7.10334 48.8937 6.85796 48.7337 6.65123 48.5319C6.4445 48.3302 6.28049 48.0905 6.16858 47.8266C6.05667 47.5627 5.99907 47.2798 5.99907 46.9941V42.919M17.3926 36.6665H6.29481C6.29481 36.6665 5.16699 41.3154 5.16699 41.5606C5.19038 41.9776 5.37616 42.3699 5.68616 42.657C5.99615 42.9441 6.4068 43.1041 6.83366 43.1041C7.26052 43.1041 7.67116 42.9441 7.98116 42.657C8.29115 42.3699 8.47694 41.9776 8.50033 41.5606C8.52371 41.9776 8.7095 42.3699 9.01949 42.657C9.32949 42.9441 9.74013 43.1041 10.167 43.1041C10.5939 43.1041 11.0045 42.9441 11.3145 42.657C11.6245 42.3699 11.8103 41.9776 11.8337 41.5606C11.857 41.9776 12.0428 42.3699 12.3528 42.657C12.6628 42.9441 13.0735 43.1041 13.5003 43.1041C13.9272 43.1041 14.3378 42.9441 14.6478 42.657C14.9578 42.3699 15.1436 41.9776 15.167 41.5606C15.1904 41.9776 15.3762 42.3699 15.6862 42.657C15.9962 42.9441 16.4068 43.1041 16.8337 43.1041C17.2605 43.1041 17.6712 42.9441 17.9812 42.657C18.2912 42.3699 18.4769 41.9776 18.5003 41.5606C18.5003 41.3154 17.3926 36.6665 17.3926 36.6665ZM10.7209 45.9054H12.9414V49.1665H10.7209V45.9054Z" stroke="#1F1A54" stroke-width="0.8" stroke-linecap="round" stroke-linejoin="round"/>
<path d="M17.3926 36.6665H6.29481C6.29481 36.6665 5.16699 41.3154 5.16699 41.5606C5.19038 41.9776 5.37616 42.3699 5.68616 42.657C5.99615 42.9441 6.4068 43.1041 6.83366 43.1041C7.26052 43.1041 7.67116 42.9441 7.98116 42.657C8.29115 42.3699 8.47694 41.9776 8.50033 41.5606C8.52371 41.9776 8.7095 42.3699 9.01949 42.657C9.32949 42.9441 9.74013 43.1041 10.167 43.1041C10.5939 43.1041 11.0045 42.9441 11.3145 42.657C11.6245 42.3699 11.8103 41.9776 11.8337 41.5606C11.857 41.9776 12.0428 42.3699 12.3528 42.657C12.6628 42.9441 13.0735 43.1041 13.5003 43.1041C13.9272 43.1041 14.3378 42.9441 14.6478 42.657C14.9578 42.3699 15.1436 41.9776 15.167 41.5606C15.1904 41.9776 15.3762 42.3699 15.6862 42.657C15.9962 42.9441 16.4068 43.1041 16.8337 43.1041C17.2605 43.1041 17.6712 42.9441 17.9812 42.657C18.2912 42.3699 18.4769 41.9776 18.5003 41.5606C18.5003 41.3154 17.3926 36.6665 17.3926 36.6665Z" fill="#FFD400"/>
<path d="M17.6682 42.919V46.9941M5.99907 46.9941V42.919M17.3926 36.6665H6.29481C6.29481 36.6665 5.16699 41.3154 5.16699 41.5606C5.19038 41.9776 5.37616 42.3699 5.68616 42.657C5.99615 42.9441 6.4068 43.1041 6.83366 43.1041C7.26052 43.1041 7.67116 42.9441 7.98116 42.657C8.29115 42.3699 8.47694 41.9776 8.50033 41.5606C8.52371 41.9776 8.7095 42.3699 9.01949 42.657C9.32949 42.9441 9.74013 43.1041 10.167 43.1041C10.5939 43.1041 11.0045 42.9441 11.3145 42.657C11.6245 42.3699 11.8103 41.9776 11.8337 41.5606C11.857 41.9776 12.0428 42.3699 12.3528 42.657C12.6628 42.9441 13.0735 43.1041 13.5003 43.1041C13.9272 43.1041 14.3378 42.9441 14.6478 42.657C14.9578 42.3699 15.1436 41.9776 15.167 41.5606C15.1904 41.9776 15.3762 42.3699 15.6862 42.657C15.9962 42.9441 16.4068 43.1041 16.8337 43.1041C17.2605 43.1041 17.6712 42.9441 17.9812 42.657C18.2912 42.3699 18.4769 41.9776 18.5003 41.5606C18.5003 41.3154 17.3926 36.6665 17.3926 36.6665Z" stroke="#1F1A54" stroke-width="0.8" stroke-linecap="round" stroke-linejoin="round"/>
<path d="M50.9997 55.8335C64.3466 55.8335 75.1663 54.7142 75.1663 53.3335C75.1663 51.9528 64.3466 50.8335 50.9997 50.8335C37.6528 50.8335 26.833 51.9528 26.833 53.3335C26.833 54.7142 37.6528 55.8335 50.9997 55.8335Z" fill="#9DAFED"/>
<path d="M31 28.667C31 27.5624 31.8954 26.667 33 26.667H68.1667C69.2712 26.667 70.1667 27.5624 70.1667 28.667V51.3337C70.1667 52.4382 69.2712 53.3337 68.1667 53.3337H33C31.8954 53.3337 31 52.4382 31 51.3337V28.667Z" fill="white" stroke="#1F1A54" stroke-width="0.8" stroke-linecap="round" stroke-linejoin="round"/>
<path d="M47.666 36.667V26.667H54.3327V36.667L50.9993 34.8488L47.666 36.667Z" fill="#FFD400" stroke="#1F1A54" stroke-width="0.8" stroke-linecap="round" stroke-linejoin="round"/>
<path d="M35.166 43.3335H44.0202M35.166 47.5002H49.3327" stroke="#1F1A54" stroke-width="0.8" stroke-linecap="round"/>
<path d="M37.667 26.6665C37.667 28.1499 37.2271 29.5999 36.403 30.8333C35.5789 32.0666 34.4076 33.0279 33.0371 33.5956C31.6667 34.1633 30.1587 34.3118 28.7038 34.0224C27.249 33.733 25.9126 33.0187 24.8637 31.9698C23.8148 30.9209 23.1005 29.5845 22.8111 28.1297C22.5217 26.6748 22.6702 25.1668 23.2379 23.7964C23.8056 22.4259 24.7669 21.2546 26.0002 20.4305C27.2336 19.6064 28.6836 19.1665 30.167 19.1665C32.1561 19.1665 34.0638 19.9567 35.4703 21.3632C36.8768 22.7697 37.667 24.6774 37.667 26.6665Z" fill="#FFD400"/>
<path d="M26.492 26.4748L28.8753 29.1665L33.8753 24.2832M37.667 26.6665C37.667 28.1499 37.2271 29.5999 36.403 30.8333C35.5789 32.0666 34.4076 33.0279 33.0371 33.5956C31.6667 34.1633 30.1587 34.3118 28.7038 34.0224C27.249 33.733 25.9126 33.0187 24.8637 31.9698C23.8148 30.9209 23.1005 29.5845 22.8111 28.1297C22.5217 26.6748 22.6702 25.1668 23.2379 23.7964C23.8056 22.4259 24.7669 21.2546 26.0002 20.4305C27.2336 19.6064 28.6836 19.1665 30.167 19.1665C32.1561 19.1665 34.0638 19.9567 35.4703 21.3632C36.8768 22.7697 37.667 24.6774 37.667 26.6665Z" stroke="#1F1A54" stroke-width="0.8" stroke-linecap="round" stroke-linejoin="round"/>
<path d="M62.25 12.4998C72.25 11.2498 83.2134 18.0359 80.1667 24.9998C77.25 31.6664 70.5833 24.1664 76 18.7498C80.5833 14.1664 91.4167 15.8331 97.25 22.0831" stroke="#1F1A54" stroke-width="0.8" stroke-linecap="round" stroke-dasharray="4 4"/>
<path d="M54.8632 8.17329L48.7456 8.26184C45.8455 8.31377 43.6297 10.7143 43.6716 13.5718C43.7234 16.4717 46.124 18.6872 48.9817 18.6452L55.0993 18.5567C57.9994 18.5047 60.2152 16.1042 60.1733 13.2467C60.1839 10.4218 57.7634 8.12136 54.8632 8.17329Z" fill="#FFD400"/>
<path d="M52.5496 10.7301L52.2975 10.6099C51.3864 9.97205 51.1405 8.73041 51.7784 7.8194L53.5748 5.15868C54.2128 4.24766 55.4545 4.00168 56.3656 4.63955L56.6277 4.80218C57.5388 5.44005 57.7847 6.68169 57.1468 7.5927L55.3504 10.2534C54.7124 11.1644 53.4607 11.3679 52.5496 10.7301Z" fill="white" stroke="#1F1A54" stroke-width="0.8" stroke-miterlimit="10" stroke-linecap="round"/>
<path d="M52.6489 11.1554L52.394 11.2151C51.3023 11.3363 50.234 10.6009 50.1028 9.46675L49.6316 6.30661C49.5104 5.21497 50.2459 4.1467 51.3801 4.0155L51.635 3.95582C52.7267 3.83457 53.7951 4.57002 53.9262 5.70413L54.3125 8.88416C54.5286 9.99838 53.6981 11.0441 52.6489 11.1554Z" fill="white" stroke="#1F1A54" stroke-width="0.8" stroke-miterlimit="10" stroke-linecap="round"/>
<path d="M54.8632 8.1728L48.7456 8.26135C45.8455 8.31328 43.6297 10.7138 43.6716 13.5713C43.7234 16.4712 46.124 18.6867 48.9817 18.6447L55.0993 18.5562C57.9994 18.5042 60.2152 16.1037 60.1733 13.2463C60.1839 10.4213 57.7634 8.12087 54.8632 8.1728Z" fill="#FFD400"/>
<path d="M54.8632 8.17329L48.7456 8.26184C45.8455 8.31377 43.6297 10.7143 43.6716 13.5718C43.7234 16.4717 46.124 18.6872 48.9817 18.6452L55.0993 18.5567C57.9994 18.5047 60.2152 16.1042 60.1733 13.2467C60.1839 10.4218 57.7634 8.12136 54.8632 8.17329Z" fill="#FFD400"/>
<mask id="mask0" mask-type="alpha" maskUnits="userSpaceOnUse" x="43" y="8" width="18" height="11">
<path d="M54.8632 8.1728L48.7456 8.26135C45.8455 8.31328 43.6297 10.7138 43.6716 13.5713C43.7234 16.4712 46.124 18.6867 48.9817 18.6447L55.0993 18.5562C57.9994 18.5042 60.2152 16.1037 60.1733 13.2463C60.1839 10.4213 57.7634 8.12087 54.8632 8.1728Z" fill="#FFD400"/>
</mask>
<g mask="url(#mask0)">
<path d="M50.1272 7.84623C50.1272 7.84623 54.5878 13.1186 50.3977 18.7592L54.282 18.7008C54.282 18.7008 57.8775 13.1995 54.0414 7.91525C53.9366 7.8502 50.1372 7.8887 50.1272 7.84623Z" fill="#1F1A54"/>
<path d="M56.8967 8.05375C56.8967 8.05375 61.2851 13.2087 57.1274 18.7968L61.0118 18.7384C61.0118 18.7384 64.6172 13.2796 60.8109 8.12277C60.7486 8.04777 56.8841 8.19111 56.8967 8.05375Z" fill="#1F1A54"/>
</g>
<path d="M46.583 14.1436C46.583 14.1436 47.2094 14.7137 47.9793 14.175" stroke="#1F1A54" stroke-width="0.8" stroke-miterlimit="10" stroke-linecap="round"/>
<path d="M49.587 12.8137C49.5816 13.1733 49.3241 13.4128 48.9743 13.4499C48.6146 13.4446 48.3751 13.1871 48.338 12.8373C48.3009 12.4876 48.601 12.2382 48.9507 12.2011C49.3005 12.1639 49.6024 12.4965 49.587 12.8137Z" fill="#1F1A54"/>
<path d="M49.2596 12.7559C49.2894 12.8834 49.1819 12.9981 49.0345 12.943C48.9071 12.9729 48.7923 12.8654 48.8474 12.7181C48.8176 12.5906 48.9251 12.4759 49.0724 12.531C49.1149 12.521 49.2297 12.6285 49.2596 12.7559Z" fill="white"/>
<path d="M46.337 12.9025C46.3316 13.2622 46.0741 13.5017 45.7243 13.5388C45.3646 13.5334 45.1251 13.2759 45.088 12.9262C45.0934 12.5665 45.351 12.327 45.7007 12.2899C46.008 12.2628 46.3424 12.5429 46.337 12.9025Z" fill="#1F1A54"/>
<path d="M46.0096 12.8443C46.0394 12.9717 45.9319 13.0865 45.7845 13.0314C45.6571 13.0613 45.5423 12.9537 45.5974 12.8064C45.5676 12.679 45.6751 12.5642 45.8224 12.6193C45.8649 12.6094 45.9797 12.7169 46.0096 12.8443Z" fill="white"/>
<path d="M46.2411 9.43148C46.2411 9.43148 45.7392 6.90574 43.9896 7.85307" stroke="#1F1A54" stroke-width="0.8" stroke-miterlimit="10" stroke-linecap="round"/>
<path d="M48.1478 9.34348C48.1478 9.34348 48.7802 6.68654 47.0693 6.45996" stroke="#1F1A54" stroke-width="0.8" stroke-miterlimit="10" stroke-linecap="round"/>
</svg>
