<svg width="100" height="56" viewBox="0 0 100 56" fill="none" xmlns="http://www.w3.org/2000/svg">
<path d="M94.3833 44.5917C94.4333 44.9583 94.2832 45.3167 94.0666 45.3167H89.7083C89.4999 45.3167 89.3416 44.9583 89.3999 44.5917L91.5749 30.1417C91.6582 29.575 92.1166 29.575 92.2083 30.1417L94.3833 44.5917Z" fill="#FED401" stroke="#221E54" stroke-width="0.8" stroke-linecap="round" stroke-linejoin="round"/>
<path d="M92.5996 42.8333C92.6434 42.9335 92.6573 43.0443 92.6396 43.1522C92.6218 43.2602 92.5732 43.3607 92.4996 43.4416L89.6746 45.2916C89.5329 45.3833 89.3829 45.2166 89.3746 44.9583L88.8496 34.6666C88.8496 34.2583 89.1246 34.0583 89.2579 34.4L92.5996 42.8333Z" fill="#FED401" stroke="#221E54" stroke-width="0.8" stroke-linecap="round" stroke-linejoin="round"/>
<path d="M90.8336 42.9747C90.8668 43.0286 90.8843 43.0906 90.8843 43.1539C90.8843 43.2172 90.8668 43.2792 90.8336 43.3331L89.4753 45.2497C89.4086 45.3497 89.3169 45.2997 89.2836 45.1664L87.9586 39.7164C87.9086 39.4997 88.0503 39.2997 88.1586 39.4414L90.8336 42.9747Z" fill="#FED401" stroke="#221E54" stroke-width="0.8" stroke-linecap="round" stroke-linejoin="round"/>
<path d="M91.1913 42.8333C91.1486 42.9343 91.136 43.0455 91.1553 43.1535C91.1745 43.2615 91.2246 43.3616 91.2996 43.4416L94.1163 45.2916C94.258 45.3833 94.408 45.2166 94.4246 44.9583L94.9413 34.6666C94.9413 34.2583 94.6663 34.0583 94.533 34.4L91.1913 42.8333Z" fill="#FED401" stroke="#221E54" stroke-width="0.8" stroke-linecap="round" stroke-linejoin="round"/>
<path d="M92.8418 42.9747C92.8086 43.0286 92.791 43.0906 92.791 43.1539C92.791 43.2172 92.8086 43.2792 92.8418 43.3331L94.1668 45.2497C94.2334 45.3497 94.3251 45.2997 94.3584 45.1664L95.6834 39.7164C95.7334 39.4997 95.5918 39.2997 95.4834 39.4414L92.8418 42.9747Z" fill="#FED401" stroke="#221E54" stroke-width="0.8" stroke-linecap="round" stroke-linejoin="round"/>
<path d="M0 48.358H100" stroke="#221E54" stroke-width="0.8"/>
<path d="M14.5166 43.5663H7.7666L8.7666 51.808H13.6083L14.5166 43.5663Z" fill="#221E54"/>
<path d="M96.9583 43.225H86.7666L89.0666 52.45H94.8333L96.9583 43.225Z" fill="white" stroke="#221E54" stroke-width="0.8" stroke-linecap="round" stroke-linejoin="round"/>
<path d="M94.817 52.5246H89.0587H88.9837C88.9778 52.5145 88.9747 52.503 88.9747 52.4913C88.9747 52.4796 88.9778 52.4681 88.9837 52.458L86.667 43.2913C86.6682 43.2657 86.6779 43.2412 86.6945 43.2216C86.711 43.202 86.7336 43.1885 86.7587 43.183H96.967H97.042C97.042 43.183 97.042 43.2246 97.042 43.2496L94.9253 52.4163C94.9087 52.4913 94.867 52.5246 94.817 52.5246ZM89.167 52.333H94.7253L96.842 43.3246H86.842L89.167 52.333Z" fill="#221E54"/>
<path d="M11.1334 41.1832L10.0001 40.0999C9.46673 39.5946 9.03902 38.9884 8.74175 38.3165C8.45029 37.6519 8.2998 36.934 8.2998 36.2082C8.2998 35.4824 8.45029 34.7646 8.74175 34.0999C9.04092 33.434 9.46853 32.8336 10.0001 32.3332L11.1334 31.2499L12.2751 32.3332C12.8101 32.837 13.2381 33.4436 13.5334 34.1165C13.8249 34.7812 13.9754 35.4991 13.9754 36.2249C13.9754 36.9506 13.8249 37.6685 13.5334 38.3332C13.2361 39.0051 12.8084 39.6112 12.2751 40.1165L11.1334 41.1832Z" fill="#FED401"/>
<path d="M11.1334 36.0915V43.5915V36.0915ZM11.1334 42.9165L13.4167 40.7499L11.1334 42.9165ZM11.1334 41.1832L10.0001 40.0999C9.46673 39.5946 9.03902 38.9884 8.74175 38.3165C8.45029 37.6519 8.2998 36.934 8.2998 36.2082C8.2998 35.4824 8.45029 34.7646 8.74175 34.0999C9.04092 33.434 9.46853 32.8336 10.0001 32.3332L11.1334 31.2499L12.2751 32.3332C12.8101 32.837 13.2381 33.4436 13.5334 34.1165C13.8249 34.7812 13.9754 35.4991 13.9754 36.2249C13.9754 36.9506 13.8249 37.6685 13.5334 38.3332C13.2361 39.0051 12.8084 39.6112 12.2751 40.1165L11.1334 41.1832Z" stroke="#221E54" stroke-width="0.8" stroke-linecap="round" stroke-linejoin="round"/>
<path d="M13.417 40.7582L13.642 40.0415C13.7462 39.7033 13.9161 39.389 14.142 39.1165C14.3674 38.8498 14.6447 38.6318 14.957 38.4756C15.2693 38.3195 15.6101 38.2285 15.9587 38.2082C16.3128 38.1935 16.6665 38.2473 17.0003 38.3665L17.7087 38.6248L17.4837 39.3498C17.3881 39.6883 17.2221 40.0028 16.9967 40.2728C16.7712 40.5427 16.4913 40.7621 16.1753 40.9165C15.8611 41.0724 15.5175 41.1604 15.167 41.1748C14.8265 41.1885 14.4866 41.1347 14.167 41.0165L13.4503 40.7582" fill="#FED401"/>
<path d="M13.417 40.7582L13.642 40.0415C13.7462 39.7033 13.9161 39.389 14.142 39.1165C14.3674 38.8498 14.6447 38.6318 14.957 38.4756C15.2693 38.3195 15.6101 38.2285 15.9587 38.2082C16.3128 38.1935 16.6665 38.2473 17.0003 38.3665L17.7087 38.6248L17.4837 39.3498C17.3881 39.6883 17.2221 40.0028 16.9967 40.2728C16.7712 40.5427 16.4913 40.7621 16.1753 40.9165C15.8611 41.0724 15.5175 41.1604 15.167 41.1748C14.8265 41.1885 14.4866 41.1347 14.167 41.0165L13.4503 40.7582" stroke="#221E54" stroke-width="0.8" stroke-linecap="round" stroke-linejoin="round"/>
<path d="M51.5003 55.5663C66.8669 55.5663 79.3253 54.2747 79.3253 52.6913C79.3253 51.108 66.8669 49.833 51.5003 49.833C36.1336 49.833 23.6836 51.1247 23.6836 52.7163C23.6836 54.308 36.1336 55.5663 51.5003 55.5663Z" fill="#A1AED9"/>
<path d="M73.458 19.1998H29.558C28.5363 19.1998 27.708 20.0281 27.708 21.0498V50.8415C27.708 51.8632 28.5363 52.6915 29.558 52.6915H73.458C74.4797 52.6915 75.308 51.8632 75.308 50.8415V21.0498C75.308 20.0281 74.4797 19.1998 73.458 19.1998Z" fill="white" stroke="#221E54" stroke-width="0.8" stroke-linecap="round" stroke-linejoin="round"/>
<path d="M29.558 19.1998H73.4497C73.9403 19.1998 74.4109 19.3947 74.7578 19.7417C75.1048 20.0886 75.2997 20.5592 75.2997 21.0498V27.0165H27.708V21.0498C27.708 20.5592 27.9029 20.0886 28.2499 19.7417C28.5968 19.3947 29.0674 19.1998 29.558 19.1998Z" fill="#FED401" stroke="#221E54" stroke-width="0.8" stroke-linecap="round" stroke-linejoin="round"/>
<path d="M49.4667 31.1749H43.125V37.5166H49.4667V31.1749Z" fill="white" stroke="#221E54" stroke-width="0.8" stroke-linecap="round" stroke-linejoin="round"/>
<path d="M59.8837 31.1749H53.542V37.5166H59.8837V31.1749Z" fill="white" stroke="#221E54" stroke-width="0.8" stroke-linecap="round" stroke-linejoin="round"/>
<path d="M70.2997 31.1749H63.958V37.5166H70.2997V31.1749Z" fill="white" stroke="#221E54" stroke-width="0.8" stroke-linecap="round" stroke-linejoin="round"/>
<path d="M39.0497 31.1749H32.708V37.5166H39.0497V31.1749Z" fill="white" stroke="#221E54" stroke-width="0.8" stroke-linecap="round" stroke-linejoin="round"/>
<path d="M49.4667 41.3995H43.125V47.7412H49.4667V41.3995Z" fill="white" stroke="#221E54" stroke-width="0.8" stroke-linecap="round" stroke-linejoin="round"/>
<path d="M59.8837 41.3995H53.542V47.7412H59.8837V41.3995Z" fill="white" stroke="#221E54" stroke-width="0.8" stroke-linecap="round" stroke-linejoin="round"/>
<path d="M70.2997 41.3995H63.958V47.7412H70.2997V41.3995Z" fill="white" stroke="#221E54" stroke-width="0.8" stroke-linecap="round" stroke-linejoin="round"/>
<path d="M39.0497 41.3995H32.708V47.7412H39.0497V41.3995Z" fill="white" stroke="#221E54" stroke-width="0.8" stroke-linecap="round" stroke-linejoin="round"/>
<path d="M35.625 17.8579V20.5329" stroke="#221E54" stroke-width="0.8" stroke-linecap="round" stroke-linejoin="round"/>
<path d="M42.8164 17.8579V20.5329" stroke="#221E54" stroke-width="0.8" stroke-linecap="round" stroke-linejoin="round"/>
<path d="M50 17.8579V20.5329" stroke="#221E54" stroke-width="0.8" stroke-linecap="round" stroke-linejoin="round"/>
<path d="M56.5088 17.8579V20.5329" stroke="#221E54" stroke-width="0.8" stroke-linecap="round" stroke-linejoin="round"/>
<path d="M63.6914 17.8579V20.5329" stroke="#221E54" stroke-width="0.8" stroke-linecap="round" stroke-linejoin="round"/>
<path d="M70.8838 17.8579V20.5329" stroke="#221E54" stroke-width="0.8" stroke-linecap="round" stroke-linejoin="round"/>
<path d="M32.125 17.8579V20.5329" stroke="#221E54" stroke-width="0.8" stroke-linecap="round" stroke-linejoin="round"/>
<path d="M39.3086 17.8579V20.5329" stroke="#221E54" stroke-width="0.8" stroke-linecap="round" stroke-linejoin="round"/>
<path d="M46.5 17.8579V20.5329" stroke="#221E54" stroke-width="0.8" stroke-linecap="round" stroke-linejoin="round"/>
<path d="M53.0088 17.8579V20.5329" stroke="#221E54" stroke-width="0.8" stroke-linecap="round" stroke-linejoin="round"/>
<path d="M60.1914 17.8579V20.5329" stroke="#221E54" stroke-width="0.8" stroke-linecap="round" stroke-linejoin="round"/>
<path d="M67.3838 17.8579V20.5329" stroke="#221E54" stroke-width="0.8" stroke-linecap="round" stroke-linejoin="round"/>
<path d="M61.3831 8.08301C61.5073 7.4628 61.7529 6.87326 62.1058 6.34828C62.4587 5.82331 62.9118 5.37325 63.4392 5.02399C63.9666 4.67473 64.5578 4.43315 65.1788 4.31314C65.7999 4.19313 66.4385 4.19705 67.0581 4.32468L72.6414 5.49968C73.8901 5.74943 74.9885 6.485 75.6949 7.54458C76.4013 8.60416 76.6578 9.90095 76.4081 11.1497C76.1583 12.3984 75.4227 13.4968 74.3632 14.2032C73.3036 14.9096 72.0068 15.1661 70.7581 14.9163L65.1831 13.7497C63.9278 13.502 62.8222 12.7659 62.1096 11.7032C61.397 10.6406 61.1357 9.33836 61.3831 8.08301Z" fill="#FED401"/>
<path d="M72.675 7.44978L74.8417 5.42478C75.0224 5.25961 75.1681 5.05994 75.2704 4.83754C75.3726 4.61514 75.4293 4.37451 75.4371 4.12985C75.4448 3.8852 75.4035 3.64146 75.3156 3.41302C75.2277 3.18458 75.0949 2.97607 74.925 2.79978L74.725 2.59978C74.3858 2.23784 73.9179 2.02367 73.4222 2.00341C72.9265 1.98315 72.4427 2.15841 72.075 2.49144L69.9 4.51644C69.7216 4.6821 69.5778 4.88149 69.477 5.10308C69.3761 5.32467 69.3202 5.56405 69.3125 5.80739C69.3047 6.05073 69.3453 6.29318 69.4318 6.52074C69.5184 6.7483 69.6492 6.95643 69.8167 7.13311L70 7.33311C70.3402 7.70172 70.8124 7.92085 71.3135 7.9427C71.8146 7.96456 72.304 7.78737 72.675 7.44978Z" fill="white" stroke="#221E54" stroke-width="0.8" stroke-miterlimit="10" stroke-linecap="round"/>
<path d="M72.0166 6.0081L72.2999 3.0581C72.3369 2.55616 72.175 2.05981 71.8491 1.67625C71.5233 1.29268 71.0596 1.05269 70.5583 1.0081H70.3166C69.8171 0.961746 69.3197 1.11568 68.9337 1.43604C68.5477 1.7564 68.3047 2.21696 68.2583 2.71643L68.0499 5.66643C68.0174 6.1687 68.182 6.66386 68.5088 7.04667C68.8356 7.42948 69.2988 7.66976 69.7999 7.71643H70.0416C70.285 7.74168 70.5309 7.71681 70.7643 7.64337C70.9977 7.56992 71.2135 7.44946 71.3986 7.2894C71.5836 7.12934 71.7339 6.93308 71.8402 6.71272C71.9465 6.49235 72.0065 6.25255 72.0166 6.0081Z" fill="white" stroke="#221E54" stroke-width="0.8" stroke-miterlimit="10" stroke-linecap="round"/>
<path d="M61.3663 8.06629C61.4923 7.44716 61.7396 6.85912 62.0941 6.33612C62.4486 5.81311 62.9031 5.36552 63.4315 5.01917C63.96 4.67283 64.5518 4.43461 65.1728 4.31826C65.7938 4.20191 66.4317 4.20974 67.0496 4.34129L72.633 5.52463C73.2569 5.63845 73.852 5.87522 74.3835 6.22115C74.9151 6.56708 75.3726 7.01527 75.7293 7.53964C76.0861 8.06401 76.335 8.65408 76.4616 9.27554C76.5882 9.897 76.5899 10.5374 76.4667 11.1596C76.3435 11.7817 76.0978 12.3731 75.7439 12.8994C75.39 13.4257 74.9349 13.8764 74.4053 14.2252C73.8756 14.574 73.2818 14.814 72.6585 14.9312C72.0352 15.0484 71.3949 15.0405 70.7746 14.908L65.183 13.7246C63.9285 13.4766 62.8231 12.7425 62.1081 11.6823C61.393 10.6222 61.1263 9.3223 61.3663 8.06629Z" fill="#FED401"/>
<path d="M93.917 13.1499C93.5753 14.3415 91.7837 17.1415 87.2087 15.7249C82.6337 14.3082 83.6337 10.3499 85.1337 9.89153C86.6337 9.4332 87.8337 11.7665 85.2503 13.4165C83.1753 14.7415 80.3337 13.0582 79.167 12.0499" stroke="#221E54" stroke-width="0.8" stroke-linecap="round" stroke-dasharray="3.5 3.5"/>
<mask id="mask0" mask-type="alpha" maskUnits="userSpaceOnUse" x="61" y="4" width="16" height="12">
<path d="M61.3831 8.08301C61.5073 7.4628 61.7529 6.87326 62.1058 6.34828C62.4587 5.82331 62.9118 5.37325 63.4392 5.02399C63.9666 4.67473 64.5578 4.43315 65.1788 4.31314C65.7999 4.19313 66.4385 4.19705 67.0581 4.32468L72.6414 5.49968C73.8901 5.74943 74.9885 6.485 75.6949 7.54458C76.4013 8.60416 76.6578 9.90095 76.4081 11.1497C76.1583 12.3984 75.4227 13.4968 74.3632 14.2032C73.3036 14.9096 72.0068 15.1661 70.7581 14.9163L65.1831 13.7497C63.9278 13.502 62.8222 12.7659 62.1096 11.7032C61.397 10.6406 61.1357 9.33836 61.3831 8.08301Z" fill="#FED401"/>
</mask>
<g mask="url(#mask0)">
<path d="M71.9499 5.13289C74.4249 10.6662 69.9999 14.8329 69.9999 14.8329L66.4082 14.0662C71.4082 9.89955 68.3332 4.20789 68.3332 4.20789C68.3332 4.20789 71.8665 5.05789 71.9499 5.13289Z" fill="#221E54"/>
<path d="M78.0417 6.69953C80.5417 12.1329 76.1167 16.2745 76.1167 16.2745L72.5 15.4995C77.4417 11.3329 74.4333 5.80786 74.4333 5.80786C74.4333 5.80786 78 6.61619 78.0417 6.69953Z" fill="#221E54"/>
</g>
<path d="M65.1837 9.51634C64.9684 9.6137 64.7268 9.63623 64.4972 9.58036C64.2677 9.52448 64.0634 9.39341 63.917 9.20801" stroke="#221E54" stroke-width="0.8" stroke-miterlimit="10" stroke-linecap="round"/>
<path d="M66.4581 7.93321C66.3841 7.9149 66.3071 7.91194 66.2319 7.92451C66.1567 7.93708 66.0849 7.96491 66.0209 8.00629C65.9569 8.04767 65.902 8.10172 65.8597 8.16511C65.8173 8.2285 65.7884 8.29989 65.7747 8.37488C65.7496 8.52574 65.7831 8.68048 65.8683 8.80748C65.9535 8.93449 66.084 9.02417 66.2331 9.05821C66.382 9.0881 66.5368 9.05867 66.6644 8.97618C66.7921 8.89369 66.8825 8.76466 66.9164 8.61654C66.9346 8.54135 66.937 8.4632 66.9234 8.38704C66.9098 8.31088 66.8805 8.23838 66.8374 8.17413C66.7943 8.10988 66.7384 8.05529 66.6731 8.01382C66.6077 7.97234 66.5345 7.94489 66.4581 7.93321Z" fill="#221E54"/>
<path d="M66.5085 8.24976C66.4859 8.23226 66.4588 8.22159 66.4303 8.219C66.4018 8.21641 66.3732 8.22202 66.3478 8.23515C66.3224 8.24829 66.3013 8.26841 66.287 8.29314C66.2726 8.31787 66.2657 8.34619 66.2669 8.37476C66.2592 8.39883 66.2564 8.42418 66.2585 8.44936C66.2606 8.47453 66.2677 8.49904 66.2793 8.52148C66.2909 8.54392 66.3068 8.56385 66.3262 8.58014C66.3455 8.59644 66.3678 8.60876 66.3919 8.61642C66.4159 8.62408 66.4413 8.62693 66.4665 8.62479C66.4916 8.62266 66.5162 8.61558 66.5386 8.60397C66.561 8.59237 66.581 8.57645 66.5973 8.55714C66.6135 8.53783 66.6259 8.5155 66.6335 8.49142C66.6669 8.37476 66.5502 8.24976 66.5085 8.24976Z" fill="white"/>
<path d="M63.5 7.33306C63.4248 7.31406 63.3465 7.31048 63.2698 7.32254C63.1932 7.33459 63.1198 7.36204 63.054 7.40321C62.9883 7.44439 62.9315 7.49845 62.8872 7.56213C62.8429 7.62582 62.8119 7.69781 62.7962 7.77378C62.7804 7.84975 62.7802 7.92812 62.7955 8.00417C62.8108 8.08023 62.8414 8.1524 62.8854 8.21633C62.9293 8.28026 62.9858 8.33463 63.0513 8.37618C63.1168 8.41772 63.1901 8.44557 63.2666 8.45806C63.4167 8.48817 63.5725 8.45898 63.7015 8.37663C63.8305 8.29428 63.9225 8.16516 63.9583 8.01639C63.9877 7.86504 63.956 7.7082 63.8702 7.58015C63.7843 7.4521 63.6512 7.36326 63.5 7.33306Z" fill="#221E54"/>
<path d="M63.5417 7.66626C63.5191 7.64876 63.492 7.63809 63.4635 7.6355C63.435 7.63292 63.4064 7.63852 63.381 7.65165C63.3556 7.66479 63.3345 7.68491 63.3202 7.70964C63.3058 7.73438 63.2989 7.7627 63.3001 7.79126C63.2924 7.81534 63.2896 7.84068 63.2917 7.86586C63.2938 7.89103 63.3009 7.91554 63.3125 7.93798C63.3241 7.96042 63.34 7.98036 63.3594 7.99665C63.3787 8.01294 63.401 8.02527 63.4251 8.03293C63.4491 8.04059 63.4745 8.04343 63.4997 8.0413C63.5248 8.03916 63.5494 8.03209 63.5718 8.02048C63.5942 8.00887 63.6142 7.99296 63.6305 7.97365C63.6468 7.95433 63.6591 7.932 63.6667 7.90793C63.6667 7.79126 63.5834 7.66626 63.5417 7.66626Z" fill="white"/>
<path d="M62.8418 2.97474C64.6251 2.48308 64.5751 4.83308 64.5751 4.83308" stroke="#221E54" stroke-width="0.8" stroke-miterlimit="10" stroke-linecap="round"/>
<path d="M65.9082 2.33301C67.4415 2.89967 66.3249 5.16634 66.3249 5.16634" stroke="#221E54" stroke-width="0.8" stroke-miterlimit="10" stroke-linecap="round"/>
<path d="M56.083 35.5249L58.4913 33.1749" stroke="#221E54" stroke-width="0.8" stroke-linecap="round" stroke-linejoin="round"/>
<path d="M54.9336 34.2247L56.0836 35.5247" stroke="#221E54" stroke-width="0.8" stroke-linecap="round" stroke-linejoin="round"/>
</svg>
